<svg xmlns="http://www.w3.org/2000/svg" xmlns:xlink="http://www.w3.org/1999/xlink" contentStyleType="text/css" data-diagram-type="CLASS" height="458px" preserveAspectRatio="none" style="width:811px;height:458px;background:#24273A;" version="1.1" viewBox="0 0 811 458" width="811px" zoomAndPan="magnify"><defs/><g><rect fill="#24273A" height="458" style="stroke:none;stroke-width:1;" width="811" x="0" y="0"/><!--class Kind--><g class="entity" data-entity="Kind" data-source-line="4" data-uid="ent0002" id="entity_Kind"><rect fill="#24273A" height="48.1362" rx="1.5" ry="1.5" style="stroke:#C6A0F6;stroke-width:2;" width="249.9255" x="7" y="10.016"/><rect fill="#363A4F" height="48.1362" rx="1.5" ry="1.5" style="stroke:#363A4F;stroke-width:2;" width="249.9255" x="7" y="10.016"/><rect fill="#363A4F" height="1.5" style="stroke:#363A4F;stroke-width:2;" width="249.9255" x="7" y="56.6522"/><rect fill="none" height="48.1362" rx="1.5" ry="1.5" style="stroke:#C6A0F6;stroke-width:2;" width="249.9255" x="7" y="10.016"/><ellipse cx="21" cy="34.0841" fill="#B4A7E5" rx="10" ry="10" style="stroke:#181818;stroke-width:1;"/><path d="M18.5781,38.5841 L18.5781,37.381 L20.25,37.1935 L20.25,31.4122 L18.5781,31.2091 L18.5781,30.0216 L23.625,30.0216 L23.625,31.2091 L21.9219,31.4122 L21.9219,37.1935 L23.625,37.381 L23.625,38.5841 L18.5781,38.5841 Z " fill="#CAD3F5"/><text fill="#CAD3F5" font-family="Helvetica" font-size="12" font-style="italic" lengthAdjust="spacing" textLength="70.4405" x="32" y="27.8441">&#171;HKT Bridge&#187;</text><text fill="#A6DA95" font-family="Helvetica" font-size="16" font-style="italic" lengthAdjust="spacing" textLength="31.6481" x="51.3962" y="48.4642">Kind</text><rect fill="#24273A" height="18.3441" style="stroke:#C6A0F6;stroke-width:1;stroke-dasharray:2,2;" width="151.485" x="108.4405" y="7.016"/><text fill="#CAD3F5" font-family="Helvetica" font-size="12" font-style="italic" lengthAdjust="spacing" textLength="149.485" x="109.4405" y="20.8441">F extends WitnessArity&lt;?&gt;, A</text></g><g class="entity" data-entity="WitnessNote" data-source-line="6" data-uid="ent0003" id="entity_WitnessNote"><path d="M292.22,14.246 L292.22,53.9343 A1.5,1.5 0 0 0 293.72,55.4343 L486.2132,55.4343 A1.5,1.5 0 0 0 487.7132,53.9343 L487.7132,22.746 L477.7132,12.746 L293.72,12.746 A1.5,1.5 0 0 0 292.22,14.246" fill="#EED49F" style="stroke:#24273A;stroke-width:0.5;"/><path d="M477.7132,12.746 L477.7132,21.996 A0.75,0.75 0 0 0 478.4632,22.746 L487.7132,22.746 L477.7132,12.746" fill="#EED49F" style="stroke:#24273A;stroke-width:1;"/><text fill="#24273A" font-family="Helvetica" font-size="12" lengthAdjust="spacing" textLength="114.4328" x="298.22" y="30.5741">Witness implements</text><text fill="#24273A" font-family="Helvetica" font-size="12" lengthAdjust="spacing" textLength="174.4932" x="298.22" y="46.9182">WitnessArity&lt;TypeArity.Unary&gt;</text></g><!--class CompletableFutureKind--><g class="entity" data-entity="CompletableFutureKind" data-source-line="8" data-uid="ent0004" id="entity_CompletableFutureKind"><rect fill="#24273A" height="31.792" rx="1.5" ry="1.5" style="stroke:#C6A0F6;stroke-width:2;" width="207.7684" x="28.08" y="147.666"/><rect fill="#363A4F" height="31.792" rx="1.5" ry="1.5" style="stroke:#363A4F;stroke-width:2;" width="207.7684" x="28.08" y="147.666"/><rect fill="#363A4F" height="1.5" style="stroke:#363A4F;stroke-width:2;" width="207.7684" x="28.08" y="177.9581"/><rect fill="none" height="31.792" rx="1.5" ry="1.5" style="stroke:#C6A0F6;stroke-width:2;" width="207.7684" x="28.08" y="147.666"/><ellipse cx="42.08" cy="163.562" fill="#B4A7E5" rx="10" ry="10" style="stroke:#181818;stroke-width:1;"/><path d="M39.6581,168.062 L39.6581,166.8589 L41.33,166.6714 L41.33,160.8902 L39.6581,160.687 L39.6581,159.4995 L44.705,159.4995 L44.705,160.687 L43.0019,160.8902 L43.0019,166.6714 L44.705,166.8589 L44.705,168.062 L39.6581,168.062 Z " fill="#CAD3F5"/><text fill="#A6DA95" font-family="Helvetica" font-size="16" font-style="italic" lengthAdjust="spacing" textLength="167.0243" x="55.08" y="169.7701">CompletableFutureKind</text><rect fill="#24273A" height="18.3441" style="stroke:#C6A0F6;stroke-width:1;stroke-dasharray:2,2;" width="8.744" x="230.1043" y="144.666"/><text fill="#CAD3F5" font-family="Helvetica" font-size="12" font-style="italic" lengthAdjust="spacing" textLength="6.744" x="231.1043" y="158.4941">A</text></g><!--class CompletableFuture<A>--><g class="entity" data-entity="CompletableFuture.A." data-source-line="12" data-uid="ent0006" id="entity_CompletableFuture.A."><rect fill="#24273A" height="31.792" rx="1.5" ry="1.5" style="stroke:#C6A0F6;stroke-width:2;" width="203.5044" x="337.21" y="420.116"/><rect fill="#363A4F" height="31.792" rx="1.5" ry="1.5" style="stroke:#363A4F;stroke-width:2;" width="203.5044" x="337.21" y="420.116"/><rect fill="#363A4F" height="1.5" style="stroke:#363A4F;stroke-width:2;" width="203.5044" x="337.21" y="450.4081"/><rect fill="none" height="31.792" rx="1.5" ry="1.5" style="stroke:#C6A0F6;stroke-width:2;" width="203.5044" x="337.21" y="420.116"/><ellipse cx="351.21" cy="436.012" fill="#ADD1B2" rx="10" ry="10" style="stroke:#181818;stroke-width:1;"/><path d="M350.9288,440.637 Q349.6788,440.637 348.8819,440.1214 Q348.085,439.5902 347.6944,438.637 Q347.3038,437.6839 347.3038,436.4027 Q347.3038,434.9808 347.7725,433.9652 Q348.2413,432.9339 349.1475,432.387 Q350.0538,431.8245 351.3663,431.8245 Q351.9913,431.8245 352.46,431.9495 Q352.9444,432.0745 353.4288,432.3089 L352.8506,433.7464 Q352.4131,433.512 352.0225,433.4339 Q351.6475,433.3558 351.3038,433.3558 Q350.4756,433.3558 349.9756,433.7308 Q349.4913,434.0902 349.2725,434.762 Q349.0694,435.4339 349.0694,436.3402 Q349.0694,437.7464 349.5694,438.4339 Q350.085,439.1058 351.21,439.1058 Q351.6319,439.1058 352.0694,438.9964 Q352.5069,438.887 353.1006,438.6214 L353.1006,440.1839 Q352.585,440.4183 352.0225,440.5277 Q351.46,440.637 350.9288,440.637 Z " fill="#CAD3F5"/><text fill="#A6DA95" font-family="Helvetica" font-size="16" lengthAdjust="spacing" textLength="173.5044" x="364.21" y="442.2201">CompletableFuture&lt;A&gt;</text></g><!--class CompletableFutureKindHelper--><g class="entity" data-entity="CompletableFutureKindHelper" data-source-line="17" data-uid="ent0007" id="entity_CompletableFutureKindHelper"><rect fill="#24273A" height="88.8244" rx="1.5" ry="1.5" style="stroke:#C6A0F6;stroke-width:2;" width="533.2877" x="271.32" y="119.156"/><rect fill="#363A4F" height="31.792" rx="1.5" ry="1.5" style="stroke:#363A4F;stroke-width:2;" width="533.2877" x="271.32" y="119.156"/><rect fill="#363A4F" height="1.5" style="stroke:#363A4F;stroke-width:2;" width="533.2877" x="271.32" y="149.4481"/><rect fill="none" height="88.8244" rx="1.5" ry="1.5" style="stroke:#C6A0F6;stroke-width:2;" width="533.2877" x="271.32" y="119.156"/><ellipse cx="419.3556" cy="135.052" fill="#ADD1B2" rx="10" ry="10" style="stroke:#181818;stroke-width:1;"/><path d="M419.0743,139.677 Q417.8243,139.677 417.0275,139.1614 Q416.2306,138.6302 415.84,137.677 Q415.4493,136.7239 415.4493,135.4427 Q415.4493,134.0208 415.9181,133.0052 Q416.3868,131.9739 417.2931,131.427 Q418.1993,130.8645 419.5118,130.8645 Q420.1368,130.8645 420.6056,130.9895 Q421.09,131.1145 421.5743,131.3489 L420.9962,132.7864 Q420.5587,132.552 420.1681,132.4739 Q419.7931,132.3958 419.4493,132.3958 Q418.6212,132.3958 418.1212,132.7708 Q417.6368,133.1302 417.4181,133.802 Q417.215,134.4739 417.215,135.3802 Q417.215,136.7864 417.715,137.4739 Q418.2306,138.1458 419.3556,138.1458 Q419.7775,138.1458 420.215,138.0364 Q420.6525,137.927 421.2462,137.6614 L421.2462,139.2239 Q420.7306,139.4583 420.1681,139.5677 Q419.6056,139.677 419.0743,139.677 Z " fill="#CAD3F5"/><text fill="#A6DA95" font-family="Helvetica" font-size="16" lengthAdjust="spacing" textLength="229.2165" x="438.3556" y="141.2601">CompletableFutureKindHelper</text><line style="stroke:#C6A0F6;stroke-width:2;" x1="272.32" x2="803.6077" y1="150.9481" y2="150.9481"/><ellipse cx="282.32" cy="164.6201" fill="#84BE84" rx="3" ry="3" style="stroke:#038048;stroke-width:1;"/><text fill="#A6DA95" font-family="Helvetica" font-size="12" lengthAdjust="spacing" text-decoration="underline" textLength="469.5634" x="290.32" y="167.7762">Kind&lt;CompletableFutureKind.Witness, A&gt; widen(@NonNull CompletableFuture&lt;A&gt;)</text><ellipse cx="282.32" cy="180.9642" fill="#84BE84" rx="3" ry="3" style="stroke:#038048;stroke-width:1;"/><text fill="#A6DA95" font-family="Helvetica" font-size="12" lengthAdjust="spacing" text-decoration="underline" textLength="508.2877" x="290.32" y="184.1203">@NonNull CompletableFuture&lt;A&gt; narrow(@Nullable Kind&lt;CompletableFutureKind&lt;?&gt;, A&gt;)</text><ellipse cx="282.32" cy="197.3084" fill="#84BE84" rx="3" ry="3" style="stroke:#038048;stroke-width:1;"/><text fill="#A6DA95" font-family="Helvetica" font-size="12" lengthAdjust="spacing" text-decoration="underline" textLength="244.8977" x="290.32" y="200.4644">A join(Kind&lt;CompletableFutureKind&lt;?&gt;, A&gt;)</text></g><!--class CompletableFutureHolder--><g class="entity" data-entity="CompletableFutureHolder" data-source-line="24" data-uid="ent0008" id="entity_CompletableFutureHolder"><rect fill="#24273A" height="56.1362" rx="1.5" ry="1.5" style="stroke:#C6A0F6;stroke-width:2;" width="253.6976" x="214.11" y="285.976"/><rect fill="#363A4F" height="31.792" rx="1.5" ry="1.5" style="stroke:#363A4F;stroke-width:2;" width="253.6976" x="214.11" y="285.976"/><rect fill="#363A4F" height="1.5" style="stroke:#363A4F;stroke-width:2;" width="253.6976" x="214.11" y="316.2681"/><rect fill="none" height="56.1362" rx="1.5" ry="1.5" style="stroke:#C6A0F6;stroke-width:2;" width="253.6976" x="214.11" y="285.976"/><ellipse cx="235.6885" cy="301.872" fill="#ADD1B2" rx="10" ry="10" style="stroke:#181818;stroke-width:1;"/><path d="M235.4073,306.497 Q234.1573,306.497 233.3604,305.9814 Q232.5635,305.4502 232.1729,304.497 Q231.7823,303.5439 231.7823,302.2627 Q231.7823,300.8408 232.251,299.8252 Q232.7198,298.7939 233.626,298.247 Q234.5323,297.6845 235.8448,297.6845 Q236.4698,297.6845 236.9385,297.8095 Q237.4229,297.9345 237.9073,298.1689 L237.3292,299.6064 Q236.8917,299.372 236.501,299.2939 Q236.126,299.2158 235.7823,299.2158 Q234.9542,299.2158 234.4542,299.5908 Q233.9698,299.9502 233.751,300.622 Q233.5479,301.2939 233.5479,302.2002 Q233.5479,303.6064 234.0479,304.2939 Q234.5635,304.9658 235.6885,304.9658 Q236.1104,304.9658 236.5479,304.8564 Q236.9854,304.747 237.5792,304.4814 L237.5792,306.0439 Q237.0635,306.2783 236.501,306.3877 Q235.9385,306.497 235.4073,306.497 Z " fill="#CAD3F5"/><text fill="#A6DA95" font-family="Helvetica" font-size="16" lengthAdjust="spacing" textLength="196.1124" x="250.3726" y="308.0801">CompletableFutureHolder</text><rect fill="#24273A" height="18.3441" style="stroke:#C6A0F6;stroke-width:1;stroke-dasharray:2,2;" width="8.744" x="462.0636" y="282.976"/><text fill="#CAD3F5" font-family="Helvetica" font-size="12" font-style="italic" lengthAdjust="spacing" textLength="6.744" x="463.0636" y="296.8041">A</text><line style="stroke:#C6A0F6;stroke-width:2;" x1="215.11" x2="466.8076" y1="317.7681" y2="317.7681"/><rect fill="none" height="6" style="stroke:#C82930;stroke-width:1;" width="6" x="222.11" y="328.4401"/><text fill="#A6DA95" font-family="Helvetica" font-size="12" lengthAdjust="spacing" textLength="228.6976" x="233.11" y="334.5962">@NonNull CompletableFuture&lt;A&gt; future</text></g><!--reverse link Kind to CompletableFutureKind--><g class="link" data-entity-1="Kind" data-entity-2="CompletableFutureKind" data-uid="lnk5" id="link_Kind_CompletableFutureKind"><path d="M131.96,76.466 C131.96,102.346 131.96,125.296 131.96,147.326" fill="none" id="Kind-backto-CompletableFutureKind" style="stroke:#F5BDE6;stroke-width:1;"/><polygon fill="none" points="131.96,58.466,125.96,76.466,137.96,76.466,131.96,58.466" style="stroke:#F5BDE6;stroke-width:1;"/></g><!--reverse link CompletableFutureKind to CompletableFutureHolder--><g class="link" data-entity-1="CompletableFutureKind" data-entity-2="CompletableFutureHolder" data-source-line="25" data-uid="lnk9" id="link_CompletableFutureKind_CompletableFutureHolder"><path d="M168.214,190.3207 C203.264,215.2207 258.35,254.356 302.17,285.486" fill="none" id="CompletableFutureKind-backto-CompletableFutureHolder" style="stroke:#F5BDE6;stroke-width:1;stroke-dasharray:7,7;"/><polygon fill="none" points="153.54,179.896,164.7392,195.212,171.6889,185.4293,153.54,179.896" style="stroke:#F5BDE6;stroke-width:1;"/></g><!--link CompletableFutureKindHelper to CompletableFutureHolder--><g class="link" data-entity-1="CompletableFutureKindHelper" data-entity-2="CompletableFutureHolder" data-source-line="28" data-uid="lnk10" id="link_CompletableFutureKindHelper_CompletableFutureHolder"><path codeLine="28" d="M479.92,208.316 C446.78,233.286 411.0314,260.2346 382.3214,281.8746" fill="none" id="CompletableFutureKindHelper-to-CompletableFutureHolder" style="stroke:#F5BDE6;stroke-width:1;stroke-dasharray:7,7;"/><polygon fill="#F5BDE6" points="377.53,285.486,387.1247,283.2631,381.5228,282.4765,382.3094,276.8746,377.53,285.486" style="stroke:#F5BDE6;stroke-width:1;"/><text fill="#CAD3F5" font-family="Helvetica" font-size="12" lengthAdjust="spacing" textLength="41.0643" x="440.46" y="251.8041">creates</text></g><!--link CompletableFutureKindHelper to CompletableFuture<A>--><g class="link" data-entity-1="CompletableFutureKindHelper" data-entity-2="CompletableFuture.A." data-source-line="29" data-uid="lnk11" id="link_CompletableFutureKindHelper_CompletableFuture.A."><path codeLine="29" d="M527.13,208.316 C517.59,244.686 502.52,297.516 484.96,342.116 C473.82,370.416 460.2349,396.5751 450.3149,414.6651" fill="none" id="CompletableFutureKindHelper-to-CompletableFuture&lt;A&gt;" style="stroke:#F5BDE6;stroke-width:1;stroke-dasharray:7,7;"/><polygon fill="#F5BDE6" points="447.43,419.926,455.2647,413.9579,449.8341,415.5419,448.2501,410.1114,447.43,419.926" style="stroke:#F5BDE6;stroke-width:1;"/><text fill="#CAD3F5" font-family="Helvetica" font-size="12" lengthAdjust="spacing" textLength="142.4411" x="505.68" y="318.8741">narrows to / widens from</text></g><!--link CompletableFutureHolder to CompletableFuture<A>--><g class="link" data-entity-1="CompletableFutureHolder" data-entity-2="CompletableFuture.A." data-source-line="30" data-uid="lnk12" id="link_CompletableFutureHolder_CompletableFuture.A."><path codeLine="30" d="M371.0402,351.8606 C390.5902,375.8006 406.8138,395.6596 422.6638,415.0596" fill="none" id="CompletableFutureHolder-CompletableFuture&lt;A&gt;" style="stroke:#F5BDE6;stroke-width:1;"/><polygon fill="none" points="363.45,342.566,364.1469,349.7434,371.0402,351.8606,370.3433,344.6833,363.45,342.566" style="stroke:#F5BDE6;stroke-width:1;"/><polygon fill="#F5BDE6" points="426.46,419.706,423.8634,410.2056,423.2965,415.834,417.6681,415.2672,426.46,419.706" style="stroke:#F5BDE6;stroke-width:1;"/><text fill="#CAD3F5" font-family="Helvetica" font-size="12" lengthAdjust="spacing" textLength="30.9002" x="402.62" y="385.9441">holds</text></g><!--SRC=[ZPDDRzim38Rl-XLSBksmMRu7WRkiG16qG2xhiCikYipKAlG5YMuQ5FdlenrtQ9l4pOsooETzISfVZDUshH4QefYdPPdKHZuOQjfLcp7fu0azIHrSwNN8f0gZIwqenbPhumkdj6wCeb14gporpXRKeCFIAUFBFfIHluh6i0YwI5jmw5QOiX26uMcjDCATyVNi1l2PrUeCVmnvp7cU36rdLzLtc5Smcotkxk5dClK3LfKGFX32PCW4uw9bBK_vhtzNVR-Ds4VojrTfMqr0_USl6V7MnNNeAAHM5czQQXFsjbZxrLT_Ffeb1sHlzKK0NC2XDHXr9dP2QAkuOd8WmIOc0_ONAL-hLCEjUb9mtHLqbNotBpvgRu4sOke90D_WXHT9Hk_ERMZ3o_ENFvR1BrjhuPYzhn_Hezd07QUmOIHdT3SZJeO7S20mXyTW_EMPXHSWfUHeDpAfHR0rfixUcvsTV1JxOHQVDBhkerVXiUL8MPso15FG2HLXFeDnulLCXvbde03bVgKPrYcuOyn1DnJ52B3X9FwD_m40]--></g></svg>