<svg xmlns="http://www.w3.org/2000/svg" xmlns:xlink="http://www.w3.org/1999/xlink" contentStyleType="text/css" data-diagram-type="CLASS" height="473px" preserveAspectRatio="none" style="width:1116px;height:473px;background:#24273A;" version="1.1" viewBox="0 0 1116 473" width="1116px" zoomAndPan="magnify"><defs/><g><rect fill="#24273A" height="473" style="stroke:none;stroke-width:1;" width="1116" x="0" y="0"/><g class="entity" data-entity="ArityNote" data-source-line="4" data-uid="ent0002" id="entity_ArityNote"><path d="M518.06,7.5 L518.06,47.1882 A1.5,1.5 0 0 0 519.56,48.6882 L769.2816,48.6882 A1.5,1.5 0 0 0 770.7816,47.1882 L770.7816,16 L760.7816,6 L519.56,6 A1.5,1.5 0 0 0 518.06,7.5" fill="#EED49F" style="stroke:#24273A;stroke-width:0.5;"/><path d="M760.7816,6 L760.7816,15.25 A0.75,0.75 0 0 0 761.5316,16 L770.7816,16 L760.7816,6" fill="#EED49F" style="stroke:#24273A;stroke-width:1;"/><text fill="#24273A" font-family="Helvetica" font-size="12" lengthAdjust="spacing" textLength="231.7216" x="524.06" y="23.8281">F extends WitnessArity&lt;TypeArity.Unary&gt;</text><text fill="#24273A" font-family="Helvetica" font-size="12" lengthAdjust="spacing" textLength="102.8288" x="524.06" y="40.1722">for all type classes</text></g><!--class CompletableFutureKindHelper--><g class="entity" data-entity="CompletableFutureKindHelper" data-source-line="6" data-uid="ent0003" id="entity_CompletableFutureKindHelper"><rect fill="#24273A" height="31.792" rx="1.5" ry="1.5" style="stroke:#C6A0F6;stroke-width:2;" width="259.2165" x="717.82" y="264.17"/><rect fill="#363A4F" height="31.792" rx="1.5" ry="1.5" style="stroke:#363A4F;stroke-width:2;" width="259.2165" x="717.82" y="264.17"/><rect fill="#363A4F" height="1.5" style="stroke:#363A4F;stroke-width:2;" width="259.2165" x="717.82" y="294.462"/><rect fill="none" height="31.792" rx="1.5" ry="1.5" style="stroke:#C6A0F6;stroke-width:2;" width="259.2165" x="717.82" y="264.17"/><ellipse cx="731.82" cy="280.066" fill="#ADD1B2" rx="10" ry="10" style="stroke:#181818;stroke-width:1;"/><path d="M731.5388,284.691 Q730.2888,284.691 729.4919,284.1754 Q728.695,283.6441 728.3044,282.691 Q727.9138,281.7379 727.9138,280.4566 Q727.9138,279.0348 728.3825,278.0191 Q728.8513,276.9879 729.7575,276.441 Q730.6638,275.8785 731.9763,275.8785 Q732.6013,275.8785 733.07,276.0035 Q733.5544,276.1285 734.0388,276.3629 L733.4606,277.8004 Q733.0231,277.566 732.6325,277.4879 Q732.2575,277.4098 731.9138,277.4098 Q731.0856,277.4098 730.5856,277.7848 Q730.1013,278.1441 729.8825,278.816 Q729.6794,279.4879 729.6794,280.3941 Q729.6794,281.8004 730.1794,282.4879 Q730.695,283.1598 731.82,283.1598 Q732.2419,283.1598 732.6794,283.0504 Q733.1169,282.941 733.7106,282.6754 L733.7106,284.2379 Q733.195,284.4723 732.6325,284.5816 Q732.07,284.691 731.5388,284.691 Z " fill="#CAD3F5"/><text fill="#A6DA95" font-family="Helvetica" font-size="16" lengthAdjust="spacing" textLength="229.2165" x="744.82" y="286.274">CompletableFutureKindHelper</text></g><!--class CompletableFutureFunctor--><g class="entity" data-entity="CompletableFutureFunctor" data-source-line="8" data-uid="ent0004" id="entity_CompletableFutureFunctor"><rect fill="#24273A" height="56.1362" rx="1.5" ry="1.5" style="stroke:#C6A0F6;stroke-width:2;" width="524.9835" x="584.93" y="109.69"/><rect fill="#363A4F" height="31.792" rx="1.5" ry="1.5" style="stroke:#363A4F;stroke-width:2;" width="524.9835" x="584.93" y="109.69"/><rect fill="#363A4F" height="1.5" style="stroke:#363A4F;stroke-width:2;" width="524.9835" x="584.93" y="139.982"/><rect fill="none" height="56.1362" rx="1.5" ry="1.5" style="stroke:#C6A0F6;stroke-width:2;" width="524.9835" x="584.93" y="109.69"/><ellipse cx="742.0215" cy="125.586" fill="#ADD1B2" rx="10" ry="10" style="stroke:#181818;stroke-width:1;"/><path d="M741.7403,130.211 Q740.4903,130.211 739.6934,129.6954 Q738.8965,129.1641 738.5059,128.211 Q738.1153,127.2579 738.1153,125.9766 Q738.1153,124.5548 738.584,123.5391 Q739.0528,122.5079 739.959,121.961 Q740.8653,121.3985 742.1778,121.3985 Q742.8028,121.3985 743.2715,121.5235 Q743.7559,121.6485 744.2403,121.8829 L743.6622,123.3204 Q743.2247,123.086 742.834,123.0079 Q742.459,122.9298 742.1153,122.9298 Q741.2872,122.9298 740.7872,123.3048 Q740.3028,123.6641 740.084,124.336 Q739.8809,125.0079 739.8809,125.9141 Q739.8809,127.3204 740.3809,128.0079 Q740.8965,128.6798 742.0215,128.6798 Q742.4434,128.6798 742.8809,128.5704 Q743.3184,128.461 743.9122,128.1954 L743.9122,129.7579 Q743.3965,129.9923 742.834,130.1016 Q742.2715,130.211 741.7403,130.211 Z " fill="#CAD3F5"/><text fill="#A6DA95" font-family="Helvetica" font-size="16" lengthAdjust="spacing" textLength="202.8004" x="761.0215" y="131.794">CompletableFutureFunctor</text><line style="stroke:#C6A0F6;stroke-width:2;" x1="585.93" x2="1108.9135" y1="141.482" y2="141.482"/><ellipse cx="595.93" cy="155.1541" fill="#84BE84" rx="3" ry="3" style="stroke:#038048;stroke-width:1;"/><text fill="#A6DA95" font-family="Helvetica" font-size="12" lengthAdjust="spacing" textLength="499.9835" x="603.93" y="158.3101">Kind&lt;CFK, B&gt; map(Function&lt;A, B&gt;, Kind&lt;CFK, A&gt;) ' CFK = CompletableFutureKind.Witness</text></g><!--class Functor--><g class="entity" data-entity="Functor" data-source-line="9" data-uid="ent0005" id="entity_Functor"><rect fill="#24273A" height="31.792" rx="1.5" ry="1.5" style="stroke:#C6A0F6;stroke-width:2;" width="84.0961" x="805.38" y="11.45"/><rect fill="#363A4F" height="31.792" rx="1.5" ry="1.5" style="stroke:#363A4F;stroke-width:2;" width="84.0961" x="805.38" y="11.45"/><rect fill="#363A4F" height="1.5" style="stroke:#363A4F;stroke-width:2;" width="84.0961" x="805.38" y="41.742"/><rect fill="none" height="31.792" rx="1.5" ry="1.5" style="stroke:#C6A0F6;stroke-width:2;" width="84.0961" x="805.38" y="11.45"/><ellipse cx="819.38" cy="27.346" fill="#B4A7E5" rx="10" ry="10" style="stroke:#181818;stroke-width:1;"/><path d="M816.9581,31.846 L816.9581,30.6429 L818.63,30.4554 L818.63,24.6741 L816.9581,24.471 L816.9581,23.2835 L822.005,23.2835 L822.005,24.471 L820.3019,24.6741 L820.3019,30.4554 L822.005,30.6429 L822.005,31.846 L816.9581,31.846 Z " fill="#CAD3F5"/><text fill="#A6DA95" font-family="Helvetica" font-size="16" font-style="italic" lengthAdjust="spacing" textLength="54.0961" x="832.38" y="33.554">Functor</text></g><!--class CompletableFutureApplicative--><g class="entity" data-entity="CompletableFutureApplicative" data-source-line="13" data-uid="ent0008" id="entity_CompletableFutureApplicative"><rect fill="#24273A" height="72.4803" rx="1.5" ry="1.5" style="stroke:#C6A0F6;stroke-width:2;" width="355.5662" x="323.64" y="243.83"/><rect fill="#363A4F" height="31.792" rx="1.5" ry="1.5" style="stroke:#363A4F;stroke-width:2;" width="355.5662" x="323.64" y="243.83"/><rect fill="#363A4F" height="1.5" style="stroke:#363A4F;stroke-width:2;" width="355.5662" x="323.64" y="274.122"/><rect fill="none" height="72.4803" rx="1.5" ry="1.5" style="stroke:#C6A0F6;stroke-width:2;" width="355.5662" x="323.64" y="243.83"/><ellipse cx="383.9989" cy="259.726" fill="#ADD1B2" rx="10" ry="10" style="stroke:#181818;stroke-width:1;"/><path d="M383.7176,264.351 Q382.4676,264.351 381.6707,263.8354 Q380.8739,263.3041 380.4832,262.351 Q380.0926,261.3979 380.0926,260.1166 Q380.0926,258.6948 380.5614,257.6791 Q381.0301,256.6479 381.9364,256.101 Q382.8426,255.5385 384.1551,255.5385 Q384.7801,255.5385 385.2489,255.6635 Q385.7332,255.7885 386.2176,256.0229 L385.6395,257.4604 Q385.202,257.226 384.8114,257.1479 Q384.4364,257.0698 384.0926,257.0698 Q383.2645,257.0698 382.7645,257.4448 Q382.2801,257.8041 382.0614,258.476 Q381.8582,259.1479 381.8582,260.0541 Q381.8582,261.4604 382.3582,262.1479 Q382.8739,262.8198 383.9989,262.8198 Q384.4207,262.8198 384.8582,262.7104 Q385.2957,262.601 385.8895,262.3354 L385.8895,263.8979 Q385.3739,264.1323 384.8114,264.2416 Q384.2489,264.351 383.7176,264.351 Z " fill="#CAD3F5"/><text fill="#A6DA95" font-family="Helvetica" font-size="16" lengthAdjust="spacing" textLength="226.8485" x="402.9989" y="265.934">CompletableFutureApplicative</text><line style="stroke:#C6A0F6;stroke-width:2;" x1="324.64" x2="678.2062" y1="275.622" y2="275.622"/><ellipse cx="334.64" cy="289.2941" fill="#84BE84" rx="3" ry="3" style="stroke:#038048;stroke-width:1;"/><text fill="#A6DA95" font-family="Helvetica" font-size="12" lengthAdjust="spacing" textLength="103.6687" x="342.64" y="292.4501">Kind&lt;CFK, A&gt; of(A)</text><ellipse cx="334.64" cy="305.6382" fill="#84BE84" rx="3" ry="3" style="stroke:#038048;stroke-width:1;"/><text fill="#A6DA95" font-family="Helvetica" font-size="12" lengthAdjust="spacing" textLength="330.5662" x="342.64" y="308.7942">Kind&lt;CFK, B&gt; ap(Kind&lt;CFK, Function&lt;A, B&gt;&gt;, Kind&lt;CFK, A&gt;)</text></g><!--class Applicative--><g class="entity" data-entity="Applicative" data-source-line="14" data-uid="ent0010" id="entity_Applicative"><rect fill="#24273A" height="31.792" rx="1.5" ry="1.5" style="stroke:#C6A0F6;stroke-width:2;" width="107.0081" x="442.92" y="121.86"/><rect fill="#363A4F" height="31.792" rx="1.5" ry="1.5" style="stroke:#363A4F;stroke-width:2;" width="107.0081" x="442.92" y="121.86"/><rect fill="#363A4F" height="1.5" style="stroke:#363A4F;stroke-width:2;" width="107.0081" x="442.92" y="152.152"/><rect fill="none" height="31.792" rx="1.5" ry="1.5" style="stroke:#C6A0F6;stroke-width:2;" width="107.0081" x="442.92" y="121.86"/><ellipse cx="456.92" cy="137.756" fill="#B4A7E5" rx="10" ry="10" style="stroke:#181818;stroke-width:1;"/><path d="M454.4981,142.256 L454.4981,141.0529 L456.17,140.8654 L456.17,135.0841 L454.4981,134.881 L454.4981,133.6935 L459.545,133.6935 L459.545,134.881 L457.8419,135.0841 L457.8419,140.8654 L459.545,141.0529 L459.545,142.256 L454.4981,142.256 Z " fill="#CAD3F5"/><text fill="#A6DA95" font-family="Helvetica" font-size="16" font-style="italic" lengthAdjust="spacing" textLength="77.0081" x="469.92" y="143.964">Applicative</text></g><!--class CompletableFutureMonad--><g class="entity" data-entity="CompletableFutureMonad" data-source-line="18" data-uid="ent0012" id="entity_CompletableFutureMonad"><rect fill="#24273A" height="88.8244" rx="1.5" ry="1.5" style="stroke:#C6A0F6;stroke-width:2;" width="486.8472" x="7" y="377.31"/><rect fill="#363A4F" height="31.792" rx="1.5" ry="1.5" style="stroke:#363A4F;stroke-width:2;" width="486.8472" x="7" y="377.31"/><rect fill="#363A4F" height="1.5" style="stroke:#363A4F;stroke-width:2;" width="486.8472" x="7" y="407.602"/><rect fill="none" height="88.8244" rx="1.5" ry="1.5" style="stroke:#C6A0F6;stroke-width:2;" width="486.8472" x="7" y="377.31"/><ellipse cx="147.4874" cy="393.206" fill="#ADD1B2" rx="10" ry="10" style="stroke:#181818;stroke-width:1;"/><path d="M147.2062,397.831 Q145.9562,397.831 145.1593,397.3154 Q144.3624,396.7841 143.9718,395.831 Q143.5812,394.8779 143.5812,393.5966 Q143.5812,392.1748 144.0499,391.1591 Q144.5187,390.1279 145.4249,389.581 Q146.3312,389.0185 147.6437,389.0185 Q148.2687,389.0185 148.7374,389.1435 Q149.2218,389.2685 149.7062,389.5029 L149.128,390.9404 Q148.6905,390.706 148.2999,390.6279 Q147.9249,390.5498 147.5812,390.5498 Q146.753,390.5498 146.253,390.9248 Q145.7687,391.2841 145.5499,391.956 Q145.3468,392.6279 145.3468,393.5341 Q145.3468,394.9404 145.8468,395.6279 Q146.3624,396.2998 147.4874,396.2998 Q147.9093,396.2998 148.3468,396.1904 Q148.7843,396.081 149.378,395.8154 L149.378,397.3779 Q148.8624,397.6123 148.2999,397.7216 Q147.7374,397.831 147.2062,397.831 Z " fill="#CAD3F5"/><text fill="#A6DA95" font-family="Helvetica" font-size="16" lengthAdjust="spacing" textLength="197.8724" x="166.4874" y="399.414">CompletableFutureMonad</text><line style="stroke:#C6A0F6;stroke-width:2;" x1="8" x2="492.8472" y1="409.102" y2="409.102"/><ellipse cx="18" cy="422.7741" fill="#84BE84" rx="3" ry="3" style="stroke:#038048;stroke-width:1;"/><text fill="#A6DA95" font-family="Helvetica" font-size="12" lengthAdjust="spacing" textLength="359.7384" x="26" y="425.9301">Kind&lt;CFK, B&gt; flatMap(Function&lt;A, Kind&lt;CFK, B&gt;&gt;, Kind&lt;CFK, A&gt;)</text><ellipse cx="18" cy="439.1182" fill="#84BE84" rx="3" ry="3" style="stroke:#038048;stroke-width:1;"/><text fill="#A6DA95" font-family="Helvetica" font-size="12" lengthAdjust="spacing" textLength="200.4254" x="26" y="442.2742">Kind&lt;CFK, A&gt; raiseError(Throwable)</text><ellipse cx="18" cy="455.4623" fill="#84BE84" rx="3" ry="3" style="stroke:#038048;stroke-width:1;"/><text fill="#A6DA95" font-family="Helvetica" font-size="12" lengthAdjust="spacing" textLength="461.8472" x="26" y="458.6184">Kind&lt;CFK, A&gt; handleErrorWith(Kind&lt;CFK, A&gt;, Function&lt;Throwable, Kind&lt;CFK, A&gt;&gt;)</text></g><!--class MonadError--><g class="entity" data-entity="MonadError" data-source-line="19" data-uid="ent0014" id="entity_MonadError"><rect fill="#24273A" height="31.792" rx="1.5" ry="1.5" style="stroke:#C6A0F6;stroke-width:2;" width="116.4162" x="172.22" y="264.17"/><rect fill="#363A4F" height="31.792" rx="1.5" ry="1.5" style="stroke:#363A4F;stroke-width:2;" width="116.4162" x="172.22" y="264.17"/><rect fill="#363A4F" height="1.5" style="stroke:#363A4F;stroke-width:2;" width="116.4162" x="172.22" y="294.462"/><rect fill="none" height="31.792" rx="1.5" ry="1.5" style="stroke:#C6A0F6;stroke-width:2;" width="116.4162" x="172.22" y="264.17"/><ellipse cx="186.22" cy="280.066" fill="#B4A7E5" rx="10" ry="10" style="stroke:#181818;stroke-width:1;"/><path d="M183.7981,284.566 L183.7981,283.3629 L185.47,283.1754 L185.47,277.3941 L183.7981,277.191 L183.7981,276.0035 L188.845,276.0035 L188.845,277.191 L187.1419,277.3941 L187.1419,283.1754 L188.845,283.3629 L188.845,284.566 L183.7981,284.566 Z " fill="#CAD3F5"/><text fill="#A6DA95" font-family="Helvetica" font-size="16" font-style="italic" lengthAdjust="spacing" textLength="86.4162" x="199.22" y="286.274">MonadError</text></g><!--reverse link Functor to CompletableFutureFunctor--><g class="link" data-entity-1="Functor" data-entity-2="CompletableFutureFunctor" data-source-line="9" data-uid="lnk6" id="link_Functor_CompletableFutureFunctor"><path d="M847.42,61.42 C847.42,78.41 847.42,88.38 847.42,109.28" fill="none" id="Functor-backto-CompletableFutureFunctor" style="stroke:#F5BDE6;stroke-width:1;stroke-dasharray:7,7;"/><polygon fill="none" points="847.42,43.42,841.42,61.42,853.42,61.42,847.42,43.42" style="stroke:#F5BDE6;stroke-width:1;"/></g><!--link CompletableFutureFunctor to CompletableFutureKindHelper--><g class="link" data-entity-1="CompletableFutureFunctor" data-entity-2="CompletableFutureKindHelper" data-source-line="11" data-uid="lnk7" id="link_CompletableFutureFunctor_CompletableFutureKindHelper"><path codeLine="11" d="M847.42,166.14 C847.42,195.33 847.42,234.49 847.42,257.88" fill="none" id="CompletableFutureFunctor-to-CompletableFutureKindHelper" style="stroke:#F5BDE6;stroke-width:1;stroke-dasharray:7,7;"/><polygon fill="#F5BDE6" points="847.42,263.88,851.42,254.88,847.42,258.88,843.42,254.88,847.42,263.88" style="stroke:#F5BDE6;stroke-width:1;"/><text fill="#CAD3F5" font-family="Helvetica" font-size="12" lengthAdjust="spacing" textLength="25.6802" x="848.42" y="209.6581">uses</text></g><!--reverse link CompletableFutureFunctor to CompletableFutureApplicative--><g class="link" data-entity-1="CompletableFutureFunctor" data-entity-2="CompletableFutureApplicative" data-source-line="14" data-uid="lnk9" id="link_CompletableFutureFunctor_CompletableFutureApplicative"><path d="M762.7995,173.0748 C708.3795,195.1448 648.33,219.49 589.25,243.45" fill="none" id="CompletableFutureFunctor-backto-CompletableFutureApplicative" style="stroke:#F5BDE6;stroke-width:1;"/><polygon fill="none" points="779.48,166.31,760.5446,167.5146,765.0544,178.6349,779.48,166.31" style="stroke:#F5BDE6;stroke-width:1;"/></g><!--reverse link Applicative to CompletableFutureApplicative--><g class="link" data-entity-1="Applicative" data-entity-2="CompletableFutureApplicative" data-source-line="14" data-uid="lnk11" id="link_Applicative_CompletableFutureApplicative"><path d="M497.6115,172.0286 C498.3715,193.3386 499.13,214.61 500.16,243.47" fill="none" id="Applicative-backto-CompletableFutureApplicative" style="stroke:#F5BDE6;stroke-width:1;stroke-dasharray:7,7;"/><polygon fill="none" points="496.97,154.04,491.6154,172.2424,503.6077,171.8147,496.97,154.04" style="stroke:#F5BDE6;stroke-width:1;"/></g><!--reverse link CompletableFutureApplicative to CompletableFutureMonad--><g class="link" data-entity-1="CompletableFutureApplicative" data-entity-2="CompletableFutureMonad" data-source-line="19" data-uid="lnk13" id="link_CompletableFutureApplicative_CompletableFutureMonad"><path d="M421.7099,325.4201 C388.7399,343.7601 363.97,357.54 329.1,376.94" fill="none" id="CompletableFutureApplicative-backto-CompletableFutureMonad" style="stroke:#F5BDE6;stroke-width:1;"/><polygon fill="none" points="437.44,316.67,418.7932,320.1767,424.6266,330.6634,437.44,316.67" style="stroke:#F5BDE6;stroke-width:1;"/></g><!--reverse link MonadError to CompletableFutureMonad--><g class="link" data-entity-1="MonadError" data-entity-2="CompletableFutureMonad" data-source-line="19" data-uid="lnk15" id="link_MonadError_CompletableFutureMonad"><path d="M235.1573,314.0974 C237.9173,333.3274 240.21,349.42 244.16,377" fill="none" id="MonadError-backto-CompletableFutureMonad" style="stroke:#F5BDE6;stroke-width:1;stroke-dasharray:7,7;"/><polygon fill="none" points="232.6,296.28,229.2181,314.9498,241.0964,313.245,232.6,296.28" style="stroke:#F5BDE6;stroke-width:1;"/></g><!--SRC=[ZL5DJy904BtlhnYvY17Qky4cbKXC29uqNhmCsy5kib_PdOh4-DzTgi42LhdDldaxC- -zCsMbRYg2cjd7gpmFkCvU5DVDieaKfBDCbZFfJ6wbYunZ9NE9x7qZfR9ZWrBM2jcDlKRBZT5ZhibGRb3Pl2qpdr1HgxI4ZESD639B2b48wvXWC0DwIqkg24-ABSLO1iMRoSF6KrjbZnR3fdYsAnS0jGPE7P0QOwGu08pGqkxJC25Q6AREU4sCIqspXfj0SsMhEzAU0hn_zB9cZPMSbgWjRfBk2D_GvDU9sVV11RmBk8GjD9dEvYEuAS2W7xQVbREJSWkDEeIok81pI2LSmv-ZnOVeFJFBYZ-LNa6ACFQgBRtNAaMfNccNm2cMTFwTOCkUBsK1RZKiBmxWP5Tow-UzxzkXSQ8_m8MpMFMBwIhk26f_tORmNymZUAY3Ms-RloM-qiYBWzIxX2CTXzO4L97QEuQxHSUi6csblsZfhdhORNQisqtOt_fbd_W4]--></g></svg>