<svg xmlns="http://www.w3.org/2000/svg" xmlns:xlink="http://www.w3.org/1999/xlink" contentStyleType="text/css" data-diagram-type="CLASS" height="737px" preserveAspectRatio="none" style="width:2089px;height:737px;background:#24273A;" version="1.1" viewBox="0 0 2089 737" width="2089px" zoomAndPan="magnify"><defs/><g><rect fill="#24273A" height="737" style="stroke:none;stroke-width:1;" width="2089" x="0" y="0"/><!--cluster Defunctionalisation Pattern Details--><g class="cluster" data-entity="Defunctionalisation Pattern Details" data-source-line="5" data-uid="ent0002" id="cluster_Defunctionalisation Pattern Details"><path d="M7.5,6.016 L221.7975,6.016 A2.25,2.25 0 0 1 223.2975,7.516 L230.2975,28.3601 L2080.5,28.3601 A1.5,1.5 0 0 1 2082,29.8601 L2082,728.506 A1.5,1.5 0 0 1 2080.5,730.006 L7.5,730.006 A1.5,1.5 0 0 1 6,728.506 L6,7.516 A1.5,1.5 0 0 1 7.5,6.016" fill="#24273A" style="stroke:#CAD3F5;stroke-width:1.5;"/><line style="stroke:#CAD3F5;stroke-width:1.5;" x1="6" x2="230.2975" y1="28.3601" y2="28.3601"/><text fill="#CAD3F5" font-family="Helvetica" font-size="12" font-weight="bold" lengthAdjust="spacing" textLength="211.2975" x="10" y="20.8441">Defunctionalisation Pattern Details</text></g><!--cluster For External Types (Optional etc)--><g class="cluster" data-entity="For External Types .Optional etc." data-source-line="10" data-uid="ent0005" id="cluster_For External Types .Optional etc."><path d="M31.5,49.016 L229.5734,49.016 A2.25,2.25 0 0 1 231.0734,50.516 L238.0734,71.3601 L780.5,71.3601 A1.5,1.5 0 0 1 782,72.8601 L782,704.506 A1.5,1.5 0 0 1 780.5,706.006 L31.5,706.006 A1.5,1.5 0 0 1 30,704.506 L30,50.516 A1.5,1.5 0 0 1 31.5,49.016" fill="#24273A" style="stroke:#CAD3F5;stroke-width:1.5;"/><line style="stroke:#CAD3F5;stroke-width:1.5;" x1="30" x2="238.0734" y1="71.3601" y2="71.3601"/><text fill="#CAD3F5" font-family="Helvetica" font-size="12" font-weight="bold" lengthAdjust="spacing" textLength="195.0734" x="34" y="63.8441">For External Types (Optional etc)</text></g><!--cluster internal--><g class="cluster" data-entity="internal" data-source-line="17" data-uid="ent0010" id="cluster_internal"><path d="M55.5,320.946 L106.1883,320.946 A2.25,2.25 0 0 1 107.6883,322.446 L114.6883,343.2901 L346.5,343.2901 A1.5,1.5 0 0 1 348,344.7901 L348,576.716 A1.5,1.5 0 0 1 346.5,578.216 L55.5,578.216 A1.5,1.5 0 0 1 54,576.716 L54,322.446 A1.5,1.5 0 0 1 55.5,320.946" fill="#24273A" style="stroke:#CAD3F5;stroke-width:1.5;"/><line style="stroke:#CAD3F5;stroke-width:1.5;" x1="54" x2="114.6883" y1="343.2901" y2="343.2901"/><text fill="#CAD3F5" font-family="Helvetica" font-size="12" font-weight="bold" lengthAdjust="spacing" textLength="47.6883" x="58" y="335.7741">internal</text></g><!--cluster For Library-Defined Types (Id, Maybe, IO, Transformers)--><g class="cluster" data-entity="For Library-Defined Types .Id. Maybe. IO. Transformers." data-source-line="36" data-uid="ent0022" id="cluster_For Library-Defined Types .Id. Maybe. IO. Transformers."><path d="M807.5,49.016 L1142.4105,49.016 A2.25,2.25 0 0 1 1143.9105,50.516 L1150.9105,71.3601 L1621.5,71.3601 A1.5,1.5 0 0 1 1623,72.8601 L1623,568.546 A1.5,1.5 0 0 1 1621.5,570.046 L807.5,570.046 A1.5,1.5 0 0 1 806,568.546 L806,50.516 A1.5,1.5 0 0 1 807.5,49.016" fill="#24273A" style="stroke:#CAD3F5;stroke-width:1.5;"/><line style="stroke:#CAD3F5;stroke-width:1.5;" x1="806" x2="1150.9105" y1="71.3601" y2="71.3601"/><text fill="#CAD3F5" font-family="Helvetica" font-size="12" font-weight="bold" lengthAdjust="spacing" textLength="331.9105" x="810" y="63.8441">For Library-Defined Types (Id, Maybe, IO, Transformers)</text></g><!--class KindUnwrapException--><g class="entity" data-entity="KindUnwrapException" data-source-line="6" data-uid="ent0003" id="entity_KindUnwrapException"><rect fill="#24273A" height="47.792" rx="1.5" ry="1.5" style="stroke:#C6A0F6;stroke-width:2;" width="196.7204" x="1638.64" y="84.016"/><rect fill="#363A4F" height="31.792" rx="1.5" ry="1.5" style="stroke:#363A4F;stroke-width:2;" width="196.7204" x="1638.64" y="84.016"/><rect fill="#363A4F" height="1.5" style="stroke:#363A4F;stroke-width:2;" width="196.7204" x="1638.64" y="114.3081"/><rect fill="none" height="47.792" rx="1.5" ry="1.5" style="stroke:#C6A0F6;stroke-width:2;" width="196.7204" x="1638.64" y="84.016"/><ellipse cx="1652.64" cy="99.912" fill="#ADD1B2" rx="10" ry="10" style="stroke:#181818;stroke-width:1;"/><path d="M1652.3588,104.537 Q1651.1088,104.537 1650.3119,104.0214 Q1649.515,103.4902 1649.1244,102.537 Q1648.7338,101.5839 1648.7338,100.3027 Q1648.7338,98.8808 1649.2025,97.8652 Q1649.6713,96.8339 1650.5775,96.287 Q1651.4838,95.7245 1652.7963,95.7245 Q1653.4213,95.7245 1653.89,95.8495 Q1654.3744,95.9745 1654.8588,96.2089 L1654.2806,97.6464 Q1653.8431,97.412 1653.4525,97.3339 Q1653.0775,97.2558 1652.7338,97.2558 Q1651.9056,97.2558 1651.4056,97.6308 Q1650.9213,97.9902 1650.7025,98.662 Q1650.4994,99.3339 1650.4994,100.2402 Q1650.4994,101.6464 1650.9994,102.3339 Q1651.515,103.0058 1652.64,103.0058 Q1653.0619,103.0058 1653.4994,102.8964 Q1653.9369,102.787 1654.5306,102.5214 L1654.5306,104.0839 Q1654.015,104.3183 1653.4525,104.4277 Q1652.89,104.537 1652.3588,104.537 Z " fill="#CAD3F5"/><text fill="#A6DA95" font-family="Helvetica" font-size="16" lengthAdjust="spacing" textLength="166.7204" x="1665.64" y="106.1201">KindUnwrapException</text><line style="stroke:#C6A0F6;stroke-width:2;" x1="1639.64" x2="1834.3604" y1="115.8081" y2="115.8081"/><line style="stroke:#C6A0F6;stroke-width:2;" x1="1639.64" x2="1834.3604" y1="123.8081" y2="123.8081"/></g><g class="entity" data-entity="WitnessNote" data-source-line="8" data-uid="ent0004" id="entity_WitnessNote"><path d="M1870.25,88.066 L1870.25,127.7543 A1.5,1.5 0 0 0 1871.75,129.2543 L2064.2432,129.2543 A1.5,1.5 0 0 0 2065.7432,127.7543 L2065.7432,96.566 L2055.7432,86.566 L1871.75,86.566 A1.5,1.5 0 0 0 1870.25,88.066" fill="#EED49F" style="stroke:#24273A;stroke-width:0.5;"/><path d="M2055.7432,86.566 L2055.7432,95.816 A0.75,0.75 0 0 0 2056.4932,96.566 L2065.7432,96.566 L2055.7432,86.566" fill="#EED49F" style="stroke:#24273A;stroke-width:1;"/><text fill="#24273A" font-family="Helvetica" font-size="12" lengthAdjust="spacing" textLength="159.1332" x="1876.25" y="104.3941">All Witness types implement</text><text fill="#24273A" font-family="Helvetica" font-size="12" lengthAdjust="spacing" textLength="174.4932" x="1876.25" y="120.7382">WitnessArity&lt;TypeArity.Unary&gt;</text></g><!--class OptionalKindInterface--><g class="entity" data-entity="OptionalKindInterface" data-source-line="11" data-uid="ent0006" id="entity_OptionalKindInterface"><rect fill="#24273A" height="64.1362" rx="1.5" ry="1.5" style="stroke:#C6A0F6;stroke-width:2;" width="469.2032" x="46.4" y="192.806"/><rect fill="#363A4F" height="31.792" rx="1.5" ry="1.5" style="stroke:#363A4F;stroke-width:2;" width="469.2032" x="46.4" y="192.806"/><rect fill="#363A4F" height="1.5" style="stroke:#363A4F;stroke-width:2;" width="469.2032" x="46.4" y="223.0981"/><rect fill="none" height="64.1362" rx="1.5" ry="1.5" style="stroke:#C6A0F6;stroke-width:2;" width="469.2032" x="46.4" y="192.806"/><ellipse cx="224.9415" cy="208.702" fill="#B4A7E5" rx="10" ry="10" style="stroke:#181818;stroke-width:1;"/><path d="M222.5196,213.202 L222.5196,211.9989 L224.1915,211.8114 L224.1915,206.0302 L222.5196,205.827 L222.5196,204.6395 L227.5665,204.6395 L227.5665,205.827 L225.8634,206.0302 L225.8634,211.8114 L227.5665,211.9989 L227.5665,213.202 L222.5196,213.202 Z " fill="#CAD3F5"/><text fill="#A6DA95" font-family="Helvetica" font-size="16" font-style="italic" lengthAdjust="spacing" textLength="93.3762" x="243.9415" y="214.9101">OptionalKind</text><rect fill="#24273A" height="18.3441" style="stroke:#C6A0F6;stroke-width:1;stroke-dasharray:2,2;" width="8.744" x="509.8592" y="189.806"/><text fill="#CAD3F5" font-family="Helvetica" font-size="12" font-style="italic" lengthAdjust="spacing" textLength="6.744" x="510.8592" y="203.6341">A</text><line style="stroke:#C6A0F6;stroke-width:2;" x1="47.4" x2="514.6032" y1="224.5981" y2="224.5981"/><text fill="#A6DA95" font-family="Helvetica" font-size="12" lengthAdjust="spacing" textLength="457.2032" x="52.4" y="241.4262">class Witness implements WitnessArity&lt;Unary&gt; {} ' Nested phantom Witness type</text><line style="stroke:#C6A0F6;stroke-width:2;" x1="47.4" x2="514.6032" y1="248.9422" y2="248.9422"/></g><!--class Kind--><g class="entity" data-entity="Kind" data-source-line="12" data-uid="ent0007" id="entity_Kind"><rect fill="#24273A" height="47.792" rx="1.5" ry="1.5" style="stroke:#C6A0F6;stroke-width:2;" width="61.6481" x="250.18" y="84.016"/><rect fill="#363A4F" height="31.792" rx="1.5" ry="1.5" style="stroke:#363A4F;stroke-width:2;" width="61.6481" x="250.18" y="84.016"/><rect fill="#363A4F" height="1.5" style="stroke:#363A4F;stroke-width:2;" width="61.6481" x="250.18" y="114.3081"/><rect fill="none" height="47.792" rx="1.5" ry="1.5" style="stroke:#C6A0F6;stroke-width:2;" width="61.6481" x="250.18" y="84.016"/><ellipse cx="264.18" cy="99.912" fill="#B4A7E5" rx="10" ry="10" style="stroke:#181818;stroke-width:1;"/><path d="M261.7581,104.412 L261.7581,103.2089 L263.43,103.0214 L263.43,97.2402 L261.7581,97.037 L261.7581,95.8495 L266.805,95.8495 L266.805,97.037 L265.1019,97.2402 L265.1019,103.0214 L266.805,103.2089 L266.805,104.412 L261.7581,104.412 Z " fill="#CAD3F5"/><text fill="#A6DA95" font-family="Helvetica" font-size="16" font-style="italic" lengthAdjust="spacing" textLength="31.6481" x="277.18" y="106.1201">Kind</text><line style="stroke:#C6A0F6;stroke-width:2;" x1="251.18" x2="310.8281" y1="115.8081" y2="115.8081"/><line style="stroke:#C6A0F6;stroke-width:2;" x1="251.18" x2="310.8281" y1="123.8081" y2="123.8081"/></g><!--class JavaOptional--><g class="entity" data-entity="JavaOptional" data-source-line="14" data-uid="ent0009" id="entity_JavaOptional"><rect fill="#24273A" height="47.792" rx="1.5" ry="1.5" style="stroke:#C6A0F6;stroke-width:2;" width="168.3603" x="318.82" y="642.216"/><rect fill="#363A4F" height="31.792" rx="1.5" ry="1.5" style="stroke:#363A4F;stroke-width:2;" width="168.3603" x="318.82" y="642.216"/><rect fill="#363A4F" height="1.5" style="stroke:#363A4F;stroke-width:2;" width="168.3603" x="318.82" y="672.5081"/><rect fill="none" height="47.792" rx="1.5" ry="1.5" style="stroke:#C6A0F6;stroke-width:2;" width="168.3603" x="318.82" y="642.216"/><ellipse cx="332.82" cy="658.112" fill="#ADD1B2" rx="10" ry="10" style="stroke:#181818;stroke-width:1;"/><path d="M332.5388,662.737 Q331.2888,662.737 330.4919,662.2214 Q329.695,661.6902 329.3044,660.737 Q328.9138,659.7839 328.9138,658.5027 Q328.9138,657.0808 329.3825,656.0652 Q329.8513,655.0339 330.7575,654.487 Q331.6638,653.9245 332.9763,653.9245 Q333.6013,653.9245 334.07,654.0495 Q334.5544,654.1745 335.0388,654.4089 L334.4606,655.8464 Q334.0231,655.612 333.6325,655.5339 Q333.2575,655.4558 332.9138,655.4558 Q332.0856,655.4558 331.5856,655.8308 Q331.1013,656.1902 330.8825,656.862 Q330.6794,657.5339 330.6794,658.4402 Q330.6794,659.8464 331.1794,660.5339 Q331.695,661.2058 332.82,661.2058 Q333.2419,661.2058 333.6794,661.0964 Q334.1169,660.987 334.7106,660.7214 L334.7106,662.2839 Q334.195,662.5183 333.6325,662.6277 Q333.07,662.737 332.5388,662.737 Z " fill="#CAD3F5"/><text fill="#A6DA95" font-family="Helvetica" font-size="16" lengthAdjust="spacing" textLength="127.6163" x="345.82" y="664.3201">java.util.Optional</text><rect fill="#24273A" height="18.3441" style="stroke:#C6A0F6;stroke-width:1;stroke-dasharray:2,2;" width="8.744" x="481.4363" y="639.216"/><text fill="#CAD3F5" font-family="Helvetica" font-size="12" font-style="italic" lengthAdjust="spacing" textLength="6.744" x="482.4363" y="653.0441">A</text><line style="stroke:#C6A0F6;stroke-width:2;" x1="319.82" x2="486.1803" y1="674.0081" y2="674.0081"/><line style="stroke:#C6A0F6;stroke-width:2;" x1="319.82" x2="486.1803" y1="682.0081" y2="682.0081"/></g><!--class OptionalKindHelper--><g class="entity" data-entity="OptionalKindHelper" data-source-line="22" data-uid="ent0014" id="entity_OptionalKindHelper"><rect fill="#24273A" height="80.4803" rx="1.5" ry="1.5" style="stroke:#C6A0F6;stroke-width:2;" width="401.5746" x="364.21" y="339.596"/><rect fill="#363A4F" height="31.792" rx="1.5" ry="1.5" style="stroke:#363A4F;stroke-width:2;" width="401.5746" x="364.21" y="339.596"/><rect fill="#363A4F" height="1.5" style="stroke:#363A4F;stroke-width:2;" width="401.5746" x="364.21" y="369.8881"/><rect fill="none" height="80.4803" rx="1.5" ry="1.5" style="stroke:#C6A0F6;stroke-width:2;" width="401.5746" x="364.21" y="339.596"/><ellipse cx="486.4211" cy="355.492" fill="#ADD1B2" rx="10" ry="10" style="stroke:#181818;stroke-width:1;"/><path d="M486.1399,360.117 Q484.8899,360.117 484.093,359.6014 Q483.2961,359.0702 482.9055,358.117 Q482.5149,357.1639 482.5149,355.8827 Q482.5149,354.4608 482.9836,353.4452 Q483.4524,352.4139 484.3586,351.867 Q485.2649,351.3045 486.5774,351.3045 Q487.2024,351.3045 487.6711,351.4295 Q488.1555,351.5545 488.6399,351.7889 L488.0617,353.2264 Q487.6242,352.992 487.2336,352.9139 Q486.8586,352.8358 486.5149,352.8358 Q485.6867,352.8358 485.1867,353.2108 Q484.7024,353.5702 484.4836,354.242 Q484.2805,354.9139 484.2805,355.8202 Q484.2805,357.2264 484.7805,357.9139 Q485.2961,358.5858 486.4211,358.5858 Q486.843,358.5858 487.2805,358.4764 Q487.718,358.367 488.3117,358.1014 L488.3117,359.6639 Q487.7961,359.8983 487.2336,360.0077 Q486.6711,360.117 486.1399,360.117 Z " fill="#CAD3F5"/><text fill="#A6DA95" font-family="Helvetica" font-size="16" lengthAdjust="spacing" textLength="149.1523" x="505.4211" y="361.7001">OptionalKindHelper</text><line style="stroke:#C6A0F6;stroke-width:2;" x1="365.21" x2="764.7846" y1="371.3881" y2="371.3881"/><line style="stroke:#C6A0F6;stroke-width:2;" x1="365.21" x2="764.7846" y1="379.3881" y2="379.3881"/><ellipse cx="375.21" cy="393.0601" fill="#84BE84" rx="3" ry="3" style="stroke:#038048;stroke-width:1;"/><text fill="#A6DA95" font-family="Helvetica" font-size="12" lengthAdjust="spacing" text-decoration="underline" textLength="364.5865" x="383.21" y="396.2162">widen(opt: java.util.Optional&lt;A&gt;): Kind&lt;OptionalKind.Witness, A&gt;</text><ellipse cx="375.21" cy="409.4042" fill="#84BE84" rx="3" ry="3" style="stroke:#038048;stroke-width:1;"/><text fill="#A6DA95" font-family="Helvetica" font-size="12" lengthAdjust="spacing" text-decoration="underline" textLength="376.5746" x="383.21" y="412.5603">narrow(kind: Kind&lt;OptionalKind.Witness, A&gt;): java.util.Optional&lt;A&gt;</text></g><!--class OptionalMonad--><g class="entity" data-entity="OptionalMonad" data-source-line="30" data-uid="ent0018" id="entity_OptionalMonad"><rect fill="#24273A" height="47.792" rx="1.5" ry="1.5" style="stroke:#C6A0F6;stroke-width:2;" width="147.8082" x="551.1" y="200.976"/><rect fill="#363A4F" height="31.792" rx="1.5" ry="1.5" style="stroke:#363A4F;stroke-width:2;" width="147.8082" x="551.1" y="200.976"/><rect fill="#363A4F" height="1.5" style="stroke:#363A4F;stroke-width:2;" width="147.8082" x="551.1" y="231.2681"/><rect fill="none" height="47.792" rx="1.5" ry="1.5" style="stroke:#C6A0F6;stroke-width:2;" width="147.8082" x="551.1" y="200.976"/><ellipse cx="565.1" cy="216.872" fill="#ADD1B2" rx="10" ry="10" style="stroke:#181818;stroke-width:1;"/><path d="M564.8188,221.497 Q563.5688,221.497 562.7719,220.9814 Q561.975,220.4502 561.5844,219.497 Q561.1938,218.5439 561.1938,217.2627 Q561.1938,215.8408 561.6625,214.8252 Q562.1313,213.7939 563.0375,213.247 Q563.9438,212.6845 565.2563,212.6845 Q565.8813,212.6845 566.35,212.8095 Q566.8344,212.9345 567.3188,213.1689 L566.7406,214.6064 Q566.3031,214.372 565.9125,214.2939 Q565.5375,214.2158 565.1938,214.2158 Q564.3656,214.2158 563.8656,214.5908 Q563.3813,214.9502 563.1625,215.622 Q562.9594,216.2939 562.9594,217.2002 Q562.9594,218.6064 563.4594,219.2939 Q563.975,219.9658 565.1,219.9658 Q565.5219,219.9658 565.9594,219.8564 Q566.3969,219.747 566.9906,219.4814 L566.9906,221.0439 Q566.475,221.2783 565.9125,221.3877 Q565.35,221.497 564.8188,221.497 Z " fill="#CAD3F5"/><text fill="#A6DA95" font-family="Helvetica" font-size="16" lengthAdjust="spacing" textLength="117.8082" x="578.1" y="223.0801">OptionalMonad</text><line style="stroke:#C6A0F6;stroke-width:2;" x1="552.1" x2="697.9082" y1="232.7681" y2="232.7681"/><line style="stroke:#C6A0F6;stroke-width:2;" x1="552.1" x2="697.9082" y1="240.7681" y2="240.7681"/></g><!--class MonadError--><g class="entity" data-entity="MonadError" data-uid="ent0019" id="entity_MonadError"><rect fill="#24273A" height="47.792" rx="1.5" ry="1.5" style="stroke:#C6A0F6;stroke-width:2;" width="116.4162" x="566.79" y="84.016"/><rect fill="#363A4F" height="31.792" rx="1.5" ry="1.5" style="stroke:#363A4F;stroke-width:2;" width="116.4162" x="566.79" y="84.016"/><rect fill="#363A4F" height="1.5" style="stroke:#363A4F;stroke-width:2;" width="116.4162" x="566.79" y="114.3081"/><rect fill="none" height="47.792" rx="1.5" ry="1.5" style="stroke:#C6A0F6;stroke-width:2;" width="116.4162" x="566.79" y="84.016"/><ellipse cx="580.79" cy="99.912" fill="#B4A7E5" rx="10" ry="10" style="stroke:#181818;stroke-width:1;"/><path d="M578.3681,104.412 L578.3681,103.2089 L580.04,103.0214 L580.04,97.2402 L578.3681,97.037 L578.3681,95.8495 L583.415,95.8495 L583.415,97.037 L581.7119,97.2402 L581.7119,103.0214 L583.415,103.2089 L583.415,104.412 L578.3681,104.412 Z " fill="#CAD3F5"/><text fill="#A6DA95" font-family="Helvetica" font-size="16" font-style="italic" lengthAdjust="spacing" textLength="86.4162" x="593.79" y="106.1201">MonadError</text><line style="stroke:#C6A0F6;stroke-width:2;" x1="567.79" x2="682.2062" y1="115.8081" y2="115.8081"/><line style="stroke:#C6A0F6;stroke-width:2;" x1="567.79" x2="682.2062" y1="123.8081" y2="123.8081"/></g><!--class OptionalHolder--><g class="entity" data-entity="OptionalHolder" data-source-line="18" data-uid="ent0011" id="entity_OptionalHolder"><rect fill="#24273A" height="64.1362" rx="1.5" ry="1.5" style="stroke:#C6A0F6;stroke-width:2;" width="261.6536" x="70.17" y="498.076"/><rect fill="#363A4F" height="31.792" rx="1.5" ry="1.5" style="stroke:#363A4F;stroke-width:2;" width="261.6536" x="70.17" y="498.076"/><rect fill="#363A4F" height="1.5" style="stroke:#363A4F;stroke-width:2;" width="261.6536" x="70.17" y="528.3681"/><rect fill="none" height="64.1362" rx="1.5" ry="1.5" style="stroke:#C6A0F6;stroke-width:2;" width="261.6536" x="70.17" y="498.076"/><ellipse cx="133.6007" cy="513.972" fill="#ADD1B2" rx="10" ry="10" style="stroke:#181818;stroke-width:1;"/><path d="M133.3194,518.597 Q132.0694,518.597 131.2725,518.0814 Q130.4757,517.5502 130.085,516.597 Q129.6944,515.6439 129.6944,514.3627 Q129.6944,512.9408 130.1632,511.9252 Q130.6319,510.8939 131.5382,510.347 Q132.4444,509.7845 133.7569,509.7845 Q134.3819,509.7845 134.8507,509.9095 Q135.335,510.0345 135.8194,510.2689 L135.2413,511.7064 Q134.8038,511.472 134.4132,511.3939 Q134.0382,511.3158 133.6944,511.3158 Q132.8663,511.3158 132.3663,511.6908 Q131.8819,512.0502 131.6632,512.722 Q131.46,513.3939 131.46,514.3002 Q131.46,515.7064 131.96,516.3939 Q132.4757,517.0658 133.6007,517.0658 Q134.0225,517.0658 134.46,516.9564 Q134.8975,516.847 135.4913,516.5814 L135.4913,518.1439 Q134.9757,518.3783 134.4132,518.4877 Q133.8507,518.597 133.3194,518.597 Z " fill="#CAD3F5"/><text fill="#A6DA95" font-family="Helvetica" font-size="16" lengthAdjust="spacing" textLength="116.0482" x="152.6007" y="520.1801">OptionalHolder</text><rect fill="#24273A" height="18.3441" style="stroke:#C6A0F6;stroke-width:1;stroke-dasharray:2,2;" width="8.744" x="326.0796" y="495.076"/><text fill="#CAD3F5" font-family="Helvetica" font-size="12" font-style="italic" lengthAdjust="spacing" textLength="6.744" x="327.0796" y="508.9041">A</text><line style="stroke:#C6A0F6;stroke-width:2;" x1="71.17" x2="330.8236" y1="529.8681" y2="529.8681"/><line style="stroke:#C6A0F6;stroke-width:2;" x1="71.17" x2="330.8236" y1="537.8681" y2="537.8681"/><ellipse cx="81.17" cy="551.5401" fill="#84BE84" rx="3" ry="3" style="stroke:#038048;stroke-width:1;"/><text fill="#A6DA95" font-family="Helvetica" font-size="12" lengthAdjust="spacing" textLength="236.6536" x="89.17" y="554.6962">OptionalHolder(opt: java.util.Optional&lt;A&gt;)</text></g><!--class OptionalKindInterface--><g class="entity" data-entity="OptionalKindInterface" data-source-line="19" data-uid="ent0012" id="entity_OptionalKindInterface"><rect fill="#24273A" height="47.792" rx="1.5" ry="1.5" style="stroke:#C6A0F6;stroke-width:2;" width="186.8963" x="107.55" y="355.946"/><rect fill="#363A4F" height="31.792" rx="1.5" ry="1.5" style="stroke:#363A4F;stroke-width:2;" width="186.8963" x="107.55" y="355.946"/><rect fill="#363A4F" height="1.5" style="stroke:#363A4F;stroke-width:2;" width="186.8963" x="107.55" y="386.2381"/><rect fill="none" height="47.792" rx="1.5" ry="1.5" style="stroke:#C6A0F6;stroke-width:2;" width="186.8963" x="107.55" y="355.946"/><ellipse cx="121.55" cy="371.842" fill="#B4A7E5" rx="10" ry="10" style="stroke:#181818;stroke-width:1;"/><path d="M119.1281,376.342 L119.1281,375.1389 L120.8,374.9514 L120.8,369.1702 L119.1281,368.967 L119.1281,367.7795 L124.175,367.7795 L124.175,368.967 L122.4719,369.1702 L122.4719,374.9514 L124.175,375.1389 L124.175,376.342 L119.1281,376.342 Z " fill="#CAD3F5"/><text fill="#A6DA95" font-family="Helvetica" font-size="16" font-style="italic" lengthAdjust="spacing" textLength="156.8963" x="134.55" y="378.0501">OptionalKindInterface</text><line style="stroke:#C6A0F6;stroke-width:2;" x1="108.55" x2="293.4463" y1="387.7381" y2="387.7381"/><line style="stroke:#C6A0F6;stroke-width:2;" x1="108.55" x2="293.4463" y1="395.7381" y2="395.7381"/></g><!--class IdKindInterface--><g class="entity" data-entity="IdKindInterface" data-source-line="37" data-uid="ent0023" id="entity_IdKindInterface"><rect fill="#24273A" height="64.1362" rx="1.5" ry="1.5" style="stroke:#C6A0F6;stroke-width:2;" width="469.2032" x="822.4" y="347.766"/><rect fill="#363A4F" height="31.792" rx="1.5" ry="1.5" style="stroke:#363A4F;stroke-width:2;" width="469.2032" x="822.4" y="347.766"/><rect fill="#363A4F" height="1.5" style="stroke:#363A4F;stroke-width:2;" width="469.2032" x="822.4" y="378.0581"/><rect fill="none" height="64.1362" rx="1.5" ry="1.5" style="stroke:#C6A0F6;stroke-width:2;" width="469.2032" x="822.4" y="347.766"/><ellipse cx="1024.5815" cy="363.662" fill="#B4A7E5" rx="10" ry="10" style="stroke:#181818;stroke-width:1;"/><path d="M1022.1597,368.162 L1022.1597,366.9589 L1023.8315,366.7714 L1023.8315,360.9902 L1022.1597,360.787 L1022.1597,359.5995 L1027.2065,359.5995 L1027.2065,360.787 L1025.5034,360.9902 L1025.5034,366.7714 L1027.2065,366.9589 L1027.2065,368.162 L1022.1597,368.162 Z " fill="#CAD3F5"/><text fill="#A6DA95" font-family="Helvetica" font-size="16" font-style="italic" lengthAdjust="spacing" textLength="46.0961" x="1043.5815" y="369.8701">IdKind</text><rect fill="#24273A" height="18.3441" style="stroke:#C6A0F6;stroke-width:1;stroke-dasharray:2,2;" width="8.744" x="1285.8592" y="344.766"/><text fill="#CAD3F5" font-family="Helvetica" font-size="12" font-style="italic" lengthAdjust="spacing" textLength="6.744" x="1286.8592" y="358.5941">A</text><line style="stroke:#C6A0F6;stroke-width:2;" x1="823.4" x2="1290.6032" y1="379.5581" y2="379.5581"/><text fill="#A6DA95" font-family="Helvetica" font-size="12" lengthAdjust="spacing" textLength="457.2032" x="828.4" y="396.3862">class Witness implements WitnessArity&lt;Unary&gt; {} ' Nested phantom Witness type</text><line style="stroke:#C6A0F6;stroke-width:2;" x1="823.4" x2="1290.6032" y1="403.9022" y2="403.9022"/></g><!--class Kind--><g class="entity" data-entity="Kind" data-source-line="38" data-uid="ent0024" id="entity_Kind"><rect fill="#24273A" height="47.792" rx="1.5" ry="1.5" style="stroke:#C6A0F6;stroke-width:2;" width="61.6481" x="1026.18" y="200.976"/><rect fill="#363A4F" height="31.792" rx="1.5" ry="1.5" style="stroke:#363A4F;stroke-width:2;" width="61.6481" x="1026.18" y="200.976"/><rect fill="#363A4F" height="1.5" style="stroke:#363A4F;stroke-width:2;" width="61.6481" x="1026.18" y="231.2681"/><rect fill="none" height="47.792" rx="1.5" ry="1.5" style="stroke:#C6A0F6;stroke-width:2;" width="61.6481" x="1026.18" y="200.976"/><ellipse cx="1040.18" cy="216.872" fill="#B4A7E5" rx="10" ry="10" style="stroke:#181818;stroke-width:1;"/><path d="M1037.7581,221.372 L1037.7581,220.1689 L1039.43,219.9814 L1039.43,214.2002 L1037.7581,213.997 L1037.7581,212.8095 L1042.805,212.8095 L1042.805,213.997 L1041.1019,214.2002 L1041.1019,219.9814 L1042.805,220.1689 L1042.805,221.372 L1037.7581,221.372 Z " fill="#CAD3F5"/><text fill="#A6DA95" font-family="Helvetica" font-size="16" font-style="italic" lengthAdjust="spacing" textLength="31.6481" x="1053.18" y="223.0801">Kind</text><line style="stroke:#C6A0F6;stroke-width:2;" x1="1027.18" x2="1086.8281" y1="232.7681" y2="232.7681"/><line style="stroke:#C6A0F6;stroke-width:2;" x1="1027.18" x2="1086.8281" y1="240.7681" y2="240.7681"/></g><!--class IdRecord--><g class="entity" data-entity="IdRecord" data-source-line="41" data-uid="ent0026" id="entity_IdRecord"><rect fill="#24273A" height="47.792" rx="1.5" ry="1.5" style="stroke:#C6A0F6;stroke-width:2;" width="142.2082" x="985.9" y="506.246"/><rect fill="#363A4F" height="31.792" rx="1.5" ry="1.5" style="stroke:#363A4F;stroke-width:2;" width="142.2082" x="985.9" y="506.246"/><rect fill="#363A4F" height="1.5" style="stroke:#363A4F;stroke-width:2;" width="142.2082" x="985.9" y="536.5381"/><rect fill="none" height="47.792" rx="1.5" ry="1.5" style="stroke:#C6A0F6;stroke-width:2;" width="142.2082" x="985.9" y="506.246"/><ellipse cx="999.9" cy="522.142" fill="#ADD1B2" rx="10" ry="10" style="stroke:#181818;stroke-width:1;"/><path d="M999.6188,526.767 Q998.3688,526.767 997.5719,526.2514 Q996.775,525.7202 996.3844,524.767 Q995.9938,523.8139 995.9938,522.5327 Q995.9938,521.1108 996.4625,520.0952 Q996.9313,519.0639 997.8375,518.517 Q998.7438,517.9545 1000.0563,517.9545 Q1000.6813,517.9545 1001.15,518.0795 Q1001.6344,518.2045 1002.1188,518.4389 L1001.5406,519.8764 Q1001.1031,519.642 1000.7125,519.5639 Q1000.3375,519.4858 999.9938,519.4858 Q999.1656,519.4858 998.6656,519.8608 Q998.1813,520.2202 997.9625,520.892 Q997.7594,521.5639 997.7594,522.4702 Q997.7594,523.8764 998.2594,524.5639 Q998.775,525.2358 999.9,525.2358 Q1000.3219,525.2358 1000.7594,525.1264 Q1001.1969,525.017 1001.7906,524.7514 L1001.7906,526.3139 Q1001.275,526.5483 1000.7125,526.6577 Q1000.15,526.767 999.6188,526.767 Z " fill="#CAD3F5"/><text fill="#A6DA95" font-family="Helvetica" font-size="16" lengthAdjust="spacing" textLength="112.2082" x="1012.9" y="528.3501">Id&lt;A&gt;(value: A)</text><line style="stroke:#C6A0F6;stroke-width:2;" x1="986.9" x2="1127.1082" y1="538.0381" y2="538.0381"/><line style="stroke:#C6A0F6;stroke-width:2;" x1="986.9" x2="1127.1082" y1="546.0381" y2="546.0381"/></g><!--class IdKindHelper--><g class="entity" data-entity="IdKindHelper" data-source-line="45" data-uid="ent0029" id="entity_IdKindHelper"><rect fill="#24273A" height="80.4803" rx="1.5" ry="1.5" style="stroke:#C6A0F6;stroke-width:2;" width="280.0738" x="1326.96" y="339.596"/><rect fill="#363A4F" height="31.792" rx="1.5" ry="1.5" style="stroke:#363A4F;stroke-width:2;" width="280.0738" x="1326.96" y="339.596"/><rect fill="#363A4F" height="1.5" style="stroke:#363A4F;stroke-width:2;" width="280.0738" x="1326.96" y="369.8881"/><rect fill="none" height="80.4803" rx="1.5" ry="1.5" style="stroke:#C6A0F6;stroke-width:2;" width="280.0738" x="1326.96" y="339.596"/><ellipse cx="1413.2448" cy="355.492" fill="#ADD1B2" rx="10" ry="10" style="stroke:#181818;stroke-width:1;"/><path d="M1412.9635,360.117 Q1411.7135,360.117 1410.9167,359.6014 Q1410.1198,359.0702 1409.7292,358.117 Q1409.3385,357.1639 1409.3385,355.8827 Q1409.3385,354.4608 1409.8073,353.4452 Q1410.276,352.4139 1411.1823,351.867 Q1412.0885,351.3045 1413.401,351.3045 Q1414.026,351.3045 1414.4948,351.4295 Q1414.9792,351.5545 1415.4635,351.7889 L1414.8854,353.2264 Q1414.4479,352.992 1414.0573,352.9139 Q1413.6823,352.8358 1413.3385,352.8358 Q1412.5104,352.8358 1412.0104,353.2108 Q1411.526,353.5702 1411.3073,354.242 Q1411.1042,354.9139 1411.1042,355.8202 Q1411.1042,357.2264 1411.6042,357.9139 Q1412.1198,358.5858 1413.2448,358.5858 Q1413.6667,358.5858 1414.1042,358.4764 Q1414.5417,358.367 1415.1354,358.1014 L1415.1354,359.6639 Q1414.6198,359.8983 1414.0573,360.0077 Q1413.4948,360.117 1412.9635,360.117 Z " fill="#CAD3F5"/><text fill="#A6DA95" font-family="Helvetica" font-size="16" lengthAdjust="spacing" textLength="99.5042" x="1432.2448" y="361.7001">IdKindHelper</text><line style="stroke:#C6A0F6;stroke-width:2;" x1="1327.96" x2="1606.0338" y1="371.3881" y2="371.3881"/><line style="stroke:#C6A0F6;stroke-width:2;" x1="1327.96" x2="1606.0338" y1="379.3881" y2="379.3881"/><ellipse cx="1337.96" cy="393.0601" fill="#84BE84" rx="3" ry="3" style="stroke:#038048;stroke-width:1;"/><text fill="#A6DA95" font-family="Helvetica" font-size="12" lengthAdjust="spacing" text-decoration="underline" textLength="234.5896" x="1345.96" y="396.2162">widen(id: Id&lt;A&gt;): Kind&lt;IdKind.Witness, A&gt;</text><ellipse cx="1337.96" cy="409.4042" fill="#84BE84" rx="3" ry="3" style="stroke:#038048;stroke-width:1;"/><text fill="#A6DA95" font-family="Helvetica" font-size="12" lengthAdjust="spacing" text-decoration="underline" textLength="255.0738" x="1345.96" y="412.5603">narrow(kind: Kind&lt;IdKind.Witness, A&gt;): Id&lt;A&gt;</text></g><!--class IdentityMonad--><g class="entity" data-entity="IdentityMonad" data-source-line="51" data-uid="ent0031" id="entity_IdentityMonad"><rect fill="#24273A" height="47.792" rx="1.5" ry="1.5" style="stroke:#C6A0F6;stroke-width:2;" width="140.9122" x="1396.54" y="200.976"/><rect fill="#363A4F" height="31.792" rx="1.5" ry="1.5" style="stroke:#363A4F;stroke-width:2;" width="140.9122" x="1396.54" y="200.976"/><rect fill="#363A4F" height="1.5" style="stroke:#363A4F;stroke-width:2;" width="140.9122" x="1396.54" y="231.2681"/><rect fill="none" height="47.792" rx="1.5" ry="1.5" style="stroke:#C6A0F6;stroke-width:2;" width="140.9122" x="1396.54" y="200.976"/><ellipse cx="1410.54" cy="216.872" fill="#ADD1B2" rx="10" ry="10" style="stroke:#181818;stroke-width:1;"/><path d="M1410.2588,221.497 Q1409.0088,221.497 1408.2119,220.9814 Q1407.415,220.4502 1407.0244,219.497 Q1406.6338,218.5439 1406.6338,217.2627 Q1406.6338,215.8408 1407.1025,214.8252 Q1407.5713,213.7939 1408.4775,213.247 Q1409.3838,212.6845 1410.6963,212.6845 Q1411.3213,212.6845 1411.79,212.8095 Q1412.2744,212.9345 1412.7588,213.1689 L1412.1806,214.6064 Q1411.7431,214.372 1411.3525,214.2939 Q1410.9775,214.2158 1410.6338,214.2158 Q1409.8056,214.2158 1409.3056,214.5908 Q1408.8213,214.9502 1408.6025,215.622 Q1408.3994,216.2939 1408.3994,217.2002 Q1408.3994,218.6064 1408.8994,219.2939 Q1409.415,219.9658 1410.54,219.9658 Q1410.9619,219.9658 1411.3994,219.8564 Q1411.8369,219.747 1412.4306,219.4814 L1412.4306,221.0439 Q1411.915,221.2783 1411.3525,221.3877 Q1410.79,221.497 1410.2588,221.497 Z " fill="#CAD3F5"/><text fill="#A6DA95" font-family="Helvetica" font-size="16" lengthAdjust="spacing" textLength="110.9122" x="1423.54" y="223.0801">IdentityMonad</text><line style="stroke:#C6A0F6;stroke-width:2;" x1="1397.54" x2="1536.4522" y1="232.7681" y2="232.7681"/><line style="stroke:#C6A0F6;stroke-width:2;" x1="1397.54" x2="1536.4522" y1="240.7681" y2="240.7681"/></g><!--class Monad--><g class="entity" data-entity="Monad" data-uid="ent0032" id="entity_Monad"><rect fill="#24273A" height="47.792" rx="1.5" ry="1.5" style="stroke:#C6A0F6;stroke-width:2;" width="80.0801" x="1426.96" y="84.016"/><rect fill="#363A4F" height="31.792" rx="1.5" ry="1.5" style="stroke:#363A4F;stroke-width:2;" width="80.0801" x="1426.96" y="84.016"/><rect fill="#363A4F" height="1.5" style="stroke:#363A4F;stroke-width:2;" width="80.0801" x="1426.96" y="114.3081"/><rect fill="none" height="47.792" rx="1.5" ry="1.5" style="stroke:#C6A0F6;stroke-width:2;" width="80.0801" x="1426.96" y="84.016"/><ellipse cx="1440.96" cy="99.912" fill="#B4A7E5" rx="10" ry="10" style="stroke:#181818;stroke-width:1;"/><path d="M1438.5381,104.412 L1438.5381,103.2089 L1440.21,103.0214 L1440.21,97.2402 L1438.5381,97.037 L1438.5381,95.8495 L1443.585,95.8495 L1443.585,97.037 L1441.8819,97.2402 L1441.8819,103.0214 L1443.585,103.2089 L1443.585,104.412 L1438.5381,104.412 Z " fill="#CAD3F5"/><text fill="#A6DA95" font-family="Helvetica" font-size="16" font-style="italic" lengthAdjust="spacing" textLength="50.0801" x="1453.96" y="106.1201">Monad</text><line style="stroke:#C6A0F6;stroke-width:2;" x1="1427.96" x2="1506.0401" y1="115.8081" y2="115.8081"/><line style="stroke:#C6A0F6;stroke-width:2;" x1="1427.96" x2="1506.0401" y1="123.8081" y2="123.8081"/></g><!--reverse link Kind to OptionalKindInterface--><g class="link" data-entity-1="Kind" data-entity-2="OptionalKindInterface" data-source-line="12" data-uid="lnk8" id="link_Kind_OptionalKindInterface"><path d="M281,150.176 C281,167.496 281,173.336 281,192.366" fill="none" id="Kind-backto-OptionalKindInterface" style="stroke:#F5BDE6;stroke-width:1;"/><polygon fill="none" points="281,132.176,275,150.176,287,150.176,281,132.176" style="stroke:#F5BDE6;stroke-width:1;"/></g><!--reverse link OptionalKindInterface to OptionalHolder--><g class="link" data-entity-1="OptionalKindInterface" data-entity-2="OptionalHolder" data-source-line="19" data-uid="lnk13" id="link_OptionalKindInterface_OptionalHolder"><path d="M201,422.006 C201,447.186 201,469.546 201,497.606" fill="none" id="OptionalKindInterface-backto-OptionalHolder" style="stroke:#F5BDE6;stroke-width:1;stroke-dasharray:7,7;"/><polygon fill="none" points="201,404.006,195,422.006,207,422.006,201,404.006" style="stroke:#F5BDE6;stroke-width:1;"/></g><!--link OptionalKindHelper to OptionalHolder--><g class="link" data-entity-1="OptionalKindHelper" data-entity-2="OptionalHolder" data-source-line="22" data-uid="lnk15" id="link_OptionalKindHelper_OptionalHolder"><path codeLine="22" d="M467.46,420.556 C443.75,430.216 418.46,440.516 395,450.076 C356.6,465.726 319.4861,480.8511 283.9661,495.3311" fill="none" id="OptionalKindHelper-to-OptionalHolder" style="stroke:#F5BDE6;stroke-width:1;stroke-dasharray:7,7;"/><polygon fill="#F5BDE6" points="278.41,497.596,288.2541,497.9026,283.0401,495.7085,285.2341,490.4945,278.41,497.596" style="stroke:#F5BDE6;stroke-width:1;"/><text fill="#CAD3F5" font-family="Helvetica" font-size="12" lengthAdjust="spacing" textLength="77.4486" x="396" y="463.9041">creates / uses</text></g><!--link OptionalKindHelper to JavaOptional--><g class="link" data-entity-1="OptionalKindHelper" data-entity-2="JavaOptional" data-source-line="23" data-uid="lnk16" id="link_OptionalKindHelper_JavaOptional"><path codeLine="23" d="M542.47,420.366 C508.13,480.626 446.7414,588.3635 419.1114,636.8335" fill="none" id="OptionalKindHelper-to-JavaOptional" style="stroke:#F5BDE6;stroke-width:1;stroke-dasharray:7,7;"/><polygon fill="#F5BDE6" points="416.14,642.046,424.0721,636.2081,418.6162,637.7022,417.122,632.2462,416.14,642.046" style="stroke:#F5BDE6;stroke-width:1;"/><text fill="#CAD3F5" font-family="Helvetica" font-size="12" lengthAdjust="spacing" textLength="97.0447" x="498.44" y="534.9741">widens / narrows</text></g><!--link OptionalHolder to JavaOptional--><g class="link" data-entity-1="OptionalHolder" data-entity-2="JavaOptional" data-source-line="24" data-uid="lnk17" id="link_OptionalHolder_JavaOptional"><path codeLine="24" d="M248.36,562.556 C284.98,586.836 329.8396,616.59 362.9396,638.54" fill="none" id="OptionalHolder-to-JavaOptional" style="stroke:#F5BDE6;stroke-width:1;stroke-dasharray:7,7;"/><polygon fill="#F5BDE6" points="367.94,641.856,362.65,633.5484,363.773,639.0927,358.2287,640.2157,367.94,641.856" style="stroke:#F5BDE6;stroke-width:1;"/><text fill="#CAD3F5" font-family="Helvetica" font-size="12" lengthAdjust="spacing" textLength="30.9002" x="321.09" y="608.0441">holds</text></g><!--reverse link MonadError to OptionalMonad--><g class="link" data-entity-1="MonadError" data-entity-2="OptionalMonad" data-uid="lnk20" id="link_MonadError_OptionalMonad"><path d="M625,150.176 C625,170.116 625,180.706 625,200.646" fill="none" id="MonadError-backto-OptionalMonad" style="stroke:#F5BDE6;stroke-width:1;stroke-dasharray:7,7;"/><polygon fill="none" points="625,132.176,619,150.176,631,150.176,625,132.176" style="stroke:#F5BDE6;stroke-width:1;"/></g><!--link OptionalMonad to OptionalKindHelper--><g class="link" data-entity-1="OptionalMonad" data-entity-2="OptionalKindHelper" data-source-line="33" data-uid="lnk21" id="link_OptionalMonad_OptionalKindHelper"><path codeLine="33" d="M615.89,249.106 C606.51,273.006 593.9206,305.1002 582.7006,333.7102" fill="none" id="OptionalMonad-to-OptionalKindHelper" style="stroke:#F5BDE6;stroke-width:1;stroke-dasharray:7,7;"/><polygon fill="#F5BDE6" points="580.51,339.296,587.5198,332.3777,582.3355,334.6412,580.072,329.4569,580.51,339.296" style="stroke:#F5BDE6;stroke-width:1;"/><text fill="#CAD3F5" font-family="Helvetica" font-size="12" lengthAdjust="spacing" textLength="25.6802" x="601.37" y="300.7741">uses</text></g><!--reverse link Kind to IdKindInterface--><g class="link" data-entity-1="Kind" data-entity-2="IdKindInterface" data-source-line="38" data-uid="lnk25" id="link_Kind_IdKindInterface"><path d="M1057,267.106 C1057,293.346 1057,318.196 1057,347.416" fill="none" id="Kind-backto-IdKindInterface" style="stroke:#F5BDE6;stroke-width:1;"/><polygon fill="none" points="1057,249.106,1051,267.106,1063,267.106,1057,249.106" style="stroke:#F5BDE6;stroke-width:1;"/></g><!--reverse link IdKindInterface to IdRecord--><g class="link" data-entity-1="IdKindInterface" data-entity-2="IdRecord" data-uid="lnk27" id="link_IdKindInterface_IdRecord"><path d="M1043.9879,430.1687 C1040.7679,458.2287 1043.19,480.786 1047.16,505.986" fill="none" id="IdKindInterface-backto-IdRecord" style="stroke:#F5BDE6;stroke-width:1;stroke-dasharray:7,7;"/><polygon fill="none" points="1046.04,412.286,1038.027,429.4846,1049.9488,430.8527,1046.04,412.286" style="stroke:#F5BDE6;stroke-width:1;"/></g><!--link IdRecord to IdKindInterface--><g class="link" data-entity-1="IdRecord" data-entity-2="IdKindInterface" data-source-line="43" data-uid="lnk28" id="link_IdRecord_IdKindInterface"><path codeLine="43" d="M1066.84,505.986 C1070.81,480.786 1073.2321,458.2287 1070.0121,430.1687" fill="none" id="IdRecord-to-IdKindInterface" style="stroke:#F5BDE6;stroke-width:1;"/><polygon fill="none" points="1067.96,412.286,1064.0512,430.8527,1075.973,429.4846,1067.96,412.286" style="stroke:#F5BDE6;stroke-width:1;"/></g><!--link IdKindHelper to IdRecord--><g class="link" data-entity-1="IdKindHelper" data-entity-2="IdRecord" data-source-line="49" data-uid="lnk30" id="link_IdKindHelper_IdRecord"><path codeLine="49" d="M1357.4,420.486 C1282.08,447.726 1190.302,480.9245 1127.152,503.7745" fill="none" id="IdKindHelper-to-IdRecord" style="stroke:#F5BDE6;stroke-width:1;stroke-dasharray:7,7;"/><polygon fill="#F5BDE6" points="1121.51,505.816,1131.334,506.5151,1126.2117,504.1148,1128.612,498.9924,1121.51,505.816" style="stroke:#F5BDE6;stroke-width:1;"/><text fill="#CAD3F5" font-family="Helvetica" font-size="12" lengthAdjust="spacing" textLength="75.0606" x="1275.29" y="463.9041">casts to/from</text></g><!--reverse link Monad to IdentityMonad--><g class="link" data-entity-1="Monad" data-entity-2="IdentityMonad" data-uid="lnk33" id="link_Monad_IdentityMonad"><path d="M1467,150.176 C1467,170.116 1467,180.706 1467,200.646" fill="none" id="Monad-backto-IdentityMonad" style="stroke:#F5BDE6;stroke-width:1;stroke-dasharray:7,7;"/><polygon fill="none" points="1467,132.176,1461,150.176,1473,150.176,1467,132.176" style="stroke:#F5BDE6;stroke-width:1;"/></g><!--link IdentityMonad to IdKindHelper--><g class="link" data-entity-1="IdentityMonad" data-entity-2="IdKindHelper" data-source-line="54" data-uid="lnk34" id="link_IdentityMonad_IdKindHelper"><path codeLine="54" d="M1467,249.106 C1467,273.006 1467,304.686 1467,333.296" fill="none" id="IdentityMonad-to-IdKindHelper" style="stroke:#F5BDE6;stroke-width:1;stroke-dasharray:7,7;"/><polygon fill="#F5BDE6" points="1467,339.296,1471,330.296,1467,334.296,1463,330.296,1467,339.296" style="stroke:#F5BDE6;stroke-width:1;"/><text fill="#CAD3F5" font-family="Helvetica" font-size="12" lengthAdjust="spacing" textLength="25.6802" x="1468" y="300.7741">uses</text></g><!--SRC=[nLJBRjim4BphAxQws4OiwMu41WmaHTmsIL74wAKNcg9ZDXH9a5GSm_M_T_MqdablzI5GIExipEpZ4vTKf363lNFQBgB8a4FupDq-tQQM6QgaOzA5L2MHfCew4d0QKUAqJYdbCaW8fNjEd0gq8DAbYGZSdYKiIWYNKVuPQZprF4yJ-aAU6VWtR9TAwhYIH71BiW_uJfnZHi8DSuGBwyF90_nHGQo5hrp66tamHD- -KQQp02-_bieXtae8-CcTPFZK7JMpm1CjCBDqlsHviJBS7Q-Vy3R_2ZUIcEFI1sAhq0V4Ab1hef-LWTktZ1SHy9GZJnzrGHoOexEAPlRZw9JP4OfnrPkCz_MgoD8yMzTF6QBBk51utNmIbgpci5esabmygGJNKkkZGceX44vdcC03iux5eFTO8PMqlAgHpruRt_zDNacOEYx2YbSbvGlUr3QSpbuTEQbLtYaHCmFS0f65CzdRccjHypYlDQXTovmx9ZGpDMPTZ0h57xJ3RsVkkbxnkPWrN8ysD5nr0APAkmKCEZDhHPu7VEsBX31STYakmAU64OUz5W6EeFK_0cYL0yCFF6OoYyOECEem052c6WhUunL6U2FkNbBtchfar7Rm2ausgpOzGqxhFGCNxq_166wXSlg2ppz0c8ra7f-1wj4z_ebRYlEJPZ_b1xT8nOpatqZkkgCyWGrM-BtsxxTFaRdPEGttiOANdZaFhBDlV6jmCGIuWxd4dL1kjNKyXtjotB8vh1_dy6I8j3jb4cRis99RnytrLlmtijYAo_-uqYR83va2TvQ9NJD1hQ9R-ZnW-af4oXQmcfKYVp2gJDm76DeWb_HrN13yMNOZl7xcpfGr3pwQBuv3a5Elngdl_RyFKZzsLg8FYkpifLfrjjA8HQ-SYdP69Vw0PFGIItoPizP9Ryuwp4R6gibea70pHS5uV9JEVm40]--></g></svg>