<svg xmlns="http://www.w3.org/2000/svg" xmlns:xlink="http://www.w3.org/1999/xlink" contentStyleType="text/css" data-diagram-type="CLASS" height="632px" preserveAspectRatio="none" style="width:1512px;height:632px;background:#24273A;" version="1.1" viewBox="0 0 1512 632" width="1512px" zoomAndPan="magnify"><defs/><g><rect fill="#24273A" height="632" style="stroke:none;stroke-width:1;" width="1512" x="0" y="0"/><!--cluster HKT Core - Type Classes--><g class="cluster" data-entity="HKT Core - Type Classes" data-source-line="4" data-uid="ent0002" id="cluster_HKT Core - Type Classes"><path d="M7.5,6 L174.1465,6 A2.25,2.25 0 0 1 175.6465,7.5 L182.6465,25.9688 L1503.5,25.9688 A1.5,1.5 0 0 1 1505,27.4688 L1505,624.31 A1.5,1.5 0 0 1 1503.5,625.81 L7.5,625.81 A1.5,1.5 0 0 1 6,624.31 L6,7.5 A1.5,1.5 0 0 1 7.5,6" fill="#24273A" style="stroke:#CAD3F5;stroke-width:1.5;"/><line style="stroke:#CAD3F5;stroke-width:1.5;" x1="6" x2="182.6465" y1="25.9688" y2="25.9688"/><text fill="#CAD3F5" font-family="Helvetica" font-size="12" font-weight="bold" lengthAdjust="spacing" textLength="163.6465" x="10" y="19.1387">HKT Core - Type Classes</text></g><!--class Kind--><g class="entity" data-entity="Kind" data-source-line="5" data-uid="ent0003" id="entity_Kind"><rect fill="#24273A" height="46" rx="1.5" ry="1.5" style="stroke:#C6A0F6;stroke-width:2;" width="152.502" x="605.75" y="563.81"/><rect fill="#363A4F" height="30" rx="1.5" ry="1.5" style="stroke:#363A4F;stroke-width:2;" width="152.502" x="605.75" y="563.81"/><rect fill="#363A4F" height="1.5" style="stroke:#363A4F;stroke-width:2;" width="152.502" x="605.75" y="592.31"/><rect fill="none" height="46" rx="1.5" ry="1.5" style="stroke:#C6A0F6;stroke-width:2;" width="152.502" x="605.75" y="563.81"/><ellipse cx="619.75" cy="578.81" fill="#B4A7E5" rx="10" ry="10" style="stroke:#181818;stroke-width:1;"/><path d="M616.7656,576.0913 L616.7656,574.56 L621.9688,574.56 L621.9688,576.0913 L620.2344,576.0913 L620.2344,581.7788 L621.9688,581.7788 L621.9688,583.31 L616.7656,583.31 L616.7656,581.7788 L618.5,581.7788 L618.5,576.0913 L616.7656,576.0913 Z " fill="#CAD3F5"/><text fill="#A6DA95" font-family="Helvetica" font-size="16" font-style="italic" lengthAdjust="spacing" textLength="35.2344" x="632.75" y="584.3491">Kind</text><rect fill="#24273A" height="15.9688" style="stroke:#C6A0F6;stroke-width:1;stroke-dasharray:2,2;" width="85.2676" x="675.9844" y="560.81"/><text fill="#CAD3F5" font-family="Helvetica" font-size="12" font-style="italic" lengthAdjust="spacing" textLength="83.2676" x="676.9844" y="572.9487">F_WITNESS, A</text><line style="stroke:#C6A0F6;stroke-width:2;" x1="606.75" x2="757.252" y1="593.81" y2="593.81"/><line style="stroke:#C6A0F6;stroke-width:2;" x1="606.75" x2="757.252" y1="601.81" y2="601.81"/></g><!--class Functor--><g class="entity" data-entity="Functor" data-source-line="9" data-uid="ent0004" id="entity_Functor"><rect fill="#24273A" height="59.9688" rx="1.5" ry="1.5" style="stroke:#C6A0F6;stroke-width:2;" width="463.5098" x="450.25" y="428.84"/><rect fill="#363A4F" height="30" rx="1.5" ry="1.5" style="stroke:#363A4F;stroke-width:2;" width="463.5098" x="450.25" y="428.84"/><rect fill="#363A4F" height="1.5" style="stroke:#363A4F;stroke-width:2;" width="463.5098" x="450.25" y="457.34"/><rect fill="none" height="59.9688" rx="1.5" ry="1.5" style="stroke:#C6A0F6;stroke-width:2;" width="463.5098" x="450.25" y="428.84"/><ellipse cx="611.8291" cy="443.84" fill="#B4A7E5" rx="10" ry="10" style="stroke:#181818;stroke-width:1;"/><path d="M608.8447,441.1212 L608.8447,439.59 L614.0479,439.59 L614.0479,441.1212 L612.3135,441.1212 L612.3135,446.8087 L614.0479,446.8087 L614.0479,448.34 L608.8447,448.34 L608.8447,446.8087 L610.5791,446.8087 L610.5791,441.1212 L608.8447,441.1212 Z " fill="#CAD3F5"/><text fill="#A6DA95" font-family="Helvetica" font-size="16" font-style="italic" lengthAdjust="spacing" textLength="60.9219" x="630.8291" y="449.3791">Functor</text><rect fill="#24273A" height="15.9688" style="stroke:#C6A0F6;stroke-width:1;stroke-dasharray:2,2;" width="69.4297" x="847.3301" y="425.84"/><text fill="#CAD3F5" font-family="Helvetica" font-size="12" font-style="italic" lengthAdjust="spacing" textLength="67.4297" x="848.3301" y="437.9787">F_WITNESS</text><line style="stroke:#C6A0F6;stroke-width:2;" x1="451.25" x2="912.7598" y1="458.84" y2="458.84"/><line style="stroke:#C6A0F6;stroke-width:2;" x1="451.25" x2="912.7598" y1="466.84" y2="466.84"/><ellipse cx="461.25" cy="479.3244" fill="#84BE84" rx="3" ry="3" style="stroke:#038048;stroke-width:1;"/><text fill="#A6DA95" font-family="Helvetica" font-size="12" lengthAdjust="spacing" textLength="438.5098" x="469.25" y="481.9787">map(fn: Function&lt;A,B&gt;, fa: Kind&lt;F_WITNESS,A&gt;) : Kind&lt;F_WITNESS,B&gt;</text></g><!--class Applicative--><g class="entity" data-entity="Applicative" data-source-line="12" data-uid="ent0005" id="entity_Applicative"><rect fill="#24273A" height="73.9375" rx="1.5" ry="1.5" style="stroke:#C6A0F6;stroke-width:2;" width="570.0332" x="21.98" y="293.9"/><rect fill="#363A4F" height="30" rx="1.5" ry="1.5" style="stroke:#363A4F;stroke-width:2;" width="570.0332" x="21.98" y="293.9"/><rect fill="#363A4F" height="1.5" style="stroke:#363A4F;stroke-width:2;" width="570.0332" x="21.98" y="322.4"/><rect fill="none" height="73.9375" rx="1.5" ry="1.5" style="stroke:#C6A0F6;stroke-width:2;" width="570.0332" x="21.98" y="293.9"/><ellipse cx="222.8911" cy="308.9" fill="#B4A7E5" rx="10" ry="10" style="stroke:#181818;stroke-width:1;"/><path d="M219.9068,306.1812 L219.9068,304.65 L225.1099,304.65 L225.1099,306.1812 L223.3755,306.1812 L223.3755,311.8687 L225.1099,311.8687 L225.1099,313.4 L219.9068,313.4 L219.9068,311.8687 L221.6411,311.8687 L221.6411,306.1812 L219.9068,306.1812 Z " fill="#CAD3F5"/><text fill="#A6DA95" font-family="Helvetica" font-size="16" font-style="italic" lengthAdjust="spacing" textLength="88.7813" x="241.8911" y="314.4391">Applicative</text><rect fill="#24273A" height="15.9688" style="stroke:#C6A0F6;stroke-width:1;stroke-dasharray:2,2;" width="69.4297" x="525.5835" y="290.9"/><text fill="#CAD3F5" font-family="Helvetica" font-size="12" font-style="italic" lengthAdjust="spacing" textLength="67.4297" x="526.5835" y="303.0387">F_WITNESS</text><line style="stroke:#C6A0F6;stroke-width:2;" x1="22.98" x2="591.0132" y1="323.9" y2="323.9"/><line style="stroke:#C6A0F6;stroke-width:2;" x1="22.98" x2="591.0132" y1="331.9" y2="331.9"/><ellipse cx="32.98" cy="344.3844" fill="#84BE84" rx="3" ry="3" style="stroke:#038048;stroke-width:1;"/><text fill="#A6DA95" font-family="Helvetica" font-size="12" lengthAdjust="spacing" textLength="207.4336" x="40.98" y="347.0387">of(value: A) : Kind&lt;F_WITNESS,A&gt;</text><ellipse cx="32.98" cy="358.3531" fill="#84BE84" rx="3" ry="3" style="stroke:#038048;stroke-width:1;"/><text fill="#A6DA95" font-family="Helvetica" font-size="12" lengthAdjust="spacing" textLength="545.0332" x="40.98" y="361.0074">ap(ff: Kind&lt;F_WITNESS, Function&lt;A,B&gt;&gt;, fa: Kind&lt;F_WITNESS,A&gt;) : Kind&lt;F_WITNESS,B&gt;</text></g><!--class Monad--><g class="entity" data-entity="Monad" data-source-line="18" data-uid="ent0006" id="entity_Monad"><rect fill="#24273A" height="59.9688" rx="1.5" ry="1.5" style="stroke:#C6A0F6;stroke-width:2;" width="610.8496" x="32.58" y="172.94"/><rect fill="#363A4F" height="30" rx="1.5" ry="1.5" style="stroke:#363A4F;stroke-width:2;" width="610.8496" x="32.58" y="172.94"/><rect fill="#363A4F" height="1.5" style="stroke:#363A4F;stroke-width:2;" width="610.8496" x="32.58" y="201.44"/><rect fill="none" height="59.9688" rx="1.5" ry="1.5" style="stroke:#C6A0F6;stroke-width:2;" width="610.8496" x="32.58" y="172.94"/><ellipse cx="271.4423" cy="187.94" fill="#B4A7E5" rx="10" ry="10" style="stroke:#181818;stroke-width:1;"/><path d="M268.4579,185.2212 L268.4579,183.69 L273.6611,183.69 L273.6611,185.2212 L271.9267,185.2212 L271.9267,190.9087 L273.6611,190.9087 L273.6611,192.44 L268.4579,192.44 L268.4579,190.9087 L270.1923,190.9087 L270.1923,185.2212 L268.4579,185.2212 Z " fill="#CAD3F5"/><text fill="#A6DA95" font-family="Helvetica" font-size="16" font-style="italic" lengthAdjust="spacing" textLength="53.6953" x="290.4423" y="193.4791">Monad</text><rect fill="#24273A" height="15.9688" style="stroke:#C6A0F6;stroke-width:1;stroke-dasharray:2,2;" width="69.4297" x="576.9999" y="169.94"/><text fill="#CAD3F5" font-family="Helvetica" font-size="12" font-style="italic" lengthAdjust="spacing" textLength="67.4297" x="577.9999" y="182.0787">F_WITNESS</text><line style="stroke:#C6A0F6;stroke-width:2;" x1="33.58" x2="642.4296" y1="202.94" y2="202.94"/><line style="stroke:#C6A0F6;stroke-width:2;" x1="33.58" x2="642.4296" y1="210.94" y2="210.94"/><ellipse cx="43.58" cy="223.4244" fill="#84BE84" rx="3" ry="3" style="stroke:#038048;stroke-width:1;"/><text fill="#A6DA95" font-family="Helvetica" font-size="12" lengthAdjust="spacing" textLength="585.8496" x="51.58" y="226.0787">flatMap(fn: Function&lt;A, Kind&lt;F_WITNESS,B&gt;&gt;, ma: Kind&lt;F_WITNESS,A&gt;) : Kind&lt;F_WITNESS,B&gt;</text></g><!--class MonadError--><g class="entity" data-entity="MonadError" data-source-line="21" data-uid="ent0007" id="entity_MonadError"><rect fill="#24273A" height="73.9375" rx="1.5" ry="1.5" style="stroke:#C6A0F6;stroke-width:2;" width="697.3691" x="22.32" y="38"/><rect fill="#363A4F" height="30" rx="1.5" ry="1.5" style="stroke:#363A4F;stroke-width:2;" width="697.3691" x="22.32" y="38"/><rect fill="#363A4F" height="1.5" style="stroke:#363A4F;stroke-width:2;" width="697.3691" x="22.32" y="66.5"/><rect fill="none" height="73.9375" rx="1.5" ry="1.5" style="stroke:#C6A0F6;stroke-width:2;" width="697.3691" x="22.32" y="38"/><ellipse cx="277.0202" cy="53" fill="#B4A7E5" rx="10" ry="10" style="stroke:#181818;stroke-width:1;"/><path d="M274.0358,50.2813 L274.0358,48.75 L279.2389,48.75 L279.2389,50.2813 L277.5046,50.2813 L277.5046,55.9688 L279.2389,55.9688 L279.2389,57.5 L274.0358,57.5 L274.0358,55.9688 L275.7702,55.9688 L275.7702,50.2813 L274.0358,50.2813 Z " fill="#CAD3F5"/><text fill="#A6DA95" font-family="Helvetica" font-size="16" font-style="italic" lengthAdjust="spacing" textLength="93.3281" x="296.0202" y="58.5391">MonadError</text><rect fill="#24273A" height="15.9688" style="stroke:#C6A0F6;stroke-width:1;stroke-dasharray:2,2;" width="84.6406" x="638.0485" y="35"/><text fill="#CAD3F5" font-family="Helvetica" font-size="12" font-style="italic" lengthAdjust="spacing" textLength="82.6406" x="639.0485" y="47.1387">F_WITNESS, E</text><line style="stroke:#C6A0F6;stroke-width:2;" x1="23.32" x2="718.6891" y1="68" y2="68"/><line style="stroke:#C6A0F6;stroke-width:2;" x1="23.32" x2="718.6891" y1="76" y2="76"/><ellipse cx="33.32" cy="88.4844" fill="#84BE84" rx="3" ry="3" style="stroke:#038048;stroke-width:1;"/><text fill="#A6DA95" font-family="Helvetica" font-size="12" lengthAdjust="spacing" textLength="250.9688" x="41.32" y="91.1387">raiseError(error: E) : Kind&lt;F_WITNESS,A&gt;</text><ellipse cx="33.32" cy="102.4531" fill="#84BE84" rx="3" ry="3" style="stroke:#038048;stroke-width:1;"/><text fill="#A6DA95" font-family="Helvetica" font-size="12" lengthAdjust="spacing" textLength="672.3691" x="41.32" y="105.1074">handleErrorWith(ma: Kind&lt;F_WITNESS,A&gt;, handler: Function&lt;E, Kind&lt;F_WITNESS,A&gt;&gt;) : Kind&lt;F_WITNESS,A&gt;</text></g><!--class Semigroup--><g class="entity" data-entity="Semigroup" data-source-line="27" data-uid="ent0008" id="entity_Semigroup"><rect fill="#24273A" height="59.9688" rx="1.5" ry="1.5" style="stroke:#C6A0F6;stroke-width:2;" width="159.7773" x="1027.11" y="172.94"/><rect fill="#363A4F" height="30" rx="1.5" ry="1.5" style="stroke:#363A4F;stroke-width:2;" width="159.7773" x="1027.11" y="172.94"/><rect fill="#363A4F" height="1.5" style="stroke:#363A4F;stroke-width:2;" width="159.7773" x="1027.11" y="201.44"/><rect fill="none" height="59.9688" rx="1.5" ry="1.5" style="stroke:#C6A0F6;stroke-width:2;" width="159.7773" x="1027.11" y="172.94"/><ellipse cx="1054.9326" cy="187.94" fill="#B4A7E5" rx="10" ry="10" style="stroke:#181818;stroke-width:1;"/><path d="M1051.9482,185.2212 L1051.9482,183.69 L1057.1513,183.69 L1057.1513,185.2212 L1055.4169,185.2212 L1055.4169,190.9087 L1057.1513,190.9087 L1057.1513,192.44 L1051.9482,192.44 L1051.9482,190.9087 L1053.6826,190.9087 L1053.6826,185.2212 L1051.9482,185.2212 Z " fill="#CAD3F5"/><text fill="#A6DA95" font-family="Helvetica" font-size="16" font-style="italic" lengthAdjust="spacing" textLength="86.8516" x="1071.0042" y="193.4791">Semigroup</text><rect fill="#24273A" height="15.9688" style="stroke:#C6A0F6;stroke-width:1;stroke-dasharray:2,2;" width="10.209" x="1179.6784" y="169.94"/><text fill="#CAD3F5" font-family="Helvetica" font-size="12" font-style="italic" lengthAdjust="spacing" textLength="8.209" x="1180.6784" y="182.0787">A</text><line style="stroke:#C6A0F6;stroke-width:2;" x1="1028.11" x2="1185.8873" y1="202.94" y2="202.94"/><line style="stroke:#C6A0F6;stroke-width:2;" x1="1028.11" x2="1185.8873" y1="210.94" y2="210.94"/><ellipse cx="1038.11" cy="223.4244" fill="#84BE84" rx="3" ry="3" style="stroke:#038048;stroke-width:1;"/><text fill="#A6DA95" font-family="Helvetica" font-size="12" lengthAdjust="spacing" textLength="134.7773" x="1046.11" y="226.0787">combine(x: A, y: A) : A</text></g><!--class Monoid--><g class="entity" data-entity="Monoid" data-source-line="31" data-uid="ent0009" id="entity_Monoid"><rect fill="#24273A" height="59.9688" rx="1.5" ry="1.5" style="stroke:#C6A0F6;stroke-width:2;" width="100.334" x="1056.83" y="44.98"/><rect fill="#363A4F" height="30" rx="1.5" ry="1.5" style="stroke:#363A4F;stroke-width:2;" width="100.334" x="1056.83" y="44.98"/><rect fill="#363A4F" height="1.5" style="stroke:#363A4F;stroke-width:2;" width="100.334" x="1056.83" y="73.48"/><rect fill="none" height="59.9688" rx="1.5" ry="1.5" style="stroke:#C6A0F6;stroke-width:2;" width="100.334" x="1056.83" y="44.98"/><ellipse cx="1070.83" cy="59.98" fill="#B4A7E5" rx="10" ry="10" style="stroke:#181818;stroke-width:1;"/><path d="M1067.8456,57.2612 L1067.8456,55.73 L1073.0488,55.73 L1073.0488,57.2612 L1071.3144,57.2612 L1071.3144,62.9487 L1073.0488,62.9487 L1073.0488,64.48 L1067.8456,64.48 L1067.8456,62.9487 L1069.58,62.9487 L1069.58,57.2612 L1067.8456,57.2612 Z " fill="#CAD3F5"/><text fill="#A6DA95" font-family="Helvetica" font-size="16" font-style="italic" lengthAdjust="spacing" textLength="58.125" x="1083.83" y="65.5191">Monoid</text><rect fill="#24273A" height="15.9688" style="stroke:#C6A0F6;stroke-width:1;stroke-dasharray:2,2;" width="10.209" x="1149.955" y="41.98"/><text fill="#CAD3F5" font-family="Helvetica" font-size="12" font-style="italic" lengthAdjust="spacing" textLength="8.209" x="1150.955" y="54.1187">A</text><line style="stroke:#C6A0F6;stroke-width:2;" x1="1057.83" x2="1156.164" y1="74.98" y2="74.98"/><line style="stroke:#C6A0F6;stroke-width:2;" x1="1057.83" x2="1156.164" y1="82.98" y2="82.98"/><ellipse cx="1067.83" cy="95.4644" fill="#84BE84" rx="3" ry="3" style="stroke:#038048;stroke-width:1;"/><text fill="#A6DA95" font-family="Helvetica" font-size="12" lengthAdjust="spacing" textLength="67.7402" x="1075.83" y="98.1187">empty() : A</text></g><!--class Traverse--><g class="entity" data-entity="Traverse" data-source-line="35" data-uid="ent0010" id="entity_Traverse"><rect fill="#24273A" height="73.9375" rx="1.5" ry="1.5" style="stroke:#C6A0F6;stroke-width:2;" width="861.2031" x="627.4" y="293.9"/><rect fill="#363A4F" height="30" rx="1.5" ry="1.5" style="stroke:#363A4F;stroke-width:2;" width="861.2031" x="627.4" y="293.9"/><rect fill="#363A4F" height="1.5" style="stroke:#363A4F;stroke-width:2;" width="861.2031" x="627.4" y="322.4"/><rect fill="none" height="73.9375" rx="1.5" ry="1.5" style="stroke:#C6A0F6;stroke-width:2;" width="861.2031" x="627.4" y="293.9"/><ellipse cx="1012.7838" cy="308.9" fill="#B4A7E5" rx="10" ry="10" style="stroke:#181818;stroke-width:1;"/><path d="M1009.7994,306.1812 L1009.7994,304.65 L1015.0025,304.65 L1015.0025,306.1812 L1013.2682,306.1812 L1013.2682,311.8687 L1015.0025,311.8687 L1015.0025,313.4 L1009.7994,313.4 L1009.7994,311.8687 L1011.5338,311.8687 L1011.5338,306.1812 L1009.7994,306.1812 Z " fill="#CAD3F5"/><text fill="#A6DA95" font-family="Helvetica" font-size="16" font-style="italic" lengthAdjust="spacing" textLength="70.2266" x="1031.7838" y="314.4391">Traverse</text><rect fill="#24273A" height="15.9688" style="stroke:#C6A0F6;stroke-width:1;stroke-dasharray:2,2;" width="10.209" x="1481.3941" y="290.9"/><text fill="#CAD3F5" font-family="Helvetica" font-size="12" font-style="italic" lengthAdjust="spacing" textLength="8.209" x="1482.3941" y="303.0387">A</text><line style="stroke:#C6A0F6;stroke-width:2;" x1="628.4" x2="1487.6031" y1="323.9" y2="323.9"/><line style="stroke:#C6A0F6;stroke-width:2;" x1="628.4" x2="1487.6031" y1="331.9" y2="331.9"/><ellipse cx="638.4" cy="344.3844" fill="#84BE84" rx="3" ry="3" style="stroke:#038048;stroke-width:1;"/><text fill="#A6DA95" font-family="Helvetica" font-size="12" lengthAdjust="spacing" textLength="836.2031" x="646.4" y="347.0387">traverse(a: Applicative&lt;G&gt;, f : Function&lt;? super A, ? extends Kind&lt;G, ? extends B&gt;&gt;, ta : Kind&lt;T, A&gt;) : &lt;G, A, B&gt; Kind&lt;G, Kind&lt;T, B&gt;&gt;</text><ellipse cx="638.4" cy="358.3531" fill="#84BE84" rx="3" ry="3" style="stroke:#038048;stroke-width:1;"/><text fill="#A6DA95" font-family="Helvetica" font-size="12" lengthAdjust="spacing" textLength="544.4355" x="646.4" y="361.0074">sequence(a: Applicative&lt;G&gt;, tga : Kind&lt;T, Kind&lt;G, A&gt;&gt;) : &lt;G, A&gt; Kind&lt;G, Kind&lt;T, A&gt;&gt;</text></g><!--link Functor to Kind--><g class="link" data-entity-1="Functor" data-entity-2="Kind" data-source-line="40" data-uid="lnk11" id="link_Functor_Kind"><path codeLine="40" d="M682,489.05 C682,511.72 682,536.7 682,557.43" fill="none" id="Functor-to-Kind" style="stroke:#F5BDE6;stroke-width:1;stroke-dasharray:7,7;"/><polygon fill="#F5BDE6" points="682,563.43,686,554.43,682,558.43,678,554.43,682,563.43" style="stroke:#F5BDE6;stroke-width:1;"/><text fill="#CAD3F5" font-family="Helvetica" font-size="12" lengthAdjust="spacing" textLength="81.0938" x="683" y="530.9487">(operates on)</text></g><!--link Applicative to Functor--><g class="link" data-entity-1="Applicative" data-entity-2="Functor" data-source-line="41" data-uid="lnk12" id="link_Applicative_Functor"><path codeLine="41" d="M415.47,368.3 C472.25,387.37 523.8075,404.6867 577.1975,422.6267" fill="none" id="Applicative-to-Functor" style="stroke:#F5BDE6;stroke-width:1;"/><polygon fill="none" points="594.26,428.36,579.1086,416.9392,575.2864,428.3142,594.26,428.36" style="stroke:#F5BDE6;stroke-width:1;"/></g><!--link Monad to Applicative--><g class="link" data-entity-1="Monad" data-entity-2="Applicative" data-source-line="42" data-uid="lnk13" id="link_Monad_Applicative"><path codeLine="42" d="M330.81,233.13 C326.37,251.15 324.9578,256.9431 320.2278,276.1331" fill="none" id="Monad-to-Applicative" style="stroke:#F5BDE6;stroke-width:1;"/><polygon fill="none" points="315.92,293.61,326.0534,277.569,314.4021,274.6971,315.92,293.61" style="stroke:#F5BDE6;stroke-width:1;"/></g><!--link MonadError to Monad--><g class="link" data-entity-1="MonadError" data-entity-2="Monad" data-source-line="43" data-uid="lnk14" id="link_MonadError_Monad"><path codeLine="43" d="M361.46,112.4 C356.43,131.58 354.9113,137.3675 350.2013,155.3475" fill="none" id="MonadError-to-Monad" style="stroke:#F5BDE6;stroke-width:1;"/><polygon fill="none" points="345.64,172.76,356.0055,156.868,344.3972,153.8271,345.64,172.76" style="stroke:#F5BDE6;stroke-width:1;"/></g><!--link Monoid to Semigroup--><g class="link" data-entity-1="Monoid" data-entity-2="Semigroup" data-source-line="44" data-uid="lnk15" id="link_Monoid_Semigroup"><path codeLine="44" d="M1107,105.18 C1107,125.53 1107,134.55 1107,154.87" fill="none" id="Monoid-to-Semigroup" style="stroke:#F5BDE6;stroke-width:1;"/><polygon fill="none" points="1107,172.87,1113,154.87,1101,154.87,1107,172.87" style="stroke:#F5BDE6;stroke-width:1;"/></g><!--link Traverse to Functor--><g class="link" data-entity-1="Traverse" data-entity-2="Functor" data-source-line="45" data-uid="lnk16" id="link_Traverse_Functor"><path codeLine="45" d="M949.25,368.3 C892.31,387.37 840.577,404.7002 787.047,422.6402" fill="none" id="Traverse-to-Functor" style="stroke:#F5BDE6;stroke-width:1;"/><polygon fill="none" points="769.98,428.36,788.9536,428.3292,785.1404,416.9512,769.98,428.36" style="stroke:#F5BDE6;stroke-width:1;"/></g><!--SRC=[fLJBRjim4BpxAxQvH44b6UZHC1J8XfCMGT933AItWgPM5b69P4agYT7ctqjHZr2Mqw2e3uQuZzdP8NS_C4xBEaCeZ95wCPyhyXJlcIdgNQrHKS4DSXDJKSqv5TgGYD4v9KRAcbB6eufGMZ1YH2HBmarTbP4fiC9vHHYVkyzOMkjiDfE4_Y1xXBFFDrjO2uKGmVOW4TObqHhr6VoQWVqnMrBbXDh86yQpvTNtXo_RkytzVGXfSWP4GsFkWW7EOGW0fi6M15bOAg82qw076E_Z4BurIV43CnorlXXoqpxdaPGrkWpdUpccSbLpQeHwPTDIwSm36u2FK14Pv7pH-fZWopHS9I7aP0573QN91KoCg-GqWrJAabdfsICUi_1S8oOY3rnV2qXF54eJBxJXd4z2nZtyUnEjo5QGEwZG52BJG0c77O8kn1C7baE6cYdCGjZL1eXz5IAtJywQSrANHdimJjbFmQHyE2qUmehvrCFrAPBhDvI-5PnannexuqZTl2JcTdhNKpQMJlMVb- -gRvJoNs086u-QSuxuAS8qEdE0pVy2Dk-z0ZiuMTdcs54fWfEqmovCUMrlmcbSylTgv_3L3fu2XLGyeZgyzq8wOOwLkSUAxPMevRBR3eDX98RTO3l6CNYsin32ePk8z0rGgwXWMO_OdaPmM4bp22OGFiPM4TkMnXwbFuzmJ6SChD3-W5ytimQUm9UWQsdLikGl0P_jY6Jj8bnU-nRts0pfXTysExDXsKJPr5KovFH-c-7nqVYpHavFyZ5x7xV7wUwv_PoWfprw9r2_B-EuZRMPWR1z4OCQ16yNix_EekXtqcSvPpk7pkp5lRhQEN1-T-uzpGqww_0-d6UubL6XsSiV]--></g></svg>