<svg xmlns="http://www.w3.org/2000/svg" xmlns:xlink="http://www.w3.org/1999/xlink" contentStyleType="text/css" data-diagram-type="CLASS" height="511px" preserveAspectRatio="none" style="width:666px;height:511px;background:#24273A;" version="1.1" viewBox="0 0 666 511" width="666px" zoomAndPan="magnify"><defs/><g><rect fill="#24273A" height="511" style="stroke:none;stroke-width:1;" width="666" x="0" y="0"/><g class="entity" data-entity="ArityNote" data-source-line="6" data-uid="ent0002" id="entity_ArityNote"><path d="M6,354.22 L6,393.9082 A1.5,1.5 0 0 0 7.5,395.4082 L166.88,395.4082 L313.85,472.93 L174.88,395.4082 L257.2216,395.4082 A1.5,1.5 0 0 0 258.7216,393.9082 L258.7216,362.72 L248.7216,352.72 L7.5,352.72 A1.5,1.5 0 0 0 6,354.22" fill="#EED49F" style="stroke:#24273A;stroke-width:0.5;"/><path d="M248.7216,352.72 L248.7216,361.97 A0.75,0.75 0 0 0 249.4716,362.72 L258.7216,362.72 L248.7216,352.72" fill="#EED49F" style="stroke:#24273A;stroke-width:0.5;"/><text fill="#24273A" font-family="Helvetica" font-size="12" lengthAdjust="spacing" textLength="231.7216" x="12" y="370.5481">F extends WitnessArity&lt;TypeArity.Unary&gt;</text><text fill="#24273A" font-family="Helvetica" font-size="12" lengthAdjust="spacing" textLength="102.8288" x="12" y="386.8922">for all type classes</text></g><!--class Kind--><g class="entity" data-entity="Kind" data-source-line="8" data-uid="ent0003" id="entity_Kind"><rect fill="#24273A" height="31.792" rx="1.5" ry="1.5" style="stroke:#C6A0F6;stroke-width:2;" width="84.3082" x="300.21" y="473.41"/><rect fill="#363A4F" height="31.792" rx="1.5" ry="1.5" style="stroke:#363A4F;stroke-width:2;" width="84.3082" x="300.21" y="473.41"/><rect fill="#363A4F" height="1.5" style="stroke:#363A4F;stroke-width:2;" width="84.3082" x="300.21" y="503.702"/><rect fill="none" height="31.792" rx="1.5" ry="1.5" style="stroke:#C6A0F6;stroke-width:2;" width="84.3082" x="300.21" y="473.41"/><ellipse cx="314.21" cy="489.306" fill="#B4A7E5" rx="10" ry="10" style="stroke:#181818;stroke-width:1;"/><path d="M311.7881,493.806 L311.7881,492.6029 L313.46,492.4154 L313.46,486.6341 L311.7881,486.431 L311.7881,485.2435 L316.835,485.2435 L316.835,486.431 L315.1319,486.6341 L315.1319,492.4154 L316.835,492.6029 L316.835,493.806 L311.7881,493.806 Z " fill="#CAD3F5"/><text fill="#A6DA95" font-family="Helvetica" font-size="16" font-style="italic" lengthAdjust="spacing" textLength="31.6481" x="327.21" y="495.514">Kind</text><rect fill="#24273A" height="18.3441" style="stroke:#C6A0F6;stroke-width:1;stroke-dasharray:2,2;" width="20.6601" x="366.8581" y="470.41"/><text fill="#CAD3F5" font-family="Helvetica" font-size="12" font-style="italic" lengthAdjust="spacing" textLength="18.6601" x="367.8581" y="484.2381">F, A</text></g><!--class FunctorBase--><g class="entity" data-entity="FunctorBase" data-source-line="9" data-uid="ent0004" id="entity_FunctorBase"><rect fill="#24273A" height="31.792" rx="1.5" ry="1.5" style="stroke:#C6A0F6;stroke-width:2;" width="98.1882" x="293.27" y="358.17"/><rect fill="#363A4F" height="31.792" rx="1.5" ry="1.5" style="stroke:#363A4F;stroke-width:2;" width="98.1882" x="293.27" y="358.17"/><rect fill="#363A4F" height="1.5" style="stroke:#363A4F;stroke-width:2;" width="98.1882" x="293.27" y="388.462"/><rect fill="none" height="31.792" rx="1.5" ry="1.5" style="stroke:#C6A0F6;stroke-width:2;" width="98.1882" x="293.27" y="358.17"/><ellipse cx="307.27" cy="374.066" fill="#B4A7E5" rx="10" ry="10" style="stroke:#181818;stroke-width:1;"/><path d="M304.8481,378.566 L304.8481,377.3629 L306.52,377.1754 L306.52,371.3941 L304.8481,371.191 L304.8481,370.0035 L309.895,370.0035 L309.895,371.191 L308.1919,371.3941 L308.1919,377.1754 L309.895,377.3629 L309.895,378.566 L304.8481,378.566 Z " fill="#CAD3F5"/><text fill="#A6DA95" font-family="Helvetica" font-size="16" font-style="italic" lengthAdjust="spacing" textLength="54.0961" x="320.27" y="380.274">Functor</text><rect fill="#24273A" height="18.3441" style="stroke:#C6A0F6;stroke-width:1;stroke-dasharray:2,2;" width="12.0921" x="382.3661" y="355.17"/><text fill="#CAD3F5" font-family="Helvetica" font-size="12" font-style="italic" lengthAdjust="spacing" textLength="10.0921" x="383.3661" y="368.9981">M</text></g><!--class ApplicativeBase--><g class="entity" data-entity="ApplicativeBase" data-source-line="10" data-uid="ent0005" id="entity_ApplicativeBase"><rect fill="#24273A" height="31.792" rx="1.5" ry="1.5" style="stroke:#C6A0F6;stroke-width:2;" width="121.1002" x="278.81" y="234.76"/><rect fill="#363A4F" height="31.792" rx="1.5" ry="1.5" style="stroke:#363A4F;stroke-width:2;" width="121.1002" x="278.81" y="234.76"/><rect fill="#363A4F" height="1.5" style="stroke:#363A4F;stroke-width:2;" width="121.1002" x="278.81" y="265.052"/><rect fill="none" height="31.792" rx="1.5" ry="1.5" style="stroke:#C6A0F6;stroke-width:2;" width="121.1002" x="278.81" y="234.76"/><ellipse cx="292.81" cy="250.656" fill="#B4A7E5" rx="10" ry="10" style="stroke:#181818;stroke-width:1;"/><path d="M290.3881,255.156 L290.3881,253.9529 L292.06,253.7654 L292.06,247.9841 L290.3881,247.781 L290.3881,246.5935 L295.435,246.5935 L295.435,247.781 L293.7319,247.9841 L293.7319,253.7654 L295.435,253.9529 L295.435,255.156 L290.3881,255.156 Z " fill="#CAD3F5"/><text fill="#A6DA95" font-family="Helvetica" font-size="16" font-style="italic" lengthAdjust="spacing" textLength="77.0081" x="305.81" y="256.864">Applicative</text><rect fill="#24273A" height="18.3441" style="stroke:#C6A0F6;stroke-width:1;stroke-dasharray:2,2;" width="12.0921" x="390.8181" y="231.76"/><text fill="#CAD3F5" font-family="Helvetica" font-size="12" font-style="italic" lengthAdjust="spacing" textLength="10.0921" x="391.8181" y="245.5881">M</text></g><!--class MonadBase--><g class="entity" data-entity="MonadBase" data-source-line="11" data-uid="ent0006" id="entity_MonadBase"><rect fill="#24273A" height="31.792" rx="1.5" ry="1.5" style="stroke:#C6A0F6;stroke-width:2;" width="94.1722" x="292.27" y="116.79"/><rect fill="#363A4F" height="31.792" rx="1.5" ry="1.5" style="stroke:#363A4F;stroke-width:2;" width="94.1722" x="292.27" y="116.79"/><rect fill="#363A4F" height="1.5" style="stroke:#363A4F;stroke-width:2;" width="94.1722" x="292.27" y="147.082"/><rect fill="none" height="31.792" rx="1.5" ry="1.5" style="stroke:#C6A0F6;stroke-width:2;" width="94.1722" x="292.27" y="116.79"/><ellipse cx="306.27" cy="132.686" fill="#B4A7E5" rx="10" ry="10" style="stroke:#181818;stroke-width:1;"/><path d="M303.8481,137.186 L303.8481,135.9829 L305.52,135.7954 L305.52,130.0141 L303.8481,129.811 L303.8481,128.6235 L308.895,128.6235 L308.895,129.811 L307.1919,130.0141 L307.1919,135.7954 L308.895,135.9829 L308.895,137.186 L303.8481,137.186 Z " fill="#CAD3F5"/><text fill="#A6DA95" font-family="Helvetica" font-size="16" font-style="italic" lengthAdjust="spacing" textLength="50.0801" x="319.27" y="138.894">Monad</text><rect fill="#24273A" height="18.3441" style="stroke:#C6A0F6;stroke-width:1;stroke-dasharray:2,2;" width="12.0921" x="377.3501" y="113.79"/><text fill="#CAD3F5" font-family="Helvetica" font-size="12" font-style="italic" lengthAdjust="spacing" textLength="10.0921" x="378.3501" y="127.6181">M</text></g><!--class IdKindInterface--><g class="entity" data-entity="IdKindInterface" data-source-line="16" data-uid="ent0008" id="entity_IdKindInterface"><rect fill="#24273A" height="31.792" rx="1.5" ry="1.5" style="stroke:#C6A0F6;stroke-width:2;" width="86.8401" x="431.94" y="358.17"/><rect fill="#363A4F" height="31.792" rx="1.5" ry="1.5" style="stroke:#363A4F;stroke-width:2;" width="86.8401" x="431.94" y="358.17"/><rect fill="#363A4F" height="1.5" style="stroke:#363A4F;stroke-width:2;" width="86.8401" x="431.94" y="388.462"/><rect fill="none" height="31.792" rx="1.5" ry="1.5" style="stroke:#C6A0F6;stroke-width:2;" width="86.8401" x="431.94" y="358.17"/><ellipse cx="445.94" cy="374.066" fill="#B4A7E5" rx="10" ry="10" style="stroke:#181818;stroke-width:1;"/><path d="M443.5181,378.566 L443.5181,377.3629 L445.19,377.1754 L445.19,371.3941 L443.5181,371.191 L443.5181,370.0035 L448.565,370.0035 L448.565,371.191 L446.8619,371.3941 L446.8619,377.1754 L448.565,377.3629 L448.565,378.566 L443.5181,378.566 Z " fill="#CAD3F5"/><text fill="#A6DA95" font-family="Helvetica" font-size="16" font-style="italic" lengthAdjust="spacing" textLength="46.0961" x="458.94" y="380.274">IdKind</text><rect fill="#24273A" height="18.3441" style="stroke:#C6A0F6;stroke-width:1;stroke-dasharray:2,2;" width="8.744" x="513.0361" y="355.17"/><text fill="#CAD3F5" font-family="Helvetica" font-size="12" font-style="italic" lengthAdjust="spacing" textLength="6.744" x="514.0361" y="368.9981">A</text></g><!--class Id--><g class="entity" data-entity="Id" data-source-line="19" data-uid="ent0009" id="entity_Id"><rect fill="#24273A" height="48.1362" rx="1.5" ry="1.5" style="stroke:#C6A0F6;stroke-width:2;" width="84.9724" x="434.87" y="226.58"/><rect fill="#363A4F" height="48.1362" rx="1.5" ry="1.5" style="stroke:#363A4F;stroke-width:2;" width="84.9724" x="434.87" y="226.58"/><rect fill="#363A4F" height="1.5" style="stroke:#363A4F;stroke-width:2;" width="84.9724" x="434.87" y="273.2162"/><rect fill="none" height="48.1362" rx="1.5" ry="1.5" style="stroke:#C6A0F6;stroke-width:2;" width="84.9724" x="434.87" y="226.58"/><ellipse cx="448.87" cy="250.6481" fill="#DA70D6" rx="10" ry="10" style="stroke:#181818;stroke-width:1;"/><path d="M445.8231,255.1481 L445.8231,246.5856 L448.12,246.5856 Q449.6513,246.5856 450.4481,247.2731 Q451.245,247.945 451.245,249.1637 Q451.245,250.0387 450.8544,250.6168 Q450.4638,251.195 449.7919,251.5231 L451.8856,255.1481 L450.0419,255.1481 L448.2606,251.9137 L447.5731,251.9137 L447.5731,255.1481 L445.8231,255.1481 Z M448.0888,250.445 Q449.495,250.445 449.495,249.195 Q449.495,248.5543 449.12,248.3043 Q448.7606,248.0543 448.0575,248.0543 L447.5731,248.0543 L447.5731,250.445 L448.0888,250.445 Z " fill="#CAD3F5"/><text fill="#CAD3F5" font-family="Helvetica" font-size="12" font-style="italic" lengthAdjust="spacing" textLength="48.2283" x="459.87" y="244.4081">&#171;Record&#187;</text><text fill="#A6DA95" font-family="Helvetica" font-size="16" lengthAdjust="spacing" textLength="15.264" x="476.3521" y="265.0281">Id</text><rect fill="#24273A" height="18.3441" style="stroke:#C6A0F6;stroke-width:1;stroke-dasharray:2,2;" width="8.744" x="514.0983" y="223.58"/><text fill="#CAD3F5" font-family="Helvetica" font-size="12" font-style="italic" lengthAdjust="spacing" textLength="6.744" x="515.0983" y="237.4081">A</text></g><!--class IdKindHelper--><g class="entity" data-entity="IdKindHelper" data-source-line="22" data-uid="ent0010" id="entity_IdKindHelper"><rect fill="#24273A" height="31.792" rx="1.5" ry="1.5" style="stroke:#C6A0F6;stroke-width:2;" width="129.5042" x="523.61" y="116.79"/><rect fill="#363A4F" height="31.792" rx="1.5" ry="1.5" style="stroke:#363A4F;stroke-width:2;" width="129.5042" x="523.61" y="116.79"/><rect fill="#363A4F" height="1.5" style="stroke:#363A4F;stroke-width:2;" width="129.5042" x="523.61" y="147.082"/><rect fill="none" height="31.792" rx="1.5" ry="1.5" style="stroke:#C6A0F6;stroke-width:2;" width="129.5042" x="523.61" y="116.79"/><ellipse cx="537.61" cy="132.686" fill="#808080" rx="10" ry="10" style="stroke:#181818;stroke-width:1;"/><path d="M534.1569,137.186 L534.1569,128.6235 L535.8913,128.6235 L535.8913,131.9673 L538.5319,131.9673 L538.5319,128.6235 L540.2663,128.6235 L540.2663,137.186 L538.5319,137.186 L538.5319,133.4673 L535.8913,133.4673 L535.8913,137.186 L534.1569,137.186 Z " fill="#CAD3F5"/><text fill="#A6DA95" font-family="Helvetica" font-size="16" lengthAdjust="spacing" textLength="99.5042" x="550.61" y="138.894">IdKindHelper</text></g><!--class IdentityMonad--><g class="entity" data-entity="IdentityMonad" data-source-line="25" data-uid="ent0011" id="entity_IdentityMonad"><rect fill="#24273A" height="31.792" rx="1.5" ry="1.5" style="stroke:#C6A0F6;stroke-width:2;" width="140.9122" x="390.9" y="7"/><rect fill="#363A4F" height="31.792" rx="1.5" ry="1.5" style="stroke:#363A4F;stroke-width:2;" width="140.9122" x="390.9" y="7"/><rect fill="#363A4F" height="1.5" style="stroke:#363A4F;stroke-width:2;" width="140.9122" x="390.9" y="37.292"/><rect fill="none" height="31.792" rx="1.5" ry="1.5" style="stroke:#C6A0F6;stroke-width:2;" width="140.9122" x="390.9" y="7"/><ellipse cx="404.9" cy="22.896" fill="#ADD1B2" rx="10" ry="10" style="stroke:#181818;stroke-width:1;"/><path d="M404.6188,27.521 Q403.3688,27.521 402.5719,27.0054 Q401.775,26.4741 401.3844,25.521 Q400.9938,24.5679 400.9938,23.2866 Q400.9938,21.8648 401.4625,20.8491 Q401.9313,19.8179 402.8375,19.271 Q403.7438,18.7085 405.0563,18.7085 Q405.6813,18.7085 406.15,18.8335 Q406.6344,18.9585 407.1188,19.1929 L406.5406,20.6304 Q406.1031,20.396 405.7125,20.3179 Q405.3375,20.2398 404.9938,20.2398 Q404.1656,20.2398 403.6656,20.6148 Q403.1813,20.9741 402.9625,21.646 Q402.7594,22.3179 402.7594,23.2241 Q402.7594,24.6304 403.2594,25.3179 Q403.775,25.9898 404.9,25.9898 Q405.3219,25.9898 405.7594,25.8804 Q406.1969,25.771 406.7906,25.5054 L406.7906,27.0679 Q406.275,27.3023 405.7125,27.4116 Q405.15,27.521 404.6188,27.521 Z " fill="#CAD3F5"/><text fill="#A6DA95" font-family="Helvetica" font-size="16" lengthAdjust="spacing" textLength="110.9122" x="417.9" y="29.104">IdentityMonad</text></g><!--link MonadBase to ApplicativeBase--><g class="link" data-entity-1="MonadBase" data-entity-2="ApplicativeBase" data-source-line="31" data-uid="lnk12" id="link_MonadBase_ApplicativeBase"><path codeLine="31" d="M339.36,148.85 C339.36,171.07 339.36,194.26 339.36,216.49" fill="none" id="MonadBase-to-ApplicativeBase" style="stroke:#F5BDE6;stroke-width:1;"/><polygon fill="none" points="339.36,234.49,345.36,216.49,333.36,216.49,339.36,234.49" style="stroke:#F5BDE6;stroke-width:1;"/></g><!--link ApplicativeBase to FunctorBase--><g class="link" data-entity-1="ApplicativeBase" data-entity-2="FunctorBase" data-source-line="32" data-uid="lnk13" id="link_ApplicativeBase_FunctorBase"><path codeLine="32" d="M339.74,267.03 C340.32,290.38 340.9694,316.5354 341.5394,339.8154" fill="none" id="ApplicativeBase-to-FunctorBase" style="stroke:#F5BDE6;stroke-width:1;"/><polygon fill="none" points="341.98,357.81,347.5376,339.6685,335.5412,339.9623,341.98,357.81" style="stroke:#F5BDE6;stroke-width:1;"/></g><!--link FunctorBase to Kind--><g class="link" data-entity-1="FunctorBase" data-entity-2="Kind" data-source-line="33" data-uid="lnk14" id="link_FunctorBase_Kind"><path codeLine="33" d="M342.36,390.34 C342.36,411.95 342.36,433.23 342.36,454.91" fill="none" id="FunctorBase-to-Kind" style="stroke:#F5BDE6;stroke-width:1;"/><polygon fill="none" points="342.36,472.91,348.36,454.91,336.36,454.91,342.36,472.91" style="stroke:#F5BDE6;stroke-width:1;"/></g><!--link IdKindInterface to Kind--><g class="link" data-entity-1="IdKindInterface" data-entity-2="Kind" data-source-line="36" data-uid="lnk15" id="link_IdKindInterface_Kind"><path codeLine="36" d="M457.42,390.34 C432.04,411.95 399.6045,439.5601 374.1445,461.2401" fill="none" id="IdKindInterface-to-Kind" style="stroke:#F5BDE6;stroke-width:1;"/><polygon fill="none" points="360.44,472.91,378.0345,465.8083,370.2546,456.672,360.44,472.91" style="stroke:#F5BDE6;stroke-width:1;"/><text fill="#CAD3F5" font-family="Helvetica" font-size="12" lengthAdjust="spacing" textLength="111.9848" x="413.85" y="439.2381">&lt;IdKind.Witness, A&gt;</text></g><!--link Id to IdKindInterface--><g class="link" data-entity-1="Id" data-entity-2="IdKindInterface" data-source-line="37" data-uid="lnk16" id="link_Id_IdKindInterface"><path codeLine="37" d="M476.98,275.06 C476.57,299.45 476.2626,318.9725 475.9126,339.7925" fill="none" id="Id-to-IdKindInterface" style="stroke:#F5BDE6;stroke-width:1;stroke-dasharray:7,7;"/><polygon fill="none" points="475.61,357.79,481.9117,339.8934,469.9134,339.6917,475.61,357.79" style="stroke:#F5BDE6;stroke-width:1;"/><text fill="#CAD3F5" font-family="Helvetica" font-size="12" lengthAdjust="spacing" textLength="67.0445" x="477.48" y="318.5481">implements</text></g><!--link IdentityMonad to MonadBase--><g class="link" data-entity-1="IdentityMonad" data-entity-2="MonadBase" data-source-line="40" data-uid="lnk17" id="link_IdentityMonad_MonadBase"><path codeLine="40" d="M390.51,33.47 C369.64,39.96 349.03,50.78 336.36,68.79 C326.61,82.65 324.7237,85.5018 328.7337,99.2318" fill="none" id="IdentityMonad-to-MonadBase" style="stroke:#F5BDE6;stroke-width:1;stroke-dasharray:7,7;"/><polygon fill="none" points="333.78,116.51,334.4931,97.5497,322.9743,100.9139,333.78,116.51" style="stroke:#F5BDE6;stroke-width:1;"/><text fill="#CAD3F5" font-family="Helvetica" font-size="12" lengthAdjust="spacing" textLength="97.9807" x="337.36" y="82.6181">&lt;IdKind.Witness&gt;</text></g><!--link IdentityMonad to IdKindHelper--><g class="link" data-entity-1="IdentityMonad" data-entity-2="IdKindHelper" data-source-line="43" data-uid="lnk18" id="link_IdentityMonad_IdKindHelper"><path codeLine="43" d="M479.29,39.11 C503.49,59.65 541.795,92.1681 565.955,112.6681" fill="none" id="IdentityMonad-to-IdKindHelper" style="stroke:#F5BDE6;stroke-width:1;stroke-dasharray:7,7;"/><polygon fill="#F5BDE6" points="570.53,116.55,566.2555,107.6771,566.7175,113.3151,561.0795,113.7771,570.53,116.55" style="stroke:#F5BDE6;stroke-width:1;"/><text fill="#CAD3F5" font-family="Helvetica" font-size="12" lengthAdjust="spacing" textLength="69.5525" x="533.46" y="82.6181">uses narrow</text></g><!--link IdentityMonad to Id--><g class="link" data-entity-1="IdentityMonad" data-entity-2="Id" data-source-line="44" data-uid="lnk19" id="link_IdentityMonad_Id"><path codeLine="44" d="M462.44,39.06 C465.18,77.71 472.0056,174.165 475.2856,220.415" fill="none" id="IdentityMonad-to-Id" style="stroke:#F5BDE6;stroke-width:1;stroke-dasharray:7,7;"/><polygon fill="#F5BDE6" points="475.71,226.4,479.0633,217.1396,475.3563,221.4125,471.0833,217.7055,475.71,226.4" style="stroke:#F5BDE6;stroke-width:1;"/><text fill="#CAD3F5" font-family="Helvetica" font-size="12" lengthAdjust="spacing" textLength="25.6802" x="471.16" y="137.5181">uses</text></g><!--link IdKindHelper to Id--><g class="link" data-entity-1="IdKindHelper" data-entity-2="Id" data-source-line="46" data-uid="lnk20" id="link_IdKindHelper_Id"><path codeLine="46" d="M573.85,148.85 C554.93,168.62 525.7887,199.0555 503.6887,222.1455" fill="none" id="IdKindHelper-to-Id" style="stroke:#F5BDE6;stroke-width:1;stroke-dasharray:7,7;"/><polygon fill="#F5BDE6" points="499.54,226.48,508.6527,222.744,502.9972,222.8679,502.8734,217.2124,499.54,226.48" style="stroke:#F5BDE6;stroke-width:1;"/><text fill="#CAD3F5" font-family="Helvetica" font-size="12" lengthAdjust="spacing" textLength="114.3488" x="543.8" y="192.4081">uses widen / narrow</text></g><!--SRC=[RLDDRzim3BthLt2zT0LY-nuO1b8CGOAYEnGTTjb5bTbQW4m9ahpCwFRVHyjEOhlrIIGV7ny__4MJCbsDqCJemhOel3pbRpestKiNq2jB4IdcohO5AHkYpBGgb8pETKffobgfLADbj9apacBNcYmss6BHIar5UkQElKA8HdCPR5tieSNs1NqGWcn4kDa3_k4oTO2VEXA6iFCwzkLpxp2zyXyaVL_zebVhGHe3aIEWZ0m1mmt800dsdSc4qApOlqh5l0-QwdA_WLsLG8C9x__cY7r7AbfVFew8oRoN0LV0dND6Sz_wDvx1CzSd2O-MP7s69kCC4XUnaET9b5YeFjP9zoHwj8wNyBjWXjJwWBoYe2pXwzF6Ubv7VGTFgAoleQfM2GFP0Or3FsCV7OdXi7dpsD-j4eyr7m6BJdsCWLl8iepB61w0fT1e5mRF43WyFCDLy46Zbwog5zSfPDdVQZq_iPvd0iqs8kRRIS5nThTJ5-1avA8arYExO64BvHZCfqCRReFnl0Y6hFEse5jd-88fygcAvH1InhMZ3ypL8EmREZvh9AKnVCYlbjFV0lzm0VZIlJrz2fuWGYpo5Z4uyKz6K9nfXky_]--></g></svg>