<svg xmlns="http://www.w3.org/2000/svg" xmlns:xlink="http://www.w3.org/1999/xlink" contentStyleType="text/css" data-diagram-type="CLASS" height="474px" preserveAspectRatio="none" style="width:589px;height:474px;background:#24273A;" version="1.1" viewBox="0 0 589 474" width="589px" zoomAndPan="magnify"><defs/><g><rect fill="#24273A" height="474" style="stroke:none;stroke-width:1;" width="589" x="0" y="0"/><!--class Kind--><g class="entity" data-entity="Kind" data-source-line="4" data-uid="ent0002" id="entity_Kind"><rect fill="#24273A" height="48.1362" rx="1.5" ry="1.5" style="stroke:#C6A0F6;stroke-width:2;" width="249.9255" x="7" y="10.016"/><rect fill="#363A4F" height="48.1362" rx="1.5" ry="1.5" style="stroke:#363A4F;stroke-width:2;" width="249.9255" x="7" y="10.016"/><rect fill="#363A4F" height="1.5" style="stroke:#363A4F;stroke-width:2;" width="249.9255" x="7" y="56.6522"/><rect fill="none" height="48.1362" rx="1.5" ry="1.5" style="stroke:#C6A0F6;stroke-width:2;" width="249.9255" x="7" y="10.016"/><ellipse cx="21" cy="34.0841" fill="#B4A7E5" rx="10" ry="10" style="stroke:#181818;stroke-width:1;"/><path d="M18.5781,38.5841 L18.5781,37.381 L20.25,37.1935 L20.25,31.4122 L18.5781,31.2091 L18.5781,30.0216 L23.625,30.0216 L23.625,31.2091 L21.9219,31.4122 L21.9219,37.1935 L23.625,37.381 L23.625,38.5841 L18.5781,38.5841 Z " fill="#CAD3F5"/><text fill="#CAD3F5" font-family="Helvetica" font-size="12" font-style="italic" lengthAdjust="spacing" textLength="70.4405" x="32" y="27.8441">&#171;HKT Bridge&#187;</text><text fill="#A6DA95" font-family="Helvetica" font-size="16" font-style="italic" lengthAdjust="spacing" textLength="31.6481" x="51.3962" y="48.4642">Kind</text><rect fill="#24273A" height="18.3441" style="stroke:#C6A0F6;stroke-width:1;stroke-dasharray:2,2;" width="151.485" x="108.4405" y="7.016"/><text fill="#CAD3F5" font-family="Helvetica" font-size="12" font-style="italic" lengthAdjust="spacing" textLength="149.485" x="109.4405" y="20.8441">F extends WitnessArity&lt;?&gt;, A</text></g><g class="entity" data-entity="WitnessNote" data-source-line="6" data-uid="ent0003" id="entity_WitnessNote"><path d="M292.22,14.236 L292.22,53.9243 A1.5,1.5 0 0 0 293.72,55.4243 L486.2132,55.4243 A1.5,1.5 0 0 0 487.7132,53.9243 L487.7132,22.736 L477.7132,12.736 L293.72,12.736 A1.5,1.5 0 0 0 292.22,14.236" fill="#EED49F" style="stroke:#24273A;stroke-width:0.5;"/><path d="M477.7132,12.736 L477.7132,21.986 A0.75,0.75 0 0 0 478.4632,22.736 L487.7132,22.736 L477.7132,12.736" fill="#EED49F" style="stroke:#24273A;stroke-width:1;"/><text fill="#24273A" font-family="Helvetica" font-size="12" lengthAdjust="spacing" textLength="114.4328" x="298.22" y="30.5641">Witness implements</text><text fill="#24273A" font-family="Helvetica" font-size="12" lengthAdjust="spacing" textLength="174.4932" x="298.22" y="46.9082">WitnessArity&lt;TypeArity.Unary&gt;</text></g><!--class IOKind--><g class="entity" data-entity="IOKind" data-source-line="8" data-uid="ent0004" id="entity_IOKind"><rect fill="#24273A" height="31.792" rx="1.5" ry="1.5" style="stroke:#C6A0F6;stroke-width:2;" width="89.1122" x="87.41" y="155.836"/><rect fill="#363A4F" height="31.792" rx="1.5" ry="1.5" style="stroke:#363A4F;stroke-width:2;" width="89.1122" x="87.41" y="155.836"/><rect fill="#363A4F" height="1.5" style="stroke:#363A4F;stroke-width:2;" width="89.1122" x="87.41" y="186.1281"/><rect fill="none" height="31.792" rx="1.5" ry="1.5" style="stroke:#C6A0F6;stroke-width:2;" width="89.1122" x="87.41" y="155.836"/><ellipse cx="101.41" cy="171.732" fill="#B4A7E5" rx="10" ry="10" style="stroke:#181818;stroke-width:1;"/><path d="M98.9881,176.232 L98.9881,175.0289 L100.66,174.8414 L100.66,169.0602 L98.9881,168.857 L98.9881,167.6695 L104.035,167.6695 L104.035,168.857 L102.3319,169.0602 L102.3319,174.8414 L104.035,175.0289 L104.035,176.232 L98.9881,176.232 Z " fill="#CAD3F5"/><text fill="#A6DA95" font-family="Helvetica" font-size="16" font-style="italic" lengthAdjust="spacing" textLength="48.3681" x="114.41" y="177.9401">IOKind</text><rect fill="#24273A" height="18.3441" style="stroke:#C6A0F6;stroke-width:1;stroke-dasharray:2,2;" width="8.744" x="170.7781" y="152.836"/><text fill="#CAD3F5" font-family="Helvetica" font-size="12" font-style="italic" lengthAdjust="spacing" textLength="6.744" x="171.7781" y="166.6641">A</text></g><!--class IO--><g class="entity" data-entity="IO" data-source-line="12" data-uid="ent0006" id="entity_IO"><rect fill="#24273A" height="31.792" rx="1.5" ry="1.5" style="stroke:#C6A0F6;stroke-width:2;" width="57.4641" x="287.23" y="436.456"/><rect fill="#363A4F" height="31.792" rx="1.5" ry="1.5" style="stroke:#363A4F;stroke-width:2;" width="57.4641" x="287.23" y="436.456"/><rect fill="#363A4F" height="1.5" style="stroke:#363A4F;stroke-width:2;" width="57.4641" x="287.23" y="466.7481"/><rect fill="none" height="31.792" rx="1.5" ry="1.5" style="stroke:#C6A0F6;stroke-width:2;" width="57.4641" x="287.23" y="436.456"/><ellipse cx="301.23" cy="452.352" fill="#B4A7E5" rx="10" ry="10" style="stroke:#181818;stroke-width:1;"/><path d="M298.8081,456.852 L298.8081,455.6489 L300.48,455.4614 L300.48,449.6802 L298.8081,449.477 L298.8081,448.2895 L303.855,448.2895 L303.855,449.477 L302.1519,449.6802 L302.1519,455.4614 L303.855,455.6489 L303.855,456.852 L298.8081,456.852 Z " fill="#CAD3F5"/><text fill="#A6DA95" font-family="Helvetica" font-size="16" font-style="italic" lengthAdjust="spacing" textLength="16.72" x="314.23" y="458.5601">IO</text><rect fill="#24273A" height="18.3441" style="stroke:#C6A0F6;stroke-width:1;stroke-dasharray:2,2;" width="8.744" x="338.95" y="433.456"/><text fill="#CAD3F5" font-family="Helvetica" font-size="12" font-style="italic" lengthAdjust="spacing" textLength="6.744" x="339.95" y="447.2841">A</text></g><!--class IOKindHelper--><g class="entity" data-entity="IOKindHelper" data-source-line="17" data-uid="ent0007" id="entity_IOKindHelper"><rect fill="#24273A" height="105.1685" rx="1.5" ry="1.5" style="stroke:#C6A0F6;stroke-width:2;" width="371.2504" x="211.34" y="119.146"/><rect fill="#363A4F" height="31.792" rx="1.5" ry="1.5" style="stroke:#363A4F;stroke-width:2;" width="371.2504" x="211.34" y="119.146"/><rect fill="#363A4F" height="1.5" style="stroke:#363A4F;stroke-width:2;" width="371.2504" x="211.34" y="149.4381"/><rect fill="none" height="105.1685" rx="1.5" ry="1.5" style="stroke:#C6A0F6;stroke-width:2;" width="371.2504" x="211.34" y="119.146"/><ellipse cx="341.8851" cy="135.042" fill="#ADD1B2" rx="10" ry="10" style="stroke:#181818;stroke-width:1;"/><path d="M341.6038,139.667 Q340.3538,139.667 339.5569,139.1514 Q338.7601,138.6202 338.3694,137.667 Q337.9788,136.7139 337.9788,135.4327 Q337.9788,134.0108 338.4476,132.9952 Q338.9163,131.9639 339.8226,131.417 Q340.7288,130.8545 342.0413,130.8545 Q342.6663,130.8545 343.1351,130.9795 Q343.6194,131.1045 344.1038,131.3389 L343.5257,132.7764 Q343.0882,132.542 342.6976,132.4639 Q342.3226,132.3858 341.9788,132.3858 Q341.1507,132.3858 340.6507,132.7608 Q340.1663,133.1202 339.9476,133.792 Q339.7444,134.4639 339.7444,135.3702 Q339.7444,136.7764 340.2444,137.4639 Q340.7601,138.1358 341.8851,138.1358 Q342.3069,138.1358 342.7444,138.0264 Q343.1819,137.917 343.7757,137.6514 L343.7757,139.2139 Q343.2601,139.4483 342.6976,139.5577 Q342.1351,139.667 341.6038,139.667 Z " fill="#CAD3F5"/><text fill="#A6DA95" font-family="Helvetica" font-size="16" lengthAdjust="spacing" textLength="102.1602" x="360.8851" y="141.2501">IOKindHelper</text><line style="stroke:#C6A0F6;stroke-width:2;" x1="212.34" x2="581.5904" y1="150.9381" y2="150.9381"/><ellipse cx="222.34" cy="164.6101" fill="#84BE84" rx="3" ry="3" style="stroke:#038048;stroke-width:1;"/><text fill="#A6DA95" font-family="Helvetica" font-size="12" lengthAdjust="spacing" text-decoration="underline" textLength="278.978" x="230.34" y="167.7662">Kind&lt;IOKind.Witness, A&gt; widen(@NonNull IO&lt;A&gt;)</text><ellipse cx="222.34" cy="180.9542" fill="#84BE84" rx="3" ry="3" style="stroke:#038048;stroke-width:1;"/><text fill="#A6DA95" font-family="Helvetica" font-size="12" lengthAdjust="spacing" text-decoration="underline" textLength="346.2504" x="230.34" y="184.1103">@NonNull IO&lt;A&gt; narrow(@Nullable Kind&lt;IOKind.Witness, A&gt;)</text><ellipse cx="222.34" cy="197.2984" fill="#84BE84" rx="3" ry="3" style="stroke:#038048;stroke-width:1;"/><text fill="#A6DA95" font-family="Helvetica" font-size="12" lengthAdjust="spacing" text-decoration="underline" textLength="247.7897" x="230.34" y="200.4544">Kind&lt;IOKind.Witness, A&gt; delay(Supplier&lt;A&gt;)</text><ellipse cx="222.34" cy="213.6425" fill="#84BE84" rx="3" ry="3" style="stroke:#038048;stroke-width:1;"/><text fill="#A6DA95" font-family="Helvetica" font-size="12" lengthAdjust="spacing" text-decoration="underline" textLength="215.1255" x="230.34" y="216.7985">A unsafeRunSync(Kind&lt;IOKind&lt;?&gt;, A&gt;)</text></g><!--class IOHolder--><g class="entity" data-entity="IOHolder" data-source-line="25" data-uid="ent0008" id="entity_IOHolder"><rect fill="#24273A" height="56.1362" rx="1.5" ry="1.5" style="stroke:#C6A0F6;stroke-width:2;" width="181.9851" x="144.97" y="302.316"/><rect fill="#363A4F" height="31.792" rx="1.5" ry="1.5" style="stroke:#363A4F;stroke-width:2;" width="181.9851" x="144.97" y="302.316"/><rect fill="#363A4F" height="1.5" style="stroke:#363A4F;stroke-width:2;" width="181.9851" x="144.97" y="332.6081"/><rect fill="none" height="56.1362" rx="1.5" ry="1.5" style="stroke:#C6A0F6;stroke-width:2;" width="181.9851" x="144.97" y="302.316"/><ellipse cx="192.0625" cy="318.212" fill="#ADD1B2" rx="10" ry="10" style="stroke:#181818;stroke-width:1;"/><path d="M191.7812,322.837 Q190.5312,322.837 189.7343,322.3214 Q188.9375,321.7902 188.5468,320.837 Q188.1562,319.8839 188.1562,318.6027 Q188.1562,317.1808 188.625,316.1652 Q189.0937,315.1339 190,314.587 Q190.9062,314.0245 192.2187,314.0245 Q192.8437,314.0245 193.3125,314.1495 Q193.7968,314.2745 194.2812,314.5089 L193.7031,315.9464 Q193.2656,315.712 192.875,315.6339 Q192.5,315.5558 192.1562,315.5558 Q191.3281,315.5558 190.8281,315.9308 Q190.3437,316.2902 190.125,316.962 Q189.9218,317.6339 189.9218,318.5402 Q189.9218,319.9464 190.4218,320.6339 Q190.9375,321.3058 192.0625,321.3058 Q192.4843,321.3058 192.9218,321.1964 Q193.3593,321.087 193.9531,320.8214 L193.9531,322.3839 Q193.4375,322.6183 192.875,322.7277 Q192.3125,322.837 191.7812,322.837 Z " fill="#CAD3F5"/><text fill="#A6DA95" font-family="Helvetica" font-size="16" lengthAdjust="spacing" textLength="69.0562" x="211.0625" y="324.4201">IOHolder</text><rect fill="#24273A" height="18.3441" style="stroke:#C6A0F6;stroke-width:1;stroke-dasharray:2,2;" width="8.744" x="321.2111" y="299.316"/><text fill="#CAD3F5" font-family="Helvetica" font-size="12" font-style="italic" lengthAdjust="spacing" textLength="6.744" x="322.2111" y="313.1441">A</text><line style="stroke:#C6A0F6;stroke-width:2;" x1="145.97" x2="325.9551" y1="334.1081" y2="334.1081"/><rect fill="none" height="6" style="stroke:#C82930;stroke-width:1;" width="6" x="152.97" y="344.7801"/><text fill="#A6DA95" font-family="Helvetica" font-size="12" lengthAdjust="spacing" textLength="156.9851" x="163.97" y="350.9362">@NonNull IO&lt;A&gt; ioInstance</text></g><!--reverse link Kind to IOKind--><g class="link" data-entity-1="Kind" data-entity-2="IOKind" data-uid="lnk5" id="link_Kind_IOKind"><path d="M131.96,76.396 C131.96,104.276 131.96,132.116 131.96,155.686" fill="none" id="Kind-backto-IOKind" style="stroke:#F5BDE6;stroke-width:1;"/><polygon fill="none" points="131.96,58.396,125.96,76.396,137.96,76.396,131.96,58.396" style="stroke:#F5BDE6;stroke-width:1;"/></g><!--reverse link IOKind to IOHolder--><g class="link" data-entity-1="IOKind" data-entity-2="IOHolder" data-source-line="26" data-uid="lnk9" id="link_IOKind_IOHolder"><path d="M152.0784,203.0304 C169.6184,229.4404 195.81,268.906 217.77,301.986" fill="none" id="IOKind-backto-IOHolder" style="stroke:#F5BDE6;stroke-width:1;stroke-dasharray:7,7;"/><polygon fill="none" points="142.12,188.036,147.0803,206.3498,157.0765,199.7109,142.12,188.036" style="stroke:#F5BDE6;stroke-width:1;"/></g><!--link IOKindHelper to IOHolder--><g class="link" data-entity-1="IOKindHelper" data-entity-2="IOHolder" data-source-line="29" data-uid="lnk10" id="link_IOKindHelper_IOHolder"><path codeLine="29" d="M343.8,224.466 C317.24,250.306 290.471,276.3526 268.521,297.7026" fill="none" id="IOKindHelper-to-IOHolder" style="stroke:#F5BDE6;stroke-width:1;stroke-dasharray:7,7;"/><polygon fill="#F5BDE6" points="264.22,301.886,273.4605,298.4782,267.8042,298.3998,267.8826,292.7435,264.22,301.886" style="stroke:#F5BDE6;stroke-width:1;"/><text fill="#CAD3F5" font-family="Helvetica" font-size="12" lengthAdjust="spacing" textLength="41.0643" x="312.64" y="268.1441">creates</text></g><!--link IOKindHelper to IO--><g class="link" data-entity-1="IOKindHelper" data-entity-2="IO" data-source-line="30" data-uid="lnk11" id="link_IOKindHelper_IO"><path codeLine="30" d="M382.43,224.426 C371.89,261.726 357.22,313.246 343.96,358.456 C335.9,385.936 327.9524,412.1376 322.3424,430.5076" fill="none" id="IOKindHelper-to-IO" style="stroke:#F5BDE6;stroke-width:1;stroke-dasharray:7,7;"/><polygon fill="#F5BDE6" points="320.59,436.246,327.0442,428.8068,322.0504,431.464,319.3931,426.4702,320.59,436.246" style="stroke:#F5BDE6;stroke-width:1;"/><text fill="#CAD3F5" font-family="Helvetica" font-size="12" lengthAdjust="spacing" textLength="142.4411" x="360.58" y="335.2141">narrows to / widens from</text></g><!--link IOHolder to IO--><g class="link" data-entity-1="IOHolder" data-entity-2="IO" data-source-line="31" data-uid="lnk12" id="link_IOHolder_IO"><path codeLine="31" d="M260.9764,368.8906 C276.9364,392.8306 289.4906,411.6545 302.4306,431.0545" fill="none" id="IOHolder-IO" style="stroke:#F5BDE6;stroke-width:1;"/><polygon fill="none" points="254.32,358.906,254.32,366.1171,260.9764,368.8906,260.9764,361.6795,254.32,358.906" style="stroke:#F5BDE6;stroke-width:1;"/><polygon fill="#F5BDE6" points="305.76,436.046,304.0936,426.3392,302.9855,431.8864,297.4382,430.7784,305.76,436.046" style="stroke:#F5BDE6;stroke-width:1;"/><text fill="#CAD3F5" font-family="Helvetica" font-size="12" lengthAdjust="spacing" textLength="30.9002" x="286.48" y="402.2841">holds</text></g><!--SRC=[ZLCzRzim4DtrAwvPug0LjGU2MdSeR0HmWIP5bouqTOu8a4U2FC4L0l_tNYJPjTEaw7OwlYyzIkyi6TUt21rppBTLbVHUFLhk-csVCPb0ZCJA15-H2PbrQKrbDCVO6sEfzDgOpceEPNIQkFUkv0uzLbvRgiPHHTaMdHKJz947yEYtc79HM15FEsqGxYorzHV0N-BMPlXXcJ3dPR8yr1-R3x1ieAvNTm_mETds4PkcA2WmmjMC1EkZ4o_Y_9Cks0z3n75ItqcdeRa2VTBVYCHvYlNNCOUO7OECpzDQpQGnp5C1S0r_cyC_lOl3fLjzKbeQxhMJ5QoFMffje6U608pJOZFbMA6Bc4OUm7juoiz8StWpwbwAfyMdJQ1DxzpaUlEIV7aCaZQ5lP1afRSEtnA_-TyGBJezBExx69t5z5g29VIKzGw_zNG_a5cSASrVm4Iv1gMKJ8VpNbR1jQFi-LNykSsfg_BbMzgm9h4dWqUzYuQLQaxIS0iceMRChwFaVEei0mUefj8px5Bm8s5M2MKvepjPo1_m6m00]--></g></svg>