<svg xmlns="http://www.w3.org/2000/svg" xmlns:xlink="http://www.w3.org/1999/xlink" contentStyleType="text/css" height="492px" preserveAspectRatio="none" style="width:649px;height:492px;background:#24273A;" version="1.1" viewBox="0 0 649 492" width="649px" zoomAndPan="magnify"><title>The guard interposes at the round boundary</title><defs/><g><rect fill="#24273A" height="492" style="stroke:none;stroke-width:1.0;" width="649" x="0" y="0"/><text fill="#CAD3F5" font-family="Helvetica" font-size="14" font-weight="bold" lengthAdjust="spacing" textLength="352.1191" x="150.0444" y="27.9951">The guard interposes at the round boundary</text><rect fill="#24273A" height="298.6563" rx="1.5" ry="1.5" style="stroke:#CAD3F5;stroke-width:1.5;" width="633.208" x="10" y="116.2344"/><rect fill="#24273A" height="199.75" rx="1.5" ry="1.5" style="stroke:#CAD3F5;stroke-width:1.5;" width="613.208" x="20" y="208.1406"/><path d="M20,308.0156 L633.208,308.0156 L633.208,406.3906 A1.5,1.5 0 0 1 631.708,407.8906 L21.5,407.8906 A1.5,1.5 0 0 1 20,406.3906 L20,308.0156 " fill="#24273A" style="stroke:none;stroke-width:1.0;"/><line style="stroke:#B7BDF8;stroke-width:0.5;stroke-dasharray:5.0,5.0;" x1="54" x2="54" y1="71.2656" y2="459.8594"/><line style="stroke:#B7BDF8;stroke-width:0.5;stroke-dasharray:5.0,5.0;" x1="310.1523" x2="310.1523" y1="71.2656" y2="459.8594"/><line style="stroke:#B7BDF8;stroke-width:0.5;stroke-dasharray:5.0,5.0;" x1="521.333" x2="521.333" y1="71.2656" y2="459.8594"/><line style="stroke:#B7BDF8;stroke-width:0.5;stroke-dasharray:5.0,5.0;" x1="590.1416" x2="590.1416" y1="71.2656" y2="459.8594"/><rect fill="#363A4F" height="27.9688" rx="1.5" ry="1.5" style="stroke:#B7BDF8;stroke-width:0.5;" width="48.7168" x="30" y="42.2969"/><text fill="#CAD3F5" font-family="Helvetica" font-size="12" lengthAdjust="spacing" textLength="34.7168" x="37" y="60.4355">Caller</text><rect fill="#363A4F" height="27.9688" rx="1.5" ry="1.5" style="stroke:#B7BDF8;stroke-width:0.5;" width="48.7168" x="30" y="458.8594"/><text fill="#CAD3F5" font-family="Helvetica" font-size="12" lengthAdjust="spacing" textLength="34.7168" x="37" y="476.998">Caller</text><rect fill="#363A4F" height="27.9688" rx="1.5" ry="1.5" style="stroke:#B7BDF8;stroke-width:0.5;" width="57.4707" x="282.1523" y="42.2969"/><text fill="#CAD3F5" font-family="Helvetica" font-size="12" lengthAdjust="spacing" textLength="43.4707" x="289.1523" y="60.4355">Runner</text><rect fill="#363A4F" height="27.9688" rx="1.5" ry="1.5" style="stroke:#B7BDF8;stroke-width:0.5;" width="57.4707" x="282.1523" y="458.8594"/><text fill="#CAD3F5" font-family="Helvetica" font-size="12" lengthAdjust="spacing" textLength="43.4707" x="289.1523" y="476.998">Runner</text><rect fill="#363A4F" height="27.9688" rx="1.5" ry="1.5" style="stroke:#B7BDF8;stroke-width:0.5;" width="50.8086" x="496.333" y="42.2969"/><text fill="#CAD3F5" font-family="Helvetica" font-size="12" lengthAdjust="spacing" textLength="36.8086" x="503.333" y="60.4355">Guard</text><rect fill="#363A4F" height="27.9688" rx="1.5" ry="1.5" style="stroke:#B7BDF8;stroke-width:0.5;" width="50.8086" x="496.333" y="458.8594"/><text fill="#CAD3F5" font-family="Helvetica" font-size="12" lengthAdjust="spacing" textLength="36.8086" x="503.333" y="476.998">Guard</text><rect fill="#363A4F" height="27.9688" rx="1.5" ry="1.5" style="stroke:#B7BDF8;stroke-width:0.5;" width="66.0664" x="557.1416" y="42.2969"/><text fill="#CAD3F5" font-family="Helvetica" font-size="12" lengthAdjust="spacing" textLength="52.0664" x="564.1416" y="60.4355">Resolver</text><rect fill="#363A4F" height="27.9688" rx="1.5" ry="1.5" style="stroke:#B7BDF8;stroke-width:0.5;" width="66.0664" x="557.1416" y="458.8594"/><text fill="#CAD3F5" font-family="Helvetica" font-size="12" lengthAdjust="spacing" textLength="52.0664" x="564.1416" y="476.998">Resolver</text><polygon fill="#F5BDE6" points="298.8877,97.2344,308.8877,101.2344,298.8877,105.2344,302.8877,101.2344" style="stroke:#F5BDE6;stroke-width:1.0;"/><line style="stroke:#F5BDE6;stroke-width:1.0;" x1="54.3584" x2="304.8877" y1="101.2344" y2="101.2344"/><text fill="#CAD3F5" font-family="Helvetica" font-size="12" lengthAdjust="spacing" textLength="224.9766" x="61.3584" y="96.4043">runCached(program, resolver, guard)</text><path d="M11.5,116.2344 L84.1914,116.2344 L84.1914,122.2031 L74.1914,132.2031 L10,132.2031 L10,117.7344 A1.5,1.5 0 0 1 11.5,116.2344 " fill="#363A4F" style="stroke:#CAD3F5;stroke-width:1.5;"/><rect fill="none" height="298.6563" rx="1.5" ry="1.5" style="stroke:#CAD3F5;stroke-width:1.5;" width="633.208" x="10" y="116.2344"/><text fill="#CAD3F5" font-family="Helvetica" font-size="12" font-weight="bold" lengthAdjust="spacing" textLength="29.1914" x="25" y="128.373">loop</text><text fill="#CAD3F5" font-family="Helvetica" font-size="12" font-weight="bold" lengthAdjust="spacing" textLength="77.6309" x="99.1914" y="129.373">[per round]</text><line style="stroke:#F5BDE6;stroke-width:1.0;" x1="310.8877" x2="352.8877" y1="152.1719" y2="152.1719"/><line style="stroke:#F5BDE6;stroke-width:1.0;" x1="352.8877" x2="352.8877" y1="152.1719" y2="165.1719"/><line style="stroke:#F5BDE6;stroke-width:1.0;" x1="311.8877" x2="352.8877" y1="165.1719" y2="165.1719"/><polygon fill="#F5BDE6" points="321.8877,161.1719,311.8877,165.1719,321.8877,169.1719,317.8877,165.1719" style="stroke:#F5BDE6;stroke-width:1.0;"/><text fill="#CAD3F5" font-family="Helvetica" font-size="12" lengthAdjust="spacing" textLength="158.707" x="317.8877" y="147.3418">compute uncached keyset</text><polygon fill="#F5BDE6" points="509.7373,189.1406,519.7373,193.1406,509.7373,197.1406,513.7373,193.1406" style="stroke:#F5BDE6;stroke-width:1.0;"/><line style="stroke:#F5BDE6;stroke-width:1.0;" x1="310.8877" x2="515.7373" y1="193.1406" y2="193.1406"/><text fill="#CAD3F5" font-family="Helvetica" font-size="12" lengthAdjust="spacing" textLength="148.1602" x="317.8877" y="188.3105">check(keys, roundIndex)</text><path d="M21.5,208.1406 L82.9473,208.1406 L82.9473,214.1094 L72.9473,224.1094 L20,224.1094 L20,209.6406 A1.5,1.5 0 0 1 21.5,208.1406 " fill="#363A4F" style="stroke:#CAD3F5;stroke-width:1.5;"/><rect fill="none" height="199.75" rx="1.5" ry="1.5" style="stroke:#CAD3F5;stroke-width:1.5;" width="613.208" x="20" y="208.1406"/><text fill="#CAD3F5" font-family="Helvetica" font-size="12" font-weight="bold" lengthAdjust="spacing" textLength="17.9473" x="35" y="220.2793">alt</text><text fill="#CAD3F5" font-family="Helvetica" font-size="12" font-weight="bold" lengthAdjust="spacing" textLength="140.7305" x="97.9473" y="221.2793">[keys within budget]</text><polygon fill="#F5BDE6" points="321.8877,240.0781,311.8877,244.0781,321.8877,248.0781,317.8877,244.0781" style="stroke:#F5BDE6;stroke-width:1.0;"/><line style="stroke:#F5BDE6;stroke-width:1.0;stroke-dasharray:2.0,2.0;" x1="315.8877" x2="520.7373" y1="244.0781" y2="244.0781"/><text fill="#CAD3F5" font-family="Helvetica" font-size="12" lengthAdjust="spacing" textLength="27.4746" x="327.8877" y="239.248">pass</text><polygon fill="#F5BDE6" points="578.1748,268.0469,588.1748,272.0469,578.1748,276.0469,582.1748,272.0469" style="stroke:#F5BDE6;stroke-width:1.0;"/><line style="stroke:#F5BDE6;stroke-width:1.0;" x1="310.8877" x2="584.1748" y1="272.0469" y2="272.0469"/><text fill="#CAD3F5" font-family="Helvetica" font-size="12" lengthAdjust="spacing" textLength="85.7109" x="317.8877" y="267.2168">resolver(keys)</text><polygon fill="#F5BDE6" points="321.8877,296.0156,311.8877,300.0156,321.8877,304.0156,317.8877,300.0156" style="stroke:#F5BDE6;stroke-width:1.0;"/><line style="stroke:#F5BDE6;stroke-width:1.0;stroke-dasharray:2.0,2.0;" x1="315.8877" x2="589.1748" y1="300.0156" y2="300.0156"/><text fill="#CAD3F5" font-family="Helvetica" font-size="12" lengthAdjust="spacing" textLength="39.0293" x="327.8877" y="295.1855">values</text><line style="stroke:#CAD3F5;stroke-width:1.0;stroke-dasharray:2.0,2.0;" x1="20" x2="633.208" y1="309.0156" y2="309.0156"/><text fill="#CAD3F5" font-family="Helvetica" font-size="12" font-weight="bold" lengthAdjust="spacing" textLength="127.9219" x="25" y="320.1543">[budget exceeded]</text><polygon fill="#F5BDE6" points="321.8877,339.9531,311.8877,343.9531,321.8877,347.9531,317.8877,343.9531" style="stroke:#F5BDE6;stroke-width:1.0;"/><line style="stroke:#F5BDE6;stroke-width:1.0;stroke-dasharray:2.0,2.0;" x1="315.8877" x2="520.7373" y1="343.9531" y2="343.9531"/><text fill="#CAD3F5" font-family="Helvetica" font-size="12" lengthAdjust="spacing" textLength="186.8496" x="327.8877" y="339.123">throw GuardViolationException</text><line style="stroke:#F5BDE6;stroke-width:2.0;" x1="572.1748" x2="582.1748" y1="366.9219" y2="376.9219"/><line style="stroke:#F5BDE6;stroke-width:2.0;" x1="572.1748" x2="582.1748" y1="376.9219" y2="366.9219"/><line style="stroke:#F5BDE6;stroke-width:1.0;" x1="310.8877" x2="577.1748" y1="371.9219" y2="371.9219"/><text fill="#CAD3F5" font-family="Helvetica" font-size="12" lengthAdjust="spacing" textLength="59.0859" x="317.8877" y="367.0918">not called</text><polygon fill="#F5BDE6" points="65.3584,395.8906,55.3584,399.8906,65.3584,403.8906,61.3584,399.8906" style="stroke:#F5BDE6;stroke-width:1.0;"/><line style="stroke:#F5BDE6;stroke-width:1.0;stroke-dasharray:2.0,2.0;" x1="59.3584" x2="309.8877" y1="399.8906" y2="399.8906"/><text fill="#CAD3F5" font-family="Helvetica" font-size="12" lengthAdjust="spacing" textLength="232.5293" x="71.3584" y="395.0605">exception (or Either.left via SafeFetch)</text><polygon fill="#F5BDE6" points="65.3584,437.8594,55.3584,441.8594,65.3584,445.8594,61.3584,441.8594" style="stroke:#F5BDE6;stroke-width:1.0;"/><line style="stroke:#F5BDE6;stroke-width:1.0;stroke-dasharray:2.0,2.0;" x1="59.3584" x2="309.8877" y1="441.8594" y2="441.8594"/><text fill="#CAD3F5" font-family="Helvetica" font-size="12" lengthAdjust="spacing" textLength="61.166" x="71.3584" y="437.0293">RunResult</text><!--SRC=[NL5DRoCX3BtpAxmz9L8cS-zX3ncrKQzfLVNg63UWCe309Es_Bv39hje32Fbz-67_iPvSqGn69ERxSKnusPwic78icHC5B-nbIs4UFOKiE5WQ2IN6GcJzC2EHiIXXY0wzbDaDOdZcSKRhn_xSnbfLIgmuXXV3S2gODDZgd6B8d045AXDIA5x3iTsOlfIAcCIIZTKNxYPqZjCTO8Rf9t8etY_8uIUoRuqwiFybuHpSUH7jb9fW-0i7k8TK_8HaMAzY2gU4ymRImjrSSw-L2o52v7JDgw0A5tMTKYp2K3nr4_ZWhynoe-mRnJ1zh5fzSzK_USsVwqf19vqFbpfzw-5OzAbheGg7fKF4d7kf6-vQuYLUzrntRFUFVaPNk0dOPLuSWJ-9MRF-PIqcXGlqaRtQu51iy0-L6jlZrlEjz_H1WDe-zArUFQOAy8qFgv3WeNw4qzRnky3P8ZpZEp-oa6ankOwkdV_YkiUwb-94VGC0]--></g></svg>