<svg xmlns="http://www.w3.org/2000/svg" xmlns:xlink="http://www.w3.org/1999/xlink" contentStyleType="text/css" height="698px" preserveAspectRatio="none" style="width:553px;height:698px;background:#24273A;" version="1.1" viewBox="0 0 553 698" width="553px" zoomAndPan="magnify"><title>The batching pipeline: optic + strategy + runner</title><defs/><g><rect fill="#24273A" height="698" style="stroke:none;stroke-width:1.0;" width="553" x="0" y="0"/><text fill="#CAD3F5" font-family="Helvetica" font-size="14" font-weight="bold" lengthAdjust="spacing" textLength="384.1455" x="77.4272" y="22.9951">The batching pipeline: optic + strategy + runner</text><!--cluster Shape--><g id="cluster_Shape"><path d="M178.5,43.2969 L223.5117,43.2969 A2.25,2.25 0 0 1 225.0117,44.7969 L232.0117,63.2656 L311.5,63.2656 A1.5,1.5 0 0 1 313,64.7656 L313,137.7969 A1.5,1.5 0 0 1 311.5,139.2969 L178.5,139.2969 A1.5,1.5 0 0 1 177,137.7969 L177,44.7969 A1.5,1.5 0 0 1 178.5,43.2969 " fill="#24273A" style="stroke:#CAD3F5;stroke-width:1.5;"/><line style="stroke:#CAD3F5;stroke-width:1.5;" x1="177" x2="232.0117" y1="63.2656" y2="63.2656"/><text fill="#CAD3F5" font-family="Helvetica" font-size="12" font-weight="bold" lengthAdjust="spacing" textLength="42.0117" x="181" y="56.4355">Shape</text></g><!--cluster Strategy--><g id="cluster_Strategy"><path d="M170.5,186.2969 L232.1816,186.2969 A2.25,2.25 0 0 1 233.6816,187.7969 L240.6816,206.2656 L544.5,206.2656 A1.5,1.5 0 0 1 546,207.7656 L546,284.7969 A1.5,1.5 0 0 1 544.5,286.2969 L170.5,286.2969 A1.5,1.5 0 0 1 169,284.7969 L169,187.7969 A1.5,1.5 0 0 1 170.5,186.2969 " fill="#24273A" style="stroke:#CAD3F5;stroke-width:1.5;"/><line style="stroke:#CAD3F5;stroke-width:1.5;" x1="169" x2="240.6816" y1="206.2656" y2="206.2656"/><text fill="#CAD3F5" font-family="Helvetica" font-size="12" font-weight="bold" lengthAdjust="spacing" textLength="58.6816" x="173" y="199.4355">Strategy</text></g><!--cluster Program--><g id="cluster_Program"><path d="M173.5,333.2969 L234.5664,333.2969 A2.25,2.25 0 0 1 236.0664,334.7969 L243.0664,353.2656 L508.5,353.2656 A1.5,1.5 0 0 1 510,354.7656 L510,417.7969 A1.5,1.5 0 0 1 508.5,419.2969 L173.5,419.2969 A1.5,1.5 0 0 1 172,417.7969 L172,334.7969 A1.5,1.5 0 0 1 173.5,333.2969 " fill="#24273A" style="stroke:#CAD3F5;stroke-width:1.5;"/><line style="stroke:#CAD3F5;stroke-width:1.5;" x1="172" x2="243.0664" y1="353.2656" y2="353.2656"/><text fill="#CAD3F5" font-family="Helvetica" font-size="12" font-weight="bold" lengthAdjust="spacing" textLength="58.0664" x="176" y="346.4355">Program</text></g><!--cluster Runners--><g id="cluster_Runners"><path d="M16.5,466.2969 L75.5684,466.2969 A2.25,2.25 0 0 1 77.0684,467.7969 L84.0684,486.2656 L499.5,486.2656 A1.5,1.5 0 0 1 501,487.7656 L501,546.7969 A1.5,1.5 0 0 1 499.5,548.2969 L16.5,548.2969 A1.5,1.5 0 0 1 15,546.7969 L15,467.7969 A1.5,1.5 0 0 1 16.5,466.2969 " fill="#24273A" style="stroke:#CAD3F5;stroke-width:1.5;"/><line style="stroke:#CAD3F5;stroke-width:1.5;" x1="15" x2="84.0684" y1="486.2656" y2="486.2656"/><text fill="#CAD3F5" font-family="Helvetica" font-size="12" font-weight="bold" lengthAdjust="spacing" textLength="56.0684" x="19" y="479.4355">Runners</text></g><!--cluster Backends--><g id="cluster_Backends"><path d="M7.5,609.2969 L75.252,609.2969 A2.25,2.25 0 0 1 76.752,610.7969 L83.752,629.2656 L505.5,629.2656 A1.5,1.5 0 0 1 507,630.7656 L507,689.7969 A1.5,1.5 0 0 1 505.5,691.2969 L7.5,691.2969 A1.5,1.5 0 0 1 6,689.7969 L6,610.7969 A1.5,1.5 0 0 1 7.5,609.2969 " fill="#24273A" style="stroke:#CAD3F5;stroke-width:1.5;"/><line style="stroke:#CAD3F5;stroke-width:1.5;" x1="6" x2="83.752" y1="629.2656" y2="629.2656"/><text fill="#CAD3F5" font-family="Helvetica" font-size="12" font-weight="bold" lengthAdjust="spacing" textLength="64.752" x="10" y="622.4355">Backends</text></g><!--entity OP--><g id="elem_OP"><rect fill="#363A4F" height="47.9375" rx="1.5" ry="1.5" style="stroke:#B7BDF8;stroke-width:0.5;" width="103.0273" x="193.5" y="75.2969"/><text fill="#CAD3F5" font-family="Helvetica" font-size="12" lengthAdjust="spacing" textLength="55.9746" x="203.5" y="96.4355">Traversal</text><text fill="#CAD3F5" font-family="Helvetica" font-size="12" lengthAdjust="spacing" textLength="83.0273" x="203.5" y="110.4043">(or any Optic)</text></g><!--entity FA--><g id="elem_FA"><rect fill="#363A4F" height="33.9688" rx="1.5" ry="1.5" style="stroke:#B7BDF8;stroke-width:0.5;" width="119.7793" x="185" y="227.2969"/><text fill="#CAD3F5" font-family="Helvetica" font-size="12" lengthAdjust="spacing" textLength="99.7793" x="195" y="248.4355">FetchApplicative</text></g><g id="elem_GMN6"><path d="M340,219.7969 L340,240.2969 L305.12,244.2969 L340,248.2969 L340,268.7031 A1.5,1.5 0 0 0 341.5,270.2031 L528.8359,270.2031 A1.5,1.5 0 0 0 530.3359,268.7031 L530.3359,228.2969 L520.3359,218.2969 L341.5,218.2969 A1.5,1.5 0 0 0 340,219.7969 " fill="#EED49F" style="stroke:#24273A;stroke-width:0.5;"/><path d="M520.3359,218.2969 L520.3359,227.5469 A0.75,0.75 0 0 0 521.0859,228.2969 L530.3359,228.2969 L520.3359,218.2969 " fill="#EED49F" style="stroke:#24273A;stroke-width:0.5;"/><text fill="#24273A" font-family="Helvetica" font-size="12" lengthAdjust="spacing" textLength="143.9941" x="346" y="234.4355">ap() unions the pending</text><text fill="#24273A" font-family="Helvetica" font-size="12" lengthAdjust="spacing" textLength="169.3359" x="346" y="248.4043">request sets of independent</text><text fill="#24273A" font-family="Helvetica" font-size="12" lengthAdjust="spacing" textLength="160.8223" x="346" y="262.373">arguments into one round.</text></g><!--entity F--><g id="elem_F"><rect fill="#363A4F" height="33.9688" rx="1.5" ry="1.5" style="stroke:#B7BDF8;stroke-width:0.5;" width="112.8477" x="188.5" y="367.2969"/><text fill="#CAD3F5" font-family="Helvetica" font-size="12" lengthAdjust="spacing" textLength="92.8477" x="198.5" y="388.4355">Fetch&lt;K, V, A&gt;</text></g><g id="elem_GMN11"><path d="M336.5,366.7969 L336.5,380.2969 L301.78,384.2969 L336.5,388.2969 L336.5,401.7344 A1.5,1.5 0 0 0 338,403.2344 L492.0313,403.2344 A1.5,1.5 0 0 0 493.5313,401.7344 L493.5313,375.2969 L483.5313,365.2969 L338,365.2969 A1.5,1.5 0 0 0 336.5,366.7969 " fill="#EED49F" style="stroke:#24273A;stroke-width:0.5;"/><path d="M483.5313,365.2969 L483.5313,374.5469 A0.75,0.75 0 0 0 484.2813,375.2969 L493.5313,375.2969 L483.5313,365.2969 " fill="#EED49F" style="stroke:#24273A;stroke-width:0.5;"/><text fill="#24273A" font-family="Helvetica" font-size="12" lengthAdjust="spacing" textLength="135.4219" x="342.5" y="381.4355">A value, not an action.</text><text fill="#24273A" font-family="Helvetica" font-size="12" lengthAdjust="spacing" textLength="136.0313" x="342.5" y="395.4043">Inspect, cache, replay.</text></g><!--entity RC--><g id="elem_RC"><rect fill="#363A4F" height="33.9688" rx="1.5" ry="1.5" style="stroke:#B7BDF8;stroke-width:0.5;" width="122.0879" x="31" y="498.2969"/><text fill="#CAD3F5" font-family="Helvetica" font-size="12" lengthAdjust="spacing" textLength="102.0879" x="41" y="519.4355">Fetch.runCached</text></g><!--entity RA--><g id="elem_RA"><rect fill="#363A4F" height="33.9688" rx="1.5" ry="1.5" style="stroke:#B7BDF8;stroke-width:0.5;" width="112.918" x="188.5" y="498.2969"/><text fill="#CAD3F5" font-family="Helvetica" font-size="12" lengthAdjust="spacing" textLength="92.918" x="198.5" y="519.4355">Fetch.runAsync</text></g><!--entity SC--><g id="elem_SC"><rect fill="#363A4F" height="33.9688" rx="1.5" ry="1.5" style="stroke:#B7BDF8;stroke-width:0.5;" width="148.666" x="336.5" y="498.2969"/><text fill="#CAD3F5" font-family="Helvetica" font-size="12" lengthAdjust="spacing" textLength="128.666" x="346.5" y="519.4355">SafeFetch.runCached</text></g><!--entity BL--><g id="elem_BL"><rect fill="#363A4F" height="33.9688" rx="1.5" ry="1.5" style="stroke:#B7BDF8;stroke-width:0.5;" width="95.8086" x="22" y="641.2969"/><text fill="#CAD3F5" font-family="Helvetica" font-size="12" lengthAdjust="spacing" textLength="75.8086" x="32" y="662.4355">BatchLoader</text></g><!--entity SR--><g id="elem_SR"><rect fill="#363A4F" height="33.9688" rx="1.5" ry="1.5" style="stroke:#B7BDF8;stroke-width:0.5;" width="145.1855" x="153.5" y="641.2969"/><text fill="#CAD3F5" font-family="Helvetica" font-size="12" lengthAdjust="spacing" textLength="125.1855" x="163.5" y="662.4355">SourceRouter.routed</text></g><!--entity BC--><g id="elem_BC"><rect fill="#363A4F" height="33.9688" rx="1.5" ry="1.5" style="stroke:#B7BDF8;stroke-width:0.5;" width="157.2383" x="333.5" y="641.2969"/><text fill="#CAD3F5" font-family="Helvetica" font-size="12" lengthAdjust="spacing" textLength="137.2383" x="343.5" y="662.4355">BatchLoaders.chunked</text></g><!--link OP to FA--><g id="link_OP_FA"><path d="M245,123.5869 C245,152.7169 245,195.8169 245,221.1269 " fill="none" id="OP-to-FA" style="stroke:#F5BDE6;stroke-width:1.0;"/><polygon fill="#F5BDE6" points="245,227.1269,249,218.1269,245,222.1269,241,218.1269,245,227.1269" style="stroke:#F5BDE6;stroke-width:1.0;"/><text fill="#CAD3F5" font-family="Helvetica" font-size="12" lengthAdjust="spacing" textLength="149.0391" x="246" y="167.4355">modifyF(f, s, applicative)</text></g><!--link FA to F--><g id="link_FA_F"><path d="M245,261.3969 C245,287.8469 245,334.2069 245,360.8669 " fill="none" id="FA-to-F" style="stroke:#F5BDE6;stroke-width:1.0;"/><polygon fill="#F5BDE6" points="245,366.8669,249,357.8669,245,361.8669,241,357.8669,245,366.8669" style="stroke:#F5BDE6;stroke-width:1.0;"/><text fill="#CAD3F5" font-family="Helvetica" font-size="12" lengthAdjust="spacing" textLength="55.3477" x="246" y="314.4355">produces</text></g><!--link F to RC--><g id="link_F_RC"><path d="M225.93,401.3769 C196.61,426.0969 145.357,469.3092 115.897,494.1492 " fill="none" id="F-to-RC" style="stroke:#F5BDE6;stroke-width:1.0;"/><polygon fill="#F5BDE6" points="111.31,498.0169,120.769,495.2734,115.1325,494.7938,115.6121,489.1573,111.31,498.0169" style="stroke:#F5BDE6;stroke-width:1.0;"/><text fill="#CAD3F5" font-family="Helvetica" font-size="12" lengthAdjust="spacing" textLength="27.5566" x="183" y="447.4355">sync</text></g><!--link F to RA--><g id="link_F_RA"><path d="M245,401.3769 C245,426.0969 245,467.1769 245,492.0169 " fill="none" id="F-to-RA" style="stroke:#F5BDE6;stroke-width:1.0;"/><polygon fill="#F5BDE6" points="245,498.0169,249,489.0169,245,493.0169,241,489.0169,245,498.0169" style="stroke:#F5BDE6;stroke-width:1.0;"/><text fill="#CAD3F5" font-family="Helvetica" font-size="12" lengthAdjust="spacing" textLength="34.9102" x="246" y="447.4355">async</text></g><!--link F to SC--><g id="link_F_SC"><path d="M265.69,401.3769 C297.59,426.1569 353.6822,469.7554 385.5722,494.5354 " fill="none" id="F-to-SC" style="stroke:#F5BDE6;stroke-width:1.0;"/><polygon fill="#F5BDE6" points="390.31,498.2169,385.6576,489.5361,386.3618,495.149,380.749,495.8532,390.31,498.2169" style="stroke:#F5BDE6;stroke-width:1.0;"/><text fill="#CAD3F5" font-family="Helvetica" font-size="12" lengthAdjust="spacing" textLength="91.9453" x="329" y="447.4355">railway (Either)</text></g><!--link RC to BL--><g id="link_RC_BL"><path d="M68.61,532.4469 C58.73,540.7069 48.31,551.6669 43,564.2969 C32.06,590.3369 43.95,617.1403 55.59,636.0103 " fill="none" id="RC-to-BL" style="stroke:#F5BDE6;stroke-width:1.0;"/><polygon fill="#F5BDE6" points="58.74,641.1169,57.4194,631.357,56.115,636.8614,50.6106,635.557,58.74,641.1169" style="stroke:#F5BDE6;stroke-width:1.0;"/><text fill="#CAD3F5" font-family="Helvetica" font-size="12" lengthAdjust="spacing" textLength="62.666" x="72.8223" y="576.4355">per round,</text><text fill="#CAD3F5" font-family="Helvetica" font-size="12" lengthAdjust="spacing" textLength="120.3105" x="44" y="590.4043">one keyset, one call</text></g><!--link RA to BL--><g id="link_RA_BL"><path d="M233.49,532.4669 C220.04,550.1269 196.14,577.9469 169,593.2969 C155.87,600.7269 149.45,594.4569 136,601.2969 C116.18,611.3869 101.4304,624.2523 88.9604,636.9123 " fill="none" id="RA-to-BL" style="stroke:#F5BDE6;stroke-width:1.0;"/><polygon fill="#F5BDE6" points="84.75,641.1869,93.9154,637.5819,88.2587,637.6247,88.2159,631.968,84.75,641.1869" style="stroke:#F5BDE6;stroke-width:1.0;"/></g><!--link RA to SR--><g id="link_RA_SR"><path d="M242.82,532.4669 C239.17,559.5269 232.6817,607.7107 229.0117,634.9307 " fill="none" id="RA-to-SR" style="stroke:#F5BDE6;stroke-width:1.0;"/><polygon fill="#F5BDE6" points="228.21,640.8769,233.3767,632.4921,228.8781,635.9217,225.4484,631.4231,228.21,640.8769" style="stroke:#F5BDE6;stroke-width:1.0;"/><text fill="#CAD3F5" font-family="Helvetica" font-size="12" lengthAdjust="spacing" textLength="110.3262" x="239" y="583.4355">fan out per source</text></g><!--link RA to BC--><g id="link_RA_BC"><path d="M270.5,532.4969 C284.38,540.6769 302.12,550.1569 319,556.2969 C335.63,562.3469 343.64,553.9669 358,564.2969 C384.52,583.3769 398.0993,614.1426 405.2493,635.3026 " fill="none" id="RA-to-BC" style="stroke:#F5BDE6;stroke-width:1.0;"/><polygon fill="#F5BDE6" points="407.17,640.9869,408.0784,631.18,405.5694,636.25,400.4994,633.741,407.17,640.9869" style="stroke:#F5BDE6;stroke-width:1.0;"/><text fill="#CAD3F5" font-family="Helvetica" font-size="12" lengthAdjust="spacing" textLength="103.5469" x="384" y="583.4355">cap dispatch size</text></g><!--SRC=[TLDDRzim3BthLt0z9PZZt8kXG18imB02BPnYbtO7LcPi8JQbwQE5D-o_ZrBI8bstaoK-FlAHJ_vWM0-f9UXZTE5okVJuN7Sczkan1VBQSYIEjRRZahKD4HT6BpL6vvBMXXSZQjqRZ7RX1kIOnc4HUnffEQBXPJdMJg9AHHC7WhkUu16ZSBW3PnmDXkaIh8j6mqS8qMEaRfAZJypabGe7mmuzZY0Yd6MHiukJbFAa8t8ta58EzG4xWejTZuuku9S2kB_p-4G-uF30C-i1UOARt6R-7J30pQtwVKuyDJvnjoGILyuDHcOrJrGesvL0RAEqDbqVmUwF8G1qipaaDfO3oCpWY5iPi62UVYGA4GB5a2c6Mygup77a-YwDSWc2H0io87YRkAq5bRJIy8tKMsyxMSUvqazVA_XMmUhggFEzpD9f1Kyu9AeoAEi0r54KrmNxmi79FYlGg7j9yIH-Jl_Lq1Hpmhc6MWpRP79RH3IRDyWgJAoFG5xP_Gxtz2_QRlEcpreE8k2bqJg_d6kBBVcIlRukjMpocXgR8ldQvy-fLlCN9zIwJtmumUlIwkOM5eihCH8kORIjsK_RsRw2K8cfh_RFbU0bJRASjstI5DIsX9gDnF9qB_TS2Sy2kvpWqGpFEC7ii_nRvETAQ1bSN-UAv8-ULm-S_J_G9A-bAcz1up2ePdLAVZdj6g7jnKEPjj13sS5hOcwfqK5hWilpGp0_IVq1]--></g></svg>