<svg xmlns="http://www.w3.org/2000/svg" xmlns:xlink="http://www.w3.org/1999/xlink" contentStyleType="text/css" height="605px" preserveAspectRatio="none" style="width:582px;height:605px;background:#24273A;" version="1.1" viewBox="0 0 582 605" width="582px" zoomAndPan="magnify"><title>Two ways to ask a program "what would you do?"</title><defs/><g><rect fill="#24273A" height="605" style="stroke:none;stroke-width:1.0;" width="582" x="0" y="0"/><text fill="#CAD3F5" font-family="Helvetica" font-size="14" font-weight="bold" lengthAdjust="spacing" textLength="393.5996" x="90.6929" y="27.9951">Two ways to ask a program "what would you do?"</text><line style="stroke:#B7BDF8;stroke-width:0.5;stroke-dasharray:5.0,5.0;" x1="29" x2="29" y1="71.2656" y2="572.7344"/><line style="stroke:#B7BDF8;stroke-width:0.5;stroke-dasharray:5.0,5.0;" x1="114.7168" x2="114.7168" y1="71.2656" y2="572.7344"/><line style="stroke:#B7BDF8;stroke-width:0.5;stroke-dasharray:5.0,5.0;" x1="354.7383" x2="354.7383" y1="71.2656" y2="572.7344"/><line style="stroke:#B7BDF8;stroke-width:0.5;stroke-dasharray:5.0,5.0;" x1="537.2471" x2="537.2471" y1="71.2656" y2="572.7344"/><rect fill="#363A4F" height="27.9688" rx="1.5" ry="1.5" style="stroke:#B7BDF8;stroke-width:0.5;" width="48.7168" x="5" y="42.2969"/><text fill="#CAD3F5" font-family="Helvetica" font-size="12" lengthAdjust="spacing" textLength="34.7168" x="12" y="60.4355">Caller</text><rect fill="#363A4F" height="27.9688" rx="1.5" ry="1.5" style="stroke:#B7BDF8;stroke-width:0.5;" width="48.7168" x="5" y="571.7344"/><text fill="#CAD3F5" font-family="Helvetica" font-size="12" lengthAdjust="spacing" textLength="34.7168" x="12" y="589.873">Caller</text><rect fill="#363A4F" height="27.9688" rx="1.5" ry="1.5" style="stroke:#B7BDF8;stroke-width:0.5;" width="102.4941" x="63.7168" y="42.2969"/><text fill="#CAD3F5" font-family="Helvetica" font-size="12" lengthAdjust="spacing" textLength="88.4941" x="70.7168" y="60.4355">Fetch program</text><rect fill="#363A4F" height="27.9688" rx="1.5" ry="1.5" style="stroke:#B7BDF8;stroke-width:0.5;" width="102.4941" x="63.7168" y="571.7344"/><text fill="#CAD3F5" font-family="Helvetica" font-size="12" lengthAdjust="spacing" textLength="88.4941" x="70.7168" y="589.873">Fetch program</text><rect fill="#363A4F" height="27.9688" rx="1.5" ry="1.5" style="stroke:#B7BDF8;stroke-width:0.5;" width="57.4707" x="326.7383" y="42.2969"/><text fill="#CAD3F5" font-family="Helvetica" font-size="12" lengthAdjust="spacing" textLength="43.4707" x="333.7383" y="60.4355">Runner</text><rect fill="#363A4F" height="27.9688" rx="1.5" ry="1.5" style="stroke:#B7BDF8;stroke-width:0.5;" width="57.4707" x="326.7383" y="571.7344"/><text fill="#CAD3F5" font-family="Helvetica" font-size="12" lengthAdjust="spacing" textLength="43.4707" x="333.7383" y="589.873">Runner</text><rect fill="#363A4F" height="27.9688" rx="1.5" ry="1.5" style="stroke:#B7BDF8;stroke-width:0.5;" width="65.7383" x="505.2471" y="42.2969"/><text fill="#CAD3F5" font-family="Helvetica" font-size="12" lengthAdjust="spacing" textLength="51.7383" x="512.2471" y="60.4355">Backend</text><rect fill="#363A4F" height="27.9688" rx="1.5" ry="1.5" style="stroke:#B7BDF8;stroke-width:0.5;" width="65.7383" x="505.2471" y="571.7344"/><text fill="#CAD3F5" font-family="Helvetica" font-size="12" lengthAdjust="spacing" textLength="51.7383" x="512.2471" y="589.873">Backend</text><rect fill="#363A4F" height="3" rx="1.5" ry="1.5" style="stroke:#363A4F;stroke-width:1.0;" width="575.9854" x="0" y="101.25"/><line style="stroke:#CAD3F5;stroke-width:1.0;" x1="0" x2="575.9854" y1="101.25" y2="101.25"/><line style="stroke:#CAD3F5;stroke-width:1.0;" x1="0" x2="575.9854" y1="104.25" y2="104.25"/><rect fill="#363A4F" height="21.9688" rx="1.5" ry="1.5" style="stroke:#CAD3F5;stroke-width:2.0;" width="250.0273" x="162.979" y="91.2656"/><text fill="#CAD3F5" font-family="Helvetica" font-size="12" font-weight="bold" lengthAdjust="spacing" textLength="231.8496" x="168.979" y="106.4043">Online: Fetch.runCached (real I/O)</text><polygon fill="#F5BDE6" points="343.4736,139.2031,353.4736,143.2031,343.4736,147.2031,347.4736,143.2031" style="stroke:#F5BDE6;stroke-width:1.0;"/><line style="stroke:#F5BDE6;stroke-width:1.0;" x1="29.3584" x2="349.4736" y1="143.2031" y2="143.2031"/><text fill="#CAD3F5" font-family="Helvetica" font-size="12" lengthAdjust="spacing" textLength="182.2207" x="36.3584" y="138.373">runCached(program, resolver)</text><polygon fill="#F5BDE6" points="125.9639,167.1719,115.9639,171.1719,125.9639,175.1719,121.9639,171.1719" style="stroke:#F5BDE6;stroke-width:1.0;"/><line style="stroke:#F5BDE6;stroke-width:1.0;" x1="119.9639" x2="354.4736" y1="171.1719" y2="171.1719"/><text fill="#CAD3F5" font-family="Helvetica" font-size="12" lengthAdjust="spacing" textLength="58.1426" x="131.9639" y="166.3418">pending()</text><polygon fill="#F5BDE6" points="343.4736,195.1406,353.4736,199.1406,343.4736,203.1406,347.4736,199.1406" style="stroke:#F5BDE6;stroke-width:1.0;"/><line style="stroke:#F5BDE6;stroke-width:1.0;stroke-dasharray:2.0,2.0;" x1="114.9639" x2="349.4736" y1="199.1406" y2="199.1406"/><text fill="#CAD3F5" font-family="Helvetica" font-size="12" lengthAdjust="spacing" textLength="100.1133" x="121.9639" y="194.3105">{ id_1, ..., id_N }</text><polygon fill="#F5BDE6" points="526.1162,223.1094,536.1162,227.1094,526.1162,231.1094,530.1162,227.1094" style="stroke:#F5BDE6;stroke-width:1.0;"/><line style="stroke:#F5BDE6;stroke-width:1.0;" x1="355.4736" x2="532.1162" y1="227.1094" y2="227.1094"/><text fill="#CAD3F5" font-family="Helvetica" font-size="12" lengthAdjust="spacing" textLength="158.1387" x="362.4736" y="222.2793">resolver({ id_1, ..., id_N })</text><polygon fill="#F5BDE6" points="366.4736,251.0781,356.4736,255.0781,366.4736,259.0781,362.4736,255.0781" style="stroke:#F5BDE6;stroke-width:1.0;"/><line style="stroke:#F5BDE6;stroke-width:1.0;stroke-dasharray:2.0,2.0;" x1="360.4736" x2="537.1162" y1="255.0781" y2="255.0781"/><text fill="#CAD3F5" font-family="Helvetica" font-size="12" lengthAdjust="spacing" textLength="158.6426" x="372.4736" y="250.248">{ id_1: v_1, ..., id_N: v_N }</text><polygon fill="#F5BDE6" points="40.3584,279.0469,30.3584,283.0469,40.3584,287.0469,36.3584,283.0469" style="stroke:#F5BDE6;stroke-width:1.0;"/><line style="stroke:#F5BDE6;stroke-width:1.0;stroke-dasharray:2.0,2.0;" x1="34.3584" x2="354.4736" y1="283.0469" y2="283.0469"/><text fill="#CAD3F5" font-family="Helvetica" font-size="12" lengthAdjust="spacing" textLength="302.1152" x="46.3584" y="278.2168">RunResult(value, rounds=1, fetchedBatches=[...])</text><rect fill="#363A4F" height="3" rx="1.5" ry="1.5" style="stroke:#363A4F;stroke-width:1.0;" width="575.9854" x="0" y="311.0313"/><line style="stroke:#CAD3F5;stroke-width:1.0;" x1="0" x2="575.9854" y1="311.0313" y2="311.0313"/><line style="stroke:#CAD3F5;stroke-width:1.0;" x1="0" x2="575.9854" y1="314.0313" y2="314.0313"/><rect fill="#363A4F" height="21.9688" rx="1.5" ry="1.5" style="stroke:#CAD3F5;stroke-width:2.0;" width="228.0781" x="173.9536" y="301.0469"/><text fill="#CAD3F5" font-family="Helvetica" font-size="12" font-weight="bold" lengthAdjust="spacing" textLength="209.9004" x="179.9536" y="316.1855">Offline: Plans.preflight (no I/O)</text><polygon fill="#F5BDE6" points="343.4736,348.9844,353.4736,352.9844,343.4736,356.9844,347.4736,352.9844" style="stroke:#F5BDE6;stroke-width:1.0;"/><line style="stroke:#F5BDE6;stroke-width:1.0;" x1="29.3584" x2="349.4736" y1="352.9844" y2="352.9844"/><text fill="#CAD3F5" font-family="Helvetica" font-size="12" lengthAdjust="spacing" textLength="111.6035" x="36.3584" y="348.1543">preflight(program)</text><polygon fill="#F5BDE6" points="125.9639,376.9531,115.9639,380.9531,125.9639,384.9531,121.9639,380.9531" style="stroke:#F5BDE6;stroke-width:1.0;"/><line style="stroke:#F5BDE6;stroke-width:1.0;" x1="119.9639" x2="354.4736" y1="380.9531" y2="380.9531"/><text fill="#CAD3F5" font-family="Helvetica" font-size="12" lengthAdjust="spacing" textLength="58.1426" x="131.9639" y="376.123">pending()</text><polygon fill="#F5BDE6" points="343.4736,404.9219,353.4736,408.9219,343.4736,412.9219,347.4736,408.9219" style="stroke:#F5BDE6;stroke-width:1.0;"/><line style="stroke:#F5BDE6;stroke-width:1.0;stroke-dasharray:2.0,2.0;" x1="114.9639" x2="349.4736" y1="408.9219" y2="408.9219"/><text fill="#CAD3F5" font-family="Helvetica" font-size="12" lengthAdjust="spacing" textLength="100.1133" x="121.9639" y="404.0918">{ id_1, ..., id_N }</text><path d="M360,423.4219 L360,471.4219 A1.5,1.5 0 0 0 361.5,472.9219 L522.5,472.9219 A1.5,1.5 0 0 0 524,471.4219 L524,431.9219 L514,421.9219 L361.5,421.9219 A1.5,1.5 0 0 0 360,423.4219 " fill="#EED49F" style="stroke:#24273A;stroke-width:0.5;"/><path d="M514,421.9219 L514,431.1719 A0.75,0.75 0 0 0 514.75,431.9219 L524,431.9219 L514,421.9219 " fill="#EED49F" style="stroke:#24273A;stroke-width:0.5;"/><text fill="#24273A" font-family="Helvetica" font-size="12" lengthAdjust="spacing" textLength="143.6777" x="366" y="438.0605">Resume with stub nulls.</text><text fill="#24273A" font-family="Helvetica" font-size="12" lengthAdjust="spacing" textLength="140.4902" x="366" y="452.0293">No backend, no values,</text><text fill="#24273A" font-family="Helvetica" font-size="12" lengthAdjust="spacing" textLength="91.7461" x="366" y="465.998">no side effects.</text><polygon fill="#F5BDE6" points="125.9639,494.7969,115.9639,498.7969,125.9639,502.7969,121.9639,498.7969" style="stroke:#F5BDE6;stroke-width:1.0;"/><line style="stroke:#F5BDE6;stroke-width:1.0;" x1="119.9639" x2="354.4736" y1="498.7969" y2="498.7969"/><text fill="#CAD3F5" font-family="Helvetica" font-size="12" lengthAdjust="spacing" textLength="111.2637" x="131.9639" y="493.9668">resume(stub map)</text><polygon fill="#F5BDE6" points="343.4736,522.7656,353.4736,526.7656,343.4736,530.7656,347.4736,526.7656" style="stroke:#F5BDE6;stroke-width:1.0;"/><line style="stroke:#F5BDE6;stroke-width:1.0;stroke-dasharray:2.0,2.0;" x1="114.9639" x2="349.4736" y1="526.7656" y2="526.7656"/><text fill="#CAD3F5" font-family="Helvetica" font-size="12" lengthAdjust="spacing" textLength="159.0352" x="121.9639" y="521.9355">Done (or another Blocked)</text><polygon fill="#F5BDE6" points="40.3584,550.7344,30.3584,554.7344,40.3584,558.7344,36.3584,554.7344" style="stroke:#F5BDE6;stroke-width:1.0;"/><line style="stroke:#F5BDE6;stroke-width:1.0;stroke-dasharray:2.0,2.0;" x1="34.3584" x2="354.4736" y1="554.7344" y2="554.7344"/><text fill="#CAD3F5" font-family="Helvetica" font-size="12" lengthAdjust="spacing" textLength="241.957" x="46.3584" y="549.9043">Plan(fetchedBatches=[...], truncated=?)</text><!--SRC=[dLDDYzmm3BtxLwXpIY0Vz3gGBYIbqClk47ehfNWSPMBMiOqjJrXA_tkLpEnsPxkddc9Rxpr9Jye7RPL90y94vEE-heDSgfEcAHrJnA2S9RHKAJVNLhb8ijIgLfAyJqffMyvIgKbBSgKtqbAQJKaJpbZFKjjwErQUNuKWJGRXs-9WaKyHo86CZo311tSASeRTCac2nIKpm9DBCBYxdH1U1j9AUzQ6NIUDmR1Z8dItaIz8QdgMsW27Mq2VhBrI-zj8AzKZsc4BjK8q3JnOeotkOHEjGhATL1CEa0MK1hxM3paqZUYW_0GzxE45a5tp5n0mEdF6a8j-HHqOvJc7jgSi5mSehynVe8UV7mkeggfOZ_Vm-q9eLzchHlOEAXVj6v4zd6ymw_qgnxYESUn0Zp4PoixI9EGYNR93R9WrhetYqChr4vllhF8ZlrWnZXSl3ZpTMFc0V3zD19br_phn4dvsuZ_wjuuGmfR3ZJmhWBNg6M7XfOH8wGWs6HChZjmxE5wcLm3Ni_KL2mxm9MfUQXn7LCHOXi2g_BUUiAbcc-0i_UkoFZkBaBa0aYaJ1cYDuon3_ihDrO_iFTyA85u8_aDmQEvoyGS0]--></g></svg>