<svg xmlns="http://www.w3.org/2000/svg" xmlns:xlink="http://www.w3.org/1999/xlink" contentStyleType="text/css" height="576px" preserveAspectRatio="none" style="width:1899px;height:576px;background:#24273A;" version="1.1" viewBox="0 0 1899 576" width="1899px" zoomAndPan="magnify"><defs/><g><rect fill="#24273A" height="576" style="stroke:none;stroke-width:1.0;" width="1899" x="0" y="0"/><!--class Kind--><g id="elem_Kind"><rect codeLine="8" fill="#24273A" height="30" id="Kind" rx="1.5" ry="1.5" style="stroke:#C6A0F6;stroke-width:2.0;" width="88.0254" x="169.65" y="235"/><rect fill="#363A4F" height="30" rx="1.5" ry="1.5" style="stroke:#363A4F;stroke-width:2.0;" width="88.0254" x="169.65" y="235"/><rect fill="#363A4F" height="1.5" style="stroke:#363A4F;stroke-width:2.0;" width="88.0254" x="169.65" y="263.5"/><rect codeLine="8" fill="none" height="30" id="Kind" rx="1.5" ry="1.5" style="stroke:#C6A0F6;stroke-width:2.0;" width="88.0254" x="169.65" y="235"/><ellipse cx="183.65" cy="250" fill="#B4A7E5" rx="10" ry="10" style="stroke:#181818;stroke-width:1.0;"/><path d="M180.6578,247.2754 L180.6578,245.752 L185.8668,245.752 L185.8668,247.2754 L184.1266,247.2754 L184.1266,252.9766 L185.8668,252.9766 L185.8668,254.5 L180.6578,254.5 L180.6578,252.9766 L182.398,252.9766 L182.398,247.2754 Z " fill="#CAD3F5"/><text fill="#A6DA95" font-family="Helvetica" font-size="16" font-style="italic" lengthAdjust="spacing" textLength="32.0234" x="196.65" y="254.3203">Kind</text><rect fill="#24273A" height="14" style="stroke:#C6A0F6;stroke-width:1.0;stroke-dasharray:2.0,2.0;" width="24.002" x="236.6734" y="232"/><text fill="#CAD3F5" font-family="Helvetica" font-size="12" font-style="italic" lengthAdjust="spacing" textLength="22.002" x="237.6734" y="242.2402">F, A</text></g><!--class Monad--><g id="elem_Monad"><rect codeLine="12" fill="#24273A" height="30" id="Monad" rx="1.5" ry="1.5" style="stroke:#C6A0F6;stroke-width:2.0;" width="90.252" x="1480.54" y="409"/><rect fill="#363A4F" height="30" rx="1.5" ry="1.5" style="stroke:#363A4F;stroke-width:2.0;" width="90.252" x="1480.54" y="409"/><rect fill="#363A4F" height="1.5" style="stroke:#363A4F;stroke-width:2.0;" width="90.252" x="1480.54" y="437.5"/><rect codeLine="12" fill="none" height="30" id="Monad" rx="1.5" ry="1.5" style="stroke:#C6A0F6;stroke-width:2.0;" width="90.252" x="1480.54" y="409"/><ellipse cx="1494.54" cy="424" fill="#B4A7E5" rx="10" ry="10" style="stroke:#181818;stroke-width:1.0;"/><path d="M1491.5478,421.2754 L1491.5478,419.752 L1496.7568,419.752 L1496.7568,421.2754 L1495.0166,421.2754 L1495.0166,426.9766 L1496.7568,426.9766 L1496.7568,428.5 L1491.5478,428.5 L1491.5478,426.9766 L1493.288,426.9766 L1493.288,421.2754 Z " fill="#CAD3F5"/><text fill="#A6DA95" font-family="Helvetica" font-size="16" font-style="italic" lengthAdjust="spacing" textLength="48.9219" x="1507.54" y="428.3203">Monad</text><rect fill="#24273A" height="14" style="stroke:#C6A0F6;stroke-width:1.0;stroke-dasharray:2.0,2.0;" width="9.3301" x="1564.4619" y="406"/><text fill="#CAD3F5" font-family="Helvetica" font-size="12" font-style="italic" lengthAdjust="spacing" textLength="7.3301" x="1565.4619" y="416.2402">F</text></g><!--class StateTuple--><g id="elem_StateTuple"><rect codeLine="18" fill="#24273A" height="82" id="StateTuple" rx="1.5" ry="1.5" style="stroke:#C6A0F6;stroke-width:2.0;" width="193.082" x="490.12" y="383"/><rect fill="#363A4F" height="30" rx="1.5" ry="1.5" style="stroke:#363A4F;stroke-width:2.0;" width="193.082" x="490.12" y="383"/><rect fill="#363A4F" height="1.5" style="stroke:#363A4F;stroke-width:2.0;" width="193.082" x="490.12" y="411.5"/><rect codeLine="18" fill="none" height="82" id="StateTuple" rx="1.5" ry="1.5" style="stroke:#C6A0F6;stroke-width:2.0;" width="193.082" x="490.12" y="383"/><ellipse cx="530.6805" cy="398" fill="#ADD1B2" rx="10" ry="10" style="stroke:#181818;stroke-width:1.0;"/><path d="M532.5145,402.248 Q532.1044,402.459 531.6532,402.5645 Q531.202,402.6699 530.704,402.6699 Q528.9345,402.6699 528.0028,401.5039 Q527.0712,400.3379 527.0712,398.1348 Q527.0712,395.9258 528.0028,394.7598 Q528.9345,393.5938 530.704,393.5938 Q531.202,393.5938 531.6591,393.6992 Q532.1161,393.8047 532.5145,394.0156 L532.5145,395.9375 Q532.0692,395.5273 531.6503,395.3369 Q531.2313,395.1465 530.786,395.1465 Q529.8368,395.1465 529.3534,395.8994 Q528.87,396.6523 528.87,398.1348 Q528.87,399.6113 529.3534,400.3643 Q529.8368,401.1172 530.786,401.1172 Q531.2313,401.1172 531.6503,400.9268 Q532.0692,400.7363 532.5145,400.3262 Z " fill="#CAD3F5"/><text fill="#A6DA95" font-family="Helvetica" font-size="16" lengthAdjust="spacing" textLength="77.3828" x="549.5829" y="402.3203">StateTuple</text><rect fill="#24273A" height="14" style="stroke:#C6A0F6;stroke-width:1.0;stroke-dasharray:2.0,2.0;" width="24.6758" x="661.5263" y="380"/><text fill="#CAD3F5" font-family="Helvetica" font-size="12" font-style="italic" lengthAdjust="spacing" textLength="22.6758" x="662.5263" y="390.2402">S, A</text><line style="stroke:#C6A0F6;stroke-width:2.0;" x1="491.12" x2="682.202" y1="413" y2="413"/><ellipse cx="501.12" cy="424.5" fill="none" rx="3" ry="3" style="stroke:#038048;stroke-width:1.0;"/><text fill="#A6DA95" font-family="Helvetica" font-size="12" lengthAdjust="spacing" textLength="37.3535" x="509.12" y="426.2402">S state</text><ellipse cx="501.12" cy="436.5" fill="none" rx="3" ry="3" style="stroke:#038048;stroke-width:1.0;"/><text fill="#A6DA95" font-family="Helvetica" font-size="12" lengthAdjust="spacing" textLength="40.0254" x="509.12" y="438.2402">A value</text><line style="stroke:#C6A0F6;stroke-width:2.0;" x1="491.12" x2="682.202" y1="445" y2="445"/><ellipse cx="501.12" cy="456.5" fill="#84BE84" rx="3" ry="3" style="stroke:#038048;stroke-width:1.0;"/><text fill="#A6DA95" font-family="Helvetica" font-size="12" lengthAdjust="spacing" text-decoration="underline" textLength="168.082" x="509.12" y="458.2402">of(s: S, a: A): StateTuple&lt;S, A&gt;</text></g><!--class StateT--><g id="elem_StateT"><rect codeLine="26" fill="#24273A" height="118" id="StateT" rx="1.5" ry="1.5" style="stroke:#C6A0F6;stroke-width:2.0;" width="703.9551" x="597.69" y="191"/><rect fill="#363A4F" height="30" rx="1.5" ry="1.5" style="stroke:#363A4F;stroke-width:2.0;" width="703.9551" x="597.69" y="191"/><rect fill="#363A4F" height="1.5" style="stroke:#363A4F;stroke-width:2.0;" width="703.9551" x="597.69" y="219.5"/><rect codeLine="26" fill="none" height="118" id="StateT" rx="1.5" ry="1.5" style="stroke:#C6A0F6;stroke-width:2.0;" width="703.9551" x="597.69" y="191"/><ellipse cx="871.0933" cy="206" fill="#ADD1B2" rx="10" ry="10" style="stroke:#181818;stroke-width:1.0;"/><path d="M872.9273,210.248 Q872.5171,210.459 872.066,210.5645 Q871.6148,210.6699 871.1168,210.6699 Q869.3472,210.6699 868.4156,209.5039 Q867.4839,208.3379 867.4839,206.1348 Q867.4839,203.9258 868.4156,202.7598 Q869.3472,201.5938 871.1168,201.5938 Q871.6148,201.5938 872.0718,201.6992 Q872.5289,201.8047 872.9273,202.0156 L872.9273,203.9375 Q872.482,203.5273 872.063,203.3369 Q871.6441,203.1465 871.1988,203.1465 Q870.2496,203.1465 869.7662,203.8994 Q869.2828,204.6523 869.2828,206.1348 Q869.2828,207.6113 869.7662,208.3643 Q870.2496,209.1172 871.1988,209.1172 Q871.6441,209.1172 872.063,208.9268 Q872.482,208.7363 872.9273,208.3262 Z " fill="#CAD3F5"/><text fill="#A6DA95" font-family="Helvetica" font-size="16" lengthAdjust="spacing" textLength="47.1328" x="890.0933" y="210.3203">StateT</text><rect fill="#24273A" height="14" style="stroke:#C6A0F6;stroke-width:1.0;stroke-dasharray:2.0,2.0;" width="100.0156" x="1204.6295" y="188"/><text fill="#CAD3F5" font-family="Helvetica" font-size="12" font-style="italic" lengthAdjust="spacing" textLength="98.0156" x="1205.6295" y="198.2402">S, F_WITNESS, A</text><line style="stroke:#C6A0F6;stroke-width:2.0;" x1="598.69" x2="1300.6451" y1="221" y2="221"/><rect fill="none" height="6" style="stroke:#C82930;stroke-width:1.0;" width="6" x="605.69" y="229.5"/><text fill="#A6DA95" font-family="Helvetica" font-size="12" lengthAdjust="spacing" textLength="306.8262" x="616.69" y="234.2402">run: Function&lt;S, Kind&lt;F_WITNESS, StateTuple&lt;S, A&gt;&gt;&gt;</text><rect fill="none" height="6" style="stroke:#C82930;stroke-width:1.0;" width="6" x="605.69" y="241.5"/><text fill="#A6DA95" font-family="Helvetica" font-size="12" lengthAdjust="spacing" textLength="170.0684" x="616.69" y="246.2402">monadF: Monad&lt;F_WITNESS&gt;</text><line style="stroke:#C6A0F6;stroke-width:2.0;" x1="598.69" x2="1300.6451" y1="253" y2="253"/><ellipse cx="608.69" cy="264.5" fill="#84BE84" rx="3" ry="3" style="stroke:#038048;stroke-width:1.0;"/><text fill="#A6DA95" font-family="Helvetica" font-size="12" lengthAdjust="spacing" text-decoration="underline" textLength="678.9551" x="616.69" y="266.2402">create(run: Function&lt;S, Kind&lt;F_WITNESS, StateTuple&lt;S, A&gt;&gt;&gt;, monadF: Monad&lt;F_WITNESS&gt;): StateT&lt;S, F_WITNESS, A&gt;</text><ellipse cx="608.69" cy="276.5" fill="#84BE84" rx="3" ry="3" style="stroke:#038048;stroke-width:1.0;"/><text fill="#A6DA95" font-family="Helvetica" font-size="12" lengthAdjust="spacing" textLength="296.127" x="616.69" y="278.2402">runStateT(s: S): Kind&lt;F_WITNESS, StateTuple&lt;S, A&gt;&gt;</text><ellipse cx="608.69" cy="288.5" fill="#84BE84" rx="3" ry="3" style="stroke:#038048;stroke-width:1.0;"/><text fill="#A6DA95" font-family="Helvetica" font-size="12" lengthAdjust="spacing" textLength="214.0723" x="616.69" y="290.2402">evalStateT(s: S): Kind&lt;F_WITNESS, A&gt;</text><ellipse cx="608.69" cy="300.5" fill="#84BE84" rx="3" ry="3" style="stroke:#038048;stroke-width:1.0;"/><text fill="#A6DA95" font-family="Helvetica" font-size="12" lengthAdjust="spacing" textLength="217.4063" x="616.69" y="302.2402">execStateT(s: S): Kind&lt;F_WITNESS, S&gt;</text></g><!--class StateTWitness--><g id="elem_StateTWitness"><rect codeLine="38" fill="#24273A" height="30" id="StateTWitness" rx="1.5" ry="1.5" style="stroke:#C6A0F6;stroke-width:2.0;" width="257.8438" x="181.74" y="539"/><rect fill="#363A4F" height="30" rx="1.5" ry="1.5" style="stroke:#363A4F;stroke-width:2.0;" width="257.8438" x="181.74" y="539"/><rect fill="#363A4F" height="1.5" style="stroke:#363A4F;stroke-width:2.0;" width="257.8438" x="181.74" y="567.5"/><rect codeLine="38" fill="none" height="30" id="StateTWitness" rx="1.5" ry="1.5" style="stroke:#C6A0F6;stroke-width:2.0;" width="257.8438" x="181.74" y="539"/><ellipse cx="195.74" cy="554" fill="#B4A7E5" rx="10" ry="10" style="stroke:#181818;stroke-width:1.0;"/><path d="M192.7478,551.2754 L192.7478,549.752 L197.9568,549.752 L197.9568,551.2754 L196.2166,551.2754 L196.2166,556.9766 L197.9568,556.9766 L197.9568,558.5 L192.7478,558.5 L192.7478,556.9766 L194.488,556.9766 L194.488,551.2754 Z " fill="#CAD3F5"/><text fill="#A6DA95" font-family="Helvetica" font-size="16" font-style="italic" lengthAdjust="spacing" textLength="140.5" x="208.74" y="558.3203">StateTKind.Witness</text><rect fill="#24273A" height="14" style="stroke:#C6A0F6;stroke-width:1.0;stroke-dasharray:2.0,2.0;" width="85.3438" x="357.24" y="536"/><text fill="#CAD3F5" font-family="Helvetica" font-size="12" font-style="italic" lengthAdjust="spacing" textLength="83.3438" x="358.24" y="546.2402">S, F_WITNESS</text></g><!--class StateTKind--><g id="elem_StateTKind"><rect codeLine="44" fill="#24273A" height="30" id="StateTKind" rx="1.5" ry="1.5" style="stroke:#C6A0F6;stroke-width:2.0;" width="211.1719" x="46.08" y="409"/><rect fill="#363A4F" height="30" rx="1.5" ry="1.5" style="stroke:#363A4F;stroke-width:2.0;" width="211.1719" x="46.08" y="409"/><rect fill="#363A4F" height="1.5" style="stroke:#363A4F;stroke-width:2.0;" width="211.1719" x="46.08" y="437.5"/><rect codeLine="44" fill="none" height="30" id="StateTKind" rx="1.5" ry="1.5" style="stroke:#C6A0F6;stroke-width:2.0;" width="211.1719" x="46.08" y="409"/><ellipse cx="60.08" cy="424" fill="#B4A7E5" rx="10" ry="10" style="stroke:#181818;stroke-width:1.0;"/><path d="M57.0878,421.2754 L57.0878,419.752 L62.2968,419.752 L62.2968,421.2754 L60.5566,421.2754 L60.5566,426.9766 L62.2968,426.9766 L62.2968,428.5 L57.0878,428.5 L57.0878,426.9766 L58.828,426.9766 L58.828,421.2754 Z " fill="#CAD3F5"/><text fill="#A6DA95" font-family="Helvetica" font-size="16" font-style="italic" lengthAdjust="spacing" textLength="79.1563" x="73.08" y="428.3203">StateTKind</text><rect fill="#24273A" height="14" style="stroke:#C6A0F6;stroke-width:1.0;stroke-dasharray:2.0,2.0;" width="100.0156" x="160.2362" y="406"/><text fill="#CAD3F5" font-family="Helvetica" font-size="12" font-style="italic" lengthAdjust="spacing" textLength="98.0156" x="161.2362" y="416.2402">S, F_WITNESS, A</text></g><!--class StateTMonadInstance--><g id="elem_StateTMonadInstance"><rect codeLine="48" fill="#24273A" height="70" id="StateTMonadInstance" rx="1.5" ry="1.5" style="stroke:#C6A0F6;stroke-width:2.0;" width="423.8242" x="1336.75" y="215"/><rect fill="#363A4F" height="30" rx="1.5" ry="1.5" style="stroke:#363A4F;stroke-width:2.0;" width="423.8242" x="1336.75" y="215"/><rect fill="#363A4F" height="1.5" style="stroke:#363A4F;stroke-width:2.0;" width="423.8242" x="1336.75" y="243.5"/><rect codeLine="48" fill="none" height="70" id="StateTMonadInstance" rx="1.5" ry="1.5" style="stroke:#C6A0F6;stroke-width:2.0;" width="423.8242" x="1336.75" y="215"/><ellipse cx="1452.9629" cy="230" fill="#ADD1B2" rx="10" ry="10" style="stroke:#181818;stroke-width:1.0;"/><path d="M1454.7969,234.248 Q1454.3867,234.459 1453.9355,234.5645 Q1453.4844,234.6699 1452.9863,234.6699 Q1451.2168,234.6699 1450.2852,233.5039 Q1449.3535,232.3379 1449.3535,230.1348 Q1449.3535,227.9258 1450.2852,226.7598 Q1451.2168,225.5938 1452.9863,225.5938 Q1453.4844,225.5938 1453.9414,225.6992 Q1454.3984,225.8047 1454.7969,226.0156 L1454.7969,227.9375 Q1454.3516,227.5273 1453.9326,227.3369 Q1453.5137,227.1465 1453.0684,227.1465 Q1452.1191,227.1465 1451.6357,227.8994 Q1451.1523,228.6523 1451.1523,230.1348 Q1451.1523,231.6113 1451.6357,232.3643 Q1452.1191,233.1172 1453.0684,233.1172 Q1453.5137,233.1172 1453.9326,232.9268 Q1454.3516,232.7363 1454.7969,232.3262 Z " fill="#CAD3F5"/><text fill="#A6DA95" font-family="Helvetica" font-size="16" lengthAdjust="spacing" textLength="96.0547" x="1471.9629" y="234.3203">StateTMonad</text><rect fill="#24273A" height="14" style="stroke:#C6A0F6;stroke-width:1.0;stroke-dasharray:2.0,2.0;" width="85.3438" x="1678.2305" y="212"/><text fill="#CAD3F5" font-family="Helvetica" font-size="12" font-style="italic" lengthAdjust="spacing" textLength="83.3438" x="1679.2305" y="222.2402">S, F_WITNESS</text><line style="stroke:#C6A0F6;stroke-width:2.0;" x1="1337.75" x2="1759.5742" y1="245" y2="245"/><rect fill="none" height="6" style="stroke:#C82930;stroke-width:1.0;" width="6" x="1344.75" y="253.5"/><text fill="#A6DA95" font-family="Helvetica" font-size="12" lengthAdjust="spacing" textLength="170.0684" x="1355.75" y="258.2402">monadF: Monad&lt;F_WITNESS&gt;</text><line style="stroke:#C6A0F6;stroke-width:2.0;" x1="1337.75" x2="1759.5742" y1="265" y2="265"/><ellipse cx="1347.75" cy="276.5" fill="#84BE84" rx="3" ry="3" style="stroke:#038048;stroke-width:1.0;"/><text fill="#A6DA95" font-family="Helvetica" font-size="12" lengthAdjust="spacing" text-decoration="underline" textLength="398.8242" x="1355.75" y="278.2402">instance(monadF: Monad&lt;F_WITNESS&gt;): StateTMonad&lt;S, F_WITNESS&gt;</text></g><!--class StateTKindHelper--><g id="elem_StateTKindHelper"><rect codeLine="56" fill="#24273A" height="110" id="StateTKindHelper" rx="1.5" ry="1.5" style="stroke:#C6A0F6;stroke-width:2.0;" width="783.3262" x="7" y="7"/><rect fill="#363A4F" height="30" rx="1.5" ry="1.5" style="stroke:#363A4F;stroke-width:2.0;" width="783.3262" x="7" y="7"/><rect fill="#363A4F" height="1.5" style="stroke:#363A4F;stroke-width:2.0;" width="783.3262" x="7" y="35.5"/><rect codeLine="56" fill="none" height="110" id="StateTKindHelper" rx="1.5" ry="1.5" style="stroke:#C6A0F6;stroke-width:2.0;" width="783.3262" x="7" y="7"/><ellipse cx="331.5186" cy="22" fill="#ADD1B2" rx="10" ry="10" style="stroke:#181818;stroke-width:1.0;"/><path d="M333.3525,26.248 Q332.9424,26.459 332.4912,26.5645 Q332.04,26.6699 331.542,26.6699 Q329.7725,26.6699 328.8408,25.5039 Q327.9092,24.3379 327.9092,22.1348 Q327.9092,19.9258 328.8408,18.7598 Q329.7725,17.5938 331.542,17.5938 Q332.04,17.5938 332.4971,17.6992 Q332.9541,17.8047 333.3525,18.0156 L333.3525,19.9375 Q332.9072,19.5273 332.4883,19.3369 Q332.0693,19.1465 331.624,19.1465 Q330.6748,19.1465 330.1914,19.8994 Q329.708,20.6523 329.708,22.1348 Q329.708,23.6113 330.1914,24.3643 Q330.6748,25.1172 331.624,25.1172 Q332.0693,25.1172 332.4883,24.9268 Q332.9072,24.7363 333.3525,24.3262 Z " fill="#CAD3F5"/><text fill="#A6DA95" font-family="Helvetica" font-size="16" lengthAdjust="spacing" textLength="126.2891" x="350.5186" y="26.3203">StateTKindHelper</text><line style="stroke:#C6A0F6;stroke-width:2.0;" x1="8" x2="789.3262" y1="37" y2="37"/><ellipse cx="18" cy="48.5" fill="#84BE84" rx="3" ry="3" style="stroke:#038048;stroke-width:1.0;"/><text fill="#A6DA95" font-family="Helvetica" font-size="12" lengthAdjust="spacing" text-decoration="underline" textLength="482.8418" x="26" y="50.2402">narrow(kind: Kind&lt;StateTKind.Witness&lt;S, F_WITNESS&gt;, A&gt;): StateT&lt;S, F_WITNESS, A&gt;</text><ellipse cx="18" cy="60.5" fill="#84BE84" rx="3" ry="3" style="stroke:#038048;stroke-width:1.0;"/><text fill="#A6DA95" font-family="Helvetica" font-size="12" lengthAdjust="spacing" text-decoration="underline" textLength="488.8477" x="26" y="62.2402">widen(stateT: StateT&lt;S, F_WITNESS, A&gt;): Kind&lt;StateTKind.Witness&lt;S, F_WITNESS&gt;, A&gt;</text><ellipse cx="18" cy="72.5" fill="#84BE84" rx="3" ry="3" style="stroke:#038048;stroke-width:1.0;"/><text fill="#A6DA95" font-family="Helvetica" font-size="12" lengthAdjust="spacing" text-decoration="underline" textLength="586.916" x="26" y="74.2402">runStateT(kind: Kind&lt;StateTKind.Witness&lt;S, F_WITNESS&gt;, A&gt;, s: S): Kind&lt;F_WITNESS, StateTuple&lt;S, A&gt;&gt;</text><ellipse cx="18" cy="84.5" fill="#84BE84" rx="3" ry="3" style="stroke:#038048;stroke-width:1.0;"/><text fill="#A6DA95" font-family="Helvetica" font-size="12" lengthAdjust="spacing" text-decoration="underline" textLength="504.8613" x="26" y="86.2402">evalStateT(kind: Kind&lt;StateTKind.Witness&lt;S, F_WITNESS&gt;, A&gt;, s: S): Kind&lt;F_WITNESS, A&gt;</text><ellipse cx="18" cy="96.5" fill="#84BE84" rx="3" ry="3" style="stroke:#038048;stroke-width:1.0;"/><text fill="#A6DA95" font-family="Helvetica" font-size="12" lengthAdjust="spacing" text-decoration="underline" textLength="508.1953" x="26" y="98.2402">execStateT(kind: Kind&lt;StateTKind.Witness&lt;S, F_WITNESS&gt;, A&gt;, s: S): Kind&lt;F_WITNESS, S&gt;</text><ellipse cx="18" cy="108.5" fill="#84BE84" rx="3" ry="3" style="stroke:#038048;stroke-width:1.0;"/><text fill="#A6DA95" font-family="Helvetica" font-size="12" lengthAdjust="spacing" text-decoration="underline" textLength="758.3262" x="26" y="110.2402">lift(fn: Function&lt;S, Kind&lt;F_WITNESS, StateTuple&lt;S,A&gt;&gt;&gt;, monadF: Monad&lt;F_WITNESS&gt;) : Kind&lt;StateTKind.Witness&lt;S, F_WITNESS&gt;, A&gt;</text></g><!--reverse link Kind to StateTKind--><g id="link_Kind_StateTKind"><path d="M202.3764,282.3036 C190.6764,314.7636 168.43,376.49 156.78,408.79 " fill="none" id="Kind-backto-StateTKind" style="stroke:#F5BDE6;stroke-width:1.0;"/><polygon fill="none" points="208.48,265.37,196.7319,280.269,208.0209,284.3381,208.48,265.37" style="stroke:#F5BDE6;stroke-width:1.0;"/></g><!--reverse link Monad to StateTMonadInstance--><g id="link_Monad_StateTMonadInstance"><path d="M1589.0301,413.5223 C1652.3601,403.3023 1744.08,384.38 1767.66,353 C1790.6,322.49 1769.55,300.78 1732.9,285.48 " fill="none" id="Monad-backto-StateTMonadInstance" style="stroke:#F5BDE6;stroke-width:1.0;stroke-dasharray:7.0,7.0;"/><polygon fill="none" points="1571.26,416.39,1589.986,419.4457,1588.0742,407.599,1571.26,416.39" style="stroke:#F5BDE6;stroke-width:1.0;"/></g><!--link StateTMonadInstance to Monad--><g id="link_StateTMonadInstance_Monad"><path codeLine="69" d="M1472.69,285.48 C1451.69,299 1431.44,316.71 1419.66,339 C1402.83,370.87 1427.5185,388.1842 1463.4185,402.1742 " fill="none" id="StateTMonadInstance-to-Monad" style="stroke:#F5BDE6;stroke-width:1.0;stroke-dasharray:7.0,7.0;"/><polygon fill="none" points="1480.19,408.71,1465.5971,396.5837,1461.2399,407.7648,1480.19,408.71" style="stroke:#F5BDE6;stroke-width:1.0;"/><text fill="#CAD3F5" font-family="Helvetica" font-size="12" lengthAdjust="spacing" textLength="61.3535" x="1420.66" y="349.2402">implements</text></g><!--link StateTMonadInstance to Monad--><g id="link_StateTMonadInstance_Monad"><path codeLine="71" d="M1533.99,285.43 C1527.95,301.41 1521.67,320.85 1518.66,339 C1514.64,363.25 1517.7124,385.9707 1521.1324,402.7607 " fill="none" id="StateTMonadInstance-to-Monad-1" style="stroke:#F5BDE6;stroke-width:1.0;stroke-dasharray:7.0,7.0;"/><polygon fill="#F5BDE6" points="1522.33,408.64,1524.4532,399.0227,1521.332,403.7406,1516.6141,400.6195,1522.33,408.64" style="stroke:#F5BDE6;stroke-width:1.0;"/><text fill="#CAD3F5" font-family="Helvetica" font-size="12" lengthAdjust="spacing" textLength="239.4785" x="1519.66" y="349.2402">depends on (holds ref to underlying monadF)</text></g><!--link StateT to StateTKind--><g id="link_StateT_StateTKind"><path codeLine="67" d="M678.38,309.47 C514.82,344.73 336.8361,383.0882 236.2761,404.7582 " fill="none" id="StateT-to-StateTKind" style="stroke:#F5BDE6;stroke-width:1.0;stroke-dasharray:7.0,7.0;"/><polygon fill="none" points="218.68,408.55,237.54,410.6235,235.0121,398.8928,218.68,408.55" style="stroke:#F5BDE6;stroke-width:1.0;"/><text fill="#CAD3F5" font-family="Helvetica" font-size="12" lengthAdjust="spacing" textLength="61.3535" x="527.74" y="349.2402">implements</text></g><!--link StateTKind to StateTWitness--><g id="link_StateTKind_StateTWitness"><path codeLine="68" d="M147.98,439.23 C144.16,457.49 140.76,489.17 156.66,509 C167.45,522.45 176.5093,529.6338 192.4393,536.3338 " fill="none" id="StateTKind-to-StateTWitness" style="stroke:#F5BDE6;stroke-width:1.0;stroke-dasharray:7.0,7.0;"/><polygon fill="#F5BDE6" points="197.97,538.66,191.2247,531.4836,193.3611,536.7215,188.1231,538.8579,197.97,538.66" style="stroke:#F5BDE6;stroke-width:1.0;"/><text fill="#CAD3F5" font-family="Helvetica" font-size="12" lengthAdjust="spacing" textLength="126.7207" x="157.66" y="505.2402">uses witness (phantom)</text></g><!--link StateTMonadInstance to StateTWitness--><g id="link_StateTMonadInstance_StateTWitness"><path codeLine="70" d="M1449.53,285.39 C1386.92,306.43 1304.08,333.05 1229.66,353 C921.72,435.54 554.8268,507.4019 395.2268,537.3919 " fill="none" id="StateTMonadInstance-to-StateTWitness" style="stroke:#F5BDE6;stroke-width:1.0;stroke-dasharray:7.0,7.0;"/><polygon fill="#F5BDE6" points="389.33,538.5,398.9139,540.7691,394.244,537.5766,397.4365,532.9067,389.33,538.5" style="stroke:#F5BDE6;stroke-width:1.0;"/><text fill="#CAD3F5" font-family="Helvetica" font-size="12" lengthAdjust="spacing" textLength="155.3965" x="1106.82" y="427.2402">uses witness (for Monad&lt;F&gt;)</text></g><!--link StateT to Monad--><g id="link_StateT_Monad"><path codeLine="72" d="M1056.3,309.41 C1090.64,325.94 1129.45,342.32 1166.66,353 C1274.23,383.86 1307.85,356.88 1416.66,383 C1442.73,389.26 1465.5753,397.5417 1486.8553,406.2317 " fill="none" id="StateT-to-Monad" style="stroke:#F5BDE6;stroke-width:1.0;stroke-dasharray:7.0,7.0;"/><polygon fill="#F5BDE6" points="1492.41,408.5,1485.5902,401.3944,1487.7811,406.6097,1482.5657,408.8006,1492.41,408.5" style="stroke:#F5BDE6;stroke-width:1.0;"/><text fill="#CAD3F5" font-family="Helvetica" font-size="12" lengthAdjust="spacing" textLength="239.4785" x="1167.66" y="349.2402">depends on (holds ref to underlying monadF)</text></g><!--link StateT to StateTuple--><g id="link_StateT_StateTuple"><path codeLine="73" d="M793.03,309.44 C770.83,318.77 748.49,328.75 727.66,339 C701.46,351.9 678.7525,364.806 654.8125,379.406 " fill="none" id="StateT-to-StateTuple" style="stroke:#F5BDE6;stroke-width:1.0;stroke-dasharray:7.0,7.0;"/><polygon fill="#F5BDE6" points="649.69,382.53,659.4565,381.259,653.9588,379.9266,655.2911,374.4289,649.69,382.53" style="stroke:#F5BDE6;stroke-width:1.0;"/><text fill="#CAD3F5" font-family="Helvetica" font-size="12" lengthAdjust="spacing" textLength="196.377" x="728.66" y="349.2402">uses (in its run function's return type)</text></g><!--link StateTKindHelper to StateT--><g id="link_StateTKindHelper_StateT"><path codeLine="74" d="M559.89,117.42 C628.01,140.42 701.7853,165.3205 771.1153,188.7305 " fill="none" id="StateTKindHelper-to-StateT" style="stroke:#F5BDE6;stroke-width:1.0;stroke-dasharray:7.0,7.0;"/><polygon fill="#F5BDE6" points="776.8,190.65,769.5526,183.981,772.0628,189.0504,766.9933,191.5605,776.8,190.65" style="stroke:#F5BDE6;stroke-width:1.0;"/><text fill="#CAD3F5" font-family="Helvetica" font-size="12" lengthAdjust="spacing" textLength="127.377" x="675.16" y="157.2402">narrows to/ widens from</text></g><!--link StateTKindHelper to StateTKind--><g id="link_StateTKindHelper_StateTKind"><path codeLine="75" d="M172.58,117.45 C138.64,135.4 107.94,159.27 86.66,191 C38.44,262.91 107.0526,365.4559 136.4826,403.8959 " fill="none" id="StateTKindHelper-to-StateTKind" style="stroke:#F5BDE6;stroke-width:1.0;stroke-dasharray:7.0,7.0;"/><polygon fill="#F5BDE6" points="140.13,408.66,137.8349,399.0823,137.0905,404.6899,131.4828,403.9455,140.13,408.66" style="stroke:#F5BDE6;stroke-width:1.0;"/><text fill="#CAD3F5" font-family="Helvetica" font-size="12" lengthAdjust="spacing" textLength="63.3809" x="87.66" y="253.2402">operates on</text></g><!--link StateTKindHelper to StateTWitness--><g id="link_StateTKindHelper_StateTWitness"><path codeLine="76" d="M386.72,117.16 C384.63,127.07 382.53,137.34 380.66,147 C351.14,299.74 322.199,480.0839 313.869,532.6539 " fill="none" id="StateTKindHelper-to-StateTWitness" style="stroke:#F5BDE6;stroke-width:1.0;stroke-dasharray:7.0,7.0;"/><polygon fill="#F5BDE6" points="312.93,538.58,318.2892,530.3169,313.7125,533.6416,310.3878,529.0649,312.93,538.58" style="stroke:#F5BDE6;stroke-width:1.0;"/><text fill="#CAD3F5" font-family="Helvetica" font-size="12" lengthAdjust="spacing" textLength="68.6953" x="346.88" y="349.2402">uses witness</text></g><!--link StateTKindHelper to StateTuple--><g id="link_StateTKindHelper_StateTuple"><path codeLine="77" d="M390.7,117.23 C385.68,169.45 385.15,249.13 416.66,309 C433.22,340.44 457.6337,361.6353 487.5137,379.5453 " fill="none" id="StateTKindHelper-to-StateTuple" style="stroke:#F5BDE6;stroke-width:1.0;stroke-dasharray:7.0,7.0;"/><polygon fill="#F5BDE6" points="492.66,382.63,486.997,374.5721,488.3714,380.0594,482.884,381.4338,492.66,382.63" style="stroke:#F5BDE6;stroke-width:1.0;"/><text fill="#CAD3F5" font-family="Helvetica" font-size="12" lengthAdjust="spacing" textLength="162.7383" x="417.66" y="253.2402">uses (in runStateT return type)</text></g><!--link StateTKindHelper to Monad--><g id="link_StateTKindHelper_Monad"><path codeLine="78" d="M790.68,74.71 C1173.17,90.02 1707.55,123.31 1777.66,191 C1829.82,241.35 1841.05,295.69 1796.66,353 C1769.25,388.39 1646.8725,408.3469 1577.0825,417.1769 " fill="none" id="StateTKindHelper-to-Monad" style="stroke:#F5BDE6;stroke-width:1.0;stroke-dasharray:7.0,7.0;"/><polygon fill="#F5BDE6" points="1571.13,417.93,1580.5609,420.7687,1576.0905,417.3024,1579.5567,412.8319,1571.13,417.93" style="stroke:#F5BDE6;stroke-width:1.0;"/><text fill="#CAD3F5" font-family="Helvetica" font-size="12" lengthAdjust="spacing" textLength="66.0117" x="1825.25" y="253.2402">uses (for lift)</text></g><!--SRC=[hLRRRjim37ttLt1zYOCcphjH6CY61IsA3aCJR8-3giYrC5io97bPqVNVHydo9LStMmeKK2IHXpmaZ_M12vfNQmQPCQMEPpD5Dj4pDrdrL6ccg1I62HDHMSm4bTgGAQSpIanPLfHoCIq8fHadHaxBd0XJ5VdKPAnWiu9mCNFBgCJT8EC8mehIl431YYUcT81_8_Wa5OFR-nLmH58feKm7xHBkkLZVB2OmJ-0r01Z10hW6TEjCDjm8fZM4POROiW3pKhAnkpTlxlqYUSNSGV3MS_mW1K7F2Q3V4S0rf3an3wGCKn73eXBKS2bkvfCsWez9Ce6KnBsGnd7l5BtRT9Q66BQgofm5D2SOMxTnisppk8ObQ7lWrlCwIBT-jTkSle5CGnq3cY3a795s_LYy1WvqoIXFEGM7YGoYhnh-ghvXRHO_lj-jldnUElCh84riBYBBsTAZr6pLUwrH3DyzswbKZjbAh9dANxXuXiAo2GjlCu_XMyUwtPk2glgyBXjUkv1syqiIR-byB-AcOer5VTmZZ2g67i9_09eSnMXvt-FFeoDQVS4Lgss84sZUa679Jrks6EmtemCWzkgRBNhNuBxmzchaAxULHBy3ciesZV2rDqwkt7RO6Cx_6ejzmMOv7lAfVhNdI0hgqbhNL0obsiwT3VAHbOff5BMs_z4pSOwQaBP6f-w9OzIvqpk1JIWm0rvWeGldsviDH9PSUFZUFoxSnnmEzlu10dnyTo9ZYcEoCiKP8YMA5Vvx9TqcioFYbkKbKpxlNa22A2KtuK-y4h-_h8CJslhVu0T8X4vrLqUDncT0xm9qMd1c3XCuKpnQo9wAN0fpFw-U_bmiiJsGdATc-zix9Dq3oWtdLRB-UZyox5q4rnalTU3b8Oh-97tfYNjZ7lJseoZPqTCOy0sbzvufu-2GTZWOjtK8OVVk49JLYUQDCpxgeu5RizAfgHGGPZB7bM8f6BadCujnnyf_ctVbRC8FkG2h9pXAaFf665blfbB2l-xsbAHpXMvg5S6ddvpL4u-IgMHnoieNLU8k_hHPdBfzcF1J5hi9jZhnZhmQXcjZMrGxA6Dirhy0]--></g></svg>