<svg xmlns="http://www.w3.org/2000/svg" xmlns:xlink="http://www.w3.org/1999/xlink" contentStyleType="text/css" data-diagram-type="CLASS" height="614px" preserveAspectRatio="none" style="width:1417px;height:614px;background:#24273A;" version="1.1" viewBox="0 0 1417 614" width="1417px" zoomAndPan="magnify"><defs/><g><rect fill="#24273A" height="614" style="stroke:none;stroke-width:1;" width="1417" x="0" y="0"/><g class="entity" data-entity="ArityNote" data-source-line="5" data-uid="ent0002" id="entity_ArityNote"><path d="M6,457.91 L6,497.5982 A1.5,1.5 0 0 0 7.5,499.0982 L238.39,499.0982 L687.83,583.94 L246.39,499.0982 L257.2216,499.0982 A1.5,1.5 0 0 0 258.7216,497.5982 L258.7216,466.41 L248.7216,456.41 L7.5,456.41 A1.5,1.5 0 0 0 6,457.91" fill="#EED49F" style="stroke:#24273A;stroke-width:0.5;"/><path d="M248.7216,456.41 L248.7216,465.66 A0.75,0.75 0 0 0 249.4716,466.41 L258.7216,466.41 L248.7216,456.41" fill="#EED49F" style="stroke:#24273A;stroke-width:0.5;"/><text fill="#24273A" font-family="Helvetica" font-size="12" lengthAdjust="spacing" textLength="231.7216" x="12" y="474.2381">F extends WitnessArity&lt;TypeArity.Unary&gt;</text><text fill="#24273A" font-family="Helvetica" font-size="12" lengthAdjust="spacing" textLength="102.8288" x="12" y="490.5822">for all type classes</text></g><!--class Kind--><g class="entity" data-entity="Kind" data-source-line="7" data-uid="ent0003" id="entity_Kind"><rect fill="#24273A" height="31.792" rx="1.5" ry="1.5" style="stroke:#C6A0F6;stroke-width:2;" width="84.3082" x="688.21" y="577.1"/><rect fill="#363A4F" height="31.792" rx="1.5" ry="1.5" style="stroke:#363A4F;stroke-width:2;" width="84.3082" x="688.21" y="577.1"/><rect fill="#363A4F" height="1.5" style="stroke:#363A4F;stroke-width:2;" width="84.3082" x="688.21" y="607.392"/><rect fill="none" height="31.792" rx="1.5" ry="1.5" style="stroke:#C6A0F6;stroke-width:2;" width="84.3082" x="688.21" y="577.1"/><ellipse cx="702.21" cy="592.996" fill="#B4A7E5" rx="10" ry="10" style="stroke:#181818;stroke-width:1;"/><path d="M699.7881,597.496 L699.7881,596.2929 L701.46,596.1054 L701.46,590.3241 L699.7881,590.121 L699.7881,588.9335 L704.835,588.9335 L704.835,590.121 L703.1319,590.3241 L703.1319,596.1054 L704.835,596.2929 L704.835,597.496 L699.7881,597.496 Z " fill="#CAD3F5"/><text fill="#A6DA95" font-family="Helvetica" font-size="16" font-style="italic" lengthAdjust="spacing" textLength="31.6481" x="715.21" y="599.204">Kind</text><rect fill="#24273A" height="18.3441" style="stroke:#C6A0F6;stroke-width:1;stroke-dasharray:2,2;" width="20.6601" x="754.8581" y="574.1"/><text fill="#CAD3F5" font-family="Helvetica" font-size="12" font-style="italic" lengthAdjust="spacing" textLength="18.6601" x="755.8581" y="587.9281">F, A</text></g><!--class Functor--><g class="entity" data-entity="Functor" data-source-line="8" data-uid="ent0004" id="entity_Functor"><rect fill="#24273A" height="31.792" rx="1.5" ry="1.5" style="stroke:#C6A0F6;stroke-width:2;" width="93.8202" x="1049.45" y="461.86"/><rect fill="#363A4F" height="31.792" rx="1.5" ry="1.5" style="stroke:#363A4F;stroke-width:2;" width="93.8202" x="1049.45" y="461.86"/><rect fill="#363A4F" height="1.5" style="stroke:#363A4F;stroke-width:2;" width="93.8202" x="1049.45" y="492.152"/><rect fill="none" height="31.792" rx="1.5" ry="1.5" style="stroke:#C6A0F6;stroke-width:2;" width="93.8202" x="1049.45" y="461.86"/><ellipse cx="1063.45" cy="477.756" fill="#B4A7E5" rx="10" ry="10" style="stroke:#181818;stroke-width:1;"/><path d="M1061.0281,482.256 L1061.0281,481.0529 L1062.7,480.8654 L1062.7,475.0841 L1061.0281,474.881 L1061.0281,473.6935 L1066.075,473.6935 L1066.075,474.881 L1064.3719,475.0841 L1064.3719,480.8654 L1066.075,481.0529 L1066.075,482.256 L1061.0281,482.256 Z " fill="#CAD3F5"/><text fill="#A6DA95" font-family="Helvetica" font-size="16" font-style="italic" lengthAdjust="spacing" textLength="54.0961" x="1076.45" y="483.964">Functor</text><rect fill="#24273A" height="18.3441" style="stroke:#C6A0F6;stroke-width:1;stroke-dasharray:2,2;" width="7.724" x="1138.5461" y="458.86"/><text fill="#CAD3F5" font-family="Helvetica" font-size="12" font-style="italic" lengthAdjust="spacing" textLength="5.724" x="1139.5461" y="472.6881">F</text></g><!--class Applicative--><g class="entity" data-entity="Applicative" data-source-line="9" data-uid="ent0005" id="entity_Applicative"><rect fill="#24273A" height="31.792" rx="1.5" ry="1.5" style="stroke:#C6A0F6;stroke-width:2;" width="116.7322" x="1289.99" y="350"/><rect fill="#363A4F" height="31.792" rx="1.5" ry="1.5" style="stroke:#363A4F;stroke-width:2;" width="116.7322" x="1289.99" y="350"/><rect fill="#363A4F" height="1.5" style="stroke:#363A4F;stroke-width:2;" width="116.7322" x="1289.99" y="380.292"/><rect fill="none" height="31.792" rx="1.5" ry="1.5" style="stroke:#C6A0F6;stroke-width:2;" width="116.7322" x="1289.99" y="350"/><ellipse cx="1303.99" cy="365.896" fill="#B4A7E5" rx="10" ry="10" style="stroke:#181818;stroke-width:1;"/><path d="M1301.5681,370.396 L1301.5681,369.1929 L1303.24,369.0054 L1303.24,363.2241 L1301.5681,363.021 L1301.5681,361.8335 L1306.615,361.8335 L1306.615,363.021 L1304.9119,363.2241 L1304.9119,369.0054 L1306.615,369.1929 L1306.615,370.396 L1301.5681,370.396 Z " fill="#CAD3F5"/><text fill="#A6DA95" font-family="Helvetica" font-size="16" font-style="italic" lengthAdjust="spacing" textLength="77.0081" x="1316.99" y="372.104">Applicative</text><rect fill="#24273A" height="18.3441" style="stroke:#C6A0F6;stroke-width:1;stroke-dasharray:2,2;" width="7.724" x="1401.9981" y="347"/><text fill="#CAD3F5" font-family="Helvetica" font-size="12" font-style="italic" lengthAdjust="spacing" textLength="5.724" x="1402.9981" y="360.8281">F</text></g><!--class MonadBase--><g class="entity" data-entity="MonadBase" data-source-line="10" data-uid="ent0006" id="entity_MonadBase"><rect fill="#24273A" height="31.792" rx="1.5" ry="1.5" style="stroke:#C6A0F6;stroke-width:2;" width="94.1722" x="1128.27" y="226.59"/><rect fill="#363A4F" height="31.792" rx="1.5" ry="1.5" style="stroke:#363A4F;stroke-width:2;" width="94.1722" x="1128.27" y="226.59"/><rect fill="#363A4F" height="1.5" style="stroke:#363A4F;stroke-width:2;" width="94.1722" x="1128.27" y="256.882"/><rect fill="none" height="31.792" rx="1.5" ry="1.5" style="stroke:#C6A0F6;stroke-width:2;" width="94.1722" x="1128.27" y="226.59"/><ellipse cx="1142.27" cy="242.486" fill="#B4A7E5" rx="10" ry="10" style="stroke:#181818;stroke-width:1;"/><path d="M1139.8481,246.986 L1139.8481,245.7829 L1141.52,245.5954 L1141.52,239.8141 L1139.8481,239.611 L1139.8481,238.4235 L1144.895,238.4235 L1144.895,239.611 L1143.1919,239.8141 L1143.1919,245.5954 L1144.895,245.7829 L1144.895,246.986 L1139.8481,246.986 Z " fill="#CAD3F5"/><text fill="#A6DA95" font-family="Helvetica" font-size="16" font-style="italic" lengthAdjust="spacing" textLength="50.0801" x="1155.27" y="248.694">Monad</text><rect fill="#24273A" height="18.3441" style="stroke:#C6A0F6;stroke-width:1;stroke-dasharray:2,2;" width="12.0921" x="1213.3501" y="223.59"/><text fill="#CAD3F5" font-family="Helvetica" font-size="12" font-style="italic" lengthAdjust="spacing" textLength="10.0921" x="1214.3501" y="237.4181">M</text></g><!--class MonadZero--><g class="entity" data-entity="MonadZero" data-source-line="11" data-uid="ent0007" id="entity_MonadZero"><rect fill="#24273A" height="31.792" rx="1.5" ry="1.5" style="stroke:#C6A0F6;stroke-width:2;" width="126.0282" x="816.35" y="116.79"/><rect fill="#363A4F" height="31.792" rx="1.5" ry="1.5" style="stroke:#363A4F;stroke-width:2;" width="126.0282" x="816.35" y="116.79"/><rect fill="#363A4F" height="1.5" style="stroke:#363A4F;stroke-width:2;" width="126.0282" x="816.35" y="147.082"/><rect fill="none" height="31.792" rx="1.5" ry="1.5" style="stroke:#C6A0F6;stroke-width:2;" width="126.0282" x="816.35" y="116.79"/><ellipse cx="830.35" cy="132.686" fill="#B4A7E5" rx="10" ry="10" style="stroke:#181818;stroke-width:1;"/><path d="M827.9281,137.186 L827.9281,135.9829 L829.6,135.7954 L829.6,130.0141 L827.9281,129.811 L827.9281,128.6235 L832.975,128.6235 L832.975,129.811 L831.2719,130.0141 L831.2719,135.7954 L832.975,135.9829 L832.975,137.186 L827.9281,137.186 Z " fill="#CAD3F5"/><text fill="#A6DA95" font-family="Helvetica" font-size="16" font-style="italic" lengthAdjust="spacing" textLength="81.9361" x="843.35" y="138.894">MonadZero</text><rect fill="#24273A" height="18.3441" style="stroke:#C6A0F6;stroke-width:1;stroke-dasharray:2,2;" width="12.0921" x="933.2861" y="113.79"/><text fill="#CAD3F5" font-family="Helvetica" font-size="12" font-style="italic" lengthAdjust="spacing" textLength="10.0921" x="934.2861" y="127.6181">M</text></g><!--class Traverse--><g class="entity" data-entity="Traverse" data-source-line="12" data-uid="ent0008" id="entity_Traverse"><rect fill="#24273A" height="31.792" rx="1.5" ry="1.5" style="stroke:#C6A0F6;stroke-width:2;" width="100.2041" x="264.26" y="350"/><rect fill="#363A4F" height="31.792" rx="1.5" ry="1.5" style="stroke:#363A4F;stroke-width:2;" width="100.2041" x="264.26" y="350"/><rect fill="#363A4F" height="1.5" style="stroke:#363A4F;stroke-width:2;" width="100.2041" x="264.26" y="380.292"/><rect fill="none" height="31.792" rx="1.5" ry="1.5" style="stroke:#C6A0F6;stroke-width:2;" width="100.2041" x="264.26" y="350"/><ellipse cx="278.26" cy="365.896" fill="#B4A7E5" rx="10" ry="10" style="stroke:#181818;stroke-width:1;"/><path d="M275.8381,370.396 L275.8381,369.1929 L277.51,369.0054 L277.51,363.2241 L275.8381,363.021 L275.8381,361.8335 L280.885,361.8335 L280.885,363.021 L279.1819,363.2241 L279.1819,369.0054 L280.885,369.1929 L280.885,370.396 L275.8381,370.396 Z " fill="#CAD3F5"/><text fill="#A6DA95" font-family="Helvetica" font-size="16" font-style="italic" lengthAdjust="spacing" textLength="60.1921" x="291.26" y="372.104">Traverse</text><rect fill="#24273A" height="18.3441" style="stroke:#C6A0F6;stroke-width:1;stroke-dasharray:2,2;" width="8.012" x="359.4521" y="347"/><text fill="#CAD3F5" font-family="Helvetica" font-size="12" font-style="italic" lengthAdjust="spacing" textLength="6.012" x="360.4521" y="360.8281">T</text></g><!--class Foldable--><g class="entity" data-entity="Foldable" data-source-line="13" data-uid="ent0009" id="entity_Foldable"><rect fill="#24273A" height="31.792" rx="1.5" ry="1.5" style="stroke:#C6A0F6;stroke-width:2;" width="100.5081" x="294.11" y="461.86"/><rect fill="#363A4F" height="31.792" rx="1.5" ry="1.5" style="stroke:#363A4F;stroke-width:2;" width="100.5081" x="294.11" y="461.86"/><rect fill="#363A4F" height="1.5" style="stroke:#363A4F;stroke-width:2;" width="100.5081" x="294.11" y="492.152"/><rect fill="none" height="31.792" rx="1.5" ry="1.5" style="stroke:#C6A0F6;stroke-width:2;" width="100.5081" x="294.11" y="461.86"/><ellipse cx="308.11" cy="477.756" fill="#B4A7E5" rx="10" ry="10" style="stroke:#181818;stroke-width:1;"/><path d="M305.6881,482.256 L305.6881,481.0529 L307.36,480.8654 L307.36,475.0841 L305.6881,474.881 L305.6881,473.6935 L310.735,473.6935 L310.735,474.881 L309.0319,475.0841 L309.0319,480.8654 L310.735,481.0529 L310.735,482.256 L305.6881,482.256 Z " fill="#CAD3F5"/><text fill="#A6DA95" font-family="Helvetica" font-size="16" font-style="italic" lengthAdjust="spacing" textLength="60.4961" x="321.11" y="483.964">Foldable</text><rect fill="#24273A" height="18.3441" style="stroke:#C6A0F6;stroke-width:1;stroke-dasharray:2,2;" width="8.012" x="389.6061" y="458.86"/><text fill="#CAD3F5" font-family="Helvetica" font-size="12" font-style="italic" lengthAdjust="spacing" textLength="6.012" x="390.6061" y="472.6881">T</text></g><!--class StreamKindBase--><g class="entity" data-entity="StreamKindBase" data-source-line="17" data-uid="ent0011" id="entity_StreamKindBase"><rect fill="#24273A" height="31.792" rx="1.5" ry="1.5" style="stroke:#C6A0F6;stroke-width:2;" width="123.2242" x="668.75" y="461.86"/><rect fill="#363A4F" height="31.792" rx="1.5" ry="1.5" style="stroke:#363A4F;stroke-width:2;" width="123.2242" x="668.75" y="461.86"/><rect fill="#363A4F" height="1.5" style="stroke:#363A4F;stroke-width:2;" width="123.2242" x="668.75" y="492.152"/><rect fill="none" height="31.792" rx="1.5" ry="1.5" style="stroke:#C6A0F6;stroke-width:2;" width="123.2242" x="668.75" y="461.86"/><ellipse cx="682.75" cy="477.756" fill="#DA70D6" rx="10" ry="10" style="stroke:#181818;stroke-width:1;"/><path d="M680.3281,482.256 L680.3281,473.6935 L682.0625,473.6935 L682.0625,480.7248 L685.6094,480.7248 L685.6094,482.256 L680.3281,482.256 Z " fill="#CAD3F5"/><text fill="#A6DA95" font-family="Helvetica" font-size="16" font-style="italic" lengthAdjust="spacing" textLength="82.4802" x="695.75" y="483.964">StreamKind</text><rect fill="#24273A" height="18.3441" style="stroke:#C6A0F6;stroke-width:1;stroke-dasharray:2,2;" width="8.744" x="786.2302" y="458.86"/><text fill="#CAD3F5" font-family="Helvetica" font-size="12" font-style="italic" lengthAdjust="spacing" textLength="6.744" x="787.2302" y="472.6881">A</text></g><!--class StreamKindHelper--><g class="entity" data-entity="StreamKindHelper" data-source-line="21" data-uid="ent0012" id="entity_StreamKindHelper"><rect fill="#24273A" height="31.792" rx="1.5" ry="1.5" style="stroke:#C6A0F6;stroke-width:2;" width="168.3683" x="399.18" y="350"/><rect fill="#363A4F" height="31.792" rx="1.5" ry="1.5" style="stroke:#363A4F;stroke-width:2;" width="168.3683" x="399.18" y="350"/><rect fill="#363A4F" height="1.5" style="stroke:#363A4F;stroke-width:2;" width="168.3683" x="399.18" y="380.292"/><rect fill="none" height="31.792" rx="1.5" ry="1.5" style="stroke:#C6A0F6;stroke-width:2;" width="168.3683" x="399.18" y="350"/><ellipse cx="413.18" cy="365.896" fill="#808080" rx="10" ry="10" style="stroke:#181818;stroke-width:1;"/><path d="M409.7269,370.396 L409.7269,361.8335 L411.4613,361.8335 L411.4613,365.1773 L414.1019,365.1773 L414.1019,361.8335 L415.8363,361.8335 L415.8363,370.396 L414.1019,370.396 L414.1019,366.6773 L411.4613,366.6773 L411.4613,370.396 L409.7269,370.396 Z " fill="#CAD3F5"/><text fill="#A6DA95" font-family="Helvetica" font-size="16" lengthAdjust="spacing" textLength="138.3683" x="426.18" y="372.104">StreamKindHelper</text></g><g class="entity" data-entity="GMN13" data-source-line="24" data-uid="ent0014" id="entity_GMN13"><path d="M602.76,337.88 L602.76,361.89 L567.83,365.89 L602.76,369.89 L602.76,393.9123 A1.5,1.5 0 0 0 604.26,395.4123 L1054.4551,395.4123 A1.5,1.5 0 0 0 1055.9551,393.9123 L1055.9551,346.38 L1045.9551,336.38 L604.26,336.38 A1.5,1.5 0 0 0 602.76,337.88" fill="#EED49F" style="stroke:#24273A;stroke-width:0.5;"/><path d="M1045.9551,336.38 L1045.9551,345.63 A0.75,0.75 0 0 0 1046.7051,346.38 L1055.9551,346.38 L1045.9551,336.38" fill="#EED49F" style="stroke:#24273A;stroke-width:0.5;"/><text fill="#24273A" font-family="Helvetica" font-size="12" lengthAdjust="spacing" textLength="245.5817" x="608.76" y="354.2081">Contains internal 'StreamHolder&lt;A&gt; record'</text><text fill="#24273A" font-family="Helvetica" font-size="12" lengthAdjust="spacing" textLength="196.9334" x="608.76" y="370.5522">which implements StreamKind&lt;A&gt;.</text><text fill="#24273A" font-family="Helvetica" font-size="12" lengthAdjust="spacing" textLength="432.1951" x="608.76" y="386.8963">`record StreamHolder&lt;A&gt;(Stream&lt;A&gt; stream) implements StreamKind&lt;A&gt; {}`</text></g><!--class StreamFunctorImpl--><g class="entity" data-entity="StreamFunctorImpl" data-source-line="29" data-uid="ent0016" id="entity_StreamFunctorImpl"><rect fill="#24273A" height="31.792" rx="1.5" ry="1.5" style="stroke:#C6A0F6;stroke-width:2;" width="141.9522" x="928.38" y="226.59"/><rect fill="#363A4F" height="31.792" rx="1.5" ry="1.5" style="stroke:#363A4F;stroke-width:2;" width="141.9522" x="928.38" y="226.59"/><rect fill="#363A4F" height="1.5" style="stroke:#363A4F;stroke-width:2;" width="141.9522" x="928.38" y="256.882"/><rect fill="none" height="31.792" rx="1.5" ry="1.5" style="stroke:#C6A0F6;stroke-width:2;" width="141.9522" x="928.38" y="226.59"/><ellipse cx="942.38" cy="242.486" fill="#ADD1B2" rx="10" ry="10" style="stroke:#181818;stroke-width:1;"/><path d="M942.0988,247.111 Q940.8488,247.111 940.0519,246.5954 Q939.255,246.0641 938.8644,245.111 Q938.4738,244.1579 938.4738,242.8766 Q938.4738,241.4548 938.9425,240.4391 Q939.4113,239.4079 940.3175,238.861 Q941.2238,238.2985 942.5363,238.2985 Q943.1613,238.2985 943.63,238.4235 Q944.1144,238.5485 944.5988,238.7829 L944.0206,240.2204 Q943.5831,239.986 943.1925,239.9079 Q942.8175,239.8298 942.4738,239.8298 Q941.6456,239.8298 941.1456,240.2048 Q940.6613,240.5641 940.4425,241.236 Q940.2394,241.9079 940.2394,242.8141 Q940.2394,244.2204 940.7394,244.9079 Q941.255,245.5798 942.38,245.5798 Q942.8019,245.5798 943.2394,245.4704 Q943.6769,245.361 944.2706,245.0954 L944.2706,246.6579 Q943.755,246.8923 943.1925,247.0016 Q942.63,247.111 942.0988,247.111 Z " fill="#CAD3F5"/><text fill="#A6DA95" font-family="Helvetica" font-size="16" lengthAdjust="spacing" textLength="111.9522" x="955.38" y="248.694">StreamFunctor</text></g><!--class StreamMonadImpl--><g class="entity" data-entity="StreamMonadImpl" data-source-line="31" data-uid="ent0017" id="entity_StreamMonadImpl"><rect fill="#24273A" height="31.792" rx="1.5" ry="1.5" style="stroke:#C6A0F6;stroke-width:2;" width="137.0242" x="702.85" y="7"/><rect fill="#363A4F" height="31.792" rx="1.5" ry="1.5" style="stroke:#363A4F;stroke-width:2;" width="137.0242" x="702.85" y="7"/><rect fill="#363A4F" height="1.5" style="stroke:#363A4F;stroke-width:2;" width="137.0242" x="702.85" y="37.292"/><rect fill="none" height="31.792" rx="1.5" ry="1.5" style="stroke:#C6A0F6;stroke-width:2;" width="137.0242" x="702.85" y="7"/><ellipse cx="716.85" cy="22.896" fill="#ADD1B2" rx="10" ry="10" style="stroke:#181818;stroke-width:1;"/><path d="M716.5688,27.521 Q715.3188,27.521 714.5219,27.0054 Q713.725,26.4741 713.3344,25.521 Q712.9438,24.5679 712.9438,23.2866 Q712.9438,21.8648 713.4125,20.8491 Q713.8813,19.8179 714.7875,19.271 Q715.6938,18.7085 717.0063,18.7085 Q717.6313,18.7085 718.1,18.8335 Q718.5844,18.9585 719.0688,19.1929 L718.4906,20.6304 Q718.0531,20.396 717.6625,20.3179 Q717.2875,20.2398 716.9438,20.2398 Q716.1156,20.2398 715.6156,20.6148 Q715.1313,20.9741 714.9125,21.646 Q714.7094,22.3179 714.7094,23.2241 Q714.7094,24.6304 715.2094,25.3179 Q715.725,25.9898 716.85,25.9898 Q717.2719,25.9898 717.7094,25.8804 Q718.1469,25.771 718.7406,25.5054 L718.7406,27.0679 Q718.225,27.3023 717.6625,27.4116 Q717.1,27.521 716.5688,27.521 Z " fill="#CAD3F5"/><text fill="#A6DA95" font-family="Helvetica" font-size="16" lengthAdjust="spacing" textLength="107.0242" x="729.85" y="29.104">StreamMonad</text></g><!--class StreamTraverseImpl--><g class="entity" data-entity="StreamTraverseImpl" data-source-line="33" data-uid="ent0018" id="entity_StreamTraverseImpl"><rect fill="#24273A" height="31.792" rx="1.5" ry="1.5" style="stroke:#C6A0F6;stroke-width:2;" width="149.0562" x="324.83" y="226.59"/><rect fill="#363A4F" height="31.792" rx="1.5" ry="1.5" style="stroke:#363A4F;stroke-width:2;" width="149.0562" x="324.83" y="226.59"/><rect fill="#363A4F" height="1.5" style="stroke:#363A4F;stroke-width:2;" width="149.0562" x="324.83" y="256.882"/><rect fill="none" height="31.792" rx="1.5" ry="1.5" style="stroke:#C6A0F6;stroke-width:2;" width="149.0562" x="324.83" y="226.59"/><ellipse cx="338.83" cy="242.486" fill="#ADD1B2" rx="10" ry="10" style="stroke:#181818;stroke-width:1;"/><path d="M338.5488,247.111 Q337.2988,247.111 336.5019,246.5954 Q335.705,246.0641 335.3144,245.111 Q334.9238,244.1579 334.9238,242.8766 Q334.9238,241.4548 335.3925,240.4391 Q335.8613,239.4079 336.7675,238.861 Q337.6738,238.2985 338.9863,238.2985 Q339.6113,238.2985 340.08,238.4235 Q340.5644,238.5485 341.0488,238.7829 L340.4706,240.2204 Q340.0331,239.986 339.6425,239.9079 Q339.2675,239.8298 338.9238,239.8298 Q338.0956,239.8298 337.5956,240.2048 Q337.1113,240.5641 336.8925,241.236 Q336.6894,241.9079 336.6894,242.8141 Q336.6894,244.2204 337.1894,244.9079 Q337.705,245.5798 338.83,245.5798 Q339.2519,245.5798 339.6894,245.4704 Q340.1269,245.361 340.7206,245.0954 L340.7206,246.6579 Q340.205,246.8923 339.6425,247.0016 Q339.08,247.111 338.5488,247.111 Z " fill="#CAD3F5"/><text fill="#A6DA95" font-family="Helvetica" font-size="16" lengthAdjust="spacing" textLength="119.0562" x="351.83" y="248.694">StreamTraverse</text></g><!--link MonadZero to MonadBase--><g class="link" data-entity-1="MonadZero" data-entity-2="MonadBase" data-source-line="36" data-uid="lnk19" id="link_MonadZero_MonadBase"><path codeLine="36" d="M921.46,149.02 C977.8,169.54 1060.2264,199.5511 1116.4964,220.0411" fill="none" id="MonadZero-to-MonadBase" style="stroke:#F5BDE6;stroke-width:1;"/><polygon fill="none" points="1133.41,226.2,1118.5494,214.4033,1114.4435,225.679,1133.41,226.2" style="stroke:#F5BDE6;stroke-width:1;"/></g><!--link MonadBase to Applicative--><g class="link" data-entity-1="MonadBase" data-entity-2="Applicative" data-source-line="37" data-uid="lnk20" id="link_MonadBase_Applicative"><path codeLine="37" d="M1197.27,258.86 C1230.55,282.21 1278.7266,316.0195 1311.8966,339.2995" fill="none" id="MonadBase-to-Applicative" style="stroke:#F5BDE6;stroke-width:1;"/><polygon fill="none" points="1326.63,349.64,1315.3434,334.3884,1308.4497,344.2106,1326.63,349.64" style="stroke:#F5BDE6;stroke-width:1;"/></g><!--link Applicative to Functor--><g class="link" data-entity-1="Applicative" data-entity-2="Functor" data-source-line="38" data-uid="lnk21" id="link_Applicative_Functor"><path codeLine="38" d="M1313.06,382.28 C1264.97,403.25 1195.89,433.3662 1147.93,454.2762" fill="none" id="Applicative-to-Functor" style="stroke:#F5BDE6;stroke-width:1;"/><polygon fill="none" points="1131.43,461.47,1150.3279,459.7762,1145.532,448.7762,1131.43,461.47" style="stroke:#F5BDE6;stroke-width:1;"/></g><!--link Functor to Kind--><g class="link" data-entity-1="Functor" data-entity-2="Kind" data-source-line="39" data-uid="lnk22" id="link_Functor_Kind"><path codeLine="39" d="M1050.16,494.06 C1007.29,508.17 941.66,529.51 884.36,547.1 C846.82,558.62 821.2262,566.1206 790.2462,574.9806" fill="none" id="Functor-to-Kind" style="stroke:#F5BDE6;stroke-width:1;"/><polygon fill="none" points="772.94,579.93,791.896,580.7493,788.5964,569.2119,772.94,579.93" style="stroke:#F5BDE6;stroke-width:1;"/><text fill="#CAD3F5" font-family="Helvetica" font-size="12" lengthAdjust="spacing" textLength="199.1654" x="937.86" y="542.9281">(logically, Kind is the base for HKTs)</text></g><!--link Traverse to Functor--><g class="link" data-entity-1="Traverse" data-entity-2="Functor" data-source-line="40" data-uid="lnk23" id="link_Traverse_Functor"><path codeLine="40" d="M345.06,382.16 C356.24,387.13 369.14,392.19 381.36,395.41 C508.66,428.98 892.9943,461.0131 1031.2243,471.7731" fill="none" id="Traverse-to-Functor" style="stroke:#F5BDE6;stroke-width:1;"/><polygon fill="none" points="1049.17,473.17,1031.6899,465.7912,1030.7586,477.755,1049.17,473.17" style="stroke:#F5BDE6;stroke-width:1;"/></g><!--link Traverse to Foldable--><g class="link" data-entity-1="Traverse" data-entity-2="Foldable" data-source-line="41" data-uid="lnk24" id="link_Traverse_Foldable"><path codeLine="41" d="M318.53,382.17 C324.26,403.16 329.7704,423.3252 335.4804,444.2452" fill="none" id="Traverse-to-Foldable" style="stroke:#F5BDE6;stroke-width:1;"/><polygon fill="none" points="340.22,461.61,341.2686,442.6653,329.6921,445.8251,340.22,461.61" style="stroke:#F5BDE6;stroke-width:1;"/></g><!--link StreamKindBase to Kind--><g class="link" data-entity-1="StreamKindBase" data-entity-2="Kind" data-source-line="43" data-uid="lnk25" id="link_StreamKindBase_Kind"><path codeLine="43" d="M730.36,494.03 C730.36,515.64 730.36,536.92 730.36,558.6" fill="none" id="StreamKindBase-to-Kind" style="stroke:#F5BDE6;stroke-width:1;"/><polygon fill="none" points="730.36,576.6,736.36,558.6,724.36,558.6,730.36,576.6" style="stroke:#F5BDE6;stroke-width:1;"/><text fill="#CAD3F5" font-family="Helvetica" font-size="12" lengthAdjust="spacing" textLength="144.781" x="731.36" y="542.9281">&lt;StreamKind&lt;Witness, A&gt;</text></g><!--link StreamFunctorImpl to Functor--><g class="link" data-entity-1="StreamFunctorImpl" data-entity-2="Functor" data-source-line="45" data-uid="lnk26" id="link_StreamFunctorImpl_Functor"><path codeLine="45" d="M1015.85,258.87 C1033.14,276.04 1059.65,305.47 1073.36,336.38 C1092.29,379.04 1095.4264,417.2239 1095.9764,443.7139" fill="none" id="StreamFunctorImpl-to-Functor" style="stroke:#F5BDE6;stroke-width:1;stroke-dasharray:7,7;"/><polygon fill="none" points="1096.35,461.71,1101.9751,443.5893,1089.9776,443.8384,1096.35,461.71" style="stroke:#F5BDE6;stroke-width:1;"/><text fill="#CAD3F5" font-family="Helvetica" font-size="12" lengthAdjust="spacing" textLength="127.1289" x="1091.01" y="370.7181">&lt;StreamKind.Witness&gt;</text></g><!--link StreamMonadImpl to MonadZero--><g class="link" data-entity-1="StreamMonadImpl" data-entity-2="MonadZero" data-source-line="46" data-uid="lnk27" id="link_StreamMonadImpl_MonadZero"><path codeLine="46" d="M786.38,38.89 C806.9,59.36 830.7497,83.1744 851.3797,103.7644" fill="none" id="StreamMonadImpl-to-MonadZero" style="stroke:#F5BDE6;stroke-width:1;stroke-dasharray:7,7;"/><polygon fill="none" points="864.12,116.48,855.6183,99.5177,847.1412,108.0112,864.12,116.48" style="stroke:#F5BDE6;stroke-width:1;"/><text fill="#CAD3F5" font-family="Helvetica" font-size="12" lengthAdjust="spacing" textLength="127.1289" x="832.83" y="82.6181">&lt;StreamKind.Witness&gt;</text></g><!--link StreamTraverseImpl to Traverse--><g class="link" data-entity-1="StreamTraverseImpl" data-entity-2="Traverse" data-source-line="47" data-uid="lnk28" id="link_StreamTraverseImpl_Traverse"><path codeLine="47" d="M343.69,258.74 C329.41,265.45 315.74,274.96 307.36,288.38 C295.77,306.93 295.8041,316.1836 301.7141,332.6036" fill="none" id="StreamTraverseImpl-to-Traverse" style="stroke:#F5BDE6;stroke-width:1;stroke-dasharray:7,7;"/><polygon fill="none" points="307.81,349.54,307.3596,330.5717,296.0687,334.6356,307.81,349.54" style="stroke:#F5BDE6;stroke-width:1;"/><text fill="#CAD3F5" font-family="Helvetica" font-size="12" lengthAdjust="spacing" textLength="127.1289" x="308.36" y="302.2081">&lt;StreamKind.Witness&gt;</text></g><!--link StreamMonadImpl to StreamKindHelper--><g class="link" data-entity-1="StreamMonadImpl" data-entity-2="StreamKindHelper" data-source-line="49" data-uid="lnk29" id="link_StreamMonadImpl_StreamKindHelper"><path codeLine="49" d="M765.59,39.05 C747.5,84.87 687.69,223.83 598.36,306.38 C577.8,325.38 555.4295,337.4508 532.2595,347.2108" fill="none" id="StreamMonadImpl-to-StreamKindHelper" style="stroke:#F5BDE6;stroke-width:1;stroke-dasharray:7,7;"/><polygon fill="#F5BDE6" points="526.73,349.54,536.577,349.7325,531.3379,347.599,533.4714,342.3599,526.73,349.54" style="stroke:#F5BDE6;stroke-width:1;"/><text fill="#CAD3F5" font-family="Helvetica" font-size="12" lengthAdjust="spacing" textLength="133.813" x="696.93" y="192.4181">uses for widen / narrow</text></g><!--link StreamFunctorImpl to StreamKindHelper--><g class="link" data-entity-1="StreamFunctorImpl" data-entity-2="StreamKindHelper" data-source-line="50" data-uid="lnk30" id="link_StreamFunctorImpl_StreamKindHelper"><path codeLine="50" d="M948.81,258.87 C902.26,272.65 831.11,292.73 768.36,306.38 C687.82,323.89 665.84,318.59 585.36,336.38 C568.48,340.11 556.0222,343.3024 539.7022,347.9324" fill="none" id="StreamFunctorImpl-to-StreamKindHelper" style="stroke:#F5BDE6;stroke-width:1;stroke-dasharray:7,7;"/><polygon fill="#F5BDE6" points="533.93,349.57,543.68,350.9618,538.7402,348.2054,541.4966,343.2655,533.93,349.57" style="stroke:#F5BDE6;stroke-width:1;"/><text fill="#CAD3F5" font-family="Helvetica" font-size="12" lengthAdjust="spacing" textLength="133.813" x="839.73" y="302.2081">uses for widen / narrow</text></g><!--link StreamTraverseImpl to StreamKindHelper--><g class="link" data-entity-1="StreamTraverseImpl" data-entity-2="StreamKindHelper" data-source-line="51" data-uid="lnk31" id="link_StreamTraverseImpl_StreamKindHelper"><path codeLine="51" d="M416.93,258.56 C425.85,266.78 436.44,277.49 444.36,288.38 C458.66,308.03 468.2298,328.151 474.9898,344.191" fill="none" id="StreamTraverseImpl-to-StreamKindHelper" style="stroke:#F5BDE6;stroke-width:1;stroke-dasharray:7,7;"/><polygon fill="#F5BDE6" points="477.32,349.72,477.5107,339.873,475.3782,345.1125,470.1387,342.9799,477.32,349.72" style="stroke:#F5BDE6;stroke-width:1;"/><text fill="#CAD3F5" font-family="Helvetica" font-size="12" lengthAdjust="spacing" textLength="133.813" x="456.85" y="302.2081">uses for widen / narrow</text></g><!--SRC=[dLJ1Zjem4BtxAwPx0IH8xYYAn5P2LDljfLILgXxME8POSkp8DalHbd_ln4w24zXAxIcUyPitdkSNVn2AoMF1eNIkjiiqDVIK78GhZxkZvOPfvRXo2TDLgfYsZYu4InbrTNraJAX5HHah1NLwKKkgtB6I2rVoYgSL5IhrowJ6B26bm2wygjqPAbxjkB64AEquFAo1_y8kXONlmYbkxSe8TywsvvhxLV9DKNFEVwgzDa2b18Sxm2Irbji7e1Oyx0kI4IBmm6PF6V8-2LLawpciSWzgmdXxVLJCQPEjmtORneXLNKk1mufNtg6YL8nyreeMsNF0-E2Hsbl43sxq0DKaOjJMq5TKXcVR0EhYmRcrBEXEzfWk9gIN0P8aZ1lNVNM6qygBqYfopJIdXIo3wUUvDdYXnGpo7Du8mAIxbA1wSmMXZ5m8yNSGCs-uhBaPaOUafz_C3uQVM_9Bk7yZ3gK3lR-fmEuVqNze90j-3aKbJ09gWqDpWuE0uKoROeBWKobO2QAg9RfEkVW824mGyHB0CEAOXhXXiturUvS5tYul1BqAohjj843he6ZwDlC9oVoy0xWtG0JsyNrePuC8tQNw0j8R2XQBttdamduLDc8BH-kmsVq5xJSaczbX2LEf3mYMyZmFAO6cA3di6kh669kdhPsHxcH3mb6sz-p8Wt6_B5A-DM7pCtSriRX9Scqrh4pQofoCLVOrLz7-MZLGsnVsyxnJTwTTVljFB05VMUl5E-7xg205VEkCFjsTyJy8HWV_9mRo1m00]--></g></svg>