<svg xmlns="http://www.w3.org/2000/svg" xmlns:xlink="http://www.w3.org/1999/xlink" contentStyleType="text/css" data-diagram-type="CLASS" height="561px" preserveAspectRatio="none" style="width:812px;height:561px;background:#24273A;" version="1.1" viewBox="0 0 812 561" width="812px" zoomAndPan="magnify"><defs/><g><rect fill="#24273A" height="561" style="stroke:none;stroke-width:1;" width="812" x="0" y="0"/><g class="entity" data-entity="WitnessNote" data-source-line="5" data-uid="ent0002" id="entity_WitnessNote"><path d="M6,47.91 L6,87.5982 A1.5,1.5 0 0 0 7.5,89.0982 L199.9932,89.0982 A1.5,1.5 0 0 0 201.4932,87.5982 L201.4932,56.41 L191.4932,46.41 L7.5,46.41 A1.5,1.5 0 0 0 6,47.91" fill="#EED49F" style="stroke:#24273A;stroke-width:0.5;"/><path d="M191.4932,46.41 L191.4932,55.66 A0.75,0.75 0 0 0 192.2432,56.41 L201.4932,56.41 L191.4932,46.41" fill="#EED49F" style="stroke:#24273A;stroke-width:1;"/><text fill="#24273A" font-family="Helvetica" font-size="12" lengthAdjust="spacing" textLength="114.4328" x="12" y="64.2381">Witness implements</text><text fill="#24273A" font-family="Helvetica" font-size="12" lengthAdjust="spacing" textLength="174.4932" x="12" y="80.5822">WitnessArity&lt;TypeArity.Unary&gt;</text></g><!--class Kind--><g class="entity" data-entity="Kind" data-source-line="7" data-uid="ent0003" id="entity_Kind"><rect fill="#24273A" height="31.792" rx="1.5" ry="1.5" style="stroke:#C6A0F6;stroke-width:2;" width="215.1331" x="288.18" y="523.82"/><rect fill="#363A4F" height="31.792" rx="1.5" ry="1.5" style="stroke:#363A4F;stroke-width:2;" width="215.1331" x="288.18" y="523.82"/><rect fill="#363A4F" height="1.5" style="stroke:#363A4F;stroke-width:2;" width="215.1331" x="288.18" y="554.112"/><rect fill="none" height="31.792" rx="1.5" ry="1.5" style="stroke:#C6A0F6;stroke-width:2;" width="215.1331" x="288.18" y="523.82"/><ellipse cx="302.18" cy="539.716" fill="#B4A7E5" rx="10" ry="10" style="stroke:#181818;stroke-width:1;"/><path d="M299.7581,544.216 L299.7581,543.0129 L301.43,542.8254 L301.43,537.0441 L299.7581,536.841 L299.7581,535.6535 L304.805,535.6535 L304.805,536.841 L303.1019,537.0441 L303.1019,542.8254 L304.805,543.0129 L304.805,544.216 L299.7581,544.216 Z " fill="#CAD3F5"/><text fill="#A6DA95" font-family="Helvetica" font-size="16" font-style="italic" lengthAdjust="spacing" textLength="31.6481" x="315.18" y="545.924">Kind</text><rect fill="#24273A" height="18.3441" style="stroke:#C6A0F6;stroke-width:1;stroke-dasharray:2,2;" width="151.485" x="354.8281" y="520.82"/><text fill="#CAD3F5" font-family="Helvetica" font-size="12" font-style="italic" lengthAdjust="spacing" textLength="149.485" x="355.8281" y="534.6481">F extends WitnessArity&lt;?&gt;, A</text></g><!--class TrampolineKind<A>--><g class="entity" data-entity="TrampolineKind.A." data-source-line="9" data-uid="ent0004" id="entity_TrampolineKind.A."><rect fill="#24273A" height="56.1362" rx="1.5" ry="1.5" style="stroke:#C6A0F6;stroke-width:2;" width="328.5743" x="231.46" y="389.68"/><rect fill="#363A4F" height="31.792" rx="1.5" ry="1.5" style="stroke:#363A4F;stroke-width:2;" width="328.5743" x="231.46" y="389.68"/><rect fill="#363A4F" height="1.5" style="stroke:#363A4F;stroke-width:2;" width="328.5743" x="231.46" y="419.972"/><rect fill="none" height="56.1362" rx="1.5" ry="1.5" style="stroke:#C6A0F6;stroke-width:2;" width="328.5743" x="231.46" y="389.68"/><ellipse cx="321.651" cy="405.576" fill="#B4A7E5" rx="10" ry="10" style="stroke:#181818;stroke-width:1;"/><path d="M319.2291,410.076 L319.2291,408.8729 L320.901,408.6854 L320.901,402.9041 L319.2291,402.701 L319.2291,401.5135 L324.276,401.5135 L324.276,402.701 L322.5729,402.9041 L322.5729,408.6854 L324.276,408.8729 L324.276,410.076 L319.2291,410.076 Z " fill="#CAD3F5"/><text fill="#A6DA95" font-family="Helvetica" font-size="16" font-style="italic" lengthAdjust="spacing" textLength="140.1923" x="340.651" y="411.784">TrampolineKind&lt;A&gt;</text><line style="stroke:#C6A0F6;stroke-width:2;" x1="232.46" x2="559.0343" y1="421.472" y2="421.472"/><text fill="#A6DA95" font-family="Helvetica" font-size="12" lengthAdjust="spacing" textLength="316.5743" x="237.46" y="438.3001">{nested} class Witness implements WitnessArity&lt;Unary&gt;</text></g><!--class TrampolineKindHelper--><g class="entity" data-entity="TrampolineKindHelper" data-source-line="13" data-uid="ent0005" id="entity_TrampolineKindHelper"><rect fill="#24273A" height="121.5126" rx="1.5" ry="1.5" style="stroke:#C6A0F6;stroke-width:2;" width="430.1589" x="236.67" y="7"/><rect fill="#363A4F" height="31.792" rx="1.5" ry="1.5" style="stroke:#363A4F;stroke-width:2;" width="430.1589" x="236.67" y="7"/><rect fill="#363A4F" height="1.5" style="stroke:#363A4F;stroke-width:2;" width="430.1589" x="236.67" y="37.292"/><rect fill="none" height="121.5126" rx="1.5" ry="1.5" style="stroke:#C6A0F6;stroke-width:2;" width="430.1589" x="236.67" y="7"/><ellipse cx="362.5653" cy="22.896" fill="#ADD1B2" rx="10" ry="10" style="stroke:#181818;stroke-width:1;"/><path d="M362.284,27.521 Q361.034,27.521 360.2371,27.0054 Q359.4403,26.4741 359.0496,25.521 Q358.659,24.5679 358.659,23.2866 Q358.659,21.8648 359.1278,20.8491 Q359.5965,19.8179 360.5028,19.271 Q361.409,18.7085 362.7215,18.7085 Q363.3465,18.7085 363.8153,18.8335 Q364.2996,18.9585 364.784,19.1929 L364.2059,20.6304 Q363.7684,20.396 363.3778,20.3179 Q363.0028,20.2398 362.659,20.2398 Q361.8309,20.2398 361.3309,20.6148 Q360.8465,20.9741 360.6278,21.646 Q360.4246,22.3179 360.4246,23.2241 Q360.4246,24.6304 360.9246,25.3179 Q361.4403,25.9898 362.5653,25.9898 Q362.9871,25.9898 363.4246,25.8804 Q363.8621,25.771 364.4559,25.5054 L364.4559,27.0679 Q363.9403,27.3023 363.3778,27.4116 Q362.8153,27.521 362.284,27.521 Z " fill="#CAD3F5"/><text fill="#A6DA95" font-family="Helvetica" font-size="16" lengthAdjust="spacing" textLength="170.3683" x="381.5653" y="29.104">TrampolineKindHelper</text><line style="stroke:#C6A0F6;stroke-width:2;" x1="237.67" x2="665.8289" y1="38.792" y2="38.792"/><ellipse cx="247.67" cy="52.4641" fill="#84BE84" rx="3" ry="3" style="stroke:#038048;stroke-width:1;"/><text fill="#A6DA95" font-family="Helvetica" font-size="12" lengthAdjust="spacing" text-decoration="underline" textLength="354.9385" x="255.67" y="55.6201">Trampoline&lt;A&gt; narrow(Kind&lt;TrampolineKind.Witness, A&gt; kind)</text><ellipse cx="247.67" cy="68.8082" fill="#84BE84" rx="3" ry="3" style="stroke:#038048;stroke-width:1;"/><text fill="#A6DA95" font-family="Helvetica" font-size="12" lengthAdjust="spacing" text-decoration="underline" textLength="386.2347" x="255.67" y="71.9642">Kind&lt;TrampolineKind.Witness, A&gt; widen(Trampoline&lt;A&gt; trampoline)</text><ellipse cx="247.67" cy="85.1523" fill="#84BE84" rx="3" ry="3" style="stroke:#038048;stroke-width:1;"/><text fill="#A6DA95" font-family="Helvetica" font-size="12" lengthAdjust="spacing" text-decoration="underline" textLength="270.4939" x="255.67" y="88.3084">Kind&lt;TrampolineKind.Witness, A&gt; done(A value)</text><ellipse cx="247.67" cy="101.4964" fill="#84BE84" rx="3" ry="3" style="stroke:#038048;stroke-width:1;"/><text fill="#A6DA95" font-family="Helvetica" font-size="12" lengthAdjust="spacing" text-decoration="underline" textLength="405.1589" x="255.67" y="104.6525">Kind&lt;TrampolineKind.Witness, A&gt; defer(Supplier&lt;Trampoline&lt;A&gt;&gt; next)</text><ellipse cx="247.67" cy="117.8406" fill="#84BE84" rx="3" ry="3" style="stroke:#038048;stroke-width:1;"/><text fill="#A6DA95" font-family="Helvetica" font-size="12" lengthAdjust="spacing" text-decoration="underline" textLength="255.6498" x="255.67" y="120.9966">A run(Kind&lt;TrampolineKind.Witness, A&gt; kind)</text></g><!--class Trampoline<A>--><g class="entity" data-entity="Trampoline.A." data-source-line="21" data-uid="ent0006" id="entity_Trampoline.A."><rect fill="#24273A" height="105.1685" rx="1.5" ry="1.5" style="stroke:#C6A0F6;stroke-width:2;" width="311.67" x="493.91" y="206.51"/><rect fill="#363A4F" height="48.1362" rx="1.5" ry="1.5" style="stroke:#363A4F;stroke-width:2;" width="311.67" x="493.91" y="206.51"/><rect fill="#363A4F" height="1.5" style="stroke:#363A4F;stroke-width:2;" width="311.67" x="493.91" y="253.1462"/><rect fill="none" height="105.1685" rx="1.5" ry="1.5" style="stroke:#C6A0F6;stroke-width:2;" width="311.67" x="493.91" y="206.51"/><ellipse cx="591.4729" cy="230.5781" fill="#B4A7E5" rx="10" ry="10" style="stroke:#181818;stroke-width:1;"/><path d="M589.051,235.0781 L589.051,233.875 L590.7229,233.6875 L590.7229,227.9062 L589.051,227.7031 L589.051,226.5156 L594.0979,226.5156 L594.0979,227.7031 L592.3948,227.9062 L592.3948,233.6875 L594.0979,233.875 L594.0979,235.0781 L589.051,235.0781 Z " fill="#CAD3F5"/><text fill="#CAD3F5" font-family="Helvetica" font-size="12" font-style="italic" lengthAdjust="spacing" textLength="95.4367" x="617.0267" y="224.3381">&#171;sealed interface&#187;</text><text fill="#A6DA95" font-family="Helvetica" font-size="16" font-style="italic" lengthAdjust="spacing" textLength="108.5442" x="610.4729" y="244.9581">Trampoline&lt;A&gt;</text><line style="stroke:#C6A0F6;stroke-width:2;" x1="494.91" x2="804.58" y1="254.6462" y2="254.6462"/><ellipse cx="504.91" cy="268.3182" fill="#84BE84" rx="3" ry="3" style="stroke:#038048;stroke-width:1;"/><text fill="#A6DA95" font-family="Helvetica" font-size="12" lengthAdjust="spacing" textLength="37.7763" x="512.91" y="271.4742">A run()</text><ellipse cx="504.91" cy="284.6623" fill="#84BE84" rx="3" ry="3" style="stroke:#038048;stroke-width:1;"/><text fill="#A6DA95" font-family="Helvetica" font-size="12" font-weight="bold" lengthAdjust="spacing" textLength="68.3885" x="516.03" y="287.8184">Trampoline</text><text fill="#A6DA95" font-family="Helvetica" font-size="12" font-weight="bold" lengthAdjust="spacing" textLength="131.4009" x="587.5385" y="287.8184">map(Function&lt;A, B&gt; f)</text><ellipse cx="504.91" cy="301.0064" fill="#84BE84" rx="3" ry="3" style="stroke:#038048;stroke-width:1;"/><text fill="#A6DA95" font-family="Helvetica" font-size="12" font-weight="bold" lengthAdjust="spacing" textLength="68.3885" x="516.03" y="304.1625">Trampoline</text><text fill="#A6DA95" font-family="Helvetica" font-size="12" font-weight="bold" lengthAdjust="spacing" textLength="193.3453" x="587.5385" y="304.1625">flatMap(Function&lt;A, Trampoline</text><text fill="#A6DA95" font-family="Helvetica" font-size="12" font-weight="bold" lengthAdjust="spacing" textLength="18.6961" x="780.8839" y="304.1625">&gt; f)</text></g><!--link Trampoline<A> to TrampolineKind<A>--><g class="link" data-entity-1="Trampoline.A." data-entity-2="TrampolineKind.A." data-source-line="27" data-uid="lnk7" id="link_Trampoline.A._TrampolineKind.A."><path codeLine="27" d="M565.52,312.04 C523.64,337.87 490.061,358.5819 455.521,379.8819" fill="none" id="Trampoline&lt;A&gt;-to-TrampolineKind&lt;A&gt;" style="stroke:#F5BDE6;stroke-width:1;stroke-dasharray:7,7;"/><polygon fill="none" points="440.2,389.33,458.6704,384.9889,452.3716,374.7749,440.2,389.33" style="stroke:#F5BDE6;stroke-width:1;"/><text fill="#CAD3F5" font-family="Helvetica" font-size="12" lengthAdjust="spacing" textLength="67.0445" x="516.13" y="355.5081">implements</text></g><!--link TrampolineKind<A> to Kind--><g class="link" data-entity-1="TrampolineKind.A." data-entity-2="Kind" data-source-line="28" data-uid="lnk8" id="link_TrampolineKind.A._Kind"><path codeLine="28" d="M395.75,446.27 C395.75,470.21 395.75,486.01 395.75,505.41" fill="none" id="TrampolineKind&lt;A&gt;-to-Kind" style="stroke:#F5BDE6;stroke-width:1;"/><polygon fill="none" points="395.75,523.41,401.75,505.41,389.75,505.41,395.75,523.41" style="stroke:#F5BDE6;stroke-width:1;"/><text fill="#CAD3F5" font-family="Helvetica" font-size="12" lengthAdjust="spacing" textLength="165.1332" x="396.75" y="489.6481">&lt;TrampolineKind.Witness, A&gt;</text></g><!--link TrampolineKindHelper to Trampoline<A>--><g class="link" data-entity-1="TrampolineKindHelper" data-entity-2="Trampoline.A." data-source-line="29" data-uid="lnk9" id="link_TrampolineKindHelper_Trampoline.A."><path codeLine="29" d="M514.67,128.93 C540.6,153.72 566.0238,178.0331 590.9938,201.9131" fill="none" id="TrampolineKindHelper-to-Trampoline&lt;A&gt;" style="stroke:#F5BDE6;stroke-width:1;stroke-dasharray:7,7;"/><polygon fill="#F5BDE6" points="595.33,206.06,591.5903,196.9488,591.7165,202.6042,586.061,202.7304,595.33,206.06" style="stroke:#F5BDE6;stroke-width:1;"/><text fill="#CAD3F5" font-family="Helvetica" font-size="12" lengthAdjust="spacing" textLength="90.8047" x="563.6" y="172.3381">widens/narrows</text></g><!--link TrampolineKindHelper to TrampolineKind<A>--><g class="link" data-entity-1="TrampolineKindHelper" data-entity-2="TrampolineKind.A." data-source-line="30" data-uid="lnk10" id="link_TrampolineKindHelper_TrampolineKind.A."><path codeLine="30" d="M415.14,128.95 C402.94,152.31 390.89,179.82 384.75,206.51 C369.94,270.8 380.3033,343.0665 388.4033,383.5665" fill="none" id="TrampolineKindHelper-to-TrampolineKind&lt;A&gt;" style="stroke:#F5BDE6;stroke-width:1;stroke-dasharray:7,7;"/><polygon fill="#F5BDE6" points="389.58,389.45,391.7373,379.8403,388.5994,384.5471,383.8926,381.4092,389.58,389.45" style="stroke:#F5BDE6;stroke-width:1;"/><text fill="#CAD3F5" font-family="Helvetica" font-size="12" lengthAdjust="spacing" textLength="90.8047" x="385.75" y="263.9281">widens/narrows</text></g><!--SRC=[bLBDRjim3BxhARYSFAosxu7XmJqK0uRjqWwxxABAJ2rKeWM9RXPaUVUnTX3OMRgsDv7u_aJoWoNZXXQXOmvfNPPHRui7ozrmFoICfYT6uiBqlYJJ9zQvDQNH7C9WZANSQsCwgxdFWzF4WtSvT-YnzDfIEJwB85sbEYikw0FlmAE_nvYKefuHLZyj4wO4rWSdUEBqYuwz9bhULNUxWEEh-44wxkeLw0H7n7UHKCfApBZH1k6hfRQw0VmjkTiJQjBvN5z1Ky_HgxkeVUYT9Ho9ZMZl5S1UI8pj0OpJwQGoIxWKdcAfWr8JVgdw1Lt0EEf-WhtCaAqvp33Y2Y8G-sqsXbYoYwFJStHubCR7fSvhbAtCdRAb6v-gTugrFM7Mm9DsmxkfkC6OtGuXE8knMWII_yl2pWGRY0EzSIA75vOwBhIg4cg7BPmWOZXjO_AOZAlhUhuKgRmEsSr0XcrFLNC5qjgyXDqupT_Ey0l4o9MSv-cAuazzyGxNitDJbm1vBipdIg3_6P6wU8r5KVypgFLqBAcShZ6zYJdBUyR-2m00]--></g></svg>