<?xml version="1.0" encoding="UTF-8" standalone="no"?><svg xmlns="http://www.w3.org/2000/svg" xmlns:xlink="http://www.w3.org/1999/xlink" contentScriptType="application/ecmascript" contentStyleType="text/css" height="779px" preserveAspectRatio="none" style="width:1134px;height:779px;" version="1.1" viewBox="0 0 1134 779" width="1134px" zoomAndPan="magnify"><defs><filter height="300%" id="fsn8onsz3hw0r" width="300%" x="-1" y="-1"><feGaussianBlur result="blurOut" stdDeviation="2.0"/><feColorMatrix in="blurOut" result="blurOut2" type="matrix" values="0 0 0 0 0 0 0 0 0 0 0 0 0 0 0 0 0 0 .4 0"/><feOffset dx="4.0" dy="4.0" in="blurOut2" result="blurOut3"/><feBlend in="SourceGraphic" in2="blurOut3" mode="normal"/></filter></defs><g><!--MD5=[4f347979e1a00d433aec894ae4d0a099]
class Kind--><rect fill="#FEFECE" filter="url(#fsn8onsz3hw0r)" height="32" id="Kind" style="stroke: #A80036; stroke-width: 1.5;" width="85" x="752.5" y="736"/><ellipse cx="767.5" cy="752" fill="#B4A7E5" rx="11" ry="11" style="stroke: #A80036; stroke-width: 1.0;"/><path d="M763.4219,747.7656 L763.4219,745.6094 L770.8125,745.6094 L770.8125,747.7656 L768.3438,747.7656 L768.3438,755.8438 L770.8125,755.8438 L770.8125,758 L763.4219,758 L763.4219,755.8438 L765.8906,755.8438 L765.8906,747.7656 L763.4219,747.7656 Z "/><text fill="#000000" font-family="sans-serif" font-size="12" font-style="italic" lengthAdjust="spacingAndGlyphs" textLength="26" x="781.5" y="756.1543">Kind</text><rect fill="#FFFFFF" height="15.9688" style="stroke: #000000; stroke-width: 1.0; stroke-dasharray: 2.0,2.0;" width="25" x="815.5" y="733"/><text fill="#000000" font-family="sans-serif" font-size="12" font-style="italic" lengthAdjust="spacingAndGlyphs" textLength="23" x="816.5" y="745.1387">F, A</text><!--MD5=[b13f0f3a4629b291b71b7010093425b4]
class Functor--><rect fill="#FEFECE" filter="url(#fsn8onsz3hw0r)" height="32" id="Functor" style="stroke: #A80036; stroke-width: 1.5;" width="91" x="605.5" y="8"/><ellipse cx="620.5" cy="24" fill="#B4A7E5" rx="11" ry="11" style="stroke: #A80036; stroke-width: 1.0;"/><path d="M616.4219,19.7656 L616.4219,17.6094 L623.8125,17.6094 L623.8125,19.7656 L621.3438,19.7656 L621.3438,27.8438 L623.8125,27.8438 L623.8125,30 L616.4219,30 L616.4219,27.8438 L618.8906,27.8438 L618.8906,19.7656 L616.4219,19.7656 Z "/><text fill="#000000" font-family="sans-serif" font-size="12" font-style="italic" lengthAdjust="spacingAndGlyphs" textLength="48" x="634.5" y="28.1543">Functor</text><rect fill="#FFFFFF" height="15.9688" style="stroke: #000000; stroke-width: 1.0; stroke-dasharray: 2.0,2.0;" width="9" x="690.5" y="5"/><text fill="#000000" font-family="sans-serif" font-size="12" font-style="italic" lengthAdjust="spacingAndGlyphs" textLength="7" x="691.5" y="17.1387">F</text><!--MD5=[174c4d2ca358e31fff53dc5dd8cfdcbd]
class Applicative--><rect fill="#FEFECE" filter="url(#fsn8onsz3hw0r)" height="32" id="Applicative" style="stroke: #A80036; stroke-width: 1.5;" width="110" x="492" y="101"/><ellipse cx="507" cy="117" fill="#B4A7E5" rx="11" ry="11" style="stroke: #A80036; stroke-width: 1.0;"/><path d="M502.9219,112.7656 L502.9219,110.6094 L510.3125,110.6094 L510.3125,112.7656 L507.8438,112.7656 L507.8438,120.8438 L510.3125,120.8438 L510.3125,123 L502.9219,123 L502.9219,120.8438 L505.3906,120.8438 L505.3906,112.7656 L502.9219,112.7656 Z "/><text fill="#000000" font-family="sans-serif" font-size="12" font-style="italic" lengthAdjust="spacingAndGlyphs" textLength="67" x="521" y="121.1543">Applicative</text><rect fill="#FFFFFF" height="15.9688" style="stroke: #000000; stroke-width: 1.0; stroke-dasharray: 2.0,2.0;" width="9" x="596" y="98"/><text fill="#000000" font-family="sans-serif" font-size="12" font-style="italic" lengthAdjust="spacingAndGlyphs" textLength="7" x="597" y="110.1387">F</text><!--MD5=[6d65940f8ffb0d0b3d9f51f76c77918b]
class Monad--><rect fill="#FEFECE" filter="url(#fsn8onsz3hw0r)" height="32" id="Monad" style="stroke: #A80036; stroke-width: 1.5;" width="85" x="510.5" y="246"/><ellipse cx="525.5" cy="262" fill="#B4A7E5" rx="11" ry="11" style="stroke: #A80036; stroke-width: 1.0;"/><path d="M521.4219,257.7656 L521.4219,255.6094 L528.8125,255.6094 L528.8125,257.7656 L526.3438,257.7656 L526.3438,265.8438 L528.8125,265.8438 L528.8125,268 L521.4219,268 L521.4219,265.8438 L523.8906,265.8438 L523.8906,257.7656 L521.4219,257.7656 Z "/><text fill="#000000" font-family="sans-serif" font-size="12" font-style="italic" lengthAdjust="spacingAndGlyphs" textLength="42" x="539.5" y="266.1543">Monad</text><rect fill="#FFFFFF" height="15.9688" style="stroke: #000000; stroke-width: 1.0; stroke-dasharray: 2.0,2.0;" width="9" x="589.5" y="243"/><text fill="#000000" font-family="sans-serif" font-size="12" font-style="italic" lengthAdjust="spacingAndGlyphs" textLength="7" x="590.5" y="255.1387">F</text><!--MD5=[28d52073249a0b116d31abbc50a9a270]
class TrampolineFunctor--><rect fill="#FEFECE" filter="url(#fsn8onsz3hw0r)" height="52.8047" id="TrampolineFunctor" style="stroke: #A80036; stroke-width: 1.5;" width="569" x="470.5" y="163"/><ellipse cx="692.25" cy="179" fill="#ADD1B2" rx="11" ry="11" style="stroke: #A80036; stroke-width: 1.0;"/><path d="M695.2188,184.6406 Q694.6406,184.9375 694,185.0781 Q693.3594,185.2344 692.6563,185.2344 Q690.1563,185.2344 688.8281,183.5938 Q687.5156,181.9375 687.5156,178.8125 Q687.5156,175.6875 688.8281,174.0313 Q690.1563,172.375 692.6563,172.375 Q693.3594,172.375 694,172.5313 Q694.6563,172.6875 695.2188,172.9844 L695.2188,175.7031 Q694.5938,175.125 694,174.8594 Q693.4063,174.5781 692.7813,174.5781 Q691.4375,174.5781 690.75,175.6563 Q690.0625,176.7188 690.0625,178.8125 Q690.0625,180.9063 690.75,181.9844 Q691.4375,183.0469 692.7813,183.0469 Q693.4063,183.0469 694,182.7813 Q694.5938,182.5 695.2188,181.9219 L695.2188,184.6406 Z "/><text fill="#000000" font-family="sans-serif" font-size="12" lengthAdjust="spacingAndGlyphs" textLength="117" x="712.75" y="183.1543">TrampolineFunctor</text><line style="stroke: #A80036; stroke-width: 1.5;" x1="471.5" x2="1038.5" y1="195" y2="195"/><ellipse cx="481.5" cy="206" fill="#84BE84" rx="3" ry="3" style="stroke: #038048; stroke-width: 1.0;"/><text fill="#000000" font-family="sans-serif" font-size="11" lengthAdjust="spacingAndGlyphs" textLength="543" x="490.5" y="209.2104">Kind&lt;TrampolineKind.Witness, B&gt; map(Function&lt;A, B&gt; f, Kind&lt;TrampolineKind.Witness, A&gt; fa)</text><!--MD5=[34188d729946aff5cf21d9066f10d2c4]
class TrampolineMonad--><rect fill="#FEFECE" filter="url(#fsn8onsz3hw0r)" height="65.6094" id="TrampolineMonad" style="stroke: #A80036; stroke-width: 1.5;" width="778" x="238" y="339"/><ellipse cx="567.25" cy="355" fill="#ADD1B2" rx="11" ry="11" style="stroke: #A80036; stroke-width: 1.0;"/><path d="M570.2188,360.6406 Q569.6406,360.9375 569,361.0781 Q568.3594,361.2344 567.6563,361.2344 Q565.1563,361.2344 563.8281,359.5938 Q562.5156,357.9375 562.5156,354.8125 Q562.5156,351.6875 563.8281,350.0313 Q565.1563,348.375 567.6563,348.375 Q568.3594,348.375 569,348.5313 Q569.6563,348.6875 570.2188,348.9844 L570.2188,351.7031 Q569.5938,351.125 569,350.8594 Q568.4063,350.5781 567.7813,350.5781 Q566.4375,350.5781 565.75,351.6563 Q565.0625,352.7188 565.0625,354.8125 Q565.0625,356.9063 565.75,357.9844 Q566.4375,359.0469 567.7813,359.0469 Q568.4063,359.0469 569,358.7813 Q569.5938,358.5 570.2188,357.9219 L570.2188,360.6406 Z "/><text fill="#000000" font-family="sans-serif" font-size="12" lengthAdjust="spacingAndGlyphs" textLength="111" x="587.75" y="359.1543">TrampolineMonad</text><line style="stroke: #A80036; stroke-width: 1.5;" x1="239" x2="1015" y1="371" y2="371"/><ellipse cx="249" cy="382" fill="#84BE84" rx="3" ry="3" style="stroke: #038048; stroke-width: 1.0;"/><text fill="#000000" font-family="sans-serif" font-size="11" lengthAdjust="spacingAndGlyphs" textLength="257" x="258" y="385.2104">Kind&lt;TrampolineKind.Witness, A&gt; of(A value)</text><ellipse cx="249" cy="394.8047" fill="#84BE84" rx="3" ry="3" style="stroke: #038048; stroke-width: 1.0;"/><text fill="#000000" font-family="sans-serif" font-size="11" lengthAdjust="spacingAndGlyphs" textLength="752" x="258" y="398.0151">Kind&lt;TrampolineKind.Witness, B&gt; flatMap(Function&lt;A, Kind&lt;TrampolineKind.Witness, B&gt;&gt; f, Kind&lt;TrampolineKind.Witness, A&gt; ma)</text><!--MD5=[6d663b8221b859d3b153bd444bab05ae]
class TrampolineKindHelper--><rect fill="#FEFECE" filter="url(#fsn8onsz3hw0r)" height="65.6094" id="TrampolineKindHelper" style="stroke: #A80036; stroke-width: 1.5;" width="418" x="6" y="491"/><ellipse cx="142.75" cy="507" fill="#ADD1B2" rx="11" ry="11" style="stroke: #A80036; stroke-width: 1.0;"/><path d="M145.7188,512.6406 Q145.1406,512.9375 144.5,513.0781 Q143.8594,513.2344 143.1563,513.2344 Q140.6563,513.2344 139.3281,511.5938 Q138.0156,509.9375 138.0156,506.8125 Q138.0156,503.6875 139.3281,502.0313 Q140.6563,500.375 143.1563,500.375 Q143.8594,500.375 144.5,500.5313 Q145.1563,500.6875 145.7188,500.9844 L145.7188,503.7031 Q145.0938,503.125 144.5,502.8594 Q143.9063,502.5781 143.2813,502.5781 Q141.9375,502.5781 141.25,503.6563 Q140.5625,504.7188 140.5625,506.8125 Q140.5625,508.9063 141.25,509.9844 Q141.9375,511.0469 143.2813,511.0469 Q143.9063,511.0469 144.5,510.7813 Q145.0938,510.5 145.7188,509.9219 L145.7188,512.6406 Z "/><text fill="#000000" font-family="sans-serif" font-size="12" lengthAdjust="spacingAndGlyphs" textLength="136" x="163.25" y="511.1543">TrampolineKindHelper</text><line style="stroke: #A80036; stroke-width: 1.5;" x1="7" x2="423" y1="523" y2="523"/><ellipse cx="17" cy="534" fill="#84BE84" rx="3" ry="3" style="stroke: #038048; stroke-width: 1.0;"/><text fill="#000000" font-family="sans-serif" font-size="11" lengthAdjust="spacingAndGlyphs" text-decoration="underline" textLength="361" x="26" y="537.2104">Trampoline&lt;A&gt; narrow(Kind&lt;TrampolineKind.Witness, A&gt; kind)</text><ellipse cx="17" cy="546.8047" fill="#84BE84" rx="3" ry="3" style="stroke: #038048; stroke-width: 1.0;"/><text fill="#000000" font-family="sans-serif" font-size="11" lengthAdjust="spacingAndGlyphs" text-decoration="underline" textLength="392" x="26" y="550.0151">Kind&lt;TrampolineKind.Witness, A&gt; widen(Trampoline&lt;A&gt; trampoline)</text><!--MD5=[b1f1d0d6a1403d593861efcf76156c01]
class Trampoline<A>--><rect fill="#FEFECE" filter="url(#fsn8onsz3hw0r)" height="84.3516" id="Trampoline&lt;A&gt;" style="stroke: #A80036; stroke-width: 1.5;" width="336" x="459" y="482"/><ellipse cx="566.75" cy="500.9688" fill="#B4A7E5" rx="11" ry="11" style="stroke: #A80036; stroke-width: 1.0;"/><path d="M562.6719,496.7344 L562.6719,494.5781 L570.0625,494.5781 L570.0625,496.7344 L567.5938,496.7344 L567.5938,504.8125 L570.0625,504.8125 L570.0625,506.9688 L562.6719,506.9688 L562.6719,504.8125 L565.1406,504.8125 L565.1406,496.7344 L562.6719,496.7344 Z "/><text fill="#000000" font-family="sans-serif" font-size="12" font-style="italic" lengthAdjust="spacingAndGlyphs" textLength="116" x="585.25" y="498.1387">«sealed interface»</text><text fill="#000000" font-family="sans-serif" font-size="12" font-style="italic" lengthAdjust="spacingAndGlyphs" textLength="97" x="594.75" y="512.1074">Trampoline&lt;A&gt;</text><line style="stroke: #A80036; stroke-width: 1.5;" x1="460" x2="794" y1="519.9375" y2="519.9375"/><ellipse cx="470" cy="530.9375" fill="#84BE84" rx="3" ry="3" style="stroke: #038048; stroke-width: 1.0;"/><text fill="#000000" font-family="sans-serif" font-size="11" lengthAdjust="spacingAndGlyphs" textLength="38" x="479" y="534.1479">A run()</text><ellipse cx="470" cy="543.7422" fill="#84BE84" rx="3" ry="3" style="stroke: #038048; stroke-width: 1.0;"/><text fill="#000000" font-family="sans-serif" font-size="11" font-weight="bold" lengthAdjust="spacingAndGlyphs" textLength="72" x="483" y="546.9526">Trampoline</text><text fill="#000000" font-family="sans-serif" font-size="11" font-weight="bold" lengthAdjust="spacingAndGlyphs" textLength="145" x="559" y="546.9526">map(Function&lt;A, B&gt; f)</text><ellipse cx="470" cy="556.5469" fill="#84BE84" rx="3" ry="3" style="stroke: #038048; stroke-width: 1.0;"/><text fill="#000000" font-family="sans-serif" font-size="11" font-weight="bold" lengthAdjust="spacingAndGlyphs" textLength="72" x="483" y="559.7573">Trampoline</text><text fill="#000000" font-family="sans-serif" font-size="11" font-weight="bold" lengthAdjust="spacingAndGlyphs" textLength="207" x="559" y="559.7573">flatMap(Function&lt;A, Trampoline</text><text fill="#000000" font-family="sans-serif" font-size="11" font-weight="bold" lengthAdjust="spacingAndGlyphs" textLength="23" x="766" y="559.7573">&gt; f)</text><!--MD5=[d78f02d7e706ce436611852ea7cb1d16]
class TrampolineKind<A>--><rect fill="#FEFECE" filter="url(#fsn8onsz3hw0r)" height="32" id="TrampolineKind&lt;A&gt;" style="stroke: #A80036; stroke-width: 1.5;" width="155" x="717.5" y="627"/><ellipse cx="732.5" cy="643" fill="#B4A7E5" rx="11" ry="11" style="stroke: #A80036; stroke-width: 1.0;"/><path d="M728.4219,638.7656 L728.4219,636.6094 L735.8125,636.6094 L735.8125,638.7656 L733.3438,638.7656 L733.3438,646.8438 L735.8125,646.8438 L735.8125,649 L728.4219,649 L728.4219,646.8438 L730.8906,646.8438 L730.8906,638.7656 L728.4219,638.7656 Z "/><text fill="#000000" font-family="sans-serif" font-size="12" font-style="italic" lengthAdjust="spacingAndGlyphs" textLength="123" x="746.5" y="647.1543">TrampolineKind&lt;A&gt;</text><!--MD5=[e258e529cec17422ce5b2121507bf23c]
reverse link Functor to Applicative--><path d="M618.64,53.32 C600.64,69.07 578.96,88.03 564.2,100.95 " fill="none" id="Functor&lt;-Applicative" style="stroke: #A80036; stroke-width: 1.0;"/><polygon fill="none" points="614.17,47.93,633.83,40.03,623.38,58.46,614.17,47.93" style="stroke: #A80036; stroke-width: 1.0;"/><!--MD5=[8879b73344b3e6548c8a91e3ac56fad3]
reverse link Applicative to Monad--><path d="M486.25,143.85 C479.38,149.2 473.31,155.54 469,163 C457.22,183.4 456.9,195.79 469,216 C478.18,231.33 494.56,241.73 510.44,248.64 " fill="none" id="Applicative&lt;-Monad" style="stroke: #A80036; stroke-width: 1.0;"/><polygon fill="none" points="482.65,137.85,503.3,133.1,490.12,149.69,482.65,137.85" style="stroke: #A80036; stroke-width: 1.0;"/><!--MD5=[7468890d74ff3961e3ca08741fe96e67]
reverse link Functor to TrampolineFunctor--><path d="M671.41,57.08 C691.09,88.02 720.49,134.24 738.66,162.82 " fill="none" id="Functor&lt;-TrampolineFunctor" style="stroke: #A80036; stroke-width: 1.0; stroke-dasharray: 7.0,7.0;"/><polygon fill="none" points="665.43,60.72,660.6,40.09,677.24,53.21,665.43,60.72" style="stroke: #A80036; stroke-width: 1.0;"/><!--MD5=[385f0d4c66b921c1a3354fe3ea6756be]
reverse link TrampolineFunctor to TrampolineMonad--><path d="M724.86,233 C701.9,265.38 670.78,309.27 649.85,338.78 " fill="none" id="TrampolineFunctor&lt;-TrampolineMonad" style="stroke: #A80036; stroke-width: 1.0;"/><polygon fill="none" points="719.38,228.63,736.66,216.36,730.8,236.72,719.38,228.63" style="stroke: #A80036; stroke-width: 1.0;"/><!--MD5=[f23237b529b759eb65495ea4c68ebfee]
reverse link Monad to TrampolineMonad--><path d="M574.6,294.52 C584.14,308.45 595.35,324.8 604.94,338.81 " fill="none" id="Monad&lt;-TrampolineMonad" style="stroke: #A80036; stroke-width: 1.0; stroke-dasharray: 7.0,7.0;"/><polygon fill="none" points="568.82,298.47,563.29,278.02,580.37,290.56,568.82,298.47" style="stroke: #A80036; stroke-width: 1.0;"/><!--MD5=[5529d77502403984211f34f23e66983f]
link TrampolineMonad to TrampolineKindHelper--><path d="M538.87,405.09 C470.88,429.84 377.09,463.99 307.93,489.17 " fill="none" id="TrampolineMonad-&gt;TrampolineKindHelper" style="stroke: #A80036; stroke-width: 1.0; stroke-dasharray: 7.0,7.0;"/><polygon fill="#A80036" points="302.99,490.96,312.8158,491.6339,307.6873,489.2467,310.0745,484.1182,302.99,490.96" style="stroke: #A80036; stroke-width: 1.0;"/><text fill="#000000" font-family="sans-serif" font-size="13" lengthAdjust="spacingAndGlyphs" textLength="30" x="447" y="448.0669">uses</text><!--MD5=[2d0c3c6ae4c8a90c4c141a4cd5c2f8bb]
link Trampoline<A> to TrampolineKind<A>--><path d="M686.23,566.25 C709.61,582.53 735.8,600.77 756.63,615.28 " fill="none" id="Trampoline&lt;A&gt;-&gt;TrampolineKind&lt;A&gt;" style="stroke: #A80036; stroke-width: 1.0; stroke-dasharray: 7.0,7.0;"/><polygon fill="none" points="760.93,609.74,773.34,626.91,752.93,621.23,760.93,609.74" style="stroke: #A80036; stroke-width: 1.0;"/><!--MD5=[deec3766d7934c7098b34f9c848c9f05]
link TrampolineKind<A> to Kind--><path d="M795,659.33 C795,673.95 795,696.51 795,715.58 " fill="none" id="TrampolineKind&lt;A&gt;-&gt;Kind" style="stroke: #A80036; stroke-width: 1.0;"/><polygon fill="none" points="802,715.7,795,735.7,788,715.7,802,715.7" style="stroke: #A80036; stroke-width: 1.0;"/><text fill="#000000" font-family="sans-serif" font-size="13" lengthAdjust="spacingAndGlyphs" textLength="190" x="796" y="702.0669">&lt;TrampolineKind.Witness, A&gt;</text><!--MD5=[0a8ab60c48ece1ec19f8f9c1eac3be74]
link TrampolineMonad to TrampolineKind<A>--><path d="M723.72,405.13 C758.45,422.07 793.56,446.84 812,482 C835.89,527.56 816.61,590.36 803.91,622.03 " fill="none" id="TrampolineMonad-&gt;TrampolineKind&lt;A&gt;" style="stroke: #A80036; stroke-width: 1.0; stroke-dasharray: 7.0,7.0;"/><polygon fill="#A80036" points="801.94,626.84,809.0581,620.0332,803.8387,622.2145,801.6573,616.9952,801.94,626.84" style="stroke: #A80036; stroke-width: 1.0;"/><text fill="#000000" font-family="sans-serif" font-size="13" lengthAdjust="spacingAndGlyphs" textLength="298" x="824" y="528.5669">operates on Kind&lt;TrampolineKind.Witness, A&gt;</text><!--MD5=[3dcde0c2e73e02bac06c2d2bdc1a763a]
link TrampolineMonad to Trampoline<A>--><path d="M627,405.18 C627,425.99 627,453.41 627,476.56 " fill="none" id="TrampolineMonad-&gt;Trampoline&lt;A&gt;" style="stroke: #A80036; stroke-width: 1.0; stroke-dasharray: 7.0,7.0;"/><polygon fill="#A80036" points="627,481.74,631,472.74,627,476.74,623,472.74,627,481.74" style="stroke: #A80036; stroke-width: 1.0;"/><text fill="#000000" font-family="sans-serif" font-size="13" lengthAdjust="spacingAndGlyphs" textLength="107" x="628" y="448.0669">uses methods of</text><!--MD5=[2353158f6c03994a98ec920b65f2a2fe]
@startuml trampoline_monad

hide empty members

interface Kind<F, A>
interface Functor<F>
interface Applicative<F>
interface Monad<F>

Functor <|- - Applicative
Applicative <|- - Monad

class TrampolineFunctor implements Functor {
  + Kind<TrampolineKind.Witness, B> map(Function<A, B> f, Kind<TrampolineKind.Witness, A> fa)
}

class TrampolineMonad extends TrampolineFunctor implements Monad {
  + Kind<TrampolineKind.Witness, A> of(A value)
  + Kind<TrampolineKind.Witness, B> flatMap(Function<A, Kind<TrampolineKind.Witness, B>> f, Kind<TrampolineKind.Witness, A> ma)
}

class TrampolineKindHelper {
  + {static} Trampoline<A> narrow(Kind<TrampolineKind.Witness, A> kind)
  + {static} Kind<TrampolineKind.Witness, A> widen(Trampoline<A> trampoline)
}

TrampolineMonad ..> TrampolineKindHelper : uses

interface "Trampoline<A>" <<sealed interface>> {
  + A run()
  + <B> Trampoline<B> map(Function<A, B> f)
  + <B> Trampoline<B> flatMap(Function<A, Trampoline<B>> f)
}

interface "TrampolineKind<A>"

"Trampoline<A>" ..|> "TrampolineKind<A>"
"TrampolineKind<A>" - -|> Kind : <TrampolineKind.Witness, A>

TrampolineMonad ..> "TrampolineKind<A>" : operates on Kind<TrampolineKind.Witness, A>
TrampolineMonad ..> "Trampoline<A>" : uses methods of

@enduml

PlantUML version 1.2020.02(Sun Mar 01 10:22:07 UTC 2020)
(GPL source distribution)
Java Runtime: OpenJDK Runtime Environment
JVM: OpenJDK 64-Bit Server VM
Java Version: 21.0.8+9-Ubuntu-0ubuntu124.04.1
Operating System: Linux
Default Encoding: UTF-8
Language: en
Country: US
--></g></svg>