<svg xmlns="http://www.w3.org/2000/svg" xmlns:xlink="http://www.w3.org/1999/xlink" contentStyleType="text/css" data-diagram-type="CLASS" height="285px" preserveAspectRatio="none" style="width:1073px;height:285px;background:#24273A;" version="1.1" viewBox="0 0 1073 285" width="1073px" zoomAndPan="magnify"><defs/><g><rect fill="#24273A" height="285" style="stroke:none;stroke-width:1;" width="1073" x="0" y="0"/><g class="entity" data-entity="WitnessNote" data-source-line="7" data-uid="ent0002" id="entity_WitnessNote"><path d="M556.77,31.57 L556.77,71.2582 A1.5,1.5 0 0 0 558.27,72.7582 L750.7632,72.7582 A1.5,1.5 0 0 0 752.2632,71.2582 L752.2632,40.07 L742.2632,30.07 L558.27,30.07 A1.5,1.5 0 0 0 556.77,31.57" fill="#EED49F" style="stroke:#24273A;stroke-width:0.5;"/><path d="M742.2632,30.07 L742.2632,39.32 A0.75,0.75 0 0 0 743.0132,40.07 L752.2632,40.07 L742.2632,30.07" fill="#EED49F" style="stroke:#24273A;stroke-width:1;"/><text fill="#24273A" font-family="Helvetica" font-size="12" lengthAdjust="spacing" textLength="134.389" x="562.77" y="47.8981">Witness&lt;F&gt; implements</text><text fill="#24273A" font-family="Helvetica" font-size="12" lengthAdjust="spacing" textLength="174.4932" x="562.77" y="64.2422">WitnessArity&lt;TypeArity.Unary&gt;</text></g><!--class Kind<F extends WitnessArity<?>, A>--><g class="entity" data-entity="Kind.F extends WitnessArity.... A." data-source-line="9" data-uid="ent0003" id="entity_Kind.F extends WitnessArity.... A."><rect fill="#24273A" height="48.1362" rx="1.5" ry="1.5" style="stroke:#C6A0F6;stroke-width:2;" width="279.2645" x="786.89" y="27.34"/><rect fill="#363A4F" height="48.1362" rx="1.5" ry="1.5" style="stroke:#363A4F;stroke-width:2;" width="279.2645" x="786.89" y="27.34"/><rect fill="#363A4F" height="1.5" style="stroke:#363A4F;stroke-width:2;" width="279.2645" x="786.89" y="73.9762"/><rect fill="none" height="48.1362" rx="1.5" ry="1.5" style="stroke:#C6A0F6;stroke-width:2;" width="279.2645" x="786.89" y="27.34"/><ellipse cx="800.89" cy="51.4081" fill="#B4A7E5" rx="10" ry="10" style="stroke:#181818;stroke-width:1;"/><path d="M798.4681,55.9081 L798.4681,54.705 L800.14,54.5175 L800.14,48.7362 L798.4681,48.5331 L798.4681,47.3456 L803.515,47.3456 L803.515,48.5331 L801.8119,48.7362 L801.8119,54.5175 L803.515,54.705 L803.515,55.9081 L798.4681,55.9081 Z " fill="#CAD3F5"/><text fill="#CAD3F5" font-family="Helvetica" font-size="12" font-style="italic" lengthAdjust="spacing" textLength="58.2964" x="909.3741" y="45.1681">&#171;interface&#187;</text><text fill="#A6DA95" font-family="Helvetica" font-size="16" font-style="italic" lengthAdjust="spacing" textLength="249.2645" x="813.89" y="65.7881">Kind&lt;F extends WitnessArity&lt;?&gt;, A&gt;</text></g><!--class FreeKind<F, A>--><g class="entity" data-entity="FreeKind.F. A." data-source-line="11" data-uid="ent0004" id="entity_FreeKind.F. A."><rect fill="#24273A" height="48.1362" rx="1.5" ry="1.5" style="stroke:#C6A0F6;stroke-width:2;" width="134.8002" x="27.12" y="202.34"/><rect fill="#363A4F" height="48.1362" rx="1.5" ry="1.5" style="stroke:#363A4F;stroke-width:2;" width="134.8002" x="27.12" y="202.34"/><rect fill="#363A4F" height="1.5" style="stroke:#363A4F;stroke-width:2;" width="134.8002" x="27.12" y="248.9762"/><rect fill="none" height="48.1362" rx="1.5" ry="1.5" style="stroke:#C6A0F6;stroke-width:2;" width="134.8002" x="27.12" y="202.34"/><ellipse cx="41.12" cy="226.4081" fill="#B4A7E5" rx="10" ry="10" style="stroke:#181818;stroke-width:1;"/><path d="M38.6981,230.9081 L38.6981,229.705 L40.37,229.5175 L40.37,223.7362 L38.6981,223.5331 L38.6981,222.3456 L43.745,222.3456 L43.745,223.5331 L42.0419,223.7362 L42.0419,229.5175 L43.745,229.705 L43.745,230.9081 L38.6981,230.9081 Z " fill="#CAD3F5"/><text fill="#CAD3F5" font-family="Helvetica" font-size="12" font-style="italic" lengthAdjust="spacing" textLength="58.2964" x="77.3719" y="220.1681">&#171;interface&#187;</text><text fill="#A6DA95" font-family="Helvetica" font-size="16" font-style="italic" lengthAdjust="spacing" textLength="104.8002" x="54.12" y="240.7881">FreeKind&lt;F, A&gt;</text></g><!--class FreeKindHelper--><g class="entity" data-entity="FreeKindHelper" data-source-line="13" data-uid="ent0005" id="entity_FreeKindHelper"><rect fill="#24273A" height="88.8244" rx="1.5" ry="1.5" style="stroke:#C6A0F6;stroke-width:2;" width="332.7062" x="189.17" y="7"/><rect fill="#363A4F" height="48.1362" rx="1.5" ry="1.5" style="stroke:#363A4F;stroke-width:2;" width="332.7062" x="189.17" y="7"/><rect fill="#363A4F" height="1.5" style="stroke:#363A4F;stroke-width:2;" width="332.7062" x="189.17" y="53.6362"/><rect fill="none" height="88.8244" rx="1.5" ry="1.5" style="stroke:#C6A0F6;stroke-width:2;" width="332.7062" x="189.17" y="7"/><ellipse cx="292.923" cy="31.0681" fill="#ADD1B2" rx="10" ry="10" style="stroke:#181818;stroke-width:1;"/><path d="M292.6417,35.6931 Q291.3917,35.6931 290.5948,35.1775 Q289.798,34.6462 289.4073,33.6931 Q289.0167,32.74 289.0167,31.4587 Q289.0167,30.0368 289.4855,29.0212 Q289.9542,27.99 290.8605,27.4431 Q291.7667,26.8806 293.0792,26.8806 Q293.7042,26.8806 294.173,27.0056 Q294.6573,27.1306 295.1417,27.365 L294.5636,28.8025 Q294.1261,28.5681 293.7355,28.49 Q293.3605,28.4118 293.0167,28.4118 Q292.1886,28.4118 291.6886,28.7868 Q291.2042,29.1462 290.9855,29.8181 Q290.7823,30.49 290.7823,31.3962 Q290.7823,32.8025 291.2823,33.49 Q291.798,34.1618 292.923,34.1618 Q293.3448,34.1618 293.7823,34.0525 Q294.2198,33.9431 294.8136,33.6775 L294.8136,35.24 Q294.298,35.4743 293.7355,35.5837 Q293.173,35.6931 292.6417,35.6931 Z " fill="#CAD3F5"/><text fill="#CAD3F5" font-family="Helvetica" font-size="12" font-style="italic" lengthAdjust="spacing" textLength="41.8323" x="349.6069" y="24.8281">&#171;enum&#187;</text><text fill="#A6DA95" font-family="Helvetica" font-size="16" lengthAdjust="spacing" textLength="117.2002" x="311.923" y="45.4481">FreeKindHelper</text><line style="stroke:#C6A0F6;stroke-width:2;" x1="190.17" x2="520.8762" y1="55.1362" y2="55.1362"/><ellipse cx="200.17" cy="68.8082" fill="#84BE84" rx="3" ry="3" style="stroke:#038048;stroke-width:1;"/><text fill="#A6DA95" font-family="Helvetica" font-size="12" lengthAdjust="spacing" text-decoration="underline" textLength="299.3662" x="208.17" y="71.9642">Kind&lt;FreeKind.Witness&lt;F&gt;, A&gt; widen(Free&lt;F, A&gt; free)</text><ellipse cx="200.17" cy="85.1523" fill="#84BE84" rx="3" ry="3" style="stroke:#038048;stroke-width:1;"/><text fill="#A6DA95" font-family="Helvetica" font-size="12" lengthAdjust="spacing" text-decoration="underline" textLength="307.7062" x="208.17" y="88.3084">Free&lt;F, A&gt; narrow(Kind&lt;FreeKind.Witness&lt;F&gt;, A&gt; kind)</text></g><!--class Free<F, A>--><g class="entity" data-entity="Free.F. A." data-source-line="18" data-uid="ent0006" id="entity_Free.F. A."><rect fill="#24273A" height="105.1685" rx="1.5" ry="1.5" style="stroke:#C6A0F6;stroke-width:2;" width="329.5022" x="228.77" y="173.82"/><rect fill="#363A4F" height="48.1362" rx="1.5" ry="1.5" style="stroke:#363A4F;stroke-width:2;" width="329.5022" x="228.77" y="173.82"/><rect fill="#363A4F" height="1.5" style="stroke:#363A4F;stroke-width:2;" width="329.5022" x="228.77" y="220.4562"/><rect fill="none" height="105.1685" rx="1.5" ry="1.5" style="stroke:#C6A0F6;stroke-width:2;" width="329.5022" x="228.77" y="173.82"/><ellipse cx="343.8028" cy="197.8881" fill="#B4A7E5" rx="10" ry="10" style="stroke:#181818;stroke-width:1;"/><path d="M341.3809,202.3881 L341.3809,201.185 L343.0528,200.9975 L343.0528,195.2162 L341.3809,195.0131 L341.3809,193.8256 L346.4278,193.8256 L346.4278,195.0131 L344.7246,195.2162 L344.7246,200.9975 L346.4278,201.185 L346.4278,202.3881 L341.3809,202.3881 Z " fill="#CAD3F5"/><text fill="#CAD3F5" font-family="Helvetica" font-size="12" font-style="italic" lengthAdjust="spacing" textLength="95.4367" x="360.8028" y="191.6481">&#171;sealed interface&#187;</text><text fill="#A6DA95" font-family="Helvetica" font-size="16" font-style="italic" lengthAdjust="spacing" textLength="73.1521" x="371.945" y="212.2681">Free&lt;F, A&gt;</text><line style="stroke:#C6A0F6;stroke-width:2;" x1="229.77" x2="557.2722" y1="221.9562" y2="221.9562"/><ellipse cx="239.77" cy="235.6282" fill="#84BE84" rx="3" ry="3" style="stroke:#038048;stroke-width:1;"/><text fill="#A6DA95" font-family="Helvetica" font-size="12" font-weight="bold" lengthAdjust="spacing" textLength="301.3822" x="250.89" y="238.7842">Free&lt;F, B&gt; map(Function&lt;? super A, ? extends B&gt; f)</text><ellipse cx="239.77" cy="251.9723" fill="#84BE84" rx="3" ry="3" style="stroke:#038048;stroke-width:1;"/><text fill="#A6DA95" font-family="Helvetica" font-size="12" font-weight="bold" lengthAdjust="spacing" textLength="269.0058" x="250.89" y="255.1284">Free&lt;F, B&gt; flatMap(Function&lt;A, Free&lt;F, B&gt;&gt; f)</text><ellipse cx="239.77" cy="268.3164" fill="#84BE84" rx="3" ry="3" style="stroke:#038048;stroke-width:1;"/><text fill="#A6DA95" font-family="Helvetica" font-size="12" lengthAdjust="spacing" textLength="158.4971" x="247.77" y="271.4725">&lt;M&gt; Kind&lt;M, A&gt; foldMap(...)</text></g><!--class Kind<F, A>--><g class="entity" data-entity="Kind.F. A." data-source-line="24" data-uid="ent0007" id="entity_Kind.F. A."><rect fill="#24273A" height="31.792" rx="1.5" ry="1.5" style="stroke:#C6A0F6;stroke-width:2;" width="109.0402" x="7" y="35.51"/><rect fill="#363A4F" height="31.792" rx="1.5" ry="1.5" style="stroke:#363A4F;stroke-width:2;" width="109.0402" x="7" y="35.51"/><rect fill="#363A4F" height="1.5" style="stroke:#363A4F;stroke-width:2;" width="109.0402" x="7" y="65.802"/><rect fill="none" height="31.792" rx="1.5" ry="1.5" style="stroke:#C6A0F6;stroke-width:2;" width="109.0402" x="7" y="35.51"/><ellipse cx="21" cy="51.406" fill="#ADD1B2" rx="10" ry="10" style="stroke:#181818;stroke-width:1;"/><path d="M20.7188,56.031 Q19.4688,56.031 18.6719,55.5154 Q17.875,54.9841 17.4844,54.031 Q17.0938,53.0779 17.0938,51.7966 Q17.0938,50.3748 17.5625,49.3591 Q18.0313,48.3279 18.9375,47.781 Q19.8438,47.2185 21.1563,47.2185 Q21.7813,47.2185 22.25,47.3435 Q22.7344,47.4685 23.2188,47.7029 L22.6406,49.1404 Q22.2031,48.906 21.8125,48.8279 Q21.4375,48.7498 21.0938,48.7498 Q20.2656,48.7498 19.7656,49.1248 Q19.2813,49.4841 19.0625,50.156 Q18.8594,50.8279 18.8594,51.7341 Q18.8594,53.1404 19.3594,53.8279 Q19.875,54.4998 21,54.4998 Q21.4219,54.4998 21.8594,54.3904 Q22.2969,54.281 22.8906,54.0154 L22.8906,55.5779 Q22.375,55.8123 21.8125,55.9216 Q21.25,56.031 20.7188,56.031 Z " fill="#CAD3F5"/><text fill="#A6DA95" font-family="Helvetica" font-size="16" lengthAdjust="spacing" textLength="79.0402" x="34" y="57.614">Kind&lt;F, A&gt;</text></g><!--reverse link Kind<F, A> to FreeKind<F, A>--><g class="link" data-entity-1="Kind.F. A." data-entity-2="FreeKind.F. A." data-source-line="24" data-uid="lnk9" id="link_Kind.F. A._FreeKind.F. A."><path codeLine="24" d="M56.1723,85.2797 C53.4223,103.5597 52.95,117.41 58.52,143.82 C62.86,164.42 72.75,186.16 81.07,202.01" fill="none" id="Kind&lt;F, A&gt;-backto-FreeKind&lt;F, A&gt;" style="stroke:#F5BDE6;stroke-width:1;"/><polygon fill="none" points="58.85,67.48,50.239,84.3871,62.1055,86.1723,58.85,67.48" style="stroke:#F5BDE6;stroke-width:1;"/><text fill="#CAD3F5" font-family="Helvetica" font-size="12" lengthAdjust="spacing" textLength="158.9411" x="59.52" y="139.6481">&lt;&lt;FreeKind.Witness&lt;F&gt;, A&gt;&gt;</text></g><!--link FreeKindHelper to Free<F, A>--><g class="link" data-entity-1="FreeKindHelper" data-entity-2="Free.F. A." data-source-line="25" data-uid="lnk10" id="link_FreeKindHelper_Free.F. A."><path codeLine="25" d="M365.11,96.06 C370.28,119.59 375.4035,142.8995 380.8235,167.5895" fill="none" id="FreeKindHelper-to-Free&lt;F, A&gt;" style="stroke:#F5BDE6;stroke-width:1;stroke-dasharray:7,7;"/><polygon fill="#F5BDE6" points="382.11,173.45,384.0872,163.8017,381.0379,168.5663,376.2733,165.517,382.11,173.45" style="stroke:#F5BDE6;stroke-width:1;"/><text fill="#CAD3F5" font-family="Helvetica" font-size="12" lengthAdjust="spacing" textLength="90.8047" x="375.52" y="139.6481">widens/narrows</text></g><!--link FreeKindHelper to FreeKind<F, A>--><g class="link" data-entity-1="FreeKindHelper" data-entity-2="FreeKind.F. A." data-source-line="26" data-uid="lnk11" id="link_FreeKindHelper_FreeKind.F. A."><path codeLine="26" d="M292.9,96.1 C270.78,111.37 245.65,128.51 222.52,143.82 C192.31,163.82 162.699,182.6856 137.069,198.8056" fill="none" id="FreeKindHelper-to-FreeKind&lt;F, A&gt;" style="stroke:#F5BDE6;stroke-width:1;stroke-dasharray:7,7;"/><polygon fill="#F5BDE6" points="131.99,202,141.738,200.5944,136.2225,199.338,137.4788,193.8224,131.99,202" style="stroke:#F5BDE6;stroke-width:1;"/><text fill="#CAD3F5" font-family="Helvetica" font-size="12" lengthAdjust="spacing" textLength="90.8047" x="249.19" y="139.6481">widens/narrows</text></g><!--SRC=[VL6nRXin3Dtr5Mmc6ytfTkCWmnsC0eKxjUYIHT7HFQ6IJf0ek4QQVmzjEJuxJhCHv7kFV8-VR32kz0W3KSoBjarw9tzR6ifZoPZC60W3IJFwDfWnaswiQOsc68inDZHU6pDOJMCJdGvKl6jeG8-jrpQqnr96xWeX1ijhq4VQWqV_Y2aB4KP2kFjbAM3EtLg1zT4n9r1-2AVsAbdQTp_s4O-L_1bqsgixq1bEYE-i8eJbKzDM6nRyPaFVhG7_yl7z6LQ5bkeULaplkZD1gIlsEY5MXNUHnkcS9zHNT17J0OMXUANWIG1yXYVEYgnvXgfq0il9wa4RTfn9c1scTHbikPnV2rnCsNaQTxCF9VzmRowURnnDRZ9gXprSc3hTt7rHvsrSUXrdwn8CsJ5qIyY5VSBg7fRdO1cqdRz7tJfDcqiwqwRnnDgeci-ccXzTVs19AOyERZxHbDZyKw__hRq5E_fF5ahSV4bATHt7eluWjpNR_07bUkiRsWi0]--></g></svg>