<svg xmlns="http://www.w3.org/2000/svg" xmlns:xlink="http://www.w3.org/1999/xlink" contentStyleType="text/css" data-diagram-type="CLASS" height="461px" preserveAspectRatio="none" style="width:1413px;height:461px;background:#24273A;" version="1.1" viewBox="0 0 1413 461" width="1413px" zoomAndPan="magnify"><defs/><g><rect fill="#24273A" height="461" style="stroke:none;stroke-width:1;" width="1413" x="0" y="0"/><g class="entity" data-entity="ArityNote" data-source-line="7" data-uid="ent0002" id="entity_ArityNote"><path d="M1153.33,11.22 L1153.33,50.9082 A1.5,1.5 0 0 0 1154.83,52.4082 L1404.5516,52.4082 A1.5,1.5 0 0 0 1406.0516,50.9082 L1406.0516,19.72 L1396.0516,9.72 L1154.83,9.72 A1.5,1.5 0 0 0 1153.33,11.22" fill="#EED49F" style="stroke:#24273A;stroke-width:0.5;"/><path d="M1396.0516,9.72 L1396.0516,18.97 A0.75,0.75 0 0 0 1396.8016,19.72 L1406.0516,19.72 L1396.0516,9.72" fill="#EED49F" style="stroke:#24273A;stroke-width:1;"/><text fill="#24273A" font-family="Helvetica" font-size="12" lengthAdjust="spacing" textLength="231.7216" x="1159.33" y="27.5481">F extends WitnessArity&lt;TypeArity.Unary&gt;</text><text fill="#24273A" font-family="Helvetica" font-size="12" lengthAdjust="spacing" textLength="102.8288" x="1159.33" y="43.8922">for all type classes</text></g><!--class Functor<F>--><g class="entity" data-entity="Functor.F." data-source-line="9" data-uid="ent0003" id="entity_Functor.F."><rect fill="#24273A" height="48.1362" rx="1.5" ry="1.5" style="stroke:#C6A0F6;stroke-width:2;" width="110.0322" x="1008.67" y="7"/><rect fill="#363A4F" height="48.1362" rx="1.5" ry="1.5" style="stroke:#363A4F;stroke-width:2;" width="110.0322" x="1008.67" y="7"/><rect fill="#363A4F" height="1.5" style="stroke:#363A4F;stroke-width:2;" width="110.0322" x="1008.67" y="53.6362"/><rect fill="none" height="48.1362" rx="1.5" ry="1.5" style="stroke:#C6A0F6;stroke-width:2;" width="110.0322" x="1008.67" y="7"/><ellipse cx="1022.67" cy="31.0681" fill="#B4A7E5" rx="10" ry="10" style="stroke:#181818;stroke-width:1;"/><path d="M1020.2481,35.5681 L1020.2481,34.365 L1021.92,34.1775 L1021.92,28.3962 L1020.2481,28.1931 L1020.2481,27.0056 L1025.295,27.0056 L1025.295,28.1931 L1023.5919,28.3962 L1023.5919,34.1775 L1025.295,34.365 L1025.295,35.5681 L1020.2481,35.5681 Z " fill="#CAD3F5"/><text fill="#CAD3F5" font-family="Helvetica" font-size="12" font-style="italic" lengthAdjust="spacing" textLength="58.2964" x="1046.5379" y="24.8281">&#171;interface&#187;</text><text fill="#A6DA95" font-family="Helvetica" font-size="16" font-style="italic" lengthAdjust="spacing" textLength="80.0322" x="1035.67" y="45.4481">Functor&lt;F&gt;</text></g><!--class Monad<F>--><g class="entity" data-entity="Monad.F." data-source-line="10" data-uid="ent0004" id="entity_Monad.F."><rect fill="#24273A" height="48.1362" rx="1.5" ry="1.5" style="stroke:#C6A0F6;stroke-width:2;" width="106.0162" x="310.68" y="7"/><rect fill="#363A4F" height="48.1362" rx="1.5" ry="1.5" style="stroke:#363A4F;stroke-width:2;" width="106.0162" x="310.68" y="7"/><rect fill="#363A4F" height="1.5" style="stroke:#363A4F;stroke-width:2;" width="106.0162" x="310.68" y="53.6362"/><rect fill="none" height="48.1362" rx="1.5" ry="1.5" style="stroke:#C6A0F6;stroke-width:2;" width="106.0162" x="310.68" y="7"/><ellipse cx="324.68" cy="31.0681" fill="#B4A7E5" rx="10" ry="10" style="stroke:#181818;stroke-width:1;"/><path d="M322.2581,35.5681 L322.2581,34.365 L323.93,34.1775 L323.93,28.3962 L322.2581,28.1931 L322.2581,27.0056 L327.305,27.0056 L327.305,28.1931 L325.6019,28.3962 L325.6019,34.1775 L327.305,34.365 L327.305,35.5681 L322.2581,35.5681 Z " fill="#CAD3F5"/><text fill="#CAD3F5" font-family="Helvetica" font-size="12" font-style="italic" lengthAdjust="spacing" textLength="58.2964" x="346.5399" y="24.8281">&#171;interface&#187;</text><text fill="#A6DA95" font-family="Helvetica" font-size="16" font-style="italic" lengthAdjust="spacing" textLength="76.0162" x="337.68" y="45.4481">Monad&lt;F&gt;</text></g><!--class FreeFunctor<F>--><g class="entity" data-entity="FreeFunctor.F." data-source-line="12" data-uid="ent0005" id="entity_FreeFunctor.F."><rect fill="#24273A" height="72.4803" rx="1.5" ry="1.5" style="stroke:#C6A0F6;stroke-width:2;" width="525.4635" x="800.95" y="149.48"/><rect fill="#363A4F" height="48.1362" rx="1.5" ry="1.5" style="stroke:#363A4F;stroke-width:2;" width="525.4635" x="800.95" y="149.48"/><rect fill="#363A4F" height="1.5" style="stroke:#363A4F;stroke-width:2;" width="525.4635" x="800.95" y="196.1162"/><rect fill="none" height="72.4803" rx="1.5" ry="1.5" style="stroke:#C6A0F6;stroke-width:2;" width="525.4635" x="800.95" y="149.48"/><ellipse cx="1000.9856" cy="173.5481" fill="#ADD1B2" rx="10" ry="10" style="stroke:#181818;stroke-width:1;"/><path d="M1000.7044,178.1731 Q999.4544,178.1731 998.6575,177.6575 Q997.8606,177.1262 997.47,176.1731 Q997.0794,175.22 997.0794,173.9387 Q997.0794,172.5168 997.5481,171.5012 Q998.0169,170.47 998.9231,169.9231 Q999.8294,169.3606 1001.1419,169.3606 Q1001.7669,169.3606 1002.2356,169.4856 Q1002.72,169.6106 1003.2044,169.845 L1002.6262,171.2825 Q1002.1887,171.0481 1001.7981,170.97 Q1001.4231,170.8918 1001.0794,170.8918 Q1000.2512,170.8918 999.7512,171.2668 Q999.2669,171.6262 999.0481,172.2981 Q998.845,172.97 998.845,173.8762 Q998.845,175.2825 999.345,175.97 Q999.8606,176.6418 1000.9856,176.6418 Q1001.4075,176.6418 1001.845,176.5325 Q1002.2825,176.4231 1002.8762,176.1575 L1002.8762,177.72 Q1002.3606,177.9543 1001.7981,178.0637 Q1001.2356,178.1731 1000.7044,178.1731 Z " fill="#CAD3F5"/><text fill="#CAD3F5" font-family="Helvetica" font-size="12" font-style="italic" lengthAdjust="spacing" textLength="37.1643" x="1060.0996" y="167.3081">&#171;class&#187;</text><text fill="#A6DA95" font-family="Helvetica" font-size="16" lengthAdjust="spacing" textLength="117.3923" x="1019.9856" y="187.9281">FreeFunctor&lt;F&gt;</text><line style="stroke:#C6A0F6;stroke-width:2;" x1="801.95" x2="1325.4135" y1="197.6162" y2="197.6162"/><rect fill="#F24D5C" height="6" style="stroke:#C82930;stroke-width:1;" width="6" x="808.95" y="208.2882"/><text fill="#A6DA95" font-family="Helvetica" font-size="12" lengthAdjust="spacing" textLength="500.4635" x="819.95" y="214.4442">-Kind&lt;FreeKind.Witness&lt;F&gt;, B&gt; map(Function&lt;A, B&gt; f, Kind&lt;FreeKind.Witness&lt;F&gt;, A&gt; fa)--</text></g><!--class FreeMonad<F>--><g class="entity" data-entity="FreeMonad.F." data-source-line="16" data-uid="ent0006" id="entity_FreeMonad.F."><rect fill="#24273A" height="105.1685" rx="1.5" ry="1.5" style="stroke:#C6A0F6;stroke-width:2;" width="713.3727" x="7" y="133.13"/><rect fill="#363A4F" height="48.1362" rx="1.5" ry="1.5" style="stroke:#363A4F;stroke-width:2;" width="713.3727" x="7" y="133.13"/><rect fill="#363A4F" height="1.5" style="stroke:#363A4F;stroke-width:2;" width="713.3727" x="7" y="179.7662"/><rect fill="none" height="105.1685" rx="1.5" ry="1.5" style="stroke:#C6A0F6;stroke-width:2;" width="713.3727" x="7" y="133.13"/><ellipse cx="303.4543" cy="157.1981" fill="#ADD1B2" rx="10" ry="10" style="stroke:#181818;stroke-width:1;"/><path d="M303.173,161.8231 Q301.923,161.8231 301.1261,161.3075 Q300.3293,160.7762 299.9386,159.8231 Q299.548,158.87 299.548,157.5887 Q299.548,156.1668 300.0168,155.1512 Q300.4855,154.12 301.3918,153.5731 Q302.298,153.0106 303.6105,153.0106 Q304.2355,153.0106 304.7043,153.1356 Q305.1886,153.2606 305.673,153.495 L305.0949,154.9325 Q304.6574,154.6981 304.2668,154.62 Q303.8918,154.5418 303.548,154.5418 Q302.7199,154.5418 302.2199,154.9168 Q301.7355,155.2762 301.5168,155.9481 Q301.3136,156.62 301.3136,157.5262 Q301.3136,158.9325 301.8136,159.62 Q302.3293,160.2918 303.4543,160.2918 Q303.8761,160.2918 304.3136,160.1825 Q304.7511,160.0731 305.3449,159.8075 L305.3449,161.37 Q304.8293,161.6043 304.2668,161.7137 Q303.7043,161.8231 303.173,161.8231 Z " fill="#CAD3F5"/><text fill="#CAD3F5" font-family="Helvetica" font-size="12" font-style="italic" lengthAdjust="spacing" textLength="37.1643" x="360.1042" y="150.9581">&#171;class&#187;</text><text fill="#A6DA95" font-family="Helvetica" font-size="16" lengthAdjust="spacing" textLength="112.4642" x="322.4543" y="171.5781">FreeMonad&lt;F&gt;</text><line style="stroke:#C6A0F6;stroke-width:2;" x1="8" x2="719.3727" y1="181.2662" y2="181.2662"/><rect fill="#F24D5C" height="6" style="stroke:#C82930;stroke-width:1;" width="6" x="15" y="191.9382"/><text fill="#A6DA95" font-family="Helvetica" font-size="12" lengthAdjust="spacing" textLength="244.7297" x="26" y="198.0942">-Kind&lt;FreeKind.Witness&lt;F&gt;, A&gt; of(A value)--</text><rect fill="#F24D5C" height="6" style="stroke:#C82930;stroke-width:1;" width="6" x="15" y="208.2823"/><text fill="#A6DA95" font-family="Helvetica" font-size="12" lengthAdjust="spacing" textLength="688.3727" x="26" y="214.4384">-Kind&lt;FreeKind.Witness&lt;F&gt;, B&gt; flatMap(Function&lt;A, Kind&lt;FreeKind.Witness&lt;F&gt;, B&gt;&gt; f, Kind&lt;FreeKind.Witness&lt;F&gt;, A&gt; ma)--</text><rect fill="#F24D5C" height="6" style="stroke:#C82930;stroke-width:1;" width="6" x="15" y="224.6264"/><text fill="#A6DA95" font-family="Helvetica" font-size="12" lengthAdjust="spacing" textLength="656.2366" x="26" y="230.7825">-Kind&lt;FreeKind.Witness&lt;F&gt;, B&gt; ap(Kind&lt;FreeKind.Witness&lt;F&gt;, Function&lt;A, B&gt;&gt; ff, Kind&lt;FreeKind.Witness&lt;F&gt;, A&gt; fa)--</text></g><!--class FreeKind<F, A>--><g class="entity" data-entity="FreeKind.F. A." data-source-line="22" data-uid="ent0007" id="entity_FreeKind.F. A."><rect fill="#24273A" height="48.1362" rx="1.5" ry="1.5" style="stroke:#C6A0F6;stroke-width:2;" width="134.8002" x="111.29" y="361.16"/><rect fill="#363A4F" height="48.1362" rx="1.5" ry="1.5" style="stroke:#363A4F;stroke-width:2;" width="134.8002" x="111.29" y="361.16"/><rect fill="#363A4F" height="1.5" style="stroke:#363A4F;stroke-width:2;" width="134.8002" x="111.29" y="407.7962"/><rect fill="none" height="48.1362" rx="1.5" ry="1.5" style="stroke:#C6A0F6;stroke-width:2;" width="134.8002" x="111.29" y="361.16"/><ellipse cx="125.29" cy="385.2281" fill="#B4A7E5" rx="10" ry="10" style="stroke:#181818;stroke-width:1;"/><path d="M122.8681,389.7281 L122.8681,388.525 L124.54,388.3375 L124.54,382.5562 L122.8681,382.3531 L122.8681,381.1656 L127.915,381.1656 L127.915,382.3531 L126.2119,382.5562 L126.2119,388.3375 L127.915,388.525 L127.915,389.7281 L122.8681,389.7281 Z " fill="#CAD3F5"/><text fill="#CAD3F5" font-family="Helvetica" font-size="12" font-style="italic" lengthAdjust="spacing" textLength="58.2964" x="161.5419" y="378.9881">&#171;interface&#187;</text><text fill="#A6DA95" font-family="Helvetica" font-size="16" font-style="italic" lengthAdjust="spacing" textLength="104.8002" x="138.29" y="399.6081">FreeKind&lt;F, A&gt;</text></g><!--class Free<F, A>--><g class="entity" data-entity="Free.F. A." data-source-line="24" data-uid="ent0008" id="entity_Free.F. A."><rect fill="#24273A" height="137.8567" rx="1.5" ry="1.5" style="stroke:#C6A0F6;stroke-width:2;" width="534.7515" x="281.31" y="316.3"/><rect fill="#363A4F" height="48.1362" rx="1.5" ry="1.5" style="stroke:#363A4F;stroke-width:2;" width="534.7515" x="281.31" y="316.3"/><rect fill="#363A4F" height="1.5" style="stroke:#363A4F;stroke-width:2;" width="534.7515" x="281.31" y="362.9362"/><rect fill="none" height="137.8567" rx="1.5" ry="1.5" style="stroke:#C6A0F6;stroke-width:2;" width="534.7515" x="281.31" y="316.3"/><ellipse cx="498.9674" cy="340.3681" fill="#B4A7E5" rx="10" ry="10" style="stroke:#181818;stroke-width:1;"/><path d="M496.5456,344.8681 L496.5456,343.665 L498.2174,343.4775 L498.2174,337.6962 L496.5456,337.4931 L496.5456,336.3056 L501.5924,336.3056 L501.5924,337.4931 L499.8893,337.6962 L499.8893,343.4775 L501.5924,343.665 L501.5924,344.8681 L496.5456,344.8681 Z " fill="#CAD3F5"/><text fill="#CAD3F5" font-family="Helvetica" font-size="12" font-style="italic" lengthAdjust="spacing" textLength="95.4367" x="515.9674" y="334.1281">&#171;sealed interface&#187;</text><text fill="#A6DA95" font-family="Helvetica" font-size="16" font-style="italic" lengthAdjust="spacing" textLength="73.1521" x="527.1097" y="354.7481">Free&lt;F, A&gt;</text><line style="stroke:#C6A0F6;stroke-width:2;" x1="282.31" x2="815.0615" y1="364.4362" y2="364.4362"/><ellipse cx="292.31" cy="378.1082" fill="#84BE84" rx="3" ry="3" style="stroke:#038048;stroke-width:1;"/><text fill="#A6DA95" font-family="Helvetica" font-size="12" lengthAdjust="spacing" text-decoration="underline" textLength="136.417" x="300.31" y="381.2642">Free&lt;F, A&gt; pure(A value)</text><ellipse cx="292.31" cy="394.4523" fill="#84BE84" rx="3" ry="3" style="stroke:#038048;stroke-width:1;"/><text fill="#A6DA95" font-family="Helvetica" font-size="12" lengthAdjust="spacing" text-decoration="underline" textLength="277.19" x="300.31" y="397.6084">Free&lt;F, A&gt; liftF(Kind&lt;F, A&gt; fa, Functor&lt;F&gt; functor)</text><ellipse cx="292.31" cy="410.7964" fill="#84BE84" rx="3" ry="3" style="stroke:#038048;stroke-width:1;"/><text fill="#A6DA95" font-family="Helvetica" font-size="12" font-weight="bold" lengthAdjust="spacing" textLength="195.6374" x="303.43" y="413.9525">Free&lt;F, B&gt; map(Function&lt;A, B&gt; f)</text><ellipse cx="292.31" cy="427.1406" fill="#84BE84" rx="3" ry="3" style="stroke:#038048;stroke-width:1;"/><text fill="#A6DA95" font-family="Helvetica" font-size="12" font-weight="bold" lengthAdjust="spacing" textLength="269.0058" x="303.43" y="430.2966">Free&lt;F, B&gt; flatMap(Function&lt;A, Free&lt;F, B&gt;&gt; f)</text><ellipse cx="292.31" cy="443.4847" fill="#84BE84" rx="3" ry="3" style="stroke:#038048;stroke-width:1;"/><text fill="#A6DA95" font-family="Helvetica" font-size="12" lengthAdjust="spacing" textLength="509.7515" x="300.31" y="446.6407">&lt;M&gt; Kind&lt;M, A&gt; foldMap(Function&lt;Kind&lt;F, ?&gt;, Kind&lt;M, ?&gt;&gt; transform, Monad&lt;M&gt; monad)</text></g><!--reverse link Functor<F> to FreeFunctor<F>--><g class="link" data-entity-1="Functor.F." data-entity-2="FreeFunctor.F." data-source-line="32" data-uid="lnk10" id="link_Functor.F._FreeFunctor.F."><path codeLine="32" d="M1063.69,73.58 C1063.69,98.59 1063.69,120.43 1063.69,149.25" fill="none" id="Functor&lt;F&gt;-backto-FreeFunctor&lt;F&gt;" style="stroke:#F5BDE6;stroke-width:1;stroke-dasharray:7,7;"/><polygon fill="none" points="1063.69,55.58,1057.69,73.58,1069.69,73.58,1063.69,55.58" style="stroke:#F5BDE6;stroke-width:1;"/><text fill="#CAD3F5" font-family="Helvetica" font-size="12" lengthAdjust="spacing" textLength="67.0445" x="1064.69" y="98.9581">implements</text></g><!--reverse link Monad<F> to FreeMonad<F>--><g class="link" data-entity-1="Monad.F." data-entity-2="FreeMonad.F." data-source-line="33" data-uid="lnk12" id="link_Monad.F._FreeMonad.F."><path codeLine="33" d="M363.69,73.58 C363.69,94.07 363.69,106.52 363.69,132.71" fill="none" id="Monad&lt;F&gt;-backto-FreeMonad&lt;F&gt;" style="stroke:#F5BDE6;stroke-width:1;stroke-dasharray:7,7;"/><polygon fill="none" points="363.69,55.58,357.69,73.58,369.69,73.58,363.69,55.58" style="stroke:#F5BDE6;stroke-width:1;"/><text fill="#CAD3F5" font-family="Helvetica" font-size="12" lengthAdjust="spacing" textLength="67.0445" x="364.69" y="98.9581">implements</text></g><!--link FreeMonad<F> to FreeFunctor<F>--><g class="link" data-entity-1="FreeMonad.F." data-entity-2="FreeFunctor.F." data-source-line="34" data-uid="lnk13" id="link_FreeMonad.F._FreeFunctor.F."><path codeLine="34" d="M720.86,185.72 C747.66,185.72 756.4,185.72 782.46,185.72" fill="none" id="FreeMonad&lt;F&gt;-to-FreeFunctor&lt;F&gt;" style="stroke:#F5BDE6;stroke-width:1;"/><polygon fill="none" points="800.46,185.72,782.46,179.72,782.46,191.72,800.46,185.72" style="stroke:#F5BDE6;stroke-width:1;"/><text fill="#CAD3F5" font-family="Helvetica" font-size="12" lengthAdjust="spacing" textLength="44.7603" x="738.66" y="178.5481">extends</text></g><!--link FreeMonad<F> to FreeKind<F, A>--><g class="link" data-entity-1="FreeMonad.F." data-entity-2="FreeKind.F. A." data-source-line="36" data-uid="lnk14" id="link_FreeMonad.F._FreeKind.F. A."><path codeLine="36" d="M294.16,238.8 C283.19,248.15 272.31,258.17 262.69,268.3 C234.8,297.69 211.5874,331.5856 196.0674,356.0156" fill="none" id="FreeMonad&lt;F&gt;-to-FreeKind&lt;F, A&gt;" style="stroke:#F5BDE6;stroke-width:1;stroke-dasharray:7,7;"/><polygon fill="#F5BDE6" points="192.85,361.08,201.0523,355.6282,195.5311,356.8596,194.2997,351.3384,192.85,361.08" style="stroke:#F5BDE6;stroke-width:1;"/><text fill="#CAD3F5" font-family="Helvetica" font-size="12" lengthAdjust="spacing" textLength="241.3937" x="263.69" y="282.1281">operates on Kind&lt;FreeKind.Witness&lt;F&gt;, A&gt;</text></g><!--link FreeMonad<F> to Free<F, A>--><g class="link" data-entity-1="FreeMonad.F." data-entity-2="Free.F. A." data-source-line="37" data-uid="lnk15" id="link_FreeMonad.F._Free.F. A."><path codeLine="37" d="M477.5,238.75 C489.42,247.41 500.51,257.24 509.69,268.3 C521.01,281.95 527.1591,293.3426 532.9091,310.1626" fill="none" id="FreeMonad&lt;F&gt;-to-Free&lt;F, A&gt;" style="stroke:#F5BDE6;stroke-width:1;stroke-dasharray:7,7;"/><polygon fill="#F5BDE6" points="534.85,315.84,535.7237,306.03,533.2326,311.1088,528.1538,308.6178,534.85,315.84" style="stroke:#F5BDE6;stroke-width:1;"/><text fill="#CAD3F5" font-family="Helvetica" font-size="12" lengthAdjust="spacing" textLength="93.4327" x="521.92" y="282.1281">uses methods of</text></g><!--SRC=[ZLJBZjim3BphAzYSicXitmD3Y_IGIv6UMlJIYrQXrmBqWaIt3RRxxwMTX_FUt0XnE3EYA7uoNjjkZT0InJolggJ-bA-6skwbovXqy8IUIXrSvNN8f0gZAwqenavhumkdj6wDeb14gpnrpXRKeiFAAUEh8ImZdmeXMiCow29jmA5xmPI5y84G9al0looppl3JaCUS5ydGflw-YJX4vG-lqaR-yar8eAm5uWnegtB6F06LOO1zOp8X33jEZT8zR-SrXLGlvGJg-f2GyXYq2bwjhq34mCya2V6KQ4X82My2e83Yg_5SpwW-A7StOEWClaXmAaw7QXDylHYEcXdSBbbmNZqLXNW_CN1iyc5vvWhDT06_bUsmv_pORcCLhSuitolu-3PEFQRCehVpfnraqOTxU3mDEsozx24Npts6754PbSKr7867rd-6D_uEPFGxZ7Y8NS93os-Yh6beEHtDiD_T9OSXWsORRWbgxiw-ziP4NGLUUyinFLQjvBQNgwsJODSdLNkNpt9sm3rpEINbCtz8DuFjT3AFwuEdlkyNtwRiOlbFdlx9EHWNBQy8JrcSpVaUFvxSGnV9lBPK309dmlFzSX4N4gMyd8evX8X94MO8_kwGtQGRgNY5Pbvsr0RURQ4H_m40]--></g></svg>