<svg xmlns="http://www.w3.org/2000/svg" xmlns:xlink="http://www.w3.org/1999/xlink" contentStyleType="text/css" data-diagram-type="CLASS" height="925px" preserveAspectRatio="none" style="width:1225px;height:925px;background:#24273A;" version="1.1" viewBox="0 0 1225 925" width="1225px" zoomAndPan="magnify"><title>List Decomposition Prisms</title><defs/><g><rect fill="#24273A" height="925" style="stroke:none;stroke-width:1;" width="1225" x="0" y="0"/><g class="title" data-source-line="4"><text fill="#CAD3F5" font-family="Helvetica" font-size="14" font-weight="bold" lengthAdjust="spacing" textLength="184.3933" x="513.3034" y="24.9659">List Decomposition Prisms</text></g><!--cluster ListPrisms - Decomposition Patterns--><g class="cluster" data-entity="ListPrisms - Decomposition Patterns" data-source-line="6" data-uid="ent0002" id="cluster_ListPrisms - Decomposition Patterns"><path d="M495.5,46.0839 L714.9216,46.0839 A2.25,2.25 0 0 1 716.4216,47.5839 L723.4216,68.4281 L818.5,68.4281 A1.5,1.5 0 0 1 820,69.9281 L820,532.9139 A1.5,1.5 0 0 1 818.5,534.4139 L495.5,534.4139 A1.5,1.5 0 0 1 494,532.9139 L494,47.5839 A1.5,1.5 0 0 1 495.5,46.0839" fill="#24273A" style="stroke:#CAD3F5;stroke-width:1.5;"/><line style="stroke:#CAD3F5;stroke-width:1.5;" x1="494" x2="723.4216" y1="68.4281" y2="68.4281"/><text fill="#CAD3F5" font-family="Helvetica" font-size="12" font-weight="bold" lengthAdjust="spacing" textLength="216.4216" x="498" y="60.912">ListPrisms - Decomposition Patterns</text></g><!--cluster Decomposition Patterns--><g class="cluster" data-entity="Decomposition Patterns" data-source-line="36" data-uid="ent0007" id="cluster_Decomposition Patterns"><path d="M7.5,584.4139 L155.161,584.4139 A2.25,2.25 0 0 1 156.661,585.9139 L163.661,606.7581 L424.5,606.7581 A1.5,1.5 0 0 1 426,608.2581 L426,719.2939 A1.5,1.5 0 0 1 424.5,720.7939 L7.5,720.7939 A1.5,1.5 0 0 1 6,719.2939 L6,585.9139 A1.5,1.5 0 0 1 7.5,584.4139" fill="#24273A" style="stroke:#CAD3F5;stroke-width:1.5;"/><line style="stroke:#CAD3F5;stroke-width:1.5;" x1="6" x2="163.661" y1="606.7581" y2="606.7581"/><text fill="#CAD3F5" font-family="Helvetica" font-size="12" font-weight="bold" lengthAdjust="spacing" textLength="144.661" x="10" y="599.242">Decomposition Patterns</text></g><!--cluster Convenience Accessors--><g class="cluster" data-entity="Convenience Accessors" data-source-line="52" data-uid="ent0010" id="cluster_Convenience Accessors"><path d="M451.5,592.5839 L593.137,592.5839 A2.25,2.25 0 0 1 594.637,594.0839 L601.637,614.9281 L1216.5,614.9281 A1.5,1.5 0 0 1 1218,616.4281 L1218,711.1139 A1.5,1.5 0 0 1 1216.5,712.6139 L451.5,712.6139 A1.5,1.5 0 0 1 450,711.1139 L450,594.0839 A1.5,1.5 0 0 1 451.5,592.5839" fill="#24273A" style="stroke:#CAD3F5;stroke-width:1.5;"/><line style="stroke:#CAD3F5;stroke-width:1.5;" x1="450" x2="601.637" y1="614.9281" y2="614.9281"/><text fill="#CAD3F5" font-family="Helvetica" font-size="12" font-weight="bold" lengthAdjust="spacing" textLength="138.637" x="454" y="607.412">Convenience Accessors</text></g><!--cluster Core Optics--><g class="cluster" data-entity="Core Optics" data-source-line="78" data-uid="ent0015" id="cluster_Core Optics"><path d="M508.5,770.7939 L580.4405,770.7939 A2.25,2.25 0 0 1 581.9405,772.2939 L588.9405,793.1381 L968.5,793.1381 A1.5,1.5 0 0 1 970,794.6381 L970,917.1139 A1.5,1.5 0 0 1 968.5,918.6139 L508.5,918.6139 A1.5,1.5 0 0 1 507,917.1139 L507,772.2939 A1.5,1.5 0 0 1 508.5,770.7939" fill="#24273A" style="stroke:#CAD3F5;stroke-width:1.5;"/><line style="stroke:#CAD3F5;stroke-width:1.5;" x1="507" x2="588.9405" y1="793.1381" y2="793.1381"/><text fill="#CAD3F5" font-family="Helvetica" font-size="12" font-weight="bold" lengthAdjust="spacing" textLength="68.9405" x="511" y="785.622">Core Optics</text></g><!--class ListPrisms--><g class="entity" data-entity="ListPrisms" data-source-line="8" data-uid="ent0003" id="entity_ListPrisms"><rect fill="#24273A" height="333.642" rx="1.5" ry="1.5" style="stroke:#C6A0F6;stroke-width:2;" width="294.7859" x="509.61" y="184.7739"/><rect fill="#363A4F" height="31.792" rx="1.5" ry="1.5" style="stroke:#363A4F;stroke-width:2;" width="294.7859" x="509.61" y="184.7739"/><rect fill="#363A4F" height="1.5" style="stroke:#363A4F;stroke-width:2;" width="294.7859" x="509.61" y="215.066"/><rect fill="none" height="333.642" rx="1.5" ry="1.5" style="stroke:#C6A0F6;stroke-width:2;" width="294.7859" x="509.61" y="184.7739"/><ellipse cx="614.6749" cy="200.67" fill="#ADD1B2" rx="10" ry="10" style="stroke:#181818;stroke-width:1;"/><path d="M614.3936,205.295 Q613.1436,205.295 612.3467,204.7793 Q611.5499,204.2481 611.1592,203.295 Q610.7686,202.3418 610.7686,201.0606 Q610.7686,199.6387 611.2374,198.6231 Q611.7061,197.5918 612.6124,197.045 Q613.5186,196.4825 614.8311,196.4825 Q615.4561,196.4825 615.9249,196.6075 Q616.4092,196.7325 616.8936,196.9668 L616.3155,198.4043 Q615.878,198.17 615.4874,198.0918 Q615.1124,198.0137 614.7686,198.0137 Q613.9405,198.0137 613.4405,198.3887 Q612.9561,198.7481 612.7374,199.42 Q612.5342,200.0918 612.5342,200.9981 Q612.5342,202.4043 613.0342,203.0918 Q613.5499,203.7637 614.6749,203.7637 Q615.0967,203.7637 615.5342,203.6543 Q615.9717,203.545 616.5655,203.2793 L616.5655,204.8418 Q616.0499,205.0762 615.4874,205.1856 Q614.9249,205.295 614.3936,205.295 Z " fill="#CAD3F5"/><text fill="#A6DA95" font-family="Helvetica" font-size="16" lengthAdjust="spacing" textLength="76.6562" x="633.6749" y="206.878">ListPrisms</text><line style="stroke:#C6A0F6;stroke-width:2;" x1="510.61" x2="803.3959" y1="216.566" y2="216.566"/><ellipse cx="520.61" cy="230.238" fill="#84BE84" rx="3" ry="3" style="stroke:#038048;stroke-width:1;"/><text fill="#A6DA95" font-family="Helvetica" font-size="12" lengthAdjust="spacing" text-decoration="underline" textLength="248.0778" x="528.61" y="233.3941">cons&lt;A&gt;() : Prism&lt;List&lt;A&gt;, Pair&lt;A, List&lt;A&gt;&gt;&gt;</text><ellipse cx="520.61" cy="246.5822" fill="#84BE84" rx="3" ry="3" style="stroke:#038048;stroke-width:1;"/><text fill="#A6DA95" font-family="Helvetica" font-size="12" lengthAdjust="spacing" text-decoration="underline" textLength="248.0778" x="528.61" y="249.7382">snoc&lt;A&gt;() : Prism&lt;List&lt;A&gt;, Pair&lt;List&lt;A&gt;, A&gt;&gt;</text><ellipse cx="520.61" cy="262.9263" fill="#84BE84" rx="3" ry="3" style="stroke:#038048;stroke-width:1;"/><text fill="#A6DA95" font-family="Helvetica" font-size="12" lengthAdjust="spacing" text-decoration="underline" textLength="269.7859" x="528.61" y="266.0823">headTail&lt;A&gt;() : Prism&lt;List&lt;A&gt;, Pair&lt;A, List&lt;A&gt;&gt;&gt;</text><ellipse cx="520.61" cy="279.2704" fill="#84BE84" rx="3" ry="3" style="stroke:#038048;stroke-width:1;"/><text fill="#A6DA95" font-family="Helvetica" font-size="12" lengthAdjust="spacing" text-decoration="underline" textLength="262.9339" x="528.61" y="282.4264">initLast&lt;A&gt;() : Prism&lt;List&lt;A&gt;, Pair&lt;List&lt;A&gt;, A&gt;&gt;</text><line style="stroke:#C6A0F6;stroke-width:1;" x1="510.61" x2="803.3959" y1="289.9424" y2="289.9424"/><ellipse cx="520.61" cy="303.6145" fill="#84BE84" rx="3" ry="3" style="stroke:#038048;stroke-width:1;"/><text fill="#A6DA95" font-family="Helvetica" font-size="12" lengthAdjust="spacing" text-decoration="underline" textLength="168.1452" x="528.61" y="306.7705">head&lt;A&gt;() : Affine&lt;List&lt;A&gt;, A&gt;</text><ellipse cx="520.61" cy="319.9586" fill="#84BE84" rx="3" ry="3" style="stroke:#038048;stroke-width:1;"/><text fill="#A6DA95" font-family="Helvetica" font-size="12" lengthAdjust="spacing" text-decoration="underline" textLength="159.7571" x="528.61" y="323.1146">last&lt;A&gt;() : Affine&lt;List&lt;A&gt;, A&gt;</text><ellipse cx="520.61" cy="336.3027" fill="#84BE84" rx="3" ry="3" style="stroke:#038048;stroke-width:1;"/><text fill="#A6DA95" font-family="Helvetica" font-size="12" lengthAdjust="spacing" text-decoration="underline" textLength="189.3733" x="528.61" y="339.4588">tail&lt;A&gt;() : Prism&lt;List&lt;A&gt;, List&lt;A&gt;&gt;</text><ellipse cx="520.61" cy="352.6468" fill="#84BE84" rx="3" ry="3" style="stroke:#038048;stroke-width:1;"/><text fill="#A6DA95" font-family="Helvetica" font-size="12" lengthAdjust="spacing" text-decoration="underline" textLength="190.0573" x="528.61" y="355.8029">init&lt;A&gt;() : Prism&lt;List&lt;A&gt;, List&lt;A&gt;&gt;</text><ellipse cx="520.61" cy="368.991" fill="#84BE84" rx="3" ry="3" style="stroke:#038048;stroke-width:1;"/><text fill="#A6DA95" font-family="Helvetica" font-size="12" lengthAdjust="spacing" text-decoration="underline" textLength="190.6933" x="528.61" y="372.147">empty&lt;A&gt;() : Prism&lt;List&lt;A&gt;, Unit&gt;</text><line style="stroke:#C6A0F6;stroke-width:1;" x1="510.61" x2="803.3959" y1="379.663" y2="379.663"/><ellipse cx="520.61" cy="393.3351" fill="#84BE84" rx="3" ry="3" style="stroke:#038048;stroke-width:1;"/><text fill="#A6DA95" font-family="Helvetica" font-size="12" lengthAdjust="spacing" text-decoration="underline" textLength="172.3572" x="528.61" y="396.4911">foldRight&lt;A,B&gt;(list, initial, f) : B</text><ellipse cx="520.61" cy="409.6792" fill="#84BE84" rx="3" ry="3" style="stroke:#038048;stroke-width:1;"/><text fill="#A6DA95" font-family="Helvetica" font-size="12" lengthAdjust="spacing" text-decoration="underline" textLength="206.7254" x="528.61" y="412.8352">mapTrampoline&lt;A,B&gt;(list, f) : List&lt;B&gt;</text><ellipse cx="520.61" cy="426.0233" fill="#84BE84" rx="3" ry="3" style="stroke:#038048;stroke-width:1;"/><text fill="#A6DA95" font-family="Helvetica" font-size="12" lengthAdjust="spacing" text-decoration="underline" textLength="218.9776" x="528.61" y="429.1793">filterTrampoline&lt;A&gt;(list, pred) : List&lt;A&gt;</text><ellipse cx="520.61" cy="442.3674" fill="#84BE84" rx="3" ry="3" style="stroke:#038048;stroke-width:1;"/><text fill="#A6DA95" font-family="Helvetica" font-size="12" lengthAdjust="spacing" text-decoration="underline" textLength="201.8414" x="528.61" y="445.5234">reverseTrampoline&lt;A&gt;(list) : List&lt;A&gt;</text><ellipse cx="520.61" cy="458.7115" fill="#84BE84" rx="3" ry="3" style="stroke:#038048;stroke-width:1;"/><text fill="#A6DA95" font-family="Helvetica" font-size="12" lengthAdjust="spacing" text-decoration="underline" textLength="224.6776" x="528.61" y="461.8676">flatMapTrampoline&lt;A,B&gt;(list, f) : List&lt;B&gt;</text><ellipse cx="520.61" cy="475.0556" fill="#84BE84" rx="3" ry="3" style="stroke:#038048;stroke-width:1;"/><text fill="#A6DA95" font-family="Helvetica" font-size="12" lengthAdjust="spacing" text-decoration="underline" textLength="244.0817" x="528.61" y="478.2117">zipWithTrampoline&lt;A,B,C&gt;(l1, l2, f) : List&lt;C&gt;</text><ellipse cx="520.61" cy="491.3998" fill="#84BE84" rx="3" ry="3" style="stroke:#038048;stroke-width:1;"/><text fill="#A6DA95" font-family="Helvetica" font-size="12" lengthAdjust="spacing" text-decoration="underline" textLength="197.7734" x="528.61" y="494.5558">takeTrampoline&lt;A&gt;(list, n) : List&lt;A&gt;</text><ellipse cx="520.61" cy="507.7439" fill="#84BE84" rx="3" ry="3" style="stroke:#038048;stroke-width:1;"/><text fill="#A6DA95" font-family="Helvetica" font-size="12" lengthAdjust="spacing" text-decoration="underline" textLength="200.5094" x="528.61" y="510.8999">dropTrampoline&lt;A&gt;(list, n) : List&lt;A&gt;</text></g><g class="entity" data-entity="GMN4" data-source-line="31" data-uid="ent0005" id="entity_GMN4"><path d="M569.42,82.5839 L569.42,122.2722 A1.5,1.5 0 0 0 570.92,123.7722 L653,123.7722 L657,184.5339 L661,123.7722 L743.0731,123.7722 A1.5,1.5 0 0 0 744.5731,122.2722 L744.5731,91.0839 L734.5731,81.0839 L570.92,81.0839 A1.5,1.5 0 0 0 569.42,82.5839" fill="#EED49F" style="stroke:#24273A;stroke-width:0.5;"/><path d="M734.5731,81.0839 L734.5731,90.3339 A0.75,0.75 0 0 0 735.3231,91.0839 L744.5731,91.0839 L734.5731,81.0839" fill="#EED49F" style="stroke:#24273A;stroke-width:0.5;"/><text fill="#24273A" font-family="Helvetica" font-size="12" lengthAdjust="spacing" textLength="142.285" x="575.42" y="98.912">Utility class for functional</text><text fill="#24273A" font-family="Helvetica" font-size="12" lengthAdjust="spacing" textLength="154.1531" x="575.42" y="115.2561">list decomposition patterns</text></g><g class="entity" data-entity="Cons" data-source-line="37" data-uid="ent0008" id="entity_Cons"><rect fill="#363A4F" height="85.3765" rx="1.5" ry="1.5" style="stroke:#B7BDF8;stroke-width:0.5;" width="176.9172" x="21.54" y="619.4139"/><text fill="#CAD3F5" font-family="Helvetica" font-size="12" lengthAdjust="spacing" textLength="84.7806" x="67.6083" y="634.242">cons / headTail</text><line style="stroke:#B7BDF8;stroke-width:0.5;" x1="22.54" x2="197.4572" y1="639.7581" y2="639.7581"/><text fill="#CAD3F5" font-family="Helvetica" font-size="12" lengthAdjust="spacing" textLength="164.9172" x="27.54" y="656.5861">[A, B, C, D] &#8594; Pair(A, [B, C, D])</text><line style="stroke:#B7BDF8;stroke-width:1;" x1="22.54" x2="197.4572" y1="664.1022" y2="664.1022"/><text fill="#CAD3F5" font-family="Helvetica" font-size="12" lengthAdjust="spacing" textLength="95.7367" x="27.54" y="680.9303">focus: (head, tail)</text><text fill="#CAD3F5" font-family="Helvetica" font-size="12" lengthAdjust="spacing" textLength="130.0929" x="27.54" y="697.2744">direction: front-to-back</text></g><g class="entity" data-entity="Snoc" data-source-line="44" data-uid="ent0009" id="entity_Snoc"><rect fill="#363A4F" height="85.3765" rx="1.5" ry="1.5" style="stroke:#B7BDF8;stroke-width:0.5;" width="176.9172" x="233.54" y="619.4139"/><text fill="#CAD3F5" font-family="Helvetica" font-size="12" lengthAdjust="spacing" textLength="77.9286" x="283.0343" y="634.242">snoc / initLast</text><line style="stroke:#B7BDF8;stroke-width:0.5;" x1="234.54" x2="409.4572" y1="639.7581" y2="639.7581"/><text fill="#CAD3F5" font-family="Helvetica" font-size="12" lengthAdjust="spacing" textLength="164.9172" x="239.54" y="656.5861">[A, B, C, D] &#8594; Pair([A, B, C], D)</text><line style="stroke:#B7BDF8;stroke-width:1;" x1="234.54" x2="409.4572" y1="664.1022" y2="664.1022"/><text fill="#CAD3F5" font-family="Helvetica" font-size="12" lengthAdjust="spacing" textLength="88.0326" x="239.54" y="680.9303">focus: (init, last)</text><text fill="#CAD3F5" font-family="Helvetica" font-size="12" lengthAdjust="spacing" textLength="130.0929" x="239.54" y="697.2744">direction: back-to-front</text></g><g class="entity" data-entity="Head" data-source-line="53" data-uid="ent0011" id="entity_Head"><rect fill="#363A4F" height="69.0323" rx="1.5" ry="1.5" style="stroke:#B7BDF8;stroke-width:0.5;" width="141.1809" x="884.41" y="627.5839"/><text fill="#CAD3F5" font-family="Helvetica" font-size="12" lengthAdjust="spacing" textLength="28.2962" x="940.8524" y="642.412">head</text><line style="stroke:#B7BDF8;stroke-width:0.5;" x1="885.41" x2="1024.5909" y1="647.9281" y2="647.9281"/><text fill="#CAD3F5" font-family="Helvetica" font-size="12" lengthAdjust="spacing" textLength="129.1809" x="890.41" y="664.7561">List&lt;A&gt; &#8594; Optional&lt;A&gt;</text><line style="stroke:#B7BDF8;stroke-width:1;" x1="885.41" x2="1024.5909" y1="672.2722" y2="672.2722"/><text fill="#CAD3F5" font-family="Helvetica" font-size="12" lengthAdjust="spacing" textLength="71.7485" x="890.41" y="689.1003">first element</text></g><g class="entity" data-entity="Last" data-source-line="59" data-uid="ent0012" id="entity_Last"><rect fill="#363A4F" height="69.0323" rx="1.5" ry="1.5" style="stroke:#B7BDF8;stroke-width:0.5;" width="141.1809" x="1060.41" y="627.5839"/><text fill="#CAD3F5" font-family="Helvetica" font-size="12" lengthAdjust="spacing" textLength="19.9081" x="1121.0464" y="642.412">last</text><line style="stroke:#B7BDF8;stroke-width:0.5;" x1="1061.41" x2="1200.5909" y1="647.9281" y2="647.9281"/><text fill="#CAD3F5" font-family="Helvetica" font-size="12" lengthAdjust="spacing" textLength="129.1809" x="1066.41" y="664.7561">List&lt;A&gt; &#8594; Optional&lt;A&gt;</text><line style="stroke:#B7BDF8;stroke-width:1;" x1="1061.41" x2="1200.5909" y1="672.2722" y2="672.2722"/><text fill="#CAD3F5" font-family="Helvetica" font-size="12" lengthAdjust="spacing" textLength="73.9565" x="1066.41" y="689.1003">final element</text></g><g class="entity" data-entity="Tail" data-source-line="65" data-uid="ent0013" id="entity_Tail"><rect fill="#363A4F" height="69.0323" rx="1.5" ry="1.5" style="stroke:#B7BDF8;stroke-width:0.5;" width="174.3732" x="465.81" y="627.5839"/><text fill="#CAD3F5" font-family="Helvetica" font-size="12" lengthAdjust="spacing" textLength="17.2561" x="544.3685" y="642.412">tail</text><line style="stroke:#B7BDF8;stroke-width:0.5;" x1="466.81" x2="639.1832" y1="647.9281" y2="647.9281"/><text fill="#CAD3F5" font-family="Helvetica" font-size="12" lengthAdjust="spacing" textLength="162.3732" x="471.81" y="664.7561">List&lt;A&gt; &#8594; Optional&lt;List&lt;A&gt;&gt;</text><line style="stroke:#B7BDF8;stroke-width:1;" x1="466.81" x2="639.1832" y1="672.2722" y2="672.2722"/><text fill="#CAD3F5" font-family="Helvetica" font-size="12" lengthAdjust="spacing" textLength="60.5524" x="471.81" y="689.1003">all but first</text></g><g class="entity" data-entity="Init" data-source-line="71" data-uid="ent0014" id="entity_Init"><rect fill="#363A4F" height="69.0323" rx="1.5" ry="1.5" style="stroke:#B7BDF8;stroke-width:0.5;" width="174.3732" x="674.81" y="627.5839"/><text fill="#CAD3F5" font-family="Helvetica" font-size="12" lengthAdjust="spacing" textLength="17.9401" x="753.0265" y="642.412">init</text><line style="stroke:#B7BDF8;stroke-width:0.5;" x1="675.81" x2="848.1832" y1="647.9281" y2="647.9281"/><text fill="#CAD3F5" font-family="Helvetica" font-size="12" lengthAdjust="spacing" textLength="162.3732" x="680.81" y="664.7561">List&lt;A&gt; &#8594; Optional&lt;List&lt;A&gt;&gt;</text><line style="stroke:#B7BDF8;stroke-width:1;" x1="675.81" x2="848.1832" y1="672.2722" y2="672.2722"/><text fill="#CAD3F5" font-family="Helvetica" font-size="12" lengthAdjust="spacing" textLength="58.2004" x="680.81" y="689.1003">all but last</text></g><!--class Prism--><g class="entity" data-entity="Prism" data-source-line="79" data-uid="ent0016" id="entity_Prism"><rect fill="#24273A" height="96.8244" rx="1.5" ry="1.5" style="stroke:#C6A0F6;stroke-width:2;" width="197.5732" x="523.21" y="805.7939"/><rect fill="#363A4F" height="31.792" rx="1.5" ry="1.5" style="stroke:#363A4F;stroke-width:2;" width="197.5732" x="523.21" y="805.7939"/><rect fill="#363A4F" height="1.5" style="stroke:#363A4F;stroke-width:2;" width="197.5732" x="523.21" y="836.086"/><rect fill="none" height="96.8244" rx="1.5" ry="1.5" style="stroke:#C6A0F6;stroke-width:2;" width="197.5732" x="523.21" y="805.7939"/><ellipse cx="586.2585" cy="821.69" fill="#B4A7E5" rx="10" ry="10" style="stroke:#181818;stroke-width:1;"/><path d="M583.8366,826.19 L583.8366,824.9868 L585.5085,824.7993 L585.5085,819.0181 L583.8366,818.815 L583.8366,817.6275 L588.8835,817.6275 L588.8835,818.815 L587.1804,819.0181 L587.1804,824.7993 L588.8835,824.9868 L588.8835,826.19 L583.8366,826.19 Z " fill="#CAD3F5"/><text fill="#A6DA95" font-family="Helvetica" font-size="16" font-style="italic" lengthAdjust="spacing" textLength="40.4801" x="605.2585" y="827.898">Prism</text><rect fill="#24273A" height="18.3441" style="stroke:#C6A0F6;stroke-width:1;stroke-dasharray:2,2;" width="20.9961" x="702.7871" y="802.7939"/><text fill="#CAD3F5" font-family="Helvetica" font-size="12" font-style="italic" lengthAdjust="spacing" textLength="18.9961" x="703.7871" y="816.622">S, A</text><line style="stroke:#C6A0F6;stroke-width:2;" x1="524.21" x2="719.7832" y1="837.586" y2="837.586"/><line style="stroke:#C6A0F6;stroke-width:2;" x1="524.21" x2="719.7832" y1="845.586" y2="845.586"/><ellipse cx="534.21" cy="859.258" fill="#84BE84" rx="3" ry="3" style="stroke:#038048;stroke-width:1;"/><text fill="#A6DA95" font-family="Helvetica" font-size="12" lengthAdjust="spacing" textLength="172.5732" x="542.21" y="862.4141">getOptional(s: S) : Optional&lt;A&gt;</text><ellipse cx="534.21" cy="875.6022" fill="#84BE84" rx="3" ry="3" style="stroke:#038048;stroke-width:1;"/><text fill="#A6DA95" font-family="Helvetica" font-size="12" lengthAdjust="spacing" textLength="72.3485" x="542.21" y="878.7582">build(a: A) : S</text><ellipse cx="534.21" cy="891.9463" fill="#84BE84" rx="3" ry="3" style="stroke:#038048;stroke-width:1;"/><text fill="#A6DA95" font-family="Helvetica" font-size="12" lengthAdjust="spacing" textLength="129.2169" x="542.21" y="895.1023">matches(s: S) : boolean</text></g><!--class Affine--><g class="entity" data-entity="Affine" data-source-line="85" data-uid="ent0017" id="entity_Affine"><rect fill="#24273A" height="80.4803" rx="1.5" ry="1.5" style="stroke:#C6A0F6;stroke-width:2;" width="197.5732" x="756.21" y="813.9639"/><rect fill="#363A4F" height="31.792" rx="1.5" ry="1.5" style="stroke:#363A4F;stroke-width:2;" width="197.5732" x="756.21" y="813.9639"/><rect fill="#363A4F" height="1.5" style="stroke:#363A4F;stroke-width:2;" width="197.5732" x="756.21" y="844.256"/><rect fill="none" height="80.4803" rx="1.5" ry="1.5" style="stroke:#C6A0F6;stroke-width:2;" width="197.5732" x="756.21" y="813.9639"/><ellipse cx="819.2265" cy="829.86" fill="#B4A7E5" rx="10" ry="10" style="stroke:#181818;stroke-width:1;"/><path d="M816.8046,834.36 L816.8046,833.1568 L818.4765,832.9693 L818.4765,827.1881 L816.8046,826.985 L816.8046,825.7975 L821.8515,825.7975 L821.8515,826.985 L820.1484,827.1881 L820.1484,832.9693 L821.8515,833.1568 L821.8515,834.36 L816.8046,834.36 Z " fill="#CAD3F5"/><text fill="#A6DA95" font-family="Helvetica" font-size="16" font-style="italic" lengthAdjust="spacing" textLength="40.5441" x="838.2265" y="836.068">Affine</text><rect fill="#24273A" height="18.3441" style="stroke:#C6A0F6;stroke-width:1;stroke-dasharray:2,2;" width="20.9961" x="935.7871" y="810.9639"/><text fill="#CAD3F5" font-family="Helvetica" font-size="12" font-style="italic" lengthAdjust="spacing" textLength="18.9961" x="936.7871" y="824.792">S, A</text><line style="stroke:#C6A0F6;stroke-width:2;" x1="757.21" x2="952.7832" y1="845.756" y2="845.756"/><line style="stroke:#C6A0F6;stroke-width:2;" x1="757.21" x2="952.7832" y1="853.756" y2="853.756"/><ellipse cx="767.21" cy="867.428" fill="#84BE84" rx="3" ry="3" style="stroke:#038048;stroke-width:1;"/><text fill="#A6DA95" font-family="Helvetica" font-size="12" lengthAdjust="spacing" textLength="172.5732" x="775.21" y="870.5841">getOptional(s: S) : Optional&lt;A&gt;</text><ellipse cx="767.21" cy="883.7722" fill="#84BE84" rx="3" ry="3" style="stroke:#038048;stroke-width:1;"/><text fill="#A6DA95" font-family="Helvetica" font-size="12" lengthAdjust="spacing" textLength="85.8366" x="775.21" y="886.9282">set(a: A, s: S) : S</text></g><!--link ListPrisms to Cons--><g class="link" data-entity-1="ListPrisms" data-entity-2="Cons" data-source-line="91" data-uid="lnk18" id="link_ListPrisms_Cons"><path codeLine="91" d="M509.12,418.3339 C421.47,459.5639 309.59,516.1839 216,576.4139 C196.29,589.0939 180.5368,600.9183 162.9568,615.2783" fill="none" id="ListPrisms-to-Cons" style="stroke:#F5BDE6;stroke-width:1;stroke-dasharray:7,7;"/><polygon fill="#F5BDE6" points="158.31,619.0739,167.8107,616.4783,162.1823,615.9109,162.7498,610.2825,158.31,619.0739" style="stroke:#F5BDE6;stroke-width:1;"/><text fill="#CAD3F5" font-family="Helvetica" font-size="12" lengthAdjust="spacing" textLength="41.0643" x="250.97" y="564.242">creates</text></g><!--link ListPrisms to Snoc--><g class="link" data-entity-1="ListPrisms" data-entity-2="Snoc" data-source-line="92" data-uid="lnk19" id="link_ListPrisms_Snoc"><path codeLine="92" d="M509.58,488.3539 C458.32,535.5639 408.9342,581.0501 372.1542,614.9101" fill="none" id="ListPrisms-to-Snoc" style="stroke:#F5BDE6;stroke-width:1;stroke-dasharray:7,7;"/><polygon fill="#F5BDE6" points="367.74,618.9739,377.0706,615.8211,371.4185,615.5874,371.6522,609.9354,367.74,618.9739" style="stroke:#F5BDE6;stroke-width:1;"/><text fill="#CAD3F5" font-family="Helvetica" font-size="12" lengthAdjust="spacing" textLength="41.0643" x="440.92" y="564.242">creates</text></g><!--link ListPrisms to Head--><g class="link" data-entity-1="ListPrisms" data-entity-2="Head" data-source-line="93" data-uid="lnk20" id="link_ListPrisms_Head"><path codeLine="93" d="M804.69,505.4939 C848.89,551.2539 889.0714,592.8485 918.0214,622.8185" fill="none" id="ListPrisms-to-Head" style="stroke:#F5BDE6;stroke-width:1;stroke-dasharray:7,7;"/><polygon fill="#F5BDE6" points="922.19,627.1339,918.8141,617.8817,918.7162,623.5377,913.0602,623.4398,922.19,627.1339" style="stroke:#F5BDE6;stroke-width:1;"/><text fill="#CAD3F5" font-family="Helvetica" font-size="12" lengthAdjust="spacing" textLength="41.0643" x="859.61" y="564.242">creates</text></g><!--link ListPrisms to Last--><g class="link" data-entity-1="ListPrisms" data-entity-2="Last" data-source-line="94" data-uid="lnk21" id="link_ListPrisms_Last"><path codeLine="94" d="M804.75,427.3539 C878.94,467.5639 968.61,520.3439 1043,576.4139 C1063.15,591.6039 1079.3741,606.6849 1095.4741,623.0649" fill="none" id="ListPrisms-to-Last" style="stroke:#F5BDE6;stroke-width:1;stroke-dasharray:7,7;"/><polygon fill="#F5BDE6" points="1099.68,627.3439,1096.2238,618.1214,1096.1751,623.7781,1090.5184,623.7293,1099.68,627.3439" style="stroke:#F5BDE6;stroke-width:1;"/><text fill="#CAD3F5" font-family="Helvetica" font-size="12" lengthAdjust="spacing" textLength="41.0643" x="1024.68" y="564.242">creates</text></g><!--link ListPrisms to Tail--><g class="link" data-entity-1="ListPrisms" data-entity-2="Tail" data-source-line="95" data-uid="lnk22" id="link_ListPrisms_Tail"><path codeLine="95" d="M601.04,518.5839 C587.1,559.9439 575.4569,594.4884 566.3169,621.5984" fill="none" id="ListPrisms-to-Tail" style="stroke:#F5BDE6;stroke-width:1;stroke-dasharray:7,7;"/><polygon fill="#F5BDE6" points="564.4,627.2839,571.0657,620.0335,565.9974,622.546,563.4849,617.4777,564.4,627.2839" style="stroke:#F5BDE6;stroke-width:1;"/><text fill="#CAD3F5" font-family="Helvetica" font-size="12" lengthAdjust="spacing" textLength="41.0643" x="590.61" y="564.242">creates</text></g><!--link ListPrisms to Init--><g class="link" data-entity-1="ListPrisms" data-entity-2="Init" data-source-line="96" data-uid="lnk23" id="link_ListPrisms_Init"><path codeLine="96" d="M713.5,518.5839 C727.57,559.9439 739.3262,594.4941 748.5562,621.6041" fill="none" id="ListPrisms-to-Init" style="stroke:#F5BDE6;stroke-width:1;stroke-dasharray:7,7;"/><polygon fill="#F5BDE6" points="750.49,627.2839,751.3759,617.475,748.8785,622.5507,743.8028,620.0534,750.49,627.2839" style="stroke:#F5BDE6;stroke-width:1;"/><text fill="#CAD3F5" font-family="Helvetica" font-size="12" lengthAdjust="spacing" textLength="41.0643" x="729.04" y="564.242">creates</text></g><!--link Cons to Prism--><g class="link" data-entity-1="Cons" data-entity-2="Prism" data-source-line="98" data-uid="lnk24" id="link_Cons_Prism"><path codeLine="98" d="M172.15,705.2839 C186.2,713.7739 201.31,722.1239 216,728.7939 C316.86,774.5639 433.3601,808.005 517.2101,829.025" fill="none" id="Cons-to-Prism" style="stroke:#F5BDE6;stroke-width:1;stroke-dasharray:7,7;"/><polygon fill="#F5BDE6" points="523.03,830.4839,515.2728,824.4155,518.1801,829.2681,513.3275,832.1754,523.03,830.4839" style="stroke:#F5BDE6;stroke-width:1;"/><text fill="#CAD3F5" font-family="Helvetica" font-size="12" lengthAdjust="spacing" textLength="67.0445" x="270.13" y="750.622">implements</text></g><!--link Snoc to Prism--><g class="link" data-entity-1="Snoc" data-entity-2="Prism" data-source-line="99" data-uid="lnk25" id="link_Snoc_Prism"><path codeLine="99" d="M388.21,705.0539 C434.97,734.6839 492.6617,771.2426 541.3817,802.1126" fill="none" id="Snoc-to-Prism" style="stroke:#F5BDE6;stroke-width:1;stroke-dasharray:7,7;"/><polygon fill="#F5BDE6" points="546.45,805.3239,540.9885,797.1281,542.2265,802.6478,536.7067,803.8858,546.45,805.3239" style="stroke:#F5BDE6;stroke-width:1;"/><text fill="#CAD3F5" font-family="Helvetica" font-size="12" lengthAdjust="spacing" textLength="67.0445" x="464" y="750.622">implements</text></g><!--link Head to Affine--><g class="link" data-entity-1="Head" data-entity-2="Affine" data-source-line="100" data-uid="lnk26" id="link_Head_Affine"><path codeLine="100" d="M937.12,697.0839 C919.93,729.7639 896.7531,773.8337 878.6331,808.2837" fill="none" id="Head-to-Affine" style="stroke:#F5BDE6;stroke-width:1;stroke-dasharray:7,7;"/><polygon fill="#F5BDE6" points="875.84,813.5939,883.5698,807.4906,878.1676,809.1687,876.4895,803.7665,875.84,813.5939" style="stroke:#F5BDE6;stroke-width:1;"/><text fill="#CAD3F5" font-family="Helvetica" font-size="12" lengthAdjust="spacing" textLength="67.0445" x="914.96" y="750.622">implements</text></g><!--link Last to Affine--><g class="link" data-entity-1="Last" data-entity-2="Affine" data-source-line="101" data-uid="lnk27" id="link_Last_Affine"><path codeLine="101" d="M1086.59,697.0139 C1072.75,707.3739 1057.35,718.7039 1043,728.7939 C1001.38,758.0539 958.5813,786.415 921.5813,810.455" fill="none" id="Last-to-Affine" style="stroke:#F5BDE6;stroke-width:1;stroke-dasharray:7,7;"/><polygon fill="#F5BDE6" points="916.55,813.7239,926.2762,812.1747,920.7427,810.9998,921.9176,805.4663,916.55,813.7239" style="stroke:#F5BDE6;stroke-width:1;"/><text fill="#CAD3F5" font-family="Helvetica" font-size="12" lengthAdjust="spacing" textLength="67.0445" x="1029.02" y="750.622">implements</text></g><!--link Tail to Prism--><g class="link" data-entity-1="Tail" data-entity-2="Prism" data-source-line="102" data-uid="lnk28" id="link_Tail_Prism"><path codeLine="102" d="M565.34,697.0839 C576.31,727.3139 590.4125,766.1741 602.6725,799.9441" fill="none" id="Tail-to-Prism" style="stroke:#F5BDE6;stroke-width:1;stroke-dasharray:7,7;"/><polygon fill="#F5BDE6" points="604.72,805.5839,605.4086,795.7592,603.0137,800.8841,597.8888,798.4892,604.72,805.5839" style="stroke:#F5BDE6;stroke-width:1;"/><text fill="#CAD3F5" font-family="Helvetica" font-size="12" lengthAdjust="spacing" textLength="67.0445" x="586.43" y="750.622">implements</text></g><!--link Init to Prism--><g class="link" data-entity-1="Init" data-entity-2="Prism" data-source-line="103" data-uid="lnk29" id="link_Init_Prism"><path codeLine="103" d="M736.97,697.0839 C714.71,727.3139 685.487,766.982 660.627,800.752" fill="none" id="Init-to-Prism" style="stroke:#F5BDE6;stroke-width:1;stroke-dasharray:7,7;"/><polygon fill="#F5BDE6" points="657.07,805.5839,665.6268,800.7074,660.0342,801.5573,659.1843,795.9647,657.07,805.5839" style="stroke:#F5BDE6;stroke-width:1;"/><text fill="#CAD3F5" font-family="Helvetica" font-size="12" lengthAdjust="spacing" textLength="67.0445" x="705.54" y="750.622">implements</text></g><!--SRC=[hPR1RXen48Rl-nHJJaHPGEqHHKX03gsKgbL9r4EKW_7EWXkllR9DgZJAjG_GH-oJr9vb5vFiXfIMqpBZt_DvFFpB6w6ut6G8Q-TAEnwD3Fi-N0cttYmt5WtNog5oGwwBaUBQEZOGVCIPAyiDvq8D2iRvMZ2d1wLaocqAEN1hB71KCA56z3WiVJH9d70IuK9O1-Vezokr5Kve1P-Di8LDafBnMxP2w8KrLH06JzSovz0esuE7907_uP9P6qjwm2n4EppGil1vyFHEy4Su1NyiUpQTz4zWN9K_2meVINq5OSwcAMm3aqcRtYhDNz8ttwRj-ZMox989-IyCGWbtmMZ1tt4C1br8zLRJF1SAOtMRGaR5NwTmtKUkZzfrqYDaM9JklaDtvRSyr95So-oBMAsz8frD-j9hKs8HJAQGXrrdRRg2bPU6-PcLeIMHbYI4C6i5peNqmnrhQsLfC6l4xRqrU8V6udFr0LqkcVjuBF4FKNxrNh4lJkTU_ZO5-IxUODun4RVOTc1rW3epkdoLxh6o2QKTWjCbw3moXsRdAoUaSFTRDycrWNoZU70S9fj5eG9aUtPKRks8rg3Ag4xo67bPjtq5YLv-G-wW5_m8Heqja8VDGspdNjVU3sOfp5Culu7VFt_H3xplWzTrzAHjddFDDtOC_R1rIZ_0tR9C6AH3ZY4ttkW7tiMN7ZnkN4qO7CyJrgP3X8iGEqHOHszy-4N2i7LAfj9A6C02895k2UD6-tRTeHAeECAKSxHMcsTz3bqWzFV-8KBVJWnHVoghUuydByOLney1IlzYQpZsQiYwFQ5FnzRmkPTgk7f8mhGSgl7C8wDAJ4fORbnrghPAuLQeqWV_y3ygXVQqNfz1seWtboRyNm-JCt-VlSgz5-6zGZ3qFQ8vXHMw6gFlfsaHVA2jowSUGiYip_mxAwnPH9c2ERv6s-YNMajaAcvBnBHzvUsWgi2HL1OTCQLGhrlikXJzdHaE9vKpZ84RP0xjqopzAZkpDFYTMHhPpYmDMsUM1cINJOWo9AhB6eCeocgYRKAC7JaY3BbjF_UI1DYL9BwENOck8_S7]--></g></svg>