<svg xmlns="http://www.w3.org/2000/svg" xmlns:xlink="http://www.w3.org/1999/xlink" contentStyleType="text/css" data-diagram-type="CLASS" height="689px" preserveAspectRatio="none" style="width:612px;height:689px;background:#24273A;" version="1.1" viewBox="0 0 612 689" width="612px" zoomAndPan="magnify"><defs/><g><rect fill="#24273A" height="689" style="stroke:none;stroke-width:1;" width="612" x="0" y="0"/><!--cluster HKT Core - Type Classes--><g class="cluster" data-entity="HKT Core - Type Classes" data-source-line="5" data-uid="ent0002" id="cluster_HKT Core - Type Classes"><path d="M7.5,6.016 L150.853,6.016 A2.25,2.25 0 0 1 152.353,7.516 L159.353,28.3601 L603.5,28.3601 A1.5,1.5 0 0 1 605,29.8601 L605,681.266 A1.5,1.5 0 0 1 603.5,682.766 L7.5,682.766 A1.5,1.5 0 0 1 6,681.266 L6,7.516 A1.5,1.5 0 0 1 7.5,6.016" fill="#24273A" style="stroke:#CAD3F5;stroke-width:1.5;"/><line style="stroke:#CAD3F5;stroke-width:1.5;" x1="6" x2="159.353" y1="28.3601" y2="28.3601"/><text fill="#CAD3F5" font-family="Helvetica" font-size="12" font-weight="bold" lengthAdjust="spacing" textLength="140.353" x="10" y="20.8441">HKT Core - Type Classes</text></g><!--class Kind--><g class="entity" data-entity="Kind" data-source-line="6" data-uid="ent0003" id="entity_Kind"><rect fill="#24273A" height="47.792" rx="1.5" ry="1.5" style="stroke:#C6A0F6;stroke-width:2;" width="215.1331" x="201.43" y="493.186"/><rect fill="#363A4F" height="31.792" rx="1.5" ry="1.5" style="stroke:#363A4F;stroke-width:2;" width="215.1331" x="201.43" y="493.186"/><rect fill="#363A4F" height="1.5" style="stroke:#363A4F;stroke-width:2;" width="215.1331" x="201.43" y="523.4781"/><rect fill="none" height="47.792" rx="1.5" ry="1.5" style="stroke:#C6A0F6;stroke-width:2;" width="215.1331" x="201.43" y="493.186"/><ellipse cx="215.43" cy="509.082" fill="#B4A7E5" rx="10" ry="10" style="stroke:#181818;stroke-width:1;"/><path d="M213.0081,513.582 L213.0081,512.3789 L214.68,512.1914 L214.68,506.4102 L213.0081,506.207 L213.0081,505.0195 L218.055,505.0195 L218.055,506.207 L216.3519,506.4102 L216.3519,512.1914 L218.055,512.3789 L218.055,513.582 L213.0081,513.582 Z " fill="#CAD3F5"/><text fill="#A6DA95" font-family="Helvetica" font-size="16" font-style="italic" lengthAdjust="spacing" textLength="31.6481" x="228.43" y="515.2901">Kind</text><rect fill="#24273A" height="18.3441" style="stroke:#C6A0F6;stroke-width:1;stroke-dasharray:2,2;" width="151.485" x="268.0781" y="490.186"/><text fill="#CAD3F5" font-family="Helvetica" font-size="12" font-style="italic" lengthAdjust="spacing" textLength="149.485" x="269.0781" y="504.0141">F extends WitnessArity&lt;?&gt;, A</text><line style="stroke:#C6A0F6;stroke-width:2;" x1="202.43" x2="415.5631" y1="524.9781" y2="524.9781"/><line style="stroke:#C6A0F6;stroke-width:2;" x1="202.43" x2="415.5631" y1="532.9781" y2="532.9781"/></g><!--class WitnessArity--><g class="entity" data-entity="WitnessArity" data-source-line="10" data-uid="ent0004" id="entity_WitnessArity"><rect fill="#24273A" height="47.792" rx="1.5" ry="1.5" style="stroke:#C6A0F6;stroke-width:2;" width="223.0569" x="197.47" y="618.976"/><rect fill="#363A4F" height="31.792" rx="1.5" ry="1.5" style="stroke:#363A4F;stroke-width:2;" width="223.0569" x="197.47" y="618.976"/><rect fill="#363A4F" height="1.5" style="stroke:#363A4F;stroke-width:2;" width="223.0569" x="197.47" y="649.2681"/><rect fill="none" height="47.792" rx="1.5" ry="1.5" style="stroke:#C6A0F6;stroke-width:2;" width="223.0569" x="197.47" y="618.976"/><ellipse cx="211.47" cy="634.872" fill="#B4A7E5" rx="10" ry="10" style="stroke:#181818;stroke-width:1;"/><path d="M209.0481,639.372 L209.0481,638.1689 L210.72,637.9814 L210.72,632.2002 L209.0481,631.997 L209.0481,630.8095 L214.095,630.8095 L214.095,631.997 L212.3919,632.2002 L212.3919,637.9814 L214.095,638.1689 L214.095,639.372 L209.0481,639.372 Z " fill="#CAD3F5"/><text fill="#A6DA95" font-family="Helvetica" font-size="16" font-style="italic" lengthAdjust="spacing" textLength="86.4802" x="224.47" y="641.0801">WitnessArity</text><rect fill="#24273A" height="18.3441" style="stroke:#C6A0F6;stroke-width:1;stroke-dasharray:2,2;" width="104.5767" x="318.9502" y="615.976"/><text fill="#CAD3F5" font-family="Helvetica" font-size="12" font-style="italic" lengthAdjust="spacing" textLength="102.5767" x="319.9502" y="629.8041">A extends TypeArity</text><line style="stroke:#C6A0F6;stroke-width:2;" x1="198.47" x2="419.5269" y1="650.7681" y2="650.7681"/><line style="stroke:#C6A0F6;stroke-width:2;" x1="198.47" x2="419.5269" y1="658.7681" y2="658.7681"/></g><!--class Functor--><g class="entity" data-entity="Functor" data-source-line="11" data-uid="ent0005" id="entity_Functor"><rect fill="#24273A" height="47.792" rx="1.5" ry="1.5" style="stroke:#C6A0F6;stroke-width:2;" width="251.7532" x="183.12" y="367.386"/><rect fill="#363A4F" height="31.792" rx="1.5" ry="1.5" style="stroke:#363A4F;stroke-width:2;" width="251.7532" x="183.12" y="367.386"/><rect fill="#363A4F" height="1.5" style="stroke:#363A4F;stroke-width:2;" width="251.7532" x="183.12" y="397.6781"/><rect fill="none" height="47.792" rx="1.5" ry="1.5" style="stroke:#C6A0F6;stroke-width:2;" width="251.7532" x="183.12" y="367.386"/><ellipse cx="197.12" cy="383.282" fill="#B4A7E5" rx="10" ry="10" style="stroke:#181818;stroke-width:1;"/><path d="M194.6981,387.782 L194.6981,386.5789 L196.37,386.3914 L196.37,380.6102 L194.6981,380.407 L194.6981,379.2195 L199.745,379.2195 L199.745,380.407 L198.0419,380.6102 L198.0419,386.3914 L199.745,386.5789 L199.745,387.782 L194.6981,387.782 Z " fill="#CAD3F5"/><text fill="#A6DA95" font-family="Helvetica" font-size="16" font-style="italic" lengthAdjust="spacing" textLength="54.0961" x="210.12" y="389.4901">Functor</text><rect fill="#24273A" height="18.3441" style="stroke:#C6A0F6;stroke-width:1;stroke-dasharray:2,2;" width="165.6571" x="272.2161" y="364.386"/><text fill="#CAD3F5" font-family="Helvetica" font-size="12" font-style="italic" lengthAdjust="spacing" textLength="163.6571" x="273.2161" y="378.2141">F extends WitnessArity&lt;Unary&gt;</text><line style="stroke:#C6A0F6;stroke-width:2;" x1="184.12" x2="433.8732" y1="399.1781" y2="399.1781"/><line style="stroke:#C6A0F6;stroke-width:2;" x1="184.12" x2="433.8732" y1="407.1781" y2="407.1781"/></g><!--class Applicative--><g class="entity" data-entity="Applicative" data-source-line="12" data-uid="ent0006" id="entity_Applicative"><rect fill="#24273A" height="47.792" rx="1.5" ry="1.5" style="stroke:#C6A0F6;stroke-width:2;" width="274.6653" x="21.67" y="258.596"/><rect fill="#363A4F" height="31.792" rx="1.5" ry="1.5" style="stroke:#363A4F;stroke-width:2;" width="274.6653" x="21.67" y="258.596"/><rect fill="#363A4F" height="1.5" style="stroke:#363A4F;stroke-width:2;" width="274.6653" x="21.67" y="288.8881"/><rect fill="none" height="47.792" rx="1.5" ry="1.5" style="stroke:#C6A0F6;stroke-width:2;" width="274.6653" x="21.67" y="258.596"/><ellipse cx="35.67" cy="274.492" fill="#B4A7E5" rx="10" ry="10" style="stroke:#181818;stroke-width:1;"/><path d="M33.2481,278.992 L33.2481,277.7889 L34.92,277.6014 L34.92,271.8202 L33.2481,271.617 L33.2481,270.4295 L38.295,270.4295 L38.295,271.617 L36.5919,271.8202 L36.5919,277.6014 L38.295,277.7889 L38.295,278.992 L33.2481,278.992 Z " fill="#CAD3F5"/><text fill="#A6DA95" font-family="Helvetica" font-size="16" font-style="italic" lengthAdjust="spacing" textLength="77.0081" x="48.67" y="280.7001">Applicative</text><rect fill="#24273A" height="18.3441" style="stroke:#C6A0F6;stroke-width:1;stroke-dasharray:2,2;" width="165.6571" x="133.6781" y="255.596"/><text fill="#CAD3F5" font-family="Helvetica" font-size="12" font-style="italic" lengthAdjust="spacing" textLength="163.6571" x="134.6781" y="269.4241">F extends WitnessArity&lt;Unary&gt;</text><line style="stroke:#C6A0F6;stroke-width:2;" x1="22.67" x2="295.3353" y1="290.3881" y2="290.3881"/><line style="stroke:#C6A0F6;stroke-width:2;" x1="22.67" x2="295.3353" y1="298.3881" y2="298.3881"/></g><!--class Monad--><g class="entity" data-entity="Monad" data-source-line="14" data-uid="ent0007" id="entity_Monad"><rect fill="#24273A" height="47.792" rx="1.5" ry="1.5" style="stroke:#C6A0F6;stroke-width:2;" width="247.7372" x="43.13" y="149.806"/><rect fill="#363A4F" height="31.792" rx="1.5" ry="1.5" style="stroke:#363A4F;stroke-width:2;" width="247.7372" x="43.13" y="149.806"/><rect fill="#363A4F" height="1.5" style="stroke:#363A4F;stroke-width:2;" width="247.7372" x="43.13" y="180.0981"/><rect fill="none" height="47.792" rx="1.5" ry="1.5" style="stroke:#C6A0F6;stroke-width:2;" width="247.7372" x="43.13" y="149.806"/><ellipse cx="57.13" cy="165.702" fill="#B4A7E5" rx="10" ry="10" style="stroke:#181818;stroke-width:1;"/><path d="M54.7081,170.202 L54.7081,168.9989 L56.38,168.8114 L56.38,163.0302 L54.7081,162.827 L54.7081,161.6395 L59.755,161.6395 L59.755,162.827 L58.0519,163.0302 L58.0519,168.8114 L59.755,168.9989 L59.755,170.202 L54.7081,170.202 Z " fill="#CAD3F5"/><text fill="#A6DA95" font-family="Helvetica" font-size="16" font-style="italic" lengthAdjust="spacing" textLength="50.0801" x="70.13" y="171.9101">Monad</text><rect fill="#24273A" height="18.3441" style="stroke:#C6A0F6;stroke-width:1;stroke-dasharray:2,2;" width="165.6571" x="128.2101" y="146.806"/><text fill="#CAD3F5" font-family="Helvetica" font-size="12" font-style="italic" lengthAdjust="spacing" textLength="163.6571" x="129.2101" y="160.6341">F extends WitnessArity&lt;Unary&gt;</text><line style="stroke:#C6A0F6;stroke-width:2;" x1="44.13" x2="289.8672" y1="181.5981" y2="181.5981"/><line style="stroke:#C6A0F6;stroke-width:2;" x1="44.13" x2="289.8672" y1="189.5981" y2="189.5981"/></g><!--class MonadError--><g class="entity" data-entity="MonadError" data-source-line="15" data-uid="ent0008" id="entity_MonadError"><rect fill="#24273A" height="47.792" rx="1.5" ry="1.5" style="stroke:#C6A0F6;stroke-width:2;" width="296.4333" x="21.78" y="41.016"/><rect fill="#363A4F" height="31.792" rx="1.5" ry="1.5" style="stroke:#363A4F;stroke-width:2;" width="296.4333" x="21.78" y="41.016"/><rect fill="#363A4F" height="1.5" style="stroke:#363A4F;stroke-width:2;" width="296.4333" x="21.78" y="71.3081"/><rect fill="none" height="47.792" rx="1.5" ry="1.5" style="stroke:#C6A0F6;stroke-width:2;" width="296.4333" x="21.78" y="41.016"/><ellipse cx="35.78" cy="56.912" fill="#B4A7E5" rx="10" ry="10" style="stroke:#181818;stroke-width:1;"/><path d="M33.3581,61.412 L33.3581,60.2089 L35.03,60.0214 L35.03,54.2402 L33.3581,54.037 L33.3581,52.8495 L38.405,52.8495 L38.405,54.037 L36.7019,54.2402 L36.7019,60.0214 L38.405,60.2089 L38.405,61.412 L33.3581,61.412 Z " fill="#CAD3F5"/><text fill="#A6DA95" font-family="Helvetica" font-size="16" font-style="italic" lengthAdjust="spacing" textLength="86.4162" x="48.78" y="63.1201">MonadError</text><rect fill="#24273A" height="18.3441" style="stroke:#C6A0F6;stroke-width:1;stroke-dasharray:2,2;" width="178.0172" x="143.1962" y="38.016"/><text fill="#CAD3F5" font-family="Helvetica" font-size="12" font-style="italic" lengthAdjust="spacing" textLength="176.0172" x="144.1962" y="51.8441">F extends WitnessArity&lt;Unary&gt;, E</text><line style="stroke:#C6A0F6;stroke-width:2;" x1="22.78" x2="317.2133" y1="72.8081" y2="72.8081"/><line style="stroke:#C6A0F6;stroke-width:2;" x1="22.78" x2="317.2133" y1="80.8081" y2="80.8081"/></g><!--class Monoid--><g class="entity" data-entity="Monoid" data-source-line="17" data-uid="ent0009" id="entity_Monoid"><rect fill="#24273A" height="47.792" rx="1.5" ry="1.5" style="stroke:#C6A0F6;stroke-width:2;" width="94.8721" x="423.56" y="41.016"/><rect fill="#363A4F" height="31.792" rx="1.5" ry="1.5" style="stroke:#363A4F;stroke-width:2;" width="94.8721" x="423.56" y="41.016"/><rect fill="#363A4F" height="1.5" style="stroke:#363A4F;stroke-width:2;" width="94.8721" x="423.56" y="71.3081"/><rect fill="none" height="47.792" rx="1.5" ry="1.5" style="stroke:#C6A0F6;stroke-width:2;" width="94.8721" x="423.56" y="41.016"/><ellipse cx="437.56" cy="56.912" fill="#B4A7E5" rx="10" ry="10" style="stroke:#181818;stroke-width:1;"/><path d="M435.1381,61.412 L435.1381,60.2089 L436.81,60.0214 L436.81,54.2402 L435.1381,54.037 L435.1381,52.8495 L440.185,52.8495 L440.185,54.037 L438.4819,54.2402 L438.4819,60.0214 L440.185,60.2089 L440.185,61.412 L435.1381,61.412 Z " fill="#CAD3F5"/><text fill="#A6DA95" font-family="Helvetica" font-size="16" font-style="italic" lengthAdjust="spacing" textLength="54.1281" x="450.56" y="63.1201">Monoid</text><rect fill="#24273A" height="18.3441" style="stroke:#C6A0F6;stroke-width:1;stroke-dasharray:2,2;" width="8.744" x="512.6881" y="38.016"/><text fill="#CAD3F5" font-family="Helvetica" font-size="12" font-style="italic" lengthAdjust="spacing" textLength="6.744" x="513.6881" y="51.8441">A</text><line style="stroke:#C6A0F6;stroke-width:2;" x1="424.56" x2="517.4321" y1="72.8081" y2="72.8081"/><line style="stroke:#C6A0F6;stroke-width:2;" x1="424.56" x2="517.4321" y1="80.8081" y2="80.8081"/></g><!--class Traverse--><g class="entity" data-entity="Traverse" data-source-line="19" data-uid="ent0010" id="entity_Traverse"><rect fill="#24273A" height="47.792" rx="1.5" ry="1.5" style="stroke:#C6A0F6;stroke-width:2;" width="258.1372" x="330.93" y="258.596"/><rect fill="#363A4F" height="31.792" rx="1.5" ry="1.5" style="stroke:#363A4F;stroke-width:2;" width="258.1372" x="330.93" y="258.596"/><rect fill="#363A4F" height="1.5" style="stroke:#363A4F;stroke-width:2;" width="258.1372" x="330.93" y="288.8881"/><rect fill="none" height="47.792" rx="1.5" ry="1.5" style="stroke:#C6A0F6;stroke-width:2;" width="258.1372" x="330.93" y="258.596"/><ellipse cx="344.93" cy="274.492" fill="#B4A7E5" rx="10" ry="10" style="stroke:#181818;stroke-width:1;"/><path d="M342.5081,278.992 L342.5081,277.7889 L344.18,277.6014 L344.18,271.8202 L342.5081,271.617 L342.5081,270.4295 L347.555,270.4295 L347.555,271.617 L345.8519,271.8202 L345.8519,277.6014 L347.555,277.7889 L347.555,278.992 L342.5081,278.992 Z " fill="#CAD3F5"/><text fill="#A6DA95" font-family="Helvetica" font-size="16" font-style="italic" lengthAdjust="spacing" textLength="60.1921" x="357.93" y="280.7001">Traverse</text><rect fill="#24273A" height="18.3441" style="stroke:#C6A0F6;stroke-width:1;stroke-dasharray:2,2;" width="165.9451" x="426.1221" y="255.596"/><text fill="#CAD3F5" font-family="Helvetica" font-size="12" font-style="italic" lengthAdjust="spacing" textLength="163.9451" x="427.1221" y="269.4241">T extends WitnessArity&lt;Unary&gt;</text><line style="stroke:#C6A0F6;stroke-width:2;" x1="331.93" x2="588.0672" y1="290.3881" y2="290.3881"/><line style="stroke:#C6A0F6;stroke-width:2;" x1="331.93" x2="588.0672" y1="298.3881" y2="298.3881"/></g><!--link Kind to WitnessArity--><g class="link" data-entity-1="Kind" data-entity-2="WitnessArity" data-source-line="21" data-uid="lnk11" id="link_Kind_WitnessArity"><path codeLine="21" d="M309,541.366 C309,563.496 309,590.596 309,612.686" fill="none" id="Kind-to-WitnessArity" style="stroke:#F5BDE6;stroke-width:1;stroke-dasharray:7,7;"/><polygon fill="#F5BDE6" points="309,618.686,313,609.686,309,613.686,305,609.686,309,618.686" style="stroke:#F5BDE6;stroke-width:1;"/><text fill="#CAD3F5" font-family="Helvetica" font-size="12" lengthAdjust="spacing" textLength="54.1084" x="310" y="584.8041">F extends</text></g><!--link Functor to Kind--><g class="link" data-entity-1="Functor" data-entity-2="Kind" data-source-line="22" data-uid="lnk12" id="link_Functor_Kind"><path codeLine="22" d="M309,415.566 C309,437.706 309,464.796 309,486.896" fill="none" id="Functor-to-Kind" style="stroke:#F5BDE6;stroke-width:1;stroke-dasharray:7,7;"/><polygon fill="#F5BDE6" points="309,492.896,313,483.896,309,487.896,305,483.896,309,492.896" style="stroke:#F5BDE6;stroke-width:1;"/><text fill="#CAD3F5" font-family="Helvetica" font-size="12" lengthAdjust="spacing" textLength="74.9405" x="310" y="459.0141">(operates on)</text></g><!--link Applicative to Functor--><g class="link" data-entity-1="Applicative" data-entity-2="Functor" data-source-line="23" data-uid="lnk13" id="link_Applicative_Functor"><path codeLine="23" d="M191.55,306.666 C216.62,324.516 236.4663,338.6469 261.5963,356.5369" fill="none" id="Applicative-to-Functor" style="stroke:#F5BDE6;stroke-width:1;"/><polygon fill="none" points="276.26,366.976,265.076,351.649,258.1166,361.4248,276.26,366.976" style="stroke:#F5BDE6;stroke-width:1;"/></g><!--link Monad to Applicative--><g class="link" data-entity-1="Monad" data-entity-2="Applicative" data-source-line="24" data-uid="lnk14" id="link_Monad_Applicative"><path codeLine="24" d="M165.26,197.876 C163.92,215.786 163.4137,222.5163 162.0737,240.4163" fill="none" id="Monad-to-Applicative" style="stroke:#F5BDE6;stroke-width:1;"/><polygon fill="none" points="160.73,258.366,168.057,240.8642,156.0905,239.9683,160.73,258.366" style="stroke:#F5BDE6;stroke-width:1;"/></g><!--link MonadError to Monad--><g class="link" data-entity-1="MonadError" data-entity-2="Monad" data-source-line="25" data-uid="lnk15" id="link_MonadError_Monad"><path codeLine="25" d="M169.35,89.086 C168.85,106.996 168.6526,113.683 168.1526,131.583" fill="none" id="MonadError-to-Monad" style="stroke:#F5BDE6;stroke-width:1;"/><polygon fill="none" points="167.65,149.576,174.1503,131.7506,162.1549,131.4155,167.65,149.576" style="stroke:#F5BDE6;stroke-width:1;"/></g><!--link Traverse to Functor--><g class="link" data-entity-1="Traverse" data-entity-2="Functor" data-source-line="26" data-uid="lnk16" id="link_Traverse_Functor"><path codeLine="26" d="M427.24,306.666 C401.99,324.516 381.9449,338.6909 356.6549,356.5809" fill="none" id="Traverse-to-Functor" style="stroke:#F5BDE6;stroke-width:1;"/><polygon fill="none" points="341.96,366.976,360.12,361.4792,353.1899,351.6826,341.96,366.976" style="stroke:#F5BDE6;stroke-width:1;"/></g><!--SRC=[ZPB1JiCm38RlVGgp2qDQs_jK5LNJ9gI9Mn5SJMhMY3Q9adGmZRqxQRgLZXMndXhxy-_VJcwuO5LJ49JMAZEFOuqVqORRidbj36acXILX8oRhM31fB8QSnGojKWrZN8GrCbPoj39K5GhRr5LeIwefhf6BsFz6oaM38538td53C7bOvx2GcY24VAS85XKQGsO2-m3SnrrB_ORCaMikYcG5zEbC50QUkHLaJAQvtINtwGooT09eeCMEnG2ti09kmBK6LJfBiWRRTfbIj8bcyDB2qL7fhg_9JZLRh1ho5Jvt-6tfp4FMMsi7yR7EqP22_ON8gX7CIltNQ4y2zIxjb8xeY4YcLCNTLV0jNICqm8-xkb1yb0ABQxGyE6B9nvTQ_pVQ39O38L_Gget8ILuaMS-wqnYNQzoIDfJa_ri_iRsEVpnHb9xVsHpw0JnrkeOMz1Lpc4f56YqPaA9xICCLX-5NUghooMvdFZpWVbBT5dpUdtscTtic5mI7Rm00]--></g></svg>