<svg xmlns="http://www.w3.org/2000/svg" xmlns:xlink="http://www.w3.org/1999/xlink" contentStyleType="text/css" height="322px" preserveAspectRatio="none" style="width:1192px;height:322px;background:#24273A;" version="1.1" viewBox="0 0 1192 322" width="1192px" zoomAndPan="magnify"><defs/><g><rect fill="#24273A" height="322" style="stroke:none;stroke-width:1.0;" width="1192" x="0" y="0"/><!--cluster internal implementations--><g id="cluster_internal implementations"><path d="M918.18,6 L1063.2054,6 A2.25,2.25 0 0 1 1064.7054,7.5 L1071.7054,24 L1184.18,24 A1.5,1.5 0 0 1 1185.68,25.5 L1185.68,285.5 A1.5,1.5 0 0 1 1184.18,287 L918.18,287 A1.5,1.5 0 0 1 916.68,285.5 L916.68,7.5 A1.5,1.5 0 0 1 918.18,6 " fill="#24273A" style="stroke:#CAD3F5;stroke-width:1.5;"/><line style="stroke:#CAD3F5;stroke-width:1.5;" x1="916.68" x2="1071.7054" y1="24" y2="24"/><text fill="#CAD3F5" font-family="Helvetica" font-size="12" font-weight="bold" lengthAdjust="spacing" textLength="142.0254" x="920.68" y="17.2402">internal implementations</text></g><!--class LeftRecord--><g id="elem_LeftRecord"><rect codeLine="22" fill="#24273A" height="58" id="LeftRecord" rx="1.5" ry="1.5" style="stroke:#C6A0F6;stroke-width:2.0;" width="99.3691" x="933" y="213"/><rect fill="#363A4F" height="38" rx="1.5" ry="1.5" style="stroke:#363A4F;stroke-width:2.0;" width="99.3691" x="933" y="213"/><rect fill="#363A4F" height="1.5" style="stroke:#363A4F;stroke-width:2.0;" width="99.3691" x="933" y="249.5"/><rect codeLine="22" fill="none" height="58" id="LeftRecord" rx="1.5" ry="1.5" style="stroke:#C6A0F6;stroke-width:2.0;" width="99.3691" x="933" y="213"/><ellipse cx="947" cy="232" fill="#ADD1B2" rx="10" ry="10" style="stroke:#181818;stroke-width:1.0;"/><path d="M948.834,236.248 Q948.4238,236.459 947.9727,236.5645 Q947.5215,236.6699 947.0234,236.6699 Q945.2539,236.6699 944.3223,235.5039 Q943.3906,234.3379 943.3906,232.1348 Q943.3906,229.9258 944.3223,228.7598 Q945.2539,227.5938 947.0234,227.5938 Q947.5215,227.5938 947.9785,227.6992 Q948.4355,227.8047 948.834,228.0156 L948.834,229.9375 Q948.3887,229.5273 947.9697,229.3369 Q947.5508,229.1465 947.1055,229.1465 Q946.1563,229.1465 945.6729,229.8994 Q945.1895,230.6523 945.1895,232.1348 Q945.1895,233.6113 945.6729,234.3643 Q946.1563,235.1172 947.1055,235.1172 Q947.5508,235.1172 947.9697,234.9268 Q948.3887,234.7363 948.834,234.3262 Z " fill="#CAD3F5"/><text fill="#CAD3F5" font-family="Helvetica" font-size="12" font-style="italic" lengthAdjust="spacing" textLength="47.3613" x="958" y="227.2402">&#171;record&#187;</text><text fill="#A6DA95" font-family="Helvetica" font-size="16" lengthAdjust="spacing" textLength="26.6875" x="968.3369" y="242.3203">Left</text><rect fill="#24273A" height="14" style="stroke:#C6A0F6;stroke-width:1.0;stroke-dasharray:2.0,2.0;" width="24.0078" x="1011.3613" y="210"/><text fill="#CAD3F5" font-family="Helvetica" font-size="12" font-style="italic" lengthAdjust="spacing" textLength="22.0078" x="1012.3613" y="220.2402">L, R</text><line style="stroke:#C6A0F6;stroke-width:2.0;" x1="934" x2="1031.3691" y1="251" y2="251"/><ellipse cx="944" cy="262.5" fill="#84BE84" rx="3" ry="3" style="stroke:#038048;stroke-width:1.0;"/><text fill="#A6DA95" font-family="Helvetica" font-size="12" lengthAdjust="spacing" textLength="66.7031" x="952" y="264.2402">Left(L value)</text></g><!--class Either--><g id="elem_Either"><rect fill="#24273A" height="30" id="Either" rx="1.5" ry="1.5" style="stroke:#C6A0F6;stroke-width:2.0;" width="71.7969" x="1014.79" y="37"/><rect fill="#363A4F" height="30" rx="1.5" ry="1.5" style="stroke:#363A4F;stroke-width:2.0;" width="71.7969" x="1014.79" y="37"/><rect fill="#363A4F" height="1.5" style="stroke:#363A4F;stroke-width:2.0;" width="71.7969" x="1014.79" y="65.5"/><rect fill="none" height="30" id="Either" rx="1.5" ry="1.5" style="stroke:#C6A0F6;stroke-width:2.0;" width="71.7969" x="1014.79" y="37"/><ellipse cx="1028.79" cy="52" fill="#B4A7E5" rx="10" ry="10" style="stroke:#181818;stroke-width:1.0;"/><path d="M1025.7978,49.2754 L1025.7978,47.752 L1031.0068,47.752 L1031.0068,49.2754 L1029.2666,49.2754 L1029.2666,54.9766 L1031.0068,54.9766 L1031.0068,56.5 L1025.7978,56.5 L1025.7978,54.9766 L1027.538,54.9766 L1027.538,49.2754 Z " fill="#CAD3F5"/><text fill="#A6DA95" font-family="Helvetica" font-size="16" font-style="italic" lengthAdjust="spacing" textLength="41.7969" x="1041.79" y="56.3203">Either</text></g><!--class RightRecord--><g id="elem_RightRecord"><rect codeLine="25" fill="#24273A" height="58" id="RightRecord" rx="1.5" ry="1.5" style="stroke:#C6A0F6;stroke-width:2.0;" width="101.6934" x="1067.84" y="213"/><rect fill="#363A4F" height="38" rx="1.5" ry="1.5" style="stroke:#363A4F;stroke-width:2.0;" width="101.6934" x="1067.84" y="213"/><rect fill="#363A4F" height="1.5" style="stroke:#363A4F;stroke-width:2.0;" width="101.6934" x="1067.84" y="249.5"/><rect codeLine="25" fill="none" height="58" id="RightRecord" rx="1.5" ry="1.5" style="stroke:#C6A0F6;stroke-width:2.0;" width="101.6934" x="1067.84" y="213"/><ellipse cx="1082.8859" cy="232" fill="#ADD1B2" rx="10" ry="10" style="stroke:#181818;stroke-width:1.0;"/><path d="M1084.7199,236.248 Q1084.3097,236.459 1083.8586,236.5645 Q1083.4074,236.6699 1082.9093,236.6699 Q1081.1398,236.6699 1080.2082,235.5039 Q1079.2765,234.3379 1079.2765,232.1348 Q1079.2765,229.9258 1080.2082,228.7598 Q1081.1398,227.5938 1082.9093,227.5938 Q1083.4074,227.5938 1083.8644,227.6992 Q1084.3214,227.8047 1084.7199,228.0156 L1084.7199,229.9375 Q1084.2746,229.5273 1083.8556,229.3369 Q1083.4367,229.1465 1082.9914,229.1465 Q1082.0421,229.1465 1081.5588,229.8994 Q1081.0754,230.6523 1081.0754,232.1348 Q1081.0754,233.6113 1081.5588,234.3643 Q1082.0421,235.1172 1082.9914,235.1172 Q1083.4367,235.1172 1083.8556,234.9268 Q1084.2746,234.7363 1084.7199,234.3262 Z " fill="#CAD3F5"/><text fill="#CAD3F5" font-family="Helvetica" font-size="12" font-style="italic" lengthAdjust="spacing" textLength="47.3613" x="1094.1183" y="227.2402">&#171;record&#187;</text><text fill="#A6DA95" font-family="Helvetica" font-size="16" lengthAdjust="spacing" textLength="37.3516" x="1099.1232" y="242.3203">Right</text><rect fill="#24273A" height="14" style="stroke:#C6A0F6;stroke-width:1.0;stroke-dasharray:2.0,2.0;" width="24.0078" x="1148.5255" y="210"/><text fill="#CAD3F5" font-family="Helvetica" font-size="12" font-style="italic" lengthAdjust="spacing" textLength="22.0078" x="1149.5255" y="220.2402">L, R</text><line style="stroke:#C6A0F6;stroke-width:2.0;" x1="1068.84" x2="1168.5334" y1="251" y2="251"/><ellipse cx="1078.84" cy="262.5" fill="#84BE84" rx="3" ry="3" style="stroke:#038048;stroke-width:1.0;"/><text fill="#A6DA95" font-family="Helvetica" font-size="12" lengthAdjust="spacing" textLength="76.6934" x="1086.84" y="264.2402">Right(R value)</text></g><!--class Kind--><g id="elem_Kind"><rect codeLine="4" fill="#24273A" height="30" id="Kind" rx="1.5" ry="1.5" style="stroke:#C6A0F6;stroke-width:2.0;" width="149.3672" x="7" y="227"/><rect fill="#363A4F" height="30" rx="1.5" ry="1.5" style="stroke:#363A4F;stroke-width:2.0;" width="149.3672" x="7" y="227"/><rect fill="#363A4F" height="1.5" style="stroke:#363A4F;stroke-width:2.0;" width="149.3672" x="7" y="255.5"/><rect codeLine="4" fill="none" height="30" id="Kind" rx="1.5" ry="1.5" style="stroke:#C6A0F6;stroke-width:2.0;" width="149.3672" x="7" y="227"/><ellipse cx="21" cy="242" fill="#B4A7E5" rx="10" ry="10" style="stroke:#181818;stroke-width:1.0;"/><path d="M18.0078,239.2754 L18.0078,237.752 L23.2168,237.752 L23.2168,239.2754 L21.4766,239.2754 L21.4766,244.9766 L23.2168,244.9766 L23.2168,246.5 L18.0078,246.5 L18.0078,244.9766 L19.748,244.9766 L19.748,239.2754 Z " fill="#CAD3F5"/><text fill="#A6DA95" font-family="Helvetica" font-size="16" font-style="italic" lengthAdjust="spacing" textLength="32.0234" x="34" y="246.3203">Kind</text><rect fill="#24273A" height="14" style="stroke:#C6A0F6;stroke-width:1.0;stroke-dasharray:2.0,2.0;" width="85.3438" x="74.0234" y="224"/><text fill="#CAD3F5" font-family="Helvetica" font-size="12" font-style="italic" lengthAdjust="spacing" textLength="83.3438" x="75.0234" y="234.2402">F_WITNESS, A</text></g><!--class EitherInterface--><g id="elem_EitherInterface"><rect codeLine="9" fill="#24273A" height="146" id="EitherInterface" rx="1.5" ry="1.5" style="stroke:#C6A0F6;stroke-width:2.0;" width="375.1621" x="191.1" y="169"/><rect fill="#363A4F" height="30" rx="1.5" ry="1.5" style="stroke:#363A4F;stroke-width:2.0;" width="375.1621" x="191.1" y="169"/><rect fill="#363A4F" height="1.5" style="stroke:#363A4F;stroke-width:2.0;" width="375.1621" x="191.1" y="197.5"/><rect codeLine="9" fill="none" height="146" id="EitherInterface" rx="1.5" ry="1.5" style="stroke:#C6A0F6;stroke-width:2.0;" width="375.1621" x="191.1" y="169"/><ellipse cx="340.7787" cy="184" fill="#B4A7E5" rx="10" ry="10" style="stroke:#181818;stroke-width:1.0;"/><path d="M337.7865,181.2754 L337.7865,179.752 L342.9955,179.752 L342.9955,181.2754 L341.2553,181.2754 L341.2553,186.9766 L342.9955,186.9766 L342.9955,188.5 L337.7865,188.5 L337.7865,186.9766 L339.5268,186.9766 L339.5268,181.2754 Z " fill="#CAD3F5"/><text fill="#A6DA95" font-family="Helvetica" font-size="16" font-style="italic" lengthAdjust="spacing" textLength="41.7969" x="359.7787" y="188.3203">Either</text><rect fill="#24273A" height="14" style="stroke:#C6A0F6;stroke-width:1.0;stroke-dasharray:2.0,2.0;" width="24.0078" x="545.2543" y="166"/><text fill="#CAD3F5" font-family="Helvetica" font-size="12" font-style="italic" lengthAdjust="spacing" textLength="22.0078" x="546.2543" y="176.2402">L, R</text><line style="stroke:#C6A0F6;stroke-width:2.0;" x1="192.1" x2="565.2621" y1="199" y2="199"/><ellipse cx="202.1" cy="210.5" fill="#84BE84" rx="3" ry="3" style="stroke:#038048;stroke-width:1.0;"/><text fill="#A6DA95" font-family="Helvetica" font-size="12" lengthAdjust="spacing" text-decoration="underline" textLength="118.7344" x="210.1" y="212.2402">Left&lt;L,R&gt; left(L value)</text><ellipse cx="202.1" cy="222.5" fill="#84BE84" rx="3" ry="3" style="stroke:#038048;stroke-width:1.0;"/><text fill="#A6DA95" font-family="Helvetica" font-size="12" lengthAdjust="spacing" text-decoration="underline" textLength="136.0605" x="210.1" y="224.2402">Right&lt;L,R&gt; right(R value)</text><ellipse cx="202.1" cy="234.5" fill="#84BE84" rx="3" ry="3" style="stroke:#038048;stroke-width:1.0;"/><text fill="#A6DA95" font-family="Helvetica" font-size="12" lengthAdjust="spacing" textLength="82.7168" x="210.1" y="236.2402">boolean isLeft()</text><ellipse cx="202.1" cy="246.5" fill="#84BE84" rx="3" ry="3" style="stroke:#038048;stroke-width:1.0;"/><text fill="#A6DA95" font-family="Helvetica" font-size="12" lengthAdjust="spacing" textLength="90.7148" x="210.1" y="248.2402">boolean isRight()</text><ellipse cx="202.1" cy="258.5" fill="#84BE84" rx="3" ry="3" style="stroke:#038048;stroke-width:1.0;"/><text fill="#A6DA95" font-family="Helvetica" font-size="12" lengthAdjust="spacing" textLength="236.1211" x="210.1" y="260.2402">L getLeft() throws NoSuchElementException</text><ellipse cx="202.1" cy="270.5" fill="#84BE84" rx="3" ry="3" style="stroke:#038048;stroke-width:1.0;"/><text fill="#A6DA95" font-family="Helvetica" font-size="12" lengthAdjust="spacing" textLength="246.1113" x="210.1" y="272.2402">R getRight() throws NoSuchElementException</text><ellipse cx="202.1" cy="282.5" fill="#84BE84" rx="3" ry="3" style="stroke:#038048;stroke-width:1.0;"/><text fill="#A6DA95" font-family="Helvetica" font-size="12" lengthAdjust="spacing" text-decoration="underline" textLength="332.8242" x="213.434" y="284.2402">U fold(Function&lt;L,U&gt; leftMapper, Function&lt;R,U&gt; rightMapper)</text><ellipse cx="202.1" cy="294.5" fill="#84BE84" rx="3" ry="3" style="stroke:#038048;stroke-width:1.0;"/><text fill="#A6DA95" font-family="Helvetica" font-size="12" lengthAdjust="spacing" textLength="275.4492" x="210.1" y="296.2402">&lt;RR&gt; Either&lt;L,RR&gt; map(Function&lt;R,RR&gt; mapper)</text><ellipse cx="202.1" cy="306.5" fill="#84BE84" rx="3" ry="3" style="stroke:#038048;stroke-width:1.0;"/><text fill="#A6DA95" font-family="Helvetica" font-size="12" lengthAdjust="spacing" textLength="350.1621" x="210.1" y="308.2402">&lt;RR&gt; Either&lt;L,RR&gt; flatMap(Function&lt;R, Either&lt;L,RR&gt;&gt; mapper)</text></g><!--class EitherKind--><g id="elem_EitherKind"><rect fill="#24273A" height="30" id="EitherKind" rx="1.5" ry="1.5" style="stroke:#C6A0F6;stroke-width:2.0;" width="103.8203" x="170.77" y="37"/><rect fill="#363A4F" height="30" rx="1.5" ry="1.5" style="stroke:#363A4F;stroke-width:2.0;" width="103.8203" x="170.77" y="37"/><rect fill="#363A4F" height="1.5" style="stroke:#363A4F;stroke-width:2.0;" width="103.8203" x="170.77" y="65.5"/><rect fill="none" height="30" id="EitherKind" rx="1.5" ry="1.5" style="stroke:#C6A0F6;stroke-width:2.0;" width="103.8203" x="170.77" y="37"/><ellipse cx="184.77" cy="52" fill="#B4A7E5" rx="10" ry="10" style="stroke:#181818;stroke-width:1.0;"/><path d="M181.7778,49.2754 L181.7778,47.752 L186.9868,47.752 L186.9868,49.2754 L185.2466,49.2754 L185.2466,54.9766 L186.9868,54.9766 L186.9868,56.5 L181.7778,56.5 L181.7778,54.9766 L183.518,54.9766 L183.518,49.2754 Z " fill="#CAD3F5"/><text fill="#A6DA95" font-family="Helvetica" font-size="16" font-style="italic" lengthAdjust="spacing" textLength="73.8203" x="197.77" y="56.3203">EitherKind</text></g><!--class EitherKindHelper--><g id="elem_EitherKindHelper"><rect codeLine="33" fill="#24273A" height="86" id="EitherKindHelper" rx="1.5" ry="1.5" style="stroke:#C6A0F6;stroke-width:2.0;" width="449.4531" x="450.96" y="9"/><rect fill="#363A4F" height="30" rx="1.5" ry="1.5" style="stroke:#363A4F;stroke-width:2.0;" width="449.4531" x="450.96" y="9"/><rect fill="#363A4F" height="1.5" style="stroke:#363A4F;stroke-width:2.0;" width="449.4531" x="450.96" y="37.5"/><rect codeLine="33" fill="none" height="86" id="EitherKindHelper" rx="1.5" ry="1.5" style="stroke:#C6A0F6;stroke-width:2.0;" width="449.4531" x="450.96" y="9"/><ellipse cx="611.21" cy="24" fill="#ADD1B2" rx="10" ry="10" style="stroke:#181818;stroke-width:1.0;"/><path d="M613.044,28.248 Q612.6338,28.459 612.1827,28.5645 Q611.7315,28.6699 611.2334,28.6699 Q609.4639,28.6699 608.5323,27.5039 Q607.6006,26.3379 607.6006,24.1348 Q607.6006,21.9258 608.5323,20.7598 Q609.4639,19.5938 611.2334,19.5938 Q611.7315,19.5938 612.1885,19.6992 Q612.6455,19.8047 613.044,20.0156 L613.044,21.9375 Q612.5987,21.5273 612.1797,21.3369 Q611.7608,21.1465 611.3155,21.1465 Q610.3663,21.1465 609.8829,21.8994 Q609.3995,22.6523 609.3995,24.1348 Q609.3995,25.6113 609.8829,26.3643 Q610.3663,27.1172 611.3155,27.1172 Q611.7608,27.1172 612.1797,26.9268 Q612.5987,26.7363 613.044,26.3262 Z " fill="#CAD3F5"/><text fill="#A6DA95" font-family="Helvetica" font-size="16" lengthAdjust="spacing" textLength="120.9531" x="630.21" y="28.3203">EitherKindHelper</text><line style="stroke:#C6A0F6;stroke-width:2.0;" x1="451.96" x2="899.4131" y1="39" y2="39"/><ellipse cx="461.96" cy="50.5" fill="#84BE84" rx="3" ry="3" style="stroke:#038048;stroke-width:1.0;"/><text fill="#A6DA95" font-family="Helvetica" font-size="12" lengthAdjust="spacing" text-decoration="underline" textLength="322.166" x="469.96" y="52.2402">widen(either: Either&lt;L,R&gt;): Kind&lt;EitherKind.Witness&lt;L&gt;, R&gt;</text><ellipse cx="461.96" cy="62.5" fill="#84BE84" rx="3" ry="3" style="stroke:#038048;stroke-width:1.0;"/><text fill="#A6DA95" font-family="Helvetica" font-size="12" lengthAdjust="spacing" text-decoration="underline" textLength="319.4883" x="469.96" y="64.2402">narrow(kind: Kind&lt;EitherKind.Witness&lt;L&gt;, R&gt;): Either&lt;L,R&gt;</text><ellipse cx="461.96" cy="74.5" fill="#84BE84" rx="3" ry="3" style="stroke:#038048;stroke-width:1.0;"/><text fill="#A6DA95" font-family="Helvetica" font-size="12" lengthAdjust="spacing" text-decoration="underline" textLength="424.4414" x="469.96" y="76.2402">left(monad: MonadError&lt;F,L&gt;, error: L): Kind&lt;F,R&gt; ' This is more for EitherT.left</text><ellipse cx="461.96" cy="86.5" fill="#84BE84" rx="3" ry="3" style="stroke:#038048;stroke-width:1.0;"/><text fill="#A6DA95" font-family="Helvetica" font-size="12" lengthAdjust="spacing" text-decoration="underline" textLength="424.4531" x="469.96" y="88.2402">right(monad: Monad&lt;F&gt;, value: R): Kind&lt;F,R&gt;      ' This is more for EitherT.right</text></g><!--class Either<L, R>--><g id="elem_Either&lt;L, R&gt;"><rect fill="#24273A" height="30" id="Either&lt;L, R&gt;" rx="1.5" ry="1.5" style="stroke:#C6A0F6;stroke-width:2.0;" width="119.8281" x="615.77" y="227"/><rect fill="#363A4F" height="30" rx="1.5" ry="1.5" style="stroke:#363A4F;stroke-width:2.0;" width="119.8281" x="615.77" y="227"/><rect fill="#363A4F" height="1.5" style="stroke:#363A4F;stroke-width:2.0;" width="119.8281" x="615.77" y="255.5"/><rect fill="none" height="30" id="Either&lt;L, R&gt;" rx="1.5" ry="1.5" style="stroke:#C6A0F6;stroke-width:2.0;" width="119.8281" x="615.77" y="227"/><ellipse cx="629.77" cy="242" fill="#ADD1B2" rx="10" ry="10" style="stroke:#181818;stroke-width:1.0;"/><path d="M631.604,246.248 Q631.1938,246.459 630.7427,246.5645 Q630.2915,246.6699 629.7934,246.6699 Q628.0239,246.6699 627.0923,245.5039 Q626.1606,244.3379 626.1606,242.1348 Q626.1606,239.9258 627.0923,238.7598 Q628.0239,237.5938 629.7934,237.5938 Q630.2915,237.5938 630.7485,237.6992 Q631.2055,237.8047 631.604,238.0156 L631.604,239.9375 Q631.1587,239.5273 630.7397,239.3369 Q630.3208,239.1465 629.8755,239.1465 Q628.9263,239.1465 628.4429,239.8994 Q627.9595,240.6523 627.9595,242.1348 Q627.9595,243.6113 628.4429,244.3643 Q628.9263,245.1172 629.8755,245.1172 Q630.3208,245.1172 630.7397,244.9268 Q631.1587,244.7363 631.604,244.3262 Z " fill="#CAD3F5"/><text fill="#A6DA95" font-family="Helvetica" font-size="16" lengthAdjust="spacing" textLength="89.8281" x="642.77" y="246.3203">Either&lt;L, R&gt;</text></g><!--reverse link EitherKind to EitherInterface--><g id="link_EitherKind_EitherInterface"><path d="M246.1617,81.2943 C264.0617,102.8743 287.54,131.15 318.53,168.5 " fill="none" id="EitherKind-backto-EitherInterface" style="stroke:#F5BDE6;stroke-width:1.0;"/><polygon fill="none" points="234.67,67.44,241.5436,85.1248,250.7798,77.4637,234.67,67.44" style="stroke:#F5BDE6;stroke-width:1.0;"/></g><!--reverse link Either to LeftRecord--><g id="link_Either_LeftRecord"><path d="M1029.034,83.0134 C1011.044,114.0534 992.7,172.03 983.21,212.72 " fill="none" id="Either-backto-LeftRecord" style="stroke:#F5BDE6;stroke-width:1.0;stroke-dasharray:7.0,7.0;"/><polygon fill="none" points="1038.06,67.44,1023.8429,80.0048,1034.2252,86.0221,1038.06,67.44" style="stroke:#F5BDE6;stroke-width:1.0;"/></g><!--reverse link Either to LeftRecord--><g id="link_Either_LeftRecord"><path codeLine="29" d="M1050.3043,85.2562 C1045.8343,116.2962 1022.56,172.03 1002.62,212.72 " fill="none" id="Either-backto-LeftRecord-1" style="stroke:#F5BDE6;stroke-width:1.0;"/><polygon fill="none" points="1052.87,67.44,1044.3656,84.401,1056.2431,86.1114,1052.87,67.44" style="stroke:#F5BDE6;stroke-width:1.0;"/></g><!--reverse link Either to RightRecord--><g id="link_Either_RightRecord"><path d="M1051.0657,85.2562 C1055.5357,116.2962 1078.8,172.03 1098.75,212.72 " fill="none" id="Either-backto-RightRecord" style="stroke:#F5BDE6;stroke-width:1.0;stroke-dasharray:7.0,7.0;"/><polygon fill="none" points="1048.5,67.44,1045.1269,86.1114,1057.0044,84.401,1048.5,67.44" style="stroke:#F5BDE6;stroke-width:1.0;"/></g><!--reverse link Either to RightRecord--><g id="link_Either_RightRecord"><path codeLine="30" d="M1072.336,83.0134 C1090.326,114.0534 1108.67,172.03 1118.16,212.72 " fill="none" id="Either-backto-RightRecord-1" style="stroke:#F5BDE6;stroke-width:1.0;"/><polygon fill="none" points="1063.31,67.44,1067.1448,86.0221,1077.5271,80.0048,1063.31,67.44" style="stroke:#F5BDE6;stroke-width:1.0;"/></g><!--link EitherKindHelper to Either<L, R>--><g id="link_EitherKindHelper_Either&lt;L, R&gt;"><path codeLine="41" d="M675.68,95.19 C675.68,137.2 675.68,193.27 675.68,220.88 " fill="none" id="EitherKindHelper-to-Either&lt;L, R&gt;" style="stroke:#F5BDE6;stroke-width:1.0;stroke-dasharray:7.0,7.0;"/><polygon fill="#F5BDE6" points="675.68,226.88,679.68,217.88,675.68,221.88,671.68,217.88,675.68,226.88" style="stroke:#F5BDE6;stroke-width:1.0;"/><text fill="#CAD3F5" font-family="Helvetica" font-size="12" lengthAdjust="spacing" textLength="90.0352" x="676.68" y="135.2402">widens / narrows</text></g><!--link EitherKind to Kind--><g id="link_EitherKind_Kind"><path codeLine="43" d="M211.85,67.44 C185.61,102.43 129.63,177.07 103.35,212.11 " fill="none" id="EitherKind-to-Kind" style="stroke:#F5BDE6;stroke-width:1.0;"/><polygon fill="none" points="92.55,226.51,108.15,215.71,98.55,208.51,92.55,226.51" style="stroke:#F5BDE6;stroke-width:1.0;"/></g><!--SRC=[ZLJBRgCm5Dtp5NVO3DK4s2E4r4MYgOPsGH9rEN8S9rZrIxQPTDJstySsX10YjOCKnLoVUyvzyeqApBezWTPQPOeyr-YK7QbjkrrdYCPIM29iXYNF1PR6efJY72EhL8Sn5Ib76BSKMPagXeJjE4jjIpZ9EQ8Y3yTCEMiKjTIf4AxiN-24xuWs4NNa-e0mWVWN5VjozVlvOVEqNAyNS5_5W0nuS-GVW0buwU8ZkgmNqFImtl0m8iYhYtf_jWVkUj5KyEPu07x0cql4Klm1DJdO_egvKrB37yGwSZU7DVJO3ZZjZqbp3Tn9oGWIG8qdJ6xDWM2qrt0ajaU2RRKy6NYIwmwtI-Rg9Upo5HDbgHG3ll7uWUA_7Cfj1LiuIBPFLft0_iP5l-spV4HA4Rs0yQRnDo6l_keSPjcuVCTQ-nUEL39n6qoVkXmOyhHJjol0bE73zraX_8AEhikXuG8ne5prQI9FOEAXZPWXOo0UMdWU1V_Q42pr7ifIXuFJ62dCHFmo3_LDyrqi4urp_yyYuVrMvIkPvdPsHYt_wtsWV4_JIHwpYubss8i-nCka_oJCbVDsr4zk_qH20gwOXdTNX3KhBnJPCxM265FMbKzvpYIGTYEOl3ZaLwvtLqfpeh1pN0haU1xztz8HwtAryCx4dmkep-6jV2M_mwQbnYqKSAc9ct0zy6yoJpONw9Trgb2k77MeVm7D5NLuFk4FNFsGZXsPr3lBglc7gO0u5Dr0FjJCn55qyOGqVQ-6Jzm_]--></g></svg>