<svg xmlns="http://www.w3.org/2000/svg" xmlns:xlink="http://www.w3.org/1999/xlink" contentStyleType="text/css" height="565px" preserveAspectRatio="none" style="width:474px;height:565px;background:#24273A;" version="1.1" viewBox="0 0 474 565" width="474px" zoomAndPan="magnify"><title>N+1 vs Batched: same shape, two strategies</title><defs/><g><rect fill="#24273A" height="565" style="stroke:none;stroke-width:1.0;" width="474" x="0" y="0"/><text fill="#CAD3F5" font-family="Helvetica" font-size="14" font-weight="bold" lengthAdjust="spacing" textLength="353.9854" x="56.0488" y="27.9951">N+1 vs Batched: same shape, two strategies</text><rect fill="#24273A" height="71.9063" rx="1.5" ry="1.5" style="stroke:#CAD3F5;stroke-width:1.5;" width="301.9463" x="155.1367" y="172.1719"/><line style="stroke:#B7BDF8;stroke-width:0.5;stroke-dasharray:5.0,5.0;" x1="29" x2="29" y1="85.2344" y2="518.7656"/><line style="stroke:#B7BDF8;stroke-width:0.5;stroke-dasharray:5.0,5.0;" x1="202.1367" x2="202.1367" y1="85.2344" y2="518.7656"/><line style="stroke:#B7BDF8;stroke-width:0.5;stroke-dasharray:5.0,5.0;" x1="413.3447" x2="413.3447" y1="85.2344" y2="518.7656"/><rect fill="#363A4F" height="27.9688" rx="1.5" ry="1.5" style="stroke:#B7BDF8;stroke-width:0.5;" width="48.7168" x="5" y="56.2656"/><text fill="#CAD3F5" font-family="Helvetica" font-size="12" lengthAdjust="spacing" textLength="34.7168" x="12" y="74.4043">Caller</text><rect fill="#363A4F" height="27.9688" rx="1.5" ry="1.5" style="stroke:#B7BDF8;stroke-width:0.5;" width="48.7168" x="5" y="517.7656"/><text fill="#CAD3F5" font-family="Helvetica" font-size="12" lengthAdjust="spacing" textLength="34.7168" x="12" y="535.9043">Caller</text><rect fill="#363A4F" height="41.9375" rx="1.5" ry="1.5" style="stroke:#B7BDF8;stroke-width:0.5;" width="74.5684" x="165.1367" y="42.2969"/><text fill="#CAD3F5" font-family="Helvetica" font-size="12" lengthAdjust="spacing" textLength="55.9746" x="174.4336" y="60.4355">Traversal</text><text fill="#CAD3F5" font-family="Helvetica" font-size="12" lengthAdjust="spacing" textLength="60.5684" x="172.1367" y="74.4043">over N ids</text><rect fill="#363A4F" height="41.9375" rx="1.5" ry="1.5" style="stroke:#B7BDF8;stroke-width:0.5;" width="74.5684" x="165.1367" y="517.7656"/><text fill="#CAD3F5" font-family="Helvetica" font-size="12" lengthAdjust="spacing" textLength="55.9746" x="174.4336" y="535.9043">Traversal</text><text fill="#CAD3F5" font-family="Helvetica" font-size="12" lengthAdjust="spacing" textLength="60.5684" x="172.1367" y="549.873">over N ids</text><rect fill="#363A4F" height="27.9688" rx="1.5" ry="1.5" style="stroke:#B7BDF8;stroke-width:0.5;" width="65.7383" x="381.3447" y="56.2656"/><text fill="#CAD3F5" font-family="Helvetica" font-size="12" lengthAdjust="spacing" textLength="51.7383" x="388.3447" y="74.4043">Backend</text><rect fill="#363A4F" height="27.9688" rx="1.5" ry="1.5" style="stroke:#B7BDF8;stroke-width:0.5;" width="65.7383" x="381.3447" y="517.7656"/><text fill="#CAD3F5" font-family="Helvetica" font-size="12" lengthAdjust="spacing" textLength="51.7383" x="388.3447" y="535.9043">Backend</text><rect fill="#363A4F" height="3" rx="1.5" ry="1.5" style="stroke:#363A4F;stroke-width:1.0;" width="467.083" x="0" y="115.2188"/><line style="stroke:#CAD3F5;stroke-width:1.0;" x1="0" x2="467.083" y1="115.2188" y2="115.2188"/><line style="stroke:#CAD3F5;stroke-width:1.0;" x1="0" x2="467.083" y1="118.2188" y2="118.2188"/><rect fill="#363A4F" height="21.9688" rx="1.5" ry="1.5" style="stroke:#CAD3F5;stroke-width:2.0;" width="179.4277" x="143.8276" y="105.2344"/><text fill="#CAD3F5" font-family="Helvetica" font-size="12" font-weight="bold" lengthAdjust="spacing" textLength="161.25" x="149.8276" y="120.373">Without batching (N+1)</text><polygon fill="#F5BDE6" points="190.4209,153.1719,200.4209,157.1719,190.4209,161.1719,194.4209,157.1719" style="stroke:#F5BDE6;stroke-width:1.0;"/><line style="stroke:#F5BDE6;stroke-width:1.0;" x1="29.3584" x2="196.4209" y1="157.1719" y2="157.1719"/><text fill="#CAD3F5" font-family="Helvetica" font-size="12" lengthAdjust="spacing" textLength="132.4863" x="36.3584" y="152.3418">modifyF(loadOne, ids)</text><path d="M156.6367,172.1719 L229.3281,172.1719 L229.3281,178.1406 L219.3281,188.1406 L155.1367,188.1406 L155.1367,173.6719 A1.5,1.5 0 0 1 156.6367,172.1719 " fill="#363A4F" style="stroke:#CAD3F5;stroke-width:1.5;"/><rect fill="none" height="71.9063" rx="1.5" ry="1.5" style="stroke:#CAD3F5;stroke-width:1.5;" width="301.9463" x="155.1367" y="172.1719"/><text fill="#CAD3F5" font-family="Helvetica" font-size="12" font-weight="bold" lengthAdjust="spacing" textLength="29.1914" x="170.1367" y="184.3105">loop</text><text fill="#CAD3F5" font-family="Helvetica" font-size="12" font-weight="bold" lengthAdjust="spacing" textLength="170.1621" x="244.3281" y="185.3105">[N times (one per focus)]</text><polygon fill="#F5BDE6" points="402.2139,204.1094,412.2139,208.1094,402.2139,212.1094,406.2139,208.1094" style="stroke:#F5BDE6;stroke-width:1.0;"/><line style="stroke:#F5BDE6;stroke-width:1.0;" x1="202.4209" x2="408.2139" y1="208.1094" y2="208.1094"/><text fill="#CAD3F5" font-family="Helvetica" font-size="12" lengthAdjust="spacing" textLength="70.3945" x="209.4209" y="203.2793">loadOne(id)</text><polygon fill="#F5BDE6" points="213.4209,232.0781,203.4209,236.0781,213.4209,240.0781,209.4209,236.0781" style="stroke:#F5BDE6;stroke-width:1.0;"/><line style="stroke:#F5BDE6;stroke-width:1.0;stroke-dasharray:2.0,2.0;" x1="207.4209" x2="413.2139" y1="236.0781" y2="236.0781"/><text fill="#CAD3F5" font-family="Helvetica" font-size="12" lengthAdjust="spacing" textLength="34.834" x="219.4209" y="231.248">entity</text><polygon fill="#F5BDE6" points="40.3584,267.0469,30.3584,271.0469,40.3584,275.0469,36.3584,271.0469" style="stroke:#F5BDE6;stroke-width:1.0;"/><line style="stroke:#F5BDE6;stroke-width:1.0;stroke-dasharray:2.0,2.0;" x1="34.3584" x2="201.4209" y1="271.0469" y2="271.0469"/><text fill="#CAD3F5" font-family="Helvetica" font-size="12" lengthAdjust="spacing" textLength="75.9199" x="46.3584" y="266.2168">List&lt;entity&gt;</text><rect fill="#363A4F" height="3" rx="1.5" ry="1.5" style="stroke:#363A4F;stroke-width:1.0;" width="467.083" x="0" y="299.0313"/><line style="stroke:#CAD3F5;stroke-width:1.0;" x1="0" x2="467.083" y1="299.0313" y2="299.0313"/><line style="stroke:#CAD3F5;stroke-width:1.0;" x1="0" x2="467.083" y1="302.0313" y2="302.0313"/><rect fill="#363A4F" height="21.9688" rx="1.5" ry="1.5" style="stroke:#CAD3F5;stroke-width:2.0;" width="251.5156" x="107.7837" y="289.0469"/><text fill="#CAD3F5" font-family="Helvetica" font-size="12" font-weight="bold" lengthAdjust="spacing" textLength="233.3379" x="113.7837" y="304.1855">With FetchApplicative (one round)</text><polygon fill="#F5BDE6" points="190.4209,350.9531,200.4209,354.9531,190.4209,358.9531,194.4209,354.9531" style="stroke:#F5BDE6;stroke-width:1.0;"/><line style="stroke:#F5BDE6;stroke-width:1.0;" x1="29.3584" x2="196.4209" y1="354.9531" y2="354.9531"/><text fill="#CAD3F5" font-family="Helvetica" font-size="12" lengthAdjust="spacing" textLength="149.0625" x="36.3584" y="336.1543">modifyF(Fetch.fetch, ids,</text><text fill="#CAD3F5" font-family="Helvetica" font-size="12" lengthAdjust="spacing" textLength="104.4609" x="47.8018" y="350.123">FetchApplicative)</text><path d="M207,369.4531 L207,417.4531 A1.5,1.5 0 0 0 208.5,418.9531 L352.5,418.9531 A1.5,1.5 0 0 0 354,417.4531 L354,377.9531 L344,367.9531 L208.5,367.9531 A1.5,1.5 0 0 0 207,369.4531 " fill="#EED49F" style="stroke:#24273A;stroke-width:0.5;"/><path d="M344,367.9531 L344,377.2031 A0.75,0.75 0 0 0 344.75,377.9531 L354,377.9531 L344,367.9531 " fill="#EED49F" style="stroke:#24273A;stroke-width:0.5;"/><text fill="#24273A" font-family="Helvetica" font-size="12" lengthAdjust="spacing" textLength="126" x="213" y="384.0918">ap() merges pending</text><text fill="#24273A" font-family="Helvetica" font-size="12" lengthAdjust="spacing" textLength="120.8203" x="213" y="398.0605">request sets, so foci</text><text fill="#24273A" font-family="Helvetica" font-size="12" lengthAdjust="spacing" textLength="122.9531" x="213" y="412.0293">share a single round</text><polygon fill="#F5BDE6" points="402.2139,440.8281,412.2139,444.8281,402.2139,448.8281,406.2139,444.8281" style="stroke:#F5BDE6;stroke-width:1.0;"/><line style="stroke:#F5BDE6;stroke-width:1.0;" x1="202.4209" x2="408.2139" y1="444.8281" y2="444.8281"/><text fill="#CAD3F5" font-family="Helvetica" font-size="12" lengthAdjust="spacing" textLength="187.793" x="209.4209" y="439.998">batchResolver({id_1, ..., id_N})</text><polygon fill="#F5BDE6" points="213.4209,468.7969,203.4209,472.7969,213.4209,476.7969,209.4209,472.7969" style="stroke:#F5BDE6;stroke-width:1.0;"/><line style="stroke:#F5BDE6;stroke-width:1.0;stroke-dasharray:2.0,2.0;" x1="207.4209" x2="413.2139" y1="472.7969" y2="472.7969"/><text fill="#CAD3F5" font-family="Helvetica" font-size="12" lengthAdjust="spacing" textLength="98.8477" x="219.4209" y="467.9668">Map&lt;id, entity&gt;</text><polygon fill="#F5BDE6" points="40.3584,496.7656,30.3584,500.7656,40.3584,504.7656,36.3584,500.7656" style="stroke:#F5BDE6;stroke-width:1.0;"/><line style="stroke:#F5BDE6;stroke-width:1.0;stroke-dasharray:2.0,2.0;" x1="34.3584" x2="201.4209" y1="500.7656" y2="500.7656"/><text fill="#CAD3F5" font-family="Helvetica" font-size="12" lengthAdjust="spacing" textLength="75.9199" x="46.3584" y="495.9355">List&lt;entity&gt;</text><!--SRC=[TP5DQzmm48Rl-XNJdBpK7-IwP0FrGaxD5egXbq2OoBFsK5bIfF66KFhVE_PkKr9Q7OIOZtUUUVM1lNLpJp2AnBnjceGlzS0opazpfcI35_9Isp0rteOiMB5jB4gCixNigmcj7HabLD6XbtbobOmqKJCX-sPzrb6ZnWYB8pXyl8PJXXR5ZjHl8UD4a4UCL8Ay1CYIK6XWoiP4JCAMe-h2rHwTetG5c67_FjCbF57Aw1vyq0SSWFky5dRl2rkqtydtQwerPhU3Rxfec0MU5Xps0nJAju7TpkoXkeKEjZ25de-lTuKBs7_nIgdY6-D2Y3f8UA8CHV04KISVWvqr2NgwfR_L_ajVmVqvqK9rKLPVMLwD4fbk3Uur-9cpt9mpjs-8S4VAzob6nsezd-WyCeNPz_-cNHlgutAlnEM3rzb_osoC3w8wF8m2uQX-0M0iDZ1H6dIng6pgYaOJFS-K1J99BY67PLNMkFvS8a38MkOkHCj6i0YRDnDMVxzI3au_gFZ1_UDr2NLTBsoFXvyRyyULUumtt9VmsuF_MFCB]--></g></svg>