<svg xmlns="http://www.w3.org/2000/svg" xmlns:xlink="http://www.w3.org/1999/xlink" contentStyleType="text/css" data-diagram-type="CLASS" height="1101px" preserveAspectRatio="none" style="width:602px;height:1101px;background:#24273A;" version="1.1" viewBox="0 0 602 1101" width="602px" zoomAndPan="magnify"><defs/><g><rect fill="#24273A" height="1101" style="stroke:none;stroke-width:1;" width="602" x="0" y="0"/><!--cluster Supported Types (Monad Implementations)--><g class="cluster" data-entity="Supported Types .Monad Implementations." data-source-line="6" data-uid="ent0002" id="cluster_Supported Types .Monad Implementations."><path d="M7.5,6.016 L270.2058,6.016 A2.25,2.25 0 0 1 271.7058,7.516 L278.7058,28.3601 L594.04,28.3601 A1.5,1.5 0 0 1 595.54,29.8601 L595.54,1092.516 A1.5,1.5 0 0 1 594.04,1094.016 L7.5,1094.016 A1.5,1.5 0 0 1 6,1092.516 L6,7.516 A1.5,1.5 0 0 1 7.5,6.016" fill="#24273A" style="stroke:#CAD3F5;stroke-width:1.5;"/><line style="stroke:#CAD3F5;stroke-width:1.5;" x1="6" x2="278.7058" y1="28.3601" y2="28.3601"/><text fill="#CAD3F5" font-family="Helvetica" font-size="12" font-weight="bold" lengthAdjust="spacing" textLength="259.7058" x="10" y="20.8441">Supported Types (Monad Implementations)</text></g><!--cluster CoreInterfaces--><g class="cluster" data-entity="CoreInterfaces" data-source-line="24" data-uid="ent0020" id="cluster_CoreInterfaces"><path d="M416.06,508.016 L508.2086,508.016 A2.25,2.25 0 0 1 509.7086,509.516 L516.7086,530.3601 L566.36,530.3601 A1.5,1.5 0 0 1 567.86,531.8601 L567.86,723.516 A1.5,1.5 0 0 1 566.36,725.016 L416.06,725.016 A1.5,1.5 0 0 1 414.56,723.516 L414.56,509.516 A1.5,1.5 0 0 1 416.06,508.016" fill="#24273A" style="stroke:#CAD3F5;stroke-width:1.5;"/><line style="stroke:#CAD3F5;stroke-width:1.5;" x1="414.56" x2="516.7086" y1="530.3601" y2="530.3601"/><text fill="#CAD3F5" font-family="Helvetica" font-size="12" font-weight="bold" lengthAdjust="spacing" textLength="89.1486" x="418.56" y="522.8441">CoreInterfaces</text></g><!--cluster Simulation Plumbing--><g class="cluster" data-entity="Simulation Plumbing" data-source-line="42" data-uid="ent0040" id="cluster_Simulation Plumbing"><path d="M412.37,944.016 L540.1349,944.016 A2.25,2.25 0 0 1 541.6349,945.516 L548.6349,966.3601 L570.04,966.3601 A1.5,1.5 0 0 1 571.54,967.8601 L571.54,1025.516 A1.5,1.5 0 0 1 570.04,1027.016 L412.37,1027.016 A1.5,1.5 0 0 1 410.87,1025.516 L410.87,945.516 A1.5,1.5 0 0 1 412.37,944.016" fill="#24273A" style="stroke:#CAD3F5;stroke-width:1.5;"/><line style="stroke:#CAD3F5;stroke-width:1.5;" x1="410.87" x2="548.6349" y1="966.3601" y2="966.3601"/><text fill="#CAD3F5" font-family="Helvetica" font-size="12" font-weight="bold" lengthAdjust="spacing" textLength="124.7649" x="414.87" y="958.8441">Simulation Plumbing</text></g><!--class ListMonad--><g class="entity" data-entity="ListMonad" data-source-line="7" data-uid="ent0003" id="entity_ListMonad"><rect fill="#24273A" height="31.792" rx="1.5" ry="1.5" style="stroke:#C6A0F6;stroke-width:2;" width="108.8482" x="81.51" y="376.116"/><rect fill="#363A4F" height="31.792" rx="1.5" ry="1.5" style="stroke:#363A4F;stroke-width:2;" width="108.8482" x="81.51" y="376.116"/><rect fill="#363A4F" height="1.5" style="stroke:#363A4F;stroke-width:2;" width="108.8482" x="81.51" y="406.4081"/><rect fill="none" height="31.792" rx="1.5" ry="1.5" style="stroke:#C6A0F6;stroke-width:2;" width="108.8482" x="81.51" y="376.116"/><ellipse cx="95.51" cy="392.012" fill="#ADD1B2" rx="10" ry="10" style="stroke:#181818;stroke-width:1;"/><path d="M95.2288,396.637 Q93.9788,396.637 93.1819,396.1214 Q92.385,395.5902 91.9944,394.637 Q91.6038,393.6839 91.6038,392.4027 Q91.6038,390.9808 92.0725,389.9652 Q92.5413,388.9339 93.4475,388.387 Q94.3538,387.8245 95.6663,387.8245 Q96.2913,387.8245 96.76,387.9495 Q97.2444,388.0745 97.7288,388.3089 L97.1506,389.7464 Q96.7131,389.512 96.3225,389.4339 Q95.9475,389.3558 95.6038,389.3558 Q94.7756,389.3558 94.2756,389.7308 Q93.7913,390.0902 93.5725,390.762 Q93.3694,391.4339 93.3694,392.3402 Q93.3694,393.7464 93.8694,394.4339 Q94.385,395.1058 95.51,395.1058 Q95.9319,395.1058 96.3694,394.9964 Q96.8069,394.887 97.4006,394.6214 L97.4006,396.1839 Q96.885,396.4183 96.3225,396.5277 Q95.76,396.637 95.2288,396.637 Z " fill="#CAD3F5"/><text fill="#A6DA95" font-family="Helvetica" font-size="16" lengthAdjust="spacing" textLength="78.8482" x="108.51" y="398.2201">ListMonad</text></g><!--class StreamMonad--><g class="entity" data-entity="StreamMonad" data-source-line="8" data-uid="ent0004" id="entity_StreamMonad"><rect fill="#24273A" height="31.792" rx="1.5" ry="1.5" style="stroke:#C6A0F6;stroke-width:2;" width="137.0242" x="67.42" y="1046.116"/><rect fill="#363A4F" height="31.792" rx="1.5" ry="1.5" style="stroke:#363A4F;stroke-width:2;" width="137.0242" x="67.42" y="1046.116"/><rect fill="#363A4F" height="1.5" style="stroke:#363A4F;stroke-width:2;" width="137.0242" x="67.42" y="1076.4081"/><rect fill="none" height="31.792" rx="1.5" ry="1.5" style="stroke:#C6A0F6;stroke-width:2;" width="137.0242" x="67.42" y="1046.116"/><ellipse cx="81.42" cy="1062.012" fill="#ADD1B2" rx="10" ry="10" style="stroke:#181818;stroke-width:1;"/><path d="M81.1388,1066.637 Q79.8888,1066.637 79.0919,1066.1214 Q78.295,1065.5902 77.9044,1064.637 Q77.5138,1063.6839 77.5138,1062.4027 Q77.5138,1060.9808 77.9825,1059.9652 Q78.4513,1058.9339 79.3575,1058.387 Q80.2638,1057.8245 81.5763,1057.8245 Q82.2013,1057.8245 82.67,1057.9495 Q83.1544,1058.0745 83.6388,1058.3089 L83.0606,1059.7464 Q82.6231,1059.512 82.2325,1059.4339 Q81.8575,1059.3558 81.5138,1059.3558 Q80.6856,1059.3558 80.1856,1059.7308 Q79.7013,1060.0902 79.4825,1060.762 Q79.2794,1061.4339 79.2794,1062.3402 Q79.2794,1063.7464 79.7794,1064.4339 Q80.295,1065.1058 81.42,1065.1058 Q81.8419,1065.1058 82.2794,1064.9964 Q82.7169,1064.887 83.3106,1064.6214 L83.3106,1066.1839 Q82.795,1066.4183 82.2325,1066.5277 Q81.67,1066.637 81.1388,1066.637 Z " fill="#CAD3F5"/><text fill="#A6DA95" font-family="Helvetica" font-size="16" lengthAdjust="spacing" textLength="107.0242" x="94.42" y="1068.2201">StreamMonad</text></g><!--class OptionalMonad--><g class="entity" data-entity="OptionalMonad" data-source-line="9" data-uid="ent0005" id="entity_OptionalMonad"><rect fill="#24273A" height="31.792" rx="1.5" ry="1.5" style="stroke:#C6A0F6;stroke-width:2;" width="147.8082" x="62.03" y="979.116"/><rect fill="#363A4F" height="31.792" rx="1.5" ry="1.5" style="stroke:#363A4F;stroke-width:2;" width="147.8082" x="62.03" y="979.116"/><rect fill="#363A4F" height="1.5" style="stroke:#363A4F;stroke-width:2;" width="147.8082" x="62.03" y="1009.4081"/><rect fill="none" height="31.792" rx="1.5" ry="1.5" style="stroke:#C6A0F6;stroke-width:2;" width="147.8082" x="62.03" y="979.116"/><ellipse cx="76.03" cy="995.012" fill="#ADD1B2" rx="10" ry="10" style="stroke:#181818;stroke-width:1;"/><path d="M75.7488,999.637 Q74.4988,999.637 73.7019,999.1214 Q72.905,998.5902 72.5144,997.637 Q72.1238,996.6839 72.1238,995.4027 Q72.1238,993.9808 72.5925,992.9652 Q73.0613,991.9339 73.9675,991.387 Q74.8738,990.8245 76.1863,990.8245 Q76.8113,990.8245 77.28,990.9495 Q77.7644,991.0745 78.2488,991.3089 L77.6706,992.7464 Q77.2331,992.512 76.8425,992.4339 Q76.4675,992.3558 76.1238,992.3558 Q75.2956,992.3558 74.7956,992.7308 Q74.3113,993.0902 74.0925,993.762 Q73.8894,994.4339 73.8894,995.3402 Q73.8894,996.7464 74.3894,997.4339 Q74.905,998.1058 76.03,998.1058 Q76.4519,998.1058 76.8894,997.9964 Q77.3269,997.887 77.9206,997.6214 L77.9206,999.1839 Q77.405,999.4183 76.8425,999.5277 Q76.28,999.637 75.7488,999.637 Z " fill="#CAD3F5"/><text fill="#A6DA95" font-family="Helvetica" font-size="16" lengthAdjust="spacing" textLength="117.8082" x="89.03" y="1001.2201">OptionalMonad</text></g><!--class MaybeMonad--><g class="entity" data-entity="MaybeMonad" data-source-line="10" data-uid="ent0006" id="entity_MaybeMonad"><rect fill="#24273A" height="31.792" rx="1.5" ry="1.5" style="stroke:#C6A0F6;stroke-width:2;" width="133.4082" x="69.23" y="644.116"/><rect fill="#363A4F" height="31.792" rx="1.5" ry="1.5" style="stroke:#363A4F;stroke-width:2;" width="133.4082" x="69.23" y="644.116"/><rect fill="#363A4F" height="1.5" style="stroke:#363A4F;stroke-width:2;" width="133.4082" x="69.23" y="674.4081"/><rect fill="none" height="31.792" rx="1.5" ry="1.5" style="stroke:#C6A0F6;stroke-width:2;" width="133.4082" x="69.23" y="644.116"/><ellipse cx="83.23" cy="660.012" fill="#ADD1B2" rx="10" ry="10" style="stroke:#181818;stroke-width:1;"/><path d="M82.9488,664.637 Q81.6988,664.637 80.9019,664.1214 Q80.105,663.5902 79.7144,662.637 Q79.3238,661.6839 79.3238,660.4027 Q79.3238,658.9808 79.7925,657.9652 Q80.2613,656.9339 81.1675,656.387 Q82.0738,655.8245 83.3863,655.8245 Q84.0113,655.8245 84.48,655.9495 Q84.9644,656.0745 85.4488,656.3089 L84.8706,657.7464 Q84.4331,657.512 84.0425,657.4339 Q83.6675,657.3558 83.3238,657.3558 Q82.4956,657.3558 81.9956,657.7308 Q81.5113,658.0902 81.2925,658.762 Q81.0894,659.4339 81.0894,660.3402 Q81.0894,661.7464 81.5894,662.4339 Q82.105,663.1058 83.23,663.1058 Q83.6519,663.1058 84.0894,662.9964 Q84.5269,662.887 85.1206,662.6214 L85.1206,664.1839 Q84.605,664.4183 84.0425,664.5277 Q83.48,664.637 82.9488,664.637 Z " fill="#CAD3F5"/><text fill="#A6DA95" font-family="Helvetica" font-size="16" lengthAdjust="spacing" textLength="103.4082" x="96.23" y="666.2201">MaybeMonad</text></g><!--class EitherMonad--><g class="entity" data-entity="EitherMonad" data-source-line="11" data-uid="ent0007" id="entity_EitherMonad"><rect fill="#24273A" height="31.792" rx="1.5" ry="1.5" style="stroke:#C6A0F6;stroke-width:2;" width="136.9522" x="67.46" y="912.116"/><rect fill="#363A4F" height="31.792" rx="1.5" ry="1.5" style="stroke:#363A4F;stroke-width:2;" width="136.9522" x="67.46" y="912.116"/><rect fill="#363A4F" height="1.5" style="stroke:#363A4F;stroke-width:2;" width="136.9522" x="67.46" y="942.4081"/><rect fill="none" height="31.792" rx="1.5" ry="1.5" style="stroke:#C6A0F6;stroke-width:2;" width="136.9522" x="67.46" y="912.116"/><ellipse cx="81.46" cy="928.012" fill="#ADD1B2" rx="10" ry="10" style="stroke:#181818;stroke-width:1;"/><path d="M81.1788,932.637 Q79.9288,932.637 79.1319,932.1214 Q78.335,931.5902 77.9444,930.637 Q77.5538,929.6839 77.5538,928.4027 Q77.5538,926.9808 78.0225,925.9652 Q78.4913,924.9339 79.3975,924.387 Q80.3038,923.8245 81.6163,923.8245 Q82.2413,923.8245 82.71,923.9495 Q83.1944,924.0745 83.6788,924.3089 L83.1006,925.7464 Q82.6631,925.512 82.2725,925.4339 Q81.8975,925.3558 81.5538,925.3558 Q80.7256,925.3558 80.2256,925.7308 Q79.7413,926.0902 79.5225,926.762 Q79.3194,927.4339 79.3194,928.3402 Q79.3194,929.7464 79.8194,930.4339 Q80.335,931.1058 81.46,931.1058 Q81.8819,931.1058 82.3194,930.9964 Q82.7569,930.887 83.3506,930.6214 L83.3506,932.1839 Q82.835,932.4183 82.2725,932.5277 Q81.71,932.637 81.1788,932.637 Z " fill="#CAD3F5"/><text fill="#A6DA95" font-family="Helvetica" font-size="16" lengthAdjust="spacing" textLength="97.2162" x="94.46" y="934.2201">EitherMonad</text><rect fill="#24273A" height="18.3441" style="stroke:#C6A0F6;stroke-width:1;stroke-dasharray:2,2;" width="7.736" x="199.6762" y="909.116"/><text fill="#CAD3F5" font-family="Helvetica" font-size="12" font-style="italic" lengthAdjust="spacing" textLength="5.736" x="200.6762" y="922.9441">L</text></g><!--class CompletableFutureMonad--><g class="entity" data-entity="CompletableFutureMonad" data-source-line="12" data-uid="ent0008" id="entity_CompletableFutureMonad"><rect fill="#24273A" height="31.792" rx="1.5" ry="1.5" style="stroke:#C6A0F6;stroke-width:2;" width="227.8724" x="22" y="845.116"/><rect fill="#363A4F" height="31.792" rx="1.5" ry="1.5" style="stroke:#363A4F;stroke-width:2;" width="227.8724" x="22" y="845.116"/><rect fill="#363A4F" height="1.5" style="stroke:#363A4F;stroke-width:2;" width="227.8724" x="22" y="875.4081"/><rect fill="none" height="31.792" rx="1.5" ry="1.5" style="stroke:#C6A0F6;stroke-width:2;" width="227.8724" x="22" y="845.116"/><ellipse cx="36" cy="861.012" fill="#ADD1B2" rx="10" ry="10" style="stroke:#181818;stroke-width:1;"/><path d="M35.7188,865.637 Q34.4688,865.637 33.6719,865.1214 Q32.875,864.5902 32.4844,863.637 Q32.0938,862.6839 32.0938,861.4027 Q32.0938,859.9808 32.5625,858.9652 Q33.0313,857.9339 33.9375,857.387 Q34.8438,856.8245 36.1563,856.8245 Q36.7813,856.8245 37.25,856.9495 Q37.7344,857.0745 38.2188,857.3089 L37.6406,858.7464 Q37.2031,858.512 36.8125,858.4339 Q36.4375,858.3558 36.0938,858.3558 Q35.2656,858.3558 34.7656,858.7308 Q34.2813,859.0902 34.0625,859.762 Q33.8594,860.4339 33.8594,861.3402 Q33.8594,862.7464 34.3594,863.4339 Q34.875,864.1058 36,864.1058 Q36.4219,864.1058 36.8594,863.9964 Q37.2969,863.887 37.8906,863.6214 L37.8906,865.1839 Q37.375,865.4183 36.8125,865.5277 Q36.25,865.637 35.7188,865.637 Z " fill="#CAD3F5"/><text fill="#A6DA95" font-family="Helvetica" font-size="16" lengthAdjust="spacing" textLength="197.8724" x="49" y="867.2201">CompletableFutureMonad</text></g><!--class TryMonad--><g class="entity" data-entity="TryMonad" data-source-line="13" data-uid="ent0009" id="entity_TryMonad"><rect fill="#24273A" height="31.792" rx="1.5" ry="1.5" style="stroke:#C6A0F6;stroke-width:2;" width="106.5602" x="82.66" y="778.116"/><rect fill="#363A4F" height="31.792" rx="1.5" ry="1.5" style="stroke:#363A4F;stroke-width:2;" width="106.5602" x="82.66" y="778.116"/><rect fill="#363A4F" height="1.5" style="stroke:#363A4F;stroke-width:2;" width="106.5602" x="82.66" y="808.4081"/><rect fill="none" height="31.792" rx="1.5" ry="1.5" style="stroke:#C6A0F6;stroke-width:2;" width="106.5602" x="82.66" y="778.116"/><ellipse cx="96.66" cy="794.012" fill="#ADD1B2" rx="10" ry="10" style="stroke:#181818;stroke-width:1;"/><path d="M96.3788,798.637 Q95.1288,798.637 94.3319,798.1214 Q93.535,797.5902 93.1444,796.637 Q92.7538,795.6839 92.7538,794.4027 Q92.7538,792.9808 93.2225,791.9652 Q93.6913,790.9339 94.5975,790.387 Q95.5038,789.8245 96.8163,789.8245 Q97.4413,789.8245 97.91,789.9495 Q98.3944,790.0745 98.8788,790.3089 L98.3006,791.7464 Q97.8631,791.512 97.4725,791.4339 Q97.0975,791.3558 96.7538,791.3558 Q95.9256,791.3558 95.4256,791.7308 Q94.9413,792.0902 94.7225,792.762 Q94.5194,793.4339 94.5194,794.3402 Q94.5194,795.7464 95.0194,796.4339 Q95.535,797.1058 96.66,797.1058 Q97.0819,797.1058 97.5194,796.9964 Q97.9569,796.887 98.5506,796.6214 L98.5506,798.1839 Q98.035,798.4183 97.4725,798.5277 Q96.91,798.637 96.3788,798.637 Z " fill="#CAD3F5"/><text fill="#A6DA95" font-family="Helvetica" font-size="16" lengthAdjust="spacing" textLength="76.5602" x="109.66" y="800.2201">TryMonad</text></g><!--class IOMonad--><g class="entity" data-entity="IOMonad" data-source-line="14" data-uid="ent0010" id="entity_IOMonad"><rect fill="#24273A" height="31.792" rx="1.5" ry="1.5" style="stroke:#C6A0F6;stroke-width:2;" width="100.8161" x="85.53" y="309.116"/><rect fill="#363A4F" height="31.792" rx="1.5" ry="1.5" style="stroke:#363A4F;stroke-width:2;" width="100.8161" x="85.53" y="309.116"/><rect fill="#363A4F" height="1.5" style="stroke:#363A4F;stroke-width:2;" width="100.8161" x="85.53" y="339.4081"/><rect fill="none" height="31.792" rx="1.5" ry="1.5" style="stroke:#C6A0F6;stroke-width:2;" width="100.8161" x="85.53" y="309.116"/><ellipse cx="99.53" cy="325.012" fill="#ADD1B2" rx="10" ry="10" style="stroke:#181818;stroke-width:1;"/><path d="M99.2488,329.637 Q97.9988,329.637 97.2019,329.1214 Q96.405,328.5902 96.0144,327.637 Q95.6238,326.6839 95.6238,325.4027 Q95.6238,323.9808 96.0925,322.9652 Q96.5613,321.9339 97.4675,321.387 Q98.3738,320.8245 99.6863,320.8245 Q100.3113,320.8245 100.78,320.9495 Q101.2644,321.0745 101.7488,321.3089 L101.1706,322.7464 Q100.7331,322.512 100.3425,322.4339 Q99.9675,322.3558 99.6238,322.3558 Q98.7956,322.3558 98.2956,322.7308 Q97.8113,323.0902 97.5925,323.762 Q97.3894,324.4339 97.3894,325.3402 Q97.3894,326.7464 97.8894,327.4339 Q98.405,328.1058 99.53,328.1058 Q99.9519,328.1058 100.3894,327.9964 Q100.8269,327.887 101.4206,327.6214 L101.4206,329.1839 Q100.905,329.4183 100.3425,329.5277 Q99.78,329.637 99.2488,329.637 Z " fill="#CAD3F5"/><text fill="#A6DA95" font-family="Helvetica" font-size="16" lengthAdjust="spacing" textLength="70.8161" x="112.53" y="331.2201">IOMonad</text></g><!--class LazyMonad--><g class="entity" data-entity="LazyMonad" data-source-line="15" data-uid="ent0011" id="entity_LazyMonad"><rect fill="#24273A" height="31.792" rx="1.5" ry="1.5" style="stroke:#C6A0F6;stroke-width:2;" width="115.9362" x="77.97" y="242.116"/><rect fill="#363A4F" height="31.792" rx="1.5" ry="1.5" style="stroke:#363A4F;stroke-width:2;" width="115.9362" x="77.97" y="242.116"/><rect fill="#363A4F" height="1.5" style="stroke:#363A4F;stroke-width:2;" width="115.9362" x="77.97" y="272.4081"/><rect fill="none" height="31.792" rx="1.5" ry="1.5" style="stroke:#C6A0F6;stroke-width:2;" width="115.9362" x="77.97" y="242.116"/><ellipse cx="91.97" cy="258.012" fill="#ADD1B2" rx="10" ry="10" style="stroke:#181818;stroke-width:1;"/><path d="M91.6888,262.637 Q90.4388,262.637 89.6419,262.1214 Q88.845,261.5902 88.4544,260.637 Q88.0638,259.6839 88.0638,258.4027 Q88.0638,256.9808 88.5325,255.9652 Q89.0013,254.9339 89.9075,254.387 Q90.8138,253.8245 92.1263,253.8245 Q92.7513,253.8245 93.22,253.9495 Q93.7044,254.0745 94.1888,254.3089 L93.6106,255.7464 Q93.1731,255.512 92.7825,255.4339 Q92.4075,255.3558 92.0638,255.3558 Q91.2356,255.3558 90.7356,255.7308 Q90.2513,256.0902 90.0325,256.762 Q89.8294,257.4339 89.8294,258.3402 Q89.8294,259.7464 90.3294,260.4339 Q90.845,261.1058 91.97,261.1058 Q92.3919,261.1058 92.8294,260.9964 Q93.2669,260.887 93.8606,260.6214 L93.8606,262.1839 Q93.345,262.4183 92.7825,262.5277 Q92.22,262.637 91.6888,262.637 Z " fill="#CAD3F5"/><text fill="#A6DA95" font-family="Helvetica" font-size="16" lengthAdjust="spacing" textLength="85.9362" x="104.97" y="264.2201">LazyMonad</text></g><!--class IdMonad--><g class="entity" data-entity="IdMonad" data-source-line="16" data-uid="ent0012" id="entity_IdMonad"><rect fill="#24273A" height="31.792" rx="1.5" ry="1.5" style="stroke:#C6A0F6;stroke-width:2;" width="98.1601" x="86.86" y="175.116"/><rect fill="#363A4F" height="31.792" rx="1.5" ry="1.5" style="stroke:#363A4F;stroke-width:2;" width="98.1601" x="86.86" y="175.116"/><rect fill="#363A4F" height="1.5" style="stroke:#363A4F;stroke-width:2;" width="98.1601" x="86.86" y="205.4081"/><rect fill="none" height="31.792" rx="1.5" ry="1.5" style="stroke:#C6A0F6;stroke-width:2;" width="98.1601" x="86.86" y="175.116"/><ellipse cx="100.86" cy="191.012" fill="#ADD1B2" rx="10" ry="10" style="stroke:#181818;stroke-width:1;"/><path d="M100.5788,195.637 Q99.3288,195.637 98.5319,195.1214 Q97.735,194.5902 97.3444,193.637 Q96.9538,192.6839 96.9538,191.4027 Q96.9538,189.9808 97.4225,188.9652 Q97.8913,187.9339 98.7975,187.387 Q99.7038,186.8245 101.0163,186.8245 Q101.6413,186.8245 102.11,186.9495 Q102.5944,187.0745 103.0788,187.3089 L102.5006,188.7464 Q102.0631,188.512 101.6725,188.4339 Q101.2975,188.3558 100.9538,188.3558 Q100.1256,188.3558 99.6256,188.7308 Q99.1413,189.0902 98.9225,189.762 Q98.7194,190.4339 98.7194,191.3402 Q98.7194,192.7464 99.2194,193.4339 Q99.735,194.1058 100.86,194.1058 Q101.2819,194.1058 101.7194,193.9964 Q102.1569,193.887 102.7506,193.6214 L102.7506,195.1839 Q102.235,195.4183 101.6725,195.5277 Q101.11,195.637 100.5788,195.637 Z " fill="#CAD3F5"/><text fill="#A6DA95" font-family="Helvetica" font-size="16" lengthAdjust="spacing" textLength="68.1601" x="113.86" y="197.2201">IdMonad</text></g><!--class ReaderMonad--><g class="entity" data-entity="ReaderMonad" data-source-line="17" data-uid="ent0013" id="entity_ReaderMonad"><rect fill="#24273A" height="31.792" rx="1.5" ry="1.5" style="stroke:#C6A0F6;stroke-width:2;" width="147.1963" x="62.34" y="108.116"/><rect fill="#363A4F" height="31.792" rx="1.5" ry="1.5" style="stroke:#363A4F;stroke-width:2;" width="147.1963" x="62.34" y="108.116"/><rect fill="#363A4F" height="1.5" style="stroke:#363A4F;stroke-width:2;" width="147.1963" x="62.34" y="138.4081"/><rect fill="none" height="31.792" rx="1.5" ry="1.5" style="stroke:#C6A0F6;stroke-width:2;" width="147.1963" x="62.34" y="108.116"/><ellipse cx="76.34" cy="124.012" fill="#ADD1B2" rx="10" ry="10" style="stroke:#181818;stroke-width:1;"/><path d="M76.0588,128.637 Q74.8088,128.637 74.0119,128.1214 Q73.215,127.5902 72.8244,126.637 Q72.4338,125.6839 72.4338,124.4027 Q72.4338,122.9808 72.9025,121.9652 Q73.3713,120.9339 74.2775,120.387 Q75.1838,119.8245 76.4963,119.8245 Q77.1213,119.8245 77.59,119.9495 Q78.0744,120.0745 78.5588,120.3089 L77.9806,121.7464 Q77.5431,121.512 77.1525,121.4339 Q76.7775,121.3558 76.4338,121.3558 Q75.6056,121.3558 75.1056,121.7308 Q74.6213,122.0902 74.4025,122.762 Q74.1994,123.4339 74.1994,124.3402 Q74.1994,125.7464 74.6994,126.4339 Q75.215,127.1058 76.34,127.1058 Q76.7619,127.1058 77.1994,126.9964 Q77.6369,126.887 78.2306,126.6214 L78.2306,128.1839 Q77.715,128.4183 77.1525,128.5277 Q76.59,128.637 76.0588,128.637 Z " fill="#CAD3F5"/><text fill="#A6DA95" font-family="Helvetica" font-size="16" lengthAdjust="spacing" textLength="106.3202" x="89.34" y="130.2201">ReaderMonad</text><rect fill="#24273A" height="18.3441" style="stroke:#C6A0F6;stroke-width:1;stroke-dasharray:2,2;" width="8.8761" x="203.6602" y="105.116"/><text fill="#CAD3F5" font-family="Helvetica" font-size="12" font-style="italic" lengthAdjust="spacing" textLength="6.8761" x="204.6602" y="118.9441">R</text></g><!--class StateMonad--><g class="entity" data-entity="StateMonad" data-source-line="18" data-uid="ent0014" id="entity_StateMonad"><rect fill="#24273A" height="31.792" rx="1.5" ry="1.5" style="stroke:#C6A0F6;stroke-width:2;" width="131.2922" x="70.29" y="41.116"/><rect fill="#363A4F" height="31.792" rx="1.5" ry="1.5" style="stroke:#363A4F;stroke-width:2;" width="131.2922" x="70.29" y="41.116"/><rect fill="#363A4F" height="1.5" style="stroke:#363A4F;stroke-width:2;" width="131.2922" x="70.29" y="71.4081"/><rect fill="none" height="31.792" rx="1.5" ry="1.5" style="stroke:#C6A0F6;stroke-width:2;" width="131.2922" x="70.29" y="41.116"/><ellipse cx="84.29" cy="57.012" fill="#ADD1B2" rx="10" ry="10" style="stroke:#181818;stroke-width:1;"/><path d="M84.0088,61.637 Q82.7588,61.637 81.9619,61.1214 Q81.165,60.5902 80.7744,59.637 Q80.3838,58.6839 80.3838,57.4027 Q80.3838,55.9808 80.8525,54.9652 Q81.3213,53.9339 82.2275,53.387 Q83.1338,52.8245 84.4463,52.8245 Q85.0713,52.8245 85.54,52.9495 Q86.0244,53.0745 86.5088,53.3089 L85.9306,54.7464 Q85.4931,54.512 85.1025,54.4339 Q84.7275,54.3558 84.3838,54.3558 Q83.5556,54.3558 83.0556,54.7308 Q82.5713,55.0902 82.3525,55.762 Q82.1494,56.4339 82.1494,57.3402 Q82.1494,58.7464 82.6494,59.4339 Q83.165,60.1058 84.29,60.1058 Q84.7119,60.1058 85.1494,59.9964 Q85.5869,59.887 86.1806,59.6214 L86.1806,61.1839 Q85.665,61.4183 85.1025,61.5277 Q84.54,61.637 84.0088,61.637 Z " fill="#CAD3F5"/><text fill="#A6DA95" font-family="Helvetica" font-size="16" lengthAdjust="spacing" textLength="91.2322" x="97.29" y="63.2201">StateMonad</text><rect fill="#24273A" height="18.3441" style="stroke:#C6A0F6;stroke-width:1;stroke-dasharray:2,2;" width="8.06" x="196.5222" y="38.116"/><text fill="#CAD3F5" font-family="Helvetica" font-size="12" font-style="italic" lengthAdjust="spacing" textLength="6.06" x="197.5222" y="51.9441">S</text></g><!--class WriterMonad--><g class="entity" data-entity="WriterMonad" data-source-line="19" data-uid="ent0015" id="entity_WriterMonad"><rect fill="#24273A" height="31.792" rx="1.5" ry="1.5" style="stroke:#C6A0F6;stroke-width:2;" width="144.1923" x="63.84" y="577.116"/><rect fill="#363A4F" height="31.792" rx="1.5" ry="1.5" style="stroke:#363A4F;stroke-width:2;" width="144.1923" x="63.84" y="577.116"/><rect fill="#363A4F" height="1.5" style="stroke:#363A4F;stroke-width:2;" width="144.1923" x="63.84" y="607.4081"/><rect fill="none" height="31.792" rx="1.5" ry="1.5" style="stroke:#C6A0F6;stroke-width:2;" width="144.1923" x="63.84" y="577.116"/><ellipse cx="77.84" cy="593.012" fill="#ADD1B2" rx="10" ry="10" style="stroke:#181818;stroke-width:1;"/><path d="M77.5588,597.637 Q76.3088,597.637 75.5119,597.1214 Q74.715,596.5902 74.3244,595.637 Q73.9338,594.6839 73.9338,593.4027 Q73.9338,591.9808 74.4025,590.9652 Q74.8713,589.9339 75.7775,589.387 Q76.6838,588.8245 77.9963,588.8245 Q78.6213,588.8245 79.09,588.9495 Q79.5744,589.0745 80.0588,589.3089 L79.4806,590.7464 Q79.0431,590.512 78.6525,590.4339 Q78.2775,590.3558 77.9338,590.3558 Q77.1056,590.3558 76.6056,590.7308 Q76.1213,591.0902 75.9025,591.762 Q75.6994,592.4339 75.6994,593.3402 Q75.6994,594.7464 76.1994,595.4339 Q76.715,596.1058 77.84,596.1058 Q78.2619,596.1058 78.6994,595.9964 Q79.1369,595.887 79.7306,595.6214 L79.7306,597.1839 Q79.215,597.4183 78.6525,597.5277 Q78.09,597.637 77.5588,597.637 Z " fill="#CAD3F5"/><text fill="#A6DA95" font-family="Helvetica" font-size="16" lengthAdjust="spacing" textLength="99.9202" x="90.84" y="599.2201">WriterMonad</text><rect fill="#24273A" height="18.3441" style="stroke:#C6A0F6;stroke-width:1;stroke-dasharray:2,2;" width="12.2721" x="198.7602" y="574.116"/><text fill="#CAD3F5" font-family="Helvetica" font-size="12" font-style="italic" lengthAdjust="spacing" textLength="10.2721" x="199.7602" y="587.9441">W</text></g><!--class ValidatedMonad--><g class="entity" data-entity="ValidatedMonad" data-source-line="20" data-uid="ent0016" id="entity_ValidatedMonad"><rect fill="#24273A" height="31.792" rx="1.5" ry="1.5" style="stroke:#C6A0F6;stroke-width:2;" width="163.3523" x="54.26" y="711.116"/><rect fill="#363A4F" height="31.792" rx="1.5" ry="1.5" style="stroke:#363A4F;stroke-width:2;" width="163.3523" x="54.26" y="711.116"/><rect fill="#363A4F" height="1.5" style="stroke:#363A4F;stroke-width:2;" width="163.3523" x="54.26" y="741.4081"/><rect fill="none" height="31.792" rx="1.5" ry="1.5" style="stroke:#C6A0F6;stroke-width:2;" width="163.3523" x="54.26" y="711.116"/><ellipse cx="68.26" cy="727.012" fill="#ADD1B2" rx="10" ry="10" style="stroke:#181818;stroke-width:1;"/><path d="M67.9788,731.637 Q66.7288,731.637 65.9319,731.1214 Q65.135,730.5902 64.7444,729.637 Q64.3538,728.6839 64.3538,727.4027 Q64.3538,725.9808 64.8225,724.9652 Q65.2913,723.9339 66.1975,723.387 Q67.1038,722.8245 68.4163,722.8245 Q69.0413,722.8245 69.51,722.9495 Q69.9944,723.0745 70.4788,723.3089 L69.9006,724.7464 Q69.4631,724.512 69.0725,724.4339 Q68.6975,724.3558 68.3538,724.3558 Q67.5256,724.3558 67.0256,724.7308 Q66.5413,725.0902 66.3225,725.762 Q66.1194,726.4339 66.1194,727.3402 Q66.1194,728.7464 66.6194,729.4339 Q67.135,730.1058 68.26,730.1058 Q68.6819,730.1058 69.1194,729.9964 Q69.5569,729.887 70.1506,729.6214 L70.1506,731.1839 Q69.635,731.4183 69.0725,731.5277 Q68.51,731.637 67.9788,731.637 Z " fill="#CAD3F5"/><text fill="#A6DA95" font-family="Helvetica" font-size="16" lengthAdjust="spacing" textLength="123.1842" x="81.26" y="733.2201">ValidatedMonad</text><rect fill="#24273A" height="18.3441" style="stroke:#C6A0F6;stroke-width:1;stroke-dasharray:2,2;" width="8.168" x="212.4442" y="708.116"/><text fill="#CAD3F5" font-family="Helvetica" font-size="12" font-style="italic" lengthAdjust="spacing" textLength="6.168" x="213.4442" y="721.9441">E</text></g><!--class TrampolineMonad--><g class="entity" data-entity="TrampolineMonad" data-source-line="21" data-uid="ent0017" id="entity_TrampolineMonad"><rect fill="#24273A" height="31.792" rx="1.5" ry="1.5" style="stroke:#C6A0F6;stroke-width:2;" width="169.0243" x="51.42" y="510.116"/><rect fill="#363A4F" height="31.792" rx="1.5" ry="1.5" style="stroke:#363A4F;stroke-width:2;" width="169.0243" x="51.42" y="510.116"/><rect fill="#363A4F" height="1.5" style="stroke:#363A4F;stroke-width:2;" width="169.0243" x="51.42" y="540.4081"/><rect fill="none" height="31.792" rx="1.5" ry="1.5" style="stroke:#C6A0F6;stroke-width:2;" width="169.0243" x="51.42" y="510.116"/><ellipse cx="65.42" cy="526.012" fill="#ADD1B2" rx="10" ry="10" style="stroke:#181818;stroke-width:1;"/><path d="M65.1388,530.637 Q63.8888,530.637 63.0919,530.1214 Q62.295,529.5902 61.9044,528.637 Q61.5138,527.6839 61.5138,526.4027 Q61.5138,524.9808 61.9825,523.9652 Q62.4513,522.9339 63.3575,522.387 Q64.2638,521.8245 65.5763,521.8245 Q66.2013,521.8245 66.67,521.9495 Q67.1544,522.0745 67.6388,522.3089 L67.0606,523.7464 Q66.6231,523.512 66.2325,523.4339 Q65.8575,523.3558 65.5138,523.3558 Q64.6856,523.3558 64.1856,523.7308 Q63.7013,524.0902 63.4825,524.762 Q63.2794,525.4339 63.2794,526.3402 Q63.2794,527.7464 63.7794,528.4339 Q64.295,529.1058 65.42,529.1058 Q65.8419,529.1058 66.2794,528.9964 Q66.7169,528.887 67.3106,528.6214 L67.3106,530.1839 Q66.795,530.4183 66.2325,530.5277 Q65.67,530.637 65.1388,530.637 Z " fill="#CAD3F5"/><text fill="#A6DA95" font-family="Helvetica" font-size="16" lengthAdjust="spacing" textLength="139.0243" x="78.42" y="532.2201">TrampolineMonad</text></g><!--class FreeMonad--><g class="entity" data-entity="FreeMonad" data-source-line="22" data-uid="ent0018" id="entity_FreeMonad"><rect fill="#24273A" height="31.792" rx="1.5" ry="1.5" style="stroke:#C6A0F6;stroke-width:2;" width="125.5802" x="73.15" y="443.116"/><rect fill="#363A4F" height="31.792" rx="1.5" ry="1.5" style="stroke:#363A4F;stroke-width:2;" width="125.5802" x="73.15" y="443.116"/><rect fill="#363A4F" height="1.5" style="stroke:#363A4F;stroke-width:2;" width="125.5802" x="73.15" y="473.4081"/><rect fill="none" height="31.792" rx="1.5" ry="1.5" style="stroke:#C6A0F6;stroke-width:2;" width="125.5802" x="73.15" y="443.116"/><ellipse cx="87.15" cy="459.012" fill="#ADD1B2" rx="10" ry="10" style="stroke:#181818;stroke-width:1;"/><path d="M86.8688,463.637 Q85.6188,463.637 84.8219,463.1214 Q84.025,462.5902 83.6344,461.637 Q83.2438,460.6839 83.2438,459.4027 Q83.2438,457.9808 83.7125,456.9652 Q84.1813,455.9339 85.0875,455.387 Q85.9938,454.8245 87.3063,454.8245 Q87.9313,454.8245 88.4,454.9495 Q88.8844,455.0745 89.3688,455.3089 L88.7906,456.7464 Q88.3531,456.512 87.9625,456.4339 Q87.5875,456.3558 87.2438,456.3558 Q86.4156,456.3558 85.9156,456.7308 Q85.4313,457.0902 85.2125,457.762 Q85.0094,458.4339 85.0094,459.3402 Q85.0094,460.7464 85.5094,461.4339 Q86.025,462.1058 87.15,462.1058 Q87.5719,462.1058 88.0094,461.9964 Q88.4469,461.887 89.0406,461.6214 L89.0406,463.1839 Q88.525,463.4183 87.9625,463.5277 Q87.4,463.637 86.8688,463.637 Z " fill="#CAD3F5"/><text fill="#A6DA95" font-family="Helvetica" font-size="16" lengthAdjust="spacing" textLength="85.8562" x="100.15" y="465.2201">FreeMonad</text><rect fill="#24273A" height="18.3441" style="stroke:#C6A0F6;stroke-width:1;stroke-dasharray:2,2;" width="7.724" x="194.0062" y="440.116"/><text fill="#CAD3F5" font-family="Helvetica" font-size="12" font-style="italic" lengthAdjust="spacing" textLength="5.724" x="195.0062" y="453.9441">F</text></g><!--class Monad--><g class="entity" data-entity="Monad" data-source-line="24" data-uid="ent0019" id="entity_Monad"><rect fill="#24273A" height="31.792" rx="1.5" ry="1.5" style="stroke:#C6A0F6;stroke-width:2;" width="82.8961" x="449.76" y="543.116"/><rect fill="#363A4F" height="31.792" rx="1.5" ry="1.5" style="stroke:#363A4F;stroke-width:2;" width="82.8961" x="449.76" y="543.116"/><rect fill="#363A4F" height="1.5" style="stroke:#363A4F;stroke-width:2;" width="82.8961" x="449.76" y="573.4081"/><rect fill="none" height="31.792" rx="1.5" ry="1.5" style="stroke:#C6A0F6;stroke-width:2;" width="82.8961" x="449.76" y="543.116"/><ellipse cx="463.76" cy="559.012" fill="#ADD1B2" rx="10" ry="10" style="stroke:#181818;stroke-width:1;"/><path d="M463.4788,563.637 Q462.2288,563.637 461.4319,563.1214 Q460.635,562.5902 460.2444,561.637 Q459.8538,560.6839 459.8538,559.4027 Q459.8538,557.9808 460.3225,556.9652 Q460.7913,555.9339 461.6975,555.387 Q462.6038,554.8245 463.9163,554.8245 Q464.5413,554.8245 465.01,554.9495 Q465.4944,555.0745 465.9788,555.3089 L465.4006,556.7464 Q464.9631,556.512 464.5725,556.4339 Q464.1975,556.3558 463.8538,556.3558 Q463.0256,556.3558 462.5256,556.7308 Q462.0413,557.0902 461.8225,557.762 Q461.6194,558.4339 461.6194,559.3402 Q461.6194,560.7464 462.1194,561.4339 Q462.635,562.1058 463.76,562.1058 Q464.1819,562.1058 464.6194,561.9964 Q465.0569,561.887 465.6506,561.6214 L465.6506,563.1839 Q465.135,563.4183 464.5725,563.5277 Q464.01,563.637 463.4788,563.637 Z " fill="#CAD3F5"/><text fill="#A6DA95" font-family="Helvetica" font-size="16" lengthAdjust="spacing" textLength="52.8961" x="476.76" y="565.2201">Monad</text></g><!--class MonadZero--><g class="entity" data-entity="MonadZero" data-source-line="25" data-uid="ent0022" id="entity_MonadZero"><rect fill="#24273A" height="31.792" rx="1.5" ry="1.5" style="stroke:#C6A0F6;stroke-width:2;" width="117.3602" x="432.53" y="677.116"/><rect fill="#363A4F" height="31.792" rx="1.5" ry="1.5" style="stroke:#363A4F;stroke-width:2;" width="117.3602" x="432.53" y="677.116"/><rect fill="#363A4F" height="1.5" style="stroke:#363A4F;stroke-width:2;" width="117.3602" x="432.53" y="707.4081"/><rect fill="none" height="31.792" rx="1.5" ry="1.5" style="stroke:#C6A0F6;stroke-width:2;" width="117.3602" x="432.53" y="677.116"/><ellipse cx="446.53" cy="693.012" fill="#ADD1B2" rx="10" ry="10" style="stroke:#181818;stroke-width:1;"/><path d="M446.2488,697.637 Q444.9988,697.637 444.2019,697.1214 Q443.405,696.5902 443.0144,695.637 Q442.6238,694.6839 442.6238,693.4027 Q442.6238,691.9808 443.0925,690.9652 Q443.5613,689.9339 444.4675,689.387 Q445.3738,688.8245 446.6863,688.8245 Q447.3113,688.8245 447.78,688.9495 Q448.2644,689.0745 448.7488,689.3089 L448.1706,690.7464 Q447.7331,690.512 447.3425,690.4339 Q446.9675,690.3558 446.6238,690.3558 Q445.7956,690.3558 445.2956,690.7308 Q444.8113,691.0902 444.5925,691.762 Q444.3894,692.4339 444.3894,693.3402 Q444.3894,694.7464 444.8894,695.4339 Q445.405,696.1058 446.53,696.1058 Q446.9519,696.1058 447.3894,695.9964 Q447.8269,695.887 448.4206,695.6214 L448.4206,697.1839 Q447.905,697.4183 447.3425,697.5277 Q446.78,697.637 446.2488,697.637 Z " fill="#CAD3F5"/><text fill="#A6DA95" font-family="Helvetica" font-size="16" lengthAdjust="spacing" textLength="87.3602" x="459.53" y="699.2201">MonadZero</text></g><!--class MonadError--><g class="entity" data-entity="MonadError" data-source-line="26" data-uid="ent0024" id="entity_MonadError"><rect fill="#24273A" height="31.792" rx="1.5" ry="1.5" style="stroke:#C6A0F6;stroke-width:2;" width="121.2962" x="430.56" y="610.116"/><rect fill="#363A4F" height="31.792" rx="1.5" ry="1.5" style="stroke:#363A4F;stroke-width:2;" width="121.2962" x="430.56" y="610.116"/><rect fill="#363A4F" height="1.5" style="stroke:#363A4F;stroke-width:2;" width="121.2962" x="430.56" y="640.4081"/><rect fill="none" height="31.792" rx="1.5" ry="1.5" style="stroke:#C6A0F6;stroke-width:2;" width="121.2962" x="430.56" y="610.116"/><ellipse cx="444.56" cy="626.012" fill="#ADD1B2" rx="10" ry="10" style="stroke:#181818;stroke-width:1;"/><path d="M444.2788,630.637 Q443.0288,630.637 442.2319,630.1214 Q441.435,629.5902 441.0444,628.637 Q440.6538,627.6839 440.6538,626.4027 Q440.6538,624.9808 441.1225,623.9652 Q441.5913,622.9339 442.4975,622.387 Q443.4038,621.8245 444.7163,621.8245 Q445.3413,621.8245 445.81,621.9495 Q446.2944,622.0745 446.7788,622.3089 L446.2006,623.7464 Q445.7631,623.512 445.3725,623.4339 Q444.9975,623.3558 444.6538,623.3558 Q443.8256,623.3558 443.3256,623.7308 Q442.8413,624.0902 442.6225,624.762 Q442.4194,625.4339 442.4194,626.3402 Q442.4194,627.7464 442.9194,628.4339 Q443.435,629.1058 444.56,629.1058 Q444.9819,629.1058 445.4194,628.9964 Q445.8569,628.887 446.4506,628.6214 L446.4506,630.1839 Q445.935,630.4183 445.3725,630.5277 Q444.81,630.637 444.2788,630.637 Z " fill="#CAD3F5"/><text fill="#A6DA95" font-family="Helvetica" font-size="16" lengthAdjust="spacing" textLength="91.2962" x="457.56" y="632.2201">MonadError</text></g><!--class OptionalKind--><g class="entity" data-entity="OptionalKind" data-source-line="42" data-uid="ent0039" id="entity_OptionalKind"><rect fill="#24273A" height="31.792" rx="1.5" ry="1.5" style="stroke:#C6A0F6;stroke-width:2;" width="128.6722" x="426.87" y="979.116"/><rect fill="#363A4F" height="31.792" rx="1.5" ry="1.5" style="stroke:#363A4F;stroke-width:2;" width="128.6722" x="426.87" y="979.116"/><rect fill="#363A4F" height="1.5" style="stroke:#363A4F;stroke-width:2;" width="128.6722" x="426.87" y="1009.4081"/><rect fill="none" height="31.792" rx="1.5" ry="1.5" style="stroke:#C6A0F6;stroke-width:2;" width="128.6722" x="426.87" y="979.116"/><ellipse cx="440.87" cy="995.012" fill="#ADD1B2" rx="10" ry="10" style="stroke:#181818;stroke-width:1;"/><path d="M440.5888,999.637 Q439.3388,999.637 438.5419,999.1214 Q437.745,998.5902 437.3544,997.637 Q436.9638,996.6839 436.9638,995.4027 Q436.9638,993.9808 437.4325,992.9652 Q437.9013,991.9339 438.8075,991.387 Q439.7138,990.8245 441.0263,990.8245 Q441.6513,990.8245 442.12,990.9495 Q442.6044,991.0745 443.0888,991.3089 L442.5106,992.7464 Q442.0731,992.512 441.6825,992.4339 Q441.3075,992.3558 440.9638,992.3558 Q440.1356,992.3558 439.6356,992.7308 Q439.1513,993.0902 438.9325,993.762 Q438.7294,994.4339 438.7294,995.3402 Q438.7294,996.7464 439.2294,997.4339 Q439.745,998.1058 440.87,998.1058 Q441.2919,998.1058 441.7294,997.9964 Q442.1669,997.887 442.7606,997.6214 L442.7606,999.1839 Q442.245,999.4183 441.6825,999.5277 Q441.12,999.637 440.5888,999.637 Z " fill="#CAD3F5"/><text fill="#A6DA95" font-family="Helvetica" font-size="16" lengthAdjust="spacing" textLength="98.6722" x="453.87" y="1001.2201">OptionalKind</text></g><!--reverse link ListMonad to Monad--><g class="link" data-entity-1="ListMonad" data-entity-2="Monad" data-source-line="24" data-uid="lnk21" id="link_ListMonad_Monad"><path codeLine="24" d="M207.9047,410.6454 C226.9347,416.1354 231,418.076 249.87,426.016 C332.07,460.606 422.42,515.626 465.16,542.776" fill="none" id="ListMonad-backto-Monad" style="stroke:#F5BDE6;stroke-width:1;stroke-dasharray:7,7;"/><polygon fill="none" points="190.61,405.656,206.2416,416.4103,209.5678,404.8805,190.61,405.656" style="stroke:#F5BDE6;stroke-width:1;"/></g><!--reverse link StreamMonad to MonadZero--><g class="link" data-entity-1="StreamMonad" data-entity-2="MonadZero" data-source-line="25" data-uid="lnk23" id="link_StreamMonad_MonadZero"><path codeLine="25" d="M221.861,1045.8083 C237.961,1040.7783 236.99,1038.786 249.87,1028.016 C272.44,1009.146 255.99,986.196 279.87,969.016 C321.82,938.846 354.78,984.606 394.87,952.016 C472.77,888.706 487.02,755.566 489.63,709.286" fill="none" id="StreamMonad-backto-MonadZero" style="stroke:#F5BDE6;stroke-width:1;stroke-dasharray:7,7;"/><polygon fill="none" points="204.68,1051.176,223.6503,1051.5353,220.0718,1040.0813,204.68,1051.176" style="stroke:#F5BDE6;stroke-width:1;"/></g><!--reverse link OptionalMonad to MonadError--><g class="link" data-entity-1="OptionalMonad" data-entity-2="MonadError" data-source-line="26" data-uid="lnk25" id="link_OptionalMonad_MonadError"><path codeLine="26" d="M210.0348,973.5168 C228.2848,968.0568 231.36,966.996 249.87,961.016 C251.9,960.366 393.61,912.726 394.87,911.016 C411.43,888.556 386.76,682.796 402.87,660.016 C409.64,650.456 419.51,643.576 430.2,638.636" fill="none" id="OptionalMonad-backto-MonadError" style="stroke:#F5BDE6;stroke-width:1;stroke-dasharray:7,7;"/><polygon fill="none" points="192.79,978.676,211.7545,979.265,208.315,967.7685,192.79,978.676" style="stroke:#F5BDE6;stroke-width:1;"/></g><!--reverse link MaybeMonad to MonadError--><g class="link" data-entity-1="MaybeMonad" data-entity-2="MonadError" data-source-line="27" data-uid="lnk26" id="link_MaybeMonad_MonadError"><path codeLine="27" d="M220.8873,651.933 C286.0873,645.663 367.02,637.876 430.09,631.806" fill="none" id="MaybeMonad-backto-MonadError" style="stroke:#F5BDE6;stroke-width:1;stroke-dasharray:7,7;"/><polygon fill="none" points="202.97,653.656,221.4617,657.9054,220.313,645.9605,202.97,653.656" style="stroke:#F5BDE6;stroke-width:1;"/></g><!--reverse link EitherMonad to MonadError--><g class="link" data-entity-1="EitherMonad" data-entity-2="MonadError" data-source-line="28" data-uid="lnk27" id="link_EitherMonad_MonadError"><path codeLine="28" d="M222.4155,918.8122 C283.8255,909.0222 353.15,887.016 394.87,824.016 C415.02,793.596 381.55,689.626 402.87,660.016 C409.72,650.506 419.62,643.666 430.32,638.726" fill="none" id="EitherMonad-backto-MonadError" style="stroke:#F5BDE6;stroke-width:1;stroke-dasharray:7,7;"/><polygon fill="none" points="204.64,921.646,223.3601,924.7374,221.4709,912.8871,204.64,921.646" style="stroke:#F5BDE6;stroke-width:1;"/></g><!--reverse link CompletableFutureMonad to MonadError--><g class="link" data-entity-1="CompletableFutureMonad" data-entity-2="MonadError" data-source-line="29" data-uid="lnk28" id="link_CompletableFutureMonad_MonadError"><path codeLine="29" d="M214.5339,839.5239 C231.7039,834.3839 233.06,833.506 249.87,827.016 C316.46,801.326 354.34,816.756 394.87,758.016 C407.28,740.036 389.81,677.536 402.87,660.016 C409.78,650.756 419.57,644.016 430.12,639.106" fill="none" id="CompletableFutureMonad-backto-MonadError" style="stroke:#F5BDE6;stroke-width:1;stroke-dasharray:7,7;"/><polygon fill="none" points="197.29,844.686,216.2546,845.2719,212.8132,833.7759,197.29,844.686" style="stroke:#F5BDE6;stroke-width:1;"/></g><!--reverse link TryMonad to MonadError--><g class="link" data-entity-1="TryMonad" data-entity-2="MonadError" data-source-line="30" data-uid="lnk29" id="link_TryMonad_MonadError"><path codeLine="30" d="M206.7083,774.7602 C225.9183,769.1502 230.42,767.336 249.87,760.016 C316.15,735.086 349.95,748.746 394.87,694.016 C404.72,682.016 392.69,671.736 402.87,660.016 C410.24,651.536 419.97,645.166 430.27,640.366" fill="none" id="TryMonad-backto-MonadError" style="stroke:#F5BDE6;stroke-width:1;stroke-dasharray:7,7;"/><polygon fill="none" points="189.43,779.806,208.3902,780.5196,205.0263,769.0007,189.43,779.806" style="stroke:#F5BDE6;stroke-width:1;"/></g><!--reverse link ValidatedMonad to MonadError--><g class="link" data-entity-1="ValidatedMonad" data-entity-2="MonadError" data-source-line="31" data-uid="lnk30" id="link_ValidatedMonad_MonadError"><path codeLine="31" d="M212.6996,705.7894 C265.0096,691.0994 326.45,673.746 394.87,654.016 C407.8,650.286 421.7,646.236 434.78,642.396" fill="none" id="ValidatedMonad-backto-MonadError" style="stroke:#F5BDE6;stroke-width:1;stroke-dasharray:7,7;"/><polygon fill="none" points="195.37,710.656,214.3218,711.566,211.0774,700.0129,195.37,710.656" style="stroke:#F5BDE6;stroke-width:1;"/></g><!--reverse link IdMonad to Monad--><g class="link" data-entity-1="IdMonad" data-entity-2="Monad" data-source-line="32" data-uid="lnk31" id="link_IdMonad_Monad"><path codeLine="32" d="M202.8085,205.4341 C223.4585,210.8141 229.93,214.116 249.87,225.016 C324.29,265.666 343.91,281.246 394.87,349.016 C443.12,413.176 474.27,505.656 485.51,542.736" fill="none" id="IdMonad-backto-Monad" style="stroke:#F5BDE6;stroke-width:1;stroke-dasharray:7,7;"/><polygon fill="none" points="185.39,200.896,201.2958,211.2403,204.3212,199.6279,185.39,200.896" style="stroke:#F5BDE6;stroke-width:1;"/></g><!--reverse link IOMonad to Monad--><g class="link" data-entity-1="IOMonad" data-entity-2="Monad" data-source-line="33" data-uid="lnk32" id="link_IOMonad_Monad"><path codeLine="33" d="M203.9322,341.0652 C224.1122,346.5852 229.96,349.386 249.87,359.016 C320.58,393.206 335.13,409.046 394.87,460.016 C426.09,486.656 458.4,522.186 476.24,542.636" fill="none" id="IOMonad-backto-Monad" style="stroke:#F5BDE6;stroke-width:1;stroke-dasharray:7,7;"/><polygon fill="none" points="186.57,336.316,202.3491,346.8526,205.5152,335.2779,186.57,336.316" style="stroke:#F5BDE6;stroke-width:1;"/></g><!--reverse link LazyMonad to Monad--><g class="link" data-entity-1="LazyMonad" data-entity-2="Monad" data-source-line="34" data-uid="lnk33" id="link_LazyMonad_Monad"><path codeLine="34" d="M211.6274,275.661 C229.9674,280.901 232.65,282.976 249.87,292.016 C322.94,330.386 339.86,346.496 394.87,408.016 C434.14,451.926 467.63,513.836 482.3,542.836" fill="none" id="LazyMonad-backto-Monad" style="stroke:#F5BDE6;stroke-width:1;stroke-dasharray:7,7;"/><polygon fill="none" points="194.32,270.716,209.9791,281.4301,213.2758,269.8919,194.32,270.716" style="stroke:#F5BDE6;stroke-width:1;"/></g><!--reverse link ReaderMonad to Monad--><g class="link" data-entity-1="ReaderMonad" data-entity-2="Monad" data-source-line="35" data-uid="lnk34" id="link_ReaderMonad_Monad"><path codeLine="35" d="M225.5514,146.0221 C239.7414,150.6821 237.09,150.876 249.87,158.016 C325.16,200.106 346.85,215.366 394.87,287.016 C452.68,373.266 479.41,498.396 487.46,542.716" fill="none" id="ReaderMonad-backto-Monad" style="stroke:#F5BDE6;stroke-width:1;stroke-dasharray:7,7;"/><polygon fill="none" points="208.45,140.406,223.6794,151.7226,227.4235,140.3217,208.45,140.406" style="stroke:#F5BDE6;stroke-width:1;"/></g><!--reverse link StateMonad to Monad--><g class="link" data-entity-1="StateMonad" data-entity-2="Monad" data-source-line="36" data-uid="lnk35" id="link_StateMonad_Monad"><path codeLine="36" d="M219.2011,76.4965 C235.4311,81.4665 235.17,82.686 249.87,91.016 C325.7,133.976 349,148.916 394.87,223.016 C462.7,332.566 483.61,491.756 488.76,542.696" fill="none" id="StateMonad-backto-Monad" style="stroke:#F5BDE6;stroke-width:1;stroke-dasharray:7,7;"/><polygon fill="none" points="201.99,71.226,217.4443,82.2335,220.9579,70.7594,201.99,71.226" style="stroke:#F5BDE6;stroke-width:1;"/></g><!--reverse link WriterMonad to Monad--><g class="link" data-entity-1="WriterMonad" data-entity-2="Monad" data-source-line="37" data-uid="lnk36" id="link_WriterMonad_Monad"><path codeLine="37" d="M226.3471,584.4105 C298.9271,577.4205 390.83,568.576 449.64,562.916" fill="none" id="WriterMonad-backto-Monad" style="stroke:#F5BDE6;stroke-width:1;stroke-dasharray:7,7;"/><polygon fill="none" points="208.43,586.136,226.9223,590.3828,225.7719,578.4381,208.43,586.136" style="stroke:#F5BDE6;stroke-width:1;"/></g><!--reverse link TrampolineMonad to Monad--><g class="link" data-entity-1="TrampolineMonad" data-entity-2="Monad" data-source-line="38" data-uid="lnk37" id="link_TrampolineMonad_Monad"><path codeLine="38" d="M238.5819,535.5109 C310.8119,542.2609 394.09,550.036 449.68,555.226" fill="none" id="TrampolineMonad-backto-Monad" style="stroke:#F5BDE6;stroke-width:1;stroke-dasharray:7,7;"/><polygon fill="none" points="220.66,533.836,238.0236,541.4848,239.1402,529.5369,220.66,533.836" style="stroke:#F5BDE6;stroke-width:1;"/></g><!--reverse link FreeMonad to Monad--><g class="link" data-entity-1="FreeMonad" data-entity-2="Monad" data-source-line="39" data-uid="lnk38" id="link_FreeMonad_Monad"><path codeLine="39" d="M211.7998,480.2076 C283.4598,500.4876 386.74,529.726 449.5,547.496" fill="none" id="FreeMonad-backto-Monad" style="stroke:#F5BDE6;stroke-width:1;stroke-dasharray:7,7;"/><polygon fill="none" points="194.48,475.306,210.1659,485.9808,213.4336,474.4343,194.48,475.306" style="stroke:#F5BDE6;stroke-width:1;"/></g><!--link OptionalMonad to OptionalKind--><g class="link" data-entity-1="OptionalMonad" data-entity-2="OptionalKind" data-source-line="42" data-uid="lnk41" id="link_OptionalMonad_OptionalKind"><path codeLine="42" d="M210.13,995.016 C274,995.016 359.72,995.016 420.58,995.016" fill="none" id="OptionalMonad-to-OptionalKind" style="stroke:#F5BDE6;stroke-width:1;stroke-dasharray:7,7;"/><polygon fill="#F5BDE6" points="426.58,995.016,417.58,991.016,421.58,995.016,417.58,999.016,426.58,995.016" style="stroke:#F5BDE6;stroke-width:1;"/><text fill="#CAD3F5" font-family="Helvetica" font-size="12" lengthAdjust="spacing" textLength="113.4008" x="280.87" y="990.8441">operates on witness</text></g><!--SRC=[ZPLDRzf048Rl-okcN6YbOkuHYfH4H49Db2f4ZTJRi1xmglkbtN5JskQ_Tx71B2Of-8HUFpCxE_Co_g2ir7L9K37xU34U1tmfLeghUb572j9P9ik5T6PifOkC8oN74jdxMafbHmQbh1Io6tcDbckZHroHeR51PSVDpy8dLLGg7KB6yneCcGM5A8Ic9GCx26fLCPGga6Jbh10UvGzS4GpcjVSkC9NmjFOKuUEzirZ2p7YTCbl63Hy_3U2FWFH8ZJ72dOhSS9asvq1e-kg3tyIZxkltk5vGNnnCKrieDFBaxd80626JClB6RUfZN6YwhRaEHwcUmhelpHxwoXt-FgRAeweU2SjTLOzjLPcKa_FKhhQKoRm5zqhEFGV5kupFBPX9EVaDjIfJYhQgoRI53zM3QwFnJYjxVEPje6rfjssIJX0DriqK9d-B8dKuq2nPConHKYpswR8vlqz-f-0Q-c3-x_FJ45ne0lR6E8VEt74E_hPjpedS-UaSzd0wvqJCodCwlpNm2QepzGaki_39YUyyV0BCF7o2xFdq1DqvzJzS0mvX-Wit8uP0kjbSi7IXC-4RZYoAo_ItLQRUubzrRHRAheeTzaNPSW0Nu3o5r8O82NfHR2b6yIh4i5karsfPMydfkDxktApEORwwREGE5iFstQ7wvZsFOgnZscvsjppA2zkdqIStd-7g4YgdomXoewHF2Vn4NHFSxDbqiGfybTuv0vo-1-0nJOfI3N3LOcJBvc0nV1N_0000]--></g></svg>