<svg xmlns="http://www.w3.org/2000/svg" xmlns:xlink="http://www.w3.org/1999/xlink" contentStyleType="text/css" height="500.4px" preserveAspectRatio="none" style="width:1248px;height:500px;background:#24273A;" version="1.1" viewBox="0 0 1248 500" width="1248px" zoomAndPan="magnify"><defs/><g><rect fill="#24273A" height="500.4" style="stroke:none;stroke-width:1.2;" width="1248" x="0" y="0"/><!--class Try--><g id="elem_Try"><rect codeLine="6" fill="#24273A" height="218.4" id="Try" rx="1.8" ry="1.8" style="stroke:#C6A0F6;stroke-width:2.4;" width="539.0273" x="618.756" y="12"/><rect fill="#363A4F" height="36" rx="1.8" ry="1.8" style="stroke:#363A4F;stroke-width:2.4;" width="539.0273" x="618.756" y="12"/><rect fill="#363A4F" height="1.8" style="stroke:#363A4F;stroke-width:2.4;" width="539.0273" x="618.756" y="46.2"/><rect codeLine="6" fill="none" height="218.4" id="Try" rx="1.8" ry="1.8" style="stroke:#C6A0F6;stroke-width:2.4;" width="539.0273" x="618.756" y="12"/><ellipse cx="862.8107" cy="30" fill="#B4A7E5" rx="12" ry="12" style="stroke:#181818;stroke-width:1.2;"/><path d="M859.2201,26.7305 L859.2201,24.9023 L865.4708,24.9023 L865.4708,26.7305 L863.3826,26.7305 L863.3826,33.5719 L865.4708,33.5719 L865.4708,35.4 L859.2201,35.4 L859.2201,33.5719 L861.3083,33.5719 L861.3083,26.7305 Z " fill="#CAD3F5"/><text fill="#A6DA95" font-family="Helvetica" font-size="19.2" font-style="italic" lengthAdjust="spacing" textLength="27.7219" x="885.6107" y="35.1844">Try</text><rect fill="#24273A" height="16.8" style="stroke:#C6A0F6;stroke-width:1.2;stroke-dasharray:2.0,2.0;" width="11.1961" x="1150.1873" y="8.4"/><text fill="#CAD3F5" font-family="Helvetica" font-size="14.4" font-style="italic" lengthAdjust="spacing" textLength="8.7961" x="1151.3873" y="20.6883">T</text><line style="stroke:#C6A0F6;stroke-width:2.4;" x1="619.956" x2="1156.5833" y1="48" y2="48"/><ellipse cx="631.956" cy="61.8" fill="#84BE84" rx="3.6" ry="3.6" style="stroke:#038048;stroke-width:1.2;"/><text fill="#A6DA95" font-family="Helvetica" font-size="14.4" font-style="italic" lengthAdjust="spacing" textLength="129.6633" x="641.556" y="63.8883">boolean isSuccess()</text><ellipse cx="631.956" cy="76.2" fill="#84BE84" rx="3.6" ry="3.6" style="stroke:#038048;stroke-width:1.2;"/><text fill="#A6DA95" font-family="Helvetica" font-size="14.4" font-style="italic" lengthAdjust="spacing" textLength="119.257" x="641.556" y="78.2883">boolean isFailure()</text><ellipse cx="631.956" cy="90.6" fill="#84BE84" rx="3.6" ry="3.6" style="stroke:#038048;stroke-width:1.2;"/><text fill="#A6DA95" font-family="Helvetica" font-size="14.4" font-style="italic" lengthAdjust="spacing" textLength="160.0523" x="641.556" y="92.6883">T get() throws Throwable</text><ellipse cx="631.956" cy="105" fill="#84BE84" rx="3.6" ry="3.6" style="stroke:#038048;stroke-width:1.2;"/><text fill="#A6DA95" font-family="Helvetica" font-size="14.4" font-style="italic" lengthAdjust="spacing" textLength="20.7914" x="641.556" y="107.0883">Try</text><text fill="#A6DA95" font-family="Helvetica" font-size="14.4" font-style="italic" lengthAdjust="spacing" text-decoration="underline" textLength="189.675" x="666.3482" y="107.0883">map(Function&lt;T, U&gt; mapper)</text><ellipse cx="631.956" cy="119.4" fill="#84BE84" rx="3.6" ry="3.6" style="stroke:#038048;stroke-width:1.2;"/><text fill="#A6DA95" font-family="Helvetica" font-size="14.4" font-style="italic" lengthAdjust="spacing" textLength="20.7914" x="641.556" y="121.4883">Try</text><text fill="#A6DA95" font-family="Helvetica" font-size="14.4" font-style="italic" lengthAdjust="spacing" text-decoration="underline" textLength="153.2461" x="666.3482" y="121.4883">flatMap(Function&lt;T, Try</text><text fill="#A6DA95" font-family="Helvetica" font-size="14.4" font-style="italic" lengthAdjust="spacing" text-decoration="underline" textLength="66.0305" x="819.5943" y="121.4883">&gt; mapper)</text><ellipse cx="631.956" cy="133.8" fill="#84BE84" rx="3.6" ry="3.6" style="stroke:#038048;stroke-width:1.2;"/><text fill="#A6DA95" font-family="Helvetica" font-size="14.4" font-style="italic" lengthAdjust="spacing" textLength="355.3242" x="641.556" y="135.8883">Try&lt;T&gt; recover(Function&lt;Throwable, T&gt; recoveryFunc)</text><ellipse cx="631.956" cy="148.2" fill="#84BE84" rx="3.6" ry="3.6" style="stroke:#038048;stroke-width:1.2;"/><text fill="#A6DA95" font-family="Helvetica" font-size="14.4" font-style="italic" lengthAdjust="spacing" textLength="421.7344" x="641.556" y="150.2883">Try&lt;T&gt; recoverWith(Function&lt;Throwable, Try&lt;T&gt;&gt; recoveryFunc)</text><ellipse cx="631.956" cy="162.6" fill="#84BE84" rx="3.6" ry="3.6" style="stroke:#038048;stroke-width:1.2;"/><text fill="#A6DA95" font-family="Helvetica" font-size="14.4" font-style="italic" lengthAdjust="spacing" textLength="509.0273" x="641.556" y="164.6883">U fold(Function&lt;T, U&gt; successMapper, Function&lt;Throwable, U&gt; failureMapper)</text><ellipse cx="631.956" cy="177" fill="#84BE84" rx="3.6" ry="3.6" style="stroke:#038048;stroke-width:1.2;"/><text fill="#A6DA95" font-family="Helvetica" font-size="14.4" font-style="italic" lengthAdjust="spacing" textLength="509.0203" x="641.556" y="179.0883">void match(Consumer&lt;T&gt; successAction, Consumer&lt;Throwable&gt; failureAction)</text><ellipse cx="631.956" cy="191.4" fill="#84BE84" rx="3.6" ry="3.6" style="stroke:#038048;stroke-width:1.2;"/><text fill="#A6DA95" font-family="Helvetica" font-size="14.4" lengthAdjust="spacing" text-decoration="underline" textLength="204.8836" x="641.556" y="193.4883">Try&lt;T&gt; of(Supplier&lt;T&gt; supplier)</text><ellipse cx="631.956" cy="205.8" fill="#84BE84" rx="3.6" ry="3.6" style="stroke:#038048;stroke-width:1.2;"/><text fill="#A6DA95" font-family="Helvetica" font-size="14.4" lengthAdjust="spacing" text-decoration="underline" textLength="159.2367" x="641.556" y="207.8883">Try&lt;T&gt; success(T value)</text><ellipse cx="631.956" cy="220.2" fill="#84BE84" rx="3.6" ry="3.6" style="stroke:#038048;stroke-width:1.2;"/><text fill="#A6DA95" font-family="Helvetica" font-size="14.4" lengthAdjust="spacing" text-decoration="underline" textLength="232.8891" x="641.556" y="222.2883">Try&lt;T&gt; failure(Throwable throwable)</text></g><!--class Success<T>(T value)--><g id="elem_Success&lt;T&gt;(T value)"><rect codeLine="21" fill="#24273A" height="189.6" id="Success&lt;T&gt;(T value)" rx="1.8" ry="1.8" style="stroke:#C6A0F6;stroke-width:2.4;" width="451.7344" x="8.4" y="302.4"/><rect fill="#363A4F" height="45.6" rx="1.8" ry="1.8" style="stroke:#363A4F;stroke-width:2.4;" width="451.7344" x="8.4" y="302.4"/><rect fill="#363A4F" height="1.8" style="stroke:#363A4F;stroke-width:2.4;" width="451.7344" x="8.4" y="346.2"/><rect codeLine="21" fill="none" height="189.6" id="Success&lt;T&gt;(T value)" rx="1.8" ry="1.8" style="stroke:#C6A0F6;stroke-width:2.4;" width="451.7344" x="8.4" y="302.4"/><ellipse cx="138.2344" cy="325.2" fill="#ADD1B2" rx="12" ry="12" style="stroke:#181818;stroke-width:1.2;"/><path d="M140.4352,330.2977 Q139.943,330.5508 139.4016,330.6773 Q138.8602,330.8039 138.2625,330.8039 Q136.1391,330.8039 135.0211,329.4047 Q133.9031,328.0055 133.9031,325.3617 Q133.9031,322.7109 135.0211,321.3117 Q136.1391,319.9125 138.2625,319.9125 Q138.8602,319.9125 139.4086,320.0391 Q139.957,320.1656 140.4352,320.4188 L140.4352,322.725 Q139.9008,322.2328 139.398,322.0043 Q138.8953,321.7758 138.3609,321.7758 Q137.2219,321.7758 136.6418,322.6793 Q136.0617,323.5828 136.0617,325.3617 Q136.0617,327.1336 136.6418,328.0371 Q137.2219,328.9406 138.3609,328.9406 Q138.8953,328.9406 139.398,328.7121 Q139.9008,328.4836 140.4352,327.9914 Z " fill="#CAD3F5"/><text fill="#CAD3F5" font-family="Helvetica" font-size="14.4" font-style="italic" lengthAdjust="spacing" textLength="56.8336" x="223.8504" y="319.4883">&#171;record&#187;</text><text fill="#A6DA95" font-family="Helvetica" font-size="19.2" lengthAdjust="spacing" textLength="182.4656" x="161.0344" y="337.5844">Success&lt;T&gt;(T value)</text><line style="stroke:#C6A0F6;stroke-width:2.4;" x1="9.6" x2="458.9344" y1="348" y2="348"/><ellipse cx="21.6" cy="361.8" fill="#84BE84" rx="3.6" ry="3.6" style="stroke:#038048;stroke-width:1.2;"/><text fill="#A6DA95" font-family="Helvetica" font-size="14.4" lengthAdjust="spacing" textLength="111.2344" x="31.2" y="363.8883">Success(T value)</text><ellipse cx="21.6" cy="395.4" fill="#84BE84" rx="3.6" ry="3.6" style="stroke:#038048;stroke-width:1.2;"/><text fill="#A6DA95" font-family="Helvetica" font-size="14.4" lengthAdjust="spacing" textLength="129.6633" x="31.2" y="397.4883">boolean isSuccess()</text><ellipse cx="21.6" cy="409.8" fill="#84BE84" rx="3.6" ry="3.6" style="stroke:#038048;stroke-width:1.2;"/><text fill="#A6DA95" font-family="Helvetica" font-size="14.4" lengthAdjust="spacing" textLength="119.257" x="31.2" y="411.8883">boolean isFailure()</text><ellipse cx="21.6" cy="424.2" fill="#84BE84" rx="3.6" ry="3.6" style="stroke:#038048;stroke-width:1.2;"/><text fill="#A6DA95" font-family="Helvetica" font-size="14.4" lengthAdjust="spacing" textLength="42.4055" x="31.2" y="426.2883">T get()</text><ellipse cx="21.6" cy="438.6" fill="#84BE84" rx="3.6" ry="3.6" style="stroke:#038048;stroke-width:1.2;"/><text fill="#A6DA95" font-family="Helvetica" font-size="14.4" lengthAdjust="spacing" textLength="20.7914" x="31.2" y="440.6883">Try</text><text fill="#A6DA95" font-family="Helvetica" font-size="14.4" lengthAdjust="spacing" text-decoration="underline" textLength="189.675" x="55.9922" y="440.6883">map(Function&lt;T, U&gt; mapper)</text><ellipse cx="21.6" cy="453" fill="#84BE84" rx="3.6" ry="3.6" style="stroke:#038048;stroke-width:1.2;"/><text fill="#A6DA95" font-family="Helvetica" font-size="14.4" lengthAdjust="spacing" textLength="20.7914" x="31.2" y="455.0883">Try</text><text fill="#A6DA95" font-family="Helvetica" font-size="14.4" lengthAdjust="spacing" text-decoration="underline" textLength="153.2461" x="55.9922" y="455.0883">flatMap(Function&lt;T, Try</text><text fill="#A6DA95" font-family="Helvetica" font-size="14.4" lengthAdjust="spacing" text-decoration="underline" textLength="66.0305" x="209.2383" y="455.0883">&gt; mapper)</text><ellipse cx="21.6" cy="467.4" fill="#84BE84" rx="3.6" ry="3.6" style="stroke:#038048;stroke-width:1.2;"/><text fill="#A6DA95" font-family="Helvetica" font-size="14.4" lengthAdjust="spacing" textLength="355.3242" x="31.2" y="469.4883">Try&lt;T&gt; recover(Function&lt;Throwable, T&gt; recoveryFunc)</text><ellipse cx="21.6" cy="481.8" fill="#84BE84" rx="3.6" ry="3.6" style="stroke:#038048;stroke-width:1.2;"/><text fill="#A6DA95" font-family="Helvetica" font-size="14.4" lengthAdjust="spacing" textLength="421.7344" x="31.2" y="483.8883">Try&lt;T&gt; recoverWith(Function&lt;Throwable, Try&lt;T&gt;&gt; recoveryFunc)</text><line style="stroke:#C6A0F6;stroke-width:2.4;" x1="9.6" x2="206.652" y1="379.2" y2="379.2"/><text fill="#A6DA95" font-family="Helvetica" font-size="14.4" lengthAdjust="spacing" textLength="55.2305" x="206.652" y="382.4883">Methods</text><line style="stroke:#C6A0F6;stroke-width:2.4;" x1="261.8824" x2="458.9344" y1="379.2" y2="379.2"/></g><!--class Failure<T>(Throwable cause)--><g id="elem_Failure&lt;T&gt;(Throwable cause)"><rect codeLine="35" fill="#24273A" height="189.6" id="Failure&lt;T&gt;(Throwable cause)" rx="1.8" ry="1.8" style="stroke:#C6A0F6;stroke-width:2.4;" width="451.7344" x="501.6" y="302.4"/><rect fill="#363A4F" height="45.6" rx="1.8" ry="1.8" style="stroke:#363A4F;stroke-width:2.4;" width="451.7344" x="501.6" y="302.4"/><rect fill="#363A4F" height="1.8" style="stroke:#363A4F;stroke-width:2.4;" width="451.7344" x="501.6" y="346.2"/><rect codeLine="35" fill="none" height="189.6" id="Failure&lt;T&gt;(Throwable cause)" rx="1.8" ry="1.8" style="stroke:#C6A0F6;stroke-width:2.4;" width="451.7344" x="501.6" y="302.4"/><ellipse cx="596.7469" cy="325.2" fill="#ADD1B2" rx="12" ry="12" style="stroke:#181818;stroke-width:1.2;"/><path d="M598.9477,330.2977 Q598.4555,330.5508 597.9141,330.6773 Q597.3727,330.8039 596.775,330.8039 Q594.6516,330.8039 593.5336,329.4047 Q592.4156,328.0055 592.4156,325.3617 Q592.4156,322.7109 593.5336,321.3117 Q594.6516,319.9125 596.775,319.9125 Q597.3727,319.9125 597.9211,320.0391 Q598.4695,320.1656 598.9477,320.4188 L598.9477,322.725 Q598.4133,322.2328 597.9105,322.0043 Q597.4078,321.7758 596.8734,321.7758 Q595.7344,321.7758 595.1543,322.6793 Q594.5742,323.5828 594.5742,325.3617 Q594.5742,327.1336 595.1543,328.0371 Q595.7344,328.9406 596.8734,328.9406 Q597.4078,328.9406 597.9105,328.7121 Q598.4133,328.4836 598.9477,327.9914 Z " fill="#CAD3F5"/><text fill="#CAD3F5" font-family="Helvetica" font-size="14.4" font-style="italic" lengthAdjust="spacing" textLength="56.8336" x="717.0504" y="319.4883">&#171;record&#187;</text><text fill="#A6DA95" font-family="Helvetica" font-size="19.2" lengthAdjust="spacing" textLength="251.8406" x="619.5469" y="337.5844">Failure&lt;T&gt;(Throwable cause)</text><line style="stroke:#C6A0F6;stroke-width:2.4;" x1="502.8" x2="952.1344" y1="348" y2="348"/><ellipse cx="514.8" cy="361.8" fill="#84BE84" rx="3.6" ry="3.6" style="stroke:#038048;stroke-width:1.2;"/><text fill="#A6DA95" font-family="Helvetica" font-size="14.4" lengthAdjust="spacing" textLength="163.2656" x="524.4" y="363.8883">Failure(Throwable cause)</text><ellipse cx="514.8" cy="395.4" fill="#84BE84" rx="3.6" ry="3.6" style="stroke:#038048;stroke-width:1.2;"/><text fill="#A6DA95" font-family="Helvetica" font-size="14.4" lengthAdjust="spacing" textLength="129.6633" x="524.4" y="397.4883">boolean isSuccess()</text><ellipse cx="514.8" cy="409.8" fill="#84BE84" rx="3.6" ry="3.6" style="stroke:#038048;stroke-width:1.2;"/><text fill="#A6DA95" font-family="Helvetica" font-size="14.4" lengthAdjust="spacing" textLength="119.257" x="524.4" y="411.8883">boolean isFailure()</text><ellipse cx="514.8" cy="424.2" fill="#84BE84" rx="3.6" ry="3.6" style="stroke:#038048;stroke-width:1.2;"/><text fill="#A6DA95" font-family="Helvetica" font-size="14.4" lengthAdjust="spacing" textLength="160.0523" x="524.4" y="426.2883">T get() throws Throwable</text><ellipse cx="514.8" cy="438.6" fill="#84BE84" rx="3.6" ry="3.6" style="stroke:#038048;stroke-width:1.2;"/><text fill="#A6DA95" font-family="Helvetica" font-size="14.4" lengthAdjust="spacing" textLength="20.7914" x="524.4" y="440.6883">Try</text><text fill="#A6DA95" font-family="Helvetica" font-size="14.4" lengthAdjust="spacing" text-decoration="underline" textLength="189.675" x="549.1922" y="440.6883">map(Function&lt;T, U&gt; mapper)</text><ellipse cx="514.8" cy="453" fill="#84BE84" rx="3.6" ry="3.6" style="stroke:#038048;stroke-width:1.2;"/><text fill="#A6DA95" font-family="Helvetica" font-size="14.4" lengthAdjust="spacing" textLength="20.7914" x="524.4" y="455.0883">Try</text><text fill="#A6DA95" font-family="Helvetica" font-size="14.4" lengthAdjust="spacing" text-decoration="underline" textLength="153.2461" x="549.1922" y="455.0883">flatMap(Function&lt;T, Try</text><text fill="#A6DA95" font-family="Helvetica" font-size="14.4" lengthAdjust="spacing" text-decoration="underline" textLength="66.0305" x="702.4383" y="455.0883">&gt; mapper)</text><ellipse cx="514.8" cy="467.4" fill="#84BE84" rx="3.6" ry="3.6" style="stroke:#038048;stroke-width:1.2;"/><text fill="#A6DA95" font-family="Helvetica" font-size="14.4" lengthAdjust="spacing" textLength="355.3242" x="524.4" y="469.4883">Try&lt;T&gt; recover(Function&lt;Throwable, T&gt; recoveryFunc)</text><ellipse cx="514.8" cy="481.8" fill="#84BE84" rx="3.6" ry="3.6" style="stroke:#038048;stroke-width:1.2;"/><text fill="#A6DA95" font-family="Helvetica" font-size="14.4" lengthAdjust="spacing" textLength="421.7344" x="524.4" y="483.8883">Try&lt;T&gt; recoverWith(Function&lt;Throwable, Try&lt;T&gt;&gt; recoveryFunc)</text><line style="stroke:#C6A0F6;stroke-width:2.4;" x1="502.8" x2="699.852" y1="379.2" y2="379.2"/><text fill="#A6DA95" font-family="Helvetica" font-size="14.4" lengthAdjust="spacing" textLength="55.2305" x="699.852" y="382.4883">Methods</text><line style="stroke:#C6A0F6;stroke-width:2.4;" x1="755.0824" x2="952.1344" y1="379.2" y2="379.2"/></g><!--class Success--><g id="elem_Success"><rect fill="#24273A" height="36" id="Success" rx="1.8" ry="1.8" style="stroke:#C6A0F6;stroke-width:2.4;" width="108.5625" x="994.788" y="379.2"/><rect fill="#363A4F" height="36" rx="1.8" ry="1.8" style="stroke:#363A4F;stroke-width:2.4;" width="108.5625" x="994.788" y="379.2"/><rect fill="#363A4F" height="1.8" style="stroke:#363A4F;stroke-width:2.4;" width="108.5625" x="994.788" y="413.4"/><rect fill="none" height="36" id="Success" rx="1.8" ry="1.8" style="stroke:#C6A0F6;stroke-width:2.4;" width="108.5625" x="994.788" y="379.2"/><ellipse cx="1011.588" cy="397.2" fill="#ADD1B2" rx="12" ry="12" style="stroke:#181818;stroke-width:1.2;"/><path d="M1013.7888,402.2977 Q1013.2966,402.5508 1012.7552,402.6773 Q1012.2138,402.8039 1011.6161,402.8039 Q1009.4927,402.8039 1008.3747,401.4047 Q1007.2568,400.0055 1007.2568,397.3617 Q1007.2568,394.7109 1008.3747,393.3117 Q1009.4927,391.9125 1011.6161,391.9125 Q1012.2138,391.9125 1012.7622,392.0391 Q1013.3107,392.1656 1013.7888,392.4188 L1013.7888,394.725 Q1013.2544,394.2328 1012.7517,394.0043 Q1012.2489,393.7758 1011.7146,393.7758 Q1010.5755,393.7758 1009.9954,394.6793 Q1009.4153,395.5828 1009.4153,397.3617 Q1009.4153,399.1336 1009.9954,400.0371 Q1010.5755,400.9406 1011.7146,400.9406 Q1012.2489,400.9406 1012.7517,400.7121 Q1013.2544,400.4836 1013.7888,399.9914 Z " fill="#CAD3F5"/><text fill="#A6DA95" font-family="Helvetica" font-size="19.2" lengthAdjust="spacing" textLength="72.5625" x="1027.188" y="402.3844">Success</text></g><!--class Failure--><g id="elem_Failure"><rect fill="#24273A" height="36" id="Failure" rx="1.8" ry="1.8" style="stroke:#C6A0F6;stroke-width:2.4;" width="94.6875" x="1145.724" y="379.2"/><rect fill="#363A4F" height="36" rx="1.8" ry="1.8" style="stroke:#363A4F;stroke-width:2.4;" width="94.6875" x="1145.724" y="379.2"/><rect fill="#363A4F" height="1.8" style="stroke:#363A4F;stroke-width:2.4;" width="94.6875" x="1145.724" y="413.4"/><rect fill="none" height="36" id="Failure" rx="1.8" ry="1.8" style="stroke:#C6A0F6;stroke-width:2.4;" width="94.6875" x="1145.724" y="379.2"/><ellipse cx="1162.524" cy="397.2" fill="#ADD1B2" rx="12" ry="12" style="stroke:#181818;stroke-width:1.2;"/><path d="M1164.7248,402.2977 Q1164.2326,402.5508 1163.6912,402.6773 Q1163.1498,402.8039 1162.5521,402.8039 Q1160.4287,402.8039 1159.3107,401.4047 Q1158.1928,400.0055 1158.1928,397.3617 Q1158.1928,394.7109 1159.3107,393.3117 Q1160.4287,391.9125 1162.5521,391.9125 Q1163.1498,391.9125 1163.6982,392.0391 Q1164.2467,392.1656 1164.7248,392.4188 L1164.7248,394.725 Q1164.1904,394.2328 1163.6877,394.0043 Q1163.1849,393.7758 1162.6506,393.7758 Q1161.5115,393.7758 1160.9314,394.6793 Q1160.3513,395.5828 1160.3513,397.3617 Q1160.3513,399.1336 1160.9314,400.0371 Q1161.5115,400.9406 1162.6506,400.9406 Q1163.1849,400.9406 1163.6877,400.7121 Q1164.1904,400.4836 1164.7248,399.9914 Z " fill="#CAD3F5"/><text fill="#A6DA95" font-family="Helvetica" font-size="19.2" lengthAdjust="spacing" textLength="58.6875" x="1178.124" y="402.3844">Failure</text></g><!--reverse link Try to Success<T>(T value)--><g id="link_Try_Success&lt;T&gt;(T value)"><path d="M608.921,239.2632 C552.749,262.7592 513.732,279.084 459.024,301.968 " fill="none" id="Try-backto-Success&lt;T&gt;(T value)" style="stroke:#F5BDE6;stroke-width:1.2;stroke-dasharray:7.0,7.0;"/><polygon fill="none" points="628.848,230.928,606.1426,232.6209,611.6994,245.9055,628.848,230.928" style="stroke:#F5BDE6;stroke-width:1.2;"/></g><!--reverse link Try to Failure<T>(Throwable cause)--><g id="link_Try_Failure&lt;T&gt;(Throwable cause)"><path d="M813.5344,249.547 C799.6744,273.115 796.092,279.24 782.604,302.196 " fill="none" id="Try-backto-Failure&lt;T&gt;(Throwable cause)" style="stroke:#F5BDE6;stroke-width:1.2;stroke-dasharray:7.0,7.0;"/><polygon fill="none" points="824.484,230.928,807.3281,245.8971,819.7408,253.1969,824.484,230.928" style="stroke:#F5BDE6;stroke-width:1.2;"/></g><!--reverse link Try to Success--><g id="link_Try_Success"><path codeLine="48" d="M962.9978,249.5515 C995.7818,305.3515 1021.5,349.092 1038.864,378.648 " fill="none" id="Try-backto-Success" style="stroke:#F5BDE6;stroke-width:1.2;"/><polygon fill="none" points="952.056,230.928,956.79,253.1988,969.2057,245.9043,952.056,230.928" style="stroke:#F5BDE6;stroke-width:1.2;"/></g><!--reverse link Try to Failure--><g id="link_Try_Failure"><path codeLine="49" d="M1060.9754,244.2195 C1089.0314,266.5395 1100.196,277.44 1124.664,302.4 C1148.196,326.4 1170.132,358.92 1182.552,378.624 " fill="none" id="Try-backto-Failure" style="stroke:#F5BDE6;stroke-width:1.2;"/><polygon fill="none" points="1044.072,230.772,1056.4929,249.854,1065.4579,238.5851,1044.072,230.772" style="stroke:#F5BDE6;stroke-width:1.2;"/></g><!--SRC=[tLIxRkf04Etz5NEfZ2x6VMGXNKMYey9HocYz7kALzgNTMIAKvD-pVc0GE3UaI9FAuvapPrx7_YCqbw56Q8YilyjpnrwMpuAQK0MFZXjDg6d9ZSerDvvO9dZE6LaRE1SwKuppHZ0ocPLCKr0oemOLvee9dNVcqaPlqeXO19Mb0oXK5JgV98c8x6x7ECAiT8UYNCs0UOWcl2O0V-6LLPuSu_GEbJ4IcGRXjx4oUf_EFuUicP31uJMaX6UaT0xKEFCIAxKFLacymiLk7bQWc4tNGNCIHXVb0dgNHJV_964d6MqkalhGVpFB5JZaPe_kBFFOMsGOmuSs_0N5OxpUD4q7-uBh0NP6rfTJ-txdcsw41KonjzFtQzzC3xeteevB8DwazqRxeD2rNG_K_ph21Pn2H-gHjuSCl56A9FWukzcbss2j54VItfu63oNJ4lPC1fm63KNJiOzUDAqrJzwJcCCbynvcWnvZpaWuWw9ej-pgk6wXh8oVWQQJijjws-ic09wUO8FKcDf7i_D4vBJqBqBdakz2WzJ7rniKVGwyJSbZnlSLF97wRUN6CvmTObX1TuZnQ9p5_zXD1rbV7RpF_Q73JFs3VlUbscKNRrbsbFx9CUme-G00]--></g></svg>