<svg xmlns="http://www.w3.org/2000/svg" xmlns:xlink="http://www.w3.org/1999/xlink" contentStyleType="text/css" data-diagram-type="CLASS" height="564px" preserveAspectRatio="none" style="width:996px;height:564px;background:#24273A;" version="1.1" viewBox="0 0 996 564" width="996px" zoomAndPan="magnify"><defs/><g><rect fill="#24273A" height="564" style="stroke:none;stroke-width:1;" width="996" x="0" y="0"/><g class="entity" data-entity="ArityNote" data-source-line="5" data-uid="ent0002" id="entity_ArityNote"><path d="M6,367.576 L6,407.2643 A1.5,1.5 0 0 0 7.5,408.7643 L136.86,408.7643 L189.09,525.866 L144.86,408.7643 L257.2216,408.7643 A1.5,1.5 0 0 0 258.7216,407.2643 L258.7216,376.076 L248.7216,366.076 L7.5,366.076 A1.5,1.5 0 0 0 6,367.576" fill="#EED49F" style="stroke:#24273A;stroke-width:0.5;"/><path d="M248.7216,366.076 L248.7216,375.326 A0.75,0.75 0 0 0 249.4716,376.076 L258.7216,376.076 L248.7216,366.076" fill="#EED49F" style="stroke:#24273A;stroke-width:0.5;"/><text fill="#24273A" font-family="Helvetica" font-size="12" lengthAdjust="spacing" textLength="231.7216" x="12" y="383.9041">F extends WitnessArity&lt;TypeArity.Unary&gt;</text><text fill="#24273A" font-family="Helvetica" font-size="12" lengthAdjust="spacing" textLength="102.8288" x="12" y="400.2482">for all type classes</text></g><!--class Kind--><g class="entity" data-entity="Kind" data-source-line="7" data-uid="ent0003" id="entity_Kind"><rect fill="#24273A" height="31.792" rx="1.5" ry="1.5" style="stroke:#C6A0F6;stroke-width:2;" width="84.3082" x="153.21" y="526.176"/><rect fill="#363A4F" height="31.792" rx="1.5" ry="1.5" style="stroke:#363A4F;stroke-width:2;" width="84.3082" x="153.21" y="526.176"/><rect fill="#363A4F" height="1.5" style="stroke:#363A4F;stroke-width:2;" width="84.3082" x="153.21" y="556.4681"/><rect fill="none" height="31.792" rx="1.5" ry="1.5" style="stroke:#C6A0F6;stroke-width:2;" width="84.3082" x="153.21" y="526.176"/><ellipse cx="167.21" cy="542.072" fill="#B4A7E5" rx="10" ry="10" style="stroke:#181818;stroke-width:1;"/><path d="M164.7881,546.572 L164.7881,545.3689 L166.46,545.1814 L166.46,539.4002 L164.7881,539.197 L164.7881,538.0095 L169.835,538.0095 L169.835,539.197 L168.1319,539.4002 L168.1319,545.1814 L169.835,545.3689 L169.835,546.572 L164.7881,546.572 Z " fill="#CAD3F5"/><text fill="#A6DA95" font-family="Helvetica" font-size="16" font-style="italic" lengthAdjust="spacing" textLength="31.6481" x="180.21" y="548.2801">Kind</text><rect fill="#24273A" height="18.3441" style="stroke:#C6A0F6;stroke-width:1;stroke-dasharray:2,2;" width="20.6601" x="219.8581" y="523.176"/><text fill="#CAD3F5" font-family="Helvetica" font-size="12" font-style="italic" lengthAdjust="spacing" textLength="18.6601" x="220.8581" y="537.0041">F, A</text></g><!--class ErrorMonad--><g class="entity" data-entity="ErrorMonad" data-source-line="11" data-uid="ent0005" id="entity_ErrorMonad"><rect fill="#24273A" height="31.792" rx="1.5" ry="1.5" style="stroke:#C6A0F6;stroke-width:2;" width="270.4532" x="419.13" y="10.016"/><rect fill="#363A4F" height="31.792" rx="1.5" ry="1.5" style="stroke:#363A4F;stroke-width:2;" width="270.4532" x="419.13" y="10.016"/><rect fill="#363A4F" height="1.5" style="stroke:#363A4F;stroke-width:2;" width="270.4532" x="419.13" y="40.3081"/><rect fill="none" height="31.792" rx="1.5" ry="1.5" style="stroke:#C6A0F6;stroke-width:2;" width="270.4532" x="419.13" y="10.016"/><ellipse cx="433.13" cy="25.912" fill="#B4A7E5" rx="10" ry="10" style="stroke:#181818;stroke-width:1;"/><path d="M430.7081,30.412 L430.7081,29.2089 L432.38,29.0214 L432.38,23.2402 L430.7081,23.037 L430.7081,21.8495 L435.755,21.8495 L435.755,23.037 L434.0519,23.2402 L434.0519,29.0214 L435.755,29.2089 L435.755,30.412 L430.7081,30.412 Z " fill="#CAD3F5"/><text fill="#A6DA95" font-family="Helvetica" font-size="16" font-style="italic" lengthAdjust="spacing" textLength="86.4162" x="446.13" y="32.1201">ErrorMonad</text><rect fill="#24273A" height="18.3441" style="stroke:#C6A0F6;stroke-width:1;stroke-dasharray:2,2;" width="152.037" x="540.5462" y="7.016"/><text fill="#CAD3F5" font-family="Helvetica" font-size="12" font-style="italic" lengthAdjust="spacing" textLength="150.037" x="541.5462" y="20.8441">ValidatedKind.Witness&lt;E&gt;, E</text></g><!--class Validated<E, A>--><g class="entity" data-entity="Validated.E. A." data-source-line="14" data-uid="ent0006" id="entity_Validated.E. A."><rect fill="#24273A" height="31.792" rx="1.5" ry="1.5" style="stroke:#C6A0F6;stroke-width:2;" width="140.8642" x="657.93" y="526.176"/><rect fill="#363A4F" height="31.792" rx="1.5" ry="1.5" style="stroke:#363A4F;stroke-width:2;" width="140.8642" x="657.93" y="526.176"/><rect fill="#363A4F" height="1.5" style="stroke:#363A4F;stroke-width:2;" width="140.8642" x="657.93" y="556.4681"/><rect fill="none" height="31.792" rx="1.5" ry="1.5" style="stroke:#C6A0F6;stroke-width:2;" width="140.8642" x="657.93" y="526.176"/><ellipse cx="671.93" cy="542.072" fill="#B4A7E5" rx="10" ry="10" style="stroke:#181818;stroke-width:1;"/><path d="M669.5081,546.572 L669.5081,545.3689 L671.18,545.1814 L671.18,539.4002 L669.5081,539.197 L669.5081,538.0095 L674.555,538.0095 L674.555,539.197 L672.8519,539.4002 L672.8519,545.1814 L674.555,545.3689 L674.555,546.572 L669.5081,546.572 Z " fill="#CAD3F5"/><text fill="#A6DA95" font-family="Helvetica" font-size="16" font-style="italic" lengthAdjust="spacing" textLength="110.8642" x="684.93" y="548.2801">Validated&lt;E, A&gt;</text></g><!--class ValidatedKindHelper--><g class="entity" data-entity="ValidatedKindHelper" data-source-line="17" data-uid="ent0007" id="entity_ValidatedKindHelper"><rect fill="#24273A" height="121.5126" rx="1.5" ry="1.5" style="stroke:#C6A0F6;stroke-width:2;" width="447.763" x="504.48" y="326.666"/><rect fill="#363A4F" height="48.1362" rx="1.5" ry="1.5" style="stroke:#363A4F;stroke-width:2;" width="447.763" x="504.48" y="326.666"/><rect fill="#363A4F" height="1.5" style="stroke:#363A4F;stroke-width:2;" width="447.763" x="504.48" y="373.3022"/><rect fill="none" height="121.5126" rx="1.5" ry="1.5" style="stroke:#C6A0F6;stroke-width:2;" width="447.763" x="504.48" y="326.666"/><ellipse cx="647.0973" cy="350.7341" fill="#CD853F" rx="10" ry="10" style="stroke:#181818;stroke-width:1;"/><path d="M646.6755,355.6091 Q645.1911,355.6091 644.4098,354.8122 Q643.6442,354.0154 643.6442,352.5622 L643.6442,346.9216 L645.3786,346.9216 L645.3786,352.2654 Q645.3786,353.281 645.6911,353.7029 Q646.0192,354.1091 646.6911,354.1091 Q647.4098,354.1091 647.7067,353.6716 Q648.0192,353.2341 648.0192,352.2497 L648.0192,346.9216 L649.7536,346.9216 L649.7536,352.5622 Q649.7536,353.9529 648.988,354.781 Q648.2223,355.6091 646.6755,355.6091 Z " fill="#CAD3F5"/><text fill="#CAD3F5" font-family="Helvetica" font-size="12" font-style="italic" lengthAdjust="spacing" textLength="42.4323" x="722.1454" y="344.4941">&#171;Utility&#187;</text><text fill="#A6DA95" font-family="Helvetica" font-size="16" lengthAdjust="spacing" textLength="154.5283" x="666.0973" y="365.1142">ValidatedKindHelper</text><line style="stroke:#C6A0F6;stroke-width:2;" x1="505.48" x2="951.243" y1="374.8022" y2="374.8022"/><ellipse cx="515.48" cy="388.4742" fill="#84BE84" rx="3" ry="3" style="stroke:#038048;stroke-width:1;"/><text fill="#A6DA95" font-family="Helvetica" font-size="12" lengthAdjust="spacing" text-decoration="underline" textLength="422.763" x="523.48" y="391.6303">&lt;E, A&gt; Kind&lt;ValidatedKind.Witness&lt;E&gt;, A&gt; widen(Validated&lt;E, A&gt; validated)</text><ellipse cx="515.48" cy="404.8184" fill="#84BE84" rx="3" ry="3" style="stroke:#038048;stroke-width:1;"/><text fill="#A6DA95" font-family="Helvetica" font-size="12" lengthAdjust="spacing" text-decoration="underline" textLength="402.1108" x="523.48" y="407.9744">&lt;E, A&gt; Validated&lt;E, A&gt; narrow(Kind&lt;ValidatedKind.Witness&lt;E&gt;, A&gt; kind)</text><ellipse cx="515.48" cy="421.1625" fill="#84BE84" rx="3" ry="3" style="stroke:#038048;stroke-width:1;"/><text fill="#A6DA95" font-family="Helvetica" font-size="12" lengthAdjust="spacing" text-decoration="underline" textLength="314.1142" x="523.48" y="424.3185">&lt;E, A&gt; Kind&lt;ValidatedKind.Witness&lt;E&gt;, A&gt; valid(A value)</text><ellipse cx="515.48" cy="437.5066" fill="#84BE84" rx="3" ry="3" style="stroke:#038048;stroke-width:1;"/><text fill="#A6DA95" font-family="Helvetica" font-size="12" lengthAdjust="spacing" text-decoration="underline" textLength="322.4183" x="523.48" y="440.6626">&lt;E, A&gt; Kind&lt;ValidatedKind.Witness&lt;E&gt;, A&gt; invalid(E error)</text></g><!--class ValidatedMonad<E>--><g class="entity" data-entity="ValidatedMonad.E." data-source-line="24" data-uid="ent0008" id="entity_ValidatedMonad.E."><rect fill="#24273A" height="145.8567" rx="1.5" ry="1.5" style="stroke:#C6A0F6;stroke-width:2;" width="870.6459" x="119.04" y="102.806"/><rect fill="#363A4F" height="31.792" rx="1.5" ry="1.5" style="stroke:#363A4F;stroke-width:2;" width="870.6459" x="119.04" y="102.806"/><rect fill="#363A4F" height="1.5" style="stroke:#363A4F;stroke-width:2;" width="870.6459" x="119.04" y="133.0981"/><rect fill="none" height="145.8567" rx="1.5" ry="1.5" style="stroke:#C6A0F6;stroke-width:2;" width="870.6459" x="119.04" y="102.806"/><ellipse cx="475.1708" cy="118.702" fill="#ADD1B2" rx="10" ry="10" style="stroke:#181818;stroke-width:1;"/><path d="M474.8895,123.327 Q473.6395,123.327 472.8427,122.8114 Q472.0458,122.2802 471.6552,121.327 Q471.2645,120.3739 471.2645,119.0927 Q471.2645,117.6708 471.7333,116.6552 Q472.202,115.6239 473.1083,115.077 Q474.0145,114.5145 475.327,114.5145 Q475.952,114.5145 476.4208,114.6395 Q476.9052,114.7645 477.3895,114.9989 L476.8114,116.4364 Q476.3739,116.202 475.9833,116.1239 Q475.6083,116.0458 475.2645,116.0458 Q474.4364,116.0458 473.9364,116.4208 Q473.452,116.7802 473.2333,117.452 Q473.0302,118.1239 473.0302,119.0302 Q473.0302,120.4364 473.5302,121.1239 Q474.0458,121.7958 475.1708,121.7958 Q475.5927,121.7958 476.0302,121.6864 Q476.4677,121.577 477.0614,121.3114 L477.0614,122.8739 Q476.5458,123.1083 475.9833,123.2177 Q475.4208,123.327 474.8895,123.327 Z " fill="#CAD3F5"/><text fill="#A6DA95" font-family="Helvetica" font-size="16" lengthAdjust="spacing" textLength="150.3843" x="494.1708" y="124.9101">ValidatedMonad&lt;E&gt;</text><line style="stroke:#C6A0F6;stroke-width:2;" x1="120.04" x2="988.6859" y1="134.5981" y2="134.5981"/><rect fill="none" height="6" style="stroke:#C82930;stroke-width:1;" width="6" x="127.04" y="145.2701"/><text fill="#A6DA95" font-family="Helvetica" font-size="12" lengthAdjust="spacing" text-decoration="underline" textLength="171.9372" x="138.04" y="151.4262">ValidatedMonad&lt;?&gt; INSTANCE</text><ellipse cx="130.04" cy="164.6142" fill="#84BE84" rx="3" ry="3" style="stroke:#038048;stroke-width:1;"/><text fill="#A6DA95" font-family="Helvetica" font-size="12" lengthAdjust="spacing" text-decoration="underline" textLength="193.8973" x="138.04" y="167.7703">&lt;E&gt; ValidatedMonad&lt;E&gt; instance()</text><line style="stroke:#C6A0F6;stroke-width:1;" x1="120.04" x2="988.6859" y1="175.2863" y2="175.2863"/><ellipse cx="130.04" cy="188.9584" fill="#84BE84" rx="3" ry="3" style="stroke:#038048;stroke-width:1;"/><text fill="#A6DA95" font-family="Helvetica" font-size="12" lengthAdjust="spacing" textLength="636.3884" x="138.04" y="192.1144">&lt;A, B&gt; Kind&lt;ValidatedKind.Witness&lt;E&gt;, B&gt; map(Function&lt;A, B&gt; fn, Kind&lt;ValidatedKind.Witness&lt;E&gt;, A&gt; valueKind)</text><ellipse cx="130.04" cy="205.3025" fill="#84BE84" rx="3" ry="3" style="stroke:#038048;stroke-width:1;"/><text fill="#A6DA95" font-family="Helvetica" font-size="12" lengthAdjust="spacing" textLength="286.094" x="138.04" y="208.4585">&lt;A&gt; Kind&lt;ValidatedKind.Witness&lt;E&gt;, A&gt; of(A value)</text><ellipse cx="130.04" cy="221.6466" fill="#84BE84" rx="3" ry="3" style="stroke:#038048;stroke-width:1;"/><text fill="#A6DA95" font-family="Helvetica" font-size="12" lengthAdjust="spacing" textLength="841.7936" x="138.04" y="224.8026">&lt;A, B&gt; Kind&lt;ValidatedKind.Witness&lt;E&gt;, B&gt; ap(Kind&lt;ValidatedKind.Witness&lt;E&gt;, Function&lt;A, B&gt;&gt; fnKind, Kind&lt;ValidatedKind.Witness&lt;E&gt;, A&gt; valueKind)</text><ellipse cx="130.04" cy="237.9907" fill="#84BE84" rx="3" ry="3" style="stroke:#038048;stroke-width:1;"/><text fill="#A6DA95" font-family="Helvetica" font-size="12" lengthAdjust="spacing" textLength="845.6459" x="138.04" y="241.1467">&lt;A, B&gt; Kind&lt;ValidatedKind.Witness&lt;E&gt;, B&gt; flatMap(Function&lt;A, Kind&lt;ValidatedKind.Witness&lt;E&gt;, B&gt;&gt; fn, Kind&lt;ValidatedKind.Witness&lt;E&gt;, A&gt; valueKind)</text></g><!--class ValidatedKind<E,A>--><g class="entity" data-entity="ValidatedKind.E.A." data-source-line="40" data-uid="ent0012" id="entity_ValidatedKind.E.A."><rect fill="#24273A" height="31.792" rx="1.5" ry="1.5" style="stroke:#C6A0F6;stroke-width:2;" width="175.7603" x="293.48" y="371.526"/><rect fill="#363A4F" height="31.792" rx="1.5" ry="1.5" style="stroke:#363A4F;stroke-width:2;" width="175.7603" x="293.48" y="371.526"/><rect fill="#363A4F" height="1.5" style="stroke:#363A4F;stroke-width:2;" width="175.7603" x="293.48" y="401.8181"/><rect fill="none" height="31.792" rx="1.5" ry="1.5" style="stroke:#C6A0F6;stroke-width:2;" width="175.7603" x="293.48" y="371.526"/><ellipse cx="307.48" cy="387.422" fill="#ADD1B2" rx="10" ry="10" style="stroke:#181818;stroke-width:1;"/><path d="M307.1988,392.047 Q305.9488,392.047 305.1519,391.5314 Q304.355,391.0002 303.9644,390.047 Q303.5738,389.0939 303.5738,387.8127 Q303.5738,386.3908 304.0425,385.3752 Q304.5113,384.3439 305.4175,383.797 Q306.3238,383.2345 307.6363,383.2345 Q308.2613,383.2345 308.73,383.3595 Q309.2144,383.4845 309.6988,383.7189 L309.1206,385.1564 Q308.6831,384.922 308.2925,384.8439 Q307.9175,384.7658 307.5738,384.7658 Q306.7456,384.7658 306.2456,385.1408 Q305.7613,385.5002 305.5425,386.172 Q305.3394,386.8439 305.3394,387.7502 Q305.3394,389.1564 305.8394,389.8439 Q306.355,390.5158 307.48,390.5158 Q307.9019,390.5158 308.3394,390.4064 Q308.7769,390.297 309.3706,390.0314 L309.3706,391.5939 Q308.855,391.8283 308.2925,391.9377 Q307.73,392.047 307.1988,392.047 Z " fill="#CAD3F5"/><text fill="#A6DA95" font-family="Helvetica" font-size="16" lengthAdjust="spacing" textLength="145.7603" x="320.48" y="393.6301">ValidatedKind&lt;E,A&gt;</text></g><!--reverse link ErrorMonad to ValidatedMonad<E>--><g class="link" data-entity-1="ErrorMonad" data-entity-2="ValidatedMonad.E." data-source-line="25" data-uid="lnk9" id="link_ErrorMonad_ValidatedMonad.E."><path d="M554.36,60.176 C554.36,74.706 554.36,79.676 554.36,102.446" fill="none" id="ErrorMonad-backto-ValidatedMonad&lt;E&gt;" style="stroke:#F5BDE6;stroke-width:1;stroke-dasharray:7,7;"/><polygon fill="none" points="554.36,42.176,548.36,60.176,560.36,60.176,554.36,42.176" style="stroke:#F5BDE6;stroke-width:1;"/></g><!--link ValidatedMonad<E> to ValidatedKindHelper--><g class="link" data-entity-1="ValidatedMonad.E." data-entity-2="ValidatedKindHelper" data-source-line="35" data-uid="lnk10" id="link_ValidatedMonad.E._ValidatedKindHelper"><path codeLine="35" d="M614.24,248.896 C635.18,274.126 654.6187,297.5486 674.6487,321.6886" fill="none" id="ValidatedMonad&lt;E&gt;-to-ValidatedKindHelper" style="stroke:#F5BDE6;stroke-width:1;stroke-dasharray:7,7;"/><polygon fill="#F5BDE6" points="678.48,326.306,675.8113,316.8256,675.2872,322.4581,669.6547,321.934,678.48,326.306" style="stroke:#F5BDE6;stroke-width:1;"/><polygon fill="#CAD3F5" points="658.3344,290.9162,655.5227,283.8464,651.9041,286.8493,658.3344,290.9162" style="stroke:#CAD3F5;stroke-width:1;"/><text fill="#CAD3F5" font-family="Helvetica" font-size="12" lengthAdjust="spacing" textLength="25.6802" x="664.78" y="292.4941">uses</text></g><!--link ValidatedKindHelper to Validated<E, A>--><g class="link" data-entity-1="ValidatedKindHelper" data-entity-2="Validated.E. A." data-source-line="37" data-uid="lnk11" id="link_ValidatedKindHelper_Validated.E. A."><path codeLine="37" d="M728.36,448.316 C728.36,476.546 728.36,501.926 728.36,519.996" fill="none" id="ValidatedKindHelper-to-Validated&lt;E, A&gt;" style="stroke:#F5BDE6;stroke-width:1;stroke-dasharray:7,7;"/><polygon fill="#F5BDE6" points="728.36,525.996,732.36,516.996,728.36,520.996,724.36,516.996,728.36,525.996" style="stroke:#F5BDE6;stroke-width:1;"/><polygon fill="#CAD3F5" points="732.36,491.3481,734.7111,484.112,730.0089,484.112,732.36,491.3481" style="stroke:#CAD3F5;stroke-width:1;"/><text fill="#CAD3F5" font-family="Helvetica" font-size="12" lengthAdjust="spacing" textLength="142.4411" x="741.36" y="492.0041">narrows to / widens from</text></g><!--link ValidatedKind<E,A> to Kind--><g class="link" data-entity-1="ValidatedKind.E.A." data-entity-2="Kind" data-source-line="40" data-uid="lnk13" id="link_ValidatedKind.E.A._Kind"><path codeLine="40" d="M362.85,403.616 C327.29,432.796 254.4278,492.5894 218.7178,521.8994" fill="none" id="ValidatedKind&lt;E,A&gt;-to-Kind" style="stroke:#F5BDE6;stroke-width:1;"/><polygon fill="#F5BDE6" points="214.08,525.706,223.5745,523.088,217.9449,522.5338,218.499,516.9042,214.08,525.706" style="stroke:#F5BDE6;stroke-width:1;"/><text fill="#CAD3F5" font-family="Helvetica" font-size="12" lengthAdjust="spacing" textLength="221.5336" x="272.7" y="492.0041">extends &lt;ValidatedKind.Witness&lt;E&gt;, A&gt;</text></g><!--link ValidatedMonad<E> to ValidatedKind<E,A>--><g class="link" data-entity-1="ValidatedMonad.E." data-entity-2="ValidatedKind.E.A." data-source-line="41" data-uid="lnk14" id="link_ValidatedMonad.E._ValidatedKind.E.A."><path codeLine="41" d="M494.82,248.896 C458.46,292.966 418.8582,340.9677 397.8382,366.4477" fill="none" id="ValidatedMonad&lt;E&gt;-to-ValidatedKind&lt;E,A&gt;" style="stroke:#F5BDE6;stroke-width:1;stroke-dasharray:7,7;"/><polygon fill="#F5BDE6" points="394.02,371.076,402.8328,366.679,397.2018,367.2191,396.6617,361.5881,394.02,371.076" style="stroke:#F5BDE6;stroke-width:1;"/><text fill="#CAD3F5" font-family="Helvetica" font-size="12" lengthAdjust="spacing" textLength="67.7405" x="468.86" y="292.4941">operates on</text></g><!--SRC=[dLLDRzim3BthLt2vpC5Y-nuO7hB1mOQYmO2swsKNLQOJORPaI7BJeEX_7sKxZPkF9SZ9jiZt-4YAz2UfHDda22ldQZkDOyFNqLAwLVFKM3H2AuVAHK9NiHBQEXvA4GlkwheHGggmuaAi97Swh4kkN5ELeLjXXN75fOhRrwYcKxQI50IhscsWmke9ZMLCQOSmcWE-K93SmgDq2gsT6UasoVscnlOjUb3SRD8_gj06U5c28mk8abkBTWJSGkks83B69Ear1HS8DrBboNm2ivInTmU8ejOmT1nbncXpgnNFaz-yb3btc7kdgDUJPEa4ihGDjVDbZ04CMDwXIUQ3Zk2Lx6_UgPKwSF3SFx2iqOmWII1ucFn2qupXmScIT4AQjbY0B_1A5NTIl457sYLrMYHvhAdEAjWJ0y_Rx_49udq0bTpeTN0-tbyw6r-jjjKLpFopmUjffEg8Ca3Vd_6fodTDzgsKLLtItLHksDA-xE5EmHxoQme_5tVtiyNtx51h2WTnI1ZPbS2WooqCUrWocy2tivcHHyNhODueuQHMFQXGayigs-3De3d9HPNKnNutBfPAIiyuVKp4P-9ThipcGbL5oTtjNX7FegugCjquTkogHT7WPknc7wP06zO2hQTZLeywt2dJVZ0jE0rnD-mM2gChpyC-xXW2UKmOTdKYy7RH_ZUhaqaSPP-29hbqQ44hzXdktAQKQWb-jq-XfVGt3vs8W1lqEUVWDpdDfj_AX88bAZHIj8lT4aT6SvDBqPBIBwGRwcxjaudobIyz2OUbV4O5tVXkforY_m00]--></g></svg>