<svg xmlns="http://www.w3.org/2000/svg" xmlns:xlink="http://www.w3.org/1999/xlink" contentStyleType="text/css" height="567px" preserveAspectRatio="none" style="width:1018px;height:567px;background:#24273A;" version="1.1" viewBox="0 0 1018 567" width="1018px" zoomAndPan="magnify"><defs/><g><rect fill="#24273A" height="567" style="stroke:none;stroke-width:1.0;" width="1018" x="0" y="0"/><!--class Kind--><g id="elem_Kind"><rect codeLine="3" fill="#24273A" height="30" id="Kind" rx="1.5" ry="1.5" style="stroke:#C6A0F6;stroke-width:2.0;" width="88.0254" x="707.56" y="530"/><rect fill="#363A4F" height="30" rx="1.5" ry="1.5" style="stroke:#363A4F;stroke-width:2.0;" width="88.0254" x="707.56" y="530"/><rect fill="#363A4F" height="1.5" style="stroke:#363A4F;stroke-width:2.0;" width="88.0254" x="707.56" y="558.5"/><rect codeLine="3" fill="none" height="30" id="Kind" rx="1.5" ry="1.5" style="stroke:#C6A0F6;stroke-width:2.0;" width="88.0254" x="707.56" y="530"/><ellipse cx="721.56" cy="545" fill="#B4A7E5" rx="10" ry="10" style="stroke:#181818;stroke-width:1.0;"/><path d="M718.5678,542.2754 L718.5678,540.752 L723.7768,540.752 L723.7768,542.2754 L722.0366,542.2754 L722.0366,547.9766 L723.7768,547.9766 L723.7768,549.5 L718.5678,549.5 L718.5678,547.9766 L720.308,547.9766 L720.308,542.2754 Z " fill="#CAD3F5"/><text fill="#A6DA95" font-family="Helvetica" font-size="16" font-style="italic" lengthAdjust="spacing" textLength="32.0234" x="734.56" y="549.3203">Kind</text><rect fill="#24273A" height="14" style="stroke:#C6A0F6;stroke-width:1.0;stroke-dasharray:2.0,2.0;" width="24.002" x="774.5834" y="527"/><text fill="#CAD3F5" font-family="Helvetica" font-size="12" font-style="italic" lengthAdjust="spacing" textLength="22.002" x="775.5834" y="537.2402">F, A</text></g><!--class Functor--><g id="elem_Functor"><rect codeLine="4" fill="#24273A" height="30" id="Functor" rx="1.5" ry="1.5" style="stroke:#C6A0F6;stroke-width:2.0;" width="95.5723" x="796.79" y="426"/><rect fill="#363A4F" height="30" rx="1.5" ry="1.5" style="stroke:#363A4F;stroke-width:2.0;" width="95.5723" x="796.79" y="426"/><rect fill="#363A4F" height="1.5" style="stroke:#363A4F;stroke-width:2.0;" width="95.5723" x="796.79" y="454.5"/><rect codeLine="4" fill="none" height="30" id="Functor" rx="1.5" ry="1.5" style="stroke:#C6A0F6;stroke-width:2.0;" width="95.5723" x="796.79" y="426"/><ellipse cx="810.79" cy="441" fill="#B4A7E5" rx="10" ry="10" style="stroke:#181818;stroke-width:1.0;"/><path d="M807.7978,438.2754 L807.7978,436.752 L813.0068,436.752 L813.0068,438.2754 L811.2666,438.2754 L811.2666,443.9766 L813.0068,443.9766 L813.0068,445.5 L807.7978,445.5 L807.7978,443.9766 L809.538,443.9766 L809.538,438.2754 Z " fill="#CAD3F5"/><text fill="#A6DA95" font-family="Helvetica" font-size="16" font-style="italic" lengthAdjust="spacing" textLength="54.2422" x="823.79" y="445.3203">Functor</text><rect fill="#24273A" height="14" style="stroke:#C6A0F6;stroke-width:1.0;stroke-dasharray:2.0,2.0;" width="9.3301" x="886.0322" y="423"/><text fill="#CAD3F5" font-family="Helvetica" font-size="12" font-style="italic" lengthAdjust="spacing" textLength="7.3301" x="887.0322" y="433.2402">F</text></g><!--class Applicative--><g id="elem_Applicative"><rect codeLine="5" fill="#24273A" height="30" id="Applicative" rx="1.5" ry="1.5" style="stroke:#C6A0F6;stroke-width:2.0;" width="118.7051" x="540.22" y="335"/><rect fill="#363A4F" height="30" rx="1.5" ry="1.5" style="stroke:#363A4F;stroke-width:2.0;" width="118.7051" x="540.22" y="335"/><rect fill="#363A4F" height="1.5" style="stroke:#363A4F;stroke-width:2.0;" width="118.7051" x="540.22" y="363.5"/><rect codeLine="5" fill="none" height="30" id="Applicative" rx="1.5" ry="1.5" style="stroke:#C6A0F6;stroke-width:2.0;" width="118.7051" x="540.22" y="335"/><ellipse cx="554.22" cy="350" fill="#B4A7E5" rx="10" ry="10" style="stroke:#181818;stroke-width:1.0;"/><path d="M551.2278,347.2754 L551.2278,345.752 L556.4368,345.752 L556.4368,347.2754 L554.6966,347.2754 L554.6966,352.9766 L556.4368,352.9766 L556.4368,354.5 L551.2278,354.5 L551.2278,352.9766 L552.968,352.9766 L552.968,347.2754 Z " fill="#CAD3F5"/><text fill="#A6DA95" font-family="Helvetica" font-size="16" font-style="italic" lengthAdjust="spacing" textLength="77.375" x="567.22" y="354.3203">Applicative</text><rect fill="#24273A" height="14" style="stroke:#C6A0F6;stroke-width:1.0;stroke-dasharray:2.0,2.0;" width="9.3301" x="652.595" y="332"/><text fill="#CAD3F5" font-family="Helvetica" font-size="12" font-style="italic" lengthAdjust="spacing" textLength="7.3301" x="653.595" y="342.2402">F</text></g><!--class MonadBase--><g id="elem_MonadBase"><rect codeLine="6" fill="#24273A" height="30" id="MonadBase" rx="1.5" ry="1.5" style="stroke:#C6A0F6;stroke-width:2.0;" width="92.918" x="38.11" y="223"/><rect fill="#363A4F" height="30" rx="1.5" ry="1.5" style="stroke:#363A4F;stroke-width:2.0;" width="92.918" x="38.11" y="223"/><rect fill="#363A4F" height="1.5" style="stroke:#363A4F;stroke-width:2.0;" width="92.918" x="38.11" y="251.5"/><rect codeLine="6" fill="none" height="30" id="MonadBase" rx="1.5" ry="1.5" style="stroke:#C6A0F6;stroke-width:2.0;" width="92.918" x="38.11" y="223"/><ellipse cx="52.11" cy="238" fill="#B4A7E5" rx="10" ry="10" style="stroke:#181818;stroke-width:1.0;"/><path d="M49.1178,235.2754 L49.1178,233.752 L54.3268,233.752 L54.3268,235.2754 L52.5866,235.2754 L52.5866,240.9766 L54.3268,240.9766 L54.3268,242.5 L49.1178,242.5 L49.1178,240.9766 L50.858,240.9766 L50.858,235.2754 Z " fill="#CAD3F5"/><text fill="#A6DA95" font-family="Helvetica" font-size="16" font-style="italic" lengthAdjust="spacing" textLength="48.9219" x="65.11" y="242.3203">Monad</text><rect fill="#24273A" height="14" style="stroke:#C6A0F6;stroke-width:1.0;stroke-dasharray:2.0,2.0;" width="11.9961" x="122.0319" y="220"/><text fill="#CAD3F5" font-family="Helvetica" font-size="12" font-style="italic" lengthAdjust="spacing" textLength="9.9961" x="123.0319" y="230.2402">M</text></g><!--class MonadErrorBase--><g id="elem_MonadErrorBase"><rect codeLine="7" fill="#24273A" height="30" id="MonadErrorBase" rx="1.5" ry="1.5" style="stroke:#C6A0F6;stroke-width:2.0;" width="143.1445" x="7" y="111"/><rect fill="#363A4F" height="30" rx="1.5" ry="1.5" style="stroke:#363A4F;stroke-width:2.0;" width="143.1445" x="7" y="111"/><rect fill="#363A4F" height="1.5" style="stroke:#363A4F;stroke-width:2.0;" width="143.1445" x="7" y="139.5"/><rect codeLine="7" fill="none" height="30" id="MonadErrorBase" rx="1.5" ry="1.5" style="stroke:#C6A0F6;stroke-width:2.0;" width="143.1445" x="7" y="111"/><ellipse cx="21" cy="126" fill="#B4A7E5" rx="10" ry="10" style="stroke:#181818;stroke-width:1.0;"/><path d="M18.0078,123.2754 L18.0078,121.752 L23.2168,121.752 L23.2168,123.2754 L21.4766,123.2754 L21.4766,128.9766 L23.2168,128.9766 L23.2168,130.5 L18.0078,130.5 L18.0078,128.9766 L19.748,128.9766 L19.748,123.2754 Z " fill="#CAD3F5"/><text fill="#A6DA95" font-family="Helvetica" font-size="16" font-style="italic" lengthAdjust="spacing" textLength="84.4766" x="34" y="130.3203">MonadError</text><rect fill="#24273A" height="14" style="stroke:#C6A0F6;stroke-width:1.0;stroke-dasharray:2.0,2.0;" width="26.668" x="126.4766" y="108"/><text fill="#CAD3F5" font-family="Helvetica" font-size="12" font-style="italic" lengthAdjust="spacing" textLength="24.668" x="127.4766" y="118.2402">M, E</text></g><!--class OptionalKindBase--><g id="elem_OptionalKindBase"><rect codeLine="9" fill="#24273A" height="30" id="OptionalKindBase" rx="1.5" ry="1.5" style="stroke:#C6A0F6;stroke-width:2.0;" width="133.6211" x="592.76" y="426"/><rect fill="#363A4F" height="30" rx="1.5" ry="1.5" style="stroke:#363A4F;stroke-width:2.0;" width="133.6211" x="592.76" y="426"/><rect fill="#363A4F" height="1.5" style="stroke:#363A4F;stroke-width:2.0;" width="133.6211" x="592.76" y="454.5"/><rect codeLine="9" fill="none" height="30" id="OptionalKindBase" rx="1.5" ry="1.5" style="stroke:#C6A0F6;stroke-width:2.0;" width="133.6211" x="592.76" y="426"/><ellipse cx="606.76" cy="441" fill="#ADD8E6" rx="10" ry="10" style="stroke:#181818;stroke-width:1.0;"/><path d="M606.3694,438.1465 Q605.7073,438.1465 605.4026,438.8525 Q605.0979,439.5586 605.0979,441.1348 Q605.0979,442.7051 605.4026,443.4111 Q605.7073,444.1172 606.3694,444.1172 Q607.0373,444.1172 607.342,443.4111 Q607.6467,442.7051 607.6467,441.1348 Q607.6467,439.5586 607.342,438.8525 Q607.0373,438.1465 606.3694,438.1465 Z M603.2991,441.1348 Q603.2991,438.8906 604.0754,437.7422 Q604.8518,436.5938 606.3694,436.5938 Q607.8928,436.5938 608.6692,437.7422 Q609.4455,438.8906 609.4455,441.1348 Q609.4455,443.373 608.6692,444.5215 Q607.8928,445.6699 606.3694,445.6699 Q604.8518,445.6699 604.0754,444.5215 Q603.2991,443.373 603.2991,441.1348 Z " fill="#CAD3F5"/><text fill="#A6DA95" font-family="Helvetica" font-size="16" font-style="italic" lengthAdjust="spacing" textLength="91.6172" x="619.76" y="445.3203">OptionalKind</text><rect fill="#24273A" height="14" style="stroke:#C6A0F6;stroke-width:1.0;stroke-dasharray:2.0,2.0;" width="10.0039" x="719.3772" y="423"/><text fill="#CAD3F5" font-family="Helvetica" font-size="12" font-style="italic" lengthAdjust="spacing" textLength="8.0039" x="720.3772" y="433.2402">A</text></g><!--class OptionalKindHelper--><g id="elem_OptionalKindHelper"><rect codeLine="12" fill="#24273A" height="30" id="OptionalKindHelper" rx="1.5" ry="1.5" style="stroke:#C6A0F6;stroke-width:2.0;" width="168.75" x="167.2" y="223"/><rect fill="#363A4F" height="30" rx="1.5" ry="1.5" style="stroke:#363A4F;stroke-width:2.0;" width="168.75" x="167.2" y="223"/><rect fill="#363A4F" height="1.5" style="stroke:#363A4F;stroke-width:2.0;" width="168.75" x="167.2" y="251.5"/><rect codeLine="12" fill="none" height="30" id="OptionalKindHelper" rx="1.5" ry="1.5" style="stroke:#C6A0F6;stroke-width:2.0;" width="168.75" x="167.2" y="223"/><ellipse cx="181.2" cy="238" fill="#808080" rx="10" ry="10" style="stroke:#181818;stroke-width:1.0;"/><path d="M178.0027,233.752 L179.7313,233.752 L179.7313,237.0859 L181.8934,237.0859 L181.8934,233.752 L183.6219,233.752 L183.6219,242.5 L181.8934,242.5 L181.8934,238.6094 L179.7313,238.6094 L179.7313,242.5 L178.0027,242.5 Z " fill="#CAD3F5"/><text fill="#A6DA95" font-family="Helvetica" font-size="16" lengthAdjust="spacing" textLength="138.75" x="194.2" y="242.3203">OptionalKindHelper</text></g><g id="elem_GMN9"><path d="M371.28,216.5 L371.28,234 L336.44,238 L371.28,242 L371.28,259.5 A1.5,1.5 0 0 0 372.78,261 L828.364,261 A1.5,1.5 0 0 0 829.864,259.5 L829.864,225 L819.864,215 L372.78,215 A1.5,1.5 0 0 0 371.28,216.5 " fill="#EED49F" style="stroke:#24273A;stroke-width:0.5;"/><path d="M819.864,215 L819.864,224.25 A0.75,0.75 0 0 0 820.614,225 L829.864,225 L819.864,215 " fill="#EED49F" style="stroke:#24273A;stroke-width:0.5;"/><text fill="#24273A" font-family="Helvetica" font-size="12" lengthAdjust="spacing" textLength="237.3809" x="377.28" y="229.2402">Contains internal 'OptionalHolder&lt;A&gt; record'</text><text fill="#24273A" font-family="Helvetica" font-size="12" lengthAdjust="spacing" textLength="192.7676" x="377.28" y="241.2402">which implements OptionalKind&lt;A&gt;.</text><text fill="#24273A" font-family="Helvetica" font-size="12" lengthAdjust="spacing" textLength="437.584" x="377.28" y="253.2402">`record OptionalHolder&lt;A&gt;(Optional&lt;A&gt; optional) implements OptionalKind&lt;A&gt; {}`</text></g><!--class OptionalFunctorImpl--><g id="elem_OptionalFunctorImpl"><rect codeLine="20" fill="#24273A" height="30" id="OptionalFunctorImpl" rx="1.5" ry="1.5" style="stroke:#C6A0F6;stroke-width:2.0;" width="143.8359" x="413.65" y="111"/><rect fill="#363A4F" height="30" rx="1.5" ry="1.5" style="stroke:#363A4F;stroke-width:2.0;" width="143.8359" x="413.65" y="111"/><rect fill="#363A4F" height="1.5" style="stroke:#363A4F;stroke-width:2.0;" width="143.8359" x="413.65" y="139.5"/><rect codeLine="20" fill="none" height="30" id="OptionalFunctorImpl" rx="1.5" ry="1.5" style="stroke:#C6A0F6;stroke-width:2.0;" width="143.8359" x="413.65" y="111"/><ellipse cx="427.65" cy="126" fill="#ADD1B2" rx="10" ry="10" style="stroke:#181818;stroke-width:1.0;"/><path d="M429.484,130.248 Q429.0738,130.459 428.6227,130.5645 Q428.1715,130.6699 427.6734,130.6699 Q425.9039,130.6699 424.9723,129.5039 Q424.0406,128.3379 424.0406,126.1348 Q424.0406,123.9258 424.9723,122.7598 Q425.9039,121.5938 427.6734,121.5938 Q428.1715,121.5938 428.6285,121.6992 Q429.0855,121.8047 429.484,122.0156 L429.484,123.9375 Q429.0387,123.5273 428.6197,123.3369 Q428.2008,123.1465 427.7555,123.1465 Q426.8063,123.1465 426.3229,123.8994 Q425.8395,124.6523 425.8395,126.1348 Q425.8395,127.6113 426.3229,128.3643 Q426.8063,129.1172 427.7555,129.1172 Q428.2008,129.1172 428.6197,128.9268 Q429.0387,128.7363 429.484,128.3262 Z " fill="#CAD3F5"/><text fill="#A6DA95" font-family="Helvetica" font-size="16" lengthAdjust="spacing" textLength="113.8359" x="440.65" y="130.3203">OptionalFunctor</text></g><!--class OptionalMonadImpl--><g id="elem_OptionalMonadImpl"><rect codeLine="22" fill="#24273A" height="30" id="OptionalMonadImpl" rx="1.5" ry="1.5" style="stroke:#C6A0F6;stroke-width:2.0;" width="138.5156" x="183.31" y="7"/><rect fill="#363A4F" height="30" rx="1.5" ry="1.5" style="stroke:#363A4F;stroke-width:2.0;" width="138.5156" x="183.31" y="7"/><rect fill="#363A4F" height="1.5" style="stroke:#363A4F;stroke-width:2.0;" width="138.5156" x="183.31" y="35.5"/><rect codeLine="22" fill="none" height="30" id="OptionalMonadImpl" rx="1.5" ry="1.5" style="stroke:#C6A0F6;stroke-width:2.0;" width="138.5156" x="183.31" y="7"/><ellipse cx="197.31" cy="22" fill="#ADD1B2" rx="10" ry="10" style="stroke:#181818;stroke-width:1.0;"/><path d="M199.144,26.248 Q198.7338,26.459 198.2827,26.5645 Q197.8315,26.6699 197.3334,26.6699 Q195.5639,26.6699 194.6323,25.5039 Q193.7006,24.3379 193.7006,22.1348 Q193.7006,19.9258 194.6323,18.7598 Q195.5639,17.5938 197.3334,17.5938 Q197.8315,17.5938 198.2885,17.6992 Q198.7455,17.8047 199.144,18.0156 L199.144,19.9375 Q198.6987,19.5273 198.2797,19.3369 Q197.8608,19.1465 197.4155,19.1465 Q196.4663,19.1465 195.9829,19.8994 Q195.4995,20.6523 195.4995,22.1348 Q195.4995,23.6113 195.9829,24.3643 Q196.4663,25.1172 197.4155,25.1172 Q197.8608,25.1172 198.2797,24.9268 Q198.6987,24.7363 199.144,24.3262 Z " fill="#CAD3F5"/><text fill="#A6DA95" font-family="Helvetica" font-size="16" lengthAdjust="spacing" textLength="108.5156" x="210.31" y="26.3203">OptionalMonad</text></g><!--link MonadErrorBase to MonadBase--><g id="link_MonadErrorBase_MonadBase"><path codeLine="26" d="M79.36,141.38 C80.51,162.46 81.6599,183.5567 82.8099,204.6467 " fill="none" id="MonadErrorBase-to-MonadBase" style="stroke:#F5BDE6;stroke-width:1.0;"/><polygon fill="none" points="83.79,222.62,88.801,204.32,76.8188,204.9734,83.79,222.62" style="stroke:#F5BDE6;stroke-width:1.0;"/></g><!--link MonadBase to Applicative--><g id="link_MonadBase_Applicative"><path codeLine="27" d="M124.54,253.46 C132.76,256.17 141.4,258.83 149.57,261 C287.67,297.7 435.5723,323.3799 522.2523,337.1299 " fill="none" id="MonadBase-to-Applicative" style="stroke:#F5BDE6;stroke-width:1.0;"/><polygon fill="none" points="540.03,339.95,523.1923,331.204,521.3123,343.0558,540.03,339.95" style="stroke:#F5BDE6;stroke-width:1.0;"/></g><!--link Applicative to Functor--><g id="link_Applicative_Functor"><path codeLine="28" d="M639.48,365.5 C685.04,382.05 742.2121,402.8131 787.7621,419.3631 " fill="none" id="Applicative-to-Functor" style="stroke:#F5BDE6;stroke-width:1.0;"/><polygon fill="none" points="804.68,425.51,789.8111,413.7238,785.7131,425.0024,804.68,425.51" style="stroke:#F5BDE6;stroke-width:1.0;"/></g><!--link Functor to Kind--><g id="link_Functor_Kind"><path codeLine="29" d="M836.65,456.19 C829.42,468.48 818,486.37 805.57,500 C795.55,510.99 797.0624,510.7433 786.4124,518.7733 " fill="none" id="Functor-to-Kind" style="stroke:#F5BDE6;stroke-width:1.0;"/><polygon fill="none" points="772.04,529.61,790.0246,523.5641,782.8002,513.9825,772.04,529.61" style="stroke:#F5BDE6;stroke-width:1.0;"/><text fill="#CAD3F5" font-family="Helvetica" font-size="12" lengthAdjust="spacing" textLength="193.4063" x="817.51" y="496.2402">(logically, Kind is the base for HKTs)</text></g><!--link OptionalKindBase to Kind--><g id="link_OptionalKindBase_Kind"><path codeLine="31" d="M654.54,456.05 C651,468.58 648.21,486.91 656.57,500 C667.83,517.61 671.0881,522.5151 690.0481,528.9251 " fill="none" id="OptionalKindBase-to-Kind" style="stroke:#F5BDE6;stroke-width:1.0;"/><polygon fill="none" points="707.1,534.69,691.9698,523.2412,688.1265,534.6091,707.1,534.69" style="stroke:#F5BDE6;stroke-width:1.0;"/><text fill="#CAD3F5" font-family="Helvetica" font-size="12" lengthAdjust="spacing" textLength="143.4082" x="657.57" y="496.2402">&lt;OptionalKind.Witness, A&gt;</text></g><!--link OptionalFunctorImpl to Functor--><g id="link_OptionalFunctorImpl_Functor"><path codeLine="33" d="M557.61,134.11 C652.69,145.16 812.2,170 847.57,215 C897.67,278.73 870.8275,370.089 856.4975,408.809 " fill="none" id="OptionalFunctorImpl-to-Functor" style="stroke:#F5BDE6;stroke-width:1.0;stroke-dasharray:7.0,7.0;"/><polygon fill="none" points="850.25,425.69,862.1245,410.8915,850.8705,406.7265,850.25,425.69" style="stroke:#F5BDE6;stroke-width:1.0;"/><text fill="#CAD3F5" font-family="Helvetica" font-size="12" lengthAdjust="spacing" textLength="128.7363" x="875.28" y="301.2402">&lt;OptionalKind.Witness&gt;</text></g><!--link OptionalMonadImpl to OptionalFunctorImpl--><g id="link_OptionalMonadImpl_OptionalFunctorImpl"><path codeLine="34" d="M285.46,37.4 C329.74,56.78 391.601,83.861 435.981,103.291 " fill="none" id="OptionalMonadImpl-to-OptionalFunctorImpl" style="stroke:#F5BDE6;stroke-width:1.0;"/><polygon fill="none" points="452.47,110.51,438.3874,97.7947,433.5747,108.7873,452.47,110.51" style="stroke:#F5BDE6;stroke-width:1.0;"/></g><!--link OptionalMonadImpl to MonadErrorBase--><g id="link_OptionalMonadImpl_MonadErrorBase"><path codeLine="35" d="M183.22,30.65 C137.28,37.32 82.92,48.82 68.57,67 C58.82,79.35 56.755,81.5436 62.765,94.3136 " fill="none" id="OptionalMonadImpl-to-MonadErrorBase" style="stroke:#F5BDE6;stroke-width:1.0;stroke-dasharray:7.0,7.0;"/><polygon fill="none" points="70.43,110.6,68.1939,91.7586,57.3362,96.8685,70.43,110.6" style="stroke:#F5BDE6;stroke-width:1.0;"/><text fill="#CAD3F5" font-family="Helvetica" font-size="12" lengthAdjust="spacing" textLength="156.7441" x="69.57" y="77.2402">&lt;OptionalKind.Witness, Unit&gt;</text></g><!--link OptionalMonadImpl to OptionalKindHelper--><g id="link_OptionalMonadImpl_OptionalKindHelper"><path codeLine="37" d="M252.51,37.37 C252.32,76.36 251.8478,177.7801 251.6678,216.6901 " fill="none" id="OptionalMonadImpl-to-OptionalKindHelper" style="stroke:#F5BDE6;stroke-width:1.0;stroke-dasharray:7.0,7.0;"/><polygon fill="#F5BDE6" points="251.64,222.69,255.6816,213.7086,251.6631,217.6901,247.6817,213.6716,251.64,222.69" style="stroke:#F5BDE6;stroke-width:1.0;"/><text fill="#CAD3F5" font-family="Helvetica" font-size="12" lengthAdjust="spacing" textLength="124.0547" x="253.16" y="129.2402">uses for widen / narrow</text></g><!--link OptionalFunctorImpl to OptionalKindHelper--><g id="link_OptionalFunctorImpl_OptionalKindHelper"><path codeLine="38" d="M454.98,141.38 C410.13,162.46 332.4497,198.9768 287.5997,220.0668 " fill="none" id="OptionalFunctorImpl-to-OptionalKindHelper" style="stroke:#F5BDE6;stroke-width:1.0;stroke-dasharray:7.0,7.0;"/><polygon fill="#F5BDE6" points="282.17,222.62,292.0166,222.41,286.6947,220.4923,288.6123,215.1704,282.17,222.62" style="stroke:#F5BDE6;stroke-width:1.0;"/><text fill="#CAD3F5" font-family="Helvetica" font-size="12" lengthAdjust="spacing" textLength="124.0547" x="390.53" y="181.2402">uses for widen / narrow</text></g><!--SRC=[bLJBRjim4BppAxQvn0Rqk1k2WBI8uI8mScdHQsXgRH6WI8AaQXXf_hqhIaxeo2xGayZPsTcd-4LgeVe6eGt1-bLPEdui3ZAq_Qxtw8JH0NKeXEbABOmFF9UY53nOsmiXTTvn8Lh9WycjuZhqdSf3YnsM7PUwZCV24ifQIK6mi-447NOxT9v9qdPxBX3kdgHkgdK63_KTS0_3DJMlUos2STLwD4_NbF5WhPAKb_oDPrO2fSojqRofjYCdNhvoFsSyEaS1jnay9im8HdhAVxP1abN58gOAKcnmWAg2nNEcvA4DEzNZ4keQNjaROq9nxoz5DgWikfdE24UbJNPmU7eNqIOWk44RpFwA3_j6SwI1U8XfamtkpwoDKGqwoXiS2kEQUtPifMX1TbRHz7IuJ8A81NiPgJ3JM9oHGSzCv-K_jE3rxOMXRc0eOTQCQT0NdPYmxoGPQ__a4kTquH2HYJuq_7AIaET_wcGFta-Z8LsYv3mQptiuVKTmA0nMi53cG6IbJja8IG_qEy1kaDuJUVFqmoyPcorAAbAbrkAN31gz7_wI3x-q7KNnaTGjxvhD-n93NX6yGeqXFdNmPfu_jGn9ggbAVMspLq1lZe_TET9peQ44pIdCyKQr_odo5m00]--></g></svg>