<svg xmlns="http://www.w3.org/2000/svg" xmlns:xlink="http://www.w3.org/1999/xlink" contentStyleType="text/css" data-diagram-type="CLASS" height="351px" preserveAspectRatio="none" style="width:1109px;height:351px;background:#24273A;" version="1.1" viewBox="0 0 1109 351" width="1109px" zoomAndPan="magnify"><defs/><g><rect fill="#24273A" height="351" style="stroke:none;stroke-width:1;" width="1109" x="0" y="0"/><!--class FreeAp<F, A>--><g class="entity" data-entity="FreeAp.F. A." data-source-line="7" data-uid="ent0002" id="entity_FreeAp.F. A."><rect fill="#24273A" height="170.545" rx="1.5" ry="1.5" style="stroke:#C6A0F6;stroke-width:2;" width="460.627" x="167.93" y="7"/><rect fill="#363A4F" height="48.1362" rx="1.5" ry="1.5" style="stroke:#363A4F;stroke-width:2;" width="460.627" x="167.93" y="7"/><rect fill="#363A4F" height="1.5" style="stroke:#363A4F;stroke-width:2;" width="460.627" x="167.93" y="53.6362"/><rect fill="none" height="170.545" rx="1.5" ry="1.5" style="stroke:#C6A0F6;stroke-width:2;" width="460.627" x="167.93" y="7"/><ellipse cx="348.5252" cy="31.0681" fill="#B4A7E5" rx="10" ry="10" style="stroke:#181818;stroke-width:1;"/><path d="M346.1033,35.5681 L346.1033,34.365 L347.7752,34.1775 L347.7752,28.3962 L346.1033,28.1931 L346.1033,27.0056 L351.1502,27.0056 L351.1502,28.1931 L349.4471,28.3962 L349.4471,34.1775 L351.1502,34.365 L351.1502,35.5681 L346.1033,35.5681 Z " fill="#CAD3F5"/><text fill="#CAD3F5" font-family="Helvetica" font-size="12" font-style="italic" lengthAdjust="spacing" textLength="95.4367" x="365.5252" y="24.8281">&#171;sealed interface&#187;</text><text fill="#A6DA95" font-family="Helvetica" font-size="16" font-style="italic" lengthAdjust="spacing" textLength="91.4082" x="367.5394" y="45.4481">FreeAp&lt;F, A&gt;</text><line style="stroke:#C6A0F6;stroke-width:2;" x1="168.93" x2="627.557" y1="55.1362" y2="55.1362"/><ellipse cx="178.93" cy="68.8082" fill="#84BE84" rx="3" ry="3" style="stroke:#038048;stroke-width:1;"/><text fill="#A6DA95" font-family="Helvetica" font-size="12" lengthAdjust="spacing" text-decoration="underline" textLength="151.4651" x="186.93" y="71.9642">FreeAp&lt;F, A&gt; pure(A value)</text><ellipse cx="178.93" cy="85.1523" fill="#84BE84" rx="3" ry="3" style="stroke:#038048;stroke-width:1;"/><text fill="#A6DA95" font-family="Helvetica" font-size="12" lengthAdjust="spacing" text-decoration="underline" textLength="171.9612" x="186.93" y="88.3084">FreeAp&lt;F, A&gt; lift(Kind&lt;F, A&gt; fa)</text><ellipse cx="178.93" cy="101.4964" fill="#84BE84" rx="3" ry="3" style="stroke:#038048;stroke-width:1;"/><text fill="#A6DA95" font-family="Helvetica" font-size="12" font-weight="bold" lengthAdjust="spacing" textLength="211.5255" x="190.05" y="104.6525">FreeAp&lt;F, B&gt; map(Function&lt;A, B&gt; f)</text><ellipse cx="178.93" cy="117.8406" fill="#84BE84" rx="3" ry="3" style="stroke:#038048;stroke-width:1;"/><text fill="#A6DA95" font-family="Helvetica" font-size="12" font-weight="bold" lengthAdjust="spacing" textLength="273.4939" x="190.05" y="120.9966">FreeAp&lt;F, B&gt; ap(FreeAp&lt;F, Function&lt;A, B&gt;&gt; ff)</text><ellipse cx="178.93" cy="134.1847" fill="#84BE84" rx="3" ry="3" style="stroke:#038048;stroke-width:1;"/><text fill="#A6DA95" font-family="Helvetica" font-size="12" lengthAdjust="spacing" textLength="366.0746" x="186.93" y="137.3407">&lt;B, C&gt; FreeAp&lt;F, C&gt; map2(FreeAp&lt;F, B&gt; fb, BiFunction&lt;A, B, C&gt; f)</text><ellipse cx="178.93" cy="150.5288" fill="#84BE84" rx="3" ry="3" style="stroke:#038048;stroke-width:1;"/><text fill="#A6DA95" font-family="Helvetica" font-size="12" lengthAdjust="spacing" textLength="435.627" x="186.93" y="153.6848">&lt;G&gt; Kind&lt;G, A&gt; foldMap(Natural&lt;F, G&gt; transform, Applicative&lt;G&gt; applicative)</text><ellipse cx="178.93" cy="166.8729" fill="#84BE84" rx="3" ry="3" style="stroke:#038048;stroke-width:1;"/><text fill="#A6DA95" font-family="Helvetica" font-size="12" lengthAdjust="spacing" textLength="252.3858" x="186.93" y="170.0289">Kind&lt;F, A&gt; retract(Applicative&lt;F&gt; applicative)</text></g><!--class Pure<F, A>--><g class="entity" data-entity="Pure.F. A." data-source-line="17" data-uid="ent0003" id="entity_Pure.F. A."><rect fill="#24273A" height="72.4803" rx="1.5" ry="1.5" style="stroke:#C6A0F6;stroke-width:2;" width="110.4802" x="7" y="263.72"/><rect fill="#363A4F" height="48.1362" rx="1.5" ry="1.5" style="stroke:#363A4F;stroke-width:2;" width="110.4802" x="7" y="263.72"/><rect fill="#363A4F" height="1.5" style="stroke:#363A4F;stroke-width:2;" width="110.4802" x="7" y="310.3562"/><rect fill="none" height="72.4803" rx="1.5" ry="1.5" style="stroke:#C6A0F6;stroke-width:2;" width="110.4802" x="7" y="263.72"/><ellipse cx="21" cy="287.7881" fill="#ADD1B2" rx="10" ry="10" style="stroke:#181818;stroke-width:1;"/><path d="M20.7188,292.4131 Q19.4688,292.4131 18.6719,291.8975 Q17.875,291.3662 17.4844,290.4131 Q17.0938,289.46 17.0938,288.1787 Q17.0938,286.7568 17.5625,285.7412 Q18.0313,284.71 18.9375,284.1631 Q19.8438,283.6006 21.1563,283.6006 Q21.7813,283.6006 22.25,283.7256 Q22.7344,283.8506 23.2188,284.085 L22.6406,285.5225 Q22.2031,285.2881 21.8125,285.21 Q21.4375,285.1318 21.0938,285.1318 Q20.2656,285.1318 19.7656,285.5068 Q19.2813,285.8662 19.0625,286.5381 Q18.8594,287.21 18.8594,288.1162 Q18.8594,289.5225 19.3594,290.21 Q19.875,290.8818 21,290.8818 Q21.4219,290.8818 21.8594,290.7725 Q22.2969,290.6631 22.8906,290.3975 L22.8906,291.96 Q22.375,292.1943 21.8125,292.3037 Q21.25,292.4131 20.7188,292.4131 Z " fill="#CAD3F5"/><text fill="#CAD3F5" font-family="Helvetica" font-size="12" font-style="italic" lengthAdjust="spacing" textLength="46.1283" x="51.1759" y="281.5481">&#171;record&#187;</text><text fill="#A6DA95" font-family="Helvetica" font-size="16" lengthAdjust="spacing" textLength="80.4802" x="34" y="302.1681">Pure&lt;F, A&gt;</text><line style="stroke:#C6A0F6;stroke-width:2;" x1="8" x2="116.4802" y1="311.8562" y2="311.8562"/><ellipse cx="18" cy="325.5282" fill="none" rx="3" ry="3" style="stroke:#038048;stroke-width:1;"/><text fill="#A6DA95" font-family="Helvetica" font-size="12" lengthAdjust="spacing" textLength="40.8963" x="26" y="328.6842">A value</text></g><!--class Lift<F, A>--><g class="entity" data-entity="Lift.F. A." data-source-line="21" data-uid="ent0004" id="entity_Lift.F. A."><rect fill="#24273A" height="72.4803" rx="1.5" ry="1.5" style="stroke:#C6A0F6;stroke-width:2;" width="99.0721" x="348.7" y="263.72"/><rect fill="#363A4F" height="48.1362" rx="1.5" ry="1.5" style="stroke:#363A4F;stroke-width:2;" width="99.0721" x="348.7" y="263.72"/><rect fill="#363A4F" height="1.5" style="stroke:#363A4F;stroke-width:2;" width="99.0721" x="348.7" y="310.3562"/><rect fill="none" height="72.4803" rx="1.5" ry="1.5" style="stroke:#C6A0F6;stroke-width:2;" width="99.0721" x="348.7" y="263.72"/><ellipse cx="362.7" cy="287.7881" fill="#ADD1B2" rx="10" ry="10" style="stroke:#181818;stroke-width:1;"/><path d="M362.4188,292.4131 Q361.1688,292.4131 360.3719,291.8975 Q359.575,291.3662 359.1844,290.4131 Q358.7938,289.46 358.7938,288.1787 Q358.7938,286.7568 359.2625,285.7412 Q359.7313,284.71 360.6375,284.1631 Q361.5438,283.6006 362.8563,283.6006 Q363.4813,283.6006 363.95,283.7256 Q364.4344,283.8506 364.9188,284.085 L364.3406,285.5225 Q363.9031,285.2881 363.5125,285.21 Q363.1375,285.1318 362.7938,285.1318 Q361.9656,285.1318 361.4656,285.5068 Q360.9813,285.8662 360.7625,286.5381 Q360.5594,287.21 360.5594,288.1162 Q360.5594,289.5225 361.0594,290.21 Q361.575,290.8818 362.7,290.8818 Q363.1219,290.8818 363.5594,290.7725 Q363.9969,290.6631 364.5906,290.3975 L364.5906,291.96 Q364.075,292.1943 363.5125,292.3037 Q362.95,292.4131 362.4188,292.4131 Z " fill="#CAD3F5"/><text fill="#CAD3F5" font-family="Helvetica" font-size="12" font-style="italic" lengthAdjust="spacing" textLength="46.1283" x="387.1719" y="281.5481">&#171;record&#187;</text><text fill="#A6DA95" font-family="Helvetica" font-size="16" lengthAdjust="spacing" textLength="69.0721" x="375.7" y="302.1681">Lift&lt;F, A&gt;</text><line style="stroke:#C6A0F6;stroke-width:2;" x1="349.7" x2="446.7721" y1="311.8562" y2="311.8562"/><ellipse cx="359.7" cy="325.5282" fill="none" rx="3" ry="3" style="stroke:#038048;stroke-width:1;"/><text fill="#A6DA95" font-family="Helvetica" font-size="12" lengthAdjust="spacing" textLength="73.2605" x="367.7" y="328.6842">Kind&lt;F, A&gt; fa</text></g><!--class Ap<F, X, A>--><g class="entity" data-entity="Ap.F. X. A." data-source-line="25" data-uid="ent0005" id="entity_Ap.F. X. A."><rect fill="#24273A" height="88.8244" rx="1.5" ry="1.5" style="stroke:#C6A0F6;stroke-width:2;" width="186.1251" x="703.18" y="255.55"/><rect fill="#363A4F" height="48.1362" rx="1.5" ry="1.5" style="stroke:#363A4F;stroke-width:2;" width="186.1251" x="703.18" y="255.55"/><rect fill="#363A4F" height="1.5" style="stroke:#363A4F;stroke-width:2;" width="186.1251" x="703.18" y="302.1862"/><rect fill="none" height="88.8244" rx="1.5" ry="1.5" style="stroke:#C6A0F6;stroke-width:2;" width="186.1251" x="703.18" y="255.55"/><ellipse cx="750.6585" cy="279.6181" fill="#ADD1B2" rx="10" ry="10" style="stroke:#181818;stroke-width:1;"/><path d="M750.3772,284.2431 Q749.1272,284.2431 748.3304,283.7275 Q747.5335,283.1962 747.1429,282.2431 Q746.7522,281.29 746.7522,280.0087 Q746.7522,278.5868 747.221,277.5712 Q747.6897,276.54 748.596,275.9931 Q749.5022,275.4306 750.8147,275.4306 Q751.4397,275.4306 751.9085,275.5556 Q752.3929,275.6806 752.8772,275.915 L752.2991,277.3525 Q751.8616,277.1181 751.471,277.04 Q751.096,276.9618 750.7522,276.9618 Q749.9241,276.9618 749.4241,277.3368 Q748.9397,277.6962 748.721,278.3681 Q748.5179,279.04 748.5179,279.9462 Q748.5179,281.3525 749.0179,282.04 Q749.5335,282.7118 750.6585,282.7118 Q751.0804,282.7118 751.5179,282.6025 Q751.9554,282.4931 752.5491,282.2275 L752.5491,283.79 Q752.0335,284.0243 751.471,284.1337 Q750.9085,284.2431 750.3772,284.2431 Z " fill="#CAD3F5"/><text fill="#CAD3F5" font-family="Helvetica" font-size="12" font-style="italic" lengthAdjust="spacing" textLength="46.1283" x="788.1784" y="273.3781">&#171;record&#187;</text><text fill="#A6DA95" font-family="Helvetica" font-size="16" lengthAdjust="spacing" textLength="83.1682" x="769.6585" y="293.9981">Ap&lt;F, X, A&gt;</text><line style="stroke:#C6A0F6;stroke-width:2;" x1="704.18" x2="888.3051" y1="303.6862" y2="303.6862"/><ellipse cx="714.18" cy="317.3582" fill="none" rx="3" ry="3" style="stroke:#038048;stroke-width:1;"/><text fill="#A6DA95" font-family="Helvetica" font-size="12" lengthAdjust="spacing" textLength="161.1251" x="722.18" y="320.5142">FreeAp&lt;F, Function&lt;X, A&gt;&gt; ff</text><ellipse cx="714.18" cy="333.7023" fill="none" rx="3" ry="3" style="stroke:#038048;stroke-width:1;"/><text fill="#A6DA95" font-family="Helvetica" font-size="12" lengthAdjust="spacing" textLength="87.0726" x="722.18" y="336.8584">FreeAp&lt;F, X&gt; fa</text></g><g class="entity" data-entity="GMN12" data-source-line="35" data-uid="ent0013" id="entity_GMN12"><path d="M152.58,280.11 L152.58,295.96 L117.68,299.96 L152.58,303.96 L152.58,319.7982 A1.5,1.5 0 0 0 154.08,321.2982 L312.409,321.2982 A1.5,1.5 0 0 0 313.909,319.7982 L313.909,288.61 L303.909,278.61 L154.08,278.61 A1.5,1.5 0 0 0 152.58,280.11" fill="#EED49F" style="stroke:#24273A;stroke-width:0.5;"/><path d="M303.909,278.61 L303.909,287.86 A0.75,0.75 0 0 0 304.659,288.61 L313.909,288.61 L303.909,278.61" fill="#EED49F" style="stroke:#24273A;stroke-width:0.5;"/><text fill="#24273A" font-family="Helvetica" font-size="12" lengthAdjust="spacing" textLength="140.329" x="158.58" y="296.4381">Completed computation.</text><text fill="#24273A" font-family="Helvetica" font-size="12" lengthAdjust="spacing" textLength="123.4689" x="158.58" y="312.7822">Contains a final value.</text></g><g class="entity" data-entity="GMN15" data-source-line="40" data-uid="ent0016" id="entity_GMN15"><path d="M482.59,280.11 L482.59,295.96 L448.02,299.96 L482.59,303.96 L482.59,319.7982 A1.5,1.5 0 0 0 484.09,321.2982 L666.3832,321.2982 A1.5,1.5 0 0 0 667.8832,319.7982 L667.8832,288.61 L657.8832,278.61 L484.09,278.61 A1.5,1.5 0 0 0 482.59,280.11" fill="#EED49F" style="stroke:#24273A;stroke-width:0.5;"/><path d="M657.8832,278.61 L657.8832,287.86 A0.75,0.75 0 0 0 658.6332,288.61 L667.8832,288.61 L657.8832,278.61" fill="#EED49F" style="stroke:#24273A;stroke-width:0.5;"/><text fill="#24273A" font-family="Helvetica" font-size="12" lengthAdjust="spacing" textLength="161.0051" x="488.59" y="296.4381">Suspended single operation.</text><text fill="#24273A" font-family="Helvetica" font-size="12" lengthAdjust="spacing" textLength="164.2932" x="488.59" y="312.7822">Contains one instruction in F.</text></g><g class="entity" data-entity="GMN18" data-source-line="45" data-uid="ent0019" id="entity_GMN18"><path d="M924.05,263.77 L924.05,295.96 L889.48,299.96 L924.05,303.96 L924.05,336.1465 A1.5,1.5 0 0 0 925.55,337.6465 L1100.9311,337.6465 A1.5,1.5 0 0 0 1102.4311,336.1465 L1102.4311,272.27 L1092.4311,262.27 L925.55,262.27 A1.5,1.5 0 0 0 924.05,263.77" fill="#EED49F" style="stroke:#24273A;stroke-width:0.5;"/><path d="M1092.4311,262.27 L1092.4311,271.52 A0.75,0.75 0 0 0 1093.1811,272.27 L1102.4311,272.27 L1092.4311,262.27" fill="#EED49F" style="stroke:#24273A;stroke-width:0.5;"/><text fill="#24273A" font-family="Helvetica" font-size="12" lengthAdjust="spacing" textLength="157.3811" x="930.05" y="280.0981">Independent computations.</text><text fill="#24273A" font-family="Helvetica" font-size="12" lengthAdjust="spacing" textLength="139.141" x="930.05" y="296.4422">ff and fa do NOT depend</text><text fill="#24273A" font-family="Helvetica" font-size="12" lengthAdjust="spacing" textLength="131.1729" x="930.05" y="312.7863">on each other's results.</text><text fill="#24273A" font-family="Helvetica" font-size="12" lengthAdjust="spacing" textLength="112.0688" x="930.05" y="329.1304">Enables parallelism.</text></g><!--reverse link FreeAp<F, A> to Pure<F, A>--><g class="link" data-entity-1="FreeAp.F. A." data-entity-2="Pure.F. A." data-source-line="30" data-uid="lnk7" id="link_FreeAp.F. A._Pure.F. A."><path codeLine="30" d="M244.7676,187.217 C194.8076,217.797 156.57,241.22 117.77,264.97" fill="none" id="FreeAp&lt;F, A&gt;-backto-Pure&lt;F, A&gt;" style="stroke:#F5BDE6;stroke-width:1;"/><polygon fill="none" points="260.12,177.82,241.6353,182.0996,247.9,192.3345,260.12,177.82" style="stroke:#F5BDE6;stroke-width:1;"/><text fill="#CAD3F5" font-family="Helvetica" font-size="12" lengthAdjust="spacing" textLength="67.0445" x="211.12" y="221.3781">implements</text></g><!--reverse link FreeAp<F, A> to Lift<F, A>--><g class="link" data-entity-1="FreeAp.F. A." data-entity-2="Lift.F. A." data-source-line="31" data-uid="lnk9" id="link_FreeAp.F. A._Lift.F. A."><path codeLine="31" d="M398.24,195.82 C398.24,225.74 398.24,239.79 398.24,263.4" fill="none" id="FreeAp&lt;F, A&gt;-backto-Lift&lt;F, A&gt;" style="stroke:#F5BDE6;stroke-width:1;"/><polygon fill="none" points="398.24,177.82,392.24,195.82,404.24,195.82,398.24,177.82" style="stroke:#F5BDE6;stroke-width:1;"/><text fill="#CAD3F5" font-family="Helvetica" font-size="12" lengthAdjust="spacing" textLength="67.0445" x="399.24" y="221.3781">implements</text></g><!--reverse link FreeAp<F, A> to Ap<F, X, A>--><g class="link" data-entity-1="FreeAp.F. A." data-entity-2="Ap.F. X. A." data-source-line="32" data-uid="lnk11" id="link_FreeAp.F. A._Ap.F. X. A."><path codeLine="32" d="M578.1211,186.2335 C629.4411,212.7535 667.98,232.67 711.49,255.16" fill="none" id="FreeAp&lt;F, A&gt;-backto-Ap&lt;F, X, A&gt;" style="stroke:#F5BDE6;stroke-width:1;"/><polygon fill="none" points="562.13,177.97,575.3666,191.5639,580.8756,180.9032,562.13,177.97" style="stroke:#F5BDE6;stroke-width:1;"/><text fill="#CAD3F5" font-family="Helvetica" font-size="12" lengthAdjust="spacing" textLength="67.0445" x="645.59" y="221.3781">implements</text></g><!--SRC=[ZLHDRzD04BtxLmpXG11rB0Kaf2gA529I8Q15WaEla_KuNdM_j3jRX4h_EsEdJUsML3tPk_lUczatCvkkj0iOqS8MrTKk-kpgjJS-mklvX_d7zwlYbNRAv9gWPGxfjAeY_fxjDBTvcnD5vHsJuvdojdBA9yPIgqeXXv2Lqgwqg5IhaNqP33hErfJSagNAedPL_piBibiKhPOeP0F_0KjsIp4LXHRrsA0Yc6mYqIeiDYUmMavWiKY4Xceu89PBk2a0ti6D9C5QtSAG0I57cgxW6ascjy_WZ6vu-bMx-cxTu1wz-BGS06LXCKmtsIdMtYrM_LPp1DeX3-inHqW7rWciXyHr7sC-7KarM_deaKQFl1SvMqAV_Da-UM_gxnBz73b7D9s603YYIusFLZ0X62tLqjVKKV5XkTSR6159U8gdGyhc4UMsA9J1b63oG-n-g5KavMDzgD1T6GRmR-BwKVYe6WFItfJB8wp_EDv3EySV0IxlXKTfbpcKVvUF6-yKj0r6kjPnAaPvlmG_Ila5XC9v9eXwrpBuPcIht67jEoJB5CZuXToritUp_i2nZ5S2X4OxD7k_PmMv6Zh59xg3UmZzPqv1eAARjDiP0XyeFXNtZcJy4iVSsol_i7acnl3k8lD50lHH70_JJrs8fW4KcGQXzd1-yGlsK3cHC8Ig1IylHtoJf2jJDjoJFZlS6ahGlMV6aD793hBv1m00]--></g></svg>