<svg xmlns="http://www.w3.org/2000/svg" xmlns:xlink="http://www.w3.org/1999/xlink" contentStyleType="text/css" data-diagram-type="CLASS" height="659px" preserveAspectRatio="none" style="width:2243px;height:659px;background:#24273A;" version="1.1" viewBox="0 0 2243 659" width="2243px" zoomAndPan="magnify"><defs/><g><rect fill="#24273A" height="659" style="stroke:none;stroke-width:1;" width="2243" x="0" y="0"/><g class="entity" data-entity="ArityNote" data-source-line="5" data-uid="ent0002" id="entity_ArityNote"><path d="M6,56.08 L6,95.7682 A1.5,1.5 0 0 0 7.5,97.2682 L316.9341,97.2682 A1.5,1.5 0 0 0 318.4341,95.7682 L318.4341,64.58 L308.4341,54.58 L7.5,54.58 A1.5,1.5 0 0 0 6,56.08" fill="#EED49F" style="stroke:#24273A;stroke-width:0.5;"/><path d="M308.4341,54.58 L308.4341,63.83 A0.75,0.75 0 0 0 309.1841,64.58 L318.4341,64.58 L308.4341,54.58" fill="#EED49F" style="stroke:#24273A;stroke-width:1;"/><text fill="#24273A" font-family="Helvetica" font-size="12" lengthAdjust="spacing" textLength="231.7216" x="12" y="72.4081">F extends WitnessArity&lt;TypeArity.Unary&gt;</text><text fill="#24273A" font-family="Helvetica" font-size="12" lengthAdjust="spacing" textLength="291.4341" x="12" y="88.7522">Witness&lt;S,F&gt; also implements WitnessArity&lt;Unary&gt;</text></g><!--class Kind--><g class="entity" data-entity="Kind" data-source-line="8" data-uid="ent0003" id="entity_Kind"><rect fill="#24273A" height="31.792" rx="1.5" ry="1.5" style="stroke:#C6A0F6;stroke-width:2;" width="84.3082" x="515.06" y="279.89"/><rect fill="#363A4F" height="31.792" rx="1.5" ry="1.5" style="stroke:#363A4F;stroke-width:2;" width="84.3082" x="515.06" y="279.89"/><rect fill="#363A4F" height="1.5" style="stroke:#363A4F;stroke-width:2;" width="84.3082" x="515.06" y="310.182"/><rect fill="none" height="31.792" rx="1.5" ry="1.5" style="stroke:#C6A0F6;stroke-width:2;" width="84.3082" x="515.06" y="279.89"/><ellipse cx="529.06" cy="295.786" fill="#B4A7E5" rx="10" ry="10" style="stroke:#181818;stroke-width:1;"/><path d="M526.6381,300.286 L526.6381,299.0829 L528.31,298.8954 L528.31,293.1141 L526.6381,292.911 L526.6381,291.7235 L531.685,291.7235 L531.685,292.911 L529.9819,293.1141 L529.9819,298.8954 L531.685,299.0829 L531.685,300.286 L526.6381,300.286 Z " fill="#CAD3F5"/><text fill="#A6DA95" font-family="Helvetica" font-size="16" font-style="italic" lengthAdjust="spacing" textLength="31.6481" x="542.06" y="301.994">Kind</text><rect fill="#24273A" height="18.3441" style="stroke:#C6A0F6;stroke-width:1;stroke-dasharray:2,2;" width="20.6601" x="581.7081" y="276.89"/><text fill="#CAD3F5" font-family="Helvetica" font-size="12" font-style="italic" lengthAdjust="spacing" textLength="18.6601" x="582.7081" y="290.7181">F, A</text></g><!--class Monad--><g class="entity" data-entity="Monad" data-source-line="12" data-uid="ent0004" id="entity_Monad"><rect fill="#24273A" height="31.792" rx="1.5" ry="1.5" style="stroke:#C6A0F6;stroke-width:2;" width="89.8041" x="1797.31" y="479.23"/><rect fill="#363A4F" height="31.792" rx="1.5" ry="1.5" style="stroke:#363A4F;stroke-width:2;" width="89.8041" x="1797.31" y="479.23"/><rect fill="#363A4F" height="1.5" style="stroke:#363A4F;stroke-width:2;" width="89.8041" x="1797.31" y="509.522"/><rect fill="none" height="31.792" rx="1.5" ry="1.5" style="stroke:#C6A0F6;stroke-width:2;" width="89.8041" x="1797.31" y="479.23"/><ellipse cx="1811.31" cy="495.126" fill="#B4A7E5" rx="10" ry="10" style="stroke:#181818;stroke-width:1;"/><path d="M1808.8881,499.626 L1808.8881,498.4229 L1810.56,498.2354 L1810.56,492.4541 L1808.8881,492.251 L1808.8881,491.0635 L1813.935,491.0635 L1813.935,492.251 L1812.2319,492.4541 L1812.2319,498.2354 L1813.935,498.4229 L1813.935,499.626 L1808.8881,499.626 Z " fill="#CAD3F5"/><text fill="#A6DA95" font-family="Helvetica" font-size="16" font-style="italic" lengthAdjust="spacing" textLength="50.0801" x="1824.31" y="501.334">Monad</text><rect fill="#24273A" height="18.3441" style="stroke:#C6A0F6;stroke-width:1;stroke-dasharray:2,2;" width="7.724" x="1882.3901" y="476.23"/><text fill="#CAD3F5" font-family="Helvetica" font-size="12" font-style="italic" lengthAdjust="spacing" textLength="5.724" x="1883.3901" y="490.0581">F</text></g><!--class StateTuple--><g class="entity" data-entity="StateTuple" data-source-line="18" data-uid="ent0005" id="entity_StateTuple"><rect fill="#24273A" height="96.8244" rx="1.5" ry="1.5" style="stroke:#C6A0F6;stroke-width:2;" width="190.0732" x="816.18" y="446.71"/><rect fill="#363A4F" height="31.792" rx="1.5" ry="1.5" style="stroke:#363A4F;stroke-width:2;" width="190.0732" x="816.18" y="446.71"/><rect fill="#363A4F" height="1.5" style="stroke:#363A4F;stroke-width:2;" width="190.0732" x="816.18" y="477.002"/><rect fill="none" height="96.8244" rx="1.5" ry="1.5" style="stroke:#C6A0F6;stroke-width:2;" width="190.0732" x="816.18" y="446.71"/><ellipse cx="855.8142" cy="462.606" fill="#ADD1B2" rx="10" ry="10" style="stroke:#181818;stroke-width:1;"/><path d="M855.5329,467.231 Q854.2829,467.231 853.4861,466.7154 Q852.6892,466.1841 852.2986,465.231 Q851.9079,464.2779 851.9079,462.9966 Q851.9079,461.5748 852.3767,460.5591 Q852.8454,459.5279 853.7517,458.981 Q854.6579,458.4185 855.9704,458.4185 Q856.5954,458.4185 857.0642,458.5435 Q857.5486,458.6685 858.0329,458.9029 L857.4548,460.3404 Q857.0173,460.106 856.6267,460.0279 Q856.2517,459.9498 855.9079,459.9498 Q855.0798,459.9498 854.5798,460.3248 Q854.0954,460.6841 853.8767,461.356 Q853.6736,462.0279 853.6736,462.9341 Q853.6736,464.3404 854.1736,465.0279 Q854.6892,465.6998 855.8142,465.6998 Q856.2361,465.6998 856.6736,465.5904 Q857.1111,465.481 857.7048,465.2154 L857.7048,466.7779 Q857.1892,467.0123 856.6267,467.1216 Q856.0642,467.231 855.5329,467.231 Z " fill="#CAD3F5"/><text fill="#A6DA95" font-family="Helvetica" font-size="16" lengthAdjust="spacing" textLength="80.1122" x="874.5107" y="468.814">StateTuple</text><rect fill="#24273A" height="18.3441" style="stroke:#C6A0F6;stroke-width:1;stroke-dasharray:2,2;" width="20.9961" x="988.257" y="443.71"/><text fill="#CAD3F5" font-family="Helvetica" font-size="12" font-style="italic" lengthAdjust="spacing" textLength="18.9961" x="989.257" y="457.5381">S, A</text><line style="stroke:#C6A0F6;stroke-width:2;" x1="817.18" x2="1005.2532" y1="478.502" y2="478.502"/><ellipse cx="827.18" cy="492.1741" fill="none" rx="3" ry="3" style="stroke:#038048;stroke-width:1;"/><text fill="#A6DA95" font-family="Helvetica" font-size="12" lengthAdjust="spacing" textLength="37.6203" x="835.18" y="495.3301">S state</text><ellipse cx="827.18" cy="508.5182" fill="none" rx="3" ry="3" style="stroke:#038048;stroke-width:1;"/><text fill="#A6DA95" font-family="Helvetica" font-size="12" lengthAdjust="spacing" textLength="40.8963" x="835.18" y="511.6742">A value</text><line style="stroke:#C6A0F6;stroke-width:2;" x1="817.18" x2="1005.2532" y1="519.1903" y2="519.1903"/><ellipse cx="827.18" cy="532.8623" fill="#84BE84" rx="3" ry="3" style="stroke:#038048;stroke-width:1;"/><text fill="#A6DA95" font-family="Helvetica" font-size="12" lengthAdjust="spacing" text-decoration="underline" textLength="165.0732" x="835.18" y="536.0184">of(s: S, a: A): StateTuple&lt;S, A&gt;</text></g><!--class StateT--><g class="entity" data-entity="StateT" data-source-line="26" data-uid="ent0006" id="entity_StateT"><rect fill="#24273A" height="145.8567" rx="1.5" ry="1.5" style="stroke:#C6A0F6;stroke-width:2;" width="691.0045" x="948.71" y="222.86"/><rect fill="#363A4F" height="31.792" rx="1.5" ry="1.5" style="stroke:#363A4F;stroke-width:2;" width="691.0045" x="948.71" y="222.86"/><rect fill="#363A4F" height="1.5" style="stroke:#363A4F;stroke-width:2;" width="691.0045" x="948.71" y="253.152"/><rect fill="none" height="145.8567" rx="1.5" ry="1.5" style="stroke:#C6A0F6;stroke-width:2;" width="691.0045" x="948.71" y="222.86"/><ellipse cx="1223.2979" cy="238.756" fill="#ADD1B2" rx="10" ry="10" style="stroke:#181818;stroke-width:1;"/><path d="M1223.0167,243.381 Q1221.7667,243.381 1220.9698,242.8654 Q1220.1729,242.3341 1219.7823,241.381 Q1219.3917,240.4279 1219.3917,239.1466 Q1219.3917,237.7248 1219.8604,236.7091 Q1220.3292,235.6779 1221.2354,235.131 Q1222.1417,234.5685 1223.4542,234.5685 Q1224.0792,234.5685 1224.5479,234.6935 Q1225.0323,234.8185 1225.5167,235.0529 L1224.9385,236.4904 Q1224.501,236.256 1224.1104,236.1779 Q1223.7354,236.0998 1223.3917,236.0998 Q1222.5635,236.0998 1222.0635,236.4748 Q1221.5792,236.8341 1221.3604,237.506 Q1221.1573,238.1779 1221.1573,239.0841 Q1221.1573,240.4904 1221.6573,241.1779 Q1222.1729,241.8498 1223.2979,241.8498 Q1223.7198,241.8498 1224.1573,241.7404 Q1224.5948,241.631 1225.1885,241.3654 L1225.1885,242.9279 Q1224.6729,243.1623 1224.1104,243.2716 Q1223.5479,243.381 1223.0167,243.381 Z " fill="#CAD3F5"/><text fill="#A6DA95" font-family="Helvetica" font-size="16" lengthAdjust="spacing" textLength="47.2321" x="1242.2979" y="244.964">StateT</text><rect fill="#24273A" height="18.3441" style="stroke:#C6A0F6;stroke-width:1;stroke-dasharray:2,2;" width="84.5966" x="1558.1179" y="219.86"/><text fill="#CAD3F5" font-family="Helvetica" font-size="12" font-style="italic" lengthAdjust="spacing" textLength="82.5966" x="1559.1179" y="233.6881">S, F_WITNESS, A</text><line style="stroke:#C6A0F6;stroke-width:2;" x1="949.71" x2="1638.7145" y1="254.652" y2="254.652"/><rect fill="none" height="6" style="stroke:#C82930;stroke-width:1;" width="6" x="956.71" y="265.3241"/><text fill="#A6DA95" font-family="Helvetica" font-size="12" lengthAdjust="spacing" textLength="303.9141" x="967.71" y="271.4801">run: Function&lt;S, Kind&lt;F_WITNESS, StateTuple&lt;S, A&gt;&gt;&gt;</text><rect fill="none" height="6" style="stroke:#C82930;stroke-width:1;" width="6" x="956.71" y="281.6682"/><text fill="#A6DA95" font-family="Helvetica" font-size="12" lengthAdjust="spacing" textLength="168.3971" x="967.71" y="287.8242">monadF: Monad&lt;F_WITNESS&gt;</text><line style="stroke:#C6A0F6;stroke-width:2;" x1="949.71" x2="1638.7145" y1="295.3403" y2="295.3403"/><ellipse cx="959.71" cy="309.0123" fill="#84BE84" rx="3" ry="3" style="stroke:#038048;stroke-width:1;"/><text fill="#A6DA95" font-family="Helvetica" font-size="12" lengthAdjust="spacing" text-decoration="underline" textLength="666.0045" x="967.71" y="312.1684">create(run: Function&lt;S, Kind&lt;F_WITNESS, StateTuple&lt;S, A&gt;&gt;&gt;, monadF: Monad&lt;F_WITNESS&gt;): StateT&lt;S, F_WITNESS, A&gt;</text><ellipse cx="959.71" cy="325.3564" fill="#84BE84" rx="3" ry="3" style="stroke:#038048;stroke-width:1;"/><text fill="#A6DA95" font-family="Helvetica" font-size="12" lengthAdjust="spacing" textLength="289.634" x="967.71" y="328.5125">runStateT(s: S): Kind&lt;F_WITNESS, StateTuple&lt;S, A&gt;&gt;</text><ellipse cx="959.71" cy="341.7006" fill="#84BE84" rx="3" ry="3" style="stroke:#038048;stroke-width:1;"/><text fill="#A6DA95" font-family="Helvetica" font-size="12" lengthAdjust="spacing" textLength="205.8014" x="967.71" y="344.8566">evalStateT(s: S): Kind&lt;F_WITNESS, A&gt;</text><ellipse cx="959.71" cy="358.0447" fill="#84BE84" rx="3" ry="3" style="stroke:#038048;stroke-width:1;"/><text fill="#A6DA95" font-family="Helvetica" font-size="12" lengthAdjust="spacing" textLength="207.6734" x="967.71" y="361.2007">execStateT(s: S): Kind&lt;F_WITNESS, S&gt;</text></g><!--class StateTWitness--><g class="entity" data-entity="StateTWitness" data-source-line="38" data-uid="ent0007" id="entity_StateTWitness"><rect fill="#24273A" height="31.792" rx="1.5" ry="1.5" style="stroke:#C6A0F6;stroke-width:2;" width="237.4048" x="533.51" y="621.54"/><rect fill="#363A4F" height="31.792" rx="1.5" ry="1.5" style="stroke:#363A4F;stroke-width:2;" width="237.4048" x="533.51" y="621.54"/><rect fill="#363A4F" height="1.5" style="stroke:#363A4F;stroke-width:2;" width="237.4048" x="533.51" y="651.832"/><rect fill="none" height="31.792" rx="1.5" ry="1.5" style="stroke:#C6A0F6;stroke-width:2;" width="237.4048" x="533.51" y="621.54"/><ellipse cx="547.51" cy="637.436" fill="#B4A7E5" rx="10" ry="10" style="stroke:#181818;stroke-width:1;"/><path d="M545.0881,641.936 L545.0881,640.7329 L546.76,640.5454 L546.76,634.7641 L545.0881,634.561 L545.0881,633.3735 L550.135,633.3735 L550.135,634.561 L548.4319,634.7641 L548.4319,640.5454 L550.135,640.7329 L550.135,641.936 L545.0881,641.936 Z " fill="#CAD3F5"/><text fill="#A6DA95" font-family="Helvetica" font-size="16" font-style="italic" lengthAdjust="spacing" textLength="133.7443" x="560.51" y="643.644">StateTKind.Witness</text><rect fill="#24273A" height="18.3441" style="stroke:#C6A0F6;stroke-width:1;stroke-dasharray:2,2;" width="71.6605" x="702.2543" y="618.54"/><text fill="#CAD3F5" font-family="Helvetica" font-size="12" font-style="italic" lengthAdjust="spacing" textLength="69.6605" x="703.2543" y="632.3681">S, F_WITNESS</text></g><!--class StateTKind--><g class="entity" data-entity="StateTKind" data-source-line="44" data-uid="ent0008" id="entity_StateTKind"><rect fill="#24273A" height="31.792" rx="1.5" ry="1.5" style="stroke:#C6A0F6;stroke-width:2;" width="192.0368" x="403.2" y="479.23"/><rect fill="#363A4F" height="31.792" rx="1.5" ry="1.5" style="stroke:#363A4F;stroke-width:2;" width="192.0368" x="403.2" y="479.23"/><rect fill="#363A4F" height="1.5" style="stroke:#363A4F;stroke-width:2;" width="192.0368" x="403.2" y="509.522"/><rect fill="none" height="31.792" rx="1.5" ry="1.5" style="stroke:#C6A0F6;stroke-width:2;" width="192.0368" x="403.2" y="479.23"/><ellipse cx="417.2" cy="495.126" fill="#B4A7E5" rx="10" ry="10" style="stroke:#181818;stroke-width:1;"/><path d="M414.7781,499.626 L414.7781,498.4229 L416.45,498.2354 L416.45,492.4541 L414.7781,492.251 L414.7781,491.0635 L419.825,491.0635 L419.825,492.251 L418.1219,492.4541 L418.1219,498.2354 L419.825,498.4229 L419.825,499.626 L414.7781,499.626 Z " fill="#CAD3F5"/><text fill="#A6DA95" font-family="Helvetica" font-size="16" font-style="italic" lengthAdjust="spacing" textLength="75.4402" x="430.2" y="501.334">StateTKind</text><rect fill="#24273A" height="18.3441" style="stroke:#C6A0F6;stroke-width:1;stroke-dasharray:2,2;" width="84.5966" x="513.6402" y="476.23"/><text fill="#CAD3F5" font-family="Helvetica" font-size="12" font-style="italic" lengthAdjust="spacing" textLength="82.5966" x="514.6402" y="490.0581">S, F_WITNESS, A</text></g><!--class StateTMonadInstance--><g class="entity" data-entity="StateTMonadInstance" data-source-line="48" data-uid="ent0010" id="entity_StateTMonadInstance"><rect fill="#24273A" height="80.4803" rx="1.5" ry="1.5" style="stroke:#C6A0F6;stroke-width:2;" width="418.3747" x="1675.03" y="255.55"/><rect fill="#363A4F" height="31.792" rx="1.5" ry="1.5" style="stroke:#363A4F;stroke-width:2;" width="418.3747" x="1675.03" y="255.55"/><rect fill="#363A4F" height="1.5" style="stroke:#363A4F;stroke-width:2;" width="418.3747" x="1675.03" y="285.842"/><rect fill="none" height="80.4803" rx="1.5" ry="1.5" style="stroke:#C6A0F6;stroke-width:2;" width="418.3747" x="1675.03" y="255.55"/><ellipse cx="1793.323" cy="271.446" fill="#ADD1B2" rx="10" ry="10" style="stroke:#181818;stroke-width:1;"/><path d="M1793.0417,276.071 Q1791.7917,276.071 1790.9949,275.5554 Q1790.198,275.0241 1789.8074,274.071 Q1789.4167,273.1179 1789.4167,271.8366 Q1789.4167,270.4148 1789.8855,269.3991 Q1790.3542,268.3679 1791.2605,267.821 Q1792.1667,267.2585 1793.4792,267.2585 Q1794.1042,267.2585 1794.573,267.3835 Q1795.0574,267.5085 1795.5417,267.7429 L1794.9636,269.1804 Q1794.5261,268.946 1794.1355,268.8679 Q1793.7605,268.7898 1793.4167,268.7898 Q1792.5886,268.7898 1792.0886,269.1648 Q1791.6042,269.5241 1791.3855,270.196 Q1791.1824,270.8679 1791.1824,271.7741 Q1791.1824,273.1804 1791.6824,273.8679 Q1792.198,274.5398 1793.323,274.5398 Q1793.7449,274.5398 1794.1824,274.4304 Q1794.6199,274.321 1795.2136,274.0554 L1795.2136,275.6179 Q1794.698,275.8523 1794.1355,275.9616 Q1793.573,276.071 1793.0417,276.071 Z " fill="#CAD3F5"/><text fill="#A6DA95" font-family="Helvetica" font-size="16" lengthAdjust="spacing" textLength="100.1282" x="1812.323" y="277.654">StateTMonad</text><rect fill="#24273A" height="18.3441" style="stroke:#C6A0F6;stroke-width:1;stroke-dasharray:2,2;" width="71.6605" x="2024.7442" y="252.55"/><text fill="#CAD3F5" font-family="Helvetica" font-size="12" font-style="italic" lengthAdjust="spacing" textLength="69.6605" x="2025.7442" y="266.3781">S, F_WITNESS</text><line style="stroke:#C6A0F6;stroke-width:2;" x1="1676.03" x2="2092.4047" y1="287.342" y2="287.342"/><rect fill="none" height="6" style="stroke:#C82930;stroke-width:1;" width="6" x="1683.03" y="298.0141"/><text fill="#A6DA95" font-family="Helvetica" font-size="12" lengthAdjust="spacing" textLength="168.3971" x="1694.03" y="304.1701">monadF: Monad&lt;F_WITNESS&gt;</text><line style="stroke:#C6A0F6;stroke-width:2;" x1="1676.03" x2="2092.4047" y1="311.6862" y2="311.6862"/><ellipse cx="1686.03" cy="325.3582" fill="#84BE84" rx="3" ry="3" style="stroke:#038048;stroke-width:1;"/><text fill="#A6DA95" font-family="Helvetica" font-size="12" lengthAdjust="spacing" text-decoration="underline" textLength="393.3747" x="1694.03" y="328.5142">instance(monadF: Monad&lt;F_WITNESS&gt;): StateTMonad&lt;S, F_WITNESS&gt;</text></g><!--class StateTKindHelper--><g class="entity" data-entity="StateTKindHelper" data-source-line="56" data-uid="ent0012" id="entity_StateTKindHelper"><rect fill="#24273A" height="137.8567" rx="1.5" ry="1.5" style="stroke:#C6A0F6;stroke-width:2;" width="773.9491" x="353.24" y="7"/><rect fill="#363A4F" height="31.792" rx="1.5" ry="1.5" style="stroke:#363A4F;stroke-width:2;" width="773.9491" x="353.24" y="7"/><rect fill="#363A4F" height="1.5" style="stroke:#363A4F;stroke-width:2;" width="773.9491" x="353.24" y="37.292"/><rect fill="none" height="137.8567" rx="1.5" ry="1.5" style="stroke:#C6A0F6;stroke-width:2;" width="773.9491" x="353.24" y="7"/><ellipse cx="670.4784" cy="22.896" fill="#ADD1B2" rx="10" ry="10" style="stroke:#181818;stroke-width:1;"/><path d="M670.1972,27.521 Q668.9472,27.521 668.1503,27.0054 Q667.3534,26.4741 666.9628,25.521 Q666.5722,24.5679 666.5722,23.2866 Q666.5722,21.8648 667.0409,20.8491 Q667.5097,19.8179 668.4159,19.271 Q669.3222,18.7085 670.6347,18.7085 Q671.2597,18.7085 671.7284,18.8335 Q672.2128,18.9585 672.6972,19.1929 L672.119,20.6304 Q671.6815,20.396 671.2909,20.3179 Q670.9159,20.2398 670.5722,20.2398 Q669.744,20.2398 669.244,20.6148 Q668.7597,20.9741 668.5409,21.646 Q668.3378,22.3179 668.3378,23.2241 Q668.3378,24.6304 668.8378,25.3179 Q669.3534,25.9898 670.4784,25.9898 Q670.9003,25.9898 671.3378,25.8804 Q671.7753,25.771 672.369,25.5054 L672.369,27.0679 Q671.8534,27.3023 671.2909,27.4116 Q670.7284,27.521 670.1972,27.521 Z " fill="#CAD3F5"/><text fill="#A6DA95" font-family="Helvetica" font-size="16" lengthAdjust="spacing" textLength="131.4723" x="689.4784" y="29.104">StateTKindHelper</text><line style="stroke:#C6A0F6;stroke-width:2;" x1="354.24" x2="1126.1891" y1="38.792" y2="38.792"/><ellipse cx="364.24" cy="52.4641" fill="#84BE84" rx="3" ry="3" style="stroke:#038048;stroke-width:1;"/><text fill="#A6DA95" font-family="Helvetica" font-size="12" lengthAdjust="spacing" text-decoration="underline" textLength="473.7873" x="372.24" y="55.6201">narrow(kind: Kind&lt;StateTKind.Witness&lt;S, F_WITNESS&gt;, A&gt;): StateT&lt;S, F_WITNESS, A&gt;</text><ellipse cx="364.24" cy="68.8082" fill="#84BE84" rx="3" ry="3" style="stroke:#038048;stroke-width:1;"/><text fill="#A6DA95" font-family="Helvetica" font-size="12" lengthAdjust="spacing" text-decoration="underline" textLength="477.4112" x="372.24" y="71.9642">widen(stateT: StateT&lt;S, F_WITNESS, A&gt;): Kind&lt;StateTKind.Witness&lt;S, F_WITNESS&gt;, A&gt;</text><ellipse cx="364.24" cy="85.1523" fill="#84BE84" rx="3" ry="3" style="stroke:#038048;stroke-width:1;"/><text fill="#A6DA95" font-family="Helvetica" font-size="12" lengthAdjust="spacing" text-decoration="underline" textLength="576.964" x="372.24" y="88.3084">runStateT(kind: Kind&lt;StateTKind.Witness&lt;S, F_WITNESS&gt;, A&gt;, s: S): Kind&lt;F_WITNESS, StateTuple&lt;S, A&gt;&gt;</text><ellipse cx="364.24" cy="101.4964" fill="#84BE84" rx="3" ry="3" style="stroke:#038048;stroke-width:1;"/><text fill="#A6DA95" font-family="Helvetica" font-size="12" lengthAdjust="spacing" text-decoration="underline" textLength="493.1314" x="372.24" y="104.6525">evalStateT(kind: Kind&lt;StateTKind.Witness&lt;S, F_WITNESS&gt;, A&gt;, s: S): Kind&lt;F_WITNESS, A&gt;</text><ellipse cx="364.24" cy="117.8406" fill="#84BE84" rx="3" ry="3" style="stroke:#038048;stroke-width:1;"/><text fill="#A6DA95" font-family="Helvetica" font-size="12" lengthAdjust="spacing" text-decoration="underline" textLength="495.0034" x="372.24" y="120.9966">execStateT(kind: Kind&lt;StateTKind.Witness&lt;S, F_WITNESS&gt;, A&gt;, s: S): Kind&lt;F_WITNESS, S&gt;</text><ellipse cx="364.24" cy="134.1847" fill="#84BE84" rx="3" ry="3" style="stroke:#038048;stroke-width:1;"/><text fill="#A6DA95" font-family="Helvetica" font-size="12" lengthAdjust="spacing" text-decoration="underline" textLength="748.9491" x="372.24" y="137.3407">lift(fn: Function&lt;S, Kind&lt;F_WITNESS, StateTuple&lt;S,A&gt;&gt;&gt;, monadF: Monad&lt;F_WITNESS&gt;) : Kind&lt;StateTKind.Witness&lt;S, F_WITNESS&gt;, A&gt;</text></g><!--reverse link Kind to StateTKind--><g class="link" data-entity-1="Kind" data-entity-2="StateTKind" data-uid="lnk9" id="link_Kind_StateTKind"><path d="M547.6879,329.2106 C536.8979,365.9506 514.5,442.13 503.69,478.92" fill="none" id="Kind-backto-StateTKind" style="stroke:#F5BDE6;stroke-width:1;"/><polygon fill="none" points="552.76,311.94,541.931,327.5199,553.4447,330.9013,552.76,311.94" style="stroke:#F5BDE6;stroke-width:1;"/></g><!--reverse link Monad to StateTMonadInstance--><g class="link" data-entity-1="Monad" data-entity-2="StateTMonadInstance" data-source-line="51" data-uid="lnk11" id="link_Monad_StateTMonadInstance"><path d="M1905.2547,484.089 C1972.2147,472.689 2074.75,450.95 2100.22,416.71 C2126.4,381.53 2097.2,355.32 2052.7,336.52" fill="none" id="Monad-backto-StateTMonadInstance" style="stroke:#F5BDE6;stroke-width:1;stroke-dasharray:7,7;"/><polygon fill="none" points="1887.51,487.11,1906.2617,490.0038,1904.2477,478.1741,1887.51,487.11" style="stroke:#F5BDE6;stroke-width:1;"/></g><!--link StateTMonadInstance to Monad--><g class="link" data-entity-1="StateTMonadInstance" data-entity-2="Monad" data-source-line="69" data-uid="lnk15" id="link_StateTMonadInstance_Monad"><path codeLine="69" d="M1793.18,336.44 C1768.25,352.04 1744.25,372.59 1730.22,398.71 C1726.43,405.76 1726.5,409.63 1730.22,416.71 C1739.36,434.14 1768.3328,452.7426 1798.4228,469.8526" fill="none" id="StateTMonadInstance-to-Monad" style="stroke:#F5BDE6;stroke-width:1;stroke-dasharray:7,7;"/><polygon fill="none" points="1814.07,478.75,1801.3886,464.6368,1795.457,475.0683,1814.07,478.75" style="stroke:#F5BDE6;stroke-width:1;"/><text fill="#CAD3F5" font-family="Helvetica" font-size="12" lengthAdjust="spacing" textLength="67.0445" x="1731.22" y="412.5381">implements</text></g><!--link StateTMonadInstance to Monad--><g class="link" data-entity-1="StateTMonadInstance" data-entity-2="Monad" data-source-line="71" data-uid="lnk17" id="link_StateTMonadInstance_Monad"><path codeLine="71" d="M1860.04,336.42 C1850.27,354.69 1840.15,377.08 1835.22,398.71 C1828.87,426.57 1832.9172,454.2009 1837.1072,473.1909" fill="none" id="StateTMonadInstance-to-Monad-1" style="stroke:#F5BDE6;stroke-width:1;stroke-dasharray:7,7;"/><polygon fill="#F5BDE6" points="1838.4,479.05,1840.3669,469.3995,1837.3227,474.1674,1832.5548,471.1232,1838.4,479.05" style="stroke:#F5BDE6;stroke-width:1;"/><text fill="#CAD3F5" font-family="Helvetica" font-size="12" lengthAdjust="spacing" textLength="255.0618" x="1836.22" y="412.5381">depends on (holds ref to underlying monadF)</text></g><!--link StateT to StateTKind--><g class="link" data-entity-1="StateT" data-entity-2="StateTKind" data-source-line="67" data-uid="lnk13" id="link_StateT_StateTKind"><path codeLine="67" d="M1002.7,369.15 C841.62,409.13 672.9502,451.0048 578.5302,474.4348" fill="none" id="StateT-to-StateTKind" style="stroke:#F5BDE6;stroke-width:1;stroke-dasharray:7,7;"/><polygon fill="none" points="561.06,478.77,579.9752,480.2582,577.0851,468.6115,561.06,478.77" style="stroke:#F5BDE6;stroke-width:1;"/><text fill="#CAD3F5" font-family="Helvetica" font-size="12" lengthAdjust="spacing" textLength="67.0445" x="873.88" y="412.5381">implements</text></g><!--link StateTKind to StateTWitness--><g class="link" data-entity-1="StateTKind" data-entity-2="StateTWitness" data-source-line="68" data-uid="lnk14" id="link_StateTKind_StateTWitness"><path codeLine="68" d="M492.18,511.43 C483.94,531.88 473.53,568.24 491.22,591.54 C500.61,603.9 524.4267,612.4079 555.7867,619.7179" fill="none" id="StateTKind-to-StateTWitness" style="stroke:#F5BDE6;stroke-width:1;stroke-dasharray:7,7;"/><polygon fill="#F5BDE6" points="561.63,621.08,553.773,615.1413,556.7605,619.9449,551.9569,622.9324,561.63,621.08" style="stroke:#F5BDE6;stroke-width:1;"/><text fill="#CAD3F5" font-family="Helvetica" font-size="12" lengthAdjust="spacing" textLength="133.4169" x="492.22" y="587.3681">uses witness (phantom)</text></g><!--link StateTMonadInstance to StateTWitness--><g class="link" data-entity-1="StateTMonadInstance" data-entity-2="StateTWitness" data-source-line="70" data-uid="lnk16" id="link_StateTMonadInstance_StateTWitness"><path codeLine="70" d="M1788.26,336.4 C1725.48,361.44 1641.29,393.36 1565.22,416.71 C1260.53,510.26 894.6315,587.8834 735.9215,619.9034" fill="none" id="StateTMonadInstance-to-StateTWitness" style="stroke:#F5BDE6;stroke-width:1;stroke-dasharray:7,7;"/><polygon fill="#F5BDE6" points="730.04,621.09,739.6533,623.2311,734.9412,620.1012,738.0712,615.3891,730.04,621.09" style="stroke:#F5BDE6;stroke-width:1;"/><text fill="#CAD3F5" font-family="Helvetica" font-size="12" lengthAdjust="spacing" textLength="160.7532" x="1457.54" y="499.9581">uses witness (for Monad&lt;F&gt;)</text></g><!--link StateT to Monad--><g class="link" data-entity-1="StateT" data-entity-2="Monad" data-source-line="72" data-uid="lnk18" id="link_StateT_Monad"><path codeLine="72" d="M1377.32,368.94 C1402.98,387.53 1432.38,405.46 1462.22,416.71 C1585.53,463.22 1631.52,407.13 1757.22,446.71 C1780.26,453.97 1799.0801,464.6084 1815.6201,475.5084" fill="none" id="StateT-to-Monad" style="stroke:#F5BDE6;stroke-width:1;stroke-dasharray:7,7;"/><polygon fill="#F5BDE6" points="1820.63,478.81,1815.3162,470.5177,1816.4551,476.0587,1810.914,477.1976,1820.63,478.81" style="stroke:#F5BDE6;stroke-width:1;"/><text fill="#CAD3F5" font-family="Helvetica" font-size="12" lengthAdjust="spacing" textLength="255.0618" x="1463.22" y="412.5381">depends on (holds ref to underlying monadF)</text></g><!--link StateT to StateTuple--><g class="link" data-entity-1="StateT" data-entity-2="StateTuple" data-source-line="73" data-uid="lnk19" id="link_StateT_StateTuple"><path codeLine="73" d="M1104.44,369.09 C1084.13,378.41 1064.04,388.34 1045.22,398.71 C1020.2,412.5 999.1339,426.5294 976.8339,442.8294" fill="none" id="StateT-to-StateTuple" style="stroke:#F5BDE6;stroke-width:1;stroke-dasharray:7,7;"/><polygon fill="#F5BDE6" points="971.99,446.37,981.6164,444.2883,976.0266,443.4195,976.8955,437.8297,971.99,446.37" style="stroke:#F5BDE6;stroke-width:1;"/><text fill="#CAD3F5" font-family="Helvetica" font-size="12" lengthAdjust="spacing" textLength="210.7935" x="1046.22" y="412.5381">uses (in its run function's return type)</text></g><!--link StateTKindHelper to StateT--><g class="link" data-entity-1="StateTKindHelper" data-entity-2="StateT" data-source-line="74" data-uid="lnk20" id="link_StateTKindHelper_StateT"><path codeLine="74" d="M913.99,145.26 C976.34,169.78 1041.256,195.3147 1104.466,220.1647" fill="none" id="StateTKindHelper-to-StateT" style="stroke:#F5BDE6;stroke-width:1;stroke-dasharray:7,7;"/><polygon fill="#F5BDE6" points="1110.05,222.36,1103.1375,215.3445,1105.3967,220.5306,1100.2105,222.7898,1110.05,222.36" style="stroke:#F5BDE6;stroke-width:1;"/><text fill="#CAD3F5" font-family="Helvetica" font-size="12" lengthAdjust="spacing" textLength="139.321" x="1034.83" y="188.6881">narrows to/ widens from</text></g><!--link StateTKindHelper to StateTKind--><g class="link" data-entity-1="StateTKindHelper" data-entity-2="StateTKind" data-source-line="75" data-uid="lnk21" id="link_StateTKindHelper_StateTKind"><path codeLine="75" d="M512.02,145.34 C478.77,165.1 448.84,190.44 428.22,222.86 C373.6,308.7 451.9337,430.3402 483.8437,473.8902" fill="none" id="StateTKindHelper-to-StateTKind" style="stroke:#F5BDE6;stroke-width:1;stroke-dasharray:7,7;"/><polygon fill="#F5BDE6" points="487.39,478.73,485.2972,469.1061,484.4348,474.6968,478.8441,473.8344,487.39,478.73" style="stroke:#F5BDE6;stroke-width:1;"/><text fill="#CAD3F5" font-family="Helvetica" font-size="12" lengthAdjust="spacing" textLength="67.7405" x="429.22" y="300.6181">operates on</text></g><!--link StateTKindHelper to StateTWitness--><g class="link" data-entity-1="StateTKindHelper" data-entity-2="StateTWitness" data-source-line="76" data-uid="lnk22" id="link_StateTKindHelper_StateTWitness"><path codeLine="76" d="M724.14,145.27 C722.02,155.17 719.98,165.26 718.22,174.86 C686.22,349.23 661.3586,557.0896 654.6386,615.2596" fill="none" id="StateTKindHelper-to-StateTWitness" style="stroke:#F5BDE6;stroke-width:1;stroke-dasharray:7,7;"/><polygon fill="#F5BDE6" points="653.95,621.22,658.9564,612.7385,654.5238,616.253,651.0093,611.8204,653.95,621.22" style="stroke:#F5BDE6;stroke-width:1;"/><text fill="#CAD3F5" font-family="Helvetica" font-size="12" lengthAdjust="spacing" textLength="71.3405" x="683.04" y="412.5381">uses witness</text></g><!--link StateTKindHelper to StateTuple--><g class="link" data-entity-1="StateTKindHelper" data-entity-2="StateTuple" data-source-line="77" data-uid="lnk23" id="link_StateTKindHelper_StateTuple"><path codeLine="77" d="M729.62,145.24 C723.34,207.08 722.5,298.9 758.22,368.71 C774.17,399.9 796.8812,422.5751 824.2312,442.8651" fill="none" id="StateTKindHelper-to-StateTuple" style="stroke:#F5BDE6;stroke-width:1;stroke-dasharray:7,7;"/><polygon fill="#F5BDE6" points="829.05,446.44,824.2051,437.8652,825.0344,443.4609,819.4386,444.2902,829.05,446.44" style="stroke:#F5BDE6;stroke-width:1;"/><text fill="#CAD3F5" font-family="Helvetica" font-size="12" lengthAdjust="spacing" textLength="171.5292" x="759.22" y="300.6181">uses (in runStateT return type)</text></g><!--link StateTKindHelper to Monad--><g class="link" data-entity-1="StateTKindHelper" data-entity-2="Monad" data-source-line="78" data-uid="lnk24" id="link_StateTKindHelper_Monad"><path codeLine="78" d="M1127.3,93.59 C1508.13,113.84 2042.38,154.12 2111.22,222.86 C2172.48,284.02 2182.89,348.01 2130.22,416.71 C2100.8,455.08 1966.9857,477.8647 1893.5257,487.8147" fill="none" id="StateTKindHelper-to-Monad" style="stroke:#F5BDE6;stroke-width:1;stroke-dasharray:7,7;"/><polygon fill="#F5BDE6" points="1887.58,488.62,1897.0355,491.3758,1892.5348,487.9489,1895.9617,483.4482,1887.58,488.62" style="stroke:#F5BDE6;stroke-width:1;"/><text fill="#CAD3F5" font-family="Helvetica" font-size="12" lengthAdjust="spacing" textLength="70.1165" x="2165.15" y="300.6181">uses (for lift)</text></g><!--SRC=[hLPDRzim3BtxLt2zn44JvsuK1h9XHekYnT1awsN0e2foBSoM34bU6cpzxwDa-QFvRBSU0YYIo4S-ai_wm0KjwXM3t9XAnxEP8kleaPkyVgWrKrGAmuI9g2ndWafjo9JJ6IMcgcfAkPYMXDAS4oEdLK64gSjYQd9Mibb9k9YvPLJXRf1p165bPJPGilA1AHq4GXe6Pocm9mHPQRZdHZ2jvugRpSLoKp6tYhuAeZR9T-6FBnQJD05IQ0cyh0f446RBjh4u0wB1RTmYK12Cu9DK32wlby0nBPKHodJGBU6QYzL5Ee5v0hy3W16am3LW3ivatG10MEMOg2p1O81ZTs_Utlj5YfgvW-1vuFX62eAU4q2_8u1po0fYRaWLPYA6j1RKS2akvfCkWez9Ce6Cn8EGnl7W5BtRT1Q66BQiaOE05WHZwpUGf3QFSrY0jWTkFM-2TElVTflJPv1Pg6D04uIS8zAs7ulNme6k6EKPf-0maK7qrS2VDJUiJVhZ_cfv-tdXp5qXlBMDo7Asy2WDMyrUPnItvOHCAiTiBLPC5Hik7g6qR4BgRUOnVEjPjtjJKFMGrqNBQn_ITdv9uYsTxpHkAzPQDCS3mgXYw27y1w39GOoEznt-F3gYDHTSiRg6E8Bc3HcM_BXbXy6U63q1Ogy-swBt3UuBRwz6_PJsIGmxeArismXV1kFaocs7ZQ7OhB3OxzWiXqC-rg_slDEdvlA9LBkviq7UiKenxGJAzpzw9ivH6zABqMbwuX1rxlHAO1CAp60WVjxiH6J9Em_VwyU5-vZ3axs_Xm0VtvN86MgvHh726I8LYXN-l9A-9BCduf8L5LC-xq50-7rGSXt-n2lnwyjwSa8x_slysedGgUxoeD7u3T3R0BqMl3672RnHF3h8WOgy5-PkNWFzURV4Ta0AdfcNtzvJqdr2kU5jbMo-tdSCUnV1TSuh7NXvYA8_oL1wui6O1uFzA4gsz3G6VB3fdMVAEDYd7Gx6RUr3sBvx2ihgHFl66H_qqSAjMENKL0e8SrdWIh4CZDoHcNJSi_BVvdqvs_13Bi3g2OuIPBuHHjQRgPNmhxiT9UbTePj6HV3f9sVDnADaAbaUi_95bRYBVsqMnsxl9_oOnNQ2dKwy8g-MuSRO5jKEoXYRzIy0]--></g></svg>