<svg xmlns="http://www.w3.org/2000/svg" xmlns:xlink="http://www.w3.org/1999/xlink" contentStyleType="text/css" data-diagram-type="CLASS" height="474px" preserveAspectRatio="none" style="width:1211px;height:474px;background:#24273A;" version="1.1" viewBox="0 0 1211 474" width="1211px" zoomAndPan="magnify"><defs/><g><rect fill="#24273A" height="474" style="stroke:none;stroke-width:1;" width="1211" x="0" y="0"/><g class="entity" data-entity="ArityNote" data-source-line="4" data-uid="ent0002" id="entity_ArityNote"><path d="M355.49,18.236 L355.49,57.9243 A1.5,1.5 0 0 0 356.99,59.4243 L606.7116,59.4243 A1.5,1.5 0 0 0 608.2116,57.9243 L608.2116,26.736 L598.2116,16.736 L356.99,16.736 A1.5,1.5 0 0 0 355.49,18.236" fill="#EED49F" style="stroke:#24273A;stroke-width:0.5;"/><path d="M598.2116,16.736 L598.2116,25.986 A0.75,0.75 0 0 0 598.9616,26.736 L608.2116,26.736 L598.2116,16.736" fill="#EED49F" style="stroke:#24273A;stroke-width:1;"/><text fill="#24273A" font-family="Helvetica" font-size="12" lengthAdjust="spacing" textLength="231.7216" x="361.49" y="34.5641">F extends WitnessArity&lt;TypeArity.Unary&gt;</text><text fill="#24273A" font-family="Helvetica" font-size="12" lengthAdjust="spacing" textLength="102.8288" x="361.49" y="50.9082">for all type classes</text></g><!--class Functor--><g class="entity" data-entity="Functor" data-source-line="6" data-uid="ent0003" id="entity_Functor"><rect fill="#24273A" height="56.1362" rx="1.5" ry="1.5" style="stroke:#C6A0F6;stroke-width:2;" width="270.1377" x="642.78" y="10.016"/><rect fill="#363A4F" height="31.792" rx="1.5" ry="1.5" style="stroke:#363A4F;stroke-width:2;" width="270.1377" x="642.78" y="10.016"/><rect fill="#363A4F" height="1.5" style="stroke:#363A4F;stroke-width:2;" width="270.1377" x="642.78" y="40.3081"/><rect fill="none" height="56.1362" rx="1.5" ry="1.5" style="stroke:#C6A0F6;stroke-width:2;" width="270.1377" x="642.78" y="10.016"/><ellipse cx="741.9388" cy="25.912" fill="#B4A7E5" rx="10" ry="10" style="stroke:#181818;stroke-width:1;"/><path d="M739.5169,30.412 L739.5169,29.2089 L741.1888,29.0214 L741.1888,23.2402 L739.5169,23.037 L739.5169,21.8495 L744.5638,21.8495 L744.5638,23.037 L742.8606,23.2402 L742.8606,29.0214 L744.5638,29.2089 L744.5638,30.412 L739.5169,30.412 Z " fill="#CAD3F5"/><text fill="#A6DA95" font-family="Helvetica" font-size="16" font-style="italic" lengthAdjust="spacing" textLength="54.0961" x="760.9388" y="32.1201">Functor</text><rect fill="#24273A" height="18.3441" style="stroke:#C6A0F6;stroke-width:1;stroke-dasharray:2,2;" width="7.724" x="908.1936" y="7.016"/><text fill="#CAD3F5" font-family="Helvetica" font-size="12" font-style="italic" lengthAdjust="spacing" textLength="5.724" x="909.1936" y="20.8441">F</text><line style="stroke:#C6A0F6;stroke-width:2;" x1="643.78" x2="911.9177" y1="41.8081" y2="41.8081"/><ellipse cx="653.78" cy="55.4801" fill="#84BE84" rx="3" ry="3" style="stroke:#038048;stroke-width:1;"/><text fill="#A6DA95" font-family="Helvetica" font-size="12" lengthAdjust="spacing" textLength="245.1377" x="661.78" y="58.6362">Kind&lt;F, B&gt; map(Function&lt;A, B&gt;, Kind&lt;F, A&gt;)</text></g><!--class Applicative--><g class="entity" data-entity="Applicative" data-source-line="9" data-uid="ent0004" id="entity_Applicative"><rect fill="#24273A" height="72.4803" rx="1.5" ry="1.5" style="stroke:#C6A0F6;stroke-width:2;" width="310.5299" x="374.59" y="127.146"/><rect fill="#363A4F" height="31.792" rx="1.5" ry="1.5" style="stroke:#363A4F;stroke-width:2;" width="310.5299" x="374.59" y="127.146"/><rect fill="#363A4F" height="1.5" style="stroke:#363A4F;stroke-width:2;" width="310.5299" x="374.59" y="157.4381"/><rect fill="none" height="72.4803" rx="1.5" ry="1.5" style="stroke:#C6A0F6;stroke-width:2;" width="310.5299" x="374.59" y="127.146"/><ellipse cx="482.4889" cy="143.042" fill="#B4A7E5" rx="10" ry="10" style="stroke:#181818;stroke-width:1;"/><path d="M480.067,147.542 L480.067,146.3389 L481.7389,146.1514 L481.7389,140.3702 L480.067,140.167 L480.067,138.9795 L485.1139,138.9795 L485.1139,140.167 L483.4107,140.3702 L483.4107,146.1514 L485.1139,146.3389 L485.1139,147.542 L480.067,147.542 Z " fill="#CAD3F5"/><text fill="#A6DA95" font-family="Helvetica" font-size="16" font-style="italic" lengthAdjust="spacing" textLength="77.0081" x="501.4889" y="149.2501">Applicative</text><rect fill="#24273A" height="18.3441" style="stroke:#C6A0F6;stroke-width:1;stroke-dasharray:2,2;" width="7.724" x="680.3959" y="124.146"/><text fill="#CAD3F5" font-family="Helvetica" font-size="12" font-style="italic" lengthAdjust="spacing" textLength="5.724" x="681.3959" y="137.9741">F</text><line style="stroke:#C6A0F6;stroke-width:2;" x1="375.59" x2="684.1199" y1="158.9381" y2="158.9381"/><ellipse cx="385.59" cy="172.6101" fill="#84BE84" rx="3" ry="3" style="stroke:#038048;stroke-width:1;"/><text fill="#A6DA95" font-family="Helvetica" font-size="12" lengthAdjust="spacing" textLength="88.6566" x="393.59" y="175.7662">Kind&lt;F, A&gt; of(A)</text><ellipse cx="385.59" cy="188.9542" fill="#84BE84" rx="3" ry="3" style="stroke:#038048;stroke-width:1;"/><text fill="#A6DA95" font-family="Helvetica" font-size="12" lengthAdjust="spacing" textLength="285.5299" x="393.59" y="192.1103">Kind&lt;F, B&gt; ap(Kind&lt;F, Function&lt;A, B&gt;&gt;, Kind&lt;F, A&gt;)</text></g><!--class Monad--><g class="entity" data-entity="Monad" data-source-line="13" data-uid="ent0006" id="entity_Monad"><rect fill="#24273A" height="56.1362" rx="1.5" ry="1.5" style="stroke:#C6A0F6;stroke-width:2;" width="339.7021" x="7" y="285.806"/><rect fill="#363A4F" height="31.792" rx="1.5" ry="1.5" style="stroke:#363A4F;stroke-width:2;" width="339.7021" x="7" y="285.806"/><rect fill="#363A4F" height="1.5" style="stroke:#363A4F;stroke-width:2;" width="339.7021" x="7" y="316.0981"/><rect fill="none" height="56.1362" rx="1.5" ry="1.5" style="stroke:#C6A0F6;stroke-width:2;" width="339.7021" x="7" y="285.806"/><ellipse cx="142.949" cy="301.702" fill="#B4A7E5" rx="10" ry="10" style="stroke:#181818;stroke-width:1;"/><path d="M140.5271,306.202 L140.5271,304.9989 L142.199,304.8114 L142.199,299.0302 L140.5271,298.827 L140.5271,297.6395 L145.574,297.6395 L145.574,298.827 L143.8708,299.0302 L143.8708,304.8114 L145.574,304.9989 L145.574,306.202 L140.5271,306.202 Z " fill="#CAD3F5"/><text fill="#A6DA95" font-family="Helvetica" font-size="16" font-style="italic" lengthAdjust="spacing" textLength="50.0801" x="161.949" y="307.9101">Monad</text><rect fill="#24273A" height="18.3441" style="stroke:#C6A0F6;stroke-width:1;stroke-dasharray:2,2;" width="7.724" x="341.978" y="282.806"/><text fill="#CAD3F5" font-family="Helvetica" font-size="12" font-style="italic" lengthAdjust="spacing" textLength="5.724" x="342.978" y="296.6341">F</text><line style="stroke:#C6A0F6;stroke-width:2;" x1="8" x2="345.7021" y1="317.5981" y2="317.5981"/><ellipse cx="18" cy="331.2701" fill="#84BE84" rx="3" ry="3" style="stroke:#038048;stroke-width:1;"/><text fill="#A6DA95" font-family="Helvetica" font-size="12" lengthAdjust="spacing" textLength="314.7021" x="26" y="334.4262">Kind&lt;F, B&gt; flatMap(Function&lt;A, Kind&lt;F, B&gt;&gt;, Kind&lt;F, A&gt;)</text></g><!--class IOKindHelper--><g class="entity" data-entity="IOKindHelper" data-source-line="18" data-uid="ent0008" id="entity_IOKindHelper"><rect fill="#24273A" height="72.4803" rx="1.5" ry="1.5" style="stroke:#C6A0F6;stroke-width:2;" width="237.2056" x="967.25" y="277.626"/><rect fill="#363A4F" height="31.792" rx="1.5" ry="1.5" style="stroke:#363A4F;stroke-width:2;" width="237.2056" x="967.25" y="277.626"/><rect fill="#363A4F" height="1.5" style="stroke:#363A4F;stroke-width:2;" width="237.2056" x="967.25" y="307.9181"/><rect fill="none" height="72.4803" rx="1.5" ry="1.5" style="stroke:#C6A0F6;stroke-width:2;" width="237.2056" x="967.25" y="277.626"/><ellipse cx="1030.7727" cy="293.522" fill="#ADD1B2" rx="10" ry="10" style="stroke:#181818;stroke-width:1;"/><path d="M1030.4914,298.147 Q1029.2414,298.147 1028.4446,297.6314 Q1027.6477,297.1002 1027.2571,296.147 Q1026.8664,295.1939 1026.8664,293.9127 Q1026.8664,292.4908 1027.3352,291.4752 Q1027.8039,290.4439 1028.7102,289.897 Q1029.6164,289.3345 1030.9289,289.3345 Q1031.5539,289.3345 1032.0227,289.4595 Q1032.5071,289.5845 1032.9914,289.8189 L1032.4133,291.2564 Q1031.9758,291.022 1031.5852,290.9439 Q1031.2102,290.8658 1030.8664,290.8658 Q1030.0383,290.8658 1029.5383,291.2408 Q1029.0539,291.6002 1028.8352,292.272 Q1028.6321,292.9439 1028.6321,293.8502 Q1028.6321,295.2564 1029.1321,295.9439 Q1029.6477,296.6158 1030.7727,296.6158 Q1031.1946,296.6158 1031.6321,296.5064 Q1032.0696,296.397 1032.6633,296.1314 L1032.6633,297.6939 Q1032.1477,297.9283 1031.5852,298.0377 Q1031.0227,298.147 1030.4914,298.147 Z " fill="#CAD3F5"/><text fill="#A6DA95" font-family="Helvetica" font-size="16" lengthAdjust="spacing" textLength="102.1602" x="1049.7727" y="299.7301">IOKindHelper</text><line style="stroke:#C6A0F6;stroke-width:2;" x1="968.25" x2="1203.4556" y1="309.4181" y2="309.4181"/><text fill="#A6DA95" font-family="Helvetica" font-size="12" lengthAdjust="spacing" text-decoration="underline" textLength="218.5455" x="973.25" y="326.2462">Kind&lt;IOKind.Witness, A&gt; widen(IO&lt;A&gt;)</text><text fill="#A6DA95" font-family="Helvetica" font-size="12" lengthAdjust="spacing" text-decoration="underline" textLength="225.2056" x="973.25" y="342.5903">IO&lt;A&gt; narrow(Kind&lt;IOKind.Witness, A&gt;)</text></g><!--class IOFunctor--><g class="entity" data-entity="IOFunctor" data-source-line="24" data-uid="ent0009" id="entity_IOFunctor"><rect fill="#24273A" height="56.1362" rx="1.5" ry="1.5" style="stroke:#C6A0F6;stroke-width:2;" width="430.1707" x="719.77" y="135.326"/><rect fill="#363A4F" height="31.792" rx="1.5" ry="1.5" style="stroke:#363A4F;stroke-width:2;" width="430.1707" x="719.77" y="135.326"/><rect fill="#363A4F" height="1.5" style="stroke:#363A4F;stroke-width:2;" width="430.1707" x="719.77" y="165.6181"/><rect fill="none" height="56.1362" rx="1.5" ry="1.5" style="stroke:#C6A0F6;stroke-width:2;" width="430.1707" x="719.77" y="135.326"/><ellipse cx="892.9832" cy="151.222" fill="#ADD1B2" rx="10" ry="10" style="stroke:#181818;stroke-width:1;"/><path d="M892.702,155.847 Q891.452,155.847 890.6551,155.3314 Q889.8582,154.8002 889.4676,153.847 Q889.077,152.8939 889.077,151.6127 Q889.077,150.1908 889.5457,149.1752 Q890.0145,148.1439 890.9207,147.597 Q891.827,147.0345 893.1395,147.0345 Q893.7645,147.0345 894.2332,147.1595 Q894.7176,147.2845 895.202,147.5189 L894.6239,148.9564 Q894.1864,148.722 893.7957,148.6439 Q893.4207,148.5658 893.077,148.5658 Q892.2489,148.5658 891.7489,148.9408 Q891.2645,149.3002 891.0457,149.972 Q890.8426,150.6439 890.8426,151.5502 Q890.8426,152.9564 891.3426,153.6439 Q891.8582,154.3158 892.9832,154.3158 Q893.4051,154.3158 893.8426,154.2064 Q894.2801,154.097 894.8739,153.8314 L894.8739,155.3939 Q894.3582,155.6283 893.7957,155.7377 Q893.2332,155.847 892.702,155.847 Z " fill="#CAD3F5"/><text fill="#A6DA95" font-family="Helvetica" font-size="16" lengthAdjust="spacing" textLength="75.7442" x="911.9832" y="157.4301">IOFunctor</text><line style="stroke:#C6A0F6;stroke-width:2;" x1="720.77" x2="1148.9407" y1="167.1181" y2="167.1181"/><ellipse cx="730.77" cy="180.7901" fill="#84BE84" rx="3" ry="3" style="stroke:#038048;stroke-width:1;"/><text fill="#A6DA95" font-family="Helvetica" font-size="12" lengthAdjust="spacing" textLength="405.1707" x="738.77" y="183.9462">Kind&lt;IOKind.Witness, B&gt; map(Function&lt;A, B&gt;, Kind&lt;IOKind.Witness, A&gt;)</text></g><!--class IOApplicative--><g class="entity" data-entity="IOApplicative" data-source-line="29" data-uid="ent0012" id="entity_IOApplicative"><rect fill="#24273A" height="72.4803" rx="1.5" ry="1.5" style="stroke:#C6A0F6;stroke-width:2;" width="550.5797" x="381.56" y="277.626"/><rect fill="#363A4F" height="31.792" rx="1.5" ry="1.5" style="stroke:#363A4F;stroke-width:2;" width="550.5797" x="381.56" y="277.626"/><rect fill="#363A4F" height="1.5" style="stroke:#363A4F;stroke-width:2;" width="550.5797" x="381.56" y="307.9181"/><rect fill="none" height="72.4803" rx="1.5" ry="1.5" style="stroke:#C6A0F6;stroke-width:2;" width="550.5797" x="381.56" y="277.626"/><ellipse cx="602.9537" cy="293.522" fill="#ADD1B2" rx="10" ry="10" style="stroke:#181818;stroke-width:1;"/><path d="M602.6725,298.147 Q601.4225,298.147 600.6256,297.6314 Q599.8287,297.1002 599.4381,296.147 Q599.0475,295.1939 599.0475,293.9127 Q599.0475,292.4908 599.5162,291.4752 Q599.985,290.4439 600.8912,289.897 Q601.7975,289.3345 603.11,289.3345 Q603.735,289.3345 604.2037,289.4595 Q604.6881,289.5845 605.1725,289.8189 L604.5943,291.2564 Q604.1568,291.022 603.7662,290.9439 Q603.3912,290.8658 603.0475,290.8658 Q602.2193,290.8658 601.7193,291.2408 Q601.235,291.6002 601.0162,292.272 Q600.8131,292.9439 600.8131,293.8502 Q600.8131,295.2564 601.3131,295.9439 Q601.8287,296.6158 602.9537,296.6158 Q603.3756,296.6158 603.8131,296.5064 Q604.2506,296.397 604.8443,296.1314 L604.8443,297.6939 Q604.3287,297.9283 603.7662,298.0377 Q603.2037,298.147 602.6725,298.147 Z " fill="#CAD3F5"/><text fill="#A6DA95" font-family="Helvetica" font-size="16" lengthAdjust="spacing" textLength="99.7922" x="621.9537" y="299.7301">IOApplicative</text><line style="stroke:#C6A0F6;stroke-width:2;" x1="382.56" x2="931.1397" y1="309.4181" y2="309.4181"/><ellipse cx="392.56" cy="323.0901" fill="#84BE84" rx="3" ry="3" style="stroke:#038048;stroke-width:1;"/><text fill="#A6DA95" font-family="Helvetica" font-size="12" lengthAdjust="spacing" textLength="168.6732" x="400.56" y="326.2462">Kind&lt;IOKind.Witness, A&gt; of(A)</text><ellipse cx="392.56" cy="339.4342" fill="#84BE84" rx="3" ry="3" style="stroke:#038048;stroke-width:1;"/><text fill="#A6DA95" font-family="Helvetica" font-size="12" lengthAdjust="spacing" textLength="525.5797" x="400.56" y="342.5903">Kind&lt;IOKind.Witness, B&gt; ap(Kind&lt;IOKind.Witness, Function&lt;A, B&gt;&gt;, Kind&lt;IOKind.Witness, A&gt;)</text></g><!--class IOMonad--><g class="entity" data-entity="IOMonad" data-source-line="34" data-uid="ent0015" id="entity_IOMonad"><rect fill="#24273A" height="56.1362" rx="1.5" ry="1.5" style="stroke:#C6A0F6;stroke-width:2;" width="579.7518" x="125.98" y="411.106"/><rect fill="#363A4F" height="31.792" rx="1.5" ry="1.5" style="stroke:#363A4F;stroke-width:2;" width="579.7518" x="125.98" y="411.106"/><rect fill="#363A4F" height="1.5" style="stroke:#363A4F;stroke-width:2;" width="579.7518" x="125.98" y="441.3981"/><rect fill="none" height="56.1362" rx="1.5" ry="1.5" style="stroke:#C6A0F6;stroke-width:2;" width="579.7518" x="125.98" y="411.106"/><ellipse cx="376.4478" cy="427.002" fill="#ADD1B2" rx="10" ry="10" style="stroke:#181818;stroke-width:1;"/><path d="M376.1666,431.627 Q374.9166,431.627 374.1197,431.1114 Q373.3228,430.5802 372.9322,429.627 Q372.5416,428.6739 372.5416,427.3927 Q372.5416,425.9708 373.0103,424.9552 Q373.4791,423.9239 374.3853,423.377 Q375.2916,422.8145 376.6041,422.8145 Q377.2291,422.8145 377.6978,422.9395 Q378.1822,423.0645 378.6666,423.2989 L378.0884,424.7364 Q377.6509,424.502 377.2603,424.4239 Q376.8853,424.3458 376.5416,424.3458 Q375.7134,424.3458 375.2134,424.7208 Q374.7291,425.0802 374.5103,425.752 Q374.3072,426.4239 374.3072,427.3302 Q374.3072,428.7364 374.8072,429.4239 Q375.3228,430.0958 376.4478,430.0958 Q376.8697,430.0958 377.3072,429.9864 Q377.7447,429.877 378.3384,429.6114 L378.3384,431.1739 Q377.8228,431.4083 377.2603,431.5177 Q376.6978,431.627 376.1666,431.627 Z " fill="#CAD3F5"/><text fill="#A6DA95" font-family="Helvetica" font-size="16" lengthAdjust="spacing" textLength="70.8161" x="395.4478" y="433.2101">IOMonad</text><line style="stroke:#C6A0F6;stroke-width:2;" x1="126.98" x2="704.7318" y1="442.8981" y2="442.8981"/><ellipse cx="136.98" cy="456.5701" fill="#84BE84" rx="3" ry="3" style="stroke:#038048;stroke-width:1;"/><text fill="#A6DA95" font-family="Helvetica" font-size="12" lengthAdjust="spacing" textLength="554.7518" x="144.98" y="459.7262">Kind&lt;IOKind.Witness, B&gt; flatMap(Function&lt;A, Kind&lt;IOKind.Witness, B&gt;&gt;, Kind&lt;IOKind.Witness, A&gt;)</text></g><!--reverse link Functor to Applicative--><g class="link" data-entity-1="Functor" data-entity-2="Applicative" data-source-line="10" data-uid="lnk5" id="link_Functor_Applicative"><path d="M706.3832,74.6115 C670.6932,92.3615 640.05,107.596 601.53,126.756" fill="none" id="Functor-backto-Applicative" style="stroke:#F5BDE6;stroke-width:1;"/><polygon fill="none" points="722.5,66.596,703.7114,69.2393,709.055,79.9838,722.5,66.596" style="stroke:#F5BDE6;stroke-width:1;"/></g><!--reverse link Applicative to Monad--><g class="link" data-entity-1="Applicative" data-entity-2="Monad" data-source-line="14" data-uid="lnk7" id="link_Applicative_Monad"><path d="M428.7081,206.9352 C366.3981,233.1452 299.46,261.296 242.22,285.376" fill="none" id="Applicative-backto-Monad" style="stroke:#F5BDE6;stroke-width:1;"/><polygon fill="none" points="445.3,199.956,426.3817,201.4046,431.0345,212.4658,445.3,199.956" style="stroke:#F5BDE6;stroke-width:1;"/></g><!--reverse link Functor to IOFunctor--><g class="link" data-entity-1="Functor" data-entity-2="IOFunctor" data-source-line="25" data-uid="lnk10" id="link_Functor_IOFunctor"><path d="M826.8473,77.5622 C852.7773,97.9222 873.87,114.496 899.83,134.886" fill="none" id="Functor-backto-IOFunctor" style="stroke:#F5BDE6;stroke-width:1;stroke-dasharray:7,7;"/><polygon fill="none" points="812.69,66.446,823.1419,82.2813,830.5527,72.8431,812.69,66.446" style="stroke:#F5BDE6;stroke-width:1;"/></g><!--link IOFunctor to IOKindHelper--><g class="link" data-entity-1="IOFunctor" data-entity-2="IOKindHelper" data-source-line="27" data-uid="lnk11" id="link_IOFunctor_IOKindHelper"><path codeLine="27" d="M962.55,191.626 C987.07,215.736 1018.7415,246.8795 1045.5015,273.1895" fill="none" id="IOFunctor-to-IOKindHelper" style="stroke:#F5BDE6;stroke-width:1;stroke-dasharray:7,7;"/><polygon fill="#F5BDE6" points="1049.78,277.396,1046.1667,268.2339,1046.2146,273.8906,1040.558,273.9386,1049.78,277.396" style="stroke:#F5BDE6;stroke-width:1;"/><text fill="#CAD3F5" font-family="Helvetica" font-size="12" lengthAdjust="spacing" textLength="25.6802" x="1020.39" y="243.4541">uses</text></g><!--reverse link IOFunctor to IOApplicative--><g class="link" data-entity-1="IOFunctor" data-entity-2="IOApplicative" data-source-line="30" data-uid="lnk13" id="link_IOFunctor_IOApplicative"><path d="M867.6626,200.2759 C822.6326,224.3259 772.74,250.976 723.62,277.206" fill="none" id="IOFunctor-backto-IOApplicative" style="stroke:#F5BDE6;stroke-width:1;"/><polygon fill="none" points="883.54,191.796,864.836,194.9835,870.4893,205.5684,883.54,191.796" style="stroke:#F5BDE6;stroke-width:1;"/></g><!--reverse link Applicative to IOApplicative--><g class="link" data-entity-1="Applicative" data-entity-2="IOApplicative" data-source-line="30" data-uid="lnk14" id="link_Applicative_IOApplicative"><path d="M571.9693,213.6354 C591.9993,237.0554 606.43,253.926 626.46,277.336" fill="none" id="Applicative-backto-IOApplicative" style="stroke:#F5BDE6;stroke-width:1;stroke-dasharray:7,7;"/><polygon fill="none" points="560.27,199.956,567.4095,217.5352,576.5291,209.7356,560.27,199.956" style="stroke:#F5BDE6;stroke-width:1;"/></g><!--reverse link IOApplicative to IOMonad--><g class="link" data-entity-1="IOApplicative" data-entity-2="IOMonad" data-source-line="35" data-uid="lnk16" id="link_IOApplicative_IOMonad"><path d="M571.1156,358.7347 C533.7256,377.8647 504.36,392.886 469.71,410.626" fill="none" id="IOApplicative-backto-IOMonad" style="stroke:#F5BDE6;stroke-width:1;"/><polygon fill="none" points="587.14,350.536,568.3827,353.3932,573.8485,364.0761,587.14,350.536" style="stroke:#F5BDE6;stroke-width:1;"/></g><!--reverse link Monad to IOMonad--><g class="link" data-entity-1="Monad" data-entity-2="IOMonad" data-source-line="35" data-uid="lnk17" id="link_Monad_IOMonad"><path d="M246.1863,350.6394 C285.6663,371.0094 323.23,390.396 362.68,410.746" fill="none" id="Monad-backto-IOMonad" style="stroke:#F5BDE6;stroke-width:1;stroke-dasharray:7,7;"/><polygon fill="none" points="230.19,342.386,243.4352,355.9715,248.9374,345.3073,230.19,342.386" style="stroke:#F5BDE6;stroke-width:1;"/></g><!--SRC=[bL9DR-8m4BtxLqovB5MBSw-YIDa3MhHgU-bgBxsuPjXOyfViILbKyT_hc4821AJUd9d9lFVclHjbfMwN20sHZmz54SIQ_rFKj6zjn22T9RJ4fJE5bIwIc2bPI47Ujr8gEpD2oaO9SZElXQNMw1arQB0mGjaYFxbFLTQe18B6qmOCcZSCaJ7h264o1_oVG9OH_Ygo66CT56tAbut7_E9_h0YRwjMkN02XDL3gWDGYHemJ417os5DQnfXAVCDAI8HvQoMvKCuh-600T_1RsMKvluUV5HZXfxcld2thhdH_QDVLBTiEzjJUQvKKgtViTksvNbnVL-1Mq_hs53D1xh-EeQzWFpehbaFK4p9dmbPQqEE9kBvzXiHOFYCidhlwBzGUGxVq8nbDIcvtuxik_t8dArmdD-rqyLnsU_hnN81aLt3hwOL_q_mFu9nty7lqhsE2Cbwdn5Zgxtky84k-6wTrpTSn6blM0tDU7H_X0LByOyzmSFY36QEyXmwDSBz4_Zmr8_Bs4JfjZUTfNFD1KSxMGCjGuK3FBeBVSk5Y2CzdhtFz1000]--></g></svg>