<svg xmlns="http://www.w3.org/2000/svg" xmlns:xlink="http://www.w3.org/1999/xlink" contentStyleType="text/css" data-diagram-type="CLASS" height="818px" preserveAspectRatio="none" style="width:1066px;height:818px;background:#24273A;" version="1.1" viewBox="0 0 1066 818" width="1066px" zoomAndPan="magnify"><defs/><g><rect fill="#24273A" height="818" style="stroke:none;stroke-width:1;" width="1066" x="0" y="0"/><g class="entity" data-entity="ArityNote" data-source-line="5" data-uid="ent0002" id="entity_ArityNote"><path d="M396.26,661.676 L396.26,701.3643 A1.5,1.5 0 0 0 397.76,702.8643 L523.94,702.8643 L547.72,780.556 L531.94,702.8643 L647.4816,702.8643 A1.5,1.5 0 0 0 648.9816,701.3643 L648.9816,670.176 L638.9816,660.176 L397.76,660.176 A1.5,1.5 0 0 0 396.26,661.676" fill="#EED49F" style="stroke:#24273A;stroke-width:0.5;"/><path d="M638.9816,660.176 L638.9816,669.426 A0.75,0.75 0 0 0 639.7316,670.176 L648.9816,670.176 L638.9816,660.176" fill="#EED49F" style="stroke:#24273A;stroke-width:0.5;"/><text fill="#24273A" font-family="Helvetica" font-size="12" lengthAdjust="spacing" textLength="231.7216" x="402.26" y="678.0041">F extends WitnessArity&lt;TypeArity.Unary&gt;</text><text fill="#24273A" font-family="Helvetica" font-size="12" lengthAdjust="spacing" textLength="102.8288" x="402.26" y="694.3482">for all type classes</text></g><!--class Kind--><g class="entity" data-entity="Kind" data-source-line="7" data-uid="ent0003" id="entity_Kind"><rect fill="#24273A" height="31.792" rx="1.5" ry="1.5" style="stroke:#C6A0F6;stroke-width:2;" width="84.3082" x="509.46" y="780.866"/><rect fill="#363A4F" height="31.792" rx="1.5" ry="1.5" style="stroke:#363A4F;stroke-width:2;" width="84.3082" x="509.46" y="780.866"/><rect fill="#363A4F" height="1.5" style="stroke:#363A4F;stroke-width:2;" width="84.3082" x="509.46" y="811.1581"/><rect fill="none" height="31.792" rx="1.5" ry="1.5" style="stroke:#C6A0F6;stroke-width:2;" width="84.3082" x="509.46" y="780.866"/><ellipse cx="523.46" cy="796.762" fill="#B4A7E5" rx="10" ry="10" style="stroke:#181818;stroke-width:1;"/><path d="M521.0381,801.262 L521.0381,800.0589 L522.71,799.8714 L522.71,794.0902 L521.0381,793.887 L521.0381,792.6995 L526.085,792.6995 L526.085,793.887 L524.3819,794.0902 L524.3819,799.8714 L526.085,800.0589 L526.085,801.262 L521.0381,801.262 Z " fill="#CAD3F5"/><text fill="#A6DA95" font-family="Helvetica" font-size="16" font-style="italic" lengthAdjust="spacing" textLength="31.6481" x="536.46" y="802.9701">Kind</text><rect fill="#24273A" height="18.3441" style="stroke:#C6A0F6;stroke-width:1;stroke-dasharray:2,2;" width="20.6601" x="576.1081" y="777.866"/><text fill="#CAD3F5" font-family="Helvetica" font-size="12" font-style="italic" lengthAdjust="spacing" textLength="18.6601" x="577.1081" y="791.6941">F, A</text></g><!--class Functor--><g class="entity" data-entity="Functor" data-source-line="8" data-uid="ent0004" id="entity_Functor"><rect fill="#24273A" height="31.792" rx="1.5" ry="1.5" style="stroke:#C6A0F6;stroke-width:2;" width="93.8202" x="582.71" y="10.016"/><rect fill="#363A4F" height="31.792" rx="1.5" ry="1.5" style="stroke:#363A4F;stroke-width:2;" width="93.8202" x="582.71" y="10.016"/><rect fill="#363A4F" height="1.5" style="stroke:#363A4F;stroke-width:2;" width="93.8202" x="582.71" y="40.3081"/><rect fill="none" height="31.792" rx="1.5" ry="1.5" style="stroke:#C6A0F6;stroke-width:2;" width="93.8202" x="582.71" y="10.016"/><ellipse cx="596.71" cy="25.912" fill="#B4A7E5" rx="10" ry="10" style="stroke:#181818;stroke-width:1;"/><path d="M594.2881,30.412 L594.2881,29.2089 L595.96,29.0214 L595.96,23.2402 L594.2881,23.037 L594.2881,21.8495 L599.335,21.8495 L599.335,23.037 L597.6319,23.2402 L597.6319,29.0214 L599.335,29.2089 L599.335,30.412 L594.2881,30.412 Z " fill="#CAD3F5"/><text fill="#A6DA95" font-family="Helvetica" font-size="16" font-style="italic" lengthAdjust="spacing" textLength="54.0961" x="609.71" y="32.1201">Functor</text><rect fill="#24273A" height="18.3441" style="stroke:#C6A0F6;stroke-width:1;stroke-dasharray:2,2;" width="7.724" x="671.8061" y="7.016"/><text fill="#CAD3F5" font-family="Helvetica" font-size="12" font-style="italic" lengthAdjust="spacing" textLength="5.724" x="672.8061" y="20.8441">F</text></g><!--class Applicative--><g class="entity" data-entity="Applicative" data-source-line="9" data-uid="ent0005" id="entity_Applicative"><rect fill="#24273A" height="31.792" rx="1.5" ry="1.5" style="stroke:#C6A0F6;stroke-width:2;" width="116.7322" x="469.25" y="102.806"/><rect fill="#363A4F" height="31.792" rx="1.5" ry="1.5" style="stroke:#363A4F;stroke-width:2;" width="116.7322" x="469.25" y="102.806"/><rect fill="#363A4F" height="1.5" style="stroke:#363A4F;stroke-width:2;" width="116.7322" x="469.25" y="133.0981"/><rect fill="none" height="31.792" rx="1.5" ry="1.5" style="stroke:#C6A0F6;stroke-width:2;" width="116.7322" x="469.25" y="102.806"/><ellipse cx="483.25" cy="118.702" fill="#B4A7E5" rx="10" ry="10" style="stroke:#181818;stroke-width:1;"/><path d="M480.8281,123.202 L480.8281,121.9989 L482.5,121.8114 L482.5,116.0302 L480.8281,115.827 L480.8281,114.6395 L485.875,114.6395 L485.875,115.827 L484.1719,116.0302 L484.1719,121.8114 L485.875,121.9989 L485.875,123.202 L480.8281,123.202 Z " fill="#CAD3F5"/><text fill="#A6DA95" font-family="Helvetica" font-size="16" font-style="italic" lengthAdjust="spacing" textLength="77.0081" x="496.25" y="124.9101">Applicative</text><rect fill="#24273A" height="18.3441" style="stroke:#C6A0F6;stroke-width:1;stroke-dasharray:2,2;" width="7.724" x="581.2581" y="99.806"/><text fill="#CAD3F5" font-family="Helvetica" font-size="12" font-style="italic" lengthAdjust="spacing" textLength="5.724" x="582.2581" y="113.6341">F</text></g><!--class Monad--><g class="entity" data-entity="Monad" data-source-line="10" data-uid="ent0006" id="entity_Monad"><rect fill="#24273A" height="31.792" rx="1.5" ry="1.5" style="stroke:#C6A0F6;stroke-width:2;" width="89.8041" x="489.72" y="250.736"/><rect fill="#363A4F" height="31.792" rx="1.5" ry="1.5" style="stroke:#363A4F;stroke-width:2;" width="89.8041" x="489.72" y="250.736"/><rect fill="#363A4F" height="1.5" style="stroke:#363A4F;stroke-width:2;" width="89.8041" x="489.72" y="281.0281"/><rect fill="none" height="31.792" rx="1.5" ry="1.5" style="stroke:#C6A0F6;stroke-width:2;" width="89.8041" x="489.72" y="250.736"/><ellipse cx="503.72" cy="266.632" fill="#B4A7E5" rx="10" ry="10" style="stroke:#181818;stroke-width:1;"/><path d="M501.2981,271.132 L501.2981,269.9289 L502.97,269.7414 L502.97,263.9602 L501.2981,263.757 L501.2981,262.5695 L506.345,262.5695 L506.345,263.757 L504.6419,263.9602 L504.6419,269.7414 L506.345,269.9289 L506.345,271.132 L501.2981,271.132 Z " fill="#CAD3F5"/><text fill="#A6DA95" font-family="Helvetica" font-size="16" font-style="italic" lengthAdjust="spacing" textLength="50.0801" x="516.72" y="272.8401">Monad</text><rect fill="#24273A" height="18.3441" style="stroke:#C6A0F6;stroke-width:1;stroke-dasharray:2,2;" width="7.724" x="574.8001" y="247.736"/><text fill="#CAD3F5" font-family="Helvetica" font-size="12" font-style="italic" lengthAdjust="spacing" textLength="5.724" x="575.8001" y="261.5641">F</text></g><!--class TrampolineFunctor--><g class="entity" data-entity="TrampolineFunctor" data-source-line="17" data-uid="ent0010" id="entity_TrampolineFunctor"><rect fill="#24273A" height="56.1362" rx="1.5" ry="1.5" style="stroke:#C6A0F6;stroke-width:2;" width="553.7116" x="456.76" y="164.596"/><rect fill="#363A4F" height="31.792" rx="1.5" ry="1.5" style="stroke:#363A4F;stroke-width:2;" width="553.7116" x="456.76" y="164.596"/><rect fill="#363A4F" height="1.5" style="stroke:#363A4F;stroke-width:2;" width="553.7116" x="456.76" y="194.8881"/><rect fill="none" height="56.1362" rx="1.5" ry="1.5" style="stroke:#C6A0F6;stroke-width:2;" width="553.7116" x="456.76" y="164.596"/><ellipse cx="657.6397" cy="180.492" fill="#ADD1B2" rx="10" ry="10" style="stroke:#181818;stroke-width:1;"/><path d="M657.3584,185.117 Q656.1084,185.117 655.3115,184.6014 Q654.5147,184.0702 654.124,183.117 Q653.7334,182.1639 653.7334,180.8827 Q653.7334,179.4608 654.2022,178.4452 Q654.6709,177.4139 655.5772,176.867 Q656.4834,176.3045 657.7959,176.3045 Q658.4209,176.3045 658.8897,176.4295 Q659.374,176.5545 659.8584,176.7889 L659.2803,178.2264 Q658.8428,177.992 658.4522,177.9139 Q658.0772,177.8358 657.7334,177.8358 Q656.9053,177.8358 656.4053,178.2108 Q655.9209,178.5702 655.7022,179.242 Q655.499,179.9139 655.499,180.8202 Q655.499,182.2264 655.999,182.9139 Q656.5147,183.5858 657.6397,183.5858 Q658.0615,183.5858 658.499,183.4764 Q658.9365,183.367 659.5303,183.1014 L659.5303,184.6639 Q659.0147,184.8983 658.4522,185.0077 Q657.8897,185.117 657.3584,185.117 Z " fill="#CAD3F5"/><text fill="#A6DA95" font-family="Helvetica" font-size="16" lengthAdjust="spacing" textLength="143.9523" x="676.6397" y="186.7001">TrampolineFunctor</text><line style="stroke:#C6A0F6;stroke-width:2;" x1="457.76" x2="1009.4716" y1="196.3881" y2="196.3881"/><ellipse cx="467.76" cy="210.0601" fill="#84BE84" rx="3" ry="3" style="stroke:#038048;stroke-width:1;"/><text fill="#A6DA95" font-family="Helvetica" font-size="12" lengthAdjust="spacing" textLength="528.7116" x="475.76" y="213.2162">Kind&lt;TrampolineKind.Witness, B&gt; map(Function&lt;A, B&gt; f, Kind&lt;TrampolineKind.Witness, A&gt; fa)</text></g><!--class TrampolineMonad--><g class="entity" data-entity="TrampolineMonad" data-source-line="21" data-uid="ent0012" id="entity_TrampolineMonad"><rect fill="#24273A" height="72.4803" rx="1.5" ry="1.5" style="stroke:#C6A0F6;stroke-width:2;" width="761.5411" x="227.85" y="343.526"/><rect fill="#363A4F" height="31.792" rx="1.5" ry="1.5" style="stroke:#363A4F;stroke-width:2;" width="761.5411" x="227.85" y="343.526"/><rect fill="#363A4F" height="1.5" style="stroke:#363A4F;stroke-width:2;" width="761.5411" x="227.85" y="373.8181"/><rect fill="none" height="72.4803" rx="1.5" ry="1.5" style="stroke:#C6A0F6;stroke-width:2;" width="761.5411" x="227.85" y="343.526"/><ellipse cx="535.1084" cy="359.422" fill="#ADD1B2" rx="10" ry="10" style="stroke:#181818;stroke-width:1;"/><path d="M534.8271,364.047 Q533.5771,364.047 532.7803,363.5314 Q531.9834,363.0002 531.5928,362.047 Q531.2021,361.0939 531.2021,359.8127 Q531.2021,358.3908 531.6709,357.3752 Q532.1396,356.3439 533.0459,355.797 Q533.9521,355.2345 535.2646,355.2345 Q535.8896,355.2345 536.3584,355.3595 Q536.8428,355.4845 537.3271,355.7189 L536.749,357.1564 Q536.3115,356.922 535.9209,356.8439 Q535.5459,356.7658 535.2021,356.7658 Q534.374,356.7658 533.874,357.1408 Q533.3896,357.5002 533.1709,358.172 Q532.9678,358.8439 532.9678,359.7502 Q532.9678,361.1564 533.4678,361.8439 Q533.9834,362.5158 535.1084,362.5158 Q535.5303,362.5158 535.9678,362.4064 Q536.4053,362.297 536.999,362.0314 L536.999,363.5939 Q536.4834,363.8283 535.9209,363.9377 Q535.3584,364.047 534.8271,364.047 Z " fill="#CAD3F5"/><text fill="#A6DA95" font-family="Helvetica" font-size="16" lengthAdjust="spacing" textLength="139.0243" x="554.1084" y="365.6301">TrampolineMonad</text><line style="stroke:#C6A0F6;stroke-width:2;" x1="228.85" x2="988.3911" y1="375.3181" y2="375.3181"/><ellipse cx="238.85" cy="388.9901" fill="#84BE84" rx="3" ry="3" style="stroke:#038048;stroke-width:1;"/><text fill="#A6DA95" font-family="Helvetica" font-size="12" lengthAdjust="spacing" textLength="253.0578" x="246.85" y="392.1462">Kind&lt;TrampolineKind.Witness, A&gt; of(A value)</text><ellipse cx="238.85" cy="405.3342" fill="#84BE84" rx="3" ry="3" style="stroke:#038048;stroke-width:1;"/><text fill="#A6DA95" font-family="Helvetica" font-size="12" lengthAdjust="spacing" textLength="736.5411" x="246.85" y="408.4903">Kind&lt;TrampolineKind.Witness, B&gt; flatMap(Function&lt;A, Kind&lt;TrampolineKind.Witness, B&gt;&gt; f, Kind&lt;TrampolineKind.Witness, A&gt; ma)</text></g><!--class TrampolineKindHelper--><g class="entity" data-entity="TrampolineKindHelper" data-source-line="26" data-uid="ent0015" id="entity_TrampolineKindHelper"><rect fill="#24273A" height="72.4803" rx="1.5" ry="1.5" style="stroke:#C6A0F6;stroke-width:2;" width="411.2347" x="7" y="510.356"/><rect fill="#363A4F" height="31.792" rx="1.5" ry="1.5" style="stroke:#363A4F;stroke-width:2;" width="411.2347" x="7" y="510.356"/><rect fill="#363A4F" height="1.5" style="stroke:#363A4F;stroke-width:2;" width="411.2347" x="7" y="540.6481"/><rect fill="none" height="72.4803" rx="1.5" ry="1.5" style="stroke:#C6A0F6;stroke-width:2;" width="411.2347" x="7" y="510.356"/><ellipse cx="123.4332" cy="526.252" fill="#ADD1B2" rx="10" ry="10" style="stroke:#181818;stroke-width:1;"/><path d="M123.1519,530.877 Q121.9019,530.877 121.1051,530.3614 Q120.3082,529.8302 119.9176,528.877 Q119.5269,527.9239 119.5269,526.6427 Q119.5269,525.2208 119.9957,524.2052 Q120.4644,523.1739 121.3707,522.627 Q122.2769,522.0645 123.5894,522.0645 Q124.2144,522.0645 124.6832,522.1895 Q125.1676,522.3145 125.6519,522.5489 L125.0738,523.9864 Q124.6363,523.752 124.2457,523.6739 Q123.8707,523.5958 123.5269,523.5958 Q122.6988,523.5958 122.1988,523.9708 Q121.7144,524.3302 121.4957,525.002 Q121.2926,525.6739 121.2926,526.5802 Q121.2926,527.9864 121.7926,528.6739 Q122.3082,529.3458 123.4332,529.3458 Q123.8551,529.3458 124.2926,529.2364 Q124.7301,529.127 125.3238,528.8614 L125.3238,530.4239 Q124.8082,530.6583 124.2457,530.7677 Q123.6832,530.877 123.1519,530.877 Z " fill="#CAD3F5"/><text fill="#A6DA95" font-family="Helvetica" font-size="16" lengthAdjust="spacing" textLength="170.3683" x="142.4332" y="532.4601">TrampolineKindHelper</text><line style="stroke:#C6A0F6;stroke-width:2;" x1="8" x2="417.2347" y1="542.1481" y2="542.1481"/><ellipse cx="18" cy="555.8201" fill="#84BE84" rx="3" ry="3" style="stroke:#038048;stroke-width:1;"/><text fill="#A6DA95" font-family="Helvetica" font-size="12" lengthAdjust="spacing" text-decoration="underline" textLength="354.9385" x="26" y="558.9762">Trampoline&lt;A&gt; narrow(Kind&lt;TrampolineKind.Witness, A&gt; kind)</text><ellipse cx="18" cy="572.1642" fill="#84BE84" rx="3" ry="3" style="stroke:#038048;stroke-width:1;"/><text fill="#A6DA95" font-family="Helvetica" font-size="12" lengthAdjust="spacing" text-decoration="underline" textLength="386.2347" x="26" y="575.3203">Kind&lt;TrampolineKind.Witness, A&gt; widen(Trampoline&lt;A&gt; trampoline)</text></g><!--class Trampoline<A>--><g class="entity" data-entity="Trampoline.A." data-source-line="34" data-uid="ent0017" id="entity_Trampoline.A."><rect fill="#24273A" height="105.1685" rx="1.5" ry="1.5" style="stroke:#C6A0F6;stroke-width:2;" width="311.67" x="452.78" y="494.006"/><rect fill="#363A4F" height="48.1362" rx="1.5" ry="1.5" style="stroke:#363A4F;stroke-width:2;" width="311.67" x="452.78" y="494.006"/><rect fill="#363A4F" height="1.5" style="stroke:#363A4F;stroke-width:2;" width="311.67" x="452.78" y="540.6422"/><rect fill="none" height="105.1685" rx="1.5" ry="1.5" style="stroke:#C6A0F6;stroke-width:2;" width="311.67" x="452.78" y="494.006"/><ellipse cx="550.3429" cy="518.0741" fill="#B4A7E5" rx="10" ry="10" style="stroke:#181818;stroke-width:1;"/><path d="M547.921,522.5741 L547.921,521.371 L549.5929,521.1835 L549.5929,515.4022 L547.921,515.1991 L547.921,514.0116 L552.9679,514.0116 L552.9679,515.1991 L551.2648,515.4022 L551.2648,521.1835 L552.9679,521.371 L552.9679,522.5741 L547.921,522.5741 Z " fill="#CAD3F5"/><text fill="#CAD3F5" font-family="Helvetica" font-size="12" font-style="italic" lengthAdjust="spacing" textLength="95.4367" x="575.8967" y="511.8341">&#171;sealed interface&#187;</text><text fill="#A6DA95" font-family="Helvetica" font-size="16" font-style="italic" lengthAdjust="spacing" textLength="108.5442" x="569.3429" y="532.4542">Trampoline&lt;A&gt;</text><line style="stroke:#C6A0F6;stroke-width:2;" x1="453.78" x2="763.45" y1="542.1422" y2="542.1422"/><ellipse cx="463.78" cy="555.8142" fill="#84BE84" rx="3" ry="3" style="stroke:#038048;stroke-width:1;"/><text fill="#A6DA95" font-family="Helvetica" font-size="12" lengthAdjust="spacing" textLength="37.7763" x="471.78" y="558.9703">A run()</text><ellipse cx="463.78" cy="572.1584" fill="#84BE84" rx="3" ry="3" style="stroke:#038048;stroke-width:1;"/><text fill="#A6DA95" font-family="Helvetica" font-size="12" font-weight="bold" lengthAdjust="spacing" textLength="68.3885" x="474.9" y="575.3144">Trampoline</text><text fill="#A6DA95" font-family="Helvetica" font-size="12" font-weight="bold" lengthAdjust="spacing" textLength="131.4009" x="546.4085" y="575.3144">map(Function&lt;A, B&gt; f)</text><ellipse cx="463.78" cy="588.5025" fill="#84BE84" rx="3" ry="3" style="stroke:#038048;stroke-width:1;"/><text fill="#A6DA95" font-family="Helvetica" font-size="12" font-weight="bold" lengthAdjust="spacing" textLength="68.3885" x="474.9" y="591.6585">Trampoline</text><text fill="#A6DA95" font-family="Helvetica" font-size="12" font-weight="bold" lengthAdjust="spacing" textLength="193.3453" x="546.4085" y="591.6585">flatMap(Function&lt;A, Trampoline</text><text fill="#A6DA95" font-family="Helvetica" font-size="12" font-weight="bold" lengthAdjust="spacing" textLength="18.6961" x="739.7539" y="591.6585">&gt; f)</text></g><!--class TrampolineKind<A>--><g class="entity" data-entity="TrampolineKind.A." data-source-line="40" data-uid="ent0018" id="entity_TrampolineKind.A."><rect fill="#24273A" height="31.792" rx="1.5" ry="1.5" style="stroke:#C6A0F6;stroke-width:2;" width="170.1923" x="683.52" y="665.626"/><rect fill="#363A4F" height="31.792" rx="1.5" ry="1.5" style="stroke:#363A4F;stroke-width:2;" width="170.1923" x="683.52" y="665.626"/><rect fill="#363A4F" height="1.5" style="stroke:#363A4F;stroke-width:2;" width="170.1923" x="683.52" y="695.9181"/><rect fill="none" height="31.792" rx="1.5" ry="1.5" style="stroke:#C6A0F6;stroke-width:2;" width="170.1923" x="683.52" y="665.626"/><ellipse cx="697.52" cy="681.522" fill="#B4A7E5" rx="10" ry="10" style="stroke:#181818;stroke-width:1;"/><path d="M695.0981,686.022 L695.0981,684.8189 L696.77,684.6314 L696.77,678.8502 L695.0981,678.647 L695.0981,677.4595 L700.145,677.4595 L700.145,678.647 L698.4419,678.8502 L698.4419,684.6314 L700.145,684.8189 L700.145,686.022 L695.0981,686.022 Z " fill="#CAD3F5"/><text fill="#A6DA95" font-family="Helvetica" font-size="16" font-style="italic" lengthAdjust="spacing" textLength="140.1923" x="710.52" y="687.7301">TrampolineKind&lt;A&gt;</text></g><!--reverse link Functor to Applicative--><g class="link" data-entity-1="Functor" data-entity-2="Applicative" data-source-line="14" data-uid="lnk8" id="link_Functor_Applicative"><path codeLine="14" d="M599.3261,53.8752 C580.5461,70.5952 563.76,85.536 544.83,102.386" fill="none" id="Functor-backto-Applicative" style="stroke:#F5BDE6;stroke-width:1;"/><polygon fill="none" points="612.77,41.906,595.3364,49.3939,603.3159,58.3565,612.77,41.906" style="stroke:#F5BDE6;stroke-width:1;"/></g><!--reverse link Applicative to Monad--><g class="link" data-entity-1="Applicative" data-entity-2="Monad" data-source-line="15" data-uid="lnk9" id="link_Applicative_Monad"><path codeLine="15" d="M472.2134,143.7664 C459.5734,150.7664 462.77,151.716 455.62,164.596 C443.51,186.416 443.07,199.166 455.62,220.736 C463.23,233.826 476.25,243.406 489.54,250.276" fill="none" id="Applicative-backto-Monad" style="stroke:#F5BDE6;stroke-width:1;"/><polygon fill="none" points="487.96,135.046,469.3066,138.5176,475.1202,149.0153,487.96,135.046" style="stroke:#F5BDE6;stroke-width:1;"/></g><!--reverse link Functor to TrampolineFunctor--><g class="link" data-entity-1="Functor" data-entity-2="TrampolineFunctor" data-source-line="18" data-uid="lnk11" id="link_Functor_TrampolineFunctor"><path d="M648.8249,57.3392 C666.3649,85.1392 694.25,129.306 716.34,164.296" fill="none" id="Functor-backto-TrampolineFunctor" style="stroke:#F5BDE6;stroke-width:1;stroke-dasharray:7,7;"/><polygon fill="none" points="639.22,42.116,643.7505,60.5409,653.8993,54.1376,639.22,42.116" style="stroke:#F5BDE6;stroke-width:1;"/></g><!--reverse link TrampolineFunctor to TrampolineMonad--><g class="link" data-entity-1="TrampolineFunctor" data-entity-2="TrampolineMonad" data-source-line="22" data-uid="lnk13" id="link_TrampolineFunctor_TrampolineMonad"><path d="M705.0984,235.8946 C683.2384,268.2746 656.8,307.426 632.71,343.086" fill="none" id="TrampolineFunctor-backto-TrampolineMonad" style="stroke:#F5BDE6;stroke-width:1;"/><polygon fill="none" points="715.17,220.976,700.1255,232.5373,710.0712,239.2518,715.17,220.976" style="stroke:#F5BDE6;stroke-width:1;"/></g><!--reverse link Monad to TrampolineMonad--><g class="link" data-entity-1="Monad" data-entity-2="TrampolineMonad" data-source-line="22" data-uid="lnk14" id="link_Monad_TrampolineMonad"><path d="M554.569,297.6033 C564.899,313.1333 571.46,322.956 585.13,343.486" fill="none" id="Monad-backto-TrampolineMonad" style="stroke:#F5BDE6;stroke-width:1;stroke-dasharray:7,7;"/><polygon fill="none" points="544.6,282.616,549.5732,300.9263,559.5648,294.2803,544.6,282.616" style="stroke:#F5BDE6;stroke-width:1;"/></g><!--link TrampolineMonad to TrampolineKindHelper--><g class="link" data-entity-1="TrampolineMonad" data-entity-2="TrampolineKindHelper" data-source-line="32" data-uid="lnk16" id="link_TrampolineMonad_TrampolineKindHelper"><path codeLine="32" d="M523.18,416.326 C456.67,444.006 370.3392,479.94 303.7792,507.65" fill="none" id="TrampolineMonad-to-TrampolineKindHelper" style="stroke:#F5BDE6;stroke-width:1;stroke-dasharray:7,7;"/><polygon fill="#F5BDE6" points="298.24,509.956,308.0861,510.1897,302.856,508.0343,305.0114,502.8042,298.24,509.956" style="stroke:#F5BDE6;stroke-width:1;"/><text fill="#CAD3F5" font-family="Helvetica" font-size="12" lengthAdjust="spacing" textLength="25.6802" x="447.09" y="459.8341">uses</text></g><!--link Trampoline<A> to TrampolineKind<A>--><g class="link" data-entity-1="Trampoline.A." data-entity-2="TrampolineKind.A." data-source-line="42" data-uid="lnk19" id="link_Trampoline.A._TrampolineKind.A."><path codeLine="42" d="M670.94,599.366 C699.37,622.986 717.0862,637.7017 736.4362,653.7817" fill="none" id="Trampoline&lt;A&gt;-to-TrampolineKind&lt;A&gt;" style="stroke:#F5BDE6;stroke-width:1;stroke-dasharray:7,7;"/><polygon fill="none" points="750.28,665.286,740.271,649.1671,732.6014,658.3963,750.28,665.286" style="stroke:#F5BDE6;stroke-width:1;"/></g><!--link TrampolineKind<A> to Kind--><g class="link" data-entity-1="TrampolineKind.A." data-entity-2="Kind" data-source-line="43" data-uid="lnk20" id="link_TrampolineKind.A._Kind"><path codeLine="43" d="M739.35,697.796 C697.94,719.406 638.6074,750.3577 597.0674,772.0377" fill="none" id="TrampolineKind&lt;A&gt;-to-Kind" style="stroke:#F5BDE6;stroke-width:1;"/><polygon fill="none" points="581.11,780.366,599.8435,777.3569,594.2913,766.7186,581.11,780.366" style="stroke:#F5BDE6;stroke-width:1;"/><text fill="#CAD3F5" font-family="Helvetica" font-size="12" lengthAdjust="spacing" textLength="165.1332" x="667.62" y="746.6941">&lt;TrampolineKind.Witness, A&gt;</text></g><!--link TrampolineMonad to TrampolineKind<A>--><g class="link" data-entity-1="TrampolineMonad" data-entity-2="TrampolineKind.A." data-source-line="45" data-uid="lnk21" id="link_TrampolineMonad_TrampolineKind.A."><path codeLine="45" d="M697.56,416.406 C730.25,434.426 763.63,459.866 781.62,494.006 C811.65,551.016 789.3862,626.1341 776.9362,659.5241" fill="none" id="TrampolineMonad-to-TrampolineKind&lt;A&gt;" style="stroke:#F5BDE6;stroke-width:1;stroke-dasharray:7,7;"/><polygon fill="#F5BDE6" points="774.84,665.146,781.7323,658.1106,776.5868,660.4611,774.2364,655.3157,774.84,665.146" style="stroke:#F5BDE6;stroke-width:1;"/><text fill="#CAD3F5" font-family="Helvetica" font-size="12" lengthAdjust="spacing" textLength="261.3138" x="797" y="551.4241">operates on Kind&lt;TrampolineKind.Witness, A&gt;</text></g><!--link TrampolineMonad to Trampoline<A>--><g class="link" data-entity-1="TrampolineMonad" data-entity-2="Trampoline.A." data-source-line="46" data-uid="lnk22" id="link_TrampolineMonad_Trampoline.A."><path codeLine="46" d="M608.62,416.126 C608.62,438.736 608.62,462.446 608.62,487.706" fill="none" id="TrampolineMonad-to-Trampoline&lt;A&gt;" style="stroke:#F5BDE6;stroke-width:1;stroke-dasharray:7,7;"/><polygon fill="#F5BDE6" points="608.62,493.706,612.62,484.706,608.62,488.706,604.62,484.706,608.62,493.706" style="stroke:#F5BDE6;stroke-width:1;"/><text fill="#CAD3F5" font-family="Helvetica" font-size="12" lengthAdjust="spacing" textLength="93.4327" x="609.62" y="459.8341">uses methods of</text></g><!--SRC=[ZLJBRjim4BppAxQ-r44jwcu81fI3KQ18JobwwOMXgOeeNo1NSOt4_zuL_QZio8yRkPoTdPqb-KaxQRgLWXOnf7bPHh7clpMstKkNL9JUeNB8fRUbapwXABGifS0GEYcrAwoGijK2VH6CSDXPKs2hh2gjqAxCInueobYhgOgo0JTWbNrHCJ7cF2gOB47zfIgh13yrEfLI7JLkgkTDK7d5VpWHDujVhl4HX360T0BIY9HKce18a67VYOmnJO9Z8wI2RzgjgkKCwiKWkEoSH1-hvJ1OXs0qDQLVrUd1atTYrOVOiG9mdfaPsrD1zLuKGmesMEyECmrZMJ4yHs63Dzgf0u6smP1F3jD17hmnW2-x3lxZ-otVMpI3nmLO4QOvGtjNrJdKpAvdrGGH3spxKKqMUPp4LPKxw1qQgPflfZMy2jEfXxjwQep0fxE-RkJSrRKTxxh7VLKcg8FdRtJ7KSlj05DHEjt0wDVJMrN-KE3XbETMofhUXPkULiFZhYVxJ7UEz-BFXyNvOhoLET3ZJSF7C3afC86gIaeOjO8ZX6pSEL13xDnqrqNrEAnGNRXpbx1Zipn1vDpj1PtPEDBAsBbupjyNeyYH61G5WViTkN9b3kFkZX7EmPF70bK2xswDznRhdh4V5tsBs7fwUxvX_m00]--></g></svg>