<svg xmlns="http://www.w3.org/2000/svg" xmlns:xlink="http://www.w3.org/1999/xlink" contentStyleType="text/css" height="437px" preserveAspectRatio="none" style="width:1188px;height:437px;background:#24273A;" version="1.1" viewBox="0 0 1188 437" width="1188px" zoomAndPan="magnify"><defs/><g><rect fill="#24273A" height="437" style="stroke:none;stroke-width:1.0;" width="1188" x="0" y="0"/><!--class Functor--><g id="elem_Functor"><rect codeLine="4" fill="#24273A" height="50" id="Functor" rx="1.5" ry="1.5" style="stroke:#C6A0F6;stroke-width:2.0;" width="269.125" x="593.02" y="10"/><rect fill="#363A4F" height="30" rx="1.5" ry="1.5" style="stroke:#363A4F;stroke-width:2.0;" width="269.125" x="593.02" y="10"/><rect fill="#363A4F" height="1.5" style="stroke:#363A4F;stroke-width:2.0;" width="269.125" x="593.02" y="38.5"/><rect codeLine="4" fill="none" height="50" id="Functor" rx="1.5" ry="1.5" style="stroke:#C6A0F6;stroke-width:2.0;" width="269.125" x="593.02" y="10"/><ellipse cx="690.7964" cy="25" fill="#B4A7E5" rx="10" ry="10" style="stroke:#181818;stroke-width:1.0;"/><path d="M687.8042,22.2754 L687.8042,20.752 L693.0132,20.752 L693.0132,22.2754 L691.2729,22.2754 L691.2729,27.9766 L693.0132,27.9766 L693.0132,29.5 L687.8042,29.5 L687.8042,27.9766 L689.5444,27.9766 L689.5444,22.2754 Z " fill="#CAD3F5"/><text fill="#A6DA95" font-family="Helvetica" font-size="16" font-style="italic" lengthAdjust="spacing" textLength="54.2422" x="709.7964" y="29.3203">Functor</text><rect fill="#24273A" height="14" style="stroke:#C6A0F6;stroke-width:1.0;stroke-dasharray:2.0,2.0;" width="9.3301" x="855.8149" y="7"/><text fill="#CAD3F5" font-family="Helvetica" font-size="12" font-style="italic" lengthAdjust="spacing" textLength="7.3301" x="856.8149" y="17.2402">F</text><line style="stroke:#C6A0F6;stroke-width:2.0;" x1="594.02" x2="861.145" y1="40" y2="40"/><ellipse cx="604.02" cy="51.5" fill="#84BE84" rx="3" ry="3" style="stroke:#038048;stroke-width:1.0;"/><text fill="#A6DA95" font-family="Helvetica" font-size="12" lengthAdjust="spacing" textLength="244.125" x="612.02" y="53.2402">Kind&lt;F, B&gt; map(Function&lt;A, B&gt;, Kind&lt;F, A&gt;)</text></g><!--class Applicative--><g id="elem_Applicative"><rect codeLine="7" fill="#24273A" height="62" id="Applicative" rx="1.5" ry="1.5" style="stroke:#C6A0F6;stroke-width:2.0;" width="311.1602" x="372" y="121"/><rect fill="#363A4F" height="30" rx="1.5" ry="1.5" style="stroke:#363A4F;stroke-width:2.0;" width="311.1602" x="372" y="121"/><rect fill="#363A4F" height="1.5" style="stroke:#363A4F;stroke-width:2.0;" width="311.1602" x="372" y="149.5"/><rect codeLine="7" fill="none" height="62" id="Applicative" rx="1.5" ry="1.5" style="stroke:#C6A0F6;stroke-width:2.0;" width="311.1602" x="372" y="121"/><ellipse cx="479.2275" cy="136" fill="#B4A7E5" rx="10" ry="10" style="stroke:#181818;stroke-width:1.0;"/><path d="M476.2354,133.2754 L476.2354,131.752 L481.4443,131.752 L481.4443,133.2754 L479.7041,133.2754 L479.7041,138.9766 L481.4443,138.9766 L481.4443,140.5 L476.2354,140.5 L476.2354,138.9766 L477.9756,138.9766 L477.9756,133.2754 Z " fill="#CAD3F5"/><text fill="#A6DA95" font-family="Helvetica" font-size="16" font-style="italic" lengthAdjust="spacing" textLength="77.375" x="498.2275" y="140.3203">Applicative</text><rect fill="#24273A" height="14" style="stroke:#C6A0F6;stroke-width:1.0;stroke-dasharray:2.0,2.0;" width="9.3301" x="676.8301" y="118"/><text fill="#CAD3F5" font-family="Helvetica" font-size="12" font-style="italic" lengthAdjust="spacing" textLength="7.3301" x="677.8301" y="128.2402">F</text><line style="stroke:#C6A0F6;stroke-width:2.0;" x1="373" x2="682.1602" y1="151" y2="151"/><ellipse cx="383" cy="162.5" fill="#84BE84" rx="3" ry="3" style="stroke:#038048;stroke-width:1.0;"/><text fill="#A6DA95" font-family="Helvetica" font-size="12" lengthAdjust="spacing" textLength="89.373" x="391" y="164.2402">Kind&lt;F, A&gt; of(A)</text><ellipse cx="383" cy="174.5" fill="#84BE84" rx="3" ry="3" style="stroke:#038048;stroke-width:1.0;"/><text fill="#A6DA95" font-family="Helvetica" font-size="12" lengthAdjust="spacing" textLength="286.1602" x="391" y="176.2402">Kind&lt;F, B&gt; ap(Kind&lt;F, Function&lt;A, B&gt;&gt;, Kind&lt;F, A&gt;)</text></g><!--class Monad--><g id="elem_Monad"><rect codeLine="11" fill="#24273A" height="50" id="Monad" rx="1.5" ry="1.5" style="stroke:#C6A0F6;stroke-width:2.0;" width="337.1641" x="7" y="263"/><rect fill="#363A4F" height="30" rx="1.5" ry="1.5" style="stroke:#363A4F;stroke-width:2.0;" width="337.1641" x="7" y="263"/><rect fill="#363A4F" height="1.5" style="stroke:#363A4F;stroke-width:2.0;" width="337.1641" x="7" y="291.5"/><rect codeLine="11" fill="none" height="50" id="Monad" rx="1.5" ry="1.5" style="stroke:#C6A0F6;stroke-width:2.0;" width="337.1641" x="7" y="263"/><ellipse cx="141.4561" cy="278" fill="#B4A7E5" rx="10" ry="10" style="stroke:#181818;stroke-width:1.0;"/><path d="M138.4639,275.2754 L138.4639,273.752 L143.6729,273.752 L143.6729,275.2754 L141.9326,275.2754 L141.9326,280.9766 L143.6729,280.9766 L143.6729,282.5 L138.4639,282.5 L138.4639,280.9766 L140.2041,280.9766 L140.2041,275.2754 Z " fill="#CAD3F5"/><text fill="#A6DA95" font-family="Helvetica" font-size="16" font-style="italic" lengthAdjust="spacing" textLength="48.9219" x="160.4561" y="282.3203">Monad</text><rect fill="#24273A" height="14" style="stroke:#C6A0F6;stroke-width:1.0;stroke-dasharray:2.0,2.0;" width="9.3301" x="337.834" y="260"/><text fill="#CAD3F5" font-family="Helvetica" font-size="12" font-style="italic" lengthAdjust="spacing" textLength="7.3301" x="338.834" y="270.2402">F</text><line style="stroke:#C6A0F6;stroke-width:2.0;" x1="8" x2="343.1641" y1="293" y2="293"/><ellipse cx="18" cy="304.5" fill="#84BE84" rx="3" ry="3" style="stroke:#038048;stroke-width:1.0;"/><text fill="#A6DA95" font-family="Helvetica" font-size="12" lengthAdjust="spacing" textLength="312.1641" x="26" y="306.2402">Kind&lt;F, B&gt; flatMap(Function&lt;A, Kind&lt;F, B&gt;&gt;, Kind&lt;F, A&gt;)</text></g><!--class IOKindHelper--><g id="elem_IOKindHelper"><rect codeLine="16" fill="#24273A" height="62" id="IOKindHelper" rx="1.5" ry="1.5" style="stroke:#C6A0F6;stroke-width:2.0;" width="230.0918" x="951.54" y="257"/><rect fill="#363A4F" height="30" rx="1.5" ry="1.5" style="stroke:#363A4F;stroke-width:2.0;" width="230.0918" x="951.54" y="257"/><rect fill="#363A4F" height="1.5" style="stroke:#363A4F;stroke-width:2.0;" width="230.0918" x="951.54" y="285.5"/><rect codeLine="16" fill="none" height="62" id="IOKindHelper" rx="1.5" ry="1.5" style="stroke:#C6A0F6;stroke-width:2.0;" width="230.0918" x="951.54" y="257"/><ellipse cx="1014.5625" cy="272" fill="#ADD1B2" rx="10" ry="10" style="stroke:#181818;stroke-width:1.0;"/><path d="M1016.3964,276.248 Q1015.9863,276.459 1015.5351,276.5645 Q1015.0839,276.6699 1014.5859,276.6699 Q1012.8164,276.6699 1011.8847,275.5039 Q1010.9531,274.3379 1010.9531,272.1348 Q1010.9531,269.9258 1011.8847,268.7598 Q1012.8164,267.5938 1014.5859,267.5938 Q1015.0839,267.5938 1015.541,267.6992 Q1015.998,267.8047 1016.3964,268.0156 L1016.3964,269.9375 Q1015.9511,269.5273 1015.5322,269.3369 Q1015.1132,269.1465 1014.6679,269.1465 Q1013.7187,269.1465 1013.2353,269.8994 Q1012.7519,270.6523 1012.7519,272.1348 Q1012.7519,273.6113 1013.2353,274.3643 Q1013.7187,275.1172 1014.6679,275.1172 Q1015.1132,275.1172 1015.5322,274.9268 Q1015.9511,274.7363 1016.3964,274.3262 Z " fill="#CAD3F5"/><text fill="#A6DA95" font-family="Helvetica" font-size="16" lengthAdjust="spacing" textLength="96.0469" x="1033.5625" y="276.3203">IOKindHelper</text><line style="stroke:#C6A0F6;stroke-width:2.0;" x1="952.54" x2="1180.6318" y1="287" y2="287"/><text fill="#A6DA95" font-family="Helvetica" font-size="12" lengthAdjust="spacing" text-decoration="underline" textLength="212.7656" x="957.54" y="300.2402">Kind&lt;IOKind.Witness, A&gt; widen(IO&lt;A&gt;)</text><text fill="#A6DA95" font-family="Helvetica" font-size="12" lengthAdjust="spacing" text-decoration="underline" textLength="218.0918" x="957.54" y="312.2402">IO&lt;A&gt; narrow(Kind&lt;IOKind.Witness, A&gt;)</text></g><!--class IOFunctor--><g id="elem_IOFunctor"><rect codeLine="22" fill="#24273A" height="50" id="IOFunctor" rx="1.5" ry="1.5" style="stroke:#C6A0F6;stroke-width:2.0;" width="419.8516" x="718.66" y="127"/><rect fill="#363A4F" height="30" rx="1.5" ry="1.5" style="stroke:#363A4F;stroke-width:2.0;" width="419.8516" x="718.66" y="127"/><rect fill="#363A4F" height="1.5" style="stroke:#363A4F;stroke-width:2.0;" width="419.8516" x="718.66" y="155.5"/><rect codeLine="22" fill="none" height="50" id="IOFunctor" rx="1.5" ry="1.5" style="stroke:#C6A0F6;stroke-width:2.0;" width="419.8516" x="718.66" y="127"/><ellipse cx="889.0194" cy="142" fill="#ADD1B2" rx="10" ry="10" style="stroke:#181818;stroke-width:1.0;"/><path d="M890.8534,146.248 Q890.4432,146.459 889.992,146.5645 Q889.5409,146.6699 889.0428,146.6699 Q887.2733,146.6699 886.3416,145.5039 Q885.41,144.3379 885.41,142.1348 Q885.41,139.9258 886.3416,138.7598 Q887.2733,137.5938 889.0428,137.5938 Q889.5409,137.5938 889.9979,137.6992 Q890.4549,137.8047 890.8534,138.0156 L890.8534,139.9375 Q890.408,139.5273 889.9891,139.3369 Q889.5702,139.1465 889.1248,139.1465 Q888.1756,139.1465 887.6922,139.8994 Q887.2088,140.6523 887.2088,142.1348 Q887.2088,143.6113 887.6922,144.3643 Q888.1756,145.1172 889.1248,145.1172 Q889.5702,145.1172 889.9891,144.9268 Q890.408,144.7363 890.8534,144.3262 Z " fill="#CAD3F5"/><text fill="#A6DA95" font-family="Helvetica" font-size="16" lengthAdjust="spacing" textLength="71.1328" x="908.0194" y="146.3203">IOFunctor</text><line style="stroke:#C6A0F6;stroke-width:2.0;" x1="719.66" x2="1137.5116" y1="157" y2="157"/><ellipse cx="729.66" cy="168.5" fill="#84BE84" rx="3" ry="3" style="stroke:#038048;stroke-width:1.0;"/><text fill="#A6DA95" font-family="Helvetica" font-size="12" lengthAdjust="spacing" textLength="394.8516" x="737.66" y="170.2402">Kind&lt;IOKind.Witness, B&gt; map(Function&lt;A, B&gt;, Kind&lt;IOKind.Witness, A&gt;)</text></g><!--class IOApplicative--><g id="elem_IOApplicative"><rect codeLine="27" fill="#24273A" height="62" id="IOApplicative" rx="1.5" ry="1.5" style="stroke:#C6A0F6;stroke-width:2.0;" width="537.25" x="378.96" y="257"/><rect fill="#363A4F" height="30" rx="1.5" ry="1.5" style="stroke:#363A4F;stroke-width:2.0;" width="537.25" x="378.96" y="257"/><rect fill="#363A4F" height="1.5" style="stroke:#363A4F;stroke-width:2.0;" width="537.25" x="378.96" y="285.5"/><rect codeLine="27" fill="none" height="62" id="IOApplicative" rx="1.5" ry="1.5" style="stroke:#C6A0F6;stroke-width:2.0;" width="537.25" x="378.96" y="257"/><ellipse cx="596.4522" cy="272" fill="#ADD1B2" rx="10" ry="10" style="stroke:#181818;stroke-width:1.0;"/><path d="M598.2862,276.248 Q597.876,276.459 597.4248,276.5645 Q596.9737,276.6699 596.4756,276.6699 Q594.7061,276.6699 593.7745,275.5039 Q592.8428,274.3379 592.8428,272.1348 Q592.8428,269.9258 593.7745,268.7598 Q594.7061,267.5938 596.4756,267.5938 Q596.9737,267.5938 597.4307,267.6992 Q597.8877,267.8047 598.2862,268.0156 L598.2862,269.9375 Q597.8409,269.5273 597.4219,269.3369 Q597.003,269.1465 596.5577,269.1465 Q595.6084,269.1465 595.125,269.8994 Q594.6416,270.6523 594.6416,272.1348 Q594.6416,273.6113 595.125,274.3643 Q595.6084,275.1172 596.5577,275.1172 Q597.003,275.1172 597.4219,274.9268 Q597.8409,274.7363 598.2862,274.3262 Z " fill="#CAD3F5"/><text fill="#A6DA95" font-family="Helvetica" font-size="16" lengthAdjust="spacing" textLength="94.2656" x="615.4522" y="276.3203">IOApplicative</text><line style="stroke:#C6A0F6;stroke-width:2.0;" x1="379.96" x2="915.21" y1="287" y2="287"/><ellipse cx="389.96" cy="298.5" fill="#84BE84" rx="3" ry="3" style="stroke:#038048;stroke-width:1.0;"/><text fill="#A6DA95" font-family="Helvetica" font-size="12" lengthAdjust="spacing" textLength="164.7363" x="397.96" y="300.2402">Kind&lt;IOKind.Witness, A&gt; of(A)</text><ellipse cx="389.96" cy="310.5" fill="#84BE84" rx="3" ry="3" style="stroke:#038048;stroke-width:1.0;"/><text fill="#A6DA95" font-family="Helvetica" font-size="12" lengthAdjust="spacing" textLength="512.25" x="397.96" y="312.2402">Kind&lt;IOKind.Witness, B&gt; ap(Kind&lt;IOKind.Witness, Function&lt;A, B&gt;&gt;, Kind&lt;IOKind.Witness, A&gt;)</text></g><!--class IOMonad--><g id="elem_IOMonad"><rect codeLine="32" fill="#24273A" height="50" id="IOMonad" rx="1.5" ry="1.5" style="stroke:#C6A0F6;stroke-width:2.0;" width="563.2539" x="128.96" y="380"/><rect fill="#363A4F" height="30" rx="1.5" ry="1.5" style="stroke:#363A4F;stroke-width:2.0;" width="563.2539" x="128.96" y="380"/><rect fill="#363A4F" height="1.5" style="stroke:#363A4F;stroke-width:2.0;" width="563.2539" x="128.96" y="408.5"/><rect codeLine="32" fill="none" height="50" id="IOMonad" rx="1.5" ry="1.5" style="stroke:#C6A0F6;stroke-width:2.0;" width="563.2539" x="128.96" y="380"/><ellipse cx="373.6807" cy="395" fill="#ADD1B2" rx="10" ry="10" style="stroke:#181818;stroke-width:1.0;"/><path d="M375.5147,399.248 Q375.1045,399.459 374.6534,399.5645 Q374.2022,399.6699 373.7041,399.6699 Q371.9346,399.6699 371.003,398.5039 Q370.0713,397.3379 370.0713,395.1348 Q370.0713,392.9258 371.003,391.7598 Q371.9346,390.5938 373.7041,390.5938 Q374.2022,390.5938 374.6592,390.6992 Q375.1163,390.8047 375.5147,391.0156 L375.5147,392.9375 Q375.0694,392.5273 374.6504,392.3369 Q374.2315,392.1465 373.7862,392.1465 Q372.837,392.1465 372.3536,392.8994 Q371.8702,393.6523 371.8702,395.1348 Q371.8702,396.6113 372.3536,397.3643 Q372.837,398.1172 373.7862,398.1172 Q374.2315,398.1172 374.6504,397.9268 Q375.0694,397.7363 375.5147,397.3262 Z " fill="#CAD3F5"/><text fill="#A6DA95" font-family="Helvetica" font-size="16" lengthAdjust="spacing" textLength="65.8125" x="392.6807" y="399.3203">IOMonad</text><line style="stroke:#C6A0F6;stroke-width:2.0;" x1="129.96" x2="691.2139" y1="410" y2="410"/><ellipse cx="139.96" cy="421.5" fill="#84BE84" rx="3" ry="3" style="stroke:#038048;stroke-width:1.0;"/><text fill="#A6DA95" font-family="Helvetica" font-size="12" lengthAdjust="spacing" textLength="538.2539" x="147.96" y="423.2402">Kind&lt;IOKind.Witness, B&gt; flatMap(Function&lt;A, Kind&lt;IOKind.Witness, B&gt;&gt;, Kind&lt;IOKind.Witness, A&gt;)</text></g><!--reverse link Functor to Applicative--><g id="link_Functor_Applicative"><path d="M669.5643,69.36 C638.9443,86.96 613.01,101.88 580.27,120.71 " fill="none" id="Functor-backto-Applicative" style="stroke:#F5BDE6;stroke-width:1.0;"/><polygon fill="none" points="685.17,60.39,666.5743,64.1581,672.5543,74.5619,685.17,60.39" style="stroke:#F5BDE6;stroke-width:1.0;"/></g><!--reverse link Applicative to Monad--><g id="link_Applicative_Monad"><path d="M430.8871,189.8122 C368.0071,213.7422 298.33,240.27 239.87,262.53 " fill="none" id="Applicative-backto-Monad" style="stroke:#F5BDE6;stroke-width:1.0;"/><polygon fill="none" points="447.71,183.41,428.753,184.2046,433.0211,195.4199,447.71,183.41" style="stroke:#F5BDE6;stroke-width:1.0;"/></g><!--reverse link Functor to IOFunctor--><g id="link_Functor_IOFunctor"><path d="M785.8347,69.3269 C819.9447,88.8369 851.92,107.14 886.02,126.65 " fill="none" id="Functor-backto-IOFunctor" style="stroke:#F5BDE6;stroke-width:1.0;stroke-dasharray:7.0,7.0;"/><polygon fill="none" points="770.21,60.39,782.8557,74.5351,788.8137,64.1187,770.21,60.39" style="stroke:#F5BDE6;stroke-width:1.0;"/></g><!--link IOFunctor to IOKindHelper--><g id="link_IOFunctor_IOKindHelper"><path codeLine="25" d="M953.57,177.27 C976.49,199.52 1006.2052,228.3705 1030.9352,252.3805 " fill="none" id="IOFunctor-to-IOKindHelper" style="stroke:#F5BDE6;stroke-width:1.0;stroke-dasharray:7.0,7.0;"/><polygon fill="#F5BDE6" points="1035.24,256.56,1031.5691,247.4208,1031.6526,253.0771,1025.9964,253.1606,1035.24,256.56" style="stroke:#F5BDE6;stroke-width:1.0;"/><text fill="#CAD3F5" font-family="Helvetica" font-size="12" lengthAdjust="spacing" textLength="25.3477" x="1002.72" y="223.2402">uses</text></g><!--reverse link IOFunctor to IOApplicative--><g id="link_IOFunctor_IOApplicative"><path d="M861.1226,185.1673 C814.5026,207.3973 761.74,232.56 711.51,256.51 " fill="none" id="IOFunctor-backto-IOApplicative" style="stroke:#F5BDE6;stroke-width:1.0;"/><polygon fill="none" points="877.37,177.42,858.5401,179.7515,863.705,190.5831,877.37,177.42" style="stroke:#F5BDE6;stroke-width:1.0;"/></g><!--reverse link Applicative to IOApplicative--><g id="link_Applicative_IOApplicative"><path d="M566.8186,196.8187 C586.4586,218.7487 600.85,234.81 620.46,256.71 " fill="none" id="Applicative-backto-IOApplicative" style="stroke:#F5BDE6;stroke-width:1.0;stroke-dasharray:7.0,7.0;"/><polygon fill="none" points="554.81,183.41,562.349,200.8216,571.2881,192.8159,554.81,183.41" style="stroke:#F5BDE6;stroke-width:1.0;"/></g><!--reverse link IOApplicative to IOMonad--><g id="link_IOApplicative_IOMonad"><path d="M568.8055,327.2273 C529.9955,346.0573 497,362.07 460.75,379.65 " fill="none" id="IOApplicative-backto-IOMonad" style="stroke:#F5BDE6;stroke-width:1.0;"/><polygon fill="none" points="585,319.37,566.1864,321.8292,571.4246,332.6255,585,319.37" style="stroke:#F5BDE6;stroke-width:1.0;"/></g><!--reverse link Monad to IOMonad--><g id="link_Monad_IOMonad"><path d="M241.5888,321.3001 C281.4688,340.8101 320.96,360.14 360.82,379.65 " fill="none" id="Monad-backto-IOMonad" style="stroke:#F5BDE6;stroke-width:1.0;stroke-dasharray:7.0,7.0;"/><polygon fill="none" points="225.42,313.39,238.9521,326.6897,244.2255,315.9105,225.42,313.39" style="stroke:#F5BDE6;stroke-width:1.0;"/></g><!--SRC=[bLB9Ri8m4BtxAznJWqgSEueYfGTKL26EFHl7D9QyoPwKLeX_hnCACLcGUejd9c-PUKz2CzbK7DS0rg-opD4Z-HHGD_l6SyUC1gw1CACopOm7cWgMCGhMDem9dIhAM2qecDHAgg5HCeMQAvufAdJMVH8RggWMWOGh2pzOSRNdpYCa0hWxKCRnkj4CZClN1JuXZ5_mkz1LlbxYrm8hQfEkBupEoxQqlBNBOe7E4KvfhHH1dlZYBHR_3kehFmzV5jWSad8nv0oKrzSzzGFkhT6qYba7OaR63fB2Tc2kRu-O46AIUeytkxR-ngNbhWKzXQk0OEVB-ALBFWHexdtdy1XMhvFDBczn-l6kW3LrpXoJcN_3_3CcXBJqL_Q_PMAXh0pdrT3lznwWi_moBUlHNQTad55FJ4XnluGL3bdrlS9eyRTZJEgEBpIXVKxyE3KJzguH6hQcypJj-UQeorRa9NOO-Rb4y5zNc0tXUFQnrby0]--></g></svg>