<svg xmlns="http://www.w3.org/2000/svg" xmlns:xlink="http://www.w3.org/1999/xlink" contentStyleType="text/css" height="775px" preserveAspectRatio="none" style="width:1179px;height:775px;background:#24273A;" version="1.1" viewBox="0 0 1179 775" width="1179px" zoomAndPan="magnify"><defs/><g><rect fill="#24273A" height="775" style="stroke:none;stroke-width:1.0;" width="1179" x="0" y="0"/><!--class Kind--><g id="elem_Kind"><rect codeLine="4" fill="#24273A" height="30" id="Kind" rx="1.5" ry="1.5" style="stroke:#C6A0F6;stroke-width:2.0;" width="88.0254" x="957.66" y="738"/><rect fill="#363A4F" height="30" rx="1.5" ry="1.5" style="stroke:#363A4F;stroke-width:2.0;" width="88.0254" x="957.66" y="738"/><rect fill="#363A4F" height="1.5" style="stroke:#363A4F;stroke-width:2.0;" width="88.0254" x="957.66" y="766.5"/><rect codeLine="4" fill="none" height="30" id="Kind" rx="1.5" ry="1.5" style="stroke:#C6A0F6;stroke-width:2.0;" width="88.0254" x="957.66" y="738"/><ellipse cx="971.66" cy="753" fill="#B4A7E5" rx="10" ry="10" style="stroke:#181818;stroke-width:1.0;"/><path d="M968.6678,750.2754 L968.6678,748.752 L973.8768,748.752 L973.8768,750.2754 L972.1366,750.2754 L972.1366,755.9766 L973.8768,755.9766 L973.8768,757.5 L968.6678,757.5 L968.6678,755.9766 L970.408,755.9766 L970.408,750.2754 Z " fill="#CAD3F5"/><text fill="#A6DA95" font-family="Helvetica" font-size="16" font-style="italic" lengthAdjust="spacing" textLength="32.0234" x="984.66" y="757.3203">Kind</text><rect fill="#24273A" height="14" style="stroke:#C6A0F6;stroke-width:1.0;stroke-dasharray:2.0,2.0;" width="24.002" x="1024.6834" y="735"/><text fill="#CAD3F5" font-family="Helvetica" font-size="12" font-style="italic" lengthAdjust="spacing" textLength="22.002" x="1025.6834" y="745.2402">F, A</text></g><!--class Functor--><g id="elem_Functor"><rect codeLine="5" fill="#24273A" height="30" id="Functor" rx="1.5" ry="1.5" style="stroke:#C6A0F6;stroke-width:2.0;" width="95.5723" x="881.89" y="614"/><rect fill="#363A4F" height="30" rx="1.5" ry="1.5" style="stroke:#363A4F;stroke-width:2.0;" width="95.5723" x="881.89" y="614"/><rect fill="#363A4F" height="1.5" style="stroke:#363A4F;stroke-width:2.0;" width="95.5723" x="881.89" y="642.5"/><rect codeLine="5" fill="none" height="30" id="Functor" rx="1.5" ry="1.5" style="stroke:#C6A0F6;stroke-width:2.0;" width="95.5723" x="881.89" y="614"/><ellipse cx="895.89" cy="629" fill="#B4A7E5" rx="10" ry="10" style="stroke:#181818;stroke-width:1.0;"/><path d="M892.8978,626.2754 L892.8978,624.752 L898.1068,624.752 L898.1068,626.2754 L896.3666,626.2754 L896.3666,631.9766 L898.1068,631.9766 L898.1068,633.5 L892.8978,633.5 L892.8978,631.9766 L894.638,631.9766 L894.638,626.2754 Z " fill="#CAD3F5"/><text fill="#A6DA95" font-family="Helvetica" font-size="16" font-style="italic" lengthAdjust="spacing" textLength="54.2422" x="908.89" y="633.3203">Functor</text><rect fill="#24273A" height="14" style="stroke:#C6A0F6;stroke-width:1.0;stroke-dasharray:2.0,2.0;" width="9.3301" x="971.1322" y="611"/><text fill="#CAD3F5" font-family="Helvetica" font-size="12" font-style="italic" lengthAdjust="spacing" textLength="7.3301" x="972.1322" y="621.2402">F</text></g><!--class Applicative--><g id="elem_Applicative"><rect codeLine="6" fill="#24273A" height="30" id="Applicative" rx="1.5" ry="1.5" style="stroke:#C6A0F6;stroke-width:2.0;" width="118.7051" x="960.32" y="439"/><rect fill="#363A4F" height="30" rx="1.5" ry="1.5" style="stroke:#363A4F;stroke-width:2.0;" width="118.7051" x="960.32" y="439"/><rect fill="#363A4F" height="1.5" style="stroke:#363A4F;stroke-width:2.0;" width="118.7051" x="960.32" y="467.5"/><rect codeLine="6" fill="none" height="30" id="Applicative" rx="1.5" ry="1.5" style="stroke:#C6A0F6;stroke-width:2.0;" width="118.7051" x="960.32" y="439"/><ellipse cx="974.32" cy="454" fill="#B4A7E5" rx="10" ry="10" style="stroke:#181818;stroke-width:1.0;"/><path d="M971.3278,451.2754 L971.3278,449.752 L976.5368,449.752 L976.5368,451.2754 L974.7966,451.2754 L974.7966,456.9766 L976.5368,456.9766 L976.5368,458.5 L971.3278,458.5 L971.3278,456.9766 L973.068,456.9766 L973.068,451.2754 Z " fill="#CAD3F5"/><text fill="#A6DA95" font-family="Helvetica" font-size="16" font-style="italic" lengthAdjust="spacing" textLength="77.375" x="987.32" y="458.3203">Applicative</text><rect fill="#24273A" height="14" style="stroke:#C6A0F6;stroke-width:1.0;stroke-dasharray:2.0,2.0;" width="9.3301" x="1072.695" y="436"/><text fill="#CAD3F5" font-family="Helvetica" font-size="12" font-style="italic" lengthAdjust="spacing" textLength="7.3301" x="1073.695" y="446.2402">F</text></g><!--class MonadBase--><g id="elem_MonadBase"><rect codeLine="7" fill="#24273A" height="30" id="MonadBase" rx="1.5" ry="1.5" style="stroke:#C6A0F6;stroke-width:2.0;" width="92.918" x="967.21" y="243"/><rect fill="#363A4F" height="30" rx="1.5" ry="1.5" style="stroke:#363A4F;stroke-width:2.0;" width="92.918" x="967.21" y="243"/><rect fill="#363A4F" height="1.5" style="stroke:#363A4F;stroke-width:2.0;" width="92.918" x="967.21" y="271.5"/><rect codeLine="7" fill="none" height="30" id="MonadBase" rx="1.5" ry="1.5" style="stroke:#C6A0F6;stroke-width:2.0;" width="92.918" x="967.21" y="243"/><ellipse cx="981.21" cy="258" fill="#B4A7E5" rx="10" ry="10" style="stroke:#181818;stroke-width:1.0;"/><path d="M978.2178,255.2754 L978.2178,253.752 L983.4268,253.752 L983.4268,255.2754 L981.6866,255.2754 L981.6866,260.9766 L983.4268,260.9766 L983.4268,262.5 L978.2178,262.5 L978.2178,260.9766 L979.958,260.9766 L979.958,255.2754 Z " fill="#CAD3F5"/><text fill="#A6DA95" font-family="Helvetica" font-size="16" font-style="italic" lengthAdjust="spacing" textLength="48.9219" x="994.21" y="262.3203">Monad</text><rect fill="#24273A" height="14" style="stroke:#C6A0F6;stroke-width:1.0;stroke-dasharray:2.0,2.0;" width="11.9961" x="1051.1319" y="240"/><text fill="#CAD3F5" font-family="Helvetica" font-size="12" font-style="italic" lengthAdjust="spacing" textLength="9.9961" x="1052.1319" y="250.2402">M</text></g><!--class MonadErrorBase--><g id="elem_MonadErrorBase"><rect codeLine="8" fill="#24273A" height="30" id="MonadErrorBase" rx="1.5" ry="1.5" style="stroke:#C6A0F6;stroke-width:2.0;" width="143.1445" x="834.1" y="111"/><rect fill="#363A4F" height="30" rx="1.5" ry="1.5" style="stroke:#363A4F;stroke-width:2.0;" width="143.1445" x="834.1" y="111"/><rect fill="#363A4F" height="1.5" style="stroke:#363A4F;stroke-width:2.0;" width="143.1445" x="834.1" y="139.5"/><rect codeLine="8" fill="none" height="30" id="MonadErrorBase" rx="1.5" ry="1.5" style="stroke:#C6A0F6;stroke-width:2.0;" width="143.1445" x="834.1" y="111"/><ellipse cx="848.1" cy="126" fill="#B4A7E5" rx="10" ry="10" style="stroke:#181818;stroke-width:1.0;"/><path d="M845.1078,123.2754 L845.1078,121.752 L850.3168,121.752 L850.3168,123.2754 L848.5766,123.2754 L848.5766,128.9766 L850.3168,128.9766 L850.3168,130.5 L845.1078,130.5 L845.1078,128.9766 L846.848,128.9766 L846.848,123.2754 Z " fill="#CAD3F5"/><text fill="#A6DA95" font-family="Helvetica" font-size="16" font-style="italic" lengthAdjust="spacing" textLength="84.4766" x="861.1" y="130.3203">MonadError</text><rect fill="#24273A" height="14" style="stroke:#C6A0F6;stroke-width:1.0;stroke-dasharray:2.0,2.0;" width="26.668" x="953.5766" y="108"/><text fill="#CAD3F5" font-family="Helvetica" font-size="12" font-style="italic" lengthAdjust="spacing" textLength="24.668" x="954.5766" y="118.2402">M, E</text></g><!--class MaybeInterface--><g id="elem_MaybeInterface"><rect codeLine="11" fill="#24273A" height="158" id="MaybeInterface" rx="1.5" ry="1.5" style="stroke:#C6A0F6;stroke-width:2.0;" width="224.4004" x="91.47" y="375"/><rect fill="#363A4F" height="30" rx="1.5" ry="1.5" style="stroke:#363A4F;stroke-width:2.0;" width="224.4004" x="91.47" y="375"/><rect fill="#363A4F" height="1.5" style="stroke:#363A4F;stroke-width:2.0;" width="224.4004" x="91.47" y="403.5"/><rect codeLine="11" fill="none" height="158" id="MaybeInterface" rx="1.5" ry="1.5" style="stroke:#C6A0F6;stroke-width:2.0;" width="224.4004" x="91.47" y="375"/><ellipse cx="169.9934" cy="390" fill="#ADD8E6" rx="10" ry="10" style="stroke:#181818;stroke-width:1.0;"/><path d="M166.4973,385.752 L168.5598,385.752 L169.6028,389.5898 L170.6399,385.752 L172.7141,385.752 L172.7141,394.5 L171.2259,394.5 L171.2259,387.4922 L170.3001,391.3184 L168.9231,391.3184 L167.9856,387.4922 L167.9856,394.5 L166.4973,394.5 Z " fill="#CAD3F5"/><text fill="#A6DA95" font-family="Helvetica" font-size="16" font-style="italic" lengthAdjust="spacing" textLength="48.0234" x="188.9934" y="394.3203">Maybe</text><rect fill="#24273A" height="14" style="stroke:#C6A0F6;stroke-width:1.0;stroke-dasharray:2.0,2.0;" width="9.3301" x="309.5403" y="372"/><text fill="#CAD3F5" font-family="Helvetica" font-size="12" font-style="italic" lengthAdjust="spacing" textLength="7.3301" x="310.5403" y="382.2402">T</text><line style="stroke:#C6A0F6;stroke-width:2.0;" x1="92.47" x2="314.8704" y1="405" y2="405"/><ellipse cx="102.47" cy="416.5" fill="#84BE84" rx="3" ry="3" style="stroke:#038048;stroke-width:1.0;"/><text fill="#A6DA95" font-family="Helvetica" font-size="12" lengthAdjust="spacing" textLength="150.7148" x="110.47" y="418.2402">static &lt;T&gt; Maybe&lt;T&gt; just(T)</text><ellipse cx="102.47" cy="428.5" fill="#84BE84" rx="3" ry="3" style="stroke:#038048;stroke-width:1.0;"/><text fill="#A6DA95" font-family="Helvetica" font-size="12" lengthAdjust="spacing" textLength="164.0801" x="110.47" y="430.2402">static &lt;T&gt; Maybe&lt;T&gt; nothing()</text><ellipse cx="102.47" cy="440.5" fill="#84BE84" rx="3" ry="3" style="stroke:#038048;stroke-width:1.0;"/><text fill="#A6DA95" font-family="Helvetica" font-size="12" lengthAdjust="spacing" textLength="199.4004" x="110.47" y="442.2402">static &lt;T&gt; Maybe&lt;T&gt; fromNullable(T)</text><ellipse cx="102.47" cy="452.5" fill="#84BE84" rx="3" ry="3" style="stroke:#038048;stroke-width:1.0;"/><text fill="#A6DA95" font-family="Helvetica" font-size="12" lengthAdjust="spacing" textLength="84.709" x="110.47" y="454.2402">boolean isJust()</text><ellipse cx="102.47" cy="464.5" fill="#84BE84" rx="3" ry="3" style="stroke:#038048;stroke-width:1.0;"/><text fill="#A6DA95" font-family="Helvetica" font-size="12" lengthAdjust="spacing" textLength="104.0625" x="110.47" y="466.2402">boolean isNothing()</text><ellipse cx="102.47" cy="476.5" fill="#84BE84" rx="3" ry="3" style="stroke:#038048;stroke-width:1.0;"/><text fill="#A6DA95" font-family="Helvetica" font-size="12" lengthAdjust="spacing" textLength="35.3379" x="110.47" y="478.2402">T get()</text><ellipse cx="102.47" cy="488.5" fill="#84BE84" rx="3" ry="3" style="stroke:#038048;stroke-width:1.0;"/><text fill="#A6DA95" font-family="Helvetica" font-size="12" lengthAdjust="spacing" textLength="60" x="110.47" y="490.2402">T orElse(T)</text><ellipse cx="102.47" cy="500.5" fill="#84BE84" rx="3" ry="3" style="stroke:#038048;stroke-width:1.0;"/><text fill="#A6DA95" font-family="Helvetica" font-size="12" lengthAdjust="spacing" textLength="137.3848" x="110.47" y="502.2402">T orElseGet(Supplier&lt;T&gt;)</text><ellipse cx="102.47" cy="512.5" fill="#84BE84" rx="3" ry="3" style="stroke:#038048;stroke-width:1.0;"/><text fill="#A6DA95" font-family="Helvetica" font-size="12" lengthAdjust="spacing" textLength="36.0176" x="110.47" y="514.2402">Maybe</text><text fill="#A6DA95" font-family="Helvetica" font-size="12" lengthAdjust="spacing" text-decoration="underline" textLength="110.707" x="149.8216" y="514.2402">map(Function&lt;T,U&gt;)</text><ellipse cx="102.47" cy="524.5" fill="#84BE84" rx="3" ry="3" style="stroke:#038048;stroke-width:1.0;"/><text fill="#A6DA95" font-family="Helvetica" font-size="12" lengthAdjust="spacing" textLength="36.0176" x="110.47" y="526.2402">Maybe</text><text fill="#A6DA95" font-family="Helvetica" font-size="12" lengthAdjust="spacing" text-decoration="underline" textLength="143.0625" x="149.8216" y="526.2402">flatMap(Function&lt;T,Maybe</text><text fill="#A6DA95" font-family="Helvetica" font-size="12" lengthAdjust="spacing" text-decoration="underline" textLength="11.0039" x="292.8841" y="526.2402">&gt;)</text></g><!--class Just<T>--><g id="elem_Just&lt;T&gt;"><rect codeLine="24" fill="#24273A" height="70" id="Just&lt;T&gt;" rx="1.5" ry="1.5" style="stroke:#C6A0F6;stroke-width:2.0;" width="87.8047" x="220.77" y="594"/><rect fill="#363A4F" height="30" rx="1.5" ry="1.5" style="stroke:#363A4F;stroke-width:2.0;" width="87.8047" x="220.77" y="594"/><rect fill="#363A4F" height="1.5" style="stroke:#363A4F;stroke-width:2.0;" width="87.8047" x="220.77" y="622.5"/><rect codeLine="24" fill="none" height="70" id="Just&lt;T&gt;" rx="1.5" ry="1.5" style="stroke:#C6A0F6;stroke-width:2.0;" width="87.8047" x="220.77" y="594"/><ellipse cx="234.77" cy="609" fill="#ADD1B2" rx="10" ry="10" style="stroke:#181818;stroke-width:1.0;"/><path d="M236.604,613.248 Q236.1938,613.459 235.7427,613.5645 Q235.2915,613.6699 234.7934,613.6699 Q233.0239,613.6699 232.0923,612.5039 Q231.1606,611.3379 231.1606,609.1348 Q231.1606,606.9258 232.0923,605.7598 Q233.0239,604.5938 234.7934,604.5938 Q235.2915,604.5938 235.7485,604.6992 Q236.2055,604.8047 236.604,605.0156 L236.604,606.9375 Q236.1587,606.5273 235.7397,606.3369 Q235.3208,606.1465 234.8755,606.1465 Q233.9263,606.1465 233.4429,606.8994 Q232.9595,607.6523 232.9595,609.1348 Q232.9595,610.6113 233.4429,611.3643 Q233.9263,612.1172 234.8755,612.1172 Q235.3208,612.1172 235.7397,611.9268 Q236.1587,611.7363 236.604,611.3262 Z " fill="#CAD3F5"/><text fill="#A6DA95" font-family="Helvetica" font-size="16" lengthAdjust="spacing" textLength="57.8047" x="247.77" y="613.3203">Just&lt;T&gt;</text><line style="stroke:#C6A0F6;stroke-width:2.0;" x1="221.77" x2="307.5747" y1="624" y2="624"/><rect fill="none" height="6" style="stroke:#C82930;stroke-width:1.0;" width="6" x="228.77" y="632.5"/><text fill="#A6DA95" font-family="Helvetica" font-size="12" lengthAdjust="spacing" textLength="39.3516" x="239.77" y="637.2402">T value</text><line style="stroke:#C6A0F6;stroke-width:2.0;" x1="221.77" x2="307.5747" y1="644" y2="644"/><ellipse cx="231.77" cy="655.5" fill="#84BE84" rx="3" ry="3" style="stroke:#038048;stroke-width:1.0;"/><text fill="#A6DA95" font-family="Helvetica" font-size="12" lengthAdjust="spacing" textLength="37.3301" x="239.77" y="657.2402">Just(T)</text></g><!--class Nothing<T>--><g id="elem_Nothing&lt;T&gt;"><rect codeLine="29" fill="#24273A" height="70" id="Nothing&lt;T&gt;" rx="1.5" ry="1.5" style="stroke:#C6A0F6;stroke-width:2.0;" width="199.75" x="343.8" y="594"/><rect fill="#363A4F" height="30" rx="1.5" ry="1.5" style="stroke:#363A4F;stroke-width:2.0;" width="199.75" x="343.8" y="594"/><rect fill="#363A4F" height="1.5" style="stroke:#363A4F;stroke-width:2.0;" width="199.75" x="343.8" y="622.5"/><rect codeLine="29" fill="none" height="70" id="Nothing&lt;T&gt;" rx="1.5" ry="1.5" style="stroke:#C6A0F6;stroke-width:2.0;" width="199.75" x="343.8" y="594"/><ellipse cx="397.8703" cy="609" fill="#ADD1B2" rx="10" ry="10" style="stroke:#181818;stroke-width:1.0;"/><path d="M399.7043,613.248 Q399.2941,613.459 398.843,613.5645 Q398.3918,613.6699 397.8938,613.6699 Q396.1242,613.6699 395.1926,612.5039 Q394.2609,611.3379 394.2609,609.1348 Q394.2609,606.9258 395.1926,605.7598 Q396.1242,604.5938 397.8938,604.5938 Q398.3918,604.5938 398.8488,604.6992 Q399.3059,604.8047 399.7043,605.0156 L399.7043,606.9375 Q399.259,606.5273 398.84,606.3369 Q398.4211,606.1465 397.9758,606.1465 Q397.0266,606.1465 396.5432,606.8994 Q396.0598,607.6523 396.0598,609.1348 Q396.0598,610.6113 396.5432,611.3643 Q397.0266,612.1172 397.9758,612.1172 Q398.4211,612.1172 398.84,611.9268 Q399.259,611.7363 399.7043,611.3262 Z " fill="#CAD3F5"/><text fill="#A6DA95" font-family="Helvetica" font-size="16" lengthAdjust="spacing" textLength="83.6094" x="416.8703" y="613.3203">Nothing&lt;T&gt;</text><line style="stroke:#C6A0F6;stroke-width:2.0;" x1="344.8" x2="542.55" y1="624" y2="624"/><rect fill="none" height="6" style="stroke:#C82930;stroke-width:1.0;" width="6" x="351.8" y="632.5"/><text fill="#A6DA95" font-family="Helvetica" font-size="12" lengthAdjust="spacing" textLength="157.4004" x="362.8" y="637.2402">static Nothing&lt;?&gt; INSTANCE</text><line style="stroke:#C6A0F6;stroke-width:2.0;" x1="344.8" x2="542.55" y1="644" y2="644"/><ellipse cx="354.8" cy="655.5" fill="#84BE84" rx="3" ry="3" style="stroke:#038048;stroke-width:1.0;"/><text fill="#A6DA95" font-family="Helvetica" font-size="12" lengthAdjust="spacing" textLength="174.75" x="362.8" y="657.2402">static &lt;T&gt; Nothing&lt;T&gt; instance()</text></g><!--class MaybeKindBase--><g id="elem_MaybeKindBase"><rect codeLine="34" fill="#24273A" height="30" id="MaybeKindBase" rx="1.5" ry="1.5" style="stroke:#C6A0F6;stroke-width:2.0;" width="122.0508" x="1012.65" y="614"/><rect fill="#363A4F" height="30" rx="1.5" ry="1.5" style="stroke:#363A4F;stroke-width:2.0;" width="122.0508" x="1012.65" y="614"/><rect fill="#363A4F" height="1.5" style="stroke:#363A4F;stroke-width:2.0;" width="122.0508" x="1012.65" y="642.5"/><rect codeLine="34" fill="none" height="30" id="MaybeKindBase" rx="1.5" ry="1.5" style="stroke:#C6A0F6;stroke-width:2.0;" width="122.0508" x="1012.65" y="614"/><ellipse cx="1026.65" cy="629" fill="#87CEFA" rx="10" ry="10" style="stroke:#181818;stroke-width:1.0;"/><path d="M1022.8355,624.752 L1024.5641,624.752 L1024.5641,628.209 L1027.2711,624.752 L1029.2281,624.752 L1026.4684,628.1973 L1029.3277,633.5 L1027.4059,633.5 L1025.3316,629.5625 L1024.5641,630.5352 L1024.5641,633.5 L1022.8355,633.5 Z " fill="#CAD3F5"/><text fill="#A6DA95" font-family="Helvetica" font-size="16" font-style="italic" lengthAdjust="spacing" textLength="80.0469" x="1039.65" y="633.3203">MaybeKind</text><rect fill="#24273A" height="14" style="stroke:#C6A0F6;stroke-width:1.0;stroke-dasharray:2.0,2.0;" width="10.0039" x="1127.6969" y="611"/><text fill="#CAD3F5" font-family="Helvetica" font-size="12" font-style="italic" lengthAdjust="spacing" textLength="8.0039" x="1128.6969" y="621.2402">A</text></g><!--class MaybeKindHelper--><g id="elem_MaybeKindHelper"><rect codeLine="38" fill="#24273A" height="86" id="MaybeKindHelper" rx="1.5" ry="1.5" style="stroke:#C6A0F6;stroke-width:2.0;" width="346.4863" x="30.43" y="215"/><rect fill="#363A4F" height="30" rx="1.5" ry="1.5" style="stroke:#363A4F;stroke-width:2.0;" width="346.4863" x="30.43" y="215"/><rect fill="#363A4F" height="1.5" style="stroke:#363A4F;stroke-width:2.0;" width="346.4863" x="30.43" y="243.5"/><rect codeLine="38" fill="none" height="86" id="MaybeKindHelper" rx="1.5" ry="1.5" style="stroke:#C6A0F6;stroke-width:2.0;" width="346.4863" x="30.43" y="215"/><ellipse cx="136.0833" cy="230" fill="#808080" rx="10" ry="10" style="stroke:#181818;stroke-width:1.0;"/><path d="M132.8861,225.752 L134.6146,225.752 L134.6146,229.0859 L136.7767,229.0859 L136.7767,225.752 L138.5052,225.752 L138.5052,234.5 L136.7767,234.5 L136.7767,230.6094 L134.6146,230.6094 L134.6146,234.5 L132.8861,234.5 Z " fill="#CAD3F5"/><text fill="#A6DA95" font-family="Helvetica" font-size="16" lengthAdjust="spacing" textLength="127.1797" x="155.0833" y="234.3203">MaybeKindHelper</text><line style="stroke:#C6A0F6;stroke-width:2.0;" x1="31.43" x2="375.9163" y1="245" y2="245"/><ellipse cx="41.43" cy="256.5" fill="#84BE84" rx="3" ry="3" style="stroke:#038048;stroke-width:1.0;"/><text fill="#A6DA95" font-family="Helvetica" font-size="12" lengthAdjust="spacing" textLength="321.4863" x="49.43" y="258.2402">static &lt;A&gt; Maybe&lt;A&gt; narrow(Kind&lt;MaybeKind.Witness, A&gt;)</text><ellipse cx="41.43" cy="268.5" fill="#84BE84" rx="3" ry="3" style="stroke:#038048;stroke-width:1.0;"/><text fill="#A6DA95" font-family="Helvetica" font-size="12" lengthAdjust="spacing" textLength="312.8262" x="49.43" y="270.2402">static &lt;A&gt; Kind&lt;MaybeKind.Witness,A&gt; widen(Maybe&lt;A&gt;)</text><ellipse cx="41.43" cy="280.5" fill="#84BE84" rx="3" ry="3" style="stroke:#038048;stroke-width:1.0;"/><text fill="#A6DA95" font-family="Helvetica" font-size="12" lengthAdjust="spacing" textLength="250.1133" x="49.43" y="282.2402">static &lt;A&gt; Kind&lt;MaybeKind.Witness,A&gt; just(A)</text><ellipse cx="41.43" cy="292.5" fill="#84BE84" rx="3" ry="3" style="stroke:#038048;stroke-width:1.0;"/><text fill="#A6DA95" font-family="Helvetica" font-size="12" lengthAdjust="spacing" textLength="262.8047" x="49.43" y="294.2402">static &lt;A&gt; Kind&lt;MaybeKind.Witness,A&gt; nothing()</text></g><g id="elem_GMN14"><path d="M412.41,236.5 L412.41,254 L377.17,258 L412.41,262 L412.41,279.5 A1.5,1.5 0 0 0 413.91,281 L837.4432,281 A1.5,1.5 0 0 0 838.9432,279.5 L838.9432,245 L828.9432,235 L413.91,235 A1.5,1.5 0 0 0 412.41,236.5 " fill="#EED49F" style="stroke:#24273A;stroke-width:0.5;"/><path d="M828.9432,235 L828.9432,244.25 A0.75,0.75 0 0 0 829.6932,245 L838.9432,245 L828.9432,235 " fill="#EED49F" style="stroke:#24273A;stroke-width:0.5;"/><text fill="#24273A" font-family="Helvetica" font-size="12" lengthAdjust="spacing" textLength="228.7031" x="418.41" y="249.2402">Contains internal 'MaybeHolder&lt;A&gt; record'</text><text fill="#24273A" font-family="Helvetica" font-size="12" lengthAdjust="spacing" textLength="184.0898" x="418.41" y="261.2402">which implements MaybeKind&lt;A&gt;.</text><text fill="#24273A" font-family="Helvetica" font-size="12" lengthAdjust="spacing" textLength="405.5332" x="418.41" y="273.2402">`record MaybeHolder&lt;A&gt;(Maybe&lt;A&gt; maybe) implements MaybeKind&lt;A&gt; {}`</text></g><!--class MaybeFunctorImpl--><g id="elem_MaybeFunctorImpl"><rect codeLine="51" fill="#24273A" height="30" id="MaybeFunctorImpl" rx="1.5" ry="1.5" style="stroke:#C6A0F6;stroke-width:2.0;" width="132.2656" x="559.54" y="111"/><rect fill="#363A4F" height="30" rx="1.5" ry="1.5" style="stroke:#363A4F;stroke-width:2.0;" width="132.2656" x="559.54" y="111"/><rect fill="#363A4F" height="1.5" style="stroke:#363A4F;stroke-width:2.0;" width="132.2656" x="559.54" y="139.5"/><rect codeLine="51" fill="none" height="30" id="MaybeFunctorImpl" rx="1.5" ry="1.5" style="stroke:#C6A0F6;stroke-width:2.0;" width="132.2656" x="559.54" y="111"/><ellipse cx="573.54" cy="126" fill="#ADD1B2" rx="10" ry="10" style="stroke:#181818;stroke-width:1.0;"/><path d="M575.374,130.248 Q574.9638,130.459 574.5127,130.5645 Q574.0615,130.6699 573.5634,130.6699 Q571.7939,130.6699 570.8623,129.5039 Q569.9306,128.3379 569.9306,126.1348 Q569.9306,123.9258 570.8623,122.7598 Q571.7939,121.5938 573.5634,121.5938 Q574.0615,121.5938 574.5185,121.6992 Q574.9755,121.8047 575.374,122.0156 L575.374,123.9375 Q574.9287,123.5273 574.5097,123.3369 Q574.0908,123.1465 573.6455,123.1465 Q572.6963,123.1465 572.2129,123.8994 Q571.7295,124.6523 571.7295,126.1348 Q571.7295,127.6113 572.2129,128.3643 Q572.6963,129.1172 573.6455,129.1172 Q574.0908,129.1172 574.5097,128.9268 Q574.9287,128.7363 575.374,128.3262 Z " fill="#CAD3F5"/><text fill="#A6DA95" font-family="Helvetica" font-size="16" lengthAdjust="spacing" textLength="102.2656" x="586.54" y="130.3203">MaybeFunctor</text></g><!--class MaybeMonadImpl--><g id="elem_MaybeMonadImpl"><rect codeLine="55" fill="#24273A" height="30" id="MaybeMonadImpl" rx="1.5" ry="1.5" style="stroke:#C6A0F6;stroke-width:2.0;" width="126.9453" x="562.2" y="7"/><rect fill="#363A4F" height="30" rx="1.5" ry="1.5" style="stroke:#363A4F;stroke-width:2.0;" width="126.9453" x="562.2" y="7"/><rect fill="#363A4F" height="1.5" style="stroke:#363A4F;stroke-width:2.0;" width="126.9453" x="562.2" y="35.5"/><rect codeLine="55" fill="none" height="30" id="MaybeMonadImpl" rx="1.5" ry="1.5" style="stroke:#C6A0F6;stroke-width:2.0;" width="126.9453" x="562.2" y="7"/><ellipse cx="576.2" cy="22" fill="#ADD1B2" rx="10" ry="10" style="stroke:#181818;stroke-width:1.0;"/><path d="M578.034,26.248 Q577.6238,26.459 577.1727,26.5645 Q576.7215,26.6699 576.2234,26.6699 Q574.4539,26.6699 573.5223,25.5039 Q572.5906,24.3379 572.5906,22.1348 Q572.5906,19.9258 573.5223,18.7598 Q574.4539,17.5938 576.2234,17.5938 Q576.7215,17.5938 577.1785,17.6992 Q577.6355,17.8047 578.034,18.0156 L578.034,19.9375 Q577.5887,19.5273 577.1697,19.3369 Q576.7508,19.1465 576.3055,19.1465 Q575.3563,19.1465 574.8729,19.8994 Q574.3895,20.6523 574.3895,22.1348 Q574.3895,23.6113 574.8729,24.3643 Q575.3563,25.1172 576.3055,25.1172 Q576.7508,25.1172 577.1697,24.9268 Q577.5887,24.7363 578.034,24.3262 Z " fill="#CAD3F5"/><text fill="#A6DA95" font-family="Helvetica" font-size="16" lengthAdjust="spacing" textLength="96.9453" x="589.2" y="26.3203">MaybeMonad</text></g><!--class Just--><g id="elem_Just"><rect fill="#24273A" height="30" id="Just" rx="1.5" ry="1.5" style="stroke:#C6A0F6;stroke-width:2.0;" width="59.3438" x="7" y="614"/><rect fill="#363A4F" height="30" rx="1.5" ry="1.5" style="stroke:#363A4F;stroke-width:2.0;" width="59.3438" x="7" y="614"/><rect fill="#363A4F" height="1.5" style="stroke:#363A4F;stroke-width:2.0;" width="59.3438" x="7" y="642.5"/><rect fill="none" height="30" id="Just" rx="1.5" ry="1.5" style="stroke:#C6A0F6;stroke-width:2.0;" width="59.3438" x="7" y="614"/><ellipse cx="21" cy="629" fill="#ADD1B2" rx="10" ry="10" style="stroke:#181818;stroke-width:1.0;"/><path d="M22.834,633.248 Q22.4238,633.459 21.9727,633.5645 Q21.5215,633.6699 21.0234,633.6699 Q19.2539,633.6699 18.3223,632.5039 Q17.3906,631.3379 17.3906,629.1348 Q17.3906,626.9258 18.3223,625.7598 Q19.2539,624.5938 21.0234,624.5938 Q21.5215,624.5938 21.9785,624.6992 Q22.4355,624.8047 22.834,625.0156 L22.834,626.9375 Q22.3887,626.5273 21.9697,626.3369 Q21.5508,626.1465 21.1055,626.1465 Q20.1563,626.1465 19.6729,626.8994 Q19.1895,627.6523 19.1895,629.1348 Q19.1895,630.6113 19.6729,631.3643 Q20.1563,632.1172 21.1055,632.1172 Q21.5508,632.1172 21.9697,631.9268 Q22.3887,631.7363 22.834,631.3262 Z " fill="#CAD3F5"/><text fill="#A6DA95" font-family="Helvetica" font-size="16" lengthAdjust="spacing" textLength="29.3438" x="34" y="633.3203">Just</text></g><!--class Nothing--><g id="elem_Nothing"><rect fill="#24273A" height="30" id="Nothing" rx="1.5" ry="1.5" style="stroke:#C6A0F6;stroke-width:2.0;" width="85.1484" x="101.1" y="614"/><rect fill="#363A4F" height="30" rx="1.5" ry="1.5" style="stroke:#363A4F;stroke-width:2.0;" width="85.1484" x="101.1" y="614"/><rect fill="#363A4F" height="1.5" style="stroke:#363A4F;stroke-width:2.0;" width="85.1484" x="101.1" y="642.5"/><rect fill="none" height="30" id="Nothing" rx="1.5" ry="1.5" style="stroke:#C6A0F6;stroke-width:2.0;" width="85.1484" x="101.1" y="614"/><ellipse cx="115.1" cy="629" fill="#ADD1B2" rx="10" ry="10" style="stroke:#181818;stroke-width:1.0;"/><path d="M116.934,633.248 Q116.5238,633.459 116.0727,633.5645 Q115.6215,633.6699 115.1234,633.6699 Q113.3539,633.6699 112.4223,632.5039 Q111.4906,631.3379 111.4906,629.1348 Q111.4906,626.9258 112.4223,625.7598 Q113.3539,624.5938 115.1234,624.5938 Q115.6215,624.5938 116.0785,624.6992 Q116.5355,624.8047 116.934,625.0156 L116.934,626.9375 Q116.4887,626.5273 116.0697,626.3369 Q115.6508,626.1465 115.2055,626.1465 Q114.2563,626.1465 113.7729,626.8994 Q113.2895,627.6523 113.2895,629.1348 Q113.2895,630.6113 113.7729,631.3643 Q114.2563,632.1172 115.2055,632.1172 Q115.6508,632.1172 116.0697,631.9268 Q116.4887,631.7363 116.934,631.3262 Z " fill="#CAD3F5"/><text fill="#A6DA95" font-family="Helvetica" font-size="16" lengthAdjust="spacing" textLength="55.1484" x="128.1" y="633.3203">Nothing</text></g><!--reverse link MaybeInterface to Just<T>--><g id="link_MaybeInterface_Just&lt;T&gt;"><path d="M237.3057,550.3756 C244.7457,571.4756 246.42,576.25 252.53,593.56 " fill="none" id="MaybeInterface-backto-Just&lt;T&gt;" style="stroke:#F5BDE6;stroke-width:1.0;"/><polygon fill="none" points="231.32,533.4,231.6472,552.3708,242.9642,548.3804,231.32,533.4" style="stroke:#F5BDE6;stroke-width:1.0;"/></g><!--reverse link MaybeInterface to Nothing<T>--><g id="link_MaybeInterface_Nothing&lt;T&gt;"><path d="M327.0416,543.9259 C356.3116,565.0259 371.88,576.25 395.9,593.56 " fill="none" id="MaybeInterface-backto-Nothing&lt;T&gt;" style="stroke:#F5BDE6;stroke-width:1.0;"/><polygon fill="none" points="312.44,533.4,323.5329,548.7931,330.5502,539.0587,312.44,533.4" style="stroke:#F5BDE6;stroke-width:1.0;"/></g><!--link MonadErrorBase to MonadBase--><g id="link_MonadErrorBase_MonadBase"><path codeLine="65" d="M917.64,141.41 C938.4,166.4 969.3485,203.6439 990.1485,228.6839 " fill="none" id="MonadErrorBase-to-MonadBase" style="stroke:#F5BDE6;stroke-width:1.0;"/><polygon fill="none" points="1001.65,242.53,994.7638,224.8501,985.5331,232.5178,1001.65,242.53" style="stroke:#F5BDE6;stroke-width:1.0;"/></g><!--link MonadBase to Applicative--><g id="link_MonadBase_Applicative"><path codeLine="66" d="M1014.11,273.27 C1015.22,309.14 1017.5637,384.8186 1018.6737,420.7186 " fill="none" id="MonadBase-to-Applicative" style="stroke:#F5BDE6;stroke-width:1.0;"/><polygon fill="none" points="1019.23,438.71,1024.6709,420.5332,1012.6766,420.904,1019.23,438.71" style="stroke:#F5BDE6;stroke-width:1.0;"/></g><!--link Applicative to Functor--><g id="link_Applicative_Functor"><path codeLine="67" d="M1012.15,469.45 C995.17,502.1 962.3164,565.2511 945.4164,597.7411 " fill="none" id="Applicative-to-Functor" style="stroke:#F5BDE6;stroke-width:1.0;"/><polygon fill="none" points="937.11,613.71,950.7393,600.5099,940.0934,594.9724,937.11,613.71" style="stroke:#F5BDE6;stroke-width:1.0;"/></g><!--link Functor to Kind--><g id="link_Functor_Kind"><path codeLine="68" d="M938.21,644.47 C952.07,667.95 970.1391,698.5796 983.9891,722.0396 " fill="none" id="Functor-to-Kind" style="stroke:#F5BDE6;stroke-width:1.0;"/><polygon fill="none" points="993.14,737.54,989.1559,718.9893,978.8223,725.0899,993.14,737.54" style="stroke:#F5BDE6;stroke-width:1.0;"/></g><!--link MaybeKindBase to Kind--><g id="link_MaybeKindBase_Kind"><path codeLine="70" d="M1065.13,644.47 C1051.27,667.95 1033.2009,698.5796 1019.3509,722.0396 " fill="none" id="MaybeKindBase-to-Kind" style="stroke:#F5BDE6;stroke-width:1.0;"/><polygon fill="none" points="1010.2,737.54,1024.5177,725.0899,1014.1841,718.9893,1010.2,737.54" style="stroke:#F5BDE6;stroke-width:1.0;"/><text fill="#CAD3F5" font-family="Helvetica" font-size="12" lengthAdjust="spacing" textLength="134.7305" x="1036.51" y="704.2402">&lt;MaybeKind.Witness, A&gt;</text></g><!--link MaybeFunctorImpl to Functor--><g id="link_MaybeFunctorImpl_Functor"><path codeLine="72" d="M692.18,134.54 C744.84,144.14 816.06,165.88 856.67,215 C869.84,230.92 914.3936,525.5371 924.9236,596.1071 " fill="none" id="MaybeFunctorImpl-to-Functor" style="stroke:#F5BDE6;stroke-width:1.0;stroke-dasharray:7.0,7.0;"/><polygon fill="none" points="927.58,613.91,930.8579,595.2216,918.9893,596.9926,927.58,613.91" style="stroke:#F5BDE6;stroke-width:1.0;"/><text fill="#CAD3F5" font-family="Helvetica" font-size="12" lengthAdjust="spacing" textLength="120.0586" x="885.77" y="341.2402">&lt;MaybeKind.Witness&gt;</text></g><!--link MaybeMonadImpl to MaybeFunctorImpl--><g id="link_MaybeMonadImpl_MaybeFunctorImpl"><path codeLine="73" d="M625.67,37.18 C625.67,56.56 625.67,73.12 625.67,92.61 " fill="none" id="MaybeMonadImpl-to-MaybeFunctorImpl" style="stroke:#F5BDE6;stroke-width:1.0;"/><polygon fill="none" points="625.67,110.61,631.67,92.61,619.67,92.61,625.67,110.61" style="stroke:#F5BDE6;stroke-width:1.0;"/></g><!--link MaybeMonadImpl to MonadErrorBase--><g id="link_MaybeMonadImpl_MonadErrorBase"><path codeLine="74" d="M665.2,37.4 C718.41,56.78 795.6471,84.9192 848.9871,104.3492 " fill="none" id="MaybeMonadImpl-to-MonadErrorBase" style="stroke:#F5BDE6;stroke-width:1.0;stroke-dasharray:7.0,7.0;"/><polygon fill="none" points="865.9,110.51,851.0407,98.7116,846.9335,109.9868,865.9,110.51" style="stroke:#F5BDE6;stroke-width:1.0;"/><text fill="#CAD3F5" font-family="Helvetica" font-size="12" lengthAdjust="spacing" textLength="148.0664" x="783.44" y="77.2402">&lt;MaybeKind.Witness, Unit&gt;</text></g><!--link MaybeMonadImpl to MaybeKindHelper--><g id="link_MaybeMonadImpl_MaybeKindHelper"><path codeLine="76" d="M599.59,37.46 C537.06,72.14 381.8775,158.1907 285.5075,211.6207 " fill="none" id="MaybeMonadImpl-to-MaybeKindHelper" style="stroke:#F5BDE6;stroke-width:1.0;stroke-dasharray:7.0,7.0;"/><polygon fill="#F5BDE6" points="280.26,214.53,290.0707,213.6643,284.6329,212.1056,286.1916,206.6677,280.26,214.53" style="stroke:#F5BDE6;stroke-width:1.0;"/><text fill="#CAD3F5" font-family="Helvetica" font-size="12" lengthAdjust="spacing" textLength="25.3477" x="464.51" y="129.2402">uses</text></g><!--link MaybeFunctorImpl to MaybeKindHelper--><g id="link_MaybeFunctorImpl_MaybeKindHelper"><path codeLine="77" d="M578.9,141.41 C521.92,158.96 428.8741,187.6238 346.9641,212.8538 " fill="none" id="MaybeFunctorImpl-to-MaybeKindHelper" style="stroke:#F5BDE6;stroke-width:1.0;stroke-dasharray:7.0,7.0;"/><polygon fill="#F5BDE6" points="341.23,214.62,351.0087,215.7934,346.0085,213.1481,348.6537,208.1479,341.23,214.62" style="stroke:#F5BDE6;stroke-width:1.0;"/><text fill="#CAD3F5" font-family="Helvetica" font-size="12" lengthAdjust="spacing" textLength="25.3477" x="478.13" y="181.2402">uses</text></g><!--link MaybeKindHelper to MaybeInterface--><g id="link_MaybeKindHelper_MaybeInterface"><path codeLine="78" d="M203.67,301.1 C203.67,322.6 203.67,343.48 203.67,368.62 " fill="none" id="MaybeKindHelper-to-MaybeInterface" style="stroke:#F5BDE6;stroke-width:1.0;stroke-dasharray:7.0,7.0;"/><polygon fill="#F5BDE6" points="203.67,374.62,207.67,365.62,203.67,369.62,199.67,365.62,203.67,374.62" style="stroke:#F5BDE6;stroke-width:1.0;"/><text fill="#CAD3F5" font-family="Helvetica" font-size="12" lengthAdjust="spacing" textLength="108.041" x="204.67" y="341.2402">uses (widen/narrow)</text></g><!--reverse link MaybeInterface to Just--><g id="link_MaybeInterface_Just"><path codeLine="79" d="M115.4885,546.3504 C85.9685,576.9304 67.65,595.91 50.43,613.75 " fill="none" id="MaybeInterface-backto-Just" style="stroke:#F5BDE6;stroke-width:1.0;stroke-dasharray:7.0,7.0;"/><polygon fill="none" points="127.99,533.4,111.1717,542.1832,119.8053,550.5176,127.99,533.4" style="stroke:#F5BDE6;stroke-width:1.0;"/></g><!--reverse link MaybeInterface to Nothing--><g id="link_MaybeInterface_Nothing"><path codeLine="80" d="M170.5848,550.4072 C159.9848,580.9872 154.8,595.91 148.61,613.75 " fill="none" id="MaybeInterface-backto-Nothing" style="stroke:#F5BDE6;stroke-width:1.0;stroke-dasharray:7.0,7.0;"/><polygon fill="none" points="176.48,533.4,164.9157,548.4422,176.2538,552.3723,176.48,533.4" style="stroke:#F5BDE6;stroke-width:1.0;"/></g><!--SRC=[bLPBSzem4BxxLsnpmKniSyymxa26D8-IIyZq6Y44LYjB7baEPTByzwxb1y8OXXmOfDrlltrejV8tBgaeLWmIOxByPZJIP1jjk4cAPP4pJPKqJ9g8gdGagSeD2JaTKMAohA2Kop0bb2QS61LcWaXJf28q2KlPA2LSZkmoob3g9HoTi3GpEqXPkcGwzpoEv7fDA8Eh9ovNuxi09l4La1pAhQk-AoGrIe_lAdMzTH6JB1CS0-Flh44v8XSvLvAinlCAOpTJaXyZPbgZmta0CmTfXHRkUG2k2TajsNXHGylDGwiSZy6V1p_v9Z5JKR0Xn35ye3d0DM153QU0bj1GmEyYD_vYU0OXbKcutFZdC6kjqkT22B8KRC-sL4em8e7dZwMNO_5pXte16sQSdT8paJk4ZUG7ebwAik9Ce_j6NONp6aDACjyU6rTol0XUZn5hGSpy4DNeBFYpB3aL9C_XgWpULflznVvS7PMyAc-8qRqJB7djwh4jhCjLPtm9NLtdnk9x30_FBul9y-ti-23sjDWdA9UK-QthRkVOzfyutLCAoZwppVDKDS_BdrsdVmRmYnl9C0kponYibQwiEncsZFTCP4mVUgbarizziD5iv_0x6KsQriA597WDjhuDkkM9wb3AEppiiJw1HiqMHuFq6_QlsTgxClcQZNjxFl67UmQwh32eTRSmblaMno3EixmwDqa432piNeaLjZjoQaQLNWqiUfjmcW1FCu7JJngdreYCBEIjmiCXIri3l2su69xYW8_FDwJ1JhMnUzsZhiVZ_fnhmGFIjPrpZLKAfh53FEtSqb8TdAxZiA_Bx9JSExRRsksWFgFpXwFMvN7kiMM89z3Jdfan2KwZpoTpgKlqTa9vKBXBd8LXw3mhvVR28cd2SsQD_5V9pV12iuJ8bQZiK9hu9v41jBcK_6TIQRh0EtmUCPT_iVEujgjAuRxCphfIDezx_Ly9xGU1TpWQMmNSGFySgYtSze-YlOjUkzZhT6wLIeUd2xAqdHhqHrKMj0dCjO-FHl8Du2TOtfV2UQmZRg7xjwn2Wc-dxgWQvKEl-ydoBuhiSzchg9ysxpy0]--></g></svg>