<svg xmlns="http://www.w3.org/2000/svg" xmlns:xlink="http://www.w3.org/1999/xlink" contentStyleType="text/css" height="860px" preserveAspectRatio="none" style="width:1546px;height:860px;background:#24273A;" version="1.1" viewBox="0 0 1546 860" width="1546px" zoomAndPan="magnify"><defs/><g><rect fill="#24273A" height="860" style="stroke:none;stroke-width:1.0;" width="1546" x="0" y="0"/><!--class Kind--><g id="elem_Kind"><rect codeLine="7" fill="#24273A" height="30" id="Kind" rx="1.5" ry="1.5" style="stroke:#C6A0F6;stroke-width:2.0;" width="88.0254" x="326.93" y="809"/><rect fill="#363A4F" height="30" rx="1.5" ry="1.5" style="stroke:#363A4F;stroke-width:2.0;" width="88.0254" x="326.93" y="809"/><rect fill="#363A4F" height="1.5" style="stroke:#363A4F;stroke-width:2.0;" width="88.0254" x="326.93" y="837.5"/><rect codeLine="7" fill="none" height="30" id="Kind" rx="1.5" ry="1.5" style="stroke:#C6A0F6;stroke-width:2.0;" width="88.0254" x="326.93" y="809"/><ellipse cx="340.93" cy="824" fill="#B4A7E5" rx="10" ry="10" style="stroke:#181818;stroke-width:1.0;"/><path d="M337.9378,821.2754 L337.9378,819.752 L343.1468,819.752 L343.1468,821.2754 L341.4066,821.2754 L341.4066,826.9766 L343.1468,826.9766 L343.1468,828.5 L337.9378,828.5 L337.9378,826.9766 L339.678,826.9766 L339.678,821.2754 Z " fill="#CAD3F5"/><text fill="#A6DA95" font-family="Helvetica" font-size="16" font-style="italic" lengthAdjust="spacing" textLength="32.0234" x="353.93" y="828.3203">Kind</text><rect fill="#24273A" height="14" style="stroke:#C6A0F6;stroke-width:1.0;stroke-dasharray:2.0,2.0;" width="24.002" x="393.9534" y="806"/><text fill="#CAD3F5" font-family="Helvetica" font-size="12" font-style="italic" lengthAdjust="spacing" textLength="22.002" x="394.9534" y="816.2402">F, A</text></g><!--class Functor--><g id="elem_Functor"><rect codeLine="8" fill="#24273A" height="30" id="Functor" rx="1.5" ry="1.5" style="stroke:#C6A0F6;stroke-width:2.0;" width="95.5723" x="1252.16" y="10"/><rect fill="#363A4F" height="30" rx="1.5" ry="1.5" style="stroke:#363A4F;stroke-width:2.0;" width="95.5723" x="1252.16" y="10"/><rect fill="#363A4F" height="1.5" style="stroke:#363A4F;stroke-width:2.0;" width="95.5723" x="1252.16" y="38.5"/><rect codeLine="8" fill="none" height="30" id="Functor" rx="1.5" ry="1.5" style="stroke:#C6A0F6;stroke-width:2.0;" width="95.5723" x="1252.16" y="10"/><ellipse cx="1266.16" cy="25" fill="#B4A7E5" rx="10" ry="10" style="stroke:#181818;stroke-width:1.0;"/><path d="M1263.1678,22.2754 L1263.1678,20.752 L1268.3768,20.752 L1268.3768,22.2754 L1266.6366,22.2754 L1266.6366,27.9766 L1268.3768,27.9766 L1268.3768,29.5 L1263.1678,29.5 L1263.1678,27.9766 L1264.908,27.9766 L1264.908,22.2754 Z " fill="#CAD3F5"/><text fill="#A6DA95" font-family="Helvetica" font-size="16" font-style="italic" lengthAdjust="spacing" textLength="54.2422" x="1279.16" y="29.3203">Functor</text><rect fill="#24273A" height="14" style="stroke:#C6A0F6;stroke-width:1.0;stroke-dasharray:2.0,2.0;" width="9.3301" x="1341.4022" y="7"/><text fill="#CAD3F5" font-family="Helvetica" font-size="12" font-style="italic" lengthAdjust="spacing" textLength="7.3301" x="1342.4022" y="17.2402">F</text></g><!--class Applicative--><g id="elem_Applicative"><rect codeLine="9" fill="#24273A" height="30" id="Applicative" rx="1.5" ry="1.5" style="stroke:#C6A0F6;stroke-width:2.0;" width="118.7051" x="910.59" y="111"/><rect fill="#363A4F" height="30" rx="1.5" ry="1.5" style="stroke:#363A4F;stroke-width:2.0;" width="118.7051" x="910.59" y="111"/><rect fill="#363A4F" height="1.5" style="stroke:#363A4F;stroke-width:2.0;" width="118.7051" x="910.59" y="139.5"/><rect codeLine="9" fill="none" height="30" id="Applicative" rx="1.5" ry="1.5" style="stroke:#C6A0F6;stroke-width:2.0;" width="118.7051" x="910.59" y="111"/><ellipse cx="924.59" cy="126" fill="#B4A7E5" rx="10" ry="10" style="stroke:#181818;stroke-width:1.0;"/><path d="M921.5978,123.2754 L921.5978,121.752 L926.8068,121.752 L926.8068,123.2754 L925.0666,123.2754 L925.0666,128.9766 L926.8068,128.9766 L926.8068,130.5 L921.5978,130.5 L921.5978,128.9766 L923.338,128.9766 L923.338,123.2754 Z " fill="#CAD3F5"/><text fill="#A6DA95" font-family="Helvetica" font-size="16" font-style="italic" lengthAdjust="spacing" textLength="77.375" x="937.59" y="130.3203">Applicative</text><rect fill="#24273A" height="14" style="stroke:#C6A0F6;stroke-width:1.0;stroke-dasharray:2.0,2.0;" width="9.3301" x="1022.965" y="108"/><text fill="#CAD3F5" font-family="Helvetica" font-size="12" font-style="italic" lengthAdjust="spacing" textLength="7.3301" x="1023.965" y="118.2402">F</text></g><!--class Monad--><g id="elem_Monad"><rect codeLine="10" fill="#24273A" height="30" id="Monad" rx="1.5" ry="1.5" style="stroke:#C6A0F6;stroke-width:2.0;" width="90.252" x="634.82" y="228"/><rect fill="#363A4F" height="30" rx="1.5" ry="1.5" style="stroke:#363A4F;stroke-width:2.0;" width="90.252" x="634.82" y="228"/><rect fill="#363A4F" height="1.5" style="stroke:#363A4F;stroke-width:2.0;" width="90.252" x="634.82" y="256.5"/><rect codeLine="10" fill="none" height="30" id="Monad" rx="1.5" ry="1.5" style="stroke:#C6A0F6;stroke-width:2.0;" width="90.252" x="634.82" y="228"/><ellipse cx="648.82" cy="243" fill="#B4A7E5" rx="10" ry="10" style="stroke:#181818;stroke-width:1.0;"/><path d="M645.8278,240.2754 L645.8278,238.752 L651.0368,238.752 L651.0368,240.2754 L649.2966,240.2754 L649.2966,245.9766 L651.0368,245.9766 L651.0368,247.5 L645.8278,247.5 L645.8278,245.9766 L647.568,245.9766 L647.568,240.2754 Z " fill="#CAD3F5"/><text fill="#A6DA95" font-family="Helvetica" font-size="16" font-style="italic" lengthAdjust="spacing" textLength="48.9219" x="661.82" y="247.3203">Monad</text><rect fill="#24273A" height="14" style="stroke:#C6A0F6;stroke-width:1.0;stroke-dasharray:2.0,2.0;" width="9.3301" x="718.7419" y="225"/><text fill="#CAD3F5" font-family="Helvetica" font-size="12" font-style="italic" lengthAdjust="spacing" textLength="7.3301" x="719.7419" y="235.2402">F</text></g><!--class State--><g id="elem_State"><rect codeLine="14" fill="#24273A" height="154" id="State" rx="1.5" ry="1.5" style="stroke:#C6A0F6;stroke-width:2.0;" width="306.502" x="553.69" y="567"/><rect fill="#363A4F" height="38" rx="1.5" ry="1.5" style="stroke:#363A4F;stroke-width:2.0;" width="306.502" x="553.69" y="567"/><rect fill="#363A4F" height="1.5" style="stroke:#363A4F;stroke-width:2.0;" width="306.502" x="553.69" y="603.5"/><rect codeLine="14" fill="none" height="154" id="State" rx="1.5" ry="1.5" style="stroke:#C6A0F6;stroke-width:2.0;" width="306.502" x="553.69" y="567"/><ellipse cx="632.233" cy="586" fill="#B4A7E5" rx="10" ry="10" style="stroke:#181818;stroke-width:1.0;"/><path d="M629.2408,583.2754 L629.2408,581.752 L634.4498,581.752 L634.4498,583.2754 L632.7095,583.2754 L632.7095,588.9766 L634.4498,588.9766 L634.4498,590.5 L629.2408,590.5 L629.2408,588.9766 L630.981,588.9766 L630.981,583.2754 Z " fill="#CAD3F5"/><text fill="#CAD3F5" font-family="Helvetica" font-size="12" font-style="italic" lengthAdjust="spacing" textLength="118.7402" x="649.233" y="581.2402">&#171;Functional Interface&#187;</text><text fill="#A6DA95" font-family="Helvetica" font-size="16" font-style="italic" lengthAdjust="spacing" textLength="37.3594" x="689.9234" y="596.3203">State</text><rect fill="#24273A" height="14" style="stroke:#C6A0F6;stroke-width:1.0;stroke-dasharray:2.0,2.0;" width="24.6758" x="838.5162" y="564"/><text fill="#CAD3F5" font-family="Helvetica" font-size="12" font-style="italic" lengthAdjust="spacing" textLength="22.6758" x="839.5162" y="574.2402">S, A</text><line style="stroke:#C6A0F6;stroke-width:2.0;" x1="554.69" x2="859.192" y1="605" y2="605"/><ellipse cx="564.69" cy="616.5" fill="#84BE84" rx="3" ry="3" style="stroke:#038048;stroke-width:1.0;"/><text fill="#A6DA95" font-family="Helvetica" font-size="12" lengthAdjust="spacing" textLength="190.1016" x="572.69" y="618.2402">StateTuple&lt;S, A&gt; run(S initialState)</text><ellipse cx="564.69" cy="628.5" fill="#84BE84" rx="3" ry="3" style="stroke:#038048;stroke-width:1.0;"/><text fill="#A6DA95" font-family="Helvetica" font-size="12" lengthAdjust="spacing" text-decoration="underline" textLength="281.502" x="572.69" y="630.2402">State&lt;S, A&gt; of(Function&lt;S, StateTuple&lt;S, A&gt;&gt; func)</text><ellipse cx="564.69" cy="640.5" fill="#84BE84" rx="3" ry="3" style="stroke:#038048;stroke-width:1.0;"/><text fill="#A6DA95" font-family="Helvetica" font-size="12" lengthAdjust="spacing" text-decoration="underline" textLength="140.0801" x="572.69" y="642.2402">State&lt;S, A&gt; pure(A value)</text><ellipse cx="564.69" cy="652.5" fill="#84BE84" rx="3" ry="3" style="stroke:#038048;stroke-width:1.0;"/><text fill="#A6DA95" font-family="Helvetica" font-size="12" lengthAdjust="spacing" text-decoration="underline" textLength="92.7188" x="572.69" y="654.2402">State&lt;S, S&gt; get()</text><ellipse cx="564.69" cy="664.5" fill="#84BE84" rx="3" ry="3" style="stroke:#038048;stroke-width:1.0;"/><text fill="#A6DA95" font-family="Helvetica" font-size="12" lengthAdjust="spacing" text-decoration="underline" textLength="166.752" x="572.69" y="666.2402">State&lt;S, Unit&gt; set(S newState)</text><ellipse cx="564.69" cy="676.5" fill="#84BE84" rx="3" ry="3" style="stroke:#038048;stroke-width:1.0;"/><text fill="#A6DA95" font-family="Helvetica" font-size="12" lengthAdjust="spacing" text-decoration="underline" textLength="214.1016" x="572.69" y="678.2402">State&lt;S, Unit&gt; modify(Function&lt;S, S&gt; f)</text><ellipse cx="564.69" cy="688.5" fill="#84BE84" rx="3" ry="3" style="stroke:#038048;stroke-width:1.0;"/><text fill="#A6DA95" font-family="Helvetica" font-size="12" lengthAdjust="spacing" text-decoration="underline" textLength="203.4434" x="572.69" y="690.2402">State&lt;S, A&gt; inspect(Function&lt;S, A&gt; f)</text><ellipse cx="564.69" cy="700.5" fill="#84BE84" rx="3" ry="3" style="stroke:#038048;stroke-width:1.0;"/><text fill="#A6DA95" font-family="Helvetica" font-size="12" lengthAdjust="spacing" textLength="188.7656" x="572.69" y="702.2402">State&lt;S, B&gt; map(Function&lt;A, B&gt; f)</text><ellipse cx="564.69" cy="712.5" fill="#84BE84" rx="3" ry="3" style="stroke:#038048;stroke-width:1.0;"/><text fill="#A6DA95" font-family="Helvetica" font-size="12" lengthAdjust="spacing" textLength="261.4805" x="572.69" y="714.2402">State&lt;S, B&gt; flatMap(Function&lt;A, State&lt;S, B&gt;&gt; f)</text></g><!--class StateTuple--><g id="elem_StateTuple"><rect codeLine="27" fill="#24273A" height="58" id="StateTuple" rx="1.5" ry="1.5" style="stroke:#C6A0F6;stroke-width:2.0;" width="175.0762" x="619.41" y="795"/><rect fill="#363A4F" height="38" rx="1.5" ry="1.5" style="stroke:#363A4F;stroke-width:2.0;" width="175.0762" x="619.41" y="795"/><rect fill="#363A4F" height="1.5" style="stroke:#363A4F;stroke-width:2.0;" width="175.0762" x="619.41" y="831.5"/><rect codeLine="27" fill="none" height="58" id="StateTuple" rx="1.5" ry="1.5" style="stroke:#C6A0F6;stroke-width:2.0;" width="175.0762" x="619.41" y="795"/><ellipse cx="651.8679" cy="814" fill="#ADD1B2" rx="10" ry="10" style="stroke:#181818;stroke-width:1.0;"/><path d="M653.7019,818.248 Q653.2917,818.459 652.8406,818.5645 Q652.3894,818.6699 651.8913,818.6699 Q650.1218,818.6699 649.1902,817.5039 Q648.2585,816.3379 648.2585,814.1348 Q648.2585,811.9258 649.1902,810.7598 Q650.1218,809.5938 651.8913,809.5938 Q652.3894,809.5938 652.8464,809.6992 Q653.3035,809.8047 653.7019,810.0156 L653.7019,811.9375 Q653.2566,811.5273 652.8376,811.3369 Q652.4187,811.1465 651.9734,811.1465 Q651.0242,811.1465 650.5408,811.8994 Q650.0574,812.6523 650.0574,814.1348 Q650.0574,815.6113 650.5408,816.3643 Q651.0242,817.1172 651.9734,817.1172 Q652.4187,817.1172 652.8376,816.9268 Q653.2566,816.7363 653.7019,816.3262 Z " fill="#CAD3F5"/><text fill="#CAD3F5" font-family="Helvetica" font-size="12" font-style="italic" lengthAdjust="spacing" textLength="47.3613" x="683.9804" y="809.2402">&#171;record&#187;</text><text fill="#A6DA95" font-family="Helvetica" font-size="16" lengthAdjust="spacing" textLength="77.3828" x="668.9697" y="824.3203">StateTuple</text><rect fill="#24273A" height="14" style="stroke:#C6A0F6;stroke-width:1.0;stroke-dasharray:2.0,2.0;" width="24.6758" x="772.8104" y="792"/><text fill="#CAD3F5" font-family="Helvetica" font-size="12" font-style="italic" lengthAdjust="spacing" textLength="22.6758" x="773.8104" y="802.2402">S, A</text><line style="stroke:#C6A0F6;stroke-width:2.0;" x1="620.41" x2="793.4862" y1="833" y2="833"/><ellipse cx="630.41" cy="844.5" fill="#84BE84" rx="3" ry="3" style="stroke:#038048;stroke-width:1.0;"/><text fill="#A6DA95" font-family="Helvetica" font-size="12" lengthAdjust="spacing" textLength="150.0762" x="638.41" y="846.2402">StateTuple(A value, S state)</text></g><!--class StateKindHelper--><g id="elem_StateKindHelper"><rect codeLine="32" fill="#24273A" height="158" id="StateKindHelper" rx="1.5" ry="1.5" style="stroke:#C6A0F6;stroke-width:2.0;" width="425.8867" x="7" y="335"/><rect fill="#363A4F" height="30" rx="1.5" ry="1.5" style="stroke:#363A4F;stroke-width:2.0;" width="425.8867" x="7" y="335"/><rect fill="#363A4F" height="1.5" style="stroke:#363A4F;stroke-width:2.0;" width="425.8867" x="7" y="363.5"/><rect codeLine="32" fill="none" height="158" id="StateKindHelper" rx="1.5" ry="1.5" style="stroke:#C6A0F6;stroke-width:2.0;" width="425.8867" x="7" y="335"/><ellipse cx="157.6855" cy="350" fill="#ADD1B2" rx="10" ry="10" style="stroke:#181818;stroke-width:1.0;"/><path d="M159.5195,354.248 Q159.1094,354.459 158.6582,354.5645 Q158.207,354.6699 157.709,354.6699 Q155.9395,354.6699 155.0078,353.5039 Q154.0762,352.3379 154.0762,350.1348 Q154.0762,347.9258 155.0078,346.7598 Q155.9395,345.5938 157.709,345.5938 Q158.207,345.5938 158.6641,345.6992 Q159.1211,345.8047 159.5195,346.0156 L159.5195,347.9375 Q159.0742,347.5273 158.6553,347.3369 Q158.2363,347.1465 157.791,347.1465 Q156.8418,347.1465 156.3584,347.8994 Q155.875,348.6523 155.875,350.1348 Q155.875,351.6113 156.3584,352.3643 Q156.8418,353.1172 157.791,353.1172 Q158.2363,353.1172 158.6553,352.9268 Q159.0742,352.7363 159.5195,352.3262 Z " fill="#CAD3F5"/><text fill="#A6DA95" font-family="Helvetica" font-size="16" lengthAdjust="spacing" textLength="116.5156" x="176.6855" y="354.3203">StateKindHelper</text><line style="stroke:#C6A0F6;stroke-width:2.0;" x1="8" x2="431.8867" y1="365" y2="365"/><ellipse cx="18" cy="376.5" fill="#84BE84" rx="3" ry="3" style="stroke:#038048;stroke-width:1.0;"/><text fill="#A6DA95" font-family="Helvetica" font-size="12" lengthAdjust="spacing" text-decoration="underline" textLength="237.791" x="26" y="378.2402">State&lt;S, A&gt; narrow(Kind&lt;StateKind.Witness</text><text fill="#A6DA95" font-family="Helvetica" font-size="12" lengthAdjust="spacing" text-decoration="underline" textLength="51.0234" x="263.791" y="378.2402">, A&gt; kind)</text><ellipse cx="18" cy="388.5" fill="#84BE84" rx="3" ry="3" style="stroke:#038048;stroke-width:1.0;"/><text fill="#A6DA95" font-family="Helvetica" font-size="12" lengthAdjust="spacing" text-decoration="underline" textLength="129.0703" x="26" y="390.2402">Kind&lt;StateKind.Witness</text><text fill="#A6DA95" font-family="Helvetica" font-size="12" lengthAdjust="spacing" text-decoration="underline" textLength="158.4199" x="155.0703" y="390.2402">, A&gt; widen(State&lt;S, A&gt; state)</text><ellipse cx="18" cy="400.5" fill="#84BE84" rx="3" ry="3" style="stroke:#038048;stroke-width:1.0;"/><text fill="#A6DA95" font-family="Helvetica" font-size="12" lengthAdjust="spacing" text-decoration="underline" textLength="129.0703" x="26" y="402.2402">Kind&lt;StateKind.Witness</text><text fill="#A6DA95" font-family="Helvetica" font-size="12" lengthAdjust="spacing" text-decoration="underline" textLength="97.0488" x="155.0703" y="402.2402">, A&gt; pure(A value)</text><ellipse cx="18" cy="412.5" fill="#84BE84" rx="3" ry="3" style="stroke:#038048;stroke-width:1.0;"/><text fill="#A6DA95" font-family="Helvetica" font-size="12" lengthAdjust="spacing" text-decoration="underline" textLength="129.0703" x="26" y="414.2402">Kind&lt;StateKind.Witness</text><text fill="#A6DA95" font-family="Helvetica" font-size="12" lengthAdjust="spacing" text-decoration="underline" textLength="49.6875" x="155.0703" y="414.2402">, S&gt; get()</text><ellipse cx="18" cy="424.5" fill="#84BE84" rx="3" ry="3" style="stroke:#038048;stroke-width:1.0;"/><text fill="#A6DA95" font-family="Helvetica" font-size="12" lengthAdjust="spacing" text-decoration="underline" textLength="129.0703" x="26" y="426.2402">Kind&lt;StateKind.Witness</text><text fill="#A6DA95" font-family="Helvetica" font-size="12" lengthAdjust="spacing" text-decoration="underline" textLength="123.7207" x="155.0703" y="426.2402">, Unit&gt; set(S newState)</text><ellipse cx="18" cy="436.5" fill="#84BE84" rx="3" ry="3" style="stroke:#038048;stroke-width:1.0;"/><text fill="#A6DA95" font-family="Helvetica" font-size="12" lengthAdjust="spacing" text-decoration="underline" textLength="129.0703" x="26" y="438.2402">Kind&lt;StateKind.Witness</text><text fill="#A6DA95" font-family="Helvetica" font-size="12" lengthAdjust="spacing" text-decoration="underline" textLength="171.0703" x="155.0703" y="438.2402">, Unit&gt; modify(Function&lt;S, S&gt; f)</text><ellipse cx="18" cy="448.5" fill="#84BE84" rx="3" ry="3" style="stroke:#038048;stroke-width:1.0;"/><text fill="#A6DA95" font-family="Helvetica" font-size="12" lengthAdjust="spacing" text-decoration="underline" textLength="129.0703" x="26" y="450.2402">Kind&lt;StateKind.Witness</text><text fill="#A6DA95" font-family="Helvetica" font-size="12" lengthAdjust="spacing" text-decoration="underline" textLength="160.4121" x="155.0703" y="450.2402">, A&gt; inspect(Function&lt;S, A&gt; f)</text><ellipse cx="18" cy="460.5" fill="#84BE84" rx="3" ry="3" style="stroke:#038048;stroke-width:1.0;"/><text fill="#A6DA95" font-family="Helvetica" font-size="12" lengthAdjust="spacing" text-decoration="underline" textLength="276.4922" x="26" y="462.2402">StateTuple&lt;S, A&gt; runState(Kind&lt;StateKind.Witness</text><text fill="#A6DA95" font-family="Helvetica" font-size="12" lengthAdjust="spacing" text-decoration="underline" textLength="124.3945" x="302.4922" y="462.2402">, A&gt; kind, S initialState)</text><ellipse cx="18" cy="472.5" fill="#84BE84" rx="3" ry="3" style="stroke:#038048;stroke-width:1.0;"/><text fill="#A6DA95" font-family="Helvetica" font-size="12" lengthAdjust="spacing" text-decoration="underline" textLength="194.4375" x="26" y="474.2402">A evalState(Kind&lt;StateKind.Witness</text><text fill="#A6DA95" font-family="Helvetica" font-size="12" lengthAdjust="spacing" text-decoration="underline" textLength="124.3945" x="220.4375" y="474.2402">, A&gt; kind, S initialState)</text><ellipse cx="18" cy="484.5" fill="#84BE84" rx="3" ry="3" style="stroke:#038048;stroke-width:1.0;"/><text fill="#A6DA95" font-family="Helvetica" font-size="12" lengthAdjust="spacing" text-decoration="underline" textLength="197.7715" x="26" y="486.2402">S execState(Kind&lt;StateKind.Witness</text><text fill="#A6DA95" font-family="Helvetica" font-size="12" lengthAdjust="spacing" text-decoration="underline" textLength="124.3945" x="223.7715" y="486.2402">, A&gt; kind, S initialState)</text></g><!--class StateFunctor--><g id="elem_StateFunctor"><rect codeLine="45" fill="#24273A" height="50" id="StateFunctor" rx="1.5" ry="1.5" style="stroke:#C6A0F6;stroke-width:2.0;" width="470.5645" x="1064.66" y="101"/><rect fill="#363A4F" height="30" rx="1.5" ry="1.5" style="stroke:#363A4F;stroke-width:2.0;" width="470.5645" x="1064.66" y="101"/><rect fill="#363A4F" height="1.5" style="stroke:#363A4F;stroke-width:2.0;" width="470.5645" x="1064.66" y="129.5"/><rect codeLine="45" fill="none" height="50" id="StateFunctor" rx="1.5" ry="1.5" style="stroke:#C6A0F6;stroke-width:2.0;" width="470.5645" x="1064.66" y="101"/><ellipse cx="1244.1395" cy="116" fill="#ADD1B2" rx="10" ry="10" style="stroke:#181818;stroke-width:1.0;"/><path d="M1245.9735,120.248 Q1245.5633,120.459 1245.1121,120.5645 Q1244.661,120.6699 1244.1629,120.6699 Q1242.3934,120.6699 1241.4618,119.5039 Q1240.5301,118.3379 1240.5301,116.1348 Q1240.5301,113.9258 1241.4618,112.7598 Q1242.3934,111.5938 1244.1629,111.5938 Q1244.661,111.5938 1245.118,111.6992 Q1245.575,111.8047 1245.9735,112.0156 L1245.9735,113.9375 Q1245.5282,113.5273 1245.1092,113.3369 Q1244.6903,113.1465 1244.245,113.1465 Q1243.2957,113.1465 1242.8123,113.8994 Q1242.3289,114.6523 1242.3289,116.1348 Q1242.3289,117.6113 1242.8123,118.3643 Q1243.2957,119.1172 1244.245,119.1172 Q1244.6903,119.1172 1245.1092,118.9268 Q1245.5282,118.7363 1245.9735,118.3262 Z " fill="#CAD3F5"/><text fill="#A6DA95" font-family="Helvetica" font-size="16" lengthAdjust="spacing" textLength="91.6016" x="1263.1395" y="120.3203">StateFunctor</text><rect fill="#24273A" height="14" style="stroke:#C6A0F6;stroke-width:1.0;stroke-dasharray:2.0,2.0;" width="10.0039" x="1528.2205" y="98"/><text fill="#CAD3F5" font-family="Helvetica" font-size="12" font-style="italic" lengthAdjust="spacing" textLength="8.0039" x="1529.2205" y="108.2402">S</text><line style="stroke:#C6A0F6;stroke-width:2.0;" x1="1065.66" x2="1534.2245" y1="131" y2="131"/><ellipse cx="1075.66" cy="142.5" fill="#84BE84" rx="3" ry="3" style="stroke:#038048;stroke-width:1.0;"/><text fill="#A6DA95" font-family="Helvetica" font-size="12" lengthAdjust="spacing" textLength="129.0703" x="1083.66" y="144.2402">Kind&lt;StateKind.Witness</text><text fill="#A6DA95" font-family="Helvetica" font-size="12" lengthAdjust="spacing" text-decoration="line-through" textLength="277.4766" x="1212.7303" y="144.2402">, B&gt; map(Function&lt;A, B&gt; f, Kind&lt;StateKind.Witness</text><text fill="#A6DA95" font-family="Helvetica" font-size="12" lengthAdjust="spacing" text-decoration="line-through" textLength="39.0176" x="1490.2069" y="144.2402">, A&gt; fa)</text></g><!--class StateApplicative--><g id="elem_StateApplicative"><rect codeLine="48" fill="#24273A" height="62" id="StateApplicative" rx="1.5" ry="1.5" style="stroke:#C6A0F6;stroke-width:2.0;" width="606.6484" x="759.62" y="212"/><rect fill="#363A4F" height="30" rx="1.5" ry="1.5" style="stroke:#363A4F;stroke-width:2.0;" width="606.6484" x="759.62" y="212"/><rect fill="#363A4F" height="1.5" style="stroke:#363A4F;stroke-width:2.0;" width="606.6484" x="759.62" y="240.5"/><rect codeLine="48" fill="none" height="62" id="StateApplicative" rx="1.5" ry="1.5" style="stroke:#C6A0F6;stroke-width:2.0;" width="606.6484" x="759.62" y="212"/><ellipse cx="995.5751" cy="227" fill="#ADD1B2" rx="10" ry="10" style="stroke:#181818;stroke-width:1.0;"/><path d="M997.4091,231.248 Q996.9989,231.459 996.5477,231.5645 Q996.0966,231.6699 995.5985,231.6699 Q993.829,231.6699 992.8973,230.5039 Q991.9657,229.3379 991.9657,227.1348 Q991.9657,224.9258 992.8973,223.7598 Q993.829,222.5938 995.5985,222.5938 Q996.0966,222.5938 996.5536,222.6992 Q997.0106,222.8047 997.4091,223.0156 L997.4091,224.9375 Q996.9638,224.5273 996.5448,224.3369 Q996.1259,224.1465 995.6805,224.1465 Q994.7313,224.1465 994.2479,224.8994 Q993.7645,225.6523 993.7645,227.1348 Q993.7645,228.6113 994.2479,229.3643 Q994.7313,230.1172 995.6805,230.1172 Q996.1259,230.1172 996.5448,229.9268 Q996.9638,229.7363 997.4091,229.3262 Z " fill="#CAD3F5"/><text fill="#A6DA95" font-family="Helvetica" font-size="16" lengthAdjust="spacing" textLength="114.7344" x="1014.5751" y="231.3203">StateApplicative</text><rect fill="#24273A" height="14" style="stroke:#C6A0F6;stroke-width:1.0;stroke-dasharray:2.0,2.0;" width="10.0039" x="1359.2645" y="209"/><text fill="#CAD3F5" font-family="Helvetica" font-size="12" font-style="italic" lengthAdjust="spacing" textLength="8.0039" x="1360.2645" y="219.2402">S</text><line style="stroke:#C6A0F6;stroke-width:2.0;" x1="760.62" x2="1365.2684" y1="242" y2="242"/><ellipse cx="770.62" cy="253.5" fill="#84BE84" rx="3" ry="3" style="stroke:#038048;stroke-width:1.0;"/><text fill="#A6DA95" font-family="Helvetica" font-size="12" lengthAdjust="spacing" textLength="129.0703" x="778.62" y="255.2402">Kind&lt;StateKind.Witness</text><text fill="#A6DA95" font-family="Helvetica" font-size="12" lengthAdjust="spacing" text-decoration="line-through" textLength="83.0391" x="907.6903" y="255.2402">, A&gt; of(A value)</text><ellipse cx="770.62" cy="265.5" fill="#84BE84" rx="3" ry="3" style="stroke:#038048;stroke-width:1.0;"/><text fill="#A6DA95" font-family="Helvetica" font-size="12" lengthAdjust="spacing" textLength="129.0703" x="778.62" y="267.2402">Kind&lt;StateKind.Witness</text><text fill="#A6DA95" font-family="Helvetica" font-size="12" lengthAdjust="spacing" text-decoration="line-through" textLength="171.4277" x="907.6903" y="267.2402">, B&gt; ap(Kind&lt;StateKind.Witness</text><text fill="#A6DA95" font-family="Helvetica" font-size="12" lengthAdjust="spacing" text-decoration="line-through" textLength="242.1328" x="1079.118" y="267.2402">, Function&lt;A, B&gt;&gt; ff, Kind&lt;StateKind.Witness</text><text fill="#A6DA95" font-family="Helvetica" font-size="12" lengthAdjust="spacing" text-decoration="line-through" textLength="39.0176" x="1321.2509" y="267.2402">, A&gt; fa)</text></g><!--class StateMonad--><g id="elem_StateMonad"><rect codeLine="52" fill="#24273A" height="50" id="StateMonad" rx="1.5" ry="1.5" style="stroke:#C6A0F6;stroke-width:2.0;" width="635.9805" x="467.95" y="389"/><rect fill="#363A4F" height="30" rx="1.5" ry="1.5" style="stroke:#363A4F;stroke-width:2.0;" width="635.9805" x="467.95" y="389"/><rect fill="#363A4F" height="1.5" style="stroke:#363A4F;stroke-width:2.0;" width="635.9805" x="467.95" y="417.5"/><rect codeLine="52" fill="none" height="50" id="StateMonad" rx="1.5" ry="1.5" style="stroke:#C6A0F6;stroke-width:2.0;" width="635.9805" x="467.95" y="389"/><ellipse cx="732.7977" cy="404" fill="#ADD1B2" rx="10" ry="10" style="stroke:#181818;stroke-width:1.0;"/><path d="M734.6316,408.248 Q734.2215,408.459 733.7703,408.5645 Q733.3191,408.6699 732.8211,408.6699 Q731.0516,408.6699 730.1199,407.5039 Q729.1883,406.3379 729.1883,404.1348 Q729.1883,401.9258 730.1199,400.7598 Q731.0516,399.5938 732.8211,399.5938 Q733.3191,399.5938 733.7762,399.6992 Q734.2332,399.8047 734.6316,400.0156 L734.6316,401.9375 Q734.1863,401.5273 733.7674,401.3369 Q733.3484,401.1465 732.9031,401.1465 Q731.9539,401.1465 731.4705,401.8994 Q730.9871,402.6523 730.9871,404.1348 Q730.9871,405.6113 731.4705,406.3643 Q731.9539,407.1172 732.9031,407.1172 Q733.3484,407.1172 733.7674,406.9268 Q734.1863,406.7363 734.6316,406.3262 Z " fill="#CAD3F5"/><text fill="#A6DA95" font-family="Helvetica" font-size="16" lengthAdjust="spacing" textLength="86.2813" x="751.7977" y="408.3203">StateMonad</text><rect fill="#24273A" height="14" style="stroke:#C6A0F6;stroke-width:1.0;stroke-dasharray:2.0,2.0;" width="10.0039" x="1096.9266" y="386"/><text fill="#CAD3F5" font-family="Helvetica" font-size="12" font-style="italic" lengthAdjust="spacing" textLength="8.0039" x="1097.9266" y="396.2402">S</text><line style="stroke:#C6A0F6;stroke-width:2.0;" x1="468.95" x2="1102.9305" y1="419" y2="419"/><ellipse cx="478.95" cy="430.5" fill="#84BE84" rx="3" ry="3" style="stroke:#038048;stroke-width:1.0;"/><text fill="#A6DA95" font-family="Helvetica" font-size="12" lengthAdjust="spacing" textLength="129.0703" x="486.95" y="432.2402">Kind&lt;StateKind.Witness</text><text fill="#A6DA95" font-family="Helvetica" font-size="12" lengthAdjust="spacing" text-decoration="line-through" textLength="265.1367" x="616.0203" y="432.2402">, B&gt; flatMap(Function&lt;A, Kind&lt;StateKind.Witness</text><text fill="#A6DA95" font-family="Helvetica" font-size="12" lengthAdjust="spacing" text-decoration="line-through" textLength="171.0938" x="881.157" y="432.2402">, B&gt;&gt; f, Kind&lt;StateKind.Witness</text><text fill="#A6DA95" font-family="Helvetica" font-size="12" lengthAdjust="spacing" text-decoration="line-through" textLength="45.6797" x="1052.2508" y="432.2402">, A&gt; ma)</text></g><!--class StateKind<S, A>--><g id="elem_StateKind&lt;S, A&gt;"><rect fill="#24273A" height="30" id="StateKind&lt;S, A&gt;" rx="1.5" ry="1.5" style="stroke:#C6A0F6;stroke-width:2.0;" width="148.3047" x="296.79" y="629"/><rect fill="#363A4F" height="30" rx="1.5" ry="1.5" style="stroke:#363A4F;stroke-width:2.0;" width="148.3047" x="296.79" y="629"/><rect fill="#363A4F" height="1.5" style="stroke:#363A4F;stroke-width:2.0;" width="148.3047" x="296.79" y="657.5"/><rect fill="none" height="30" id="StateKind&lt;S, A&gt;" rx="1.5" ry="1.5" style="stroke:#C6A0F6;stroke-width:2.0;" width="148.3047" x="296.79" y="629"/><ellipse cx="310.79" cy="644" fill="#ADD1B2" rx="10" ry="10" style="stroke:#181818;stroke-width:1.0;"/><path d="M312.624,648.248 Q312.2138,648.459 311.7627,648.5645 Q311.3115,648.6699 310.8134,648.6699 Q309.0439,648.6699 308.1123,647.5039 Q307.1806,646.3379 307.1806,644.1348 Q307.1806,641.9258 308.1123,640.7598 Q309.0439,639.5938 310.8134,639.5938 Q311.3115,639.5938 311.7685,639.6992 Q312.2255,639.8047 312.624,640.0156 L312.624,641.9375 Q312.1787,641.5273 311.7597,641.3369 Q311.3408,641.1465 310.8955,641.1465 Q309.9463,641.1465 309.4629,641.8994 Q308.9795,642.6523 308.9795,644.1348 Q308.9795,645.6113 309.4629,646.3643 Q309.9463,647.1172 310.8955,647.1172 Q311.3408,647.1172 311.7597,646.9268 Q312.1787,646.7363 312.624,646.3262 Z " fill="#CAD3F5"/><text fill="#A6DA95" font-family="Helvetica" font-size="16" lengthAdjust="spacing" textLength="118.3047" x="323.79" y="648.3203">StateKind&lt;S, A&gt;</text></g><!--reverse link State to StateTuple--><g id="link_State_StateTuple"><path codeLine="25" d="M706.94,737.26 C706.94,763.31 706.94,774.83 706.94,794.68 " fill="none" id="State-backto-StateTuple" style="stroke:#F5BDE6;stroke-width:1.0;"/><ellipse cx="706.94" cy="729.26" fill="#24273A" rx="8" ry="8" style="stroke:#F5BDE6;stroke-width:1.0;"/><line style="stroke:#F5BDE6;stroke-width:1.0;" x1="706.94" x2="706.94" y1="737.26" y2="721.26"/><line style="stroke:#F5BDE6;stroke-width:1.0;" x1="698.94" x2="714.94" y1="729.26" y2="729.26"/><polygon fill="#CAD3F5" points="710.94,762,713.2911,754.7639,708.5889,754.7639,710.94,762" style="stroke:#CAD3F5;stroke-width:1.0;"/><text fill="#CAD3F5" font-family="Helvetica" font-size="12" lengthAdjust="spacing" textLength="25.3477" x="719.94" y="761.2402">uses</text></g><!--reverse link Functor to StateFunctor--><g id="link_Functor_StateFunctor"><path d="M1299.94,58.18 C1299.94,73.9 1299.94,81.54 1299.94,100.51 " fill="none" id="Functor-backto-StateFunctor" style="stroke:#F5BDE6;stroke-width:1.0;stroke-dasharray:7.0,7.0;"/><polygon fill="none" points="1299.94,40.18,1293.94,58.18,1305.94,58.18,1299.94,40.18" style="stroke:#F5BDE6;stroke-width:1.0;"/></g><!--reverse link StateFunctor to StateApplicative--><g id="link_StateFunctor_StateApplicative"><path d="M1233.485,159.2464 C1197.205,176.8464 1164.18,192.88 1125.38,211.71 " fill="none" id="StateFunctor-backto-StateApplicative" style="stroke:#F5BDE6;stroke-width:1.0;"/><polygon fill="none" points="1249.68,151.39,1230.8662,153.8481,1236.1039,164.6447,1249.68,151.39" style="stroke:#F5BDE6;stroke-width:1.0;"/></g><!--reverse link Applicative to StateApplicative--><g id="link_Applicative_StateApplicative"><path d="M992.6684,155.0962 C1006.8284,172.6062 1020.06,188.97 1038.54,211.82 " fill="none" id="Applicative-backto-StateApplicative" style="stroke:#F5BDE6;stroke-width:1.0;stroke-dasharray:7.0,7.0;"/><polygon fill="none" points="981.35,141.1,988.003,158.869,997.3338,151.3234,981.35,141.1" style="stroke:#F5BDE6;stroke-width:1.0;"/></g><!--reverse link StateApplicative to StateMonad--><g id="link_StateApplicative_StateMonad"><path d="M997.7341,283.785 C944.1541,316.475 875.4,358.42 825.96,388.59 " fill="none" id="StateApplicative-backto-StateMonad" style="stroke:#F5BDE6;stroke-width:1.0;"/><polygon fill="none" points="1013.1,274.41,994.6091,278.663,1000.8591,288.9069,1013.1,274.41" style="stroke:#F5BDE6;stroke-width:1.0;"/></g><!--reverse link Monad to StateMonad--><g id="link_Monad_StateMonad"><path d="M698.5441,273.6589 C716.7141,302.6289 748.3,352.98 770.71,388.7 " fill="none" id="Monad-backto-StateMonad" style="stroke:#F5BDE6;stroke-width:1.0;stroke-dasharray:7.0,7.0;"/><polygon fill="none" points="688.98,258.41,693.4611,276.8469,703.6271,270.4708,688.98,258.41" style="stroke:#F5BDE6;stroke-width:1.0;"/></g><!--link StateKind<S, A> to Kind--><g id="link_StateKind&lt;S, A&gt;_Kind"><path codeLine="58" d="M370.94,659.27 C370.94,692.59 370.94,757.27 370.94,790.67 " fill="none" id="StateKind&lt;S, A&gt;-to-Kind" style="stroke:#F5BDE6;stroke-width:1.0;"/><polygon fill="none" points="370.94,808.67,376.94,790.67,364.94,790.67,370.94,808.67" style="stroke:#F5BDE6;stroke-width:1.0;"/><text fill="#CAD3F5" font-family="Helvetica" font-size="12" lengthAdjust="spacing" textLength="105.0527" x="371.94" y="761.2402">&lt;StateKind.Witness</text><text fill="#CAD3F5" font-family="Helvetica" font-size="12" lengthAdjust="spacing" text-decoration="line-through" textLength="21.6797" x="476.9927" y="761.2402">, A&gt;</text></g><!--link StateKindHelper to State--><g id="link_StateKindHelper_State"><path codeLine="61" d="M326.91,493.27 C350.92,508.95 376.75,524.44 401.94,537 C449.6,560.76 498.2041,579.574 547.6441,596.234 " fill="none" id="StateKindHelper-to-State" style="stroke:#F5BDE6;stroke-width:1.0;stroke-dasharray:7.0,7.0;"/><polygon fill="#F5BDE6" points="553.33,598.15,546.0785,591.4854,548.5918,596.5533,543.5239,599.0666,553.33,598.15" style="stroke:#F5BDE6;stroke-width:1.0;"/><text fill="#CAD3F5" font-family="Helvetica" font-size="12" lengthAdjust="spacing" textLength="83.3672" x="402.94" y="533.2402">widens/narrows</text></g><!--link StateKindHelper to StateKind<S, A>--><g id="link_StateKindHelper_StateKind&lt;S, A&gt;"><path codeLine="62" d="M238.56,493.43 C243.9,508.51 250.6,523.73 258.94,537 C283.31,575.76 320.2613,606.4686 345.3313,624.9586 " fill="none" id="StateKindHelper-to-StateKind&lt;S, A&gt;" style="stroke:#F5BDE6;stroke-width:1.0;stroke-dasharray:7.0,7.0;"/><polygon fill="#F5BDE6" points="350.16,628.52,345.2911,619.9588,346.1361,625.5522,340.5427,626.3971,350.16,628.52" style="stroke:#F5BDE6;stroke-width:1.0;"/><text fill="#CAD3F5" font-family="Helvetica" font-size="12" lengthAdjust="spacing" textLength="83.3672" x="259.94" y="533.2402">widens/narrows</text></g><!--link StateMonad to StateKind<S, A>--><g id="link_StateMonad_StateKind&lt;S, A&gt;"><path codeLine="64" d="M707.34,439.41 C652.06,458.26 577.45,487.15 516.94,523 C463.88,554.44 414.2989,600.2242 389.4289,624.5542 " fill="none" id="StateMonad-to-StateKind&lt;S, A&gt;" style="stroke:#F5BDE6;stroke-width:1.0;stroke-dasharray:7.0,7.0;"/><polygon fill="#F5BDE6" points="385.14,628.75,394.3706,625.3156,388.7141,625.2535,388.7762,619.597,385.14,628.75" style="stroke:#F5BDE6;stroke-width:1.0;"/><text fill="#CAD3F5" font-family="Helvetica" font-size="12" lengthAdjust="spacing" textLength="195.7852" x="517.94" y="533.2402">operates on Kind&lt;StateKind.Witness</text><text fill="#CAD3F5" font-family="Helvetica" font-size="12" lengthAdjust="spacing" text-decoration="line-through" textLength="21.6797" x="713.7252" y="533.2402">, A&gt;</text></g><!--link StateMonad to State--><g id="link_StateMonad_State"><path codeLine="65" d="M777.49,439.4 C767.04,469.56 750.7241,516.6406 735.3941,560.8906 " fill="none" id="StateMonad-to-State" style="stroke:#F5BDE6;stroke-width:1.0;stroke-dasharray:7.0,7.0;"/><polygon fill="#F5BDE6" points="733.43,566.56,740.1558,559.3653,735.0668,561.8355,732.5966,556.7465,733.43,566.56" style="stroke:#F5BDE6;stroke-width:1.0;"/><text fill="#CAD3F5" font-family="Helvetica" font-size="12" lengthAdjust="spacing" textLength="88.0488" x="747.44" y="533.2402">uses methods of</text></g><!--SRC=[fLLDRvmm4BtpAznSkb42t2E4H0-hLbKkfLNFZdS8Ll67iDbDbEv_xs2MNM0NXsmvePbvRyOpu-TFNBAgsG0fhTNc8OvhkekUkIsRfyP0pPIq86t4b8WbKyRIaBEOKQjrmnYNeQ2CbPnQ5UgAIjk8AhGb28W5vJ9slv56Qn2K7BE0qFQL211FK9iW20X-75FK1ML0ldEvITRt94idZdKZcLLrifuwCgqhZkNmBPmx7vMaczQCtycQMseXoTii94aSCyV0YdphGzAKlBLKTrtipqPNFQ1kv2h75DnoMZdlRHVvXgsndEr7zAfOzVojPSgMaWAzFWBTrB3Ao9PMpNoYF2NFO5Up_bzORKeCXkH4mivVTHSir8ONh-FYiLfVgLmQ3SoECDa9SmpzWknKdy8oPxeKLbJKFav21tu7sWVEGkx2SD1Uya1mUGt1oREA6dC-noIfWQbwWonkriDHzmt7RCHqpTe78wPsJxz2fQ4-W2zsHDAwLhkLM-eZBFhDhGHZaZnrGN_GTZlcy0DsU8rm1mTvJ3_GnHpJjLe67EpPCi3Sudq4xTd4nSVrhUPqTfFBxcmBHjZkobGL1jGPWUt1y_zaEO4NODUJxKUxt4ihTfKBFBj0kJT7mRr4VLH7J_APMtx_pgGAsfOtg6wexrWXlE1hjF5MFa9SMNqdtMFTzHyMp-e96BS1Z_dnHdHlsRG5a_OCsd28ltvybzJNYrWmNa4xAVrCVW3I8wifkJR1pH7HtRmR4eP_KqU6KZxBXqnJEOwYjEiCufnIchYJONCnz3pn6ImujNyMef0FZOOewU_0bAmlrRrM0cofSBAg2Fu1]--></g></svg>