<svg xmlns="http://www.w3.org/2000/svg" xmlns:xlink="http://www.w3.org/1999/xlink" contentStyleType="text/css" height="624px" preserveAspectRatio="none" style="width:952px;height:624px;background:#24273A;" version="1.1" viewBox="0 0 952 624" width="952px" zoomAndPan="magnify"><defs/><g><rect fill="#24273A" height="624" style="stroke:none;stroke-width:1.0;" width="952" x="0" y="0"/><!--class Try--><g id="elem_Try"><rect codeLine="7" fill="#24273A" height="30" id="Try" rx="1.5" ry="1.5" style="stroke:#C6A0F6;stroke-width:2.0;" width="64.4316" x="90.37" y="10"/><rect fill="#363A4F" height="30" rx="1.5" ry="1.5" style="stroke:#363A4F;stroke-width:2.0;" width="64.4316" x="90.37" y="10"/><rect fill="#363A4F" height="1.5" style="stroke:#363A4F;stroke-width:2.0;" width="64.4316" x="90.37" y="38.5"/><rect codeLine="7" fill="none" height="30" id="Try" rx="1.5" ry="1.5" style="stroke:#C6A0F6;stroke-width:2.0;" width="64.4316" x="90.37" y="10"/><ellipse cx="104.37" cy="25" fill="#B4A7E5" rx="10" ry="10" style="stroke:#181818;stroke-width:1.0;"/><path d="M101.3778,22.2754 L101.3778,20.752 L106.5868,20.752 L106.5868,22.2754 L104.8466,22.2754 L104.8466,27.9766 L106.5868,27.9766 L106.5868,29.5 L101.3778,29.5 L101.3778,27.9766 L103.118,27.9766 L103.118,22.2754 Z " fill="#CAD3F5"/><text fill="#A6DA95" font-family="Helvetica" font-size="16" font-style="italic" lengthAdjust="spacing" textLength="23.1016" x="117.37" y="29.3203">Try</text><rect fill="#24273A" height="14" style="stroke:#C6A0F6;stroke-width:1.0;stroke-dasharray:2.0,2.0;" width="9.3301" x="148.4716" y="7"/><text fill="#CAD3F5" font-family="Helvetica" font-size="12" font-style="italic" lengthAdjust="spacing" textLength="7.3301" x="149.4716" y="17.2402">T</text></g><!--class TryKind--><g id="elem_TryKind"><rect codeLine="10" fill="#24273A" height="30" id="TryKind" rx="1.5" ry="1.5" style="stroke:#C6A0F6;stroke-width:2.0;" width="327.248" x="413.96" y="483"/><rect fill="#363A4F" height="30" rx="1.5" ry="1.5" style="stroke:#363A4F;stroke-width:2.0;" width="327.248" x="413.96" y="483"/><rect fill="#363A4F" height="1.5" style="stroke:#363A4F;stroke-width:2.0;" width="327.248" x="413.96" y="511.5"/><rect codeLine="10" fill="none" height="30" id="TryKind" rx="1.5" ry="1.5" style="stroke:#C6A0F6;stroke-width:2.0;" width="327.248" x="413.96" y="483"/><ellipse cx="427.96" cy="498" fill="#B4A7E5" rx="10" ry="10" style="stroke:#181818;stroke-width:1.0;"/><path d="M424.9678,495.2754 L424.9678,493.752 L430.1768,493.752 L430.1768,495.2754 L428.4366,495.2754 L428.4366,500.9766 L430.1768,500.9766 L430.1768,502.5 L424.9678,502.5 L424.9678,500.9766 L426.708,500.9766 L426.708,495.2754 Z " fill="#CAD3F5"/><text fill="#A6DA95" font-family="Helvetica" font-size="16" font-style="italic" lengthAdjust="spacing" textLength="191.8984" x="440.96" y="502.3203">TryKind&lt;T&gt;" extends "Kind</text><rect fill="#24273A" height="14" style="stroke:#C6A0F6;stroke-width:1.0;stroke-dasharray:2.0,2.0;" width="103.3496" x="640.8584" y="480"/><text fill="#CAD3F5" font-family="Helvetica" font-size="12" font-style="italic" lengthAdjust="spacing" textLength="101.3496" x="641.8584" y="490.2402">TryKind.Witness, T</text></g><!--class TryFunctor--><g id="elem_TryFunctor"><rect codeLine="12" fill="#24273A" height="50" id="TryFunctor" rx="1.5" ry="1.5" style="stroke:#C6A0F6;stroke-width:2.0;" width="449.1777" x="7" y="101"/><rect fill="#363A4F" height="30" rx="1.5" ry="1.5" style="stroke:#363A4F;stroke-width:2.0;" width="449.1777" x="7" y="101"/><rect fill="#363A4F" height="1.5" style="stroke:#363A4F;stroke-width:2.0;" width="449.1777" x="7" y="129.5"/><rect codeLine="12" fill="none" height="50" id="TryFunctor" rx="1.5" ry="1.5" style="stroke:#C6A0F6;stroke-width:2.0;" width="449.1777" x="7" y="101"/><ellipse cx="188.917" cy="116" fill="#ADD1B2" rx="10" ry="10" style="stroke:#181818;stroke-width:1.0;"/><path d="M190.751,120.248 Q190.3408,120.459 189.8896,120.5645 Q189.4385,120.6699 188.9404,120.6699 Q187.1709,120.6699 186.2393,119.5039 Q185.3076,118.3379 185.3076,116.1348 Q185.3076,113.9258 186.2393,112.7598 Q187.1709,111.5938 188.9404,111.5938 Q189.4385,111.5938 189.8955,111.6992 Q190.3525,111.8047 190.751,112.0156 L190.751,113.9375 Q190.3057,113.5273 189.8867,113.3369 Q189.4678,113.1465 189.0225,113.1465 Q188.0732,113.1465 187.5898,113.8994 Q187.1064,114.6523 187.1064,116.1348 Q187.1064,117.6113 187.5898,118.3643 Q188.0732,119.1172 189.0225,119.1172 Q189.4678,119.1172 189.8867,118.9268 Q190.3057,118.7363 190.751,118.3262 Z " fill="#CAD3F5"/><text fill="#A6DA95" font-family="Helvetica" font-size="16" lengthAdjust="spacing" textLength="77.3438" x="207.917" y="120.3203">TryFunctor</text><line style="stroke:#C6A0F6;stroke-width:2.0;" x1="8" x2="455.1777" y1="131" y2="131"/><ellipse cx="18" cy="142.5" fill="#84BE84" rx="3" ry="3" style="stroke:#038048;stroke-width:1.0;"/><text fill="#A6DA95" font-family="Helvetica" font-size="12" lengthAdjust="spacing" textLength="424.1777" x="26" y="144.2402">Kind&lt;TryKind.Witness, B&gt; map(Function&lt;A, B&gt; f, Kind&lt;TryKind.Witness, A&gt; fa)</text></g><!--class Functor--><g id="elem_Functor"><rect fill="#24273A" height="30" id="Functor" rx="1.5" ry="1.5" style="stroke:#C6A0F6;stroke-width:2.0;" width="84.2422" x="189.47" y="10"/><rect fill="#363A4F" height="30" rx="1.5" ry="1.5" style="stroke:#363A4F;stroke-width:2.0;" width="84.2422" x="189.47" y="10"/><rect fill="#363A4F" height="1.5" style="stroke:#363A4F;stroke-width:2.0;" width="84.2422" x="189.47" y="38.5"/><rect fill="none" height="30" id="Functor" rx="1.5" ry="1.5" style="stroke:#C6A0F6;stroke-width:2.0;" width="84.2422" x="189.47" y="10"/><ellipse cx="203.47" cy="25" fill="#B4A7E5" rx="10" ry="10" style="stroke:#181818;stroke-width:1.0;"/><path d="M200.4778,22.2754 L200.4778,20.752 L205.6868,20.752 L205.6868,22.2754 L203.9466,22.2754 L203.9466,27.9766 L205.6868,27.9766 L205.6868,29.5 L200.4778,29.5 L200.4778,27.9766 L202.218,27.9766 L202.218,22.2754 Z " fill="#CAD3F5"/><text fill="#A6DA95" font-family="Helvetica" font-size="16" font-style="italic" lengthAdjust="spacing" textLength="54.2422" x="216.47" y="29.3203">Functor</text></g><!--class TryApplicative--><g id="elem_TryApplicative"><rect codeLine="15" fill="#24273A" height="62" id="TryApplicative" rx="1.5" ry="1.5" style="stroke:#C6A0F6;stroke-width:2.0;" width="574.5684" x="100.3" y="212"/><rect fill="#363A4F" height="30" rx="1.5" ry="1.5" style="stroke:#363A4F;stroke-width:2.0;" width="574.5684" x="100.3" y="212"/><rect fill="#363A4F" height="1.5" style="stroke:#363A4F;stroke-width:2.0;" width="574.5684" x="100.3" y="240.5"/><rect codeLine="15" fill="none" height="62" id="TryApplicative" rx="1.5" ry="1.5" style="stroke:#C6A0F6;stroke-width:2.0;" width="574.5684" x="100.3" y="212"/><ellipse cx="333.3459" cy="227" fill="#ADD1B2" rx="10" ry="10" style="stroke:#181818;stroke-width:1.0;"/><path d="M335.1799,231.248 Q334.7697,231.459 334.3186,231.5645 Q333.8674,231.6699 333.3693,231.6699 Q331.5998,231.6699 330.6682,230.5039 Q329.7365,229.3379 329.7365,227.1348 Q329.7365,224.9258 330.6682,223.7598 Q331.5998,222.5938 333.3693,222.5938 Q333.8674,222.5938 334.3244,222.6992 Q334.7814,222.8047 335.1799,223.0156 L335.1799,224.9375 Q334.7346,224.5273 334.3156,224.3369 Q333.8967,224.1465 333.4514,224.1465 Q332.5021,224.1465 332.0188,224.8994 Q331.5354,225.6523 331.5354,227.1348 Q331.5354,228.6113 332.0188,229.3643 Q332.5021,230.1172 333.4514,230.1172 Q333.8967,230.1172 334.3156,229.9268 Q334.7346,229.7363 335.1799,229.3262 Z " fill="#CAD3F5"/><text fill="#A6DA95" font-family="Helvetica" font-size="16" lengthAdjust="spacing" textLength="100.4766" x="352.3459" y="231.3203">TryApplicative</text><line style="stroke:#C6A0F6;stroke-width:2.0;" x1="101.3" x2="673.8684" y1="242" y2="242"/><ellipse cx="111.3" cy="253.5" fill="#84BE84" rx="3" ry="3" style="stroke:#038048;stroke-width:1.0;"/><text fill="#A6DA95" font-family="Helvetica" font-size="12" lengthAdjust="spacing" textLength="201.416" x="119.3" y="255.2402">Kind&lt;TryKind.Witness, A&gt; of(A value)</text><ellipse cx="111.3" cy="265.5" fill="#84BE84" rx="3" ry="3" style="stroke:#038048;stroke-width:1.0;"/><text fill="#A6DA95" font-family="Helvetica" font-size="12" lengthAdjust="spacing" textLength="549.5684" x="119.3" y="267.2402">Kind&lt;TryKind.Witness, B&gt; ap(Kind&lt;TryKind.Witness, Function&lt;A, B&gt;&gt; ff, Kind&lt;TryKind.Witness, A&gt; fa)</text></g><!--class Applicative--><g id="elem_Applicative"><rect fill="#24273A" height="30" id="Applicative" rx="1.5" ry="1.5" style="stroke:#C6A0F6;stroke-width:2.0;" width="107.375" x="490.9" y="111"/><rect fill="#363A4F" height="30" rx="1.5" ry="1.5" style="stroke:#363A4F;stroke-width:2.0;" width="107.375" x="490.9" y="111"/><rect fill="#363A4F" height="1.5" style="stroke:#363A4F;stroke-width:2.0;" width="107.375" x="490.9" y="139.5"/><rect fill="none" height="30" id="Applicative" rx="1.5" ry="1.5" style="stroke:#C6A0F6;stroke-width:2.0;" width="107.375" x="490.9" y="111"/><ellipse cx="504.9" cy="126" fill="#B4A7E5" rx="10" ry="10" style="stroke:#181818;stroke-width:1.0;"/><path d="M501.9078,123.2754 L501.9078,121.752 L507.1168,121.752 L507.1168,123.2754 L505.3766,123.2754 L505.3766,128.9766 L507.1168,128.9766 L507.1168,130.5 L501.9078,130.5 L501.9078,128.9766 L503.648,128.9766 L503.648,123.2754 Z " fill="#CAD3F5"/><text fill="#A6DA95" font-family="Helvetica" font-size="16" font-style="italic" lengthAdjust="spacing" textLength="77.375" x="517.9" y="130.3203">Applicative</text></g><!--class TryMonad--><g id="elem_TryMonad"><rect codeLine="19" fill="#24273A" height="74" id="TryMonad" rx="1.5" ry="1.5" style="stroke:#C6A0F6;stroke-width:2.0;" width="735.9707" x="209.6" y="335"/><rect fill="#363A4F" height="30" rx="1.5" ry="1.5" style="stroke:#363A4F;stroke-width:2.0;" width="735.9707" x="209.6" y="335"/><rect fill="#363A4F" height="1.5" style="stroke:#363A4F;stroke-width:2.0;" width="735.9707" x="209.6" y="363.5"/><rect codeLine="19" fill="none" height="74" id="TryMonad" rx="1.5" ry="1.5" style="stroke:#C6A0F6;stroke-width:2.0;" width="735.9707" x="209.6" y="335"/><ellipse cx="537.5736" cy="350" fill="#ADD1B2" rx="10" ry="10" style="stroke:#181818;stroke-width:1.0;"/><path d="M539.4076,354.248 Q538.9975,354.459 538.5463,354.5645 Q538.0951,354.6699 537.5971,354.6699 Q535.8275,354.6699 534.8959,353.5039 Q533.9643,352.3379 533.9643,350.1348 Q533.9643,347.9258 534.8959,346.7598 Q535.8275,345.5938 537.5971,345.5938 Q538.0951,345.5938 538.5521,345.6992 Q539.0092,345.8047 539.4076,346.0156 L539.4076,347.9375 Q538.9623,347.5273 538.5434,347.3369 Q538.1244,347.1465 537.6791,347.1465 Q536.7299,347.1465 536.2465,347.8994 Q535.7631,348.6523 535.7631,350.1348 Q535.7631,351.6113 536.2465,352.3643 Q536.7299,353.1172 537.6791,353.1172 Q538.1244,353.1172 538.5434,352.9268 Q538.9623,352.7363 539.4076,352.3262 Z " fill="#CAD3F5"/><text fill="#A6DA95" font-family="Helvetica" font-size="16" lengthAdjust="spacing" textLength="72.0234" x="556.5736" y="354.3203">TryMonad</text><line style="stroke:#C6A0F6;stroke-width:2.0;" x1="210.6" x2="944.5707" y1="365" y2="365"/><ellipse cx="220.6" cy="376.5" fill="#84BE84" rx="3" ry="3" style="stroke:#038048;stroke-width:1.0;"/><text fill="#A6DA95" font-family="Helvetica" font-size="12" lengthAdjust="spacing" textLength="578.9004" x="228.6" y="378.2402">Kind&lt;TryKind.Witness, B&gt; flatMap(Function&lt;A, Kind&lt;TryKind.Witness, B&gt;&gt; f, Kind&lt;TryKind.Witness, A&gt; ma)</text><ellipse cx="220.6" cy="388.5" fill="#84BE84" rx="3" ry="3" style="stroke:#038048;stroke-width:1.0;"/><text fill="#A6DA95" font-family="Helvetica" font-size="12" lengthAdjust="spacing" textLength="288.7559" x="228.6" y="390.2402">Kind&lt;TryKind.Witness, A&gt; raiseError(Throwable error)</text><ellipse cx="220.6" cy="400.5" fill="#84BE84" rx="3" ry="3" style="stroke:#038048;stroke-width:1.0;"/><text fill="#A6DA95" font-family="Helvetica" font-size="12" lengthAdjust="spacing" textLength="710.9707" x="228.6" y="402.2402">Kind&lt;TryKind.Witness, A&gt; handleErrorWith(Kind&lt;TryKind.Witness, A&gt; ma, Function&lt;Throwable, Kind&lt;TryKind.Witness, A&gt;&gt; handler)</text></g><!--class MonadError--><g id="elem_MonadError"><rect fill="#24273A" height="30" id="MonadError" rx="1.5" ry="1.5" style="stroke:#C6A0F6;stroke-width:2.0;" width="114.4766" x="710.35" y="228"/><rect fill="#363A4F" height="30" rx="1.5" ry="1.5" style="stroke:#363A4F;stroke-width:2.0;" width="114.4766" x="710.35" y="228"/><rect fill="#363A4F" height="1.5" style="stroke:#363A4F;stroke-width:2.0;" width="114.4766" x="710.35" y="256.5"/><rect fill="none" height="30" id="MonadError" rx="1.5" ry="1.5" style="stroke:#C6A0F6;stroke-width:2.0;" width="114.4766" x="710.35" y="228"/><ellipse cx="724.35" cy="243" fill="#B4A7E5" rx="10" ry="10" style="stroke:#181818;stroke-width:1.0;"/><path d="M721.3578,240.2754 L721.3578,238.752 L726.5668,238.752 L726.5668,240.2754 L724.8266,240.2754 L724.8266,245.9766 L726.5668,245.9766 L726.5668,247.5 L721.3578,247.5 L721.3578,245.9766 L723.098,245.9766 L723.098,240.2754 Z " fill="#CAD3F5"/><text fill="#A6DA95" font-family="Helvetica" font-size="16" font-style="italic" lengthAdjust="spacing" textLength="84.4766" x="737.35" y="247.3203">MonadError</text></g><!--class Kind--><g id="elem_Kind"><rect fill="#24273A" height="30" id="Kind" rx="1.5" ry="1.5" style="stroke:#C6A0F6;stroke-width:2.0;" width="62.0234" x="546.58" y="587"/><rect fill="#363A4F" height="30" rx="1.5" ry="1.5" style="stroke:#363A4F;stroke-width:2.0;" width="62.0234" x="546.58" y="587"/><rect fill="#363A4F" height="1.5" style="stroke:#363A4F;stroke-width:2.0;" width="62.0234" x="546.58" y="615.5"/><rect fill="none" height="30" id="Kind" rx="1.5" ry="1.5" style="stroke:#C6A0F6;stroke-width:2.0;" width="62.0234" x="546.58" y="587"/><ellipse cx="560.58" cy="602" fill="#ADD1B2" rx="10" ry="10" style="stroke:#181818;stroke-width:1.0;"/><path d="M562.414,606.248 Q562.0038,606.459 561.5527,606.5645 Q561.1015,606.6699 560.6034,606.6699 Q558.8339,606.6699 557.9023,605.5039 Q556.9706,604.3379 556.9706,602.1348 Q556.9706,599.9258 557.9023,598.7598 Q558.8339,597.5938 560.6034,597.5938 Q561.1015,597.5938 561.5585,597.6992 Q562.0155,597.8047 562.414,598.0156 L562.414,599.9375 Q561.9687,599.5273 561.5497,599.3369 Q561.1308,599.1465 560.6855,599.1465 Q559.7363,599.1465 559.2529,599.8994 Q558.7695,600.6523 558.7695,602.1348 Q558.7695,603.6113 559.2529,604.3643 Q559.7363,605.1172 560.6855,605.1172 Q561.1308,605.1172 561.5497,604.9268 Q561.9687,604.7363 562.414,604.3262 Z " fill="#CAD3F5"/><text fill="#A6DA95" font-family="Helvetica" font-size="16" lengthAdjust="spacing" textLength="32.0234" x="573.58" y="606.3203">Kind</text></g><!--reverse link Functor to TryFunctor--><g id="link_Functor_TryFunctor"><path d="M231.59,58.18 C231.59,73.9 231.59,81.54 231.59,100.51 " fill="none" id="Functor-backto-TryFunctor" style="stroke:#F5BDE6;stroke-width:1.0;stroke-dasharray:7.0,7.0;"/><polygon fill="none" points="231.59,40.18,225.59,58.18,237.59,58.18,231.59,40.18" style="stroke:#F5BDE6;stroke-width:1.0;"/></g><!--reverse link TryFunctor to TryApplicative--><g id="link_TryFunctor_TryApplicative"><path d="M279.1598,162.0692 C303.0398,179.6692 320.95,192.88 346.49,211.71 " fill="none" id="TryFunctor-backto-TryApplicative" style="stroke:#F5BDE6;stroke-width:1.0;"/><polygon fill="none" points="264.67,151.39,275.6,166.8992,282.7195,157.2393,264.67,151.39" style="stroke:#F5BDE6;stroke-width:1.0;"/></g><!--reverse link Applicative to TryApplicative--><g id="link_Applicative_TryApplicative"><path d="M510.4985,151.9661 C486.5785,169.4861 459.98,188.98 428.93,211.72 " fill="none" id="Applicative-backto-TryApplicative" style="stroke:#F5BDE6;stroke-width:1.0;stroke-dasharray:7.0,7.0;"/><polygon fill="none" points="525.02,141.33,506.9532,147.1256,514.0439,156.8066,525.02,141.33" style="stroke:#F5BDE6;stroke-width:1.0;"/></g><!--reverse link TryApplicative to TryMonad--><g id="link_TryApplicative_TryMonad"><path d="M448.0642,284.4237 C475.1842,302.5537 494.8,315.66 523.33,334.73 " fill="none" id="TryApplicative-backto-TryMonad" style="stroke:#F5BDE6;stroke-width:1.0;"/><polygon fill="none" points="433.1,274.42,444.7296,289.4117,451.3987,279.4356,433.1,274.42" style="stroke:#F5BDE6;stroke-width:1.0;"/></g><!--reverse link MonadError to TryMonad--><g id="link_MonadError_TryMonad"><path d="M731.1965,268.3247 C703.7365,286.6847 670.09,309.17 632.11,334.56 " fill="none" id="MonadError-backto-TryMonad" style="stroke:#F5BDE6;stroke-width:1.0;stroke-dasharray:7.0,7.0;"/><polygon fill="none" points="746.16,258.32,727.8616,263.3369,734.5314,273.3125,746.16,258.32" style="stroke:#F5BDE6;stroke-width:1.0;"/></g><!--link TryKind to Kind--><g id="link_TryKind_Kind"><path codeLine="26" d="M577.59,513.18 C577.59,532.56 577.59,567.12 577.59,586.61 " fill="none" id="TryKind-Kind" style="stroke:#F5BDE6;stroke-width:1.0;"/><text fill="#CAD3F5" font-family="Helvetica" font-size="12" lengthAdjust="spacing" textLength="42.0293" x="578.59" y="553.2402">extends</text></g><!--link TryMonad to TryKind--><g id="link_TryMonad_TryKind"><path codeLine="28" d="M577.59,409.2 C577.59,433.79 577.59,458.97 577.59,476.79 " fill="none" id="TryMonad-to-TryKind" style="stroke:#F5BDE6;stroke-width:1.0;stroke-dasharray:7.0,7.0;"/><polygon fill="#F5BDE6" points="577.59,482.79,581.59,473.79,577.59,477.79,573.59,473.79,577.59,482.79" style="stroke:#F5BDE6;stroke-width:1.0;"/><text fill="#CAD3F5" font-family="Helvetica" font-size="12" lengthAdjust="spacing" textLength="168.082" x="578.59" y="449.2402">operates on &lt;TryKind.Witness&gt;</text></g><!--SRC=[bLFBRi8m4BpxAxQSG2N97Q58gTHUAcv8FI_EqbZoIxO3HLN_lSQyKWYfkDap-vZno4z2SzdM14q8ri-Amk4s_nIXQLUj9yUD3gH3peqgD3S-O2PumJ5Ost8kTAQGyqPWC9cLg4EhP1OQKbGe5Bf8nzn6bB56n2saRDY18hKYvnbZ8evtQ-G4ewNRpPVb2D13FDvmxqBNYQUlgAZsC3eW1oR_446JzrEuZDZZZ769FbtVMis3SI2KbL6L3XwEqFMG4huPm3FqBtWfGQ4TfrvXzBnAq7fwfxoA74xOpqL8PQqKyGd5Xivc-lLrAX_J69UQzRY23SgM9iDcefT-xg_3QEC1ZmkZiUwwwvhkE4nrhyx54Ff6bp7FnfajhYJzcyfQObXS9NElU3WmXPFXntKeF2NPuxC-eFrztpZOsg2kvQ4tmiruG4GdWlEM-wfFezq-2CQE5P1bgGDcfpGITSWdpylJHucyiUGma0UZuIO8ndu1]--></g></svg>