<svg xmlns="http://www.w3.org/2000/svg" xmlns:xlink="http://www.w3.org/1999/xlink" contentStyleType="text/css" data-diagram-type="CLASS" height="946px" preserveAspectRatio="none" style="width:964px;height:946px;background:#24273A;" version="1.1" viewBox="0 0 964 946" width="964px" zoomAndPan="magnify"><defs/><g><rect fill="#24273A" height="946" style="stroke:none;stroke-width:1;" width="964" x="0" y="0"/><!--cluster HKT Core - Type Classes--><g class="cluster" data-entity="HKT Core - Type Classes" data-source-line="5" data-uid="ent0002" id="cluster_HKT Core - Type Classes"><path d="M7.5,6.016 L150.853,6.016 A2.25,2.25 0 0 1 152.353,7.516 L159.353,28.3601 L955.5,28.3601 A1.5,1.5 0 0 1 957,29.8601 L957,937.816 A1.5,1.5 0 0 1 955.5,939.316 L7.5,939.316 A1.5,1.5 0 0 1 6,937.816 L6,7.516 A1.5,1.5 0 0 1 7.5,6.016" fill="#24273A" style="stroke:#CAD3F5;stroke-width:1.5;"/><line style="stroke:#CAD3F5;stroke-width:1.5;" x1="6" x2="159.353" y1="28.3601" y2="28.3601"/><text fill="#CAD3F5" font-family="Helvetica" font-size="12" font-weight="bold" lengthAdjust="spacing" textLength="140.353" x="10" y="20.8441">HKT Core - Type Classes</text></g><!--class Kind--><g class="entity" data-entity="Kind" data-source-line="6" data-uid="ent0003" id="entity_Kind"><rect fill="#24273A" height="47.792" rx="1.5" ry="1.5" style="stroke:#C6A0F6;stroke-width:2;" width="215.1331" x="322.43" y="591.256"/><rect fill="#363A4F" height="31.792" rx="1.5" ry="1.5" style="stroke:#363A4F;stroke-width:2;" width="215.1331" x="322.43" y="591.256"/><rect fill="#363A4F" height="1.5" style="stroke:#363A4F;stroke-width:2;" width="215.1331" x="322.43" y="621.5481"/><rect fill="none" height="47.792" rx="1.5" ry="1.5" style="stroke:#C6A0F6;stroke-width:2;" width="215.1331" x="322.43" y="591.256"/><ellipse cx="336.43" cy="607.152" fill="#B4A7E5" rx="10" ry="10" style="stroke:#181818;stroke-width:1;"/><path d="M334.0081,611.652 L334.0081,610.4489 L335.68,610.2614 L335.68,604.4802 L334.0081,604.277 L334.0081,603.0895 L339.055,603.0895 L339.055,604.277 L337.3519,604.4802 L337.3519,610.2614 L339.055,610.4489 L339.055,611.652 L334.0081,611.652 Z " fill="#CAD3F5"/><text fill="#A6DA95" font-family="Helvetica" font-size="16" font-style="italic" lengthAdjust="spacing" textLength="31.6481" x="349.43" y="613.3601">Kind</text><rect fill="#24273A" height="18.3441" style="stroke:#C6A0F6;stroke-width:1;stroke-dasharray:2,2;" width="151.485" x="389.0781" y="588.256"/><text fill="#CAD3F5" font-family="Helvetica" font-size="12" font-style="italic" lengthAdjust="spacing" textLength="149.485" x="390.0781" y="602.0841">F extends WitnessArity&lt;?&gt;, A</text><line style="stroke:#C6A0F6;stroke-width:2;" x1="323.43" x2="536.5631" y1="623.0481" y2="623.0481"/><line style="stroke:#C6A0F6;stroke-width:2;" x1="323.43" x2="536.5631" y1="631.0481" y2="631.0481"/></g><!--class WitnessArity--><g class="entity" data-entity="WitnessArity" data-source-line="11" data-uid="ent0004" id="entity_WitnessArity"><rect fill="#24273A" height="47.792" rx="1.5" ry="1.5" style="stroke:#C6A0F6;stroke-width:2;" width="223.0569" x="318.47" y="717.046"/><rect fill="#363A4F" height="31.792" rx="1.5" ry="1.5" style="stroke:#363A4F;stroke-width:2;" width="223.0569" x="318.47" y="717.046"/><rect fill="#363A4F" height="1.5" style="stroke:#363A4F;stroke-width:2;" width="223.0569" x="318.47" y="747.3381"/><rect fill="none" height="47.792" rx="1.5" ry="1.5" style="stroke:#C6A0F6;stroke-width:2;" width="223.0569" x="318.47" y="717.046"/><ellipse cx="332.47" cy="732.942" fill="#B4A7E5" rx="10" ry="10" style="stroke:#181818;stroke-width:1;"/><path d="M330.0481,737.442 L330.0481,736.2389 L331.72,736.0514 L331.72,730.2702 L330.0481,730.067 L330.0481,728.8795 L335.095,728.8795 L335.095,730.067 L333.3919,730.2702 L333.3919,736.0514 L335.095,736.2389 L335.095,737.442 L330.0481,737.442 Z " fill="#CAD3F5"/><text fill="#A6DA95" font-family="Helvetica" font-size="16" font-style="italic" lengthAdjust="spacing" textLength="86.4802" x="345.47" y="739.1501">WitnessArity</text><rect fill="#24273A" height="18.3441" style="stroke:#C6A0F6;stroke-width:1;stroke-dasharray:2,2;" width="104.5767" x="439.9502" y="714.046"/><text fill="#CAD3F5" font-family="Helvetica" font-size="12" font-style="italic" lengthAdjust="spacing" textLength="102.5767" x="440.9502" y="727.8741">A extends TypeArity</text><line style="stroke:#C6A0F6;stroke-width:2;" x1="319.47" x2="540.5269" y1="748.8381" y2="748.8381"/><line style="stroke:#C6A0F6;stroke-width:2;" x1="319.47" x2="540.5269" y1="756.8381" y2="756.8381"/></g><!--class TypeArity--><g class="entity" data-entity="TypeArity" data-source-line="15" data-uid="ent0005" id="entity_TypeArity"><rect fill="#24273A" height="80.4803" rx="1.5" ry="1.5" style="stroke:#C6A0F6;stroke-width:2;" width="100.8161" x="379.59" y="842.836"/><rect fill="#363A4F" height="31.792" rx="1.5" ry="1.5" style="stroke:#363A4F;stroke-width:2;" width="100.8161" x="379.59" y="842.836"/><rect fill="#363A4F" height="1.5" style="stroke:#363A4F;stroke-width:2;" width="100.8161" x="379.59" y="873.1281"/><rect fill="none" height="80.4803" rx="1.5" ry="1.5" style="stroke:#C6A0F6;stroke-width:2;" width="100.8161" x="379.59" y="842.836"/><ellipse cx="393.59" cy="858.732" fill="#EB937F" rx="10" ry="10" style="stroke:#181818;stroke-width:1;"/><path d="M391.0431,863.232 L391.0431,854.6695 L396.4494,854.6695 L396.4494,856.1695 L392.7306,856.1695 L392.7306,858.0289 L396.2775,858.0289 L396.2775,859.5289 L392.7306,859.5289 L392.7306,861.732 L396.4494,861.732 L396.4494,863.232 L391.0431,863.232 Z " fill="#CAD3F5"/><text fill="#A6DA95" font-family="Helvetica" font-size="16" lengthAdjust="spacing" textLength="70.8161" x="406.59" y="864.9401">TypeArity</text><line style="stroke:#C6A0F6;stroke-width:2;" x1="380.59" x2="479.4061" y1="874.6281" y2="874.6281"/><text fill="#A6DA95" font-family="Helvetica" font-size="12" lengthAdjust="spacing" textLength="33.9962" x="385.59" y="891.4562">Unary</text><text fill="#A6DA95" font-family="Helvetica" font-size="12" lengthAdjust="spacing" textLength="36.1202" x="385.59" y="907.8003">Binary</text><line style="stroke:#C6A0F6;stroke-width:2;" x1="380.59" x2="479.4061" y1="915.3163" y2="915.3163"/></g><!--class Functor--><g class="entity" data-entity="Functor" data-source-line="20" data-uid="ent0006" id="entity_Functor"><rect fill="#24273A" height="64.1362" rx="1.5" ry="1.5" style="stroke:#C6A0F6;stroke-width:2;" width="302.1898" x="278.91" y="449.116"/><rect fill="#363A4F" height="31.792" rx="1.5" ry="1.5" style="stroke:#363A4F;stroke-width:2;" width="302.1898" x="278.91" y="449.116"/><rect fill="#363A4F" height="1.5" style="stroke:#363A4F;stroke-width:2;" width="302.1898" x="278.91" y="479.4081"/><rect fill="none" height="64.1362" rx="1.5" ry="1.5" style="stroke:#C6A0F6;stroke-width:2;" width="302.1898" x="278.91" y="449.116"/><ellipse cx="315.6065" cy="465.012" fill="#B4A7E5" rx="10" ry="10" style="stroke:#181818;stroke-width:1;"/><path d="M313.1846,469.512 L313.1846,468.3089 L314.8565,468.1214 L314.8565,462.3402 L313.1846,462.137 L313.1846,460.9495 L318.2315,460.9495 L318.2315,462.137 L316.5284,462.3402 L316.5284,468.1214 L318.2315,468.3089 L318.2315,469.512 L313.1846,469.512 Z " fill="#CAD3F5"/><text fill="#A6DA95" font-family="Helvetica" font-size="16" font-style="italic" lengthAdjust="spacing" textLength="54.0961" x="333.6501" y="471.2201">Functor</text><rect fill="#24273A" height="18.3441" style="stroke:#C6A0F6;stroke-width:1;stroke-dasharray:2,2;" width="165.6571" x="418.4427" y="446.116"/><text fill="#CAD3F5" font-family="Helvetica" font-size="12" font-style="italic" lengthAdjust="spacing" textLength="163.6571" x="419.4427" y="459.9441">F extends WitnessArity&lt;Unary&gt;</text><line style="stroke:#C6A0F6;stroke-width:2;" x1="279.91" x2="580.0998" y1="480.9081" y2="480.9081"/><line style="stroke:#C6A0F6;stroke-width:2;" x1="279.91" x2="580.0998" y1="488.9081" y2="488.9081"/><ellipse cx="289.91" cy="502.5801" fill="#84BE84" rx="3" ry="3" style="stroke:#038048;stroke-width:1;"/><text fill="#A6DA95" font-family="Helvetica" font-size="12" lengthAdjust="spacing" textLength="277.1898" x="297.91" y="505.7362">map(fn: Function&lt;A,B&gt;, fa: Kind&lt;F,A&gt;) : Kind&lt;F,B&gt;</text></g><!--class Applicative--><g class="entity" data-entity="Applicative" data-source-line="23" data-uid="ent0007" id="entity_Applicative"><rect fill="#24273A" height="80.4803" rx="1.5" ry="1.5" style="stroke:#C6A0F6;stroke-width:2;" width="339.2941" x="22.35" y="307.636"/><rect fill="#363A4F" height="31.792" rx="1.5" ry="1.5" style="stroke:#363A4F;stroke-width:2;" width="339.2941" x="22.35" y="307.636"/><rect fill="#363A4F" height="1.5" style="stroke:#363A4F;stroke-width:2;" width="339.2941" x="22.35" y="337.9281"/><rect fill="none" height="80.4803" rx="1.5" ry="1.5" style="stroke:#C6A0F6;stroke-width:2;" width="339.2941" x="22.35" y="307.636"/><ellipse cx="65.6644" cy="323.532" fill="#B4A7E5" rx="10" ry="10" style="stroke:#181818;stroke-width:1;"/><path d="M63.2425,328.032 L63.2425,326.8289 L64.9144,326.6414 L64.9144,320.8602 L63.2425,320.657 L63.2425,319.4695 L68.2894,319.4695 L68.2894,320.657 L66.5863,320.8602 L66.5863,326.6414 L68.2894,326.8289 L68.2894,328.032 L63.2425,328.032 Z " fill="#CAD3F5"/><text fill="#A6DA95" font-family="Helvetica" font-size="16" font-style="italic" lengthAdjust="spacing" textLength="77.0081" x="84.6644" y="329.7401">Applicative</text><rect fill="#24273A" height="18.3441" style="stroke:#C6A0F6;stroke-width:1;stroke-dasharray:2,2;" width="165.6571" x="198.987" y="304.636"/><text fill="#CAD3F5" font-family="Helvetica" font-size="12" font-style="italic" lengthAdjust="spacing" textLength="163.6571" x="199.987" y="318.4641">F extends WitnessArity&lt;Unary&gt;</text><line style="stroke:#C6A0F6;stroke-width:2;" x1="23.35" x2="360.6441" y1="339.4281" y2="339.4281"/><line style="stroke:#C6A0F6;stroke-width:2;" x1="23.35" x2="360.6441" y1="347.4281" y2="347.4281"/><ellipse cx="33.35" cy="361.1001" fill="#84BE84" rx="3" ry="3" style="stroke:#038048;stroke-width:1;"/><text fill="#A6DA95" font-family="Helvetica" font-size="12" lengthAdjust="spacing" textLength="128.3169" x="41.35" y="364.2562">of(value: A) : Kind&lt;F,A&gt;</text><ellipse cx="33.35" cy="377.4442" fill="#84BE84" rx="3" ry="3" style="stroke:#038048;stroke-width:1;"/><text fill="#A6DA95" font-family="Helvetica" font-size="12" lengthAdjust="spacing" textLength="314.2941" x="41.35" y="380.6003">ap(ff: Kind&lt;F, Function&lt;A,B&gt;&gt;, fa: Kind&lt;F,A&gt;) : Kind&lt;F,B&gt;</text></g><!--class Monad--><g class="entity" data-entity="Monad" data-source-line="29" data-uid="ent0008" id="entity_Monad"><rect fill="#24273A" height="64.1362" rx="1.5" ry="1.5" style="stroke:#C6A0F6;stroke-width:2;" width="378.8464" x="32.58" y="182.496"/><rect fill="#363A4F" height="31.792" rx="1.5" ry="1.5" style="stroke:#363A4F;stroke-width:2;" width="378.8464" x="32.58" y="182.496"/><rect fill="#363A4F" height="1.5" style="stroke:#363A4F;stroke-width:2;" width="378.8464" x="32.58" y="212.7881"/><rect fill="none" height="64.1362" rx="1.5" ry="1.5" style="stroke:#C6A0F6;stroke-width:2;" width="378.8464" x="32.58" y="182.496"/><ellipse cx="109.1346" cy="198.392" fill="#B4A7E5" rx="10" ry="10" style="stroke:#181818;stroke-width:1;"/><path d="M106.7127,202.892 L106.7127,201.6889 L108.3846,201.5014 L108.3846,195.7202 L106.7127,195.517 L106.7127,194.3295 L111.7596,194.3295 L111.7596,195.517 L110.0565,195.7202 L110.0565,201.5014 L111.7596,201.6889 L111.7596,202.892 L106.7127,202.892 Z " fill="#CAD3F5"/><text fill="#A6DA95" font-family="Helvetica" font-size="16" font-style="italic" lengthAdjust="spacing" textLength="50.0801" x="128.1346" y="204.6001">Monad</text><rect fill="#24273A" height="18.3441" style="stroke:#C6A0F6;stroke-width:1;stroke-dasharray:2,2;" width="165.6571" x="248.7693" y="179.496"/><text fill="#CAD3F5" font-family="Helvetica" font-size="12" font-style="italic" lengthAdjust="spacing" textLength="163.6571" x="249.7693" y="193.3241">F extends WitnessArity&lt;Unary&gt;</text><line style="stroke:#C6A0F6;stroke-width:2;" x1="33.58" x2="410.4264" y1="214.2881" y2="214.2881"/><line style="stroke:#C6A0F6;stroke-width:2;" x1="33.58" x2="410.4264" y1="222.2881" y2="222.2881"/><ellipse cx="43.58" cy="235.9601" fill="#84BE84" rx="3" ry="3" style="stroke:#038048;stroke-width:1;"/><text fill="#A6DA95" font-family="Helvetica" font-size="12" lengthAdjust="spacing" textLength="353.8464" x="51.58" y="239.1162">flatMap(fn: Function&lt;A, Kind&lt;F,B&gt;&gt;, ma: Kind&lt;F,A&gt;) : Kind&lt;F,B&gt;</text></g><!--class MonadError--><g class="entity" data-entity="MonadError" data-source-line="32" data-uid="ent0009" id="entity_MonadError"><rect fill="#24273A" height="80.4803" rx="1.5" ry="1.5" style="stroke:#C6A0F6;stroke-width:2;" width="460.1349" x="21.93" y="41.016"/><rect fill="#363A4F" height="31.792" rx="1.5" ry="1.5" style="stroke:#363A4F;stroke-width:2;" width="460.1349" x="21.93" y="41.016"/><rect fill="#363A4F" height="1.5" style="stroke:#363A4F;stroke-width:2;" width="460.1349" x="21.93" y="71.3081"/><rect fill="none" height="80.4803" rx="1.5" ry="1.5" style="stroke:#C6A0F6;stroke-width:2;" width="460.1349" x="21.93" y="41.016"/><ellipse cx="114.7808" cy="56.912" fill="#B4A7E5" rx="10" ry="10" style="stroke:#181818;stroke-width:1;"/><path d="M112.3589,61.412 L112.3589,60.2089 L114.0308,60.0214 L114.0308,54.2402 L112.3589,54.037 L112.3589,52.8495 L117.4058,52.8495 L117.4058,54.037 L115.7027,54.2402 L115.7027,60.0214 L117.4058,60.2089 L117.4058,61.412 L112.3589,61.412 Z " fill="#CAD3F5"/><text fill="#A6DA95" font-family="Helvetica" font-size="16" font-style="italic" lengthAdjust="spacing" textLength="86.4162" x="133.7808" y="63.1201">MonadError</text><rect fill="#24273A" height="18.3441" style="stroke:#C6A0F6;stroke-width:1;stroke-dasharray:2,2;" width="178.0172" x="307.0478" y="38.016"/><text fill="#CAD3F5" font-family="Helvetica" font-size="12" font-style="italic" lengthAdjust="spacing" textLength="176.0172" x="308.0478" y="51.8441">F extends WitnessArity&lt;Unary&gt;, E</text><line style="stroke:#C6A0F6;stroke-width:2;" x1="22.93" x2="481.0649" y1="72.8081" y2="72.8081"/><line style="stroke:#C6A0F6;stroke-width:2;" x1="22.93" x2="481.0649" y1="80.8081" y2="80.8081"/><ellipse cx="32.93" cy="94.4801" fill="#84BE84" rx="3" ry="3" style="stroke:#038048;stroke-width:1;"/><text fill="#A6DA95" font-family="Helvetica" font-size="12" lengthAdjust="spacing" textLength="170.8212" x="40.93" y="97.6362">raiseError(error: E) : Kind&lt;F,A&gt;</text><ellipse cx="32.93" cy="110.8242" fill="#84BE84" rx="3" ry="3" style="stroke:#038048;stroke-width:1;"/><text fill="#A6DA95" font-family="Helvetica" font-size="12" lengthAdjust="spacing" textLength="435.1349" x="40.93" y="113.9803">handleErrorWith(ma: Kind&lt;F,A&gt;, handler: Function&lt;E, Kind&lt;F,A&gt;&gt;) : Kind&lt;F,A&gt;</text></g><!--class Semigroup--><g class="entity" data-entity="Semigroup" data-source-line="38" data-uid="ent0010" id="entity_Semigroup"><rect fill="#24273A" height="64.1362" rx="1.5" ry="1.5" style="stroke:#C6A0F6;stroke-width:2;" width="145.0368" x="643.48" y="182.496"/><rect fill="#363A4F" height="31.792" rx="1.5" ry="1.5" style="stroke:#363A4F;stroke-width:2;" width="145.0368" x="643.48" y="182.496"/><rect fill="#363A4F" height="1.5" style="stroke:#363A4F;stroke-width:2;" width="145.0368" x="643.48" y="212.7881"/><rect fill="none" height="64.1362" rx="1.5" ry="1.5" style="stroke:#C6A0F6;stroke-width:2;" width="145.0368" x="643.48" y="182.496"/><ellipse cx="669.5997" cy="198.392" fill="#B4A7E5" rx="10" ry="10" style="stroke:#181818;stroke-width:1;"/><path d="M667.1778,202.892 L667.1778,201.6889 L668.8497,201.5014 L668.8497,195.7202 L667.1778,195.517 L667.1778,194.3295 L672.2247,194.3295 L672.2247,195.517 L670.5216,195.7202 L670.5216,201.5014 L672.2247,201.6889 L672.2247,202.892 L667.1778,202.892 Z " fill="#CAD3F5"/><text fill="#A6DA95" font-family="Helvetica" font-size="16" font-style="italic" lengthAdjust="spacing" textLength="77.3602" x="685.293" y="204.6001">Semigroup</text><rect fill="#24273A" height="18.3441" style="stroke:#C6A0F6;stroke-width:1;stroke-dasharray:2,2;" width="8.744" x="782.7728" y="179.496"/><text fill="#CAD3F5" font-family="Helvetica" font-size="12" font-style="italic" lengthAdjust="spacing" textLength="6.744" x="783.7728" y="193.3241">A</text><line style="stroke:#C6A0F6;stroke-width:2;" x1="644.48" x2="787.5168" y1="214.2881" y2="214.2881"/><line style="stroke:#C6A0F6;stroke-width:2;" x1="644.48" x2="787.5168" y1="222.2881" y2="222.2881"/><ellipse cx="654.48" cy="235.9601" fill="#84BE84" rx="3" ry="3" style="stroke:#038048;stroke-width:1;"/><text fill="#A6DA95" font-family="Helvetica" font-size="12" lengthAdjust="spacing" textLength="120.0368" x="662.48" y="239.1162">combine(x: A, y: A) : A</text></g><!--class Monoid--><g class="entity" data-entity="Monoid" data-source-line="42" data-uid="ent0011" id="entity_Monoid"><rect fill="#24273A" height="64.1362" rx="1.5" ry="1.5" style="stroke:#C6A0F6;stroke-width:2;" width="94.8721" x="668.56" y="49.186"/><rect fill="#363A4F" height="31.792" rx="1.5" ry="1.5" style="stroke:#363A4F;stroke-width:2;" width="94.8721" x="668.56" y="49.186"/><rect fill="#363A4F" height="1.5" style="stroke:#363A4F;stroke-width:2;" width="94.8721" x="668.56" y="79.4781"/><rect fill="none" height="64.1362" rx="1.5" ry="1.5" style="stroke:#C6A0F6;stroke-width:2;" width="94.8721" x="668.56" y="49.186"/><ellipse cx="682.56" cy="65.082" fill="#B4A7E5" rx="10" ry="10" style="stroke:#181818;stroke-width:1;"/><path d="M680.1381,69.582 L680.1381,68.3789 L681.81,68.1914 L681.81,62.4102 L680.1381,62.207 L680.1381,61.0195 L685.185,61.0195 L685.185,62.207 L683.4819,62.4102 L683.4819,68.1914 L685.185,68.3789 L685.185,69.582 L680.1381,69.582 Z " fill="#CAD3F5"/><text fill="#A6DA95" font-family="Helvetica" font-size="16" font-style="italic" lengthAdjust="spacing" textLength="54.1281" x="695.56" y="71.2901">Monoid</text><rect fill="#24273A" height="18.3441" style="stroke:#C6A0F6;stroke-width:1;stroke-dasharray:2,2;" width="8.744" x="757.6881" y="46.186"/><text fill="#CAD3F5" font-family="Helvetica" font-size="12" font-style="italic" lengthAdjust="spacing" textLength="6.744" x="758.6881" y="60.0141">A</text><line style="stroke:#C6A0F6;stroke-width:2;" x1="669.56" x2="762.4321" y1="80.9781" y2="80.9781"/><line style="stroke:#C6A0F6;stroke-width:2;" x1="669.56" x2="762.4321" y1="88.9781" y2="88.9781"/><ellipse cx="679.56" cy="102.6501" fill="#84BE84" rx="3" ry="3" style="stroke:#038048;stroke-width:1;"/><text fill="#A6DA95" font-family="Helvetica" font-size="12" lengthAdjust="spacing" textLength="60.1444" x="687.56" y="105.8062">empty() : A</text></g><!--class Traverse--><g class="entity" data-entity="Traverse" data-source-line="46" data-uid="ent0012" id="entity_Traverse"><rect fill="#24273A" height="80.4803" rx="1.5" ry="1.5" style="stroke:#C6A0F6;stroke-width:2;" width="544.0034" x="397" y="307.636"/><rect fill="#363A4F" height="31.792" rx="1.5" ry="1.5" style="stroke:#363A4F;stroke-width:2;" width="544.0034" x="397" y="307.636"/><rect fill="#363A4F" height="1.5" style="stroke:#363A4F;stroke-width:2;" width="544.0034" x="397" y="337.9281"/><rect fill="none" height="80.4803" rx="1.5" ry="1.5" style="stroke:#C6A0F6;stroke-width:2;" width="544.0034" x="397" y="307.636"/><ellipse cx="550.9331" cy="323.532" fill="#B4A7E5" rx="10" ry="10" style="stroke:#181818;stroke-width:1;"/><path d="M548.5112,328.032 L548.5112,326.8289 L550.1831,326.6414 L550.1831,320.8602 L548.5112,320.657 L548.5112,319.4695 L553.5581,319.4695 L553.5581,320.657 L551.855,320.8602 L551.855,326.6414 L553.5581,326.8289 L553.5581,328.032 L548.5112,328.032 Z " fill="#CAD3F5"/><text fill="#A6DA95" font-family="Helvetica" font-size="16" font-style="italic" lengthAdjust="spacing" textLength="60.1921" x="569.9331" y="329.7401">Traverse</text><rect fill="#24273A" height="18.3441" style="stroke:#C6A0F6;stroke-width:1;stroke-dasharray:2,2;" width="165.9451" x="778.0583" y="304.636"/><text fill="#CAD3F5" font-family="Helvetica" font-size="12" font-style="italic" lengthAdjust="spacing" textLength="163.9451" x="779.0583" y="318.4641">T extends WitnessArity&lt;Unary&gt;</text><line style="stroke:#C6A0F6;stroke-width:2;" x1="398" x2="940.0034" y1="339.4281" y2="339.4281"/><line style="stroke:#C6A0F6;stroke-width:2;" x1="398" x2="940.0034" y1="347.4281" y2="347.4281"/><ellipse cx="408" cy="361.1001" fill="#84BE84" rx="3" ry="3" style="stroke:#038048;stroke-width:1;"/><text fill="#A6DA95" font-family="Helvetica" font-size="12" lengthAdjust="spacing" textLength="519.0034" x="416" y="364.2562">traverse(a: Applicative&lt;G&gt;, f : Function&lt;A, Kind&lt;G, B&gt;&gt;, ta : Kind&lt;T, A&gt;) : Kind&lt;G, Kind&lt;T, B&gt;&gt;</text><ellipse cx="408" cy="377.4442" fill="#84BE84" rx="3" ry="3" style="stroke:#038048;stroke-width:1;"/><text fill="#A6DA95" font-family="Helvetica" font-size="12" lengthAdjust="spacing" textLength="429.5429" x="416" y="380.6003">sequence(a: Applicative&lt;G&gt;, tga : Kind&lt;T, Kind&lt;G, A&gt;&gt;) : Kind&lt;G, Kind&lt;T, A&gt;&gt;</text></g><!--link WitnessArity to TypeArity--><g class="link" data-entity-1="WitnessArity" data-entity-2="TypeArity" data-source-line="51" data-uid="lnk13" id="link_WitnessArity_TypeArity"><path codeLine="51" d="M430,765.076 C430,786.066 430,811.456 430,836.436" fill="none" id="WitnessArity-to-TypeArity" style="stroke:#F5BDE6;stroke-width:1;stroke-dasharray:7,7;"/><polygon fill="#F5BDE6" points="430,842.436,434,833.436,430,837.436,426,833.436,430,842.436" style="stroke:#F5BDE6;stroke-width:1;"/><text fill="#CAD3F5" font-family="Helvetica" font-size="12" lengthAdjust="spacing" textLength="99.4567" x="431" y="808.6641">parameterised by</text></g><!--link Kind to WitnessArity--><g class="link" data-entity-1="Kind" data-entity-2="WitnessArity" data-source-line="52" data-uid="lnk14" id="link_Kind_WitnessArity"><path codeLine="52" d="M430,639.436 C430,661.566 430,688.666 430,710.756" fill="none" id="Kind-to-WitnessArity" style="stroke:#F5BDE6;stroke-width:1;stroke-dasharray:7,7;"/><polygon fill="#F5BDE6" points="430,716.756,434,707.756,430,711.756,426,707.756,430,716.756" style="stroke:#F5BDE6;stroke-width:1;"/><text fill="#CAD3F5" font-family="Helvetica" font-size="12" lengthAdjust="spacing" textLength="54.1084" x="431" y="682.8741">F extends</text></g><!--link Functor to Kind--><g class="link" data-entity-1="Functor" data-entity-2="Kind" data-source-line="53" data-uid="lnk15" id="link_Functor_Kind"><path codeLine="53" d="M430,513.456 C430,537.236 430,563.426 430,584.946" fill="none" id="Functor-to-Kind" style="stroke:#F5BDE6;stroke-width:1;stroke-dasharray:7,7;"/><polygon fill="#F5BDE6" points="430,590.946,434,581.946,430,585.946,426,581.946,430,590.946" style="stroke:#F5BDE6;stroke-width:1;"/><text fill="#CAD3F5" font-family="Helvetica" font-size="12" lengthAdjust="spacing" textLength="74.9405" x="431" y="557.0841">(operates on)</text></g><!--link Applicative to Functor--><g class="link" data-entity-1="Applicative" data-entity-2="Functor" data-source-line="54" data-uid="lnk16" id="link_Applicative_Functor"><path codeLine="54" d="M263.73,388.446 C298.77,407.786 324.5803,422.0194 357.3803,440.1194" fill="none" id="Applicative-to-Functor" style="stroke:#F5BDE6;stroke-width:1;"/><polygon fill="none" points="373.14,448.816,360.2792,434.8661,354.4814,445.3726,373.14,448.816" style="stroke:#F5BDE6;stroke-width:1;"/></g><!--link Monad to Applicative--><g class="link" data-entity-1="Monad" data-entity-2="Applicative" data-source-line="55" data-uid="lnk17" id="link_Monad_Applicative"><path codeLine="55" d="M214.81,247.016 C210.69,265.076 209.4836,270.3792 205.0736,289.6592" fill="none" id="Monad-to-Applicative" style="stroke:#F5BDE6;stroke-width:1;"/><polygon fill="none" points="201.06,307.206,210.9225,290.997,199.2246,288.3213,201.06,307.206" style="stroke:#F5BDE6;stroke-width:1;"/></g><!--link MonadError to Monad--><g class="link" data-entity-1="MonadError" data-entity-2="Monad" data-source-line="56" data-uid="lnk18" id="link_MonadError_Monad"><path codeLine="56" d="M243,121.656 C238.58,140.996 237.3351,146.4273 233.1951,164.5673" fill="none" id="MonadError-to-Monad" style="stroke:#F5BDE6;stroke-width:1;"/><polygon fill="none" points="229.19,182.116,239.0447,165.9023,227.3455,163.2322,229.19,182.116" style="stroke:#F5BDE6;stroke-width:1;"/></g><!--link Monoid to Semigroup--><g class="link" data-entity-1="Monoid" data-entity-2="Semigroup" data-source-line="57" data-uid="lnk19" id="link_Monoid_Semigroup"><path codeLine="57" d="M716,113.706 C716,134.496 716,143.636 716,164.376" fill="none" id="Monoid-to-Semigroup" style="stroke:#F5BDE6;stroke-width:1;"/><polygon fill="none" points="716,182.376,722,164.376,710,164.376,716,182.376" style="stroke:#F5BDE6;stroke-width:1;"/></g><!--link Traverse to Functor--><g class="link" data-entity-1="Traverse" data-entity-2="Functor" data-source-line="58" data-uid="lnk20" id="link_Traverse_Functor"><path codeLine="58" d="M596.97,388.446 C561.78,407.786 535.8164,422.0498 502.8664,440.1498" fill="none" id="Traverse-to-Functor" style="stroke:#F5BDE6;stroke-width:1;"/><polygon fill="none" points="487.09,448.816,505.7552,445.4086,499.9777,434.8909,487.09,448.816" style="stroke:#F5BDE6;stroke-width:1;"/></g><!--SRC=[bLLDRzim3BtdLt2vrCLi1zWn23ouGTe1HRV3CcnNHQPZeRRaINBROEj_7or_H6uRfCiXYCYdnySFCH-4v6MJ8HJMrcQvM6Zs6E-5BPfTOr1p9IrA6tDLBIHNnh98y0LdjguRpeMCAiPv8PXLKLqoQPkgZ6o15Iug9kJ2_OnhiivcivhnUxP7c7-vtS9QQOG8jeSQOLqoOz3CuSyCw2CefCuP9-IjaDdg6l29H6G6VWehqPXK2tjOVKv2I9CvC0CjhByCS07N80nGQAWBagGgi6sK0EDz7CAl5XptJ9VZdNIuyy3A1jqDvtkUlTGq4P6EsjfCdAsJvACyQNTCtwFsw7AbWJaGRwiWSa755KhwmL4s5Sp708v_F8taFoJJX_xtbHWFhnEuRYItIf-gg-D9kYnww1W3u2DKh0vokUnyf7ILXbVKYfmjeMjNc2QNC1wkabx62nLfNPSkrmTyZn8FFb6Zyi1rR0cf5pHDF4YhDnzTKztdXNTzewI_GeMsK2IICmax15EeHmaYXmoDq9Y5i6iiDHD956L3vfmrfJKUZQlUfs0C5nw3XTGqNrguziMiJrJnJacMlQT-3ZYfN5uoU_UwbqT59AdwpwQwA1kjpqrN21jFbhimqQQPCEZC0RRVIzYSwYuzyQpii1Ie22QImzwjlHGtuT6VlCrw0Tze5MZGoDK3wiEvpfzuQD-n4dkjcdhLxwdHC4cMTkjEI0oUQ8P3EFIJd9uWfOefaGsCtMb2XrLj3y4h2fzZgncbPN2rFJyu0tOIm_R6W8hjF-IRzZt16_DqG-FT3fHbGy6txVOUotyJZbR2UP4C_cvGyZSZsRtFDl3uNVLequ6shyTaGSTnuctK9THCC-evQXh337RT9dN_CYroSfMI7OheKCFAR87knX82LQDc5WqesVtZ-DiiYlucmotdx9wgCtkuewjxBixlpeEd7GHd7SVCUSO6JWBDdly1]--></g></svg>