<svg xmlns="http://www.w3.org/2000/svg" xmlns:xlink="http://www.w3.org/1999/xlink" contentStyleType="text/css" height="605px" preserveAspectRatio="none" style="width:432px;height:605px;background:#24273A;" version="1.1" viewBox="0 0 432 605" width="432px" zoomAndPan="magnify"><title>Applicative collapses, flatMap doesn't</title><defs/><g><rect fill="#24273A" height="605" style="stroke:none;stroke-width:1.0;" width="432" x="0" y="0"/><text fill="#CAD3F5" font-family="Helvetica" font-size="14" font-weight="bold" lengthAdjust="spacing" textLength="300.2617" x="62.335" y="27.9951">Applicative collapses, flatMap doesn't</text><line style="stroke:#B7BDF8;stroke-width:0.5;stroke-dasharray:5.0,5.0;" x1="37" x2="37" y1="71.2656" y2="572.7344"/><line style="stroke:#B7BDF8;stroke-width:0.5;stroke-dasharray:5.0,5.0;" x1="183.6475" x2="183.6475" y1="71.2656" y2="572.7344"/><line style="stroke:#B7BDF8;stroke-width:0.5;stroke-dasharray:5.0,5.0;" x1="313.6973" x2="313.6973" y1="71.2656" y2="572.7344"/><rect fill="#363A4F" height="27.9688" rx="1.5" ry="1.5" style="stroke:#B7BDF8;stroke-width:0.5;" width="65.1055" x="5" y="42.2969"/><text fill="#CAD3F5" font-family="Helvetica" font-size="12" lengthAdjust="spacing" textLength="51.1055" x="12" y="60.4355">Program</text><rect fill="#363A4F" height="27.9688" rx="1.5" ry="1.5" style="stroke:#B7BDF8;stroke-width:0.5;" width="65.1055" x="5" y="571.7344"/><text fill="#CAD3F5" font-family="Helvetica" font-size="12" lengthAdjust="spacing" textLength="51.1055" x="12" y="589.873">Program</text><rect fill="#363A4F" height="27.9688" rx="1.5" ry="1.5" style="stroke:#B7BDF8;stroke-width:0.5;" width="57.4707" x="155.6475" y="42.2969"/><text fill="#CAD3F5" font-family="Helvetica" font-size="12" lengthAdjust="spacing" textLength="43.4707" x="162.6475" y="60.4355">Runner</text><rect fill="#363A4F" height="27.9688" rx="1.5" ry="1.5" style="stroke:#B7BDF8;stroke-width:0.5;" width="57.4707" x="155.6475" y="571.7344"/><text fill="#CAD3F5" font-family="Helvetica" font-size="12" lengthAdjust="spacing" textLength="43.4707" x="162.6475" y="589.873">Runner</text><rect fill="#363A4F" height="27.9688" rx="1.5" ry="1.5" style="stroke:#B7BDF8;stroke-width:0.5;" width="65.7383" x="281.6973" y="42.2969"/><text fill="#CAD3F5" font-family="Helvetica" font-size="12" lengthAdjust="spacing" textLength="51.7383" x="288.6973" y="60.4355">Backend</text><rect fill="#363A4F" height="27.9688" rx="1.5" ry="1.5" style="stroke:#B7BDF8;stroke-width:0.5;" width="65.7383" x="281.6973" y="571.7344"/><text fill="#CAD3F5" font-family="Helvetica" font-size="12" lengthAdjust="spacing" textLength="51.7383" x="288.6973" y="589.873">Backend</text><rect fill="#363A4F" height="3" rx="1.5" ry="1.5" style="stroke:#363A4F;stroke-width:1.0;" width="425.9316" x="0" y="101.25"/><line style="stroke:#CAD3F5;stroke-width:1.0;" x1="0" x2="425.9316" y1="101.25" y2="101.25"/><line style="stroke:#CAD3F5;stroke-width:1.0;" x1="0" x2="425.9316" y1="104.25" y2="104.25"/><rect fill="#363A4F" height="21.9688" rx="1.5" ry="1.5" style="stroke:#CAD3F5;stroke-width:2.0;" width="243.4355" x="91.248" y="91.2656"/><text fill="#CAD3F5" font-family="Helvetica" font-size="12" font-weight="bold" lengthAdjust="spacing" textLength="225.2578" x="97.248" y="106.4043">Pure applicative (N foci, 1 round)</text><polygon fill="#F5BDE6" points="172.3828,153.1719,182.3828,157.1719,172.3828,161.1719,176.3828,157.1719" style="stroke:#F5BDE6;stroke-width:1.0;"/><line style="stroke:#F5BDE6;stroke-width:1.0;" x1="37.5527" x2="178.3828" y1="157.1719" y2="157.1719"/><text fill="#CAD3F5" font-family="Helvetica" font-size="12" lengthAdjust="spacing" textLength="101.3379" x="44.5527" y="138.373">ap(ap(f, fetch a),</text><text fill="#CAD3F5" font-family="Helvetica" font-size="12" lengthAdjust="spacing" textLength="99.8672" x="63.625" y="152.3418">fetch b), fetch c)</text><polygon fill="#F5BDE6" points="302.5664,181.1406,312.5664,185.1406,302.5664,189.1406,306.5664,185.1406" style="stroke:#F5BDE6;stroke-width:1.0;"/><line style="stroke:#F5BDE6;stroke-width:1.0;" x1="184.3828" x2="308.5664" y1="185.1406" y2="185.1406"/><text fill="#CAD3F5" font-family="Helvetica" font-size="12" lengthAdjust="spacing" textLength="59.7246" x="191.3828" y="180.3105">{ a, b, c }</text><polygon fill="#F5BDE6" points="195.3828,209.1094,185.3828,213.1094,195.3828,217.1094,191.3828,213.1094" style="stroke:#F5BDE6;stroke-width:1.0;"/><line style="stroke:#F5BDE6;stroke-width:1.0;stroke-dasharray:2.0,2.0;" x1="189.3828" x2="313.5664" y1="213.1094" y2="213.1094"/><text fill="#CAD3F5" font-family="Helvetica" font-size="12" lengthAdjust="spacing" textLength="106.1836" x="201.3828" y="208.2793">{ a:..., b:..., c:... }</text><polygon fill="#F5BDE6" points="48.5527,237.0781,38.5527,241.0781,48.5527,245.0781,44.5527,241.0781" style="stroke:#F5BDE6;stroke-width:1.0;"/><line style="stroke:#F5BDE6;stroke-width:1.0;stroke-dasharray:2.0,2.0;" x1="42.5527" x2="183.3828" y1="241.0781" y2="241.0781"/><text fill="#CAD3F5" font-family="Helvetica" font-size="12" lengthAdjust="spacing" textLength="32.7773" x="54.5527" y="236.248">value</text><rect fill="#363A4F" height="3" rx="1.5" ry="1.5" style="stroke:#363A4F;stroke-width:1.0;" width="425.9316" x="0" y="269.0625"/><line style="stroke:#CAD3F5;stroke-width:1.0;" x1="0" x2="425.9316" y1="269.0625" y2="269.0625"/><line style="stroke:#CAD3F5;stroke-width:1.0;" x1="0" x2="425.9316" y1="272.0625" y2="272.0625"/><rect fill="#363A4F" height="21.9688" rx="1.5" ry="1.5" style="stroke:#CAD3F5;stroke-width:2.0;" width="271.6016" x="77.165" y="259.0781"/><text fill="#CAD3F5" font-family="Helvetica" font-size="12" font-weight="bold" lengthAdjust="spacing" textLength="253.4238" x="83.165" y="274.2168">flatMap dependency chain (3 rounds)</text><polygon fill="#F5BDE6" points="172.3828,320.9844,182.3828,324.9844,172.3828,328.9844,176.3828,324.9844" style="stroke:#F5BDE6;stroke-width:1.0;"/><line style="stroke:#F5BDE6;stroke-width:1.0;" x1="37.5527" x2="178.3828" y1="324.9844" y2="324.9844"/><text fill="#CAD3F5" font-family="Helvetica" font-size="12" lengthAdjust="spacing" textLength="100.6699" x="44.5527" y="306.1855">fetch(a).flatMap(</text><text fill="#CAD3F5" font-family="Helvetica" font-size="12" lengthAdjust="spacing" textLength="111.3867" x="55.9961" y="320.1543">x -&gt; fetch(x.next))</text><polygon fill="#F5BDE6" points="302.5664,348.9531,312.5664,352.9531,302.5664,356.9531,306.5664,352.9531" style="stroke:#F5BDE6;stroke-width:1.0;"/><line style="stroke:#F5BDE6;stroke-width:1.0;" x1="184.3828" x2="308.5664" y1="352.9531" y2="352.9531"/><text fill="#CAD3F5" font-family="Helvetica" font-size="12" lengthAdjust="spacing" textLength="30.252" x="191.3828" y="348.123">{ a }</text><polygon fill="#F5BDE6" points="195.3828,376.9219,185.3828,380.9219,195.3828,384.9219,191.3828,380.9219" style="stroke:#F5BDE6;stroke-width:1.0;"/><line style="stroke:#F5BDE6;stroke-width:1.0;stroke-dasharray:2.0,2.0;" x1="189.3828" x2="313.5664" y1="380.9219" y2="380.9219"/><text fill="#CAD3F5" font-family="Helvetica" font-size="12" lengthAdjust="spacing" textLength="45.7383" x="201.3828" y="376.0918">{ a:... }</text><path d="M189,395.4219 L189,415.4219 A1.5,1.5 0 0 0 190.5,416.9219 L418.5,416.9219 A1.5,1.5 0 0 0 420,415.4219 L420,403.9219 L410,393.9219 L190.5,393.9219 A1.5,1.5 0 0 0 189,395.4219 " fill="#EED49F" style="stroke:#24273A;stroke-width:0.5;"/><path d="M410,393.9219 L410,403.1719 A0.75,0.75 0 0 0 410.75,403.9219 L420,403.9219 L410,393.9219 " fill="#EED49F" style="stroke:#24273A;stroke-width:0.5;"/><text fill="#24273A" font-family="Helvetica" font-size="12" lengthAdjust="spacing" textLength="210.9316" x="195" y="410.0605">Now we know what to ask for next.</text><polygon fill="#F5BDE6" points="302.5664,438.8594,312.5664,442.8594,302.5664,446.8594,306.5664,442.8594" style="stroke:#F5BDE6;stroke-width:1.0;"/><line style="stroke:#F5BDE6;stroke-width:1.0;" x1="184.3828" x2="308.5664" y1="442.8594" y2="442.8594"/><text fill="#CAD3F5" font-family="Helvetica" font-size="12" lengthAdjust="spacing" textLength="60.8613" x="191.3828" y="438.0293">{ a.next }</text><polygon fill="#F5BDE6" points="195.3828,466.8281,185.3828,470.8281,195.3828,474.8281,191.3828,470.8281" style="stroke:#F5BDE6;stroke-width:1.0;"/><line style="stroke:#F5BDE6;stroke-width:1.0;stroke-dasharray:2.0,2.0;" x1="189.3828" x2="313.5664" y1="470.8281" y2="470.8281"/><text fill="#CAD3F5" font-family="Helvetica" font-size="12" lengthAdjust="spacing" textLength="76.3477" x="201.3828" y="465.998">{ a.next:... }</text><polygon fill="#F5BDE6" points="302.5664,494.7969,312.5664,498.7969,302.5664,502.7969,306.5664,498.7969" style="stroke:#F5BDE6;stroke-width:1.0;"/><line style="stroke:#F5BDE6;stroke-width:1.0;" x1="184.3828" x2="308.5664" y1="498.7969" y2="498.7969"/><text fill="#CAD3F5" font-family="Helvetica" font-size="12" lengthAdjust="spacing" textLength="91.4707" x="191.3828" y="493.9668">{ a.next.next }</text><polygon fill="#F5BDE6" points="195.3828,522.7656,185.3828,526.7656,195.3828,530.7656,191.3828,526.7656" style="stroke:#F5BDE6;stroke-width:1.0;"/><line style="stroke:#F5BDE6;stroke-width:1.0;stroke-dasharray:2.0,2.0;" x1="189.3828" x2="313.5664" y1="526.7656" y2="526.7656"/><text fill="#CAD3F5" font-family="Helvetica" font-size="12" lengthAdjust="spacing" textLength="34.3418" x="201.3828" y="521.9355">{ ... }</text><polygon fill="#F5BDE6" points="48.5527,550.7344,38.5527,554.7344,48.5527,558.7344,44.5527,554.7344" style="stroke:#F5BDE6;stroke-width:1.0;"/><line style="stroke:#F5BDE6;stroke-width:1.0;stroke-dasharray:2.0,2.0;" x1="42.5527" x2="183.3828" y1="554.7344" y2="554.7344"/><text fill="#CAD3F5" font-family="Helvetica" font-size="12" lengthAdjust="spacing" textLength="32.7773" x="54.5527" y="549.9043">value</text><!--SRC=[RP11Rzim38Nl-XLSBxC1MyRGMu0KMEuh39ztOHWc5Y9BWamrAOh-zyfAryr330EK-VYep- -RSMJJWM4K2VEcwo9UzCd8cFPfvaZU2JlHvAVEaPy5MqCTeOIGY8nh9oGQ3OflWqKdQRAjZ3nnDw5nNJdgaBjAYH7By3C4QxBVl32GjnR3p7C3Hulo2mCSFC_kkoWLC8eX4_9EUEYZFqMS7W1dwDVIa9pZM9HXhUoGpkmEHTefjTr2do83_WDGFSFHasdW1qIVtA66xLRrq3x109iyMUNtcE5OQ0IiczyEbkVslQ__A5IhOJ7jikaDi85z0mJlQWVjvwhStMYjit8hj9GyCPI9Fa-ye4rSAB-Yu93nsT4hq9Z3XEhnHZclCGj3XRN-D5Q5yhh8D-cg7L-bNaFUmyizvuKXcjCeu8yvKO1dVu4BmzajTKG1yJdHSmukmh9Ngqm9Ys-rlzpv_oMb-VVNryFt7FTJ-W00]--></g></svg>