<svg xmlns="http://www.w3.org/2000/svg" xmlns:xlink="http://www.w3.org/1999/xlink" contentStyleType="text/css" data-diagram-type="CLASS" height="1079px" preserveAspectRatio="none" style="width:1286px;height:1079px;background:#24273A;" version="1.1" viewBox="0 0 1286 1079" width="1286px" zoomAndPan="magnify"><defs/><g><rect fill="#24273A" height="1079" style="stroke:none;stroke-width:1;" width="1286" x="0" y="0"/><g class="entity" data-entity="ArityNote" data-source-line="5" data-uid="ent0002" id="entity_ArityNote"><path d="M162.89,75.446 L162.89,115.1343 A1.5,1.5 0 0 0 164.39,116.6343 L473.5241,116.6343 A1.5,1.5 0 0 0 475.0241,115.1343 L475.0241,83.946 L465.0241,73.946 L164.39,73.946 A1.5,1.5 0 0 0 162.89,75.446" fill="#EED49F" style="stroke:#24273A;stroke-width:0.5;"/><path d="M465.0241,73.946 L465.0241,83.196 A0.75,0.75 0 0 0 465.7741,83.946 L475.0241,83.946 L465.0241,73.946" fill="#EED49F" style="stroke:#24273A;stroke-width:1;"/><text fill="#24273A" font-family="Helvetica" font-size="12" lengthAdjust="spacing" textLength="231.7216" x="168.89" y="91.7741">F extends WitnessArity&lt;TypeArity.Unary&gt;</text><text fill="#24273A" font-family="Helvetica" font-size="12" lengthAdjust="spacing" textLength="291.1341" x="168.89" y="108.1182">Witness&lt;F,L&gt; also implements WitnessArity&lt;Unary&gt;</text></g><!--class Kind--><g class="entity" data-entity="Kind" data-source-line="7" data-uid="ent0003" id="entity_Kind"><rect fill="#24273A" height="31.792" rx="1.5" ry="1.5" style="stroke:#C6A0F6;stroke-width:2;" width="137.8886" x="515.01" y="774.996"/><rect fill="#363A4F" height="31.792" rx="1.5" ry="1.5" style="stroke:#363A4F;stroke-width:2;" width="137.8886" x="515.01" y="774.996"/><rect fill="#363A4F" height="1.5" style="stroke:#363A4F;stroke-width:2;" width="137.8886" x="515.01" y="805.2881"/><rect fill="none" height="31.792" rx="1.5" ry="1.5" style="stroke:#C6A0F6;stroke-width:2;" width="137.8886" x="515.01" y="774.996"/><ellipse cx="529.01" cy="790.892" fill="#B4A7E5" rx="10" ry="10" style="stroke:#181818;stroke-width:1;"/><path d="M526.5881,795.392 L526.5881,794.1889 L528.26,794.0014 L528.26,788.2202 L526.5881,788.017 L526.5881,786.8295 L531.635,786.8295 L531.635,788.017 L529.9319,788.2202 L529.9319,794.0014 L531.635,794.1889 L531.635,795.392 L526.5881,795.392 Z " fill="#CAD3F5"/><text fill="#A6DA95" font-family="Helvetica" font-size="16" font-style="italic" lengthAdjust="spacing" textLength="31.6481" x="542.01" y="797.1001">Kind</text><rect fill="#24273A" height="18.3441" style="stroke:#C6A0F6;stroke-width:1;stroke-dasharray:2,2;" width="74.2405" x="581.6581" y="771.996"/><text fill="#CAD3F5" font-family="Helvetica" font-size="12" font-style="italic" lengthAdjust="spacing" textLength="72.2405" x="582.6581" y="785.8241">WITNESS, VAL</text></g><!--class Monad--><g class="entity" data-entity="Monad" data-source-line="10" data-uid="ent0004" id="entity_Monad"><rect fill="#24273A" height="56.1362" rx="1.5" ry="1.5" style="stroke:#C6A0F6;stroke-width:2;" width="329.9182" x="7" y="559.316"/><rect fill="#363A4F" height="31.792" rx="1.5" ry="1.5" style="stroke:#363A4F;stroke-width:2;" width="329.9182" x="7" y="559.316"/><rect fill="#363A4F" height="1.5" style="stroke:#363A4F;stroke-width:2;" width="329.9182" x="7" y="589.6081"/><rect fill="none" height="56.1362" rx="1.5" ry="1.5" style="stroke:#C6A0F6;stroke-width:2;" width="329.9182" x="7" y="559.316"/><ellipse cx="138.057" cy="575.212" fill="#B4A7E5" rx="10" ry="10" style="stroke:#181818;stroke-width:1;"/><path d="M135.6351,579.712 L135.6351,578.5089 L137.307,578.3214 L137.307,572.5402 L135.6351,572.337 L135.6351,571.1495 L140.682,571.1495 L140.682,572.337 L138.9789,572.5402 L138.9789,578.3214 L140.682,578.5089 L140.682,579.712 L135.6351,579.712 Z " fill="#CAD3F5"/><text fill="#A6DA95" font-family="Helvetica" font-size="16" font-style="italic" lengthAdjust="spacing" textLength="50.0801" x="157.057" y="581.4201">Monad</text><rect fill="#24273A" height="18.3441" style="stroke:#C6A0F6;stroke-width:1;stroke-dasharray:2,2;" width="7.724" x="332.1941" y="556.316"/><text fill="#CAD3F5" font-family="Helvetica" font-size="12" font-style="italic" lengthAdjust="spacing" textLength="5.724" x="333.1941" y="570.1441">F</text><line style="stroke:#C6A0F6;stroke-width:2;" x1="8" x2="335.9182" y1="591.1081" y2="591.1081"/><text fill="#A6DA95" font-family="Helvetica" font-size="12" lengthAdjust="spacing" textLength="317.9182" x="13" y="607.9362">flatMap(Function&lt;A, Kind&lt;F, B&gt;&gt;, Kind&lt;F, A&gt;): Kind&lt;F, B&gt;</text></g><!--class Applicative--><g class="entity" data-entity="Applicative" data-source-line="11" data-uid="ent0005" id="entity_Applicative"><rect fill="#24273A" height="31.792" rx="1.5" ry="1.5" style="stroke:#C6A0F6;stroke-width:2;" width="107.0081" x="60.46" y="314.946"/><rect fill="#363A4F" height="31.792" rx="1.5" ry="1.5" style="stroke:#363A4F;stroke-width:2;" width="107.0081" x="60.46" y="314.946"/><rect fill="#363A4F" height="1.5" style="stroke:#363A4F;stroke-width:2;" width="107.0081" x="60.46" y="345.2381"/><rect fill="none" height="31.792" rx="1.5" ry="1.5" style="stroke:#C6A0F6;stroke-width:2;" width="107.0081" x="60.46" y="314.946"/><ellipse cx="74.46" cy="330.842" fill="#B4A7E5" rx="10" ry="10" style="stroke:#181818;stroke-width:1;"/><path d="M72.0381,335.342 L72.0381,334.1389 L73.71,333.9514 L73.71,328.1702 L72.0381,327.967 L72.0381,326.7795 L77.085,326.7795 L77.085,327.967 L75.3819,328.1702 L75.3819,333.9514 L77.085,334.1389 L77.085,335.342 L72.0381,335.342 Z " fill="#CAD3F5"/><text fill="#A6DA95" font-family="Helvetica" font-size="16" font-style="italic" lengthAdjust="spacing" textLength="77.0081" x="87.46" y="337.0501">Applicative</text></g><!--class MonadError--><g class="entity" data-entity="MonadError" data-source-line="14" data-uid="ent0007" id="entity_MonadError"><rect fill="#24273A" height="72.4803" rx="1.5" ry="1.5" style="stroke:#C6A0F6;stroke-width:2;" width="378.9865" x="89.47" y="754.656"/><rect fill="#363A4F" height="31.792" rx="1.5" ry="1.5" style="stroke:#363A4F;stroke-width:2;" width="378.9865" x="89.47" y="754.656"/><rect fill="#363A4F" height="1.5" style="stroke:#363A4F;stroke-width:2;" width="378.9865" x="89.47" y="784.9481"/><rect fill="none" height="72.4803" rx="1.5" ry="1.5" style="stroke:#C6A0F6;stroke-width:2;" width="378.9865" x="89.47" y="754.656"/><ellipse cx="220.7131" cy="770.552" fill="#B4A7E5" rx="10" ry="10" style="stroke:#181818;stroke-width:1;"/><path d="M218.2912,775.052 L218.2912,773.8489 L219.9631,773.6614 L219.9631,767.8802 L218.2912,767.677 L218.2912,766.4895 L223.3381,766.4895 L223.3381,767.677 L221.635,767.8802 L221.635,773.6614 L223.3381,773.8489 L223.3381,775.052 L218.2912,775.052 Z " fill="#CAD3F5"/><text fill="#A6DA95" font-family="Helvetica" font-size="16" font-style="italic" lengthAdjust="spacing" textLength="86.4162" x="239.7131" y="776.7601">MonadError</text><rect fill="#24273A" height="18.3441" style="stroke:#C6A0F6;stroke-width:1;stroke-dasharray:2,2;" width="20.0841" x="451.3723" y="751.656"/><text fill="#CAD3F5" font-family="Helvetica" font-size="12" font-style="italic" lengthAdjust="spacing" textLength="18.0841" x="452.3723" y="765.4841">F, E</text><line style="stroke:#C6A0F6;stroke-width:2;" x1="90.47" x2="467.4565" y1="786.4481" y2="786.4481"/><text fill="#A6DA95" font-family="Helvetica" font-size="12" lengthAdjust="spacing" textLength="135.589" x="95.47" y="803.2762">raiseError(E): Kind&lt;F, A&gt;</text><text fill="#A6DA95" font-family="Helvetica" font-size="12" lengthAdjust="spacing" textLength="366.9865" x="95.47" y="819.6203">handleErrorWith(Kind&lt;F, A&gt;, Function&lt;E, Kind&lt;F, A&gt;&gt;): Kind&lt;F, A&gt;</text></g><!--class EitherT--><g class="entity" data-entity="EitherT" data-source-line="19" data-uid="ent0009" id="entity_EitherT"><rect fill="#24273A" height="178.545" rx="1.5" ry="1.5" style="stroke:#C6A0F6;stroke-width:2;" width="318.654" x="484.63" y="498.106"/><rect fill="#363A4F" height="31.792" rx="1.5" ry="1.5" style="stroke:#363A4F;stroke-width:2;" width="318.654" x="484.63" y="498.106"/><rect fill="#363A4F" height="1.5" style="stroke:#363A4F;stroke-width:2;" width="318.654" x="484.63" y="528.3981"/><rect fill="none" height="178.545" rx="1.5" ry="1.5" style="stroke:#C6A0F6;stroke-width:2;" width="318.654" x="484.63" y="498.106"/><ellipse cx="595.9888" cy="514.002" fill="#ADD1B2" rx="10" ry="10" style="stroke:#181818;stroke-width:1;"/><path d="M595.7076,518.627 Q594.4576,518.627 593.6607,518.1114 Q592.8638,517.5802 592.4732,516.627 Q592.0826,515.6739 592.0826,514.3927 Q592.0826,512.9708 592.5513,511.9552 Q593.0201,510.9239 593.9263,510.377 Q594.8326,509.8145 596.1451,509.8145 Q596.7701,509.8145 597.2388,509.9395 Q597.7232,510.0645 598.2076,510.2989 L597.6295,511.7364 Q597.192,511.502 596.8013,511.4239 Q596.4263,511.3458 596.0826,511.3458 Q595.2545,511.3458 594.7545,511.7208 Q594.2701,512.0802 594.0513,512.752 Q593.8482,513.4239 593.8482,514.3302 Q593.8482,515.7364 594.3482,516.4239 Q594.8638,517.0958 595.9888,517.0958 Q596.4107,517.0958 596.8482,516.9864 Q597.2857,516.877 597.8795,516.6114 L597.8795,518.1739 Q597.3638,518.4083 596.8013,518.5177 Q596.2388,518.627 595.7076,518.627 Z " fill="#CAD3F5"/><text fill="#A6DA95" font-family="Helvetica" font-size="16" lengthAdjust="spacing" textLength="53.2161" x="614.9888" y="520.2101">EitherT</text><rect fill="#24273A" height="18.3441" style="stroke:#C6A0F6;stroke-width:1;stroke-dasharray:2,2;" width="32.7202" x="773.5638" y="495.106"/><text fill="#CAD3F5" font-family="Helvetica" font-size="12" font-style="italic" lengthAdjust="spacing" textLength="30.7202" x="774.5638" y="508.9341">F, L, R</text><line style="stroke:#C6A0F6;stroke-width:2;" x1="485.63" x2="802.284" y1="529.8981" y2="529.8981"/><ellipse cx="495.63" cy="543.5701" fill="none" rx="3" ry="3" style="stroke:#038048;stroke-width:1;"/><text fill="#A6DA95" font-family="Helvetica" font-size="12" lengthAdjust="spacing" textLength="155.1131" x="503.63" y="546.7262">value: Kind&lt;F, Either&lt;L, R&gt;&gt;</text><line style="stroke:#C6A0F6;stroke-width:2;" x1="485.63" x2="802.284" y1="554.2422" y2="554.2422"/><ellipse cx="495.63" cy="567.9142" fill="#84BE84" rx="3" ry="3" style="stroke:#038048;stroke-width:1;"/><text fill="#A6DA95" font-family="Helvetica" font-size="12" lengthAdjust="spacing" textLength="165.7811" x="503.63" y="571.0703">EitherT(Kind&lt;F, Either&lt;L, R&gt;&gt;)</text><ellipse cx="495.63" cy="584.2584" fill="#84BE84" rx="3" ry="3" style="stroke:#038048;stroke-width:1;"/><text fill="#A6DA95" font-family="Helvetica" font-size="12" lengthAdjust="spacing" text-decoration="underline" textLength="271.3819" x="503.63" y="587.4144">fromKind(Kind&lt;F, Either&lt;L, R&gt;&gt;): EitherT&lt;F, L, R&gt;</text><ellipse cx="495.63" cy="600.6025" fill="#84BE84" rx="3" ry="3" style="stroke:#038048;stroke-width:1;"/><text fill="#A6DA95" font-family="Helvetica" font-size="12" lengthAdjust="spacing" text-decoration="underline" textLength="200.4374" x="503.63" y="603.7585">right(Monad&lt;F&gt;, R): EitherT&lt;F, L, R&gt;</text><ellipse cx="495.63" cy="616.9466" fill="#84BE84" rx="3" ry="3" style="stroke:#038048;stroke-width:1;"/><text fill="#A6DA95" font-family="Helvetica" font-size="12" lengthAdjust="spacing" text-decoration="underline" textLength="190.4053" x="503.63" y="620.1026">left(Monad&lt;F&gt;, L): EitherT&lt;F, L, R&gt;</text><ellipse cx="495.63" cy="633.2907" fill="#84BE84" rx="3" ry="3" style="stroke:#038048;stroke-width:1;"/><text fill="#A6DA95" font-family="Helvetica" font-size="12" lengthAdjust="spacing" text-decoration="underline" textLength="293.654" x="503.63" y="636.4467">fromEither(Monad&lt;F&gt;, Either&lt;L, R&gt;): EitherT&lt;F, L, R&gt;</text><ellipse cx="495.63" cy="649.6348" fill="#84BE84" rx="3" ry="3" style="stroke:#038048;stroke-width:1;"/><text fill="#A6DA95" font-family="Helvetica" font-size="12" lengthAdjust="spacing" text-decoration="underline" textLength="245.7497" x="503.63" y="652.7908">liftF(Monad&lt;F&gt;, Kind&lt;F, R&gt;): EitherT&lt;F, L, R&gt;</text><ellipse cx="495.63" cy="665.9789" fill="#84BE84" rx="3" ry="3" style="stroke:#038048;stroke-width:1;"/><text fill="#A6DA95" font-family="Helvetica" font-size="12" lengthAdjust="spacing" textLength="162.3131" x="503.63" y="669.135">value(): Kind&lt;F, Either&lt;L, R&gt;&gt;</text></g><!--class EitherTKind--><g class="entity" data-entity="EitherTKind" data-source-line="30" data-uid="ent0010" id="entity_EitherTKind"><rect fill="#24273A" height="64.3082" rx="1.5" ry="1.5" style="stroke:#C6A0F6;stroke-width:2;" width="145.6644" x="583.13" y="888.136"/><rect fill="#363A4F" height="31.792" rx="1.5" ry="1.5" style="stroke:#363A4F;stroke-width:2;" width="145.6644" x="583.13" y="888.136"/><rect fill="#363A4F" height="1.5" style="stroke:#363A4F;stroke-width:2;" width="145.6644" x="583.13" y="918.4281"/><rect fill="none" height="64.3082" rx="1.5" ry="1.5" style="stroke:#C6A0F6;stroke-width:2;" width="145.6644" x="583.13" y="888.136"/><ellipse cx="597.13" cy="904.032" fill="#B4A7E5" rx="10" ry="10" style="stroke:#181818;stroke-width:1;"/><path d="M594.7081,908.532 L594.7081,907.3289 L596.38,907.1414 L596.38,901.3602 L594.7081,901.157 L594.7081,899.9695 L599.755,899.9695 L599.755,901.157 L598.0519,901.3602 L598.0519,907.1414 L599.755,907.3289 L599.755,908.532 L594.7081,908.532 Z " fill="#CAD3F5"/><text fill="#A6DA95" font-family="Helvetica" font-size="16" font-style="italic" lengthAdjust="spacing" textLength="80.9442" x="610.13" y="910.2401">EitherTKind</text><rect fill="#24273A" height="18.3441" style="stroke:#C6A0F6;stroke-width:1;stroke-dasharray:2,2;" width="32.7202" x="699.0742" y="885.136"/><text fill="#CAD3F5" font-family="Helvetica" font-size="12" font-style="italic" lengthAdjust="spacing" textLength="30.7202" x="700.0742" y="898.9641">F, L, R</text><line style="stroke:#C6A0F6;stroke-width:2;" x1="584.13" x2="727.7944" y1="919.9281" y2="919.9281"/><line style="stroke:#C6A0F6;stroke-width:1;stroke-dasharray:1,2;" x1="584.13" x2="620.8319" y1="936.1001" y2="936.1001"/><text fill="#A6DA95" font-family="Helvetica" font-size="12" lengthAdjust="spacing" textLength="70.2605" x="620.8319" y="940.2562">witness type</text><line style="stroke:#C6A0F6;stroke-width:1;stroke-dasharray:1,2;" x1="691.0925" x2="727.7944" y1="936.1001" y2="936.1001"/></g><g class="entity" data-entity="GMN12" data-source-line="34" data-uid="ent0013" id="entity_GMN12"><path d="M480.04,1014.946 L480.04,1070.9784 A1.5,1.5 0 0 0 481.54,1072.4784 L830.3823,1072.4784 A1.5,1.5 0 0 0 831.8823,1070.9784 L831.8823,1023.446 L821.8823,1013.446 L659.96,1013.446 L655.96,952.676 L651.96,1013.446 L481.54,1013.446 A1.5,1.5 0 0 0 480.04,1014.946" fill="#EED49F" style="stroke:#24273A;stroke-width:0.5;"/><path d="M821.8823,1013.446 L821.8823,1022.696 A0.75,0.75 0 0 0 822.6323,1023.446 L831.8823,1023.446 L821.8823,1013.446" fill="#EED49F" style="stroke:#24273A;stroke-width:0.5;"/><text fill="#24273A" font-family="Helvetica" font-size="12" lengthAdjust="spacing" textLength="148.3211" x="486.04" y="1031.2741">F: Witness of outer monad</text><text fill="#24273A" font-family="Helvetica" font-size="12" lengthAdjust="spacing" textLength="145.5011" x="486.04" y="1047.6182">L: Left type of inner Either</text><text fill="#24273A" font-family="Helvetica" font-size="12" lengthAdjust="spacing" textLength="330.8423" x="486.04" y="1063.9623">R: Right type of inner Either (the value type A in Kind&lt;G,A&gt;)</text></g><!--class EitherTKindHelper--><g class="entity" data-entity="EitherTKindHelper" data-source-line="41" data-uid="ent0016" id="entity_EitherTKindHelper"><rect fill="#24273A" height="145.8567" rx="1.5" ry="1.5" style="stroke:#C6A0F6;stroke-width:2;" width="437.7908" x="838.06" y="514.456"/><rect fill="#363A4F" height="31.792" rx="1.5" ry="1.5" style="stroke:#363A4F;stroke-width:2;" width="437.7908" x="838.06" y="514.456"/><rect fill="#363A4F" height="1.5" style="stroke:#363A4F;stroke-width:2;" width="437.7908" x="838.06" y="544.7481"/><rect fill="none" height="145.8567" rx="1.5" ry="1.5" style="stroke:#C6A0F6;stroke-width:2;" width="437.7908" x="838.06" y="514.456"/><ellipse cx="973.4012" cy="530.352" fill="#ADD1B2" rx="10" ry="10" style="stroke:#181818;stroke-width:1;"/><path d="M973.1199,534.977 Q971.8699,534.977 971.0731,534.4614 Q970.2762,533.9302 969.8856,532.977 Q969.4949,532.0239 969.4949,530.7427 Q969.4949,529.3208 969.9637,528.3052 Q970.4324,527.2739 971.3387,526.727 Q972.2449,526.1645 973.5574,526.1645 Q974.1824,526.1645 974.6512,526.2895 Q975.1356,526.4145 975.6199,526.6489 L975.0418,528.0864 Q974.6043,527.852 974.2137,527.7739 Q973.8387,527.6958 973.4949,527.6958 Q972.6668,527.6958 972.1668,528.0708 Q971.6824,528.4302 971.4637,529.102 Q971.2606,529.7739 971.2606,530.6802 Q971.2606,532.0864 971.7606,532.7739 Q972.2762,533.4458 973.4012,533.4458 Q973.8231,533.4458 974.2606,533.3364 Q974.6981,533.227 975.2918,532.9614 L975.2918,534.5239 Q974.7762,534.7583 974.2137,534.8677 Q973.6512,534.977 973.1199,534.977 Z " fill="#CAD3F5"/><text fill="#A6DA95" font-family="Helvetica" font-size="16" lengthAdjust="spacing" textLength="137.4563" x="992.4012" y="536.5601">EitherTKindHelper</text><rect fill="#24273A" height="18.3441" style="stroke:#C6A0F6;stroke-width:1;stroke-dasharray:2,2;" width="19.6521" x="1259.1986" y="511.456"/><text fill="#CAD3F5" font-family="Helvetica" font-size="12" font-style="italic" lengthAdjust="spacing" textLength="17.6521" x="1260.1986" y="525.2841">F, L</text><line style="stroke:#C6A0F6;stroke-width:2;" x1="839.06" x2="1274.8508" y1="546.2481" y2="546.2481"/><ellipse cx="849.06" cy="559.9201" fill="none" rx="3" ry="3" style="stroke:#038048;stroke-width:1;"/><text fill="#A6DA95" font-family="Helvetica" font-size="12" lengthAdjust="spacing" text-decoration="underline" textLength="189.3133" x="857.06" y="563.0762">INVALID_KIND_NULL_MSG: String</text><ellipse cx="849.06" cy="576.2642" fill="none" rx="3" ry="3" style="stroke:#038048;stroke-width:1;"/><text fill="#A6DA95" font-family="Helvetica" font-size="12" lengthAdjust="spacing" text-decoration="underline" textLength="186.2413" x="857.06" y="579.4203">INVALID_KIND_TYPE_MSG: String</text><ellipse cx="849.06" cy="592.6084" fill="none" rx="3" ry="3" style="stroke:#038048;stroke-width:1;"/><text fill="#A6DA95" font-family="Helvetica" font-size="12" lengthAdjust="spacing" text-decoration="underline" textLength="211.1895" x="857.06" y="595.7644">INVALID_HOLDER_STATE_MSG: String</text><line style="stroke:#C6A0F6;stroke-width:2;" x1="839.06" x2="1274.8508" y1="603.2804" y2="603.2804"/><rect fill="#F24D5C" height="6" style="stroke:#C82930;stroke-width:1;" width="6" x="846.06" y="613.9525"/><text fill="#A6DA95" font-family="Helvetica" font-size="12" lengthAdjust="spacing" textLength="110.2928" x="857.06" y="620.1085">EitherTKindHelper()</text><ellipse cx="849.06" cy="633.2966" fill="#84BE84" rx="3" ry="3" style="stroke:#038048;stroke-width:1;"/><text fill="#A6DA95" font-family="Helvetica" font-size="12" lengthAdjust="spacing" text-decoration="underline" textLength="412.7908" x="857.06" y="636.4526">narrow(Kind&lt;EitherTKind.Witness&lt;F_IN, L_IN&gt;, R&gt;): EitherT&lt;F_IN, L_IN, R&gt;</text><ellipse cx="849.06" cy="649.6407" fill="#84BE84" rx="3" ry="3" style="stroke:#038048;stroke-width:1;"/><text fill="#A6DA95" font-family="Helvetica" font-size="12" lengthAdjust="spacing" text-decoration="underline" textLength="319.5981" x="857.06" y="652.7967">widen(EitherT&lt;F_IN, L_IN, R&gt;): EitherTKind&lt;F_IN, L_IN, R&gt;</text></g><!--class EitherTMonad--><g class="entity" data-entity="EitherTMonad" data-source-line="50" data-uid="ent0017" id="entity_EitherTMonad"><rect fill="#24273A" height="178.545" rx="1.5" ry="1.5" style="stroke:#C6A0F6;stroke-width:2;" width="856.3657" x="206.78" y="241.566"/><rect fill="#363A4F" height="31.792" rx="1.5" ry="1.5" style="stroke:#363A4F;stroke-width:2;" width="856.3657" x="206.78" y="241.566"/><rect fill="#363A4F" height="1.5" style="stroke:#363A4F;stroke-width:2;" width="856.3657" x="206.78" y="271.8581"/><rect fill="none" height="178.545" rx="1.5" ry="1.5" style="stroke:#C6A0F6;stroke-width:2;" width="856.3657" x="206.78" y="241.566"/><ellipse cx="567.0807" cy="257.462" fill="#ADD1B2" rx="10" ry="10" style="stroke:#181818;stroke-width:1;"/><path d="M566.7994,262.087 Q565.5494,262.087 564.7526,261.5714 Q563.9557,261.0402 563.5651,260.087 Q563.1744,259.1339 563.1744,257.8527 Q563.1744,256.4308 563.6432,255.4152 Q564.1119,254.3839 565.0182,253.837 Q565.9244,253.2745 567.2369,253.2745 Q567.8619,253.2745 568.3307,253.3995 Q568.8151,253.5245 569.2994,253.7589 L568.7213,255.1964 Q568.2838,254.962 567.8932,254.8839 Q567.5182,254.8058 567.1744,254.8058 Q566.3463,254.8058 565.8463,255.1808 Q565.3619,255.5402 565.1432,256.212 Q564.9401,256.8839 564.9401,257.7902 Q564.9401,259.1964 565.4401,259.8839 Q565.9557,260.5558 567.0807,260.5558 Q567.5026,260.5558 567.9401,260.4464 Q568.3776,260.337 568.9713,260.0714 L568.9713,261.6339 Q568.4557,261.8683 567.8932,261.9777 Q567.3307,262.087 566.7994,262.087 Z " fill="#CAD3F5"/><text fill="#A6DA95" font-family="Helvetica" font-size="16" lengthAdjust="spacing" textLength="106.1122" x="586.0807" y="263.6701">EitherTMonad</text><rect fill="#24273A" height="18.3441" style="stroke:#C6A0F6;stroke-width:1;stroke-dasharray:2,2;" width="19.6521" x="1046.4936" y="238.566"/><text fill="#CAD3F5" font-family="Helvetica" font-size="12" font-style="italic" lengthAdjust="spacing" textLength="17.6521" x="1047.4936" y="252.3941">F, L</text><line style="stroke:#C6A0F6;stroke-width:2;" x1="207.78" x2="1062.1457" y1="273.3581" y2="273.3581"/><rect fill="none" height="6" style="stroke:#C82930;stroke-width:1;" width="6" x="214.78" y="284.0301"/><text fill="#A6DA95" font-family="Helvetica" font-size="12" lengthAdjust="spacing" textLength="136.3689" x="225.78" y="290.1862">outerMonad: Monad&lt;F&gt;</text><line style="stroke:#C6A0F6;stroke-width:2;" x1="207.78" x2="1062.1457" y1="297.7022" y2="297.7022"/><ellipse cx="217.78" cy="311.3742" fill="#84BE84" rx="3" ry="3" style="stroke:#038048;stroke-width:1;"/><text fill="#A6DA95" font-family="Helvetica" font-size="12" lengthAdjust="spacing" textLength="146.413" x="225.78" y="314.5303">EitherTMonad(Monad&lt;F&gt;)</text><ellipse cx="217.78" cy="327.7184" fill="#84BE84" rx="3" ry="3" style="stroke:#038048;stroke-width:1;"/><text fill="#A6DA95" font-family="Helvetica" font-size="12" lengthAdjust="spacing" textLength="230.5336" x="225.78" y="330.8744">of(R): Kind&lt;EitherTKind.Witness&lt;F, L&gt;, R&gt;</text><ellipse cx="217.78" cy="344.0625" fill="#84BE84" rx="3" ry="3" style="stroke:#038048;stroke-width:1;"/><text fill="#A6DA95" font-family="Helvetica" font-size="12" lengthAdjust="spacing" textLength="622.7323" x="225.78" y="347.2185">map(Function&lt;R_IN, R_OUT&gt;, Kind&lt;EitherTKind.Witness&lt;F, L&gt;, R_IN&gt;): Kind&lt;EitherTKind.Witness&lt;F, L&gt;, R_OUT&gt;</text><ellipse cx="217.78" cy="360.4066" fill="#84BE84" rx="3" ry="3" style="stroke:#038048;stroke-width:1;"/><text fill="#A6DA95" font-family="Helvetica" font-size="12" lengthAdjust="spacing" textLength="802.1935" x="225.78" y="363.5626">ap(Kind&lt;EitherTKind.Witness&lt;F, L&gt;, Function&lt;R_IN, R_OUT&gt;&gt;, Kind&lt;EitherTKind.Witness&lt;F, L&gt;, R_IN&gt;): Kind&lt;EitherTKind.Witness&lt;F, L&gt;, R_OUT&gt;</text><ellipse cx="217.78" cy="376.7507" fill="#84BE84" rx="3" ry="3" style="stroke:#038048;stroke-width:1;"/><text fill="#A6DA95" font-family="Helvetica" font-size="12" lengthAdjust="spacing" textLength="831.3657" x="225.78" y="379.9067">flatMap(Function&lt;R_IN, Kind&lt;EitherTKind.Witness&lt;F, L&gt;, R_OUT&gt;&gt;, Kind&lt;EitherTKind.Witness&lt;F, L&gt;, R_IN&gt;): Kind&lt;EitherTKind.Witness&lt;F, L&gt;, R_OUT&gt;</text><ellipse cx="217.78" cy="393.0948" fill="#84BE84" rx="3" ry="3" style="stroke:#038048;stroke-width:1;"/><text fill="#A6DA95" font-family="Helvetica" font-size="12" lengthAdjust="spacing" textLength="274.0699" x="225.78" y="396.2508">raiseError(L): Kind&lt;EitherTKind.Witness&lt;F, L&gt;, R&gt;</text><ellipse cx="217.78" cy="409.4389" fill="#84BE84" rx="3" ry="3" style="stroke:#038048;stroke-width:1;"/><text fill="#A6DA95" font-family="Helvetica" font-size="12" lengthAdjust="spacing" textLength="783.1974" x="225.78" y="412.595">handleErrorWith(Kind&lt;EitherTKind.Witness&lt;F, L&gt;, R&gt;, Function&lt;L, Kind&lt;EitherTKind.Witness&lt;F, L&gt;, R&gt;&gt;): Kind&lt;EitherTKind.Witness&lt;F, L&gt;, R&gt;</text></g><g class="entity" data-entity="GMN19" data-source-line="61" data-uid="ent0020" id="entity_GMN19"><path d="M509.68,75.446 L509.68,115.1343 A1.5,1.5 0 0 0 511.18,116.6343 L630.96,116.6343 L634.96,241.066 L638.96,116.6343 L758.7297,116.6343 A1.5,1.5 0 0 0 760.2297,115.1343 L760.2297,83.946 L750.2297,73.946 L511.18,73.946 A1.5,1.5 0 0 0 509.68,75.446" fill="#EED49F" style="stroke:#24273A;stroke-width:0.5;"/><path d="M750.2297,73.946 L750.2297,83.196 A0.75,0.75 0 0 0 750.9797,83.946 L760.2297,83.946 L750.2297,73.946" fill="#EED49F" style="stroke:#24273A;stroke-width:0.5;"/><text fill="#24273A" font-family="Helvetica" font-size="12" lengthAdjust="spacing" textLength="148.3211" x="515.68" y="91.7741">F: Witness of outer monad</text><text fill="#24273A" font-family="Helvetica" font-size="12" lengthAdjust="spacing" textLength="229.5497" x="515.68" y="108.1182">L: Left type (Error type E for MonadError)</text></g><!--class Either--><g class="entity" data-entity="Either" data-source-line="71" data-uid="ent0025" id="entity_Either"><rect fill="#24273A" height="170.545" rx="1.5" ry="1.5" style="stroke:#C6A0F6;stroke-width:2;" width="286.8738" x="795.52" y="10.016"/><rect fill="#363A4F" height="31.792" rx="1.5" ry="1.5" style="stroke:#363A4F;stroke-width:2;" width="286.8738" x="795.52" y="10.016"/><rect fill="#363A4F" height="1.5" style="stroke:#363A4F;stroke-width:2;" width="286.8738" x="795.52" y="40.3081"/><rect fill="none" height="170.545" rx="1.5" ry="1.5" style="stroke:#C6A0F6;stroke-width:2;" width="286.8738" x="795.52" y="10.016"/><ellipse cx="904.4748" cy="25.912" fill="#B4A7E5" rx="10" ry="10" style="stroke:#181818;stroke-width:1;"/><path d="M902.053,30.412 L902.053,29.2089 L903.7248,29.0214 L903.7248,23.2402 L902.053,23.037 L902.053,21.8495 L907.0998,21.8495 L907.0998,23.037 L905.3967,23.2402 L905.3967,29.0214 L907.0998,29.2089 L907.0998,30.412 L902.053,30.412 Z " fill="#CAD3F5"/><text fill="#A6DA95" font-family="Helvetica" font-size="16" font-style="italic" lengthAdjust="spacing" textLength="41.2801" x="923.4748" y="32.1201">Either</text><rect fill="#24273A" height="18.3441" style="stroke:#C6A0F6;stroke-width:1;stroke-dasharray:2,2;" width="17.6841" x="1067.7097" y="7.016"/><text fill="#CAD3F5" font-family="Helvetica" font-size="12" font-style="italic" lengthAdjust="spacing" textLength="15.6841" x="1068.7097" y="20.8441">L,R</text><line style="stroke:#C6A0F6;stroke-width:2;" x1="796.52" x2="1081.3938" y1="41.8081" y2="41.8081"/><text fill="#A6DA95" font-family="Helvetica" font-size="12" lengthAdjust="spacing" textLength="89.8086" x="801.52" y="58.6362">isLeft(): boolean</text><text fill="#A6DA95" font-family="Helvetica" font-size="12" lengthAdjust="spacing" textLength="97.9807" x="801.52" y="74.9803">isRight(): boolean</text><text fill="#A6DA95" font-family="Helvetica" font-size="12" lengthAdjust="spacing" textLength="59.8204" x="801.52" y="91.3244">getLeft(): L</text><text fill="#A6DA95" font-family="Helvetica" font-size="12" lengthAdjust="spacing" textLength="69.1685" x="801.52" y="107.6685">getRight(): R</text><text fill="#A6DA95" font-family="Helvetica" font-size="12" lengthAdjust="spacing" textLength="200.4493" x="801.52" y="124.0126">map(Function&lt;R, R2&gt;): Either&lt;L,R2&gt;</text><text fill="#A6DA95" font-family="Helvetica" font-size="12" lengthAdjust="spacing" textLength="274.8738" x="801.52" y="140.3567">flatMap(Function&lt;R, Either&lt;L,R2&gt;&gt;): Either&lt;L,R2&gt;</text><text fill="#A6DA95" font-family="Helvetica" font-size="12" lengthAdjust="spacing" text-decoration="underline" textLength="102.0847" x="801.52" y="156.7008">left(L): Either&lt;L,R&gt;</text><text fill="#A6DA95" font-family="Helvetica" font-size="12" lengthAdjust="spacing" text-decoration="underline" textLength="112.1168" x="801.52" y="173.045">right(R): Either&lt;L,R&gt;</text></g><!--reverse link Applicative to Monad--><g class="link" data-entity-1="Applicative" data-entity-2="Monad" data-source-line="11" data-uid="lnk6" id="link_Applicative_Monad"><path d="M117.9266,364.9627 C121.0266,390.2927 125.89,424.686 135.96,468.106 C143.28,499.686 154.49,535.156 162.45,558.946" fill="none" id="Applicative-backto-Monad" style="stroke:#F5BDE6;stroke-width:1;"/><polygon fill="none" points="115.74,347.096,111.971,365.6916,123.8822,364.2338,115.74,347.096" style="stroke:#F5BDE6;stroke-width:1;"/></g><!--reverse link Monad to MonadError--><g class="link" data-entity-1="Monad" data-entity-2="MonadError" data-source-line="15" data-uid="lnk8" id="link_Monad_MonadError"><path d="M194.8291,631.4551 C213.8791,667.3451 239.03,714.696 260.08,754.346" fill="none" id="Monad-backto-MonadError" style="stroke:#F5BDE6;stroke-width:1;"/><polygon fill="none" points="186.39,615.556,189.5294,634.2682,200.1288,628.6421,186.39,615.556" style="stroke:#F5BDE6;stroke-width:1;"/></g><!--reverse link Kind to EitherTKind--><g class="link" data-entity-1="Kind" data-entity-2="EitherTKind" data-source-line="31" data-uid="lnk11" id="link_Kind_EitherTKind"><path d="M601.4973,822.936 C612.7173,842.786 623.67,862.166 638.15,887.786" fill="none" id="Kind-backto-EitherTKind" style="stroke:#F5BDE6;stroke-width:1;"/><polygon fill="none" points="592.64,807.266,596.274,825.8884,606.7206,819.9836,592.64,807.266" style="stroke:#F5BDE6;stroke-width:1;"/></g><!--link EitherT to EitherTKind--><g class="link" data-entity-1="EitherT" data-entity-2="EitherTKind" data-source-line="39" data-uid="lnk15" id="link_EitherT_EitherTKind"><path codeLine="39" d="M696.91,676.946 C700.99,686.716 704.48,696.726 706.96,706.656 C723.01,770.926 701.4239,830.2238 681.0039,871.7438" fill="none" id="EitherT-to-EitherTKind" style="stroke:#F5BDE6;stroke-width:1;stroke-dasharray:7,7;"/><polygon fill="none" points="673.06,887.896,686.3879,874.3917,675.6198,869.0958,673.06,887.896" style="stroke:#F5BDE6;stroke-width:1;"/><text fill="#CAD3F5" font-family="Helvetica" font-size="12" lengthAdjust="spacing" textLength="67.0445" x="712.36" y="795.7241">implements</text></g><!--reverse link MonadError to EitherTMonad--><g class="link" data-entity-1="MonadError" data-entity-2="EitherTMonad" data-source-line="51" data-uid="lnk18" id="link_MonadError_EitherTMonad"><path d="M312.7808,739.3433 C327.6208,717.1033 337.04,702.786 353.96,676.656 C405,597.826 408.1,571.286 466.96,498.106 C488.44,471.406 513.78,444.436 538.17,420.216" fill="none" id="MonadError-backto-EitherTMonad" style="stroke:#F5BDE6;stroke-width:1;stroke-dasharray:7,7;"/><polygon fill="none" points="302.79,754.316,317.7717,742.6735,307.7899,736.013,302.79,754.316" style="stroke:#F5BDE6;stroke-width:1;"/></g><!--link EitherTMonad to EitherTKindHelper--><g class="link" data-entity-1="EitherTMonad" data-entity-2="EitherTKindHelper" data-source-line="65" data-uid="lnk22" id="link_EitherTMonad_EitherTKindHelper"><path codeLine="65" d="M781.96,420.506 C832.63,451.066 883.5926,481.8065 931.8426,510.9165" fill="none" id="EitherTMonad-to-EitherTKindHelper" style="stroke:#F5BDE6;stroke-width:1;stroke-dasharray:7,7;"/><polygon fill="#F5BDE6" points="936.98,514.016,931.3402,505.9418,932.6988,511.4331,927.2075,512.7917,936.98,514.016" style="stroke:#F5BDE6;stroke-width:1;"/><text fill="#CAD3F5" font-family="Helvetica" font-size="12" lengthAdjust="spacing" textLength="127.5729" x="859.61" y="463.9341">uses for widen/narrow</text></g><!--link EitherTMonad to EitherT--><g class="link" data-entity-1="EitherTMonad" data-entity-2="EitherT" data-source-line="66" data-uid="lnk23" id="link_EitherTMonad_EitherT"><path codeLine="66" d="M638.09,420.506 C638.98,445.616 639.7373,466.9398 640.6273,492.0298" fill="none" id="EitherTMonad-to-EitherT" style="stroke:#F5BDE6;stroke-width:1;stroke-dasharray:7,7;"/><polygon fill="#F5BDE6" points="640.84,498.026,644.5184,488.8899,640.6627,493.0292,636.5235,489.1735,640.84,498.026" style="stroke:#F5BDE6;stroke-width:1;"/><text fill="#CAD3F5" font-family="Helvetica" font-size="12" lengthAdjust="spacing" textLength="115.4648" x="640.73" y="463.9341">creates/manipulates</text></g><!--link EitherTMonad to Monad--><g class="link" data-entity-1="EitherTMonad" data-entity-2="Monad" data-source-line="67" data-uid="lnk24" id="link_EitherTMonad_Monad"><path codeLine="67" d="M208.22,420.606 C190.8,429.666 177.22,439.486 168.96,450.106 C144.91,481.026 151.5093,523.1621 160.3793,553.1721" fill="none" id="EitherTMonad-to-Monad" style="stroke:#F5BDE6;stroke-width:1;stroke-dasharray:7,7;"/><polygon fill="#F5BDE6" points="162.08,558.926,163.3649,549.1613,160.6628,554.1311,155.693,551.4289,162.08,558.926" style="stroke:#F5BDE6;stroke-width:1;"/><text fill="#CAD3F5" font-family="Helvetica" font-size="12" lengthAdjust="spacing" textLength="235.3337" x="169.96" y="463.9341">(depends on instance of outer Monad&lt;F&gt;)</text></g><!--reverse link EitherT to Kind--><g class="link" data-entity-1="EitherT" data-entity-2="Kind" data-source-line="84" data-uid="lnk26" id="link_EitherT_Kind"><path codeLine="84" d="M570.7901,687.6066 C565.8201,697.2666 567.05,696.586 563.96,706.656 C556.77,730.106 567.16,757.906 575.45,774.706" fill="none" id="EitherT-backto-Kind" style="stroke:#F5BDE6;stroke-width:1;"/><polygon fill="#F5BDE6" points="576.28,676.936,569.9782,680.4413,570.7901,687.6066,577.0919,684.1013,576.28,676.936" style="stroke:#F5BDE6;stroke-width:1;"/><text fill="#CAD3F5" font-family="Helvetica" font-size="12" lengthAdjust="spacing" textLength="137.209" x="564.96" y="720.4841">(value field holds a Kind)</text><text fill="#CAD3F5" font-family="Helvetica" font-size="12" lengthAdjust="spacing" textLength="6.864" x="565.7823" y="763.5795">1</text></g><!--SRC=[jLVTZ-8s47_dhvZoqcmRGBt724MYNRXRNPQjWEsfKYLaWW6hZXqvpcvNr_tVExRpOGXGxk5UaDVpcvdVZESZ-mCJAI-t50vQvqKq6YdoEjmpVIWtPK5LAeMcGWzJcOr4AWjD1YmTfKJdUPccJ0moagO7HhGSv9m8NMPye0yqewECC36ons6EjxtUWQ4NckNw3JAQRQWgUZqXDON-3EW_w6LRm1Uc1IsAYMBwRRnwowaz3Py5KM_nNw8IZsTX4WFXXGIMvHnT27sYwpJwG0gm5tDqrEi1C0n7xKXAuJCJs_6NXzLykbo6yCS4BNv5mFinwb4AiXtFueRX9Cyvm_ZP2pNNHWLWnub-97amAqMgcHJZIUZipqBuDOxRFoRnNUH9BlYRAYMLGKnRlmqHvr4HLb2B2wQUoKbifGSYjjo9CIk7e1M7q72S-hJYKoEMLyf9KS0KJL2rCg8aX4LDuMTu8RoahPx3ZIqchY2LRd0MSrU1lc9PQPQ-mqx9p20lmACEbLC3YkqFEgXpXOWRT3ZT-Ih93Ig6fyDuYZxNMzoodPvvwdN8rvHjmeExooa_gQRAJ8rshrTNbBtr4CEsko29lOSU3k7LYK1ZI-BVrXE0xTwDr5fc87U-DwitY-gUD59P8Yl8JBnMcaIGOEQTIPGp8L3kR5Z08eA5USwp20Zmr-N3oISeTY5z32UsiZ18oz2afAA6rF-DVPuGUHEaK_46yOdod2gNawRmcqTycEFWUBXVVtwOtw_dpqcoVbn-Z62f5HFxg-3LdxzFRm5_UahkfulrSZLPTV63BjEWqrGu2PLy3Iu_z_fXZj7XRtnQVOtaN06_uZmNmNbiQyJLtgcXxdIf6i6csHlgtZoyKghDqmnScLcjg9cPnxF8tZQDLwTBxe95tLXNcwB2P_wuNxZ8ra_FgxgJhzamgRx5bxLN-KDt_uS_I-TxyUciFEVqDXlVYvIt5PDlUSop-_AgefVjv8PWulXMEirSrJBtXkfZCpU_OQe6DY9tdi8EZsqxNPYG5e1ZCkvE5foL-4LOM3kszqTkibnHHfLKKQ9fWP-3WkKbD-Tp2kuKGR2bkTrEKk10nr4ZKjh6sJPjhsV3FLrr-1ZDsZBYmYJ3BCoDb9mIqGhiQZaZsLDTwoJUNGDVr9V70m1VxqCxzGoD3t6DxBPAU8Ixf7VyXP8SeReWz-cpE8DwTzcgt-IdmG3wl_IXsd-1Mw8xHlaM3f9ZxecLtLcj7s51aJ_IBWuiBp3ZBvA_u0B2hE0wPYd25GNyFo6bkIu9jphMTd_MXvmeab7pThYUAmQXNrlXSIqmuxqrXbz9uczhKKiWmYy32EXmFuJVf5aMccmudPMwLDGPVSeDPS9T8Fy1]--></g></svg>