<svg xmlns="http://www.w3.org/2000/svg" xmlns:xlink="http://www.w3.org/1999/xlink" contentStyleType="text/css" data-diagram-type="CLASS" height="870px" preserveAspectRatio="none" style="width:1174px;height:870px;background:#24273A;" version="1.1" viewBox="0 0 1174 870" width="1174px" zoomAndPan="magnify"><defs/><g><rect fill="#24273A" height="870" style="stroke:none;stroke-width:1;" width="1174" x="0" y="0"/><g class="entity" data-entity="ArityNote" data-source-line="4" data-uid="ent0002" id="entity_ArityNote"><path d="M626,694.38 L626,734.0682 A1.5,1.5 0 0 0 627.5,735.5682 L780.87,735.5682 L936.2,832.01 L788.87,735.5682 L877.2216,735.5682 A1.5,1.5 0 0 0 878.7216,734.0682 L878.7216,702.88 L868.7216,692.88 L627.5,692.88 A1.5,1.5 0 0 0 626,694.38" fill="#EED49F" style="stroke:#24273A;stroke-width:0.5;"/><path d="M868.7216,692.88 L868.7216,702.13 A0.75,0.75 0 0 0 869.4716,702.88 L878.7216,702.88 L868.7216,692.88" fill="#EED49F" style="stroke:#24273A;stroke-width:0.5;"/><text fill="#24273A" font-family="Helvetica" font-size="12" lengthAdjust="spacing" textLength="231.7216" x="632" y="710.7081">F extends WitnessArity&lt;TypeArity.Unary&gt;</text><text fill="#24273A" font-family="Helvetica" font-size="12" lengthAdjust="spacing" textLength="102.8288" x="632" y="727.0522">for all type classes</text></g><!--class Kind--><g class="entity" data-entity="Kind" data-source-line="6" data-uid="ent0003" id="entity_Kind"><rect fill="#24273A" height="31.792" rx="1.5" ry="1.5" style="stroke:#C6A0F6;stroke-width:2;" width="84.3082" x="918.21" y="832.47"/><rect fill="#363A4F" height="31.792" rx="1.5" ry="1.5" style="stroke:#363A4F;stroke-width:2;" width="84.3082" x="918.21" y="832.47"/><rect fill="#363A4F" height="1.5" style="stroke:#363A4F;stroke-width:2;" width="84.3082" x="918.21" y="862.762"/><rect fill="none" height="31.792" rx="1.5" ry="1.5" style="stroke:#C6A0F6;stroke-width:2;" width="84.3082" x="918.21" y="832.47"/><ellipse cx="932.21" cy="848.366" fill="#B4A7E5" rx="10" ry="10" style="stroke:#181818;stroke-width:1;"/><path d="M929.7881,852.866 L929.7881,851.6629 L931.46,851.4754 L931.46,845.6941 L929.7881,845.491 L929.7881,844.3035 L934.835,844.3035 L934.835,845.491 L933.1319,845.6941 L933.1319,851.4754 L934.835,851.6629 L934.835,852.866 L929.7881,852.866 Z " fill="#CAD3F5"/><text fill="#A6DA95" font-family="Helvetica" font-size="16" font-style="italic" lengthAdjust="spacing" textLength="31.6481" x="945.21" y="854.574">Kind</text><rect fill="#24273A" height="18.3441" style="stroke:#C6A0F6;stroke-width:1;stroke-dasharray:2,2;" width="20.6601" x="984.8581" y="829.47"/><text fill="#CAD3F5" font-family="Helvetica" font-size="12" font-style="italic" lengthAdjust="spacing" textLength="18.6601" x="985.8581" y="843.2981">F, A</text></g><!--class Functor--><g class="entity" data-entity="Functor" data-source-line="7" data-uid="ent0004" id="entity_Functor"><rect fill="#24273A" height="31.792" rx="1.5" ry="1.5" style="stroke:#C6A0F6;stroke-width:2;" width="93.8202" x="913.46" y="698.33"/><rect fill="#363A4F" height="31.792" rx="1.5" ry="1.5" style="stroke:#363A4F;stroke-width:2;" width="93.8202" x="913.46" y="698.33"/><rect fill="#363A4F" height="1.5" style="stroke:#363A4F;stroke-width:2;" width="93.8202" x="913.46" y="728.622"/><rect fill="none" height="31.792" rx="1.5" ry="1.5" style="stroke:#C6A0F6;stroke-width:2;" width="93.8202" x="913.46" y="698.33"/><ellipse cx="927.46" cy="714.226" fill="#B4A7E5" rx="10" ry="10" style="stroke:#181818;stroke-width:1;"/><path d="M925.0381,718.726 L925.0381,717.5229 L926.71,717.3354 L926.71,711.5541 L925.0381,711.351 L925.0381,710.1635 L930.085,710.1635 L930.085,711.351 L928.3819,711.5541 L928.3819,717.3354 L930.085,717.5229 L930.085,718.726 L925.0381,718.726 Z " fill="#CAD3F5"/><text fill="#A6DA95" font-family="Helvetica" font-size="16" font-style="italic" lengthAdjust="spacing" textLength="54.0961" x="940.46" y="720.434">Functor</text><rect fill="#24273A" height="18.3441" style="stroke:#C6A0F6;stroke-width:1;stroke-dasharray:2,2;" width="7.724" x="1002.5561" y="695.33"/><text fill="#CAD3F5" font-family="Helvetica" font-size="12" font-style="italic" lengthAdjust="spacing" textLength="5.724" x="1003.5561" y="709.1581">F</text></g><!--class Applicative--><g class="entity" data-entity="Applicative" data-source-line="8" data-uid="ent0005" id="entity_Applicative"><rect fill="#24273A" height="31.792" rx="1.5" ry="1.5" style="stroke:#C6A0F6;stroke-width:2;" width="116.7322" x="967" y="495.48"/><rect fill="#363A4F" height="31.792" rx="1.5" ry="1.5" style="stroke:#363A4F;stroke-width:2;" width="116.7322" x="967" y="495.48"/><rect fill="#363A4F" height="1.5" style="stroke:#363A4F;stroke-width:2;" width="116.7322" x="967" y="525.772"/><rect fill="none" height="31.792" rx="1.5" ry="1.5" style="stroke:#C6A0F6;stroke-width:2;" width="116.7322" x="967" y="495.48"/><ellipse cx="981" cy="511.376" fill="#B4A7E5" rx="10" ry="10" style="stroke:#181818;stroke-width:1;"/><path d="M978.5781,515.876 L978.5781,514.6729 L980.25,514.4854 L980.25,508.7041 L978.5781,508.501 L978.5781,507.3135 L983.625,507.3135 L983.625,508.501 L981.9219,508.7041 L981.9219,514.4854 L983.625,514.6729 L983.625,515.876 L978.5781,515.876 Z " fill="#CAD3F5"/><text fill="#A6DA95" font-family="Helvetica" font-size="16" font-style="italic" lengthAdjust="spacing" textLength="77.0081" x="994" y="517.584">Applicative</text><rect fill="#24273A" height="18.3441" style="stroke:#C6A0F6;stroke-width:1;stroke-dasharray:2,2;" width="7.724" x="1079.0081" y="492.48"/><text fill="#CAD3F5" font-family="Helvetica" font-size="12" font-style="italic" lengthAdjust="spacing" textLength="5.724" x="1080.0081" y="506.3081">F</text></g><!--class MonadBase--><g class="entity" data-entity="MonadBase" data-source-line="9" data-uid="ent0006" id="entity_MonadBase"><rect fill="#24273A" height="31.792" rx="1.5" ry="1.5" style="stroke:#C6A0F6;stroke-width:2;" width="94.1722" x="973.28" y="263.27"/><rect fill="#363A4F" height="31.792" rx="1.5" ry="1.5" style="stroke:#363A4F;stroke-width:2;" width="94.1722" x="973.28" y="263.27"/><rect fill="#363A4F" height="1.5" style="stroke:#363A4F;stroke-width:2;" width="94.1722" x="973.28" y="293.562"/><rect fill="none" height="31.792" rx="1.5" ry="1.5" style="stroke:#C6A0F6;stroke-width:2;" width="94.1722" x="973.28" y="263.27"/><ellipse cx="987.28" cy="279.166" fill="#B4A7E5" rx="10" ry="10" style="stroke:#181818;stroke-width:1;"/><path d="M984.8581,283.666 L984.8581,282.4629 L986.53,282.2754 L986.53,276.4941 L984.8581,276.291 L984.8581,275.1035 L989.905,275.1035 L989.905,276.291 L988.2019,276.4941 L988.2019,282.2754 L989.905,282.4629 L989.905,283.666 L984.8581,283.666 Z " fill="#CAD3F5"/><text fill="#A6DA95" font-family="Helvetica" font-size="16" font-style="italic" lengthAdjust="spacing" textLength="50.0801" x="1000.28" y="285.374">Monad</text><rect fill="#24273A" height="18.3441" style="stroke:#C6A0F6;stroke-width:1;stroke-dasharray:2,2;" width="12.0921" x="1058.3601" y="260.27"/><text fill="#CAD3F5" font-family="Helvetica" font-size="12" font-style="italic" lengthAdjust="spacing" textLength="10.0921" x="1059.3601" y="274.0981">M</text></g><!--class MonadErrorBase--><g class="entity" data-entity="MonadErrorBase" data-source-line="10" data-uid="ent0007" id="entity_MonadErrorBase"><rect fill="#24273A" height="31.792" rx="1.5" ry="1.5" style="stroke:#C6A0F6;stroke-width:2;" width="142.8683" x="836.93" y="116.79"/><rect fill="#363A4F" height="31.792" rx="1.5" ry="1.5" style="stroke:#363A4F;stroke-width:2;" width="142.8683" x="836.93" y="116.79"/><rect fill="#363A4F" height="1.5" style="stroke:#363A4F;stroke-width:2;" width="142.8683" x="836.93" y="147.082"/><rect fill="none" height="31.792" rx="1.5" ry="1.5" style="stroke:#C6A0F6;stroke-width:2;" width="142.8683" x="836.93" y="116.79"/><ellipse cx="850.93" cy="132.686" fill="#B4A7E5" rx="10" ry="10" style="stroke:#181818;stroke-width:1;"/><path d="M848.5081,137.186 L848.5081,135.9829 L850.18,135.7954 L850.18,130.0141 L848.5081,129.811 L848.5081,128.6235 L853.555,128.6235 L853.555,129.811 L851.8519,130.0141 L851.8519,135.7954 L853.555,135.9829 L853.555,137.186 L848.5081,137.186 Z " fill="#CAD3F5"/><text fill="#A6DA95" font-family="Helvetica" font-size="16" font-style="italic" lengthAdjust="spacing" textLength="86.4162" x="863.93" y="138.894">MonadError</text><rect fill="#24273A" height="18.3441" style="stroke:#C6A0F6;stroke-width:1;stroke-dasharray:2,2;" width="24.4522" x="958.3462" y="113.79"/><text fill="#CAD3F5" font-family="Helvetica" font-size="12" font-style="italic" lengthAdjust="spacing" textLength="22.4522" x="959.3462" y="127.6181">M, E</text></g><!--class MaybeInterface--><g class="entity" data-entity="MaybeInterface" data-source-line="15" data-uid="ent0009" id="entity_MaybeInterface"><rect fill="#24273A" height="203.2332" rx="1.5" ry="1.5" style="stroke:#C6A0F6;stroke-width:2;" width="231.1854" x="69.77" y="409.75"/><rect fill="#363A4F" height="31.792" rx="1.5" ry="1.5" style="stroke:#363A4F;stroke-width:2;" width="231.1854" x="69.77" y="409.75"/><rect fill="#363A4F" height="1.5" style="stroke:#363A4F;stroke-width:2;" width="231.1854" x="69.77" y="440.042"/><rect fill="none" height="203.2332" rx="1.5" ry="1.5" style="stroke:#C6A0F6;stroke-width:2;" width="231.1854" x="69.77" y="409.75"/><ellipse cx="152.7247" cy="425.646" fill="#ADD8E6" rx="10" ry="10" style="stroke:#181818;stroke-width:1;"/><path d="M149.709,430.146 L149.709,421.5835 L152.0528,421.5835 L152.7872,426.4429 L152.834,426.4429 L153.6934,421.5835 L155.9278,421.5835 L155.9278,430.146 L154.3653,430.146 L154.3653,428.1929 Q154.3653,427.7241 154.3965,427.1304 Q154.4278,426.5366 154.459,425.9116 Q154.4903,425.271 154.5215,424.7085 Q154.5684,424.146 154.584,423.7398 Q154.6153,423.3179 154.6309,423.1616 L154.5528,423.1616 L153.6778,428.1304 L151.9903,428.1304 L151.0372,423.146 L150.959,423.146 Q150.9747,423.3335 151.0059,423.7554 Q151.0528,424.1773 151.084,424.7398 Q151.1309,425.3023 151.1622,425.9429 Q151.209,426.5679 151.2403,427.1773 Q151.2715,427.7866 151.2715,428.2866 L151.2715,430.146 L149.709,430.146 Z " fill="#CAD3F5"/><text fill="#A6DA95" font-family="Helvetica" font-size="16" font-style="italic" lengthAdjust="spacing" textLength="47.2641" x="171.7247" y="431.854">Maybe</text><rect fill="#24273A" height="18.3441" style="stroke:#C6A0F6;stroke-width:1;stroke-dasharray:2,2;" width="8.012" x="295.9434" y="406.75"/><text fill="#CAD3F5" font-family="Helvetica" font-size="12" font-style="italic" lengthAdjust="spacing" textLength="6.012" x="296.9434" y="420.5781">T</text><line style="stroke:#C6A0F6;stroke-width:2;" x1="70.77" x2="299.9554" y1="441.542" y2="441.542"/><ellipse cx="80.77" cy="455.2141" fill="#84BE84" rx="3" ry="3" style="stroke:#038048;stroke-width:1;"/><text fill="#A6DA95" font-family="Helvetica" font-size="12" lengthAdjust="spacing" textLength="152.509" x="88.77" y="458.3701">static &lt;T&gt; Maybe&lt;T&gt; just(T)</text><ellipse cx="80.77" cy="471.5582" fill="#84BE84" rx="3" ry="3" style="stroke:#038048;stroke-width:1;"/><text fill="#A6DA95" font-family="Helvetica" font-size="12" lengthAdjust="spacing" textLength="169.5612" x="88.77" y="474.7142">static &lt;T&gt; Maybe&lt;T&gt; nothing()</text><ellipse cx="80.77" cy="487.9023" fill="#84BE84" rx="3" ry="3" style="stroke:#038048;stroke-width:1;"/><text fill="#A6DA95" font-family="Helvetica" font-size="12" lengthAdjust="spacing" textLength="206.1854" x="88.77" y="491.0584">static &lt;T&gt; Maybe&lt;T&gt; fromNullable(T)</text><ellipse cx="80.77" cy="504.2464" fill="#84BE84" rx="3" ry="3" style="stroke:#038048;stroke-width:1;"/><text fill="#A6DA95" font-family="Helvetica" font-size="12" lengthAdjust="spacing" textLength="85.8486" x="88.77" y="507.4025">boolean isJust()</text><ellipse cx="80.77" cy="520.5906" fill="#84BE84" rx="3" ry="3" style="stroke:#038048;stroke-width:1;"/><text fill="#A6DA95" font-family="Helvetica" font-size="12" lengthAdjust="spacing" textLength="111.0968" x="88.77" y="523.7466">boolean isNothing()</text><ellipse cx="80.77" cy="536.9347" fill="#84BE84" rx="3" ry="3" style="stroke:#038048;stroke-width:1;"/><text fill="#A6DA95" font-family="Helvetica" font-size="12" lengthAdjust="spacing" textLength="35.4722" x="88.77" y="540.0907">T get()</text><ellipse cx="80.77" cy="553.2788" fill="#84BE84" rx="3" ry="3" style="stroke:#038048;stroke-width:1;"/><text fill="#A6DA95" font-family="Helvetica" font-size="12" lengthAdjust="spacing" textLength="58.1644" x="88.77" y="556.4348">T orElse(T)</text><ellipse cx="80.77" cy="569.6229" fill="#84BE84" rx="3" ry="3" style="stroke:#038048;stroke-width:1;"/><text fill="#A6DA95" font-family="Helvetica" font-size="12" lengthAdjust="spacing" textLength="138.409" x="88.77" y="572.7789">T orElseGet(Supplier&lt;T&gt;)</text><ellipse cx="80.77" cy="585.967" fill="#84BE84" rx="3" ry="3" style="stroke:#038048;stroke-width:1;"/><text fill="#A6DA95" font-family="Helvetica" font-size="12" lengthAdjust="spacing" textLength="37.8843" x="88.77" y="589.123">Maybe</text><text fill="#A6DA95" font-family="Helvetica" font-size="12" lengthAdjust="spacing" text-decoration="underline" textLength="113.8448" x="129.7743" y="589.123">map(Function&lt;T,U&gt;)</text><ellipse cx="80.77" cy="602.3111" fill="#84BE84" rx="3" ry="3" style="stroke:#038048;stroke-width:1;"/><text fill="#A6DA95" font-family="Helvetica" font-size="12" lengthAdjust="spacing" textLength="37.8843" x="88.77" y="605.4672">Maybe</text><text fill="#A6DA95" font-family="Helvetica" font-size="12" lengthAdjust="spacing" text-decoration="underline" textLength="150.445" x="129.7743" y="605.4672">flatMap(Function&lt;T,Maybe</text><text fill="#A6DA95" font-family="Helvetica" font-size="12" lengthAdjust="spacing" text-decoration="underline" textLength="10.4641" x="280.2193" y="605.4672">&gt;)</text></g><!--class Just<T>--><g class="entity" data-entity="Just.T." data-source-line="28" data-uid="ent0010" id="entity_Just.T."><rect fill="#24273A" height="80.4803" rx="1.5" ry="1.5" style="stroke:#C6A0F6;stroke-width:2;" width="84.8961" x="242.92" y="673.99"/><rect fill="#363A4F" height="31.792" rx="1.5" ry="1.5" style="stroke:#363A4F;stroke-width:2;" width="84.8961" x="242.92" y="673.99"/><rect fill="#363A4F" height="1.5" style="stroke:#363A4F;stroke-width:2;" width="84.8961" x="242.92" y="704.282"/><rect fill="none" height="80.4803" rx="1.5" ry="1.5" style="stroke:#C6A0F6;stroke-width:2;" width="84.8961" x="242.92" y="673.99"/><ellipse cx="256.92" cy="689.886" fill="#ADD1B2" rx="10" ry="10" style="stroke:#181818;stroke-width:1;"/><path d="M256.6387,694.511 Q255.3887,694.511 254.5919,693.9954 Q253.795,693.4641 253.4044,692.511 Q253.0137,691.5579 253.0137,690.2766 Q253.0137,688.8548 253.4825,687.8391 Q253.9512,686.8079 254.8575,686.261 Q255.7637,685.6985 257.0762,685.6985 Q257.7012,685.6985 258.17,685.8235 Q258.6544,685.9485 259.1387,686.1829 L258.5606,687.6204 Q258.1231,687.386 257.7325,687.3079 Q257.3575,687.2298 257.0137,687.2298 Q256.1856,687.2298 255.6856,687.6048 Q255.2012,687.9641 254.9825,688.636 Q254.7794,689.3079 254.7794,690.2141 Q254.7794,691.6204 255.2794,692.3079 Q255.795,692.9798 256.92,692.9798 Q257.3419,692.9798 257.7794,692.8704 Q258.2169,692.761 258.8106,692.4954 L258.8106,694.0579 Q258.295,694.2923 257.7325,694.4016 Q257.17,694.511 256.6387,694.511 Z " fill="#CAD3F5"/><text fill="#A6DA95" font-family="Helvetica" font-size="16" lengthAdjust="spacing" textLength="54.8961" x="269.92" y="696.094">Just&lt;T&gt;</text><line style="stroke:#C6A0F6;stroke-width:2;" x1="243.92" x2="326.8161" y1="705.782" y2="705.782"/><rect fill="none" height="6" style="stroke:#C82930;stroke-width:1;" width="6" x="250.92" y="716.4541"/><text fill="#A6DA95" font-family="Helvetica" font-size="12" lengthAdjust="spacing" textLength="39.9003" x="261.92" y="722.6101">T value</text><line style="stroke:#C6A0F6;stroke-width:2;" x1="243.92" x2="326.8161" y1="730.1262" y2="730.1262"/><ellipse cx="253.92" cy="743.7982" fill="#84BE84" rx="3" ry="3" style="stroke:#038048;stroke-width:1;"/><text fill="#A6DA95" font-family="Helvetica" font-size="12" lengthAdjust="spacing" textLength="34.6442" x="261.92" y="746.9542">Just(T)</text></g><!--class Nothing<T>--><g class="entity" data-entity="Nothing.T." data-source-line="33" data-uid="ent0012" id="entity_Nothing.T."><rect fill="#24273A" height="80.4803" rx="1.5" ry="1.5" style="stroke:#C6A0F6;stroke-width:2;" width="205.6492" x="362.54" y="673.99"/><rect fill="#363A4F" height="31.792" rx="1.5" ry="1.5" style="stroke:#363A4F;stroke-width:2;" width="205.6492" x="362.54" y="673.99"/><rect fill="#363A4F" height="1.5" style="stroke:#363A4F;stroke-width:2;" width="205.6492" x="362.54" y="704.282"/><rect fill="none" height="80.4803" rx="1.5" ry="1.5" style="stroke:#C6A0F6;stroke-width:2;" width="205.6492" x="362.54" y="673.99"/><ellipse cx="417.0845" cy="689.886" fill="#ADD1B2" rx="10" ry="10" style="stroke:#181818;stroke-width:1;"/><path d="M416.8033,694.511 Q415.5533,694.511 414.7564,693.9954 Q413.9595,693.4641 413.5689,692.511 Q413.1783,691.5579 413.1783,690.2766 Q413.1783,688.8548 413.647,687.8391 Q414.1158,686.8079 415.022,686.261 Q415.9283,685.6985 417.2408,685.6985 Q417.8658,685.6985 418.3345,685.8235 Q418.8189,685.9485 419.3033,686.1829 L418.7252,687.6204 Q418.2877,687.386 417.897,687.3079 Q417.522,687.2298 417.1783,687.2298 Q416.3502,687.2298 415.8502,687.6048 Q415.3658,687.9641 415.147,688.636 Q414.9439,689.3079 414.9439,690.2141 Q414.9439,691.6204 415.4439,692.3079 Q415.9595,692.9798 417.0845,692.9798 Q417.5064,692.9798 417.9439,692.8704 Q418.3814,692.761 418.9752,692.4954 L418.9752,694.0579 Q418.4595,694.2923 417.897,694.4016 Q417.3345,694.511 416.8033,694.511 Z " fill="#CAD3F5"/><text fill="#A6DA95" font-family="Helvetica" font-size="16" lengthAdjust="spacing" textLength="88.5602" x="436.0845" y="696.094">Nothing&lt;T&gt;</text><line style="stroke:#C6A0F6;stroke-width:2;" x1="363.54" x2="567.1892" y1="705.782" y2="705.782"/><rect fill="none" height="6" style="stroke:#C82930;stroke-width:1;" width="6" x="370.54" y="716.4541"/><text fill="#A6DA95" font-family="Helvetica" font-size="12" lengthAdjust="spacing" textLength="158.6891" x="381.54" y="722.6101">static Nothing&lt;?&gt; INSTANCE</text><line style="stroke:#C6A0F6;stroke-width:2;" x1="363.54" x2="567.1892" y1="730.1262" y2="730.1262"/><ellipse cx="373.54" cy="743.7982" fill="#84BE84" rx="3" ry="3" style="stroke:#038048;stroke-width:1;"/><text fill="#A6DA95" font-family="Helvetica" font-size="12" lengthAdjust="spacing" textLength="180.6492" x="381.54" y="746.9542">static &lt;T&gt; Nothing&lt;T&gt; instance()</text></g><!--class MaybeKindBase--><g class="entity" data-entity="MaybeKindBase" data-source-line="38" data-uid="ent0014" id="entity_MaybeKindBase"><rect fill="#24273A" height="31.792" rx="1.5" ry="1.5" style="stroke:#C6A0F6;stroke-width:2;" width="119.6562" x="1042.54" y="698.33"/><rect fill="#363A4F" height="31.792" rx="1.5" ry="1.5" style="stroke:#363A4F;stroke-width:2;" width="119.6562" x="1042.54" y="698.33"/><rect fill="#363A4F" height="1.5" style="stroke:#363A4F;stroke-width:2;" width="119.6562" x="1042.54" y="728.622"/><rect fill="none" height="31.792" rx="1.5" ry="1.5" style="stroke:#C6A0F6;stroke-width:2;" width="119.6562" x="1042.54" y="698.33"/><ellipse cx="1056.54" cy="714.226" fill="#87CEFA" rx="10" ry="10" style="stroke:#181818;stroke-width:1;"/><path d="M1053.0869,718.726 L1053.0869,710.1635 L1054.79,710.1635 L1054.79,714.2573 Q1055.1494,713.5698 1055.5556,712.9604 L1057.4306,710.1635 L1059.3369,710.1635 L1056.6338,713.9916 L1059.2588,718.726 L1057.3525,718.726 L1055.5088,715.2416 L1054.79,715.9135 L1054.79,718.726 L1053.0869,718.726 Z " fill="#CAD3F5"/><text fill="#A6DA95" font-family="Helvetica" font-size="16" font-style="italic" lengthAdjust="spacing" textLength="78.9122" x="1069.54" y="720.434">MaybeKind</text><rect fill="#24273A" height="18.3441" style="stroke:#C6A0F6;stroke-width:1;stroke-dasharray:2,2;" width="8.744" x="1156.4522" y="695.33"/><text fill="#CAD3F5" font-family="Helvetica" font-size="12" font-style="italic" lengthAdjust="spacing" textLength="6.744" x="1157.4522" y="709.1581">A</text></g><!--class MaybeKindHelper--><g class="entity" data-entity="MaybeKindHelper" data-source-line="42" data-uid="ent0015" id="entity_MaybeKindHelper"><rect fill="#24273A" height="105.1685" rx="1.5" ry="1.5" style="stroke:#C6A0F6;stroke-width:2;" width="356.7303" x="7" y="226.59"/><rect fill="#363A4F" height="31.792" rx="1.5" ry="1.5" style="stroke:#363A4F;stroke-width:2;" width="356.7303" x="7" y="226.59"/><rect fill="#363A4F" height="1.5" style="stroke:#363A4F;stroke-width:2;" width="356.7303" x="7" y="256.882"/><rect fill="none" height="105.1685" rx="1.5" ry="1.5" style="stroke:#C6A0F6;stroke-width:2;" width="356.7303" x="7" y="226.59"/><ellipse cx="113.989" cy="242.486" fill="#808080" rx="10" ry="10" style="stroke:#181818;stroke-width:1;"/><path d="M110.5359,246.986 L110.5359,238.4235 L112.2703,238.4235 L112.2703,241.7673 L114.9109,241.7673 L114.9109,238.4235 L116.6453,238.4235 L116.6453,246.986 L114.9109,246.986 L114.9109,243.2673 L112.2703,243.2673 L112.2703,246.986 L110.5359,246.986 Z " fill="#CAD3F5"/><text fill="#A6DA95" font-family="Helvetica" font-size="16" lengthAdjust="spacing" textLength="134.7523" x="132.989" y="248.694">MaybeKindHelper</text><line style="stroke:#C6A0F6;stroke-width:2;" x1="8" x2="362.7303" y1="258.382" y2="258.382"/><ellipse cx="18" cy="272.0541" fill="#84BE84" rx="3" ry="3" style="stroke:#038048;stroke-width:1;"/><text fill="#A6DA95" font-family="Helvetica" font-size="12" lengthAdjust="spacing" textLength="331.7303" x="26" y="275.2101">static &lt;A&gt; Maybe&lt;A&gt; narrow(Kind&lt;MaybeKind.Witness, A&gt;)</text><ellipse cx="18" cy="288.3982" fill="#84BE84" rx="3" ry="3" style="stroke:#038048;stroke-width:1;"/><text fill="#A6DA95" font-family="Helvetica" font-size="12" lengthAdjust="spacing" textLength="321.9503" x="26" y="291.5542">static &lt;A&gt; Kind&lt;MaybeKind.Witness,A&gt; widen(Maybe&lt;A&gt;)</text><ellipse cx="18" cy="304.7423" fill="#84BE84" rx="3" ry="3" style="stroke:#038048;stroke-width:1;"/><text fill="#A6DA95" font-family="Helvetica" font-size="12" lengthAdjust="spacing" textLength="256.8378" x="26" y="307.8984">static &lt;A&gt; Kind&lt;MaybeKind.Witness,A&gt; just(A)</text><ellipse cx="18" cy="321.0864" fill="#84BE84" rx="3" ry="3" style="stroke:#038048;stroke-width:1;"/><text fill="#A6DA95" font-family="Helvetica" font-size="12" lengthAdjust="spacing" textLength="272.8939" x="26" y="324.2425">static &lt;A&gt; Kind&lt;MaybeKind.Witness,A&gt; nothing()</text></g><g class="entity" data-entity="GMN16" data-source-line="49" data-uid="ent0017" id="entity_GMN16"><path d="M398.6,251.15 L398.6,275.17 L364.21,279.17 L398.6,283.17 L398.6,307.1823 A1.5,1.5 0 0 0 400.1,308.6823 L840.623,308.6823 A1.5,1.5 0 0 0 842.123,307.1823 L842.123,259.65 L832.123,249.65 L400.1,249.65 A1.5,1.5 0 0 0 398.6,251.15" fill="#EED49F" style="stroke:#24273A;stroke-width:0.5;"/><path d="M832.123,249.65 L832.123,258.9 A0.75,0.75 0 0 0 832.873,259.65 L842.123,259.65 L832.123,249.65" fill="#EED49F" style="stroke:#24273A;stroke-width:0.5;"/><text fill="#24273A" font-family="Helvetica" font-size="12" lengthAdjust="spacing" textLength="242.8697" x="404.6" y="267.4781">Contains internal 'MaybeHolder&lt;A&gt; record'</text><text fill="#24273A" font-family="Helvetica" font-size="12" lengthAdjust="spacing" textLength="194.2214" x="404.6" y="283.8222">which implements MaybeKind&lt;A&gt;.</text><text fill="#24273A" font-family="Helvetica" font-size="12" lengthAdjust="spacing" textLength="422.523" x="404.6" y="300.1663">`record MaybeHolder&lt;A&gt;(Maybe&lt;A&gt; maybe) implements MaybeKind&lt;A&gt; {}`</text></g><!--class MaybeFunctorImpl--><g class="entity" data-entity="MaybeFunctorImpl" data-source-line="55" data-uid="ent0019" id="entity_MaybeFunctorImpl"><rect fill="#24273A" height="31.792" rx="1.5" ry="1.5" style="stroke:#C6A0F6;stroke-width:2;" width="138.3362" x="552.2" y="116.79"/><rect fill="#363A4F" height="31.792" rx="1.5" ry="1.5" style="stroke:#363A4F;stroke-width:2;" width="138.3362" x="552.2" y="116.79"/><rect fill="#363A4F" height="1.5" style="stroke:#363A4F;stroke-width:2;" width="138.3362" x="552.2" y="147.082"/><rect fill="none" height="31.792" rx="1.5" ry="1.5" style="stroke:#C6A0F6;stroke-width:2;" width="138.3362" x="552.2" y="116.79"/><ellipse cx="566.2" cy="132.686" fill="#ADD1B2" rx="10" ry="10" style="stroke:#181818;stroke-width:1;"/><path d="M565.9188,137.311 Q564.6688,137.311 563.8719,136.7954 Q563.075,136.2641 562.6844,135.311 Q562.2938,134.3579 562.2938,133.0766 Q562.2938,131.6548 562.7625,130.6391 Q563.2313,129.6079 564.1375,129.061 Q565.0438,128.4985 566.3563,128.4985 Q566.9813,128.4985 567.45,128.6235 Q567.9344,128.7485 568.4188,128.9829 L567.8406,130.4204 Q567.4031,130.186 567.0125,130.1079 Q566.6375,130.0298 566.2938,130.0298 Q565.4656,130.0298 564.9656,130.4048 Q564.4813,130.7641 564.2625,131.436 Q564.0594,132.1079 564.0594,133.0141 Q564.0594,134.4204 564.5594,135.1079 Q565.075,135.7798 566.2,135.7798 Q566.6219,135.7798 567.0594,135.6704 Q567.4969,135.561 568.0906,135.2954 L568.0906,136.8579 Q567.575,137.0923 567.0125,137.2016 Q566.45,137.311 565.9188,137.311 Z " fill="#CAD3F5"/><text fill="#A6DA95" font-family="Helvetica" font-size="16" lengthAdjust="spacing" textLength="108.3362" x="579.2" y="138.894">MaybeFunctor</text></g><!--class MaybeMonadImpl--><g class="entity" data-entity="MaybeMonadImpl" data-source-line="59" data-uid="ent0020" id="entity_MaybeMonadImpl"><rect fill="#24273A" height="31.792" rx="1.5" ry="1.5" style="stroke:#C6A0F6;stroke-width:2;" width="133.4082" x="554.66" y="7"/><rect fill="#363A4F" height="31.792" rx="1.5" ry="1.5" style="stroke:#363A4F;stroke-width:2;" width="133.4082" x="554.66" y="7"/><rect fill="#363A4F" height="1.5" style="stroke:#363A4F;stroke-width:2;" width="133.4082" x="554.66" y="37.292"/><rect fill="none" height="31.792" rx="1.5" ry="1.5" style="stroke:#C6A0F6;stroke-width:2;" width="133.4082" x="554.66" y="7"/><ellipse cx="568.66" cy="22.896" fill="#ADD1B2" rx="10" ry="10" style="stroke:#181818;stroke-width:1;"/><path d="M568.3788,27.521 Q567.1288,27.521 566.3319,27.0054 Q565.535,26.4741 565.1444,25.521 Q564.7538,24.5679 564.7538,23.2866 Q564.7538,21.8648 565.2225,20.8491 Q565.6913,19.8179 566.5975,19.271 Q567.5038,18.7085 568.8163,18.7085 Q569.4413,18.7085 569.91,18.8335 Q570.3944,18.9585 570.8788,19.1929 L570.3006,20.6304 Q569.8631,20.396 569.4725,20.3179 Q569.0975,20.2398 568.7538,20.2398 Q567.9256,20.2398 567.4256,20.6148 Q566.9413,20.9741 566.7225,21.646 Q566.5194,22.3179 566.5194,23.2241 Q566.5194,24.6304 567.0194,25.3179 Q567.535,25.9898 568.66,25.9898 Q569.0819,25.9898 569.5194,25.8804 Q569.9569,25.771 570.5506,25.5054 L570.5506,27.0679 Q570.035,27.3023 569.4725,27.4116 Q568.91,27.521 568.3788,27.521 Z " fill="#CAD3F5"/><text fill="#A6DA95" font-family="Helvetica" font-size="16" lengthAdjust="spacing" textLength="103.4082" x="581.66" y="29.104">MaybeMonad</text></g><!--class Just--><g class="entity" data-entity="Just" data-source-line="83" data-uid="ent0032" id="entity_Just"><rect fill="#24273A" height="31.792" rx="1.5" ry="1.5" style="stroke:#C6A0F6;stroke-width:2;" width="57.6961" x="23.52" y="698.33"/><rect fill="#363A4F" height="31.792" rx="1.5" ry="1.5" style="stroke:#363A4F;stroke-width:2;" width="57.6961" x="23.52" y="698.33"/><rect fill="#363A4F" height="1.5" style="stroke:#363A4F;stroke-width:2;" width="57.6961" x="23.52" y="728.622"/><rect fill="none" height="31.792" rx="1.5" ry="1.5" style="stroke:#C6A0F6;stroke-width:2;" width="57.6961" x="23.52" y="698.33"/><ellipse cx="37.52" cy="714.226" fill="#ADD1B2" rx="10" ry="10" style="stroke:#181818;stroke-width:1;"/><path d="M37.2387,718.851 Q35.9887,718.851 35.1919,718.3354 Q34.395,717.8041 34.0044,716.851 Q33.6137,715.8979 33.6137,714.6166 Q33.6137,713.1948 34.0825,712.1791 Q34.5512,711.1479 35.4575,710.601 Q36.3637,710.0385 37.6762,710.0385 Q38.3012,710.0385 38.77,710.1635 Q39.2544,710.2885 39.7387,710.5229 L39.1606,711.9604 Q38.7231,711.726 38.3325,711.6479 Q37.9575,711.5698 37.6137,711.5698 Q36.7856,711.5698 36.2856,711.9448 Q35.8012,712.3041 35.5825,712.976 Q35.3794,713.6479 35.3794,714.5541 Q35.3794,715.9604 35.8794,716.6479 Q36.395,717.3198 37.52,717.3198 Q37.9419,717.3198 38.3794,717.2104 Q38.8169,717.101 39.4106,716.8354 L39.4106,718.3979 Q38.895,718.6323 38.3325,718.7416 Q37.77,718.851 37.2387,718.851 Z " fill="#CAD3F5"/><text fill="#A6DA95" font-family="Helvetica" font-size="16" lengthAdjust="spacing" textLength="27.6961" x="50.52" y="720.434">Just</text></g><!--class Nothing--><g class="entity" data-entity="Nothing" data-source-line="84" data-uid="ent0034" id="entity_Nothing"><rect fill="#24273A" height="31.792" rx="1.5" ry="1.5" style="stroke:#C6A0F6;stroke-width:2;" width="91.3601" x="116.69" y="698.33"/><rect fill="#363A4F" height="31.792" rx="1.5" ry="1.5" style="stroke:#363A4F;stroke-width:2;" width="91.3601" x="116.69" y="698.33"/><rect fill="#363A4F" height="1.5" style="stroke:#363A4F;stroke-width:2;" width="91.3601" x="116.69" y="728.622"/><rect fill="none" height="31.792" rx="1.5" ry="1.5" style="stroke:#C6A0F6;stroke-width:2;" width="91.3601" x="116.69" y="698.33"/><ellipse cx="130.69" cy="714.226" fill="#ADD1B2" rx="10" ry="10" style="stroke:#181818;stroke-width:1;"/><path d="M130.4088,718.851 Q129.1588,718.851 128.3619,718.3354 Q127.565,717.8041 127.1744,716.851 Q126.7838,715.8979 126.7838,714.6166 Q126.7838,713.1948 127.2525,712.1791 Q127.7213,711.1479 128.6275,710.601 Q129.5338,710.0385 130.8463,710.0385 Q131.4713,710.0385 131.94,710.1635 Q132.4244,710.2885 132.9088,710.5229 L132.3306,711.9604 Q131.8931,711.726 131.5025,711.6479 Q131.1275,711.5698 130.7838,711.5698 Q129.9556,711.5698 129.4556,711.9448 Q128.9713,712.3041 128.7525,712.976 Q128.5494,713.6479 128.5494,714.5541 Q128.5494,715.9604 129.0494,716.6479 Q129.565,717.3198 130.69,717.3198 Q131.1119,717.3198 131.5494,717.2104 Q131.9869,717.101 132.5806,716.8354 L132.5806,718.3979 Q132.065,718.6323 131.5025,718.7416 Q130.94,718.851 130.4088,718.851 Z " fill="#CAD3F5"/><text fill="#A6DA95" font-family="Helvetica" font-size="16" lengthAdjust="spacing" textLength="61.3601" x="143.69" y="720.434">Nothing</text></g><!--reverse link MaybeInterface to Just<T>--><g class="link" data-entity-1="MaybeInterface" data-entity-2="Just.T." data-source-line="29" data-uid="lnk11" id="link_MaybeInterface_Just.T."><path d="M243.6828,629.5032 C254.3828,650.9932 257.04,656.34 265.74,673.82" fill="none" id="MaybeInterface-backto-Just&lt;T&gt;" style="stroke:#F5BDE6;stroke-width:1;"/><polygon fill="none" points="235.66,613.39,238.3118,632.1774,249.0539,626.8289,235.66,613.39" style="stroke:#F5BDE6;stroke-width:1;"/></g><!--reverse link MaybeInterface to Nothing<T>--><g class="link" data-entity-1="MaybeInterface" data-entity-2="Nothing.T." data-source-line="34" data-uid="lnk13" id="link_MaybeInterface_Nothing.T."><path d="M315.8972,606.0102 C353.5172,632.9902 378.89,651.19 409.98,673.5" fill="none" id="MaybeInterface-backto-Nothing&lt;T&gt;" style="stroke:#F5BDE6;stroke-width:1;"/><polygon fill="none" points="301.27,595.52,312.4005,610.886,319.394,601.1345,301.27,595.52" style="stroke:#F5BDE6;stroke-width:1;"/></g><!--link MonadErrorBase to MonadBase--><g class="link" data-entity-1="MonadErrorBase" data-entity-2="MonadBase" data-source-line="69" data-uid="lnk21" id="link_MonadErrorBase_MonadBase"><path codeLine="69" d="M920.14,148.88 C941.71,176.7 976.2694,221.2959 997.7194,248.9559" fill="none" id="MonadErrorBase-to-MonadBase" style="stroke:#F5BDE6;stroke-width:1;"/><polygon fill="none" points="1008.75,263.18,1002.4607,245.279,992.978,252.6328,1008.75,263.18" style="stroke:#F5BDE6;stroke-width:1;"/></g><!--link MonadBase to Applicative--><g class="link" data-entity-1="MonadBase" data-entity-2="Applicative" data-source-line="70" data-uid="lnk22" id="link_MonadBase_Applicative"><path codeLine="70" d="M1020.76,295.51 C1021.18,311.9 1021.85,338.67 1022.37,361.75 C1023.45,410.52 1024.2288,450.2832 1024.7388,477.1832" fill="none" id="MonadBase-to-Applicative" style="stroke:#F5BDE6;stroke-width:1;"/><polygon fill="none" points="1025.08,495.18,1030.7377,477.0695,1018.7399,477.297,1025.08,495.18" style="stroke:#F5BDE6;stroke-width:1;"/></g><!--link Applicative to Functor--><g class="link" data-entity-1="Applicative" data-entity-2="Functor" data-source-line="71" data-uid="lnk23" id="link_Applicative_Functor"><path codeLine="71" d="M1020.48,527.47 C1008.43,564.69 982.9494,643.4236 970.8494,680.8336" fill="none" id="Applicative-to-Functor" style="stroke:#F5BDE6;stroke-width:1;"/><polygon fill="none" points="965.31,697.96,976.5582,682.68,965.1406,678.9871,965.31,697.96" style="stroke:#F5BDE6;stroke-width:1;"/></g><!--link Functor to Kind--><g class="link" data-entity-1="Functor" data-entity-2="Kind" data-source-line="72" data-uid="lnk24" id="link_Functor_Kind"><path codeLine="72" d="M960.37,730.39 C960.37,755.74 960.37,788.47 960.37,813.98" fill="none" id="Functor-to-Kind" style="stroke:#F5BDE6;stroke-width:1;"/><polygon fill="none" points="960.37,831.98,966.37,813.98,954.37,813.98,960.37,831.98" style="stroke:#F5BDE6;stroke-width:1;"/></g><!--link MaybeKindBase to Kind--><g class="link" data-entity-1="MaybeKindBase" data-entity-2="Kind" data-source-line="74" data-uid="lnk25" id="link_MaybeKindBase_Kind"><path codeLine="74" d="M1086.08,730.39 C1058.83,755.74 1017.4864,794.207 990.0764,819.717" fill="none" id="MaybeKindBase-to-Kind" style="stroke:#F5BDE6;stroke-width:1;"/><polygon fill="none" points="976.9,831.98,994.1641,824.1091,985.9887,815.3248,976.9,831.98" style="stroke:#F5BDE6;stroke-width:1;"/><text fill="#CAD3F5" font-family="Helvetica" font-size="12" lengthAdjust="spacing" textLength="138.421" x="1028.11" y="798.2981">&lt;MaybeKind.Witness, A&gt;</text></g><!--link MaybeFunctorImpl to Functor--><g class="link" data-entity-1="MaybeFunctorImpl" data-entity-2="Functor" data-source-line="76" data-uid="lnk26" id="link_MaybeFunctorImpl_Functor"><path codeLine="76" d="M690.86,142.48 C744.93,153.08 817.57,176.25 859.37,226.59 C903.62,279.89 874.61,311.85 888.37,379.75 C913.3,502.82 942.3639,633.1879 952.9739,680.4079" fill="none" id="MaybeFunctorImpl-to-Functor" style="stroke:#F5BDE6;stroke-width:1;stroke-dasharray:7,7;"/><polygon fill="none" points="956.92,697.97,958.828,679.0925,947.1199,681.7232,956.92,697.97" style="stroke:#F5BDE6;stroke-width:1;"/><text fill="#CAD3F5" font-family="Helvetica" font-size="12" lengthAdjust="spacing" textLength="124.4169" x="889.37" y="375.5781">&lt;MaybeKind.Witness&gt;</text></g><!--link MaybeMonadImpl to MaybeFunctorImpl--><g class="link" data-entity-1="MaybeMonadImpl" data-entity-2="MaybeFunctorImpl" data-source-line="77" data-uid="lnk27" id="link_MaybeMonadImpl_MaybeFunctorImpl"><path codeLine="77" d="M621.37,38.89 C621.37,59.36 621.37,77.89 621.37,98.48" fill="none" id="MaybeMonadImpl-to-MaybeFunctorImpl" style="stroke:#F5BDE6;stroke-width:1;"/><polygon fill="none" points="621.37,116.48,627.37,98.48,615.37,98.48,621.37,116.48" style="stroke:#F5BDE6;stroke-width:1;"/></g><!--link MaybeMonadImpl to MonadErrorBase--><g class="link" data-entity-1="MaybeMonadImpl" data-entity-2="MonadErrorBase" data-source-line="78" data-uid="lnk28" id="link_MaybeMonadImpl_MonadErrorBase"><path codeLine="78" d="M662.18,39.23 C716.81,59.75 796.2791,89.5917 850.8391,110.0817" fill="none" id="MaybeMonadImpl-to-MonadErrorBase" style="stroke:#F5BDE6;stroke-width:1;stroke-dasharray:7,7;"/><polygon fill="none" points="867.69,116.41,852.9486,104.4647,848.7297,115.6986,867.69,116.41" style="stroke:#F5BDE6;stroke-width:1;"/><text fill="#CAD3F5" font-family="Helvetica" font-size="12" lengthAdjust="spacing" textLength="154.3691" x="783.05" y="82.6181">&lt;MaybeKind.Witness, Unit&gt;</text></g><!--link MaybeMonadImpl to MaybeKindHelper--><g class="link" data-entity-1="MaybeMonadImpl" data-entity-2="MaybeKindHelper" data-source-line="80" data-uid="lnk29" id="link_MaybeMonadImpl_MaybeKindHelper"><path codeLine="80" d="M595.07,39.23 C533.03,75.42 380.343,164.4573 279.673,223.1673" fill="none" id="MaybeMonadImpl-to-MaybeKindHelper" style="stroke:#F5BDE6;stroke-width:1;stroke-dasharray:7,7;"/><polygon fill="#F5BDE6" points="274.49,226.19,284.2796,225.1113,278.8092,223.6711,280.2494,218.2006,274.49,226.19" style="stroke:#F5BDE6;stroke-width:1;"/><text fill="#CAD3F5" font-family="Helvetica" font-size="12" lengthAdjust="spacing" textLength="25.6802" x="461.89" y="137.5181">uses</text></g><!--link MaybeFunctorImpl to MaybeKindHelper--><g class="link" data-entity-1="MaybeFunctorImpl" data-entity-2="MaybeKindHelper" data-source-line="81" data-uid="lnk30" id="link_MaybeFunctorImpl_MaybeKindHelper"><path codeLine="81" d="M575.12,149.02 C519.89,167.32 430.3054,197.0026 347.7754,224.3526" fill="none" id="MaybeFunctorImpl-to-MaybeKindHelper" style="stroke:#F5BDE6;stroke-width:1;stroke-dasharray:7,7;"/><polygon fill="#F5BDE6" points="342.08,226.24,351.8814,227.2058,346.8262,224.6671,349.3648,219.6119,342.08,226.24" style="stroke:#F5BDE6;stroke-width:1;"/><text fill="#CAD3F5" font-family="Helvetica" font-size="12" lengthAdjust="spacing" textLength="25.6802" x="481.34" y="192.4181">uses</text></g><!--link MaybeKindHelper to MaybeInterface--><g class="link" data-entity-1="MaybeKindHelper" data-entity-2="MaybeInterface" data-source-line="82" data-uid="lnk31" id="link_MaybeKindHelper_MaybeInterface"><path codeLine="82" d="M185.37,332.12 C185.37,355.06 185.37,376.85 185.37,403.59" fill="none" id="MaybeKindHelper-to-MaybeInterface" style="stroke:#F5BDE6;stroke-width:1;stroke-dasharray:7,7;"/><polygon fill="#F5BDE6" points="185.37,409.59,189.37,400.59,185.37,404.59,181.37,400.59,185.37,409.59" style="stroke:#F5BDE6;stroke-width:1;"/><text fill="#CAD3F5" font-family="Helvetica" font-size="12" lengthAdjust="spacing" textLength="115.3088" x="186.37" y="375.5781">uses (widen/narrow)</text></g><!--reverse link MaybeInterface to Just--><g class="link" data-entity-1="MaybeInterface" data-entity-2="Just" data-source-line="83" data-uid="lnk33" id="link_MaybeInterface_Just"><path codeLine="83" d="M108.5405,628.3969 C86.6705,661.4169 74.8,679.34 62.51,697.91" fill="none" id="MaybeInterface-backto-Just" style="stroke:#F5BDE6;stroke-width:1;stroke-dasharray:7,7;"/><polygon fill="none" points="118.48,613.39,103.5382,625.0837,113.5428,631.7101,118.48,613.39" style="stroke:#F5BDE6;stroke-width:1;"/></g><!--reverse link MaybeInterface to Nothing--><g class="link" data-entity-1="MaybeInterface" data-entity-2="Nothing" data-source-line="84" data-uid="lnk35" id="link_MaybeInterface_Nothing"><path codeLine="84" d="M171.7528,631.2732 C167.9728,664.2932 166.25,679.34 164.12,697.91" fill="none" id="MaybeInterface-backto-Nothing" style="stroke:#F5BDE6;stroke-width:1;stroke-dasharray:7,7;"/><polygon fill="none" points="173.8,613.39,165.7917,630.5908,177.7139,631.9556,173.8,613.39" style="stroke:#F5BDE6;stroke-width:1;"/></g><!--SRC=[bLPBR-Cs4BxhLqnpYOoLvNjWgB0NIPFTsfSuwAM7fMdQOakH0abjQkpcltT8IZ8jF-0z62PdlldcmU5Glt59HRDXK5fRcuV9H9FtVCTjsQmRmpHLqZ9fSwggYQJAM3BcT4A9hUk6KYx75Q6qvCIgSIs8j4qbnhPa5PjKXCk9N-OrIfEIenDMrNOF5QlMJ9iaaSeok7i2zXywsHZuYrl9Z9bfRlVJrRvcVfM_IQBtnTzogpGG8S2Y1gWWnZ1p1yI0XosHB4aungktX2BlLoutqwSCPeK7kMsiVceajKfFduAwtSQ8MLqBZhdoxwn3HQ8OkL2IRAQBWF6REJ6dY4UjqU4YWyS8wOKUdlHvG9w7U9C486OX-pMRhbfhjtdfbTCff8liJxuhxLmqR0H50J_G7E0JuBbPJW4jeQE0VnfZqzNe2WAFf-Hobrx3RBMgbeqGP2tOWMsjb6140ZTVd9TJyN90lO8Tiz5EwKTX8i9EyWUYNXjt24oZ-quTmdahe29rwa-IApbTPM-dYAqWTd6CwdGU_E5AxfiBxbpmljfTWmvA7iexnkY-4onvw-fBNzYOgytu5hgspft5xmMyB5zNi-NdnzE3ED1Ydw1SKfRsheUTus_4BEeU9t2jvvldQsYUrt_tW_wvxovck7dk6dhhGOOzupCJDTF7NeBC-tdETfhj8_ueerdNMhZ0Mw_LU-g3xddoDXHthKTdh2-WKVEE0qYc7VklsVgxClirc_ZsVE3F3pljAWngEooCP_wCmnQdfWdd9ec0UmzxLcA3xOwScb6bD_SU_LvoMWAlQe4pLjgereZCFUHRmCCnIry3l2su65tYW1yVtv06EzN7dWoFkfsOXtDk1Iz8rtVE9wnIDYyYuldWbZfrThcEetDTvWVdmR7VjcxlspEwVZXgwuxpW7KXNa3FpyoCMNOPVJsPMrsYjmlAeyBTucmy7aSlZTlUM2HDk67UA7sJt8vkD2k9t8XWXz8olOZCeC_5yLz9fUk2vFZ5n5n-5j5xsw-28dwietLGTkzz-n-4uSqz7esz0XxW_1ngBUBsp_E3YxDsHJBet93AW6S8yhI36foFoXMq2oosBqv6yWFWXvuvby9rR2JkeOUtB20XzLDt4aRvA1b-ilp4xnptN9vLj4zRyZy0]--></g></svg>