<svg xmlns="http://www.w3.org/2000/svg" xmlns:xlink="http://www.w3.org/1999/xlink" contentStyleType="text/css" data-diagram-type="CLASS" height="898px" preserveAspectRatio="none" style="width:1062px;height:898px;background:#24273A;" version="1.1" viewBox="0 0 1062 898" width="1062px" zoomAndPan="magnify"><defs/><g><rect fill="#24273A" height="898" style="stroke:none;stroke-width:1;" width="1062" x="0" y="0"/><g class="entity" data-entity="ArityNote" data-source-line="5" data-uid="ent0002" id="entity_ArityNote"><path d="M380.7089,7.5 L380.7089,47.1882 A1.5,1.5 0 0 0 382.2089,48.6882 L681.8389,48.6882 A1.5,1.5 0 0 0 683.3389,47.1882 L683.3389,16 L673.3389,6 L382.2089,6 A1.5,1.5 0 0 0 380.7089,7.5" fill="#EED49F" style="stroke:#24273A;stroke-width:0.5;"/><path d="M673.3389,6 L673.3389,15.25 A0.75,0.75 0 0 0 674.0889,16 L683.3389,16 L673.3389,6" fill="#EED49F" style="stroke:#24273A;stroke-width:1;"/><text fill="#24273A" font-family="Helvetica" font-size="12" lengthAdjust="spacing" textLength="231.7216" x="386.7089" y="23.8281">F extends WitnessArity&lt;TypeArity.Unary&gt;</text><text fill="#24273A" font-family="Helvetica" font-size="12" lengthAdjust="spacing" textLength="281.63" x="386.7089" y="40.1722">Witness&lt;F&gt; also implements WitnessArity&lt;Unary&gt;</text></g><!--class Kind--><g class="entity" data-entity="Kind" data-source-line="7" data-uid="ent0003" id="entity_Kind"><rect fill="#24273A" height="31.792" rx="1.5" ry="1.5" style="stroke:#C6A0F6;stroke-width:2;" width="133.8086" x="127.1189" y="325.2"/><rect fill="#363A4F" height="31.792" rx="1.5" ry="1.5" style="stroke:#363A4F;stroke-width:2;" width="133.8086" x="127.1189" y="325.2"/><rect fill="#363A4F" height="1.5" style="stroke:#363A4F;stroke-width:2;" width="133.8086" x="127.1189" y="355.492"/><rect fill="none" height="31.792" rx="1.5" ry="1.5" style="stroke:#C6A0F6;stroke-width:2;" width="133.8086" x="127.1189" y="325.2"/><ellipse cx="141.1189" cy="341.096" fill="#B4A7E5" rx="10" ry="10" style="stroke:#181818;stroke-width:1;"/><path d="M138.697,345.596 L138.697,344.3929 L140.3689,344.2054 L140.3689,338.4241 L138.697,338.221 L138.697,337.0335 L143.7439,337.0335 L143.7439,338.221 L142.0408,338.4241 L142.0408,344.2054 L143.7439,344.3929 L143.7439,345.596 L138.697,345.596 Z " fill="#CAD3F5"/><text fill="#A6DA95" font-family="Helvetica" font-size="16" font-style="italic" lengthAdjust="spacing" textLength="31.6481" x="154.1189" y="347.304">Kind</text><rect fill="#24273A" height="18.3441" style="stroke:#C6A0F6;stroke-width:1;stroke-dasharray:2,2;" width="70.1605" x="193.767" y="322.2"/><text fill="#CAD3F5" font-family="Helvetica" font-size="12" font-style="italic" lengthAdjust="spacing" textLength="68.1605" x="194.767" y="336.0281">F_HKT, A_VAL</text></g><!--class Monad--><g class="entity" data-entity="Monad" data-source-line="8" data-uid="ent0004" id="entity_Monad"><rect fill="#24273A" height="31.792" rx="1.5" ry="1.5" style="stroke:#C6A0F6;stroke-width:2;" width="115.4603" x="747.2889" y="861.05"/><rect fill="#363A4F" height="31.792" rx="1.5" ry="1.5" style="stroke:#363A4F;stroke-width:2;" width="115.4603" x="747.2889" y="861.05"/><rect fill="#363A4F" height="1.5" style="stroke:#363A4F;stroke-width:2;" width="115.4603" x="747.2889" y="891.342"/><rect fill="none" height="31.792" rx="1.5" ry="1.5" style="stroke:#C6A0F6;stroke-width:2;" width="115.4603" x="747.2889" y="861.05"/><ellipse cx="761.2889" cy="876.946" fill="#B4A7E5" rx="10" ry="10" style="stroke:#181818;stroke-width:1;"/><path d="M758.867,881.446 L758.867,880.2429 L760.5389,880.0554 L760.5389,874.2741 L758.867,874.071 L758.867,872.8835 L763.9139,872.8835 L763.9139,874.071 L762.2108,874.2741 L762.2108,880.0554 L763.9139,880.2429 L763.9139,881.446 L758.867,881.446 Z " fill="#CAD3F5"/><text fill="#A6DA95" font-family="Helvetica" font-size="16" font-style="italic" lengthAdjust="spacing" textLength="50.0801" x="774.2889" y="883.154">Monad</text><rect fill="#24273A" height="18.3441" style="stroke:#C6A0F6;stroke-width:1;stroke-dasharray:2,2;" width="33.3802" x="832.369" y="858.05"/><text fill="#CAD3F5" font-family="Helvetica" font-size="12" font-style="italic" lengthAdjust="spacing" textLength="31.3802" x="833.369" y="871.8781">F_HKT</text></g><!--class MonadError--><g class="entity" data-entity="MonadError" data-source-line="9" data-uid="ent0005" id="entity_MonadError"><rect fill="#24273A" height="31.792" rx="1.5" ry="1.5" style="stroke:#C6A0F6;stroke-width:2;" width="188.8167" x="718.6089" y="11.45"/><rect fill="#363A4F" height="31.792" rx="1.5" ry="1.5" style="stroke:#363A4F;stroke-width:2;" width="188.8167" x="718.6089" y="11.45"/><rect fill="#363A4F" height="1.5" style="stroke:#363A4F;stroke-width:2;" width="188.8167" x="718.6089" y="41.742"/><rect fill="none" height="31.792" rx="1.5" ry="1.5" style="stroke:#C6A0F6;stroke-width:2;" width="188.8167" x="718.6089" y="11.45"/><ellipse cx="732.6089" cy="27.346" fill="#B4A7E5" rx="10" ry="10" style="stroke:#181818;stroke-width:1;"/><path d="M730.187,31.846 L730.187,30.6429 L731.8589,30.4554 L731.8589,24.6741 L730.187,24.471 L730.187,23.2835 L735.2339,23.2835 L735.2339,24.471 L733.5308,24.6741 L733.5308,30.4554 L735.2339,30.6429 L735.2339,31.846 L730.187,31.846 Z " fill="#CAD3F5"/><text fill="#A6DA95" font-family="Helvetica" font-size="16" font-style="italic" lengthAdjust="spacing" textLength="86.4162" x="745.6089" y="33.554">MonadError</text><rect fill="#24273A" height="18.3441" style="stroke:#C6A0F6;stroke-width:1;stroke-dasharray:2,2;" width="70.4005" x="840.0251" y="8.45"/><text fill="#CAD3F5" font-family="Helvetica" font-size="12" font-style="italic" lengthAdjust="spacing" textLength="68.4005" x="841.0251" y="22.2781">F_HKT, E_ERR</text></g><!--class OptionalT--><g class="entity" data-entity="OptionalT" data-source-line="11" data-uid="ent0006" id="entity_OptionalT"><rect fill="#24273A" height="174.545" rx="1.5" ry="1.5" style="stroke:#C6A0F6;stroke-width:2;" width="499.9514" x="347.0389" y="625.5"/><rect fill="#363A4F" height="48.1362" rx="1.5" ry="1.5" style="stroke:#363A4F;stroke-width:2;" width="499.9514" x="347.0389" y="625.5"/><rect fill="#363A4F" height="1.5" style="stroke:#363A4F;stroke-width:2;" width="499.9514" x="347.0389" y="672.1362"/><rect fill="none" height="174.545" rx="1.5" ry="1.5" style="stroke:#C6A0F6;stroke-width:2;" width="499.9514" x="347.0389" y="625.5"/><ellipse cx="544.7804" cy="649.5681" fill="#ADD1B2" rx="10" ry="10" style="stroke:#181818;stroke-width:1;"/><path d="M544.4992,654.1931 Q543.2492,654.1931 542.4523,653.6775 Q541.6554,653.1462 541.2648,652.1931 Q540.8742,651.24 540.8742,649.9587 Q540.8742,648.5368 541.3429,647.5212 Q541.8117,646.49 542.7179,645.9431 Q543.6242,645.3806 544.9367,645.3806 Q545.5617,645.3806 546.0304,645.5056 Q546.5148,645.6306 546.9992,645.865 L546.4211,647.3025 Q545.9836,647.0681 545.5929,646.99 Q545.2179,646.9118 544.8742,646.9118 Q544.0461,646.9118 543.5461,647.2868 Q543.0617,647.6462 542.8429,648.3181 Q542.6398,648.99 542.6398,649.8962 Q542.6398,651.3025 543.1398,651.99 Q543.6554,652.6618 544.7804,652.6618 Q545.2023,652.6618 545.6398,652.5525 Q546.0773,652.4431 546.6711,652.1775 L546.6711,653.74 Q546.1554,653.9743 545.5929,654.0837 Q545.0304,654.1931 544.4992,654.1931 Z " fill="#CAD3F5"/><text fill="#CAD3F5" font-family="Helvetica" font-size="12" font-style="italic" lengthAdjust="spacing" textLength="46.1283" x="577.6203" y="643.3281">&#171;record&#187;</text><text fill="#A6DA95" font-family="Helvetica" font-size="16" lengthAdjust="spacing" textLength="73.8082" x="563.7804" y="663.9481">OptionalT</text><rect fill="#24273A" height="18.3441" style="stroke:#C6A0F6;stroke-width:1;stroke-dasharray:2,2;" width="20.6601" x="829.3301" y="622.5"/><text fill="#CAD3F5" font-family="Helvetica" font-size="12" font-style="italic" lengthAdjust="spacing" textLength="18.6601" x="830.3301" y="636.3281">F, A</text><line style="stroke:#C6A0F6;stroke-width:2;" x1="348.0389" x2="845.9903" y1="673.6362" y2="673.6362"/><ellipse cx="358.0389" cy="687.3082" fill="none" rx="3" ry="3" style="stroke:#038048;stroke-width:1;"/><text fill="#A6DA95" font-family="Helvetica" font-size="12" lengthAdjust="spacing" textLength="215.3535" x="366.0389" y="690.4642">@NonNull Kind&lt;F, Optional&lt;A&gt;&gt; value</text><ellipse cx="358.0389" cy="723.9964" fill="#84BE84" rx="3" ry="3" style="stroke:#038048;stroke-width:1;"/><text fill="#A6DA95" font-family="Helvetica" font-size="12" lengthAdjust="spacing" textLength="377.6426" x="366.0389" y="727.1525">static &lt;F, A&gt; OptionalT&lt;F, A&gt; fromKind(Kind&lt;F, Optional&lt;A&gt;&gt; value)</text><ellipse cx="358.0389" cy="740.3406" fill="#84BE84" rx="3" ry="3" style="stroke:#038048;stroke-width:1;"/><text fill="#A6DA95" font-family="Helvetica" font-size="12" lengthAdjust="spacing" textLength="327.4463" x="366.0389" y="743.4966">static &lt;F, A&gt; OptionalT&lt;F, A&gt; some(Monad&lt;F&gt; monad, A a)</text><ellipse cx="358.0389" cy="756.6847" fill="#84BE84" rx="3" ry="3" style="stroke:#038048;stroke-width:1;"/><text fill="#A6DA95" font-family="Helvetica" font-size="12" lengthAdjust="spacing" textLength="301.4541" x="366.0389" y="759.8407">static &lt;F, A&gt; OptionalT&lt;F, A&gt; none(Monad&lt;F&gt; monad)</text><ellipse cx="358.0389" cy="773.0288" fill="#84BE84" rx="3" ry="3" style="stroke:#038048;stroke-width:1;"/><text fill="#A6DA95" font-family="Helvetica" font-size="12" lengthAdjust="spacing" textLength="474.9514" x="366.0389" y="776.1848">static &lt;F, A&gt; OptionalT&lt;F, A&gt; fromOptional(Monad&lt;F&gt; monad, Optional&lt;A&gt; optional)</text><ellipse cx="358.0389" cy="789.3729" fill="#84BE84" rx="3" ry="3" style="stroke:#038048;stroke-width:1;"/><text fill="#A6DA95" font-family="Helvetica" font-size="12" lengthAdjust="spacing" textLength="373.0706" x="366.0389" y="792.5289">static &lt;F, A&gt; OptionalT&lt;F, A&gt; liftF(Monad&lt;F&gt; monad, Kind&lt;F, A&gt; fa)</text><line style="stroke:#C6A0F6;stroke-width:1;" x1="348.0389" x2="571.5744" y1="706.1523" y2="706.1523"/><text fill="#A6DA95" font-family="Helvetica" font-size="12" lengthAdjust="spacing" textLength="50.8804" x="571.5744" y="710.3084">Factories</text><line style="stroke:#C6A0F6;stroke-width:1;" x1="622.4548" x2="845.9903" y1="706.1523" y2="706.1523"/></g><!--class OptionalTKind--><g class="entity" data-entity="OptionalTKind" data-source-line="12" data-uid="ent0007" id="entity_OptionalTKind"><rect fill="#24273A" height="72.4803" rx="1.5" ry="1.5" style="stroke:#C6A0F6;stroke-width:2;" width="222.7695" x="304.6389" y="492.02"/><rect fill="#363A4F" height="31.792" rx="1.5" ry="1.5" style="stroke:#363A4F;stroke-width:2;" width="222.7695" x="304.6389" y="492.02"/><rect fill="#363A4F" height="1.5" style="stroke:#363A4F;stroke-width:2;" width="222.7695" x="304.6389" y="522.312"/><rect fill="none" height="72.4803" rx="1.5" ry="1.5" style="stroke:#C6A0F6;stroke-width:2;" width="222.7695" x="304.6389" y="492.02"/><ellipse cx="349.9975" cy="507.916" fill="#B4A7E5" rx="10" ry="10" style="stroke:#181818;stroke-width:1;"/><path d="M347.5756,512.416 L347.5756,511.2129 L349.2475,511.0254 L349.2475,505.2441 L347.5756,505.041 L347.5756,503.8535 L352.6225,503.8535 L352.6225,505.041 L350.9193,505.2441 L350.9193,511.0254 L352.6225,511.2129 L352.6225,512.416 L347.5756,512.416 Z " fill="#CAD3F5"/><text fill="#A6DA95" font-family="Helvetica" font-size="16" font-style="italic" lengthAdjust="spacing" textLength="101.3922" x="368.9975" y="514.124">OptionalTKind</text><rect fill="#24273A" height="18.3441" style="stroke:#C6A0F6;stroke-width:1;stroke-dasharray:2,2;" width="20.6601" x="509.7483" y="489.02"/><text fill="#CAD3F5" font-family="Helvetica" font-size="12" font-style="italic" lengthAdjust="spacing" textLength="18.6601" x="510.7483" y="502.8481">F, A</text><line style="stroke:#C6A0F6;stroke-width:2;" x1="305.6389" x2="526.4084" y1="523.812" y2="523.812"/><text fill="#A6DA95" font-family="Helvetica" font-size="12" lengthAdjust="spacing" textLength="210.7695" x="310.6389" y="540.6401">// Witness: OptionalTKind.Witness&lt;F&gt;</text><text fill="#A6DA95" font-family="Helvetica" font-size="12" lengthAdjust="spacing" textLength="57.2644" x="310.6389" y="556.9842">// Value: A</text></g><!--class OptionalTMonad--><g class="entity" data-entity="OptionalTMonad" data-source-line="26" data-uid="ent0010" id="entity_OptionalTMonad"><rect fill="#24273A" height="80.4803" rx="1.5" ry="1.5" style="stroke:#C6A0F6;stroke-width:2;" width="365.0944" x="630.4689" y="109.69"/><rect fill="#363A4F" height="31.792" rx="1.5" ry="1.5" style="stroke:#363A4F;stroke-width:2;" width="365.0944" x="630.4689" y="109.69"/><rect fill="#363A4F" height="1.5" style="stroke:#363A4F;stroke-width:2;" width="365.0944" x="630.4689" y="139.982"/><rect fill="none" height="80.4803" rx="1.5" ry="1.5" style="stroke:#C6A0F6;stroke-width:2;" width="365.0944" x="630.4689" y="109.69"/><ellipse cx="720.5158" cy="125.586" fill="#ADD1B2" rx="10" ry="10" style="stroke:#181818;stroke-width:1;"/><path d="M720.2346,130.211 Q718.9846,130.211 718.1877,129.6954 Q717.3908,129.1641 717.0002,128.211 Q716.6096,127.2579 716.6096,125.9766 Q716.6096,124.5548 717.0783,123.5391 Q717.5471,122.5079 718.4533,121.961 Q719.3596,121.3985 720.6721,121.3985 Q721.2971,121.3985 721.7658,121.5235 Q722.2502,121.6485 722.7346,121.8829 L722.1564,123.3204 Q721.7189,123.086 721.3283,123.0079 Q720.9533,122.9298 720.6096,122.9298 Q719.7814,122.9298 719.2814,123.3048 Q718.7971,123.6641 718.5783,124.336 Q718.3752,125.0079 718.3752,125.9141 Q718.3752,127.3204 718.8752,128.0079 Q719.3908,128.6798 720.5158,128.6798 Q720.9377,128.6798 721.3752,128.5704 Q721.8127,128.461 722.4064,128.1954 L722.4064,129.7579 Q721.8908,129.9923 721.3283,130.1016 Q720.7658,130.211 720.2346,130.211 Z " fill="#CAD3F5"/><text fill="#A6DA95" font-family="Helvetica" font-size="16" lengthAdjust="spacing" textLength="126.7043" x="739.5158" y="131.794">OptionalTMonad</text><rect fill="#24273A" height="18.3441" style="stroke:#C6A0F6;stroke-width:1;stroke-dasharray:2,2;" width="48.2963" x="950.267" y="106.69"/><text fill="#CAD3F5" font-family="Helvetica" font-size="12" font-style="italic" lengthAdjust="spacing" textLength="46.2963" x="951.267" y="120.5181">F_OUTER</text><line style="stroke:#C6A0F6;stroke-width:2;" x1="631.4689" x2="994.5633" y1="141.482" y2="141.482"/><rect fill="none" height="6" style="stroke:#C82930;stroke-width:1;" width="6" x="638.4689" y="152.1541"/><text fill="#A6DA95" font-family="Helvetica" font-size="12" lengthAdjust="spacing" textLength="265.4539" x="649.4689" y="158.3101">final @NonNull Monad&lt;F_OUTER&gt; outerMonad</text><line style="stroke:#C6A0F6;stroke-width:2;" x1="631.4689" x2="994.5633" y1="165.8262" y2="165.8262"/><ellipse cx="641.4689" cy="179.4982" fill="#84BE84" rx="3" ry="3" style="stroke:#038048;stroke-width:1;"/><text fill="#A6DA95" font-family="Helvetica" font-size="12" lengthAdjust="spacing" textLength="340.0944" x="649.4689" y="182.6542">OptionalTMonad(@NonNull Monad&lt;F_OUTER&gt; outerMonad)</text></g><!--class OptionalTKindHelper--><g class="entity" data-entity="OptionalTKindHelper" data-source-line="32" data-uid="ent0012" id="entity_OptionalTKindHelper"><rect fill="#24273A" height="145.8567" rx="1.5" ry="1.5" style="stroke:#C6A0F6;stroke-width:2;" width="464.179" x="295.9289" y="268.17"/><rect fill="#363A4F" height="31.792" rx="1.5" ry="1.5" style="stroke:#363A4F;stroke-width:2;" width="464.179" x="295.9289" y="268.17"/><rect fill="#363A4F" height="1.5" style="stroke:#363A4F;stroke-width:2;" width="464.179" x="295.9289" y="298.462"/><rect fill="none" height="145.8567" rx="1.5" ry="1.5" style="stroke:#C6A0F6;stroke-width:2;" width="464.179" x="295.9289" y="268.17"/><ellipse cx="444.9942" cy="284.066" fill="#ADD1B2" rx="10" ry="10" style="stroke:#181818;stroke-width:1;"/><path d="M444.713,288.691 Q443.463,288.691 442.6661,288.1754 Q441.8692,287.6441 441.4786,286.691 Q441.088,285.7379 441.088,284.4566 Q441.088,283.0348 441.5567,282.0191 Q442.0255,280.9879 442.9317,280.441 Q443.838,279.8785 445.1505,279.8785 Q445.7755,279.8785 446.2442,280.0035 Q446.7286,280.1285 447.213,280.3629 L446.6349,281.8004 Q446.1974,281.566 445.8067,281.4879 Q445.4317,281.4098 445.088,281.4098 Q444.2599,281.4098 443.7599,281.7848 Q443.2755,282.1441 443.0567,282.816 Q442.8536,283.4879 442.8536,284.3941 Q442.8536,285.8004 443.3536,286.4879 Q443.8692,287.1598 444.9942,287.1598 Q445.4161,287.1598 445.8536,287.0504 Q446.2911,286.941 446.8849,286.6754 L446.8849,288.2379 Q446.3692,288.4723 445.8067,288.5816 Q445.2442,288.691 444.713,288.691 Z " fill="#CAD3F5"/><text fill="#A6DA95" font-family="Helvetica" font-size="16" lengthAdjust="spacing" textLength="158.0483" x="463.9942" y="290.274">OptionalTKindHelper</text><line style="stroke:#C6A0F6;stroke-width:2;" x1="296.9289" x2="759.1079" y1="299.962" y2="299.962"/><text fill="#A6DA95" font-family="Helvetica" font-size="12" lengthAdjust="spacing" textLength="232.7657" x="301.9289" y="316.7901">note right of OptionalTKindHelper::widen</text><text fill="#A6DA95" font-family="Helvetica" font-size="12" lengthAdjust="spacing" textLength="170.7972" x="301.9289" y="333.1342">Uses internal OptionalTHolder</text><text fill="#A6DA95" font-family="Helvetica" font-size="12" lengthAdjust="spacing" textLength="50.4604" x="301.9289" y="349.4784">end note</text><line style="stroke:#C6A0F6;stroke-width:2;" x1="296.9289" x2="759.1079" y1="356.9944" y2="356.9944"/><ellipse cx="306.9289" cy="370.6664" fill="#84BE84" rx="3" ry="3" style="stroke:#038048;stroke-width:1;"/><text fill="#A6DA95" font-family="Helvetica" font-size="12" lengthAdjust="spacing" textLength="439.179" x="314.9289" y="373.8225">static &lt;F, A&gt; OptionalT&lt;F, A&gt; narrow(Kind&lt;OptionalTKind.Witness&lt;F&gt;, A&gt; kind)</text><ellipse cx="306.9289" cy="387.0106" fill="#84BE84" rx="3" ry="3" style="stroke:#038048;stroke-width:1;"/><text fill="#A6DA95" font-family="Helvetica" font-size="12" lengthAdjust="spacing" textLength="374.9307" x="314.9289" y="390.1666">static &lt;F, A&gt; OptionalTKind&lt;F, A&gt; widen(OptionalT&lt;F, A&gt; optionalT)</text><text fill="#A6DA95" font-family="Helvetica" font-size="12" lengthAdjust="spacing" textLength="127.9329" x="314.9289" y="406.5107">(not shown for brevity)</text></g><!--reverse link OptionalTKind to OptionalT--><g class="link" data-entity-1="OptionalTKind" data-entity-2="OptionalT" data-source-line="12" data-uid="lnk8" id="link_OptionalTKind_OptionalT"><path d="M464.0251,577.6695 C481.2051,594.9895 489.9989,603.86 511.1289,625.17" fill="none" id="OptionalTKind-backto-OptionalT" style="stroke:#F5BDE6;stroke-width:1;stroke-dasharray:7,7;"/><polygon fill="none" points="451.3489,564.89,459.7652,581.8949,468.2849,573.4441,451.3489,564.89" style="stroke:#F5BDE6;stroke-width:1;"/></g><!--reverse link Kind to OptionalTKind--><g class="link" data-entity-1="Kind" data-entity-2="OptionalTKind" data-source-line="22" data-uid="lnk9" id="link_Kind_OptionalTKind"><path d="M225.2483,369.1291 C242.1783,383.7591 254.9189,394.66 278.0189,414.02 C309.2489,440.2 344.8089,469.37 372.0089,491.54" fill="none" id="Kind-backto-OptionalTKind" style="stroke:#F5BDE6;stroke-width:1;"/><polygon fill="none" points="211.6289,357.36,221.3252,373.6689,229.1713,364.5893,211.6289,357.36" style="stroke:#F5BDE6;stroke-width:1;"/></g><!--reverse link MonadError to OptionalTMonad--><g class="link" data-entity-1="MonadError" data-entity-2="OptionalTMonad" data-source-line="27" data-uid="lnk11" id="link_MonadError_OptionalTMonad"><path d="M813.0189,61.61 C813.0189,78.03 813.0189,86.78 813.0189,109.22" fill="none" id="MonadError-backto-OptionalTMonad" style="stroke:#F5BDE6;stroke-width:1;stroke-dasharray:7,7;"/><polygon fill="none" points="813.0189,43.61,807.0189,61.61,819.0189,61.61,813.0189,43.61" style="stroke:#F5BDE6;stroke-width:1;"/></g><!--reverse link OptionalTMonad to Monad--><g class="link" data-entity-1="OptionalTMonad" data-entity-2="Monad" data-source-line="44" data-uid="lnk13" id="link_OptionalTMonad_Monad"><path codeLine="44" d="M877.0338,198.3063 C917.7338,232.7063 957.0189,278.8 957.0189,340.09 C957.0189,340.09 957.0189,340.09 957.0189,713.78 C957.0189,784.01 880.1889,836.34 835.7789,860.73" fill="none" id="OptionalTMonad-backto-Monad" style="stroke:#F5BDE6;stroke-width:1;"/><polygon fill="#F5BDE6" points="867.8689,190.56,869.8693,197.4881,877.0338,198.3063,875.0334,191.3782,867.8689,190.56" style="stroke:#F5BDE6;stroke-width:1;"/><text fill="#CAD3F5" font-family="Helvetica" font-size="12" lengthAdjust="spacing" textLength="184.6333" x="870.3942" y="850.7957">outerMonad (Monad&lt;F_OUTER&gt;)</text></g><!--link OptionalTMonad to OptionalTKindHelper--><g class="link" data-entity-1="OptionalTMonad" data-entity-2="OptionalTKindHelper" data-source-line="45" data-uid="lnk14" id="link_OptionalTMonad_OptionalTKindHelper"><path codeLine="45" d="M753.2689,190.58 C719.5689,212.95 681.4078,238.2817 641.9078,264.5017" fill="none" id="OptionalTMonad-to-OptionalTKindHelper" style="stroke:#F5BDE6;stroke-width:1;stroke-dasharray:7,7;"/><polygon fill="#F5BDE6" points="636.9089,267.82,646.6194,266.1752,641.0747,265.0548,642.1951,259.51,636.9089,267.82" style="stroke:#F5BDE6;stroke-width:1;"/><text fill="#CAD3F5" font-family="Helvetica" font-size="12" lengthAdjust="spacing" textLength="25.6802" x="705.4289" y="233.9981">uses</text></g><!--link OptionalTMonad to OptionalT--><g class="link" data-entity-1="OptionalTMonad" data-entity-2="OptionalT" data-source-line="46" data-uid="lnk15" id="link_OptionalTMonad_OptionalT"><path codeLine="46" d="M812.7789,190.44 C811.3589,242.96 804.8489,337.98 778.0189,414.02 C751.0989,490.32 706.3411,563.2556 666.4511,620.2056" fill="none" id="OptionalTMonad-to-OptionalT" style="stroke:#F5BDE6;stroke-width:1;stroke-dasharray:7,7;"/><polygon fill="#F5BDE6" points="663.0089,625.12,671.4485,620.0432,665.8774,621.0247,664.896,615.4536,663.0089,625.12" style="stroke:#F5BDE6;stroke-width:1;"/><text fill="#CAD3F5" font-family="Helvetica" font-size="12" lengthAdjust="spacing" textLength="119.5089" x="767.2689" y="457.8481">creates / operates on</text></g><!--link OptionalTKindHelper to OptionalT--><g class="link" data-entity-1="OptionalTKindHelper" data-entity-2="OptionalT" data-source-line="48" data-uid="lnk16" id="link_OptionalTKindHelper_OptionalT"><path codeLine="48" d="M553.1589,414.31 C556.0889,424.22 558.8189,434.32 561.0189,444.02 C574.6089,503.82 583.059,566.4242 588.719,619.1942" fill="none" id="OptionalTKindHelper-to-OptionalT" style="stroke:#F5BDE6;stroke-width:1;stroke-dasharray:7,7;"/><polygon fill="#F5BDE6" points="589.3589,625.16,592.3763,615.7847,588.8257,620.1885,584.4219,616.6379,589.3589,625.16" style="stroke:#F5BDE6;stroke-width:1;"/><text fill="#CAD3F5" font-family="Helvetica" font-size="12" lengthAdjust="spacing" textLength="92.6647" x="582.9089" y="533.0881">narrow() returns</text></g><!--link OptionalTKindHelper to OptionalTKind--><g class="link" data-entity-1="OptionalTKindHelper" data-entity-2="OptionalTKind" data-source-line="49" data-uid="lnk17" id="link_OptionalTKindHelper_OptionalTKind"><path codeLine="49" d="M484.2389,414.48 C468.2189,440.96 453.9155,464.6169 440.6855,486.4769" fill="none" id="OptionalTKindHelper-to-OptionalTKind" style="stroke:#F5BDE6;stroke-width:1;stroke-dasharray:7,7;"/><polygon fill="#F5BDE6" points="437.5789,491.61,445.6609,485.9814,440.1678,487.3324,438.8168,481.8392,437.5789,491.61" style="stroke:#F5BDE6;stroke-width:1;"/><text fill="#CAD3F5" font-family="Helvetica" font-size="12" lengthAdjust="spacing" textLength="86.0046" x="466.3089" y="457.8481">widen() returns</text></g><!--link OptionalT to Kind--><g class="link" data-entity-1="OptionalT" data-entity-2="Kind" data-source-line="52" data-uid="lnk18" id="link_OptionalT_Kind"><path codeLine="52" d="M364.4489,625.13 C336.0989,607.99 309.3289,587.9 287.0189,564.5 C227.6589,502.26 204.7442,402.5329 197.5942,363.2829" fill="none" id="OptionalT-to-Kind" style="stroke:#F5BDE6;stroke-width:1;stroke-dasharray:7,7;"/><polygon fill="#F5BDE6" points="196.5189,357.38,194.1966,366.9512,197.415,362.299,202.0671,365.5174,196.5189,357.38" style="stroke:#F5BDE6;stroke-width:1;"/><text fill="#CAD3F5" font-family="Helvetica" font-size="12" lengthAdjust="spacing" textLength="166.8852" x="6" y="377.6978">value is Kind&lt;F, Optional&lt;A&gt;&gt;</text></g><!--link OptionalT to Monad--><g class="link" data-entity-1="OptionalT" data-entity-2="Monad" data-source-line="53" data-uid="lnk19" id="link_OptionalT_Monad"><path codeLine="53" d="M708.0189,800.32 C737.8389,823.57 762.1469,842.521 780.5669,856.881" fill="none" id="OptionalT-to-Monad" style="stroke:#F5BDE6;stroke-width:1;stroke-dasharray:7,7;"/><polygon fill="#F5BDE6" points="785.2989,860.57,780.6603,851.8819,781.3556,857.4959,775.7416,858.1912,785.2989,860.57" style="stroke:#F5BDE6;stroke-width:1;"/><text fill="#CAD3F5" font-family="Helvetica" font-size="12" lengthAdjust="spacing" textLength="155.9891" x="599.4676" y="849.6831">factories require Monad&lt;F&gt;</text></g><!--SRC=[ZLNVRvim47xdhxZnCh85U8yGMXuILUgQI5NIlLIgNCSKQyPcjcaMLVlVTnX8W2PA8X6PytVttOzFnnSkgQXs379hIpEBOqtsqHktUVLQ6QQfafP96r5Ln98gOqd8QKo9BSkAKYx3Wb2QSs9LM0eYRLM8qEQiO751k8pTCIhHwdavHnPMbFO01IjUcJQU9vLbu2-1_KMMdO5Vt4fcp5npUqWsXvAvKxILH1_IPzbU9yiKY30AU54A991svDdWVI06d665D9x7iHIT4ShWdijTidovkzzCOVxoDF-PzYuVb2JjRT_iE_j2QwKxryNBul6neJbTUXu05SGOM9UMerbiaYNIf90acb6bTsdQJ_o8Qf9oo0-C0V0TVgoKN5L2G7VNWPCv1dadec8E6OQm9DGgpPd1bzORXsKvXJRcE9jCgw8E6roEFRafa5452zgcfL3K1xG3kSrRAZdsdjoSVsVxHD-h1LHxlYsiu9bTVehNcqtc2ljNZ_aaZdD3x3JjJ0D0TD9nRznnt8bu1fVW7V2f7iyCvbqc8y5r4bvlDul7WTfw8hx0qJfDOIkvxN8B8UC8FGbonA0gx8IpjKqUfX9SzskcynNMk39qBqtS5JPNsCP0PLCeI3c5J13xK1_gHnDkc4DE8ITo9veNB2UVNEXENUyT4oNoVBIixMlBTPjm2VBiW-lJ_OssAzhhgMQFMr86Ox9Emvk9voAvlQdvMsv1PUSgcyrS80S6s1hS2qwjzH2Fy3ibTaotc01ZWidLNaA6RN_Lx1qtPvCuwjXHDWt5_-5uuHik8FyqImY6Ovxuq6bZv1X5wTcvp00_FkOA7b5KCsAnjXWxnBGxAZb8i1TqxDnES0AQsKfBSujRRKVNPaedpm6by_3T1WLkpkvktra_EsN7BQxPduhhuzSexLg8l_y0]--></g></svg>