<?xml version="1.0" encoding="UTF-8" standalone="no"?><svg xmlns="http://www.w3.org/2000/svg" xmlns:xlink="http://www.w3.org/1999/xlink" contentScriptType="application/ecmascript" contentStyleType="text/css" height="560px" preserveAspectRatio="none" style="width:1200px;height:560px;background:#24273A;" version="1.1" viewBox="0 0 1200 560" width="1200px" zoomAndPan="magnify"><defs/><g>

<!--interface Functor--><g id="elem_Functor"><rect fill="#24273A" height="30" rx="1.5" ry="1.5" style="stroke:#C6A0F6;stroke-width:2.0;" width="100" x="850" y="20"/><rect fill="#363A4F" height="30" rx="1.5" ry="1.5" style="stroke:#363A4F;stroke-width:2.0;" width="100" x="850" y="20"/><ellipse cx="865" cy="35" fill="#B4A7E5" rx="10" ry="10" style="stroke:#181818;stroke-width:1.0;"/><text fill="#A6DA95" font-family="Helvetica" font-size="16" font-style="italic" x="880" y="40">Functor&lt;F&gt;</text></g>

<!--interface Monad--><g id="elem_Monad"><rect fill="#24273A" height="30" rx="1.5" ry="1.5" style="stroke:#C6A0F6;stroke-width:2.0;" width="100" x="550" y="100"/><rect fill="#363A4F" height="30" rx="1.5" ry="1.5" style="stroke:#363A4F;stroke-width:2.0;" width="100" x="550" y="100"/><ellipse cx="565" cy="115" fill="#B4A7E5" rx="10" ry="10" style="stroke:#181818;stroke-width:1.0;"/><text fill="#A6DA95" font-family="Helvetica" font-size="16" font-style="italic" x="580" y="120">Monad&lt;F&gt;</text></g>

<!--class FreeFunctor--><g id="elem_FreeFunctor"><rect fill="#24273A" height="50" rx="1.5" ry="1.5" style="stroke:#C6A0F6;stroke-width:2.0;" width="600" x="600" y="100"/><rect fill="#363A4F" height="30" rx="1.5" ry="1.5" style="stroke:#363A4F;stroke-width:2.0;" width="600" x="600" y="100"/><ellipse cx="720" cy="115" fill="#ADD1B2" rx="10" ry="10" style="stroke:#181818;stroke-width:1.0;"/><text fill="#A6DA95" font-family="Helvetica" font-size="16" x="735" y="120">FreeFunctor&lt;F&gt;</text><line style="stroke:#C6A0F6;stroke-width:2.0;" x1="601" x2="1199" y1="130" y2="130"/><ellipse cx="611" cy="142" fill="#84BE84" rx="3" ry="3" style="stroke:#038048;stroke-width:1.0;"/><text fill="#A6DA95" font-family="Helvetica" font-size="12" text-decoration="line-through" x="620" y="145">Kind&lt;FreeKind.Witness&lt;F&gt;, B&gt; map(Function&lt;A, B&gt; f, Kind&lt;FreeKind.Witness&lt;F&gt;, A&gt; fa)</text></g>

<!--class FreeMonad--><g id="elem_FreeMonad"><rect fill="#24273A" height="82" rx="1.5" ry="1.5" style="stroke:#C6A0F6;stroke-width:2.0;" width="650" x="200" y="220"/><rect fill="#363A4F" height="30" rx="1.5" ry="1.5" style="stroke:#363A4F;stroke-width:2.0;" width="650" x="200" y="220"/><ellipse cx="300" cy="235" fill="#ADD1B2" rx="10" ry="10" style="stroke:#181818;stroke-width:1.0;"/><text fill="#A6DA95" font-family="Helvetica" font-size="16" x="315" y="240">FreeMonad&lt;F&gt;</text><line style="stroke:#C6A0F6;stroke-width:2.0;" x1="201" x2="849" y1="250" y2="250"/><ellipse cx="211" cy="262" fill="#84BE84" rx="3" ry="3" style="stroke:#038048;stroke-width:1.0;"/><text fill="#A6DA95" font-family="Helvetica" font-size="12" text-decoration="line-through" x="220" y="265">Kind&lt;FreeKind.Witness&lt;F&gt;, A&gt; of(A value)</text><ellipse cx="211" cy="278" fill="#84BE84" rx="3" ry="3" style="stroke:#038048;stroke-width:1.0;"/><text fill="#A6DA95" font-family="Helvetica" font-size="12" text-decoration="line-through" x="220" y="281">Kind&lt;FreeKind.Witness&lt;F&gt;, B&gt; flatMap(Function&lt;A, Kind&lt;FreeKind.Witness&lt;F&gt;, B&gt;&gt; f, Kind&lt;FreeKind.Witness&lt;F&gt;, A&gt; ma)</text><ellipse cx="211" cy="294" fill="#84BE84" rx="3" ry="3" style="stroke:#038048;stroke-width:1.0;"/><text fill="#A6DA95" font-family="Helvetica" font-size="12" text-decoration="line-through" x="220" y="297">Kind&lt;FreeKind.Witness&lt;F&gt;, B&gt; ap(Kind&lt;FreeKind.Witness&lt;F&gt;, Function&lt;A, B&gt;&gt; ff, Kind&lt;FreeKind.Witness&lt;F&gt;, A&gt; fa)</text></g>

<!--class FreeKind--><g id="elem_FreeKind"><rect fill="#24273A" height="30" rx="1.5" ry="1.5" style="stroke:#C6A0F6;stroke-width:2.0;" width="150" x="180" y="410"/><rect fill="#363A4F" height="30" rx="1.5" ry="1.5" style="stroke:#363A4F;stroke-width:2.0;" width="150" x="180" y="410"/><ellipse cx="195" cy="425" fill="#B4A7E5" rx="10" ry="10" style="stroke:#181818;stroke-width:1.0;"/><text fill="#A6DA95" font-family="Helvetica" font-size="16" font-style="italic" x="210" y="430">FreeKind&lt;F, A&gt;</text></g>

<!--class Free--><g id="elem_Free"><rect fill="#24273A" height="108" rx="1.5" ry="1.5" style="stroke:#C6A0F6;stroke-width:2.0;" width="450" x="425" y="376"/><rect fill="#363A4F" height="30" rx="1.5" ry="1.5" style="stroke:#363A4F;stroke-width:2.0;" width="450" x="425" y="376"/><ellipse cx="485" cy="391" fill="#B4A7E5" rx="10" ry="10" style="stroke:#181818;stroke-width:1.0;"/><text fill="#CAD3F5" font-family="Helvetica" font-size="12" font-style="italic" x="500" y="389">«sealed interface»</text><text fill="#A6DA95" font-family="Helvetica" font-size="16" font-style="italic" x="530" y="401">Free&lt;F, A&gt;</text><line style="stroke:#C6A0F6;stroke-width:2.0;" x1="426" x2="874" y1="406" y2="406"/><ellipse cx="436" cy="418" fill="#84BE84" rx="3" ry="3" style="stroke:#038048;stroke-width:1.0;"/><text fill="#A6DA95" font-family="Helvetica" font-size="12" text-decoration="underline" x="445" y="421">Free&lt;F, A&gt; pure(A value)</text><ellipse cx="436" cy="434" fill="#84BE84" rx="3" ry="3" style="stroke:#038048;stroke-width:1.0;"/><text fill="#A6DA95" font-family="Helvetica" font-size="12" text-decoration="underline" x="445" y="437">Free&lt;F, A&gt; liftF(Kind&lt;F, A&gt; fa, Functor&lt;F&gt; functor)</text><ellipse cx="436" cy="450" fill="#84BE84" rx="3" ry="3" style="stroke:#038048;stroke-width:1.0;"/><text fill="#A6DA95" font-family="Helvetica" font-size="12" x="445" y="453">Free&lt;F, B&gt; map(Function&lt;A, B&gt; f)</text><ellipse cx="436" cy="466" fill="#84BE84" rx="3" ry="3" style="stroke:#038048;stroke-width:1.0;"/><text fill="#A6DA95" font-family="Helvetica" font-size="12" x="445" y="469">Free&lt;F, B&gt; flatMap(Function&lt;A, Free&lt;F, B&gt;&gt; f)</text><ellipse cx="436" cy="478" fill="#84BE84" rx="3" ry="3" style="stroke:#038048;stroke-width:1.0;"/><text fill="#A6DA95" font-family="Helvetica" font-size="12" x="445" y="481">Kind&lt;M, A&gt; foldMap(...)</text></g>

<!--links--><path d="M900,50 L900,85 L900,100" fill="none" style="stroke:#F5BDE6;stroke-width:1.0;stroke-dasharray:7.0,7.0;"/><polygon fill="none" points="900,50,894,68,906,68,900,50" style="stroke:#F5BDE6;stroke-width:1.0;"/><text fill="#CAD3F5" font-family="Helvetica" font-size="11" x="905" y="75">implements</text>

<path d="M600,130 L600,165 L525,165 L525,220" fill="none" style="stroke:#F5BDE6;stroke-width:1.0;stroke-dasharray:7.0,7.0;"/><polygon fill="none" points="600,130,594,148,606,148,600,130" style="stroke:#F5BDE6;stroke-width:1.0;"/><text fill="#CAD3F5" font-family="Helvetica" font-size="11" x="530" y="180">implements</text>

<path d="M680,150 L680,185 L525,185 L525,220" fill="none" style="stroke:#F5BDE6;stroke-width:1.0;"/><polygon fill="none" points="680,150,674,168,686,168,680,150" style="stroke:#F5BDE6;stroke-width:1.0;"/><text fill="#CAD3F5" font-family="Helvetica" font-size="11" x="530" y="195">extends</text>

<path d="M255,302 L255,330 L255,410" fill="none" style="stroke:#F5BDE6;stroke-width:1.0;stroke-dasharray:7.0,7.0;"/><polygon fill="#F5BDE6" points="255,410,261,392,255,396,249,392,255,410" style="stroke:#F5BDE6;stroke-width:1.0;"/><text fill="#CAD3F5" font-family="Helvetica" font-size="11" x="260" y="360">operates on Kind&lt;FreeKind.Witness&lt;F&gt;, A&gt;</text>

<path d="M525,302 L525,340 L650,340 L650,376" fill="none" style="stroke:#F5BDE6;stroke-width:1.0;stroke-dasharray:7.0,7.0;"/><polygon fill="#F5BDE6" points="650,376,656,358,650,362,644,358,650,376" style="stroke:#F5BDE6;stroke-width:1.0;"/><text fill="#CAD3F5" font-family="Helvetica" font-size="11" x="530" y="350">uses methods of</text>

</g></svg>
