<svg xmlns="http://www.w3.org/2000/svg" xmlns:xlink="http://www.w3.org/1999/xlink" contentStyleType="text/css" height="525px" preserveAspectRatio="none" style="width:1254px;height:525px;background:#24273A;" version="1.1" viewBox="0 0 1254 525" width="1254px" zoomAndPan="magnify"><defs/><g><rect fill="#24273A" height="525" style="stroke:none;stroke-width:1.0;" width="1254" x="0" y="0"/><!--class Validated--><g id="elem_Validated"><rect codeLine="5" fill="#24273A" height="218" id="Validated" rx="1.5" ry="1.5" style="stroke:#C6A0F6;stroke-width:2.0;" width="602.6406" x="326" y="10"/><rect fill="#363A4F" height="30" rx="1.5" ry="1.5" style="stroke:#363A4F;stroke-width:2.0;" width="602.6406" x="326" y="10"/><rect fill="#363A4F" height="1.5" style="stroke:#363A4F;stroke-width:2.0;" width="602.6406" x="326" y="38.5"/><rect codeLine="5" fill="none" height="218" id="Validated" rx="1.5" ry="1.5" style="stroke:#C6A0F6;stroke-width:2.0;" width="602.6406" x="326" y="10"/><ellipse cx="576.623" cy="25" fill="#B4A7E5" rx="10" ry="10" style="stroke:#181818;stroke-width:1.0;"/><path d="M573.6309,22.2754 L573.6309,20.752 L578.8398,20.752 L578.8398,22.2754 L577.0996,22.2754 L577.0996,27.9766 L578.8398,27.9766 L578.8398,29.5 L573.6309,29.5 L573.6309,27.9766 L575.3711,27.9766 L575.3711,22.2754 Z " fill="#CAD3F5"/><text fill="#A6DA95" font-family="Helvetica" font-size="16" font-style="italic" lengthAdjust="spacing" textLength="66.7188" x="595.623" y="29.3203">Validated</text><rect fill="#24273A" height="14" style="stroke:#C6A0F6;stroke-width:1.0;stroke-dasharray:2.0,2.0;" width="24.6758" x="906.9648" y="7"/><text fill="#CAD3F5" font-family="Helvetica" font-size="12" font-style="italic" lengthAdjust="spacing" textLength="22.6758" x="907.9648" y="17.2402">E, A</text><line style="stroke:#C6A0F6;stroke-width:2.0;" x1="327" x2="927.6406" y1="40" y2="40"/><ellipse cx="337" cy="51.5" fill="#84BE84" rx="3" ry="3" style="stroke:#038048;stroke-width:1.0;"/><text fill="#A6DA95" font-family="Helvetica" font-size="12" font-style="italic" lengthAdjust="spacing" textLength="89.3848" x="345" y="53.2402">boolean isValid()</text><ellipse cx="337" cy="63.5" fill="#84BE84" rx="3" ry="3" style="stroke:#038048;stroke-width:1.0;"/><text fill="#A6DA95" font-family="Helvetica" font-size="12" font-style="italic" lengthAdjust="spacing" textLength="97.3887" x="345" y="65.2402">boolean isInvalid()</text><ellipse cx="337" cy="75.5" fill="#84BE84" rx="3" ry="3" style="stroke:#038048;stroke-width:1.0;"/><text fill="#A6DA95" font-family="Helvetica" font-size="12" font-style="italic" lengthAdjust="spacing" textLength="217.4355" x="345" y="77.2402">A get() throws NoSuchElementException</text><ellipse cx="337" cy="87.5" fill="#84BE84" rx="3" ry="3" style="stroke:#038048;stroke-width:1.0;"/><text fill="#A6DA95" font-family="Helvetica" font-size="12" font-style="italic" lengthAdjust="spacing" textLength="244.1016" x="345" y="89.2402">E getError() throws NoSuchElementException</text><ellipse cx="337" cy="99.5" fill="#84BE84" rx="3" ry="3" style="stroke:#038048;stroke-width:1.0;"/><text fill="#A6DA95" font-family="Helvetica" font-size="12" font-style="italic" lengthAdjust="spacing" textLength="92.0332" x="345" y="101.2402">A orElse(A other)</text><ellipse cx="337" cy="111.5" fill="#84BE84" rx="3" ry="3" style="stroke:#038048;stroke-width:1.0;"/><text fill="#A6DA95" font-family="Helvetica" font-size="12" font-style="italic" lengthAdjust="spacing" textLength="268.8164" x="345" y="113.2402">A orElseGet(Supplier&lt;? extends A&gt; otherSupplier)</text><ellipse cx="337" cy="123.5" fill="#84BE84" rx="3" ry="3" style="stroke:#038048;stroke-width:1.0;"/><text fill="#A6DA95" font-family="Helvetica" font-size="12" font-style="italic" lengthAdjust="spacing" textLength="486.9258" x="345" y="125.2402">&lt;X extends Throwable&gt; A orElseThrow(Supplier&lt;? extends X&gt; exceptionSupplier) throws X</text><ellipse cx="337" cy="135.5" fill="#84BE84" rx="3" ry="3" style="stroke:#038048;stroke-width:1.0;"/><text fill="#A6DA95" font-family="Helvetica" font-size="12" font-style="italic" lengthAdjust="spacing" textLength="242.7773" x="345" y="137.2402">void ifValid(Consumer&lt;? super A&gt; consumer)</text><ellipse cx="337" cy="147.5" fill="#84BE84" rx="3" ry="3" style="stroke:#038048;stroke-width:1.0;"/><text fill="#A6DA95" font-family="Helvetica" font-size="12" font-style="italic" lengthAdjust="spacing" textLength="250.7813" x="345" y="149.2402">void ifInvalid(Consumer&lt;? super E&gt; consumer)</text><ellipse cx="337" cy="159.5" fill="#84BE84" rx="3" ry="3" style="stroke:#038048;stroke-width:1.0;"/><text fill="#A6DA95" font-family="Helvetica" font-size="12" font-style="italic" font-weight="bold" lengthAdjust="spacing" textLength="336.0586" x="348.334" y="161.2402">Validated&lt;E, B&gt; map(Function&lt;? super A, ? extends B&gt; fn)</text><ellipse cx="337" cy="171.5" fill="#84BE84" rx="3" ry="3" style="stroke:#038048;stroke-width:1.0;"/><text fill="#A6DA95" font-family="Helvetica" font-size="12" font-style="italic" font-weight="bold" lengthAdjust="spacing" textLength="494.7715" x="348.334" y="173.2402">Validated&lt;E, B&gt; flatMap(Function&lt;? super A, ? extends Validated&lt;E, ? extends B&gt;&gt; fn)</text><ellipse cx="337" cy="183.5" fill="#84BE84" rx="3" ry="3" style="stroke:#038048;stroke-width:1.0;"/><text fill="#A6DA95" font-family="Helvetica" font-size="12" font-style="italic" font-weight="bold" lengthAdjust="spacing" textLength="460.7754" x="348.334" y="185.2402">Validated&lt;E, B&gt; ap(Validated&lt;E, Function&lt;? super A, ? extends B&gt;&gt; fnValidated)</text><ellipse cx="337" cy="195.5" fill="#84BE84" rx="3" ry="3" style="stroke:#038048;stroke-width:1.0;"/><text fill="#A6DA95" font-family="Helvetica" font-size="12" font-style="italic" lengthAdjust="spacing" textLength="577.6406" x="345" y="197.2402">&lt;T&gt; T fold(Function&lt;? super E, ? extends T&gt; invalidMapper, Function&lt;? super A, ? extends T&gt; validMapper)</text><ellipse cx="337" cy="207.5" fill="#84BE84" rx="3" ry="3" style="stroke:#038048;stroke-width:1.0;"/><text fill="#A6DA95" font-family="Helvetica" font-size="12" lengthAdjust="spacing" text-decoration="underline" textLength="202.7871" x="345" y="209.2402">&lt;E, A&gt; Validated&lt;E, A&gt; valid(A value)</text><ellipse cx="337" cy="219.5" fill="#84BE84" rx="3" ry="3" style="stroke:#038048;stroke-width:1.0;"/><text fill="#A6DA95" font-family="Helvetica" font-size="12" lengthAdjust="spacing" text-decoration="underline" textLength="208.7754" x="345" y="221.2402">&lt;E, A&gt; Validated&lt;E, A&gt; invalid(E error)</text></g><!--class Valid<E, A>(A value)--><g id="elem_Valid&lt;E, A&gt;(A value)"><rect codeLine="23" fill="#24273A" height="230" id="Valid&lt;E, A&gt;(A value)" rx="1.5" ry="1.5" style="stroke:#C6A0F6;stroke-width:2.0;" width="602.6406" x="7" y="288"/><rect fill="#363A4F" height="38" rx="1.5" ry="1.5" style="stroke:#363A4F;stroke-width:2.0;" width="602.6406" x="7" y="288"/><rect fill="#363A4F" height="1.5" style="stroke:#363A4F;stroke-width:2.0;" width="602.6406" x="7" y="324.5"/><rect codeLine="23" fill="none" height="230" id="Valid&lt;E, A&gt;(A value)" rx="1.5" ry="1.5" style="stroke:#C6A0F6;stroke-width:2.0;" width="602.6406" x="7" y="288"/><ellipse cx="230.0586" cy="307" fill="#ADD1B2" rx="10" ry="10" style="stroke:#181818;stroke-width:1.0;"/><path d="M231.8926,311.248 Q231.4824,311.459 231.0313,311.5645 Q230.5801,311.6699 230.082,311.6699 Q228.3125,311.6699 227.3809,310.5039 Q226.4492,309.3379 226.4492,307.1348 Q226.4492,304.9258 227.3809,303.7598 Q228.3125,302.5938 230.082,302.5938 Q230.5801,302.5938 231.0371,302.6992 Q231.4941,302.8047 231.8926,303.0156 L231.8926,304.9375 Q231.4473,304.5273 231.0283,304.3369 Q230.6094,304.1465 230.1641,304.1465 Q229.2148,304.1465 228.7314,304.8994 Q228.248,305.6523 228.248,307.1348 Q228.248,308.6113 228.7314,309.3643 Q229.2148,310.1172 230.1641,310.1172 Q230.6094,310.1172 231.0283,309.9268 Q231.4473,309.7363 231.8926,309.3262 Z " fill="#CAD3F5"/><text fill="#CAD3F5" font-family="Helvetica" font-size="12" font-style="italic" lengthAdjust="spacing" textLength="47.3613" x="299.6396" y="302.2402">&#171;record&#187;</text><text fill="#A6DA95" font-family="Helvetica" font-size="16" lengthAdjust="spacing" textLength="148.5234" x="249.0586" y="317.3203">Valid&lt;E, A&gt;(A value)</text><line style="stroke:#C6A0F6;stroke-width:2.0;" x1="8" x2="608.6406" y1="326" y2="326"/><ellipse cx="18" cy="337.5" fill="#84BE84" rx="3" ry="3" style="stroke:#038048;stroke-width:1.0;"/><text fill="#A6DA95" font-family="Helvetica" font-size="12" lengthAdjust="spacing" textLength="74.7012" x="26" y="339.2402">Valid(A value)</text><ellipse cx="18" cy="365.5" fill="#84BE84" rx="3" ry="3" style="stroke:#038048;stroke-width:1.0;"/><text fill="#A6DA95" font-family="Helvetica" font-size="12" lengthAdjust="spacing" textLength="89.3848" x="26" y="367.2402">boolean isValid()</text><ellipse cx="18" cy="377.5" fill="#84BE84" rx="3" ry="3" style="stroke:#038048;stroke-width:1.0;"/><text fill="#A6DA95" font-family="Helvetica" font-size="12" lengthAdjust="spacing" textLength="97.3887" x="26" y="379.2402">boolean isInvalid()</text><ellipse cx="18" cy="389.5" fill="#84BE84" rx="3" ry="3" style="stroke:#038048;stroke-width:1.0;"/><text fill="#A6DA95" font-family="Helvetica" font-size="12" lengthAdjust="spacing" textLength="36.0117" x="26" y="391.2402">A get()</text><ellipse cx="18" cy="401.5" fill="#84BE84" rx="3" ry="3" style="stroke:#038048;stroke-width:1.0;"/><text fill="#A6DA95" font-family="Helvetica" font-size="12" lengthAdjust="spacing" textLength="244.1016" x="26" y="403.2402">E getError() throws NoSuchElementException</text><ellipse cx="18" cy="413.5" fill="#84BE84" rx="3" ry="3" style="stroke:#038048;stroke-width:1.0;"/><text fill="#A6DA95" font-family="Helvetica" font-size="12" lengthAdjust="spacing" textLength="92.0332" x="26" y="415.2402">A orElse(A other)</text><ellipse cx="18" cy="425.5" fill="#84BE84" rx="3" ry="3" style="stroke:#038048;stroke-width:1.0;"/><text fill="#A6DA95" font-family="Helvetica" font-size="12" lengthAdjust="spacing" textLength="268.8164" x="26" y="427.2402">A orElseGet(Supplier&lt;? extends A&gt; otherSupplier)</text><ellipse cx="18" cy="437.5" fill="#84BE84" rx="3" ry="3" style="stroke:#038048;stroke-width:1.0;"/><text fill="#A6DA95" font-family="Helvetica" font-size="12" lengthAdjust="spacing" textLength="486.9258" x="26" y="439.2402">&lt;X extends Throwable&gt; A orElseThrow(Supplier&lt;? extends X&gt; exceptionSupplier) throws X</text><ellipse cx="18" cy="449.5" fill="#84BE84" rx="3" ry="3" style="stroke:#038048;stroke-width:1.0;"/><text fill="#A6DA95" font-family="Helvetica" font-size="12" lengthAdjust="spacing" textLength="242.7773" x="26" y="451.2402">void ifValid(Consumer&lt;? super A&gt; consumer)</text><ellipse cx="18" cy="461.5" fill="#84BE84" rx="3" ry="3" style="stroke:#038048;stroke-width:1.0;"/><text fill="#A6DA95" font-family="Helvetica" font-size="12" lengthAdjust="spacing" textLength="250.7813" x="26" y="463.2402">void ifInvalid(Consumer&lt;? super E&gt; consumer)</text><ellipse cx="18" cy="473.5" fill="#84BE84" rx="3" ry="3" style="stroke:#038048;stroke-width:1.0;"/><text fill="#A6DA95" font-family="Helvetica" font-size="12" font-weight="bold" lengthAdjust="spacing" textLength="336.0586" x="29.334" y="475.2402">Validated&lt;E, B&gt; map(Function&lt;? super A, ? extends B&gt; fn)</text><ellipse cx="18" cy="485.5" fill="#84BE84" rx="3" ry="3" style="stroke:#038048;stroke-width:1.0;"/><text fill="#A6DA95" font-family="Helvetica" font-size="12" font-weight="bold" lengthAdjust="spacing" textLength="494.7715" x="29.334" y="487.2402">Validated&lt;E, B&gt; flatMap(Function&lt;? super A, ? extends Validated&lt;E, ? extends B&gt;&gt; fn)</text><ellipse cx="18" cy="497.5" fill="#84BE84" rx="3" ry="3" style="stroke:#038048;stroke-width:1.0;"/><text fill="#A6DA95" font-family="Helvetica" font-size="12" font-weight="bold" lengthAdjust="spacing" textLength="460.7754" x="29.334" y="499.2402">Validated&lt;E, B&gt; ap(Validated&lt;E, Function&lt;? super A, ? extends B&gt;&gt; fnValidated)</text><ellipse cx="18" cy="509.5" fill="#84BE84" rx="3" ry="3" style="stroke:#038048;stroke-width:1.0;"/><text fill="#A6DA95" font-family="Helvetica" font-size="12" lengthAdjust="spacing" textLength="577.6406" x="26" y="511.2402">&lt;T&gt; T fold(Function&lt;? super E, ? extends T&gt; invalidMapper, Function&lt;? super A, ? extends T&gt; validMapper)</text><line style="stroke:#C6A0F6;stroke-width:2.0;" x1="8" x2="285.3076" y1="352" y2="352"/><text fill="#A6DA95" font-family="Helvetica" font-size="12" lengthAdjust="spacing" textLength="46.0254" x="285.3076" y="354.7402">Methods</text><line style="stroke:#C6A0F6;stroke-width:2.0;" x1="331.333" x2="608.6406" y1="352" y2="352"/></g><!--class Invalid<E, A>(E error)--><g id="elem_Invalid&lt;E, A&gt;(E error)"><rect codeLine="41" fill="#24273A" height="230" id="Invalid&lt;E, A&gt;(E error)" rx="1.5" ry="1.5" style="stroke:#C6A0F6;stroke-width:2.0;" width="602.6406" x="645" y="288"/><rect fill="#363A4F" height="38" rx="1.5" ry="1.5" style="stroke:#363A4F;stroke-width:2.0;" width="602.6406" x="645" y="288"/><rect fill="#363A4F" height="1.5" style="stroke:#363A4F;stroke-width:2.0;" width="602.6406" x="645" y="324.5"/><rect codeLine="41" fill="none" height="230" id="Invalid&lt;E, A&gt;(E error)" rx="1.5" ry="1.5" style="stroke:#C6A0F6;stroke-width:2.0;" width="602.6406" x="645" y="288"/><ellipse cx="864.957" cy="307" fill="#ADD1B2" rx="10" ry="10" style="stroke:#181818;stroke-width:1.0;"/><path d="M866.791,311.248 Q866.3809,311.459 865.9297,311.5645 Q865.4785,311.6699 864.9805,311.6699 Q863.2109,311.6699 862.2793,310.5039 Q861.3477,309.3379 861.3477,307.1348 Q861.3477,304.9258 862.2793,303.7598 Q863.2109,302.5938 864.9805,302.5938 Q865.4785,302.5938 865.9355,302.6992 Q866.3926,302.8047 866.791,303.0156 L866.791,304.9375 Q866.3457,304.5273 865.9268,304.3369 Q865.5078,304.1465 865.0625,304.1465 Q864.1133,304.1465 863.6299,304.8994 Q863.1465,305.6523 863.1465,307.1348 Q863.1465,308.6113 863.6299,309.3643 Q864.1133,310.1172 865.0625,310.1172 Q865.5078,310.1172 865.9268,309.9268 Q866.3457,309.7363 866.791,309.3262 Z " fill="#CAD3F5"/><text fill="#CAD3F5" font-family="Helvetica" font-size="12" font-style="italic" lengthAdjust="spacing" textLength="47.3613" x="937.6396" y="302.2402">&#171;record&#187;</text><text fill="#A6DA95" font-family="Helvetica" font-size="16" lengthAdjust="spacing" textLength="154.7266" x="883.957" y="317.3203">Invalid&lt;E, A&gt;(E error)</text><line style="stroke:#C6A0F6;stroke-width:2.0;" x1="646" x2="1246.6406" y1="326" y2="326"/><ellipse cx="656" cy="337.5" fill="#84BE84" rx="3" ry="3" style="stroke:#038048;stroke-width:1.0;"/><text fill="#A6DA95" font-family="Helvetica" font-size="12" lengthAdjust="spacing" textLength="79.3535" x="664" y="339.2402">Invalid(E error)</text><ellipse cx="656" cy="365.5" fill="#84BE84" rx="3" ry="3" style="stroke:#038048;stroke-width:1.0;"/><text fill="#A6DA95" font-family="Helvetica" font-size="12" lengthAdjust="spacing" textLength="89.3848" x="664" y="367.2402">boolean isValid()</text><ellipse cx="656" cy="377.5" fill="#84BE84" rx="3" ry="3" style="stroke:#038048;stroke-width:1.0;"/><text fill="#A6DA95" font-family="Helvetica" font-size="12" lengthAdjust="spacing" textLength="97.3887" x="664" y="379.2402">boolean isInvalid()</text><ellipse cx="656" cy="389.5" fill="#84BE84" rx="3" ry="3" style="stroke:#038048;stroke-width:1.0;"/><text fill="#A6DA95" font-family="Helvetica" font-size="12" lengthAdjust="spacing" textLength="217.4355" x="664" y="391.2402">A get() throws NoSuchElementException</text><ellipse cx="656" cy="401.5" fill="#84BE84" rx="3" ry="3" style="stroke:#038048;stroke-width:1.0;"/><text fill="#A6DA95" font-family="Helvetica" font-size="12" lengthAdjust="spacing" textLength="62.6777" x="664" y="403.2402">E getError()</text><ellipse cx="656" cy="413.5" fill="#84BE84" rx="3" ry="3" style="stroke:#038048;stroke-width:1.0;"/><text fill="#A6DA95" font-family="Helvetica" font-size="12" lengthAdjust="spacing" textLength="92.0332" x="664" y="415.2402">A orElse(A other)</text><ellipse cx="656" cy="425.5" fill="#84BE84" rx="3" ry="3" style="stroke:#038048;stroke-width:1.0;"/><text fill="#A6DA95" font-family="Helvetica" font-size="12" lengthAdjust="spacing" textLength="268.8164" x="664" y="427.2402">A orElseGet(Supplier&lt;? extends A&gt; otherSupplier)</text><ellipse cx="656" cy="437.5" fill="#84BE84" rx="3" ry="3" style="stroke:#038048;stroke-width:1.0;"/><text fill="#A6DA95" font-family="Helvetica" font-size="12" lengthAdjust="spacing" textLength="486.9258" x="664" y="439.2402">&lt;X extends Throwable&gt; A orElseThrow(Supplier&lt;? extends X&gt; exceptionSupplier) throws X</text><ellipse cx="656" cy="449.5" fill="#84BE84" rx="3" ry="3" style="stroke:#038048;stroke-width:1.0;"/><text fill="#A6DA95" font-family="Helvetica" font-size="12" lengthAdjust="spacing" textLength="242.7773" x="664" y="451.2402">void ifValid(Consumer&lt;? super A&gt; consumer)</text><ellipse cx="656" cy="461.5" fill="#84BE84" rx="3" ry="3" style="stroke:#038048;stroke-width:1.0;"/><text fill="#A6DA95" font-family="Helvetica" font-size="12" lengthAdjust="spacing" textLength="250.7813" x="664" y="463.2402">void ifInvalid(Consumer&lt;? super E&gt; consumer)</text><ellipse cx="656" cy="473.5" fill="#84BE84" rx="3" ry="3" style="stroke:#038048;stroke-width:1.0;"/><text fill="#A6DA95" font-family="Helvetica" font-size="12" font-weight="bold" lengthAdjust="spacing" textLength="336.0586" x="667.334" y="475.2402">Validated&lt;E, B&gt; map(Function&lt;? super A, ? extends B&gt; fn)</text><ellipse cx="656" cy="485.5" fill="#84BE84" rx="3" ry="3" style="stroke:#038048;stroke-width:1.0;"/><text fill="#A6DA95" font-family="Helvetica" font-size="12" font-weight="bold" lengthAdjust="spacing" textLength="494.7715" x="667.334" y="487.2402">Validated&lt;E, B&gt; flatMap(Function&lt;? super A, ? extends Validated&lt;E, ? extends B&gt;&gt; fn)</text><ellipse cx="656" cy="497.5" fill="#84BE84" rx="3" ry="3" style="stroke:#038048;stroke-width:1.0;"/><text fill="#A6DA95" font-family="Helvetica" font-size="12" font-weight="bold" lengthAdjust="spacing" textLength="460.7754" x="667.334" y="499.2402">Validated&lt;E, B&gt; ap(Validated&lt;E, Function&lt;? super A, ? extends B&gt;&gt; fnValidated)</text><ellipse cx="656" cy="509.5" fill="#84BE84" rx="3" ry="3" style="stroke:#038048;stroke-width:1.0;"/><text fill="#A6DA95" font-family="Helvetica" font-size="12" lengthAdjust="spacing" textLength="577.6406" x="664" y="511.2402">&lt;T&gt; T fold(Function&lt;? super E, ? extends T&gt; invalidMapper, Function&lt;? super A, ? extends T&gt; validMapper)</text><line style="stroke:#C6A0F6;stroke-width:2.0;" x1="646" x2="923.3076" y1="352" y2="352"/><text fill="#A6DA95" font-family="Helvetica" font-size="12" lengthAdjust="spacing" textLength="46.0254" x="923.3076" y="354.7402">Methods</text><line style="stroke:#C6A0F6;stroke-width:2.0;" x1="969.333" x2="1246.6406" y1="352" y2="352"/></g><!--reverse link Validated to Valid<E, A>(A value)--><g id="link_Validated_Valid&lt;E, A&gt;(A value)"><path d="M491.4162,240.1442 C469.4562,259.5642 459.98,267.93 437.83,287.52 " fill="none" id="Validated-backto-Valid&lt;E, A&gt;(A value)" style="stroke:#F5BDE6;stroke-width:1.0;stroke-dasharray:7.0,7.0;"/><polygon fill="none" points="504.9,228.22,487.4415,235.6496,495.3909,244.6388,504.9,228.22" style="stroke:#F5BDE6;stroke-width:1.0;"/></g><!--reverse link Validated to Invalid<E, A>(E error)--><g id="link_Validated_Invalid&lt;E, A&gt;(E error)"><path d="M763.2238,240.1442 C785.1838,259.5642 794.66,267.93 816.82,287.52 " fill="none" id="Validated-backto-Invalid&lt;E, A&gt;(E error)" style="stroke:#F5BDE6;stroke-width:1.0;stroke-dasharray:7.0,7.0;"/><polygon fill="none" points="749.74,228.22,759.2491,244.6388,767.1985,235.6496,749.74,228.22" style="stroke:#F5BDE6;stroke-width:1.0;"/></g><!--SRC=[xPH9Rzim48Nl-XLJdsmqjkw5uC8jr2A7z18ZyCsWgN54W1ku92c2_FUE5iln5jjjdLDEegZtPXv9VVmaD9UnG2X3iFvBcZhsEBeNeOoBwD5nemFgCE96fPeR7zXGy9IpO6taNEYXOfoNWWKpj9Bf49KSXX8Lfee9dTR3aQNPf1JK19KDlq6XMg3pIIAek5ioZj2xOr8KB62HvLSm6VU0UUZcu3a1-0pFRE63OpoymC8OYKo3yBMeFpWikDOF-oKJkCVG7q0edNdqyClSHbxcaXBha3znj44OlMtAArFkd77dEYTWN2uzzcb0- -86XmG_ATLjj5OATDbNm2SwWSBJfZI-rQSTVpRhjDCg65j877TLwwbzTMTZ6hQPkzghfSsscpmOKO1ODhl-tMWVLLtDHukkoiZRkS41v-euThpv6zxisnWs_X1wLypsVqJDgzph05UmNXc9blgaMal9mitHUXkkrsrExaCjDgQEvQyATuRT3jCnJ65fPB4RV2CXwKIpxRH8-dgiCUbVgTk-n7uGdBhMWC8Mi8s1_crwHZpDqcRgvu0LK8Fa9KcuPDwtrq4Zwshs8CiSSkCAsXUXRCFRxZLnjvraFeSR3AMXbStdjMJ_zN7epcWlYdfy9l_xeVyhqY-7zvbCdmtoFzDxKMGlnEcxmRc6fZsH5fiLLQTYSxrDuty3vmHENcFr0Su7EEy4Jl87]--></g></svg>