<svg xmlns="http://www.w3.org/2000/svg" xmlns:xlink="http://www.w3.org/1999/xlink" contentStyleType="text/css" height="406px" preserveAspectRatio="none" style="width:616px;height:406px;background:#24273A;" version="1.1" viewBox="0 0 616 406" width="616px" zoomAndPan="magnify"><defs/><g><rect fill="#24273A" height="406" style="stroke:none;stroke-width:1.0;" width="616" x="0" y="0"/><!--class Kind--><g id="elem_Kind"><rect codeLine="6" fill="#24273A" height="38" id="Kind" rx="1.5" ry="1.5" style="stroke:#C6A0F6;stroke-width:2.0;" width="215.4141" x="7" y="10"/><rect fill="#363A4F" height="38" rx="1.5" ry="1.5" style="stroke:#363A4F;stroke-width:2.0;" width="215.4141" x="7" y="10"/><rect fill="#363A4F" height="1.5" style="stroke:#363A4F;stroke-width:2.0;" width="215.4141" x="7" y="46.5"/><rect codeLine="6" fill="none" height="38" id="Kind" rx="1.5" ry="1.5" style="stroke:#C6A0F6;stroke-width:2.0;" width="215.4141" x="7" y="10"/><ellipse cx="21" cy="29" fill="#B4A7E5" rx="10" ry="10" style="stroke:#181818;stroke-width:1.0;"/><path d="M18.0078,26.2754 L18.0078,24.752 L23.2168,24.752 L23.2168,26.2754 L21.4766,26.2754 L21.4766,31.9766 L23.2168,31.9766 L23.2168,33.5 L18.0078,33.5 L18.0078,31.9766 L19.748,31.9766 L19.748,26.2754 Z " fill="#CAD3F5"/><text fill="#CAD3F5" font-family="Helvetica" font-size="12" font-style="italic" lengthAdjust="spacing" textLength="75.3691" x="32" y="24.2402">&#171;HKT Bridge&#187;</text><text fill="#A6DA95" font-family="Helvetica" font-size="16" font-style="italic" lengthAdjust="spacing" textLength="32.0234" x="53.6729" y="39.3203">Kind</text><rect fill="#24273A" height="14" style="stroke:#C6A0F6;stroke-width:1.0;stroke-dasharray:2.0,2.0;" width="112.0449" x="113.3691" y="7"/><text fill="#CAD3F5" font-family="Helvetica" font-size="12" font-style="italic" lengthAdjust="spacing" textLength="110.0449" x="114.3691" y="17.2402">LazyKind.Witness, A</text></g><!--class LazyKind--><g id="elem_LazyKind"><rect codeLine="8" fill="#24273A" height="30" id="LazyKind" rx="1.5" ry="1.5" style="stroke:#C6A0F6;stroke-width:2.0;" width="107.8242" x="60.79" y="125"/><rect fill="#363A4F" height="30" rx="1.5" ry="1.5" style="stroke:#363A4F;stroke-width:2.0;" width="107.8242" x="60.79" y="125"/><rect fill="#363A4F" height="1.5" style="stroke:#363A4F;stroke-width:2.0;" width="107.8242" x="60.79" y="153.5"/><rect codeLine="8" fill="none" height="30" id="LazyKind" rx="1.5" ry="1.5" style="stroke:#C6A0F6;stroke-width:2.0;" width="107.8242" x="60.79" y="125"/><ellipse cx="74.79" cy="140" fill="#B4A7E5" rx="10" ry="10" style="stroke:#181818;stroke-width:1.0;"/><path d="M71.7978,137.2754 L71.7978,135.752 L77.0068,135.752 L77.0068,137.2754 L75.2666,137.2754 L75.2666,142.9766 L77.0068,142.9766 L77.0068,144.5 L71.7978,144.5 L71.7978,142.9766 L73.538,142.9766 L73.538,137.2754 Z " fill="#CAD3F5"/><text fill="#A6DA95" font-family="Helvetica" font-size="16" font-style="italic" lengthAdjust="spacing" textLength="65.8203" x="87.79" y="144.3203">LazyKind</text><rect fill="#24273A" height="14" style="stroke:#C6A0F6;stroke-width:1.0;stroke-dasharray:2.0,2.0;" width="10.0039" x="161.6103" y="122"/><text fill="#CAD3F5" font-family="Helvetica" font-size="12" font-style="italic" lengthAdjust="spacing" textLength="8.0039" x="162.6103" y="132.2402">A</text></g><!--class Lazy--><g id="elem_Lazy"><rect codeLine="12" fill="#24273A" height="30" id="Lazy" rx="1.5" ry="1.5" style="stroke:#C6A0F6;stroke-width:2.0;" width="75.8008" x="218.81" y="369"/><rect fill="#363A4F" height="30" rx="1.5" ry="1.5" style="stroke:#363A4F;stroke-width:2.0;" width="75.8008" x="218.81" y="369"/><rect fill="#363A4F" height="1.5" style="stroke:#363A4F;stroke-width:2.0;" width="75.8008" x="218.81" y="397.5"/><rect codeLine="12" fill="none" height="30" id="Lazy" rx="1.5" ry="1.5" style="stroke:#C6A0F6;stroke-width:2.0;" width="75.8008" x="218.81" y="369"/><ellipse cx="232.81" cy="384" fill="#ADD1B2" rx="10" ry="10" style="stroke:#181818;stroke-width:1.0;"/><path d="M234.644,388.248 Q234.2338,388.459 233.7827,388.5645 Q233.3315,388.6699 232.8334,388.6699 Q231.0639,388.6699 230.1323,387.5039 Q229.2006,386.3379 229.2006,384.1348 Q229.2006,381.9258 230.1323,380.7598 Q231.0639,379.5938 232.8334,379.5938 Q233.3315,379.5938 233.7885,379.6992 Q234.2455,379.8047 234.644,380.0156 L234.644,381.9375 Q234.1987,381.5273 233.7797,381.3369 Q233.3608,381.1465 232.9155,381.1465 Q231.9663,381.1465 231.4829,381.8994 Q230.9995,382.6523 230.9995,384.1348 Q230.9995,385.6113 231.4829,386.3643 Q231.9663,387.1172 232.9155,387.1172 Q233.3608,387.1172 233.7797,386.9268 Q234.1987,386.7363 234.644,386.3262 Z " fill="#CAD3F5"/><text fill="#A6DA95" font-family="Helvetica" font-size="16" lengthAdjust="spacing" textLength="33.7969" x="245.81" y="388.3203">Lazy</text><rect fill="#24273A" height="14" style="stroke:#C6A0F6;stroke-width:1.0;stroke-dasharray:2.0,2.0;" width="10.0039" x="287.6069" y="366"/><text fill="#CAD3F5" font-family="Helvetica" font-size="12" font-style="italic" lengthAdjust="spacing" textLength="8.0039" x="288.6069" y="376.2402">A</text></g><!--class LazyKindHelper--><g id="elem_LazyKindHelper"><rect codeLine="17" fill="#24273A" height="62" id="LazyKindHelper" rx="1.5" ry="1.5" style="stroke:#C6A0F6;stroke-width:2.0;" width="385.5273" x="223.94" y="109"/><rect fill="#363A4F" height="30" rx="1.5" ry="1.5" style="stroke:#363A4F;stroke-width:2.0;" width="385.5273" x="223.94" y="109"/><rect fill="#363A4F" height="1.5" style="stroke:#363A4F;stroke-width:2.0;" width="385.5273" x="223.94" y="137.5"/><rect codeLine="17" fill="none" height="62" id="LazyKindHelper" rx="1.5" ry="1.5" style="stroke:#C6A0F6;stroke-width:2.0;" width="385.5273" x="223.94" y="109"/><ellipse cx="356.2271" cy="124" fill="#ADD1B2" rx="10" ry="10" style="stroke:#181818;stroke-width:1.0;"/><path d="M358.0611,128.248 Q357.6509,128.459 357.1998,128.5645 Q356.7486,128.6699 356.2505,128.6699 Q354.481,128.6699 353.5494,127.5039 Q352.6177,126.3379 352.6177,124.1348 Q352.6177,121.9258 353.5494,120.7598 Q354.481,119.5938 356.2505,119.5938 Q356.7486,119.5938 357.2056,119.6992 Q357.6627,119.8047 358.0611,120.0156 L358.0611,121.9375 Q357.6158,121.5273 357.1968,121.3369 Q356.7779,121.1465 356.3326,121.1465 Q355.3834,121.1465 354.9,121.8994 Q354.4166,122.6523 354.4166,124.1348 Q354.4166,125.6113 354.9,126.3643 Q355.3834,127.1172 356.3326,127.1172 Q356.7779,127.1172 357.1968,126.9268 Q357.6158,126.7363 358.0611,126.3262 Z " fill="#CAD3F5"/><text fill="#A6DA95" font-family="Helvetica" font-size="16" lengthAdjust="spacing" textLength="112.9531" x="375.2271" y="128.3203">LazyKindHelper</text><line style="stroke:#C6A0F6;stroke-width:2.0;" x1="224.94" x2="608.4673" y1="139" y2="139"/><ellipse cx="234.94" cy="150.5" fill="#84BE84" rx="3" ry="3" style="stroke:#038048;stroke-width:1.0;"/><text fill="#A6DA95" font-family="Helvetica" font-size="12" lengthAdjust="spacing" text-decoration="underline" textLength="296.3262" x="242.94" y="152.2402">Kind&lt;LazyKind.Witness, A&gt; widen(@NonNull Lazy&lt;A&gt;)</text><ellipse cx="234.94" cy="162.5" fill="#84BE84" rx="3" ry="3" style="stroke:#038048;stroke-width:1.0;"/><text fill="#A6DA95" font-family="Helvetica" font-size="12" lengthAdjust="spacing" text-decoration="underline" textLength="360.5273" x="242.94" y="164.2402">@NonNull Lazy&lt;A&gt; narrow(@Nullable Kind&lt;LazyKind.Witness, A&gt;)</text></g><!--class LazyHolder--><g id="elem_LazyHolder"><rect codeLine="23" fill="#24273A" height="50" id="LazyHolder" rx="1.5" ry="1.5" style="stroke:#C6A0F6;stroke-width:2.0;" width="200.6055" x="156.4" y="245"/><rect fill="#363A4F" height="30" rx="1.5" ry="1.5" style="stroke:#363A4F;stroke-width:2.0;" width="200.6055" x="156.4" y="245"/><rect fill="#363A4F" height="1.5" style="stroke:#363A4F;stroke-width:2.0;" width="200.6055" x="156.4" y="273.5"/><rect codeLine="23" fill="none" height="50" id="LazyHolder" rx="1.5" ry="1.5" style="stroke:#C6A0F6;stroke-width:2.0;" width="200.6055" x="156.4" y="245"/><ellipse cx="206.2359" cy="260" fill="#ADD1B2" rx="10" ry="10" style="stroke:#181818;stroke-width:1.0;"/><path d="M208.0699,264.248 Q207.6598,264.459 207.2086,264.5645 Q206.7574,264.6699 206.2594,264.6699 Q204.4898,264.6699 203.5582,263.5039 Q202.6266,262.3379 202.6266,260.1348 Q202.6266,257.9258 203.5582,256.7598 Q204.4898,255.5938 206.2594,255.5938 Q206.7574,255.5938 207.2145,255.6992 Q207.6715,255.8047 208.0699,256.0156 L208.0699,257.9375 Q207.6246,257.5273 207.2057,257.3369 Q206.7867,257.1465 206.3414,257.1465 Q205.3922,257.1465 204.9088,257.8994 Q204.4254,258.6523 204.4254,260.1348 Q204.4254,261.6113 204.9088,262.3643 Q205.3922,263.1172 206.3414,263.1172 Q206.7867,263.1172 207.2057,262.9268 Q207.6246,262.7363 208.0699,262.3262 Z " fill="#CAD3F5"/><text fill="#A6DA95" font-family="Helvetica" font-size="16" lengthAdjust="spacing" textLength="80.9297" x="225.2359" y="264.3203">LazyHolder</text><rect fill="#24273A" height="14" style="stroke:#C6A0F6;stroke-width:1.0;stroke-dasharray:2.0,2.0;" width="10.0039" x="350.0016" y="242"/><text fill="#CAD3F5" font-family="Helvetica" font-size="12" font-style="italic" lengthAdjust="spacing" textLength="8.0039" x="351.0016" y="252.2402">A</text><line style="stroke:#C6A0F6;stroke-width:2.0;" x1="157.4" x2="356.0055" y1="275" y2="275"/><rect fill="none" height="6" style="stroke:#C82930;stroke-width:1.0;" width="6" x="164.4" y="283.5"/><text fill="#A6DA95" font-family="Helvetica" font-size="12" lengthAdjust="spacing" textLength="175.6055" x="175.4" y="288.2402">@NonNull Lazy&lt;A&gt; lazyInstance</text></g><!--reverse link Kind to LazyKind--><g id="link_Kind_LazyKind"><path d="M114.71,66.49 C114.71,87.99 114.71,105.03 114.71,124.6 " fill="none" id="Kind-backto-LazyKind" style="stroke:#F5BDE6;stroke-width:1.0;"/><polygon fill="none" points="114.71,48.49,108.71,66.49,120.71,66.49,114.71,48.49" style="stroke:#F5BDE6;stroke-width:1.0;"/></g><!--reverse link LazyKind to Lazy--><g id="link_LazyKind_Lazy"><path d="M112.4409,173.3382 C110.7309,202.0782 111.47,249.81 138.71,295 C159.15,328.93 198.1,354.03 225.64,368.56 " fill="none" id="LazyKind-backto-Lazy" style="stroke:#F5BDE6;stroke-width:1.0;stroke-dasharray:7.0,7.0;"/><polygon fill="none" points="113.51,155.37,106.4515,172.9819,118.4303,173.6946,113.51,155.37" style="stroke:#F5BDE6;stroke-width:1.0;"/></g><!--reverse link LazyKind to LazyHolder--><g id="link_LazyKind_LazyHolder"><path d="M144.0879,167.484 C168.0979,189.134 200.35,218.2 229.61,244.57 " fill="none" id="LazyKind-backto-LazyHolder" style="stroke:#F5BDE6;stroke-width:1.0;stroke-dasharray:7.0,7.0;"/><polygon fill="none" points="130.72,155.43,140.0699,171.94,148.1059,163.028,130.72,155.43" style="stroke:#F5BDE6;stroke-width:1.0;"/></g><!--link LazyKindHelper to LazyHolder--><g id="link_LazyKindHelper_LazyHolder"><path codeLine="27" d="M378.79,171.33 C350.79,193.73 317.8554,220.082 291.8154,240.912 " fill="none" id="LazyKindHelper-to-LazyHolder" style="stroke:#F5BDE6;stroke-width:1.0;stroke-dasharray:7.0,7.0;"/><polygon fill="#F5BDE6" points="287.13,244.66,296.6567,242.1617,291.0345,241.5367,291.6594,235.9145,287.13,244.66" style="stroke:#F5BDE6;stroke-width:1.0;"/><text fill="#CAD3F5" font-family="Helvetica" font-size="12" lengthAdjust="spacing" textLength="39.3516" x="342.5" y="211.2402">creates</text></g><!--link LazyKindHelper to Lazy--><g id="link_LazyKindHelper_Lazy"><path codeLine="28" d="M414.32,171.22 C410.46,204.16 400.46,257.21 374.71,295 C352.11,328.16 318.1085,350.8507 291.1185,365.6807 " fill="none" id="LazyKindHelper-to-Lazy" style="stroke:#F5BDE6;stroke-width:1.0;stroke-dasharray:7.0,7.0;"/><polygon fill="#F5BDE6" points="285.86,368.57,295.674,367.7416,290.2421,366.1622,291.8215,360.7303,285.86,368.57" style="stroke:#F5BDE6;stroke-width:1.0;"/><text fill="#CAD3F5" font-family="Helvetica" font-size="12" lengthAdjust="spacing" textLength="130.7109" x="399.51" y="273.2402">widens to / narrows from</text></g><!--link LazyHolder to Lazy--><g id="link_LazyHolder_Lazy"><path codeLine="29" d="M256.71,307.3 C256.71,329.69 256.71,344.16 256.71,362.66 " fill="none" id="LazyHolder-Lazy" style="stroke:#F5BDE6;stroke-width:1.0;"/><polygon fill="none" points="256.71,295.3,252.71,301.3,256.71,307.3,260.71,301.3,256.71,295.3" style="stroke:#F5BDE6;stroke-width:1.0;"/><polygon fill="#F5BDE6" points="256.71,368.66,260.71,359.66,256.71,363.66,252.71,359.66,256.71,368.66" style="stroke:#F5BDE6;stroke-width:1.0;"/><text fill="#CAD3F5" font-family="Helvetica" font-size="12" lengthAdjust="spacing" textLength="28.6875" x="257.71" y="335.2402">holds</text></g><!--SRC=[VL7BRW8n3BpdAzmJHUrcxsYBIWyLY8fUAlKSieP4ocELU4Kfuj_hvL5jgU0KQpmUZoTtDcZNrWY6gCcZiang8zUMJBjiCoOT0s4WgQClWuwPL65rgHKrJQkr3OLNMXkhA1QDKu5QxmeowB7qoeRoKCg6KI6CvIte6zg2Hx_4b8Mmh9vMIYFCRQYhD_MzxGhvQIbWpeym6KDLJUSVy99ilSRnk3zpfbVCmY_sMUSREZi1C80J0g_m19SqiHT2EyNThjEfMjyulY1GxYyxAaqqjSeTS9YTUOfi39rEJwYRcg9hCB671zZbZgNtDwnkEAfm_xo8OT4wTtOpx0zVDY6ebEA6XnXKItSZqQ4Om3l_J09EaMBQbkRepYEPM6SfvTyafj7LcAxdmMSL_mqvVcU1_GQDdTv555AEU-8m0frG4UPhF6OSOib04ShJkHbMANhHqub5ySit36Nn0m00]--></g></svg>