<svg xmlns="http://www.w3.org/2000/svg" xmlns:xlink="http://www.w3.org/1999/xlink" contentStyleType="text/css" height="314px" preserveAspectRatio="none" style="width:176px;height:314px;background:#24273A;" version="1.1" viewBox="0 0 176 314" width="176px" zoomAndPan="magnify"><defs/><g><rect fill="#24273A" height="314" style="stroke:none;stroke-width:1.0;" width="176" x="0" y="0"/><!--class Functor<F>--><g id="elem_Functor&lt;F&gt;"><rect codeLine="4" fill="#24273A" height="30" id="Functor&lt;F&gt;" rx="1.5" ry="1.5" style="stroke:#C6A0F6;stroke-width:2.0;" width="112.7031" x="31.9" y="7"/><rect fill="#363A4F" height="30" rx="1.5" ry="1.5" style="stroke:#363A4F;stroke-width:2.0;" width="112.7031" x="31.9" y="7"/><rect fill="#363A4F" height="1.5" style="stroke:#363A4F;stroke-width:2.0;" width="112.7031" x="31.9" y="35.5"/><rect codeLine="4" fill="none" height="30" id="Functor&lt;F&gt;" rx="1.5" ry="1.5" style="stroke:#C6A0F6;stroke-width:2.0;" width="112.7031" x="31.9" y="7"/><ellipse cx="45.9" cy="22" fill="#B4A7E5" rx="10" ry="10" style="stroke:#181818;stroke-width:1.0;"/><path d="M42.9078,19.2754 L42.9078,17.752 L48.1168,17.752 L48.1168,19.2754 L46.3766,19.2754 L46.3766,24.9766 L48.1168,24.9766 L48.1168,26.5 L42.9078,26.5 L42.9078,24.9766 L44.648,24.9766 L44.648,19.2754 Z " fill="#CAD3F5"/><text fill="#A6DA95" font-family="Helvetica" font-size="16" font-style="italic" lengthAdjust="spacing" textLength="82.7031" x="58.9" y="26.3203">Functor&lt;F&gt;</text></g><!--class Applicative<F>--><g id="elem_Applicative&lt;F&gt;"><rect codeLine="5" fill="#24273A" height="30" id="Applicative&lt;F&gt;" rx="1.5" ry="1.5" style="stroke:#C6A0F6;stroke-width:2.0;" width="135.8359" x="20.33" y="97"/><rect fill="#363A4F" height="30" rx="1.5" ry="1.5" style="stroke:#363A4F;stroke-width:2.0;" width="135.8359" x="20.33" y="97"/><rect fill="#363A4F" height="1.5" style="stroke:#363A4F;stroke-width:2.0;" width="135.8359" x="20.33" y="125.5"/><rect codeLine="5" fill="none" height="30" id="Applicative&lt;F&gt;" rx="1.5" ry="1.5" style="stroke:#C6A0F6;stroke-width:2.0;" width="135.8359" x="20.33" y="97"/><ellipse cx="34.33" cy="112" fill="#B4A7E5" rx="10" ry="10" style="stroke:#181818;stroke-width:1.0;"/><path d="M31.3378,109.2754 L31.3378,107.752 L36.5468,107.752 L36.5468,109.2754 L34.8066,109.2754 L34.8066,114.9766 L36.5468,114.9766 L36.5468,116.5 L31.3378,116.5 L31.3378,114.9766 L33.078,114.9766 L33.078,109.2754 Z " fill="#CAD3F5"/><text fill="#A6DA95" font-family="Helvetica" font-size="16" font-style="italic" lengthAdjust="spacing" textLength="105.8359" x="47.33" y="116.3203">Applicative&lt;F&gt;</text></g><!--class Monad<F>--><g id="elem_Monad&lt;F&gt;"><rect codeLine="6" fill="#24273A" height="30" id="Monad&lt;F&gt;" rx="1.5" ry="1.5" style="stroke:#C6A0F6;stroke-width:2.0;" width="107.3828" x="34.56" y="187"/><rect fill="#363A4F" height="30" rx="1.5" ry="1.5" style="stroke:#363A4F;stroke-width:2.0;" width="107.3828" x="34.56" y="187"/><rect fill="#363A4F" height="1.5" style="stroke:#363A4F;stroke-width:2.0;" width="107.3828" x="34.56" y="215.5"/><rect codeLine="6" fill="none" height="30" id="Monad&lt;F&gt;" rx="1.5" ry="1.5" style="stroke:#C6A0F6;stroke-width:2.0;" width="107.3828" x="34.56" y="187"/><ellipse cx="48.56" cy="202" fill="#B4A7E5" rx="10" ry="10" style="stroke:#181818;stroke-width:1.0;"/><path d="M45.5678,199.2754 L45.5678,197.752 L50.7768,197.752 L50.7768,199.2754 L49.0366,199.2754 L49.0366,204.9766 L50.7768,204.9766 L50.7768,206.5 L45.5678,206.5 L45.5678,204.9766 L47.308,204.9766 L47.308,199.2754 Z " fill="#CAD3F5"/><text fill="#A6DA95" font-family="Helvetica" font-size="16" font-style="italic" lengthAdjust="spacing" textLength="77.3828" x="61.56" y="206.3203">Monad&lt;F&gt;</text></g><!--class MonadError<F, E>--><g id="elem_MonadError&lt;F, E&gt;"><rect codeLine="7" fill="#24273A" height="30" id="MonadError&lt;F, E&gt;" rx="1.5" ry="1.5" style="stroke:#C6A0F6;stroke-width:2.0;" width="162.5" x="7" y="277"/><rect fill="#363A4F" height="30" rx="1.5" ry="1.5" style="stroke:#363A4F;stroke-width:2.0;" width="162.5" x="7" y="277"/><rect fill="#363A4F" height="1.5" style="stroke:#363A4F;stroke-width:2.0;" width="162.5" x="7" y="305.5"/><rect codeLine="7" fill="none" height="30" id="MonadError&lt;F, E&gt;" rx="1.5" ry="1.5" style="stroke:#C6A0F6;stroke-width:2.0;" width="162.5" x="7" y="277"/><ellipse cx="21" cy="292" fill="#B4A7E5" rx="10" ry="10" style="stroke:#181818;stroke-width:1.0;"/><path d="M18.0078,289.2754 L18.0078,287.752 L23.2168,287.752 L23.2168,289.2754 L21.4766,289.2754 L21.4766,294.9766 L23.2168,294.9766 L23.2168,296.5 L18.0078,296.5 L18.0078,294.9766 L19.748,294.9766 L19.748,289.2754 Z " fill="#CAD3F5"/><text fill="#A6DA95" font-family="Helvetica" font-size="16" font-style="italic" lengthAdjust="spacing" textLength="132.5" x="34" y="296.3203">MonadError&lt;F, E&gt;</text></g><!--reverse link Functor<F> to Applicative<F>--><g id="link_Functor&lt;F&gt;_Applicative&lt;F&gt;"><path d="M88.25,55.14 C88.25,71.46 88.25,80.17 88.25,96.6 " fill="none" id="Functor&lt;F&gt;-backto-Applicative&lt;F&gt;" style="stroke:#F5BDE6;stroke-width:1.0;"/><polygon fill="none" points="88.25,37.14,82.25,55.14,94.25,55.14,88.25,37.14" style="stroke:#F5BDE6;stroke-width:1.0;"/></g><!--reverse link Applicative<F> to Monad<F>--><g id="link_Applicative&lt;F&gt;_Monad&lt;F&gt;"><path d="M88.25,145.14 C88.25,161.46 88.25,170.17 88.25,186.6 " fill="none" id="Applicative&lt;F&gt;-backto-Monad&lt;F&gt;" style="stroke:#F5BDE6;stroke-width:1.0;"/><polygon fill="none" points="88.25,127.14,82.25,145.14,94.25,145.14,88.25,127.14" style="stroke:#F5BDE6;stroke-width:1.0;"/></g><!--reverse link Monad<F> to MonadError<F, E>--><g id="link_Monad&lt;F&gt;_MonadError&lt;F, E&gt;"><path d="M88.25,235.14 C88.25,251.46 88.25,260.17 88.25,276.6 " fill="none" id="Monad&lt;F&gt;-backto-MonadError&lt;F, E&gt;" style="stroke:#F5BDE6;stroke-width:1.0;"/><polygon fill="none" points="88.25,217.14,82.25,235.14,94.25,235.14,88.25,217.14" style="stroke:#F5BDE6;stroke-width:1.0;"/></g><!--SRC=[TOwx3i8m34NtVaNeJ9iT8IG6sFW8rpN4Kk94YSFZxmaCY8VOhElZSxrWGLzdCaurbPMr6IxZYTNLgHRA64L9TCGOh60i2WEZHT2KAYBB403HCMWSaWVH6loWZWBP02psEOwffPtZLa8XwSq42XFbqdNSvFa8IARVLq6DURtVzE_nDYNFhOxFz5WPkhPtvlANFqI1-PFyKlpGkvmVdgNPlL-zHDqT]--></g></svg>