<svg xmlns="http://www.w3.org/2000/svg" xmlns:xlink="http://www.w3.org/1999/xlink" contentStyleType="text/css" data-diagram-type="CLASS" height="405px" preserveAspectRatio="none" style="width:265px;height:405px;background:#24273A;" version="1.1" viewBox="0 0 265 405" width="265px" zoomAndPan="magnify"><defs/><g><rect fill="#24273A" height="405" style="stroke:none;stroke-width:1;" width="265" x="0" y="0"/><g class="entity" data-entity="ArityNote" data-source-line="4" data-uid="ent0002" id="entity_ArityNote"><path d="M6,7.5 L6,30.8441 A1.5,1.5 0 0 0 7.5,32.3441 L128.36,32.3441 L132.36,91.85 L136.36,32.3441 L257.2216,32.3441 A1.5,1.5 0 0 0 258.7216,30.8441 L258.7216,16 L248.7216,6 L7.5,6 A1.5,1.5 0 0 0 6,7.5" fill="#EED49F" style="stroke:#24273A;stroke-width:0.5;"/><path d="M248.7216,6 L248.7216,15.25 A0.75,0.75 0 0 0 249.4716,16 L258.7216,16 L248.7216,6" fill="#EED49F" style="stroke:#24273A;stroke-width:0.5;"/><text fill="#24273A" font-family="Helvetica" font-size="12" lengthAdjust="spacing" textLength="231.7216" x="12" y="23.8281">F extends WitnessArity&lt;TypeArity.Unary&gt;</text></g><!--class Functor<F>--><g class="entity" data-entity="Functor.F." data-source-line="6" data-uid="ent0003" id="entity_Functor.F."><rect fill="#24273A" height="31.792" rx="1.5" ry="1.5" style="stroke:#C6A0F6;stroke-width:2;" width="110.0322" x="77.34" y="92.34"/><rect fill="#363A4F" height="31.792" rx="1.5" ry="1.5" style="stroke:#363A4F;stroke-width:2;" width="110.0322" x="77.34" y="92.34"/><rect fill="#363A4F" height="1.5" style="stroke:#363A4F;stroke-width:2;" width="110.0322" x="77.34" y="122.632"/><rect fill="none" height="31.792" rx="1.5" ry="1.5" style="stroke:#C6A0F6;stroke-width:2;" width="110.0322" x="77.34" y="92.34"/><ellipse cx="91.34" cy="108.236" fill="#B4A7E5" rx="10" ry="10" style="stroke:#181818;stroke-width:1;"/><path d="M88.9181,112.736 L88.9181,111.5329 L90.59,111.3454 L90.59,105.5641 L88.9181,105.361 L88.9181,104.1735 L93.965,104.1735 L93.965,105.361 L92.2619,105.5641 L92.2619,111.3454 L93.965,111.5329 L93.965,112.736 L88.9181,112.736 Z " fill="#CAD3F5"/><text fill="#A6DA95" font-family="Helvetica" font-size="16" font-style="italic" lengthAdjust="spacing" textLength="80.0322" x="104.34" y="114.444">Functor&lt;F&gt;</text></g><!--class Applicative<F>--><g class="entity" data-entity="Applicative.F." data-source-line="7" data-uid="ent0004" id="entity_Applicative.F."><rect fill="#24273A" height="31.792" rx="1.5" ry="1.5" style="stroke:#C6A0F6;stroke-width:2;" width="132.9442" x="65.89" y="184.13"/><rect fill="#363A4F" height="31.792" rx="1.5" ry="1.5" style="stroke:#363A4F;stroke-width:2;" width="132.9442" x="65.89" y="184.13"/><rect fill="#363A4F" height="1.5" style="stroke:#363A4F;stroke-width:2;" width="132.9442" x="65.89" y="214.422"/><rect fill="none" height="31.792" rx="1.5" ry="1.5" style="stroke:#C6A0F6;stroke-width:2;" width="132.9442" x="65.89" y="184.13"/><ellipse cx="79.89" cy="200.026" fill="#B4A7E5" rx="10" ry="10" style="stroke:#181818;stroke-width:1;"/><path d="M77.4681,204.526 L77.4681,203.3229 L79.14,203.1354 L79.14,197.3541 L77.4681,197.151 L77.4681,195.9635 L82.515,195.9635 L82.515,197.151 L80.8119,197.3541 L80.8119,203.1354 L82.515,203.3229 L82.515,204.526 L77.4681,204.526 Z " fill="#CAD3F5"/><text fill="#A6DA95" font-family="Helvetica" font-size="16" font-style="italic" lengthAdjust="spacing" textLength="102.9442" x="92.89" y="206.234">Applicative&lt;F&gt;</text></g><!--class Monad<F>--><g class="entity" data-entity="Monad.F." data-source-line="8" data-uid="ent0006" id="entity_Monad.F."><rect fill="#24273A" height="31.792" rx="1.5" ry="1.5" style="stroke:#C6A0F6;stroke-width:2;" width="106.0162" x="79.35" y="275.93"/><rect fill="#363A4F" height="31.792" rx="1.5" ry="1.5" style="stroke:#363A4F;stroke-width:2;" width="106.0162" x="79.35" y="275.93"/><rect fill="#363A4F" height="1.5" style="stroke:#363A4F;stroke-width:2;" width="106.0162" x="79.35" y="306.222"/><rect fill="none" height="31.792" rx="1.5" ry="1.5" style="stroke:#C6A0F6;stroke-width:2;" width="106.0162" x="79.35" y="275.93"/><ellipse cx="93.35" cy="291.826" fill="#B4A7E5" rx="10" ry="10" style="stroke:#181818;stroke-width:1;"/><path d="M90.9281,296.326 L90.9281,295.1229 L92.6,294.9354 L92.6,289.1541 L90.9281,288.951 L90.9281,287.7635 L95.975,287.7635 L95.975,288.951 L94.2719,289.1541 L94.2719,294.9354 L95.975,295.1229 L95.975,296.326 L90.9281,296.326 Z " fill="#CAD3F5"/><text fill="#A6DA95" font-family="Helvetica" font-size="16" font-style="italic" lengthAdjust="spacing" textLength="76.0162" x="106.35" y="298.034">Monad&lt;F&gt;</text></g><!--class MonadError<F, E>--><g class="entity" data-entity="MonadError.F. E." data-source-line="9" data-uid="ent0008" id="entity_MonadError.F. E."><rect fill="#24273A" height="31.792" rx="1.5" ry="1.5" style="stroke:#C6A0F6;stroke-width:2;" width="158.8322" x="52.94" y="367.72"/><rect fill="#363A4F" height="31.792" rx="1.5" ry="1.5" style="stroke:#363A4F;stroke-width:2;" width="158.8322" x="52.94" y="367.72"/><rect fill="#363A4F" height="1.5" style="stroke:#363A4F;stroke-width:2;" width="158.8322" x="52.94" y="398.012"/><rect fill="none" height="31.792" rx="1.5" ry="1.5" style="stroke:#C6A0F6;stroke-width:2;" width="158.8322" x="52.94" y="367.72"/><ellipse cx="66.94" cy="383.616" fill="#B4A7E5" rx="10" ry="10" style="stroke:#181818;stroke-width:1;"/><path d="M64.5181,388.116 L64.5181,386.9129 L66.19,386.7254 L66.19,380.9441 L64.5181,380.741 L64.5181,379.5535 L69.565,379.5535 L69.565,380.741 L67.8619,380.9441 L67.8619,386.7254 L69.565,386.9129 L69.565,388.116 L64.5181,388.116 Z " fill="#CAD3F5"/><text fill="#A6DA95" font-family="Helvetica" font-size="16" font-style="italic" lengthAdjust="spacing" textLength="128.8322" x="79.94" y="389.824">MonadError&lt;F, E&gt;</text></g><!--reverse link Functor<F> to Applicative<F>--><g class="link" data-entity-1="Functor.F." data-entity-2="Applicative.F." data-source-line="7" data-uid="lnk5" id="link_Functor.F._Applicative.F."><path d="M132.36,142.47 C132.36,158.98 132.36,167.18 132.36,183.72" fill="none" id="Functor&lt;F&gt;-backto-Applicative&lt;F&gt;" style="stroke:#F5BDE6;stroke-width:1;"/><polygon fill="none" points="132.36,124.47,126.36,142.47,138.36,142.47,132.36,124.47" style="stroke:#F5BDE6;stroke-width:1;"/></g><!--reverse link Applicative<F> to Monad<F>--><g class="link" data-entity-1="Applicative.F." data-entity-2="Monad.F." data-source-line="8" data-uid="lnk7" id="link_Applicative.F._Monad.F."><path d="M132.36,234.26 C132.36,250.77 132.36,258.97 132.36,275.52" fill="none" id="Applicative&lt;F&gt;-backto-Monad&lt;F&gt;" style="stroke:#F5BDE6;stroke-width:1;"/><polygon fill="none" points="132.36,216.26,126.36,234.26,138.36,234.26,132.36,216.26" style="stroke:#F5BDE6;stroke-width:1;"/></g><!--reverse link Monad<F> to MonadError<F, E>--><g class="link" data-entity-1="Monad.F." data-entity-2="MonadError.F. E." data-source-line="9" data-uid="lnk9" id="link_Monad.F._MonadError.F. E."><path d="M132.36,326.05 C132.36,342.57 132.36,350.77 132.36,367.31" fill="none" id="Monad&lt;F&gt;-backto-MonadError&lt;F, E&gt;" style="stroke:#F5BDE6;stroke-width:1;"/><polygon fill="none" points="132.36,308.05,126.36,326.05,138.36,326.05,132.36,308.05" style="stroke:#F5BDE6;stroke-width:1;"/></g><!--SRC=[TOwnRiCm34HtVONgkPRs8WYG8TcQgKLdXcPh0XObI5HI_trb3qRIeXjnl7jtJomurO7ig9hAY_SPRkwBTQoNMYXZ52LHXp5umLWKUaQFe2bLH9O-0EB8eB5F4uZMCFKwKY0VWCMlfqjDDIEt4Wf9PnieN2WNOoGgsUvawRkL3CL-i0gLSiYiy-vjJhHUxbqWp_lEGh6hS6unOxWjov-02w4AQioxqxwxbmyfJTosyfMMrrRpd_yr2WoFpb-8F-vZpWldsHxlKnl8c6smTUwn-0S0]--></g></svg>