<svg xmlns="http://www.w3.org/2000/svg" xmlns:xlink="http://www.w3.org/1999/xlink" contentStyleType="text/css" data-diagram-type="CLASS" height="674px" preserveAspectRatio="none" style="width:1173px;height:674px;background:#24273A;" version="1.1" viewBox="0 0 1173 674" width="1173px" zoomAndPan="magnify"><defs/><g><rect fill="#24273A" height="674" style="stroke:none;stroke-width:1;" width="1173" x="0" y="0"/><g class="entity" data-entity="ArityNote" data-source-line="6" data-uid="ent0002" id="entity_ArityNote"><path d="M6,7.5 L6,47.1882 A1.5,1.5 0 0 0 7.5,48.6882 L257.2216,48.6882 A1.5,1.5 0 0 0 258.7216,47.1882 L258.7216,16 L248.7216,6 L7.5,6 A1.5,1.5 0 0 0 6,7.5" fill="#EED49F" style="stroke:#24273A;stroke-width:0.5;"/><path d="M248.7216,6 L248.7216,15.25 A0.75,0.75 0 0 0 249.4716,16 L258.7216,16 L248.7216,6" fill="#EED49F" style="stroke:#24273A;stroke-width:1;"/><text fill="#24273A" font-family="Helvetica" font-size="12" lengthAdjust="spacing" textLength="231.7216" x="12" y="23.8281">F extends WitnessArity&lt;TypeArity.Unary&gt;</text><text fill="#24273A" font-family="Helvetica" font-size="12" lengthAdjust="spacing" textLength="102.8288" x="12" y="40.1722">for all type classes</text></g><!--class Try--><g class="entity" data-entity="Try" data-source-line="8" data-uid="ent0003" id="entity_Try"><rect fill="#24273A" height="31.792" rx="1.5" ry="1.5" style="stroke:#C6A0F6;stroke-width:2;" width="61.8681" x="293.43" y="11.45"/><rect fill="#363A4F" height="31.792" rx="1.5" ry="1.5" style="stroke:#363A4F;stroke-width:2;" width="61.8681" x="293.43" y="11.45"/><rect fill="#363A4F" height="1.5" style="stroke:#363A4F;stroke-width:2;" width="61.8681" x="293.43" y="41.742"/><rect fill="none" height="31.792" rx="1.5" ry="1.5" style="stroke:#C6A0F6;stroke-width:2;" width="61.8681" x="293.43" y="11.45"/><ellipse cx="307.43" cy="27.346" fill="#B4A7E5" rx="10" ry="10" style="stroke:#181818;stroke-width:1;"/><path d="M305.0081,31.846 L305.0081,30.6429 L306.68,30.4554 L306.68,24.6741 L305.0081,24.471 L305.0081,23.2835 L310.055,23.2835 L310.055,24.471 L308.3519,24.6741 L308.3519,30.4554 L310.055,30.6429 L310.055,31.846 L305.0081,31.846 Z " fill="#CAD3F5"/><text fill="#A6DA95" font-family="Helvetica" font-size="16" font-style="italic" lengthAdjust="spacing" textLength="21.856" x="320.43" y="33.554">Try</text><rect fill="#24273A" height="18.3441" style="stroke:#C6A0F6;stroke-width:1;stroke-dasharray:2,2;" width="8.012" x="350.286" y="8.45"/><text fill="#CAD3F5" font-family="Helvetica" font-size="12" font-style="italic" lengthAdjust="spacing" textLength="6.012" x="351.286" y="22.2781">T</text></g><!--class TryKind--><g class="entity" data-entity="TryKind" data-source-line="11" data-uid="ent0004" id="entity_TryKind"><rect fill="#24273A" height="31.792" rx="1.5" ry="1.5" style="stroke:#C6A0F6;stroke-width:2;" width="316.8451" x="626.94" y="527.13"/><rect fill="#363A4F" height="31.792" rx="1.5" ry="1.5" style="stroke:#363A4F;stroke-width:2;" width="316.8451" x="626.94" y="527.13"/><rect fill="#363A4F" height="1.5" style="stroke:#363A4F;stroke-width:2;" width="316.8451" x="626.94" y="557.422"/><rect fill="none" height="31.792" rx="1.5" ry="1.5" style="stroke:#C6A0F6;stroke-width:2;" width="316.8451" x="626.94" y="527.13"/><ellipse cx="640.94" cy="543.026" fill="#B4A7E5" rx="10" ry="10" style="stroke:#181818;stroke-width:1;"/><path d="M638.5181,547.526 L638.5181,546.3229 L640.19,546.1354 L640.19,540.3541 L638.5181,540.151 L638.5181,538.9635 L643.565,538.9635 L643.565,540.151 L641.8619,540.3541 L641.8619,546.1354 L643.565,546.3229 L643.565,547.526 L638.5181,547.526 Z " fill="#CAD3F5"/><text fill="#A6DA95" font-family="Helvetica" font-size="16" font-style="italic" lengthAdjust="spacing" textLength="186.7844" x="653.94" y="549.234">TryKind&lt;T&gt;" extends "Kind</text><rect fill="#24273A" height="18.3441" style="stroke:#C6A0F6;stroke-width:1;stroke-dasharray:2,2;" width="98.0607" x="848.7244" y="524.13"/><text fill="#CAD3F5" font-family="Helvetica" font-size="12" font-style="italic" lengthAdjust="spacing" textLength="96.0607" x="849.7244" y="537.9581">TryKind.Witness, T</text></g><!--class TryFunctor--><g class="entity" data-entity="TryFunctor" data-source-line="13" data-uid="ent0005" id="entity_TryFunctor"><rect fill="#24273A" height="56.1362" rx="1.5" ry="1.5" style="stroke:#C6A0F6;stroke-width:2;" width="460.015" x="202.35" y="109.69"/><rect fill="#363A4F" height="31.792" rx="1.5" ry="1.5" style="stroke:#363A4F;stroke-width:2;" width="460.015" x="202.35" y="109.69"/><rect fill="#363A4F" height="1.5" style="stroke:#363A4F;stroke-width:2;" width="460.015" x="202.35" y="139.982"/><rect fill="none" height="56.1362" rx="1.5" ry="1.5" style="stroke:#C6A0F6;stroke-width:2;" width="460.015" x="202.35" y="109.69"/><ellipse cx="387.6134" cy="125.586" fill="#ADD1B2" rx="10" ry="10" style="stroke:#181818;stroke-width:1;"/><path d="M387.3321,130.211 Q386.0821,130.211 385.2853,129.6954 Q384.4884,129.1641 384.0978,128.211 Q383.7071,127.2579 383.7071,125.9766 Q383.7071,124.5548 384.1759,123.5391 Q384.6446,122.5079 385.5509,121.961 Q386.4571,121.3985 387.7696,121.3985 Q388.3946,121.3985 388.8634,121.5235 Q389.3478,121.6485 389.8321,121.8829 L389.254,123.3204 Q388.8165,123.086 388.4259,123.0079 Q388.0509,122.9298 387.7071,122.9298 Q386.879,122.9298 386.379,123.3048 Q385.8946,123.6641 385.6759,124.336 Q385.4728,125.0079 385.4728,125.9141 Q385.4728,127.3204 385.9728,128.0079 Q386.4884,128.6798 387.6134,128.6798 Q388.0353,128.6798 388.4728,128.5704 Q388.9103,128.461 389.504,128.1954 L389.504,129.7579 Q388.9884,129.9923 388.4259,130.1016 Q387.8634,130.211 387.3321,130.211 Z " fill="#CAD3F5"/><text fill="#A6DA95" font-family="Helvetica" font-size="16" lengthAdjust="spacing" textLength="81.4882" x="406.6134" y="131.794">TryFunctor</text><line style="stroke:#C6A0F6;stroke-width:2;" x1="203.35" x2="661.365" y1="141.482" y2="141.482"/><ellipse cx="213.35" cy="155.1541" fill="#84BE84" rx="3" ry="3" style="stroke:#038048;stroke-width:1;"/><text fill="#A6DA95" font-family="Helvetica" font-size="12" lengthAdjust="spacing" textLength="435.015" x="221.35" y="158.3101">Kind&lt;TryKind.Witness, B&gt; map(Function&lt;A, B&gt; f, Kind&lt;TryKind.Witness, A&gt; fa)</text></g><!--class Functor--><g class="entity" data-entity="Functor" data-source-line="14" data-uid="ent0006" id="entity_Functor"><rect fill="#24273A" height="31.792" rx="1.5" ry="1.5" style="stroke:#C6A0F6;stroke-width:2;" width="84.0961" x="390.31" y="11.45"/><rect fill="#363A4F" height="31.792" rx="1.5" ry="1.5" style="stroke:#363A4F;stroke-width:2;" width="84.0961" x="390.31" y="11.45"/><rect fill="#363A4F" height="1.5" style="stroke:#363A4F;stroke-width:2;" width="84.0961" x="390.31" y="41.742"/><rect fill="none" height="31.792" rx="1.5" ry="1.5" style="stroke:#C6A0F6;stroke-width:2;" width="84.0961" x="390.31" y="11.45"/><ellipse cx="404.31" cy="27.346" fill="#B4A7E5" rx="10" ry="10" style="stroke:#181818;stroke-width:1;"/><path d="M401.8881,31.846 L401.8881,30.6429 L403.56,30.4554 L403.56,24.6741 L401.8881,24.471 L401.8881,23.2835 L406.935,23.2835 L406.935,24.471 L405.2319,24.6741 L405.2319,30.4554 L406.935,30.6429 L406.935,31.846 L401.8881,31.846 Z " fill="#CAD3F5"/><text fill="#A6DA95" font-family="Helvetica" font-size="16" font-style="italic" lengthAdjust="spacing" textLength="54.0961" x="417.31" y="33.554">Functor</text></g><!--class TryApplicative--><g class="entity" data-entity="TryApplicative" data-source-line="16" data-uid="ent0008" id="entity_TryApplicative"><rect fill="#24273A" height="72.4803" rx="1.5" ry="1.5" style="stroke:#C6A0F6;stroke-width:2;" width="588.8599" x="296.93" y="226.82"/><rect fill="#363A4F" height="31.792" rx="1.5" ry="1.5" style="stroke:#363A4F;stroke-width:2;" width="588.8599" x="296.93" y="226.82"/><rect fill="#363A4F" height="1.5" style="stroke:#363A4F;stroke-width:2;" width="588.8599" x="296.93" y="257.112"/><rect fill="none" height="72.4803" rx="1.5" ry="1.5" style="stroke:#C6A0F6;stroke-width:2;" width="588.8599" x="296.93" y="226.82"/><ellipse cx="534.5918" cy="242.716" fill="#ADD1B2" rx="10" ry="10" style="stroke:#181818;stroke-width:1;"/><path d="M534.3106,247.341 Q533.0606,247.341 532.2637,246.8254 Q531.4668,246.2941 531.0762,245.341 Q530.6856,244.3879 530.6856,243.1066 Q530.6856,241.6848 531.1543,240.6691 Q531.6231,239.6379 532.5293,239.091 Q533.4356,238.5285 534.7481,238.5285 Q535.3731,238.5285 535.8418,238.6535 Q536.3262,238.7785 536.8106,239.0129 L536.2325,240.4504 Q535.795,240.216 535.4043,240.1379 Q535.0293,240.0598 534.6856,240.0598 Q533.8575,240.0598 533.3575,240.4348 Q532.8731,240.7941 532.6543,241.466 Q532.4512,242.1379 532.4512,243.0441 Q532.4512,244.4504 532.9512,245.1379 Q533.4668,245.8098 534.5918,245.8098 Q535.0137,245.8098 535.4512,245.7004 Q535.8887,245.591 536.4825,245.3254 L536.4825,246.8879 Q535.9668,247.1223 535.4043,247.2316 Q534.8418,247.341 534.3106,247.341 Z " fill="#CAD3F5"/><text fill="#A6DA95" font-family="Helvetica" font-size="16" lengthAdjust="spacing" textLength="105.5362" x="553.5918" y="248.924">TryApplicative</text><line style="stroke:#C6A0F6;stroke-width:2;" x1="297.93" x2="884.7899" y1="258.612" y2="258.612"/><ellipse cx="307.93" cy="272.2841" fill="#84BE84" rx="3" ry="3" style="stroke:#038048;stroke-width:1;"/><text fill="#A6DA95" font-family="Helvetica" font-size="12" lengthAdjust="spacing" textLength="206.2095" x="315.93" y="275.4401">Kind&lt;TryKind.Witness, A&gt; of(A value)</text><ellipse cx="307.93" cy="288.6282" fill="#84BE84" rx="3" ry="3" style="stroke:#038048;stroke-width:1;"/><text fill="#A6DA95" font-family="Helvetica" font-size="12" lengthAdjust="spacing" textLength="563.8599" x="315.93" y="291.7842">Kind&lt;TryKind.Witness, B&gt; ap(Kind&lt;TryKind.Witness, Function&lt;A, B&gt;&gt; ff, Kind&lt;TryKind.Witness, A&gt; fa)</text></g><!--class Applicative--><g class="entity" data-entity="Applicative" data-source-line="17" data-uid="ent0010" id="entity_Applicative"><rect fill="#24273A" height="31.792" rx="1.5" ry="1.5" style="stroke:#C6A0F6;stroke-width:2;" width="107.0081" x="697.86" y="121.86"/><rect fill="#363A4F" height="31.792" rx="1.5" ry="1.5" style="stroke:#363A4F;stroke-width:2;" width="107.0081" x="697.86" y="121.86"/><rect fill="#363A4F" height="1.5" style="stroke:#363A4F;stroke-width:2;" width="107.0081" x="697.86" y="152.152"/><rect fill="none" height="31.792" rx="1.5" ry="1.5" style="stroke:#C6A0F6;stroke-width:2;" width="107.0081" x="697.86" y="121.86"/><ellipse cx="711.86" cy="137.756" fill="#B4A7E5" rx="10" ry="10" style="stroke:#181818;stroke-width:1;"/><path d="M709.4381,142.256 L709.4381,141.0529 L711.11,140.8654 L711.11,135.0841 L709.4381,134.881 L709.4381,133.6935 L714.485,133.6935 L714.485,134.881 L712.7819,135.0841 L712.7819,140.8654 L714.485,141.0529 L714.485,142.256 L709.4381,142.256 Z " fill="#CAD3F5"/><text fill="#A6DA95" font-family="Helvetica" font-size="16" font-style="italic" lengthAdjust="spacing" textLength="77.0081" x="724.86" y="143.964">Applicative</text></g><!--class TryMonad--><g class="entity" data-entity="TryMonad" data-source-line="20" data-uid="ent0012" id="entity_TryMonad"><rect fill="#24273A" height="88.8244" rx="1.5" ry="1.5" style="stroke:#C6A0F6;stroke-width:2;" width="762.741" x="403.99" y="360.3"/><rect fill="#363A4F" height="31.792" rx="1.5" ry="1.5" style="stroke:#363A4F;stroke-width:2;" width="762.741" x="403.99" y="360.3"/><rect fill="#363A4F" height="1.5" style="stroke:#363A4F;stroke-width:2;" width="762.741" x="403.99" y="390.592"/><rect fill="none" height="88.8244" rx="1.5" ry="1.5" style="stroke:#C6A0F6;stroke-width:2;" width="762.741" x="403.99" y="360.3"/><ellipse cx="743.0804" cy="376.196" fill="#ADD1B2" rx="10" ry="10" style="stroke:#181818;stroke-width:1;"/><path d="M742.7992,380.821 Q741.5492,380.821 740.7523,380.3054 Q739.9554,379.7741 739.5648,378.821 Q739.1742,377.8679 739.1742,376.5866 Q739.1742,375.1648 739.6429,374.1491 Q740.1117,373.1179 741.0179,372.571 Q741.9242,372.0085 743.2367,372.0085 Q743.8617,372.0085 744.3304,372.1335 Q744.8148,372.2585 745.2992,372.4929 L744.7211,373.9304 Q744.2836,373.696 743.8929,373.6179 Q743.5179,373.5398 743.1742,373.5398 Q742.3461,373.5398 741.8461,373.9148 Q741.3617,374.2741 741.1429,374.946 Q740.9398,375.6179 740.9398,376.5241 Q740.9398,377.9304 741.4398,378.6179 Q741.9554,379.2898 743.0804,379.2898 Q743.5023,379.2898 743.9398,379.1804 Q744.3773,379.071 744.9711,378.8054 L744.9711,380.3679 Q744.4554,380.6023 743.8929,380.7116 Q743.3304,380.821 742.7992,380.821 Z " fill="#CAD3F5"/><text fill="#A6DA95" font-family="Helvetica" font-size="16" lengthAdjust="spacing" textLength="76.5602" x="762.0804" y="382.404">TryMonad</text><line style="stroke:#C6A0F6;stroke-width:2;" x1="404.99" x2="1165.731" y1="392.092" y2="392.092"/><ellipse cx="414.99" cy="405.7641" fill="#84BE84" rx="3" ry="3" style="stroke:#038048;stroke-width:1;"/><text fill="#A6DA95" font-family="Helvetica" font-size="12" lengthAdjust="spacing" textLength="595.996" x="422.99" y="408.9201">Kind&lt;TryKind.Witness, B&gt; flatMap(Function&lt;A, Kind&lt;TryKind.Witness, B&gt;&gt; f, Kind&lt;TryKind.Witness, A&gt; ma)</text><ellipse cx="414.99" cy="422.1082" fill="#84BE84" rx="3" ry="3" style="stroke:#038048;stroke-width:1;"/><text fill="#A6DA95" font-family="Helvetica" font-size="12" lengthAdjust="spacing" textLength="301.7542" x="422.99" y="425.2642">Kind&lt;TryKind.Witness, A&gt; raiseError(Throwable error)</text><ellipse cx="414.99" cy="438.4523" fill="#84BE84" rx="3" ry="3" style="stroke:#038048;stroke-width:1;"/><text fill="#A6DA95" font-family="Helvetica" font-size="12" lengthAdjust="spacing" textLength="737.741" x="422.99" y="441.6084">Kind&lt;TryKind.Witness, A&gt; handleErrorWith(Kind&lt;TryKind.Witness, A&gt; ma, Function&lt;Throwable, Kind&lt;TryKind.Witness, A&gt;&gt; handler)</text></g><!--class MonadError--><g class="entity" data-entity="MonadError" data-source-line="21" data-uid="ent0014" id="entity_MonadError"><rect fill="#24273A" height="31.792" rx="1.5" ry="1.5" style="stroke:#C6A0F6;stroke-width:2;" width="116.4162" x="921.15" y="247.17"/><rect fill="#363A4F" height="31.792" rx="1.5" ry="1.5" style="stroke:#363A4F;stroke-width:2;" width="116.4162" x="921.15" y="247.17"/><rect fill="#363A4F" height="1.5" style="stroke:#363A4F;stroke-width:2;" width="116.4162" x="921.15" y="277.462"/><rect fill="none" height="31.792" rx="1.5" ry="1.5" style="stroke:#C6A0F6;stroke-width:2;" width="116.4162" x="921.15" y="247.17"/><ellipse cx="935.15" cy="263.066" fill="#B4A7E5" rx="10" ry="10" style="stroke:#181818;stroke-width:1;"/><path d="M932.7281,267.566 L932.7281,266.3629 L934.4,266.1754 L934.4,260.3941 L932.7281,260.191 L932.7281,259.0035 L937.775,259.0035 L937.775,260.191 L936.0719,260.3941 L936.0719,266.1754 L937.775,266.3629 L937.775,267.566 L932.7281,267.566 Z " fill="#CAD3F5"/><text fill="#A6DA95" font-family="Helvetica" font-size="16" font-style="italic" lengthAdjust="spacing" textLength="86.4162" x="948.15" y="269.274">MonadError</text></g><!--class Kind--><g class="entity" data-entity="Kind" data-source-line="27" data-uid="ent0016" id="entity_Kind"><rect fill="#24273A" height="31.792" rx="1.5" ry="1.5" style="stroke:#C6A0F6;stroke-width:2;" width="63.7601" x="753.48" y="636.92"/><rect fill="#363A4F" height="31.792" rx="1.5" ry="1.5" style="stroke:#363A4F;stroke-width:2;" width="63.7601" x="753.48" y="636.92"/><rect fill="#363A4F" height="1.5" style="stroke:#363A4F;stroke-width:2;" width="63.7601" x="753.48" y="667.212"/><rect fill="none" height="31.792" rx="1.5" ry="1.5" style="stroke:#C6A0F6;stroke-width:2;" width="63.7601" x="753.48" y="636.92"/><ellipse cx="767.48" cy="652.816" fill="#ADD1B2" rx="10" ry="10" style="stroke:#181818;stroke-width:1;"/><path d="M767.1988,657.441 Q765.9488,657.441 765.1519,656.9254 Q764.355,656.3941 763.9644,655.441 Q763.5738,654.4879 763.5738,653.2066 Q763.5738,651.7848 764.0425,650.7691 Q764.5113,649.7379 765.4175,649.191 Q766.3238,648.6285 767.6363,648.6285 Q768.2613,648.6285 768.73,648.7535 Q769.2144,648.8785 769.6988,649.1129 L769.1206,650.5504 Q768.6831,650.316 768.2925,650.2379 Q767.9175,650.1598 767.5738,650.1598 Q766.7456,650.1598 766.2456,650.5348 Q765.7613,650.8941 765.5425,651.566 Q765.3394,652.2379 765.3394,653.1441 Q765.3394,654.5504 765.8394,655.2379 Q766.355,655.9098 767.48,655.9098 Q767.9019,655.9098 768.3394,655.8004 Q768.7769,655.691 769.3706,655.4254 L769.3706,656.9879 Q768.855,657.2223 768.2925,657.3316 Q767.73,657.441 767.1988,657.441 Z " fill="#CAD3F5"/><text fill="#A6DA95" font-family="Helvetica" font-size="16" lengthAdjust="spacing" textLength="33.7601" x="780.48" y="659.024">Kind</text></g><!--reverse link Functor to TryFunctor--><g class="link" data-entity-1="Functor" data-entity-2="TryFunctor" data-source-line="14" data-uid="lnk7" id="link_Functor_TryFunctor"><path d="M432.36,61.42 C432.36,78.4 432.36,88.37 432.36,109.27" fill="none" id="Functor-backto-TryFunctor" style="stroke:#F5BDE6;stroke-width:1;stroke-dasharray:7,7;"/><polygon fill="none" points="432.36,43.42,426.36,61.42,438.36,61.42,432.36,43.42" style="stroke:#F5BDE6;stroke-width:1;"/></g><!--reverse link TryFunctor to TryApplicative--><g class="link" data-entity-1="TryFunctor" data-entity-2="TryApplicative" data-source-line="17" data-uid="lnk9" id="link_TryFunctor_TryApplicative"><path d="M481.8727,177.1524 C504.7427,194.8924 520.55,207.15 545.3,226.34" fill="none" id="TryFunctor-backto-TryApplicative" style="stroke:#F5BDE6;stroke-width:1;"/><polygon fill="none" points="467.65,166.12,478.1953,181.8933,485.5502,172.4115,467.65,166.12" style="stroke:#F5BDE6;stroke-width:1;"/></g><!--reverse link Applicative to TryApplicative--><g class="link" data-entity-1="Applicative" data-entity-2="TryApplicative" data-source-line="17" data-uid="lnk11" id="link_Applicative_TryApplicative"><path d="M717.1625,165.1075 C693.7925,183.1175 668.56,202.57 637.46,226.54" fill="none" id="Applicative-backto-TryApplicative" style="stroke:#F5BDE6;stroke-width:1;stroke-dasharray:7,7;"/><polygon fill="none" points="731.42,154.12,713.5,160.355,720.825,169.86,731.42,154.12" style="stroke:#F5BDE6;stroke-width:1;"/></g><!--reverse link TryApplicative to TryMonad--><g class="link" data-entity-1="TryApplicative" data-entity-2="TryMonad" data-source-line="21" data-uid="lnk13" id="link_TryApplicative_TryMonad"><path d="M655.4264,310.1791 C680.9064,328.5291 697.6,340.54 724.55,359.94" fill="none" id="TryApplicative-backto-TryMonad" style="stroke:#F5BDE6;stroke-width:1;"/><polygon fill="none" points="640.82,299.66,651.92,315.048,658.9328,305.3103,640.82,299.66" style="stroke:#F5BDE6;stroke-width:1;"/></g><!--reverse link MonadError to TryMonad--><g class="link" data-entity-1="MonadError" data-entity-2="TryMonad" data-source-line="21" data-uid="lnk15" id="link_MonadError_TryMonad"><path d="M943.6221,289.7871 C916.9121,309.0171 884.4,332.42 846.1,359.99" fill="none" id="MonadError-backto-TryMonad" style="stroke:#F5BDE6;stroke-width:1;stroke-dasharray:7,7;"/><polygon fill="none" points="958.23,279.27,940.1164,284.9177,947.1278,294.6564,958.23,279.27" style="stroke:#F5BDE6;stroke-width:1;"/></g><!--link TryKind to Kind--><g class="link" data-entity-1="TryKind" data-entity-2="Kind" data-source-line="27" data-uid="lnk17" id="link_TryKind_Kind"><path codeLine="27" d="M785.36,559.01 C785.36,579.49 785.36,616.01 785.36,636.61" fill="none" id="TryKind-Kind" style="stroke:#F5BDE6;stroke-width:1;"/><text fill="#CAD3F5" font-family="Helvetica" font-size="12" lengthAdjust="spacing" textLength="44.7603" x="786.36" y="602.7481">extends</text></g><!--link TryMonad to TryKind--><g class="link" data-entity-1="TryMonad" data-entity-2="TryKind" data-source-line="29" data-uid="lnk18" id="link_TryMonad_TryKind"><path codeLine="29" d="M785.36,449.59 C785.36,476.05 785.36,502.13 785.36,520.7" fill="none" id="TryMonad-to-TryKind" style="stroke:#F5BDE6;stroke-width:1;stroke-dasharray:7,7;"/><polygon fill="#F5BDE6" points="785.36,526.7,789.36,517.7,785.36,521.7,781.36,517.7,785.36,526.7" style="stroke:#F5BDE6;stroke-width:1;"/><text fill="#CAD3F5" font-family="Helvetica" font-size="12" lengthAdjust="spacing" textLength="175.1413" x="786.36" y="492.9581">operates on &lt;TryKind.Witness&gt;</text></g><!--SRC=[bLFBRjj03BplLx0-sMWatOD0W0iqbo8vfUYb5tf5Hmli2xjK4gFelvTQFwAwjehSk1oICwE1FXclxT0HzCmntpPDmjVwsN0_R8PCIGVFvBdMmJLUXynO6Trev1W7hOsl76hT6-HGHOkU1sShxibHuz3uffHrbAvIlH4MSf5tuCXjA6MbV622nJtGcx1q6NuOzfJpEXdUtJtj8fMg_kunxTgVVXiIeBN0We2sc3Fb1M26ClOenvGo8ZXjKSlTfoH7sZ8WfJh7lXdV5Vp8ljXtzaXzq783xoV6lbA5U7pU3rwpI38kMl7fESEXTNwaXLyAu3DS9lZIWiEuBBic-BjrQMrlheol1SEL-lqkP1sZDHAAUQ6JcSlw9fCVqoYaORjSmmlQWLRpPiJBPUnlXsBZ0nuVWiTkwcvgUkAmp7rDIKAuTBgLFFiKNd5ZwR-fR2tomraoruRd0tEucl-u2Ksc8djvqWSqliV5sTKUVMVtkzBkbpCY9X6SMAwhFfvEOn1A7IQWgie6t1xJAD0-dxfkZp-Au25IGgOCmSC_GIZr1m00]--></g></svg>