<svg xmlns="http://www.w3.org/2000/svg" xmlns:xlink="http://www.w3.org/1999/xlink" contentStyleType="text/css" data-diagram-type="CLASS" height="839px" preserveAspectRatio="none" style="width:1694px;height:839px;background:#24273A;" version="1.1" viewBox="0 0 1694 839" width="1694px" zoomAndPan="magnify"><defs/><g><rect fill="#24273A" height="839" style="stroke:none;stroke-width:1;" width="1694" x="0" y="0"/><g class="entity" data-entity="ArityNote" data-source-line="7" data-uid="ent0002" id="entity_ArityNote"><path d="M27.16,626.536 L27.16,666.2243 A1.5,1.5 0 0 0 28.66,667.7243 L153.08,667.7243 L179.88,800.986 L161.08,667.7243 L278.3816,667.7243 A1.5,1.5 0 0 0 279.8816,666.2243 L279.8816,635.036 L269.8816,625.036 L28.66,625.036 A1.5,1.5 0 0 0 27.16,626.536" fill="#EED49F" style="stroke:#24273A;stroke-width:0.5;"/><path d="M269.8816,625.036 L269.8816,634.286 A0.75,0.75 0 0 0 270.6316,635.036 L279.8816,635.036 L269.8816,625.036" fill="#EED49F" style="stroke:#24273A;stroke-width:0.5;"/><text fill="#24273A" font-family="Helvetica" font-size="12" lengthAdjust="spacing" textLength="231.7216" x="33.16" y="642.8641">F extends WitnessArity&lt;TypeArity.Unary&gt;</text><text fill="#24273A" font-family="Helvetica" font-size="12" lengthAdjust="spacing" textLength="102.8288" x="33.16" y="659.2082">for all type classes</text></g><!--class Kind--><g class="entity" data-entity="Kind" data-source-line="9" data-uid="ent0003" id="entity_Kind"><rect fill="#24273A" height="31.792" rx="1.5" ry="1.5" style="stroke:#C6A0F6;stroke-width:2;" width="84.3082" x="140.37" y="801.486"/><rect fill="#363A4F" height="31.792" rx="1.5" ry="1.5" style="stroke:#363A4F;stroke-width:2;" width="84.3082" x="140.37" y="801.486"/><rect fill="#363A4F" height="1.5" style="stroke:#363A4F;stroke-width:2;" width="84.3082" x="140.37" y="831.7781"/><rect fill="none" height="31.792" rx="1.5" ry="1.5" style="stroke:#C6A0F6;stroke-width:2;" width="84.3082" x="140.37" y="801.486"/><ellipse cx="154.37" cy="817.382" fill="#B4A7E5" rx="10" ry="10" style="stroke:#181818;stroke-width:1;"/><path d="M151.9481,821.882 L151.9481,820.6789 L153.62,820.4914 L153.62,814.7102 L151.9481,814.507 L151.9481,813.3195 L156.995,813.3195 L156.995,814.507 L155.2919,814.7102 L155.2919,820.4914 L156.995,820.6789 L156.995,821.882 L151.9481,821.882 Z " fill="#CAD3F5"/><text fill="#A6DA95" font-family="Helvetica" font-size="16" font-style="italic" lengthAdjust="spacing" textLength="31.6481" x="167.37" y="823.5901">Kind</text><rect fill="#24273A" height="18.3441" style="stroke:#C6A0F6;stroke-width:1;stroke-dasharray:2,2;" width="20.6601" x="207.0181" y="798.486"/><text fill="#CAD3F5" font-family="Helvetica" font-size="12" font-style="italic" lengthAdjust="spacing" textLength="18.6601" x="208.0181" y="812.3141">F, A</text></g><!--class Functor--><g class="entity" data-entity="Functor" data-source-line="10" data-uid="ent0004" id="entity_Functor"><rect fill="#24273A" height="31.792" rx="1.5" ry="1.5" style="stroke:#C6A0F6;stroke-width:2;" width="93.8202" x="1362.61" y="10.016"/><rect fill="#363A4F" height="31.792" rx="1.5" ry="1.5" style="stroke:#363A4F;stroke-width:2;" width="93.8202" x="1362.61" y="10.016"/><rect fill="#363A4F" height="1.5" style="stroke:#363A4F;stroke-width:2;" width="93.8202" x="1362.61" y="40.3081"/><rect fill="none" height="31.792" rx="1.5" ry="1.5" style="stroke:#C6A0F6;stroke-width:2;" width="93.8202" x="1362.61" y="10.016"/><ellipse cx="1376.61" cy="25.912" fill="#B4A7E5" rx="10" ry="10" style="stroke:#181818;stroke-width:1;"/><path d="M1374.1881,30.412 L1374.1881,29.2089 L1375.86,29.0214 L1375.86,23.2402 L1374.1881,23.037 L1374.1881,21.8495 L1379.235,21.8495 L1379.235,23.037 L1377.5319,23.2402 L1377.5319,29.0214 L1379.235,29.2089 L1379.235,30.412 L1374.1881,30.412 Z " fill="#CAD3F5"/><text fill="#A6DA95" font-family="Helvetica" font-size="16" font-style="italic" lengthAdjust="spacing" textLength="54.0961" x="1389.61" y="32.1201">Functor</text><rect fill="#24273A" height="18.3441" style="stroke:#C6A0F6;stroke-width:1;stroke-dasharray:2,2;" width="7.724" x="1451.7061" y="7.016"/><text fill="#CAD3F5" font-family="Helvetica" font-size="12" font-style="italic" lengthAdjust="spacing" textLength="5.724" x="1452.7061" y="20.8441">F</text></g><!--class Applicative--><g class="entity" data-entity="Applicative" data-source-line="11" data-uid="ent0005" id="entity_Applicative"><rect fill="#24273A" height="31.792" rx="1.5" ry="1.5" style="stroke:#C6A0F6;stroke-width:2;" width="116.7322" x="984.16" y="114.986"/><rect fill="#363A4F" height="31.792" rx="1.5" ry="1.5" style="stroke:#363A4F;stroke-width:2;" width="116.7322" x="984.16" y="114.986"/><rect fill="#363A4F" height="1.5" style="stroke:#363A4F;stroke-width:2;" width="116.7322" x="984.16" y="145.2781"/><rect fill="none" height="31.792" rx="1.5" ry="1.5" style="stroke:#C6A0F6;stroke-width:2;" width="116.7322" x="984.16" y="114.986"/><ellipse cx="998.16" cy="130.882" fill="#B4A7E5" rx="10" ry="10" style="stroke:#181818;stroke-width:1;"/><path d="M995.7381,135.382 L995.7381,134.1789 L997.41,133.9914 L997.41,128.2102 L995.7381,128.007 L995.7381,126.8195 L1000.785,126.8195 L1000.785,128.007 L999.0819,128.2102 L999.0819,133.9914 L1000.785,134.1789 L1000.785,135.382 L995.7381,135.382 Z " fill="#CAD3F5"/><text fill="#A6DA95" font-family="Helvetica" font-size="16" font-style="italic" lengthAdjust="spacing" textLength="77.0081" x="1011.16" y="137.0901">Applicative</text><rect fill="#24273A" height="18.3441" style="stroke:#C6A0F6;stroke-width:1;stroke-dasharray:2,2;" width="7.724" x="1096.1681" y="111.986"/><text fill="#CAD3F5" font-family="Helvetica" font-size="12" font-style="italic" lengthAdjust="spacing" textLength="5.724" x="1097.1681" y="125.8141">F</text></g><!--class Monad--><g class="entity" data-entity="Monad" data-source-line="12" data-uid="ent0006" id="entity_Monad"><rect fill="#24273A" height="31.792" rx="1.5" ry="1.5" style="stroke:#C6A0F6;stroke-width:2;" width="89.8041" x="659.62" y="240.286"/><rect fill="#363A4F" height="31.792" rx="1.5" ry="1.5" style="stroke:#363A4F;stroke-width:2;" width="89.8041" x="659.62" y="240.286"/><rect fill="#363A4F" height="1.5" style="stroke:#363A4F;stroke-width:2;" width="89.8041" x="659.62" y="270.5781"/><rect fill="none" height="31.792" rx="1.5" ry="1.5" style="stroke:#C6A0F6;stroke-width:2;" width="89.8041" x="659.62" y="240.286"/><ellipse cx="673.62" cy="256.182" fill="#B4A7E5" rx="10" ry="10" style="stroke:#181818;stroke-width:1;"/><path d="M671.1981,260.682 L671.1981,259.4789 L672.87,259.2914 L672.87,253.5102 L671.1981,253.307 L671.1981,252.1195 L676.245,252.1195 L676.245,253.307 L674.5419,253.5102 L674.5419,259.2914 L676.245,259.4789 L676.245,260.682 L671.1981,260.682 Z " fill="#CAD3F5"/><text fill="#A6DA95" font-family="Helvetica" font-size="16" font-style="italic" lengthAdjust="spacing" textLength="50.0801" x="686.62" y="262.3901">Monad</text><rect fill="#24273A" height="18.3441" style="stroke:#C6A0F6;stroke-width:1;stroke-dasharray:2,2;" width="7.724" x="744.7001" y="237.286"/><text fill="#CAD3F5" font-family="Helvetica" font-size="12" font-style="italic" lengthAdjust="spacing" textLength="5.724" x="745.7001" y="251.1141">F</text></g><!--class Reader--><g class="entity" data-entity="Reader" data-source-line="17" data-uid="ent0008" id="entity_Reader"><rect fill="#24273A" height="154.2008" rx="1.5" ry="1.5" style="stroke:#C6A0F6;stroke-width:2;" width="313.302" x="314.87" y="569.286"/><rect fill="#363A4F" height="48.1362" rx="1.5" ry="1.5" style="stroke:#363A4F;stroke-width:2;" width="313.302" x="314.87" y="569.286"/><rect fill="#363A4F" height="1.5" style="stroke:#363A4F;stroke-width:2;" width="313.302" x="314.87" y="615.9222"/><rect fill="none" height="154.2008" rx="1.5" ry="1.5" style="stroke:#C6A0F6;stroke-width:2;" width="313.302" x="314.87" y="569.286"/><ellipse cx="398.6345" cy="593.3541" fill="#B4A7E5" rx="10" ry="10" style="stroke:#181818;stroke-width:1;"/><path d="M396.2126,597.8541 L396.2126,596.651 L397.8845,596.4635 L397.8845,590.6822 L396.2126,590.4791 L396.2126,589.2916 L401.2595,589.2916 L401.2595,590.4791 L399.5564,590.6822 L399.5564,596.4635 L401.2595,596.651 L401.2595,597.8541 L396.2126,597.8541 Z " fill="#CAD3F5"/><text fill="#CAD3F5" font-family="Helvetica" font-size="12" font-style="italic" lengthAdjust="spacing" textLength="117.9608" x="415.6345" y="587.1141">&#171;Functional Interface&#187;</text><text fill="#A6DA95" font-family="Helvetica" font-size="16" font-style="italic" lengthAdjust="spacing" textLength="49.8561" x="449.6869" y="607.7342">Reader</text><rect fill="#24273A" height="18.3441" style="stroke:#C6A0F6;stroke-width:1;stroke-dasharray:2,2;" width="21.8121" x="609.3599" y="566.286"/><text fill="#CAD3F5" font-family="Helvetica" font-size="12" font-style="italic" lengthAdjust="spacing" textLength="19.8121" x="610.3599" y="580.1141">R, A</text><line style="stroke:#C6A0F6;stroke-width:2;" x1="315.87" x2="627.172" y1="617.4222" y2="617.4222"/><ellipse cx="325.87" cy="631.0942" fill="#84BE84" rx="3" ry="3" style="stroke:#038048;stroke-width:1;"/><text fill="#A6DA95" font-family="Helvetica" font-size="12" lengthAdjust="spacing" textLength="53.3164" x="333.87" y="634.2503">A run(R r)</text><ellipse cx="325.87" cy="647.4384" fill="#84BE84" rx="3" ry="3" style="stroke:#038048;stroke-width:1;"/><text fill="#A6DA95" font-family="Helvetica" font-size="12" lengthAdjust="spacing" text-decoration="underline" textLength="208.9335" x="333.87" y="650.5944">Reader&lt;R, A&gt; of(Function&lt;R, A&gt; func)</text><ellipse cx="325.87" cy="663.7825" fill="#84BE84" rx="3" ry="3" style="stroke:#038048;stroke-width:1;"/><text fill="#A6DA95" font-family="Helvetica" font-size="12" lengthAdjust="spacing" text-decoration="underline" textLength="175.4772" x="333.87" y="666.9385">Reader&lt;R, A&gt; constant(A value)</text><ellipse cx="325.87" cy="680.1266" fill="#84BE84" rx="3" ry="3" style="stroke:#038048;stroke-width:1;"/><text fill="#A6DA95" font-family="Helvetica" font-size="12" lengthAdjust="spacing" text-decoration="underline" textLength="104.2687" x="333.87" y="683.2826">Reader&lt;R, R&gt; ask()</text><ellipse cx="325.87" cy="696.4707" fill="#84BE84" rx="3" ry="3" style="stroke:#038048;stroke-width:1;"/><text fill="#A6DA95" font-family="Helvetica" font-size="12" lengthAdjust="spacing" textLength="202.7534" x="333.87" y="699.6267">Reader&lt;R, B&gt; map(Function&lt;A, B&gt; f)</text><ellipse cx="325.87" cy="712.8148" fill="#84BE84" rx="3" ry="3" style="stroke:#038048;stroke-width:1;"/><text fill="#A6DA95" font-family="Helvetica" font-size="12" lengthAdjust="spacing" textLength="288.302" x="333.87" y="715.9708">Reader&lt;R, B&gt; flatMap(Function&lt;A, Reader&lt;R, B&gt;&gt; f)</text></g><!--class ReaderKindHelper--><g class="entity" data-entity="ReaderKindHelper" data-source-line="28" data-uid="ent0009" id="entity_ReaderKindHelper"><rect fill="#24273A" height="137.8567" rx="1.5" ry="1.5" style="stroke:#C6A0F6;stroke-width:2;" width="407.0466" x="7" y="353.426"/><rect fill="#363A4F" height="31.792" rx="1.5" ry="1.5" style="stroke:#363A4F;stroke-width:2;" width="407.0466" x="7" y="353.426"/><rect fill="#363A4F" height="1.5" style="stroke:#363A4F;stroke-width:2;" width="407.0466" x="7" y="383.7181"/><rect fill="none" height="137.8567" rx="1.5" ry="1.5" style="stroke:#C6A0F6;stroke-width:2;" width="407.0466" x="7" y="353.426"/><ellipse cx="137.6912" cy="369.322" fill="#ADD1B2" rx="10" ry="10" style="stroke:#181818;stroke-width:1;"/><path d="M137.4099,373.947 Q136.1599,373.947 135.363,373.4314 Q134.5662,372.9002 134.1755,371.947 Q133.7849,370.9939 133.7849,369.7127 Q133.7849,368.2908 134.2537,367.2752 Q134.7224,366.2439 135.6287,365.697 Q136.5349,365.1345 137.8474,365.1345 Q138.4724,365.1345 138.9412,365.2595 Q139.4255,365.3845 139.9099,365.6189 L139.3318,367.0564 Q138.8943,366.822 138.5037,366.7439 Q138.1287,366.6658 137.7849,366.6658 Q136.9568,366.6658 136.4568,367.0408 Q135.9724,367.4002 135.7537,368.072 Q135.5505,368.7439 135.5505,369.6502 Q135.5505,371.0564 136.0505,371.7439 Q136.5662,372.4158 137.6912,372.4158 Q138.113,372.4158 138.5505,372.3064 Q138.988,372.197 139.5818,371.9314 L139.5818,373.4939 Q139.0662,373.7283 138.5037,373.8377 Q137.9412,373.947 137.4099,373.947 Z " fill="#CAD3F5"/><text fill="#A6DA95" font-family="Helvetica" font-size="16" lengthAdjust="spacing" textLength="137.6643" x="156.6912" y="375.5301">ReaderKindHelper</text><line style="stroke:#C6A0F6;stroke-width:2;" x1="8" x2="413.0466" y1="385.2181" y2="385.2181"/><ellipse cx="18" cy="398.8901" fill="#84BE84" rx="3" ry="3" style="stroke:#038048;stroke-width:1;"/><text fill="#A6DA95" font-family="Helvetica" font-size="12" lengthAdjust="spacing" text-decoration="underline" textLength="340.8744" x="26" y="402.0462">Reader&lt;R, A&gt; narrow(Kind&lt;ReaderKind.Witness&lt;R&gt;, A&gt; kind)</text><ellipse cx="18" cy="415.2342" fill="#84BE84" rx="3" ry="3" style="stroke:#038048;stroke-width:1;"/><text fill="#A6DA95" font-family="Helvetica" font-size="12" lengthAdjust="spacing" text-decoration="underline" textLength="260.9418" x="26" y="418.3903">ReaderKind&lt;R, A&gt; widen(Reader&lt;R, A&gt; reader)</text><ellipse cx="18" cy="431.5784" fill="#84BE84" rx="3" ry="3" style="stroke:#038048;stroke-width:1;"/><text fill="#A6DA95" font-family="Helvetica" font-size="12" lengthAdjust="spacing" text-decoration="underline" textLength="304.4181" x="26" y="434.7344">ReaderKind&lt;R, A&gt; reader(Function&lt;R, A&gt; runFunction)</text><ellipse cx="18" cy="447.9225" fill="#84BE84" rx="3" ry="3" style="stroke:#038048;stroke-width:1;"/><text fill="#A6DA95" font-family="Helvetica" font-size="12" lengthAdjust="spacing" text-decoration="underline" textLength="200.7974" x="26" y="451.0785">ReaderKind&lt;R, A&gt; constant(A value)</text><ellipse cx="18" cy="464.2666" fill="#84BE84" rx="3" ry="3" style="stroke:#038048;stroke-width:1;"/><text fill="#A6DA95" font-family="Helvetica" font-size="12" lengthAdjust="spacing" text-decoration="underline" textLength="129.5889" x="26" y="467.4226">ReaderKind&lt;R, R&gt; ask()</text><ellipse cx="18" cy="480.6107" fill="#84BE84" rx="3" ry="3" style="stroke:#038048;stroke-width:1;"/><text fill="#A6DA95" font-family="Helvetica" font-size="12" lengthAdjust="spacing" text-decoration="underline" textLength="382.0466" x="26" y="483.7667">A runReader(Kind&lt;ReaderKind.Witness&lt;R&gt;, A&gt; kind, R environment)</text></g><!--class ReaderFunctor--><g class="entity" data-entity="ReaderFunctor" data-source-line="37" data-uid="ent0010" id="entity_ReaderFunctor"><rect fill="#24273A" height="56.1362" rx="1.5" ry="1.5" style="stroke:#C6A0F6;stroke-width:2;" width="547.0396" x="1136" y="102.806"/><rect fill="#363A4F" height="31.792" rx="1.5" ry="1.5" style="stroke:#363A4F;stroke-width:2;" width="547.0396" x="1136" y="102.806"/><rect fill="#363A4F" height="1.5" style="stroke:#363A4F;stroke-width:2;" width="547.0396" x="1136" y="133.0981"/><rect fill="none" height="56.1362" rx="1.5" ry="1.5" style="stroke:#C6A0F6;stroke-width:2;" width="547.0396" x="1136" y="102.806"/><ellipse cx="1344.4577" cy="118.702" fill="#ADD1B2" rx="10" ry="10" style="stroke:#181818;stroke-width:1;"/><path d="M1344.1764,123.327 Q1342.9264,123.327 1342.1295,122.8114 Q1341.3327,122.2802 1340.942,121.327 Q1340.5514,120.3739 1340.5514,119.0927 Q1340.5514,117.6708 1341.0202,116.6552 Q1341.4889,115.6239 1342.3952,115.077 Q1343.3014,114.5145 1344.6139,114.5145 Q1345.2389,114.5145 1345.7077,114.6395 Q1346.192,114.7645 1346.6764,114.9989 L1346.0983,116.4364 Q1345.6608,116.202 1345.2702,116.1239 Q1344.8952,116.0458 1344.5514,116.0458 Q1343.7233,116.0458 1343.2233,116.4208 Q1342.7389,116.7802 1342.5202,117.452 Q1342.317,118.1239 1342.317,119.0302 Q1342.317,120.4364 1342.817,121.1239 Q1343.3327,121.7958 1344.4577,121.7958 Q1344.8795,121.7958 1345.317,121.6864 Q1345.7545,121.577 1346.3483,121.3114 L1346.3483,122.8739 Q1345.8327,123.1083 1345.2702,123.2177 Q1344.7077,123.327 1344.1764,123.327 Z " fill="#CAD3F5"/><text fill="#A6DA95" font-family="Helvetica" font-size="16" lengthAdjust="spacing" textLength="111.2482" x="1363.4577" y="124.9101">ReaderFunctor</text><rect fill="#24273A" height="18.3441" style="stroke:#C6A0F6;stroke-width:1;stroke-dasharray:2,2;" width="8.8761" x="1677.1636" y="99.806"/><text fill="#CAD3F5" font-family="Helvetica" font-size="12" font-style="italic" lengthAdjust="spacing" textLength="6.8761" x="1678.1636" y="113.6341">R</text><line style="stroke:#C6A0F6;stroke-width:2;" x1="1137" x2="1682.0396" y1="134.5981" y2="134.5981"/><ellipse cx="1147" cy="148.2701" fill="#84BE84" rx="3" ry="3" style="stroke:#038048;stroke-width:1;"/><text fill="#A6DA95" font-family="Helvetica" font-size="12" lengthAdjust="spacing" textLength="522.0396" x="1155" y="151.4262">Kind&lt;ReaderKind.Witness&lt;R&gt;, B&gt; map(Function&lt;A, B&gt; f, Kind&lt;ReaderKind.Witness&lt;R&gt;, A&gt; fa)</text></g><!--class ReaderApplicative--><g class="entity" data-entity="ReaderApplicative" data-source-line="40" data-uid="ent0012" id="entity_ReaderApplicative"><rect fill="#24273A" height="72.4803" rx="1.5" ry="1.5" style="stroke:#C6A0F6;stroke-width:2;" width="719.3969" x="784.82" y="219.946"/><rect fill="#363A4F" height="31.792" rx="1.5" ry="1.5" style="stroke:#363A4F;stroke-width:2;" width="719.3969" x="784.82" y="219.946"/><rect fill="#363A4F" height="1.5" style="stroke:#363A4F;stroke-width:2;" width="719.3969" x="784.82" y="250.2381"/><rect fill="none" height="72.4803" rx="1.5" ry="1.5" style="stroke:#C6A0F6;stroke-width:2;" width="719.3969" x="784.82" y="219.946"/><ellipse cx="1067.4323" cy="235.842" fill="#ADD1B2" rx="10" ry="10" style="stroke:#181818;stroke-width:1;"/><path d="M1067.151,240.467 Q1065.901,240.467 1065.1042,239.9514 Q1064.3073,239.4202 1063.9167,238.467 Q1063.526,237.5139 1063.526,236.2327 Q1063.526,234.8108 1063.9948,233.7952 Q1064.4635,232.7639 1065.3698,232.217 Q1066.276,231.6545 1067.5885,231.6545 Q1068.2135,231.6545 1068.6823,231.7795 Q1069.1667,231.9045 1069.651,232.1389 L1069.0729,233.5764 Q1068.6354,233.342 1068.2448,233.2639 Q1067.8698,233.1858 1067.526,233.1858 Q1066.6979,233.1858 1066.1979,233.5608 Q1065.7135,233.9202 1065.4948,234.592 Q1065.2917,235.2639 1065.2917,236.1702 Q1065.2917,237.5764 1065.7917,238.2639 Q1066.3073,238.9358 1067.4323,238.9358 Q1067.8542,238.9358 1068.2917,238.8264 Q1068.7292,238.717 1069.3229,238.4514 L1069.3229,240.0139 Q1068.8073,240.2483 1068.2448,240.3577 Q1067.6823,240.467 1067.151,240.467 Z " fill="#CAD3F5"/><text fill="#A6DA95" font-family="Helvetica" font-size="16" lengthAdjust="spacing" textLength="135.2963" x="1086.4323" y="242.0501">ReaderApplicative</text><rect fill="#24273A" height="18.3441" style="stroke:#C6A0F6;stroke-width:1;stroke-dasharray:2,2;" width="8.8761" x="1498.3409" y="216.946"/><text fill="#CAD3F5" font-family="Helvetica" font-size="12" font-style="italic" lengthAdjust="spacing" textLength="6.8761" x="1499.3409" y="230.7741">R</text><line style="stroke:#C6A0F6;stroke-width:2;" x1="785.82" x2="1503.2169" y1="251.7381" y2="251.7381"/><ellipse cx="795.82" cy="265.4101" fill="#84BE84" rx="3" ry="3" style="stroke:#038048;stroke-width:1;"/><text fill="#A6DA95" font-family="Helvetica" font-size="12" lengthAdjust="spacing" textLength="249.7218" x="803.82" y="268.5662">Kind&lt;ReaderKind.Witness&lt;R&gt;, A&gt; of(A value)</text><ellipse cx="795.82" cy="281.7542" fill="#84BE84" rx="3" ry="3" style="stroke:#038048;stroke-width:1;"/><text fill="#A6DA95" font-family="Helvetica" font-size="12" lengthAdjust="spacing" textLength="694.3969" x="803.82" y="284.9103">Kind&lt;ReaderKind.Witness&lt;R&gt;, B&gt; ap(Kind&lt;ReaderKind.Witness&lt;R&gt;, Function&lt;A, B&gt;&gt; ff, Kind&lt;ReaderKind.Witness&lt;R&gt;, A&gt; fa)</text></g><!--class ReaderMonad--><g class="entity" data-entity="ReaderMonad" data-source-line="44" data-uid="ent0015" id="entity_ReaderMonad"><rect fill="#24273A" height="56.1362" rx="1.5" ry="1.5" style="stroke:#C6A0F6;stroke-width:2;" width="751.533" x="448.76" y="394.286"/><rect fill="#363A4F" height="31.792" rx="1.5" ry="1.5" style="stroke:#363A4F;stroke-width:2;" width="751.533" x="448.76" y="394.286"/><rect fill="#363A4F" height="1.5" style="stroke:#363A4F;stroke-width:2;" width="751.533" x="448.76" y="424.5781"/><rect fill="none" height="56.1362" rx="1.5" ry="1.5" style="stroke:#C6A0F6;stroke-width:2;" width="751.533" x="448.76" y="394.286"/><ellipse cx="761.9284" cy="410.182" fill="#ADD1B2" rx="10" ry="10" style="stroke:#181818;stroke-width:1;"/><path d="M761.6471,414.807 Q760.3971,414.807 759.6002,414.2914 Q758.8034,413.7602 758.4127,412.807 Q758.0221,411.8539 758.0221,410.5727 Q758.0221,409.1508 758.4909,408.1352 Q758.9596,407.1039 759.8659,406.557 Q760.7721,405.9945 762.0846,405.9945 Q762.7096,405.9945 763.1784,406.1195 Q763.6627,406.2445 764.1471,406.4789 L763.569,407.9164 Q763.1315,407.682 762.7409,407.6039 Q762.3659,407.5258 762.0221,407.5258 Q761.194,407.5258 760.694,407.9008 Q760.2096,408.2602 759.9909,408.932 Q759.7877,409.6039 759.7877,410.5102 Q759.7877,411.9164 760.2877,412.6039 Q760.8034,413.2758 761.9284,413.2758 Q762.3502,413.2758 762.7877,413.1664 Q763.2252,413.057 763.819,412.7914 L763.819,414.3539 Q763.3034,414.5883 762.7409,414.6977 Q762.1784,414.807 761.6471,414.807 Z " fill="#CAD3F5"/><text fill="#A6DA95" font-family="Helvetica" font-size="16" lengthAdjust="spacing" textLength="106.3202" x="780.9284" y="416.3901">ReaderMonad</text><rect fill="#24273A" height="18.3441" style="stroke:#C6A0F6;stroke-width:1;stroke-dasharray:2,2;" width="8.8761" x="1194.417" y="391.286"/><text fill="#CAD3F5" font-family="Helvetica" font-size="12" font-style="italic" lengthAdjust="spacing" textLength="6.8761" x="1195.417" y="405.1141">R</text><line style="stroke:#C6A0F6;stroke-width:2;" x1="449.76" x2="1199.293" y1="426.0781" y2="426.0781"/><ellipse cx="459.76" cy="439.7501" fill="#84BE84" rx="3" ry="3" style="stroke:#038048;stroke-width:1;"/><text fill="#A6DA95" font-family="Helvetica" font-size="12" lengthAdjust="spacing" textLength="726.533" x="467.76" y="442.9062">Kind&lt;ReaderKind.Witness&lt;R&gt;, B&gt; flatMap(Function&lt;A, Kind&lt;ReaderKind.Witness&lt;R&gt;, B&gt;&gt; f, Kind&lt;ReaderKind.Witness&lt;R&gt;, A&gt; ma)</text></g><!--class ReaderKind<R,A>--><g class="entity" data-entity="ReaderKind.R.A." data-source-line="50" data-uid="ent0018" id="entity_ReaderKind.R.A."><rect fill="#24273A" height="31.792" rx="1.5" ry="1.5" style="stroke:#C6A0F6;stroke-width:2;" width="159.9523" x="663.55" y="630.486"/><rect fill="#363A4F" height="31.792" rx="1.5" ry="1.5" style="stroke:#363A4F;stroke-width:2;" width="159.9523" x="663.55" y="630.486"/><rect fill="#363A4F" height="1.5" style="stroke:#363A4F;stroke-width:2;" width="159.9523" x="663.55" y="660.7781"/><rect fill="none" height="31.792" rx="1.5" ry="1.5" style="stroke:#C6A0F6;stroke-width:2;" width="159.9523" x="663.55" y="630.486"/><ellipse cx="677.55" cy="646.382" fill="#ADD1B2" rx="10" ry="10" style="stroke:#181818;stroke-width:1;"/><path d="M677.2688,651.007 Q676.0188,651.007 675.2219,650.4914 Q674.425,649.9602 674.0344,649.007 Q673.6438,648.0539 673.6438,646.7727 Q673.6438,645.3508 674.1125,644.3352 Q674.5813,643.3039 675.4875,642.757 Q676.3938,642.1945 677.7063,642.1945 Q678.3313,642.1945 678.8,642.3195 Q679.2844,642.4445 679.7688,642.6789 L679.1906,644.1164 Q678.7531,643.882 678.3625,643.8039 Q677.9875,643.7258 677.6438,643.7258 Q676.8156,643.7258 676.3156,644.1008 Q675.8313,644.4602 675.6125,645.132 Q675.4094,645.8039 675.4094,646.7102 Q675.4094,648.1164 675.9094,648.8039 Q676.425,649.4758 677.55,649.4758 Q677.9719,649.4758 678.4094,649.3664 Q678.8469,649.257 679.4406,648.9914 L679.4406,650.5539 Q678.925,650.7883 678.3625,650.8977 Q677.8,651.007 677.2688,651.007 Z " fill="#CAD3F5"/><text fill="#A6DA95" font-family="Helvetica" font-size="16" lengthAdjust="spacing" textLength="129.9523" x="690.55" y="652.5901">ReaderKind&lt;R,A&gt;</text></g><!--reverse link Functor to ReaderFunctor--><g class="link" data-entity-1="Functor" data-entity-2="ReaderFunctor" data-source-line="38" data-uid="lnk11" id="link_Functor_ReaderFunctor"><path d="M1409.52,60.106 C1409.52,75.996 1409.52,83.266 1409.52,102.616" fill="none" id="Functor-backto-ReaderFunctor" style="stroke:#F5BDE6;stroke-width:1;stroke-dasharray:7,7;"/><polygon fill="none" points="1409.52,42.106,1403.52,60.106,1415.52,60.106,1409.52,42.106" style="stroke:#F5BDE6;stroke-width:1;"/></g><!--reverse link ReaderFunctor to ReaderApplicative--><g class="link" data-entity-1="ReaderFunctor" data-entity-2="ReaderApplicative" data-source-line="41" data-uid="lnk13" id="link_ReaderFunctor_ReaderApplicative"><path d="M1334.0615,166.9925 C1295.9315,184.7425 1262.27,200.396 1221.11,219.546" fill="none" id="ReaderFunctor-backto-ReaderApplicative" style="stroke:#F5BDE6;stroke-width:1;"/><polygon fill="none" points="1350.38,159.396,1331.5293,161.553,1336.5937,172.432,1350.38,159.396" style="stroke:#F5BDE6;stroke-width:1;"/></g><!--reverse link Applicative to ReaderApplicative--><g class="link" data-entity-1="Applicative" data-entity-2="ReaderApplicative" data-source-line="41" data-uid="lnk14" id="link_Applicative_ReaderApplicative"><path d="M1066.714,161.1149 C1081.614,179.1249 1095.31,195.696 1115.14,219.656" fill="none" id="Applicative-backto-ReaderApplicative" style="stroke:#F5BDE6;stroke-width:1;stroke-dasharray:7,7;"/><polygon fill="none" points="1055.24,147.246,1062.091,164.9396,1071.337,157.2903,1055.24,147.246" style="stroke:#F5BDE6;stroke-width:1;"/></g><!--reverse link ReaderApplicative to ReaderMonad--><g class="link" data-entity-1="ReaderApplicative" data-entity-2="ReaderMonad" data-source-line="45" data-uid="lnk16" id="link_ReaderApplicative_ReaderMonad"><path d="M1059.0746,301.0224 C999.9746,331.3424 932.31,366.056 878.23,393.806" fill="none" id="ReaderApplicative-backto-ReaderMonad" style="stroke:#F5BDE6;stroke-width:1;"/><polygon fill="none" points="1075.09,292.806,1056.3359,295.6839,1061.8134,306.3608,1075.09,292.806" style="stroke:#F5BDE6;stroke-width:1;"/></g><!--reverse link Monad to ReaderMonad--><g class="link" data-entity-1="Monad" data-entity-2="ReaderMonad" data-source-line="45" data-uid="lnk17" id="link_Monad_ReaderMonad"><path d="M726.2229,286.8671 C746.4729,314.5671 779.1,359.216 804.59,394.086" fill="none" id="Monad-backto-ReaderMonad" style="stroke:#F5BDE6;stroke-width:1;stroke-dasharray:7,7;"/><polygon fill="none" points="715.6,272.336,721.3792,290.4081,731.0666,283.3262,715.6,272.336" style="stroke:#F5BDE6;stroke-width:1;"/></g><!--link ReaderKind<R,A> to Kind--><g class="link" data-entity-1="ReaderKind.R.A." data-entity-2="Kind" data-source-line="50" data-uid="lnk19" id="link_ReaderKind.R.A._Kind"><path codeLine="50" d="M728.73,662.526 C710.73,680.026 678.63,708.336 645.52,723.486 C500.71,789.746 315.0676,808.5512 231.0576,813.9512" fill="none" id="ReaderKind&lt;R,A&gt;-to-Kind" style="stroke:#F5BDE6;stroke-width:1;"/><polygon fill="#F5BDE6" points="225.07,814.336,234.308,817.7505,230.0597,814.0153,233.7949,809.767,225.07,814.336" style="stroke:#F5BDE6;stroke-width:1;"/><text fill="#CAD3F5" font-family="Helvetica" font-size="12" lengthAdjust="spacing" textLength="209.6775" x="562.56" y="767.3141">extends &lt;ReaderKind.Witness&lt;R&gt;, A&gt;</text></g><!--link ReaderKindHelper to Reader--><g class="link" data-entity-1="ReaderKindHelper" data-entity-2="Reader" data-source-line="52" data-uid="lnk20" id="link_ReaderKindHelper_Reader"><path codeLine="52" d="M233.88,491.516 C241.99,508.526 252.43,525.756 265.52,539.286 C279.86,554.096 291.6858,563.9715 309.4658,575.5015" fill="none" id="ReaderKindHelper-to-Reader" style="stroke:#F5BDE6;stroke-width:1;stroke-dasharray:7,7;"/><polygon fill="#F5BDE6" points="314.5,578.766,309.1251,570.5131,310.3049,576.0456,304.7724,577.2253,314.5,578.766" style="stroke:#F5BDE6;stroke-width:1;"/><text fill="#CAD3F5" font-family="Helvetica" font-size="12" lengthAdjust="spacing" textLength="90.8047" x="266.52" y="535.1141">widens/narrows</text></g><!--link ReaderKindHelper to ReaderKind<R,A>--><g class="link" data-entity-1="ReaderKindHelper" data-entity-2="ReaderKind.R.A." data-source-line="53" data-uid="lnk21" id="link_ReaderKindHelper_ReaderKind.R.A."><path codeLine="53" d="M406.34,491.646 C452.85,507.556 502.37,524.236 548.52,539.286 C591.43,553.276 605.5,548.436 645.52,569.286 C677.43,585.896 705.004,609.1433 723.384,626.1333" fill="none" id="ReaderKindHelper-to-ReaderKind&lt;R,A&gt;" style="stroke:#F5BDE6;stroke-width:1;stroke-dasharray:7,7;"/><polygon fill="#F5BDE6" points="727.79,630.206,723.8962,621.1596,724.1184,626.8121,718.4659,627.0342,727.79,630.206" style="stroke:#F5BDE6;stroke-width:1;"/><text fill="#CAD3F5" font-family="Helvetica" font-size="12" lengthAdjust="spacing" textLength="90.8047" x="549.52" y="535.1141">widens/narrows</text></g><!--link ReaderMonad to ReaderKind<R,A>--><g class="link" data-entity-1="ReaderMonad" data-entity-2="ReaderKind.R.A." data-source-line="55" data-uid="lnk22" id="link_ReaderMonad_ReaderKind.R.A."><path codeLine="55" d="M814.59,450.576 C797.4,497.706 764.6866,587.3695 751.1466,624.4795" fill="none" id="ReaderMonad-to-ReaderKind&lt;R,A&gt;" style="stroke:#F5BDE6;stroke-width:1;stroke-dasharray:7,7;"/><polygon fill="#F5BDE6" points="749.09,630.116,755.9325,623.0323,750.8038,625.4189,748.4171,620.2902,749.09,630.116" style="stroke:#F5BDE6;stroke-width:1;"/><text fill="#CAD3F5" font-family="Helvetica" font-size="12" lengthAdjust="spacing" textLength="179.5933" x="787.45" y="535.1141">operates on &lt;ReaderKind&lt;R,?&gt;&gt;</text></g><!--link ReaderMonad to Reader--><g class="link" data-entity-1="ReaderMonad" data-entity-2="Reader" data-source-line="56" data-uid="lnk23" id="link_ReaderMonad_Reader"><path codeLine="56" d="M780.88,450.806 C734.22,480.156 663.209,524.8217 598.179,565.7217" fill="none" id="ReaderMonad-to-Reader" style="stroke:#F5BDE6;stroke-width:1;stroke-dasharray:7,7;"/><polygon fill="#F5BDE6" points="593.1,568.916,602.848,567.5104,597.3325,566.254,598.5889,560.7385,593.1,568.916" style="stroke:#F5BDE6;stroke-width:1;"/><text fill="#CAD3F5" font-family="Helvetica" font-size="12" lengthAdjust="spacing" textLength="93.4327" x="659.61" y="535.1141">uses methods of</text></g><!--SRC=[fLN1Rjim3BthAxXSbcArVIyC5TuXs31qXs33BhkeYZmBbIL1afC5HVzzZ9oaSc8dHNUpgCT7yf6KFqZDLRSIq8HW_LrHEBR9_yZGT8-T5uuR7OGEEJTjeRdnWMMI5vm5QplEfSvQndaZMJ2PLKo7hbLPQ4GhYfP9NSJFtAAL4D9832DQ6xRGYlPHE4-8Da70R07YBuPPUVWbWnRULqw6RVbZQqNyodzgvhRqjwwD0wOK1Bm1hfZtmi-0UOYmxqX6YCICNSsuW6zIhyh5BLGqCIuwpODnvI8rLjOgYLN9jHXUF1ZDLZiJEKQ0F8_C90sr56mbNBdS1OEoZ44a-YhuUi1G2iy403v11QxJyoMuc_xyZB86oL-6BAQU7sZsbXgF5rsmMsZNOLx1cgbEJ8EN55Lxcky1h_RF55fcNmDNqLIFuMh5miC9DWL4jnTKYSH6xUzsodqHoWeNrPYg1Fljp6OUE_ZgcE_7erpIY7f2syqOI-yNCHkSEXGx9NVnSCsnHvts03jti5mZ6El693vfI8A9az83tw85qe3GQ-cCRd5he_of-8VPns2ojKhiGFwu4QFSnw6z57vYQcxXIiurswMOPfWk8cPvU1OkfJzmUNS9_S8Dz-PAoLZn9SHG3IpsFNhqxy-P4YSo9Mhi7VwdbMEBVTdbBRrkMVyQVCGIC03o-aPQJsQ3FQZe3BACHZAuErOzpKl8sRkIvtGl4pB4zVT5_vxuSV1v2cT-96d7f8z1GXQ41wFJZF7-dj8pXcEA-9_r-4SCZS5AJKt-0G00]--></g></svg>