<svg xmlns="http://www.w3.org/2000/svg" xmlns:xlink="http://www.w3.org/1999/xlink" contentStyleType="text/css" data-diagram-type="CLASS" height="1062px" preserveAspectRatio="none" style="width:1280px;height:1062px;background:#24273A;" version="1.1" viewBox="0 0 1280 1062" width="1280px" zoomAndPan="magnify"><defs/><g><rect fill="#24273A" height="1062" style="stroke:none;stroke-width:1;" width="1280" x="0" y="0"/><g class="entity" data-entity="ArityNote" data-source-line="5" data-uid="ent0002" id="entity_ArityNote"><path d="M635.47,7.5 L635.47,47.1882 A1.5,1.5 0 0 0 636.97,48.6882 L936.6,48.6882 A1.5,1.5 0 0 0 938.1,47.1882 L938.1,16 L928.1,6 L636.97,6 A1.5,1.5 0 0 0 635.47,7.5" fill="#EED49F" style="stroke:#24273A;stroke-width:0.5;"/><path d="M928.1,6 L928.1,15.25 A0.75,0.75 0 0 0 928.85,16 L938.1,16 L928.1,6" fill="#EED49F" style="stroke:#24273A;stroke-width:1;"/><text fill="#24273A" font-family="Helvetica" font-size="12" lengthAdjust="spacing" textLength="231.7216" x="641.47" y="23.8281">F extends WitnessArity&lt;TypeArity.Unary&gt;</text><text fill="#24273A" font-family="Helvetica" font-size="12" lengthAdjust="spacing" textLength="281.63" x="641.47" y="40.1722">Witness&lt;F&gt; also implements WitnessArity&lt;Unary&gt;</text></g><!--class MaybeTKind--><g class="entity" data-entity="MaybeTKind" data-source-line="7" data-uid="ent0003" id="entity_MaybeTKind"><rect fill="#24273A" height="56.1362" rx="1.5" ry="1.5" style="stroke:#C6A0F6;stroke-width:2;" width="250.6016" x="420.48" y="767.98"/><rect fill="#363A4F" height="31.792" rx="1.5" ry="1.5" style="stroke:#363A4F;stroke-width:2;" width="250.6016" x="420.48" y="767.98"/><rect fill="#363A4F" height="1.5" style="stroke:#363A4F;stroke-width:2;" width="250.6016" x="420.48" y="798.272"/><rect fill="none" height="56.1362" rx="1.5" ry="1.5" style="stroke:#C6A0F6;stroke-width:2;" width="250.6016" x="420.48" y="767.98"/><ellipse cx="486.9866" cy="783.876" fill="#B4A7E5" rx="10" ry="10" style="stroke:#181818;stroke-width:1;"/><path d="M484.5648,788.376 L484.5648,787.1729 L486.2366,786.9854 L486.2366,781.2041 L484.5648,781.001 L484.5648,779.8135 L489.6116,779.8135 L489.6116,781.001 L487.9085,781.2041 L487.9085,786.9854 L489.6116,787.1729 L489.6116,788.376 L484.5648,788.376 Z " fill="#CAD3F5"/><text fill="#A6DA95" font-family="Helvetica" font-size="16" font-style="italic" lengthAdjust="spacing" textLength="86.9282" x="505.9866" y="790.084">MaybeTKind</text><rect fill="#24273A" height="18.3441" style="stroke:#C6A0F6;stroke-width:1;stroke-dasharray:2,2;" width="20.6601" x="653.4215" y="764.98"/><text fill="#CAD3F5" font-family="Helvetica" font-size="12" font-style="italic" lengthAdjust="spacing" textLength="18.6601" x="654.4215" y="778.8081">F, A</text><line style="stroke:#C6A0F6;stroke-width:2;" x1="421.48" x2="670.0816" y1="799.772" y2="799.772"/><ellipse cx="431.48" cy="813.4441" fill="#84BE84" rx="3" ry="3" style="stroke:#038048;stroke-width:1;"/><text fill="#A6DA95" font-family="Helvetica" font-size="12" lengthAdjust="spacing" text-decoration="underline" textLength="225.6016" x="439.48" y="816.6001">class Witness&lt;OUTER_F&gt; &#171;(W,lightblue)&#187;</text></g><!--class Kind--><g class="entity" data-entity="Kind" data-source-line="8" data-uid="ent0004" id="entity_Kind"><rect fill="#24273A" height="31.792" rx="1.5" ry="1.5" style="stroke:#C6A0F6;stroke-width:2;" width="61.6481" x="514.96" y="675.19"/><rect fill="#363A4F" height="31.792" rx="1.5" ry="1.5" style="stroke:#363A4F;stroke-width:2;" width="61.6481" x="514.96" y="675.19"/><rect fill="#363A4F" height="1.5" style="stroke:#363A4F;stroke-width:2;" width="61.6481" x="514.96" y="705.482"/><rect fill="none" height="31.792" rx="1.5" ry="1.5" style="stroke:#C6A0F6;stroke-width:2;" width="61.6481" x="514.96" y="675.19"/><ellipse cx="528.96" cy="691.086" fill="#B4A7E5" rx="10" ry="10" style="stroke:#181818;stroke-width:1;"/><path d="M526.5381,695.586 L526.5381,694.3829 L528.21,694.1954 L528.21,688.4141 L526.5381,688.211 L526.5381,687.0235 L531.585,687.0235 L531.585,688.211 L529.8819,688.4141 L529.8819,694.1954 L531.585,694.3829 L531.585,695.586 L526.5381,695.586 Z " fill="#CAD3F5"/><text fill="#A6DA95" font-family="Helvetica" font-size="16" font-style="italic" lengthAdjust="spacing" textLength="31.6481" x="541.96" y="697.294">Kind</text></g><!--class MaybeT<F, A>--><g class="entity" data-entity="MaybeT.F. A." data-source-line="12" data-uid="ent0006" id="entity_MaybeT.F. A."><rect fill="#24273A" height="170.2008" rx="1.5" ry="1.5" style="stroke:#C6A0F6;stroke-width:2;" width="422.6109" x="334.48" y="885.12"/><rect fill="#363A4F" height="31.792" rx="1.5" ry="1.5" style="stroke:#363A4F;stroke-width:2;" width="422.6109" x="334.48" y="885.12"/><rect fill="#363A4F" height="1.5" style="stroke:#363A4F;stroke-width:2;" width="422.6109" x="334.48" y="915.412"/><rect fill="none" height="170.2008" rx="1.5" ry="1.5" style="stroke:#C6A0F6;stroke-width:2;" width="422.6109" x="334.48" y="885.12"/><ellipse cx="489.4413" cy="901.016" fill="#ADD1B2" rx="10" ry="10" style="stroke:#181818;stroke-width:1;"/><path d="M489.1601,905.641 Q487.9101,905.641 487.1132,905.1254 Q486.3163,904.5941 485.9257,903.641 Q485.5351,902.6879 485.5351,901.4066 Q485.5351,899.9848 486.0038,898.9691 Q486.4726,897.9379 487.3788,897.391 Q488.2851,896.8285 489.5976,896.8285 Q490.2226,896.8285 490.6913,896.9535 Q491.1757,897.0785 491.6601,897.3129 L491.082,898.7504 Q490.6445,898.516 490.2538,898.4379 Q489.8788,898.3598 489.5351,898.3598 Q488.707,898.3598 488.207,898.7348 Q487.7226,899.0941 487.5038,899.766 Q487.3007,900.4379 487.3007,901.3441 Q487.3007,902.7504 487.8007,903.4379 Q488.3163,904.1098 489.4413,904.1098 Q489.8632,904.1098 490.3007,904.0004 Q490.7382,903.891 491.332,903.6254 L491.332,905.1879 Q490.8163,905.4223 490.2538,905.5316 Q489.6913,905.641 489.1601,905.641 Z " fill="#CAD3F5"/><text fill="#A6DA95" font-family="Helvetica" font-size="16" lengthAdjust="spacing" textLength="104.6882" x="508.4413" y="907.224">MaybeT&lt;F, A&gt;</text><line style="stroke:#C6A0F6;stroke-width:2;" x1="335.48" x2="756.0909" y1="916.912" y2="916.912"/><ellipse cx="345.48" cy="930.5841" fill="none" rx="3" ry="3" style="stroke:#038048;stroke-width:1;"/><text fill="#A6DA95" font-family="Helvetica" font-size="12" lengthAdjust="spacing" textLength="147.337" x="353.48" y="933.7401">value: Kind&lt;F, Maybe&lt;A&gt;&gt;</text><line style="stroke:#C6A0F6;stroke-width:1;" x1="335.48" x2="756.0909" y1="941.2562" y2="941.2562"/><ellipse cx="345.48" cy="954.9282" fill="#84BE84" rx="3" ry="3" style="stroke:#038048;stroke-width:1;"/><text fill="#A6DA95" font-family="Helvetica" font-size="12" lengthAdjust="spacing" text-decoration="underline" textLength="255.8298" x="353.48" y="958.0842">fromKind(Kind&lt;F, Maybe&lt;A&gt;&gt;): MaybeT&lt;F, A&gt;</text><ellipse cx="345.48" cy="971.2723" fill="#84BE84" rx="3" ry="3" style="stroke:#038048;stroke-width:1;"/><text fill="#A6DA95" font-family="Helvetica" font-size="12" lengthAdjust="spacing" text-decoration="underline" textLength="269.6539" x="353.48" y="974.4284">just(Monad&lt;F&gt; outerMonad, A a): MaybeT&lt;F, A&gt;</text><ellipse cx="345.48" cy="987.6164" fill="#84BE84" rx="3" ry="3" style="stroke:#038048;stroke-width:1;"/><text fill="#A6DA95" font-family="Helvetica" font-size="12" lengthAdjust="spacing" text-decoration="underline" textLength="269.5219" x="353.48" y="990.7725">nothing(Monad&lt;F&gt; outerMonad): MaybeT&lt;F, A&gt;</text><ellipse cx="345.48" cy="1003.9606" fill="#84BE84" rx="3" ry="3" style="stroke:#038048;stroke-width:1;"/><text fill="#A6DA95" font-family="Helvetica" font-size="12" lengthAdjust="spacing" text-decoration="underline" textLength="397.6109" x="353.48" y="1007.1166">fromMaybe(Monad&lt;F&gt; outerMonad, Maybe&lt;A&gt; maybe): MaybeT&lt;F, A&gt;</text><ellipse cx="345.48" cy="1020.3047" fill="#84BE84" rx="3" ry="3" style="stroke:#038048;stroke-width:1;"/><text fill="#A6DA95" font-family="Helvetica" font-size="12" lengthAdjust="spacing" text-decoration="underline" textLength="325.6823" x="353.48" y="1023.4607">liftF(Monad&lt;F&gt; outerMonad, Kind&lt;F, A&gt; fa): MaybeT&lt;F, A&gt;</text><line style="stroke:#C6A0F6;stroke-width:1;" x1="335.48" x2="756.0909" y1="1030.9767" y2="1030.9767"/><ellipse cx="345.48" cy="1044.6488" fill="#84BE84" rx="3" ry="3" style="stroke:#038048;stroke-width:1;"/><text fill="#A6DA95" font-family="Helvetica" font-size="12" lengthAdjust="spacing" textLength="154.537" x="353.48" y="1047.8048">value(): Kind&lt;F, Maybe&lt;A&gt;&gt;</text></g><g class="entity" data-entity="GMN8" data-source-line="23" data-uid="ent0009" id="entity_GMN8"><path d="M6,958.55 L6,981.8941 A1.5,1.5 0 0 0 7.5,983.3941 L298.0699,983.3941 A1.5,1.5 0 0 0 299.5699,981.8941 L299.5699,975.05 L334.37,970.22 L299.5699,967.05 L299.5699,967.05 L289.5699,957.05 L7.5,957.05 A1.5,1.5 0 0 0 6,958.55" fill="#EED49F" style="stroke:#24273A;stroke-width:0.5;"/><path d="M289.5699,957.05 L289.5699,966.3 A0.75,0.75 0 0 0 290.3199,967.05 L299.5699,967.05 L289.5699,957.05" fill="#EED49F" style="stroke:#24273A;stroke-width:0.5;"/><text fill="#24273A" font-family="Helvetica" font-size="12" lengthAdjust="spacing" textLength="272.5699" x="12" y="974.8781">"Wraps a monadic value of Kind&lt;F, Maybe&lt;A&gt;&gt;."</text></g><!--class MaybeTMonad--><g class="entity" data-entity="MaybeTMonad" data-source-line="25" data-uid="ent0011" id="entity_MaybeTMonad"><rect fill="#24273A" height="186.545" rx="1.5" ry="1.5" style="stroke:#C6A0F6;stroke-width:2;" width="870.1537" x="106.71" y="109.69"/><rect fill="#363A4F" height="31.792" rx="1.5" ry="1.5" style="stroke:#363A4F;stroke-width:2;" width="870.1537" x="106.71" y="109.69"/><rect fill="#363A4F" height="1.5" style="stroke:#363A4F;stroke-width:2;" width="870.1537" x="106.71" y="139.982"/><rect fill="none" height="186.545" rx="1.5" ry="1.5" style="stroke:#C6A0F6;stroke-width:2;" width="870.1537" x="106.71" y="109.69"/><ellipse cx="476.7727" cy="125.586" fill="#ADD1B2" rx="10" ry="10" style="stroke:#181818;stroke-width:1;"/><path d="M476.4915,130.211 Q475.2415,130.211 474.4446,129.6954 Q473.6477,129.1641 473.2571,128.211 Q472.8665,127.2579 472.8665,125.9766 Q472.8665,124.5548 473.3352,123.5391 Q473.804,122.5079 474.7102,121.961 Q475.6165,121.3985 476.929,121.3985 Q477.554,121.3985 478.0227,121.5235 Q478.5071,121.6485 478.9915,121.8829 L478.4133,123.3204 Q477.9758,123.086 477.5852,123.0079 Q477.2102,122.9298 476.8665,122.9298 Q476.0383,122.9298 475.5383,123.3048 Q475.054,123.6641 474.8352,124.336 Q474.6321,125.0079 474.6321,125.9141 Q474.6321,127.3204 475.1321,128.0079 Q475.6477,128.6798 476.7727,128.6798 Q477.1946,128.6798 477.6321,128.5704 Q478.0696,128.461 478.6633,128.1954 L478.6633,129.7579 Q478.1477,129.9923 477.5852,130.1016 Q477.0227,130.211 476.4915,130.211 Z " fill="#CAD3F5"/><text fill="#A6DA95" font-family="Helvetica" font-size="16" lengthAdjust="spacing" textLength="112.3042" x="495.7727" y="131.794">MaybeTMonad</text><rect fill="#24273A" height="18.3441" style="stroke:#C6A0F6;stroke-width:1;stroke-dasharray:2,2;" width="7.724" x="972.1396" y="106.69"/><text fill="#CAD3F5" font-family="Helvetica" font-size="12" font-style="italic" lengthAdjust="spacing" textLength="5.724" x="973.1396" y="120.5181">F</text><line style="stroke:#C6A0F6;stroke-width:2;" x1="107.71" x2="975.8637" y1="141.482" y2="141.482"/><rect fill="none" height="6" style="stroke:#C82930;stroke-width:1;" width="6" x="114.71" y="152.1541"/><text fill="#A6DA95" font-family="Helvetica" font-size="12" lengthAdjust="spacing" textLength="136.3689" x="125.71" y="158.3101">outerMonad: Monad&lt;F&gt;</text><line style="stroke:#C6A0F6;stroke-width:1;" x1="107.71" x2="975.8637" y1="165.8262" y2="165.8262"/><ellipse cx="117.71" cy="179.4982" fill="#84BE84" rx="3" ry="3" style="stroke:#038048;stroke-width:1;"/><text fill="#A6DA95" font-family="Helvetica" font-size="12" lengthAdjust="spacing" textLength="224.5815" x="125.71" y="182.6542">MaybeTMonad(Monad&lt;F&gt; outerMonad)</text><line style="stroke:#C6A0F6;stroke-width:1;" x1="107.71" x2="975.8637" y1="190.1703" y2="190.1703"/><ellipse cx="117.71" cy="203.8423" fill="#84BE84" rx="3" ry="3" style="stroke:#038048;stroke-width:1;"/><text fill="#A6DA95" font-family="Helvetica" font-size="12" lengthAdjust="spacing" textLength="256.1898" x="125.71" y="206.9984">of(A value): Kind&lt;MaybeTKind.Witness&lt;F&gt;, A&gt;</text><ellipse cx="117.71" cy="220.1864" fill="#84BE84" rx="3" ry="3" style="stroke:#038048;stroke-width:1;"/><text fill="#A6DA95" font-family="Helvetica" font-size="12" lengthAdjust="spacing" textLength="531.7598" x="125.71" y="223.3425">map(Function&lt;A, B&gt; f, Kind&lt;MaybeTKind.Witness&lt;F&gt;, A&gt; fa): Kind&lt;MaybeTKind.Witness&lt;F&gt;, B&gt;</text><ellipse cx="117.71" cy="236.5306" fill="#84BE84" rx="3" ry="3" style="stroke:#038048;stroke-width:1;"/><text fill="#A6DA95" font-family="Helvetica" font-size="12" lengthAdjust="spacing" textLength="707.3689" x="125.71" y="239.6866">ap(Kind&lt;MaybeTKind.Witness&lt;F&gt;, Function&lt;A, B&gt;&gt; ff, Kind&lt;MaybeTKind.Witness&lt;F&gt;, A&gt; fa): Kind&lt;MaybeTKind.Witness&lt;F&gt;, B&gt;</text><ellipse cx="117.71" cy="252.8747" fill="#84BE84" rx="3" ry="3" style="stroke:#038048;stroke-width:1;"/><text fill="#A6DA95" font-family="Helvetica" font-size="12" lengthAdjust="spacing" textLength="739.505" x="125.71" y="256.0307">flatMap(Function&lt;A, Kind&lt;MaybeTKind.Witness&lt;F&gt;, B&gt;&gt; f, Kind&lt;MaybeTKind.Witness&lt;F&gt;, A&gt; ma): Kind&lt;MaybeTKind.Witness&lt;F&gt;, B&gt;</text><ellipse cx="117.71" cy="269.2188" fill="#84BE84" rx="3" ry="3" style="stroke:#038048;stroke-width:1;"/><text fill="#A6DA95" font-family="Helvetica" font-size="12" lengthAdjust="spacing" textLength="315.6383" x="125.71" y="272.3748">raiseError(Unit error): Kind&lt;MaybeTKind.Witness&lt;F&gt;, A&gt;</text><ellipse cx="117.71" cy="285.5629" fill="#84BE84" rx="3" ry="3" style="stroke:#038048;stroke-width:1;"/><text fill="#A6DA95" font-family="Helvetica" font-size="12" lengthAdjust="spacing" textLength="845.1537" x="125.71" y="288.7189">handleErrorWith(Kind&lt;MaybeTKind.Witness&lt;F&gt;, A&gt; ma, Function&lt;Unit, Kind&lt;MaybeTKind.Witness&lt;F&gt;, A&gt;&gt; handler): Kind&lt;MaybeTKind.Witness&lt;F&gt;, A&gt;</text></g><!--class MonadError--><g class="entity" data-entity="MonadError" data-source-line="26" data-uid="ent0012" id="entity_MonadError"><rect fill="#24273A" height="31.792" rx="1.5" ry="1.5" style="stroke:#C6A0F6;stroke-width:2;" width="116.4162" x="483.58" y="11.45"/><rect fill="#363A4F" height="31.792" rx="1.5" ry="1.5" style="stroke:#363A4F;stroke-width:2;" width="116.4162" x="483.58" y="11.45"/><rect fill="#363A4F" height="1.5" style="stroke:#363A4F;stroke-width:2;" width="116.4162" x="483.58" y="41.742"/><rect fill="none" height="31.792" rx="1.5" ry="1.5" style="stroke:#C6A0F6;stroke-width:2;" width="116.4162" x="483.58" y="11.45"/><ellipse cx="497.58" cy="27.346" fill="#B4A7E5" rx="10" ry="10" style="stroke:#181818;stroke-width:1;"/><path d="M495.1581,31.846 L495.1581,30.6429 L496.83,30.4554 L496.83,24.6741 L495.1581,24.471 L495.1581,23.2835 L500.205,23.2835 L500.205,24.471 L498.5019,24.6741 L498.5019,30.4554 L500.205,30.6429 L500.205,31.846 L495.1581,31.846 Z " fill="#CAD3F5"/><text fill="#A6DA95" font-family="Helvetica" font-size="16" font-style="italic" lengthAdjust="spacing" textLength="86.4162" x="510.58" y="33.554">MonadError</text></g><g class="entity" data-entity="GMN14" data-source-line="37" data-uid="ent0015" id="entity_GMN14"><path d="M1011.83,191.29 L1011.83,198.96 L977.28,202.96 L1011.83,206.96 L1011.83,214.6341 A1.5,1.5 0 0 0 1013.33,216.1341 L1272.2317,216.1341 A1.5,1.5 0 0 0 1273.7317,214.6341 L1273.7317,199.79 L1263.7317,189.79 L1013.33,189.79 A1.5,1.5 0 0 0 1011.83,191.29" fill="#EED49F" style="stroke:#24273A;stroke-width:0.5;"/><path d="M1263.7317,189.79 L1263.7317,199.04 A0.75,0.75 0 0 0 1264.4817,199.79 L1273.7317,199.79 L1263.7317,189.79" fill="#EED49F" style="stroke:#24273A;stroke-width:0.5;"/><text fill="#24273A" font-family="Helvetica" font-size="12" lengthAdjust="spacing" textLength="240.9017" x="1017.83" y="207.6181">Provides MonadError instance for MaybeT.</text></g><!--class MaybeTKindHelper--><g class="entity" data-entity="MaybeTKindHelper" data-source-line="39" data-uid="ent0017" id="entity_MaybeTKindHelper"><rect fill="#24273A" height="113.1685" rx="1.5" ry="1.5" style="stroke:#C6A0F6;stroke-width:2;" width="389.5265" x="632.02" y="374.23"/><rect fill="#363A4F" height="31.792" rx="1.5" ry="1.5" style="stroke:#363A4F;stroke-width:2;" width="389.5265" x="632.02" y="374.23"/><rect fill="#363A4F" height="1.5" style="stroke:#363A4F;stroke-width:2;" width="389.5265" x="632.02" y="404.522"/><rect fill="none" height="113.1685" rx="1.5" ry="1.5" style="stroke:#C6A0F6;stroke-width:2;" width="389.5265" x="632.02" y="374.23"/><ellipse cx="750.9591" cy="390.126" fill="#D3D3D3" rx="10" ry="10" style="stroke:#181818;stroke-width:1;"/><path d="M747.506,394.626 L747.506,386.0635 L749.2404,386.0635 L749.2404,389.4073 L751.881,389.4073 L751.881,386.0635 L753.6154,386.0635 L753.6154,394.626 L751.881,394.626 L751.881,390.9073 L749.2404,390.9073 L749.2404,394.626 L747.506,394.626 Z " fill="#CAD3F5"/><text fill="#A6DA95" font-family="Helvetica" font-size="16" lengthAdjust="spacing" textLength="143.6483" x="769.9591" y="396.334">MaybeTKindHelper</text><line style="stroke:#C6A0F6;stroke-width:2;" x1="633.02" x2="1020.5465" y1="406.022" y2="406.022"/><ellipse cx="643.02" cy="419.6941" fill="none" rx="3" ry="3" style="stroke:#038048;stroke-width:1;"/><text fill="#A6DA95" font-family="Helvetica" font-size="12" lengthAdjust="spacing" text-decoration="underline" textLength="189.3133" x="651.02" y="422.8501">INVALID_KIND_NULL_MSG: String</text><ellipse cx="643.02" cy="436.0382" fill="none" rx="3" ry="3" style="stroke:#038048;stroke-width:1;"/><text fill="#A6DA95" font-family="Helvetica" font-size="12" lengthAdjust="spacing" text-decoration="underline" textLength="186.2413" x="651.02" y="439.1942">INVALID_KIND_TYPE_MSG: String</text><line style="stroke:#C6A0F6;stroke-width:1;" x1="633.02" x2="1020.5465" y1="446.7103" y2="446.7103"/><ellipse cx="643.02" cy="460.3823" fill="#84BE84" rx="3" ry="3" style="stroke:#038048;stroke-width:1;"/><text fill="#A6DA95" font-family="Helvetica" font-size="12" lengthAdjust="spacing" text-decoration="underline" textLength="350.5945" x="651.02" y="463.5384">narrow(Kind&lt;MaybeTKind.Witness&lt;F&gt;, A&gt; kind): MaybeT&lt;F, A&gt;</text><ellipse cx="643.02" cy="476.7264" fill="#84BE84" rx="3" ry="3" style="stroke:#038048;stroke-width:1;"/><text fill="#A6DA95" font-family="Helvetica" font-size="12" lengthAdjust="spacing" text-decoration="underline" textLength="364.5265" x="651.02" y="479.8825">widen(MaybeT&lt;F, A&gt; maybeT): Kind&lt;MaybeTKind.Witness&lt;F&gt;, A&gt;</text></g><g class="entity" data-entity="GMN18" data-source-line="46" data-uid="ent0019" id="entity_GMN18"><path d="M406.13,419.14 L406.13,442.4841 A1.5,1.5 0 0 0 407.63,443.9841 L595.9352,443.9841 A1.5,1.5 0 0 0 597.4352,442.4841 L597.4352,435.64 L631.65,430.81 L597.4352,427.64 L597.4352,427.64 L587.4352,417.64 L407.63,417.64 A1.5,1.5 0 0 0 406.13,419.14" fill="#EED49F" style="stroke:#24273A;stroke-width:0.5;"/><path d="M587.4352,417.64 L587.4352,426.89 A0.75,0.75 0 0 0 588.1852,427.64 L597.4352,427.64 L587.4352,417.64" fill="#EED49F" style="stroke:#24273A;stroke-width:0.5;"/><text fill="#24273A" font-family="Helvetica" font-size="12" lengthAdjust="spacing" textLength="170.3052" x="412.13" y="435.4681">Utility for HKT widen / narrow.</text></g><!--class MaybeT--><g class="entity" data-entity="MaybeT" data-source-line="50" data-uid="ent0021" id="entity_MaybeT"><rect fill="#24273A" height="31.792" rx="1.5" ry="1.5" style="stroke:#C6A0F6;stroke-width:2;" width="89.4081" x="501.08" y="565.4"/><rect fill="#363A4F" height="31.792" rx="1.5" ry="1.5" style="stroke:#363A4F;stroke-width:2;" width="89.4081" x="501.08" y="565.4"/><rect fill="#363A4F" height="1.5" style="stroke:#363A4F;stroke-width:2;" width="89.4081" x="501.08" y="595.692"/><rect fill="none" height="31.792" rx="1.5" ry="1.5" style="stroke:#C6A0F6;stroke-width:2;" width="89.4081" x="501.08" y="565.4"/><ellipse cx="515.08" cy="581.296" fill="#ADD1B2" rx="10" ry="10" style="stroke:#181818;stroke-width:1;"/><path d="M514.7987,585.921 Q513.5487,585.921 512.7519,585.4054 Q511.955,584.8741 511.5644,583.921 Q511.1737,582.9679 511.1737,581.6866 Q511.1737,580.2648 511.6425,579.2491 Q512.1112,578.2179 513.0175,577.671 Q513.9237,577.1085 515.2362,577.1085 Q515.8612,577.1085 516.33,577.2335 Q516.8144,577.3585 517.2987,577.5929 L516.7206,579.0304 Q516.2831,578.796 515.8925,578.7179 Q515.5175,578.6398 515.1737,578.6398 Q514.3456,578.6398 513.8456,579.0148 Q513.3612,579.3741 513.1425,580.046 Q512.9394,580.7179 512.9394,581.6241 Q512.9394,583.0304 513.4394,583.7179 Q513.955,584.3898 515.08,584.3898 Q515.5019,584.3898 515.9394,584.2804 Q516.3769,584.171 516.9706,583.9054 L516.9706,585.4679 Q516.455,585.7023 515.8925,585.8116 Q515.33,585.921 514.7987,585.921 Z " fill="#CAD3F5"/><text fill="#A6DA95" font-family="Helvetica" font-size="16" lengthAdjust="spacing" textLength="59.4081" x="528.08" y="587.504">MaybeT</text></g><!--class Maybe--><g class="entity" data-entity="Maybe" data-source-line="51" data-uid="ent0023" id="entity_Maybe"><rect fill="#24273A" height="31.792" rx="1.5" ry="1.5" style="stroke:#C6A0F6;stroke-width:2;" width="80.5121" x="904.53" y="675.19"/><rect fill="#363A4F" height="31.792" rx="1.5" ry="1.5" style="stroke:#363A4F;stroke-width:2;" width="80.5121" x="904.53" y="675.19"/><rect fill="#363A4F" height="1.5" style="stroke:#363A4F;stroke-width:2;" width="80.5121" x="904.53" y="705.482"/><rect fill="none" height="31.792" rx="1.5" ry="1.5" style="stroke:#C6A0F6;stroke-width:2;" width="80.5121" x="904.53" y="675.19"/><ellipse cx="918.53" cy="691.086" fill="#ADD1B2" rx="10" ry="10" style="stroke:#181818;stroke-width:1;"/><path d="M918.2488,695.711 Q916.9988,695.711 916.2019,695.1954 Q915.405,694.6641 915.0144,693.711 Q914.6238,692.7579 914.6238,691.4766 Q914.6238,690.0548 915.0925,689.0391 Q915.5613,688.0079 916.4675,687.461 Q917.3738,686.8985 918.6863,686.8985 Q919.3113,686.8985 919.78,687.0235 Q920.2644,687.1485 920.7488,687.3829 L920.1706,688.8204 Q919.7331,688.586 919.3425,688.5079 Q918.9675,688.4298 918.6238,688.4298 Q917.7956,688.4298 917.2956,688.8048 Q916.8113,689.1641 916.5925,689.836 Q916.3894,690.5079 916.3894,691.4141 Q916.3894,692.8204 916.8894,693.5079 Q917.405,694.1798 918.53,694.1798 Q918.9519,694.1798 919.3894,694.0704 Q919.8269,693.961 920.4206,693.6954 L920.4206,695.2579 Q919.905,695.4923 919.3425,695.6016 Q918.78,695.711 918.2488,695.711 Z " fill="#CAD3F5"/><text fill="#A6DA95" font-family="Helvetica" font-size="16" lengthAdjust="spacing" textLength="50.5121" x="931.53" y="697.294">Maybe</text></g><!--class Monad--><g class="entity" data-entity="Monad" data-source-line="52" data-uid="ent0025" id="entity_Monad"><rect fill="#24273A" height="31.792" rx="1.5" ry="1.5" style="stroke:#C6A0F6;stroke-width:2;" width="82.8961" x="213.34" y="675.19"/><rect fill="#363A4F" height="31.792" rx="1.5" ry="1.5" style="stroke:#363A4F;stroke-width:2;" width="82.8961" x="213.34" y="675.19"/><rect fill="#363A4F" height="1.5" style="stroke:#363A4F;stroke-width:2;" width="82.8961" x="213.34" y="705.482"/><rect fill="none" height="31.792" rx="1.5" ry="1.5" style="stroke:#C6A0F6;stroke-width:2;" width="82.8961" x="213.34" y="675.19"/><ellipse cx="227.34" cy="691.086" fill="#ADD1B2" rx="10" ry="10" style="stroke:#181818;stroke-width:1;"/><path d="M227.0588,695.711 Q225.8088,695.711 225.0119,695.1954 Q224.215,694.6641 223.8244,693.711 Q223.4338,692.7579 223.4338,691.4766 Q223.4338,690.0548 223.9025,689.0391 Q224.3713,688.0079 225.2775,687.461 Q226.1838,686.8985 227.4963,686.8985 Q228.1213,686.8985 228.59,687.0235 Q229.0744,687.1485 229.5588,687.3829 L228.9806,688.8204 Q228.5431,688.586 228.1525,688.5079 Q227.7775,688.4298 227.4338,688.4298 Q226.6056,688.4298 226.1056,688.8048 Q225.6213,689.1641 225.4025,689.836 Q225.1994,690.5079 225.1994,691.4141 Q225.1994,692.8204 225.6994,693.5079 Q226.215,694.1798 227.34,694.1798 Q227.7619,694.1798 228.1994,694.0704 Q228.6369,693.961 229.2306,693.6954 L229.2306,695.2579 Q228.715,695.4923 228.1525,695.6016 Q227.59,695.711 227.0588,695.711 Z " fill="#CAD3F5"/><text fill="#A6DA95" font-family="Helvetica" font-size="16" lengthAdjust="spacing" textLength="52.8961" x="240.34" y="697.294">Monad</text></g><!--reverse link Kind to MaybeTKind--><g class="link" data-entity-1="Kind" data-entity-2="MaybeTKind" data-source-line="8" data-uid="lnk5" id="link_Kind_MaybeTKind"><path d="M545.78,725.28 C545.78,741.17 545.78,748.43 545.78,767.79" fill="none" id="Kind-backto-MaybeTKind" style="stroke:#F5BDE6;stroke-width:1;"/><polygon fill="none" points="545.78,707.28,539.78,725.28,551.78,725.28,545.78,707.28" style="stroke:#F5BDE6;stroke-width:1;"/></g><!--reverse link MaybeTKind to MaybeT<F, A>--><g class="link" data-entity-1="MaybeTKind" data-entity-2="MaybeT.F. A." data-source-line="13" data-uid="lnk7" id="link_MaybeTKind_MaybeT.F. A."><path d="M545.78,842.33 C545.78,858.83 545.78,862.85 545.78,884.73" fill="none" id="MaybeTKind-backto-MaybeT&lt;F, A&gt;" style="stroke:#F5BDE6;stroke-width:1;stroke-dasharray:7,7;"/><polygon fill="none" points="545.78,824.33,539.78,842.33,551.78,842.33,545.78,824.33" style="stroke:#F5BDE6;stroke-width:1;"/></g><!--reverse link MonadError to MaybeTMonad--><g class="link" data-entity-1="MonadError" data-entity-2="MaybeTMonad" data-source-line="26" data-uid="lnk13" id="link_MonadError_MaybeTMonad"><path d="M541.78,61.44 C541.78,76.71 541.78,83.64 541.78,109.25" fill="none" id="MonadError-backto-MaybeTMonad" style="stroke:#F5BDE6;stroke-width:1;stroke-dasharray:7,7;"/><polygon fill="none" points="541.78,43.44,535.78,61.44,547.78,61.44,541.78,43.44" style="stroke:#F5BDE6;stroke-width:1;"/></g><!--link MaybeT to Kind--><g class="link" data-entity-1="MaybeT" data-entity-2="Kind" data-source-line="50" data-uid="lnk22" id="link_MaybeT_Kind"><path codeLine="50" d="M545.78,597.28 C545.78,617.76 545.78,648.29 545.78,668.88" fill="none" id="MaybeT-to-Kind" style="stroke:#F5BDE6;stroke-width:1;"/><polygon fill="#F5BDE6" points="545.78,674.88,549.78,665.88,545.78,669.88,541.78,665.88,545.78,674.88" style="stroke:#F5BDE6;stroke-width:1;"/><text fill="#CAD3F5" font-family="Helvetica" font-size="12" lengthAdjust="spacing" textLength="30.1082" x="510.8278" y="663.7468">value</text></g><!--link MaybeT to Maybe--><g class="link" data-entity-1="MaybeT" data-entity-2="Maybe" data-source-line="51" data-uid="lnk24" id="link_MaybeT_Maybe"><path codeLine="51" d="M590.78,594.45 C669.04,615.59 823.2476,657.2553 898.3576,677.5453" fill="none" id="MaybeT-to-Maybe" style="stroke:#F5BDE6;stroke-width:1;stroke-dasharray:7,7;"/><polygon fill="#F5BDE6" points="904.15,679.11,896.5046,672.9013,899.323,677.8061,894.4183,680.6245,904.15,679.11" style="stroke:#F5BDE6;stroke-width:1;"/><text fill="#CAD3F5" font-family="Helvetica" font-size="12" lengthAdjust="spacing" textLength="72.5405" x="770.17" y="641.0181">uses in value</text></g><!--link MaybeT to Monad--><g class="link" data-entity-1="MaybeT" data-entity-2="Monad" data-source-line="52" data-uid="lnk26" id="link_MaybeT_Monad"><path codeLine="52" d="M500.85,596.46 C474.47,604.97 440.58,616.24 410.78,627.19 C369.4,642.4 328.0959,659.2361 296.6359,672.3861" fill="none" id="MaybeT-to-Monad" style="stroke:#F5BDE6;stroke-width:1;stroke-dasharray:7,7;"/><polygon fill="#F5BDE6" points="291.1,674.7,300.9464,674.9197,295.7132,672.7717,297.8612,667.5385,291.1,674.7" style="stroke:#F5BDE6;stroke-width:1;"/><text fill="#CAD3F5" font-family="Helvetica" font-size="12" lengthAdjust="spacing" textLength="125.6769" x="411.78" y="641.0181">uses in static methods</text></g><!--link MaybeTMonad to Monad--><g class="link" data-entity-1="MaybeTMonad" data-entity-2="Monad" data-source-line="54" data-uid="lnk27" id="link_MaybeTMonad_Monad"><path codeLine="54" d="M295.583,304.33 C270.533,325.38 259.22,343.24 247.78,374.23 C207.54,483.32 237.264,622.5269 249.184,669.1569" fill="none" id="MaybeTMonad-Monad" style="stroke:#F5BDE6;stroke-width:1;"/><polygon fill="none" points="304.77,296.61,297.6032,297.4077,295.583,304.33,302.7498,303.5324,304.77,296.61" style="stroke:#F5BDE6;stroke-width:1;"/><polygon fill="#F5BDE6" points="250.67,674.97,252.3164,665.2597,249.4317,670.1258,244.5656,667.2411,250.67,674.97" style="stroke:#F5BDE6;stroke-width:1;"/><text fill="#CAD3F5" font-family="Helvetica" font-size="12" lengthAdjust="spacing" textLength="70.4045" x="167.2927" y="663.5674">outerMonad</text></g><!--link MaybeTMonad to MaybeTKindHelper--><g class="link" data-entity-1="MaybeTMonad" data-entity-2="MaybeTKindHelper" data-source-line="55" data-uid="lnk28" id="link_MaybeTMonad_MaybeTKindHelper"><path codeLine="55" d="M658.53,296.47 C691.73,322.79 722.1681,346.9028 751.6881,370.3028" fill="none" id="MaybeTMonad-to-MaybeTKindHelper" style="stroke:#F5BDE6;stroke-width:1;stroke-dasharray:7,7;"/><polygon fill="#F5BDE6" points="756.39,374.03,751.8218,365.3046,752.4717,370.924,746.8523,371.5739,756.39,374.03" style="stroke:#F5BDE6;stroke-width:1;"/><text fill="#CAD3F5" font-family="Helvetica" font-size="12" lengthAdjust="spacing" textLength="25.6802" x="719.19" y="340.0581">uses</text></g><!--link MaybeTMonad to MaybeT--><g class="link" data-entity-1="MaybeTMonad" data-entity-2="MaybeT" data-source-line="56" data-uid="lnk29" id="link_MaybeTMonad_MaybeT"><path codeLine="56" d="M344.46,296.7 C316.9,318.23 292.37,343.93 275.78,374.23 C251.64,418.35 246.57,446.45 275.78,487.4 C327.18,559.43 432.1796,575.8416 494.6696,579.3716" fill="none" id="MaybeTMonad-to-MaybeT" style="stroke:#F5BDE6;stroke-width:1;stroke-dasharray:7,7;"/><polygon fill="#F5BDE6" points="500.66,579.71,491.8999,575.2088,495.668,579.428,491.4487,583.196,500.66,579.71" style="stroke:#F5BDE6;stroke-width:1;"/><text fill="#CAD3F5" font-family="Helvetica" font-size="12" lengthAdjust="spacing" textLength="111.0248" x="276.78" y="435.6381">uses via KindHelper</text></g><!--link MaybeTMonad to Maybe--><g class="link" data-entity-1="MaybeTMonad" data-entity-2="Maybe" data-source-line="58" data-uid="lnk30" id="link_MaybeTMonad_Maybe"><path codeLine="58" d="M956.36,296.64 C988.18,317.54 1016.52,343.06 1038.78,374.23 C1109.63,473.39 1001.3063,621.5537 961.6463,670.0937" fill="none" id="MaybeTMonad-to-Maybe" style="stroke:#F5BDE6;stroke-width:1;stroke-dasharray:7,7;"/><polygon fill="#F5BDE6" points="957.85,674.74,966.642,670.3014,961.0136,670.8681,960.4469,665.2397,957.85,674.74" style="stroke:#F5BDE6;stroke-width:1;"/><text fill="#CAD3F5" font-family="Helvetica" font-size="12" lengthAdjust="spacing" textLength="69.9365" x="1050.54" y="531.2281">manipulates</text></g><!--link MaybeTKindHelper to MaybeT--><g class="link" data-entity-1="MaybeTKindHelper" data-entity-2="MaybeT" data-source-line="60" data-uid="lnk31" id="link_MaybeTKindHelper_MaybeT"><path codeLine="60" d="M720.95,487.74 C668.52,515.44 614.5245,543.9659 580.1145,562.1559" fill="none" id="MaybeTKindHelper-to-MaybeT" style="stroke:#F5BDE6;stroke-width:1;stroke-dasharray:7,7;"/><polygon fill="#F5BDE6" points="574.81,564.96,584.6361,564.2902,579.2304,562.6233,580.8973,557.2176,574.81,564.96" style="stroke:#F5BDE6;stroke-width:1;"/><text fill="#CAD3F5" font-family="Helvetica" font-size="12" lengthAdjust="spacing" textLength="79.3086" x="662.12" y="531.2281">widen/narrow</text></g><!--SRC=[hLRVRzem47xFNt7BIrCDmZj2I5GjQzKVgpfODMaISeD3lCLsP3ljKDN_VMURX00fwQGz80Nxk_lkFf_l_8c992-N539Z2ZqS31HvYLVCPELJgQbAf31Kc3YHV20IgGtfisIG45CKPP8mqUSaIJ96ZEmNEH6cv7dVP9JJ0ITC3DndNE1g46GCMIWlp1euvKzKwI0Gqb08fq3_8CjImoCpWcezKSoiHxDrGTrNF1T4hSS_nMPxD1q3oRK4neiS2OJPi_Ju48W6jt27D440m30PbPA4mYrPFz7PDHFBqRG7at4TWLlQxiPRIWTxHIy0d-4LbJ0iUOCa9xfc7tsTpouU5XZUQ0JHOozdgymyvIKzXV4OBT_mTmBWibPs3sGAXsGmXFiCnPGS36e0gLHmUJq3pNYP8wqKiSt6KuVUtgSHDYKvoB4A_fbWI4EeTXnkD74H0lJx-occIdABZGuCJeVGPDyt_5Lg4zrAGPRsn6I9uhj_Y0NIOOiQPKoisimxB6suRh-TkWeUkFtey9Mpr4pR_JHqJLkJgOLqSaUdxOBRad3raDFKbSFUUGuXV5Iaq420MsAMU7yMUk0l3hTruTtKeJVhmgvTA2NLUuK-5ynKvT9lP3s4ojzkXWskrWFRHSiqclWaAatUlMyR2qwAQ5gAn9R-QDA3CzIyrtLLtQaSmvnLxj7xCTmkCph-dzmfNkZRlVIE6tuaT_vXVaMOfguO8dlgGEtdHyy5czGozzQudqMTKJN4j6nTUOmt31yAgBv9UvtLbQ1jgKe-umXgrZyE1Bpf8l4jriFZ_IjasIvfNb3bklgbx-ehHTUsgnzEXAkxxvERg_F5zTNT-U9kVdEpkFtsPGZVZC9-TXGy-t5_SG0-xCSut9HywHBxDwvrTBSNb4D4JOHlYhD_ahjgN0Tg3M5kM8xZjnvWZX06cmnGwU047gWVQJfZXGwy4qnw3A5h4Q6Bf5gFux7dGUVuFD5uWBwJx00s1ru1VBhuw32PNEAZeraMqZ5jMrNehNSmDUbkSjRzExYA_9aHsDe49-zxROp-Ecos4iIKYhQJ898JmGhx8g1rLeq8Ty9noW-yxbKShTZEO8A_]--></g></svg>