<svg xmlns="http://www.w3.org/2000/svg" xmlns:xlink="http://www.w3.org/1999/xlink" contentStyleType="text/css" data-diagram-type="CLASS" height="614px" preserveAspectRatio="none" style="width:1066px;height:614px;background:#24273A;" version="1.1" viewBox="0 0 1066 614" width="1066px" zoomAndPan="magnify"><defs/><g><rect fill="#24273A" height="614" style="stroke:none;stroke-width:1;" width="1066" x="0" y="0"/><g class="entity" data-entity="ArityNote" data-source-line="4" data-uid="ent0002" id="entity_ArityNote"><path d="M336.07,457.91 L336.07,497.5982 A1.5,1.5 0 0 0 337.57,499.0982 L500.25,499.0982 L659.48,576.62 L508.25,499.0982 L587.2916,499.0982 A1.5,1.5 0 0 0 588.7916,497.5982 L588.7916,466.41 L578.7916,456.41 L337.57,456.41 A1.5,1.5 0 0 0 336.07,457.91" fill="#EED49F" style="stroke:#24273A;stroke-width:0.5;"/><path d="M578.7916,456.41 L578.7916,465.66 A0.75,0.75 0 0 0 579.5416,466.41 L588.7916,466.41 L578.7916,456.41" fill="#EED49F" style="stroke:#24273A;stroke-width:0.5;"/><text fill="#24273A" font-family="Helvetica" font-size="12" lengthAdjust="spacing" textLength="231.7216" x="342.07" y="474.2381">F extends WitnessArity&lt;TypeArity.Unary&gt;</text><text fill="#24273A" font-family="Helvetica" font-size="12" lengthAdjust="spacing" textLength="102.8288" x="342.07" y="490.5822">for all type classes</text></g><!--class Kind--><g class="entity" data-entity="Kind" data-source-line="6" data-uid="ent0003" id="entity_Kind"><rect fill="#24273A" height="31.792" rx="1.5" ry="1.5" style="stroke:#C6A0F6;stroke-width:2;" width="84.3082" x="648.28" y="577.1"/><rect fill="#363A4F" height="31.792" rx="1.5" ry="1.5" style="stroke:#363A4F;stroke-width:2;" width="84.3082" x="648.28" y="577.1"/><rect fill="#363A4F" height="1.5" style="stroke:#363A4F;stroke-width:2;" width="84.3082" x="648.28" y="607.392"/><rect fill="none" height="31.792" rx="1.5" ry="1.5" style="stroke:#C6A0F6;stroke-width:2;" width="84.3082" x="648.28" y="577.1"/><ellipse cx="662.28" cy="592.996" fill="#B4A7E5" rx="10" ry="10" style="stroke:#181818;stroke-width:1;"/><path d="M659.8581,597.496 L659.8581,596.2929 L661.53,596.1054 L661.53,590.3241 L659.8581,590.121 L659.8581,588.9335 L664.905,588.9335 L664.905,590.121 L663.2019,590.3241 L663.2019,596.1054 L664.905,596.2929 L664.905,597.496 L659.8581,597.496 Z " fill="#CAD3F5"/><text fill="#A6DA95" font-family="Helvetica" font-size="16" font-style="italic" lengthAdjust="spacing" textLength="31.6481" x="675.28" y="599.204">Kind</text><rect fill="#24273A" height="18.3441" style="stroke:#C6A0F6;stroke-width:1;stroke-dasharray:2,2;" width="20.6601" x="714.9281" y="574.1"/><text fill="#CAD3F5" font-family="Helvetica" font-size="12" font-style="italic" lengthAdjust="spacing" textLength="18.6601" x="715.9281" y="587.9281">F, A</text></g><!--class Functor--><g class="entity" data-entity="Functor" data-source-line="7" data-uid="ent0004" id="entity_Functor"><rect fill="#24273A" height="31.792" rx="1.5" ry="1.5" style="stroke:#C6A0F6;stroke-width:2;" width="93.8202" x="834.52" y="461.86"/><rect fill="#363A4F" height="31.792" rx="1.5" ry="1.5" style="stroke:#363A4F;stroke-width:2;" width="93.8202" x="834.52" y="461.86"/><rect fill="#363A4F" height="1.5" style="stroke:#363A4F;stroke-width:2;" width="93.8202" x="834.52" y="492.152"/><rect fill="none" height="31.792" rx="1.5" ry="1.5" style="stroke:#C6A0F6;stroke-width:2;" width="93.8202" x="834.52" y="461.86"/><ellipse cx="848.52" cy="477.756" fill="#B4A7E5" rx="10" ry="10" style="stroke:#181818;stroke-width:1;"/><path d="M846.0981,482.256 L846.0981,481.0529 L847.77,480.8654 L847.77,475.0841 L846.0981,474.881 L846.0981,473.6935 L851.145,473.6935 L851.145,474.881 L849.4419,475.0841 L849.4419,480.8654 L851.145,481.0529 L851.145,482.256 L846.0981,482.256 Z " fill="#CAD3F5"/><text fill="#A6DA95" font-family="Helvetica" font-size="16" font-style="italic" lengthAdjust="spacing" textLength="54.0961" x="861.52" y="483.964">Functor</text><rect fill="#24273A" height="18.3441" style="stroke:#C6A0F6;stroke-width:1;stroke-dasharray:2,2;" width="7.724" x="923.6161" y="458.86"/><text fill="#CAD3F5" font-family="Helvetica" font-size="12" font-style="italic" lengthAdjust="spacing" textLength="5.724" x="924.6161" y="472.6881">F</text></g><!--class Applicative--><g class="entity" data-entity="Applicative" data-source-line="8" data-uid="ent0005" id="entity_Applicative"><rect fill="#24273A" height="31.792" rx="1.5" ry="1.5" style="stroke:#C6A0F6;stroke-width:2;" width="116.7322" x="569.07" y="363.62"/><rect fill="#363A4F" height="31.792" rx="1.5" ry="1.5" style="stroke:#363A4F;stroke-width:2;" width="116.7322" x="569.07" y="363.62"/><rect fill="#363A4F" height="1.5" style="stroke:#363A4F;stroke-width:2;" width="116.7322" x="569.07" y="393.912"/><rect fill="none" height="31.792" rx="1.5" ry="1.5" style="stroke:#C6A0F6;stroke-width:2;" width="116.7322" x="569.07" y="363.62"/><ellipse cx="583.07" cy="379.516" fill="#B4A7E5" rx="10" ry="10" style="stroke:#181818;stroke-width:1;"/><path d="M580.6481,384.016 L580.6481,382.8129 L582.32,382.6254 L582.32,376.8441 L580.6481,376.641 L580.6481,375.4535 L585.695,375.4535 L585.695,376.641 L583.9919,376.8441 L583.9919,382.6254 L585.695,382.8129 L585.695,384.016 L580.6481,384.016 Z " fill="#CAD3F5"/><text fill="#A6DA95" font-family="Helvetica" font-size="16" font-style="italic" lengthAdjust="spacing" textLength="77.0081" x="596.07" y="385.724">Applicative</text><rect fill="#24273A" height="18.3441" style="stroke:#C6A0F6;stroke-width:1;stroke-dasharray:2,2;" width="7.724" x="681.0781" y="360.62"/><text fill="#CAD3F5" font-family="Helvetica" font-size="12" font-style="italic" lengthAdjust="spacing" textLength="5.724" x="682.0781" y="374.4481">F</text></g><!--class MonadBase--><g class="entity" data-entity="MonadBase" data-source-line="9" data-uid="ent0006" id="entity_MonadBase"><rect fill="#24273A" height="31.792" rx="1.5" ry="1.5" style="stroke:#C6A0F6;stroke-width:2;" width="94.1722" x="37.35" y="240.21"/><rect fill="#363A4F" height="31.792" rx="1.5" ry="1.5" style="stroke:#363A4F;stroke-width:2;" width="94.1722" x="37.35" y="240.21"/><rect fill="#363A4F" height="1.5" style="stroke:#363A4F;stroke-width:2;" width="94.1722" x="37.35" y="270.502"/><rect fill="none" height="31.792" rx="1.5" ry="1.5" style="stroke:#C6A0F6;stroke-width:2;" width="94.1722" x="37.35" y="240.21"/><ellipse cx="51.35" cy="256.106" fill="#B4A7E5" rx="10" ry="10" style="stroke:#181818;stroke-width:1;"/><path d="M48.9281,260.606 L48.9281,259.4029 L50.6,259.2154 L50.6,253.4341 L48.9281,253.231 L48.9281,252.0435 L53.975,252.0435 L53.975,253.231 L52.2719,253.4341 L52.2719,259.2154 L53.975,259.4029 L53.975,260.606 L48.9281,260.606 Z " fill="#CAD3F5"/><text fill="#A6DA95" font-family="Helvetica" font-size="16" font-style="italic" lengthAdjust="spacing" textLength="50.0801" x="64.35" y="262.314">Monad</text><rect fill="#24273A" height="18.3441" style="stroke:#C6A0F6;stroke-width:1;stroke-dasharray:2,2;" width="12.0921" x="122.4301" y="237.21"/><text fill="#CAD3F5" font-family="Helvetica" font-size="12" font-style="italic" lengthAdjust="spacing" textLength="10.0921" x="123.4301" y="251.0381">M</text></g><!--class MonadErrorBase--><g class="entity" data-entity="MonadErrorBase" data-source-line="10" data-uid="ent0007" id="entity_MonadErrorBase"><rect fill="#24273A" height="31.792" rx="1.5" ry="1.5" style="stroke:#C6A0F6;stroke-width:2;" width="142.8683" x="7" y="116.79"/><rect fill="#363A4F" height="31.792" rx="1.5" ry="1.5" style="stroke:#363A4F;stroke-width:2;" width="142.8683" x="7" y="116.79"/><rect fill="#363A4F" height="1.5" style="stroke:#363A4F;stroke-width:2;" width="142.8683" x="7" y="147.082"/><rect fill="none" height="31.792" rx="1.5" ry="1.5" style="stroke:#C6A0F6;stroke-width:2;" width="142.8683" x="7" y="116.79"/><ellipse cx="21" cy="132.686" fill="#B4A7E5" rx="10" ry="10" style="stroke:#181818;stroke-width:1;"/><path d="M18.5781,137.186 L18.5781,135.9829 L20.25,135.7954 L20.25,130.0141 L18.5781,129.811 L18.5781,128.6235 L23.625,128.6235 L23.625,129.811 L21.9219,130.0141 L21.9219,135.7954 L23.625,135.9829 L23.625,137.186 L18.5781,137.186 Z " fill="#CAD3F5"/><text fill="#A6DA95" font-family="Helvetica" font-size="16" font-style="italic" lengthAdjust="spacing" textLength="86.4162" x="34" y="138.894">MonadError</text><rect fill="#24273A" height="18.3441" style="stroke:#C6A0F6;stroke-width:1;stroke-dasharray:2,2;" width="24.4522" x="128.4162" y="113.79"/><text fill="#CAD3F5" font-family="Helvetica" font-size="12" font-style="italic" lengthAdjust="spacing" textLength="22.4522" x="129.4162" y="127.6181">M, E</text></g><!--class OptionalKindBase--><g class="entity" data-entity="OptionalKindBase" data-source-line="14" data-uid="ent0009" id="entity_OptionalKindBase"><rect fill="#24273A" height="31.792" rx="1.5" ry="1.5" style="stroke:#C6A0F6;stroke-width:2;" width="134.1202" x="623.37" y="461.86"/><rect fill="#363A4F" height="31.792" rx="1.5" ry="1.5" style="stroke:#363A4F;stroke-width:2;" width="134.1202" x="623.37" y="461.86"/><rect fill="#363A4F" height="1.5" style="stroke:#363A4F;stroke-width:2;" width="134.1202" x="623.37" y="492.152"/><rect fill="none" height="31.792" rx="1.5" ry="1.5" style="stroke:#C6A0F6;stroke-width:2;" width="134.1202" x="623.37" y="461.86"/><ellipse cx="637.37" cy="477.756" fill="#ADD8E6" rx="10" ry="10" style="stroke:#181818;stroke-width:1;"/><path d="M637.4638,482.381 Q635.7919,482.381 635.0106,481.2091 Q634.2294,480.0373 634.2294,477.9591 Q634.2294,475.8654 635.0106,474.7091 Q635.8075,473.5373 637.4638,473.5373 Q639.1513,473.5373 639.9325,474.7091 Q640.7138,475.881 640.7138,477.9591 Q640.7138,480.0373 639.9325,481.2091 Q639.1513,482.381 637.4638,482.381 Z M637.4638,480.881 Q638.245,480.881 638.5888,480.1466 Q638.9481,479.3966 638.9481,477.9435 Q638.9481,476.5216 638.5888,475.7873 Q638.245,475.0373 637.4638,475.0373 Q636.6825,475.0373 636.3388,475.7873 Q635.995,476.5373 635.995,477.9591 Q635.995,479.3966 636.3388,480.1466 Q636.6825,480.881 637.4638,480.881 Z " fill="#CAD3F5"/><text fill="#A6DA95" font-family="Helvetica" font-size="16" font-style="italic" lengthAdjust="spacing" textLength="93.3762" x="650.37" y="483.964">OptionalKind</text><rect fill="#24273A" height="18.3441" style="stroke:#C6A0F6;stroke-width:1;stroke-dasharray:2,2;" width="8.744" x="751.7462" y="458.86"/><text fill="#CAD3F5" font-family="Helvetica" font-size="12" font-style="italic" lengthAdjust="spacing" textLength="6.744" x="752.7462" y="472.6881">A</text></g><!--class OptionalKindHelper--><g class="entity" data-entity="OptionalKindHelper" data-source-line="17" data-uid="ent0010" id="entity_OptionalKindHelper"><rect fill="#24273A" height="31.792" rx="1.5" ry="1.5" style="stroke:#C6A0F6;stroke-width:2;" width="179.1523" x="167.86" y="240.21"/><rect fill="#363A4F" height="31.792" rx="1.5" ry="1.5" style="stroke:#363A4F;stroke-width:2;" width="179.1523" x="167.86" y="240.21"/><rect fill="#363A4F" height="1.5" style="stroke:#363A4F;stroke-width:2;" width="179.1523" x="167.86" y="270.502"/><rect fill="none" height="31.792" rx="1.5" ry="1.5" style="stroke:#C6A0F6;stroke-width:2;" width="179.1523" x="167.86" y="240.21"/><ellipse cx="181.86" cy="256.106" fill="#808080" rx="10" ry="10" style="stroke:#181818;stroke-width:1;"/><path d="M178.4069,260.606 L178.4069,252.0435 L180.1413,252.0435 L180.1413,255.3873 L182.7819,255.3873 L182.7819,252.0435 L184.5163,252.0435 L184.5163,260.606 L182.7819,260.606 L182.7819,256.8873 L180.1413,256.8873 L180.1413,260.606 L178.4069,260.606 Z " fill="#CAD3F5"/><text fill="#A6DA95" font-family="Helvetica" font-size="16" lengthAdjust="spacing" textLength="149.1523" x="194.86" y="262.314">OptionalKindHelper</text></g><g class="entity" data-entity="GMN11" data-source-line="20" data-uid="ent0012" id="entity_GMN11"><path d="M382.3,228.09 L382.3,252.1 L347.39,256.1 L382.3,260.1 L382.3,284.1223 A1.5,1.5 0 0 0 383.8,285.6223 L865.0753,285.6223 A1.5,1.5 0 0 0 866.5753,284.1223 L866.5753,236.59 L856.5753,226.59 L383.8,226.59 A1.5,1.5 0 0 0 382.3,228.09" fill="#EED49F" style="stroke:#24273A;stroke-width:0.5;"/><path d="M856.5753,226.59 L856.5753,235.84 A0.75,0.75 0 0 0 857.3253,236.59 L866.5753,236.59 L856.5753,226.59" fill="#EED49F" style="stroke:#24273A;stroke-width:0.5;"/><text fill="#24273A" font-family="Helvetica" font-size="12" lengthAdjust="spacing" textLength="253.6698" x="388.3" y="244.4181">Contains internal 'OptionalHolder&lt;A&gt; record'</text><text fill="#24273A" font-family="Helvetica" font-size="12" lengthAdjust="spacing" textLength="205.0214" x="388.3" y="260.7622">which implements OptionalKind&lt;A&gt;.</text><text fill="#24273A" font-family="Helvetica" font-size="12" lengthAdjust="spacing" textLength="463.2753" x="388.3" y="277.1063">`record OptionalHolder&lt;A&gt;(Optional&lt;A&gt; optional) implements OptionalKind&lt;A&gt; {}`</text></g><!--class OptionalFunctorImpl--><g class="entity" data-entity="OptionalFunctorImpl" data-source-line="25" data-uid="ent0014" id="entity_OptionalFunctorImpl"><rect fill="#24273A" height="31.792" rx="1.5" ry="1.5" style="stroke:#C6A0F6;stroke-width:2;" width="152.7363" x="429.07" y="116.79"/><rect fill="#363A4F" height="31.792" rx="1.5" ry="1.5" style="stroke:#363A4F;stroke-width:2;" width="152.7363" x="429.07" y="116.79"/><rect fill="#363A4F" height="1.5" style="stroke:#363A4F;stroke-width:2;" width="152.7363" x="429.07" y="147.082"/><rect fill="none" height="31.792" rx="1.5" ry="1.5" style="stroke:#C6A0F6;stroke-width:2;" width="152.7363" x="429.07" y="116.79"/><ellipse cx="443.07" cy="132.686" fill="#ADD1B2" rx="10" ry="10" style="stroke:#181818;stroke-width:1;"/><path d="M442.7888,137.311 Q441.5388,137.311 440.7419,136.7954 Q439.945,136.2641 439.5544,135.311 Q439.1638,134.3579 439.1638,133.0766 Q439.1638,131.6548 439.6325,130.6391 Q440.1013,129.6079 441.0075,129.061 Q441.9138,128.4985 443.2263,128.4985 Q443.8513,128.4985 444.32,128.6235 Q444.8044,128.7485 445.2888,128.9829 L444.7106,130.4204 Q444.2731,130.186 443.8825,130.1079 Q443.5075,130.0298 443.1638,130.0298 Q442.3356,130.0298 441.8356,130.4048 Q441.3513,130.7641 441.1325,131.436 Q440.9294,132.1079 440.9294,133.0141 Q440.9294,134.4204 441.4294,135.1079 Q441.945,135.7798 443.07,135.7798 Q443.4919,135.7798 443.9294,135.6704 Q444.3669,135.561 444.9606,135.2954 L444.9606,136.8579 Q444.445,137.0923 443.8825,137.2016 Q443.32,137.311 442.7888,137.311 Z " fill="#CAD3F5"/><text fill="#A6DA95" font-family="Helvetica" font-size="16" lengthAdjust="spacing" textLength="122.7363" x="456.07" y="138.894">OptionalFunctor</text></g><!--class OptionalMonadImpl--><g class="entity" data-entity="OptionalMonadImpl" data-source-line="27" data-uid="ent0015" id="entity_OptionalMonadImpl"><rect fill="#24273A" height="31.792" rx="1.5" ry="1.5" style="stroke:#C6A0F6;stroke-width:2;" width="147.8082" x="185.53" y="7"/><rect fill="#363A4F" height="31.792" rx="1.5" ry="1.5" style="stroke:#363A4F;stroke-width:2;" width="147.8082" x="185.53" y="7"/><rect fill="#363A4F" height="1.5" style="stroke:#363A4F;stroke-width:2;" width="147.8082" x="185.53" y="37.292"/><rect fill="none" height="31.792" rx="1.5" ry="1.5" style="stroke:#C6A0F6;stroke-width:2;" width="147.8082" x="185.53" y="7"/><ellipse cx="199.53" cy="22.896" fill="#ADD1B2" rx="10" ry="10" style="stroke:#181818;stroke-width:1;"/><path d="M199.2488,27.521 Q197.9988,27.521 197.2019,27.0054 Q196.405,26.4741 196.0144,25.521 Q195.6238,24.5679 195.6238,23.2866 Q195.6238,21.8648 196.0925,20.8491 Q196.5613,19.8179 197.4675,19.271 Q198.3738,18.7085 199.6863,18.7085 Q200.3113,18.7085 200.78,18.8335 Q201.2644,18.9585 201.7488,19.1929 L201.1706,20.6304 Q200.7331,20.396 200.3425,20.3179 Q199.9675,20.2398 199.6238,20.2398 Q198.7956,20.2398 198.2956,20.6148 Q197.8113,20.9741 197.5925,21.646 Q197.3894,22.3179 197.3894,23.2241 Q197.3894,24.6304 197.8894,25.3179 Q198.405,25.9898 199.53,25.9898 Q199.9519,25.9898 200.3894,25.8804 Q200.8269,25.771 201.4206,25.5054 L201.4206,27.0679 Q200.905,27.3023 200.3425,27.4116 Q199.78,27.521 199.2488,27.521 Z " fill="#CAD3F5"/><text fill="#A6DA95" font-family="Helvetica" font-size="16" lengthAdjust="spacing" textLength="117.8082" x="212.53" y="29.104">OptionalMonad</text></g><!--link MonadErrorBase to MonadBase--><g class="link" data-entity-1="MonadErrorBase" data-entity-2="MonadBase" data-source-line="31" data-uid="lnk16" id="link_MonadErrorBase_MonadBase"><path codeLine="31" d="M79.19,149.07 C80.35,172.42 81.6419,198.5919 82.7919,221.8719" fill="none" id="MonadErrorBase-to-MonadBase" style="stroke:#F5BDE6;stroke-width:1;"/><polygon fill="none" points="83.68,239.85,88.7846,221.5759,76.7992,222.168,83.68,239.85" style="stroke:#F5BDE6;stroke-width:1;"/></g><!--link MonadBase to Applicative--><g class="link" data-entity-1="MonadBase" data-entity-2="Applicative" data-source-line="32" data-uid="lnk17" id="link_MonadBase_Applicative"><path codeLine="32" d="M116.14,272.44 C126.84,277.18 138.99,282.08 150.43,285.62 C297.73,331.2 459.9696,356.648 550.9596,368.848" fill="none" id="MonadBase-to-Applicative" style="stroke:#F5BDE6;stroke-width:1;"/><polygon fill="none" points="568.8,371.24,551.757,362.9012,550.1623,374.7947,568.8,371.24" style="stroke:#F5BDE6;stroke-width:1;"/></g><!--link Applicative to Functor--><g class="link" data-entity-1="Applicative" data-entity-2="Functor" data-source-line="33" data-uid="lnk18" id="link_Applicative_Functor"><path codeLine="33" d="M667.96,395.87 C715.44,413.86 776.7969,437.1146 824.2169,455.0746" fill="none" id="Applicative-to-Functor" style="stroke:#F5BDE6;stroke-width:1;"/><polygon fill="none" points="841.05,461.45,826.342,449.4635,822.0917,460.6856,841.05,461.45" style="stroke:#F5BDE6;stroke-width:1;"/></g><!--link Functor to Kind--><g class="link" data-entity-1="Functor" data-entity-2="Kind" data-source-line="34" data-uid="lnk19" id="link_Functor_Kind"><path codeLine="34" d="M876.54,494.07 C870.79,509.64 859.78,533.36 842.43,547.1 C810.94,572.04 783.7309,580.4601 750.8609,585.3901" fill="none" id="Functor-to-Kind" style="stroke:#F5BDE6;stroke-width:1;"/><polygon fill="none" points="733.06,588.06,751.7508,591.3238,749.9709,579.4565,733.06,588.06" style="stroke:#F5BDE6;stroke-width:1;"/><text fill="#CAD3F5" font-family="Helvetica" font-size="12" lengthAdjust="spacing" textLength="199.1654" x="859.28" y="542.9281">(logically, Kind is the base for HKTs)</text></g><!--link OptionalKindBase to Kind--><g class="link" data-entity-1="OptionalKindBase" data-entity-2="Kind" data-source-line="36" data-uid="lnk20" id="link_OptionalKindBase_Kind"><path codeLine="36" d="M689.09,493.95 C688.03,507.8 686.82,528.82 687.43,547.1 C687.76,556.94 687.1221,550.022 687.7821,558.682" fill="none" id="OptionalKindBase-to-Kind" style="stroke:#F5BDE6;stroke-width:1;"/><polygon fill="none" points="689.15,576.63,693.7648,558.2261,681.7995,559.138,689.15,576.63" style="stroke:#F5BDE6;stroke-width:1;"/><text fill="#CAD3F5" font-family="Helvetica" font-size="12" lengthAdjust="spacing" textLength="149.2211" x="688.43" y="542.9281">&lt;OptionalKind.Witness, A&gt;</text></g><!--link OptionalFunctorImpl to Functor--><g class="link" data-entity-1="OptionalFunctorImpl" data-entity-2="Functor" data-source-line="38" data-uid="lnk21" id="link_OptionalFunctorImpl_Functor"><path codeLine="38" d="M582.13,141.44 C681.83,153.29 847.58,179.61 884.43,226.59 C940.33,297.84 909.4309,402.0865 893.7209,444.5865" fill="none" id="OptionalFunctorImpl-to-Functor" style="stroke:#F5BDE6;stroke-width:1;stroke-dasharray:7,7;"/><polygon fill="none" points="887.48,461.47,899.3487,446.6669,888.0931,442.5062,887.48,461.47" style="stroke:#F5BDE6;stroke-width:1;"/><text fill="#CAD3F5" font-family="Helvetica" font-size="12" lengthAdjust="spacing" textLength="135.2169" x="915.18" y="329.4481">&lt;OptionalKind.Witness&gt;</text></g><!--link OptionalMonadImpl to OptionalFunctorImpl--><g class="link" data-entity-1="OptionalMonadImpl" data-entity-2="OptionalFunctorImpl" data-source-line="39" data-uid="lnk22" id="link_OptionalMonadImpl_OptionalFunctorImpl"><path codeLine="39" d="M294.42,39.23 C341.24,59.74 407.3234,88.6956 454.0834,109.1856" fill="none" id="OptionalMonadImpl-to-OptionalFunctorImpl" style="stroke:#F5BDE6;stroke-width:1;"/><polygon fill="none" points="470.57,116.41,456.4915,103.6901,451.6753,114.6812,470.57,116.41" style="stroke:#F5BDE6;stroke-width:1;"/></g><!--link OptionalMonadImpl to MonadErrorBase--><g class="link" data-entity-1="OptionalMonadImpl" data-entity-2="MonadErrorBase" data-source-line="40" data-uid="lnk23" id="link_OptionalMonadImpl_MonadErrorBase"><path codeLine="40" d="M185.17,31.65 C137.32,38.36 81.36,50 66.43,68.79 C55.72,82.29 54.3348,86.398 61.2548,100.248" fill="none" id="OptionalMonadImpl-to-MonadErrorBase" style="stroke:#F5BDE6;stroke-width:1;stroke-dasharray:7,7;"/><polygon fill="none" points="69.3,116.35,66.6221,97.5663,55.8875,102.9297,69.3,116.35" style="stroke:#F5BDE6;stroke-width:1;"/><text fill="#CAD3F5" font-family="Helvetica" font-size="12" lengthAdjust="spacing" textLength="165.1692" x="67.43" y="82.6181">&lt;OptionalKind.Witness, Unit&gt;</text></g><!--link OptionalMonadImpl to OptionalKindHelper--><g class="link" data-entity-1="OptionalMonadImpl" data-entity-2="OptionalKindHelper" data-source-line="42" data-uid="lnk24" id="link_OptionalMonadImpl_OptionalKindHelper"><path codeLine="42" d="M259.3,39.07 C258.94,80.96 257.9815,191.9202 257.6215,233.8802" fill="none" id="OptionalMonadImpl-to-OptionalKindHelper" style="stroke:#F5BDE6;stroke-width:1;stroke-dasharray:7,7;"/><polygon fill="#F5BDE6" points="257.57,239.88,261.6471,230.9146,257.6129,234.8802,253.6474,230.846,257.57,239.88" style="stroke:#F5BDE6;stroke-width:1;"/><text fill="#CAD3F5" font-family="Helvetica" font-size="12" lengthAdjust="spacing" textLength="133.813" x="259.6" y="137.5181">uses for widen / narrow</text></g><!--link OptionalFunctorImpl to OptionalKindHelper--><g class="link" data-entity-1="OptionalFunctorImpl" data-entity-2="OptionalKindHelper" data-source-line="43" data-uid="lnk25" id="link_OptionalFunctorImpl_OptionalKindHelper"><path codeLine="43" d="M474.02,149.07 C426.32,172.42 341.5288,213.9317 293.9788,237.2117" fill="none" id="OptionalFunctorImpl-to-OptionalKindHelper" style="stroke:#F5BDE6;stroke-width:1;stroke-dasharray:7,7;"/><polygon fill="#F5BDE6" points="288.59,239.85,298.4321,239.4851,293.0807,237.6514,294.9143,232.3,288.59,239.85" style="stroke:#F5BDE6;stroke-width:1;"/><text fill="#CAD3F5" font-family="Helvetica" font-size="12" lengthAdjust="spacing" textLength="133.813" x="411.94" y="192.4181">uses for widen / narrow</text></g><!--SRC=[bLJ9Rjim4BtpAwQvn0Qqt0r1W5F4S16ukIJefOVG56qHe4Y2fEeAQVwz8qfsA2y5UjBepPit2uVy8XIJRSMXzjwuHPvRUiZsmjVjjdNSCgqyLpvZkiaLqyxJLB2SKMzCovXGQKCPgmNrEZMIAjysClKrRtZUKA7oO6O6KL8BJC8RupjeUBFbrX6YjETmjmB-6vDK3du8hxXpIojyLxnqXWShUrNKTkLFjTCMg9JWqGDCKkUukmFg8D2-enWX0kkrEyfGzqcegbWbi2m3gV-DtQjMCQzjiHhSus_CM1eZ1VOgVl4ZAu9YvaOhMXMRWHD-7gYxP3nQYmat2Jn6p006EZdr0Lasr1jBF1ilC426liQcOgpNWAA0sNCYnRxsMzdoEPGbl9CFGiAyfY9hBWst5pe379JMoTxoxYGIpilssg1tLsB8LrmNF7S7eMpqmVsHjTQouXRh1ikPjjKzETI2rI0Q8t59b9yMWSICl0rKkD2O7P5UJu_s_1zQyFxnHd37G8KjEHl6UFQJIOpODvGClP-5XAER10HafFS3dnukfEcVCbgDapKuuhsAxC5vNCtnEu1zOx20cTHx94lP9GCa7E2jWsqltL-OzTEBcnDoiIYnI15xi_4MzXVdCouUHvPz5dKhkYINSmafhmXUeOOKPnEyMUUh4ZugDLOfhsts0l1fSs4w1toL5EI0BupLXnlT_gV8Nm00]--></g></svg>