<svg xmlns="http://www.w3.org/2000/svg" xmlns:xlink="http://www.w3.org/1999/xlink" contentStyleType="text/css" data-diagram-type="CLASS" height="670px" preserveAspectRatio="none" style="width:765px;height:670px;background:#24273A;" version="1.1" viewBox="0 0 765 670" width="765px" zoomAndPan="magnify"><defs/><g><rect fill="#24273A" height="670" style="stroke:none;stroke-width:1;" width="765" x="0" y="0"/><!--cluster Defunctionalisation Pattern For External Types (Optional, CompletableFuture etc)--><g class="cluster" data-entity="Defunctionalisation Pattern For External Types .Optional. CompletableFuture etc." data-source-line="5" data-uid="ent0002" id="cluster_Defunctionalisation Pattern For External Types .Optional. CompletableFuture etc."><path d="M7.5,6.016 L497.7514,6.016 A2.25,2.25 0 0 1 499.2514,7.516 L506.2514,28.3601 L756.5,28.3601 A1.5,1.5 0 0 1 758,29.8601 L758,661.506 A1.5,1.5 0 0 1 756.5,663.006 L7.5,663.006 A1.5,1.5 0 0 1 6,661.506 L6,7.516 A1.5,1.5 0 0 1 7.5,6.016" fill="#24273A" style="stroke:#CAD3F5;stroke-width:1.5;"/><line style="stroke:#CAD3F5;stroke-width:1.5;" x1="6" x2="506.2514" y1="28.3601" y2="28.3601"/><text fill="#CAD3F5" font-family="Helvetica" font-size="12" font-weight="bold" lengthAdjust="spacing" textLength="487.2514" x="10" y="20.8441">Defunctionalisation Pattern For External Types (Optional, CompletableFuture etc)</text></g><!--cluster internal--><g class="cluster" data-entity="internal" data-source-line="15" data-uid="ent0008" id="cluster_internal"><path d="M31.5,277.946 L82.1883,277.946 A2.25,2.25 0 0 1 83.6883,279.446 L90.6883,300.2901 L322.5,300.2901 A1.5,1.5 0 0 1 324,301.7901 L324,533.716 A1.5,1.5 0 0 1 322.5,535.216 L31.5,535.216 A1.5,1.5 0 0 1 30,533.716 L30,279.446 A1.5,1.5 0 0 1 31.5,277.946" fill="#24273A" style="stroke:#CAD3F5;stroke-width:1.5;"/><line style="stroke:#CAD3F5;stroke-width:1.5;" x1="30" x2="90.6883" y1="300.2901" y2="300.2901"/><text fill="#CAD3F5" font-family="Helvetica" font-size="12" font-weight="bold" lengthAdjust="spacing" textLength="47.6883" x="34" y="292.7741">internal</text></g><g class="entity" data-entity="WitnessNote" data-source-line="7" data-uid="ent0003" id="entity_WitnessNote"><path d="M22.25,45.066 L22.25,84.7543 A1.5,1.5 0 0 0 23.75,86.2543 L216.2432,86.2543 A1.5,1.5 0 0 0 217.7432,84.7543 L217.7432,53.566 L207.7432,43.566 L23.75,43.566 A1.5,1.5 0 0 0 22.25,45.066" fill="#EED49F" style="stroke:#24273A;stroke-width:0.5;"/><path d="M207.7432,43.566 L207.7432,52.816 A0.75,0.75 0 0 0 208.4932,53.566 L217.7432,53.566 L207.7432,43.566" fill="#EED49F" style="stroke:#24273A;stroke-width:1;"/><text fill="#24273A" font-family="Helvetica" font-size="12" lengthAdjust="spacing" textLength="159.1332" x="28.25" y="61.3941">All Witness types implement</text><text fill="#24273A" font-family="Helvetica" font-size="12" lengthAdjust="spacing" textLength="174.4932" x="28.25" y="77.7382">WitnessArity&lt;TypeArity.Unary&gt;</text></g><!--class OptionalKindInterface--><g class="entity" data-entity="OptionalKindInterface" data-source-line="9" data-uid="ent0004" id="entity_OptionalKindInterface"><rect fill="#24273A" height="64.1362" rx="1.5" ry="1.5" style="stroke:#C6A0F6;stroke-width:2;" width="469.2032" x="35.4" y="149.806"/><rect fill="#363A4F" height="31.792" rx="1.5" ry="1.5" style="stroke:#363A4F;stroke-width:2;" width="469.2032" x="35.4" y="149.806"/><rect fill="#363A4F" height="1.5" style="stroke:#363A4F;stroke-width:2;" width="469.2032" x="35.4" y="180.0981"/><rect fill="none" height="64.1362" rx="1.5" ry="1.5" style="stroke:#C6A0F6;stroke-width:2;" width="469.2032" x="35.4" y="149.806"/><ellipse cx="213.9415" cy="165.702" fill="#B4A7E5" rx="10" ry="10" style="stroke:#181818;stroke-width:1;"/><path d="M211.5196,170.202 L211.5196,168.9989 L213.1915,168.8114 L213.1915,163.0302 L211.5196,162.827 L211.5196,161.6395 L216.5665,161.6395 L216.5665,162.827 L214.8634,163.0302 L214.8634,168.8114 L216.5665,168.9989 L216.5665,170.202 L211.5196,170.202 Z " fill="#CAD3F5"/><text fill="#A6DA95" font-family="Helvetica" font-size="16" font-style="italic" lengthAdjust="spacing" textLength="93.3762" x="232.9415" y="171.9101">OptionalKind</text><rect fill="#24273A" height="18.3441" style="stroke:#C6A0F6;stroke-width:1;stroke-dasharray:2,2;" width="8.744" x="498.8592" y="146.806"/><text fill="#CAD3F5" font-family="Helvetica" font-size="12" font-style="italic" lengthAdjust="spacing" textLength="6.744" x="499.8592" y="160.6341">A</text><line style="stroke:#C6A0F6;stroke-width:2;" x1="36.4" x2="503.6032" y1="181.5981" y2="181.5981"/><text fill="#A6DA95" font-family="Helvetica" font-size="12" lengthAdjust="spacing" textLength="457.2032" x="41.4" y="198.4262">class Witness implements WitnessArity&lt;Unary&gt; {} ' Nested phantom Witness type</text><line style="stroke:#C6A0F6;stroke-width:2;" x1="36.4" x2="503.6032" y1="205.9422" y2="205.9422"/></g><!--class Kind--><g class="entity" data-entity="Kind" data-source-line="10" data-uid="ent0005" id="entity_Kind"><rect fill="#24273A" height="47.792" rx="1.5" ry="1.5" style="stroke:#C6A0F6;stroke-width:2;" width="61.6481" x="253.18" y="41.016"/><rect fill="#363A4F" height="31.792" rx="1.5" ry="1.5" style="stroke:#363A4F;stroke-width:2;" width="61.6481" x="253.18" y="41.016"/><rect fill="#363A4F" height="1.5" style="stroke:#363A4F;stroke-width:2;" width="61.6481" x="253.18" y="71.3081"/><rect fill="none" height="47.792" rx="1.5" ry="1.5" style="stroke:#C6A0F6;stroke-width:2;" width="61.6481" x="253.18" y="41.016"/><ellipse cx="267.18" cy="56.912" fill="#B4A7E5" rx="10" ry="10" style="stroke:#181818;stroke-width:1;"/><path d="M264.7581,61.412 L264.7581,60.2089 L266.43,60.0214 L266.43,54.2402 L264.7581,54.037 L264.7581,52.8495 L269.805,52.8495 L269.805,54.037 L268.1019,54.2402 L268.1019,60.0214 L269.805,60.2089 L269.805,61.412 L264.7581,61.412 Z " fill="#CAD3F5"/><text fill="#A6DA95" font-family="Helvetica" font-size="16" font-style="italic" lengthAdjust="spacing" textLength="31.6481" x="280.18" y="63.1201">Kind</text><line style="stroke:#C6A0F6;stroke-width:2;" x1="254.18" x2="313.8281" y1="72.8081" y2="72.8081"/><line style="stroke:#C6A0F6;stroke-width:2;" x1="254.18" x2="313.8281" y1="80.8081" y2="80.8081"/></g><!--class JavaOptional--><g class="entity" data-entity="JavaOptional" data-source-line="12" data-uid="ent0007" id="entity_JavaOptional"><rect fill="#24273A" height="47.792" rx="1.5" ry="1.5" style="stroke:#C6A0F6;stroke-width:2;" width="168.3603" x="294.82" y="599.216"/><rect fill="#363A4F" height="31.792" rx="1.5" ry="1.5" style="stroke:#363A4F;stroke-width:2;" width="168.3603" x="294.82" y="599.216"/><rect fill="#363A4F" height="1.5" style="stroke:#363A4F;stroke-width:2;" width="168.3603" x="294.82" y="629.5081"/><rect fill="none" height="47.792" rx="1.5" ry="1.5" style="stroke:#C6A0F6;stroke-width:2;" width="168.3603" x="294.82" y="599.216"/><ellipse cx="308.82" cy="615.112" fill="#ADD1B2" rx="10" ry="10" style="stroke:#181818;stroke-width:1;"/><path d="M308.5388,619.737 Q307.2888,619.737 306.4919,619.2214 Q305.695,618.6902 305.3044,617.737 Q304.9138,616.7839 304.9138,615.5027 Q304.9138,614.0808 305.3825,613.0652 Q305.8513,612.0339 306.7575,611.487 Q307.6638,610.9245 308.9763,610.9245 Q309.6013,610.9245 310.07,611.0495 Q310.5544,611.1745 311.0388,611.4089 L310.4606,612.8464 Q310.0231,612.612 309.6325,612.5339 Q309.2575,612.4558 308.9138,612.4558 Q308.0856,612.4558 307.5856,612.8308 Q307.1013,613.1902 306.8825,613.862 Q306.6794,614.5339 306.6794,615.4402 Q306.6794,616.8464 307.1794,617.5339 Q307.695,618.2058 308.82,618.2058 Q309.2419,618.2058 309.6794,618.0964 Q310.1169,617.987 310.7106,617.7214 L310.7106,619.2839 Q310.195,619.5183 309.6325,619.6277 Q309.07,619.737 308.5388,619.737 Z " fill="#CAD3F5"/><text fill="#A6DA95" font-family="Helvetica" font-size="16" lengthAdjust="spacing" textLength="127.6163" x="321.82" y="621.3201">java.util.Optional</text><rect fill="#24273A" height="18.3441" style="stroke:#C6A0F6;stroke-width:1;stroke-dasharray:2,2;" width="8.744" x="457.4363" y="596.216"/><text fill="#CAD3F5" font-family="Helvetica" font-size="12" font-style="italic" lengthAdjust="spacing" textLength="6.744" x="458.4363" y="610.0441">A</text><line style="stroke:#C6A0F6;stroke-width:2;" x1="295.82" x2="462.1803" y1="631.0081" y2="631.0081"/><line style="stroke:#C6A0F6;stroke-width:2;" x1="295.82" x2="462.1803" y1="639.0081" y2="639.0081"/></g><!--class OptionalKindHelper--><g class="entity" data-entity="OptionalKindHelper" data-source-line="20" data-uid="ent0012" id="entity_OptionalKindHelper"><rect fill="#24273A" height="80.4803" rx="1.5" ry="1.5" style="stroke:#C6A0F6;stroke-width:2;" width="401.5746" x="340.21" y="296.596"/><rect fill="#363A4F" height="31.792" rx="1.5" ry="1.5" style="stroke:#363A4F;stroke-width:2;" width="401.5746" x="340.21" y="296.596"/><rect fill="#363A4F" height="1.5" style="stroke:#363A4F;stroke-width:2;" width="401.5746" x="340.21" y="326.8881"/><rect fill="none" height="80.4803" rx="1.5" ry="1.5" style="stroke:#C6A0F6;stroke-width:2;" width="401.5746" x="340.21" y="296.596"/><ellipse cx="462.4211" cy="312.492" fill="#ADD1B2" rx="10" ry="10" style="stroke:#181818;stroke-width:1;"/><path d="M462.1399,317.117 Q460.8899,317.117 460.093,316.6014 Q459.2961,316.0702 458.9055,315.117 Q458.5149,314.1639 458.5149,312.8827 Q458.5149,311.4608 458.9836,310.4452 Q459.4524,309.4139 460.3586,308.867 Q461.2649,308.3045 462.5774,308.3045 Q463.2024,308.3045 463.6711,308.4295 Q464.1555,308.5545 464.6399,308.7889 L464.0617,310.2264 Q463.6242,309.992 463.2336,309.9139 Q462.8586,309.8358 462.5149,309.8358 Q461.6867,309.8358 461.1867,310.2108 Q460.7024,310.5702 460.4836,311.242 Q460.2805,311.9139 460.2805,312.8202 Q460.2805,314.2264 460.7805,314.9139 Q461.2961,315.5858 462.4211,315.5858 Q462.843,315.5858 463.2805,315.4764 Q463.718,315.367 464.3117,315.1014 L464.3117,316.6639 Q463.7961,316.8983 463.2336,317.0077 Q462.6711,317.117 462.1399,317.117 Z " fill="#CAD3F5"/><text fill="#A6DA95" font-family="Helvetica" font-size="16" lengthAdjust="spacing" textLength="149.1523" x="481.4211" y="318.7001">OptionalKindHelper</text><line style="stroke:#C6A0F6;stroke-width:2;" x1="341.21" x2="740.7846" y1="328.3881" y2="328.3881"/><line style="stroke:#C6A0F6;stroke-width:2;" x1="341.21" x2="740.7846" y1="336.3881" y2="336.3881"/><ellipse cx="351.21" cy="350.0601" fill="#84BE84" rx="3" ry="3" style="stroke:#038048;stroke-width:1;"/><text fill="#A6DA95" font-family="Helvetica" font-size="12" lengthAdjust="spacing" text-decoration="underline" textLength="364.5865" x="359.21" y="353.2162">widen(opt: java.util.Optional&lt;A&gt;): Kind&lt;OptionalKind.Witness, A&gt;</text><ellipse cx="351.21" cy="366.4042" fill="#84BE84" rx="3" ry="3" style="stroke:#038048;stroke-width:1;"/><text fill="#A6DA95" font-family="Helvetica" font-size="12" lengthAdjust="spacing" text-decoration="underline" textLength="376.5746" x="359.21" y="369.5603">narrow(kind: Kind&lt;OptionalKind.Witness, A&gt;): java.util.Optional&lt;A&gt;</text></g><!--class OptionalMonad--><g class="entity" data-entity="OptionalMonad" data-source-line="28" data-uid="ent0016" id="entity_OptionalMonad"><rect fill="#24273A" height="47.792" rx="1.5" ry="1.5" style="stroke:#C6A0F6;stroke-width:2;" width="147.8082" x="540.1" y="157.976"/><rect fill="#363A4F" height="31.792" rx="1.5" ry="1.5" style="stroke:#363A4F;stroke-width:2;" width="147.8082" x="540.1" y="157.976"/><rect fill="#363A4F" height="1.5" style="stroke:#363A4F;stroke-width:2;" width="147.8082" x="540.1" y="188.2681"/><rect fill="none" height="47.792" rx="1.5" ry="1.5" style="stroke:#C6A0F6;stroke-width:2;" width="147.8082" x="540.1" y="157.976"/><ellipse cx="554.1" cy="173.872" fill="#ADD1B2" rx="10" ry="10" style="stroke:#181818;stroke-width:1;"/><path d="M553.8188,178.497 Q552.5688,178.497 551.7719,177.9814 Q550.975,177.4502 550.5844,176.497 Q550.1938,175.5439 550.1938,174.2627 Q550.1938,172.8408 550.6625,171.8252 Q551.1313,170.7939 552.0375,170.247 Q552.9438,169.6845 554.2563,169.6845 Q554.8813,169.6845 555.35,169.8095 Q555.8344,169.9345 556.3188,170.1689 L555.7406,171.6064 Q555.3031,171.372 554.9125,171.2939 Q554.5375,171.2158 554.1938,171.2158 Q553.3656,171.2158 552.8656,171.5908 Q552.3813,171.9502 552.1625,172.622 Q551.9594,173.2939 551.9594,174.2002 Q551.9594,175.6064 552.4594,176.2939 Q552.975,176.9658 554.1,176.9658 Q554.5219,176.9658 554.9594,176.8564 Q555.3969,176.747 555.9906,176.4814 L555.9906,178.0439 Q555.475,178.2783 554.9125,178.3877 Q554.35,178.497 553.8188,178.497 Z " fill="#CAD3F5"/><text fill="#A6DA95" font-family="Helvetica" font-size="16" lengthAdjust="spacing" textLength="117.8082" x="567.1" y="180.0801">OptionalMonad</text><line style="stroke:#C6A0F6;stroke-width:2;" x1="541.1" x2="686.9082" y1="189.7681" y2="189.7681"/><line style="stroke:#C6A0F6;stroke-width:2;" x1="541.1" x2="686.9082" y1="197.7681" y2="197.7681"/></g><!--class MonadError--><g class="entity" data-entity="MonadError" data-uid="ent0017" id="entity_MonadError"><rect fill="#24273A" height="47.792" rx="1.5" ry="1.5" style="stroke:#C6A0F6;stroke-width:2;" width="116.4162" x="555.79" y="41.016"/><rect fill="#363A4F" height="31.792" rx="1.5" ry="1.5" style="stroke:#363A4F;stroke-width:2;" width="116.4162" x="555.79" y="41.016"/><rect fill="#363A4F" height="1.5" style="stroke:#363A4F;stroke-width:2;" width="116.4162" x="555.79" y="71.3081"/><rect fill="none" height="47.792" rx="1.5" ry="1.5" style="stroke:#C6A0F6;stroke-width:2;" width="116.4162" x="555.79" y="41.016"/><ellipse cx="569.79" cy="56.912" fill="#B4A7E5" rx="10" ry="10" style="stroke:#181818;stroke-width:1;"/><path d="M567.3681,61.412 L567.3681,60.2089 L569.04,60.0214 L569.04,54.2402 L567.3681,54.037 L567.3681,52.8495 L572.415,52.8495 L572.415,54.037 L570.7119,54.2402 L570.7119,60.0214 L572.415,60.2089 L572.415,61.412 L567.3681,61.412 Z " fill="#CAD3F5"/><text fill="#A6DA95" font-family="Helvetica" font-size="16" font-style="italic" lengthAdjust="spacing" textLength="86.4162" x="582.79" y="63.1201">MonadError</text><line style="stroke:#C6A0F6;stroke-width:2;" x1="556.79" x2="671.2062" y1="72.8081" y2="72.8081"/><line style="stroke:#C6A0F6;stroke-width:2;" x1="556.79" x2="671.2062" y1="80.8081" y2="80.8081"/></g><!--class OptionalHolder--><g class="entity" data-entity="OptionalHolder" data-source-line="16" data-uid="ent0009" id="entity_OptionalHolder"><rect fill="#24273A" height="64.1362" rx="1.5" ry="1.5" style="stroke:#C6A0F6;stroke-width:2;" width="261.6536" x="46.17" y="455.076"/><rect fill="#363A4F" height="31.792" rx="1.5" ry="1.5" style="stroke:#363A4F;stroke-width:2;" width="261.6536" x="46.17" y="455.076"/><rect fill="#363A4F" height="1.5" style="stroke:#363A4F;stroke-width:2;" width="261.6536" x="46.17" y="485.3681"/><rect fill="none" height="64.1362" rx="1.5" ry="1.5" style="stroke:#C6A0F6;stroke-width:2;" width="261.6536" x="46.17" y="455.076"/><ellipse cx="109.6007" cy="470.972" fill="#ADD1B2" rx="10" ry="10" style="stroke:#181818;stroke-width:1;"/><path d="M109.3194,475.597 Q108.0694,475.597 107.2725,475.0814 Q106.4757,474.5502 106.085,473.597 Q105.6944,472.6439 105.6944,471.3627 Q105.6944,469.9408 106.1632,468.9252 Q106.6319,467.8939 107.5382,467.347 Q108.4444,466.7845 109.7569,466.7845 Q110.3819,466.7845 110.8507,466.9095 Q111.335,467.0345 111.8194,467.2689 L111.2413,468.7064 Q110.8038,468.472 110.4132,468.3939 Q110.0382,468.3158 109.6944,468.3158 Q108.8663,468.3158 108.3663,468.6908 Q107.8819,469.0502 107.6632,469.722 Q107.46,470.3939 107.46,471.3002 Q107.46,472.7064 107.96,473.3939 Q108.4757,474.0658 109.6007,474.0658 Q110.0225,474.0658 110.46,473.9564 Q110.8975,473.847 111.4913,473.5814 L111.4913,475.1439 Q110.9757,475.3783 110.4132,475.4877 Q109.8507,475.597 109.3194,475.597 Z " fill="#CAD3F5"/><text fill="#A6DA95" font-family="Helvetica" font-size="16" lengthAdjust="spacing" textLength="116.0482" x="128.6007" y="477.1801">OptionalHolder</text><rect fill="#24273A" height="18.3441" style="stroke:#C6A0F6;stroke-width:1;stroke-dasharray:2,2;" width="8.744" x="302.0796" y="452.076"/><text fill="#CAD3F5" font-family="Helvetica" font-size="12" font-style="italic" lengthAdjust="spacing" textLength="6.744" x="303.0796" y="465.9041">A</text><line style="stroke:#C6A0F6;stroke-width:2;" x1="47.17" x2="306.8236" y1="486.8681" y2="486.8681"/><line style="stroke:#C6A0F6;stroke-width:2;" x1="47.17" x2="306.8236" y1="494.8681" y2="494.8681"/><ellipse cx="57.17" cy="508.5401" fill="#84BE84" rx="3" ry="3" style="stroke:#038048;stroke-width:1;"/><text fill="#A6DA95" font-family="Helvetica" font-size="12" lengthAdjust="spacing" textLength="236.6536" x="65.17" y="511.6962">OptionalHolder(opt: java.util.Optional&lt;A&gt;)</text></g><!--class OptionalKindInterface--><g class="entity" data-entity="OptionalKindInterface" data-source-line="17" data-uid="ent0010" id="entity_OptionalKindInterface"><rect fill="#24273A" height="47.792" rx="1.5" ry="1.5" style="stroke:#C6A0F6;stroke-width:2;" width="186.8963" x="83.55" y="312.946"/><rect fill="#363A4F" height="31.792" rx="1.5" ry="1.5" style="stroke:#363A4F;stroke-width:2;" width="186.8963" x="83.55" y="312.946"/><rect fill="#363A4F" height="1.5" style="stroke:#363A4F;stroke-width:2;" width="186.8963" x="83.55" y="343.2381"/><rect fill="none" height="47.792" rx="1.5" ry="1.5" style="stroke:#C6A0F6;stroke-width:2;" width="186.8963" x="83.55" y="312.946"/><ellipse cx="97.55" cy="328.842" fill="#B4A7E5" rx="10" ry="10" style="stroke:#181818;stroke-width:1;"/><path d="M95.1281,333.342 L95.1281,332.1389 L96.8,331.9514 L96.8,326.1702 L95.1281,325.967 L95.1281,324.7795 L100.175,324.7795 L100.175,325.967 L98.4719,326.1702 L98.4719,331.9514 L100.175,332.1389 L100.175,333.342 L95.1281,333.342 Z " fill="#CAD3F5"/><text fill="#A6DA95" font-family="Helvetica" font-size="16" font-style="italic" lengthAdjust="spacing" textLength="156.8963" x="110.55" y="335.0501">OptionalKindInterface</text><line style="stroke:#C6A0F6;stroke-width:2;" x1="84.55" x2="269.4463" y1="344.7381" y2="344.7381"/><line style="stroke:#C6A0F6;stroke-width:2;" x1="84.55" x2="269.4463" y1="352.7381" y2="352.7381"/></g><!--reverse link Kind to OptionalKindInterface--><g class="link" data-entity-1="Kind" data-entity-2="OptionalKindInterface" data-source-line="10" data-uid="lnk6" id="link_Kind_OptionalKindInterface"><path d="M278.9933,107.0439 C276.8833,124.3639 276.15,130.336 273.84,149.366" fill="none" id="Kind-backto-OptionalKindInterface" style="stroke:#F5BDE6;stroke-width:1;"/><polygon fill="none" points="281.17,89.176,273.0373,106.3183,284.9492,107.7695,281.17,89.176" style="stroke:#F5BDE6;stroke-width:1;"/></g><!--reverse link OptionalKindInterface to OptionalHolder--><g class="link" data-entity-1="OptionalKindInterface" data-entity-2="OptionalHolder" data-source-line="17" data-uid="lnk11" id="link_OptionalKindInterface_OptionalHolder"><path d="M177,379.006 C177,404.186 177,426.546 177,454.606" fill="none" id="OptionalKindInterface-backto-OptionalHolder" style="stroke:#F5BDE6;stroke-width:1;stroke-dasharray:7,7;"/><polygon fill="none" points="177,361.006,171,379.006,183,379.006,177,361.006" style="stroke:#F5BDE6;stroke-width:1;"/></g><!--link OptionalKindHelper to OptionalHolder--><g class="link" data-entity-1="OptionalKindHelper" data-entity-2="OptionalHolder" data-source-line="20" data-uid="lnk13" id="link_OptionalKindHelper_OptionalHolder"><path codeLine="20" d="M443.46,377.556 C419.75,387.216 394.46,397.516 371,407.076 C332.6,422.726 295.4861,437.8511 259.9661,452.3311" fill="none" id="OptionalKindHelper-to-OptionalHolder" style="stroke:#F5BDE6;stroke-width:1;stroke-dasharray:7,7;"/><polygon fill="#F5BDE6" points="254.41,454.596,264.2541,454.9026,259.0401,452.7085,261.2341,447.4945,254.41,454.596" style="stroke:#F5BDE6;stroke-width:1;"/><text fill="#CAD3F5" font-family="Helvetica" font-size="12" lengthAdjust="spacing" textLength="77.4486" x="372" y="420.9041">creates / uses</text></g><!--link OptionalKindHelper to JavaOptional--><g class="link" data-entity-1="OptionalKindHelper" data-entity-2="JavaOptional" data-source-line="21" data-uid="lnk14" id="link_OptionalKindHelper_JavaOptional"><path codeLine="21" d="M518.47,377.366 C484.13,437.626 422.7414,545.3635 395.1114,593.8335" fill="none" id="OptionalKindHelper-to-JavaOptional" style="stroke:#F5BDE6;stroke-width:1;stroke-dasharray:7,7;"/><polygon fill="#F5BDE6" points="392.14,599.046,400.0721,593.2081,394.6162,594.7022,393.122,589.2462,392.14,599.046" style="stroke:#F5BDE6;stroke-width:1;"/><text fill="#CAD3F5" font-family="Helvetica" font-size="12" lengthAdjust="spacing" textLength="97.0447" x="474.44" y="491.9741">widens / narrows</text></g><!--link OptionalHolder to JavaOptional--><g class="link" data-entity-1="OptionalHolder" data-entity-2="JavaOptional" data-source-line="22" data-uid="lnk15" id="link_OptionalHolder_JavaOptional"><path codeLine="22" d="M224.36,519.556 C260.98,543.836 305.8396,573.59 338.9396,595.54" fill="none" id="OptionalHolder-to-JavaOptional" style="stroke:#F5BDE6;stroke-width:1;stroke-dasharray:7,7;"/><polygon fill="#F5BDE6" points="343.94,598.856,338.65,590.5484,339.773,596.0927,334.2287,597.2157,343.94,598.856" style="stroke:#F5BDE6;stroke-width:1;"/><text fill="#CAD3F5" font-family="Helvetica" font-size="12" lengthAdjust="spacing" textLength="30.9002" x="297.09" y="565.0441">holds</text></g><!--reverse link MonadError to OptionalMonad--><g class="link" data-entity-1="MonadError" data-entity-2="OptionalMonad" data-uid="lnk18" id="link_MonadError_OptionalMonad"><path d="M614,107.176 C614,127.116 614,137.706 614,157.646" fill="none" id="MonadError-backto-OptionalMonad" style="stroke:#F5BDE6;stroke-width:1;stroke-dasharray:7,7;"/><polygon fill="none" points="614,89.176,608,107.176,620,107.176,614,89.176" style="stroke:#F5BDE6;stroke-width:1;"/></g><!--link OptionalMonad to OptionalKindHelper--><g class="link" data-entity-1="OptionalMonad" data-entity-2="OptionalKindHelper" data-source-line="31" data-uid="lnk19" id="link_OptionalMonad_OptionalKindHelper"><path codeLine="31" d="M602.91,206.106 C591.51,230.006 576.1036,262.2708 562.4536,290.8808" fill="none" id="OptionalMonad-to-OptionalKindHelper" style="stroke:#F5BDE6;stroke-width:1;stroke-dasharray:7,7;"/><polygon fill="#F5BDE6" points="559.87,296.296,567.3556,289.8956,562.023,291.7833,560.1353,286.4507,559.87,296.296" style="stroke:#F5BDE6;stroke-width:1;"/><text fill="#CAD3F5" font-family="Helvetica" font-size="12" lengthAdjust="spacing" textLength="25.6802" x="585.04" y="257.7741">uses</text></g><!--SRC=[XLDDRzim3BtxLt2-94KR-nuK0OAjHRTXtGuBTkc5bPLQgom94hqi2FBVHzlnLxwcWo5GV8-FZ_G7POGkCmavaGlpDFMuITuKvULh6QGNrf0qb0XRf4ROG3XJ8XL8pfL2A3ChK8XS8TcPqsYeBFICSbd8j41bqlgQE8v6KUHGlEERXFYJN9T6aB86jGfONU074abluD5wUFXRNL73pwsJ0QRVNPDx1nzjuRGaVDNoiQJIIv0aRcBOHH7mCPQOVgar_59aP0X0DOEgK0NtyM8E3qklQ7jVyTUtP6NGRnSnO6YXpypLi2gsmAzHC7MhvAiosVsooH_6FdUfadimMO0wSvYI7FZlOBbWtN0uGcFeQlU2kr0Zk949kprCu5a6aXcud6stnQZZcdKVzRpnR_o3IKbA9wsMLluNVcbZJDoqFEcwUh8wanvK03ID4rLUfwyPNiOZKHhiUcJ6azHE-fgl6ttB49-q7eyh7hlRwkYDEUzxJmktH-2fTJI7iqxSTAZzmBlJPY195iUIvX0BBv5uprBWVoR4ry0ZkncwKPaq5P8dw-tc27meSGwOynDdHsSSx4kUBEX1IU_IBUn2DKMnXrhADPFcrxVv76VJrVITK_-3lhbGzNINsyTl_Cb67TQHuOxKWGUMu2_KNHb5mzzm0YkUuAKr7gz5Kssu4GE7UKBDBaJH_Xy0]--></g></svg>