<svg xmlns="http://www.w3.org/2000/svg" xmlns:xlink="http://www.w3.org/1999/xlink" contentStyleType="text/css" data-diagram-type="CLASS" height="810px" preserveAspectRatio="none" style="width:829px;height:810px;background:#24273A;" version="1.1" viewBox="0 0 829 810" width="829px" zoomAndPan="magnify"><defs/><g><rect fill="#24273A" height="810" style="stroke:none;stroke-width:1;" width="829" x="0" y="0"/><g class="entity" data-entity="ArityNote" data-source-line="6" data-uid="ent0002" id="entity_ArityNote"><path d="M6,7.5 L6,47.1882 A1.5,1.5 0 0 0 7.5,48.6882 L317.8101,48.6882 A1.5,1.5 0 0 0 319.3101,47.1882 L319.3101,16 L309.3101,6 L7.5,6 A1.5,1.5 0 0 0 6,7.5" fill="#EED49F" style="stroke:#24273A;stroke-width:0.5;"/><path d="M309.3101,6 L309.3101,15.25 A0.75,0.75 0 0 0 310.0601,16 L319.3101,16 L309.3101,6" fill="#EED49F" style="stroke:#24273A;stroke-width:1;"/><text fill="#24273A" font-family="Helvetica" font-size="12" lengthAdjust="spacing" textLength="231.7216" x="12" y="23.8281">F extends WitnessArity&lt;TypeArity.Unary&gt;</text><text fill="#24273A" font-family="Helvetica" font-size="12" lengthAdjust="spacing" textLength="292.3101" x="12" y="40.1722">Witness&lt;F,R&gt; also implements WitnessArity&lt;Unary&gt;</text></g><!--class Kind--><g class="entity" data-entity="Kind" data-source-line="8" data-uid="ent0003" id="entity_Kind"><rect fill="#24273A" height="31.792" rx="1.5" ry="1.5" style="stroke:#C6A0F6;stroke-width:2;" width="133.8086" x="354.75" y="11.45"/><rect fill="#363A4F" height="31.792" rx="1.5" ry="1.5" style="stroke:#363A4F;stroke-width:2;" width="133.8086" x="354.75" y="11.45"/><rect fill="#363A4F" height="1.5" style="stroke:#363A4F;stroke-width:2;" width="133.8086" x="354.75" y="41.742"/><rect fill="none" height="31.792" rx="1.5" ry="1.5" style="stroke:#C6A0F6;stroke-width:2;" width="133.8086" x="354.75" y="11.45"/><ellipse cx="368.75" cy="27.346" fill="#B4A7E5" rx="10" ry="10" style="stroke:#181818;stroke-width:1;"/><path d="M366.3281,31.846 L366.3281,30.6429 L368,30.4554 L368,24.6741 L366.3281,24.471 L366.3281,23.2835 L371.375,23.2835 L371.375,24.471 L369.6719,24.6741 L369.6719,30.4554 L371.375,30.6429 L371.375,31.846 L366.3281,31.846 Z " fill="#CAD3F5"/><text fill="#A6DA95" font-family="Helvetica" font-size="16" font-style="italic" lengthAdjust="spacing" textLength="31.6481" x="381.75" y="33.554">Kind</text><rect fill="#24273A" height="18.3441" style="stroke:#C6A0F6;stroke-width:1;stroke-dasharray:2,2;" width="70.1605" x="421.3981" y="8.45"/><text fill="#CAD3F5" font-family="Helvetica" font-size="12" font-style="italic" lengthAdjust="spacing" textLength="68.1605" x="422.3981" y="22.2781">F_HKT, A_VAL</text></g><!--class Monad--><g class="entity" data-entity="Monad" data-source-line="9" data-uid="ent0004" id="entity_Monad"><rect fill="#24273A" height="31.792" rx="1.5" ry="1.5" style="stroke:#C6A0F6;stroke-width:2;" width="115.4603" x="631.92" y="462.37"/><rect fill="#363A4F" height="31.792" rx="1.5" ry="1.5" style="stroke:#363A4F;stroke-width:2;" width="115.4603" x="631.92" y="462.37"/><rect fill="#363A4F" height="1.5" style="stroke:#363A4F;stroke-width:2;" width="115.4603" x="631.92" y="492.662"/><rect fill="none" height="31.792" rx="1.5" ry="1.5" style="stroke:#C6A0F6;stroke-width:2;" width="115.4603" x="631.92" y="462.37"/><ellipse cx="645.92" cy="478.266" fill="#B4A7E5" rx="10" ry="10" style="stroke:#181818;stroke-width:1;"/><path d="M643.4981,482.766 L643.4981,481.5629 L645.17,481.3754 L645.17,475.5941 L643.4981,475.391 L643.4981,474.2035 L648.545,474.2035 L648.545,475.391 L646.8419,475.5941 L646.8419,481.3754 L648.545,481.5629 L648.545,482.766 L643.4981,482.766 Z " fill="#CAD3F5"/><text fill="#A6DA95" font-family="Helvetica" font-size="16" font-style="italic" lengthAdjust="spacing" textLength="50.0801" x="658.92" y="484.474">Monad</text><rect fill="#24273A" height="18.3441" style="stroke:#C6A0F6;stroke-width:1;stroke-dasharray:2,2;" width="33.3802" x="717.0001" y="459.37"/><text fill="#CAD3F5" font-family="Helvetica" font-size="12" font-style="italic" lengthAdjust="spacing" textLength="31.3802" x="718.0001" y="473.1981">F_HKT</text></g><!--class ReaderT--><g class="entity" data-entity="ReaderT" data-source-line="13" data-uid="ent0005" id="entity_ReaderT"><rect fill="#24273A" height="158.2008" rx="1.5" ry="1.5" style="stroke:#C6A0F6;stroke-width:2;" width="401.4667" x="272.92" y="243.17"/><rect fill="#363A4F" height="48.1362" rx="1.5" ry="1.5" style="stroke:#363A4F;stroke-width:2;" width="401.4667" x="272.92" y="243.17"/><rect fill="#363A4F" height="1.5" style="stroke:#363A4F;stroke-width:2;" width="401.4667" x="272.92" y="289.8062"/><rect fill="none" height="158.2008" rx="1.5" ry="1.5" style="stroke:#C6A0F6;stroke-width:2;" width="401.4667" x="272.92" y="243.17"/><ellipse cx="420.6292" cy="267.2381" fill="#ADD1B2" rx="10" ry="10" style="stroke:#181818;stroke-width:1;"/><path d="M420.3479,271.8631 Q419.0979,271.8631 418.301,271.3475 Q417.5042,270.8162 417.1135,269.8631 Q416.7229,268.91 416.7229,267.6287 Q416.7229,266.2068 417.1917,265.1912 Q417.6604,264.16 418.5667,263.6131 Q419.4729,263.0506 420.7854,263.0506 Q421.4104,263.0506 421.8792,263.1756 Q422.3635,263.3006 422.8479,263.535 L422.2698,264.9725 Q421.8323,264.7381 421.4417,264.66 Q421.0667,264.5818 420.7229,264.5818 Q419.8948,264.5818 419.3948,264.9568 Q418.9104,265.3162 418.6917,265.9881 Q418.4885,266.66 418.4885,267.5662 Q418.4885,268.9725 418.9885,269.66 Q419.5042,270.3318 420.6292,270.3318 Q421.051,270.3318 421.4885,270.2225 Q421.926,270.1131 422.5198,269.8475 L422.5198,271.41 Q422.0042,271.6443 421.4417,271.7537 Q420.8792,271.8631 420.3479,271.8631 Z " fill="#CAD3F5"/><text fill="#CAD3F5" font-family="Helvetica" font-size="12" font-style="italic" lengthAdjust="spacing" textLength="46.1283" x="447.7251" y="260.9981">&#171;record&#187;</text><text fill="#A6DA95" font-family="Helvetica" font-size="16" lengthAdjust="spacing" textLength="62.3201" x="439.6292" y="281.6181">ReaderT</text><rect fill="#24273A" height="18.3441" style="stroke:#C6A0F6;stroke-width:1;stroke-dasharray:2,2;" width="33.7282" x="643.6584" y="240.17"/><text fill="#CAD3F5" font-family="Helvetica" font-size="12" font-style="italic" lengthAdjust="spacing" textLength="31.7282" x="644.6584" y="253.9981">F, R, A</text><line style="stroke:#C6A0F6;stroke-width:2;" x1="273.92" x2="673.3867" y1="291.3062" y2="291.3062"/><ellipse cx="283.92" cy="304.9782" fill="none" rx="3" ry="3" style="stroke:#038048;stroke-width:1;"/><text fill="#A6DA95" font-family="Helvetica" font-size="12" lengthAdjust="spacing" textLength="219.0735" x="291.92" y="308.1342">@NonNull Function&lt;R, Kind&lt;F, A&gt;&gt; run</text><ellipse cx="283.92" cy="341.6664" fill="#84BE84" rx="3" ry="3" style="stroke:#038048;stroke-width:1;"/><text fill="#A6DA95" font-family="Helvetica" font-size="12" lengthAdjust="spacing" textLength="335.9423" x="291.92" y="344.8225">static &lt;F, R, A&gt; ReaderT&lt;F, R, A&gt; of(Function&lt;R, Kind&lt;F, A&gt;&gt;)</text><ellipse cx="283.92" cy="358.0106" fill="#84BE84" rx="3" ry="3" style="stroke:#038048;stroke-width:1;"/><text fill="#A6DA95" font-family="Helvetica" font-size="12" lengthAdjust="spacing" textLength="328.7183" x="291.92" y="361.1666">static &lt;F, R, A&gt; ReaderT&lt;F, R, A&gt; lift(Monad&lt;F&gt;, Kind&lt;F, A&gt;)</text><ellipse cx="283.92" cy="374.3547" fill="#84BE84" rx="3" ry="3" style="stroke:#038048;stroke-width:1;"/><text fill="#A6DA95" font-family="Helvetica" font-size="12" lengthAdjust="spacing" textLength="376.4667" x="291.92" y="377.5107">static &lt;F, R, A&gt; ReaderT&lt;F, R, A&gt; reader(Monad&lt;F&gt;, Function&lt;R, A&gt;)</text><ellipse cx="283.92" cy="390.6988" fill="#84BE84" rx="3" ry="3" style="stroke:#038048;stroke-width:1;"/><text fill="#A6DA95" font-family="Helvetica" font-size="12" lengthAdjust="spacing" textLength="253.1297" x="291.92" y="393.8548">static &lt;F, R&gt; ReaderT&lt;F, R, R&gt; ask(Monad&lt;F&gt;)</text><line style="stroke:#C6A0F6;stroke-width:1;" x1="273.92" x2="448.2132" y1="323.8223" y2="323.8223"/><text fill="#A6DA95" font-family="Helvetica" font-size="12" lengthAdjust="spacing" textLength="50.8804" x="448.2132" y="327.9784">Factories</text><line style="stroke:#C6A0F6;stroke-width:1;" x1="499.0935" x2="673.3867" y1="323.8223" y2="323.8223"/></g><!--class ReaderTKind--><g class="entity" data-entity="ReaderTKind" data-source-line="14" data-uid="ent0006" id="entity_ReaderTKind"><rect fill="#24273A" height="72.4803" rx="1.5" ry="1.5" style="stroke:#C6A0F6;stroke-width:2;" width="227.9535" x="192.68" y="109.69"/><rect fill="#363A4F" height="31.792" rx="1.5" ry="1.5" style="stroke:#363A4F;stroke-width:2;" width="227.9535" x="192.68" y="109.69"/><rect fill="#363A4F" height="1.5" style="stroke:#363A4F;stroke-width:2;" width="227.9535" x="192.68" y="139.982"/><rect fill="none" height="72.4803" rx="1.5" ry="1.5" style="stroke:#C6A0F6;stroke-width:2;" width="227.9535" x="192.68" y="109.69"/><ellipse cx="240.0326" cy="125.586" fill="#B4A7E5" rx="10" ry="10" style="stroke:#181818;stroke-width:1;"/><path d="M237.6107,130.086 L237.6107,128.8829 L239.2826,128.6954 L239.2826,122.9141 L237.6107,122.711 L237.6107,121.5235 L242.6576,121.5235 L242.6576,122.711 L240.9544,122.9141 L240.9544,128.6954 L242.6576,128.8829 L242.6576,130.086 L237.6107,130.086 Z " fill="#CAD3F5"/><text fill="#A6DA95" font-family="Helvetica" font-size="16" font-style="italic" lengthAdjust="spacing" textLength="89.5202" x="259.0326" y="131.794">ReaderTKind</text><rect fill="#24273A" height="18.3441" style="stroke:#C6A0F6;stroke-width:1;stroke-dasharray:2,2;" width="33.7282" x="389.9053" y="106.69"/><text fill="#CAD3F5" font-family="Helvetica" font-size="12" font-style="italic" lengthAdjust="spacing" textLength="31.7282" x="390.9053" y="120.5181">F, R, A</text><line style="stroke:#C6A0F6;stroke-width:2;" x1="193.68" x2="419.6335" y1="141.482" y2="141.482"/><text fill="#A6DA95" font-family="Helvetica" font-size="12" lengthAdjust="spacing" textLength="215.9535" x="198.68" y="158.3101">// Witness: ReaderTKind.Witness&lt;F, R&gt;</text><text fill="#A6DA95" font-family="Helvetica" font-size="12" lengthAdjust="spacing" textLength="57.2644" x="198.68" y="174.6542">// Value: A</text></g><!--class ReaderTMonad--><g class="entity" data-entity="ReaderTMonad" data-source-line="27" data-uid="ent0009" id="entity_ReaderTMonad"><rect fill="#24273A" height="80.4803" rx="1.5" ry="1.5" style="stroke:#C6A0F6;stroke-width:2;" width="356.4783" x="462.42" y="572.16"/><rect fill="#363A4F" height="31.792" rx="1.5" ry="1.5" style="stroke:#363A4F;stroke-width:2;" width="356.4783" x="462.42" y="572.16"/><rect fill="#363A4F" height="1.5" style="stroke:#363A4F;stroke-width:2;" width="356.4783" x="462.42" y="602.452"/><rect fill="none" height="80.4803" rx="1.5" ry="1.5" style="stroke:#C6A0F6;stroke-width:2;" width="356.4783" x="462.42" y="572.16"/><ellipse cx="534.3607" cy="588.056" fill="#ADD1B2" rx="10" ry="10" style="stroke:#181818;stroke-width:1;"/><path d="M534.0795,592.681 Q532.8295,592.681 532.0326,592.1654 Q531.2357,591.6341 530.8451,590.681 Q530.4545,589.7279 530.4545,588.4466 Q530.4545,587.0248 530.9232,586.0091 Q531.392,584.9779 532.2982,584.431 Q533.2045,583.8685 534.517,583.8685 Q535.142,583.8685 535.6107,583.9935 Q536.0951,584.1185 536.5795,584.3529 L536.0014,585.7904 Q535.5639,585.556 535.1732,585.4779 Q534.7982,585.3998 534.4545,585.3998 Q533.6264,585.3998 533.1264,585.7748 Q532.642,586.1341 532.4232,586.806 Q532.2201,587.4779 532.2201,588.3841 Q532.2201,589.7904 532.7201,590.4779 Q533.2357,591.1498 534.3607,591.1498 Q534.7826,591.1498 535.2201,591.0404 Q535.6576,590.931 536.2514,590.6654 L536.2514,592.2279 Q535.7357,592.4623 535.1732,592.5716 Q534.6107,592.681 534.0795,592.681 Z " fill="#CAD3F5"/><text fill="#A6DA95" font-family="Helvetica" font-size="16" lengthAdjust="spacing" textLength="115.2162" x="553.3607" y="594.264">ReaderTMonad</text><rect fill="#24273A" height="18.3441" style="stroke:#C6A0F6;stroke-width:1;stroke-dasharray:2,2;" width="87.3806" x="734.5177" y="569.16"/><text fill="#CAD3F5" font-family="Helvetica" font-size="12" font-style="italic" lengthAdjust="spacing" textLength="85.3806" x="735.5177" y="582.9881">F_OUTER, R_ENV</text><line style="stroke:#C6A0F6;stroke-width:2;" x1="463.42" x2="817.8983" y1="603.952" y2="603.952"/><rect fill="none" height="6" style="stroke:#C82930;stroke-width:1;" width="6" x="470.42" y="614.6241"/><text fill="#A6DA95" font-family="Helvetica" font-size="12" lengthAdjust="spacing" textLength="265.4539" x="481.42" y="620.7801">final @NonNull Monad&lt;F_OUTER&gt; outerMonad</text><line style="stroke:#C6A0F6;stroke-width:2;" x1="463.42" x2="817.8983" y1="628.2962" y2="628.2962"/><ellipse cx="473.42" cy="641.9682" fill="#84BE84" rx="3" ry="3" style="stroke:#038048;stroke-width:1;"/><text fill="#A6DA95" font-family="Helvetica" font-size="12" lengthAdjust="spacing" textLength="331.4783" x="481.42" y="645.1242">ReaderTMonad(@NonNull Monad&lt;F_OUTER&gt; outerMonad)</text></g><!--class ReaderTKindHelper--><g class="entity" data-entity="ReaderTKindHelper" data-source-line="33" data-uid="ent0011" id="entity_ReaderTKindHelper"><rect fill="#24273A" height="72.4803" rx="1.5" ry="1.5" style="stroke:#C6A0F6;stroke-width:2;" width="460.927" x="129.19" y="730.64"/><rect fill="#363A4F" height="31.792" rx="1.5" ry="1.5" style="stroke:#363A4F;stroke-width:2;" width="460.927" x="129.19" y="730.64"/><rect fill="#363A4F" height="1.5" style="stroke:#363A4F;stroke-width:2;" width="460.927" x="129.19" y="760.932"/><rect fill="none" height="72.4803" rx="1.5" ry="1.5" style="stroke:#C6A0F6;stroke-width:2;" width="460.927" x="129.19" y="730.64"/><ellipse cx="282.3733" cy="746.536" fill="#ADD1B2" rx="10" ry="10" style="stroke:#181818;stroke-width:1;"/><path d="M282.0921,751.161 Q280.8421,751.161 280.0452,750.6454 Q279.2483,750.1141 278.8577,749.161 Q278.4671,748.2079 278.4671,746.9266 Q278.4671,745.5048 278.9358,744.4891 Q279.4046,743.4579 280.3108,742.911 Q281.2171,742.3485 282.5296,742.3485 Q283.1546,742.3485 283.6233,742.4735 Q284.1077,742.5985 284.5921,742.8329 L284.014,744.2704 Q283.5765,744.036 283.1858,743.9579 Q282.8108,743.8798 282.4671,743.8798 Q281.639,743.8798 281.139,744.2548 Q280.6546,744.6141 280.4358,745.286 Q280.2327,745.9579 280.2327,746.8641 Q280.2327,748.2704 280.7327,748.9579 Q281.2483,749.6298 282.3733,749.6298 Q282.7952,749.6298 283.2327,749.5204 Q283.6702,749.411 284.264,749.1454 L284.264,750.7079 Q283.7483,750.9423 283.1858,751.0516 Q282.6233,751.161 282.0921,751.161 Z " fill="#CAD3F5"/><text fill="#A6DA95" font-family="Helvetica" font-size="16" lengthAdjust="spacing" textLength="146.5603" x="301.3733" y="752.744">ReaderTKindHelper</text><line style="stroke:#C6A0F6;stroke-width:2;" x1="130.19" x2="589.117" y1="762.432" y2="762.432"/><ellipse cx="140.19" cy="776.1041" fill="#84BE84" rx="3" ry="3" style="stroke:#038048;stroke-width:1;"/><text fill="#A6DA95" font-family="Helvetica" font-size="12" lengthAdjust="spacing" textLength="435.927" x="148.19" y="779.2601">static &lt;F, R, A&gt; ReaderT&lt;F, R, A&gt; narrow(Kind&lt;ReaderTKind.Witness&lt;F, R&gt;, A&gt;)</text><ellipse cx="140.19" cy="792.4482" fill="#84BE84" rx="3" ry="3" style="stroke:#038048;stroke-width:1;"/><text fill="#A6DA95" font-family="Helvetica" font-size="12" lengthAdjust="spacing" textLength="429.2671" x="148.19" y="795.6042">static &lt;F, R, A&gt; Kind&lt;ReaderTKind.Witness&lt;F, R&gt;, A&gt; widen(ReaderT&lt;F, R, A&gt;)</text></g><!--reverse link ReaderTKind to ReaderT--><g class="link" data-entity-1="ReaderTKind" data-entity-2="ReaderT" data-source-line="14" data-uid="lnk7" id="link_ReaderTKind_ReaderT"><path d="M353.3028,195.6272 C370.0028,213.0572 378.35,221.77 398.5,242.8" fill="none" id="ReaderTKind-backto-ReaderT" style="stroke:#F5BDE6;stroke-width:1;stroke-dasharray:7,7;"/><polygon fill="none" points="340.85,182.63,348.9704,199.7781,357.6352,191.4762,340.85,182.63" style="stroke:#F5BDE6;stroke-width:1;"/></g><!--reverse link Kind to ReaderTKind--><g class="link" data-entity-1="Kind" data-entity-2="ReaderTKind" data-source-line="23" data-uid="lnk8" id="link_Kind_ReaderTKind"><path d="M393.9808,56.396 C377.5408,73.066 363.28,87.52 341.52,109.58" fill="none" id="Kind-backto-ReaderTKind" style="stroke:#F5BDE6;stroke-width:1;"/><polygon fill="none" points="406.62,43.58,389.7088,52.183,398.2528,60.6091,406.62,43.58" style="stroke:#F5BDE6;stroke-width:1;"/></g><!--reverse link Monad to ReaderTMonad--><g class="link" data-entity-1="Monad" data-entity-2="ReaderTMonad" data-source-line="28" data-uid="lnk10" id="link_Monad_ReaderTMonad"><path d="M666.0245,509.8461 C654.7745,528.5561 650.85,545.66 643.24,571.68" fill="none" id="Monad-backto-ReaderTMonad" style="stroke:#F5BDE6;stroke-width:1;stroke-dasharray:7,7;"/><polygon fill="none" points="675.3,494.42,660.8825,506.7543,671.1666,512.938,675.3,494.42" style="stroke:#F5BDE6;stroke-width:1;"/></g><!--reverse link ReaderTMonad to Monad--><g class="link" data-entity-1="ReaderTMonad" data-entity-2="Monad" data-source-line="42" data-uid="lnk12" id="link_ReaderTMonad_Monad"><path codeLine="42" d="M672.4507,560.7308 C684.1207,534.7108 690.14,513.13 692.77,494.42" fill="none" id="ReaderTMonad-backto-Monad" style="stroke:#F5BDE6;stroke-width:1;"/><polygon fill="#F5BDE6" points="667.54,571.68,673.6451,567.8423,672.4507,560.7308,666.3456,564.5685,667.54,571.68" style="stroke:#F5BDE6;stroke-width:1;"/><text fill="#CAD3F5" font-family="Helvetica" font-size="12" lengthAdjust="spacing" textLength="184.6333" x="480.5404" y="515.002">outerMonad (Monad&lt;F_OUTER&gt;)</text></g><!--link ReaderTMonad to ReaderTKindHelper--><g class="link" data-entity-1="ReaderTMonad" data-entity-2="ReaderTKindHelper" data-source-line="43" data-uid="lnk13" id="link_ReaderTMonad_ReaderTKindHelper"><path codeLine="43" d="M567.56,653.06 C523.49,676.98 473.1035,704.3182 430.4635,727.4582" fill="none" id="ReaderTMonad-to-ReaderTKindHelper" style="stroke:#F5BDE6;stroke-width:1;stroke-dasharray:7,7;"/><polygon fill="#F5BDE6" points="425.19,730.32,435.0082,729.5429,429.5846,727.9351,431.1924,722.5116,425.19,730.32" style="stroke:#F5BDE6;stroke-width:1;"/><text fill="#CAD3F5" font-family="Helvetica" font-size="12" lengthAdjust="spacing" textLength="25.6802" x="509.58" y="696.4681">uses</text></g><!--link ReaderTMonad to ReaderT--><g class="link" data-entity-1="ReaderTMonad" data-entity-2="ReaderT" data-source-line="44" data-uid="lnk14" id="link_ReaderTMonad_ReaderT"><path codeLine="44" d="M569.92,571.92 C541.49,552.32 511.33,525.98 493.66,494.16 C478.21,466.35 472.5034,438.0896 470.7034,407.5796" fill="none" id="ReaderTMonad-to-ReaderT" style="stroke:#F5BDE6;stroke-width:1;stroke-dasharray:7,7;"/><polygon fill="#F5BDE6" points="470.35,401.59,466.887,410.81,470.6445,406.5813,474.8731,410.3388,470.35,401.59" style="stroke:#F5BDE6;stroke-width:1;"/><text fill="#CAD3F5" font-family="Helvetica" font-size="12" lengthAdjust="spacing" textLength="119.5089" x="494.66" y="483.0881">creates / operates on</text></g><!--link ReaderTKindHelper to ReaderT--><g class="link" data-entity-1="ReaderTKindHelper" data-entity-2="ReaderT" data-source-line="46" data-uid="lnk15" id="link_ReaderTKindHelper_ReaderT"><path codeLine="46" d="M366.75,730.47 C376.41,683.19 394.67,596.98 413.66,524.16 C424.26,483.48 435.75,444.346 447.1,407.356" fill="none" id="ReaderTKindHelper-to-ReaderT" style="stroke:#F5BDE6;stroke-width:1;stroke-dasharray:7,7;"/><polygon fill="#F5BDE6" points="448.86,401.62,442.3959,409.0507,447.3933,406.4,450.044,411.3974,448.86,401.62" style="stroke:#F5BDE6;stroke-width:1;"/><text fill="#CAD3F5" font-family="Helvetica" font-size="12" lengthAdjust="spacing" textLength="92.6647" x="414.66" y="537.9881">narrow() returns</text></g><!--link ReaderTKindHelper to ReaderTKind--><g class="link" data-entity-1="ReaderTKindHelper" data-entity-2="ReaderTKind" data-source-line="47" data-uid="lnk16" id="link_ReaderTKindHelper_ReaderTKind"><path codeLine="47" d="M297.4,730.27 C259.63,703.58 218.66,663.16 218.66,613.4 C218.66,321.27 218.66,321.27 218.66,321.27 C218.66,268.71 247.2911,220.6682 272.7411,187.1582" fill="none" id="ReaderTKindHelper-to-ReaderTKind" style="stroke:#F5BDE6;stroke-width:1;stroke-dasharray:7,7;"/><polygon fill="#F5BDE6" points="276.37,182.38,267.7412,187.128,273.3459,186.3618,274.1121,191.9665,276.37,182.38" style="stroke:#F5BDE6;stroke-width:1;"/><text fill="#CAD3F5" font-family="Helvetica" font-size="12" lengthAdjust="spacing" textLength="86.0046" x="219.66" y="483.0881">widen() returns</text></g><!--link ReaderT to Kind--><g class="link" data-entity-1="ReaderT" data-entity-2="Kind" data-source-line="50" data-uid="lnk17" id="link_ReaderT_Kind"><path codeLine="50" d="M460.8,242.81 C454.13,202.9 445.72,153.67 437.66,109.69 C433.42,86.61 429.2819,65.8204 425.9719,49.4904" fill="none" id="ReaderT-to-Kind" style="stroke:#F5BDE6;stroke-width:1;stroke-dasharray:7,7;"/><polygon fill="#F5BDE6" points="424.78,43.61,422.6476,53.2252,425.7733,48.5103,430.4882,51.636,424.78,43.61" style="stroke:#F5BDE6;stroke-width:1;"/><text fill="#CAD3F5" font-family="Helvetica" font-size="12" lengthAdjust="spacing" textLength="130.9809" x="445.7937" y="63.9216">run() returns Kind&lt;F,A&gt;</text></g><!--link ReaderT to Monad--><g class="link" data-entity-1="ReaderT" data-entity-2="Monad" data-source-line="51" data-uid="lnk18" id="link_ReaderT_Monad"><path codeLine="51" d="M583.87,401.84 C616.11,424.83 643.2038,444.1478 663.4238,458.5578" fill="none" id="ReaderT-to-Monad" style="stroke:#F5BDE6;stroke-width:1;stroke-dasharray:7,7;"/><polygon fill="#F5BDE6" points="668.31,462.04,663.3022,453.5593,664.2382,459.1382,658.6593,460.0742,668.31,462.04" style="stroke:#F5BDE6;stroke-width:1;"/><text fill="#CAD3F5" font-family="Helvetica" font-size="12" lengthAdjust="spacing" textLength="155.9891" x="480.733" y="450.9002">factories require Monad&lt;F&gt;</text></g><!--SRC=[ZLHBZzem4BxdLqovDBGakICKDOT5AssNbH2xlQo4lCPfh3fsweSeMkr_x-H570e53iWPVzytutbzuf8AjsDGM5kPUP9eiez_SbkuDsUOfafQ9crCLPb8gemb4QS99RQg7ALSHYMXjE34ggWIH5fNYiWMh6H9IRXCccDSeJK82evUM5dP0vIiV6FQ185Kbi5a2UmFUjaP-C6jPCPacjl3OdEeM7EAdoNHX_HLTjUBvMoT0X560IyhWIwaFU6sZ0aG0urXXOw2WEDZT4ueWmSkTulbzlvXCuDi-v9zJxtBHoL9Tvi6-0EWWXW3QqPsJ6_GFQoHbi9YeHbLUfUcVY0Th7NHGzzH1U0hV5ifkN92mD99QhcI2xpleHaAQISRQ1J1ab2hD6S6Fpew5i1o2eFkFp6fFBmWFRrPG_3SXbqMKb_ZTWdT63mHFwZpGgSgTOtDhwD4JVceYp4Kwcoc-rvgh1uY7he7fRsY94dVEtEuYE-HBqGuDeUi3sRK6NtZF3rlxke7REzMBwFMQ05ddOn9VMmHv5mICRJDo0LMss4k6bkNK3-Iy3ghhSDdUC99rIqCfzCM2XCOgdm69Qbca0jY7-i3gQPd7ru_vPw92ZNUEyNkinExkMzmRhNQXzUBTx4LRwZx7bUH34zzJvjH_sZ-_JJ25vp5oP0p2CVfd4wWhy285iVfcVpC0VUg-GyM4HIdn-BO9w2GqXoLzCBovCR4BdjJ73_hj3JNABKLQMq-1fRdga5FS2aDr_q-o72_riTJS7vSMvhzTbmV5shQ9mf_Vm40]--></g></svg>