<svg xmlns="http://www.w3.org/2000/svg" xmlns:xlink="http://www.w3.org/1999/xlink" contentStyleType="text/css" data-diagram-type="CLASS" height="995px" preserveAspectRatio="none" style="width:1579px;height:995px;background:#24273A;" version="1.1" viewBox="0 0 1579 995" width="1579px" zoomAndPan="magnify"><defs/><g><rect fill="#24273A" height="995" style="stroke:none;stroke-width:1;" width="1579" x="0" y="0"/><g class="entity" data-entity="ArityNote" data-source-line="6" data-uid="ent0002" id="entity_ArityNote"><path d="M28.62,716.436 L28.62,756.1243 A1.5,1.5 0 0 0 30.12,757.6243 L156.63,757.6243 L209.8,935.996 L164.63,757.6243 L279.8416,757.6243 A1.5,1.5 0 0 0 281.3416,756.1243 L281.3416,724.936 L271.3416,714.936 L30.12,714.936 A1.5,1.5 0 0 0 28.62,716.436" fill="#EED49F" style="stroke:#24273A;stroke-width:0.5;"/><path d="M271.3416,714.936 L271.3416,724.186 A0.75,0.75 0 0 0 272.0916,724.936 L281.3416,724.936 L271.3416,714.936" fill="#EED49F" style="stroke:#24273A;stroke-width:0.5;"/><text fill="#24273A" font-family="Helvetica" font-size="12" lengthAdjust="spacing" textLength="231.7216" x="34.62" y="732.7641">F extends WitnessArity&lt;TypeArity.Unary&gt;</text><text fill="#24273A" font-family="Helvetica" font-size="12" lengthAdjust="spacing" textLength="102.8288" x="34.62" y="749.1082">for all type classes</text></g><!--class Kind--><g class="entity" data-entity="Kind" data-source-line="8" data-uid="ent0003" id="entity_Kind"><rect fill="#24273A" height="31.792" rx="1.5" ry="1.5" style="stroke:#C6A0F6;stroke-width:2;" width="84.3082" x="171.82" y="936.236"/><rect fill="#363A4F" height="31.792" rx="1.5" ry="1.5" style="stroke:#363A4F;stroke-width:2;" width="84.3082" x="171.82" y="936.236"/><rect fill="#363A4F" height="1.5" style="stroke:#363A4F;stroke-width:2;" width="84.3082" x="171.82" y="966.5281"/><rect fill="none" height="31.792" rx="1.5" ry="1.5" style="stroke:#C6A0F6;stroke-width:2;" width="84.3082" x="171.82" y="936.236"/><ellipse cx="185.82" cy="952.132" fill="#B4A7E5" rx="10" ry="10" style="stroke:#181818;stroke-width:1;"/><path d="M183.3981,956.632 L183.3981,955.4289 L185.07,955.2414 L185.07,949.4602 L183.3981,949.257 L183.3981,948.0695 L188.445,948.0695 L188.445,949.257 L186.7419,949.4602 L186.7419,955.2414 L188.445,955.4289 L188.445,956.632 L183.3981,956.632 Z " fill="#CAD3F5"/><text fill="#A6DA95" font-family="Helvetica" font-size="16" font-style="italic" lengthAdjust="spacing" textLength="31.6481" x="198.82" y="958.3401">Kind</text><rect fill="#24273A" height="18.3441" style="stroke:#C6A0F6;stroke-width:1;stroke-dasharray:2,2;" width="20.6601" x="238.4681" y="933.236"/><text fill="#CAD3F5" font-family="Helvetica" font-size="12" font-style="italic" lengthAdjust="spacing" textLength="18.6601" x="239.4681" y="947.0641">F, A</text></g><!--class Functor--><g class="entity" data-entity="Functor" data-source-line="9" data-uid="ent0004" id="entity_Functor"><rect fill="#24273A" height="31.792" rx="1.5" ry="1.5" style="stroke:#C6A0F6;stroke-width:2;" width="93.8202" x="1281.07" y="10.016"/><rect fill="#363A4F" height="31.792" rx="1.5" ry="1.5" style="stroke:#363A4F;stroke-width:2;" width="93.8202" x="1281.07" y="10.016"/><rect fill="#363A4F" height="1.5" style="stroke:#363A4F;stroke-width:2;" width="93.8202" x="1281.07" y="40.3081"/><rect fill="none" height="31.792" rx="1.5" ry="1.5" style="stroke:#C6A0F6;stroke-width:2;" width="93.8202" x="1281.07" y="10.016"/><ellipse cx="1295.07" cy="25.912" fill="#B4A7E5" rx="10" ry="10" style="stroke:#181818;stroke-width:1;"/><path d="M1292.6481,30.412 L1292.6481,29.2089 L1294.32,29.0214 L1294.32,23.2402 L1292.6481,23.037 L1292.6481,21.8495 L1297.695,21.8495 L1297.695,23.037 L1295.9919,23.2402 L1295.9919,29.0214 L1297.695,29.2089 L1297.695,30.412 L1292.6481,30.412 Z " fill="#CAD3F5"/><text fill="#A6DA95" font-family="Helvetica" font-size="16" font-style="italic" lengthAdjust="spacing" textLength="54.0961" x="1308.07" y="32.1201">Functor</text><rect fill="#24273A" height="18.3441" style="stroke:#C6A0F6;stroke-width:1;stroke-dasharray:2,2;" width="7.724" x="1370.1661" y="7.016"/><text fill="#CAD3F5" font-family="Helvetica" font-size="12" font-style="italic" lengthAdjust="spacing" textLength="5.724" x="1371.1661" y="20.8441">F</text></g><!--class Applicative--><g class="entity" data-entity="Applicative" data-source-line="10" data-uid="ent0005" id="entity_Applicative"><rect fill="#24273A" height="31.792" rx="1.5" ry="1.5" style="stroke:#C6A0F6;stroke-width:2;" width="116.7322" x="935.61" y="114.986"/><rect fill="#363A4F" height="31.792" rx="1.5" ry="1.5" style="stroke:#363A4F;stroke-width:2;" width="116.7322" x="935.61" y="114.986"/><rect fill="#363A4F" height="1.5" style="stroke:#363A4F;stroke-width:2;" width="116.7322" x="935.61" y="145.2781"/><rect fill="none" height="31.792" rx="1.5" ry="1.5" style="stroke:#C6A0F6;stroke-width:2;" width="116.7322" x="935.61" y="114.986"/><ellipse cx="949.61" cy="130.882" fill="#B4A7E5" rx="10" ry="10" style="stroke:#181818;stroke-width:1;"/><path d="M947.1881,135.382 L947.1881,134.1789 L948.86,133.9914 L948.86,128.2102 L947.1881,128.007 L947.1881,126.8195 L952.235,126.8195 L952.235,128.007 L950.5319,128.2102 L950.5319,133.9914 L952.235,134.1789 L952.235,135.382 L947.1881,135.382 Z " fill="#CAD3F5"/><text fill="#A6DA95" font-family="Helvetica" font-size="16" font-style="italic" lengthAdjust="spacing" textLength="77.0081" x="962.61" y="137.0901">Applicative</text><rect fill="#24273A" height="18.3441" style="stroke:#C6A0F6;stroke-width:1;stroke-dasharray:2,2;" width="7.724" x="1047.6181" y="111.986"/><text fill="#CAD3F5" font-family="Helvetica" font-size="12" font-style="italic" lengthAdjust="spacing" textLength="5.724" x="1048.6181" y="125.8141">F</text></g><!--class Monad--><g class="entity" data-entity="Monad" data-source-line="11" data-uid="ent0006" id="entity_Monad"><rect fill="#24273A" height="31.792" rx="1.5" ry="1.5" style="stroke:#C6A0F6;stroke-width:2;" width="89.8041" x="652.08" y="240.296"/><rect fill="#363A4F" height="31.792" rx="1.5" ry="1.5" style="stroke:#363A4F;stroke-width:2;" width="89.8041" x="652.08" y="240.296"/><rect fill="#363A4F" height="1.5" style="stroke:#363A4F;stroke-width:2;" width="89.8041" x="652.08" y="270.5881"/><rect fill="none" height="31.792" rx="1.5" ry="1.5" style="stroke:#C6A0F6;stroke-width:2;" width="89.8041" x="652.08" y="240.296"/><ellipse cx="666.08" cy="256.192" fill="#B4A7E5" rx="10" ry="10" style="stroke:#181818;stroke-width:1;"/><path d="M663.6581,260.692 L663.6581,259.4889 L665.33,259.3014 L665.33,253.5202 L663.6581,253.317 L663.6581,252.1295 L668.705,252.1295 L668.705,253.317 L667.0019,253.5202 L667.0019,259.3014 L668.705,259.4889 L668.705,260.692 L663.6581,260.692 Z " fill="#CAD3F5"/><text fill="#A6DA95" font-family="Helvetica" font-size="16" font-style="italic" lengthAdjust="spacing" textLength="50.0801" x="679.08" y="262.4001">Monad</text><rect fill="#24273A" height="18.3441" style="stroke:#C6A0F6;stroke-width:1;stroke-dasharray:2,2;" width="7.724" x="737.1601" y="237.296"/><text fill="#CAD3F5" font-family="Helvetica" font-size="12" font-style="italic" lengthAdjust="spacing" textLength="5.724" x="738.1601" y="251.1241">F</text></g><!--class State--><g class="entity" data-entity="State" data-source-line="17" data-uid="ent0008" id="entity_State"><rect fill="#24273A" height="203.2332" rx="1.5" ry="1.5" style="stroke:#C6A0F6;stroke-width:2;" width="307.6019" x="502.18" y="634.666"/><rect fill="#363A4F" height="48.1362" rx="1.5" ry="1.5" style="stroke:#363A4F;stroke-width:2;" width="307.6019" x="502.18" y="634.666"/><rect fill="#363A4F" height="1.5" style="stroke:#363A4F;stroke-width:2;" width="307.6019" x="502.18" y="681.3022"/><rect fill="none" height="203.2332" rx="1.5" ry="1.5" style="stroke:#C6A0F6;stroke-width:2;" width="307.6019" x="502.18" y="634.666"/><ellipse cx="583.5025" cy="658.7341" fill="#B4A7E5" rx="10" ry="10" style="stroke:#181818;stroke-width:1;"/><path d="M581.0806,663.2341 L581.0806,662.031 L582.7525,661.8435 L582.7525,656.0622 L581.0806,655.8591 L581.0806,654.6716 L586.1275,654.6716 L586.1275,655.8591 L584.4244,656.0622 L584.4244,661.8435 L586.1275,662.031 L586.1275,663.2341 L581.0806,663.2341 Z " fill="#CAD3F5"/><text fill="#CAD3F5" font-family="Helvetica" font-size="12" font-style="italic" lengthAdjust="spacing" textLength="117.9608" x="600.5025" y="652.4941">&#171;Functional Interface&#187;</text><text fill="#A6DA95" font-family="Helvetica" font-size="16" font-style="italic" lengthAdjust="spacing" textLength="35.7761" x="641.5949" y="673.1142">State</text><rect fill="#24273A" height="18.3441" style="stroke:#C6A0F6;stroke-width:1;stroke-dasharray:2,2;" width="20.9961" x="791.7858" y="631.666"/><text fill="#CAD3F5" font-family="Helvetica" font-size="12" font-style="italic" lengthAdjust="spacing" textLength="18.9961" x="792.7858" y="645.4941">S, A</text><line style="stroke:#C6A0F6;stroke-width:2;" x1="503.18" x2="808.7819" y1="682.8022" y2="682.8022"/><ellipse cx="513.18" cy="696.4742" fill="#84BE84" rx="3" ry="3" style="stroke:#038048;stroke-width:1;"/><text fill="#A6DA95" font-family="Helvetica" font-size="12" lengthAdjust="spacing" textLength="193.8373" x="521.18" y="699.6303">StateTuple&lt;S, A&gt; run(S initialState)</text><ellipse cx="513.18" cy="712.8184" fill="#84BE84" rx="3" ry="3" style="stroke:#038048;stroke-width:1;"/><text fill="#A6DA95" font-family="Helvetica" font-size="12" lengthAdjust="spacing" text-decoration="underline" textLength="282.6019" x="521.18" y="715.9744">State&lt;S, A&gt; of(Function&lt;S, StateTuple&lt;S, A&gt;&gt; func)</text><ellipse cx="513.18" cy="729.1625" fill="#84BE84" rx="3" ry="3" style="stroke:#038048;stroke-width:1;"/><text fill="#A6DA95" font-family="Helvetica" font-size="12" lengthAdjust="spacing" text-decoration="underline" textLength="140.809" x="521.18" y="732.3185">State&lt;S, A&gt; pure(A value)</text><ellipse cx="513.18" cy="745.5066" fill="#84BE84" rx="3" ry="3" style="stroke:#038048;stroke-width:1;"/><text fill="#A6DA95" font-family="Helvetica" font-size="12" lengthAdjust="spacing" text-decoration="underline" textLength="90.7926" x="521.18" y="748.6626">State&lt;S, S&gt; get()</text><ellipse cx="513.18" cy="761.8507" fill="#84BE84" rx="3" ry="3" style="stroke:#038048;stroke-width:1;"/><text fill="#A6DA95" font-family="Helvetica" font-size="12" lengthAdjust="spacing" text-decoration="underline" textLength="168.2652" x="521.18" y="765.0067">State&lt;S, Unit&gt; set(S newState)</text><ellipse cx="513.18" cy="778.1948" fill="#84BE84" rx="3" ry="3" style="stroke:#038048;stroke-width:1;"/><text fill="#A6DA95" font-family="Helvetica" font-size="12" lengthAdjust="spacing" text-decoration="underline" textLength="217.9575" x="521.18" y="781.3508">State&lt;S, Unit&gt; modify(Function&lt;S, S&gt; f)</text><ellipse cx="513.18" cy="794.5389" fill="#84BE84" rx="3" ry="3" style="stroke:#038048;stroke-width:1;"/><text fill="#A6DA95" font-family="Helvetica" font-size="12" lengthAdjust="spacing" text-decoration="underline" textLength="204.3854" x="521.18" y="797.695">State&lt;S, A&gt; inspect(Function&lt;S, A&gt; f)</text><ellipse cx="513.18" cy="810.883" fill="#84BE84" rx="3" ry="3" style="stroke:#038048;stroke-width:1;"/><text fill="#A6DA95" font-family="Helvetica" font-size="12" lengthAdjust="spacing" textLength="190.5613" x="521.18" y="814.0391">State&lt;S, B&gt; map(Function&lt;A, B&gt; f)</text><ellipse cx="513.18" cy="827.2272" fill="#84BE84" rx="3" ry="3" style="stroke:#038048;stroke-width:1;"/><text fill="#A6DA95" font-family="Helvetica" font-size="12" lengthAdjust="spacing" textLength="263.9178" x="521.18" y="830.3832">State&lt;S, B&gt; flatMap(Function&lt;A, State&lt;S, B&gt;&gt; f)</text></g><!--class StateTuple--><g class="entity" data-entity="StateTuple" data-source-line="28" data-uid="ent0009" id="entity_StateTuple"><rect fill="#24273A" height="72.4803" rx="1.5" ry="1.5" style="stroke:#C6A0F6;stroke-width:2;" width="177.1371" x="567.41" y="915.896"/><rect fill="#363A4F" height="48.1362" rx="1.5" ry="1.5" style="stroke:#363A4F;stroke-width:2;" width="177.1371" x="567.41" y="915.896"/><rect fill="#363A4F" height="1.5" style="stroke:#363A4F;stroke-width:2;" width="177.1371" x="567.41" y="962.5322"/><rect fill="none" height="72.4803" rx="1.5" ry="1.5" style="stroke:#C6A0F6;stroke-width:2;" width="177.1371" x="567.41" y="915.896"/><ellipse cx="601.2229" cy="939.9641" fill="#ADD1B2" rx="10" ry="10" style="stroke:#181818;stroke-width:1;"/><path d="M600.9417,944.5891 Q599.6917,944.5891 598.8948,944.0735 Q598.0979,943.5422 597.7073,942.5891 Q597.3167,941.636 597.3167,940.3547 Q597.3167,938.9329 597.7854,937.9172 Q598.2542,936.886 599.1604,936.3391 Q600.0667,935.7766 601.3792,935.7766 Q602.0042,935.7766 602.4729,935.9016 Q602.9573,936.0266 603.4417,936.261 L602.8636,937.6985 Q602.4261,937.4641 602.0354,937.386 Q601.6604,937.3079 601.3167,937.3079 Q600.4886,937.3079 599.9886,937.6829 Q599.5042,938.0422 599.2854,938.7141 Q599.0823,939.386 599.0823,940.2922 Q599.0823,941.6985 599.5823,942.386 Q600.0979,943.0579 601.2229,943.0579 Q601.6448,943.0579 602.0823,942.9485 Q602.5198,942.8391 603.1136,942.5735 L603.1136,944.136 Q602.5979,944.3704 602.0354,944.4797 Q601.4729,944.5891 600.9417,944.5891 Z " fill="#CAD3F5"/><text fill="#CAD3F5" font-family="Helvetica" font-size="12" font-style="italic" lengthAdjust="spacing" textLength="46.1283" x="635.6177" y="933.7241">&#171;record&#187;</text><text fill="#A6DA95" font-family="Helvetica" font-size="16" lengthAdjust="spacing" textLength="80.1122" x="618.6258" y="954.3442">StateTuple</text><rect fill="#24273A" height="18.3441" style="stroke:#C6A0F6;stroke-width:1;stroke-dasharray:2,2;" width="20.9961" x="726.5509" y="912.896"/><text fill="#CAD3F5" font-family="Helvetica" font-size="12" font-style="italic" lengthAdjust="spacing" textLength="18.9961" x="727.5509" y="926.7241">S, A</text><line style="stroke:#C6A0F6;stroke-width:2;" x1="568.41" x2="743.5471" y1="964.0322" y2="964.0322"/><ellipse cx="578.41" cy="977.7042" fill="#84BE84" rx="3" ry="3" style="stroke:#038048;stroke-width:1;"/><text fill="#A6DA95" font-family="Helvetica" font-size="12" lengthAdjust="spacing" textLength="152.1371" x="586.41" y="980.8603">StateTuple(A value, S state)</text></g><!--class StateKindHelper--><g class="entity" data-entity="StateKindHelper" data-source-line="35" data-uid="ent0011" id="entity_StateKindHelper"><rect fill="#24273A" height="203.2332" rx="1.5" ry="1.5" style="stroke:#C6A0F6;stroke-width:2;" width="435.9548" x="7" y="353.426"/><rect fill="#363A4F" height="31.792" rx="1.5" ry="1.5" style="stroke:#363A4F;stroke-width:2;" width="435.9548" x="7" y="353.426"/><rect fill="#363A4F" height="1.5" style="stroke:#363A4F;stroke-width:2;" width="435.9548" x="7" y="383.7181"/><rect fill="none" height="203.2332" rx="1.5" ry="1.5" style="stroke:#C6A0F6;stroke-width:2;" width="435.9548" x="7" y="353.426"/><ellipse cx="159.6893" cy="369.322" fill="#ADD1B2" rx="10" ry="10" style="stroke:#181818;stroke-width:1;"/><path d="M159.408,373.947 Q158.158,373.947 157.3612,373.4314 Q156.5643,372.9002 156.1737,371.947 Q155.783,370.9939 155.783,369.7127 Q155.783,368.2908 156.2518,367.2752 Q156.7205,366.2439 157.6268,365.697 Q158.533,365.1345 159.8455,365.1345 Q160.4705,365.1345 160.9393,365.2595 Q161.4237,365.3845 161.908,365.6189 L161.3299,367.0564 Q160.8924,366.822 160.5018,366.7439 Q160.1268,366.6658 159.783,366.6658 Q158.9549,366.6658 158.4549,367.0408 Q157.9705,367.4002 157.7518,368.072 Q157.5487,368.7439 157.5487,369.6502 Q157.5487,371.0564 158.0487,371.7439 Q158.5643,372.4158 159.6893,372.4158 Q160.1112,372.4158 160.5487,372.3064 Q160.9862,372.197 161.5799,371.9314 L161.5799,373.4939 Q161.0643,373.7283 160.5018,373.8377 Q159.9393,373.947 159.408,373.947 Z " fill="#CAD3F5"/><text fill="#A6DA95" font-family="Helvetica" font-size="16" lengthAdjust="spacing" textLength="122.5762" x="178.6893" y="375.5301">StateKindHelper</text><line style="stroke:#C6A0F6;stroke-width:2;" x1="8" x2="441.9548" y1="385.2181" y2="385.2181"/><ellipse cx="18" cy="398.8901" fill="#84BE84" rx="3" ry="3" style="stroke:#038048;stroke-width:1;"/><text fill="#A6DA95" font-family="Helvetica" font-size="12" lengthAdjust="spacing" text-decoration="underline" textLength="244.2857" x="26" y="402.0462">State&lt;S, A&gt; narrow(Kind&lt;StateKind.Witness</text><text fill="#A6DA95" font-family="Helvetica" font-size="12" lengthAdjust="spacing" text-decoration="underline" textLength="51.8884" x="270.2857" y="402.0462">, A&gt; kind)</text><ellipse cx="18" cy="415.2342" fill="#84BE84" rx="3" ry="3" style="stroke:#038048;stroke-width:1;"/><text fill="#A6DA95" font-family="Helvetica" font-size="12" lengthAdjust="spacing" text-decoration="underline" textLength="133.7409" x="26" y="418.3903">Kind&lt;StateKind.Witness</text><text fill="#A6DA95" font-family="Helvetica" font-size="12" lengthAdjust="spacing" text-decoration="underline" textLength="159.3851" x="159.7409" y="418.3903">, A&gt; widen(State&lt;S, A&gt; state)</text><ellipse cx="18" cy="431.5784" fill="#84BE84" rx="3" ry="3" style="stroke:#038048;stroke-width:1;"/><text fill="#A6DA95" font-family="Helvetica" font-size="12" lengthAdjust="spacing" text-decoration="underline" textLength="133.7409" x="26" y="434.7344">Kind&lt;StateKind.Witness</text><text fill="#A6DA95" font-family="Helvetica" font-size="12" lengthAdjust="spacing" text-decoration="underline" textLength="98.6047" x="159.7409" y="434.7344">, A&gt; pure(A value)</text><ellipse cx="18" cy="447.9225" fill="#84BE84" rx="3" ry="3" style="stroke:#038048;stroke-width:1;"/><text fill="#A6DA95" font-family="Helvetica" font-size="12" lengthAdjust="spacing" text-decoration="underline" textLength="133.7409" x="26" y="451.0785">Kind&lt;StateKind.Witness</text><text fill="#A6DA95" font-family="Helvetica" font-size="12" lengthAdjust="spacing" text-decoration="underline" textLength="48.5883" x="159.7409" y="451.0785">, S&gt; get()</text><ellipse cx="18" cy="464.2666" fill="#84BE84" rx="3" ry="3" style="stroke:#038048;stroke-width:1;"/><text fill="#A6DA95" font-family="Helvetica" font-size="12" lengthAdjust="spacing" text-decoration="underline" textLength="133.7409" x="26" y="467.4226">Kind&lt;StateKind.Witness</text><text fill="#A6DA95" font-family="Helvetica" font-size="12" lengthAdjust="spacing" text-decoration="underline" textLength="126.0609" x="159.7409" y="467.4226">, Unit&gt; set(S newState)</text><ellipse cx="18" cy="480.6107" fill="#84BE84" rx="3" ry="3" style="stroke:#038048;stroke-width:1;"/><text fill="#A6DA95" font-family="Helvetica" font-size="12" lengthAdjust="spacing" text-decoration="underline" textLength="133.7409" x="26" y="483.7667">Kind&lt;StateKind.Witness</text><text fill="#A6DA95" font-family="Helvetica" font-size="12" lengthAdjust="spacing" text-decoration="underline" textLength="175.7532" x="159.7409" y="483.7667">, Unit&gt; modify(Function&lt;S, S&gt; f)</text><ellipse cx="18" cy="496.9548" fill="#84BE84" rx="3" ry="3" style="stroke:#038048;stroke-width:1;"/><text fill="#A6DA95" font-family="Helvetica" font-size="12" lengthAdjust="spacing" text-decoration="underline" textLength="133.7409" x="26" y="500.1108">Kind&lt;StateKind.Witness</text><text fill="#A6DA95" font-family="Helvetica" font-size="12" lengthAdjust="spacing" text-decoration="underline" textLength="162.1811" x="159.7409" y="500.1108">, A&gt; inspect(Function&lt;S, A&gt; f)</text><ellipse cx="18" cy="513.2989" fill="#84BE84" rx="3" ry="3" style="stroke:#038048;stroke-width:1;"/><text fill="#A6DA95" font-family="Helvetica" font-size="12" lengthAdjust="spacing" text-decoration="underline" textLength="283.4059" x="26" y="516.455">StateTuple&lt;S, A&gt; runState(Kind&lt;StateKind.Witness</text><text fill="#A6DA95" font-family="Helvetica" font-size="12" lengthAdjust="spacing" text-decoration="underline" textLength="127.5489" x="309.4059" y="516.455">, A&gt; kind, S initialState)</text><ellipse cx="18" cy="529.643" fill="#84BE84" rx="3" ry="3" style="stroke:#038048;stroke-width:1;"/><text fill="#A6DA95" font-family="Helvetica" font-size="12" lengthAdjust="spacing" text-decoration="underline" textLength="199.5734" x="26" y="532.7991">A evalState(Kind&lt;StateKind.Witness</text><text fill="#A6DA95" font-family="Helvetica" font-size="12" lengthAdjust="spacing" text-decoration="underline" textLength="127.5489" x="225.5734" y="532.7991">, A&gt; kind, S initialState)</text><ellipse cx="18" cy="545.9872" fill="#84BE84" rx="3" ry="3" style="stroke:#038048;stroke-width:1;"/><text fill="#A6DA95" font-family="Helvetica" font-size="12" lengthAdjust="spacing" text-decoration="underline" textLength="201.4454" x="26" y="549.1432">S execState(Kind&lt;StateKind.Witness</text><text fill="#A6DA95" font-family="Helvetica" font-size="12" lengthAdjust="spacing" text-decoration="underline" textLength="127.5489" x="227.4454" y="549.1432">, A&gt; kind, S initialState)</text></g><!--class StateFunctor--><g class="entity" data-entity="StateFunctor" data-source-line="48" data-uid="ent0012" id="entity_StateFunctor"><rect fill="#24273A" height="56.1362" rx="1.5" ry="1.5" style="stroke:#C6A0F6;stroke-width:2;" width="482.0232" x="1086.97" y="102.816"/><rect fill="#363A4F" height="31.792" rx="1.5" ry="1.5" style="stroke:#363A4F;stroke-width:2;" width="482.0232" x="1086.97" y="102.816"/><rect fill="#363A4F" height="1.5" style="stroke:#363A4F;stroke-width:2;" width="482.0232" x="1086.97" y="133.1081"/><rect fill="none" height="56.1362" rx="1.5" ry="1.5" style="stroke:#C6A0F6;stroke-width:2;" width="482.0232" x="1086.97" y="102.816"/><ellipse cx="1270.8715" cy="118.712" fill="#ADD1B2" rx="10" ry="10" style="stroke:#181818;stroke-width:1;"/><path d="M1270.5902,123.337 Q1269.3402,123.337 1268.5433,122.8214 Q1267.7465,122.2902 1267.3558,121.337 Q1266.9652,120.3839 1266.9652,119.1027 Q1266.9652,117.6808 1267.434,116.6652 Q1267.9027,115.6339 1268.809,115.087 Q1269.7152,114.5245 1271.0277,114.5245 Q1271.6527,114.5245 1272.1215,114.6495 Q1272.6058,114.7745 1273.0902,115.0089 L1272.5121,116.4464 Q1272.0746,116.212 1271.684,116.1339 Q1271.309,116.0558 1270.9652,116.0558 Q1270.1371,116.0558 1269.6371,116.4308 Q1269.1527,116.7902 1268.934,117.462 Q1268.7308,118.1339 1268.7308,119.0402 Q1268.7308,120.4464 1269.2308,121.1339 Q1269.7465,121.8058 1270.8715,121.8058 Q1271.2933,121.8058 1271.7308,121.6964 Q1272.1683,121.587 1272.7621,121.3214 L1272.7621,122.8839 Q1272.2465,123.1183 1271.684,123.2277 Q1271.1215,123.337 1270.5902,123.337 Z " fill="#CAD3F5"/><text fill="#A6DA95" font-family="Helvetica" font-size="16" lengthAdjust="spacing" textLength="96.1602" x="1289.8715" y="124.9201">StateFunctor</text><rect fill="#24273A" height="18.3441" style="stroke:#C6A0F6;stroke-width:1;stroke-dasharray:2,2;" width="8.06" x="1563.9332" y="99.816"/><text fill="#CAD3F5" font-family="Helvetica" font-size="12" font-style="italic" lengthAdjust="spacing" textLength="6.06" x="1564.9332" y="113.6441">S</text><line style="stroke:#C6A0F6;stroke-width:2;" x1="1087.97" x2="1567.9932" y1="134.6081" y2="134.6081"/><ellipse cx="1097.97" cy="148.2801" fill="#84BE84" rx="3" ry="3" style="stroke:#038048;stroke-width:1;"/><text fill="#A6DA95" font-family="Helvetica" font-size="12" lengthAdjust="spacing" textLength="133.7409" x="1105.97" y="151.4362">Kind&lt;StateKind.Witness</text><text fill="#A6DA95" font-family="Helvetica" font-size="12" lengthAdjust="spacing" text-decoration="line-through" textLength="284.834" x="1239.7109" y="151.4362">, B&gt; map(Function&lt;A, B&gt; f, Kind&lt;StateKind.Witness</text><text fill="#A6DA95" font-family="Helvetica" font-size="12" lengthAdjust="spacing" text-decoration="line-through" textLength="38.4483" x="1524.5449" y="151.4362">, A&gt; fa)</text></g><!--class StateApplicative--><g class="entity" data-entity="StateApplicative" data-source-line="51" data-uid="ent0014" id="entity_StateApplicative"><rect fill="#24273A" height="72.4803" rx="1.5" ry="1.5" style="stroke:#C6A0F6;stroke-width:2;" width="621.8722" x="777.04" y="219.946"/><rect fill="#363A4F" height="31.792" rx="1.5" ry="1.5" style="stroke:#363A4F;stroke-width:2;" width="621.8722" x="777.04" y="219.946"/><rect fill="#363A4F" height="1.5" style="stroke:#363A4F;stroke-width:2;" width="621.8722" x="777.04" y="250.2381"/><rect fill="none" height="72.4803" rx="1.5" ry="1.5" style="stroke:#C6A0F6;stroke-width:2;" width="621.8722" x="777.04" y="219.946"/><ellipse cx="1018.8419" cy="235.842" fill="#ADD1B2" rx="10" ry="10" style="stroke:#181818;stroke-width:1;"/><path d="M1018.5607,240.467 Q1017.3107,240.467 1016.5138,239.9514 Q1015.7169,239.4202 1015.3263,238.467 Q1014.9357,237.5139 1014.9357,236.2327 Q1014.9357,234.8108 1015.4044,233.7952 Q1015.8732,232.7639 1016.7794,232.217 Q1017.6857,231.6545 1018.9982,231.6545 Q1019.6232,231.6545 1020.0919,231.7795 Q1020.5763,231.9045 1021.0607,232.1389 L1020.4826,233.5764 Q1020.0451,233.342 1019.6544,233.2639 Q1019.2794,233.1858 1018.9357,233.1858 Q1018.1076,233.1858 1017.6076,233.5608 Q1017.1232,233.9202 1016.9044,234.592 Q1016.7013,235.2639 1016.7013,236.1702 Q1016.7013,237.5764 1017.2013,238.2639 Q1017.7169,238.9358 1018.8419,238.9358 Q1019.2638,238.9358 1019.7013,238.8264 Q1020.1388,238.717 1020.7326,238.4514 L1020.7326,240.0139 Q1020.2169,240.2483 1019.6544,240.3577 Q1019.0919,240.467 1018.5607,240.467 Z " fill="#CAD3F5"/><text fill="#A6DA95" font-family="Helvetica" font-size="16" lengthAdjust="spacing" textLength="120.2083" x="1037.8419" y="242.0501">StateApplicative</text><rect fill="#24273A" height="18.3441" style="stroke:#C6A0F6;stroke-width:1;stroke-dasharray:2,2;" width="8.06" x="1393.8521" y="216.946"/><text fill="#CAD3F5" font-family="Helvetica" font-size="12" font-style="italic" lengthAdjust="spacing" textLength="6.06" x="1394.8521" y="230.7741">S</text><line style="stroke:#C6A0F6;stroke-width:2;" x1="778.04" x2="1397.9122" y1="251.7381" y2="251.7381"/><ellipse cx="788.04" cy="265.4101" fill="#84BE84" rx="3" ry="3" style="stroke:#038048;stroke-width:1;"/><text fill="#A6DA95" font-family="Helvetica" font-size="12" lengthAdjust="spacing" textLength="133.7409" x="796.04" y="268.5662">Kind&lt;StateKind.Witness</text><text fill="#A6DA95" font-family="Helvetica" font-size="12" lengthAdjust="spacing" text-decoration="line-through" textLength="83.4726" x="929.7809" y="268.5662">, A&gt; of(A value)</text><ellipse cx="788.04" cy="281.7542" fill="#84BE84" rx="3" ry="3" style="stroke:#038048;stroke-width:1;"/><text fill="#A6DA95" font-family="Helvetica" font-size="12" lengthAdjust="spacing" textLength="133.7409" x="796.04" y="284.9103">Kind&lt;StateKind.Witness</text><text fill="#A6DA95" font-family="Helvetica" font-size="12" lengthAdjust="spacing" text-decoration="line-through" textLength="175.5732" x="929.7809" y="284.9103">, B&gt; ap(Kind&lt;StateKind.Witness</text><text fill="#A6DA95" font-family="Helvetica" font-size="12" lengthAdjust="spacing" text-decoration="line-through" textLength="249.1097" x="1105.3541" y="284.9103">, Function&lt;A, B&gt;&gt; ff, Kind&lt;StateKind.Witness</text><text fill="#A6DA95" font-family="Helvetica" font-size="12" lengthAdjust="spacing" text-decoration="line-through" textLength="38.4483" x="1354.4639" y="284.9103">, A&gt; fa)</text></g><!--class StateMonad--><g class="entity" data-entity="StateMonad" data-source-line="55" data-uid="ent0017" id="entity_StateMonad"><rect fill="#24273A" height="56.1362" rx="1.5" ry="1.5" style="stroke:#C6A0F6;stroke-width:2;" width="654.0084" x="477.97" y="426.976"/><rect fill="#363A4F" height="31.792" rx="1.5" ry="1.5" style="stroke:#363A4F;stroke-width:2;" width="654.0084" x="477.97" y="426.976"/><rect fill="#363A4F" height="1.5" style="stroke:#363A4F;stroke-width:2;" width="654.0084" x="477.97" y="457.2681"/><rect fill="none" height="56.1362" rx="1.5" ry="1.5" style="stroke:#C6A0F6;stroke-width:2;" width="654.0084" x="477.97" y="426.976"/><ellipse cx="750.3281" cy="442.872" fill="#ADD1B2" rx="10" ry="10" style="stroke:#181818;stroke-width:1;"/><path d="M750.0468,447.497 Q748.7968,447.497 748,446.9814 Q747.2031,446.4502 746.8125,445.497 Q746.4218,444.5439 746.4218,443.2627 Q746.4218,441.8408 746.8906,440.8252 Q747.3593,439.7939 748.2656,439.247 Q749.1718,438.6845 750.4843,438.6845 Q751.1093,438.6845 751.5781,438.8095 Q752.0625,438.9345 752.5468,439.1689 L751.9687,440.6064 Q751.5312,440.372 751.1406,440.2939 Q750.7656,440.2158 750.4218,440.2158 Q749.5937,440.2158 749.0937,440.5908 Q748.6093,440.9502 748.3906,441.622 Q748.1875,442.2939 748.1875,443.2002 Q748.1875,444.6064 748.6875,445.2939 Q749.2031,445.9658 750.3281,445.9658 Q750.75,445.9658 751.1875,445.8564 Q751.625,445.747 752.2187,445.4814 L752.2187,447.0439 Q751.7031,447.2783 751.1406,447.3877 Q750.5781,447.497 750.0468,447.497 Z " fill="#CAD3F5"/><text fill="#A6DA95" font-family="Helvetica" font-size="16" lengthAdjust="spacing" textLength="91.2322" x="769.3281" y="449.0801">StateMonad</text><rect fill="#24273A" height="18.3441" style="stroke:#C6A0F6;stroke-width:1;stroke-dasharray:2,2;" width="8.06" x="1126.9183" y="423.976"/><text fill="#CAD3F5" font-family="Helvetica" font-size="12" font-style="italic" lengthAdjust="spacing" textLength="6.06" x="1127.9183" y="437.8041">S</text><line style="stroke:#C6A0F6;stroke-width:2;" x1="478.97" x2="1130.9784" y1="458.7681" y2="458.7681"/><ellipse cx="488.97" cy="472.4401" fill="#84BE84" rx="3" ry="3" style="stroke:#038048;stroke-width:1;"/><text fill="#A6DA95" font-family="Helvetica" font-size="12" lengthAdjust="spacing" textLength="133.7409" x="496.97" y="475.5962">Kind&lt;StateKind.Witness</text><text fill="#A6DA95" font-family="Helvetica" font-size="12" lengthAdjust="spacing" text-decoration="line-through" textLength="274.5379" x="630.7109" y="475.5962">, B&gt; flatMap(Function&lt;A, Kind&lt;StateKind.Witness</text><text fill="#A6DA95" font-family="Helvetica" font-size="12" lengthAdjust="spacing" text-decoration="line-through" textLength="175.1892" x="905.2488" y="475.5962">, B&gt;&gt; f, Kind&lt;StateKind.Witness</text><text fill="#A6DA95" font-family="Helvetica" font-size="12" lengthAdjust="spacing" text-decoration="line-through" textLength="45.5403" x="1080.4381" y="475.5962">, A&gt; ma)</text></g><!--class StateKind<S, A>--><g class="entity" data-entity="StateKind.S. A." data-source-line="61" data-uid="ent0020" id="entity_StateKind.S. A."><rect fill="#24273A" height="31.792" rx="1.5" ry="1.5" style="stroke:#C6A0F6;stroke-width:2;" width="147.8562" x="316.05" y="720.386"/><rect fill="#363A4F" height="31.792" rx="1.5" ry="1.5" style="stroke:#363A4F;stroke-width:2;" width="147.8562" x="316.05" y="720.386"/><rect fill="#363A4F" height="1.5" style="stroke:#363A4F;stroke-width:2;" width="147.8562" x="316.05" y="750.6781"/><rect fill="none" height="31.792" rx="1.5" ry="1.5" style="stroke:#C6A0F6;stroke-width:2;" width="147.8562" x="316.05" y="720.386"/><ellipse cx="330.05" cy="736.282" fill="#ADD1B2" rx="10" ry="10" style="stroke:#181818;stroke-width:1;"/><path d="M329.7688,740.907 Q328.5188,740.907 327.7219,740.3914 Q326.925,739.8602 326.5344,738.907 Q326.1438,737.9539 326.1438,736.6727 Q326.1438,735.2508 326.6125,734.2352 Q327.0813,733.2039 327.9875,732.657 Q328.8938,732.0945 330.2063,732.0945 Q330.8313,732.0945 331.3,732.2195 Q331.7844,732.3445 332.2688,732.5789 L331.6906,734.0164 Q331.2531,733.782 330.8625,733.7039 Q330.4875,733.6258 330.1438,733.6258 Q329.3156,733.6258 328.8156,734.0008 Q328.3313,734.3602 328.1125,735.032 Q327.9094,735.7039 327.9094,736.6102 Q327.9094,738.0164 328.4094,738.7039 Q328.925,739.3758 330.05,739.3758 Q330.4719,739.3758 330.9094,739.2664 Q331.3469,739.157 331.9406,738.8914 L331.9406,740.4539 Q331.425,740.6883 330.8625,740.7977 Q330.3,740.907 329.7688,740.907 Z " fill="#CAD3F5"/><text fill="#A6DA95" font-family="Helvetica" font-size="16" lengthAdjust="spacing" textLength="117.8562" x="343.05" y="742.4901">StateKind&lt;S, A&gt;</text></g><!--reverse link State to StateTuple--><g class="link" data-entity-1="State" data-entity-2="StateTuple" data-source-line="28" data-uid="lnk10" id="link_State_StateTuple"><path codeLine="28" d="M655.98,854.256 C655.98,881.946 655.98,894.166 655.98,915.466" fill="none" id="State-backto-StateTuple" style="stroke:#F5BDE6;stroke-width:1;"/><ellipse cx="655.98" cy="846.256" fill="#24273A" rx="8" ry="8" style="stroke:#F5BDE6;stroke-width:1;"/><line style="stroke:#F5BDE6;stroke-width:1;" x1="655.98" x2="655.98" y1="854.256" y2="838.256"/><line style="stroke:#F5BDE6;stroke-width:1;" x1="647.98" x2="663.98" y1="846.256" y2="846.256"/><polygon fill="#CAD3F5" points="659.98,881.0681,662.3311,873.832,657.6289,873.832,659.98,881.0681" style="stroke:#CAD3F5;stroke-width:1;"/><text fill="#CAD3F5" font-family="Helvetica" font-size="12" lengthAdjust="spacing" textLength="25.6802" x="668.98" y="881.7241">uses</text></g><!--reverse link Functor to StateFunctor--><g class="link" data-entity-1="Functor" data-entity-2="StateFunctor" data-source-line="49" data-uid="lnk13" id="link_Functor_StateFunctor"><path d="M1327.98,60.106 C1327.98,75.996 1327.98,83.266 1327.98,102.616" fill="none" id="Functor-backto-StateFunctor" style="stroke:#F5BDE6;stroke-width:1;stroke-dasharray:7,7;"/><polygon fill="none" points="1327.98,42.106,1321.98,60.106,1333.98,60.106,1327.98,42.106" style="stroke:#F5BDE6;stroke-width:1;"/></g><!--reverse link StateFunctor to StateApplicative--><g class="link" data-entity-1="StateFunctor" data-entity-2="StateApplicative" data-source-line="52" data-uid="lnk15" id="link_StateFunctor_StateApplicative"><path d="M1258.4103,167.6234 C1223.8703,185.3734 1194.62,200.396 1157.34,219.556" fill="none" id="StateFunctor-backto-StateApplicative" style="stroke:#F5BDE6;stroke-width:1;"/><polygon fill="none" points="1274.42,159.396,1255.6678,162.2868,1261.1527,172.9599,1274.42,159.396" style="stroke:#F5BDE6;stroke-width:1;"/></g><!--reverse link Applicative to StateApplicative--><g class="link" data-entity-1="Applicative" data-entity-2="StateApplicative" data-source-line="52" data-uid="lnk16" id="link_Applicative_StateApplicative"><path d="M1016.599,161.5636 C1030.329,179.5836 1042.62,195.696 1060.9,219.666" fill="none" id="Applicative-backto-StateApplicative" style="stroke:#F5BDE6;stroke-width:1;stroke-dasharray:7,7;"/><polygon fill="none" points="1005.69,147.246,1011.8265,165.2,1021.3715,157.9273,1005.69,147.246" style="stroke:#F5BDE6;stroke-width:1;"/></g><!--reverse link StateApplicative to StateMonad--><g class="link" data-entity-1="StateApplicative" data-entity-2="StateMonad" data-source-line="56" data-uid="lnk18" id="link_StateApplicative_StateMonad"><path d="M1021.9539,303.1154 C966.6839,341.5654 894.66,391.666 844.45,426.586" fill="none" id="StateApplicative-backto-StateMonad" style="stroke:#F5BDE6;stroke-width:1;"/><polygon fill="none" points="1036.73,292.836,1018.5274,298.19,1025.3803,308.0408,1036.73,292.836" style="stroke:#F5BDE6;stroke-width:1;"/></g><!--reverse link Monad to StateMonad--><g class="link" data-entity-1="Monad" data-entity-2="StateMonad" data-source-line="56" data-uid="lnk19" id="link_Monad_StateMonad"><path d="M713.9271,288.0875 C732.0571,321.1375 766.77,384.396 789.88,426.526" fill="none" id="Monad-backto-StateMonad" style="stroke:#F5BDE6;stroke-width:1;stroke-dasharray:7,7;"/><polygon fill="none" points="705.27,272.306,708.6666,290.9732,719.1876,285.2018,705.27,272.306" style="stroke:#F5BDE6;stroke-width:1;"/></g><!--link StateKind<S, A> to Kind--><g class="link" data-entity-1="StateKind.S. A." data-entity-2="Kind" data-source-line="61" data-uid="lnk21" id="link_StateKind.S. A._Kind"><path codeLine="61" d="M377.32,752.656 C344.85,792.116 270.3079,882.6873 237.9579,921.9973" fill="none" id="StateKind&lt;S, A&gt;-to-Kind" style="stroke:#F5BDE6;stroke-width:1;"/><polygon fill="none" points="226.52,935.896,242.5908,925.8099,233.325,918.1847,226.52,935.896" style="stroke:#F5BDE6;stroke-width:1;"/><text fill="#CAD3F5" font-family="Helvetica" font-size="12" lengthAdjust="spacing" textLength="108.4208" x="282.04" y="881.7241">&lt;StateKind.Witness</text><text fill="#CAD3F5" font-family="Helvetica" font-size="12" lengthAdjust="spacing" text-decoration="line-through" textLength="20.8681" x="390.4608" y="881.7241">, A&gt;</text></g><!--link StateKindHelper to State--><g class="link" data-entity-1="StateKindHelper" data-entity-2="State" data-source-line="64" data-uid="lnk22" id="link_StateKindHelper_State"><path codeLine="64" d="M336.93,556.776 C358.96,574.006 382.53,590.796 405.98,604.666 C436.88,622.936 448.67,619.006 480.98,634.666 C487.92,638.026 489.6124,638.8155 496.6824,642.4455" fill="none" id="StateKindHelper-to-State" style="stroke:#F5BDE6;stroke-width:1;stroke-dasharray:7,7;"/><polygon fill="#F5BDE6" points="502.02,645.186,495.8407,637.5169,497.572,642.9023,492.1866,644.6336,502.02,645.186" style="stroke:#F5BDE6;stroke-width:1;"/><text fill="#CAD3F5" font-family="Helvetica" font-size="12" lengthAdjust="spacing" textLength="90.8047" x="406.98" y="600.4941">widens/narrows</text></g><!--link StateKindHelper to StateKind<S, A>--><g class="link" data-entity-1="StateKindHelper" data-entity-2="StateKind.S. A." data-source-line="65" data-uid="lnk23" id="link_StateKindHelper_StateKind.S. A."><path codeLine="65" d="M237.09,557.156 C241.93,573.876 248.65,590.396 257.98,604.666 C270.33,623.566 282.21,619.546 298.98,634.666 C329.77,662.416 357.447,694.9089 374.107,715.4189" fill="none" id="StateKindHelper-to-StateKind&lt;S, A&gt;" style="stroke:#F5BDE6;stroke-width:1;stroke-dasharray:7,7;"/><polygon fill="#F5BDE6" points="377.89,720.076,375.3203,710.5683,374.7375,716.195,369.1108,715.6122,377.89,720.076" style="stroke:#F5BDE6;stroke-width:1;"/><text fill="#CAD3F5" font-family="Helvetica" font-size="12" lengthAdjust="spacing" textLength="90.8047" x="258.98" y="600.4941">widens/narrows</text></g><!--link StateMonad to StateKind<S, A>--><g class="link" data-entity-1="StateMonad" data-entity-2="StateKind.S. A." data-source-line="67" data-uid="lnk24" id="link_StateMonad_StateKind.S. A."><path codeLine="67" d="M726.25,483.576 C668.01,506.106 588.48,541.576 526.98,586.666 C472.36,626.706 425.7783,686.0076 404.4083,715.1476" fill="none" id="StateMonad-to-StateKind&lt;S, A&gt;" style="stroke:#F5BDE6;stroke-width:1;stroke-dasharray:7,7;"/><polygon fill="#F5BDE6" points="400.86,719.986,409.408,715.094,403.8169,715.954,402.9568,710.363,400.86,719.986" style="stroke:#F5BDE6;stroke-width:1;"/><text fill="#CAD3F5" font-family="Helvetica" font-size="12" lengthAdjust="spacing" textLength="204.6015" x="527.98" y="600.4941">operates on Kind&lt;StateKind.Witness</text><text fill="#CAD3F5" font-family="Helvetica" font-size="12" lengthAdjust="spacing" text-decoration="line-through" textLength="20.8681" x="732.5815" y="600.4941">, A&gt;</text></g><!--link StateMonad to State--><g class="link" data-entity-1="StateMonad" data-entity-2="State" data-source-line="68" data-uid="lnk25" id="link_StateMonad_State"><path codeLine="68" d="M800.43,483.586 C794.58,514.386 782.63,565.146 761.98,604.666 C756.77,614.626 754.0772,619.5664 747.5772,629.2364" fill="none" id="StateMonad-to-State" style="stroke:#F5BDE6;stroke-width:1;stroke-dasharray:7,7;"/><polygon fill="#F5BDE6" points="744.23,634.216,752.5705,628.9781,747.0193,630.0664,745.9311,624.5152,744.23,634.216" style="stroke:#F5BDE6;stroke-width:1;"/><text fill="#CAD3F5" font-family="Helvetica" font-size="12" lengthAdjust="spacing" textLength="93.4327" x="770.23" y="600.4941">uses methods of</text></g><!--SRC=[fLN1Rjim3BtxAxXSbgArVIyC0zuXs31qXxd5Bhke2bqBioL1afC5NVvzZ1mdjfDuQUUJGRxtI94KzK58NZLBXD8vRU_ZsB1rz29SsJmt5WrNqg5q4LTrBBcoZeM2nvmvhHlEXGnhndafc5EXhfXqJLs5hiGQuve96VlVI9Cr24f1KR3MRWCrrizeR118vH1c2y3V56LfuOTm4gtDZ72Rv76ZqVz5JvAPJVfJ5ie0gofmv05UCMlHpe1PyB1l91O4G9-Wf4t1EC9N8PV9uWwoTEHOD98xPPB5s95fNGawe5ZXgVD1IRRScOD3H8WY7oMWxmZC7NEOvBl0a2G-c21k1LywI9h2wqxzjiK-Dhhg2AQHyvoY2YTOvRqtBVALwky4tmxaLJ7lz7UMiLeA1Ncd17HZS9x1YbNDvK1v2Y_evXVzJvHj2fOWEKXSJsVTWckr5CLcc3nbEvMga5OZTmDETkGSe9z8dUaZBFEcSx2YOkvX1EtvFMaRU0lSXc6ll70FT4Ciq33uKJpjOv8OvCeiISNtkj_ghk0K3MnRh6qmKDeDrMUiD9ez-Mn5w6OOjPxxEJ_GelqzIlBKWtwHxMQeCKrOqrsb6Up5iLr3hzOOZzLrnDwSNKUuD7XlOKzCujN7dHhDSUz6bztRhcZXRbR6Mw4ddG6kzfx_5yjf9oD_lzXsCClTjgMgYfhENjEROWyx-9pqOJjE1Bzmo-_-qQc2xTBhPTTV-PHXznXDP3vWl3FxTdKFz-xqOUci4u1X6UYORoz4-xoDIp0gJwyCU_pxstTk-quohcXlpTfL-X6-8ycJgYs5ji7im6XltWp2y4_gnMYLNzGZfV4wZgAqhGpn_AQqSRk6xLdeQU0JMd0i_qMA8ZqoMb1okW9ZiIvL_rhLw4f5dLL5y1S0]--></g></svg>