<svg xmlns="http://www.w3.org/2000/svg" xmlns:xlink="http://www.w3.org/1999/xlink" contentStyleType="text/css" height="267px" preserveAspectRatio="none" style="width:311px;height:267px;background:#24273A;" version="1.1" viewBox="0 0 311 267" width="311px" zoomAndPan="magnify"><defs/><g><rect fill="#24273A" height="267" style="stroke:none;stroke-width:1.0;" width="311" x="0" y="0"/><!--class Supplier--><g id="elem_Supplier"><rect codeLine="2" fill="#24273A" height="58" id="Supplier" rx="1.5" ry="1.5" style="stroke:#C6A0F6;stroke-width:2.0;" width="100.0332" x="103.5" y="202"/><rect fill="#363A4F" height="30" rx="1.5" ry="1.5" style="stroke:#363A4F;stroke-width:2.0;" width="100.0332" x="103.5" y="202"/><rect fill="#363A4F" height="1.5" style="stroke:#363A4F;stroke-width:2.0;" width="100.0332" x="103.5" y="230.5"/><rect codeLine="2" fill="none" height="58" id="Supplier" rx="1.5" ry="1.5" style="stroke:#C6A0F6;stroke-width:2.0;" width="100.0332" x="103.5" y="202"/><ellipse cx="117.5" cy="217" fill="#B4A7E5" rx="10" ry="10" style="stroke:#181818;stroke-width:1.0;"/><path d="M114.5078,214.2754 L114.5078,212.752 L119.7168,212.752 L119.7168,214.2754 L117.9766,214.2754 L117.9766,219.9766 L119.7168,219.9766 L119.7168,221.5 L114.5078,221.5 L114.5078,219.9766 L116.248,219.9766 L116.248,214.2754 Z " fill="#CAD3F5"/><text fill="#A6DA95" font-family="Helvetica" font-size="16" font-style="italic" lengthAdjust="spacing" textLength="58.7031" x="130.5" y="221.3203">Supplier</text><rect fill="#24273A" height="14" style="stroke:#C6A0F6;stroke-width:1.0;stroke-dasharray:2.0,2.0;" width="9.3301" x="197.2031" y="199"/><text fill="#CAD3F5" font-family="Helvetica" font-size="12" font-style="italic" lengthAdjust="spacing" textLength="7.3301" x="198.2031" y="209.2402">T</text><line style="stroke:#C6A0F6;stroke-width:2.0;" x1="104.5" x2="202.5332" y1="232" y2="232"/><line style="stroke:#C6A0F6;stroke-width:2.0;" x1="104.5" x2="202.5332" y1="240" y2="240"/><ellipse cx="114.5" cy="251.5" fill="#84BE84" rx="3" ry="3" style="stroke:#038048;stroke-width:1.0;"/><text fill="#A6DA95" font-family="Helvetica" font-size="12" lengthAdjust="spacing" textLength="35.3379" x="122.5" y="253.2402">T get()</text></g><!--class IO--><g id="elem_IO"><rect codeLine="6" fill="#24273A" height="118" id="IO" rx="1.5" ry="1.5" style="stroke:#C6A0F6;stroke-width:2.0;" width="293.0254" x="7" y="10"/><rect fill="#363A4F" height="30" rx="1.5" ry="1.5" style="stroke:#363A4F;stroke-width:2.0;" width="293.0254" x="7" y="10"/><rect fill="#363A4F" height="1.5" style="stroke:#363A4F;stroke-width:2.0;" width="293.0254" x="7" y="38.5"/><rect codeLine="6" fill="none" height="118" id="IO" rx="1.5" ry="1.5" style="stroke:#C6A0F6;stroke-width:2.0;" width="293.0254" x="7" y="10"/><ellipse cx="135.0654" cy="25" fill="#B4A7E5" rx="10" ry="10" style="stroke:#181818;stroke-width:1.0;"/><path d="M132.0732,22.2754 L132.0732,20.752 L137.2822,20.752 L137.2822,22.2754 L135.542,22.2754 L135.542,27.9766 L137.2822,27.9766 L137.2822,29.5 L132.0732,29.5 L132.0732,27.9766 L133.8135,27.9766 L133.8135,22.2754 Z " fill="#CAD3F5"/><text fill="#A6DA95" font-family="Helvetica" font-size="16" font-style="italic" lengthAdjust="spacing" textLength="16.8906" x="154.0654" y="29.3203">IO</text><rect fill="#24273A" height="14" style="stroke:#C6A0F6;stroke-width:1.0;stroke-dasharray:2.0,2.0;" width="10.0039" x="293.0215" y="7"/><text fill="#CAD3F5" font-family="Helvetica" font-size="12" font-style="italic" lengthAdjust="spacing" textLength="8.0039" x="294.0215" y="17.2402">A</text><line style="stroke:#C6A0F6;stroke-width:2.0;" x1="8" x2="299.0254" y1="40" y2="40"/><ellipse cx="18" cy="51.5" fill="#84BE84" rx="3" ry="3" style="stroke:#038048;stroke-width:1.0;"/><text fill="#A6DA95" font-family="Helvetica" font-size="12" font-style="italic" lengthAdjust="spacing" textLength="104.0508" x="26" y="53.2402">A unsafeRunSync()</text><ellipse cx="18" cy="79.5" fill="#84BE84" rx="3" ry="3" style="stroke:#038048;stroke-width:1.0;"/><text fill="#A6DA95" font-family="Helvetica" font-size="12" lengthAdjust="spacing" text-decoration="underline" textLength="166.1016" x="26" y="81.2402">&lt;A&gt; IO&lt;A&gt; delay(Supplier&lt;A&gt;)</text><line style="stroke:#C6A0F6;stroke-width:1.0;" x1="8" x2="128.8389" y1="66" y2="66"/><text fill="#A6DA95" font-family="Helvetica" font-size="12" lengthAdjust="spacing" textLength="49.3477" x="128.8389" y="68.7402">Factories</text><line style="stroke:#C6A0F6;stroke-width:1.0;" x1="178.1865" x2="299.0254" y1="66" y2="66"/><ellipse cx="18" cy="107.5" fill="#84BE84" rx="3" ry="3" style="stroke:#038048;stroke-width:1.0;"/><text fill="#A6DA95" font-family="Helvetica" font-size="12" font-weight="bold" lengthAdjust="spacing" textLength="12.668" x="29.334" y="109.2402">IO</text><text fill="#A6DA95" font-family="Helvetica" font-size="12" font-weight="bold" lengthAdjust="spacing" textLength="227.3613" x="45.3359" y="109.2402">map(Function&lt;? super A, ? extends B&gt;)</text><ellipse cx="18" cy="119.5" fill="#84BE84" rx="3" ry="3" style="stroke:#038048;stroke-width:1.0;"/><text fill="#A6DA95" font-family="Helvetica" font-size="12" font-weight="bold" lengthAdjust="spacing" textLength="12.668" x="29.334" y="121.2402">IO</text><text fill="#A6DA95" font-family="Helvetica" font-size="12" font-weight="bold" lengthAdjust="spacing" textLength="237.6855" x="45.3359" y="121.2402">flatMap(Function&lt;? super A, ? extends IO</text><text fill="#A6DA95" font-family="Helvetica" font-size="12" font-weight="bold" lengthAdjust="spacing" textLength="11.0039" x="283.0215" y="121.2402">&gt;)</text><line style="stroke:#C6A0F6;stroke-width:1.0;" x1="8" x2="106.1514" y1="94" y2="94"/><text fill="#A6DA95" font-family="Helvetica" font-size="12" lengthAdjust="spacing" textLength="94.7227" x="106.1514" y="96.7402">Instance Methods</text><line style="stroke:#C6A0F6;stroke-width:1.0;" x1="200.874" x2="299.0254" y1="94" y2="94"/></g><!--link IO to Supplier--><g id="link_IO_Supplier"><path codeLine="14" d="M153.51,128.22 C153.51,153.23 153.51,175.33 153.51,195.65 " fill="none" id="IO-to-Supplier" style="stroke:#F5BDE6;stroke-width:1.0;stroke-dasharray:7.0,7.0;"/><polygon fill="#F5BDE6" points="153.51,201.65,157.51,192.65,153.51,196.65,149.51,192.65,153.51,201.65" style="stroke:#F5BDE6;stroke-width:1.0;"/><polygon fill="#CAD3F5" points="157.51,169,159.8611,161.7639,155.1589,161.7639,157.51,169" style="stroke:#CAD3F5;stroke-width:1.0;"/><text fill="#CAD3F5" font-family="Helvetica" font-size="12" lengthAdjust="spacing" textLength="25.3477" x="166.51" y="168.2402">uses</text></g><!--SRC=[XP7FRi8m38VlVGhlnhIrlQEgg1oGUa18WnSmhaiZjKwKE688yUuBPKFSTedov_TzJfmt8pJ6Zc5GTM5PbXxFnSde48yni2Shog85sQaKia4nDrGIgdEHo4W-8T5WK6tkHXIDqvZhm1EN4nefvsdXqcvcaiZtI0pxwDnes5U76guPm0SSuCIwUCzksKkitLNDN-2Anw0UIM_GG9I0FNz5sL-44WMGvx19XzOR3cdnGD9TrT0DxfQ7g-CHBujd-QR-PLj9MKabjwo3xPwAQZsJQPpGBJPHI8sLQWKXElRGVC8A-3lr9o7hMVRAz2FgzbzkpjRtfxSxA8hwsHrOGlg007Ns0m00]--></g></svg>