<svg xmlns="http://www.w3.org/2000/svg" xmlns:xlink="http://www.w3.org/1999/xlink" contentStyleType="text/css" data-diagram-type="CLASS" height="272px" preserveAspectRatio="none" style="width:789px;height:272px;background:#24273A;" version="1.1" viewBox="0 0 789 272" width="789px" zoomAndPan="magnify"><defs/><g><rect fill="#24273A" height="272" style="stroke:none;stroke-width:1;" width="789" x="0" y="0"/><g class="entity" data-entity="ArityNote" data-source-line="6" data-uid="ent0002" id="entity_ArityNote"><path d="M605.55,56.08 L605.55,79.4241 A1.5,1.5 0 0 0 607.05,80.9241 L780.9791,80.9241 A1.5,1.5 0 0 0 782.4791,79.4241 L782.4791,64.58 L772.4791,54.58 L607.05,54.58 A1.5,1.5 0 0 0 605.55,56.08" fill="#EED49F" style="stroke:#24273A;stroke-width:0.5;"/><path d="M772.4791,54.58 L772.4791,63.83 A0.75,0.75 0 0 0 773.2291,64.58 L782.4791,64.58 L772.4791,54.58" fill="#EED49F" style="stroke:#24273A;stroke-width:1;"/><text fill="#24273A" font-family="Helvetica" font-size="12" lengthAdjust="spacing" textLength="155.9291" x="611.55" y="72.4081">F, G extend WitnessArity&lt;?&gt;</text></g><!--class Natural<F, G>--><g class="entity" data-entity="Natural.F. G." data-source-line="8" data-uid="ent0003" id="entity_Natural.F. G."><rect fill="#24273A" height="121.5126" rx="1.5" ry="1.5" style="stroke:#C6A0F6;stroke-width:2;" width="303.822" x="57.11" y="7"/><rect fill="#363A4F" height="48.1362" rx="1.5" ry="1.5" style="stroke:#363A4F;stroke-width:2;" width="303.822" x="57.11" y="7"/><rect fill="#363A4F" height="1.5" style="stroke:#363A4F;stroke-width:2;" width="303.822" x="57.11" y="53.6362"/><rect fill="none" height="121.5126" rx="1.5" ry="1.5" style="stroke:#C6A0F6;stroke-width:2;" width="303.822" x="57.11" y="7"/><ellipse cx="149.3906" cy="31.0681" fill="#B4A7E5" rx="10" ry="10" style="stroke:#181818;stroke-width:1;"/><path d="M146.9687,35.5681 L146.9687,34.365 L148.6406,34.1775 L148.6406,28.3962 L146.9687,28.1931 L146.9687,27.0056 L152.0156,27.0056 L152.0156,28.1931 L150.3125,28.3962 L150.3125,34.1775 L152.0156,34.365 L152.0156,35.5681 L146.9687,35.5681 Z " fill="#CAD3F5"/><text fill="#CAD3F5" font-family="Helvetica" font-size="12" font-style="italic" lengthAdjust="spacing" textLength="115.2608" x="166.3906" y="24.8281">&#171;functional interface&#187;</text><text fill="#A6DA95" font-family="Helvetica" font-size="16" font-style="italic" lengthAdjust="spacing" textLength="99.6002" x="174.2209" y="45.4481">Natural&lt;F, G&gt;</text><line style="stroke:#C6A0F6;stroke-width:2;" x1="58.11" x2="359.932" y1="55.1362" y2="55.1362"/><ellipse cx="68.11" cy="68.8082" fill="#84BE84" rx="3" ry="3" style="stroke:#038048;stroke-width:1;"/><text fill="#A6DA95" font-family="Helvetica" font-size="12" lengthAdjust="spacing" textLength="200.5934" x="76.11" y="71.9642">&lt;A&gt; Kind&lt;G, A&gt; apply(Kind&lt;F, A&gt; fa)</text><ellipse cx="68.11" cy="85.1523" fill="#84BE84" rx="3" ry="3" style="stroke:#038048;stroke-width:1;"/><text fill="#A6DA95" font-family="Helvetica" font-size="12" lengthAdjust="spacing" textLength="273.5419" x="76.11" y="88.3084">&lt;H&gt; Natural&lt;F, H&gt; andThen(Natural&lt;G, H&gt; after)</text><ellipse cx="68.11" cy="101.4964" fill="#84BE84" rx="3" ry="3" style="stroke:#038048;stroke-width:1;"/><text fill="#A6DA95" font-family="Helvetica" font-size="12" lengthAdjust="spacing" textLength="278.822" x="76.11" y="104.6525">&lt;E&gt; Natural&lt;E, G&gt; compose(Natural&lt;E, F&gt; before)</text><ellipse cx="68.11" cy="117.8406" fill="#84BE84" rx="3" ry="3" style="stroke:#038048;stroke-width:1;"/><text fill="#A6DA95" font-family="Helvetica" font-size="12" lengthAdjust="spacing" text-decoration="underline" textLength="150.841" x="76.11" y="120.9966">&lt;F&gt; Natural&lt;F, F&gt; identity()</text></g><g class="entity" data-entity="GMN4" data-source-line="16" data-uid="ent0005" id="entity_GMN4"><path d="M395.58,15.22 L395.58,63.75 L361.27,67.75 L395.58,71.75 L395.58,120.2847 A1.5,1.5 0 0 0 397.08,121.7847 L568.9451,121.7847 A1.5,1.5 0 0 0 570.4451,120.2847 L570.4451,23.72 L560.4451,13.72 L397.08,13.72 A1.5,1.5 0 0 0 395.58,15.22" fill="#EED49F" style="stroke:#24273A;stroke-width:0.5;"/><path d="M560.4451,13.72 L560.4451,22.97 A0.75,0.75 0 0 0 561.1951,23.72 L570.4451,23.72 L560.4451,13.72" fill="#EED49F" style="stroke:#24273A;stroke-width:0.5;"/><text fill="#24273A" font-family="Helvetica" font-size="12" lengthAdjust="spacing" textLength="120.7689" x="401.58" y="31.5481">Polymorphic function</text><text fill="#24273A" font-family="Helvetica" font-size="12" lengthAdjust="spacing" textLength="153.8651" x="401.58" y="47.8922">between type constructors.</text><text fill="#24273A" font-family="Helvetica" font-size="12" lengthAdjust="spacing" textLength="3.12" x="401.58" y="64.2363">&#160;</text><text fill="#24273A" font-family="Helvetica" font-size="12" lengthAdjust="spacing" textLength="149.5811" x="401.58" y="80.5804">F[A] &#9472;&#9472;Natural&#9472;&#9472;&gt; G[A]</text><text fill="#24273A" font-family="Helvetica" font-size="12" lengthAdjust="spacing" textLength="3.12" x="401.58" y="96.9245">&#160;</text><text fill="#24273A" font-family="Helvetica" font-size="12" lengthAdjust="spacing" textLength="123.4209" x="401.58" y="113.2687">Works for ANY type A.</text></g><!--class Functor<F>--><g class="entity" data-entity="Functor.F." data-source-line="24" data-uid="ent0007" id="entity_Functor.F."><rect fill="#24273A" height="48.1362" rx="1.5" ry="1.5" style="stroke:#C6A0F6;stroke-width:2;" width="110.0322" x="7" y="211.96"/><rect fill="#363A4F" height="48.1362" rx="1.5" ry="1.5" style="stroke:#363A4F;stroke-width:2;" width="110.0322" x="7" y="211.96"/><rect fill="#363A4F" height="1.5" style="stroke:#363A4F;stroke-width:2;" width="110.0322" x="7" y="258.5962"/><rect fill="none" height="48.1362" rx="1.5" ry="1.5" style="stroke:#C6A0F6;stroke-width:2;" width="110.0322" x="7" y="211.96"/><ellipse cx="21" cy="236.0281" fill="#B4A7E5" rx="10" ry="10" style="stroke:#181818;stroke-width:1;"/><path d="M18.5781,240.5281 L18.5781,239.325 L20.25,239.1375 L20.25,233.3562 L18.5781,233.1531 L18.5781,231.9656 L23.625,231.9656 L23.625,233.1531 L21.9219,233.3562 L21.9219,239.1375 L23.625,239.325 L23.625,240.5281 L18.5781,240.5281 Z " fill="#CAD3F5"/><text fill="#CAD3F5" font-family="Helvetica" font-size="12" font-style="italic" lengthAdjust="spacing" textLength="58.2964" x="44.8679" y="229.7881">&#171;interface&#187;</text><text fill="#A6DA95" font-family="Helvetica" font-size="16" font-style="italic" lengthAdjust="spacing" textLength="80.0322" x="34" y="250.4081">Functor&lt;F&gt;</text></g><!--class Functor<G>--><g class="entity" data-entity="Functor.G." data-source-line="25" data-uid="ent0008" id="entity_Functor.G."><rect fill="#24273A" height="48.1362" rx="1.5" ry="1.5" style="stroke:#C6A0F6;stroke-width:2;" width="113.2482" x="152.39" y="211.96"/><rect fill="#363A4F" height="48.1362" rx="1.5" ry="1.5" style="stroke:#363A4F;stroke-width:2;" width="113.2482" x="152.39" y="211.96"/><rect fill="#363A4F" height="1.5" style="stroke:#363A4F;stroke-width:2;" width="113.2482" x="152.39" y="258.5962"/><rect fill="none" height="48.1362" rx="1.5" ry="1.5" style="stroke:#C6A0F6;stroke-width:2;" width="113.2482" x="152.39" y="211.96"/><ellipse cx="166.39" cy="236.0281" fill="#B4A7E5" rx="10" ry="10" style="stroke:#181818;stroke-width:1;"/><path d="M163.9681,240.5281 L163.9681,239.325 L165.64,239.1375 L165.64,233.3562 L163.9681,233.1531 L163.9681,231.9656 L169.015,231.9656 L169.015,233.1531 L167.3119,233.3562 L167.3119,239.1375 L169.015,239.325 L169.015,240.5281 L163.9681,240.5281 Z " fill="#CAD3F5"/><text fill="#CAD3F5" font-family="Helvetica" font-size="12" font-style="italic" lengthAdjust="spacing" textLength="58.2964" x="191.8659" y="229.7881">&#171;interface&#187;</text><text fill="#A6DA95" font-family="Helvetica" font-size="16" font-style="italic" lengthAdjust="spacing" textLength="83.2482" x="179.39" y="250.4081">Functor&lt;G&gt;</text></g><g class="entity" data-entity="GMN11" data-source-line="31" data-uid="ent0012" id="entity_GMN11"><path d="M300.63,208.01 L300.63,264.0423 A1.5,1.5 0 0 0 302.13,265.5423 L509.8993,265.5423 A1.5,1.5 0 0 0 511.3993,264.0423 L511.3993,216.51 L501.3993,206.51 L375.72,206.51 L280.14,128.78 L367.72,206.51 L302.13,206.51 A1.5,1.5 0 0 0 300.63,208.01" fill="#EED49F" style="stroke:#24273A;stroke-width:0.5;"/><path d="M501.3993,206.51 L501.3993,215.76 A0.75,0.75 0 0 0 502.1493,216.51 L511.3993,216.51 L501.3993,206.51" fill="#EED49F" style="stroke:#24273A;stroke-width:0.5;"/><text fill="#24273A" font-family="Helvetica" font-size="12" font-weight="bold" lengthAdjust="spacing" textLength="92.3887" x="306.63" y="224.3381">Naturality Law:</text><text fill="#24273A" font-family="Helvetica" font-size="12" lengthAdjust="spacing" textLength="164.1731" x="306.63" y="240.6822">nat.apply(functorF.map(f, fa))</text><text fill="#24273A" font-family="Helvetica" font-size="12" lengthAdjust="spacing" textLength="183.5293" x="312.8701" y="257.0263">== functorG.map(f, nat.apply(fa))</text></g><!--link Natural<F, G> to Functor<F>--><g class="link" data-entity-1="Natural.F. G." data-entity-2="Functor.F." data-source-line="27" data-uid="lnk9" id="link_Natural.F. G._Functor.F."><path codeLine="27" d="M155.95,128.78 C130.62,157.43 105.7449,185.5655 86.7749,207.0155" fill="none" id="Natural&lt;F, G&gt;-to-Functor&lt;F&gt;" style="stroke:#F5BDE6;stroke-width:1;stroke-dasharray:7,7;"/><polygon fill="#F5BDE6" points="82.8,211.51,91.7586,207.4182,86.1124,207.7646,85.766,202.1183,82.8,211.51" style="stroke:#F5BDE6;stroke-width:1;"/><text fill="#CAD3F5" font-family="Helvetica" font-size="12" lengthAdjust="spacing" textLength="67.7405" x="127.71" y="172.3381">operates on</text></g><!--link Natural<F, G> to Functor<G>--><g class="link" data-entity-1="Natural.F. G." data-entity-2="Functor.G." data-source-line="28" data-uid="lnk10" id="link_Natural.F. G._Functor.G."><path codeLine="28" d="M209.02,128.78 C209.02,157.43 209.02,184.06 209.02,205.51" fill="none" id="Natural&lt;F, G&gt;-to-Functor&lt;G&gt;" style="stroke:#F5BDE6;stroke-width:1;stroke-dasharray:7,7;"/><polygon fill="#F5BDE6" points="209.02,211.51,213.02,202.51,209.02,206.51,205.02,202.51,209.02,211.51" style="stroke:#F5BDE6;stroke-width:1;"/><text fill="#CAD3F5" font-family="Helvetica" font-size="12" lengthAdjust="spacing" textLength="52.6684" x="210.02" y="172.3381">produces</text></g><!--SRC=[VLBDQjj04BxlKqnpKbnRkXj5HOT8XHRJGo6KqiDgFOgMQ7_O7U6A4EX3z0dx91rPSkgu8R27dM- - -Vjctcch-c6Fq17vkCso80_flQPkQ8Q8GJbBQ2bLpcHMkKXoerMc97a_AANjnaYbEYt9RNmlBGsctr271ZCZjSsEtzGpAaIdkGeQJoCOD0s6A8HrX71LhQ46_Cc5zd2doMACPT0qvX-AAv0HZiQEgK9eRYUqKd7KJj8GP9zFqSpBytQmYhIpieTdMb70em1u3tbPm2Tjztcz1lvAx_inEGBL4MZbzSpxMC1PPhQatN_jq2Odj9xHbYii8RV_GcwdPe3LyYvYSePM1JJOke1pp2ChILezGLwzgCSMosI91qwknTEYKD3t7O5hBuVcL5zSFneNVASLd0HWk44w85gWqIEtOoE5GP4BCHNihRwNF-3Fxr_ybeIpKK3Ddebnvy931EuNojstEKkPYcb1zd8FrLJL1HvaMiAPyg-Hwlz8udAHQLgyJBe5vp58mWWysvlq-aZtmUq7XQVxQXoHCw_Bjrej40iEd-LXkrenQYMbyuMqS-8gDT8dxNewasc103StiFZga-yiQc8zY_KN]--></g></svg>