<svg xmlns="http://www.w3.org/2000/svg" xmlns:xlink="http://www.w3.org/1999/xlink" contentStyleType="text/css" height="630px" preserveAspectRatio="none" style="width:1024px;height:630px;background:#24273A;" version="1.1" viewBox="0 0 1024 630" width="1024.2px" zoomAndPan="magnify"><defs/><g><rect fill="#24273A" height="630" style="stroke:none;stroke-width:1.8;" width="1024.2" x="0" y="0"/><!--cluster Transformer Types (Monad Implementations)--><g id="cluster_Transformer Types (Monad Implementations)"><path d="M13.5,10.8 L482.1715,10.8 A4.05,4.05 0 0 1 484.8715,13.5 L497.4715,43.2 L1009.926,43.2 A2.7,2.7 0 0 1 1012.626,45.9 L1012.626,614.7 A2.7,2.7 0 0 1 1009.926,617.4 L13.5,617.4 A2.7,2.7 0 0 1 10.8,614.7 L10.8,13.5 A2.7,2.7 0 0 1 13.5,10.8 " fill="#24273A" style="stroke:#CAD3F5;stroke-width:2.7;"/><line style="stroke:#CAD3F5;stroke-width:2.7;" x1="10.8" x2="497.4715" y1="43.2" y2="43.2"/><text fill="#CAD3F5" font-family="Helvetica" font-size="21.6" font-weight="bold" lengthAdjust="spacing" textLength="463.2715" x="18" y="31.0324">Transformer Types (Monad Implementations)</text></g><!--cluster CoreInterfaces--><g id="cluster_CoreInterfaces"><path d="M693.252,262.8 L849.9153,262.8 A4.05,4.05 0 0 1 852.6153,265.5 L865.2153,295.2 L951.516,295.2 A2.7,2.7 0 0 1 954.216,297.9 L954.216,515.7 A2.7,2.7 0 0 1 951.516,518.4 L693.252,518.4 A2.7,2.7 0 0 1 690.552,515.7 L690.552,265.5 A2.7,2.7 0 0 1 693.252,262.8 " fill="#24273A" style="stroke:#CAD3F5;stroke-width:2.7;"/><line style="stroke:#CAD3F5;stroke-width:2.7;" x1="690.552" x2="865.2153" y1="295.2" y2="295.2"/><text fill="#CAD3F5" font-family="Helvetica" font-size="21.6" font-weight="bold" lengthAdjust="spacing" textLength="151.2633" x="697.752" y="283.0324">CoreInterfaces</text></g><!--cluster Simulation Plumbing--><g id="cluster_Simulation Plumbing"><path d="M678.024,81 L898.2217,81 A4.05,4.05 0 0 1 900.9217,83.7 L913.5217,113.4 L966.726,113.4 A2.7,2.7 0 0 1 969.426,116.1 L969.426,216.9 A2.7,2.7 0 0 1 966.726,219.6 L678.024,219.6 A2.7,2.7 0 0 1 675.324,216.9 L675.324,83.7 A2.7,2.7 0 0 1 678.024,81 " fill="#24273A" style="stroke:#CAD3F5;stroke-width:2.7;"/><line style="stroke:#CAD3F5;stroke-width:2.7;" x1="675.324" x2="913.5217" y1="113.4" y2="113.4"/><text fill="#CAD3F5" font-family="Helvetica" font-size="21.6" font-weight="bold" lengthAdjust="spacing" textLength="214.7977" x="682.524" y="101.2324">Simulation Plumbing</text></g><!--class EitherTMonad--><g id="elem_EitherTMonad"><rect codeLine="10" fill="#24273A" height="54" id="EitherTMonad" rx="2.7" ry="2.7" style="stroke:#C6A0F6;stroke-width:3.6;" width="273.2941" x="82.224" y="534.6"/><rect fill="#363A4F" height="54" rx="2.7" ry="2.7" style="stroke:#363A4F;stroke-width:3.6;" width="273.2941" x="82.224" y="534.6"/><rect fill="#363A4F" height="2.7" style="stroke:#363A4F;stroke-width:3.6;" width="273.2941" x="82.224" y="585.9"/><rect codeLine="10" fill="none" height="54" id="EitherTMonad" rx="2.7" ry="2.7" style="stroke:#C6A0F6;stroke-width:3.6;" width="273.2941" x="82.224" y="534.6"/><ellipse cx="107.424" cy="561.6" fill="#ADD1B2" rx="18" ry="18" style="stroke:#181818;stroke-width:1.8;"/><path d="M110.7252,569.2465 Q109.9869,569.6262 109.1748,569.816 Q108.3627,570.0059 107.4662,570.0059 Q104.281,570.0059 102.6041,567.907 Q100.9271,565.8082 100.9271,561.8426 Q100.9271,557.8664 102.6041,555.7676 Q104.281,553.6688 107.4662,553.6688 Q108.3627,553.6688 109.1853,553.8586 Q110.008,554.0484 110.7252,554.4281 L110.7252,557.8875 Q109.9236,557.1492 109.1695,556.8064 Q108.4154,556.4637 107.6138,556.4637 Q105.9053,556.4637 105.0351,557.8189 Q104.165,559.1742 104.165,561.8426 Q104.165,564.5004 105.0351,565.8557 Q105.9053,567.2109 107.6138,567.2109 Q108.4154,567.2109 109.1695,566.8682 Q109.9236,566.5254 110.7252,565.7871 Z " fill="#CAD3F5"/><text fill="#A6DA95" font-family="Helvetica" font-size="28.8" lengthAdjust="spacing" textLength="180.8859" x="130.824" y="569.3766">EitherTMonad</text><rect fill="#24273A" height="25.2" style="stroke:#C6A0F6;stroke-width:1.8;stroke-dasharray:2.0,2.0;" width="34.8082" x="326.1099" y="529.2"/><text fill="#CAD3F5" font-family="Helvetica" font-size="21.6" font-style="italic" lengthAdjust="spacing" textLength="31.2082" x="327.9099" y="547.6324">F,L</text></g><!--class MaybeTMonad--><g id="elem_MaybeTMonad"><rect codeLine="11" fill="#24273A" height="54" id="MaybeTMonad" rx="2.7" ry="2.7" style="stroke:#C6A0F6;stroke-width:3.6;" width="266.4879" x="85.626" y="417.6"/><rect fill="#363A4F" height="54" rx="2.7" ry="2.7" style="stroke:#363A4F;stroke-width:3.6;" width="266.4879" x="85.626" y="417.6"/><rect fill="#363A4F" height="2.7" style="stroke:#363A4F;stroke-width:3.6;" width="266.4879" x="85.626" y="468.9"/><rect codeLine="11" fill="none" height="54" id="MaybeTMonad" rx="2.7" ry="2.7" style="stroke:#C6A0F6;stroke-width:3.6;" width="266.4879" x="85.626" y="417.6"/><ellipse cx="110.826" cy="444.6" fill="#ADD1B2" rx="18" ry="18" style="stroke:#181818;stroke-width:1.8;"/><path d="M114.1272,452.2465 Q113.3889,452.6262 112.5768,452.816 Q111.7647,453.0059 110.8682,453.0059 Q107.683,453.0059 106.0061,450.907 Q104.3291,448.8082 104.3291,444.8426 Q104.3291,440.8664 106.0061,438.7676 Q107.683,436.6688 110.8682,436.6688 Q111.7647,436.6688 112.5873,436.8586 Q113.41,437.0484 114.1272,437.4281 L114.1272,440.8875 Q113.3256,440.1492 112.5715,439.8064 Q111.8174,439.4637 111.0158,439.4637 Q109.3073,439.4637 108.4371,440.8189 Q107.567,442.1742 107.567,444.8426 Q107.567,447.5004 108.4371,448.8557 Q109.3073,450.2109 111.0158,450.2109 Q111.8174,450.2109 112.5715,449.8682 Q113.3256,449.5254 114.1272,448.7871 Z " fill="#CAD3F5"/><text fill="#A6DA95" font-family="Helvetica" font-size="28.8" lengthAdjust="spacing" textLength="192.0938" x="134.226" y="452.3766">MaybeTMonad</text><rect fill="#24273A" height="25.2" style="stroke:#C6A0F6;stroke-width:1.8;stroke-dasharray:2.0,2.0;" width="16.7941" x="340.7198" y="412.2"/><text fill="#CAD3F5" font-family="Helvetica" font-size="21.6" font-style="italic" lengthAdjust="spacing" textLength="13.1941" x="342.5198" y="430.6324">F</text></g><!--class OptionalTMonad--><g id="elem_OptionalTMonad"><rect codeLine="12" fill="#24273A" height="54" id="OptionalTMonad" rx="2.7" ry="2.7" style="stroke:#C6A0F6;stroke-width:3.6;" width="287.3145" x="75.204" y="300.6"/><rect fill="#363A4F" height="54" rx="2.7" ry="2.7" style="stroke:#363A4F;stroke-width:3.6;" width="287.3145" x="75.204" y="300.6"/><rect fill="#363A4F" height="2.7" style="stroke:#363A4F;stroke-width:3.6;" width="287.3145" x="75.204" y="351.9"/><rect codeLine="12" fill="none" height="54" id="OptionalTMonad" rx="2.7" ry="2.7" style="stroke:#C6A0F6;stroke-width:3.6;" width="287.3145" x="75.204" y="300.6"/><ellipse cx="100.404" cy="327.6" fill="#ADD1B2" rx="18" ry="18" style="stroke:#181818;stroke-width:1.8;"/><path d="M103.7052,335.2465 Q102.9669,335.6262 102.1548,335.816 Q101.3427,336.0059 100.4462,336.0059 Q97.261,336.0059 95.5841,333.907 Q93.9071,331.8082 93.9071,327.8426 Q93.9071,323.8664 95.5841,321.7676 Q97.261,319.6688 100.4462,319.6688 Q101.3427,319.6688 102.1653,319.8586 Q102.988,320.0484 103.7052,320.4281 L103.7052,323.8875 Q102.9036,323.1492 102.1495,322.8064 Q101.3954,322.4637 100.5938,322.4637 Q98.8853,322.4637 98.0151,323.8189 Q97.145,325.1742 97.145,327.8426 Q97.145,330.5004 98.0151,331.8557 Q98.8853,333.2109 100.5938,333.2109 Q101.3954,333.2109 102.1495,332.8682 Q102.9036,332.5254 103.7052,331.7871 Z " fill="#CAD3F5"/><text fill="#A6DA95" font-family="Helvetica" font-size="28.8" lengthAdjust="spacing" textLength="212.9203" x="123.804" y="335.3766">OptionalTMonad</text><rect fill="#24273A" height="25.2" style="stroke:#C6A0F6;stroke-width:1.8;stroke-dasharray:2.0,2.0;" width="16.7941" x="351.1243" y="295.2"/><text fill="#CAD3F5" font-family="Helvetica" font-size="21.6" font-style="italic" lengthAdjust="spacing" textLength="13.1941" x="352.9243" y="313.6324">F</text></g><!--class ReaderTMonad--><g id="elem_ReaderTMonad"><rect codeLine="13" fill="#24273A" height="54" id="ReaderTMonad" rx="2.7" ry="2.7" style="stroke:#C6A0F6;stroke-width:3.6;" width="358.5305" x="39.6" y="66.6"/><rect fill="#363A4F" height="54" rx="2.7" ry="2.7" style="stroke:#363A4F;stroke-width:3.6;" width="358.5305" x="39.6" y="66.6"/><rect fill="#363A4F" height="2.7" style="stroke:#363A4F;stroke-width:3.6;" width="358.5305" x="39.6" y="117.9"/><rect codeLine="13" fill="none" height="54" id="ReaderTMonad" rx="2.7" ry="2.7" style="stroke:#C6A0F6;stroke-width:3.6;" width="358.5305" x="39.6" y="66.6"/><ellipse cx="64.8" cy="93.6" fill="#ADD1B2" rx="18" ry="18" style="stroke:#181818;stroke-width:1.8;"/><path d="M68.1012,101.2465 Q67.3629,101.6262 66.5508,101.816 Q65.7387,102.0059 64.8422,102.0059 Q61.657,102.0059 59.9801,99.907 Q58.3031,97.8082 58.3031,93.8426 Q58.3031,89.8664 59.9801,87.7676 Q61.657,85.6688 64.8422,85.6688 Q65.7387,85.6688 66.5613,85.8586 Q67.384,86.0484 68.1012,86.4281 L68.1012,89.8875 Q67.2996,89.1492 66.5455,88.8064 Q65.7914,88.4637 64.9898,88.4637 Q63.2813,88.4637 62.4111,89.8189 Q61.541,91.1742 61.541,93.8426 Q61.541,96.5004 62.4111,97.8557 Q63.2813,99.2109 64.9898,99.2109 Q65.7914,99.2109 66.5455,98.8682 Q67.2996,98.5254 68.1012,97.7871 Z " fill="#CAD3F5"/><text fill="#A6DA95" font-family="Helvetica" font-size="28.8" lengthAdjust="spacing" textLength="200.1094" x="88.2" y="101.3766">ReaderTMonad</text><rect fill="#24273A" height="25.2" style="stroke:#C6A0F6;stroke-width:1.8;stroke-dasharray:2.0,2.0;" width="100.8211" x="302.7094" y="61.2"/><text fill="#CAD3F5" font-family="Helvetica" font-size="21.6" font-style="italic" lengthAdjust="spacing" textLength="97.2211" x="304.5094" y="79.6324">F, R_ENV</text></g><!--class StateTMonad--><g id="elem_StateTMonad"><rect codeLine="14" fill="#24273A" height="54" id="StateTMonad" rx="2.7" ry="2.7" style="stroke:#C6A0F6;stroke-width:3.6;" width="267.7008" x="85.014" y="183.6"/><rect fill="#363A4F" height="54" rx="2.7" ry="2.7" style="stroke:#363A4F;stroke-width:3.6;" width="267.7008" x="85.014" y="183.6"/><rect fill="#363A4F" height="2.7" style="stroke:#363A4F;stroke-width:3.6;" width="267.7008" x="85.014" y="234.9"/><rect codeLine="14" fill="none" height="54" id="StateTMonad" rx="2.7" ry="2.7" style="stroke:#C6A0F6;stroke-width:3.6;" width="267.7008" x="85.014" y="183.6"/><ellipse cx="110.214" cy="210.6" fill="#ADD1B2" rx="18" ry="18" style="stroke:#181818;stroke-width:1.8;"/><path d="M113.5152,218.2465 Q112.7769,218.6262 111.9648,218.816 Q111.1527,219.0059 110.2562,219.0059 Q107.071,219.0059 105.3941,216.907 Q103.7171,214.8082 103.7171,210.8426 Q103.7171,206.8664 105.3941,204.7676 Q107.071,202.6688 110.2562,202.6688 Q111.1527,202.6688 111.9753,202.8586 Q112.798,203.0484 113.5152,203.4281 L113.5152,206.8875 Q112.7136,206.1492 111.9595,205.8064 Q111.2054,205.4637 110.4038,205.4637 Q108.6953,205.4637 107.8251,206.8189 Q106.955,208.1742 106.955,210.8426 Q106.955,213.5004 107.8251,214.8557 Q108.6953,216.2109 110.4038,216.2109 Q111.2054,216.2109 111.9595,215.8682 Q112.7136,215.5254 113.5152,214.7871 Z " fill="#CAD3F5"/><text fill="#A6DA95" font-family="Helvetica" font-size="28.8" lengthAdjust="spacing" textLength="172.8984" x="133.614" y="218.3766">StateTMonad</text><rect fill="#24273A" height="25.2" style="stroke:#C6A0F6;stroke-width:1.8;stroke-dasharray:2.0,2.0;" width="37.2023" x="320.9124" y="178.2"/><text fill="#CAD3F5" font-family="Helvetica" font-size="21.6" font-style="italic" lengthAdjust="spacing" textLength="33.6023" x="322.7124" y="196.6324">S,F</text></g><!--class MonadError--><g id="elem_MonadError"><rect fill="#24273A" height="54" id="MonadError" rx="2.7" ry="2.7" style="stroke:#C6A0F6;stroke-width:3.6;" width="206.0578" x="719.352" y="435.6"/><rect fill="#363A4F" height="54" rx="2.7" ry="2.7" style="stroke:#363A4F;stroke-width:3.6;" width="206.0578" x="719.352" y="435.6"/><rect fill="#363A4F" height="2.7" style="stroke:#363A4F;stroke-width:3.6;" width="206.0578" x="719.352" y="486.9"/><rect fill="none" height="54" id="MonadError" rx="2.7" ry="2.7" style="stroke:#C6A0F6;stroke-width:3.6;" width="206.0578" x="719.352" y="435.6"/><ellipse cx="744.552" cy="462.6" fill="#ADD1B2" rx="18" ry="18" style="stroke:#181818;stroke-width:1.8;"/><path d="M747.8532,470.2465 Q747.1149,470.6262 746.3028,470.816 Q745.4907,471.0059 744.5942,471.0059 Q741.409,471.0059 739.7321,468.907 Q738.0551,466.8082 738.0551,462.8426 Q738.0551,458.8664 739.7321,456.7676 Q741.409,454.6688 744.5942,454.6688 Q745.4907,454.6688 746.3133,454.8586 Q747.136,455.0484 747.8532,455.4281 L747.8532,458.8875 Q747.0516,458.1492 746.2975,457.8064 Q745.5434,457.4637 744.7418,457.4637 Q743.0333,457.4637 742.1631,458.8189 Q741.293,460.1742 741.293,462.8426 Q741.293,465.5004 742.1631,466.8557 Q743.0333,468.2109 744.7418,468.2109 Q745.5434,468.2109 746.2975,467.8682 Q747.0516,467.5254 747.8532,466.7871 Z " fill="#CAD3F5"/><text fill="#A6DA95" font-family="Helvetica" font-size="28.8" lengthAdjust="spacing" textLength="152.0578" x="767.952" y="470.3766">MonadError</text></g><!--class Monad--><g id="elem_Monad"><rect fill="#24273A" height="54" id="Monad" rx="2.7" ry="2.7" style="stroke:#C6A0F6;stroke-width:3.6;" width="142.0594" x="751.356" y="318.6"/><rect fill="#363A4F" height="54" rx="2.7" ry="2.7" style="stroke:#363A4F;stroke-width:3.6;" width="142.0594" x="751.356" y="318.6"/><rect fill="#363A4F" height="2.7" style="stroke:#363A4F;stroke-width:3.6;" width="142.0594" x="751.356" y="369.9"/><rect fill="none" height="54" id="Monad" rx="2.7" ry="2.7" style="stroke:#C6A0F6;stroke-width:3.6;" width="142.0594" x="751.356" y="318.6"/><ellipse cx="776.556" cy="345.6" fill="#ADD1B2" rx="18" ry="18" style="stroke:#181818;stroke-width:1.8;"/><path d="M779.8572,353.2465 Q779.1189,353.6262 778.3068,353.816 Q777.4947,354.0059 776.5982,354.0059 Q773.413,354.0059 771.7361,351.907 Q770.0591,349.8082 770.0591,345.8426 Q770.0591,341.8664 771.7361,339.7676 Q773.413,337.6688 776.5982,337.6688 Q777.4947,337.6688 778.3173,337.8586 Q779.14,338.0484 779.8572,338.4281 L779.8572,341.8875 Q779.0556,341.1492 778.3015,340.8064 Q777.5474,340.4637 776.7458,340.4637 Q775.0373,340.4637 774.1671,341.8189 Q773.297,343.1742 773.297,345.8426 Q773.297,348.5004 774.1671,349.8557 Q775.0373,351.2109 776.7458,351.2109 Q777.5474,351.2109 778.3015,350.8682 Q779.0556,350.5254 779.8572,349.7871 Z " fill="#CAD3F5"/><text fill="#A6DA95" font-family="Helvetica" font-size="28.8" lengthAdjust="spacing" textLength="88.0594" x="799.956" y="353.3766">Monad</text></g><!--class OptionalTKind--><g id="elem_OptionalTKind"><rect fill="#24273A" height="54" id="OptionalTKind" rx="2.7" ry="2.7" style="stroke:#C6A0F6;stroke-width:3.6;" width="236.5031" x="704.124" y="136.8"/><rect fill="#363A4F" height="54" rx="2.7" ry="2.7" style="stroke:#363A4F;stroke-width:3.6;" width="236.5031" x="704.124" y="136.8"/><rect fill="#363A4F" height="2.7" style="stroke:#363A4F;stroke-width:3.6;" width="236.5031" x="704.124" y="188.1"/><rect fill="none" height="54" id="OptionalTKind" rx="2.7" ry="2.7" style="stroke:#C6A0F6;stroke-width:3.6;" width="236.5031" x="704.124" y="136.8"/><ellipse cx="729.324" cy="163.8" fill="#ADD1B2" rx="18" ry="18" style="stroke:#181818;stroke-width:1.8;"/><path d="M732.6252,171.4465 Q731.8869,171.8262 731.0748,172.016 Q730.2627,172.2059 729.3662,172.2059 Q726.181,172.2059 724.5041,170.107 Q722.8271,168.0082 722.8271,164.0426 Q722.8271,160.0664 724.5041,157.9676 Q726.181,155.8688 729.3662,155.8688 Q730.2627,155.8688 731.0853,156.0586 Q731.908,156.2484 732.6252,156.6281 L732.6252,160.0875 Q731.8236,159.3492 731.0695,159.0064 Q730.3154,158.6637 729.5138,158.6637 Q727.8053,158.6637 726.9351,160.0189 Q726.065,161.3742 726.065,164.0426 Q726.065,166.7004 726.9351,168.0557 Q727.8053,169.4109 729.5138,169.4109 Q730.3154,169.4109 731.0695,169.0682 Q731.8236,168.7254 732.6252,167.9871 Z " fill="#CAD3F5"/><text fill="#A6DA95" font-family="Helvetica" font-size="28.8" lengthAdjust="spacing" textLength="182.5031" x="752.724" y="171.5766">OptionalTKind</text></g><!--reverse link EitherTMonad to MonadError--><g id="link_EitherTMonad_MonadError"><path codeLine="17" d="M388.0077,533.9872 C498.0777,515.8252 619.002,495.864 718.848,479.394 " fill="none" id="EitherTMonad-backto-MonadError" style="stroke:#F5BDE6;stroke-width:1.8;stroke-dasharray:7.0,7.0;"/><polygon fill="none" points="356.04,539.262,389.766,544.6431,386.2495,523.3313,356.04,539.262" style="stroke:#F5BDE6;stroke-width:1.8;"/></g><!--reverse link MaybeTMonad to MonadError--><g id="link_MaybeTMonad_MonadError"><path codeLine="18" d="M384.6994,449.5152 C494.9134,452.8272 617.526,456.516 718.506,459.54 " fill="none" id="MaybeTMonad-backto-MonadError" style="stroke:#F5BDE6;stroke-width:1.8;stroke-dasharray:7.0,7.0;"/><polygon fill="none" points="352.314,448.542,384.375,460.3103,385.0238,438.7201,352.314,448.542" style="stroke:#F5BDE6;stroke-width:1.8;"/></g><!--reverse link OptionalTMonad to MonadError--><g id="link_OptionalTMonad_MonadError"><path codeLine="19" d="M375.8416,362.5229 C486.4696,387.4169 615.114,416.358 718.578,439.65 " fill="none" id="OptionalTMonad-backto-MonadError" style="stroke:#F5BDE6;stroke-width:1.8;stroke-dasharray:7.0,7.0;"/><polygon fill="none" points="344.232,355.41,373.4706,373.0595,378.2126,351.9864,344.232,355.41" style="stroke:#F5BDE6;stroke-width:1.8;"/></g><!--reverse link ReaderTMonad to Monad--><g id="link_ReaderTMonad_Monad"><path codeLine="20" d="M430.9532,88.4016 C515.3372,94.1436 579.726,113.256 646.524,172.8 C662.778,187.29 648.63,201.654 660.924,219.6 C689.472,261.252 735.93,295.686 771.408,317.97 " fill="none" id="ReaderTMonad-backto-Monad" style="stroke:#F5BDE6;stroke-width:1.8;stroke-dasharray:7.0,7.0;"/><polygon fill="none" points="398.628,86.202,430.22,99.1767,431.6865,77.6265,398.628,86.202" style="stroke:#F5BDE6;stroke-width:1.8;"/></g><!--reverse link StateTMonad to Monad--><g id="link_StateTMonad_Monad"><path codeLine="21" d="M347.7539,247.0889 C389.2619,258.6809 407.322,263.142 452.124,273.6 C555.588,297.756 676.674,320.346 750.996,333.558 " fill="none" id="StateTMonad-backto-Monad" style="stroke:#F5BDE6;stroke-width:1.8;stroke-dasharray:7.0,7.0;"/><polygon fill="none" points="316.548,238.374,344.849,257.4909,350.6589,236.6869,316.548,238.374" style="stroke:#F5BDE6;stroke-width:1.8;"/></g><!--link OptionalTMonad to OptionalTKind--><g id="link_OptionalTMonad_OptionalTKind"><path codeLine="25" d="M322.434,299.808 C432.918,269.64 597.9094,224.6048 708.3934,194.4368 " fill="none" id="OptionalTMonad-to-OptionalTKind" style="stroke:#F5BDE6;stroke-width:1.8;stroke-dasharray:7.0,7.0;"/><polygon fill="#F5BDE6" points="718.812,191.592,701.2876,188.9135,710.1298,193.9627,705.0807,202.805,718.812,191.592" style="stroke:#F5BDE6;stroke-width:1.8;"/><text fill="#CAD3F5" font-family="Helvetica" font-size="21.6" lengthAdjust="spacing" textLength="192.1113" x="453.924" y="205.4344">operates on witness</text></g><!--SRC=[ZP9FIyGm4CNl_HHZBohOz2wo5waWkYgwU9NPTBODvX_9b7LHlxjfTzKig9XJcFnUvhrC3fILUcW9UcOVJ-iwu5fqYljXEKGAqbacoq8wKrlf8cEbP2sHlH-aLBOoA6Mla5tbDLeUZAwu9qErGMNhQIjygXP5hr8NCfutOCWiASH2qug17GJLzGoj2YHPELkCowDynewWN0IqSUM2eG2BZQS8HtDdiOLButMwtZAEedXSmci1QKcDCKBPf10K5XDxTd5oFIi18-JLd9xZPacVy1RDIZbvwyTsgFVX_MhEtnEscG-uVsfk7hUY_2YNFAH8dsOUJdOTic9wdf7Eiy3Pcn1mxW9Tfec55KgAOZffGd1XuhD0_y7t8_r7aUVvdP_GBCqVv3Rd8JGlE0uR0kbfs93-mxU_dzmACKllgCom4zpfmIoLxSGNTwLiMy8fE4yXUOcGgBLYIp4MxyK7]--></g></svg>