<svg xmlns="http://www.w3.org/2000/svg" xmlns:xlink="http://www.w3.org/1999/xlink" contentStyleType="text/css" height="283px" preserveAspectRatio="none" style="width:695px;height:283px;background:#24273A;" version="1.1" viewBox="0 0 695 283" width="695px" zoomAndPan="magnify"><defs/><g><rect fill="#24273A" height="283" style="stroke:none;stroke-width:1.0;" width="695" x="0" y="0"/><!--cluster Transformers--><g id="cluster_Transformers"><path d="M7.5,6 L87.8613,6 A2.25,2.25 0 0 1 89.3613,7.5 L96.3613,24 L686.64,24 A1.5,1.5 0 0 1 688.14,25.5 L688.14,274.5 A1.5,1.5 0 0 1 686.64,276 L7.5,276 A1.5,1.5 0 0 1 6,274.5 L6,7.5 A1.5,1.5 0 0 1 7.5,6 " fill="#24273A" style="stroke:#CAD3F5;stroke-width:1.5;"/><line style="stroke:#CAD3F5;stroke-width:1.5;" x1="6" x2="96.3613" y1="24" y2="24"/><text fill="#CAD3F5" font-family="Helvetica" font-size="12" font-weight="bold" lengthAdjust="spacing" textLength="77.3613" x="10" y="17.2402">Transformers</text></g><!--cluster CoreInterfaces--><g id="cluster_CoreInterfaces"><path d="M519.16,45 L606.1952,45 A2.25,2.25 0 0 1 607.6952,46.5 L614.6952,63 L662.64,63 A1.5,1.5 0 0 1 664.14,64.5 L664.14,250.5 A1.5,1.5 0 0 1 662.64,252 L519.16,252 A1.5,1.5 0 0 1 517.66,250.5 L517.66,46.5 A1.5,1.5 0 0 1 519.16,45 " fill="#24273A" style="stroke:#CAD3F5;stroke-width:1.5;"/><line style="stroke:#CAD3F5;stroke-width:1.5;" x1="517.66" x2="614.6952" y1="63" y2="63"/><text fill="#CAD3F5" font-family="Helvetica" font-size="12" font-weight="bold" lengthAdjust="spacing" textLength="84.0352" x="521.66" y="56.2402">CoreInterfaces</text></g><!--class EitherTMonad--><g id="elem_EitherTMonad"><rect codeLine="6" fill="#24273A" height="30" id="EitherTMonad" rx="1.5" ry="1.5" style="stroke:#C6A0F6;stroke-width:2.0;" width="155.1641" x="232.54" y="212"/><rect fill="#363A4F" height="30" rx="1.5" ry="1.5" style="stroke:#363A4F;stroke-width:2.0;" width="155.1641" x="232.54" y="212"/><rect fill="#363A4F" height="1.5" style="stroke:#363A4F;stroke-width:2.0;" width="155.1641" x="232.54" y="240.5"/><rect codeLine="6" fill="none" height="30" id="EitherTMonad" rx="1.5" ry="1.5" style="stroke:#C6A0F6;stroke-width:2.0;" width="155.1641" x="232.54" y="212"/><ellipse cx="246.54" cy="227" fill="#ADD1B2" rx="10" ry="10" style="stroke:#181818;stroke-width:1.0;"/><path d="M248.374,231.248 Q247.9638,231.459 247.5127,231.5645 Q247.0615,231.6699 246.5634,231.6699 Q244.7939,231.6699 243.8623,230.5039 Q242.9306,229.3379 242.9306,227.1348 Q242.9306,224.9258 243.8623,223.7598 Q244.7939,222.5938 246.5634,222.5938 Q247.0615,222.5938 247.5185,222.6992 Q247.9755,222.8047 248.374,223.0156 L248.374,224.9375 Q247.9287,224.5273 247.5097,224.3369 Q247.0908,224.1465 246.6455,224.1465 Q245.6963,224.1465 245.2129,224.8994 Q244.7295,225.6523 244.7295,227.1348 Q244.7295,228.6113 245.2129,229.3643 Q245.6963,230.1172 246.6455,230.1172 Q247.0908,230.1172 247.5097,229.9268 Q247.9287,229.7363 248.374,229.3262 Z " fill="#CAD3F5"/><text fill="#A6DA95" font-family="Helvetica" font-size="16" lengthAdjust="spacing" textLength="100.4922" x="259.54" y="231.3203">EitherTMonad</text><rect fill="#24273A" height="14" style="stroke:#C6A0F6;stroke-width:1.0;stroke-dasharray:2.0,2.0;" width="22.6719" x="368.0322" y="209"/><text fill="#CAD3F5" font-family="Helvetica" font-size="12" font-style="italic" lengthAdjust="spacing" textLength="20.6719" x="369.0322" y="219.2402">F, L</text></g><!--class EitherT--><g id="elem_EitherT"><rect codeLine="7" fill="#24273A" height="30" id="EitherT" rx="1.5" ry="1.5" style="stroke:#C6A0F6;stroke-width:2.0;" width="121.5762" x="22" y="85"/><rect fill="#363A4F" height="30" rx="1.5" ry="1.5" style="stroke:#363A4F;stroke-width:2.0;" width="121.5762" x="22" y="85"/><rect fill="#363A4F" height="1.5" style="stroke:#363A4F;stroke-width:2.0;" width="121.5762" x="22" y="113.5"/><rect codeLine="7" fill="none" height="30" id="EitherT" rx="1.5" ry="1.5" style="stroke:#C6A0F6;stroke-width:2.0;" width="121.5762" x="22" y="85"/><ellipse cx="36" cy="100" fill="#ADD1B2" rx="10" ry="10" style="stroke:#181818;stroke-width:1.0;"/><path d="M37.834,104.248 Q37.4238,104.459 36.9727,104.5645 Q36.5215,104.6699 36.0234,104.6699 Q34.2539,104.6699 33.3223,103.5039 Q32.3906,102.3379 32.3906,100.1348 Q32.3906,97.9258 33.3223,96.7598 Q34.2539,95.5938 36.0234,95.5938 Q36.5215,95.5938 36.9785,95.6992 Q37.4355,95.8047 37.834,96.0156 L37.834,97.9375 Q37.3887,97.5273 36.9697,97.3369 Q36.5508,97.1465 36.1055,97.1465 Q35.1563,97.1465 34.6729,97.8994 Q34.1895,98.6523 34.1895,100.1348 Q34.1895,101.6113 34.6729,102.3643 Q35.1563,103.1172 36.1055,103.1172 Q36.5508,103.1172 36.9697,102.9268 Q37.3887,102.7363 37.834,102.3262 Z " fill="#CAD3F5"/><text fill="#A6DA95" font-family="Helvetica" font-size="16" lengthAdjust="spacing" textLength="51.5703" x="49" y="104.3203">EitherT</text><rect fill="#24273A" height="14" style="stroke:#C6A0F6;stroke-width:1.0;stroke-dasharray:2.0,2.0;" width="38.0059" x="108.5703" y="82"/><text fill="#CAD3F5" font-family="Helvetica" font-size="12" font-style="italic" lengthAdjust="spacing" textLength="36.0059" x="109.5703" y="92.2402">F, L, R</text></g><!--class EitherTKind--><g id="elem_EitherTKind"><rect codeLine="8" fill="#24273A" height="56" id="EitherTKind" rx="1.5" ry="1.5" style="stroke:#C6A0F6;stroke-width:2.0;" width="211.0859" x="204.58" y="121"/><rect fill="#363A4F" height="30" rx="1.5" ry="1.5" style="stroke:#363A4F;stroke-width:2.0;" width="211.0859" x="204.58" y="121"/><rect fill="#363A4F" height="1.5" style="stroke:#363A4F;stroke-width:2.0;" width="211.0859" x="204.58" y="149.5"/><rect codeLine="8" fill="none" height="56" id="EitherTKind" rx="1.5" ry="1.5" style="stroke:#C6A0F6;stroke-width:2.0;" width="211.0859" x="204.58" y="121"/><ellipse cx="244.4488" cy="136" fill="#B4A7E5" rx="10" ry="10" style="stroke:#181818;stroke-width:1.0;"/><path d="M241.4567,133.2754 L241.4567,131.752 L246.6656,131.752 L246.6656,133.2754 L244.9254,133.2754 L244.9254,138.9766 L246.6656,138.9766 L246.6656,140.5 L241.4567,140.5 L241.4567,138.9766 L243.1969,138.9766 L243.1969,133.2754 Z " fill="#CAD3F5"/><text fill="#A6DA95" font-family="Helvetica" font-size="16" font-style="italic" lengthAdjust="spacing" textLength="83.5938" x="263.1975" y="140.3203">EitherTKind</text><rect fill="#24273A" height="14" style="stroke:#C6A0F6;stroke-width:1.0;stroke-dasharray:2.0,2.0;" width="38.0059" x="380.6601" y="118"/><text fill="#CAD3F5" font-family="Helvetica" font-size="12" font-style="italic" lengthAdjust="spacing" textLength="36.0059" x="381.6601" y="128.2402">F, L, R</text><line style="stroke:#C6A0F6;stroke-width:2.0;" x1="205.58" x2="414.6659" y1="151" y2="151"/><line style="stroke:#C6A0F6;stroke-width:2.0;" x1="205.58" x2="208.58" y1="165" y2="165"/><text fill="#A6DA95" font-family="Helvetica" font-size="12" lengthAdjust="spacing" textLength="203.0859" x="208.58" y="167.7402">Witness Type G = EitherTKind&lt;F,L,?&gt;</text><line style="stroke:#C6A0F6;stroke-width:2.0;" x1="411.6659" x2="414.6659" y1="165" y2="165"/></g><!--class MonadError--><g id="elem_MonadError"><rect fill="#24273A" height="30" id="MonadError" rx="1.5" ry="1.5" style="stroke:#C6A0F6;stroke-width:2.0;" width="114.4766" x="533.66" y="206"/><rect fill="#363A4F" height="30" rx="1.5" ry="1.5" style="stroke:#363A4F;stroke-width:2.0;" width="114.4766" x="533.66" y="206"/><rect fill="#363A4F" height="1.5" style="stroke:#363A4F;stroke-width:2.0;" width="114.4766" x="533.66" y="234.5"/><rect fill="none" height="30" id="MonadError" rx="1.5" ry="1.5" style="stroke:#C6A0F6;stroke-width:2.0;" width="114.4766" x="533.66" y="206"/><ellipse cx="547.66" cy="221" fill="#ADD1B2" rx="10" ry="10" style="stroke:#181818;stroke-width:1.0;"/><path d="M549.494,225.248 Q549.0838,225.459 548.6327,225.5645 Q548.1815,225.6699 547.6834,225.6699 Q545.9139,225.6699 544.9823,224.5039 Q544.0506,223.3379 544.0506,221.1348 Q544.0506,218.9258 544.9823,217.7598 Q545.9139,216.5938 547.6834,216.5938 Q548.1815,216.5938 548.6385,216.6992 Q549.0955,216.8047 549.494,217.0156 L549.494,218.9375 Q549.0487,218.5273 548.6297,218.3369 Q548.2108,218.1465 547.7655,218.1465 Q546.8163,218.1465 546.3329,218.8994 Q545.8495,219.6523 545.8495,221.1348 Q545.8495,222.6113 546.3329,223.3643 Q546.8163,224.1172 547.7655,224.1172 Q548.2108,224.1172 548.6297,223.9268 Q549.0487,223.7363 549.494,223.3262 Z " fill="#CAD3F5"/><text fill="#A6DA95" font-family="Helvetica" font-size="16" lengthAdjust="spacing" textLength="84.4766" x="560.66" y="225.3203">MonadError</text></g><!--class Kind--><g id="elem_Kind"><rect fill="#24273A" height="30" id="Kind" rx="1.5" ry="1.5" style="stroke:#C6A0F6;stroke-width:2.0;" width="62.0234" x="559.89" y="76"/><rect fill="#363A4F" height="30" rx="1.5" ry="1.5" style="stroke:#363A4F;stroke-width:2.0;" width="62.0234" x="559.89" y="76"/><rect fill="#363A4F" height="1.5" style="stroke:#363A4F;stroke-width:2.0;" width="62.0234" x="559.89" y="104.5"/><rect fill="none" height="30" id="Kind" rx="1.5" ry="1.5" style="stroke:#C6A0F6;stroke-width:2.0;" width="62.0234" x="559.89" y="76"/><ellipse cx="573.89" cy="91" fill="#ADD1B2" rx="10" ry="10" style="stroke:#181818;stroke-width:1.0;"/><path d="M575.724,95.248 Q575.3138,95.459 574.8627,95.5645 Q574.4115,95.6699 573.9134,95.6699 Q572.1439,95.6699 571.2123,94.5039 Q570.2806,93.3379 570.2806,91.1348 Q570.2806,88.9258 571.2123,87.7598 Q572.1439,86.5938 573.9134,86.5938 Q574.4115,86.5938 574.8685,86.6992 Q575.3255,86.8047 575.724,87.0156 L575.724,88.9375 Q575.2787,88.5273 574.8597,88.3369 Q574.4408,88.1465 573.9955,88.1465 Q573.0463,88.1465 572.5629,88.8994 Q572.0795,89.6523 572.0795,91.1348 Q572.0795,92.6113 572.5629,93.3643 Q573.0463,94.1172 573.9955,94.1172 Q574.4408,94.1172 574.8597,93.9268 Q575.2787,93.7363 575.724,93.3262 Z " fill="#CAD3F5"/><text fill="#A6DA95" font-family="Helvetica" font-size="16" lengthAdjust="spacing" textLength="32.0234" x="586.89" y="95.3203">Kind</text></g><!--class Monad--><g id="elem_Monad"><rect fill="#24273A" height="30" id="Monad" rx="1.5" ry="1.5" style="stroke:#C6A0F6;stroke-width:2.0;" width="78.9219" x="551.44" y="141"/><rect fill="#363A4F" height="30" rx="1.5" ry="1.5" style="stroke:#363A4F;stroke-width:2.0;" width="78.9219" x="551.44" y="141"/><rect fill="#363A4F" height="1.5" style="stroke:#363A4F;stroke-width:2.0;" width="78.9219" x="551.44" y="169.5"/><rect fill="none" height="30" id="Monad" rx="1.5" ry="1.5" style="stroke:#C6A0F6;stroke-width:2.0;" width="78.9219" x="551.44" y="141"/><ellipse cx="565.44" cy="156" fill="#ADD1B2" rx="10" ry="10" style="stroke:#181818;stroke-width:1.0;"/><path d="M567.274,160.248 Q566.8638,160.459 566.4127,160.5645 Q565.9615,160.6699 565.4634,160.6699 Q563.6939,160.6699 562.7623,159.5039 Q561.8306,158.3379 561.8306,156.1348 Q561.8306,153.9258 562.7623,152.7598 Q563.6939,151.5938 565.4634,151.5938 Q565.9615,151.5938 566.4185,151.6992 Q566.8755,151.8047 567.274,152.0156 L567.274,153.9375 Q566.8287,153.5273 566.4097,153.3369 Q565.9908,153.1465 565.5455,153.1465 Q564.5963,153.1465 564.1129,153.8994 Q563.6295,154.6523 563.6295,156.1348 Q563.6295,157.6113 564.1129,158.3643 Q564.5963,159.1172 565.5455,159.1172 Q565.9908,159.1172 566.4097,158.9268 Q566.8287,158.7363 567.274,158.3262 Z " fill="#CAD3F5"/><text fill="#A6DA95" font-family="Helvetica" font-size="16" lengthAdjust="spacing" textLength="48.9219" x="578.44" y="160.3203">Monad</text></g><!--reverse link EitherTMonad to MonadError--><g id="link_EitherTMonad_MonadError"><path codeLine="12" d="M406.0358,224.9535 C452.1258,223.9635 491.71,223.11 533.57,222.21 " fill="none" id="EitherTMonad-backto-MonadError" style="stroke:#F5BDE6;stroke-width:1.0;stroke-dasharray:7.0,7.0;"/><polygon fill="none" points="388.04,225.34,406.1647,230.9521,405.907,218.9548,388.04,225.34" style="stroke:#F5BDE6;stroke-width:1.0;"/></g><!--reverse link EitherT to EitherTKind--><g id="link_EitherT_EitherTKind"><path codeLine="13" d="M161.4696,116.8918 C180.1096,120.9418 183.64,121.71 204.4,126.23 " fill="none" id="EitherT-backto-EitherTKind" style="stroke:#F5BDE6;stroke-width:1.0;stroke-dasharray:7.0,7.0;"/><polygon fill="none" points="143.88,113.07,160.1957,122.755,162.7435,111.0286,143.88,113.07" style="stroke:#F5BDE6;stroke-width:1.0;"/></g><!--reverse link EitherTKind to Kind--><g id="link_EitherTKind_Kind"><path codeLine="14" d="M433.742,123.4905 C484.982,112.8205 525.22,104.46 559.57,97.31 " fill="none" id="EitherTKind-backto-Kind" style="stroke:#F5BDE6;stroke-width:1.0;stroke-dasharray:7.0,7.0;"/><polygon fill="none" points="416.12,127.16,434.9652,129.3645,432.5188,117.6165,416.12,127.16" style="stroke:#F5BDE6;stroke-width:1.0;"/></g><!--link EitherTMonad to Monad--><g id="link_EitherTMonad_Monad"><path codeLine="15" d="M371.95,211.51 C426.43,197.63 498.8455,179.1905 545.2655,167.3705 " fill="none" id="EitherTMonad-to-Monad" style="stroke:#F5BDE6;stroke-width:1.0;stroke-dasharray:7.0,7.0;"/><polygon fill="#F5BDE6" points="551.08,165.89,541.3713,164.2345,546.2346,167.1238,543.3453,171.9871,551.08,165.89" style="stroke:#F5BDE6;stroke-width:1.0;"/><text fill="#CAD3F5" font-family="Helvetica" font-size="12" lengthAdjust="spacing" textLength="54.0176" x="446.66" y="175.2102">requires F</text></g><!--link EitherT to Kind--><g id="link_EitherT_Kind"><path codeLine="16" d="M143.83,98.93 C252.5,97 472.0709,93.0966 553.6409,91.6466 " fill="none" id="EitherT-to-Kind" style="stroke:#F5BDE6;stroke-width:1.0;stroke-dasharray:7.0,7.0;"/><polygon fill="#F5BDE6" points="559.64,91.54,550.5703,87.7006,554.6408,91.6289,550.7125,95.6993,559.64,91.54" style="stroke:#F5BDE6;stroke-width:1.0;"/><text fill="#CAD3F5" font-family="Helvetica" font-size="12" lengthAdjust="spacing" textLength="206.1035" x="207.12" y="90.3702">widens/narrows  Kind&lt;F, Either&lt;L,R&gt;&gt;</text></g><!--SRC=[RP7DRi8m48JlVeejvyI-8veUAgYgqWj2wX4jpa8iuf_Q6o7Kzjrh4b4HDRxOslrcPsm_6AVRhYPec4EQAnNnB8-6csxV9OhQEoR7KdkhdFQ9iJHQQUGGEgsDAorgtHXaNuOM7NUsBRaXIygYSQe_of2hGhHqO60FqHmRXjf4qcoy4ut9xcG3Ny2ItLDC8g0-uP5W6z6bWuys5-5Bm7Nf5bE2sJ97fBXzzmxhnQg0TJK3J71Vdk9xj83DY1v0asyQ3wZf3tuphfuKN1ktF7djTl1Xs57ssLu2mGiymdZ4kdYgCZOeViImtsU5nRUKyEmZlTvY9DbtbZ7wE18Cx9t1gDjdcvhsZnoCfQmcVM4EaJwx_4q9LcF_2KdlEeTp_akNbCCS-fm0RYyuA1VhObDL8j__5m00]--></g></svg>