<?xml version="1.0" encoding="UTF-8" standalone="no"?><svg xmlns="http://www.w3.org/2000/svg" xmlns:xlink="http://www.w3.org/1999/xlink" contentScriptType="application/ecmascript" contentStyleType="text/css" height="320px" preserveAspectRatio="none" style="width:1400px;height:320px;background:#24273A;" version="1.1" viewBox="0 0 1400 320" width="1400px" zoomAndPan="magnify"><defs/><g>
<!--class Free--><g id="elem_Free"><rect codeLine="2" fill="#24273A" height="140" id="Free" rx="1.5" ry="1.5" style="stroke:#C6A0F6;stroke-width:2.0;" width="450" x="400" y="8"/><rect fill="#363A4F" height="30" rx="1.5" ry="1.5" style="stroke:#363A4F;stroke-width:2.0;" width="450" x="400" y="8"/><rect fill="#363A4F" height="1.5" style="stroke:#363A4F;stroke-width:2.0;" width="450" x="400" y="36.5"/><ellipse cx="520" cy="23" fill="#B4A7E5" rx="10" ry="10" style="stroke:#181818;stroke-width:1.0;"/><text fill="#CAD3F5" font-family="Helvetica" font-size="12" font-style="italic" lengthAdjust="spacing" textLength="116" x="540" y="20">«sealed interface»</text><text fill="#A6DA95" font-family="Helvetica" font-size="16" font-style="italic" lengthAdjust="spacing" textLength="70" x="560" y="33">Free&lt;F, A&gt;</text><line style="stroke:#C6A0F6;stroke-width:2.0;" x1="401" x2="849" y1="38" y2="38"/><ellipse cx="411" cy="50" fill="#84BE84" rx="3" ry="3" style="stroke:#038048;stroke-width:1.0;"/><text fill="#A6DA95" font-family="Helvetica" font-size="12" text-decoration="underline" lengthAdjust="spacing" textLength="200" x="420" y="53">Free&lt;F, A&gt; pure(A value)</text><ellipse cx="411" cy="66" fill="#84BE84" rx="3" ry="3" style="stroke:#038048;stroke-width:1.0;"/><text fill="#A6DA95" font-family="Helvetica" font-size="12" text-decoration="underline" lengthAdjust="spacing" textLength="350" x="420" y="69">Free&lt;F, A&gt; suspend(Kind&lt;F, Free&lt;F, A&gt;&gt; computation)</text><ellipse cx="411" cy="82" fill="#84BE84" rx="3" ry="3" style="stroke:#038048;stroke-width:1.0;"/><text fill="#A6DA95" font-family="Helvetica" font-size="12" text-decoration="underline" lengthAdjust="spacing" textLength="350" x="420" y="85">Free&lt;F, A&gt; liftF(Kind&lt;F, A&gt; fa, Functor&lt;F&gt; functor)</text><ellipse cx="411" cy="98" fill="#84BE84" rx="3" ry="3" style="stroke:#038048;stroke-width:1.0;"/><text fill="#A6DA95" font-family="Helvetica" font-size="12" lengthAdjust="spacing" textLength="300" x="420" y="101">Free&lt;F, B&gt; map(Function&lt;? super A, ? extends B&gt; f)</text><ellipse cx="411" cy="114" fill="#84BE84" rx="3" ry="3" style="stroke:#038048;stroke-width:1.0;"/><text fill="#A6DA95" font-family="Helvetica" font-size="12" lengthAdjust="spacing" textLength="280" x="420" y="117">Free&lt;F, B&gt; flatMap(Function&lt;A, Free&lt;F, B&gt;&gt; f)</text><ellipse cx="411" cy="130" fill="#84BE84" rx="3" ry="3" style="stroke:#038048;stroke-width:1.0;"/><text fill="#A6DA95" font-family="Helvetica" font-size="12" lengthAdjust="spacing" textLength="400" x="420" y="133">Kind&lt;M, A&gt; foldMap(Function&lt;...&gt; transform, Monad&lt;M&gt; monad)</text></g>

<!--class Pure--><g id="elem_Pure"><rect fill="#24273A" height="58" id="Pure" rx="1.5" ry="1.5" style="stroke:#C6A0F6;stroke-width:2.0;" width="120" x="100" y="228"/><rect fill="#363A4F" height="30" rx="1.5" ry="1.5" style="stroke:#363A4F;stroke-width:2.0;" width="120" x="100" y="228"/><rect fill="#363A4F" height="1.5" style="stroke:#363A4F;stroke-width:2.0;" width="120" x="100" y="256.5"/><ellipse cx="115" cy="243" fill="#ADD1B2" rx="10" ry="10" style="stroke:#181818;stroke-width:1.0;"/><text fill="#CAD3F5" font-family="Helvetica" font-size="12" font-style="italic" lengthAdjust="spacing" textLength="55" x="130" y="240">«record»</text><text fill="#A6DA95" font-family="Helvetica" font-size="12" lengthAdjust="spacing" textLength="60" x="130" y="254">Pure&lt;F, A&gt;</text><line style="stroke:#C6A0F6;stroke-width:2.0;" x1="101" x2="219" y1="258" y2="258"/><ellipse cx="111" cy="270" fill="none" rx="3" ry="3" style="stroke:#038048;stroke-width:1.0;"/><text fill="#A6DA95" font-family="Helvetica" font-size="11" lengthAdjust="spacing" textLength="50" x="120" y="273">A value</text></g>

<!--class Suspend--><g id="elem_Suspend"><rect fill="#24273A" height="58" id="Suspend" rx="1.5" ry="1.5" style="stroke:#C6A0F6;stroke-width:2.0;" width="280" x="495" y="228"/><rect fill="#363A4F" height="30" rx="1.5" ry="1.5" style="stroke:#363A4F;stroke-width:2.0;" width="280" x="495" y="228"/><rect fill="#363A4F" height="1.5" style="stroke:#363A4F;stroke-width:2.0;" width="280" x="495" y="256.5"/><ellipse cx="540" cy="243" fill="#ADD1B2" rx="10" ry="10" style="stroke:#181818;stroke-width:1.0;"/><text fill="#CAD3F5" font-family="Helvetica" font-size="12" font-style="italic" lengthAdjust="spacing" textLength="55" x="555" y="240">«record»</text><text fill="#A6DA95" font-family="Helvetica" font-size="12" lengthAdjust="spacing" textLength="90" x="545" y="254">Suspend&lt;F, A&gt;</text><line style="stroke:#C6A0F6;stroke-width:2.0;" x1="496" x2="774" y1="258" y2="258"/><ellipse cx="506" cy="270" fill="none" rx="3" ry="3" style="stroke:#038048;stroke-width:1.0;"/><text fill="#A6DA95" font-family="Helvetica" font-size="11" lengthAdjust="spacing" textLength="220" x="515" y="273">Kind&lt;F, Free&lt;F, A&gt;&gt; computation</text></g>

<!--class FlatMapped--><g id="elem_FlatMapped"><rect fill="#24273A" height="72" id="FlatMapped" rx="1.5" ry="1.5" style="stroke:#C6A0F6;stroke-width:2.0;" width="300" x="900" y="220"/><rect fill="#363A4F" height="30" rx="1.5" ry="1.5" style="stroke:#363A4F;stroke-width:2.0;" width="300" x="900" y="220"/><rect fill="#363A4F" height="1.5" style="stroke:#363A4F;stroke-width:2.0;" width="300" x="900" y="248.5"/><ellipse cx="940" cy="235" fill="#ADD1B2" rx="10" ry="10" style="stroke:#181818;stroke-width:1.0;"/><text fill="#CAD3F5" font-family="Helvetica" font-size="12" font-style="italic" lengthAdjust="spacing" textLength="55" x="955" y="232">«record»</text><text fill="#A6DA95" font-family="Helvetica" font-size="12" lengthAdjust="spacing" textLength="120" x="955" y="246">FlatMapped&lt;F, X, A&gt;</text><line style="stroke:#C6A0F6;stroke-width:2.0;" x1="901" x2="1199" y1="250" y2="250"/><ellipse cx="911" cy="262" fill="none" rx="3" ry="3" style="stroke:#038048;stroke-width:1.0;"/><text fill="#A6DA95" font-family="Helvetica" font-size="11" lengthAdjust="spacing" textLength="100" x="920" y="265">Free&lt;F, X&gt; sub</text><ellipse cx="911" cy="278" fill="none" rx="3" ry="3" style="stroke:#038048;stroke-width:1.0;"/><text fill="#A6DA95" font-family="Helvetica" font-size="11" lengthAdjust="spacing" textLength="250" x="920" y="281">Function&lt;X, Free&lt;F, A&gt;&gt; continuation</text></g>

<!--links--><path d="M160,227 L160,200 L625,200 L625,148" fill="none" id="Pure-to-Free" style="stroke:#F5BDE6;stroke-width:1.0;"/><polygon fill="none" points="160,227,154,209,166,209,160,227" style="stroke:#F5BDE6;stroke-width:1.0;"/><text fill="#CAD3F5" font-family="Helvetica" font-size="12" x="400" y="195">implements</text>

<path d="M635,227 L635,148" fill="none" id="Suspend-to-Free" style="stroke:#F5BDE6;stroke-width:1.0;"/><polygon fill="none" points="635,227,629,209,641,209,635,227" style="stroke:#F5BDE6;stroke-width:1.0;"/><text fill="#CAD3F5" font-family="Helvetica" font-size="12" x="640" y="185">implements</text>

<path d="M1050,219 L1050,190 L625,190 L625,148" fill="none" id="FlatMapped-to-Free" style="stroke:#F5BDE6;stroke-width:1.0;"/><polygon fill="none" points="1050,219,1044,201,1056,201,1050,219" style="stroke:#F5BDE6;stroke-width:1.0;"/><text fill="#CAD3F5" font-family="Helvetica" font-size="12" x="800" y="185">implements</text>

<!--SRC=[...]-->
</g></svg>
