<svg xmlns="http://www.w3.org/2000/svg" xmlns:xlink="http://www.w3.org/1999/xlink" contentStyleType="text/css" data-diagram-type="CLASS" height="441px" preserveAspectRatio="none" style="width:640px;height:441px;background:#24273A;" version="1.1" viewBox="0 0 640 441" width="640px" zoomAndPan="magnify"><defs/><g><rect fill="#24273A" height="441" style="stroke:none;stroke-width:1;" width="640" x="0" y="0"/><!--class Kind--><g class="entity" data-entity="Kind" data-source-line="6" data-uid="ent0002" id="entity_Kind"><rect fill="#24273A" height="48.1362" rx="1.5" ry="1.5" style="stroke:#C6A0F6;stroke-width:2;" width="249.9255" x="7" y="10.016"/><rect fill="#363A4F" height="48.1362" rx="1.5" ry="1.5" style="stroke:#363A4F;stroke-width:2;" width="249.9255" x="7" y="10.016"/><rect fill="#363A4F" height="1.5" style="stroke:#363A4F;stroke-width:2;" width="249.9255" x="7" y="56.6522"/><rect fill="none" height="48.1362" rx="1.5" ry="1.5" style="stroke:#C6A0F6;stroke-width:2;" width="249.9255" x="7" y="10.016"/><ellipse cx="21" cy="34.0841" fill="#B4A7E5" rx="10" ry="10" style="stroke:#181818;stroke-width:1;"/><path d="M18.5781,38.5841 L18.5781,37.381 L20.25,37.1935 L20.25,31.4122 L18.5781,31.2091 L18.5781,30.0216 L23.625,30.0216 L23.625,31.2091 L21.9219,31.4122 L21.9219,37.1935 L23.625,37.381 L23.625,38.5841 L18.5781,38.5841 Z " fill="#CAD3F5"/><text fill="#CAD3F5" font-family="Helvetica" font-size="12" font-style="italic" lengthAdjust="spacing" textLength="70.4405" x="32" y="27.8441">&#171;HKT Bridge&#187;</text><text fill="#A6DA95" font-family="Helvetica" font-size="16" font-style="italic" lengthAdjust="spacing" textLength="31.6481" x="51.3962" y="48.4642">Kind</text><rect fill="#24273A" height="18.3441" style="stroke:#C6A0F6;stroke-width:1;stroke-dasharray:2,2;" width="151.485" x="108.4405" y="7.016"/><text fill="#CAD3F5" font-family="Helvetica" font-size="12" font-style="italic" lengthAdjust="spacing" textLength="149.485" x="109.4405" y="20.8441">F extends WitnessArity&lt;?&gt;, A</text></g><g class="entity" data-entity="WitnessNote" data-source-line="8" data-uid="ent0003" id="entity_WitnessNote"><path d="M292.22,14.236 L292.22,53.9243 A1.5,1.5 0 0 0 293.72,55.4243 L486.2132,55.4243 A1.5,1.5 0 0 0 487.7132,53.9243 L487.7132,22.736 L477.7132,12.736 L293.72,12.736 A1.5,1.5 0 0 0 292.22,14.236" fill="#EED49F" style="stroke:#24273A;stroke-width:0.5;"/><path d="M477.7132,12.736 L477.7132,21.986 A0.75,0.75 0 0 0 478.4632,22.736 L487.7132,22.736 L477.7132,12.736" fill="#EED49F" style="stroke:#24273A;stroke-width:1;"/><text fill="#24273A" font-family="Helvetica" font-size="12" lengthAdjust="spacing" textLength="114.4328" x="298.22" y="30.5641">Witness implements</text><text fill="#24273A" font-family="Helvetica" font-size="12" lengthAdjust="spacing" textLength="174.4932" x="298.22" y="46.9082">WitnessArity&lt;TypeArity.Unary&gt;</text></g><!--class LazyKind--><g class="entity" data-entity="LazyKind" data-source-line="10" data-uid="ent0004" id="entity_LazyKind"><rect fill="#24273A" height="31.792" rx="1.5" ry="1.5" style="stroke:#C6A0F6;stroke-width:2;" width="103.7202" x="80.1" y="139.496"/><rect fill="#363A4F" height="31.792" rx="1.5" ry="1.5" style="stroke:#363A4F;stroke-width:2;" width="103.7202" x="80.1" y="139.496"/><rect fill="#363A4F" height="1.5" style="stroke:#363A4F;stroke-width:2;" width="103.7202" x="80.1" y="169.7881"/><rect fill="none" height="31.792" rx="1.5" ry="1.5" style="stroke:#C6A0F6;stroke-width:2;" width="103.7202" x="80.1" y="139.496"/><ellipse cx="94.1" cy="155.392" fill="#B4A7E5" rx="10" ry="10" style="stroke:#181818;stroke-width:1;"/><path d="M91.6781,159.892 L91.6781,158.6889 L93.35,158.5014 L93.35,152.7202 L91.6781,152.517 L91.6781,151.3295 L96.725,151.3295 L96.725,152.517 L95.0219,152.7202 L95.0219,158.5014 L96.725,158.6889 L96.725,159.892 L91.6781,159.892 Z " fill="#CAD3F5"/><text fill="#A6DA95" font-family="Helvetica" font-size="16" font-style="italic" lengthAdjust="spacing" textLength="62.9761" x="107.1" y="161.6001">LazyKind</text><rect fill="#24273A" height="18.3441" style="stroke:#C6A0F6;stroke-width:1;stroke-dasharray:2,2;" width="8.744" x="178.0761" y="136.496"/><text fill="#CAD3F5" font-family="Helvetica" font-size="12" font-style="italic" lengthAdjust="spacing" textLength="6.744" x="179.0761" y="150.3241">A</text></g><!--class Lazy--><g class="entity" data-entity="Lazy" data-source-line="14" data-uid="ent0006" id="entity_Lazy"><rect fill="#24273A" height="31.792" rx="1.5" ry="1.5" style="stroke:#C6A0F6;stroke-width:2;" width="73.7841" x="239.07" y="403.766"/><rect fill="#363A4F" height="31.792" rx="1.5" ry="1.5" style="stroke:#363A4F;stroke-width:2;" width="73.7841" x="239.07" y="403.766"/><rect fill="#363A4F" height="1.5" style="stroke:#363A4F;stroke-width:2;" width="73.7841" x="239.07" y="434.0581"/><rect fill="none" height="31.792" rx="1.5" ry="1.5" style="stroke:#C6A0F6;stroke-width:2;" width="73.7841" x="239.07" y="403.766"/><ellipse cx="253.07" cy="419.662" fill="#ADD1B2" rx="10" ry="10" style="stroke:#181818;stroke-width:1;"/><path d="M252.7888,424.287 Q251.5388,424.287 250.7419,423.7714 Q249.945,423.2402 249.5544,422.287 Q249.1638,421.3339 249.1638,420.0527 Q249.1638,418.6308 249.6325,417.6152 Q250.1013,416.5839 251.0075,416.037 Q251.9138,415.4745 253.2263,415.4745 Q253.8513,415.4745 254.32,415.5995 Q254.8044,415.7245 255.2888,415.9589 L254.7106,417.3964 Q254.2731,417.162 253.8825,417.0839 Q253.5075,417.0058 253.1638,417.0058 Q252.3356,417.0058 251.8356,417.3808 Q251.3513,417.7402 251.1325,418.412 Q250.9294,419.0839 250.9294,419.9902 Q250.9294,421.3964 251.4294,422.0839 Q251.945,422.7558 253.07,422.7558 Q253.4919,422.7558 253.9294,422.6464 Q254.3669,422.537 254.9606,422.2714 L254.9606,423.8339 Q254.445,424.0683 253.8825,424.1777 Q253.32,424.287 252.7888,424.287 Z " fill="#CAD3F5"/><text fill="#A6DA95" font-family="Helvetica" font-size="16" lengthAdjust="spacing" textLength="33.0401" x="266.07" y="425.8701">Lazy</text><rect fill="#24273A" height="18.3441" style="stroke:#C6A0F6;stroke-width:1;stroke-dasharray:2,2;" width="8.744" x="307.1101" y="400.766"/><text fill="#CAD3F5" font-family="Helvetica" font-size="12" font-style="italic" lengthAdjust="spacing" textLength="6.744" x="308.1101" y="414.5941">A</text></g><!--class LazyKindHelper--><g class="entity" data-entity="LazyKindHelper" data-source-line="19" data-uid="ent0008" id="entity_LazyKindHelper"><rect fill="#24273A" height="72.4803" rx="1.5" ry="1.5" style="stroke:#C6A0F6;stroke-width:2;" width="393.9305" x="240" y="119.146"/><rect fill="#363A4F" height="31.792" rx="1.5" ry="1.5" style="stroke:#363A4F;stroke-width:2;" width="393.9305" x="240" y="119.146"/><rect fill="#363A4F" height="1.5" style="stroke:#363A4F;stroke-width:2;" width="393.9305" x="240" y="149.4381"/><rect fill="none" height="72.4803" rx="1.5" ry="1.5" style="stroke:#C6A0F6;stroke-width:2;" width="393.9305" x="240" y="119.146"/><ellipse cx="374.3251" cy="135.042" fill="#ADD1B2" rx="10" ry="10" style="stroke:#181818;stroke-width:1;"/><path d="M374.0439,139.667 Q372.7939,139.667 371.997,139.1514 Q371.2001,138.6202 370.8095,137.667 Q370.4189,136.7139 370.4189,135.4327 Q370.4189,134.0108 370.8876,132.9952 Q371.3564,131.9639 372.2626,131.417 Q373.1689,130.8545 374.4814,130.8545 Q375.1064,130.8545 375.5751,130.9795 Q376.0595,131.1045 376.5439,131.3389 L375.9657,132.7764 Q375.5282,132.542 375.1376,132.4639 Q374.7626,132.3858 374.4189,132.3858 Q373.5907,132.3858 373.0907,132.7608 Q372.6064,133.1202 372.3876,133.792 Q372.1845,134.4639 372.1845,135.3702 Q372.1845,136.7764 372.6845,137.4639 Q373.2001,138.1358 374.3251,138.1358 Q374.747,138.1358 375.1845,138.0264 Q375.622,137.917 376.2157,137.6514 L376.2157,139.2139 Q375.7001,139.4483 375.1376,139.5577 Q374.5751,139.667 374.0439,139.667 Z " fill="#CAD3F5"/><text fill="#A6DA95" font-family="Helvetica" font-size="16" lengthAdjust="spacing" textLength="117.2802" x="393.3251" y="141.2501">LazyKindHelper</text><line style="stroke:#C6A0F6;stroke-width:2;" x1="241" x2="632.9305" y1="150.9381" y2="150.9381"/><ellipse cx="251" cy="164.6101" fill="#84BE84" rx="3" ry="3" style="stroke:#038048;stroke-width:1;"/><text fill="#A6DA95" font-family="Helvetica" font-size="12" lengthAdjust="spacing" text-decoration="underline" textLength="301.6581" x="259" y="167.7662">Kind&lt;LazyKind.Witness, A&gt; widen(@NonNull Lazy&lt;A&gt;)</text><ellipse cx="251" cy="180.9542" fill="#84BE84" rx="3" ry="3" style="stroke:#038048;stroke-width:1;"/><text fill="#A6DA95" font-family="Helvetica" font-size="12" lengthAdjust="spacing" text-decoration="underline" textLength="368.9305" x="259" y="184.1103">@NonNull Lazy&lt;A&gt; narrow(@Nullable Kind&lt;LazyKind.Witness, A&gt;)</text></g><!--class LazyHolder--><g class="entity" data-entity="LazyHolder" data-source-line="25" data-uid="ent0009" id="entity_LazyHolder"><rect fill="#24273A" height="56.1362" rx="1.5" ry="1.5" style="stroke:#C6A0F6;stroke-width:2;" width="204.5573" x="173.68" y="269.626"/><rect fill="#363A4F" height="31.792" rx="1.5" ry="1.5" style="stroke:#363A4F;stroke-width:2;" width="204.5573" x="173.68" y="269.626"/><rect fill="#363A4F" height="1.5" style="stroke:#363A4F;stroke-width:2;" width="204.5573" x="173.68" y="299.9181"/><rect fill="none" height="56.1362" rx="1.5" ry="1.5" style="stroke:#C6A0F6;stroke-width:2;" width="204.5573" x="173.68" y="269.626"/><ellipse cx="224.4985" cy="285.522" fill="#ADD1B2" rx="10" ry="10" style="stroke:#181818;stroke-width:1;"/><path d="M224.2173,290.147 Q222.9673,290.147 222.1704,289.6314 Q221.3735,289.1002 220.9829,288.147 Q220.5923,287.1939 220.5923,285.9127 Q220.5923,284.4908 221.061,283.4752 Q221.5298,282.4439 222.436,281.897 Q223.3423,281.3345 224.6548,281.3345 Q225.2798,281.3345 225.7485,281.4595 Q226.2329,281.5845 226.7173,281.8189 L226.1391,283.2564 Q225.7016,283.022 225.311,282.9439 Q224.936,282.8658 224.5923,282.8658 Q223.7641,282.8658 223.2641,283.2408 Q222.7798,283.6002 222.561,284.272 Q222.3579,284.9439 222.3579,285.8502 Q222.3579,287.2564 222.8579,287.9439 Q223.3735,288.6158 224.4985,288.6158 Q224.9204,288.6158 225.3579,288.5064 Q225.7954,288.397 226.3891,288.1314 L226.3891,289.6939 Q225.8735,289.9283 225.311,290.0377 Q224.7485,290.147 224.2173,290.147 Z " fill="#CAD3F5"/><text fill="#A6DA95" font-family="Helvetica" font-size="16" lengthAdjust="spacing" textLength="84.1762" x="243.4985" y="291.7301">LazyHolder</text><rect fill="#24273A" height="18.3441" style="stroke:#C6A0F6;stroke-width:1;stroke-dasharray:2,2;" width="8.744" x="372.4932" y="266.626"/><text fill="#CAD3F5" font-family="Helvetica" font-size="12" font-style="italic" lengthAdjust="spacing" textLength="6.744" x="373.4932" y="280.4541">A</text><line style="stroke:#C6A0F6;stroke-width:2;" x1="174.68" x2="377.2373" y1="301.4181" y2="301.4181"/><rect fill="none" height="6" style="stroke:#C82930;stroke-width:1;" width="6" x="181.68" y="312.0901"/><text fill="#A6DA95" font-family="Helvetica" font-size="12" lengthAdjust="spacing" textLength="179.5573" x="192.68" y="318.2462">@NonNull Lazy&lt;A&gt; lazyInstance</text></g><!--reverse link Kind to LazyKind--><g class="link" data-entity-1="Kind" data-entity-2="LazyKind" data-uid="lnk5" id="link_Kind_LazyKind"><path d="M131.96,76.366 C131.96,100.236 131.96,118.666 131.96,139.106" fill="none" id="Kind-backto-LazyKind" style="stroke:#F5BDE6;stroke-width:1;"/><polygon fill="none" points="131.96,58.366,125.96,76.366,137.96,76.366,131.96,58.366" style="stroke:#F5BDE6;stroke-width:1;"/></g><!--reverse link LazyKind to Lazy--><g class="link" data-entity-1="LazyKind" data-entity-2="Lazy" data-uid="lnk7" id="link_LazyKind_Lazy"><path d="M129.1641,189.5979 C126.8741,220.8379 126.72,275.436 155.96,325.766 C176.55,361.186 216.4,387.856 244.52,403.326" fill="none" id="LazyKind-backto-Lazy" style="stroke:#F5BDE6;stroke-width:1;stroke-dasharray:7,7;"/><polygon fill="none" points="130.48,171.646,123.1801,189.1592,135.148,190.0365,130.48,171.646" style="stroke:#F5BDE6;stroke-width:1;"/></g><!--reverse link LazyKind to LazyHolder--><g class="link" data-entity-1="LazyKind" data-entity-2="LazyHolder" data-source-line="26" data-uid="lnk10" id="link_LazyKind_LazyHolder"><path d="M160.5408,184.2289 C184.5208,207.5989 217.77,239.996 247.69,269.156" fill="none" id="LazyKind-backto-LazyHolder" style="stroke:#F5BDE6;stroke-width:1;stroke-dasharray:7,7;"/><polygon fill="none" points="147.65,171.666,156.3532,188.5259,164.7285,179.932,147.65,171.666" style="stroke:#F5BDE6;stroke-width:1;"/></g><!--link LazyKindHelper to LazyHolder--><g class="link" data-entity-1="LazyKindHelper" data-entity-2="LazyHolder" data-source-line="29" data-uid="lnk11" id="link_LazyKindHelper_LazyHolder"><path codeLine="29" d="M396.34,191.796 C368.76,215.826 337.363,243.1836 311.963,265.3236" fill="none" id="LazyKindHelper-to-LazyHolder" style="stroke:#F5BDE6;stroke-width:1;stroke-dasharray:7,7;"/><polygon fill="#F5BDE6" points="307.44,269.266,316.8527,266.3677,311.2091,265.9807,311.5961,260.3371,307.44,269.266" style="stroke:#F5BDE6;stroke-width:1;"/><text fill="#CAD3F5" font-family="Helvetica" font-size="12" lengthAdjust="spacing" textLength="41.0643" x="362.29" y="235.4541">creates</text></g><!--link LazyKindHelper to Lazy--><g class="link" data-entity-1="LazyKindHelper" data-entity-2="Lazy" data-source-line="30" data-uid="lnk12" id="link_LazyKindHelper_Lazy"><path codeLine="30" d="M435.19,191.826 C431.89,228.076 422.53,284.756 395.96,325.766 C373.48,360.486 338.6517,384.5831 311.0417,400.3331" fill="none" id="LazyKindHelper-to-Lazy" style="stroke:#F5BDE6;stroke-width:1;stroke-dasharray:7,7;"/><polygon fill="#F5BDE6" points="305.83,403.306,315.6295,402.321,310.1731,400.8285,311.6655,395.3721,305.83,403.306" style="stroke:#F5BDE6;stroke-width:1;"/><text fill="#CAD3F5" font-family="Helvetica" font-size="12" lengthAdjust="spacing" textLength="142.4411" x="421.52" y="302.5241">widens to / narrows from</text></g><!--link LazyHolder to Lazy--><g class="link" data-entity-1="LazyHolder" data-entity-2="Lazy" data-source-line="31" data-uid="lnk13" id="link_LazyHolder_Lazy"><path codeLine="31" d="M275.96,338.216 C275.96,362.156 275.96,377.956 275.96,397.356" fill="none" id="LazyHolder-Lazy" style="stroke:#F5BDE6;stroke-width:1;"/><polygon fill="none" points="275.96,326.216,271.96,332.216,275.96,338.216,279.96,332.216,275.96,326.216" style="stroke:#F5BDE6;stroke-width:1;"/><polygon fill="#F5BDE6" points="275.96,403.356,279.96,394.356,275.96,398.356,271.96,394.356,275.96,403.356" style="stroke:#F5BDE6;stroke-width:1;"/><text fill="#CAD3F5" font-family="Helvetica" font-size="12" lengthAdjust="spacing" textLength="30.9002" x="276.96" y="369.5941">holds</text></g><!--SRC=[VP51J-Cm48Nl_XK35nOjSUwe2dGFg8XLkR3Q2nVN6OWbUspP4tK3uh_l9BGe59LJdF6yzxuPdpYolcyHEkPKBkiwcwr-TjprcxvWjf4OYRMDeIOR2vlAsTeQJgctrb4LZBMTCnohv0rn7tp57GQiWt5KJqUTfAfKvoG5G-810eODvgAK4_VyP2p2dQDsSGFuJ-BQ0dyT4vQop8w7nLLp0Si65elLtGFyogvzngPHYY8ZdEuwmONa9OouFD8dzSEGS3hfFsJoq9o2-V1VYyMSuhTv6IOIYTkZJF_x2xqJJa2l2k0ClWB0j_dgJIdhZIX6qp5fffm1lBilBVV6JtMutVSPTf56dvdHg5gXJvY5woUybh7Blds3lvK7eH_NwqZhtlizpVbSV7W9Ca6EMn59qMmy7hS_LsTmB- -VGJRBCGzrzquNaBlO5gtrvqsiecyn7z-7Z5Lz1VBolINX9OkZty4gj6vcvd09DgDXBCVwf6DQIm6EKE_6BV2KOr0pdrXL7_sTb8hw3m00]--></g></svg>