<svg xmlns="http://www.w3.org/2000/svg" xmlns:xlink="http://www.w3.org/1999/xlink" contentStyleType="text/css" height="426px" preserveAspectRatio="none" style="width:1111px;height:426px;background:#24273A;" version="1.1" viewBox="0 0 1111 426" width="1111px" zoomAndPan="magnify"><defs/><g><rect fill="#24273A" height="426" style="stroke:none;stroke-width:1.0;" width="1111" x="0" y="0"/><!--class CompletableFutureKindHelper--><g id="elem_CompletableFutureKindHelper"><rect codeLine="4" fill="#24273A" height="30" id="CompletableFutureKindHelper" rx="1.5" ry="1.5" style="stroke:#C6A0F6;stroke-width:2.0;" width="245.2266" x="721.66" y="238"/><rect fill="#363A4F" height="30" rx="1.5" ry="1.5" style="stroke:#363A4F;stroke-width:2.0;" width="245.2266" x="721.66" y="238"/><rect fill="#363A4F" height="1.5" style="stroke:#363A4F;stroke-width:2.0;" width="245.2266" x="721.66" y="266.5"/><rect codeLine="4" fill="none" height="30" id="CompletableFutureKindHelper" rx="1.5" ry="1.5" style="stroke:#C6A0F6;stroke-width:2.0;" width="245.2266" x="721.66" y="238"/><ellipse cx="735.66" cy="253" fill="#ADD1B2" rx="10" ry="10" style="stroke:#181818;stroke-width:1.0;"/><path d="M737.494,257.248 Q737.0838,257.459 736.6327,257.5645 Q736.1815,257.6699 735.6834,257.6699 Q733.9139,257.6699 732.9823,256.5039 Q732.0506,255.3379 732.0506,253.1348 Q732.0506,250.9258 732.9823,249.7598 Q733.9139,248.5938 735.6834,248.5938 Q736.1815,248.5938 736.6385,248.6992 Q737.0955,248.8047 737.494,249.0156 L737.494,250.9375 Q737.0487,250.5273 736.6297,250.3369 Q736.2108,250.1465 735.7655,250.1465 Q734.8163,250.1465 734.3329,250.8994 Q733.8495,251.6523 733.8495,253.1348 Q733.8495,254.6113 734.3329,255.3643 Q734.8163,256.1172 735.7655,256.1172 Q736.2108,256.1172 736.6297,255.9268 Q737.0487,255.7363 737.494,255.3262 Z " fill="#CAD3F5"/><text fill="#A6DA95" font-family="Helvetica" font-size="16" lengthAdjust="spacing" textLength="215.2266" x="748.66" y="257.3203">CompletableFutureKindHelper</text></g><!--class CompletableFutureFunctor--><g id="elem_CompletableFutureFunctor"><rect codeLine="6" fill="#24273A" height="50" id="CompletableFutureFunctor" rx="1.5" ry="1.5" style="stroke:#C6A0F6;stroke-width:2.0;" width="521.1777" x="583.68" y="98"/><rect fill="#363A4F" height="30" rx="1.5" ry="1.5" style="stroke:#363A4F;stroke-width:2.0;" width="521.1777" x="583.68" y="98"/><rect fill="#363A4F" height="1.5" style="stroke:#363A4F;stroke-width:2.0;" width="521.1777" x="583.68" y="126.5"/><rect codeLine="6" fill="none" height="50" id="CompletableFutureFunctor" rx="1.5" ry="1.5" style="stroke:#C6A0F6;stroke-width:2.0;" width="521.1777" x="583.68" y="98"/><ellipse cx="745.1126" cy="113" fill="#ADD1B2" rx="10" ry="10" style="stroke:#181818;stroke-width:1.0;"/><path d="M746.9466,117.248 Q746.5364,117.459 746.0853,117.5645 Q745.6341,117.6699 745.1361,117.6699 Q743.3665,117.6699 742.4349,116.5039 Q741.5032,115.3379 741.5032,113.1348 Q741.5032,110.9258 742.4349,109.7598 Q743.3665,108.5938 745.1361,108.5938 Q745.6341,108.5938 746.0911,108.6992 Q746.5482,108.8047 746.9466,109.0156 L746.9466,110.9375 Q746.5013,110.5273 746.0823,110.3369 Q745.6634,110.1465 745.2181,110.1465 Q744.2689,110.1465 743.7855,110.8994 Q743.3021,111.6523 743.3021,113.1348 Q743.3021,114.6113 743.7855,115.3643 Q744.2689,116.1172 745.2181,116.1172 Q745.6634,116.1172 746.0823,115.9268 Q746.5013,115.7363 746.9466,115.3262 Z " fill="#CAD3F5"/><text fill="#A6DA95" font-family="Helvetica" font-size="16" lengthAdjust="spacing" textLength="190.3125" x="764.1126" y="117.3203">CompletableFutureFunctor</text><line style="stroke:#C6A0F6;stroke-width:2.0;" x1="584.68" x2="1103.8577" y1="128" y2="128"/><ellipse cx="594.68" cy="139.5" fill="#84BE84" rx="3" ry="3" style="stroke:#038048;stroke-width:1.0;"/><text fill="#A6DA95" font-family="Helvetica" font-size="12" lengthAdjust="spacing" textLength="496.1777" x="602.68" y="141.2402">Kind&lt;CFK, B&gt; map(Function&lt;A, B&gt;, Kind&lt;CFK, A&gt;) ' CFK = CompletableFutureKind.Witness</text></g><!--class Functor--><g id="elem_Functor"><rect fill="#24273A" height="30" id="Functor" rx="1.5" ry="1.5" style="stroke:#C6A0F6;stroke-width:2.0;" width="84.2422" x="802.15" y="7"/><rect fill="#363A4F" height="30" rx="1.5" ry="1.5" style="stroke:#363A4F;stroke-width:2.0;" width="84.2422" x="802.15" y="7"/><rect fill="#363A4F" height="1.5" style="stroke:#363A4F;stroke-width:2.0;" width="84.2422" x="802.15" y="35.5"/><rect fill="none" height="30" id="Functor" rx="1.5" ry="1.5" style="stroke:#C6A0F6;stroke-width:2.0;" width="84.2422" x="802.15" y="7"/><ellipse cx="816.15" cy="22" fill="#B4A7E5" rx="10" ry="10" style="stroke:#181818;stroke-width:1.0;"/><path d="M813.1578,19.2754 L813.1578,17.752 L818.3668,17.752 L818.3668,19.2754 L816.6266,19.2754 L816.6266,24.9766 L818.3668,24.9766 L818.3668,26.5 L813.1578,26.5 L813.1578,24.9766 L814.898,24.9766 L814.898,19.2754 Z " fill="#CAD3F5"/><text fill="#A6DA95" font-family="Helvetica" font-size="16" font-style="italic" lengthAdjust="spacing" textLength="54.2422" x="829.15" y="26.3203">Functor</text></g><!--class CompletableFutureApplicative--><g id="elem_CompletableFutureApplicative"><rect codeLine="11" fill="#24273A" height="62" id="CompletableFutureApplicative" rx="1.5" ry="1.5" style="stroke:#C6A0F6;stroke-width:2.0;" width="361.1699" x="320.69" y="222"/><rect fill="#363A4F" height="30" rx="1.5" ry="1.5" style="stroke:#363A4F;stroke-width:2.0;" width="361.1699" x="320.69" y="222"/><rect fill="#363A4F" height="1.5" style="stroke:#363A4F;stroke-width:2.0;" width="361.1699" x="320.69" y="250.5"/><rect codeLine="11" fill="none" height="62" id="CompletableFutureApplicative" rx="1.5" ry="1.5" style="stroke:#C6A0F6;stroke-width:2.0;" width="361.1699" x="320.69" y="222"/><ellipse cx="390.5523" cy="237" fill="#ADD1B2" rx="10" ry="10" style="stroke:#181818;stroke-width:1.0;"/><path d="M392.3863,241.248 Q391.9761,241.459 391.525,241.5645 Q391.0738,241.6699 390.5757,241.6699 Q388.8062,241.6699 387.8746,240.5039 Q386.9429,239.3379 386.9429,237.1348 Q386.9429,234.9258 387.8746,233.7598 Q388.8062,232.5938 390.5757,232.5938 Q391.0738,232.5938 391.5308,232.6992 Q391.9879,232.8047 392.3863,233.0156 L392.3863,234.9375 Q391.941,234.5273 391.522,234.3369 Q391.1031,234.1465 390.6578,234.1465 Q389.7086,234.1465 389.2252,234.8994 Q388.7418,235.6523 388.7418,237.1348 Q388.7418,238.6113 389.2252,239.3643 Q389.7086,240.1172 390.6578,240.1172 Q391.1031,240.1172 391.522,239.9268 Q391.941,239.7363 392.3863,239.3262 Z " fill="#CAD3F5"/><text fill="#A6DA95" font-family="Helvetica" font-size="16" lengthAdjust="spacing" textLength="213.4453" x="409.5523" y="241.3203">CompletableFutureApplicative</text><line style="stroke:#C6A0F6;stroke-width:2.0;" x1="321.69" x2="680.8599" y1="252" y2="252"/><ellipse cx="331.69" cy="263.5" fill="#84BE84" rx="3" ry="3" style="stroke:#038048;stroke-width:1.0;"/><text fill="#A6DA95" font-family="Helvetica" font-size="12" lengthAdjust="spacing" textLength="106.043" x="339.69" y="265.2402">Kind&lt;CFK, A&gt; of(A)</text><ellipse cx="331.69" cy="275.5" fill="#84BE84" rx="3" ry="3" style="stroke:#038048;stroke-width:1.0;"/><text fill="#A6DA95" font-family="Helvetica" font-size="12" lengthAdjust="spacing" textLength="336.1699" x="339.69" y="277.2402">Kind&lt;CFK, B&gt; ap(Kind&lt;CFK, Function&lt;A, B&gt;&gt;, Kind&lt;CFK, A&gt;)</text></g><!--class Applicative--><g id="elem_Applicative"><rect fill="#24273A" height="30" id="Applicative" rx="1.5" ry="1.5" style="stroke:#C6A0F6;stroke-width:2.0;" width="107.375" x="441.59" y="108"/><rect fill="#363A4F" height="30" rx="1.5" ry="1.5" style="stroke:#363A4F;stroke-width:2.0;" width="107.375" x="441.59" y="108"/><rect fill="#363A4F" height="1.5" style="stroke:#363A4F;stroke-width:2.0;" width="107.375" x="441.59" y="136.5"/><rect fill="none" height="30" id="Applicative" rx="1.5" ry="1.5" style="stroke:#C6A0F6;stroke-width:2.0;" width="107.375" x="441.59" y="108"/><ellipse cx="455.59" cy="123" fill="#B4A7E5" rx="10" ry="10" style="stroke:#181818;stroke-width:1.0;"/><path d="M452.5978,120.2754 L452.5978,118.752 L457.8068,118.752 L457.8068,120.2754 L456.0666,120.2754 L456.0666,125.9766 L457.8068,125.9766 L457.8068,127.5 L452.5978,127.5 L452.5978,125.9766 L454.338,125.9766 L454.338,120.2754 Z " fill="#CAD3F5"/><text fill="#A6DA95" font-family="Helvetica" font-size="16" font-style="italic" lengthAdjust="spacing" textLength="77.375" x="468.59" y="127.3203">Applicative</text></g><!--class CompletableFutureMonad--><g id="elem_CompletableFutureMonad"><rect codeLine="16" fill="#24273A" height="74" id="CompletableFutureMonad" rx="1.5" ry="1.5" style="stroke:#C6A0F6;stroke-width:2.0;" width="482.5469" x="7" y="345"/><rect fill="#363A4F" height="30" rx="1.5" ry="1.5" style="stroke:#363A4F;stroke-width:2.0;" width="482.5469" x="7" y="345"/><rect fill="#363A4F" height="1.5" style="stroke:#363A4F;stroke-width:2.0;" width="482.5469" x="7" y="373.5"/><rect codeLine="16" fill="none" height="74" id="CompletableFutureMonad" rx="1.5" ry="1.5" style="stroke:#C6A0F6;stroke-width:2.0;" width="482.5469" x="7" y="345"/><ellipse cx="151.7773" cy="360" fill="#ADD1B2" rx="10" ry="10" style="stroke:#181818;stroke-width:1.0;"/><path d="M153.6113,364.248 Q153.2012,364.459 152.75,364.5645 Q152.2988,364.6699 151.8008,364.6699 Q150.0313,364.6699 149.0996,363.5039 Q148.168,362.3379 148.168,360.1348 Q148.168,357.9258 149.0996,356.7598 Q150.0313,355.5938 151.8008,355.5938 Q152.2988,355.5938 152.7559,355.6992 Q153.2129,355.8047 153.6113,356.0156 L153.6113,357.9375 Q153.166,357.5273 152.7471,357.3369 Q152.3281,357.1465 151.8828,357.1465 Q150.9336,357.1465 150.4502,357.8994 Q149.9668,358.6523 149.9668,360.1348 Q149.9668,361.6113 150.4502,362.3643 Q150.9336,363.1172 151.8828,363.1172 Q152.3281,363.1172 152.7471,362.9268 Q153.166,362.7363 153.6113,362.3262 Z " fill="#CAD3F5"/><text fill="#A6DA95" font-family="Helvetica" font-size="16" lengthAdjust="spacing" textLength="184.9922" x="170.7773" y="364.3203">CompletableFutureMonad</text><line style="stroke:#C6A0F6;stroke-width:2.0;" x1="8" x2="488.5469" y1="375" y2="375"/><ellipse cx="18" cy="386.5" fill="#84BE84" rx="3" ry="3" style="stroke:#038048;stroke-width:1.0;"/><text fill="#A6DA95" font-family="Helvetica" font-size="12" lengthAdjust="spacing" textLength="362.1738" x="26" y="388.2402">Kind&lt;CFK, B&gt; flatMap(Function&lt;A, Kind&lt;CFK, B&gt;&gt;, Kind&lt;CFK, A&gt;)</text><ellipse cx="18" cy="398.5" fill="#84BE84" rx="3" ry="3" style="stroke:#038048;stroke-width:1.0;"/><text fill="#A6DA95" font-family="Helvetica" font-size="12" lengthAdjust="spacing" textLength="196.7344" x="26" y="400.2402">Kind&lt;CFK, A&gt; raiseError(Throwable)</text><ellipse cx="18" cy="410.5" fill="#84BE84" rx="3" ry="3" style="stroke:#038048;stroke-width:1.0;"/><text fill="#A6DA95" font-family="Helvetica" font-size="12" lengthAdjust="spacing" textLength="457.5469" x="26" y="412.2402">Kind&lt;CFK, A&gt; handleErrorWith(Kind&lt;CFK, A&gt;, Function&lt;Throwable, Kind&lt;CFK, A&gt;&gt;)</text></g><!--class MonadError--><g id="elem_MonadError"><rect fill="#24273A" height="30" id="MonadError" rx="1.5" ry="1.5" style="stroke:#C6A0F6;stroke-width:2.0;" width="114.4766" x="171.04" y="238"/><rect fill="#363A4F" height="30" rx="1.5" ry="1.5" style="stroke:#363A4F;stroke-width:2.0;" width="114.4766" x="171.04" y="238"/><rect fill="#363A4F" height="1.5" style="stroke:#363A4F;stroke-width:2.0;" width="114.4766" x="171.04" y="266.5"/><rect fill="none" height="30" id="MonadError" rx="1.5" ry="1.5" style="stroke:#C6A0F6;stroke-width:2.0;" width="114.4766" x="171.04" y="238"/><ellipse cx="185.04" cy="253" fill="#B4A7E5" rx="10" ry="10" style="stroke:#181818;stroke-width:1.0;"/><path d="M182.0478,250.2754 L182.0478,248.752 L187.2568,248.752 L187.2568,250.2754 L185.5166,250.2754 L185.5166,255.9766 L187.2568,255.9766 L187.2568,257.5 L182.0478,257.5 L182.0478,255.9766 L183.788,255.9766 L183.788,250.2754 Z " fill="#CAD3F5"/><text fill="#A6DA95" font-family="Helvetica" font-size="16" font-style="italic" lengthAdjust="spacing" textLength="84.4766" x="198.04" y="257.3203">MonadError</text></g><!--reverse link Functor to CompletableFutureFunctor--><g id="link_Functor_CompletableFutureFunctor"><path d="M844.27,55.18 C844.27,70.9 844.27,78.54 844.27,97.51 " fill="none" id="Functor-backto-CompletableFutureFunctor" style="stroke:#F5BDE6;stroke-width:1.0;stroke-dasharray:7.0,7.0;"/><polygon fill="none" points="844.27,37.18,838.27,55.18,850.27,55.18,844.27,37.18" style="stroke:#F5BDE6;stroke-width:1.0;"/></g><!--link CompletableFutureFunctor to CompletableFutureKindHelper--><g id="link_CompletableFutureFunctor_CompletableFutureKindHelper"><path codeLine="9" d="M844.27,148.38 C844.27,174.78 844.27,210.02 844.27,231.65 " fill="none" id="CompletableFutureFunctor-to-CompletableFutureKindHelper" style="stroke:#F5BDE6;stroke-width:1.0;stroke-dasharray:7.0,7.0;"/><polygon fill="#F5BDE6" points="844.27,237.65,848.27,228.65,844.27,232.65,840.27,228.65,844.27,237.65" style="stroke:#F5BDE6;stroke-width:1.0;"/><text fill="#CAD3F5" font-family="Helvetica" font-size="12" lengthAdjust="spacing" textLength="25.3477" x="845.27" y="188.2402">uses</text></g><!--reverse link CompletableFutureFunctor to CompletableFutureApplicative--><g id="link_CompletableFutureFunctor_CompletableFutureApplicative"><path d="M762.0854,154.6717 C706.3054,175.4817 642.67,199.23 582.7,221.61 " fill="none" id="CompletableFutureFunctor-backto-CompletableFutureApplicative" style="stroke:#F5BDE6;stroke-width:1.0;"/><polygon fill="none" points="778.95,148.38,759.9882,149.0502,764.1827,160.2932,778.95,148.38" style="stroke:#F5BDE6;stroke-width:1.0;"/></g><!--reverse link Applicative to CompletableFutureApplicative--><g id="link_Applicative_CompletableFutureApplicative"><path d="M496.783,156.1703 C497.723,176.2203 498.62,195.35 499.86,221.74 " fill="none" id="Applicative-backto-CompletableFutureApplicative" style="stroke:#F5BDE6;stroke-width:1.0;stroke-dasharray:7.0,7.0;"/><polygon fill="none" points="495.94,138.19,490.7895,156.4512,502.7764,155.8893,495.94,138.19" style="stroke:#F5BDE6;stroke-width:1.0;"/></g><!--reverse link CompletableFutureApplicative to CompletableFutureMonad--><g id="link_CompletableFutureApplicative_CompletableFutureMonad"><path d="M424.5846,292.4983 C388.4846,310.6283 358.52,325.66 320.53,344.73 " fill="none" id="CompletableFutureApplicative-backto-CompletableFutureMonad" style="stroke:#F5BDE6;stroke-width:1.0;"/><polygon fill="none" points="440.67,284.42,421.8918,287.1365,427.2774,297.8602,440.67,284.42" style="stroke:#F5BDE6;stroke-width:1.0;"/></g><!--reverse link MonadError to CompletableFutureMonad--><g id="link_MonadError_CompletableFutureMonad"><path d="M233.2918,285.8606 C236.1818,304.2006 238.53,319.16 242.55,344.68 " fill="none" id="MonadError-backto-CompletableFutureMonad" style="stroke:#F5BDE6;stroke-width:1.0;stroke-dasharray:7.0,7.0;"/><polygon fill="none" points="230.49,268.08,227.365,286.7945,239.2187,284.9266,230.49,268.08" style="stroke:#F5BDE6;stroke-width:1.0;"/></g><!--SRC=[ZP5TJy8m58Rl-okELux8jdk2IoQHc13kJBmkNRLD-fNsL3I4_sut38x1aBlsFT_FUoSDKx7X811Tc9MbfzlYGwA8cnYuPzOWDrWmgql3R42QIrOoYiv5ngJ9DMLCI8esTueQZ5hbABZcfQRIbDspS4abGgOXN3ly1itrXlj025Cq15XOxHH7kb5y6J5wlfAcUU7ASG-x_MZMCXg6reDiTPsM3F0hpIzsBDua6Xv21Ji23z1AyyLoDOMd2ZHrMLSihPdNhJJj9TJL1EuXFU4HhhOcUpAwPb5KLo-TGU8zpgHsJid4NNucYb_9a-Os9Bsw6x2SSAahiEzPFHd82LUYzVS_vJO4HyODN5j3c_5Z-XVt3kggdht_p-Ofl0fljstmakFlYk9wu7e_uUoE8HfFPU3T7jbnq7cMeAPHXxIqbyZwmHwwOuVJgGTyv0S0]--></g></svg>