<svg xmlns="http://www.w3.org/2000/svg" xmlns:xlink="http://www.w3.org/1999/xlink" contentStyleType="text/css" height="418px" preserveAspectRatio="none" style="width:772px;height:418px;background:#24273A;" version="1.1" viewBox="0 0 772 418" width="772px" zoomAndPan="magnify"><defs/><g><rect fill="#24273A" height="418" style="stroke:none;stroke-width:1.0;" width="772" x="0" y="0"/><!--class Kind--><g id="elem_Kind"><rect codeLine="4" fill="#24273A" height="38" id="Kind" rx="1.5" ry="1.5" style="stroke:#C6A0F6;stroke-width:2.0;" width="127.3711" x="48.36" y="10"/><rect fill="#363A4F" height="38" rx="1.5" ry="1.5" style="stroke:#363A4F;stroke-width:2.0;" width="127.3711" x="48.36" y="10"/><rect fill="#363A4F" height="1.5" style="stroke:#363A4F;stroke-width:2.0;" width="127.3711" x="48.36" y="46.5"/><rect codeLine="4" fill="none" height="38" id="Kind" rx="1.5" ry="1.5" style="stroke:#C6A0F6;stroke-width:2.0;" width="127.3711" x="48.36" y="10"/><ellipse cx="62.36" cy="29" fill="#B4A7E5" rx="10" ry="10" style="stroke:#181818;stroke-width:1.0;"/><path d="M59.3678,26.2754 L59.3678,24.752 L64.5768,24.752 L64.5768,26.2754 L62.8366,26.2754 L62.8366,31.9766 L64.5768,31.9766 L64.5768,33.5 L59.3678,33.5 L59.3678,31.9766 L61.108,31.9766 L61.108,26.2754 Z " fill="#CAD3F5"/><text fill="#CAD3F5" font-family="Helvetica" font-size="12" font-style="italic" lengthAdjust="spacing" textLength="75.3691" x="73.36" y="24.2402">&#171;HKT Bridge&#187;</text><text fill="#A6DA95" font-family="Helvetica" font-size="16" font-style="italic" lengthAdjust="spacing" textLength="32.0234" x="95.0329" y="39.3203">Kind</text><rect fill="#24273A" height="14" style="stroke:#C6A0F6;stroke-width:1.0;stroke-dasharray:2.0,2.0;" width="24.002" x="154.7291" y="7"/><text fill="#CAD3F5" font-family="Helvetica" font-size="12" font-style="italic" lengthAdjust="spacing" textLength="22.002" x="155.7291" y="17.2402">F, A</text></g><!--class CompletableFutureKind--><g id="elem_CompletableFutureKind"><rect codeLine="6" fill="#24273A" height="30" id="CompletableFutureKind" rx="1.5" ry="1.5" style="stroke:#C6A0F6;stroke-width:2.0;" width="210.0977" x="7" y="131"/><rect fill="#363A4F" height="30" rx="1.5" ry="1.5" style="stroke:#363A4F;stroke-width:2.0;" width="210.0977" x="7" y="131"/><rect fill="#363A4F" height="1.5" style="stroke:#363A4F;stroke-width:2.0;" width="210.0977" x="7" y="159.5"/><rect codeLine="6" fill="none" height="30" id="CompletableFutureKind" rx="1.5" ry="1.5" style="stroke:#C6A0F6;stroke-width:2.0;" width="210.0977" x="7" y="131"/><ellipse cx="21" cy="146" fill="#B4A7E5" rx="10" ry="10" style="stroke:#181818;stroke-width:1.0;"/><path d="M18.0078,143.2754 L18.0078,141.752 L23.2168,141.752 L23.2168,143.2754 L21.4766,143.2754 L21.4766,148.9766 L23.2168,148.9766 L23.2168,150.5 L18.0078,150.5 L18.0078,148.9766 L19.748,148.9766 L19.748,143.2754 Z " fill="#CAD3F5"/><text fill="#A6DA95" font-family="Helvetica" font-size="16" font-style="italic" lengthAdjust="spacing" textLength="168.0938" x="34" y="150.3203">CompletableFutureKind</text><rect fill="#24273A" height="14" style="stroke:#C6A0F6;stroke-width:1.0;stroke-dasharray:2.0,2.0;" width="10.0039" x="210.0938" y="128"/><text fill="#CAD3F5" font-family="Helvetica" font-size="12" font-style="italic" lengthAdjust="spacing" textLength="8.0039" x="211.0938" y="138.2402">A</text></g><!--class CompletableFuture<A>--><g id="elem_CompletableFuture&lt;A&gt;"><rect codeLine="10" fill="#24273A" height="30" id="CompletableFuture&lt;A&gt;" rx="1.5" ry="1.5" style="stroke:#C6A0F6;stroke-width:2.0;" width="195.4297" x="315.33" y="381"/><rect fill="#363A4F" height="30" rx="1.5" ry="1.5" style="stroke:#363A4F;stroke-width:2.0;" width="195.4297" x="315.33" y="381"/><rect fill="#363A4F" height="1.5" style="stroke:#363A4F;stroke-width:2.0;" width="195.4297" x="315.33" y="409.5"/><rect codeLine="10" fill="none" height="30" id="CompletableFuture&lt;A&gt;" rx="1.5" ry="1.5" style="stroke:#C6A0F6;stroke-width:2.0;" width="195.4297" x="315.33" y="381"/><ellipse cx="329.33" cy="396" fill="#ADD1B2" rx="10" ry="10" style="stroke:#181818;stroke-width:1.0;"/><path d="M331.164,400.248 Q330.7538,400.459 330.3027,400.5645 Q329.8515,400.6699 329.3534,400.6699 Q327.5839,400.6699 326.6523,399.5039 Q325.7206,398.3379 325.7206,396.1348 Q325.7206,393.9258 326.6523,392.7598 Q327.5839,391.5938 329.3534,391.5938 Q329.8515,391.5938 330.3085,391.6992 Q330.7655,391.8047 331.164,392.0156 L331.164,393.9375 Q330.7187,393.5273 330.2997,393.3369 Q329.8808,393.1465 329.4355,393.1465 Q328.4863,393.1465 328.0029,393.8994 Q327.5195,394.6523 327.5195,396.1348 Q327.5195,397.6113 328.0029,398.3643 Q328.4863,399.1172 329.4355,399.1172 Q329.8808,399.1172 330.2997,398.9268 Q330.7187,398.7363 331.164,398.3262 Z " fill="#CAD3F5"/><text fill="#A6DA95" font-family="Helvetica" font-size="16" lengthAdjust="spacing" textLength="165.4297" x="342.33" y="400.3203">CompletableFuture&lt;A&gt;</text></g><!--class CompletableFutureKindHelper--><g id="elem_CompletableFutureKindHelper"><rect codeLine="15" fill="#24273A" height="74" id="CompletableFutureKindHelper" rx="1.5" ry="1.5" style="stroke:#C6A0F6;stroke-width:2.0;" width="513.6191" x="252.24" y="109"/><rect fill="#363A4F" height="30" rx="1.5" ry="1.5" style="stroke:#363A4F;stroke-width:2.0;" width="513.6191" x="252.24" y="109"/><rect fill="#363A4F" height="1.5" style="stroke:#363A4F;stroke-width:2.0;" width="513.6191" x="252.24" y="137.5"/><rect codeLine="15" fill="none" height="74" id="CompletableFutureKindHelper" rx="1.5" ry="1.5" style="stroke:#C6A0F6;stroke-width:2.0;" width="513.6191" x="252.24" y="109"/><ellipse cx="397.4363" cy="124" fill="#ADD1B2" rx="10" ry="10" style="stroke:#181818;stroke-width:1.0;"/><path d="M399.2703,128.248 Q398.8601,128.459 398.4089,128.5645 Q397.9578,128.6699 397.4597,128.6699 Q395.6902,128.6699 394.7586,127.5039 Q393.8269,126.3379 393.8269,124.1348 Q393.8269,121.9258 394.7586,120.7598 Q395.6902,119.5938 397.4597,119.5938 Q397.9578,119.5938 398.4148,119.6992 Q398.8718,119.8047 399.2703,120.0156 L399.2703,121.9375 Q398.825,121.5273 398.406,121.3369 Q397.9871,121.1465 397.5418,121.1465 Q396.5925,121.1465 396.1091,121.8994 Q395.6257,122.6523 395.6257,124.1348 Q395.6257,125.6113 396.1091,126.3643 Q396.5925,127.1172 397.5418,127.1172 Q397.9871,127.1172 398.406,126.9268 Q398.825,126.7363 399.2703,126.3262 Z " fill="#CAD3F5"/><text fill="#A6DA95" font-family="Helvetica" font-size="16" lengthAdjust="spacing" textLength="215.2266" x="416.4363" y="128.3203">CompletableFutureKindHelper</text><line style="stroke:#C6A0F6;stroke-width:2.0;" x1="253.24" x2="764.8591" y1="139" y2="139"/><ellipse cx="263.24" cy="150.5" fill="#84BE84" rx="3" ry="3" style="stroke:#038048;stroke-width:1.0;"/><text fill="#A6DA95" font-family="Helvetica" font-size="12" lengthAdjust="spacing" text-decoration="underline" textLength="449.7363" x="271.24" y="152.2402">Kind&lt;CompletableFutureKind.Witness, A&gt; widen(@NonNull CompletableFuture&lt;A&gt;)</text><ellipse cx="263.24" cy="162.5" fill="#84BE84" rx="3" ry="3" style="stroke:#038048;stroke-width:1.0;"/><text fill="#A6DA95" font-family="Helvetica" font-size="12" lengthAdjust="spacing" text-decoration="underline" textLength="488.6191" x="271.24" y="164.2402">@NonNull CompletableFuture&lt;A&gt; narrow(@Nullable Kind&lt;CompletableFutureKind&lt;?&gt;, A&gt;)</text><ellipse cx="263.24" cy="174.5" fill="#84BE84" rx="3" ry="3" style="stroke:#038048;stroke-width:1.0;"/><text fill="#A6DA95" font-family="Helvetica" font-size="12" lengthAdjust="spacing" text-decoration="underline" textLength="237.4746" x="271.24" y="176.2402">A join(Kind&lt;CompletableFutureKind&lt;?&gt;, A&gt;)</text></g><!--class CompletableFutureHolder--><g id="elem_CompletableFutureHolder"><rect codeLine="22" fill="#24273A" height="50" id="CompletableFutureHolder" rx="1.5" ry="1.5" style="stroke:#C6A0F6;stroke-width:2.0;" width="241.293" x="197.4" y="257"/><rect fill="#363A4F" height="30" rx="1.5" ry="1.5" style="stroke:#363A4F;stroke-width:2.0;" width="241.293" x="197.4" y="257"/><rect fill="#363A4F" height="1.5" style="stroke:#363A4F;stroke-width:2.0;" width="241.293" x="197.4" y="285.5"/><rect codeLine="22" fill="none" height="50" id="CompletableFutureHolder" rx="1.5" ry="1.5" style="stroke:#C6A0F6;stroke-width:2.0;" width="241.293" x="197.4" y="257"/><ellipse cx="218.6387" cy="272" fill="#ADD1B2" rx="10" ry="10" style="stroke:#181818;stroke-width:1.0;"/><path d="M220.4727,276.248 Q220.0625,276.459 219.6113,276.5645 Q219.1602,276.6699 218.6621,276.6699 Q216.8926,276.6699 215.9609,275.5039 Q215.0293,274.3379 215.0293,272.1348 Q215.0293,269.9258 215.9609,268.7598 Q216.8926,267.5938 218.6621,267.5938 Q219.1602,267.5938 219.6172,267.6992 Q220.0742,267.8047 220.4727,268.0156 L220.4727,269.9375 Q220.0273,269.5273 219.6084,269.3369 Q219.1895,269.1465 218.7441,269.1465 Q217.7949,269.1465 217.3115,269.8994 Q216.8281,270.6523 216.8281,272.1348 Q216.8281,273.6113 217.3115,274.3643 Q217.7949,275.1172 218.7441,275.1172 Q219.1895,275.1172 219.6084,274.9268 Q220.0273,274.7363 220.4727,274.3262 Z " fill="#CAD3F5"/><text fill="#A6DA95" font-family="Helvetica" font-size="16" lengthAdjust="spacing" textLength="183.2031" x="233.2473" y="276.3203">CompletableFutureHolder</text><rect fill="#24273A" height="14" style="stroke:#C6A0F6;stroke-width:1.0;stroke-dasharray:2.0,2.0;" width="10.0039" x="431.6891" y="254"/><text fill="#CAD3F5" font-family="Helvetica" font-size="12" font-style="italic" lengthAdjust="spacing" textLength="8.0039" x="432.6891" y="264.2402">A</text><line style="stroke:#C6A0F6;stroke-width:2.0;" x1="198.4" x2="437.693" y1="287" y2="287"/><rect fill="none" height="6" style="stroke:#C82930;stroke-width:1.0;" width="6" x="205.4" y="295.5"/><text fill="#A6DA95" font-family="Helvetica" font-size="12" lengthAdjust="spacing" textLength="216.293" x="216.4" y="300.2402">@NonNull CompletableFuture&lt;A&gt; future</text></g><!--reverse link Kind to CompletableFutureKind--><g id="link_Kind_CompletableFutureKind"><path d="M112.05,66.48 C112.05,89.33 112.05,109.77 112.05,130.57 " fill="none" id="Kind-backto-CompletableFutureKind" style="stroke:#F5BDE6;stroke-width:1.0;"/><polygon fill="none" points="112.05,48.48,106.05,66.48,118.05,66.48,112.05,48.48" style="stroke:#F5BDE6;stroke-width:1.0;"/></g><!--reverse link CompletableFutureKind to CompletableFutureHolder--><g id="link_CompletableFutureKind_CompletableFutureHolder"><path d="M149.1794,171.1537 C184.1594,193.9037 237.7,228.73 280.53,256.59 " fill="none" id="CompletableFutureKind-backto-CompletableFutureHolder" style="stroke:#F5BDE6;stroke-width:1.0;stroke-dasharray:7.0,7.0;"/><polygon fill="none" points="134.09,161.34,145.9082,176.1835,152.4507,166.1239,134.09,161.34" style="stroke:#F5BDE6;stroke-width:1.0;"/></g><!--link CompletableFutureKindHelper to CompletableFutureHolder--><g id="link_CompletableFutureKindHelper_CompletableFutureHolder"><path codeLine="26" d="M457.11,183.44 C423.97,206.69 386.8321,232.7445 357.6921,253.1845 " fill="none" id="CompletableFutureKindHelper-to-CompletableFutureHolder" style="stroke:#F5BDE6;stroke-width:1.0;stroke-dasharray:7.0,7.0;"/><polygon fill="#F5BDE6" points="352.78,256.63,362.4451,254.7364,356.8734,253.7587,357.8511,248.187,352.78,256.63" style="stroke:#F5BDE6;stroke-width:1.0;"/><text fill="#CAD3F5" font-family="Helvetica" font-size="12" lengthAdjust="spacing" textLength="39.3516" x="414.55" y="223.2402">creates</text></g><!--link CompletableFutureKindHelper to CompletableFuture<A>--><g id="link_CompletableFutureKindHelper_CompletableFuture&lt;A&gt;"><path codeLine="27" d="M498.52,183.41 C488.69,216.17 473.01,265.41 456.05,307 C445.2,333.61 432.7407,358.1391 423.6207,375.3391 " fill="none" id="CompletableFutureKindHelper-to-CompletableFuture&lt;A&gt;" style="stroke:#F5BDE6;stroke-width:1.0;stroke-dasharray:7.0,7.0;"/><polygon fill="#F5BDE6" points="420.81,380.64,428.56,374.5624,423.1523,376.2226,421.4921,370.8148,420.81,380.64" style="stroke:#F5BDE6;stroke-width:1.0;"/><text fill="#CAD3F5" font-family="Helvetica" font-size="12" lengthAdjust="spacing" textLength="130.7109" x="475.14" y="285.2402">narrows to / widens from</text></g><!--link CompletableFutureHolder to CompletableFuture<A>--><g id="link_CompletableFutureHolder_CompletableFuture&lt;A&gt;"><path codeLine="28" d="M346.4219,316.4516 C365.4119,338.8416 381.3077,357.5853 397.0077,376.0853 " fill="none" id="CompletableFutureHolder-CompletableFuture&lt;A&gt;" style="stroke:#F5BDE6;stroke-width:1.0;"/><polygon fill="none" points="338.66,307.3,339.4904,314.4631,346.4219,316.4516,345.5915,309.2885,338.66,307.3" style="stroke:#F5BDE6;stroke-width:1.0;"/><polygon fill="#F5BDE6" points="400.89,380.66,398.1163,371.2098,397.6547,376.8478,392.0168,376.3862,400.89,380.66" style="stroke:#F5BDE6;stroke-width:1.0;"/><text fill="#CAD3F5" font-family="Helvetica" font-size="12" lengthAdjust="spacing" textLength="28.6875" x="375.06" y="347.2402">holds</text></g><!--SRC=[ZLDDJy904BttLunSq6YtTu9L92544YwQU5ws0rsp7ytkL3I4_-wqO6AaL6wJdVVUl7qxUwMTCdM1K19LSPHbGMx5HbDPh-g8GNb7w4WeRpEdV2IPQfKfILLLAwLTQgLIfPRaqyf8HxKrAPLeCRDIkwmjHSMdIQbv2DgAli2YNM68IQ9PFAobGbXeLundTp39OJoUBrxXAUXYWtd-6pJrjZ98ScLmLbCTi6Kn1J_PP14FAfqeyQR9OOpjX5q2C8JZ2SpW_epoGvxiaqGPoQZ12OG73uvIBoHT8KC1p_93mhGXD4pk7SYTydCq5OPM0U0MTfmjQRM_z19RpjDTFowzMzR6G9Uzcx_IlMXmCWI_PKb6D9qU9nnDO-9am0JUlNRN5nA788JWQj-JrDoR0aDZJpSToyiOpo_28Spqdukks-fdSD_Z296VimGZK04bORn0uypsZ8wPHo0FsU598wo3jrsQnxa-JNi4ImRnp_e6]--></g></svg>