<svg xmlns="http://www.w3.org/2000/svg" xmlns:xlink="http://www.w3.org/1999/xlink" contentStyleType="text/css" height="418px" preserveAspectRatio="none" style="width:775px;height:418px;background:#24273A;" version="1.1" viewBox="0 0 775 418" width="775px" zoomAndPan="magnify"><defs/><g><rect fill="#24273A" height="418" style="stroke:none;stroke-width:1.0;" width="775" x="0" y="0"/><!--class Kind--><g id="elem_Kind"><rect codeLine="4" fill="#24273A" height="38" id="Kind" rx="1.5" ry="1.5" style="stroke:#C6A0F6;stroke-width:2.0;" width="127.3711" x="48.36" y="10"/><rect fill="#363A4F" height="38" rx="1.5" ry="1.5" style="stroke:#363A4F;stroke-width:2.0;" width="127.3711" x="48.36" y="10"/><rect fill="#363A4F" height="1.5" style="stroke:#363A4F;stroke-width:2.0;" width="127.3711" x="48.36" y="46.5"/><rect codeLine="4" fill="none" height="38" id="Kind" rx="1.5" ry="1.5" style="stroke:#C6A0F6;stroke-width:2.0;" width="127.3711" x="48.36" y="10"/><ellipse cx="62.36" cy="29" fill="#B4A7E5" rx="10" ry="10" style="stroke:#181818;stroke-width:1.0;"/><path d="M59.3678,26.2754 L59.3678,24.752 L64.5768,24.752 L64.5768,26.2754 L62.8366,26.2754 L62.8366,31.9766 L64.5768,31.9766 L64.5768,33.5 L59.3678,33.5 L59.3678,31.9766 L61.108,31.9766 L61.108,26.2754 Z " fill="#CAD3F5"/><text fill="#CAD3F5" font-family="Helvetica" font-size="12" font-style="italic" lengthAdjust="spacing" textLength="75.3691" x="73.36" y="24.2402">&#171;HKT Bridge&#187;</text><text fill="#A6DA95" font-family="Helvetica" font-size="16" font-style="italic" lengthAdjust="spacing" textLength="32.0234" x="95.0329" y="39.3203">Kind</text><rect fill="#24273A" height="14" style="stroke:#C6A0F6;stroke-width:1.0;stroke-dasharray:2.0,2.0;" width="24.002" x="154.7291" y="7"/><text fill="#CAD3F5" font-family="Helvetica" font-size="12" font-style="italic" lengthAdjust="spacing" textLength="22.002" x="155.7291" y="17.2402">F, A</text></g><!--class CompletableFutureKind--><g id="elem_CompletableFutureKind"><rect codeLine="6" fill="#24273A" height="30" id="CompletableFutureKind" rx="1.5" ry="1.5" style="stroke:#C6A0F6;stroke-width:2.0;" width="210.0977" x="7" y="131"/><rect fill="#363A4F" height="30" rx="1.5" ry="1.5" style="stroke:#363A4F;stroke-width:2.0;" width="210.0977" x="7" y="131"/><rect fill="#363A4F" height="1.5" style="stroke:#363A4F;stroke-width:2.0;" width="210.0977" x="7" y="159.5"/><rect codeLine="6" fill="none" height="30" id="CompletableFutureKind" rx="1.5" ry="1.5" style="stroke:#C6A0F6;stroke-width:2.0;" width="210.0977" x="7" y="131"/><ellipse cx="21" cy="146" fill="#B4A7E5" rx="10" ry="10" style="stroke:#181818;stroke-width:1.0;"/><path d="M18.0078,143.2754 L18.0078,141.752 L23.2168,141.752 L23.2168,143.2754 L21.4766,143.2754 L21.4766,148.9766 L23.2168,148.9766 L23.2168,150.5 L18.0078,150.5 L18.0078,148.9766 L19.748,148.9766 L19.748,143.2754 Z " fill="#CAD3F5"/><text fill="#A6DA95" font-family="Helvetica" font-size="16" font-style="italic" lengthAdjust="spacing" textLength="168.0938" x="34" y="150.3203">CompletableFutureKind</text><rect fill="#24273A" height="14" style="stroke:#C6A0F6;stroke-width:1.0;stroke-dasharray:2.0,2.0;" width="10.0039" x="210.0938" y="128"/><text fill="#CAD3F5" font-family="Helvetica" font-size="12" font-style="italic" lengthAdjust="spacing" textLength="8.0039" x="211.0938" y="138.2402">A</text></g><!--class CompletableFuture<A>--><g id="elem_CompletableFuture&lt;A&gt;"><rect codeLine="10" fill="#24273A" height="30" id="CompletableFuture&lt;A&gt;" rx="1.5" ry="1.5" style="stroke:#C6A0F6;stroke-width:2.0;" width="195.4297" x="316.33" y="381"/><rect fill="#363A4F" height="30" rx="1.5" ry="1.5" style="stroke:#363A4F;stroke-width:2.0;" width="195.4297" x="316.33" y="381"/><rect fill="#363A4F" height="1.5" style="stroke:#363A4F;stroke-width:2.0;" width="195.4297" x="316.33" y="409.5"/><rect codeLine="10" fill="none" height="30" id="CompletableFuture&lt;A&gt;" rx="1.5" ry="1.5" style="stroke:#C6A0F6;stroke-width:2.0;" width="195.4297" x="316.33" y="381"/><ellipse cx="330.33" cy="396" fill="#ADD1B2" rx="10" ry="10" style="stroke:#181818;stroke-width:1.0;"/><path d="M332.164,400.248 Q331.7538,400.459 331.3027,400.5645 Q330.8515,400.6699 330.3534,400.6699 Q328.5839,400.6699 327.6523,399.5039 Q326.7206,398.3379 326.7206,396.1348 Q326.7206,393.9258 327.6523,392.7598 Q328.5839,391.5938 330.3534,391.5938 Q330.8515,391.5938 331.3085,391.6992 Q331.7655,391.8047 332.164,392.0156 L332.164,393.9375 Q331.7187,393.5273 331.2997,393.3369 Q330.8808,393.1465 330.4355,393.1465 Q329.4863,393.1465 329.0029,393.8994 Q328.5195,394.6523 328.5195,396.1348 Q328.5195,397.6113 329.0029,398.3643 Q329.4863,399.1172 330.4355,399.1172 Q330.8808,399.1172 331.2997,398.9268 Q331.7187,398.7363 332.164,398.3262 Z " fill="#CAD3F5"/><text fill="#A6DA95" font-family="Helvetica" font-size="16" lengthAdjust="spacing" textLength="165.4297" x="343.33" y="400.3203">CompletableFuture&lt;A&gt;</text></g><!--class CompletableFutureKindHelper--><g id="elem_CompletableFutureKindHelper"><rect codeLine="15" fill="#24273A" height="74" id="CompletableFutureKindHelper" rx="1.5" ry="1.5" style="stroke:#C6A0F6;stroke-width:2.0;" width="516.2969" x="251.9" y="109"/><rect fill="#363A4F" height="30" rx="1.5" ry="1.5" style="stroke:#363A4F;stroke-width:2.0;" width="516.2969" x="251.9" y="109"/><rect fill="#363A4F" height="1.5" style="stroke:#363A4F;stroke-width:2.0;" width="516.2969" x="251.9" y="137.5"/><rect codeLine="15" fill="none" height="74" id="CompletableFutureKindHelper" rx="1.5" ry="1.5" style="stroke:#C6A0F6;stroke-width:2.0;" width="516.2969" x="251.9" y="109"/><ellipse cx="398.4352" cy="124" fill="#ADD1B2" rx="10" ry="10" style="stroke:#181818;stroke-width:1.0;"/><path d="M400.2691,128.248 Q399.859,128.459 399.4078,128.5645 Q398.9566,128.6699 398.4586,128.6699 Q396.6891,128.6699 395.7574,127.5039 Q394.8258,126.3379 394.8258,124.1348 Q394.8258,121.9258 395.7574,120.7598 Q396.6891,119.5938 398.4586,119.5938 Q398.9566,119.5938 399.4137,119.6992 Q399.8707,119.8047 400.2691,120.0156 L400.2691,121.9375 Q399.8238,121.5273 399.4049,121.3369 Q398.9859,121.1465 398.5406,121.1465 Q397.5914,121.1465 397.108,121.8994 Q396.6246,122.6523 396.6246,124.1348 Q396.6246,125.6113 397.108,126.3643 Q397.5914,127.1172 398.5406,127.1172 Q398.9859,127.1172 399.4049,126.9268 Q399.8238,126.7363 400.2691,126.3262 Z " fill="#CAD3F5"/><text fill="#A6DA95" font-family="Helvetica" font-size="16" lengthAdjust="spacing" textLength="215.2266" x="417.4352" y="128.3203">CompletableFutureKindHelper</text><line style="stroke:#C6A0F6;stroke-width:2.0;" x1="252.9" x2="767.1969" y1="139" y2="139"/><ellipse cx="262.9" cy="150.5" fill="#84BE84" rx="3" ry="3" style="stroke:#038048;stroke-width:1.0;"/><text fill="#A6DA95" font-family="Helvetica" font-size="12" lengthAdjust="spacing" text-decoration="underline" textLength="367.6992" x="270.9" y="152.2402">CompletableFutureKind&lt;A&gt; wrap(@NonNull CompletableFuture&lt;A&gt;)</text><ellipse cx="262.9" cy="162.5" fill="#84BE84" rx="3" ry="3" style="stroke:#038048;stroke-width:1.0;"/><text fill="#A6DA95" font-family="Helvetica" font-size="12" lengthAdjust="spacing" text-decoration="underline" textLength="491.2969" x="270.9" y="164.2402">@NonNull CompletableFuture&lt;A&gt; unwrap(@Nullable Kind&lt;CompletableFutureKind&lt;?&gt;, A&gt;)</text><ellipse cx="262.9" cy="174.5" fill="#84BE84" rx="3" ry="3" style="stroke:#038048;stroke-width:1.0;"/><text fill="#A6DA95" font-family="Helvetica" font-size="12" lengthAdjust="spacing" text-decoration="underline" textLength="237.4746" x="270.9" y="176.2402">A join(Kind&lt;CompletableFutureKind&lt;?&gt;, A&gt;)</text></g><!--class CompletableFutureHolder--><g id="elem_CompletableFutureHolder"><rect codeLine="22" fill="#24273A" height="50" id="CompletableFutureHolder" rx="1.5" ry="1.5" style="stroke:#C6A0F6;stroke-width:2.0;" width="241.293" x="198.4" y="257"/><rect fill="#363A4F" height="30" rx="1.5" ry="1.5" style="stroke:#363A4F;stroke-width:2.0;" width="241.293" x="198.4" y="257"/><rect fill="#363A4F" height="1.5" style="stroke:#363A4F;stroke-width:2.0;" width="241.293" x="198.4" y="285.5"/><rect codeLine="22" fill="none" height="50" id="CompletableFutureHolder" rx="1.5" ry="1.5" style="stroke:#C6A0F6;stroke-width:2.0;" width="241.293" x="198.4" y="257"/><ellipse cx="219.6387" cy="272" fill="#ADD1B2" rx="10" ry="10" style="stroke:#181818;stroke-width:1.0;"/><path d="M221.4727,276.248 Q221.0625,276.459 220.6113,276.5645 Q220.1602,276.6699 219.6621,276.6699 Q217.8926,276.6699 216.9609,275.5039 Q216.0293,274.3379 216.0293,272.1348 Q216.0293,269.9258 216.9609,268.7598 Q217.8926,267.5938 219.6621,267.5938 Q220.1602,267.5938 220.6172,267.6992 Q221.0742,267.8047 221.4727,268.0156 L221.4727,269.9375 Q221.0273,269.5273 220.6084,269.3369 Q220.1895,269.1465 219.7441,269.1465 Q218.7949,269.1465 218.3115,269.8994 Q217.8281,270.6523 217.8281,272.1348 Q217.8281,273.6113 218.3115,274.3643 Q218.7949,275.1172 219.7441,275.1172 Q220.1895,275.1172 220.6084,274.9268 Q221.0273,274.7363 221.4727,274.3262 Z " fill="#CAD3F5"/><text fill="#A6DA95" font-family="Helvetica" font-size="16" lengthAdjust="spacing" textLength="183.2031" x="234.2473" y="276.3203">CompletableFutureHolder</text><rect fill="#24273A" height="14" style="stroke:#C6A0F6;stroke-width:1.0;stroke-dasharray:2.0,2.0;" width="10.0039" x="432.6891" y="254"/><text fill="#CAD3F5" font-family="Helvetica" font-size="12" font-style="italic" lengthAdjust="spacing" textLength="8.0039" x="433.6891" y="264.2402">A</text><line style="stroke:#C6A0F6;stroke-width:2.0;" x1="199.4" x2="438.693" y1="287" y2="287"/><rect fill="none" height="6" style="stroke:#C82930;stroke-width:1.0;" width="6" x="206.4" y="295.5"/><text fill="#A6DA95" font-family="Helvetica" font-size="12" lengthAdjust="spacing" textLength="216.293" x="217.4" y="300.2402">@NonNull CompletableFuture&lt;A&gt; future</text></g><!--reverse link Kind to CompletableFutureKind--><g id="link_Kind_CompletableFutureKind"><path d="M112.05,66.48 C112.05,89.33 112.05,109.77 112.05,130.57 " fill="none" id="Kind-backto-CompletableFutureKind" style="stroke:#F5BDE6;stroke-width:1.0;"/><polygon fill="none" points="112.05,48.48,106.05,66.48,118.05,66.48,112.05,48.48" style="stroke:#F5BDE6;stroke-width:1.0;"/></g><!--reverse link CompletableFutureKind to CompletableFutureHolder--><g id="link_CompletableFutureKind_CompletableFutureHolder"><path d="M149.3111,171.1203 C184.4611,193.8703 238.31,228.73 281.35,256.59 " fill="none" id="CompletableFutureKind-backto-CompletableFutureHolder" style="stroke:#F5BDE6;stroke-width:1.0;stroke-dasharray:7.0,7.0;"/><polygon fill="none" points="134.2,161.34,146.051,176.1573,152.5712,166.0833,134.2,161.34" style="stroke:#F5BDE6;stroke-width:1.0;"/></g><!--link CompletableFutureKindHelper to CompletableFutureHolder--><g id="link_CompletableFutureKindHelper_CompletableFutureHolder"><path codeLine="26" d="M458.11,183.44 C424.97,206.69 387.8321,232.7445 358.6921,253.1845 " fill="none" id="CompletableFutureKindHelper-to-CompletableFutureHolder" style="stroke:#F5BDE6;stroke-width:1.0;stroke-dasharray:7.0,7.0;"/><polygon fill="#F5BDE6" points="353.78,256.63,363.4451,254.7364,357.8734,253.7587,358.8511,248.187,353.78,256.63" style="stroke:#F5BDE6;stroke-width:1.0;"/><text fill="#CAD3F5" font-family="Helvetica" font-size="12" lengthAdjust="spacing" textLength="39.3516" x="415.55" y="223.2402">creates</text></g><!--link CompletableFutureKindHelper to CompletableFuture<A>--><g id="link_CompletableFutureKindHelper_CompletableFuture&lt;A&gt;"><path codeLine="27" d="M499.52,183.41 C489.69,216.17 474.01,265.41 457.05,307 C446.2,333.61 433.7407,358.1391 424.6207,375.3391 " fill="none" id="CompletableFutureKindHelper-to-CompletableFuture&lt;A&gt;" style="stroke:#F5BDE6;stroke-width:1.0;stroke-dasharray:7.0,7.0;"/><polygon fill="#F5BDE6" points="421.81,380.64,429.56,374.5624,424.1523,376.2226,422.4921,370.8148,421.81,380.64" style="stroke:#F5BDE6;stroke-width:1.0;"/><text fill="#CAD3F5" font-family="Helvetica" font-size="12" lengthAdjust="spacing" textLength="128.0449" x="476.14" y="285.2402">unwraps to / wraps from</text></g><!--link CompletableFutureHolder to CompletableFuture<A>--><g id="link_CompletableFutureHolder_CompletableFuture&lt;A&gt;"><path codeLine="28" d="M347.4219,316.4516 C366.4119,338.8416 382.3077,357.5853 398.0077,376.0853 " fill="none" id="CompletableFutureHolder-CompletableFuture&lt;A&gt;" style="stroke:#F5BDE6;stroke-width:1.0;"/><polygon fill="none" points="339.66,307.3,340.4904,314.4631,347.4219,316.4516,346.5915,309.2885,339.66,307.3" style="stroke:#F5BDE6;stroke-width:1.0;"/><polygon fill="#F5BDE6" points="401.89,380.66,399.1163,371.2098,398.6547,376.8478,393.0168,376.3862,401.89,380.66" style="stroke:#F5BDE6;stroke-width:1.0;"/><text fill="#CAD3F5" font-family="Helvetica" font-size="12" lengthAdjust="spacing" textLength="28.6875" x="376.06" y="347.2402">holds</text></g><!--SRC=[ZPFBJiCm44Nt-Og13KKGPr-LG46gAYfr0n9hrvasHdx97lDGrN_7IOE4Q1BOZJptdXdVE6VI21KhX9h8XMbHUFxETfBgk8a1lR26q10JLXT6s40ybw8Gd9oBGaYJQov4BJdPt2bkA6gLKuqQ2ysbATgIkNIQrJ8DGUte4pJg3VgGPJB1_POBX9KqrMnn3VCIPhFbwXdklQnsM9O_HGzMEuN4DmeNaQB7rfKi-96MhCAHqgjYBv8CXj1Es6S05z2Tm09k1iYtPNR8Cg5uKfsVIDBWymxrHDnKt5VmoDyuF3I6nfbwHtClVedAeMy905UmJzcI58VXMxvxxYPtQslMKIdes-VoDsjK3T5qoAHeEYFvfIoQw4u6pE7LIZFvf_4266EfEen4ixIgGj-i9vkEJgyl36ToJ2__uwBRjleUFFOr62k7Le8f28-SCFo3CV1Sfbtc0SX20STowwtkGtPZRPwFyEeaId_I5m00]--></g></svg>