<svg xmlns="http://www.w3.org/2000/svg" xmlns:xlink="http://www.w3.org/1999/xlink" contentStyleType="text/css" height="525px" preserveAspectRatio="none" style="width:1288px;height:525px;background:#24273A;" version="1.1" viewBox="0 0 1288 525" width="1288px" zoomAndPan="magnify"><defs/><g><rect fill="#24273A" height="525" style="stroke:none;stroke-width:1.0;" width="1288" x="0" y="0"/><!--class CompletableFutureKindHelper--><g id="elem_CompletableFutureKindHelper"><rect codeLine="4" fill="#24273A" height="30" id="CompletableFutureKindHelper" rx="1.5" ry="1.5" style="stroke:#C6A0F6;stroke-width:2.0;" width="245.2266" x="910.66" y="238"/><rect fill="#363A4F" height="30" rx="1.5" ry="1.5" style="stroke:#363A4F;stroke-width:2.0;" width="245.2266" x="910.66" y="238"/><rect fill="#363A4F" height="1.5" style="stroke:#363A4F;stroke-width:2.0;" width="245.2266" x="910.66" y="266.5"/><rect codeLine="4" fill="none" height="30" id="CompletableFutureKindHelper" rx="1.5" ry="1.5" style="stroke:#C6A0F6;stroke-width:2.0;" width="245.2266" x="910.66" y="238"/><ellipse cx="924.66" cy="253" fill="#ADD1B2" rx="10" ry="10" style="stroke:#181818;stroke-width:1.0;"/><path d="M926.494,257.248 Q926.0838,257.459 925.6327,257.5645 Q925.1815,257.6699 924.6834,257.6699 Q922.9139,257.6699 921.9823,256.5039 Q921.0506,255.3379 921.0506,253.1348 Q921.0506,250.9258 921.9823,249.7598 Q922.9139,248.5938 924.6834,248.5938 Q925.1815,248.5938 925.6385,248.6992 Q926.0955,248.8047 926.494,249.0156 L926.494,250.9375 Q926.0487,250.5273 925.6297,250.3369 Q925.2108,250.1465 924.7655,250.1465 Q923.8163,250.1465 923.3329,250.8994 Q922.8495,251.6523 922.8495,253.1348 Q922.8495,254.6113 923.3329,255.3643 Q923.8163,256.1172 924.7655,256.1172 Q925.2108,256.1172 925.6297,255.9268 Q926.0487,255.7363 926.494,255.3262 Z " fill="#CAD3F5"/><text fill="#A6DA95" font-family="Helvetica" font-size="16" lengthAdjust="spacing" textLength="215.2266" x="937.66" y="257.3203">CompletableFutureKindHelper</text></g><!--class CompletableFutureFunctor--><g id="elem_CompletableFutureFunctor"><rect codeLine="6" fill="#24273A" height="50" id="CompletableFutureFunctor" rx="1.5" ry="1.5" style="stroke:#C6A0F6;stroke-width:2.0;" width="495.8594" x="785.34" y="98"/><rect fill="#363A4F" height="30" rx="1.5" ry="1.5" style="stroke:#363A4F;stroke-width:2.0;" width="495.8594" x="785.34" y="98"/><rect fill="#363A4F" height="1.5" style="stroke:#363A4F;stroke-width:2.0;" width="495.8594" x="785.34" y="126.5"/><rect codeLine="6" fill="none" height="50" id="CompletableFutureFunctor" rx="1.5" ry="1.5" style="stroke:#C6A0F6;stroke-width:2.0;" width="495.8594" x="785.34" y="98"/><ellipse cx="934.1134" cy="113" fill="#ADD1B2" rx="10" ry="10" style="stroke:#181818;stroke-width:1.0;"/><path d="M935.9474,117.248 Q935.5373,117.459 935.0861,117.5645 Q934.6349,117.6699 934.1369,117.6699 Q932.3673,117.6699 931.4357,116.5039 Q930.5041,115.3379 930.5041,113.1348 Q930.5041,110.9258 931.4357,109.7598 Q932.3673,108.5938 934.1369,108.5938 Q934.6349,108.5938 935.092,108.6992 Q935.549,108.8047 935.9474,109.0156 L935.9474,110.9375 Q935.5021,110.5273 935.0832,110.3369 Q934.6642,110.1465 934.2189,110.1465 Q933.2697,110.1465 932.7863,110.8994 Q932.3029,111.6523 932.3029,113.1348 Q932.3029,114.6113 932.7863,115.3643 Q933.2697,116.1172 934.2189,116.1172 Q934.6642,116.1172 935.0832,115.9268 Q935.5021,115.7363 935.9474,115.3262 Z " fill="#CAD3F5"/><text fill="#A6DA95" font-family="Helvetica" font-size="16" lengthAdjust="spacing" textLength="190.3125" x="953.1134" y="117.3203">CompletableFutureFunctor</text><line style="stroke:#C6A0F6;stroke-width:2.0;" x1="786.34" x2="1280.1994" y1="128" y2="128"/><ellipse cx="796.34" cy="139.5" fill="#84BE84" rx="3" ry="3" style="stroke:#038048;stroke-width:1.0;"/><text fill="#A6DA95" font-family="Helvetica" font-size="12" lengthAdjust="spacing" textLength="470.8594" x="804.34" y="141.2402">Kind&lt;CFK, B&gt; map(Function&lt;A, B&gt;, Kind&lt;CFK, A&gt;) ' CFK = CompletableFutureKind&lt;?&gt;</text></g><!--class Functor--><g id="elem_Functor"><rect fill="#24273A" height="30" id="Functor" rx="1.5" ry="1.5" style="stroke:#C6A0F6;stroke-width:2.0;" width="84.2422" x="991.15" y="7"/><rect fill="#363A4F" height="30" rx="1.5" ry="1.5" style="stroke:#363A4F;stroke-width:2.0;" width="84.2422" x="991.15" y="7"/><rect fill="#363A4F" height="1.5" style="stroke:#363A4F;stroke-width:2.0;" width="84.2422" x="991.15" y="35.5"/><rect fill="none" height="30" id="Functor" rx="1.5" ry="1.5" style="stroke:#C6A0F6;stroke-width:2.0;" width="84.2422" x="991.15" y="7"/><ellipse cx="1005.15" cy="22" fill="#B4A7E5" rx="10" ry="10" style="stroke:#181818;stroke-width:1.0;"/><path d="M1002.1578,19.2754 L1002.1578,17.752 L1007.3668,17.752 L1007.3668,19.2754 L1005.6266,19.2754 L1005.6266,24.9766 L1007.3668,24.9766 L1007.3668,26.5 L1002.1578,26.5 L1002.1578,24.9766 L1003.898,24.9766 L1003.898,19.2754 Z " fill="#CAD3F5"/><text fill="#A6DA95" font-family="Helvetica" font-size="16" font-style="italic" lengthAdjust="spacing" textLength="54.2422" x="1018.15" y="26.3203">Functor</text></g><!--class CompletableFutureApplicative--><g id="elem_CompletableFutureApplicative"><rect codeLine="11" fill="#24273A" height="62" id="CompletableFutureApplicative" rx="1.5" ry="1.5" style="stroke:#C6A0F6;stroke-width:2.0;" width="361.1699" x="514.69" y="222"/><rect fill="#363A4F" height="30" rx="1.5" ry="1.5" style="stroke:#363A4F;stroke-width:2.0;" width="361.1699" x="514.69" y="222"/><rect fill="#363A4F" height="1.5" style="stroke:#363A4F;stroke-width:2.0;" width="361.1699" x="514.69" y="250.5"/><rect codeLine="11" fill="none" height="62" id="CompletableFutureApplicative" rx="1.5" ry="1.5" style="stroke:#C6A0F6;stroke-width:2.0;" width="361.1699" x="514.69" y="222"/><ellipse cx="584.5523" cy="237" fill="#ADD1B2" rx="10" ry="10" style="stroke:#181818;stroke-width:1.0;"/><path d="M586.3863,241.248 Q585.9761,241.459 585.525,241.5645 Q585.0738,241.6699 584.5757,241.6699 Q582.8062,241.6699 581.8746,240.5039 Q580.9429,239.3379 580.9429,237.1348 Q580.9429,234.9258 581.8746,233.7598 Q582.8062,232.5938 584.5757,232.5938 Q585.0738,232.5938 585.5308,232.6992 Q585.9879,232.8047 586.3863,233.0156 L586.3863,234.9375 Q585.941,234.5273 585.522,234.3369 Q585.1031,234.1465 584.6578,234.1465 Q583.7086,234.1465 583.2252,234.8994 Q582.7418,235.6523 582.7418,237.1348 Q582.7418,238.6113 583.2252,239.3643 Q583.7086,240.1172 584.6578,240.1172 Q585.1031,240.1172 585.522,239.9268 Q585.941,239.7363 586.3863,239.3262 Z " fill="#CAD3F5"/><text fill="#A6DA95" font-family="Helvetica" font-size="16" lengthAdjust="spacing" textLength="213.4453" x="603.5523" y="241.3203">CompletableFutureApplicative</text><line style="stroke:#C6A0F6;stroke-width:2.0;" x1="515.69" x2="874.8599" y1="252" y2="252"/><ellipse cx="525.69" cy="263.5" fill="#84BE84" rx="3" ry="3" style="stroke:#038048;stroke-width:1.0;"/><text fill="#A6DA95" font-family="Helvetica" font-size="12" lengthAdjust="spacing" textLength="106.043" x="533.69" y="265.2402">Kind&lt;CFK, A&gt; of(A)</text><ellipse cx="525.69" cy="275.5" fill="#84BE84" rx="3" ry="3" style="stroke:#038048;stroke-width:1.0;"/><text fill="#A6DA95" font-family="Helvetica" font-size="12" lengthAdjust="spacing" textLength="336.1699" x="533.69" y="277.2402">Kind&lt;CFK, B&gt; ap(Kind&lt;CFK, Function&lt;A, B&gt;&gt;, Kind&lt;CFK, A&gt;)</text></g><!--class Applicative--><g id="elem_Applicative"><rect fill="#24273A" height="30" id="Applicative" rx="1.5" ry="1.5" style="stroke:#C6A0F6;stroke-width:2.0;" width="107.375" x="641.59" y="108"/><rect fill="#363A4F" height="30" rx="1.5" ry="1.5" style="stroke:#363A4F;stroke-width:2.0;" width="107.375" x="641.59" y="108"/><rect fill="#363A4F" height="1.5" style="stroke:#363A4F;stroke-width:2.0;" width="107.375" x="641.59" y="136.5"/><rect fill="none" height="30" id="Applicative" rx="1.5" ry="1.5" style="stroke:#C6A0F6;stroke-width:2.0;" width="107.375" x="641.59" y="108"/><ellipse cx="655.59" cy="123" fill="#B4A7E5" rx="10" ry="10" style="stroke:#181818;stroke-width:1.0;"/><path d="M652.5978,120.2754 L652.5978,118.752 L657.8068,118.752 L657.8068,120.2754 L656.0666,120.2754 L656.0666,125.9766 L657.8068,125.9766 L657.8068,127.5 L652.5978,127.5 L652.5978,125.9766 L654.338,125.9766 L654.338,120.2754 Z " fill="#CAD3F5"/><text fill="#A6DA95" font-family="Helvetica" font-size="16" font-style="italic" lengthAdjust="spacing" textLength="77.375" x="668.59" y="127.3203">Applicative</text></g><!--class CompletableFutureMonad--><g id="elem_CompletableFutureMonad"><rect codeLine="16" fill="#24273A" height="50" id="CompletableFutureMonad" rx="1.5" ry="1.5" style="stroke:#C6A0F6;stroke-width:2.0;" width="387.1738" x="320.69" y="345"/><rect fill="#363A4F" height="30" rx="1.5" ry="1.5" style="stroke:#363A4F;stroke-width:2.0;" width="387.1738" x="320.69" y="345"/><rect fill="#363A4F" height="1.5" style="stroke:#363A4F;stroke-width:2.0;" width="387.1738" x="320.69" y="373.5"/><rect codeLine="16" fill="none" height="50" id="CompletableFutureMonad" rx="1.5" ry="1.5" style="stroke:#C6A0F6;stroke-width:2.0;" width="387.1738" x="320.69" y="345"/><ellipse cx="417.7808" cy="360" fill="#ADD1B2" rx="10" ry="10" style="stroke:#181818;stroke-width:1.0;"/><path d="M419.6148,364.248 Q419.2046,364.459 418.7535,364.5645 Q418.3023,364.6699 417.8043,364.6699 Q416.0347,364.6699 415.1031,363.5039 Q414.1714,362.3379 414.1714,360.1348 Q414.1714,357.9258 415.1031,356.7598 Q416.0347,355.5938 417.8043,355.5938 Q418.3023,355.5938 418.7593,355.6992 Q419.2164,355.8047 419.6148,356.0156 L419.6148,357.9375 Q419.1695,357.5273 418.7505,357.3369 Q418.3316,357.1465 417.8863,357.1465 Q416.9371,357.1465 416.4537,357.8994 Q415.9703,358.6523 415.9703,360.1348 Q415.9703,361.6113 416.4537,362.3643 Q416.9371,363.1172 417.8863,363.1172 Q418.3316,363.1172 418.7505,362.9268 Q419.1695,362.7363 419.6148,362.3262 Z " fill="#CAD3F5"/><text fill="#A6DA95" font-family="Helvetica" font-size="16" lengthAdjust="spacing" textLength="184.9922" x="436.7808" y="364.3203">CompletableFutureMonad</text><line style="stroke:#C6A0F6;stroke-width:2.0;" x1="321.69" x2="706.8638" y1="375" y2="375"/><ellipse cx="331.69" cy="386.5" fill="#84BE84" rx="3" ry="3" style="stroke:#038048;stroke-width:1.0;"/><text fill="#A6DA95" font-family="Helvetica" font-size="12" lengthAdjust="spacing" textLength="362.1738" x="339.69" y="388.2402">Kind&lt;CFK, B&gt; flatMap(Function&lt;A, Kind&lt;CFK, B&gt;&gt;, Kind&lt;CFK, A&gt;)</text></g><!--class Monad--><g id="elem_Monad"><rect fill="#24273A" height="30" id="Monad" rx="1.5" ry="1.5" style="stroke:#C6A0F6;stroke-width:2.0;" width="78.9219" x="400.81" y="238"/><rect fill="#363A4F" height="30" rx="1.5" ry="1.5" style="stroke:#363A4F;stroke-width:2.0;" width="78.9219" x="400.81" y="238"/><rect fill="#363A4F" height="1.5" style="stroke:#363A4F;stroke-width:2.0;" width="78.9219" x="400.81" y="266.5"/><rect fill="none" height="30" id="Monad" rx="1.5" ry="1.5" style="stroke:#C6A0F6;stroke-width:2.0;" width="78.9219" x="400.81" y="238"/><ellipse cx="414.81" cy="253" fill="#B4A7E5" rx="10" ry="10" style="stroke:#181818;stroke-width:1.0;"/><path d="M411.8178,250.2754 L411.8178,248.752 L417.0268,248.752 L417.0268,250.2754 L415.2866,250.2754 L415.2866,255.9766 L417.0268,255.9766 L417.0268,257.5 L411.8178,257.5 L411.8178,255.9766 L413.558,255.9766 L413.558,250.2754 Z " fill="#CAD3F5"/><text fill="#A6DA95" font-family="Helvetica" font-size="16" font-style="italic" lengthAdjust="spacing" textLength="48.9219" x="427.81" y="257.3203">Monad</text></g><!--class CompletableFutureMonadError--><g id="elem_CompletableFutureMonadError"><rect codeLine="20" fill="#24273A" height="62" id="CompletableFutureMonadError" rx="1.5" ry="1.5" style="stroke:#C6A0F6;stroke-width:2.0;" width="482.5469" x="7" y="456"/><rect fill="#363A4F" height="30" rx="1.5" ry="1.5" style="stroke:#363A4F;stroke-width:2.0;" width="482.5469" x="7" y="456"/><rect fill="#363A4F" height="1.5" style="stroke:#363A4F;stroke-width:2.0;" width="482.5469" x="7" y="484.5"/><rect codeLine="20" fill="none" height="62" id="CompletableFutureMonadError" rx="1.5" ry="1.5" style="stroke:#C6A0F6;stroke-width:2.0;" width="482.5469" x="7" y="456"/><ellipse cx="134" cy="471" fill="#ADD1B2" rx="10" ry="10" style="stroke:#181818;stroke-width:1.0;"/><path d="M135.834,475.248 Q135.4238,475.459 134.9727,475.5645 Q134.5215,475.6699 134.0234,475.6699 Q132.2539,475.6699 131.3223,474.5039 Q130.3906,473.3379 130.3906,471.1348 Q130.3906,468.9258 131.3223,467.7598 Q132.2539,466.5938 134.0234,466.5938 Q134.5215,466.5938 134.9785,466.6992 Q135.4355,466.8047 135.834,467.0156 L135.834,468.9375 Q135.3887,468.5273 134.9697,468.3369 Q134.5508,468.1465 134.1055,468.1465 Q133.1563,468.1465 132.6729,468.8994 Q132.1895,469.6523 132.1895,471.1348 Q132.1895,472.6113 132.6729,473.3643 Q133.1563,474.1172 134.1055,474.1172 Q134.5508,474.1172 134.9697,473.9268 Q135.3887,473.7363 135.834,473.3262 Z " fill="#CAD3F5"/><text fill="#A6DA95" font-family="Helvetica" font-size="16" lengthAdjust="spacing" textLength="220.5469" x="153" y="475.3203">CompletableFutureMonadError</text><line style="stroke:#C6A0F6;stroke-width:2.0;" x1="8" x2="488.5469" y1="486" y2="486"/><ellipse cx="18" cy="497.5" fill="#84BE84" rx="3" ry="3" style="stroke:#038048;stroke-width:1.0;"/><text fill="#A6DA95" font-family="Helvetica" font-size="12" lengthAdjust="spacing" textLength="196.7344" x="26" y="499.2402">Kind&lt;CFK, A&gt; raiseError(Throwable)</text><ellipse cx="18" cy="509.5" fill="#84BE84" rx="3" ry="3" style="stroke:#038048;stroke-width:1.0;"/><text fill="#A6DA95" font-family="Helvetica" font-size="12" lengthAdjust="spacing" textLength="457.5469" x="26" y="511.2402">Kind&lt;CFK, A&gt; handleErrorWith(Kind&lt;CFK, A&gt;, Function&lt;Throwable, Kind&lt;CFK, A&gt;&gt;)</text></g><!--class MonadError--><g id="elem_MonadError"><rect fill="#24273A" height="30" id="MonadError" rx="1.5" ry="1.5" style="stroke:#C6A0F6;stroke-width:2.0;" width="114.4766" x="171.04" y="355"/><rect fill="#363A4F" height="30" rx="1.5" ry="1.5" style="stroke:#363A4F;stroke-width:2.0;" width="114.4766" x="171.04" y="355"/><rect fill="#363A4F" height="1.5" style="stroke:#363A4F;stroke-width:2.0;" width="114.4766" x="171.04" y="383.5"/><rect fill="none" height="30" id="MonadError" rx="1.5" ry="1.5" style="stroke:#C6A0F6;stroke-width:2.0;" width="114.4766" x="171.04" y="355"/><ellipse cx="185.04" cy="370" fill="#B4A7E5" rx="10" ry="10" style="stroke:#181818;stroke-width:1.0;"/><path d="M182.0478,367.2754 L182.0478,365.752 L187.2568,365.752 L187.2568,367.2754 L185.5166,367.2754 L185.5166,372.9766 L187.2568,372.9766 L187.2568,374.5 L182.0478,374.5 L182.0478,372.9766 L183.788,372.9766 L183.788,367.2754 Z " fill="#CAD3F5"/><text fill="#A6DA95" font-family="Helvetica" font-size="16" font-style="italic" lengthAdjust="spacing" textLength="84.4766" x="198.04" y="374.3203">MonadError</text></g><!--reverse link Functor to CompletableFutureFunctor--><g id="link_Functor_CompletableFutureFunctor"><path d="M1033.27,55.18 C1033.27,70.9 1033.27,78.54 1033.27,97.51 " fill="none" id="Functor-backto-CompletableFutureFunctor" style="stroke:#F5BDE6;stroke-width:1.0;stroke-dasharray:7.0,7.0;"/><polygon fill="none" points="1033.27,37.18,1027.27,55.18,1039.27,55.18,1033.27,37.18" style="stroke:#F5BDE6;stroke-width:1.0;"/></g><!--link CompletableFutureFunctor to CompletableFutureKindHelper--><g id="link_CompletableFutureFunctor_CompletableFutureKindHelper"><path codeLine="9" d="M1033.27,148.38 C1033.27,174.78 1033.27,210.02 1033.27,231.65 " fill="none" id="CompletableFutureFunctor-to-CompletableFutureKindHelper" style="stroke:#F5BDE6;stroke-width:1.0;stroke-dasharray:7.0,7.0;"/><polygon fill="#F5BDE6" points="1033.27,237.65,1037.27,228.65,1033.27,232.65,1029.27,228.65,1033.27,237.65" style="stroke:#F5BDE6;stroke-width:1.0;"/><text fill="#CAD3F5" font-family="Helvetica" font-size="12" lengthAdjust="spacing" textLength="25.3477" x="1034.27" y="188.2402">uses</text></g><!--reverse link CompletableFutureFunctor to CompletableFutureApplicative--><g id="link_CompletableFutureFunctor_CompletableFutureApplicative"><path d="M952.0659,154.7529 C897.0959,175.5629 834.61,199.23 775.51,221.61 " fill="none" id="CompletableFutureFunctor-backto-CompletableFutureApplicative" style="stroke:#F5BDE6;stroke-width:1.0;"/><polygon fill="none" points="968.9,148.38,949.9416,149.1415,954.1902,160.3642,968.9,148.38" style="stroke:#F5BDE6;stroke-width:1.0;"/></g><!--reverse link Applicative to CompletableFutureApplicative--><g id="link_Applicative_CompletableFutureApplicative"><path d="M695.27,156.19 C695.27,176.24 695.27,195.35 695.27,221.74 " fill="none" id="Applicative-backto-CompletableFutureApplicative" style="stroke:#F5BDE6;stroke-width:1.0;stroke-dasharray:7.0,7.0;"/><polygon fill="none" points="695.27,138.19,689.27,156.19,701.27,156.19,695.27,138.19" style="stroke:#F5BDE6;stroke-width:1.0;"/></g><!--reverse link CompletableFutureApplicative to CompletableFutureMonad--><g id="link_CompletableFutureApplicative_CompletableFutureMonad"><path d="M632.529,293.8658 C602.889,312.7058 580.43,326.96 552.69,344.59 " fill="none" id="CompletableFutureApplicative-backto-CompletableFutureMonad" style="stroke:#F5BDE6;stroke-width:1.0;"/><polygon fill="none" points="647.72,284.21,629.3104,288.8021,635.7476,298.9295,647.72,284.21" style="stroke:#F5BDE6;stroke-width:1.0;"/></g><!--reverse link Monad to CompletableFutureMonad--><g id="link_Monad_CompletableFutureMonad"><path d="M459.0897,283.2373 C471.3597,302.3073 483.69,321.48 498.66,344.73 " fill="none" id="Monad-backto-CompletableFutureMonad" style="stroke:#F5BDE6;stroke-width:1.0;stroke-dasharray:7.0,7.0;"/><polygon fill="none" points="449.35,268.1,454.0439,286.4839,464.1354,279.9908,449.35,268.1" style="stroke:#F5BDE6;stroke-width:1.0;"/></g><!--reverse link CompletableFutureMonad to CompletableFutureMonadError--><g id="link_CompletableFutureMonad_CompletableFutureMonadError"><path d="M441.3373,402.5314 C400.6173,420.1314 361.9,436.88 318.35,455.71 " fill="none" id="CompletableFutureMonad-backto-CompletableFutureMonadError" style="stroke:#F5BDE6;stroke-width:1.0;"/><polygon fill="none" points="457.86,395.39,438.9568,397.0239,443.7178,408.039,457.86,395.39" style="stroke:#F5BDE6;stroke-width:1.0;"/></g><!--reverse link MonadError to CompletableFutureMonadError--><g id="link_MonadError_CompletableFutureMonadError"><path d="M233.809,402.8347 C236.849,420.3447 239.05,432.97 243.03,455.82 " fill="none" id="MonadError-backto-CompletableFutureMonadError" style="stroke:#F5BDE6;stroke-width:1.0;stroke-dasharray:7.0,7.0;"/><polygon fill="none" points="230.73,385.1,227.8974,403.861,239.7206,401.8084,230.73,385.1" style="stroke:#F5BDE6;stroke-width:1.0;"/></g><!--SRC=[bP7DRi8m48JlUOhjgK4boHtHL2aggeIuLUhPEAQsv3_Pwz8AyUurfg8X9GXkzdfslVFDdT1KXfO1HxH-KbMERCeFWJoiWcUE6erCOqcDgZGr7aaXQ4K9MXie5RfGX58k29h2Ig8nA5aWPufLYWXTfMDfOpNZ8dx2bCLlK4ojcFDPHYNn7cP6MScGh2IR1moEBOHkNvcqpC5sDwYQ1qtHE13xkefBUlWjJSzEd3xLDMmpU81qcyqNOtYkGH6RfpvXzBJPbyOTGLEFu1xY4HvXQ6gsomQNAylwehy9HCh391fhfOYqnMTaznMJQAy3qUax3wDy5wYPzud82PAc1hFEcr6l74b5K7_tKsHzPjbmR4kZIJjifkkuOoXrtPJhMX9SzhBj2cvT-SMvo7XmxuEj_iQfwN82OtZZpcpsZsV3S4HubkRaH-7elumJtSg3BWxcUVUnazPnnAdxPFy7]--></g></svg>