<svg xmlns="http://www.w3.org/2000/svg" xmlns:xlink="http://www.w3.org/1999/xlink" contentStyleType="text/css" height="619px" preserveAspectRatio="none" style="width:1350px;height:619px;background:#24273A;" version="1.1" viewBox="0 0 1350 619" width="1350px" zoomAndPan="magnify"><defs/><g><rect fill="#24273A" height="619" style="stroke:none;stroke-width:1.0;" width="1350" x="0" y="0"/><!--cluster HKT Core - Type Classes--><g id="cluster_HKT Core - Type Classes"><path d="M7.5,6 L153.2109,6 A2.25,2.25 0 0 1 154.7109,7.5 L161.7109,24 L1341.5,24 A1.5,1.5 0 0 1 1343,25.5 L1343,610.5 A1.5,1.5 0 0 1 1341.5,612 L7.5,612 A1.5,1.5 0 0 1 6,610.5 L6,7.5 A1.5,1.5 0 0 1 7.5,6 " fill="#24273A" style="stroke:#CAD3F5;stroke-width:1.5;"/><line style="stroke:#CAD3F5;stroke-width:1.5;" x1="6" x2="161.7109" y1="24" y2="24"/><text fill="#CAD3F5" font-family="Helvetica" font-size="12" font-weight="bold" lengthAdjust="spacing" textLength="142.7109" x="10" y="17.2402">HKT Core - Type Classes</text></g><!--class Kind--><g id="elem_Kind"><rect codeLine="6" fill="#24273A" height="46" id="Kind" rx="1.5" ry="1.5" style="stroke:#C6A0F6;stroke-width:2.0;" width="149.3672" x="543.32" y="550"/><rect fill="#363A4F" height="30" rx="1.5" ry="1.5" style="stroke:#363A4F;stroke-width:2.0;" width="149.3672" x="543.32" y="550"/><rect fill="#363A4F" height="1.5" style="stroke:#363A4F;stroke-width:2.0;" width="149.3672" x="543.32" y="578.5"/><rect codeLine="6" fill="none" height="46" id="Kind" rx="1.5" ry="1.5" style="stroke:#C6A0F6;stroke-width:2.0;" width="149.3672" x="543.32" y="550"/><ellipse cx="557.32" cy="565" fill="#B4A7E5" rx="10" ry="10" style="stroke:#181818;stroke-width:1.0;"/><path d="M554.3278,562.2754 L554.3278,560.752 L559.5368,560.752 L559.5368,562.2754 L557.7966,562.2754 L557.7966,567.9766 L559.5368,567.9766 L559.5368,569.5 L554.3278,569.5 L554.3278,567.9766 L556.068,567.9766 L556.068,562.2754 Z " fill="#CAD3F5"/><text fill="#A6DA95" font-family="Helvetica" font-size="16" font-style="italic" lengthAdjust="spacing" textLength="32.0234" x="570.32" y="569.3203">Kind</text><rect fill="#24273A" height="14" style="stroke:#C6A0F6;stroke-width:1.0;stroke-dasharray:2.0,2.0;" width="85.3438" x="610.3434" y="547"/><text fill="#CAD3F5" font-family="Helvetica" font-size="12" font-style="italic" lengthAdjust="spacing" textLength="83.3438" x="611.3434" y="557.2402">F_WITNESS, A</text><line style="stroke:#C6A0F6;stroke-width:2.0;" x1="544.32" x2="691.6872" y1="580" y2="580"/><line style="stroke:#C6A0F6;stroke-width:2.0;" x1="544.32" x2="691.6872" y1="588" y2="588"/></g><!--class Functor--><g id="elem_Functor"><rect codeLine="10" fill="#24273A" height="58" id="Functor" rx="1.5" ry="1.5" style="stroke:#C6A0F6;stroke-width:2.0;" width="421.8262" x="407.09" y="418"/><rect fill="#363A4F" height="30" rx="1.5" ry="1.5" style="stroke:#363A4F;stroke-width:2.0;" width="421.8262" x="407.09" y="418"/><rect fill="#363A4F" height="1.5" style="stroke:#363A4F;stroke-width:2.0;" width="421.8262" x="407.09" y="446.5"/><rect codeLine="10" fill="none" height="58" id="Functor" rx="1.5" ry="1.5" style="stroke:#C6A0F6;stroke-width:2.0;" width="421.8262" x="407.09" y="418"/><ellipse cx="550.5461" cy="433" fill="#B4A7E5" rx="10" ry="10" style="stroke:#181818;stroke-width:1.0;"/><path d="M547.5539,430.2754 L547.5539,428.752 L552.7629,428.752 L552.7629,430.2754 L551.0226,430.2754 L551.0226,435.9766 L552.7629,435.9766 L552.7629,437.5 L547.5539,437.5 L547.5539,435.9766 L549.2941,435.9766 L549.2941,430.2754 Z " fill="#CAD3F5"/><text fill="#A6DA95" font-family="Helvetica" font-size="16" font-style="italic" lengthAdjust="spacing" textLength="54.2422" x="569.5461" y="437.3203">Functor</text><rect fill="#24273A" height="14" style="stroke:#C6A0F6;stroke-width:1.0;stroke-dasharray:2.0,2.0;" width="70.6719" x="761.2443" y="415"/><text fill="#CAD3F5" font-family="Helvetica" font-size="12" font-style="italic" lengthAdjust="spacing" textLength="68.6719" x="762.2443" y="425.2402">F_WITNESS</text><line style="stroke:#C6A0F6;stroke-width:2.0;" x1="408.09" x2="827.9162" y1="448" y2="448"/><line style="stroke:#C6A0F6;stroke-width:2.0;" x1="408.09" x2="827.9162" y1="456" y2="456"/><ellipse cx="418.09" cy="467.5" fill="#84BE84" rx="3" ry="3" style="stroke:#038048;stroke-width:1.0;"/><text fill="#A6DA95" font-family="Helvetica" font-size="12" lengthAdjust="spacing" textLength="396.8262" x="426.09" y="469.2402">map(fn: Function&lt;A,B&gt;, fa: Kind&lt;F_WITNESS,A&gt;) : Kind&lt;F_WITNESS,B&gt;</text></g><!--class Applicative--><g id="elem_Applicative"><rect codeLine="13" fill="#24273A" height="70" id="Applicative" rx="1.5" ry="1.5" style="stroke:#C6A0F6;stroke-width:2.0;" width="521.8633" x="22.07" y="287"/><rect fill="#363A4F" height="30" rx="1.5" ry="1.5" style="stroke:#363A4F;stroke-width:2.0;" width="521.8633" x="22.07" y="287"/><rect fill="#363A4F" height="1.5" style="stroke:#363A4F;stroke-width:2.0;" width="521.8633" x="22.07" y="315.5"/><rect codeLine="13" fill="none" height="70" id="Applicative" rx="1.5" ry="1.5" style="stroke:#C6A0F6;stroke-width:2.0;" width="521.8633" x="22.07" y="287"/><ellipse cx="203.9782" cy="302" fill="#B4A7E5" rx="10" ry="10" style="stroke:#181818;stroke-width:1.0;"/><path d="M200.986,299.2754 L200.986,297.752 L206.195,297.752 L206.195,299.2754 L204.4548,299.2754 L204.4548,304.9766 L206.195,304.9766 L206.195,306.5 L200.986,306.5 L200.986,304.9766 L202.7263,304.9766 L202.7263,299.2754 Z " fill="#CAD3F5"/><text fill="#A6DA95" font-family="Helvetica" font-size="16" font-style="italic" lengthAdjust="spacing" textLength="77.375" x="222.9782" y="306.3203">Applicative</text><rect fill="#24273A" height="14" style="stroke:#C6A0F6;stroke-width:1.0;stroke-dasharray:2.0,2.0;" width="70.6719" x="476.2614" y="284"/><text fill="#CAD3F5" font-family="Helvetica" font-size="12" font-style="italic" lengthAdjust="spacing" textLength="68.6719" x="477.2614" y="294.2402">F_WITNESS</text><line style="stroke:#C6A0F6;stroke-width:2.0;" x1="23.07" x2="542.9333" y1="317" y2="317"/><line style="stroke:#C6A0F6;stroke-width:2.0;" x1="23.07" x2="542.9333" y1="325" y2="325"/><ellipse cx="33.07" cy="336.5" fill="#84BE84" rx="3" ry="3" style="stroke:#038048;stroke-width:1.0;"/><text fill="#A6DA95" font-family="Helvetica" font-size="12" lengthAdjust="spacing" textLength="189.4043" x="41.07" y="338.2402">of(value: A) : Kind&lt;F_WITNESS,A&gt;</text><ellipse cx="33.07" cy="348.5" fill="#84BE84" rx="3" ry="3" style="stroke:#038048;stroke-width:1.0;"/><text fill="#A6DA95" font-family="Helvetica" font-size="12" lengthAdjust="spacing" textLength="496.8633" x="41.07" y="350.2402">ap(ff: Kind&lt;F_WITNESS, Function&lt;A,B&gt;&gt;, fa: Kind&lt;F_WITNESS,A&gt;) : Kind&lt;F_WITNESS,B&gt;</text></g><!--class Monad--><g id="elem_Monad"><rect codeLine="19" fill="#24273A" height="58" id="Monad" rx="1.5" ry="1.5" style="stroke:#C6A0F6;stroke-width:2.0;" width="557.8691" x="41.07" y="168"/><rect fill="#363A4F" height="30" rx="1.5" ry="1.5" style="stroke:#363A4F;stroke-width:2.0;" width="557.8691" x="41.07" y="168"/><rect fill="#363A4F" height="1.5" style="stroke:#363A4F;stroke-width:2.0;" width="557.8691" x="41.07" y="196.5"/><rect codeLine="19" fill="none" height="58" id="Monad" rx="1.5" ry="1.5" style="stroke:#C6A0F6;stroke-width:2.0;" width="557.8691" x="41.07" y="168"/><ellipse cx="255.2077" cy="183" fill="#B4A7E5" rx="10" ry="10" style="stroke:#181818;stroke-width:1.0;"/><path d="M252.2155,180.2754 L252.2155,178.752 L257.4245,178.752 L257.4245,180.2754 L255.6843,180.2754 L255.6843,185.9766 L257.4245,185.9766 L257.4245,187.5 L252.2155,187.5 L252.2155,185.9766 L253.9557,185.9766 L253.9557,180.2754 Z " fill="#CAD3F5"/><text fill="#A6DA95" font-family="Helvetica" font-size="16" font-style="italic" lengthAdjust="spacing" textLength="48.9219" x="274.2077" y="187.3203">Monad</text><rect fill="#24273A" height="14" style="stroke:#C6A0F6;stroke-width:1.0;stroke-dasharray:2.0,2.0;" width="70.6719" x="531.2673" y="165"/><text fill="#CAD3F5" font-family="Helvetica" font-size="12" font-style="italic" lengthAdjust="spacing" textLength="68.6719" x="532.2673" y="175.2402">F_WITNESS</text><line style="stroke:#C6A0F6;stroke-width:2.0;" x1="42.07" x2="597.9391" y1="198" y2="198"/><line style="stroke:#C6A0F6;stroke-width:2.0;" x1="42.07" x2="597.9391" y1="206" y2="206"/><ellipse cx="52.07" cy="217.5" fill="#84BE84" rx="3" ry="3" style="stroke:#038048;stroke-width:1.0;"/><text fill="#A6DA95" font-family="Helvetica" font-size="12" lengthAdjust="spacing" textLength="532.8691" x="60.07" y="219.2402">flatMap(fn: Function&lt;A, Kind&lt;F_WITNESS,B&gt;&gt;, ma: Kind&lt;F_WITNESS,A&gt;) : Kind&lt;F_WITNESS,B&gt;</text></g><!--class MonadError--><g id="elem_MonadError"><rect codeLine="22" fill="#24273A" height="70" id="MonadError" rx="1.5" ry="1.5" style="stroke:#C6A0F6;stroke-width:2.0;" width="635.2422" x="22.38" y="37"/><rect fill="#363A4F" height="30" rx="1.5" ry="1.5" style="stroke:#363A4F;stroke-width:2.0;" width="635.2422" x="22.38" y="37"/><rect fill="#363A4F" height="1.5" style="stroke:#363A4F;stroke-width:2.0;" width="635.2422" x="22.38" y="65.5"/><rect codeLine="22" fill="none" height="70" id="MonadError" rx="1.5" ry="1.5" style="stroke:#C6A0F6;stroke-width:2.0;" width="635.2422" x="22.38" y="37"/><ellipse cx="250.0909" cy="52" fill="#B4A7E5" rx="10" ry="10" style="stroke:#181818;stroke-width:1.0;"/><path d="M247.0988,49.2754 L247.0988,47.752 L252.3077,47.752 L252.3077,49.2754 L250.5675,49.2754 L250.5675,54.9766 L252.3077,54.9766 L252.3077,56.5 L247.0988,56.5 L247.0988,54.9766 L248.839,54.9766 L248.839,49.2754 Z " fill="#CAD3F5"/><text fill="#A6DA95" font-family="Helvetica" font-size="16" font-style="italic" lengthAdjust="spacing" textLength="84.4766" x="269.0909" y="56.3203">MonadError</text><rect fill="#24273A" height="14" style="stroke:#C6A0F6;stroke-width:1.0;stroke-dasharray:2.0,2.0;" width="85.3438" x="575.2784" y="34"/><text fill="#CAD3F5" font-family="Helvetica" font-size="12" font-style="italic" lengthAdjust="spacing" textLength="83.3438" x="576.2784" y="44.2402">F_WITNESS, E</text><line style="stroke:#C6A0F6;stroke-width:2.0;" x1="23.38" x2="656.6222" y1="67" y2="67"/><line style="stroke:#C6A0F6;stroke-width:2.0;" x1="23.38" x2="656.6222" y1="75" y2="75"/><ellipse cx="33.38" cy="86.5" fill="#84BE84" rx="3" ry="3" style="stroke:#038048;stroke-width:1.0;"/><text fill="#A6DA95" font-family="Helvetica" font-size="12" lengthAdjust="spacing" textLength="228.7207" x="41.38" y="88.2402">raiseError(error: E) : Kind&lt;F_WITNESS,A&gt;</text><ellipse cx="33.38" cy="98.5" fill="#84BE84" rx="3" ry="3" style="stroke:#038048;stroke-width:1.0;"/><text fill="#A6DA95" font-family="Helvetica" font-size="12" lengthAdjust="spacing" textLength="610.2422" x="41.38" y="100.2402">handleErrorWith(ma: Kind&lt;F_WITNESS,A&gt;, handler: Function&lt;E, Kind&lt;F_WITNESS,A&gt;&gt;) : Kind&lt;F_WITNESS,A&gt;</text></g><!--class Monoid--><g id="elem_Monoid"><rect codeLine="28" fill="#24273A" height="70" id="Monoid" rx="1.5" ry="1.5" style="stroke:#C6A0F6;stroke-width:2.0;" width="144.3672" x="937.82" y="37"/><rect fill="#363A4F" height="30" rx="1.5" ry="1.5" style="stroke:#363A4F;stroke-width:2.0;" width="144.3672" x="937.82" y="37"/><rect fill="#363A4F" height="1.5" style="stroke:#363A4F;stroke-width:2.0;" width="144.3672" x="937.82" y="65.5"/><rect codeLine="28" fill="none" height="70" id="Monoid" rx="1.5" ry="1.5" style="stroke:#C6A0F6;stroke-width:2.0;" width="144.3672" x="937.82" y="37"/><ellipse cx="974.269" cy="52" fill="#B4A7E5" rx="10" ry="10" style="stroke:#181818;stroke-width:1.0;"/><path d="M971.2768,49.2754 L971.2768,47.752 L976.4858,47.752 L976.4858,49.2754 L974.7456,49.2754 L974.7456,54.9766 L976.4858,54.9766 L976.4858,56.5 L971.2768,56.5 L971.2768,54.9766 L973.0171,54.9766 L973.0171,49.2754 Z " fill="#CAD3F5"/><text fill="#A6DA95" font-family="Helvetica" font-size="16" font-style="italic" lengthAdjust="spacing" textLength="52.4766" x="992.2577" y="56.3203">Monoid</text><rect fill="#24273A" height="14" style="stroke:#C6A0F6;stroke-width:1.0;stroke-dasharray:2.0,2.0;" width="10.0039" x="1075.1833" y="34"/><text fill="#CAD3F5" font-family="Helvetica" font-size="12" font-style="italic" lengthAdjust="spacing" textLength="8.0039" x="1076.1833" y="44.2402">A</text><line style="stroke:#C6A0F6;stroke-width:2.0;" x1="938.82" x2="1081.1872" y1="67" y2="67"/><line style="stroke:#C6A0F6;stroke-width:2.0;" x1="938.82" x2="1081.1872" y1="75" y2="75"/><ellipse cx="948.82" cy="86.5" fill="#84BE84" rx="3" ry="3" style="stroke:#038048;stroke-width:1.0;"/><text fill="#A6DA95" font-family="Helvetica" font-size="12" lengthAdjust="spacing" textLength="58.6758" x="956.82" y="88.2402">empty() : A</text><ellipse cx="948.82" cy="98.5" fill="#84BE84" rx="3" ry="3" style="stroke:#038048;stroke-width:1.0;"/><text fill="#A6DA95" font-family="Helvetica" font-size="12" lengthAdjust="spacing" textLength="119.3672" x="956.82" y="100.2402">combine(x: A, y: A) : A</text></g><!--class Traverse--><g id="elem_Traverse"><rect codeLine="33" fill="#24273A" height="70" id="Traverse" rx="1.5" ry="1.5" style="stroke:#C6A0F6;stroke-width:2.0;" width="748.7324" x="578.63" y="287"/><rect fill="#363A4F" height="30" rx="1.5" ry="1.5" style="stroke:#363A4F;stroke-width:2.0;" width="748.7324" x="578.63" y="287"/><rect fill="#363A4F" height="1.5" style="stroke:#363A4F;stroke-width:2.0;" width="748.7324" x="578.63" y="315.5"/><rect codeLine="33" fill="none" height="70" id="Traverse" rx="1.5" ry="1.5" style="stroke:#C6A0F6;stroke-width:2.0;" width="748.7324" x="578.63" y="287"/><ellipse cx="911.4318" cy="302" fill="#B4A7E5" rx="10" ry="10" style="stroke:#181818;stroke-width:1.0;"/><path d="M908.4396,299.2754 L908.4396,297.752 L913.6486,297.752 L913.6486,299.2754 L911.9083,299.2754 L911.9083,304.9766 L913.6486,304.9766 L913.6486,306.5 L908.4396,306.5 L908.4396,304.9766 L910.1798,304.9766 L910.1798,299.2754 Z " fill="#CAD3F5"/><text fill="#A6DA95" font-family="Helvetica" font-size="16" font-style="italic" lengthAdjust="spacing" textLength="63.125" x="930.4318" y="306.3203">Traverse</text><rect fill="#24273A" height="14" style="stroke:#C6A0F6;stroke-width:1.0;stroke-dasharray:2.0,2.0;" width="10.0039" x="1320.3585" y="284"/><text fill="#CAD3F5" font-family="Helvetica" font-size="12" font-style="italic" lengthAdjust="spacing" textLength="8.0039" x="1321.3585" y="294.2402">A</text><line style="stroke:#C6A0F6;stroke-width:2.0;" x1="579.63" x2="1326.3624" y1="317" y2="317"/><line style="stroke:#C6A0F6;stroke-width:2.0;" x1="579.63" x2="1326.3624" y1="325" y2="325"/><ellipse cx="589.63" cy="336.5" fill="#84BE84" rx="3" ry="3" style="stroke:#038048;stroke-width:1.0;"/><text fill="#A6DA95" font-family="Helvetica" font-size="12" lengthAdjust="spacing" textLength="723.7324" x="597.63" y="338.2402">traverse(a: Applicative&lt;G&gt;, ta : Kind&lt;T, A&gt;, f : Function&lt;? super A, ? extends Kind&lt;G, ? extends B&gt;&gt;) : &lt;G, A, B&gt; Kind&lt;G, Kind&lt;T, B&gt;&gt;</text><ellipse cx="589.63" cy="348.5" fill="#84BE84" rx="3" ry="3" style="stroke:#038048;stroke-width:1.0;"/><text fill="#A6DA95" font-family="Helvetica" font-size="12" lengthAdjust="spacing" textLength="467.6074" x="597.63" y="350.2402">sequence(a: Applicative&lt;G&gt;, tga : Kind&lt;T, Kind&lt;G, A&gt;&gt;) : &lt;G, A&gt; Kind&lt;G, Kind&lt;T, A&gt;&gt;</text></g><!--link Functor to Kind--><g id="link_Functor_Kind"><path codeLine="38" d="M618,476.45 C618,498.76 618,523.36 618,543.86 " fill="none" id="Functor-to-Kind" style="stroke:#F5BDE6;stroke-width:1.0;stroke-dasharray:7.0,7.0;"/><polygon fill="#F5BDE6" points="618,549.86,622,540.86,618,544.86,614,540.86,618,549.86" style="stroke:#F5BDE6;stroke-width:1.0;"/><text fill="#CAD3F5" font-family="Helvetica" font-size="12" lengthAdjust="spacing" textLength="71.373" x="619" y="516.2402">(operates on)</text></g><!--link Applicative to Functor--><g id="link_Applicative_Functor"><path codeLine="39" d="M376.76,357.43 C428.44,376.4 474.9335,393.4645 523.7535,411.3945 " fill="none" id="Applicative-to-Functor" style="stroke:#F5BDE6;stroke-width:1.0;"/><polygon fill="none" points="540.65,417.6,525.822,405.7623,521.685,417.0266,540.65,417.6" style="stroke:#F5BDE6;stroke-width:1.0;"/></g><!--link Monad to Applicative--><g id="link_Monad_Applicative"><path codeLine="40" d="M311.51,226.22 C306.09,244.23 304.2155,250.4631 298.4755,269.5431 " fill="none" id="Monad-to-Applicative" style="stroke:#F5BDE6;stroke-width:1.0;"/><polygon fill="none" points="293.29,286.78,304.2212,271.2716,292.7299,267.8146,293.29,286.78" style="stroke:#F5BDE6;stroke-width:1.0;"/></g><!--link MonadError to Monad--><g id="link_MonadError_Monad"><path codeLine="41" d="M334.43,107.26 C331.33,126.31 330.4023,131.9623 327.4823,149.9623 " fill="none" id="MonadError-to-Monad" style="stroke:#F5BDE6;stroke-width:1.0;"/><polygon fill="none" points="324.6,167.73,333.4049,150.923,321.5597,149.0015,324.6,167.73" style="stroke:#F5BDE6;stroke-width:1.0;"/></g><!--link Traverse to Functor--><g id="link_Traverse_Functor"><path codeLine="42" d="M859.24,357.43 C807.56,376.4 761.0665,393.4645 712.2465,411.3945 " fill="none" id="Traverse-to-Functor" style="stroke:#F5BDE6;stroke-width:1.0;"/><polygon fill="none" points="695.35,417.6,714.315,417.0266,710.178,405.7623,695.35,417.6" style="stroke:#F5BDE6;stroke-width:1.0;"/></g><!--SRC=[fLHDRvj04BtxLqnp2L4nbdgqB29iEMaL9Jt4KdAhrijWLeLTkhiaiThyzmuBE8jn6rNr0PatNsyUC_D1I5xKAK9kRMNcivbcpz5EsBpUrWOrLzAYj15NvKnoPIoR2ZxZp5PLpRcGqv9ndWjcrRGgcBHrMKnjZYNEIYRapFsDAa8daqd5-7UsGpZxVBE1bT88KzZiAuHLmOn1SmO_9q0_GILrnZXvtWYPBgw-FNpPtAtlxqD8uZDW1XguSmOuXuC320DK4ggSgAWIR9Czm6WNXV3O14KFmaeqvk8Gc_GnJwoeqKKus-inbQjQSglq6vkMIWSVs01yX99LGIRdhKqekKZ2PHn2nkPmr50INy08NCQd6IHLLGYINZpXCGlFD62Yii3rDOVaHA4azbmRpjd8PTZ3lpVHYao2t469DbUf0SuaR15ChfubY0nID49Z6iAsji1eAbH68qTmnkh26Y-DK_PJC2eVZek7i1G-zN1rYkJg3qhVAidIOuqTE50tAvYz7N_hCHkYK_xdntVLrrhx4nZ2sgFcZ0D-cWc33WwmUSvX_TuKqEAaHHj3gv879sc7dPlssbw7Ox_uxzNEuIijdWQDN3sXthyt8Pqm9vHH8bqa1odeRI03bfNT1msNn4Ffecs5nE25u13stOOaVX6_oaOpucYmhzE_3ohP3Wn8DNzRhqaootenDiqTeqq2JxvBC7L5MX2LIy0NMe2qFNEBQnzPjfes87akuuDBdvWSF3u6VzGe-Ma-EvzGdoVn2eop9ttsJg3- -4LHwqkHWQ8sc4K3IhPNrhzDq-clk8zondQf7EpvlPdQeNPsz-ui1-q7wIOJOlNw6m00]--></g></svg>