<svg xmlns="http://www.w3.org/2000/svg" xmlns:xlink="http://www.w3.org/1999/xlink" contentStyleType="text/css" height="691px" preserveAspectRatio="none" style="width:1584px;height:691px;background:#24273A;" version="1.1" viewBox="0 0 1584 691" width="1584px" zoomAndPan="magnify"><defs/><g><rect fill="#24273A" height="691" style="stroke:none;stroke-width:1.0;" width="1584" x="0" y="0"/><!--cluster Defunctionalisation Pattern Details--><g id="cluster_Defunctionalisation Pattern Details"><path d="M7.5,6 L209.2031,6 A2.25,2.25 0 0 1 210.7031,7.5 L217.7031,24 L1575.5,24 A1.5,1.5 0 0 1 1577,25.5 L1577,682.5 A1.5,1.5 0 0 1 1575.5,684 L7.5,684 A1.5,1.5 0 0 1 6,682.5 L6,7.5 A1.5,1.5 0 0 1 7.5,6 " fill="#24273A" style="stroke:#CAD3F5;stroke-width:1.5;"/><line style="stroke:#CAD3F5;stroke-width:1.5;" x1="6" x2="217.7031" y1="24" y2="24"/><text fill="#CAD3F5" font-family="Helvetica" font-size="12" font-weight="bold" lengthAdjust="spacing" textLength="198.7031" x="10" y="17.2402">Defunctionalisation Pattern Details</text></g><!--cluster For External Types (Optional etc)--><g id="cluster_For External Types (Optional etc)"><path d="M31.5,45 L223.2012,45 A2.25,2.25 0 0 1 224.7012,46.5 L231.7012,63 L750.5,63 A1.5,1.5 0 0 1 752,64.5 L752,658.5 A1.5,1.5 0 0 1 750.5,660 L31.5,660 A1.5,1.5 0 0 1 30,658.5 L30,46.5 A1.5,1.5 0 0 1 31.5,45 " fill="#24273A" style="stroke:#CAD3F5;stroke-width:1.5;"/><line style="stroke:#CAD3F5;stroke-width:1.5;" x1="30" x2="231.7012" y1="63" y2="63"/><text fill="#CAD3F5" font-family="Helvetica" font-size="12" font-weight="bold" lengthAdjust="spacing" textLength="188.7012" x="34" y="56.2402">For External Types (Optional etc)</text></g><!--cluster internal--><g id="cluster_internal"><path d="M55.5,301 L101.8418,301 A2.25,2.25 0 0 1 103.3418,302.5 L110.3418,319 L332.5,319 A1.5,1.5 0 0 1 334,320.5 L334,536.5 A1.5,1.5 0 0 1 332.5,538 L55.5,538 A1.5,1.5 0 0 1 54,536.5 L54,302.5 A1.5,1.5 0 0 1 55.5,301 " fill="#24273A" style="stroke:#CAD3F5;stroke-width:1.5;"/><line style="stroke:#CAD3F5;stroke-width:1.5;" x1="54" x2="110.3418" y1="319" y2="319"/><text fill="#CAD3F5" font-family="Helvetica" font-size="12" font-weight="bold" lengthAdjust="spacing" textLength="43.3418" x="58" y="312.2402">internal</text></g><!--cluster For Library-Defined Types (Id, Maybe, IO, Transformers)--><g id="cluster_For Library-Defined Types (Id, Maybe, IO, Transformers)"><path d="M777.5,45 L1099.2324,45 A2.25,2.25 0 0 1 1100.7324,46.5 L1107.7324,63 L1355.5,63 A1.5,1.5 0 0 1 1357,64.5 L1357,530.5 A1.5,1.5 0 0 1 1355.5,532 L777.5,532 A1.5,1.5 0 0 1 776,530.5 L776,46.5 A1.5,1.5 0 0 1 777.5,45 " fill="#24273A" style="stroke:#CAD3F5;stroke-width:1.5;"/><line style="stroke:#CAD3F5;stroke-width:1.5;" x1="776" x2="1107.7324" y1="63" y2="63"/><text fill="#CAD3F5" font-family="Helvetica" font-size="12" font-weight="bold" lengthAdjust="spacing" textLength="318.7324" x="780" y="56.2402">For Library-Defined Types (Id, Maybe, IO, Transformers)</text></g><!--class KindUnwrapException--><g id="elem_KindUnwrapException"><rect codeLine="6" fill="#24273A" height="46" id="KindUnwrapException" rx="1.5" ry="1.5" style="stroke:#C6A0F6;stroke-width:2.0;" width="187.4219" x="1373.29" y="76"/><rect fill="#363A4F" height="30" rx="1.5" ry="1.5" style="stroke:#363A4F;stroke-width:2.0;" width="187.4219" x="1373.29" y="76"/><rect fill="#363A4F" height="1.5" style="stroke:#363A4F;stroke-width:2.0;" width="187.4219" x="1373.29" y="104.5"/><rect codeLine="6" fill="none" height="46" id="KindUnwrapException" rx="1.5" ry="1.5" style="stroke:#C6A0F6;stroke-width:2.0;" width="187.4219" x="1373.29" y="76"/><ellipse cx="1387.29" cy="91" fill="#ADD1B2" rx="10" ry="10" style="stroke:#181818;stroke-width:1.0;"/><path d="M1389.124,95.248 Q1388.7138,95.459 1388.2627,95.5645 Q1387.8115,95.6699 1387.3134,95.6699 Q1385.5439,95.6699 1384.6123,94.5039 Q1383.6806,93.3379 1383.6806,91.1348 Q1383.6806,88.9258 1384.6123,87.7598 Q1385.5439,86.5938 1387.3134,86.5938 Q1387.8115,86.5938 1388.2685,86.6992 Q1388.7255,86.8047 1389.124,87.0156 L1389.124,88.9375 Q1388.6787,88.5273 1388.2597,88.3369 Q1387.8408,88.1465 1387.3955,88.1465 Q1386.4463,88.1465 1385.9629,88.8994 Q1385.4795,89.6523 1385.4795,91.1348 Q1385.4795,92.6113 1385.9629,93.3643 Q1386.4463,94.1172 1387.3955,94.1172 Q1387.8408,94.1172 1388.2597,93.9268 Q1388.6787,93.7363 1389.124,93.3262 Z " fill="#CAD3F5"/><text fill="#A6DA95" font-family="Helvetica" font-size="16" lengthAdjust="spacing" textLength="157.4219" x="1400.29" y="95.3203">KindUnwrapException</text><line style="stroke:#C6A0F6;stroke-width:2.0;" x1="1374.29" x2="1559.7119" y1="106" y2="106"/><line style="stroke:#C6A0F6;stroke-width:2.0;" x1="1374.29" x2="1559.7119" y1="114" y2="114"/></g><!--class OptionalKindInterface--><g id="elem_OptionalKindInterface"><rect codeLine="9" fill="#24273A" height="58" id="OptionalKindInterface" rx="1.5" ry="1.5" style="stroke:#C6A0F6;stroke-width:2.0;" width="265.7344" x="110.13" y="183"/><rect fill="#363A4F" height="30" rx="1.5" ry="1.5" style="stroke:#363A4F;stroke-width:2.0;" width="265.7344" x="110.13" y="183"/><rect fill="#363A4F" height="1.5" style="stroke:#363A4F;stroke-width:2.0;" width="265.7344" x="110.13" y="211.5"/><rect codeLine="9" fill="none" height="58" id="OptionalKindInterface" rx="1.5" ry="1.5" style="stroke:#C6A0F6;stroke-width:2.0;" width="265.7344" x="110.13" y="183"/><ellipse cx="187.1866" cy="198" fill="#B4A7E5" rx="10" ry="10" style="stroke:#181818;stroke-width:1.0;"/><path d="M184.1945,195.2754 L184.1945,193.752 L189.4034,193.752 L189.4034,195.2754 L187.6632,195.2754 L187.6632,200.9766 L189.4034,200.9766 L189.4034,202.5 L184.1945,202.5 L184.1945,200.9766 L185.9347,200.9766 L185.9347,195.2754 Z " fill="#CAD3F5"/><text fill="#A6DA95" font-family="Helvetica" font-size="16" font-style="italic" lengthAdjust="spacing" textLength="91.6172" x="206.1866" y="202.3203">OptionalKind</text><rect fill="#24273A" height="14" style="stroke:#C6A0F6;stroke-width:1.0;stroke-dasharray:2.0,2.0;" width="10.0039" x="368.8605" y="180"/><text fill="#CAD3F5" font-family="Helvetica" font-size="12" font-style="italic" lengthAdjust="spacing" textLength="8.0039" x="369.8605" y="190.2402">A</text><line style="stroke:#C6A0F6;stroke-width:2.0;" x1="111.13" x2="374.8644" y1="213" y2="213"/><text fill="#A6DA95" font-family="Helvetica" font-size="12" lengthAdjust="spacing" textLength="253.7344" x="116.13" y="226.2402">class Witness {} ' Nested phantom Witness type</text><line style="stroke:#C6A0F6;stroke-width:2.0;" x1="111.13" x2="374.8644" y1="233" y2="233"/></g><!--class Kind--><g id="elem_Kind"><rect fill="#24273A" height="46" id="Kind" rx="1.5" ry="1.5" style="stroke:#C6A0F6;stroke-width:2.0;" width="62.0234" x="211.99" y="76"/><rect fill="#363A4F" height="30" rx="1.5" ry="1.5" style="stroke:#363A4F;stroke-width:2.0;" width="62.0234" x="211.99" y="76"/><rect fill="#363A4F" height="1.5" style="stroke:#363A4F;stroke-width:2.0;" width="62.0234" x="211.99" y="104.5"/><rect fill="none" height="46" id="Kind" rx="1.5" ry="1.5" style="stroke:#C6A0F6;stroke-width:2.0;" width="62.0234" x="211.99" y="76"/><ellipse cx="225.99" cy="91" fill="#B4A7E5" rx="10" ry="10" style="stroke:#181818;stroke-width:1.0;"/><path d="M222.9978,88.2754 L222.9978,86.752 L228.2068,86.752 L228.2068,88.2754 L226.4666,88.2754 L226.4666,93.9766 L228.2068,93.9766 L228.2068,95.5 L222.9978,95.5 L222.9978,93.9766 L224.738,93.9766 L224.738,88.2754 Z " fill="#CAD3F5"/><text fill="#A6DA95" font-family="Helvetica" font-size="16" font-style="italic" lengthAdjust="spacing" textLength="32.0234" x="238.99" y="95.3203">Kind</text><line style="stroke:#C6A0F6;stroke-width:2.0;" x1="212.99" x2="273.0134" y1="106" y2="106"/><line style="stroke:#C6A0F6;stroke-width:2.0;" x1="212.99" x2="273.0134" y1="114" y2="114"/></g><!--class JavaOptional--><g id="elem_JavaOptional"><rect codeLine="12" fill="#24273A" height="46" id="JavaOptional" rx="1.5" ry="1.5" style="stroke:#C6A0F6;stroke-width:2.0;" width="160.293" x="307.85" y="598"/><rect fill="#363A4F" height="30" rx="1.5" ry="1.5" style="stroke:#363A4F;stroke-width:2.0;" width="160.293" x="307.85" y="598"/><rect fill="#363A4F" height="1.5" style="stroke:#363A4F;stroke-width:2.0;" width="160.293" x="307.85" y="626.5"/><rect codeLine="12" fill="none" height="46" id="JavaOptional" rx="1.5" ry="1.5" style="stroke:#C6A0F6;stroke-width:2.0;" width="160.293" x="307.85" y="598"/><ellipse cx="321.85" cy="613" fill="#ADD1B2" rx="10" ry="10" style="stroke:#181818;stroke-width:1.0;"/><path d="M323.684,617.248 Q323.2738,617.459 322.8227,617.5645 Q322.3715,617.6699 321.8734,617.6699 Q320.1039,617.6699 319.1723,616.5039 Q318.2406,615.3379 318.2406,613.1348 Q318.2406,610.9258 319.1723,609.7598 Q320.1039,608.5938 321.8734,608.5938 Q322.3715,608.5938 322.8285,608.6992 Q323.2855,608.8047 323.684,609.0156 L323.684,610.9375 Q323.2387,610.5273 322.8197,610.3369 Q322.4008,610.1465 321.9555,610.1465 Q321.0063,610.1465 320.5229,610.8994 Q320.0395,611.6523 320.0395,613.1348 Q320.0395,614.6113 320.5229,615.3643 Q321.0063,616.1172 321.9555,616.1172 Q322.4008,616.1172 322.8197,615.9268 Q323.2387,615.7363 323.684,615.3262 Z " fill="#CAD3F5"/><text fill="#A6DA95" font-family="Helvetica" font-size="16" lengthAdjust="spacing" textLength="118.2891" x="334.85" y="617.3203">java.util.Optional</text><rect fill="#24273A" height="14" style="stroke:#C6A0F6;stroke-width:1.0;stroke-dasharray:2.0,2.0;" width="10.0039" x="461.1391" y="595"/><text fill="#CAD3F5" font-family="Helvetica" font-size="12" font-style="italic" lengthAdjust="spacing" textLength="8.0039" x="462.1391" y="605.2402">A</text><line style="stroke:#C6A0F6;stroke-width:2.0;" x1="308.85" x2="467.143" y1="628" y2="628"/><line style="stroke:#C6A0F6;stroke-width:2.0;" x1="308.85" x2="467.143" y1="636" y2="636"/></g><!--class OptionalKindHelper--><g id="elem_OptionalKindHelper"><rect codeLine="24" fill="#24273A" height="70" id="OptionalKindHelper" rx="1.5" ry="1.5" style="stroke:#C6A0F6;stroke-width:2.0;" width="385.8613" x="350.07" y="320"/><rect fill="#363A4F" height="30" rx="1.5" ry="1.5" style="stroke:#363A4F;stroke-width:2.0;" width="385.8613" x="350.07" y="320"/><rect fill="#363A4F" height="1.5" style="stroke:#363A4F;stroke-width:2.0;" width="385.8613" x="350.07" y="348.5"/><rect codeLine="24" fill="none" height="70" id="OptionalKindHelper" rx="1.5" ry="1.5" style="stroke:#C6A0F6;stroke-width:2.0;" width="385.8613" x="350.07" y="320"/><ellipse cx="469.6257" cy="335" fill="#ADD1B2" rx="10" ry="10" style="stroke:#181818;stroke-width:1.0;"/><path d="M471.4596,339.248 Q471.0495,339.459 470.5983,339.5645 Q470.1471,339.6699 469.6491,339.6699 Q467.8796,339.6699 466.9479,338.5039 Q466.0163,337.3379 466.0163,335.1348 Q466.0163,332.9258 466.9479,331.7598 Q467.8796,330.5938 469.6491,330.5938 Q470.1471,330.5938 470.6042,330.6992 Q471.0612,330.8047 471.4596,331.0156 L471.4596,332.9375 Q471.0143,332.5273 470.5954,332.3369 Q470.1764,332.1465 469.7311,332.1465 Q468.7819,332.1465 468.2985,332.8994 Q467.8151,333.6523 467.8151,335.1348 Q467.8151,336.6113 468.2985,337.3643 Q468.7819,338.1172 469.7311,338.1172 Q470.1764,338.1172 470.5954,337.9268 Q471.0143,337.7363 471.4596,337.3262 Z " fill="#CAD3F5"/><text fill="#A6DA95" font-family="Helvetica" font-size="16" lengthAdjust="spacing" textLength="138.75" x="488.6257" y="339.3203">OptionalKindHelper</text><line style="stroke:#C6A0F6;stroke-width:2.0;" x1="351.07" x2="734.9313" y1="350" y2="350"/><line style="stroke:#C6A0F6;stroke-width:2.0;" x1="351.07" x2="734.9313" y1="358" y2="358"/><ellipse cx="361.07" cy="369.5" fill="#84BE84" rx="3" ry="3" style="stroke:#038048;stroke-width:1.0;"/><text fill="#A6DA95" font-family="Helvetica" font-size="12" lengthAdjust="spacing" text-decoration="underline" textLength="342.1816" x="369.07" y="371.2402">wrap(opt: java.util.Optional&lt;A&gt;): Kind&lt;OptionalKind.Witness, A&gt;</text><ellipse cx="361.07" cy="381.5" fill="#84BE84" rx="3" ry="3" style="stroke:#038048;stroke-width:1.0;"/><text fill="#A6DA95" font-family="Helvetica" font-size="12" lengthAdjust="spacing" text-decoration="underline" textLength="360.8613" x="369.07" y="383.2402">unwrap(kind: Kind&lt;OptionalKind.Witness, A&gt;): java.util.Optional&lt;A&gt;</text></g><!--class OptionalMonad--><g id="elem_OptionalMonad"><rect codeLine="28" fill="#24273A" height="46" id="OptionalMonad" rx="1.5" ry="1.5" style="stroke:#C6A0F6;stroke-width:2.0;" width="138.5156" x="473.74" y="189"/><rect fill="#363A4F" height="30" rx="1.5" ry="1.5" style="stroke:#363A4F;stroke-width:2.0;" width="138.5156" x="473.74" y="189"/><rect fill="#363A4F" height="1.5" style="stroke:#363A4F;stroke-width:2.0;" width="138.5156" x="473.74" y="217.5"/><rect codeLine="28" fill="none" height="46" id="OptionalMonad" rx="1.5" ry="1.5" style="stroke:#C6A0F6;stroke-width:2.0;" width="138.5156" x="473.74" y="189"/><ellipse cx="487.74" cy="204" fill="#ADD1B2" rx="10" ry="10" style="stroke:#181818;stroke-width:1.0;"/><path d="M489.574,208.248 Q489.1638,208.459 488.7127,208.5645 Q488.2615,208.6699 487.7634,208.6699 Q485.9939,208.6699 485.0623,207.5039 Q484.1306,206.3379 484.1306,204.1348 Q484.1306,201.9258 485.0623,200.7598 Q485.9939,199.5938 487.7634,199.5938 Q488.2615,199.5938 488.7185,199.6992 Q489.1755,199.8047 489.574,200.0156 L489.574,201.9375 Q489.1287,201.5273 488.7097,201.3369 Q488.2908,201.1465 487.8455,201.1465 Q486.8963,201.1465 486.4129,201.8994 Q485.9295,202.6523 485.9295,204.1348 Q485.9295,205.6113 486.4129,206.3643 Q486.8963,207.1172 487.8455,207.1172 Q488.2908,207.1172 488.7097,206.9268 Q489.1287,206.7363 489.574,206.3262 Z " fill="#CAD3F5"/><text fill="#A6DA95" font-family="Helvetica" font-size="16" lengthAdjust="spacing" textLength="108.5156" x="500.74" y="208.3203">OptionalMonad</text><line style="stroke:#C6A0F6;stroke-width:2.0;" x1="474.74" x2="611.2556" y1="219" y2="219"/><line style="stroke:#C6A0F6;stroke-width:2.0;" x1="474.74" x2="611.2556" y1="227" y2="227"/></g><!--class MonadError--><g id="elem_MonadError"><rect fill="#24273A" height="46" id="MonadError" rx="1.5" ry="1.5" style="stroke:#C6A0F6;stroke-width:2.0;" width="114.4766" x="485.76" y="76"/><rect fill="#363A4F" height="30" rx="1.5" ry="1.5" style="stroke:#363A4F;stroke-width:2.0;" width="114.4766" x="485.76" y="76"/><rect fill="#363A4F" height="1.5" style="stroke:#363A4F;stroke-width:2.0;" width="114.4766" x="485.76" y="104.5"/><rect fill="none" height="46" id="MonadError" rx="1.5" ry="1.5" style="stroke:#C6A0F6;stroke-width:2.0;" width="114.4766" x="485.76" y="76"/><ellipse cx="499.76" cy="91" fill="#B4A7E5" rx="10" ry="10" style="stroke:#181818;stroke-width:1.0;"/><path d="M496.7678,88.2754 L496.7678,86.752 L501.9768,86.752 L501.9768,88.2754 L500.2366,88.2754 L500.2366,93.9766 L501.9768,93.9766 L501.9768,95.5 L496.7678,95.5 L496.7678,93.9766 L498.508,93.9766 L498.508,88.2754 Z " fill="#CAD3F5"/><text fill="#A6DA95" font-family="Helvetica" font-size="16" font-style="italic" lengthAdjust="spacing" textLength="84.4766" x="512.76" y="95.3203">MonadError</text><line style="stroke:#C6A0F6;stroke-width:2.0;" x1="486.76" x2="599.2366" y1="106" y2="106"/><line style="stroke:#C6A0F6;stroke-width:2.0;" x1="486.76" x2="599.2366" y1="114" y2="114"/></g><!--class OptionalHolder--><g id="elem_OptionalHolder"><rect codeLine="16" fill="#24273A" height="58" id="OptionalHolder" rx="1.5" ry="1.5" style="stroke:#C6A0F6;stroke-width:2.0;" width="247.123" x="70.44" y="464"/><rect fill="#363A4F" height="30" rx="1.5" ry="1.5" style="stroke:#363A4F;stroke-width:2.0;" width="247.123" x="70.44" y="464"/><rect fill="#363A4F" height="1.5" style="stroke:#363A4F;stroke-width:2.0;" width="247.123" x="70.44" y="492.5"/><rect codeLine="16" fill="none" height="58" id="OptionalHolder" rx="1.5" ry="1.5" style="stroke:#C6A0F6;stroke-width:2.0;" width="247.123" x="70.44" y="464"/><ellipse cx="130.6363" cy="479" fill="#ADD1B2" rx="10" ry="10" style="stroke:#181818;stroke-width:1.0;"/><path d="M132.4703,483.248 Q132.0601,483.459 131.6089,483.5645 Q131.1578,483.6699 130.6597,483.6699 Q128.8902,483.6699 127.9586,482.5039 Q127.0269,481.3379 127.0269,479.1348 Q127.0269,476.9258 127.9586,475.7598 Q128.8902,474.5938 130.6597,474.5938 Q131.1578,474.5938 131.6148,474.6992 Q132.0718,474.8047 132.4703,475.0156 L132.4703,476.9375 Q132.025,476.5273 131.606,476.3369 Q131.1871,476.1465 130.7418,476.1465 Q129.7925,476.1465 129.3091,476.8994 Q128.8257,477.6523 128.8257,479.1348 Q128.8257,480.6113 129.3091,481.3643 Q129.7925,482.1172 130.7418,482.1172 Q131.1871,482.1172 131.606,481.9268 Q132.025,481.7363 132.4703,481.3262 Z " fill="#CAD3F5"/><text fill="#A6DA95" font-family="Helvetica" font-size="16" lengthAdjust="spacing" textLength="106.7266" x="149.6363" y="483.3203">OptionalHolder</text><rect fill="#24273A" height="14" style="stroke:#C6A0F6;stroke-width:1.0;stroke-dasharray:2.0,2.0;" width="10.0039" x="310.5591" y="461"/><text fill="#CAD3F5" font-family="Helvetica" font-size="12" font-style="italic" lengthAdjust="spacing" textLength="8.0039" x="311.5591" y="471.2402">A</text><line style="stroke:#C6A0F6;stroke-width:2.0;" x1="71.44" x2="316.563" y1="494" y2="494"/><line style="stroke:#C6A0F6;stroke-width:2.0;" x1="71.44" x2="316.563" y1="502" y2="502"/><ellipse cx="81.44" cy="513.5" fill="#84BE84" rx="3" ry="3" style="stroke:#038048;stroke-width:1.0;"/><text fill="#A6DA95" font-family="Helvetica" font-size="12" lengthAdjust="spacing" textLength="222.123" x="89.44" y="515.2402">OptionalHolder(opt: java.util.Optional&lt;A&gt;)</text></g><!--class OptionalKindInterface--><g id="elem_OptionalKindInterface"><rect fill="#24273A" height="46" id="OptionalKindInterface" rx="1.5" ry="1.5" style="stroke:#C6A0F6;stroke-width:2.0;" width="183.875" x="102.06" y="332"/><rect fill="#363A4F" height="30" rx="1.5" ry="1.5" style="stroke:#363A4F;stroke-width:2.0;" width="183.875" x="102.06" y="332"/><rect fill="#363A4F" height="1.5" style="stroke:#363A4F;stroke-width:2.0;" width="183.875" x="102.06" y="360.5"/><rect fill="none" height="46" id="OptionalKindInterface" rx="1.5" ry="1.5" style="stroke:#C6A0F6;stroke-width:2.0;" width="183.875" x="102.06" y="332"/><ellipse cx="116.06" cy="347" fill="#B4A7E5" rx="10" ry="10" style="stroke:#181818;stroke-width:1.0;"/><path d="M113.0678,344.2754 L113.0678,342.752 L118.2768,342.752 L118.2768,344.2754 L116.5366,344.2754 L116.5366,349.9766 L118.2768,349.9766 L118.2768,351.5 L113.0678,351.5 L113.0678,349.9766 L114.808,349.9766 L114.808,344.2754 Z " fill="#CAD3F5"/><text fill="#A6DA95" font-family="Helvetica" font-size="16" font-style="italic" lengthAdjust="spacing" textLength="153.875" x="129.06" y="351.3203">OptionalKindInterface</text><line style="stroke:#C6A0F6;stroke-width:2.0;" x1="103.06" x2="284.935" y1="362" y2="362"/><line style="stroke:#C6A0F6;stroke-width:2.0;" x1="103.06" x2="284.935" y1="370" y2="370"/></g><!--class IdKindInterface--><g id="elem_IdKindInterface"><rect codeLine="35" fill="#24273A" height="58" id="IdKindInterface" rx="1.5" ry="1.5" style="stroke:#C6A0F6;stroke-width:2.0;" width="265.7344" x="792.13" y="326"/><rect fill="#363A4F" height="30" rx="1.5" ry="1.5" style="stroke:#363A4F;stroke-width:2.0;" width="265.7344" x="792.13" y="326"/><rect fill="#363A4F" height="1.5" style="stroke:#363A4F;stroke-width:2.0;" width="265.7344" x="792.13" y="354.5"/><rect codeLine="35" fill="none" height="58" id="IdKindInterface" rx="1.5" ry="1.5" style="stroke:#C6A0F6;stroke-width:2.0;" width="265.7344" x="792.13" y="326"/><ellipse cx="892.3116" cy="341" fill="#B4A7E5" rx="10" ry="10" style="stroke:#181818;stroke-width:1.0;"/><path d="M889.3195,338.2754 L889.3195,336.752 L894.5284,336.752 L894.5284,338.2754 L892.7882,338.2754 L892.7882,343.9766 L894.5284,343.9766 L894.5284,345.5 L889.3195,345.5 L889.3195,343.9766 L891.0597,343.9766 L891.0597,338.2754 Z " fill="#CAD3F5"/><text fill="#A6DA95" font-family="Helvetica" font-size="16" font-style="italic" lengthAdjust="spacing" textLength="45.3672" x="911.3116" y="345.3203">IdKind</text><rect fill="#24273A" height="14" style="stroke:#C6A0F6;stroke-width:1.0;stroke-dasharray:2.0,2.0;" width="10.0039" x="1050.8605" y="323"/><text fill="#CAD3F5" font-family="Helvetica" font-size="12" font-style="italic" lengthAdjust="spacing" textLength="8.0039" x="1051.8605" y="333.2402">A</text><line style="stroke:#C6A0F6;stroke-width:2.0;" x1="793.13" x2="1056.8644" y1="356" y2="356"/><text fill="#A6DA95" font-family="Helvetica" font-size="12" lengthAdjust="spacing" textLength="253.7344" x="798.13" y="369.2402">class Witness {} ' Nested phantom Witness type</text><line style="stroke:#C6A0F6;stroke-width:2.0;" x1="793.13" x2="1056.8644" y1="376" y2="376"/></g><!--class Kind--><g id="elem_Kind"><rect fill="#24273A" height="46" id="Kind" rx="1.5" ry="1.5" style="stroke:#C6A0F6;stroke-width:2.0;" width="62.0234" x="893.99" y="189"/><rect fill="#363A4F" height="30" rx="1.5" ry="1.5" style="stroke:#363A4F;stroke-width:2.0;" width="62.0234" x="893.99" y="189"/><rect fill="#363A4F" height="1.5" style="stroke:#363A4F;stroke-width:2.0;" width="62.0234" x="893.99" y="217.5"/><rect fill="none" height="46" id="Kind" rx="1.5" ry="1.5" style="stroke:#C6A0F6;stroke-width:2.0;" width="62.0234" x="893.99" y="189"/><ellipse cx="907.99" cy="204" fill="#B4A7E5" rx="10" ry="10" style="stroke:#181818;stroke-width:1.0;"/><path d="M904.9978,201.2754 L904.9978,199.752 L910.2068,199.752 L910.2068,201.2754 L908.4666,201.2754 L908.4666,206.9766 L910.2068,206.9766 L910.2068,208.5 L904.9978,208.5 L904.9978,206.9766 L906.738,206.9766 L906.738,201.2754 Z " fill="#CAD3F5"/><text fill="#A6DA95" font-family="Helvetica" font-size="16" font-style="italic" lengthAdjust="spacing" textLength="32.0234" x="920.99" y="208.3203">Kind</text><line style="stroke:#C6A0F6;stroke-width:2.0;" x1="894.99" x2="955.0134" y1="219" y2="219"/><line style="stroke:#C6A0F6;stroke-width:2.0;" x1="894.99" x2="955.0134" y1="227" y2="227"/></g><!--class IdRecord--><g id="elem_IdRecord"><rect codeLine="39" fill="#24273A" height="46" id="IdRecord" rx="1.5" ry="1.5" style="stroke:#C6A0F6;stroke-width:2.0;" width="141.1719" x="854.41" y="470"/><rect fill="#363A4F" height="30" rx="1.5" ry="1.5" style="stroke:#363A4F;stroke-width:2.0;" width="141.1719" x="854.41" y="470"/><rect fill="#363A4F" height="1.5" style="stroke:#363A4F;stroke-width:2.0;" width="141.1719" x="854.41" y="498.5"/><rect codeLine="39" fill="none" height="46" id="IdRecord" rx="1.5" ry="1.5" style="stroke:#C6A0F6;stroke-width:2.0;" width="141.1719" x="854.41" y="470"/><ellipse cx="868.41" cy="485" fill="#ADD1B2" rx="10" ry="10" style="stroke:#181818;stroke-width:1.0;"/><path d="M870.244,489.248 Q869.8338,489.459 869.3827,489.5645 Q868.9315,489.6699 868.4334,489.6699 Q866.6639,489.6699 865.7323,488.5039 Q864.8006,487.3379 864.8006,485.1348 Q864.8006,482.9258 865.7323,481.7598 Q866.6639,480.5938 868.4334,480.5938 Q868.9315,480.5938 869.3885,480.6992 Q869.8455,480.8047 870.244,481.0156 L870.244,482.9375 Q869.7987,482.5273 869.3797,482.3369 Q868.9608,482.1465 868.5155,482.1465 Q867.5663,482.1465 867.0829,482.8994 Q866.5995,483.6523 866.5995,485.1348 Q866.5995,486.6113 867.0829,487.3643 Q867.5663,488.1172 868.5155,488.1172 Q868.9608,488.1172 869.3797,487.9268 Q869.7987,487.7363 870.244,487.3262 Z " fill="#CAD3F5"/><text fill="#A6DA95" font-family="Helvetica" font-size="16" lengthAdjust="spacing" textLength="111.1719" x="881.41" y="489.3203">Id&lt;A&gt;(value: A)</text><line style="stroke:#C6A0F6;stroke-width:2.0;" x1="855.41" x2="994.5819" y1="500" y2="500"/><line style="stroke:#C6A0F6;stroke-width:2.0;" x1="855.41" x2="994.5819" y1="508" y2="508"/></g><!--class IdKindHelper--><g id="elem_IdKindHelper"><rect codeLine="43" fill="#24273A" height="70" id="IdKindHelper" rx="1.5" ry="1.5" style="stroke:#C6A0F6;stroke-width:2.0;" width="248.4473" x="1092.78" y="320"/><rect fill="#363A4F" height="30" rx="1.5" ry="1.5" style="stroke:#363A4F;stroke-width:2.0;" width="248.4473" x="1092.78" y="320"/><rect fill="#363A4F" height="1.5" style="stroke:#363A4F;stroke-width:2.0;" width="248.4473" x="1092.78" y="348.5"/><rect codeLine="43" fill="none" height="70" id="IdKindHelper" rx="1.5" ry="1.5" style="stroke:#C6A0F6;stroke-width:2.0;" width="248.4473" x="1092.78" y="320"/><ellipse cx="1166.7536" cy="335" fill="#ADD1B2" rx="10" ry="10" style="stroke:#181818;stroke-width:1.0;"/><path d="M1168.5876,339.248 Q1168.1775,339.459 1167.7263,339.5645 Q1167.2751,339.6699 1166.7771,339.6699 Q1165.0075,339.6699 1164.0759,338.5039 Q1163.1443,337.3379 1163.1443,335.1348 Q1163.1443,332.9258 1164.0759,331.7598 Q1165.0075,330.5938 1166.7771,330.5938 Q1167.2751,330.5938 1167.7321,330.6992 Q1168.1892,330.8047 1168.5876,331.0156 L1168.5876,332.9375 Q1168.1423,332.5273 1167.7234,332.3369 Q1167.3044,332.1465 1166.8591,332.1465 Q1165.9099,332.1465 1165.4265,332.8994 Q1164.9431,333.6523 1164.9431,335.1348 Q1164.9431,336.6113 1165.4265,337.3643 Q1165.9099,338.1172 1166.8591,338.1172 Q1167.3044,338.1172 1167.7234,337.9268 Q1168.1423,337.7363 1168.5876,337.3262 Z " fill="#CAD3F5"/><text fill="#A6DA95" font-family="Helvetica" font-size="16" lengthAdjust="spacing" textLength="92.5" x="1185.7536" y="339.3203">IdKindHelper</text><line style="stroke:#C6A0F6;stroke-width:2.0;" x1="1093.78" x2="1340.2273" y1="350" y2="350"/><line style="stroke:#C6A0F6;stroke-width:2.0;" x1="1093.78" x2="1340.2273" y1="358" y2="358"/><ellipse cx="1103.78" cy="369.5" fill="#84BE84" rx="3" ry="3" style="stroke:#038048;stroke-width:1.0;"/><text fill="#A6DA95" font-family="Helvetica" font-size="12" lengthAdjust="spacing" text-decoration="underline" textLength="197.4258" x="1111.78" y="371.2402">wrap(id: Id&lt;A&gt;): Kind&lt;Id.Witness, A&gt;</text><ellipse cx="1103.78" cy="381.5" fill="#84BE84" rx="3" ry="3" style="stroke:#038048;stroke-width:1.0;"/><text fill="#A6DA95" font-family="Helvetica" font-size="12" lengthAdjust="spacing" text-decoration="underline" textLength="223.4473" x="1111.78" y="383.2402">unwrap(kind: Kind&lt;Id.Witness, A&gt;): Id&lt;A&gt;</text></g><!--class IdentityMonad--><g id="elem_IdentityMonad"><rect codeLine="49" fill="#24273A" height="46" id="IdentityMonad" rx="1.5" ry="1.5" style="stroke:#C6A0F6;stroke-width:2.0;" width="130.5078" x="1151.75" y="189"/><rect fill="#363A4F" height="30" rx="1.5" ry="1.5" style="stroke:#363A4F;stroke-width:2.0;" width="130.5078" x="1151.75" y="189"/><rect fill="#363A4F" height="1.5" style="stroke:#363A4F;stroke-width:2.0;" width="130.5078" x="1151.75" y="217.5"/><rect codeLine="49" fill="none" height="46" id="IdentityMonad" rx="1.5" ry="1.5" style="stroke:#C6A0F6;stroke-width:2.0;" width="130.5078" x="1151.75" y="189"/><ellipse cx="1165.75" cy="204" fill="#ADD1B2" rx="10" ry="10" style="stroke:#181818;stroke-width:1.0;"/><path d="M1167.584,208.248 Q1167.1738,208.459 1166.7227,208.5645 Q1166.2715,208.6699 1165.7734,208.6699 Q1164.0039,208.6699 1163.0723,207.5039 Q1162.1406,206.3379 1162.1406,204.1348 Q1162.1406,201.9258 1163.0723,200.7598 Q1164.0039,199.5938 1165.7734,199.5938 Q1166.2715,199.5938 1166.7285,199.6992 Q1167.1855,199.8047 1167.584,200.0156 L1167.584,201.9375 Q1167.1387,201.5273 1166.7197,201.3369 Q1166.3008,201.1465 1165.8555,201.1465 Q1164.9063,201.1465 1164.4229,201.8994 Q1163.9395,202.6523 1163.9395,204.1348 Q1163.9395,205.6113 1164.4229,206.3643 Q1164.9063,207.1172 1165.8555,207.1172 Q1166.3008,207.1172 1166.7197,206.9268 Q1167.1387,206.7363 1167.584,206.3262 Z " fill="#CAD3F5"/><text fill="#A6DA95" font-family="Helvetica" font-size="16" lengthAdjust="spacing" textLength="100.5078" x="1178.75" y="208.3203">IdentityMonad</text><line style="stroke:#C6A0F6;stroke-width:2.0;" x1="1152.75" x2="1281.2578" y1="219" y2="219"/><line style="stroke:#C6A0F6;stroke-width:2.0;" x1="1152.75" x2="1281.2578" y1="227" y2="227"/></g><!--class Monad--><g id="elem_Monad"><rect fill="#24273A" height="46" id="Monad" rx="1.5" ry="1.5" style="stroke:#C6A0F6;stroke-width:2.0;" width="78.9219" x="1177.54" y="76"/><rect fill="#363A4F" height="30" rx="1.5" ry="1.5" style="stroke:#363A4F;stroke-width:2.0;" width="78.9219" x="1177.54" y="76"/><rect fill="#363A4F" height="1.5" style="stroke:#363A4F;stroke-width:2.0;" width="78.9219" x="1177.54" y="104.5"/><rect fill="none" height="46" id="Monad" rx="1.5" ry="1.5" style="stroke:#C6A0F6;stroke-width:2.0;" width="78.9219" x="1177.54" y="76"/><ellipse cx="1191.54" cy="91" fill="#B4A7E5" rx="10" ry="10" style="stroke:#181818;stroke-width:1.0;"/><path d="M1188.5478,88.2754 L1188.5478,86.752 L1193.7568,86.752 L1193.7568,88.2754 L1192.0166,88.2754 L1192.0166,93.9766 L1193.7568,93.9766 L1193.7568,95.5 L1188.5478,95.5 L1188.5478,93.9766 L1190.288,93.9766 L1190.288,88.2754 Z " fill="#CAD3F5"/><text fill="#A6DA95" font-family="Helvetica" font-size="16" font-style="italic" lengthAdjust="spacing" textLength="48.9219" x="1204.54" y="95.3203">Monad</text><line style="stroke:#C6A0F6;stroke-width:2.0;" x1="1178.54" x2="1255.4619" y1="106" y2="106"/><line style="stroke:#C6A0F6;stroke-width:2.0;" x1="1178.54" x2="1255.4619" y1="114" y2="114"/></g><!--reverse link Kind to OptionalKindInterface--><g id="link_Kind_OptionalKindInterface"><path d="M243,140.46 C243,157.82 243,163.96 243,182.64 " fill="none" id="Kind-backto-OptionalKindInterface" style="stroke:#F5BDE6;stroke-width:1.0;"/><polygon fill="none" points="243,122.46,237,140.46,249,140.46,243,122.46" style="stroke:#F5BDE6;stroke-width:1.0;"/></g><!--reverse link OptionalKindInterface to OptionalHolder--><g id="link_OptionalKindInterface_OptionalHolder"><path d="M194,396.46 C194,419.85 194,438.54 194,463.85 " fill="none" id="OptionalKindInterface-backto-OptionalHolder" style="stroke:#F5BDE6;stroke-width:1.0;stroke-dasharray:7.0,7.0;"/><polygon fill="none" points="194,378.46,188,396.46,200,396.46,194,378.46" style="stroke:#F5BDE6;stroke-width:1.0;"/></g><!--link OptionalKindHelper to OptionalHolder--><g id="link_OptionalKindHelper_OptionalHolder"><path codeLine="20" d="M454.48,390.49 C396.52,413.08 327.2905,440.0614 272.7105,461.3314 " fill="none" id="OptionalKindHelper-to-OptionalHolder" style="stroke:#F5BDE6;stroke-width:1.0;stroke-dasharray:7.0,7.0;"/><polygon fill="#F5BDE6" points="267.12,463.51,276.9582,463.969,271.7787,461.6945,274.0533,456.5151,267.12,463.51" style="stroke:#F5BDE6;stroke-width:1.0;"/><text fill="#CAD3F5" font-family="Helvetica" font-size="12" lengthAdjust="spacing" textLength="74.7012" x="369.5" y="430.2402">creates / uses</text></g><!--link OptionalKindHelper to JavaOptional--><g id="link_OptionalKindHelper_JavaOptional"><path codeLine="21" d="M522.9,390.24 C490.62,445.21 431.1783,546.4662 404.0883,592.5962 " fill="none" id="OptionalKindHelper-to-JavaOptional" style="stroke:#F5BDE6;stroke-width:1.0;stroke-dasharray:7.0,7.0;"/><polygon fill="#F5BDE6" points="401.05,597.77,409.0567,592.0348,403.582,593.4585,402.1583,587.9837,401.05,597.77" style="stroke:#F5BDE6;stroke-width:1.0;"/><text fill="#CAD3F5" font-family="Helvetica" font-size="12" lengthAdjust="spacing" textLength="87.3691" x="479.36" y="496.2402">wraps / unwraps</text></g><!--link OptionalHolder to JavaOptional--><g id="link_OptionalHolder_JavaOptional"><path codeLine="22" d="M237.54,522.28 C272.62,545.06 316.2281,573.3819 348.6081,594.4119 " fill="none" id="OptionalHolder-to-JavaOptional" style="stroke:#F5BDE6;stroke-width:1.0;stroke-dasharray:7.0,7.0;"/><polygon fill="#F5BDE6" points="353.64,597.68,348.2709,589.4233,349.4468,594.9566,343.9135,596.1325,353.64,597.68" style="stroke:#F5BDE6;stroke-width:1.0;"/><text fill="#CAD3F5" font-family="Helvetica" font-size="12" lengthAdjust="spacing" textLength="28.6875" x="303.62" y="564.2402">holds</text></g><!--reverse link MonadError to OptionalMonad--><g id="link_MonadError_OptionalMonad"><path d="M543,140.46 C543,159.72 543,169.32 543,188.57 " fill="none" id="MonadError-backto-OptionalMonad" style="stroke:#F5BDE6;stroke-width:1.0;stroke-dasharray:7.0,7.0;"/><polygon fill="none" points="543,122.46,537,140.46,549,140.46,543,122.46" style="stroke:#F5BDE6;stroke-width:1.0;"/></g><!--link OptionalMonad to OptionalKindHelper--><g id="link_OptionalMonad_OptionalKindHelper"><path codeLine="31" d="M543,235.34 C543,258.02 543,287.42 543,313.66 " fill="none" id="OptionalMonad-to-OptionalKindHelper" style="stroke:#F5BDE6;stroke-width:1.0;stroke-dasharray:7.0,7.0;"/><polygon fill="#F5BDE6" points="543,319.66,547,310.66,543,314.66,539,310.66,543,319.66" style="stroke:#F5BDE6;stroke-width:1.0;"/><text fill="#CAD3F5" font-family="Helvetica" font-size="12" lengthAdjust="spacing" textLength="25.3477" x="544" y="281.2402">uses</text></g><!--reverse link Kind to IdKindInterface--><g id="link_Kind_IdKindInterface"><path d="M925,253.34 C925,277.8 925,299.08 925,325.68 " fill="none" id="Kind-backto-IdKindInterface" style="stroke:#F5BDE6;stroke-width:1.0;"/><polygon fill="none" points="925,235.34,919,253.34,931,253.34,925,235.34" style="stroke:#F5BDE6;stroke-width:1.0;"/></g><!--reverse link IdKindInterface to IdRecord--><g id="link_IdKindInterface_IdRecord"><path d="M911.8281,402.0322 C908.5581,427.3922 911.15,446.32 914.98,469.69 " fill="none" id="IdKindInterface-backto-IdRecord" style="stroke:#F5BDE6;stroke-width:1.0;stroke-dasharray:7.0,7.0;"/><polygon fill="none" points="914.13,384.18,905.8773,401.2649,917.7788,402.7995,914.13,384.18" style="stroke:#F5BDE6;stroke-width:1.0;"/></g><!--link IdRecord to IdKindInterface--><g id="link_IdRecord_IdKindInterface"><path codeLine="41" d="M935.02,469.69 C938.85,446.32 941.4419,427.3922 938.1719,402.0322 " fill="none" id="IdRecord-to-IdKindInterface" style="stroke:#F5BDE6;stroke-width:1.0;"/><polygon fill="none" points="935.87,384.18,932.2212,402.7995,944.1227,401.2649,935.87,384.18" style="stroke:#F5BDE6;stroke-width:1.0;"/></g><!--link IdKindHelper to IdRecord--><g id="link_IdKindHelper_IdRecord"><path codeLine="47" d="M1142.94,390.49 C1089.55,415.36 1024.4788,445.6662 978.3288,467.1662 " fill="none" id="IdKindHelper-to-IdRecord" style="stroke:#F5BDE6;stroke-width:1.0;stroke-dasharray:7.0,7.0;"/><polygon fill="#F5BDE6" points="972.89,469.7,982.7373,469.5252,977.4223,467.5885,979.359,462.2735,972.89,469.7" style="stroke:#F5BDE6;stroke-width:1.0;"/><text fill="#CAD3F5" font-family="Helvetica" font-size="12" lengthAdjust="spacing" textLength="68.6836" x="1072" y="430.2402">casts to/from</text></g><!--reverse link Monad to IdentityMonad--><g id="link_Monad_IdentityMonad"><path d="M1217,140.46 C1217,159.72 1217,169.32 1217,188.57 " fill="none" id="Monad-backto-IdentityMonad" style="stroke:#F5BDE6;stroke-width:1.0;stroke-dasharray:7.0,7.0;"/><polygon fill="none" points="1217,122.46,1211,140.46,1223,140.46,1217,122.46" style="stroke:#F5BDE6;stroke-width:1.0;"/></g><!--link IdentityMonad to IdKindHelper--><g id="link_IdentityMonad_IdKindHelper"><path codeLine="52" d="M1217,235.34 C1217,258.02 1217,287.42 1217,313.66 " fill="none" id="IdentityMonad-to-IdKindHelper" style="stroke:#F5BDE6;stroke-width:1.0;stroke-dasharray:7.0,7.0;"/><polygon fill="#F5BDE6" points="1217,319.66,1221,310.66,1217,314.66,1213,310.66,1217,319.66" style="stroke:#F5BDE6;stroke-width:1.0;"/><text fill="#CAD3F5" font-family="Helvetica" font-size="12" lengthAdjust="spacing" textLength="25.3477" x="1218" y="281.2402">uses</text></g><!--SRC=[jLHTRvim57tdLzpnaaGDy1vLaIArKzdMTPfQxVdME8rNi2txqZRA-Eyp40WGQAL9oqEKs3xdddlknoSXMPed77P4sgwYoE1h-2Hebp_cbXkc97598LDP99coX85W4KFIEcTCo213ndO2IGKwHKbvbWQquncFCXGogdw6sfrwdgUHFUCJ1_-ARtF9I2Y9gR1O_e0VICIDX2jEA5Bhmy43zs4fMWjVXKmUvAj1VVt6k2u1NdNTKdvM1gxVIWPCuNwlkONvdQv302UsQ0ZBZt0vcIqoXslUb14kDsiVq4BtB6wVSiSkarhBPVT9-4kGvDOkORFk13cfFzx3eO0PVEUMU09wvynIMNj7Jd8BBRm-WVyRNp3CIQHX4xZH-iNTj7aU2gz5pjeqRbIQS0F20iewzVAjo7JgQYEfjZ-fR0UrxML_mrFDJSlPkjsm-AFv-lt8GriRFOs0ASFxr70n89WhJIiOTMRHGnOZlfud2M6u7afSWSyCHtBD586R1kj_HD0hXuENBLk1g-OTmHyZZM5txieXl0bpJv7FclOeg6_W1HniMMnMGAdbFVjMxpVv56sTvFpPFV-0OJ4HUNe2caUtxYlf9LoTTBkfEhWsHfc9-0zIq71IP_3WwljUyvytJnsvspSTyrq1JnrJZ6ohR-BHeDa7RXaAwJR2SMd5oH9kSV_8bn3VBU7UeBHRPJ9kxDGEYvFkzgh_JUoj-BzkgvaBxcI08ClJRRSchSHXNIl0_0NJdAzWipXcy9CpPP9pWh7bS0hVueBWptg8yCuZ3oQeU_31x0ZNu9NoPbJYVnoGU3WMSJ8-1ZrnPSkroPPB2gspY5IqDIhpHp9r5WhQdsQdTt8sEnrL4sFILJCgjajVgvqUZU8l]--></g></svg>