<svg xmlns="http://www.w3.org/2000/svg" xmlns:xlink="http://www.w3.org/1999/xlink" contentStyleType="text/css" height="786px" preserveAspectRatio="none" style="width:2783px;height:786px;background:#24273A;" version="1.1" viewBox="0 0 2783 786" width="2783px" zoomAndPan="magnify"><title>Core HKT Simulation Interfaces and Patterns</title><defs/><g><rect fill="#24273A" height="786" style="stroke:none;stroke-width:1.0;" width="2783" x="0" y="0"/><text fill="#CAD3F5" font-family="Helvetica" font-size="14" font-weight="bold" lengthAdjust="spacing" textLength="298.7305" x="1235.1798" y="20.7803">Core HKT Simulation Interfaces and Patterns</text><!--cluster HKT Core - Type Classes--><g id="cluster_HKT Core - Type Classes"><path d="M7.5,662 L153.2109,662 A2.25,2.25 0 0 1 154.7109,663.5 L161.7109,680 L2745.13,680 A1.5,1.5 0 0 1 2746.63,681.5 L2746.63,777.5 A1.5,1.5 0 0 1 2745.13,779 L7.5,779 A1.5,1.5 0 0 1 6,777.5 L6,663.5 A1.5,1.5 0 0 1 7.5,662 " fill="#24273A" style="stroke:#CAD3F5;stroke-width:1.5;"/><line style="stroke:#CAD3F5;stroke-width:1.5;" x1="6" x2="161.7109" y1="680" y2="680"/><text fill="#CAD3F5" font-family="Helvetica" font-size="12" font-weight="bold" lengthAdjust="spacing" textLength="142.7109" x="10" y="673.2402">HKT Core - Type Classes</text></g><!--cluster Defunctionalisation Pattern Details--><g id="cluster_Defunctionalisation Pattern Details"><path d="M231.41,41 L433.1131,41 A2.25,2.25 0 0 1 434.6131,42.5 L441.6131,59 L2774.59,59 A1.5,1.5 0 0 1 2776.09,60.5 L2776.09,636.5 A1.5,1.5 0 0 1 2774.59,638 L231.41,638 A1.5,1.5 0 0 1 229.91,636.5 L229.91,42.5 A1.5,1.5 0 0 1 231.41,41 " fill="#24273A" style="stroke:#CAD3F5;stroke-width:1.5;"/><line style="stroke:#CAD3F5;stroke-width:1.5;" x1="229.91" x2="441.6131" y1="59" y2="59"/><text fill="#CAD3F5" font-family="Helvetica" font-size="12" font-weight="bold" lengthAdjust="spacing" textLength="198.7031" x="233.91" y="52.2402">Defunctionalisation Pattern Details</text></g><!--cluster For External Types (Optional etc)--><g id="cluster_For External Types (Optional etc)"><path d="M267.88,368 L459.5812,368 A2.25,2.25 0 0 1 461.0812,369.5 L468.0812,386 L2750.59,386 A1.5,1.5 0 0 1 2752.09,387.5 L2752.09,612.5 A1.5,1.5 0 0 1 2750.59,614 L267.88,614 A1.5,1.5 0 0 1 266.38,612.5 L266.38,369.5 A1.5,1.5 0 0 1 267.88,368 " fill="#24273A" style="stroke:#CAD3F5;stroke-width:1.5;"/><line style="stroke:#CAD3F5;stroke-width:1.5;" x1="266.38" x2="468.0812" y1="386" y2="386"/><text fill="#CAD3F5" font-family="Helvetica" font-size="12" font-weight="bold" lengthAdjust="spacing" textLength="188.7012" x="270.38" y="379.2402">For External Types (Optional etc)</text></g><!--cluster internal--><g id="cluster_internal"><path d="M1517.61,485 L1563.9518,485 A2.25,2.25 0 0 1 1565.4518,486.5 L1572.4518,503 L2369.95,503 A1.5,1.5 0 0 1 2371.45,504.5 L2371.45,588.5 A1.5,1.5 0 0 1 2369.95,590 L1517.61,590 A1.5,1.5 0 0 1 1516.11,588.5 L1516.11,486.5 A1.5,1.5 0 0 1 1517.61,485 " fill="#24273A" style="stroke:#CAD3F5;stroke-width:1.5;"/><line style="stroke:#CAD3F5;stroke-width:1.5;" x1="1516.11" x2="1572.4518" y1="503" y2="503"/><text fill="#CAD3F5" font-family="Helvetica" font-size="12" font-weight="bold" lengthAdjust="spacing" textLength="43.3418" x="1520.11" y="496.2402">internal</text></g><!--cluster For Library-Defined Types (Id, Maybe, IO, Transformers)--><g id="cluster_For Library-Defined Types (Id, Maybe, IO, Transformers)"><path d="M285.66,134 L607.3924,134 A2.25,2.25 0 0 1 608.8924,135.5 L615.8924,152 L2316.97,152 A1.5,1.5 0 0 1 2318.47,153.5 L2318.47,342.5 A1.5,1.5 0 0 1 2316.97,344 L285.66,344 A1.5,1.5 0 0 1 284.16,342.5 L284.16,135.5 A1.5,1.5 0 0 1 285.66,134 " fill="#24273A" style="stroke:#CAD3F5;stroke-width:1.5;"/><line style="stroke:#CAD3F5;stroke-width:1.5;" x1="284.16" x2="615.8924" y1="152" y2="152"/><text fill="#CAD3F5" font-family="Helvetica" font-size="12" font-weight="bold" lengthAdjust="spacing" textLength="318.7324" x="288.16" y="145.2402">For Library-Defined Types (Id, Maybe, IO, Transformers)</text></g><!--class Kind--><g id="elem_Kind"><rect codeLine="9" fill="#24273A" height="46" id="Kind" rx="1.5" ry="1.5" style="stroke:#C6A0F6;stroke-width:2.0;" width="149.3672" x="2581.26" y="705"/><rect fill="#363A4F" height="30" rx="1.5" ry="1.5" style="stroke:#363A4F;stroke-width:2.0;" width="149.3672" x="2581.26" y="705"/><rect fill="#363A4F" height="1.5" style="stroke:#363A4F;stroke-width:2.0;" width="149.3672" x="2581.26" y="733.5"/><rect codeLine="9" fill="none" height="46" id="Kind" rx="1.5" ry="1.5" style="stroke:#C6A0F6;stroke-width:2.0;" width="149.3672" x="2581.26" y="705"/><ellipse cx="2595.26" cy="720" fill="#B4A7E5" rx="10" ry="10" style="stroke:#181818;stroke-width:1.0;"/><path d="M2592.2678,717.2754 L2592.2678,715.752 L2597.4768,715.752 L2597.4768,717.2754 L2595.7366,717.2754 L2595.7366,722.9766 L2597.4768,722.9766 L2597.4768,724.5 L2592.2678,724.5 L2592.2678,722.9766 L2594.008,722.9766 L2594.008,717.2754 Z " fill="#CAD3F5"/><text fill="#A6DA95" font-family="Helvetica" font-size="16" font-style="italic" lengthAdjust="spacing" textLength="32.0234" x="2608.26" y="724.3203">Kind</text><rect fill="#24273A" height="14" style="stroke:#C6A0F6;stroke-width:1.0;stroke-dasharray:2.0,2.0;" width="85.3438" x="2648.2834" y="702"/><text fill="#CAD3F5" font-family="Helvetica" font-size="12" font-style="italic" lengthAdjust="spacing" textLength="83.3438" x="2649.2834" y="712.2402">F_WITNESS, A</text><line style="stroke:#C6A0F6;stroke-width:2.0;" x1="2582.26" x2="2729.6272" y1="735" y2="735"/><line style="stroke:#C6A0F6;stroke-width:2.0;" x1="2582.26" x2="2729.6272" y1="743" y2="743"/></g><!--class Functor--><g id="elem_Functor"><rect codeLine="13" fill="#24273A" height="58" id="Functor" rx="1.5" ry="1.5" style="stroke:#C6A0F6;stroke-width:2.0;" width="421.8262" x="2020.97" y="699"/><rect fill="#363A4F" height="30" rx="1.5" ry="1.5" style="stroke:#363A4F;stroke-width:2.0;" width="421.8262" x="2020.97" y="699"/><rect fill="#363A4F" height="1.5" style="stroke:#363A4F;stroke-width:2.0;" width="421.8262" x="2020.97" y="727.5"/><rect codeLine="13" fill="none" height="58" id="Functor" rx="1.5" ry="1.5" style="stroke:#C6A0F6;stroke-width:2.0;" width="421.8262" x="2020.97" y="699"/><ellipse cx="2164.4261" cy="714" fill="#B4A7E5" rx="10" ry="10" style="stroke:#181818;stroke-width:1.0;"/><path d="M2161.4339,711.2754 L2161.4339,709.752 L2166.6429,709.752 L2166.6429,711.2754 L2164.9026,711.2754 L2164.9026,716.9766 L2166.6429,716.9766 L2166.6429,718.5 L2161.4339,718.5 L2161.4339,716.9766 L2163.1741,716.9766 L2163.1741,711.2754 Z " fill="#CAD3F5"/><text fill="#A6DA95" font-family="Helvetica" font-size="16" font-style="italic" lengthAdjust="spacing" textLength="54.2422" x="2183.4261" y="718.3203">Functor</text><rect fill="#24273A" height="14" style="stroke:#C6A0F6;stroke-width:1.0;stroke-dasharray:2.0,2.0;" width="70.6719" x="2375.1243" y="696"/><text fill="#CAD3F5" font-family="Helvetica" font-size="12" font-style="italic" lengthAdjust="spacing" textLength="68.6719" x="2376.1243" y="706.2402">F_WITNESS</text><line style="stroke:#C6A0F6;stroke-width:2.0;" x1="2021.97" x2="2441.7962" y1="729" y2="729"/><line style="stroke:#C6A0F6;stroke-width:2.0;" x1="2021.97" x2="2441.7962" y1="737" y2="737"/><ellipse cx="2031.97" cy="748.5" fill="#84BE84" rx="3" ry="3" style="stroke:#038048;stroke-width:1.0;"/><text fill="#A6DA95" font-family="Helvetica" font-size="12" lengthAdjust="spacing" textLength="396.8262" x="2039.97" y="750.2402">map(fn: Function&lt;A,B&gt;, fa: Kind&lt;F_WITNESS,A&gt;) : Kind&lt;F_WITNESS,B&gt;</text></g><!--class Applicative--><g id="elem_Applicative"><rect codeLine="16" fill="#24273A" height="70" id="Applicative" rx="1.5" ry="1.5" style="stroke:#C6A0F6;stroke-width:2.0;" width="521.8633" x="1363.11" y="693"/><rect fill="#363A4F" height="30" rx="1.5" ry="1.5" style="stroke:#363A4F;stroke-width:2.0;" width="521.8633" x="1363.11" y="693"/><rect fill="#363A4F" height="1.5" style="stroke:#363A4F;stroke-width:2.0;" width="521.8633" x="1363.11" y="721.5"/><rect codeLine="16" fill="none" height="70" id="Applicative" rx="1.5" ry="1.5" style="stroke:#C6A0F6;stroke-width:2.0;" width="521.8633" x="1363.11" y="693"/><ellipse cx="1545.0182" cy="708" fill="#B4A7E5" rx="10" ry="10" style="stroke:#181818;stroke-width:1.0;"/><path d="M1542.026,705.2754 L1542.026,703.752 L1547.235,703.752 L1547.235,705.2754 L1545.4948,705.2754 L1545.4948,710.9766 L1547.235,710.9766 L1547.235,712.5 L1542.026,712.5 L1542.026,710.9766 L1543.7663,710.9766 L1543.7663,705.2754 Z " fill="#CAD3F5"/><text fill="#A6DA95" font-family="Helvetica" font-size="16" font-style="italic" lengthAdjust="spacing" textLength="77.375" x="1564.0182" y="712.3203">Applicative</text><rect fill="#24273A" height="14" style="stroke:#C6A0F6;stroke-width:1.0;stroke-dasharray:2.0,2.0;" width="70.6719" x="1817.3014" y="690"/><text fill="#CAD3F5" font-family="Helvetica" font-size="12" font-style="italic" lengthAdjust="spacing" textLength="68.6719" x="1818.3014" y="700.2402">F_WITNESS</text><line style="stroke:#C6A0F6;stroke-width:2.0;" x1="1364.11" x2="1883.9733" y1="723" y2="723"/><line style="stroke:#C6A0F6;stroke-width:2.0;" x1="1364.11" x2="1883.9733" y1="731" y2="731"/><ellipse cx="1374.11" cy="742.5" fill="#84BE84" rx="3" ry="3" style="stroke:#038048;stroke-width:1.0;"/><text fill="#A6DA95" font-family="Helvetica" font-size="12" lengthAdjust="spacing" textLength="189.4043" x="1382.11" y="744.2402">of(value: A) : Kind&lt;F_WITNESS,A&gt;</text><ellipse cx="1374.11" cy="754.5" fill="#84BE84" rx="3" ry="3" style="stroke:#038048;stroke-width:1.0;"/><text fill="#A6DA95" font-family="Helvetica" font-size="12" lengthAdjust="spacing" textLength="496.8633" x="1382.11" y="756.2402">ap(ff: Kind&lt;F_WITNESS, Function&lt;A,B&gt;&gt;, fa: Kind&lt;F_WITNESS,A&gt;) : Kind&lt;F_WITNESS,B&gt;</text></g><!--class Monad--><g id="elem_Monad"><rect codeLine="22" fill="#24273A" height="58" id="Monad" rx="1.5" ry="1.5" style="stroke:#C6A0F6;stroke-width:2.0;" width="557.8691" x="718.24" y="699"/><rect fill="#363A4F" height="30" rx="1.5" ry="1.5" style="stroke:#363A4F;stroke-width:2.0;" width="557.8691" x="718.24" y="699"/><rect fill="#363A4F" height="1.5" style="stroke:#363A4F;stroke-width:2.0;" width="557.8691" x="718.24" y="727.5"/><rect codeLine="22" fill="none" height="58" id="Monad" rx="1.5" ry="1.5" style="stroke:#C6A0F6;stroke-width:2.0;" width="557.8691" x="718.24" y="699"/><ellipse cx="932.3777" cy="714" fill="#B4A7E5" rx="10" ry="10" style="stroke:#181818;stroke-width:1.0;"/><path d="M929.3855,711.2754 L929.3855,709.752 L934.5945,709.752 L934.5945,711.2754 L932.8543,711.2754 L932.8543,716.9766 L934.5945,716.9766 L934.5945,718.5 L929.3855,718.5 L929.3855,716.9766 L931.1257,716.9766 L931.1257,711.2754 Z " fill="#CAD3F5"/><text fill="#A6DA95" font-family="Helvetica" font-size="16" font-style="italic" lengthAdjust="spacing" textLength="48.9219" x="951.3777" y="718.3203">Monad</text><rect fill="#24273A" height="14" style="stroke:#C6A0F6;stroke-width:1.0;stroke-dasharray:2.0,2.0;" width="70.6719" x="1208.4373" y="696"/><text fill="#CAD3F5" font-family="Helvetica" font-size="12" font-style="italic" lengthAdjust="spacing" textLength="68.6719" x="1209.4373" y="706.2402">F_WITNESS</text><line style="stroke:#C6A0F6;stroke-width:2.0;" x1="719.24" x2="1275.1091" y1="729" y2="729"/><line style="stroke:#C6A0F6;stroke-width:2.0;" x1="719.24" x2="1275.1091" y1="737" y2="737"/><ellipse cx="729.24" cy="748.5" fill="#84BE84" rx="3" ry="3" style="stroke:#038048;stroke-width:1.0;"/><text fill="#A6DA95" font-family="Helvetica" font-size="12" lengthAdjust="spacing" textLength="532.8691" x="737.24" y="750.2402">flatMap(fn: Function&lt;A, Kind&lt;F_WITNESS,B&gt;&gt;, ma: Kind&lt;F_WITNESS,A&gt;) : Kind&lt;F_WITNESS,B&gt;</text></g><!--class MonadError--><g id="elem_MonadError"><rect codeLine="25" fill="#24273A" height="70" id="MonadError" rx="1.5" ry="1.5" style="stroke:#C6A0F6;stroke-width:2.0;" width="635.2422" x="22" y="693"/><rect fill="#363A4F" height="30" rx="1.5" ry="1.5" style="stroke:#363A4F;stroke-width:2.0;" width="635.2422" x="22" y="693"/><rect fill="#363A4F" height="1.5" style="stroke:#363A4F;stroke-width:2.0;" width="635.2422" x="22" y="721.5"/><rect codeLine="25" fill="none" height="70" id="MonadError" rx="1.5" ry="1.5" style="stroke:#C6A0F6;stroke-width:2.0;" width="635.2422" x="22" y="693"/><ellipse cx="249.7109" cy="708" fill="#B4A7E5" rx="10" ry="10" style="stroke:#181818;stroke-width:1.0;"/><path d="M246.7188,705.2754 L246.7188,703.752 L251.9277,703.752 L251.9277,705.2754 L250.1875,705.2754 L250.1875,710.9766 L251.9277,710.9766 L251.9277,712.5 L246.7188,712.5 L246.7188,710.9766 L248.459,710.9766 L248.459,705.2754 Z " fill="#CAD3F5"/><text fill="#A6DA95" font-family="Helvetica" font-size="16" font-style="italic" lengthAdjust="spacing" textLength="84.4766" x="268.7109" y="712.3203">MonadError</text><rect fill="#24273A" height="14" style="stroke:#C6A0F6;stroke-width:1.0;stroke-dasharray:2.0,2.0;" width="85.3438" x="574.8984" y="690"/><text fill="#CAD3F5" font-family="Helvetica" font-size="12" font-style="italic" lengthAdjust="spacing" textLength="83.3438" x="575.8984" y="700.2402">F_WITNESS, E</text><line style="stroke:#C6A0F6;stroke-width:2.0;" x1="23" x2="656.2422" y1="723" y2="723"/><line style="stroke:#C6A0F6;stroke-width:2.0;" x1="23" x2="656.2422" y1="731" y2="731"/><ellipse cx="33" cy="742.5" fill="#84BE84" rx="3" ry="3" style="stroke:#038048;stroke-width:1.0;"/><text fill="#A6DA95" font-family="Helvetica" font-size="12" lengthAdjust="spacing" textLength="228.7207" x="41" y="744.2402">raiseError(error: E) : Kind&lt;F_WITNESS,A&gt;</text><ellipse cx="33" cy="754.5" fill="#84BE84" rx="3" ry="3" style="stroke:#038048;stroke-width:1.0;"/><text fill="#A6DA95" font-family="Helvetica" font-size="12" lengthAdjust="spacing" textLength="610.2422" x="41" y="756.2402">handleErrorWith(ma: Kind&lt;F_WITNESS,A&gt;, handler: Function&lt;E, Kind&lt;F_WITNESS,A&gt;&gt;) : Kind&lt;F_WITNESS,A&gt;</text></g><!--class KindUnwrapException--><g id="elem_KindUnwrapException"><rect codeLine="37" fill="#24273A" height="46" id="KindUnwrapException" rx="1.5" ry="1.5" style="stroke:#C6A0F6;stroke-width:2.0;" width="187.4219" x="245.91" y="72"/><rect fill="#363A4F" height="30" rx="1.5" ry="1.5" style="stroke:#363A4F;stroke-width:2.0;" width="187.4219" x="245.91" y="72"/><rect fill="#363A4F" height="1.5" style="stroke:#363A4F;stroke-width:2.0;" width="187.4219" x="245.91" y="100.5"/><rect codeLine="37" fill="none" height="46" id="KindUnwrapException" rx="1.5" ry="1.5" style="stroke:#C6A0F6;stroke-width:2.0;" width="187.4219" x="245.91" y="72"/><ellipse cx="259.91" cy="87" fill="#ADD1B2" rx="10" ry="10" style="stroke:#181818;stroke-width:1.0;"/><path d="M261.744,91.248 Q261.3338,91.459 260.8827,91.5645 Q260.4315,91.6699 259.9334,91.6699 Q258.1639,91.6699 257.2323,90.5039 Q256.3006,89.3379 256.3006,87.1348 Q256.3006,84.9258 257.2323,83.7598 Q258.1639,82.5938 259.9334,82.5938 Q260.4315,82.5938 260.8885,82.6992 Q261.3455,82.8047 261.744,83.0156 L261.744,84.9375 Q261.2987,84.5273 260.8797,84.3369 Q260.4608,84.1465 260.0155,84.1465 Q259.0662,84.1465 258.5829,84.8994 Q258.0995,85.6523 258.0995,87.1348 Q258.0995,88.6113 258.5829,89.3643 Q259.0662,90.1172 260.0155,90.1172 Q260.4608,90.1172 260.8797,89.9268 Q261.2987,89.7363 261.744,89.3262 Z " fill="#CAD3F5"/><text fill="#A6DA95" font-family="Helvetica" font-size="16" lengthAdjust="spacing" textLength="157.4219" x="272.91" y="91.3203">KindUnwrapException</text><line style="stroke:#C6A0F6;stroke-width:2.0;" x1="246.91" x2="432.3319" y1="102" y2="102"/><line style="stroke:#C6A0F6;stroke-width:2.0;" x1="246.91" x2="432.3319" y1="110" y2="110"/></g><!--class OptionalKindInterface--><g id="elem_OptionalKindInterface"><rect codeLine="40" fill="#24273A" height="58" id="OptionalKindInterface" rx="1.5" ry="1.5" style="stroke:#C6A0F6;stroke-width:2.0;" width="265.7344" x="864.31" y="516"/><rect fill="#363A4F" height="30" rx="1.5" ry="1.5" style="stroke:#363A4F;stroke-width:2.0;" width="265.7344" x="864.31" y="516"/><rect fill="#363A4F" height="1.5" style="stroke:#363A4F;stroke-width:2.0;" width="265.7344" x="864.31" y="544.5"/><rect codeLine="40" fill="none" height="58" id="OptionalKindInterface" rx="1.5" ry="1.5" style="stroke:#C6A0F6;stroke-width:2.0;" width="265.7344" x="864.31" y="516"/><ellipse cx="941.3666" cy="531" fill="#B4A7E5" rx="10" ry="10" style="stroke:#181818;stroke-width:1.0;"/><path d="M938.3745,528.2754 L938.3745,526.752 L943.5834,526.752 L943.5834,528.2754 L941.8432,528.2754 L941.8432,533.9766 L943.5834,533.9766 L943.5834,535.5 L938.3745,535.5 L938.3745,533.9766 L940.1147,533.9766 L940.1147,528.2754 Z " fill="#CAD3F5"/><text fill="#A6DA95" font-family="Helvetica" font-size="16" font-style="italic" lengthAdjust="spacing" textLength="91.6172" x="960.3666" y="535.3203">OptionalKind</text><rect fill="#24273A" height="14" style="stroke:#C6A0F6;stroke-width:1.0;stroke-dasharray:2.0,2.0;" width="10.0039" x="1123.0405" y="513"/><text fill="#CAD3F5" font-family="Helvetica" font-size="12" font-style="italic" lengthAdjust="spacing" textLength="8.0039" x="1124.0405" y="523.2402">A</text><line style="stroke:#C6A0F6;stroke-width:2.0;" x1="865.31" x2="1129.0444" y1="546" y2="546"/><text fill="#A6DA95" font-family="Helvetica" font-size="12" lengthAdjust="spacing" textLength="253.7344" x="870.31" y="559.2402">class Witness {} ' Nested phantom Witness type</text><line style="stroke:#C6A0F6;stroke-width:2.0;" x1="865.31" x2="1129.0444" y1="566" y2="566"/></g><!--class Kind--><g id="elem_Kind"><rect fill="#24273A" height="46" id="Kind" rx="1.5" ry="1.5" style="stroke:#C6A0F6;stroke-width:2.0;" width="62.0234" x="308.61" y="522"/><rect fill="#363A4F" height="30" rx="1.5" ry="1.5" style="stroke:#363A4F;stroke-width:2.0;" width="62.0234" x="308.61" y="522"/><rect fill="#363A4F" height="1.5" style="stroke:#363A4F;stroke-width:2.0;" width="62.0234" x="308.61" y="550.5"/><rect fill="none" height="46" id="Kind" rx="1.5" ry="1.5" style="stroke:#C6A0F6;stroke-width:2.0;" width="62.0234" x="308.61" y="522"/><ellipse cx="322.61" cy="537" fill="#B4A7E5" rx="10" ry="10" style="stroke:#181818;stroke-width:1.0;"/><path d="M319.6178,534.2754 L319.6178,532.752 L324.8268,532.752 L324.8268,534.2754 L323.0866,534.2754 L323.0866,539.9766 L324.8268,539.9766 L324.8268,541.5 L319.6178,541.5 L319.6178,539.9766 L321.358,539.9766 L321.358,534.2754 Z " fill="#CAD3F5"/><text fill="#A6DA95" font-family="Helvetica" font-size="16" font-style="italic" lengthAdjust="spacing" textLength="32.0234" x="335.61" y="541.3203">Kind</text><line style="stroke:#C6A0F6;stroke-width:2.0;" x1="309.61" x2="369.6334" y1="552" y2="552"/><line style="stroke:#C6A0F6;stroke-width:2.0;" x1="309.61" x2="369.6334" y1="560" y2="560"/></g><!--class JavaOptional--><g id="elem_JavaOptional"><rect codeLine="43" fill="#24273A" height="46" id="JavaOptional" rx="1.5" ry="1.5" style="stroke:#C6A0F6;stroke-width:2.0;" width="160.293" x="2575.8" y="444"/><rect fill="#363A4F" height="30" rx="1.5" ry="1.5" style="stroke:#363A4F;stroke-width:2.0;" width="160.293" x="2575.8" y="444"/><rect fill="#363A4F" height="1.5" style="stroke:#363A4F;stroke-width:2.0;" width="160.293" x="2575.8" y="472.5"/><rect codeLine="43" fill="none" height="46" id="JavaOptional" rx="1.5" ry="1.5" style="stroke:#C6A0F6;stroke-width:2.0;" width="160.293" x="2575.8" y="444"/><ellipse cx="2589.8" cy="459" fill="#ADD1B2" rx="10" ry="10" style="stroke:#181818;stroke-width:1.0;"/><path d="M2591.634,463.248 Q2591.2238,463.459 2590.7727,463.5645 Q2590.3215,463.6699 2589.8234,463.6699 Q2588.0539,463.6699 2587.1223,462.5039 Q2586.1906,461.3379 2586.1906,459.1348 Q2586.1906,456.9258 2587.1223,455.7598 Q2588.0539,454.5938 2589.8234,454.5938 Q2590.3215,454.5938 2590.7785,454.6992 Q2591.2355,454.8047 2591.634,455.0156 L2591.634,456.9375 Q2591.1887,456.5273 2590.7697,456.3369 Q2590.3508,456.1465 2589.9055,456.1465 Q2588.9563,456.1465 2588.4729,456.8994 Q2587.9895,457.6523 2587.9895,459.1348 Q2587.9895,460.6113 2588.4729,461.3643 Q2588.9563,462.1172 2589.9055,462.1172 Q2590.3508,462.1172 2590.7697,461.9268 Q2591.1887,461.7363 2591.634,461.3262 Z " fill="#CAD3F5"/><text fill="#A6DA95" font-family="Helvetica" font-size="16" lengthAdjust="spacing" textLength="118.2891" x="2602.8" y="463.3203">java.util.Optional</text><rect fill="#24273A" height="14" style="stroke:#C6A0F6;stroke-width:1.0;stroke-dasharray:2.0,2.0;" width="10.0039" x="2729.0891" y="441"/><text fill="#CAD3F5" font-family="Helvetica" font-size="12" font-style="italic" lengthAdjust="spacing" textLength="8.0039" x="2730.0891" y="451.2402">A</text><line style="stroke:#C6A0F6;stroke-width:2.0;" x1="2576.8" x2="2735.093" y1="474" y2="474"/><line style="stroke:#C6A0F6;stroke-width:2.0;" x1="2576.8" x2="2735.093" y1="482" y2="482"/></g><!--class OptionalKindHelper--><g id="elem_OptionalKindHelper"><rect codeLine="55" fill="#24273A" height="70" id="OptionalKindHelper" rx="1.5" ry="1.5" style="stroke:#C6A0F6;stroke-width:2.0;" width="385.8613" x="1431.11" y="399"/><rect fill="#363A4F" height="30" rx="1.5" ry="1.5" style="stroke:#363A4F;stroke-width:2.0;" width="385.8613" x="1431.11" y="399"/><rect fill="#363A4F" height="1.5" style="stroke:#363A4F;stroke-width:2.0;" width="385.8613" x="1431.11" y="427.5"/><rect codeLine="55" fill="none" height="70" id="OptionalKindHelper" rx="1.5" ry="1.5" style="stroke:#C6A0F6;stroke-width:2.0;" width="385.8613" x="1431.11" y="399"/><ellipse cx="1550.6657" cy="414" fill="#ADD1B2" rx="10" ry="10" style="stroke:#181818;stroke-width:1.0;"/><path d="M1552.4996,418.248 Q1552.0895,418.459 1551.6383,418.5645 Q1551.1871,418.6699 1550.6891,418.6699 Q1548.9196,418.6699 1547.9879,417.5039 Q1547.0563,416.3379 1547.0563,414.1348 Q1547.0563,411.9258 1547.9879,410.7598 Q1548.9196,409.5938 1550.6891,409.5938 Q1551.1871,409.5938 1551.6442,409.6992 Q1552.1012,409.8047 1552.4996,410.0156 L1552.4996,411.9375 Q1552.0543,411.5273 1551.6354,411.3369 Q1551.2164,411.1465 1550.7711,411.1465 Q1549.8219,411.1465 1549.3385,411.8994 Q1548.8551,412.6523 1548.8551,414.1348 Q1548.8551,415.6113 1549.3385,416.3643 Q1549.8219,417.1172 1550.7711,417.1172 Q1551.2164,417.1172 1551.6354,416.9268 Q1552.0543,416.7363 1552.4996,416.3262 Z " fill="#CAD3F5"/><text fill="#A6DA95" font-family="Helvetica" font-size="16" lengthAdjust="spacing" textLength="138.75" x="1569.6657" y="418.3203">OptionalKindHelper</text><line style="stroke:#C6A0F6;stroke-width:2.0;" x1="1432.11" x2="1815.9713" y1="429" y2="429"/><line style="stroke:#C6A0F6;stroke-width:2.0;" x1="1432.11" x2="1815.9713" y1="437" y2="437"/><ellipse cx="1442.11" cy="448.5" fill="#84BE84" rx="3" ry="3" style="stroke:#038048;stroke-width:1.0;"/><text fill="#A6DA95" font-family="Helvetica" font-size="12" lengthAdjust="spacing" text-decoration="underline" textLength="342.1816" x="1450.11" y="450.2402">wrap(opt: java.util.Optional&lt;A&gt;): Kind&lt;OptionalKind.Witness, A&gt;</text><ellipse cx="1442.11" cy="460.5" fill="#84BE84" rx="3" ry="3" style="stroke:#038048;stroke-width:1.0;"/><text fill="#A6DA95" font-family="Helvetica" font-size="12" lengthAdjust="spacing" text-decoration="underline" textLength="360.8613" x="1450.11" y="462.2402">unwrap(kind: Kind&lt;OptionalKind.Witness, A&gt;): java.util.Optional&lt;A&gt;</text></g><!--class OptionalMonad--><g id="elem_OptionalMonad"><rect codeLine="59" fill="#24273A" height="46" id="OptionalMonad" rx="1.5" ry="1.5" style="stroke:#C6A0F6;stroke-width:2.0;" width="138.5156" x="927.92" y="411"/><rect fill="#363A4F" height="30" rx="1.5" ry="1.5" style="stroke:#363A4F;stroke-width:2.0;" width="138.5156" x="927.92" y="411"/><rect fill="#363A4F" height="1.5" style="stroke:#363A4F;stroke-width:2.0;" width="138.5156" x="927.92" y="439.5"/><rect codeLine="59" fill="none" height="46" id="OptionalMonad" rx="1.5" ry="1.5" style="stroke:#C6A0F6;stroke-width:2.0;" width="138.5156" x="927.92" y="411"/><ellipse cx="941.92" cy="426" fill="#ADD1B2" rx="10" ry="10" style="stroke:#181818;stroke-width:1.0;"/><path d="M943.754,430.248 Q943.3438,430.459 942.8927,430.5645 Q942.4415,430.6699 941.9434,430.6699 Q940.1739,430.6699 939.2423,429.5039 Q938.3106,428.3379 938.3106,426.1348 Q938.3106,423.9258 939.2423,422.7598 Q940.1739,421.5938 941.9434,421.5938 Q942.4415,421.5938 942.8985,421.6992 Q943.3555,421.8047 943.754,422.0156 L943.754,423.9375 Q943.3087,423.5273 942.8897,423.3369 Q942.4708,423.1465 942.0255,423.1465 Q941.0763,423.1465 940.5929,423.8994 Q940.1095,424.6523 940.1095,426.1348 Q940.1095,427.6113 940.5929,428.3643 Q941.0763,429.1172 942.0255,429.1172 Q942.4708,429.1172 942.8897,428.9268 Q943.3087,428.7363 943.754,428.3262 Z " fill="#CAD3F5"/><text fill="#A6DA95" font-family="Helvetica" font-size="16" lengthAdjust="spacing" textLength="108.5156" x="954.92" y="430.3203">OptionalMonad</text><line style="stroke:#C6A0F6;stroke-width:2.0;" x1="928.92" x2="1065.4356" y1="441" y2="441"/><line style="stroke:#C6A0F6;stroke-width:2.0;" x1="928.92" x2="1065.4356" y1="449" y2="449"/></g><!--class MonadError--><g id="elem_MonadError"><rect fill="#24273A" height="46" id="MonadError" rx="1.5" ry="1.5" style="stroke:#C6A0F6;stroke-width:2.0;" width="114.4766" x="282.38" y="411"/><rect fill="#363A4F" height="30" rx="1.5" ry="1.5" style="stroke:#363A4F;stroke-width:2.0;" width="114.4766" x="282.38" y="411"/><rect fill="#363A4F" height="1.5" style="stroke:#363A4F;stroke-width:2.0;" width="114.4766" x="282.38" y="439.5"/><rect fill="none" height="46" id="MonadError" rx="1.5" ry="1.5" style="stroke:#C6A0F6;stroke-width:2.0;" width="114.4766" x="282.38" y="411"/><ellipse cx="296.38" cy="426" fill="#B4A7E5" rx="10" ry="10" style="stroke:#181818;stroke-width:1.0;"/><path d="M293.3878,423.2754 L293.3878,421.752 L298.5968,421.752 L298.5968,423.2754 L296.8566,423.2754 L296.8566,428.9766 L298.5968,428.9766 L298.5968,430.5 L293.3878,430.5 L293.3878,428.9766 L295.128,428.9766 L295.128,423.2754 Z " fill="#CAD3F5"/><text fill="#A6DA95" font-family="Helvetica" font-size="16" font-style="italic" lengthAdjust="spacing" textLength="84.4766" x="309.38" y="430.3203">MonadError</text><line style="stroke:#C6A0F6;stroke-width:2.0;" x1="283.38" x2="395.8566" y1="441" y2="441"/><line style="stroke:#C6A0F6;stroke-width:2.0;" x1="283.38" x2="395.8566" y1="449" y2="449"/></g><!--class OptionalHolder--><g id="elem_OptionalHolder"><rect codeLine="47" fill="#24273A" height="58" id="OptionalHolder" rx="1.5" ry="1.5" style="stroke:#C6A0F6;stroke-width:2.0;" width="247.123" x="2108.33" y="516"/><rect fill="#363A4F" height="30" rx="1.5" ry="1.5" style="stroke:#363A4F;stroke-width:2.0;" width="247.123" x="2108.33" y="516"/><rect fill="#363A4F" height="1.5" style="stroke:#363A4F;stroke-width:2.0;" width="247.123" x="2108.33" y="544.5"/><rect codeLine="47" fill="none" height="58" id="OptionalHolder" rx="1.5" ry="1.5" style="stroke:#C6A0F6;stroke-width:2.0;" width="247.123" x="2108.33" y="516"/><ellipse cx="2168.5263" cy="531" fill="#ADD1B2" rx="10" ry="10" style="stroke:#181818;stroke-width:1.0;"/><path d="M2170.3603,535.248 Q2169.9501,535.459 2169.4989,535.5645 Q2169.0478,535.6699 2168.5497,535.6699 Q2166.7802,535.6699 2165.8486,534.5039 Q2164.9169,533.3379 2164.9169,531.1348 Q2164.9169,528.9258 2165.8486,527.7598 Q2166.7802,526.5938 2168.5497,526.5938 Q2169.0478,526.5938 2169.5048,526.6992 Q2169.9618,526.8047 2170.3603,527.0156 L2170.3603,528.9375 Q2169.915,528.5273 2169.496,528.3369 Q2169.0771,528.1465 2168.6318,528.1465 Q2167.6825,528.1465 2167.1991,528.8994 Q2166.7157,529.6523 2166.7157,531.1348 Q2166.7157,532.6113 2167.1991,533.3643 Q2167.6825,534.1172 2168.6318,534.1172 Q2169.0771,534.1172 2169.496,533.9268 Q2169.915,533.7363 2170.3603,533.3262 Z " fill="#CAD3F5"/><text fill="#A6DA95" font-family="Helvetica" font-size="16" lengthAdjust="spacing" textLength="106.7266" x="2187.5263" y="535.3203">OptionalHolder</text><rect fill="#24273A" height="14" style="stroke:#C6A0F6;stroke-width:1.0;stroke-dasharray:2.0,2.0;" width="10.0039" x="2348.4491" y="513"/><text fill="#CAD3F5" font-family="Helvetica" font-size="12" font-style="italic" lengthAdjust="spacing" textLength="8.0039" x="2349.4491" y="523.2402">A</text><line style="stroke:#C6A0F6;stroke-width:2.0;" x1="2109.33" x2="2354.453" y1="546" y2="546"/><line style="stroke:#C6A0F6;stroke-width:2.0;" x1="2109.33" x2="2354.453" y1="554" y2="554"/><ellipse cx="2119.33" cy="565.5" fill="#84BE84" rx="3" ry="3" style="stroke:#038048;stroke-width:1.0;"/><text fill="#A6DA95" font-family="Helvetica" font-size="12" lengthAdjust="spacing" textLength="222.123" x="2127.33" y="567.2402">OptionalHolder(opt: java.util.Optional&lt;A&gt;)</text></g><!--class OptionalKindInterface--><g id="elem_OptionalKindInterface"><rect fill="#24273A" height="46" id="OptionalKindInterface" rx="1.5" ry="1.5" style="stroke:#C6A0F6;stroke-width:2.0;" width="183.875" x="1532.11" y="522"/><rect fill="#363A4F" height="30" rx="1.5" ry="1.5" style="stroke:#363A4F;stroke-width:2.0;" width="183.875" x="1532.11" y="522"/><rect fill="#363A4F" height="1.5" style="stroke:#363A4F;stroke-width:2.0;" width="183.875" x="1532.11" y="550.5"/><rect fill="none" height="46" id="OptionalKindInterface" rx="1.5" ry="1.5" style="stroke:#C6A0F6;stroke-width:2.0;" width="183.875" x="1532.11" y="522"/><ellipse cx="1546.11" cy="537" fill="#B4A7E5" rx="10" ry="10" style="stroke:#181818;stroke-width:1.0;"/><path d="M1543.1178,534.2754 L1543.1178,532.752 L1548.3268,532.752 L1548.3268,534.2754 L1546.5866,534.2754 L1546.5866,539.9766 L1548.3268,539.9766 L1548.3268,541.5 L1543.1178,541.5 L1543.1178,539.9766 L1544.858,539.9766 L1544.858,534.2754 Z " fill="#CAD3F5"/><text fill="#A6DA95" font-family="Helvetica" font-size="16" font-style="italic" lengthAdjust="spacing" textLength="153.875" x="1559.11" y="541.3203">OptionalKindInterface</text><line style="stroke:#C6A0F6;stroke-width:2.0;" x1="1533.11" x2="1714.985" y1="552" y2="552"/><line style="stroke:#C6A0F6;stroke-width:2.0;" x1="1533.11" x2="1714.985" y1="560" y2="560"/></g><!--class IdKindInterface--><g id="elem_IdKindInterface"><rect codeLine="66" fill="#24273A" height="58" id="IdKindInterface" rx="1.5" ry="1.5" style="stroke:#C6A0F6;stroke-width:2.0;" width="265.7344" x="1491.18" y="270"/><rect fill="#363A4F" height="30" rx="1.5" ry="1.5" style="stroke:#363A4F;stroke-width:2.0;" width="265.7344" x="1491.18" y="270"/><rect fill="#363A4F" height="1.5" style="stroke:#363A4F;stroke-width:2.0;" width="265.7344" x="1491.18" y="298.5"/><rect codeLine="66" fill="none" height="58" id="IdKindInterface" rx="1.5" ry="1.5" style="stroke:#C6A0F6;stroke-width:2.0;" width="265.7344" x="1491.18" y="270"/><ellipse cx="1591.3616" cy="285" fill="#B4A7E5" rx="10" ry="10" style="stroke:#181818;stroke-width:1.0;"/><path d="M1588.3695,282.2754 L1588.3695,280.752 L1593.5784,280.752 L1593.5784,282.2754 L1591.8382,282.2754 L1591.8382,287.9766 L1593.5784,287.9766 L1593.5784,289.5 L1588.3695,289.5 L1588.3695,287.9766 L1590.1097,287.9766 L1590.1097,282.2754 Z " fill="#CAD3F5"/><text fill="#A6DA95" font-family="Helvetica" font-size="16" font-style="italic" lengthAdjust="spacing" textLength="45.3672" x="1610.3616" y="289.3203">IdKind</text><rect fill="#24273A" height="14" style="stroke:#C6A0F6;stroke-width:1.0;stroke-dasharray:2.0,2.0;" width="10.0039" x="1749.9105" y="267"/><text fill="#CAD3F5" font-family="Helvetica" font-size="12" font-style="italic" lengthAdjust="spacing" textLength="8.0039" x="1750.9105" y="277.2402">A</text><line style="stroke:#C6A0F6;stroke-width:2.0;" x1="1492.18" x2="1755.9144" y1="300" y2="300"/><text fill="#A6DA95" font-family="Helvetica" font-size="12" lengthAdjust="spacing" textLength="253.7344" x="1497.18" y="313.2402">class Witness {} ' Nested phantom Witness type</text><line style="stroke:#C6A0F6;stroke-width:2.0;" x1="1492.18" x2="1755.9144" y1="320" y2="320"/></g><!--class Kind--><g id="elem_Kind"><rect fill="#24273A" height="46" id="Kind" rx="1.5" ry="1.5" style="stroke:#C6A0F6;stroke-width:2.0;" width="62.0234" x="966.17" y="276"/><rect fill="#363A4F" height="30" rx="1.5" ry="1.5" style="stroke:#363A4F;stroke-width:2.0;" width="62.0234" x="966.17" y="276"/><rect fill="#363A4F" height="1.5" style="stroke:#363A4F;stroke-width:2.0;" width="62.0234" x="966.17" y="304.5"/><rect fill="none" height="46" id="Kind" rx="1.5" ry="1.5" style="stroke:#C6A0F6;stroke-width:2.0;" width="62.0234" x="966.17" y="276"/><ellipse cx="980.17" cy="291" fill="#B4A7E5" rx="10" ry="10" style="stroke:#181818;stroke-width:1.0;"/><path d="M977.1778,288.2754 L977.1778,286.752 L982.3868,286.752 L982.3868,288.2754 L980.6466,288.2754 L980.6466,293.9766 L982.3868,293.9766 L982.3868,295.5 L977.1778,295.5 L977.1778,293.9766 L978.918,293.9766 L978.918,288.2754 Z " fill="#CAD3F5"/><text fill="#A6DA95" font-family="Helvetica" font-size="16" font-style="italic" lengthAdjust="spacing" textLength="32.0234" x="993.17" y="295.3203">Kind</text><line style="stroke:#C6A0F6;stroke-width:2.0;" x1="967.17" x2="1027.1934" y1="306" y2="306"/><line style="stroke:#C6A0F6;stroke-width:2.0;" x1="967.17" x2="1027.1934" y1="314" y2="314"/></g><!--class IdRecord--><g id="elem_IdRecord"><rect codeLine="70" fill="#24273A" height="46" id="IdRecord" rx="1.5" ry="1.5" style="stroke:#C6A0F6;stroke-width:2.0;" width="141.1719" x="2161.3" y="276"/><rect fill="#363A4F" height="30" rx="1.5" ry="1.5" style="stroke:#363A4F;stroke-width:2.0;" width="141.1719" x="2161.3" y="276"/><rect fill="#363A4F" height="1.5" style="stroke:#363A4F;stroke-width:2.0;" width="141.1719" x="2161.3" y="304.5"/><rect codeLine="70" fill="none" height="46" id="IdRecord" rx="1.5" ry="1.5" style="stroke:#C6A0F6;stroke-width:2.0;" width="141.1719" x="2161.3" y="276"/><ellipse cx="2175.3" cy="291" fill="#ADD1B2" rx="10" ry="10" style="stroke:#181818;stroke-width:1.0;"/><path d="M2177.134,295.248 Q2176.7238,295.459 2176.2727,295.5645 Q2175.8215,295.6699 2175.3234,295.6699 Q2173.5539,295.6699 2172.6223,294.5039 Q2171.6906,293.3379 2171.6906,291.1348 Q2171.6906,288.9258 2172.6223,287.7598 Q2173.5539,286.5938 2175.3234,286.5938 Q2175.8215,286.5938 2176.2785,286.6992 Q2176.7355,286.8047 2177.134,287.0156 L2177.134,288.9375 Q2176.6887,288.5273 2176.2697,288.3369 Q2175.8508,288.1465 2175.4055,288.1465 Q2174.4563,288.1465 2173.9729,288.8994 Q2173.4895,289.6523 2173.4895,291.1348 Q2173.4895,292.6113 2173.9729,293.3643 Q2174.4563,294.1172 2175.4055,294.1172 Q2175.8508,294.1172 2176.2697,293.9268 Q2176.6887,293.7363 2177.134,293.3262 Z " fill="#CAD3F5"/><text fill="#A6DA95" font-family="Helvetica" font-size="16" lengthAdjust="spacing" textLength="111.1719" x="2188.3" y="295.3203">Id&lt;A&gt;(value: A)</text><line style="stroke:#C6A0F6;stroke-width:2.0;" x1="2162.3" x2="2301.4719" y1="306" y2="306"/><line style="stroke:#C6A0F6;stroke-width:2.0;" x1="2162.3" x2="2301.4719" y1="314" y2="314"/></g><!--class IdKindHelper--><g id="elem_IdKindHelper"><rect codeLine="74" fill="#24273A" height="70" id="IdKindHelper" rx="1.5" ry="1.5" style="stroke:#C6A0F6;stroke-width:2.0;" width="248.4473" x="1499.82" y="165"/><rect fill="#363A4F" height="30" rx="1.5" ry="1.5" style="stroke:#363A4F;stroke-width:2.0;" width="248.4473" x="1499.82" y="165"/><rect fill="#363A4F" height="1.5" style="stroke:#363A4F;stroke-width:2.0;" width="248.4473" x="1499.82" y="193.5"/><rect codeLine="74" fill="none" height="70" id="IdKindHelper" rx="1.5" ry="1.5" style="stroke:#C6A0F6;stroke-width:2.0;" width="248.4473" x="1499.82" y="165"/><ellipse cx="1573.7936" cy="180" fill="#ADD1B2" rx="10" ry="10" style="stroke:#181818;stroke-width:1.0;"/><path d="M1575.6276,184.248 Q1575.2175,184.459 1574.7663,184.5645 Q1574.3151,184.6699 1573.8171,184.6699 Q1572.0475,184.6699 1571.1159,183.5039 Q1570.1843,182.3379 1570.1843,180.1348 Q1570.1843,177.9258 1571.1159,176.7598 Q1572.0475,175.5938 1573.8171,175.5938 Q1574.3151,175.5938 1574.7721,175.6992 Q1575.2292,175.8047 1575.6276,176.0156 L1575.6276,177.9375 Q1575.1823,177.5273 1574.7634,177.3369 Q1574.3444,177.1465 1573.8991,177.1465 Q1572.9499,177.1465 1572.4665,177.8994 Q1571.9831,178.6523 1571.9831,180.1348 Q1571.9831,181.6113 1572.4665,182.3643 Q1572.9499,183.1172 1573.8991,183.1172 Q1574.3444,183.1172 1574.7634,182.9268 Q1575.1823,182.7363 1575.6276,182.3262 Z " fill="#CAD3F5"/><text fill="#A6DA95" font-family="Helvetica" font-size="16" lengthAdjust="spacing" textLength="92.5" x="1592.7936" y="184.3203">IdKindHelper</text><line style="stroke:#C6A0F6;stroke-width:2.0;" x1="1500.82" x2="1747.2673" y1="195" y2="195"/><line style="stroke:#C6A0F6;stroke-width:2.0;" x1="1500.82" x2="1747.2673" y1="203" y2="203"/><ellipse cx="1510.82" cy="214.5" fill="#84BE84" rx="3" ry="3" style="stroke:#038048;stroke-width:1.0;"/><text fill="#A6DA95" font-family="Helvetica" font-size="12" lengthAdjust="spacing" text-decoration="underline" textLength="197.4258" x="1518.82" y="216.2402">wrap(id: Id&lt;A&gt;): Kind&lt;Id.Witness, A&gt;</text><ellipse cx="1510.82" cy="226.5" fill="#84BE84" rx="3" ry="3" style="stroke:#038048;stroke-width:1.0;"/><text fill="#A6DA95" font-family="Helvetica" font-size="12" lengthAdjust="spacing" text-decoration="underline" textLength="223.4473" x="1518.82" y="228.2402">unwrap(kind: Kind&lt;Id.Witness, A&gt;): Id&lt;A&gt;</text></g><!--class IdentityMonad--><g id="elem_IdentityMonad"><rect codeLine="80" fill="#24273A" height="46" id="IdentityMonad" rx="1.5" ry="1.5" style="stroke:#C6A0F6;stroke-width:2.0;" width="130.5078" x="931.92" y="177"/><rect fill="#363A4F" height="30" rx="1.5" ry="1.5" style="stroke:#363A4F;stroke-width:2.0;" width="130.5078" x="931.92" y="177"/><rect fill="#363A4F" height="1.5" style="stroke:#363A4F;stroke-width:2.0;" width="130.5078" x="931.92" y="205.5"/><rect codeLine="80" fill="none" height="46" id="IdentityMonad" rx="1.5" ry="1.5" style="stroke:#C6A0F6;stroke-width:2.0;" width="130.5078" x="931.92" y="177"/><ellipse cx="945.92" cy="192" fill="#ADD1B2" rx="10" ry="10" style="stroke:#181818;stroke-width:1.0;"/><path d="M947.754,196.248 Q947.3438,196.459 946.8927,196.5645 Q946.4415,196.6699 945.9434,196.6699 Q944.1739,196.6699 943.2423,195.5039 Q942.3106,194.3379 942.3106,192.1348 Q942.3106,189.9258 943.2423,188.7598 Q944.1739,187.5938 945.9434,187.5938 Q946.4415,187.5938 946.8985,187.6992 Q947.3555,187.8047 947.754,188.0156 L947.754,189.9375 Q947.3087,189.5273 946.8897,189.3369 Q946.4708,189.1465 946.0255,189.1465 Q945.0763,189.1465 944.5929,189.8994 Q944.1095,190.6523 944.1095,192.1348 Q944.1095,193.6113 944.5929,194.3643 Q945.0763,195.1172 946.0255,195.1172 Q946.4708,195.1172 946.8897,194.9268 Q947.3087,194.7363 947.754,194.3262 Z " fill="#CAD3F5"/><text fill="#A6DA95" font-family="Helvetica" font-size="16" lengthAdjust="spacing" textLength="100.5078" x="958.92" y="196.3203">IdentityMonad</text><line style="stroke:#C6A0F6;stroke-width:2.0;" x1="932.92" x2="1061.4278" y1="207" y2="207"/><line style="stroke:#C6A0F6;stroke-width:2.0;" x1="932.92" x2="1061.4278" y1="215" y2="215"/></g><!--class Monad--><g id="elem_Monad"><rect fill="#24273A" height="46" id="Monad" rx="1.5" ry="1.5" style="stroke:#C6A0F6;stroke-width:2.0;" width="78.9219" x="300.16" y="177"/><rect fill="#363A4F" height="30" rx="1.5" ry="1.5" style="stroke:#363A4F;stroke-width:2.0;" width="78.9219" x="300.16" y="177"/><rect fill="#363A4F" height="1.5" style="stroke:#363A4F;stroke-width:2.0;" width="78.9219" x="300.16" y="205.5"/><rect fill="none" height="46" id="Monad" rx="1.5" ry="1.5" style="stroke:#C6A0F6;stroke-width:2.0;" width="78.9219" x="300.16" y="177"/><ellipse cx="314.16" cy="192" fill="#B4A7E5" rx="10" ry="10" style="stroke:#181818;stroke-width:1.0;"/><path d="M311.1678,189.2754 L311.1678,187.752 L316.3768,187.752 L316.3768,189.2754 L314.6366,189.2754 L314.6366,194.9766 L316.3768,194.9766 L316.3768,196.5 L311.1678,196.5 L311.1678,194.9766 L312.908,194.9766 L312.908,189.2754 Z " fill="#CAD3F5"/><text fill="#A6DA95" font-family="Helvetica" font-size="16" font-style="italic" lengthAdjust="spacing" textLength="48.9219" x="327.16" y="196.3203">Monad</text><line style="stroke:#C6A0F6;stroke-width:2.0;" x1="301.16" x2="378.0819" y1="207" y2="207"/><line style="stroke:#C6A0F6;stroke-width:2.0;" x1="301.16" x2="378.0819" y1="215" y2="215"/></g><!--link Functor to Kind--><g id="link_Functor_Kind"><path codeLine="31" d="M2443.3,728 C2492.86,728 2536.46,728 2575.17,728 " fill="none" id="Functor-to-Kind" style="stroke:#F5BDE6;stroke-width:1.0;stroke-dasharray:7.0,7.0;"/><polygon fill="#F5BDE6" points="2581.17,728,2572.17,724,2576.17,728,2572.17,732,2581.17,728" style="stroke:#F5BDE6;stroke-width:1.0;"/><text fill="#CAD3F5" font-family="Helvetica" font-size="12" lengthAdjust="spacing" textLength="71.373" x="2473.8" y="724.2402">(operates on)</text></g><!--link Applicative to Functor--><g id="link_Applicative_Functor"><path codeLine="32" d="M1885.05,728 C1930.3,728 1958.86,728 2002.57,728 " fill="none" id="Applicative-to-Functor" style="stroke:#F5BDE6;stroke-width:1.0;"/><polygon fill="none" points="2020.57,728,2002.57,722,2002.57,734,2020.57,728" style="stroke:#F5BDE6;stroke-width:1.0;"/></g><!--link Monad to Applicative--><g id="link_Monad_Applicative"><path codeLine="33" d="M1276.35,728 C1305.17,728 1316.39,728 1345,728 " fill="none" id="Monad-to-Applicative" style="stroke:#F5BDE6;stroke-width:1.0;"/><polygon fill="none" points="1363,728,1345,722,1345,734,1363,728" style="stroke:#F5BDE6;stroke-width:1.0;"/></g><!--link MonadError to Monad--><g id="link_MonadError_Monad"><path codeLine="34" d="M657.36,728 C677.64,728 679.98,728 700.06,728 " fill="none" id="MonadError-to-Monad" style="stroke:#F5BDE6;stroke-width:1.0;"/><polygon fill="none" points="718.06,728,700.06,722,700.06,734,718.06,728" style="stroke:#F5BDE6;stroke-width:1.0;"/></g><!--reverse link Kind to OptionalKindInterface--><g id="link_Kind_OptionalKindInterface"><path d="M388.93,545 C475.11,545 707.46,545 863.98,545 " fill="none" id="Kind-backto-OptionalKindInterface" style="stroke:#F5BDE6;stroke-width:1.0;"/><polygon fill="none" points="370.93,545,388.93,551,388.93,539,370.93,545" style="stroke:#F5BDE6;stroke-width:1.0;"/></g><!--reverse link OptionalKindInterface to OptionalHolder--><g id="link_OptionalKindInterface_OptionalHolder"><path d="M1734.4,545 C1838.78,545 1992.08,545 2108.07,545 " fill="none" id="OptionalKindInterface-backto-OptionalHolder" style="stroke:#F5BDE6;stroke-width:1.0;stroke-dasharray:7.0,7.0;"/><polygon fill="none" points="1716.4,545,1734.4,551,1734.4,539,1716.4,545" style="stroke:#F5BDE6;stroke-width:1.0;"/></g><!--link OptionalKindHelper to OptionalHolder--><g id="link_OptionalKindHelper_OptionalHolder"><path codeLine="51" d="M1797.25,469.43 C1866.64,483.31 1947.5,498.99 2020.97,512 C2049.13,516.98 2073.544,521.0303 2102.174,525.5703 " fill="none" id="OptionalKindHelper-to-OptionalHolder" style="stroke:#F5BDE6;stroke-width:1.0;stroke-dasharray:7.0,7.0;"/><polygon fill="#F5BDE6" points="2108.1,526.51,2099.8375,521.1498,2103.1617,525.7269,2098.5846,529.0511,2108.1,526.51" style="stroke:#F5BDE6;stroke-width:1.0;"/><text fill="#CAD3F5" font-family="Helvetica" font-size="12" lengthAdjust="spacing" textLength="74.7012" x="1915.97" y="490.2202">creates / uses</text></g><!--link OptionalKindHelper to JavaOptional--><g id="link_OptionalKindHelper_JavaOptional"><path codeLine="52" d="M1817.25,440.16 C2045.14,447.46 2408.3131,459.098 2569.4631,464.258 " fill="none" id="OptionalKindHelper-to-JavaOptional" style="stroke:#F5BDE6;stroke-width:1.0;stroke-dasharray:7.0,7.0;"/><polygon fill="#F5BDE6" points="2575.46,464.45,2566.5926,460.164,2570.4626,464.29,2566.3366,468.1599,2575.46,464.45" style="stroke:#F5BDE6;stroke-width:1.0;"/><text fill="#CAD3F5" font-family="Helvetica" font-size="12" lengthAdjust="spacing" textLength="87.3691" x="2188.39" y="443.4602">wraps / unwraps</text></g><!--link OptionalHolder to JavaOptional--><g id="link_OptionalHolder_JavaOptional"><path codeLine="53" d="M2355.73,526.81 C2384.35,522.26 2414.69,517.19 2442.8,512 C2486.77,503.89 2529.7283,494.9009 2569.4483,486.2209 " fill="none" id="OptionalHolder-to-JavaOptional" style="stroke:#F5BDE6;stroke-width:1.0;stroke-dasharray:7.0,7.0;"/><polygon fill="#F5BDE6" points="2575.31,484.94,2565.6635,482.9536,2570.4253,486.0075,2567.3715,490.7692,2575.31,484.94" style="stroke:#F5BDE6;stroke-width:1.0;"/><text fill="#CAD3F5" font-family="Helvetica" font-size="12" lengthAdjust="spacing" textLength="28.6875" x="2495.3" y="488.4002">holds</text></g><!--reverse link MonadError to OptionalMonad--><g id="link_MonadError_OptionalMonad"><path d="M415.08,434 C535.12,434 797.32,434 927.47,434 " fill="none" id="MonadError-backto-OptionalMonad" style="stroke:#F5BDE6;stroke-width:1.0;stroke-dasharray:7.0,7.0;"/><polygon fill="none" points="397.08,434,415.08,440,415.08,428,397.08,434" style="stroke:#F5BDE6;stroke-width:1.0;"/></g><!--link OptionalMonad to OptionalKindHelper--><g id="link_OptionalMonad_OptionalKindHelper"><path codeLine="62" d="M1066.84,434 C1153.78,434 1301.17,434 1424.87,434 " fill="none" id="OptionalMonad-to-OptionalKindHelper" style="stroke:#F5BDE6;stroke-width:1.0;stroke-dasharray:7.0,7.0;"/><polygon fill="#F5BDE6" points="1430.87,434,1421.87,430,1425.87,434,1421.87,438,1430.87,434" style="stroke:#F5BDE6;stroke-width:1.0;"/><text fill="#CAD3F5" font-family="Helvetica" font-size="12" lengthAdjust="spacing" textLength="25.3477" x="1307.11" y="430.2402">uses</text></g><!--reverse link Kind to IdKindInterface--><g id="link_Kind_IdKindInterface"><path d="M1046.32,299 C1128.47,299 1342.13,299 1490.89,299 " fill="none" id="Kind-backto-IdKindInterface" style="stroke:#F5BDE6;stroke-width:1.0;"/><polygon fill="none" points="1028.32,299,1046.32,305,1046.32,293,1028.32,299" style="stroke:#F5BDE6;stroke-width:1.0;"/></g><!--reverse link IdKindInterface to IdRecord--><g id="link_IdKindInterface_IdRecord"><path d="M1775.2433,310.5493 C1899.5433,313.9293 2062.78,312.67 2161.12,307.75 " fill="none" id="IdKindInterface-backto-IdRecord" style="stroke:#F5BDE6;stroke-width:1.0;stroke-dasharray:7.0,7.0;"/><polygon fill="none" points="1757.25,310.06,1775.0803,316.5471,1775.4064,304.5515,1757.25,310.06" style="stroke:#F5BDE6;stroke-width:1.0;"/></g><!--link IdRecord to IdKindInterface--><g id="link_IdRecord_IdKindInterface"><path codeLine="72" d="M2161.12,290.25 C2062.78,285.33 1899.5433,284.0707 1775.2433,287.4507 " fill="none" id="IdRecord-to-IdKindInterface" style="stroke:#F5BDE6;stroke-width:1.0;"/><polygon fill="none" points="1757.25,287.94,1775.4064,293.4485,1775.0803,281.4529,1757.25,287.94" style="stroke:#F5BDE6;stroke-width:1.0;"/></g><!--link IdKindHelper to IdRecord--><g id="link_IdKindHelper_IdRecord"><path codeLine="78" d="M1748.74,220.21 C1873.16,240.54 2054.6385,270.2023 2155.2385,286.6423 " fill="none" id="IdKindHelper-to-IdRecord" style="stroke:#F5BDE6;stroke-width:1.0;stroke-dasharray:7.0,7.0;"/><polygon fill="#F5BDE6" points="2161.16,287.61,2152.9229,282.2108,2156.2255,286.8036,2151.6327,290.1061,2161.16,287.61" style="stroke:#F5BDE6;stroke-width:1.0;"/><text fill="#CAD3F5" font-family="Helvetica" font-size="12" lengthAdjust="spacing" textLength="68.6836" x="1918.97" y="245.7402">casts to/from</text></g><!--reverse link Monad to IdentityMonad--><g id="link_Monad_IdentityMonad"><path d="M397.18,200 C505.66,200 796.35,200 931.48,200 " fill="none" id="Monad-backto-IdentityMonad" style="stroke:#F5BDE6;stroke-width:1.0;stroke-dasharray:7.0,7.0;"/><polygon fill="none" points="379.18,200,397.18,206,397.18,194,379.18,200" style="stroke:#F5BDE6;stroke-width:1.0;"/></g><!--link IdentityMonad to IdKindHelper--><g id="link_IdentityMonad_IdKindHelper"><path codeLine="83" d="M1062.69,200 C1165.44,200 1362.02,200 1493.38,200 " fill="none" id="IdentityMonad-to-IdKindHelper" style="stroke:#F5BDE6;stroke-width:1.0;stroke-dasharray:7.0,7.0;"/><polygon fill="#F5BDE6" points="1499.38,200,1490.38,196,1494.38,200,1490.38,204,1499.38,200" style="stroke:#F5BDE6;stroke-width:1.0;"/><text fill="#CAD3F5" font-family="Helvetica" font-size="12" lengthAdjust="spacing" textLength="25.3477" x="1307.11" y="196.2402">uses</text></g><!--SRC=[jLRBRkCs5DtxAswrYOsHPQ1B8p3WP1p4dIOfcandTWEQeYns958WgMI2rF_UA-f5lMAqHRD8uliyztNedxYWIHuoY8t9z7grKkGbE78JvuTSCqMbC4oOWCfq9QZKXYmvNL5YiYodb8jbIYYDEJ5ocIL4c3nDbYPcALkbX8kL_JV8K3gR6MuI1jTICRZzz0IFFCqJOhWKiCSSAYAKQI0YXD-8mSz2psO9YmmO2OeVOmCXLumM3hDPHkXtScJW5P5io2KylMOOFY5QC-t1smpmXzUHmVl4HNXvy-tB_kb-z_ZemtRZ0T5GY2jZW0je381hGFIGnLYLJC4KqUSiE0O-V2sSWY_S2ARrel7TrZxF9CcPzR2wKn_AJIweaQf5KqAfn0qQW0-GacmUYNMfmz8lj_xLneU8hA5Nq7QpW87mQZEEO9jb2SSfycVMH-6eEaXaDBTrhM4xacYxSKmBpD70f5l3Fo-YR38sv1vIPc8PQg14m861ZkMB01v1o3JkIEZ38JT0S2jaXDkBueZaYT5E6DlPd-U3zFumkGzNt8NkNu-1l9xez9qK9Epts0extOtm5Ew6inwYGJZfVno-pRvJojr07tOEDAliu5E4QsR5SrRyNiFkt1RWuOH9wOEd4iz7OVkLcNBAtlb3kytxsIxW0GzF0HA4V6RgzTo6L8snV-gp2u9DoGPhcCkCAMAGZwGexzkzYkNohqtjPPNbEAtOiMjLPJkjtdwUdLe2-yYYgcwIS5toOKM0y94PmfE6p6Z1RHRYP_6YIBRxGLbMyc6XRaBUOBBTZo82IImhQfW_P6KAO8OkF6UqpbxKDhRD5JswieQcWM5q4PPOBbsJcXGBUdMIjEWhFRoTS6RtJ1iMDXHRwnhYRBUt3U3zIPv9a1kU17NY6kilg6dgVAkcMsr79RwLIOXhmek7fYoziELfbk0x9KpP_j2s7RcZK_qjIt0fcfXDj-ietcYzNZTplwqrdXh0LCExeV6ukW5mNyqQHZkpw7YUHlewBDAUGW_Y6ZogcBs95UJ54tikG6SSw5wih7MsoplYNsKQyurHXHwpYUQscGTBMm7gDl03lEbYsFG41PRtshT-VycdmfP5ph-Z-Pa8YudCqnTG6rakwHHS4f6pJGxLZ-UtgV6Bsp7uG_AmVxCNy1ad_TuP3DUenE1ka3C676MxEwSHtlgL7nHHhqkaHIwG6ohwskERVaTU3yo7_OCFJue87KcLCgMds6mVkZnMVffWiFt_obiNc1nX03UQ9P4xdGPYVyBMeVswLLNmEpvkAXm66AE9DdtZPz-VdiTicBbtIwxWp1LnN7MBl3wQ_RyybNt_GFRX-45qm1KhrnHRq1NHs28ZLv6IgJTIARQGczVsYZgImHKvg2REn4Kp2jODNwATFetJtm00]--></g></svg>