<svg xmlns="http://www.w3.org/2000/svg" xmlns:xlink="http://www.w3.org/1999/xlink" contentStyleType="text/css" height="547px" preserveAspectRatio="none" style="width:376px;height:547px;background:#24273A;" version="1.1" viewBox="0 0 376 547" width="376px" zoomAndPan="magnify"><defs/><g><rect fill="#24273A" height="547" style="stroke:none;stroke-width:1.0;" width="376" x="0" y="0"/><!--cluster HKT Core - Type Classes--><g id="cluster_HKT Core - Type Classes"><path d="M7.5,6 L153.2109,6 A2.25,2.25 0 0 1 154.7109,7.5 L161.7109,24 L367.5,24 A1.5,1.5 0 0 1 369,25.5 L369,538.5 A1.5,1.5 0 0 1 367.5,540 L7.5,540 A1.5,1.5 0 0 1 6,538.5 L6,7.5 A1.5,1.5 0 0 1 7.5,6 " fill="#24273A" style="stroke:#CAD3F5;stroke-width:1.5;"/><line style="stroke:#CAD3F5;stroke-width:1.5;" x1="6" x2="161.7109" y1="24" y2="24"/><text fill="#CAD3F5" font-family="Helvetica" font-size="12" font-weight="bold" lengthAdjust="spacing" textLength="142.7109" x="10" y="17.2402">HKT Core - Type Classes</text></g><!--class Kind--><g id="elem_Kind"><rect codeLine="6" fill="#24273A" height="46" id="Kind" rx="1.5" ry="1.5" style="stroke:#C6A0F6;stroke-width:2.0;" width="149.3672" x="136.32" y="478"/><rect fill="#363A4F" height="30" rx="1.5" ry="1.5" style="stroke:#363A4F;stroke-width:2.0;" width="149.3672" x="136.32" y="478"/><rect fill="#363A4F" height="1.5" style="stroke:#363A4F;stroke-width:2.0;" width="149.3672" x="136.32" y="506.5"/><rect codeLine="6" fill="none" height="46" id="Kind" rx="1.5" ry="1.5" style="stroke:#C6A0F6;stroke-width:2.0;" width="149.3672" x="136.32" y="478"/><ellipse cx="150.32" cy="493" fill="#B4A7E5" rx="10" ry="10" style="stroke:#181818;stroke-width:1.0;"/><path d="M147.3278,490.2754 L147.3278,488.752 L152.5368,488.752 L152.5368,490.2754 L150.7966,490.2754 L150.7966,495.9766 L152.5368,495.9766 L152.5368,497.5 L147.3278,497.5 L147.3278,495.9766 L149.068,495.9766 L149.068,490.2754 Z " fill="#CAD3F5"/><text fill="#A6DA95" font-family="Helvetica" font-size="16" font-style="italic" lengthAdjust="spacing" textLength="32.0234" x="163.32" y="497.3203">Kind</text><rect fill="#24273A" height="14" style="stroke:#C6A0F6;stroke-width:1.0;stroke-dasharray:2.0,2.0;" width="85.3438" x="203.3434" y="475"/><text fill="#CAD3F5" font-family="Helvetica" font-size="12" font-style="italic" lengthAdjust="spacing" textLength="83.3438" x="204.3434" y="485.2402">F_WITNESS, A</text><line style="stroke:#C6A0F6;stroke-width:2.0;" x1="137.32" x2="284.6872" y1="508" y2="508"/><line style="stroke:#C6A0F6;stroke-width:2.0;" x1="137.32" x2="284.6872" y1="516" y2="516"/></g><!--class Functor--><g id="elem_Functor"><rect codeLine="10" fill="#24273A" height="46" id="Functor" rx="1.5" ry="1.5" style="stroke:#C6A0F6;stroke-width:2.0;" width="156.9141" x="132.54" y="358"/><rect fill="#363A4F" height="30" rx="1.5" ry="1.5" style="stroke:#363A4F;stroke-width:2.0;" width="156.9141" x="132.54" y="358"/><rect fill="#363A4F" height="1.5" style="stroke:#363A4F;stroke-width:2.0;" width="156.9141" x="132.54" y="386.5"/><rect codeLine="10" fill="none" height="46" id="Functor" rx="1.5" ry="1.5" style="stroke:#C6A0F6;stroke-width:2.0;" width="156.9141" x="132.54" y="358"/><ellipse cx="146.54" cy="373" fill="#B4A7E5" rx="10" ry="10" style="stroke:#181818;stroke-width:1.0;"/><path d="M143.5478,370.2754 L143.5478,368.752 L148.7568,368.752 L148.7568,370.2754 L147.0166,370.2754 L147.0166,375.9766 L148.7568,375.9766 L148.7568,377.5 L143.5478,377.5 L143.5478,375.9766 L145.288,375.9766 L145.288,370.2754 Z " fill="#CAD3F5"/><text fill="#A6DA95" font-family="Helvetica" font-size="16" font-style="italic" lengthAdjust="spacing" textLength="54.2422" x="159.54" y="377.3203">Functor</text><rect fill="#24273A" height="14" style="stroke:#C6A0F6;stroke-width:1.0;stroke-dasharray:2.0,2.0;" width="70.6719" x="221.7822" y="355"/><text fill="#CAD3F5" font-family="Helvetica" font-size="12" font-style="italic" lengthAdjust="spacing" textLength="68.6719" x="222.7822" y="365.2402">F_WITNESS</text><line style="stroke:#C6A0F6;stroke-width:2.0;" x1="133.54" x2="288.4541" y1="388" y2="388"/><line style="stroke:#C6A0F6;stroke-width:2.0;" x1="133.54" x2="288.4541" y1="396" y2="396"/></g><!--class Applicative--><g id="elem_Applicative"><rect codeLine="11" fill="#24273A" height="46" id="Applicative" rx="1.5" ry="1.5" style="stroke:#C6A0F6;stroke-width:2.0;" width="180.0469" x="31.98" y="251"/><rect fill="#363A4F" height="30" rx="1.5" ry="1.5" style="stroke:#363A4F;stroke-width:2.0;" width="180.0469" x="31.98" y="251"/><rect fill="#363A4F" height="1.5" style="stroke:#363A4F;stroke-width:2.0;" width="180.0469" x="31.98" y="279.5"/><rect codeLine="11" fill="none" height="46" id="Applicative" rx="1.5" ry="1.5" style="stroke:#C6A0F6;stroke-width:2.0;" width="180.0469" x="31.98" y="251"/><ellipse cx="45.98" cy="266" fill="#B4A7E5" rx="10" ry="10" style="stroke:#181818;stroke-width:1.0;"/><path d="M42.9878,263.2754 L42.9878,261.752 L48.1968,261.752 L48.1968,263.2754 L46.4566,263.2754 L46.4566,268.9766 L48.1968,268.9766 L48.1968,270.5 L42.9878,270.5 L42.9878,268.9766 L44.728,268.9766 L44.728,263.2754 Z " fill="#CAD3F5"/><text fill="#A6DA95" font-family="Helvetica" font-size="16" font-style="italic" lengthAdjust="spacing" textLength="77.375" x="58.98" y="270.3203">Applicative</text><rect fill="#24273A" height="14" style="stroke:#C6A0F6;stroke-width:1.0;stroke-dasharray:2.0,2.0;" width="70.6719" x="144.355" y="248"/><text fill="#CAD3F5" font-family="Helvetica" font-size="12" font-style="italic" lengthAdjust="spacing" textLength="68.6719" x="145.355" y="258.2402">F_WITNESS</text><line style="stroke:#C6A0F6;stroke-width:2.0;" x1="32.98" x2="211.0269" y1="281" y2="281"/><line style="stroke:#C6A0F6;stroke-width:2.0;" x1="32.98" x2="211.0269" y1="289" y2="289"/></g><!--class Monad--><g id="elem_Monad"><rect codeLine="13" fill="#24273A" height="46" id="Monad" rx="1.5" ry="1.5" style="stroke:#C6A0F6;stroke-width:2.0;" width="151.5938" x="46.2" y="144"/><rect fill="#363A4F" height="30" rx="1.5" ry="1.5" style="stroke:#363A4F;stroke-width:2.0;" width="151.5938" x="46.2" y="144"/><rect fill="#363A4F" height="1.5" style="stroke:#363A4F;stroke-width:2.0;" width="151.5938" x="46.2" y="172.5"/><rect codeLine="13" fill="none" height="46" id="Monad" rx="1.5" ry="1.5" style="stroke:#C6A0F6;stroke-width:2.0;" width="151.5938" x="46.2" y="144"/><ellipse cx="60.2" cy="159" fill="#B4A7E5" rx="10" ry="10" style="stroke:#181818;stroke-width:1.0;"/><path d="M57.2078,156.2754 L57.2078,154.752 L62.4168,154.752 L62.4168,156.2754 L60.6766,156.2754 L60.6766,161.9766 L62.4168,161.9766 L62.4168,163.5 L57.2078,163.5 L57.2078,161.9766 L58.948,161.9766 L58.948,156.2754 Z " fill="#CAD3F5"/><text fill="#A6DA95" font-family="Helvetica" font-size="16" font-style="italic" lengthAdjust="spacing" textLength="48.9219" x="73.2" y="163.3203">Monad</text><rect fill="#24273A" height="14" style="stroke:#C6A0F6;stroke-width:1.0;stroke-dasharray:2.0,2.0;" width="70.6719" x="130.1219" y="141"/><text fill="#CAD3F5" font-family="Helvetica" font-size="12" font-style="italic" lengthAdjust="spacing" textLength="68.6719" x="131.1219" y="151.2402">F_WITNESS</text><line style="stroke:#C6A0F6;stroke-width:2.0;" x1="47.2" x2="196.7938" y1="174" y2="174"/><line style="stroke:#C6A0F6;stroke-width:2.0;" x1="47.2" x2="196.7938" y1="182" y2="182"/></g><!--class MonadError--><g id="elem_MonadError"><rect codeLine="14" fill="#24273A" height="46" id="MonadError" rx="1.5" ry="1.5" style="stroke:#C6A0F6;stroke-width:2.0;" width="201.8203" x="22.09" y="37"/><rect fill="#363A4F" height="30" rx="1.5" ry="1.5" style="stroke:#363A4F;stroke-width:2.0;" width="201.8203" x="22.09" y="37"/><rect fill="#363A4F" height="1.5" style="stroke:#363A4F;stroke-width:2.0;" width="201.8203" x="22.09" y="65.5"/><rect codeLine="14" fill="none" height="46" id="MonadError" rx="1.5" ry="1.5" style="stroke:#C6A0F6;stroke-width:2.0;" width="201.8203" x="22.09" y="37"/><ellipse cx="36.09" cy="52" fill="#B4A7E5" rx="10" ry="10" style="stroke:#181818;stroke-width:1.0;"/><path d="M33.0978,49.2754 L33.0978,47.752 L38.3068,47.752 L38.3068,49.2754 L36.5666,49.2754 L36.5666,54.9766 L38.3068,54.9766 L38.3068,56.5 L33.0978,56.5 L33.0978,54.9766 L34.838,54.9766 L34.838,49.2754 Z " fill="#CAD3F5"/><text fill="#A6DA95" font-family="Helvetica" font-size="16" font-style="italic" lengthAdjust="spacing" textLength="84.4766" x="49.09" y="56.3203">MonadError</text><rect fill="#24273A" height="14" style="stroke:#C6A0F6;stroke-width:1.0;stroke-dasharray:2.0,2.0;" width="85.3438" x="141.5666" y="34"/><text fill="#CAD3F5" font-family="Helvetica" font-size="12" font-style="italic" lengthAdjust="spacing" textLength="83.3438" x="142.5666" y="44.2402">F_WITNESS, E</text><line style="stroke:#C6A0F6;stroke-width:2.0;" x1="23.09" x2="222.9103" y1="67" y2="67"/><line style="stroke:#C6A0F6;stroke-width:2.0;" x1="23.09" x2="222.9103" y1="75" y2="75"/></g><!--class Monoid--><g id="elem_Monoid"><rect codeLine="16" fill="#24273A" height="46" id="Monoid" rx="1.5" ry="1.5" style="stroke:#C6A0F6;stroke-width:2.0;" width="94.4805" x="258.76" y="37"/><rect fill="#363A4F" height="30" rx="1.5" ry="1.5" style="stroke:#363A4F;stroke-width:2.0;" width="94.4805" x="258.76" y="37"/><rect fill="#363A4F" height="1.5" style="stroke:#363A4F;stroke-width:2.0;" width="94.4805" x="258.76" y="65.5"/><rect codeLine="16" fill="none" height="46" id="Monoid" rx="1.5" ry="1.5" style="stroke:#C6A0F6;stroke-width:2.0;" width="94.4805" x="258.76" y="37"/><ellipse cx="272.76" cy="52" fill="#B4A7E5" rx="10" ry="10" style="stroke:#181818;stroke-width:1.0;"/><path d="M269.7678,49.2754 L269.7678,47.752 L274.9768,47.752 L274.9768,49.2754 L273.2366,49.2754 L273.2366,54.9766 L274.9768,54.9766 L274.9768,56.5 L269.7678,56.5 L269.7678,54.9766 L271.508,54.9766 L271.508,49.2754 Z " fill="#CAD3F5"/><text fill="#A6DA95" font-family="Helvetica" font-size="16" font-style="italic" lengthAdjust="spacing" textLength="52.4766" x="285.76" y="56.3203">Monoid</text><rect fill="#24273A" height="14" style="stroke:#C6A0F6;stroke-width:1.0;stroke-dasharray:2.0,2.0;" width="10.0039" x="346.2366" y="34"/><text fill="#CAD3F5" font-family="Helvetica" font-size="12" font-style="italic" lengthAdjust="spacing" textLength="8.0039" x="347.2366" y="44.2402">A</text><line style="stroke:#C6A0F6;stroke-width:2.0;" x1="259.76" x2="352.2405" y1="67" y2="67"/><line style="stroke:#C6A0F6;stroke-width:2.0;" x1="259.76" x2="352.2405" y1="75" y2="75"/></g><!--class Traverse--><g id="elem_Traverse"><rect codeLine="18" fill="#24273A" height="46" id="Traverse" rx="1.5" ry="1.5" style="stroke:#C6A0F6;stroke-width:2.0;" width="105.1289" x="247.44" y="251"/><rect fill="#363A4F" height="30" rx="1.5" ry="1.5" style="stroke:#363A4F;stroke-width:2.0;" width="105.1289" x="247.44" y="251"/><rect fill="#363A4F" height="1.5" style="stroke:#363A4F;stroke-width:2.0;" width="105.1289" x="247.44" y="279.5"/><rect codeLine="18" fill="none" height="46" id="Traverse" rx="1.5" ry="1.5" style="stroke:#C6A0F6;stroke-width:2.0;" width="105.1289" x="247.44" y="251"/><ellipse cx="261.44" cy="266" fill="#B4A7E5" rx="10" ry="10" style="stroke:#181818;stroke-width:1.0;"/><path d="M258.4478,263.2754 L258.4478,261.752 L263.6568,261.752 L263.6568,263.2754 L261.9166,263.2754 L261.9166,268.9766 L263.6568,268.9766 L263.6568,270.5 L258.4478,270.5 L258.4478,268.9766 L260.188,268.9766 L260.188,263.2754 Z " fill="#CAD3F5"/><text fill="#A6DA95" font-family="Helvetica" font-size="16" font-style="italic" lengthAdjust="spacing" textLength="63.125" x="274.44" y="270.3203">Traverse</text><rect fill="#24273A" height="14" style="stroke:#C6A0F6;stroke-width:1.0;stroke-dasharray:2.0,2.0;" width="10.0039" x="345.565" y="248"/><text fill="#CAD3F5" font-family="Helvetica" font-size="12" font-style="italic" lengthAdjust="spacing" textLength="8.0039" x="346.565" y="258.2402">A</text><line style="stroke:#C6A0F6;stroke-width:2.0;" x1="248.44" x2="351.5689" y1="281" y2="281"/><line style="stroke:#C6A0F6;stroke-width:2.0;" x1="248.44" x2="351.5689" y1="289" y2="289"/></g><!--link Functor to Kind--><g id="link_Functor_Kind"><path codeLine="20" d="M211,404.47 C211,425.47 211,450.64 211,471.61 " fill="none" id="Functor-to-Kind" style="stroke:#F5BDE6;stroke-width:1.0;stroke-dasharray:7.0,7.0;"/><polygon fill="#F5BDE6" points="211,477.61,215,468.61,211,472.61,207,468.61,211,477.61" style="stroke:#F5BDE6;stroke-width:1.0;"/><text fill="#CAD3F5" font-family="Helvetica" font-size="12" lengthAdjust="spacing" textLength="71.373" x="212" y="444.2402">(operates on)</text></g><!--link Applicative to Functor--><g id="link_Applicative_Functor"><path codeLine="21" d="M140.87,297.27 C155.98,315.09 165.4241,326.2167 180.5141,344.0267 " fill="none" id="Applicative-to-Functor" style="stroke:#F5BDE6;stroke-width:1.0;"/><polygon fill="none" points="192.15,357.76,185.0918,340.148,175.9363,347.9053,192.15,357.76" style="stroke:#F5BDE6;stroke-width:1.0;"/></g><!--link Monad to Applicative--><g id="link_Monad_Applicative"><path codeLine="22" d="M122,190.27 C122,208.09 122,214.95 122,232.76 " fill="none" id="Monad-to-Applicative" style="stroke:#F5BDE6;stroke-width:1.0;"/><polygon fill="none" points="122,250.76,128,232.76,116,232.76,122,250.76" style="stroke:#F5BDE6;stroke-width:1.0;"/></g><!--link MonadError to Monad--><g id="link_MonadError_Monad"><path codeLine="23" d="M122.79,83.27 C122.62,101.09 122.5518,107.9508 122.3818,125.7608 " fill="none" id="MonadError-to-Monad" style="stroke:#F5BDE6;stroke-width:1.0;"/><polygon fill="none" points="122.21,143.76,128.3815,125.8181,116.3821,125.7036,122.21,143.76" style="stroke:#F5BDE6;stroke-width:1.0;"/></g><!--link Traverse to Functor--><g id="link_Traverse_Functor"><path codeLine="24" d="M281.13,297.27 C266.02,315.09 256.5759,326.2167 241.4859,344.0267 " fill="none" id="Traverse-to-Functor" style="stroke:#F5BDE6;stroke-width:1.0;"/><polygon fill="none" points="229.85,357.76,246.0637,347.9053,236.9082,340.148,229.85,357.76" style="stroke:#F5BDE6;stroke-width:1.0;"/></g><!--SRC=[RP7DRi8m48JlUOejbrA9E7U4a284QeNQ2v7ehTewMs8riItReQeexrx78I7yv6JlpEUTtJm8oSiw9oYSqtQQ90P_s4wuelwiBHckf2Ff65TL8hco3cF14uvEwvfp8UCAEIy4EXNh4gMhgp9s1LMKL2Xa4evC-seKHHhvD-u8Hi_h31RA4CIG_Mg2HOdMaXt18GB_2T_IV27tphMG-MpriNt9tfQRpGJI-GZGGbC-cG4UeJU0iE1RWYvy55M1QruV4zkn2Rmt4DiA9ydQfvvDEsQFPKs12DhnEiggbjmfSqxJHZcLuN03f5gNmczAxEaQ6aYdCMxeLoKnl-P2yKwhK5yQCumtWUK02c93ta6Lo6Tfx_MttZSqPWRtP2nrrkxUcxjDC3PlVz0KnagJGKSMb6nNFfmyZl_c7HN4ThnG7lZEKZj4qCCzA7sEY-UYoASw_WC0]--></g></svg>