<svg xmlns="http://www.w3.org/2000/svg" xmlns:xlink="http://www.w3.org/1999/xlink" contentStyleType="text/css" height="628px" preserveAspectRatio="none" style="width:735px;height:628px;background:#24273A;" version="1.1" viewBox="0 0 735 628" width="735px" zoomAndPan="magnify"><defs/><g><rect fill="#24273A" height="628" style="stroke:none;stroke-width:1.0;" width="735" x="0" y="0"/><!--cluster Defunctionalisation Pattern For External Types (Optional, CompletableFuture etc)--><g id="cluster_Defunctionalisation Pattern For External Types (Optional, CompletableFuture etc)"><path d="M7.5,6 L474.5625,6 A2.25,2.25 0 0 1 476.0625,7.5 L483.0625,24 L726.5,24 A1.5,1.5 0 0 1 728,25.5 L728,619.5 A1.5,1.5 0 0 1 726.5,621 L7.5,621 A1.5,1.5 0 0 1 6,619.5 L6,7.5 A1.5,1.5 0 0 1 7.5,6 " fill="#24273A" style="stroke:#CAD3F5;stroke-width:1.5;"/><line style="stroke:#CAD3F5;stroke-width:1.5;" x1="6" x2="483.0625" y1="24" y2="24"/><text fill="#CAD3F5" font-family="Helvetica" font-size="12" font-weight="bold" lengthAdjust="spacing" textLength="464.0625" x="10" y="17.2402">Defunctionalisation Pattern For External Types (Optional, CompletableFuture etc)</text></g><!--cluster internal--><g id="cluster_internal"><path d="M31.5,262 L77.8418,262 A2.25,2.25 0 0 1 79.3418,263.5 L86.3418,280 L308.5,280 A1.5,1.5 0 0 1 310,281.5 L310,497.5 A1.5,1.5 0 0 1 308.5,499 L31.5,499 A1.5,1.5 0 0 1 30,497.5 L30,263.5 A1.5,1.5 0 0 1 31.5,262 " fill="#24273A" style="stroke:#CAD3F5;stroke-width:1.5;"/><line style="stroke:#CAD3F5;stroke-width:1.5;" x1="30" x2="86.3418" y1="280" y2="280"/><text fill="#CAD3F5" font-family="Helvetica" font-size="12" font-weight="bold" lengthAdjust="spacing" textLength="43.3418" x="34" y="273.2402">internal</text></g><!--class OptionalKindInterface--><g id="elem_OptionalKindInterface"><rect codeLine="8" fill="#24273A" height="58" id="OptionalKindInterface" rx="1.5" ry="1.5" style="stroke:#C6A0F6;stroke-width:2.0;" width="265.7344" x="86.13" y="144"/><rect fill="#363A4F" height="30" rx="1.5" ry="1.5" style="stroke:#363A4F;stroke-width:2.0;" width="265.7344" x="86.13" y="144"/><rect fill="#363A4F" height="1.5" style="stroke:#363A4F;stroke-width:2.0;" width="265.7344" x="86.13" y="172.5"/><rect codeLine="8" fill="none" height="58" id="OptionalKindInterface" rx="1.5" ry="1.5" style="stroke:#C6A0F6;stroke-width:2.0;" width="265.7344" x="86.13" y="144"/><ellipse cx="163.1866" cy="159" fill="#B4A7E5" rx="10" ry="10" style="stroke:#181818;stroke-width:1.0;"/><path d="M160.1945,156.2754 L160.1945,154.752 L165.4034,154.752 L165.4034,156.2754 L163.6632,156.2754 L163.6632,161.9766 L165.4034,161.9766 L165.4034,163.5 L160.1945,163.5 L160.1945,161.9766 L161.9347,161.9766 L161.9347,156.2754 Z " fill="#CAD3F5"/><text fill="#A6DA95" font-family="Helvetica" font-size="16" font-style="italic" lengthAdjust="spacing" textLength="91.6172" x="182.1866" y="163.3203">OptionalKind</text><rect fill="#24273A" height="14" style="stroke:#C6A0F6;stroke-width:1.0;stroke-dasharray:2.0,2.0;" width="10.0039" x="344.8605" y="141"/><text fill="#CAD3F5" font-family="Helvetica" font-size="12" font-style="italic" lengthAdjust="spacing" textLength="8.0039" x="345.8605" y="151.2402">A</text><line style="stroke:#C6A0F6;stroke-width:2.0;" x1="87.13" x2="350.8644" y1="174" y2="174"/><text fill="#A6DA95" font-family="Helvetica" font-size="12" lengthAdjust="spacing" textLength="253.7344" x="92.13" y="187.2402">class Witness {} ' Nested phantom Witness type</text><line style="stroke:#C6A0F6;stroke-width:2.0;" x1="87.13" x2="350.8644" y1="194" y2="194"/></g><!--class Kind--><g id="elem_Kind"><rect fill="#24273A" height="46" id="Kind" rx="1.5" ry="1.5" style="stroke:#C6A0F6;stroke-width:2.0;" width="62.0234" x="187.99" y="37"/><rect fill="#363A4F" height="30" rx="1.5" ry="1.5" style="stroke:#363A4F;stroke-width:2.0;" width="62.0234" x="187.99" y="37"/><rect fill="#363A4F" height="1.5" style="stroke:#363A4F;stroke-width:2.0;" width="62.0234" x="187.99" y="65.5"/><rect fill="none" height="46" id="Kind" rx="1.5" ry="1.5" style="stroke:#C6A0F6;stroke-width:2.0;" width="62.0234" x="187.99" y="37"/><ellipse cx="201.99" cy="52" fill="#B4A7E5" rx="10" ry="10" style="stroke:#181818;stroke-width:1.0;"/><path d="M198.9978,49.2754 L198.9978,47.752 L204.2068,47.752 L204.2068,49.2754 L202.4666,49.2754 L202.4666,54.9766 L204.2068,54.9766 L204.2068,56.5 L198.9978,56.5 L198.9978,54.9766 L200.738,54.9766 L200.738,49.2754 Z " fill="#CAD3F5"/><text fill="#A6DA95" font-family="Helvetica" font-size="16" font-style="italic" lengthAdjust="spacing" textLength="32.0234" x="214.99" y="56.3203">Kind</text><line style="stroke:#C6A0F6;stroke-width:2.0;" x1="188.99" x2="249.0134" y1="67" y2="67"/><line style="stroke:#C6A0F6;stroke-width:2.0;" x1="188.99" x2="249.0134" y1="75" y2="75"/></g><!--class JavaOptional--><g id="elem_JavaOptional"><rect codeLine="11" fill="#24273A" height="46" id="JavaOptional" rx="1.5" ry="1.5" style="stroke:#C6A0F6;stroke-width:2.0;" width="160.293" x="283.85" y="559"/><rect fill="#363A4F" height="30" rx="1.5" ry="1.5" style="stroke:#363A4F;stroke-width:2.0;" width="160.293" x="283.85" y="559"/><rect fill="#363A4F" height="1.5" style="stroke:#363A4F;stroke-width:2.0;" width="160.293" x="283.85" y="587.5"/><rect codeLine="11" fill="none" height="46" id="JavaOptional" rx="1.5" ry="1.5" style="stroke:#C6A0F6;stroke-width:2.0;" width="160.293" x="283.85" y="559"/><ellipse cx="297.85" cy="574" fill="#ADD1B2" rx="10" ry="10" style="stroke:#181818;stroke-width:1.0;"/><path d="M299.684,578.248 Q299.2738,578.459 298.8227,578.5645 Q298.3715,578.6699 297.8734,578.6699 Q296.1039,578.6699 295.1723,577.5039 Q294.2406,576.3379 294.2406,574.1348 Q294.2406,571.9258 295.1723,570.7598 Q296.1039,569.5938 297.8734,569.5938 Q298.3715,569.5938 298.8285,569.6992 Q299.2855,569.8047 299.684,570.0156 L299.684,571.9375 Q299.2387,571.5273 298.8197,571.3369 Q298.4008,571.1465 297.9555,571.1465 Q297.0063,571.1465 296.5229,571.8994 Q296.0395,572.6523 296.0395,574.1348 Q296.0395,575.6113 296.5229,576.3643 Q297.0063,577.1172 297.9555,577.1172 Q298.4008,577.1172 298.8197,576.9268 Q299.2387,576.7363 299.684,576.3262 Z " fill="#CAD3F5"/><text fill="#A6DA95" font-family="Helvetica" font-size="16" lengthAdjust="spacing" textLength="118.2891" x="310.85" y="578.3203">java.util.Optional</text><rect fill="#24273A" height="14" style="stroke:#C6A0F6;stroke-width:1.0;stroke-dasharray:2.0,2.0;" width="10.0039" x="437.1391" y="556"/><text fill="#CAD3F5" font-family="Helvetica" font-size="12" font-style="italic" lengthAdjust="spacing" textLength="8.0039" x="438.1391" y="566.2402">A</text><line style="stroke:#C6A0F6;stroke-width:2.0;" x1="284.85" x2="443.143" y1="589" y2="589"/><line style="stroke:#C6A0F6;stroke-width:2.0;" x1="284.85" x2="443.143" y1="597" y2="597"/></g><!--class OptionalKindHelper--><g id="elem_OptionalKindHelper"><rect codeLine="23" fill="#24273A" height="70" id="OptionalKindHelper" rx="1.5" ry="1.5" style="stroke:#C6A0F6;stroke-width:2.0;" width="385.8613" x="326.07" y="281"/><rect fill="#363A4F" height="30" rx="1.5" ry="1.5" style="stroke:#363A4F;stroke-width:2.0;" width="385.8613" x="326.07" y="281"/><rect fill="#363A4F" height="1.5" style="stroke:#363A4F;stroke-width:2.0;" width="385.8613" x="326.07" y="309.5"/><rect codeLine="23" fill="none" height="70" id="OptionalKindHelper" rx="1.5" ry="1.5" style="stroke:#C6A0F6;stroke-width:2.0;" width="385.8613" x="326.07" y="281"/><ellipse cx="445.6257" cy="296" fill="#ADD1B2" rx="10" ry="10" style="stroke:#181818;stroke-width:1.0;"/><path d="M447.4596,300.248 Q447.0495,300.459 446.5983,300.5645 Q446.1471,300.6699 445.6491,300.6699 Q443.8796,300.6699 442.9479,299.5039 Q442.0163,298.3379 442.0163,296.1348 Q442.0163,293.9258 442.9479,292.7598 Q443.8796,291.5938 445.6491,291.5938 Q446.1471,291.5938 446.6042,291.6992 Q447.0612,291.8047 447.4596,292.0156 L447.4596,293.9375 Q447.0143,293.5273 446.5954,293.3369 Q446.1764,293.1465 445.7311,293.1465 Q444.7819,293.1465 444.2985,293.8994 Q443.8151,294.6523 443.8151,296.1348 Q443.8151,297.6113 444.2985,298.3643 Q444.7819,299.1172 445.7311,299.1172 Q446.1764,299.1172 446.5954,298.9268 Q447.0143,298.7363 447.4596,298.3262 Z " fill="#CAD3F5"/><text fill="#A6DA95" font-family="Helvetica" font-size="16" lengthAdjust="spacing" textLength="138.75" x="464.6257" y="300.3203">OptionalKindHelper</text><line style="stroke:#C6A0F6;stroke-width:2.0;" x1="327.07" x2="710.9313" y1="311" y2="311"/><line style="stroke:#C6A0F6;stroke-width:2.0;" x1="327.07" x2="710.9313" y1="319" y2="319"/><ellipse cx="337.07" cy="330.5" fill="#84BE84" rx="3" ry="3" style="stroke:#038048;stroke-width:1.0;"/><text fill="#A6DA95" font-family="Helvetica" font-size="12" lengthAdjust="spacing" text-decoration="underline" textLength="342.1816" x="345.07" y="332.2402">wrap(opt: java.util.Optional&lt;A&gt;): Kind&lt;OptionalKind.Witness, A&gt;</text><ellipse cx="337.07" cy="342.5" fill="#84BE84" rx="3" ry="3" style="stroke:#038048;stroke-width:1.0;"/><text fill="#A6DA95" font-family="Helvetica" font-size="12" lengthAdjust="spacing" text-decoration="underline" textLength="360.8613" x="345.07" y="344.2402">unwrap(kind: Kind&lt;OptionalKind.Witness, A&gt;): java.util.Optional&lt;A&gt;</text></g><!--class OptionalMonad--><g id="elem_OptionalMonad"><rect codeLine="27" fill="#24273A" height="46" id="OptionalMonad" rx="1.5" ry="1.5" style="stroke:#C6A0F6;stroke-width:2.0;" width="138.5156" x="449.74" y="150"/><rect fill="#363A4F" height="30" rx="1.5" ry="1.5" style="stroke:#363A4F;stroke-width:2.0;" width="138.5156" x="449.74" y="150"/><rect fill="#363A4F" height="1.5" style="stroke:#363A4F;stroke-width:2.0;" width="138.5156" x="449.74" y="178.5"/><rect codeLine="27" fill="none" height="46" id="OptionalMonad" rx="1.5" ry="1.5" style="stroke:#C6A0F6;stroke-width:2.0;" width="138.5156" x="449.74" y="150"/><ellipse cx="463.74" cy="165" fill="#ADD1B2" rx="10" ry="10" style="stroke:#181818;stroke-width:1.0;"/><path d="M465.574,169.248 Q465.1638,169.459 464.7127,169.5645 Q464.2615,169.6699 463.7634,169.6699 Q461.9939,169.6699 461.0623,168.5039 Q460.1306,167.3379 460.1306,165.1348 Q460.1306,162.9258 461.0623,161.7598 Q461.9939,160.5938 463.7634,160.5938 Q464.2615,160.5938 464.7185,160.6992 Q465.1755,160.8047 465.574,161.0156 L465.574,162.9375 Q465.1287,162.5273 464.7097,162.3369 Q464.2908,162.1465 463.8455,162.1465 Q462.8963,162.1465 462.4129,162.8994 Q461.9295,163.6523 461.9295,165.1348 Q461.9295,166.6113 462.4129,167.3643 Q462.8963,168.1172 463.8455,168.1172 Q464.2908,168.1172 464.7097,167.9268 Q465.1287,167.7363 465.574,167.3262 Z " fill="#CAD3F5"/><text fill="#A6DA95" font-family="Helvetica" font-size="16" lengthAdjust="spacing" textLength="108.5156" x="476.74" y="169.3203">OptionalMonad</text><line style="stroke:#C6A0F6;stroke-width:2.0;" x1="450.74" x2="587.2556" y1="180" y2="180"/><line style="stroke:#C6A0F6;stroke-width:2.0;" x1="450.74" x2="587.2556" y1="188" y2="188"/></g><!--class MonadError--><g id="elem_MonadError"><rect fill="#24273A" height="46" id="MonadError" rx="1.5" ry="1.5" style="stroke:#C6A0F6;stroke-width:2.0;" width="114.4766" x="461.76" y="37"/><rect fill="#363A4F" height="30" rx="1.5" ry="1.5" style="stroke:#363A4F;stroke-width:2.0;" width="114.4766" x="461.76" y="37"/><rect fill="#363A4F" height="1.5" style="stroke:#363A4F;stroke-width:2.0;" width="114.4766" x="461.76" y="65.5"/><rect fill="none" height="46" id="MonadError" rx="1.5" ry="1.5" style="stroke:#C6A0F6;stroke-width:2.0;" width="114.4766" x="461.76" y="37"/><ellipse cx="475.76" cy="52" fill="#B4A7E5" rx="10" ry="10" style="stroke:#181818;stroke-width:1.0;"/><path d="M472.7678,49.2754 L472.7678,47.752 L477.9768,47.752 L477.9768,49.2754 L476.2366,49.2754 L476.2366,54.9766 L477.9768,54.9766 L477.9768,56.5 L472.7678,56.5 L472.7678,54.9766 L474.508,54.9766 L474.508,49.2754 Z " fill="#CAD3F5"/><text fill="#A6DA95" font-family="Helvetica" font-size="16" font-style="italic" lengthAdjust="spacing" textLength="84.4766" x="488.76" y="56.3203">MonadError</text><line style="stroke:#C6A0F6;stroke-width:2.0;" x1="462.76" x2="575.2366" y1="67" y2="67"/><line style="stroke:#C6A0F6;stroke-width:2.0;" x1="462.76" x2="575.2366" y1="75" y2="75"/></g><!--class OptionalHolder--><g id="elem_OptionalHolder"><rect codeLine="15" fill="#24273A" height="58" id="OptionalHolder" rx="1.5" ry="1.5" style="stroke:#C6A0F6;stroke-width:2.0;" width="247.123" x="46.44" y="425"/><rect fill="#363A4F" height="30" rx="1.5" ry="1.5" style="stroke:#363A4F;stroke-width:2.0;" width="247.123" x="46.44" y="425"/><rect fill="#363A4F" height="1.5" style="stroke:#363A4F;stroke-width:2.0;" width="247.123" x="46.44" y="453.5"/><rect codeLine="15" fill="none" height="58" id="OptionalHolder" rx="1.5" ry="1.5" style="stroke:#C6A0F6;stroke-width:2.0;" width="247.123" x="46.44" y="425"/><ellipse cx="106.6363" cy="440" fill="#ADD1B2" rx="10" ry="10" style="stroke:#181818;stroke-width:1.0;"/><path d="M108.4703,444.248 Q108.0601,444.459 107.6089,444.5645 Q107.1578,444.6699 106.6597,444.6699 Q104.8902,444.6699 103.9586,443.5039 Q103.0269,442.3379 103.0269,440.1348 Q103.0269,437.9258 103.9586,436.7598 Q104.8902,435.5938 106.6597,435.5938 Q107.1578,435.5938 107.6148,435.6992 Q108.0718,435.8047 108.4703,436.0156 L108.4703,437.9375 Q108.025,437.5273 107.606,437.3369 Q107.1871,437.1465 106.7418,437.1465 Q105.7925,437.1465 105.3091,437.8994 Q104.8257,438.6523 104.8257,440.1348 Q104.8257,441.6113 105.3091,442.3643 Q105.7925,443.1172 106.7418,443.1172 Q107.1871,443.1172 107.606,442.9268 Q108.025,442.7363 108.4703,442.3262 Z " fill="#CAD3F5"/><text fill="#A6DA95" font-family="Helvetica" font-size="16" lengthAdjust="spacing" textLength="106.7266" x="125.6363" y="444.3203">OptionalHolder</text><rect fill="#24273A" height="14" style="stroke:#C6A0F6;stroke-width:1.0;stroke-dasharray:2.0,2.0;" width="10.0039" x="286.5591" y="422"/><text fill="#CAD3F5" font-family="Helvetica" font-size="12" font-style="italic" lengthAdjust="spacing" textLength="8.0039" x="287.5591" y="432.2402">A</text><line style="stroke:#C6A0F6;stroke-width:2.0;" x1="47.44" x2="292.563" y1="455" y2="455"/><line style="stroke:#C6A0F6;stroke-width:2.0;" x1="47.44" x2="292.563" y1="463" y2="463"/><ellipse cx="57.44" cy="474.5" fill="#84BE84" rx="3" ry="3" style="stroke:#038048;stroke-width:1.0;"/><text fill="#A6DA95" font-family="Helvetica" font-size="12" lengthAdjust="spacing" textLength="222.123" x="65.44" y="476.2402">OptionalHolder(opt: java.util.Optional&lt;A&gt;)</text></g><!--class OptionalKindInterface--><g id="elem_OptionalKindInterface"><rect fill="#24273A" height="46" id="OptionalKindInterface" rx="1.5" ry="1.5" style="stroke:#C6A0F6;stroke-width:2.0;" width="183.875" x="78.06" y="293"/><rect fill="#363A4F" height="30" rx="1.5" ry="1.5" style="stroke:#363A4F;stroke-width:2.0;" width="183.875" x="78.06" y="293"/><rect fill="#363A4F" height="1.5" style="stroke:#363A4F;stroke-width:2.0;" width="183.875" x="78.06" y="321.5"/><rect fill="none" height="46" id="OptionalKindInterface" rx="1.5" ry="1.5" style="stroke:#C6A0F6;stroke-width:2.0;" width="183.875" x="78.06" y="293"/><ellipse cx="92.06" cy="308" fill="#B4A7E5" rx="10" ry="10" style="stroke:#181818;stroke-width:1.0;"/><path d="M89.0678,305.2754 L89.0678,303.752 L94.2768,303.752 L94.2768,305.2754 L92.5366,305.2754 L92.5366,310.9766 L94.2768,310.9766 L94.2768,312.5 L89.0678,312.5 L89.0678,310.9766 L90.808,310.9766 L90.808,305.2754 Z " fill="#CAD3F5"/><text fill="#A6DA95" font-family="Helvetica" font-size="16" font-style="italic" lengthAdjust="spacing" textLength="153.875" x="105.06" y="312.3203">OptionalKindInterface</text><line style="stroke:#C6A0F6;stroke-width:2.0;" x1="79.06" x2="260.935" y1="323" y2="323"/><line style="stroke:#C6A0F6;stroke-width:2.0;" x1="79.06" x2="260.935" y1="331" y2="331"/></g><!--reverse link Kind to OptionalKindInterface--><g id="link_Kind_OptionalKindInterface"><path d="M219,101.46 C219,118.82 219,124.96 219,143.64 " fill="none" id="Kind-backto-OptionalKindInterface" style="stroke:#F5BDE6;stroke-width:1.0;"/><polygon fill="none" points="219,83.46,213,101.46,225,101.46,219,83.46" style="stroke:#F5BDE6;stroke-width:1.0;"/></g><!--reverse link OptionalKindInterface to OptionalHolder--><g id="link_OptionalKindInterface_OptionalHolder"><path d="M170,357.46 C170,380.85 170,399.54 170,424.85 " fill="none" id="OptionalKindInterface-backto-OptionalHolder" style="stroke:#F5BDE6;stroke-width:1.0;stroke-dasharray:7.0,7.0;"/><polygon fill="none" points="170,339.46,164,357.46,176,357.46,170,339.46" style="stroke:#F5BDE6;stroke-width:1.0;"/></g><!--link OptionalKindHelper to OptionalHolder--><g id="link_OptionalKindHelper_OptionalHolder"><path codeLine="19" d="M430.48,351.49 C372.52,374.08 303.2905,401.0614 248.7105,422.3314 " fill="none" id="OptionalKindHelper-to-OptionalHolder" style="stroke:#F5BDE6;stroke-width:1.0;stroke-dasharray:7.0,7.0;"/><polygon fill="#F5BDE6" points="243.12,424.51,252.9582,424.969,247.7787,422.6945,250.0533,417.5151,243.12,424.51" style="stroke:#F5BDE6;stroke-width:1.0;"/><text fill="#CAD3F5" font-family="Helvetica" font-size="12" lengthAdjust="spacing" textLength="74.7012" x="345.5" y="391.2402">creates / uses</text></g><!--link OptionalKindHelper to JavaOptional--><g id="link_OptionalKindHelper_JavaOptional"><path codeLine="20" d="M498.9,351.24 C466.62,406.21 407.1783,507.4662 380.0883,553.5962 " fill="none" id="OptionalKindHelper-to-JavaOptional" style="stroke:#F5BDE6;stroke-width:1.0;stroke-dasharray:7.0,7.0;"/><polygon fill="#F5BDE6" points="377.05,558.77,385.0567,553.0348,379.582,554.4585,378.1583,548.9837,377.05,558.77" style="stroke:#F5BDE6;stroke-width:1.0;"/><text fill="#CAD3F5" font-family="Helvetica" font-size="12" lengthAdjust="spacing" textLength="87.3691" x="455.36" y="457.2402">wraps / unwraps</text></g><!--link OptionalHolder to JavaOptional--><g id="link_OptionalHolder_JavaOptional"><path codeLine="21" d="M213.54,483.28 C248.62,506.06 292.2281,534.3819 324.6081,555.4119 " fill="none" id="OptionalHolder-to-JavaOptional" style="stroke:#F5BDE6;stroke-width:1.0;stroke-dasharray:7.0,7.0;"/><polygon fill="#F5BDE6" points="329.64,558.68,324.2709,550.4233,325.4468,555.9566,319.9135,557.1325,329.64,558.68" style="stroke:#F5BDE6;stroke-width:1.0;"/><text fill="#CAD3F5" font-family="Helvetica" font-size="12" lengthAdjust="spacing" textLength="28.6875" x="279.62" y="525.2402">holds</text></g><!--reverse link MonadError to OptionalMonad--><g id="link_MonadError_OptionalMonad"><path d="M519,101.46 C519,120.72 519,130.32 519,149.57 " fill="none" id="MonadError-backto-OptionalMonad" style="stroke:#F5BDE6;stroke-width:1.0;stroke-dasharray:7.0,7.0;"/><polygon fill="none" points="519,83.46,513,101.46,525,101.46,519,83.46" style="stroke:#F5BDE6;stroke-width:1.0;"/></g><!--link OptionalMonad to OptionalKindHelper--><g id="link_OptionalMonad_OptionalKindHelper"><path codeLine="30" d="M519,196.34 C519,219.02 519,248.42 519,274.66 " fill="none" id="OptionalMonad-to-OptionalKindHelper" style="stroke:#F5BDE6;stroke-width:1.0;stroke-dasharray:7.0,7.0;"/><polygon fill="#F5BDE6" points="519,280.66,523,271.66,519,275.66,515,271.66,519,280.66" style="stroke:#F5BDE6;stroke-width:1.0;"/><text fill="#CAD3F5" font-family="Helvetica" font-size="12" lengthAdjust="spacing" textLength="25.3477" x="520" y="242.2402">uses</text></g><!--SRC=[XLHDRzim3BtxLt2-944R-nuC0OgjHRTX7uTjFRCo4skL9K6Yrmr1_ljeEqxiVCq7Go3v-CYdPx_HLfcw82YPVLpaUS3NRAsvh9_hI44vosGvKwxAhNAHSQvLhf2zhvNITbwXKgL6TdDlq79TcJcNL55UeRPvUyoyH9CayQXUS4sGlgTLRHLhPz7eYCq1lY4p1GiFBi3zd-Q81hx_zHHX-jLtjRVmpbNU4EEpeOUQwq10h6OfRAGzoADbsh129IGzw9EsnTkxPGeOOHZxi2ybeRD5XBPoM98zQROKuotSBOK2Teyo62FiSh3PmWI-K6Ggm9SYWQlsEPRvMzWsEG3JN_WRivgroNgoVhwFakbZqhZRQR8V-z6PWWBe26YxLPiwtKXIoILrGXOYZpRWLgDj7ybu2cs__JNq7TAJtT8nux5y_HmzyILX3stXvWWyTPuNS5Q9sHwr7MXtkWnasV9uf0MaAX2ok2O7yMzChu57SWlqDQ1lWROzZR4xXdEuKb9IdPmHyC1uOi3T80UHRc0JcqjKMsZuhqcqk6xMSosxfQOlKleVzEm2wwcJ- -HdUHMZ1Tl8q25ju3u45oxmjfJo2rbdFvqkXj_R17x8JLwoyzWU7U_G6GEfvQewJoJ9zXy0]--></g></svg>