<svg xmlns="http://www.w3.org/2000/svg" xmlns:xlink="http://www.w3.org/1999/xlink" contentStyleType="text/css" height="930px" preserveAspectRatio="none" style="width:1273px;height:930px;background:#24273A;" version="1.1" viewBox="0 0 1273 930" width="1273px" zoomAndPan="magnify"><defs/><g><rect fill="#24273A" height="930" style="stroke:none;stroke-width:1.0;" width="1273" x="0" y="0"/><!--class Kind--><g id="elem_Kind"><rect codeLine="5" fill="#24273A" height="30" id="Kind" rx="1.5" ry="1.5" style="stroke:#C6A0F6;stroke-width:2.0;" width="150.041" x="486.73" y="653"/><rect fill="#363A4F" height="30" rx="1.5" ry="1.5" style="stroke:#363A4F;stroke-width:2.0;" width="150.041" x="486.73" y="653"/><rect fill="#363A4F" height="1.5" style="stroke:#363A4F;stroke-width:2.0;" width="150.041" x="486.73" y="681.5"/><rect codeLine="5" fill="none" height="30" id="Kind" rx="1.5" ry="1.5" style="stroke:#C6A0F6;stroke-width:2.0;" width="150.041" x="486.73" y="653"/><ellipse cx="500.73" cy="668" fill="#B4A7E5" rx="10" ry="10" style="stroke:#181818;stroke-width:1.0;"/><path d="M497.7378,665.2754 L497.7378,663.752 L502.9468,663.752 L502.9468,665.2754 L501.2066,665.2754 L501.2066,670.9766 L502.9468,670.9766 L502.9468,672.5 L497.7378,672.5 L497.7378,670.9766 L499.478,670.9766 L499.478,665.2754 Z " fill="#CAD3F5"/><text fill="#A6DA95" font-family="Helvetica" font-size="16" font-style="italic" lengthAdjust="spacing" textLength="32.0234" x="513.73" y="672.3203">Kind</text><rect fill="#24273A" height="14" style="stroke:#C6A0F6;stroke-width:1.0;stroke-dasharray:2.0,2.0;" width="86.0176" x="553.7534" y="650"/><text fill="#CAD3F5" font-family="Helvetica" font-size="12" font-style="italic" lengthAdjust="spacing" textLength="84.0176" x="554.7534" y="660.2402">WITNESS, VAL</text></g><!--class Monad--><g id="elem_Monad"><rect codeLine="8" fill="#24273A" height="50" id="Monad" rx="1.5" ry="1.5" style="stroke:#C6A0F6;stroke-width:2.0;" width="327.498" x="7" y="467"/><rect fill="#363A4F" height="30" rx="1.5" ry="1.5" style="stroke:#363A4F;stroke-width:2.0;" width="327.498" x="7" y="467"/><rect fill="#363A4F" height="1.5" style="stroke:#363A4F;stroke-width:2.0;" width="327.498" x="7" y="495.5"/><rect codeLine="8" fill="none" height="50" id="Monad" rx="1.5" ry="1.5" style="stroke:#C6A0F6;stroke-width:2.0;" width="327.498" x="7" y="467"/><ellipse cx="136.623" cy="482" fill="#B4A7E5" rx="10" ry="10" style="stroke:#181818;stroke-width:1.0;"/><path d="M133.6309,479.2754 L133.6309,477.752 L138.8398,477.752 L138.8398,479.2754 L137.0996,479.2754 L137.0996,484.9766 L138.8398,484.9766 L138.8398,486.5 L133.6309,486.5 L133.6309,484.9766 L135.3711,484.9766 L135.3711,479.2754 Z " fill="#CAD3F5"/><text fill="#A6DA95" font-family="Helvetica" font-size="16" font-style="italic" lengthAdjust="spacing" textLength="48.9219" x="155.623" y="486.3203">Monad</text><rect fill="#24273A" height="14" style="stroke:#C6A0F6;stroke-width:1.0;stroke-dasharray:2.0,2.0;" width="9.3301" x="328.168" y="464"/><text fill="#CAD3F5" font-family="Helvetica" font-size="12" font-style="italic" lengthAdjust="spacing" textLength="7.3301" x="329.168" y="474.2402">F</text><line style="stroke:#C6A0F6;stroke-width:2.0;" x1="8" x2="333.498" y1="497" y2="497"/><text fill="#A6DA95" font-family="Helvetica" font-size="12" lengthAdjust="spacing" textLength="315.498" x="13" y="510.2402">flatMap(Function&lt;A, Kind&lt;F, B&gt;&gt;, Kind&lt;F, A&gt;): Kind&lt;F, B&gt;</text></g><!--class Applicative--><g id="elem_Applicative"><rect fill="#24273A" height="30" id="Applicative" rx="1.5" ry="1.5" style="stroke:#C6A0F6;stroke-width:2.0;" width="107.375" x="59.06" y="261"/><rect fill="#363A4F" height="30" rx="1.5" ry="1.5" style="stroke:#363A4F;stroke-width:2.0;" width="107.375" x="59.06" y="261"/><rect fill="#363A4F" height="1.5" style="stroke:#363A4F;stroke-width:2.0;" width="107.375" x="59.06" y="289.5"/><rect fill="none" height="30" id="Applicative" rx="1.5" ry="1.5" style="stroke:#C6A0F6;stroke-width:2.0;" width="107.375" x="59.06" y="261"/><ellipse cx="73.06" cy="276" fill="#B4A7E5" rx="10" ry="10" style="stroke:#181818;stroke-width:1.0;"/><path d="M70.0678,273.2754 L70.0678,271.752 L75.2768,271.752 L75.2768,273.2754 L73.5366,273.2754 L73.5366,278.9766 L75.2768,278.9766 L75.2768,280.5 L70.0678,280.5 L70.0678,278.9766 L71.808,278.9766 L71.808,273.2754 Z " fill="#CAD3F5"/><text fill="#A6DA95" font-family="Helvetica" font-size="16" font-style="italic" lengthAdjust="spacing" textLength="77.375" x="86.06" y="280.3203">Applicative</text></g><!--class MonadError--><g id="elem_MonadError"><rect codeLine="12" fill="#24273A" height="62" id="MonadError" rx="1.5" ry="1.5" style="stroke:#C6A0F6;stroke-width:2.0;" width="374.8477" x="72.33" y="637"/><rect fill="#363A4F" height="30" rx="1.5" ry="1.5" style="stroke:#363A4F;stroke-width:2.0;" width="374.8477" x="72.33" y="637"/><rect fill="#363A4F" height="1.5" style="stroke:#363A4F;stroke-width:2.0;" width="374.8477" x="72.33" y="665.5"/><rect codeLine="12" fill="none" height="62" id="MonadError" rx="1.5" ry="1.5" style="stroke:#C6A0F6;stroke-width:2.0;" width="374.8477" x="72.33" y="637"/><ellipse cx="200.5146" cy="652" fill="#B4A7E5" rx="10" ry="10" style="stroke:#181818;stroke-width:1.0;"/><path d="M197.5224,649.2754 L197.5224,647.752 L202.7314,647.752 L202.7314,649.2754 L200.9911,649.2754 L200.9911,654.9766 L202.7314,654.9766 L202.7314,656.5 L197.5224,656.5 L197.5224,654.9766 L199.2626,654.9766 L199.2626,649.2754 Z " fill="#CAD3F5"/><text fill="#A6DA95" font-family="Helvetica" font-size="16" font-style="italic" lengthAdjust="spacing" textLength="84.4766" x="219.5146" y="656.3203">MonadError</text><rect fill="#24273A" height="14" style="stroke:#C6A0F6;stroke-width:1.0;stroke-dasharray:2.0,2.0;" width="24.002" x="426.1757" y="634"/><text fill="#CAD3F5" font-family="Helvetica" font-size="12" font-style="italic" lengthAdjust="spacing" textLength="22.002" x="427.1757" y="644.2402">F, E</text><line style="stroke:#C6A0F6;stroke-width:2.0;" x1="73.33" x2="446.1777" y1="667" y2="667"/><text fill="#A6DA95" font-family="Helvetica" font-size="12" lengthAdjust="spacing" textLength="135.375" x="78.33" y="680.2402">raiseError(E): Kind&lt;F, A&gt;</text><text fill="#A6DA95" font-family="Helvetica" font-size="12" lengthAdjust="spacing" textLength="362.8477" x="78.33" y="692.2402">handleErrorWith(Kind&lt;F, A&gt;, Function&lt;E, Kind&lt;F, A&gt;&gt;): Kind&lt;F, A&gt;</text></g><!--class EitherT--><g id="elem_EitherT"><rect codeLine="17" fill="#24273A" height="142" id="EitherT" rx="1.5" ry="1.5" style="stroke:#C6A0F6;stroke-width:2.0;" width="315.7832" x="472.86" y="421"/><rect fill="#363A4F" height="30" rx="1.5" ry="1.5" style="stroke:#363A4F;stroke-width:2.0;" width="315.7832" x="472.86" y="421"/><rect fill="#363A4F" height="1.5" style="stroke:#363A4F;stroke-width:2.0;" width="315.7832" x="472.86" y="449.5"/><rect codeLine="17" fill="none" height="142" id="EitherT" rx="1.5" ry="1.5" style="stroke:#C6A0F6;stroke-width:2.0;" width="315.7832" x="472.86" y="421"/><ellipse cx="580.9635" cy="436" fill="#ADD1B2" rx="10" ry="10" style="stroke:#181818;stroke-width:1.0;"/><path d="M582.7975,440.248 Q582.3873,440.459 581.9362,440.5645 Q581.485,440.6699 580.987,440.6699 Q579.2174,440.6699 578.2858,439.5039 Q577.3541,438.3379 577.3541,436.1348 Q577.3541,433.9258 578.2858,432.7598 Q579.2174,431.5938 580.987,431.5938 Q581.485,431.5938 581.942,431.6992 Q582.3991,431.8047 582.7975,432.0156 L582.7975,433.9375 Q582.3522,433.5273 581.9332,433.3369 Q581.5143,433.1465 581.069,433.1465 Q580.1198,433.1465 579.6364,433.8994 Q579.153,434.6523 579.153,436.1348 Q579.153,437.6113 579.6364,438.3643 Q580.1198,439.1172 581.069,439.1172 Q581.5143,439.1172 581.9332,438.9268 Q582.3522,438.7363 582.7975,438.3262 Z " fill="#CAD3F5"/><text fill="#A6DA95" font-family="Helvetica" font-size="16" lengthAdjust="spacing" textLength="51.5703" x="599.9635" y="440.3203">EitherT</text><rect fill="#24273A" height="14" style="stroke:#C6A0F6;stroke-width:1.0;stroke-dasharray:2.0,2.0;" width="38.0059" x="753.6373" y="418"/><text fill="#CAD3F5" font-family="Helvetica" font-size="12" font-style="italic" lengthAdjust="spacing" textLength="36.0059" x="754.6373" y="428.2402">F, L, R</text><line style="stroke:#C6A0F6;stroke-width:2.0;" x1="473.86" x2="787.6432" y1="451" y2="451"/><ellipse cx="483.86" cy="462.5" fill="none" rx="3" ry="3" style="stroke:#038048;stroke-width:1.0;"/><text fill="#A6DA95" font-family="Helvetica" font-size="12" lengthAdjust="spacing" textLength="154.7578" x="491.86" y="464.2402">value: Kind&lt;F, Either&lt;L, R&gt;&gt;</text><line style="stroke:#C6A0F6;stroke-width:2.0;" x1="473.86" x2="787.6432" y1="471" y2="471"/><ellipse cx="483.86" cy="482.5" fill="#84BE84" rx="3" ry="3" style="stroke:#038048;stroke-width:1.0;"/><text fill="#A6DA95" font-family="Helvetica" font-size="12" lengthAdjust="spacing" textLength="166.0723" x="491.86" y="484.2402">EitherT(Kind&lt;F, Either&lt;L, R&gt;&gt;)</text><ellipse cx="483.86" cy="494.5" fill="#84BE84" rx="3" ry="3" style="stroke:#038048;stroke-width:1.0;"/><text fill="#A6DA95" font-family="Helvetica" font-size="12" lengthAdjust="spacing" text-decoration="underline" textLength="270.7793" x="491.86" y="496.2402">fromKind(Kind&lt;F, Either&lt;L, R&gt;&gt;): EitherT&lt;F, L, R&gt;</text><ellipse cx="483.86" cy="506.5" fill="#84BE84" rx="3" ry="3" style="stroke:#038048;stroke-width:1.0;"/><text fill="#A6DA95" font-family="Helvetica" font-size="12" lengthAdjust="spacing" text-decoration="underline" textLength="200.0742" x="491.86" y="508.2402">right(Monad&lt;F&gt;, R): EitherT&lt;F, L, R&gt;</text><ellipse cx="483.86" cy="518.5" fill="#84BE84" rx="3" ry="3" style="stroke:#038048;stroke-width:1.0;"/><text fill="#A6DA95" font-family="Helvetica" font-size="12" lengthAdjust="spacing" text-decoration="underline" textLength="190.7461" x="491.86" y="520.2402">left(Monad&lt;F&gt;, L): EitherT&lt;F, L, R&gt;</text><ellipse cx="483.86" cy="530.5" fill="#84BE84" rx="3" ry="3" style="stroke:#038048;stroke-width:1.0;"/><text fill="#A6DA95" font-family="Helvetica" font-size="12" lengthAdjust="spacing" text-decoration="underline" textLength="290.7832" x="491.86" y="532.2402">fromEither(Monad&lt;F&gt;, Either&lt;L, R&gt;): EitherT&lt;F, L, R&gt;</text><ellipse cx="483.86" cy="542.5" fill="#84BE84" rx="3" ry="3" style="stroke:#038048;stroke-width:1.0;"/><text fill="#A6DA95" font-family="Helvetica" font-size="12" lengthAdjust="spacing" text-decoration="underline" textLength="248.0918" x="491.86" y="544.2402">liftF(Monad&lt;F&gt;, Kind&lt;F, R&gt;): EitherT&lt;F, L, R&gt;</text><ellipse cx="483.86" cy="554.5" fill="#84BE84" rx="3" ry="3" style="stroke:#038048;stroke-width:1.0;"/><text fill="#A6DA95" font-family="Helvetica" font-size="12" lengthAdjust="spacing" textLength="162.75" x="491.86" y="556.2402">value(): Kind&lt;F, Either&lt;L, R&gt;&gt;</text></g><!--class EitherTKind--><g id="elem_EitherTKind"><rect codeLine="28" fill="#24273A" height="56" id="EitherTKind" rx="1.5" ry="1.5" style="stroke:#C6A0F6;stroke-width:2.0;" width="153.5996" x="558.95" y="760"/><rect fill="#363A4F" height="30" rx="1.5" ry="1.5" style="stroke:#363A4F;stroke-width:2.0;" width="153.5996" x="558.95" y="760"/><rect fill="#363A4F" height="1.5" style="stroke:#363A4F;stroke-width:2.0;" width="153.5996" x="558.95" y="788.5"/><rect codeLine="28" fill="none" height="56" id="EitherTKind" rx="1.5" ry="1.5" style="stroke:#C6A0F6;stroke-width:2.0;" width="153.5996" x="558.95" y="760"/><ellipse cx="572.95" cy="775" fill="#B4A7E5" rx="10" ry="10" style="stroke:#181818;stroke-width:1.0;"/><path d="M569.9578,772.2754 L569.9578,770.752 L575.1668,770.752 L575.1668,772.2754 L573.4266,772.2754 L573.4266,777.9766 L575.1668,777.9766 L575.1668,779.5 L569.9578,779.5 L569.9578,777.9766 L571.698,777.9766 L571.698,772.2754 Z " fill="#CAD3F5"/><text fill="#A6DA95" font-family="Helvetica" font-size="16" font-style="italic" lengthAdjust="spacing" textLength="83.5938" x="585.95" y="779.3203">EitherTKind</text><rect fill="#24273A" height="14" style="stroke:#C6A0F6;stroke-width:1.0;stroke-dasharray:2.0,2.0;" width="38.0059" x="677.5438" y="757"/><text fill="#CAD3F5" font-family="Helvetica" font-size="12" font-style="italic" lengthAdjust="spacing" textLength="36.0059" x="678.5438" y="767.2402">F, L, R</text><line style="stroke:#C6A0F6;stroke-width:2.0;" x1="559.95" x2="711.5496" y1="790" y2="790"/><line style="stroke:#C6A0F6;stroke-width:1.0;stroke-dasharray:1.0,2.0;" x1="559.95" x2="602.7352" y1="804" y2="804"/><text fill="#A6DA95" font-family="Helvetica" font-size="12" lengthAdjust="spacing" textLength="66.0293" x="602.7352" y="806.7402">witness type</text><line style="stroke:#C6A0F6;stroke-width:1.0;stroke-dasharray:1.0,2.0;" x1="668.7645" x2="711.5496" y1="804" y2="804"/></g><g id="elem_GMN11"><path d="M465.5,878.5 L465.5,921.5 A1.5,1.5 0 0 0 467,923 L804.5,923 A1.5,1.5 0 0 0 806,921.5 L806,887 L796,877 L639.75,877 L635.75,816.47 L631.75,877 L467,877 A1.5,1.5 0 0 0 465.5,878.5 " fill="#EED49F" style="stroke:#24273A;stroke-width:0.5;"/><path d="M796,877 L796,886.25 A0.75,0.75 0 0 0 796.75,887 L806,887 L796,877 " fill="#EED49F" style="stroke:#24273A;stroke-width:0.5;"/><text fill="#24273A" font-family="Helvetica" font-size="12" lengthAdjust="spacing" textLength="140.7246" x="471.5" y="891.2402">F: Witness of outer monad</text><text fill="#24273A" font-family="Helvetica" font-size="12" lengthAdjust="spacing" textLength="137.4141" x="471.5" y="903.2402">L: Left type of inner Either</text><text fill="#24273A" font-family="Helvetica" font-size="12" lengthAdjust="spacing" textLength="319.5" x="471.5" y="915.2402">R: Right type of inner Either (the value type A in Kind&lt;G,A&gt;)</text></g><!--class EitherTKindHelper--><g id="elem_EitherTKindHelper"><rect codeLine="39" fill="#24273A" height="118" id="EitherTKindHelper" rx="1.5" ry="1.5" style="stroke:#C6A0F6;stroke-width:2.0;" width="439.1699" x="823.16" y="433"/><rect fill="#363A4F" height="30" rx="1.5" ry="1.5" style="stroke:#363A4F;stroke-width:2.0;" width="439.1699" x="823.16" y="433"/><rect fill="#363A4F" height="1.5" style="stroke:#363A4F;stroke-width:2.0;" width="439.1699" x="823.16" y="461.5"/><rect codeLine="39" fill="none" height="118" id="EitherTKindHelper" rx="1.5" ry="1.5" style="stroke:#C6A0F6;stroke-width:2.0;" width="439.1699" x="823.16" y="433"/><ellipse cx="961.0457" cy="448" fill="#ADD1B2" rx="10" ry="10" style="stroke:#181818;stroke-width:1.0;"/><path d="M962.8797,452.248 Q962.4696,452.459 962.0184,452.5645 Q961.5672,452.6699 961.0692,452.6699 Q959.2996,452.6699 958.368,451.5039 Q957.4364,450.3379 957.4364,448.1348 Q957.4364,445.9258 958.368,444.7598 Q959.2996,443.5938 961.0692,443.5938 Q961.5672,443.5938 962.0243,443.6992 Q962.4813,443.8047 962.8797,444.0156 L962.8797,445.9375 Q962.4344,445.5273 962.0155,445.3369 Q961.5965,445.1465 961.1512,445.1465 Q960.202,445.1465 959.7186,445.8994 Q959.2352,446.6523 959.2352,448.1348 Q959.2352,449.6113 959.7186,450.3643 Q960.202,451.1172 961.1512,451.1172 Q961.5965,451.1172 962.0155,450.9268 Q962.4344,450.7363 962.8797,450.3262 Z " fill="#CAD3F5"/><text fill="#A6DA95" font-family="Helvetica" font-size="16" lengthAdjust="spacing" textLength="130.7266" x="980.0457" y="452.3203">EitherTKindHelper</text><rect fill="#24273A" height="14" style="stroke:#C6A0F6;stroke-width:1.0;stroke-dasharray:2.0,2.0;" width="22.6719" x="1242.658" y="430"/><text fill="#CAD3F5" font-family="Helvetica" font-size="12" font-style="italic" lengthAdjust="spacing" textLength="20.6719" x="1243.658" y="440.2402">F, L</text><line style="stroke:#C6A0F6;stroke-width:2.0;" x1="824.16" x2="1261.3299" y1="463" y2="463"/><ellipse cx="834.16" cy="474.5" fill="none" rx="3" ry="3" style="stroke:#038048;stroke-width:1.0;"/><text fill="#A6DA95" font-family="Helvetica" font-size="12" lengthAdjust="spacing" text-decoration="underline" textLength="191.4023" x="842.16" y="476.2402">INVALID_KIND_NULL_MSG: String</text><ellipse cx="834.16" cy="486.5" fill="none" rx="3" ry="3" style="stroke:#038048;stroke-width:1.0;"/><text fill="#A6DA95" font-family="Helvetica" font-size="12" lengthAdjust="spacing" text-decoration="underline" textLength="192.0645" x="842.16" y="488.2402">INVALID_KIND_TYPE_MSG: String</text><ellipse cx="834.16" cy="498.5" fill="none" rx="3" ry="3" style="stroke:#038048;stroke-width:1.0;"/><text fill="#A6DA95" font-family="Helvetica" font-size="12" lengthAdjust="spacing" text-decoration="underline" textLength="220.7344" x="842.16" y="500.2402">INVALID_HOLDER_STATE_MSG: String</text><line style="stroke:#C6A0F6;stroke-width:2.0;" x1="824.16" x2="1261.3299" y1="507" y2="507"/><rect fill="#F24D5C" height="6" style="stroke:#C82930;stroke-width:1.0;" width="6" x="831.16" y="515.5"/><text fill="#A6DA95" font-family="Helvetica" font-size="12" lengthAdjust="spacing" textLength="106.0371" x="842.16" y="520.2402">EitherTKindHelper()</text><ellipse cx="834.16" cy="530.5" fill="#84BE84" rx="3" ry="3" style="stroke:#038048;stroke-width:1.0;"/><text fill="#A6DA95" font-family="Helvetica" font-size="12" lengthAdjust="spacing" text-decoration="underline" textLength="414.1699" x="842.16" y="532.2402">unwrap(Kind&lt;EitherTKind.Witness&lt;F_IN, L_IN&gt;, R&gt;): EitherT&lt;F_IN, L_IN, R&gt;</text><ellipse cx="834.16" cy="542.5" fill="#84BE84" rx="3" ry="3" style="stroke:#038048;stroke-width:1.0;"/><text fill="#A6DA95" font-family="Helvetica" font-size="12" lengthAdjust="spacing" text-decoration="underline" textLength="316.7813" x="842.16" y="544.2402">wrap(EitherT&lt;F_IN, L_IN, R&gt;): EitherTKind&lt;F_IN, L_IN, R&gt;</text></g><!--class EitherTMonad--><g id="elem_EitherTMonad"><rect codeLine="48" fill="#24273A" height="142" id="EitherTMonad" rx="1.5" ry="1.5" style="stroke:#C6A0F6;stroke-width:2.0;" width="852.6836" x="202.41" y="205"/><rect fill="#363A4F" height="30" rx="1.5" ry="1.5" style="stroke:#363A4F;stroke-width:2.0;" width="852.6836" x="202.41" y="205"/><rect fill="#363A4F" height="1.5" style="stroke:#363A4F;stroke-width:2.0;" width="852.6836" x="202.41" y="233.5"/><rect codeLine="48" fill="none" height="142" id="EitherTMonad" rx="1.5" ry="1.5" style="stroke:#C6A0F6;stroke-width:2.0;" width="852.6836" x="202.41" y="205"/><ellipse cx="562.1698" cy="220" fill="#ADD1B2" rx="10" ry="10" style="stroke:#181818;stroke-width:1.0;"/><path d="M564.0038,224.248 Q563.5936,224.459 563.1424,224.5645 Q562.6913,224.6699 562.1932,224.6699 Q560.4237,224.6699 559.492,223.5039 Q558.5604,222.3379 558.5604,220.1348 Q558.5604,217.9258 559.492,216.7598 Q560.4237,215.5938 562.1932,215.5938 Q562.6913,215.5938 563.1483,215.6992 Q563.6053,215.8047 564.0038,216.0156 L564.0038,217.9375 Q563.5584,217.5273 563.1395,217.3369 Q562.7205,217.1465 562.2752,217.1465 Q561.326,217.1465 560.8426,217.8994 Q560.3592,218.6523 560.3592,220.1348 Q560.3592,221.6113 560.8426,222.3643 Q561.326,223.1172 562.2752,223.1172 Q562.7205,223.1172 563.1395,222.9268 Q563.5584,222.7363 564.0038,222.3262 Z " fill="#CAD3F5"/><text fill="#A6DA95" font-family="Helvetica" font-size="16" lengthAdjust="spacing" textLength="100.4922" x="581.1698" y="224.3203">EitherTMonad</text><rect fill="#24273A" height="14" style="stroke:#C6A0F6;stroke-width:1.0;stroke-dasharray:2.0,2.0;" width="22.6719" x="1035.4217" y="202"/><text fill="#CAD3F5" font-family="Helvetica" font-size="12" font-style="italic" lengthAdjust="spacing" textLength="20.6719" x="1036.4217" y="212.2402">F, L</text><line style="stroke:#C6A0F6;stroke-width:2.0;" x1="203.41" x2="1054.0936" y1="235" y2="235"/><rect fill="none" height="6" style="stroke:#C82930;stroke-width:1.0;" width="6" x="210.41" y="243.5"/><text fill="#A6DA95" font-family="Helvetica" font-size="12" lengthAdjust="spacing" textLength="128.748" x="221.41" y="248.2402">outerMonad: Monad&lt;F&gt;</text><line style="stroke:#C6A0F6;stroke-width:2.0;" x1="203.41" x2="1054.0936" y1="255" y2="255"/><ellipse cx="213.41" cy="266.5" fill="#84BE84" rx="3" ry="3" style="stroke:#038048;stroke-width:1.0;"/><text fill="#A6DA95" font-family="Helvetica" font-size="12" lengthAdjust="spacing" textLength="141.3984" x="221.41" y="268.2402">EitherTMonad(Monad&lt;F&gt;)</text><ellipse cx="213.41" cy="278.5" fill="#84BE84" rx="3" ry="3" style="stroke:#038048;stroke-width:1.0;"/><text fill="#A6DA95" font-family="Helvetica" font-size="12" lengthAdjust="spacing" textLength="230.0918" x="221.41" y="280.2402">of(R): Kind&lt;EitherTKind.Witness&lt;F, L&gt;, R&gt;</text><ellipse cx="213.41" cy="290.5" fill="#84BE84" rx="3" ry="3" style="stroke:#038048;stroke-width:1.0;"/><text fill="#A6DA95" font-family="Helvetica" font-size="12" lengthAdjust="spacing" textLength="623.584" x="221.41" y="292.2402">map(Function&lt;R_IN, R_OUT&gt;, Kind&lt;EitherTKind.Witness&lt;F, L&gt;, R_IN&gt;): Kind&lt;EitherTKind.Witness&lt;F, L&gt;, R_OUT&gt;</text><ellipse cx="213.41" cy="302.5" fill="#84BE84" rx="3" ry="3" style="stroke:#038048;stroke-width:1.0;"/><text fill="#A6DA95" font-family="Helvetica" font-size="12" lengthAdjust="spacing" textLength="801.6797" x="221.41" y="304.2402">ap(Kind&lt;EitherTKind.Witness&lt;F, L&gt;, Function&lt;R_IN, R_OUT&gt;&gt;, Kind&lt;EitherTKind.Witness&lt;F, L&gt;, R_IN&gt;): Kind&lt;EitherTKind.Witness&lt;F, L&gt;, R_OUT&gt;</text><ellipse cx="213.41" cy="314.5" fill="#84BE84" rx="3" ry="3" style="stroke:#038048;stroke-width:1.0;"/><text fill="#A6DA95" font-family="Helvetica" font-size="12" lengthAdjust="spacing" textLength="827.6836" x="221.41" y="316.2402">flatMap(Function&lt;R_IN, Kind&lt;EitherTKind.Witness&lt;F, L&gt;, R_OUT&gt;&gt;, Kind&lt;EitherTKind.Witness&lt;F, L&gt;, R_IN&gt;): Kind&lt;EitherTKind.Witness&lt;F, L&gt;, R_OUT&gt;</text><ellipse cx="213.41" cy="326.5" fill="#84BE84" rx="3" ry="3" style="stroke:#038048;stroke-width:1.0;"/><text fill="#A6DA95" font-family="Helvetica" font-size="12" lengthAdjust="spacing" textLength="270.7676" x="221.41" y="328.2402">raiseError(L): Kind&lt;EitherTKind.Witness&lt;F, L&gt;, R&gt;</text><ellipse cx="213.41" cy="338.5" fill="#84BE84" rx="3" ry="3" style="stroke:#038048;stroke-width:1.0;"/><text fill="#A6DA95" font-family="Helvetica" font-size="12" lengthAdjust="spacing" textLength="771.6855" x="221.41" y="340.2402">handleErrorWith(Kind&lt;EitherTKind.Witness&lt;F, L&gt;, R&gt;, Function&lt;L, Kind&lt;EitherTKind.Witness&lt;F, L&gt;, R&gt;&gt;): Kind&lt;EitherTKind.Witness&lt;F, L&gt;, R&gt;</text></g><g id="elem_GMN18"><path d="M508.88,61.5 L508.88,92.5 A1.5,1.5 0 0 0 510.38,94 L624.75,94 L628.75,204.77 L632.75,94 L747.128,94 A1.5,1.5 0 0 0 748.628,92.5 L748.628,70 L738.628,60 L510.38,60 A1.5,1.5 0 0 0 508.88,61.5 " fill="#EED49F" style="stroke:#24273A;stroke-width:0.5;"/><path d="M738.628,60 L738.628,69.25 A0.75,0.75 0 0 0 739.378,70 L748.628,70 L738.628,60 " fill="#EED49F" style="stroke:#24273A;stroke-width:0.5;"/><text fill="#24273A" font-family="Helvetica" font-size="12" lengthAdjust="spacing" textLength="140.7246" x="514.88" y="74.2402">F: Witness of outer monad</text><text fill="#24273A" font-family="Helvetica" font-size="12" lengthAdjust="spacing" textLength="218.748" x="514.88" y="86.2402">L: Left type (Error type E for MonadError)</text></g><!--class Either--><g id="elem_Either"><rect codeLine="69" fill="#24273A" height="134" id="Either" rx="1.5" ry="1.5" style="stroke:#C6A0F6;stroke-width:2.0;" width="282.8086" x="783.34" y="10"/><rect fill="#363A4F" height="30" rx="1.5" ry="1.5" style="stroke:#363A4F;stroke-width:2.0;" width="282.8086" x="783.34" y="10"/><rect fill="#363A4F" height="1.5" style="stroke:#363A4F;stroke-width:2.0;" width="282.8086" x="783.34" y="38.5"/><rect codeLine="69" fill="none" height="134" id="Either" rx="1.5" ry="1.5" style="stroke:#C6A0F6;stroke-width:2.0;" width="282.8086" x="783.34" y="10"/><ellipse cx="888.5089" cy="25" fill="#B4A7E5" rx="10" ry="10" style="stroke:#181818;stroke-width:1.0;"/><path d="M885.5168,22.2754 L885.5168,20.752 L890.7257,20.752 L890.7257,22.2754 L888.9855,22.2754 L888.9855,27.9766 L890.7257,27.9766 L890.7257,29.5 L885.5168,29.5 L885.5168,27.9766 L887.257,27.9766 L887.257,22.2754 Z " fill="#CAD3F5"/><text fill="#A6DA95" font-family="Helvetica" font-size="16" font-style="italic" lengthAdjust="spacing" textLength="41.7969" x="907.5089" y="29.3203">Either</text><rect fill="#24273A" height="14" style="stroke:#C6A0F6;stroke-width:1.0;stroke-dasharray:2.0,2.0;" width="20.6738" x="1048.4748" y="7"/><text fill="#CAD3F5" font-family="Helvetica" font-size="12" font-style="italic" lengthAdjust="spacing" textLength="18.6738" x="1049.4748" y="17.2402">L,R</text><line style="stroke:#C6A0F6;stroke-width:2.0;" x1="784.34" x2="1065.1486" y1="40" y2="40"/><text fill="#A6DA95" font-family="Helvetica" font-size="12" lengthAdjust="spacing" textLength="86.0508" x="789.34" y="53.2402">isLeft(): boolean</text><text fill="#A6DA95" font-family="Helvetica" font-size="12" lengthAdjust="spacing" textLength="94.0488" x="789.34" y="65.2402">isRight(): boolean</text><text fill="#A6DA95" font-family="Helvetica" font-size="12" lengthAdjust="spacing" textLength="58.0313" x="789.34" y="77.2402">getLeft(): L</text><text fill="#A6DA95" font-family="Helvetica" font-size="12" lengthAdjust="spacing" textLength="68.0215" x="789.34" y="89.2402">getRight(): R</text><text fill="#A6DA95" font-family="Helvetica" font-size="12" lengthAdjust="spacing" textLength="199.4297" x="789.34" y="101.2402">map(Function&lt;R, R2&gt;): Either&lt;L,R2&gt;</text><text fill="#A6DA95" font-family="Helvetica" font-size="12" lengthAdjust="spacing" textLength="270.8086" x="789.34" y="113.2402">flatMap(Function&lt;R, Either&lt;L,R2&gt;&gt;): Either&lt;L,R2&gt;</text><text fill="#A6DA95" font-family="Helvetica" font-size="12" lengthAdjust="spacing" text-decoration="underline" textLength="101.3789" x="789.34" y="125.2402">left(L): Either&lt;L,R&gt;</text><text fill="#A6DA95" font-family="Helvetica" font-size="12" lengthAdjust="spacing" text-decoration="underline" textLength="110.707" x="789.34" y="137.2402">right(R): Either&lt;L,R&gt;</text></g><!--reverse link Applicative to Monad--><g id="link_Applicative_Monad"><path d="M117.4245,309.0032 C120.6645,330.7332 125.03,355.63 134.75,391 C141.98,417.33 152.88,446.64 160.8,466.68 " fill="none" id="Applicative-backto-Monad" style="stroke:#F5BDE6;stroke-width:1.0;"/><polygon fill="none" points="114.77,291.2,111.4901,309.888,123.3589,308.1184,114.77,291.2" style="stroke:#F5BDE6;stroke-width:1.0;"/></g><!--reverse link Monad to MonadError--><g id="link_Monad_MonadError"><path d="M191.3195,533.214 C207.2795,564.404 226.82,602.63 244.19,636.58 " fill="none" id="Monad-backto-MonadError" style="stroke:#F5BDE6;stroke-width:1.0;"/><polygon fill="none" points="183.12,517.19,185.9782,535.9472,196.6608,530.4808,183.12,517.19" style="stroke:#F5BDE6;stroke-width:1.0;"/></g><!--reverse link Kind to EitherTKind--><g id="link_Kind_EitherTKind"><path d="M580.3867,698.7172 C592.2767,717.6672 603.79,736.04 618.7,759.82 " fill="none" id="Kind-backto-EitherTKind" style="stroke:#F5BDE6;stroke-width:1.0;"/><polygon fill="none" points="570.82,683.47,575.3043,701.9061,585.4691,695.5283,570.82,683.47" style="stroke:#F5BDE6;stroke-width:1.0;"/></g><!--link EitherT to EitherTKind--><g id="link_EitherT_EitherTKind"><path codeLine="37" d="M676.71,563.44 C681.23,573.06 685.11,583.05 687.75,593 C703.51,652.49 681.4747,706.3872 660.8947,743.9172 " fill="none" id="EitherT-to-EitherTKind" style="stroke:#F5BDE6;stroke-width:1.0;stroke-dasharray:7.0,7.0;"/><polygon fill="none" points="652.24,759.7,666.1556,746.8021,655.6337,741.0323,652.24,759.7" style="stroke:#F5BDE6;stroke-width:1.0;"/><text fill="#CAD3F5" font-family="Helvetica" font-size="12" lengthAdjust="spacing" textLength="61.3535" x="692.84" y="671.2402">implements</text></g><!--reverse link MonadError to EitherTMonad--><g id="link_MonadError_EitherTMonad"><path d="M300.0114,623.4023 C318.6314,602.9923 331.18,588.53 351.75,563 C400.83,502.08 402.18,478 455.75,421 C479.97,395.23 508.68,369.68 535.69,347.42 " fill="none" id="MonadError-backto-EitherTMonad" style="stroke:#F5BDE6;stroke-width:1.0;stroke-dasharray:7.0,7.0;"/><polygon fill="none" points="287.88,636.7,304.444,627.4461,295.5789,619.3585,287.88,636.7" style="stroke:#F5BDE6;stroke-width:1.0;"/></g><!--link EitherTMonad to EitherTKindHelper--><g id="link_EitherTMonad_EitherTKindHelper"><path codeLine="63" d="M764.88,347.37 C818.26,374.96 873.4597,403.4953 924.3697,429.8053 " fill="none" id="EitherTMonad-to-EitherTKindHelper" style="stroke:#F5BDE6;stroke-width:1.0;stroke-dasharray:7.0,7.0;"/><polygon fill="#F5BDE6" points="929.7,432.56,923.541,424.8745,925.2581,430.2645,919.8681,431.9815,929.7,432.56" style="stroke:#F5BDE6;stroke-width:1.0;"/><text fill="#CAD3F5" font-family="Helvetica" font-size="12" lengthAdjust="spacing" textLength="114.7207" x="849.16" y="387.2402">uses for wrap/unwrap</text></g><!--link EitherTMonad to EitherT--><g id="link_EitherTMonad_EitherT"><path codeLine="64" d="M629.41,347.37 C629.63,370.88 629.8139,391.0703 630.0339,414.5903 " fill="none" id="EitherTMonad-to-EitherT" style="stroke:#F5BDE6;stroke-width:1.0;stroke-dasharray:7.0,7.0;"/><polygon fill="#F5BDE6" points="630.09,420.59,634.0056,411.553,630.0432,415.5902,626.006,411.6278,630.09,420.59" style="stroke:#F5BDE6;stroke-width:1.0;"/><text fill="#CAD3F5" font-family="Helvetica" font-size="12" lengthAdjust="spacing" textLength="107.3906" x="630.81" y="387.2402">creates/manipulates</text></g><!--link EitherTMonad to Monad--><g id="link_EitherTMonad_Monad"><path codeLine="65" d="M210.53,347.34 C191.47,356.15 176.62,366 167.75,377 C147.49,402.12 152.5261,435.723 160.1061,460.993 " fill="none" id="EitherTMonad-to-Monad" style="stroke:#F5BDE6;stroke-width:1.0;stroke-dasharray:7.0,7.0;"/><polygon fill="#F5BDE6" points="161.83,466.74,163.0755,456.9702,160.3934,461.9508,155.4128,459.2687,161.83,466.74" style="stroke:#F5BDE6;stroke-width:1.0;"/><text fill="#CAD3F5" font-family="Helvetica" font-size="12" lengthAdjust="spacing" textLength="224.1445" x="168.75" y="387.2402">(depends on instance of outer Monad&lt;F&gt;)</text></g><!--reverse link EitherT to Kind--><g id="link_EitherT_Kind"><path codeLine="82" d="M559.0781,573.3933 C553.0981,582.8533 554.36,582.72 550.75,593 C543.74,612.98 550.12,637.52 555.67,652.71 " fill="none" id="EitherT-backto-Kind" style="stroke:#F5BDE6;stroke-width:1.0;"/><polygon fill="#F5BDE6" points="565.49,563.25,558.9029,566.1843,559.0781,573.3933,565.6651,570.459,565.49,563.25" style="stroke:#F5BDE6;stroke-width:1.0;"/><text fill="#CAD3F5" font-family="Helvetica" font-size="12" lengthAdjust="spacing" textLength="131.4082" x="551.75" y="603.2402">(value field holds a Kind)</text><text fill="#CAD3F5" font-family="Helvetica" font-size="12" lengthAdjust="spacing" textLength="6.6738" x="546.5551" y="642.3657">1</text></g><!--SRC=[jLPBZzis4BxxLqptKctZ1vgZi13WTkN4YDPRs4w2dWnQfcoY54b8r6w3TFzxXwGUj6KRpY4NG-PyC_pcpL-OI7cret3GMfNXP5AGr_6UwKErhKfQf59eAlGubVb4fBBKPCJIIKgqKbMQCZ7AIPeU6D5of3WHkihvI1zeJYSvOM9YFySAJmU30yDRQAxqDyXflgL5EHW0CBHVP2Iby8c9tSFN-NeHhrP3-39D8lYEWBTZr9CKPFSmYu3-YyHs9KoLuWm9iHTgZeqAGCQ9VY8gc5KYrKoAX-dGsPyDuOyewlvCe_lGarouBouAMHX4tDtR4d4t5eILrEA2s3CvZQpqGCIEE_5NZ6tGYOVGSenzMj6f4SihvQGi8KOJj5WRKJA4PKFX7RmGNj5Ep-4UB2Qg8RLkS1PpNuE-OvurIzyWAsHka1VWOO_AgO62xGywQ6A5Y1jqECrybUG65SFJOJn5d-ijrx9CppprnkLhoZRWmVtba9zKKsscGRliDHLbJpt464j5qBAqoCXBz7WChqu4-fkY-D_U122afh2LMiiSPERVPlLc8TGcZLHMo0fouw-L9Y4a67bd4kLC29Gx6nQm365fqdaM0G7-kdWu-HJ5pgKFmwcjB7JICZGXgQaXzVyYdoU4m7B5SMe8NVOgtY0-KgveuMBI5dwRnFa21yVySVDfldZSB3udoUPfzI64bIwOs5y5h__-Axu5_F4vUOoNczLwkkxZHtscGQ-fAl5Qu6owdExDV87UuMzqMdsjv5m1MwldePqDLtgdTlh3fUu36-Kk8_uul5AfRMP6higiLjYEpEDHP4_RlckY9RDWsVJLrPweyRa_xPVEiytpvtNJoDTic4ZVSfUrLzztDO4EVvREp-BJstZkqjji_2nItb9CVYIPPzVbLKKlsiaDpaJHhNJQiQgbycRgKpisVs2e1jOZznr3XfzTErqOa1Q0KpBg3nOSbVX2AwqTq_eJDrUkwA96Mb2YQOclCy5KnSttEGNt5KAmeyhk9YbmdEEW4IdjtEnwTZ2mtfukEin5kxICk3InCEjoAoMdH7G2krZEIFPKDpg9TzR2bytXSVzZyjvtGy_GU1yro7wd38zmb_IEtoV94QeFSW-VvHdKcujMavFVHYEu-_qEwkqNk1MQCSftS90SOq-ixDvg_GfBYloHTdbWgiI8lqZ-Wki7euBBcAK8BoZWipsbIbU4Mnrh-svs1ueK9AScTxYSQmP3lxI6nxN0pEsTCNmZYN-iHIs12ByC8A3Z_HZ-b6PNQBBbT5Rfgg3EwBCob0btZlmF]--></g></svg>