<svg xmlns="http://www.w3.org/2000/svg" xmlns:xlink="http://www.w3.org/1999/xlink" contentStyleType="text/css" height="386px" preserveAspectRatio="none" style="width:1489px;height:386px;background:#24273A;" version="1.1" viewBox="0 0 1489 386" width="1489px" zoomAndPan="magnify"><title>Either&lt;L,R&gt; Type Structure and HKT Integration</title><defs/><g><rect fill="#24273A" height="386" style="stroke:none;stroke-width:1.0;" width="1489" x="0" y="0"/><text fill="#CAD3F5" font-family="Helvetica" font-size="22" font-weight="bold" lengthAdjust="spacing" textLength="501.1768" x="489.5266" y="31.9404">Either&lt;L,R&gt; Type Structure and HKT Integration</text><!--cluster internal implementations--><g id="cluster_internal implementations"><path d="M1205.73,54 L1350.7554,54 A2.25,2.25 0 0 1 1352.2554,55.5 L1359.2554,72 L1480.73,72 A1.5,1.5 0 0 1 1482.23,73.5 L1482.23,351.79 A1.5,1.5 0 0 1 1480.73,353.29 L1205.73,353.29 A1.5,1.5 0 0 1 1204.23,351.79 L1204.23,55.5 A1.5,1.5 0 0 1 1205.73,54 " fill="#24273A" style="stroke:#CAD3F5;stroke-width:1.0;"/><line style="stroke:#CAD3F5;stroke-width:1.0;" x1="1204.23" x2="1359.2554" y1="72" y2="72"/><text fill="#CAD3F5" font-family="Helvetica" font-size="12" font-weight="bold" lengthAdjust="spacing" textLength="142.0254" x="1208.23" y="65.2402">internal implementations</text></g><!--class LeftRecord--><g id="elem_LeftRecord"><rect codeLine="25" fill="#24273A" height="68.584" id="LeftRecord" rx="1.5" ry="1.5" style="stroke:#C6A0F6;stroke-width:2.0;" width="105.4785" x="1220.49" y="268.71"/><rect fill="#363A4F" height="40.584" rx="1.5" ry="1.5" style="stroke:#363A4F;stroke-width:2.0;" width="105.4785" x="1220.49" y="268.71"/><rect fill="#363A4F" height="1.5" style="stroke:#363A4F;stroke-width:2.0;" width="105.4785" x="1220.49" y="307.794"/><rect codeLine="25" fill="none" height="68.584" id="LeftRecord" rx="1.5" ry="1.5" style="stroke:#C6A0F6;stroke-width:2.0;" width="105.4785" x="1220.49" y="268.71"/><ellipse cx="1233.49" cy="289.002" fill="#FFFFFF" rx="9" ry="9" style="stroke:#000000;stroke-width:1.0;"/><path d="M1235.324,293.25 Q1234.9138,293.461 1234.4627,293.5664 Q1234.0115,293.6719 1233.5134,293.6719 Q1231.7439,293.6719 1230.8123,292.5059 Q1229.8806,291.3399 1229.8806,289.1368 Q1229.8806,286.9278 1230.8123,285.7618 Q1231.7439,284.5957 1233.5134,284.5957 Q1234.0115,284.5957 1234.4685,284.7012 Q1234.9255,284.8067 1235.324,285.0176 L1235.324,286.9395 Q1234.8787,286.5293 1234.4597,286.3389 Q1234.0408,286.1485 1233.5955,286.1485 Q1232.6463,286.1485 1232.1629,286.9014 Q1231.6795,287.6543 1231.6795,289.1368 Q1231.6795,290.6133 1232.1629,291.3663 Q1232.6463,292.1192 1233.5955,292.1192 Q1234.0408,292.1192 1234.4597,291.9288 Q1234.8787,291.7383 1235.324,291.3282 Z " fill="#CAD3F5"/><text fill="#000000" font-family="Verdana" font-size="12" font-style="italic" lengthAdjust="spacing" textLength="53.8711" x="1243.49" y="285.7745">&#171;record&#187;</text><text fill="#A6DA95" font-family="Helvetica" font-size="16" lengthAdjust="spacing" textLength="26.6875" x="1257.0818" y="300.6143">Left</text><rect fill="#24273A" height="16.584" style="stroke:#C6A0F6;stroke-width:1.0;stroke-dasharray:2.0,2.0;" width="25.6074" x="1303.3611" y="265.71"/><text fill="#000000" font-family="Verdana" font-size="12" font-style="italic" lengthAdjust="spacing" textLength="23.6074" x="1304.3611" y="278.7745">L, R</text><line style="stroke:#C6A0F6;stroke-width:2.0;" x1="1221.49" x2="1324.9685" y1="309.294" y2="309.294"/><line style="stroke:#C6A0F6;stroke-width:2.0;" x1="1221.49" x2="1324.9685" y1="317.294" y2="317.294"/><ellipse cx="1231.49" cy="328.794" fill="#FFFFFF" rx="3" ry="3" style="stroke:#000000;stroke-width:1.0;"/><text fill="#A6DA95" font-family="Helvetica" font-size="12" lengthAdjust="spacing" textLength="66.7031" x="1238.49" y="330.5342">Left(L value)</text></g><!--class Either--><g id="elem_Either"><rect fill="#24273A" height="44" id="Either" rx="1.5" ry="1.5" style="stroke:#C6A0F6;stroke-width:2.0;" width="69.7969" x="1308.33" y="85"/><rect fill="#363A4F" height="28" rx="1.5" ry="1.5" style="stroke:#363A4F;stroke-width:2.0;" width="69.7969" x="1308.33" y="85"/><rect fill="#363A4F" height="1.5" style="stroke:#363A4F;stroke-width:2.0;" width="69.7969" x="1308.33" y="111.5"/><rect fill="none" height="44" id="Either" rx="1.5" ry="1.5" style="stroke:#C6A0F6;stroke-width:2.0;" width="69.7969" x="1308.33" y="85"/><ellipse cx="1321.33" cy="99" fill="#FFFFFF" rx="9" ry="9" style="stroke:#000000;stroke-width:1.0;"/><path d="M1318.3378,96.2754 L1318.3378,94.752 L1323.5468,94.752 L1323.5468,96.2754 L1321.8066,96.2754 L1321.8066,101.9766 L1323.5468,101.9766 L1323.5468,103.5 L1318.3378,103.5 L1318.3378,101.9766 L1320.078,101.9766 L1320.078,96.2754 Z " fill="#CAD3F5"/><text fill="#A6DA95" font-family="Helvetica" font-size="16" font-style="italic" lengthAdjust="spacing" textLength="41.7969" x="1333.33" y="103.3203">Either</text><line style="stroke:#C6A0F6;stroke-width:2.0;" x1="1309.33" x2="1377.1269" y1="113" y2="113"/><line style="stroke:#C6A0F6;stroke-width:2.0;" x1="1309.33" x2="1377.1269" y1="121" y2="121"/></g><!--class RightRecord--><g id="elem_RightRecord"><rect codeLine="28" fill="#24273A" height="68.584" id="RightRecord" rx="1.5" ry="1.5" style="stroke:#C6A0F6;stroke-width:2.0;" width="105.4785" x="1360.49" y="268.71"/><rect fill="#363A4F" height="40.584" rx="1.5" ry="1.5" style="stroke:#363A4F;stroke-width:2.0;" width="105.4785" x="1360.49" y="268.71"/><rect fill="#363A4F" height="1.5" style="stroke:#363A4F;stroke-width:2.0;" width="105.4785" x="1360.49" y="307.794"/><rect codeLine="28" fill="none" height="68.584" id="RightRecord" rx="1.5" ry="1.5" style="stroke:#C6A0F6;stroke-width:2.0;" width="105.4785" x="1360.49" y="268.71"/><ellipse cx="1373.49" cy="289.002" fill="#FFFFFF" rx="9" ry="9" style="stroke:#000000;stroke-width:1.0;"/><path d="M1375.324,293.25 Q1374.9138,293.461 1374.4627,293.5664 Q1374.0115,293.6719 1373.5134,293.6719 Q1371.7439,293.6719 1370.8123,292.5059 Q1369.8806,291.3399 1369.8806,289.1368 Q1369.8806,286.9278 1370.8123,285.7618 Q1371.7439,284.5957 1373.5134,284.5957 Q1374.0115,284.5957 1374.4685,284.7012 Q1374.9255,284.8067 1375.324,285.0176 L1375.324,286.9395 Q1374.8787,286.5293 1374.4597,286.3389 Q1374.0408,286.1485 1373.5955,286.1485 Q1372.6463,286.1485 1372.1629,286.9014 Q1371.6795,287.6543 1371.6795,289.1368 Q1371.6795,290.6133 1372.1629,291.3663 Q1372.6463,292.1192 1373.5955,292.1192 Q1374.0408,292.1192 1374.4597,291.9288 Q1374.8787,291.7383 1375.324,291.3282 Z " fill="#CAD3F5"/><text fill="#000000" font-family="Verdana" font-size="12" font-style="italic" lengthAdjust="spacing" textLength="53.8711" x="1383.49" y="285.7745">&#171;record&#187;</text><text fill="#A6DA95" font-family="Helvetica" font-size="16" lengthAdjust="spacing" textLength="37.3516" x="1391.7498" y="300.6143">Right</text><rect fill="#24273A" height="16.584" style="stroke:#C6A0F6;stroke-width:1.0;stroke-dasharray:2.0,2.0;" width="25.6074" x="1443.3611" y="265.71"/><text fill="#000000" font-family="Verdana" font-size="12" font-style="italic" lengthAdjust="spacing" textLength="23.6074" x="1444.3611" y="278.7745">L, R</text><line style="stroke:#C6A0F6;stroke-width:2.0;" x1="1361.49" x2="1464.9685" y1="309.294" y2="309.294"/><line style="stroke:#C6A0F6;stroke-width:2.0;" x1="1361.49" x2="1464.9685" y1="317.294" y2="317.294"/><ellipse cx="1371.49" cy="328.794" fill="#FFFFFF" rx="3" ry="3" style="stroke:#000000;stroke-width:1.0;"/><text fill="#A6DA95" font-family="Helvetica" font-size="12" lengthAdjust="spacing" textLength="76.6934" x="1378.49" y="330.5342">Right(R value)</text></g><!--class Kind--><g id="elem_Kind"><rect codeLine="7" fill="#24273A" height="44" id="Kind" rx="1.5" ry="1.5" style="stroke:#C6A0F6;stroke-width:2.0;" width="152.623" x="623.92" y="281"/><rect fill="#363A4F" height="28" rx="1.5" ry="1.5" style="stroke:#363A4F;stroke-width:2.0;" width="152.623" x="623.92" y="281"/><rect fill="#363A4F" height="1.5" style="stroke:#363A4F;stroke-width:2.0;" width="152.623" x="623.92" y="307.5"/><rect codeLine="7" fill="none" height="44" id="Kind" rx="1.5" ry="1.5" style="stroke:#C6A0F6;stroke-width:2.0;" width="152.623" x="623.92" y="281"/><ellipse cx="636.92" cy="295" fill="#FFFFFF" rx="9" ry="9" style="stroke:#000000;stroke-width:1.0;"/><path d="M633.9278,292.2754 L633.9278,290.752 L639.1368,290.752 L639.1368,292.2754 L637.3966,292.2754 L637.3966,297.9766 L639.1368,297.9766 L639.1368,299.5 L633.9278,299.5 L633.9278,297.9766 L635.668,297.9766 L635.668,292.2754 Z " fill="#CAD3F5"/><text fill="#A6DA95" font-family="Helvetica" font-size="16" font-style="italic" lengthAdjust="spacing" textLength="32.0234" x="648.92" y="299.3203">Kind</text><rect fill="#24273A" height="16.584" style="stroke:#C6A0F6;stroke-width:1.0;stroke-dasharray:2.0,2.0;" width="90.5996" x="688.9434" y="278"/><text fill="#000000" font-family="Verdana" font-size="12" font-style="italic" lengthAdjust="spacing" textLength="88.5996" x="689.9434" y="291.0645">F_WITNESS, A</text><line style="stroke:#C6A0F6;stroke-width:2.0;" x1="624.92" x2="775.543" y1="309" y2="309"/><line style="stroke:#C6A0F6;stroke-width:2.0;" x1="624.92" x2="775.543" y1="317" y2="317"/></g><!--class EitherInterface--><g id="elem_EitherInterface"><rect codeLine="12" fill="#24273A" height="152" id="EitherInterface" rx="1.5" ry="1.5" style="stroke:#C6A0F6;stroke-width:2.0;" width="374.1621" x="811.15" y="227"/><rect fill="#363A4F" height="28" rx="1.5" ry="1.5" style="stroke:#363A4F;stroke-width:2.0;" width="374.1621" x="811.15" y="227"/><rect fill="#363A4F" height="1.5" style="stroke:#363A4F;stroke-width:2.0;" width="374.1621" x="811.15" y="253.5"/><rect codeLine="12" fill="none" height="152" id="EitherInterface" rx="1.5" ry="1.5" style="stroke:#C6A0F6;stroke-width:2.0;" width="374.1621" x="811.15" y="227"/><ellipse cx="959.7789" cy="241" fill="#FFFFFF" rx="9" ry="9" style="stroke:#000000;stroke-width:1.0;"/><path d="M956.7867,238.2754 L956.7867,236.752 L961.9957,236.752 L961.9957,238.2754 L960.2555,238.2754 L960.2555,243.9766 L961.9957,243.9766 L961.9957,245.5 L956.7867,245.5 L956.7867,243.9766 L958.527,243.9766 L958.527,238.2754 Z " fill="#CAD3F5"/><text fill="#A6DA95" font-family="Helvetica" font-size="16" font-style="italic" lengthAdjust="spacing" textLength="41.7969" x="977.2789" y="245.3203">Either</text><rect fill="#24273A" height="16.584" style="stroke:#C6A0F6;stroke-width:1.0;stroke-dasharray:2.0,2.0;" width="25.6074" x="1162.7047" y="224"/><text fill="#000000" font-family="Verdana" font-size="12" font-style="italic" lengthAdjust="spacing" textLength="23.6074" x="1163.7047" y="237.0645">L, R</text><line style="stroke:#C6A0F6;stroke-width:2.0;" x1="812.15" x2="1184.3121" y1="255" y2="255"/><line style="stroke:#C6A0F6;stroke-width:2.0;" x1="812.15" x2="1184.3121" y1="263" y2="263"/><ellipse cx="822.15" cy="274.5" fill="#FFFFFF" rx="3" ry="3" style="stroke:#000000;stroke-width:1.0;"/><text fill="#A6DA95" font-family="Helvetica" font-size="12" lengthAdjust="spacing" text-decoration="underline" textLength="118.7344" x="829.15" y="276.2402">Left&lt;L,R&gt; left(L value)</text><ellipse cx="822.15" cy="286.5" fill="#FFFFFF" rx="3" ry="3" style="stroke:#000000;stroke-width:1.0;"/><text fill="#A6DA95" font-family="Helvetica" font-size="12" lengthAdjust="spacing" text-decoration="underline" textLength="136.0605" x="829.15" y="288.2402">Right&lt;L,R&gt; right(R value)</text><ellipse cx="822.15" cy="298.5" fill="#FFFFFF" rx="3" ry="3" style="stroke:#000000;stroke-width:1.0;"/><text fill="#A6DA95" font-family="Helvetica" font-size="12" lengthAdjust="spacing" textLength="82.7168" x="829.15" y="300.2402">boolean isLeft()</text><ellipse cx="822.15" cy="310.5" fill="#FFFFFF" rx="3" ry="3" style="stroke:#000000;stroke-width:1.0;"/><text fill="#A6DA95" font-family="Helvetica" font-size="12" lengthAdjust="spacing" textLength="90.7148" x="829.15" y="312.2402">boolean isRight()</text><ellipse cx="822.15" cy="322.5" fill="#FFFFFF" rx="3" ry="3" style="stroke:#000000;stroke-width:1.0;"/><text fill="#A6DA95" font-family="Helvetica" font-size="12" lengthAdjust="spacing" textLength="236.1211" x="829.15" y="324.2402">L getLeft() throws NoSuchElementException</text><ellipse cx="822.15" cy="334.5" fill="#FFFFFF" rx="3" ry="3" style="stroke:#000000;stroke-width:1.0;"/><text fill="#A6DA95" font-family="Helvetica" font-size="12" lengthAdjust="spacing" textLength="246.1113" x="829.15" y="336.2402">R getRight() throws NoSuchElementException</text><ellipse cx="822.15" cy="346.5" fill="#FFFFFF" rx="3" ry="3" style="stroke:#000000;stroke-width:1.0;"/><text fill="#A6DA95" font-family="Helvetica" font-size="12" lengthAdjust="spacing" text-decoration="underline" textLength="332.8242" x="832.484" y="348.2402">U fold(Function&lt;L,U&gt; leftMapper, Function&lt;R,U&gt; rightMapper)</text><ellipse cx="822.15" cy="358.5" fill="#FFFFFF" rx="3" ry="3" style="stroke:#000000;stroke-width:1.0;"/><text fill="#A6DA95" font-family="Helvetica" font-size="12" lengthAdjust="spacing" textLength="275.4492" x="829.15" y="360.2402">&lt;RR&gt; Either&lt;L,RR&gt; map(Function&lt;R,RR&gt; mapper)</text><ellipse cx="822.15" cy="370.5" fill="#FFFFFF" rx="3" ry="3" style="stroke:#000000;stroke-width:1.0;"/><text fill="#A6DA95" font-family="Helvetica" font-size="12" lengthAdjust="spacing" textLength="350.1621" x="829.15" y="372.2402">&lt;RR&gt; Either&lt;L,RR&gt; flatMap(Function&lt;R, Either&lt;L,RR&gt;&gt; mapper)</text></g><!--class EitherKind--><g id="elem_EitherKind"><rect fill="#24273A" height="44" id="EitherKind" rx="1.5" ry="1.5" style="stroke:#C6A0F6;stroke-width:2.0;" width="101.8203" x="798.32" y="85"/><rect fill="#363A4F" height="28" rx="1.5" ry="1.5" style="stroke:#363A4F;stroke-width:2.0;" width="101.8203" x="798.32" y="85"/><rect fill="#363A4F" height="1.5" style="stroke:#363A4F;stroke-width:2.0;" width="101.8203" x="798.32" y="111.5"/><rect fill="none" height="44" id="EitherKind" rx="1.5" ry="1.5" style="stroke:#C6A0F6;stroke-width:2.0;" width="101.8203" x="798.32" y="85"/><ellipse cx="811.32" cy="99" fill="#FFFFFF" rx="9" ry="9" style="stroke:#000000;stroke-width:1.0;"/><path d="M808.3278,96.2754 L808.3278,94.752 L813.5368,94.752 L813.5368,96.2754 L811.7966,96.2754 L811.7966,101.9766 L813.5368,101.9766 L813.5368,103.5 L808.3278,103.5 L808.3278,101.9766 L810.068,101.9766 L810.068,96.2754 Z " fill="#CAD3F5"/><text fill="#A6DA95" font-family="Helvetica" font-size="16" font-style="italic" lengthAdjust="spacing" textLength="73.8203" x="823.32" y="103.3203">EitherKind</text><line style="stroke:#C6A0F6;stroke-width:2.0;" x1="799.32" x2="899.1403" y1="113" y2="113"/><line style="stroke:#C6A0F6;stroke-width:2.0;" x1="799.32" x2="899.1403" y1="121" y2="121"/></g><!--class EitherKindHelper--><g id="elem_EitherKindHelper"><rect codeLine="36" fill="#24273A" height="92" id="EitherKindHelper" rx="1.5" ry="1.5" style="stroke:#C6A0F6;stroke-width:2.0;" width="448.4531" x="12" y="61"/><rect fill="#363A4F" height="28" rx="1.5" ry="1.5" style="stroke:#363A4F;stroke-width:2.0;" width="448.4531" x="12" y="61"/><rect fill="#363A4F" height="1.5" style="stroke:#363A4F;stroke-width:2.0;" width="448.4531" x="12" y="87.5"/><rect codeLine="36" fill="none" height="92" id="EitherKindHelper" rx="1.5" ry="1.5" style="stroke:#C6A0F6;stroke-width:2.0;" width="448.4531" x="12" y="61"/><ellipse cx="172" cy="75" fill="#FFFFFF" rx="9" ry="9" style="stroke:#000000;stroke-width:1.0;"/><path d="M173.834,79.248 Q173.4238,79.459 172.9727,79.5645 Q172.5215,79.6699 172.0234,79.6699 Q170.2539,79.6699 169.3223,78.5039 Q168.3906,77.3379 168.3906,75.1348 Q168.3906,72.9258 169.3223,71.7598 Q170.2539,70.5938 172.0234,70.5938 Q172.5215,70.5938 172.9785,70.6992 Q173.4355,70.8047 173.834,71.0156 L173.834,72.9375 Q173.3887,72.5273 172.9697,72.3369 Q172.5508,72.1465 172.1055,72.1465 Q171.1563,72.1465 170.6729,72.8994 Q170.1895,73.6523 170.1895,75.1348 Q170.1895,76.6113 170.6729,77.3643 Q171.1563,78.1172 172.1055,78.1172 Q172.5508,78.1172 172.9697,77.9268 Q173.3887,77.7363 173.834,77.3262 Z " fill="#CAD3F5"/><text fill="#A6DA95" font-family="Helvetica" font-size="16" lengthAdjust="spacing" textLength="120.9531" x="189.5" y="79.3203">EitherKindHelper</text><line style="stroke:#C6A0F6;stroke-width:2.0;" x1="13" x2="459.4531" y1="89" y2="89"/><line style="stroke:#C6A0F6;stroke-width:2.0;" x1="13" x2="459.4531" y1="97" y2="97"/><ellipse cx="23" cy="108.5" fill="#FFFFFF" rx="3" ry="3" style="stroke:#000000;stroke-width:1.0;"/><text fill="#A6DA95" font-family="Helvetica" font-size="12" lengthAdjust="spacing" text-decoration="underline" textLength="316.8223" x="30" y="110.2402">wrap(either: Either&lt;L,R&gt;): Kind&lt;EitherKind.Witness&lt;L&gt;, R&gt;</text><ellipse cx="23" cy="120.5" fill="#FFFFFF" rx="3" ry="3" style="stroke:#000000;stroke-width:1.0;"/><text fill="#A6DA95" font-family="Helvetica" font-size="12" lengthAdjust="spacing" text-decoration="underline" textLength="322.166" x="30" y="122.2402">unwrap(kind: Kind&lt;EitherKind.Witness&lt;L&gt;, R&gt;): Either&lt;L,R&gt;</text><ellipse cx="23" cy="132.5" fill="#FFFFFF" rx="3" ry="3" style="stroke:#000000;stroke-width:1.0;"/><text fill="#A6DA95" font-family="Helvetica" font-size="12" lengthAdjust="spacing" text-decoration="underline" textLength="424.4414" x="30" y="134.2402">left(monad: MonadError&lt;F,L&gt;, error: L): Kind&lt;F,R&gt; ' This is more for EitherT.left</text><ellipse cx="23" cy="144.5" fill="#FFFFFF" rx="3" ry="3" style="stroke:#000000;stroke-width:1.0;"/><text fill="#A6DA95" font-family="Helvetica" font-size="12" lengthAdjust="spacing" text-decoration="underline" textLength="424.4531" x="30" y="146.2402">right(monad: Monad&lt;F&gt;, value: R): Kind&lt;F,R&gt;      ' This is more for EitherT.right</text></g><path d="M495.34,69 L495.34,82 L346.8223,107 L495.34,90 L495.34,103 A0,0 0 0 0 495.34,103 L747.7443,103 A0,0 0 0 0 747.7443,103 L747.7443,79 L737.7443,69 L495.34,69 A0,0 0 0 0 495.34,69 " fill="#EED49F" style="stroke:#24273A;stroke-width:1.0;"/><path d="M737.7443,69 L737.7443,79 L747.7443,79 L737.7443,69 " fill="#EED49F" style="stroke:#24273A;stroke-width:1.0;"/><text fill="#24273A" font-family="Helvetica" font-size="12" lengthAdjust="spacing" textLength="213.3926" x="501.34" y="83.2402">`wrap` effectively casts `Either` to `Kind`</text><text fill="#24273A" font-family="Helvetica" font-size="12" lengthAdjust="spacing" textLength="231.4043" x="501.34" y="95.2402">as `Either` directly implements `EitherKind`.</text><path d="M495.34,113 L495.34,120 L352.166,119 L495.34,128 L495.34,135 A0,0 0 0 0 495.34,135 L763.1134,135 A0,0 0 0 0 763.1134,135 L763.1134,123 L753.1134,113 L495.34,113 A0,0 0 0 0 495.34,113 " fill="#EED49F" style="stroke:#24273A;stroke-width:1.0;"/><path d="M753.1134,113 L753.1134,123 L763.1134,123 L753.1134,113 " fill="#EED49F" style="stroke:#24273A;stroke-width:1.0;"/><text fill="#24273A" font-family="Helvetica" font-size="12" lengthAdjust="spacing" textLength="246.7734" x="501.34" y="127.2402">`unwrap` checks `instanceof Either` and casts.</text><!--class Either<L, R>--><g id="elem_Either&lt;L, R&gt;"><rect fill="#24273A" height="44" id="Either&lt;L, R&gt;" rx="1.5" ry="1.5" style="stroke:#C6A0F6;stroke-width:2.0;" width="117.8281" x="177.31" y="281"/><rect fill="#363A4F" height="28" rx="1.5" ry="1.5" style="stroke:#363A4F;stroke-width:2.0;" width="117.8281" x="177.31" y="281"/><rect fill="#363A4F" height="1.5" style="stroke:#363A4F;stroke-width:2.0;" width="117.8281" x="177.31" y="307.5"/><rect fill="none" height="44" id="Either&lt;L, R&gt;" rx="1.5" ry="1.5" style="stroke:#C6A0F6;stroke-width:2.0;" width="117.8281" x="177.31" y="281"/><ellipse cx="190.31" cy="295" fill="#FFFFFF" rx="9" ry="9" style="stroke:#000000;stroke-width:1.0;"/><path d="M192.144,299.248 Q191.7338,299.459 191.2827,299.5645 Q190.8315,299.6699 190.3334,299.6699 Q188.5639,299.6699 187.6323,298.5039 Q186.7006,297.3379 186.7006,295.1348 Q186.7006,292.9258 187.6323,291.7598 Q188.5639,290.5938 190.3334,290.5938 Q190.8315,290.5938 191.2885,290.6992 Q191.7455,290.8047 192.144,291.0156 L192.144,292.9375 Q191.6987,292.5273 191.2797,292.3369 Q190.8608,292.1465 190.4155,292.1465 Q189.4663,292.1465 188.9829,292.8994 Q188.4995,293.6523 188.4995,295.1348 Q188.4995,296.6113 188.9829,297.3643 Q189.4663,298.1172 190.4155,298.1172 Q190.8608,298.1172 191.2797,297.9268 Q191.6987,297.7363 192.144,297.3262 Z " fill="#CAD3F5"/><text fill="#A6DA95" font-family="Helvetica" font-size="16" lengthAdjust="spacing" textLength="89.8281" x="202.31" y="299.3203">Either&lt;L, R&gt;</text><line style="stroke:#C6A0F6;stroke-width:2.0;" x1="178.31" x2="294.1381" y1="309" y2="309"/><line style="stroke:#C6A0F6;stroke-width:2.0;" x1="178.31" x2="294.1381" y1="317" y2="317"/></g><!--reverse link EitherKind to EitherInterface--><g id="link_EitherKind_EitherInterface"><path d="M876.4245,143.4052 C894.3745,166.7752 913.36,191.5 940.27,226.55 " fill="none" id="EitherKind-backto-EitherInterface" style="stroke:#F5BDE6;stroke-width:1.0;"/><polygon fill="none" points="865.46,129.13,871.6661,147.06,881.1829,139.7504,865.46,129.13" style="stroke:#F5BDE6;stroke-width:1.0;"/></g><!--reverse link Either to LeftRecord--><g id="link_Either_LeftRecord"><path d="M1318.6888,145.0754 C1301.1488,178.5654 1285.28,228.18 1275.17,268.24 " fill="none" id="Either-backto-LeftRecord" style="stroke:#F5BDE6;stroke-width:1.0;stroke-dasharray:7.0,7.0;"/><polygon fill="none" points="1327.04,129.13,1313.3736,142.2917,1324.0039,147.8592,1327.04,129.13" style="stroke:#F5BDE6;stroke-width:1.0;"/></g><!--reverse link Either to LeftRecord--><g id="link_Either_LeftRecord"><path codeLine="32" d="M1340.6695,146.7883 C1334.0495,180.2783 1314.45,228.18 1295.65,268.24 " fill="none" id="Either-backto-LeftRecord-1" style="stroke:#F5BDE6;stroke-width:1.0;"/><polygon fill="none" points="1344.16,129.13,1334.7834,145.6248,1346.5556,147.9518,1344.16,129.13" style="stroke:#F5BDE6;stroke-width:1.0;"/></g><!--reverse link Either to RightRecord--><g id="link_Either_RightRecord"><path d="M1345.7805,146.7883 C1352.4005,180.2783 1372.01,228.18 1390.81,268.24 " fill="none" id="Either-backto-RightRecord" style="stroke:#F5BDE6;stroke-width:1.0;stroke-dasharray:7.0,7.0;"/><polygon fill="none" points="1342.29,129.13,1339.8944,147.9518,1351.6666,145.6248,1342.29,129.13" style="stroke:#F5BDE6;stroke-width:1.0;"/></g><!--reverse link Either to RightRecord--><g id="link_Either_RightRecord"><path codeLine="33" d="M1367.765,145.0735 C1385.315,178.5635 1401.17,228.18 1411.28,268.24 " fill="none" id="Either-backto-RightRecord-1" style="stroke:#F5BDE6;stroke-width:1.0;"/><polygon fill="none" points="1359.41,129.13,1362.4505,147.8585,1373.0795,142.2885,1359.41,129.13" style="stroke:#F5BDE6;stroke-width:1.0;"/></g><!--link EitherKindHelper to Either<L, R>--><g id="link_EitherKindHelper_Either&lt;L, R&gt;"><path codeLine="50" d="M236.23,153.48 C236.23,193.58 236.23,244.21 236.23,274.66 " fill="none" id="EitherKindHelper-to-Either&lt;L, R&gt;" style="stroke:#F5BDE6;stroke-width:1.0;stroke-dasharray:7.0,7.0;"/><polygon fill="#F5BDE6" points="236.23,280.66,240.23,271.66,236.23,275.66,232.23,271.66,236.23,280.66" style="stroke:#F5BDE6;stroke-width:1.0;"/><text fill="#CAD3F5" font-family="Helvetica" font-size="12" lengthAdjust="spacing" textLength="68.6836" x="237.23" y="193.2402">casts to/from</text></g><!--link EitherKind to Kind--><g id="link_EitherKind_Kind"><path codeLine="52" d="M833,129.13 C804.41,166.35 756.3535,228.9141 727.6235,266.3241 " fill="none" id="EitherKind-to-Kind" style="stroke:#F5BDE6;stroke-width:1.0;"/><polygon fill="none" points="716.66,280.6,732.3822,269.9786,722.8649,262.6696,716.66,280.6" style="stroke:#F5BDE6;stroke-width:1.0;"/></g><!--SRC=[ZLJBRgim4Dtp5TDiRgeRO8zGf2uIjIhjWgJgyk8w9bWrDZAc3xNzzpksWP14QeiKPJoFS-PbNvYArGmQGRWCBhYaejing8nfsYIEDNcDzjnKtLFNCasLD4oQYAewbbIrXeISnfIOfkaevJAi2QKL9qQ5Y2TDLulGmSSreiTEZ1hK1e7XHZ1O8JJJQRR8bx1zRnXiZEwewJG38dTmVRk56wJSQsAuaa4GS3pfab06irikT-dwt-FDzdwrsIpWQZa3qe9L1_O3c3YFH91xDw-u6JtO6rQs6_GEssNrWJW0V-43YpMSVa76IkDD0gLv1Yz4TEpor2td-whtqrQSvyUEJqe9HYJmrWBEpzKEODHdi6V6UuAfj7fjuLvjEbgj1FPKcjKRPOthaVVFhNyFyQk0z6493r0giPklEqcj1RD_y5NUaQPXUW6Z9RSMLvSt3MccETPx62eUQjBC9s6zwjkGKX0BEmqxSfWYVDavDuG-aprEsGrS4W6yRdoPRc_QMJz6AaZRmgmVuR0AzfWpglGEqbGx0Jb6YFPeIuTzoCw6ZxbCE8Rv3oJkVCxo4qr-lZiZb_tv64W_mt1InubXmktkXK_niEdNJ60xprVzLUCKc7DBfjbT9kwMfGU4w94RoTespPQsubEWJZgeP_JyAVJoYEaKo5svMac2E7VsRwMrqkbwOOEPbHF8XlJMjf5_O5ln5kyJr0fVbLBf7dyRMR1J0dzNfmpf6g5T-nF8Zw3Tzms-m-hd99LX7XnKUTRw9B7zSRaKLYg0bIN3vNzXuXqeQN4x2XzKW55GsD32-PE9PSTnhmn6J9QgE70L4KRW8-UI-KLEVce-AoyNG2j6dn6LI-oOf6mCBDo3xL8zeXbNSR9eKRGyVP4JcFaoZOfBhUfP41p280m_b_t3_Xy0]--></g></svg>