<svg xmlns="http://www.w3.org/2000/svg" xmlns:xlink="http://www.w3.org/1999/xlink" contentStyleType="text/css" height="943px" preserveAspectRatio="none" style="width:1894px;height:943px;background:#24273A;" version="1.1" viewBox="0 0 1894 943" width="1894px" zoomAndPan="magnify"><defs/><g><rect fill="#24273A" height="943" style="stroke:none;stroke-width:1.0;" width="1894" x="0" y="0"/><!--class Kind--><g id="elem_Kind"><rect codeLine="6" fill="#24273A" height="56" id="Kind" rx="1.5" ry="1.5" style="stroke:#C6A0F6;stroke-width:2.0;" width="150.041" x="1385.73" y="640"/><rect fill="#363A4F" height="30" rx="1.5" ry="1.5" style="stroke:#363A4F;stroke-width:2.0;" width="150.041" x="1385.73" y="640"/><rect fill="#363A4F" height="1.5" style="stroke:#363A4F;stroke-width:2.0;" width="150.041" x="1385.73" y="668.5"/><rect codeLine="6" fill="none" height="56" id="Kind" rx="1.5" ry="1.5" style="stroke:#C6A0F6;stroke-width:2.0;" width="150.041" x="1385.73" y="640"/><ellipse cx="1399.73" cy="655" fill="#B4A7E5" rx="10" ry="10" style="stroke:#181818;stroke-width:1.0;"/><path d="M1396.7378,652.2754 L1396.7378,650.752 L1401.9468,650.752 L1401.9468,652.2754 L1400.2066,652.2754 L1400.2066,657.9766 L1401.9468,657.9766 L1401.9468,659.5 L1396.7378,659.5 L1396.7378,657.9766 L1398.478,657.9766 L1398.478,652.2754 Z " fill="#CAD3F5"/><text fill="#A6DA95" font-family="Helvetica" font-size="16" font-style="italic" lengthAdjust="spacing" textLength="32.0234" x="1412.73" y="659.3203">Kind</text><rect fill="#24273A" height="14" style="stroke:#C6A0F6;stroke-width:1.0;stroke-dasharray:2.0,2.0;" width="86.0176" x="1452.7534" y="637"/><text fill="#CAD3F5" font-family="Helvetica" font-size="12" font-style="italic" lengthAdjust="spacing" textLength="84.0176" x="1453.7534" y="647.2402">WITNESS, VAL</text><line style="stroke:#C6A0F6;stroke-width:2.0;" x1="1386.73" x2="1534.771" y1="670" y2="670"/><line style="stroke:#C6A0F6;stroke-width:1.0;stroke-dasharray:1.0,2.0;" x1="1386.73" x2="1437.7378" y1="684" y2="684"/><text fill="#A6DA95" font-family="Helvetica" font-size="12" lengthAdjust="spacing" textLength="46.0254" x="1437.7378" y="686.7402">methods</text><line style="stroke:#C6A0F6;stroke-width:1.0;stroke-dasharray:1.0,2.0;" x1="1483.7632" x2="1534.771" y1="684" y2="684"/></g><g id="elem_GMN3"><path d="M1571.21,658.5 L1571.21,664 L1536.19,668 L1571.21,672 L1571.21,677.5 A1.5,1.5 0 0 0 1572.71,679 L1792.7881,679 A1.5,1.5 0 0 0 1794.2881,677.5 L1794.2881,667 L1784.2881,657 L1572.71,657 A1.5,1.5 0 0 0 1571.21,658.5 " fill="#EED49F" style="stroke:#24273A;stroke-width:0.5;"/><path d="M1784.2881,657 L1784.2881,666.25 A0.75,0.75 0 0 0 1785.0381,667 L1794.2881,667 L1784.2881,657 " fill="#EED49F" style="stroke:#24273A;stroke-width:0.5;"/><text fill="#24273A" font-family="Helvetica" font-size="12" lengthAdjust="spacing" textLength="202.0781" x="1577.21" y="671.2402">Generic Kind interface from HKJ core.</text></g><!--class Monad--><g id="elem_Monad"><rect codeLine="11" fill="#24273A" height="50" id="Monad" rx="1.5" ry="1.5" style="stroke:#C6A0F6;stroke-width:2.0;" width="327.498" x="7" y="467"/><rect fill="#363A4F" height="30" rx="1.5" ry="1.5" style="stroke:#363A4F;stroke-width:2.0;" width="327.498" x="7" y="467"/><rect fill="#363A4F" height="1.5" style="stroke:#363A4F;stroke-width:2.0;" width="327.498" x="7" y="495.5"/><rect codeLine="11" fill="none" height="50" id="Monad" rx="1.5" ry="1.5" style="stroke:#C6A0F6;stroke-width:2.0;" width="327.498" x="7" y="467"/><ellipse cx="136.623" cy="482" fill="#B4A7E5" rx="10" ry="10" style="stroke:#181818;stroke-width:1.0;"/><path d="M133.6309,479.2754 L133.6309,477.752 L138.8398,477.752 L138.8398,479.2754 L137.0996,479.2754 L137.0996,484.9766 L138.8398,484.9766 L138.8398,486.5 L133.6309,486.5 L133.6309,484.9766 L135.3711,484.9766 L135.3711,479.2754 Z " fill="#CAD3F5"/><text fill="#A6DA95" font-family="Helvetica" font-size="16" font-style="italic" lengthAdjust="spacing" textLength="48.9219" x="155.623" y="486.3203">Monad</text><rect fill="#24273A" height="14" style="stroke:#C6A0F6;stroke-width:1.0;stroke-dasharray:2.0,2.0;" width="9.3301" x="328.168" y="464"/><text fill="#CAD3F5" font-family="Helvetica" font-size="12" font-style="italic" lengthAdjust="spacing" textLength="7.3301" x="329.168" y="474.2402">F</text><line style="stroke:#C6A0F6;stroke-width:2.0;" x1="8" x2="333.498" y1="497" y2="497"/><text fill="#A6DA95" font-family="Helvetica" font-size="12" lengthAdjust="spacing" textLength="315.498" x="13" y="510.2402">flatMap(Function&lt;A, Kind&lt;F, B&gt;&gt;, Kind&lt;F, A&gt;): Kind&lt;F, B&gt;</text></g><!--class Applicative--><g id="elem_Applicative"><rect fill="#24273A" height="30" id="Applicative" rx="1.5" ry="1.5" style="stroke:#C6A0F6;stroke-width:2.0;" width="107.375" x="112.06" y="261"/><rect fill="#363A4F" height="30" rx="1.5" ry="1.5" style="stroke:#363A4F;stroke-width:2.0;" width="107.375" x="112.06" y="261"/><rect fill="#363A4F" height="1.5" style="stroke:#363A4F;stroke-width:2.0;" width="107.375" x="112.06" y="289.5"/><rect fill="none" height="30" id="Applicative" rx="1.5" ry="1.5" style="stroke:#C6A0F6;stroke-width:2.0;" width="107.375" x="112.06" y="261"/><ellipse cx="126.06" cy="276" fill="#B4A7E5" rx="10" ry="10" style="stroke:#181818;stroke-width:1.0;"/><path d="M123.0678,273.2754 L123.0678,271.752 L128.2768,271.752 L128.2768,273.2754 L126.5366,273.2754 L126.5366,278.9766 L128.2768,278.9766 L128.2768,280.5 L123.0678,280.5 L123.0678,278.9766 L124.808,278.9766 L124.808,273.2754 Z " fill="#CAD3F5"/><text fill="#A6DA95" font-family="Helvetica" font-size="16" font-style="italic" lengthAdjust="spacing" textLength="77.375" x="139.06" y="280.3203">Applicative</text></g><g id="elem_GMN9"><path d="M369.87,482.5 L369.87,488 L334.82,492 L369.87,496 L369.87,501.5 A1.5,1.5 0 0 0 371.37,503 L604.122,503 A1.5,1.5 0 0 0 605.622,501.5 L605.622,491 L595.622,481 L371.37,481 A1.5,1.5 0 0 0 369.87,482.5 " fill="#EED49F" style="stroke:#24273A;stroke-width:0.5;"/><path d="M595.622,481 L595.622,490.25 A0.75,0.75 0 0 0 596.372,491 L605.622,491 L595.622,481 " fill="#EED49F" style="stroke:#24273A;stroke-width:0.5;"/><text fill="#24273A" font-family="Helvetica" font-size="12" lengthAdjust="spacing" textLength="214.752" x="375.87" y="495.2402">Generic Monad interface from HKJ core.</text></g><!--class MonadError--><g id="elem_MonadError"><rect codeLine="16" fill="#24273A" height="62" id="MonadError" rx="1.5" ry="1.5" style="stroke:#C6A0F6;stroke-width:2.0;" width="374.8477" x="488.33" y="637"/><rect fill="#363A4F" height="30" rx="1.5" ry="1.5" style="stroke:#363A4F;stroke-width:2.0;" width="374.8477" x="488.33" y="637"/><rect fill="#363A4F" height="1.5" style="stroke:#363A4F;stroke-width:2.0;" width="374.8477" x="488.33" y="665.5"/><rect codeLine="16" fill="none" height="62" id="MonadError" rx="1.5" ry="1.5" style="stroke:#C6A0F6;stroke-width:2.0;" width="374.8477" x="488.33" y="637"/><ellipse cx="616.5146" cy="652" fill="#B4A7E5" rx="10" ry="10" style="stroke:#181818;stroke-width:1.0;"/><path d="M613.5224,649.2754 L613.5224,647.752 L618.7314,647.752 L618.7314,649.2754 L616.9911,649.2754 L616.9911,654.9766 L618.7314,654.9766 L618.7314,656.5 L613.5224,656.5 L613.5224,654.9766 L615.2626,654.9766 L615.2626,649.2754 Z " fill="#CAD3F5"/><text fill="#A6DA95" font-family="Helvetica" font-size="16" font-style="italic" lengthAdjust="spacing" textLength="84.4766" x="635.5146" y="656.3203">MonadError</text><rect fill="#24273A" height="14" style="stroke:#C6A0F6;stroke-width:1.0;stroke-dasharray:2.0,2.0;" width="24.002" x="842.1757" y="634"/><text fill="#CAD3F5" font-family="Helvetica" font-size="12" font-style="italic" lengthAdjust="spacing" textLength="22.002" x="843.1757" y="644.2402">F, E</text><line style="stroke:#C6A0F6;stroke-width:2.0;" x1="489.33" x2="862.1777" y1="667" y2="667"/><text fill="#A6DA95" font-family="Helvetica" font-size="12" lengthAdjust="spacing" textLength="135.375" x="494.33" y="680.2402">raiseError(E): Kind&lt;F, A&gt;</text><text fill="#A6DA95" font-family="Helvetica" font-size="12" lengthAdjust="spacing" textLength="362.8477" x="494.33" y="692.2402">handleErrorWith(Kind&lt;F, A&gt;, Function&lt;E, Kind&lt;F, A&gt;&gt;): Kind&lt;F, A&gt;</text></g><g id="elem_GMN14"><path d="M898.54,658.5 L898.54,664 L863.47,668 L898.54,672 L898.54,677.5 A1.5,1.5 0 0 0 900.04,679 L1159.458,679 A1.5,1.5 0 0 0 1160.958,677.5 L1160.958,667 L1150.958,657 L900.04,657 A1.5,1.5 0 0 0 898.54,658.5 " fill="#EED49F" style="stroke:#24273A;stroke-width:0.5;"/><path d="M1150.958,657 L1150.958,666.25 A0.75,0.75 0 0 0 1151.708,667 L1160.958,667 L1150.958,657 " fill="#EED49F" style="stroke:#24273A;stroke-width:0.5;"/><text fill="#24273A" font-family="Helvetica" font-size="12" lengthAdjust="spacing" textLength="241.418" x="904.54" y="671.2402">Generic MonadError interface from HKJ core.</text></g><!--class EitherT--><g id="elem_EitherT"><rect codeLine="23" fill="#24273A" height="142" id="EitherT" rx="1.5" ry="1.5" style="stroke:#C6A0F6;stroke-width:2.0;" width="315.7832" x="1492.86" y="421"/><rect fill="#363A4F" height="30" rx="1.5" ry="1.5" style="stroke:#363A4F;stroke-width:2.0;" width="315.7832" x="1492.86" y="421"/><rect fill="#363A4F" height="1.5" style="stroke:#363A4F;stroke-width:2.0;" width="315.7832" x="1492.86" y="449.5"/><rect codeLine="23" fill="none" height="142" id="EitherT" rx="1.5" ry="1.5" style="stroke:#C6A0F6;stroke-width:2.0;" width="315.7832" x="1492.86" y="421"/><ellipse cx="1600.9635" cy="436" fill="#ADD1B2" rx="10" ry="10" style="stroke:#181818;stroke-width:1.0;"/><path d="M1602.7975,440.248 Q1602.3873,440.459 1601.9362,440.5645 Q1601.485,440.6699 1600.987,440.6699 Q1599.2174,440.6699 1598.2858,439.5039 Q1597.3541,438.3379 1597.3541,436.1348 Q1597.3541,433.9258 1598.2858,432.7598 Q1599.2174,431.5938 1600.987,431.5938 Q1601.485,431.5938 1601.942,431.6992 Q1602.3991,431.8047 1602.7975,432.0156 L1602.7975,433.9375 Q1602.3522,433.5273 1601.9332,433.3369 Q1601.5143,433.1465 1601.069,433.1465 Q1600.1198,433.1465 1599.6364,433.8994 Q1599.153,434.6523 1599.153,436.1348 Q1599.153,437.6113 1599.6364,438.3643 Q1600.1198,439.1172 1601.069,439.1172 Q1601.5143,439.1172 1601.9332,438.9268 Q1602.3522,438.7363 1602.7975,438.3262 Z " fill="#CAD3F5"/><text fill="#A6DA95" font-family="Helvetica" font-size="16" lengthAdjust="spacing" textLength="51.5703" x="1619.9635" y="440.3203">EitherT</text><rect fill="#24273A" height="14" style="stroke:#C6A0F6;stroke-width:1.0;stroke-dasharray:2.0,2.0;" width="38.0059" x="1773.6373" y="418"/><text fill="#CAD3F5" font-family="Helvetica" font-size="12" font-style="italic" lengthAdjust="spacing" textLength="36.0059" x="1774.6373" y="428.2402">F, L, R</text><line style="stroke:#C6A0F6;stroke-width:2.0;" x1="1493.86" x2="1807.6432" y1="451" y2="451"/><ellipse cx="1503.86" cy="462.5" fill="none" rx="3" ry="3" style="stroke:#038048;stroke-width:1.0;"/><text fill="#A6DA95" font-family="Helvetica" font-size="12" lengthAdjust="spacing" textLength="154.7578" x="1511.86" y="464.2402">value: Kind&lt;F, Either&lt;L, R&gt;&gt;</text><line style="stroke:#C6A0F6;stroke-width:2.0;" x1="1493.86" x2="1807.6432" y1="471" y2="471"/><ellipse cx="1503.86" cy="482.5" fill="#84BE84" rx="3" ry="3" style="stroke:#038048;stroke-width:1.0;"/><text fill="#A6DA95" font-family="Helvetica" font-size="12" lengthAdjust="spacing" textLength="166.0723" x="1511.86" y="484.2402">EitherT(Kind&lt;F, Either&lt;L, R&gt;&gt;)</text><ellipse cx="1503.86" cy="494.5" fill="#84BE84" rx="3" ry="3" style="stroke:#038048;stroke-width:1.0;"/><text fill="#A6DA95" font-family="Helvetica" font-size="12" lengthAdjust="spacing" text-decoration="underline" textLength="270.7793" x="1511.86" y="496.2402">fromKind(Kind&lt;F, Either&lt;L, R&gt;&gt;): EitherT&lt;F, L, R&gt;</text><ellipse cx="1503.86" cy="506.5" fill="#84BE84" rx="3" ry="3" style="stroke:#038048;stroke-width:1.0;"/><text fill="#A6DA95" font-family="Helvetica" font-size="12" lengthAdjust="spacing" text-decoration="underline" textLength="200.0742" x="1511.86" y="508.2402">right(Monad&lt;F&gt;, R): EitherT&lt;F, L, R&gt;</text><ellipse cx="1503.86" cy="518.5" fill="#84BE84" rx="3" ry="3" style="stroke:#038048;stroke-width:1.0;"/><text fill="#A6DA95" font-family="Helvetica" font-size="12" lengthAdjust="spacing" text-decoration="underline" textLength="190.7461" x="1511.86" y="520.2402">left(Monad&lt;F&gt;, L): EitherT&lt;F, L, R&gt;</text><ellipse cx="1503.86" cy="530.5" fill="#84BE84" rx="3" ry="3" style="stroke:#038048;stroke-width:1.0;"/><text fill="#A6DA95" font-family="Helvetica" font-size="12" lengthAdjust="spacing" text-decoration="underline" textLength="290.7832" x="1511.86" y="532.2402">fromEither(Monad&lt;F&gt;, Either&lt;L, R&gt;): EitherT&lt;F, L, R&gt;</text><ellipse cx="1503.86" cy="542.5" fill="#84BE84" rx="3" ry="3" style="stroke:#038048;stroke-width:1.0;"/><text fill="#A6DA95" font-family="Helvetica" font-size="12" lengthAdjust="spacing" text-decoration="underline" textLength="248.0918" x="1511.86" y="544.2402">liftF(Monad&lt;F&gt;, Kind&lt;F, R&gt;): EitherT&lt;F, L, R&gt;</text><ellipse cx="1503.86" cy="554.5" fill="#84BE84" rx="3" ry="3" style="stroke:#038048;stroke-width:1.0;"/><text fill="#A6DA95" font-family="Helvetica" font-size="12" lengthAdjust="spacing" textLength="162.75" x="1511.86" y="556.2402">value(): Kind&lt;F, Either&lt;L, R&gt;&gt;</text></g><!--class EitherTKind--><g id="elem_EitherTKind"><rect codeLine="34" fill="#24273A" height="56" id="EitherTKind" rx="1.5" ry="1.5" style="stroke:#C6A0F6;stroke-width:2.0;" width="153.5996" x="1441.95" y="773"/><rect fill="#363A4F" height="30" rx="1.5" ry="1.5" style="stroke:#363A4F;stroke-width:2.0;" width="153.5996" x="1441.95" y="773"/><rect fill="#363A4F" height="1.5" style="stroke:#363A4F;stroke-width:2.0;" width="153.5996" x="1441.95" y="801.5"/><rect codeLine="34" fill="none" height="56" id="EitherTKind" rx="1.5" ry="1.5" style="stroke:#C6A0F6;stroke-width:2.0;" width="153.5996" x="1441.95" y="773"/><ellipse cx="1455.95" cy="788" fill="#B4A7E5" rx="10" ry="10" style="stroke:#181818;stroke-width:1.0;"/><path d="M1452.9578,785.2754 L1452.9578,783.752 L1458.1668,783.752 L1458.1668,785.2754 L1456.4266,785.2754 L1456.4266,790.9766 L1458.1668,790.9766 L1458.1668,792.5 L1452.9578,792.5 L1452.9578,790.9766 L1454.698,790.9766 L1454.698,785.2754 Z " fill="#CAD3F5"/><text fill="#A6DA95" font-family="Helvetica" font-size="16" font-style="italic" lengthAdjust="spacing" textLength="83.5938" x="1468.95" y="792.3203">EitherTKind</text><rect fill="#24273A" height="14" style="stroke:#C6A0F6;stroke-width:1.0;stroke-dasharray:2.0,2.0;" width="38.0059" x="1560.5438" y="770"/><text fill="#CAD3F5" font-family="Helvetica" font-size="12" font-style="italic" lengthAdjust="spacing" textLength="36.0059" x="1561.5438" y="780.2402">F, L, R</text><line style="stroke:#C6A0F6;stroke-width:2.0;" x1="1442.95" x2="1594.5496" y1="803" y2="803"/><line style="stroke:#C6A0F6;stroke-width:1.0;stroke-dasharray:1.0,2.0;" x1="1442.95" x2="1485.7352" y1="817" y2="817"/><text fill="#A6DA95" font-family="Helvetica" font-size="12" lengthAdjust="spacing" textLength="66.0293" x="1485.7352" y="819.7402">witness type</text><line style="stroke:#C6A0F6;stroke-width:1.0;stroke-dasharray:1.0,2.0;" x1="1551.7645" x2="1594.5496" y1="817" y2="817"/></g><g id="elem_GMN20"><path d="M1348.5,891.5 L1348.5,934.5 A1.5,1.5 0 0 0 1350,936 L1687.5,936 A1.5,1.5 0 0 0 1689,934.5 L1689,900 L1679,890 L1522.75,890 L1518.75,829.47 L1514.75,890 L1350,890 A1.5,1.5 0 0 0 1348.5,891.5 " fill="#EED49F" style="stroke:#24273A;stroke-width:0.5;"/><path d="M1679,890 L1679,899.25 A0.75,0.75 0 0 0 1679.75,900 L1689,900 L1679,890 " fill="#EED49F" style="stroke:#24273A;stroke-width:0.5;"/><text fill="#24273A" font-family="Helvetica" font-size="12" lengthAdjust="spacing" textLength="140.7246" x="1354.5" y="904.2402">F: Witness of outer monad</text><text fill="#24273A" font-family="Helvetica" font-size="12" lengthAdjust="spacing" textLength="137.4141" x="1354.5" y="916.2402">L: Left type of inner Either</text><text fill="#24273A" font-family="Helvetica" font-size="12" lengthAdjust="spacing" textLength="319.5" x="1354.5" y="928.2402">R: Right type of inner Either (the value type A in Kind&lt;G,A&gt;)</text></g><!--class EitherTKindHelper--><g id="elem_EitherTKindHelper"><rect codeLine="45" fill="#24273A" height="118" id="EitherTKindHelper" rx="1.5" ry="1.5" style="stroke:#C6A0F6;stroke-width:2.0;" width="439.1699" x="746.16" y="433"/><rect fill="#363A4F" height="30" rx="1.5" ry="1.5" style="stroke:#363A4F;stroke-width:2.0;" width="439.1699" x="746.16" y="433"/><rect fill="#363A4F" height="1.5" style="stroke:#363A4F;stroke-width:2.0;" width="439.1699" x="746.16" y="461.5"/><rect codeLine="45" fill="none" height="118" id="EitherTKindHelper" rx="1.5" ry="1.5" style="stroke:#C6A0F6;stroke-width:2.0;" width="439.1699" x="746.16" y="433"/><ellipse cx="884.0457" cy="448" fill="#ADD1B2" rx="10" ry="10" style="stroke:#181818;stroke-width:1.0;"/><path d="M885.8797,452.248 Q885.4696,452.459 885.0184,452.5645 Q884.5672,452.6699 884.0692,452.6699 Q882.2996,452.6699 881.368,451.5039 Q880.4364,450.3379 880.4364,448.1348 Q880.4364,445.9258 881.368,444.7598 Q882.2996,443.5938 884.0692,443.5938 Q884.5672,443.5938 885.0243,443.6992 Q885.4813,443.8047 885.8797,444.0156 L885.8797,445.9375 Q885.4344,445.5273 885.0155,445.3369 Q884.5965,445.1465 884.1512,445.1465 Q883.202,445.1465 882.7186,445.8994 Q882.2352,446.6523 882.2352,448.1348 Q882.2352,449.6113 882.7186,450.3643 Q883.202,451.1172 884.1512,451.1172 Q884.5965,451.1172 885.0155,450.9268 Q885.4344,450.7363 885.8797,450.3262 Z " fill="#CAD3F5"/><text fill="#A6DA95" font-family="Helvetica" font-size="16" lengthAdjust="spacing" textLength="130.7266" x="903.0457" y="452.3203">EitherTKindHelper</text><rect fill="#24273A" height="14" style="stroke:#C6A0F6;stroke-width:1.0;stroke-dasharray:2.0,2.0;" width="22.6719" x="1165.658" y="430"/><text fill="#CAD3F5" font-family="Helvetica" font-size="12" font-style="italic" lengthAdjust="spacing" textLength="20.6719" x="1166.658" y="440.2402">F, L</text><line style="stroke:#C6A0F6;stroke-width:2.0;" x1="747.16" x2="1184.3299" y1="463" y2="463"/><ellipse cx="757.16" cy="474.5" fill="none" rx="3" ry="3" style="stroke:#038048;stroke-width:1.0;"/><text fill="#A6DA95" font-family="Helvetica" font-size="12" lengthAdjust="spacing" text-decoration="underline" textLength="191.4023" x="765.16" y="476.2402">INVALID_KIND_NULL_MSG: String</text><ellipse cx="757.16" cy="486.5" fill="none" rx="3" ry="3" style="stroke:#038048;stroke-width:1.0;"/><text fill="#A6DA95" font-family="Helvetica" font-size="12" lengthAdjust="spacing" text-decoration="underline" textLength="192.0645" x="765.16" y="488.2402">INVALID_KIND_TYPE_MSG: String</text><ellipse cx="757.16" cy="498.5" fill="none" rx="3" ry="3" style="stroke:#038048;stroke-width:1.0;"/><text fill="#A6DA95" font-family="Helvetica" font-size="12" lengthAdjust="spacing" text-decoration="underline" textLength="220.7344" x="765.16" y="500.2402">INVALID_HOLDER_STATE_MSG: String</text><line style="stroke:#C6A0F6;stroke-width:2.0;" x1="747.16" x2="1184.3299" y1="507" y2="507"/><rect fill="#F24D5C" height="6" style="stroke:#C82930;stroke-width:1.0;" width="6" x="754.16" y="515.5"/><text fill="#A6DA95" font-family="Helvetica" font-size="12" lengthAdjust="spacing" textLength="106.0371" x="765.16" y="520.2402">EitherTKindHelper()</text><ellipse cx="757.16" cy="530.5" fill="#84BE84" rx="3" ry="3" style="stroke:#038048;stroke-width:1.0;"/><text fill="#A6DA95" font-family="Helvetica" font-size="12" lengthAdjust="spacing" text-decoration="underline" textLength="414.1699" x="765.16" y="532.2402">unwrap(Kind&lt;EitherTKind.Witness&lt;F_IN, L_IN&gt;, R&gt;): EitherT&lt;F_IN, L_IN, R&gt;</text><ellipse cx="757.16" cy="542.5" fill="#84BE84" rx="3" ry="3" style="stroke:#038048;stroke-width:1.0;"/><text fill="#A6DA95" font-family="Helvetica" font-size="12" lengthAdjust="spacing" text-decoration="underline" textLength="316.7813" x="765.16" y="544.2402">wrap(EitherT&lt;F_IN, L_IN, R&gt;): EitherTKind&lt;F_IN, L_IN, R&gt;</text></g><g id="elem_GMN25"><path d="M1219.86,482.5 L1219.86,488 L1185.76,492 L1219.86,496 L1219.86,501.5 A1.5,1.5 0 0 0 1221.36,503 L1456.1452,503 A1.5,1.5 0 0 0 1457.6452,501.5 L1457.6452,491 L1447.6452,481 L1221.36,481 A1.5,1.5 0 0 0 1219.86,482.5 " fill="#EED49F" style="stroke:#24273A;stroke-width:0.5;"/><path d="M1447.6452,481 L1447.6452,490.25 A0.75,0.75 0 0 0 1448.3952,491 L1457.6452,491 L1447.6452,481 " fill="#EED49F" style="stroke:#24273A;stroke-width:0.5;"/><text fill="#24273A" font-family="Helvetica" font-size="12" lengthAdjust="spacing" textLength="216.7852" x="1225.86" y="495.2402">Utility for safe wrapping and unwrapping.</text></g><!--class EitherTMonad--><g id="elem_EitherTMonad"><rect codeLine="56" fill="#24273A" height="142" id="EitherTMonad" rx="1.5" ry="1.5" style="stroke:#C6A0F6;stroke-width:2.0;" width="852.6836" x="254.41" y="205"/><rect fill="#363A4F" height="30" rx="1.5" ry="1.5" style="stroke:#363A4F;stroke-width:2.0;" width="852.6836" x="254.41" y="205"/><rect fill="#363A4F" height="1.5" style="stroke:#363A4F;stroke-width:2.0;" width="852.6836" x="254.41" y="233.5"/><rect codeLine="56" fill="none" height="142" id="EitherTMonad" rx="1.5" ry="1.5" style="stroke:#C6A0F6;stroke-width:2.0;" width="852.6836" x="254.41" y="205"/><ellipse cx="614.1698" cy="220" fill="#ADD1B2" rx="10" ry="10" style="stroke:#181818;stroke-width:1.0;"/><path d="M616.0038,224.248 Q615.5936,224.459 615.1424,224.5645 Q614.6913,224.6699 614.1932,224.6699 Q612.4237,224.6699 611.492,223.5039 Q610.5604,222.3379 610.5604,220.1348 Q610.5604,217.9258 611.492,216.7598 Q612.4237,215.5938 614.1932,215.5938 Q614.6913,215.5938 615.1483,215.6992 Q615.6053,215.8047 616.0038,216.0156 L616.0038,217.9375 Q615.5584,217.5273 615.1395,217.3369 Q614.7205,217.1465 614.2752,217.1465 Q613.326,217.1465 612.8426,217.8994 Q612.3592,218.6523 612.3592,220.1348 Q612.3592,221.6113 612.8426,222.3643 Q613.326,223.1172 614.2752,223.1172 Q614.7205,223.1172 615.1395,222.9268 Q615.5584,222.7363 616.0038,222.3262 Z " fill="#CAD3F5"/><text fill="#A6DA95" font-family="Helvetica" font-size="16" lengthAdjust="spacing" textLength="100.4922" x="633.1698" y="224.3203">EitherTMonad</text><rect fill="#24273A" height="14" style="stroke:#C6A0F6;stroke-width:1.0;stroke-dasharray:2.0,2.0;" width="22.6719" x="1087.4217" y="202"/><text fill="#CAD3F5" font-family="Helvetica" font-size="12" font-style="italic" lengthAdjust="spacing" textLength="20.6719" x="1088.4217" y="212.2402">F, L</text><line style="stroke:#C6A0F6;stroke-width:2.0;" x1="255.41" x2="1106.0936" y1="235" y2="235"/><rect fill="none" height="6" style="stroke:#C82930;stroke-width:1.0;" width="6" x="262.41" y="243.5"/><text fill="#A6DA95" font-family="Helvetica" font-size="12" lengthAdjust="spacing" textLength="128.748" x="273.41" y="248.2402">outerMonad: Monad&lt;F&gt;</text><line style="stroke:#C6A0F6;stroke-width:2.0;" x1="255.41" x2="1106.0936" y1="255" y2="255"/><ellipse cx="265.41" cy="266.5" fill="#84BE84" rx="3" ry="3" style="stroke:#038048;stroke-width:1.0;"/><text fill="#A6DA95" font-family="Helvetica" font-size="12" lengthAdjust="spacing" textLength="141.3984" x="273.41" y="268.2402">EitherTMonad(Monad&lt;F&gt;)</text><ellipse cx="265.41" cy="278.5" fill="#84BE84" rx="3" ry="3" style="stroke:#038048;stroke-width:1.0;"/><text fill="#A6DA95" font-family="Helvetica" font-size="12" lengthAdjust="spacing" textLength="230.0918" x="273.41" y="280.2402">of(R): Kind&lt;EitherTKind.Witness&lt;F, L&gt;, R&gt;</text><ellipse cx="265.41" cy="290.5" fill="#84BE84" rx="3" ry="3" style="stroke:#038048;stroke-width:1.0;"/><text fill="#A6DA95" font-family="Helvetica" font-size="12" lengthAdjust="spacing" textLength="623.584" x="273.41" y="292.2402">map(Function&lt;R_IN, R_OUT&gt;, Kind&lt;EitherTKind.Witness&lt;F, L&gt;, R_IN&gt;): Kind&lt;EitherTKind.Witness&lt;F, L&gt;, R_OUT&gt;</text><ellipse cx="265.41" cy="302.5" fill="#84BE84" rx="3" ry="3" style="stroke:#038048;stroke-width:1.0;"/><text fill="#A6DA95" font-family="Helvetica" font-size="12" lengthAdjust="spacing" textLength="801.6797" x="273.41" y="304.2402">ap(Kind&lt;EitherTKind.Witness&lt;F, L&gt;, Function&lt;R_IN, R_OUT&gt;&gt;, Kind&lt;EitherTKind.Witness&lt;F, L&gt;, R_IN&gt;): Kind&lt;EitherTKind.Witness&lt;F, L&gt;, R_OUT&gt;</text><ellipse cx="265.41" cy="314.5" fill="#84BE84" rx="3" ry="3" style="stroke:#038048;stroke-width:1.0;"/><text fill="#A6DA95" font-family="Helvetica" font-size="12" lengthAdjust="spacing" textLength="827.6836" x="273.41" y="316.2402">flatMap(Function&lt;R_IN, Kind&lt;EitherTKind.Witness&lt;F, L&gt;, R_OUT&gt;&gt;, Kind&lt;EitherTKind.Witness&lt;F, L&gt;, R_IN&gt;): Kind&lt;EitherTKind.Witness&lt;F, L&gt;, R_OUT&gt;</text><ellipse cx="265.41" cy="326.5" fill="#84BE84" rx="3" ry="3" style="stroke:#038048;stroke-width:1.0;"/><text fill="#A6DA95" font-family="Helvetica" font-size="12" lengthAdjust="spacing" textLength="270.7676" x="273.41" y="328.2402">raiseError(L): Kind&lt;EitherTKind.Witness&lt;F, L&gt;, R&gt;</text><ellipse cx="265.41" cy="338.5" fill="#84BE84" rx="3" ry="3" style="stroke:#038048;stroke-width:1.0;"/><text fill="#A6DA95" font-family="Helvetica" font-size="12" lengthAdjust="spacing" textLength="771.6855" x="273.41" y="340.2402">handleErrorWith(Kind&lt;EitherTKind.Witness&lt;F, L&gt;, R&gt;, Function&lt;L, Kind&lt;EitherTKind.Witness&lt;F, L&gt;, R&gt;&gt;): Kind&lt;EitherTKind.Witness&lt;F, L&gt;, R&gt;</text></g><g id="elem_GMN30"><path d="M560.88,61.5 L560.88,92.5 A1.5,1.5 0 0 0 562.38,94 L676.75,94 L680.75,204.77 L684.75,94 L799.128,94 A1.5,1.5 0 0 0 800.628,92.5 L800.628,70 L790.628,60 L562.38,60 A1.5,1.5 0 0 0 560.88,61.5 " fill="#EED49F" style="stroke:#24273A;stroke-width:0.5;"/><path d="M790.628,60 L790.628,69.25 A0.75,0.75 0 0 0 791.378,70 L800.628,70 L790.628,60 " fill="#EED49F" style="stroke:#24273A;stroke-width:0.5;"/><text fill="#24273A" font-family="Helvetica" font-size="12" lengthAdjust="spacing" textLength="140.7246" x="566.88" y="74.2402">F: Witness of outer monad</text><text fill="#24273A" font-family="Helvetica" font-size="12" lengthAdjust="spacing" textLength="218.748" x="566.88" y="86.2402">L: Left type (Error type E for MonadError)</text></g><!--class Either--><g id="elem_Either"><rect codeLine="77" fill="#24273A" height="134" id="Either" rx="1.5" ry="1.5" style="stroke:#C6A0F6;stroke-width:2.0;" width="282.8086" x="835.34" y="10"/><rect fill="#363A4F" height="30" rx="1.5" ry="1.5" style="stroke:#363A4F;stroke-width:2.0;" width="282.8086" x="835.34" y="10"/><rect fill="#363A4F" height="1.5" style="stroke:#363A4F;stroke-width:2.0;" width="282.8086" x="835.34" y="38.5"/><rect codeLine="77" fill="none" height="134" id="Either" rx="1.5" ry="1.5" style="stroke:#C6A0F6;stroke-width:2.0;" width="282.8086" x="835.34" y="10"/><ellipse cx="940.5089" cy="25" fill="#B4A7E5" rx="10" ry="10" style="stroke:#181818;stroke-width:1.0;"/><path d="M937.5168,22.2754 L937.5168,20.752 L942.7257,20.752 L942.7257,22.2754 L940.9855,22.2754 L940.9855,27.9766 L942.7257,27.9766 L942.7257,29.5 L937.5168,29.5 L937.5168,27.9766 L939.257,27.9766 L939.257,22.2754 Z " fill="#CAD3F5"/><text fill="#A6DA95" font-family="Helvetica" font-size="16" font-style="italic" lengthAdjust="spacing" textLength="41.7969" x="959.5089" y="29.3203">Either</text><rect fill="#24273A" height="14" style="stroke:#C6A0F6;stroke-width:1.0;stroke-dasharray:2.0,2.0;" width="20.6738" x="1100.4748" y="7"/><text fill="#CAD3F5" font-family="Helvetica" font-size="12" font-style="italic" lengthAdjust="spacing" textLength="18.6738" x="1101.4748" y="17.2402">L,R</text><line style="stroke:#C6A0F6;stroke-width:2.0;" x1="836.34" x2="1117.1486" y1="40" y2="40"/><text fill="#A6DA95" font-family="Helvetica" font-size="12" lengthAdjust="spacing" textLength="86.0508" x="841.34" y="53.2402">isLeft(): boolean</text><text fill="#A6DA95" font-family="Helvetica" font-size="12" lengthAdjust="spacing" textLength="94.0488" x="841.34" y="65.2402">isRight(): boolean</text><text fill="#A6DA95" font-family="Helvetica" font-size="12" lengthAdjust="spacing" textLength="58.0313" x="841.34" y="77.2402">getLeft(): L</text><text fill="#A6DA95" font-family="Helvetica" font-size="12" lengthAdjust="spacing" textLength="68.0215" x="841.34" y="89.2402">getRight(): R</text><text fill="#A6DA95" font-family="Helvetica" font-size="12" lengthAdjust="spacing" textLength="199.4297" x="841.34" y="101.2402">map(Function&lt;R, R2&gt;): Either&lt;L,R2&gt;</text><text fill="#A6DA95" font-family="Helvetica" font-size="12" lengthAdjust="spacing" textLength="270.8086" x="841.34" y="113.2402">flatMap(Function&lt;R, Either&lt;L,R2&gt;&gt;): Either&lt;L,R2&gt;</text><text fill="#A6DA95" font-family="Helvetica" font-size="12" lengthAdjust="spacing" text-decoration="underline" textLength="101.3789" x="841.34" y="125.2402">left(L): Either&lt;L,R&gt;</text><text fill="#A6DA95" font-family="Helvetica" font-size="12" lengthAdjust="spacing" text-decoration="underline" textLength="110.707" x="841.34" y="137.2402">right(R): Either&lt;L,R&gt;</text></g><g id="elem_GMN38"><path d="M1153.23,67.5 L1153.23,73 L1118.58,77 L1153.23,81 L1153.23,86.5 A1.5,1.5 0 0 0 1154.73,88 L1262.771,88 A1.5,1.5 0 0 0 1264.271,86.5 L1264.271,76 L1254.271,66 L1154.73,66 A1.5,1.5 0 0 0 1153.23,67.5 " fill="#EED49F" style="stroke:#24273A;stroke-width:0.5;"/><path d="M1254.271,66 L1254.271,75.25 A0.75,0.75 0 0 0 1255.021,76 L1264.271,76 L1254.271,66 " fill="#EED49F" style="stroke:#24273A;stroke-width:0.5;"/><text fill="#24273A" font-family="Helvetica" font-size="12" lengthAdjust="spacing" textLength="90.041" x="1159.23" y="80.2402">Core Either type.</text></g><!--reverse link Applicative to Monad--><g id="link_Applicative_Monad"><path d="M166.505,309.365 C167.355,345.355 169.13,421.66 170.18,466.56 " fill="none" id="Applicative-backto-Monad" style="stroke:#F5BDE6;stroke-width:1.0;"/><polygon fill="none" points="166.08,291.37,160.5067,309.5066,172.5033,309.2233,166.08,291.37" style="stroke:#F5BDE6;stroke-width:1.0;"/></g><!--reverse link Monad to MonadError--><g id="link_Monad_MonadError"><path d="M248.2697,523.9415 C283.4897,537.8015 312.05,548.63 352.75,563 C427.19,589.28 512.2,616.54 576.31,636.56 " fill="none" id="Monad-backto-MonadError" style="stroke:#F5BDE6;stroke-width:1.0;"/><polygon fill="none" points="231.52,517.35,246.0726,529.5247,250.4669,518.3582,231.52,517.35" style="stroke:#F5BDE6;stroke-width:1.0;"/></g><!--reverse link Kind to EitherTKind--><g id="link_Kind_EitherTKind"><path d="M1471.5051,713.7793 C1475.2151,728.0293 1475.99,728.11 1482.75,743 C1487.35,753.12 1493.49,763.58 1499.4,772.74 " fill="none" id="Kind-backto-EitherTKind" style="stroke:#F5BDE6;stroke-width:1.0;"/><polygon fill="none" points="1466.97,696.36,1465.6987,715.291,1477.3116,712.2676,1466.97,696.36" style="stroke:#F5BDE6;stroke-width:1.0;"/></g><!--reverse link Kind to EitherTKind--><g id="link_Kind_EitherTKind"><path codeLine="91" d="M1480.1973,712.9189 C1490.0973,735.2789 1496.71,750.23 1506.61,772.57 " fill="none" id="Kind-backto-EitherTKind-1" style="stroke:#F5BDE6;stroke-width:1.0;"/><polygon fill="none" points="1472.91,696.46,1474.711,715.348,1485.6836,710.4898,1472.91,696.46" style="stroke:#F5BDE6;stroke-width:1.0;"/><text fill="#CAD3F5" font-family="Helvetica" font-size="12" lengthAdjust="spacing" textLength="163.3945" x="1494.22" y="739.2402">(EitherTKind is a specific Kind)</text></g><!--link EitherT to EitherTKind--><g id="link_EitherT_EitherTKind"><path codeLine="43" d="M1759.96,563.33 C1807.08,602.61 1844.69,652.8 1811.75,699 C1763.1,767.23 1683.0926,787.9601 1613.8726,795.1901 " fill="none" id="EitherT-to-EitherTKind" style="stroke:#F5BDE6;stroke-width:1.0;stroke-dasharray:7.0,7.0;"/><polygon fill="none" points="1595.97,797.06,1614.4959,801.1576,1613.2493,789.2225,1595.97,797.06" style="stroke:#F5BDE6;stroke-width:1.0;"/><text fill="#CAD3F5" font-family="Helvetica" font-size="12" lengthAdjust="spacing" textLength="61.3535" x="1825.19" y="671.2402">implements</text></g><!--reverse link MonadError to EitherTMonad--><g id="link_MonadError_EitherTMonad"><path d="M685.6704,618.8218 C692.8904,557.0718 693.59,433.14 690.21,347.17 " fill="none" id="MonadError-backto-EitherTMonad" style="stroke:#F5BDE6;stroke-width:1.0;stroke-dasharray:7.0,7.0;"/><polygon fill="none" points="683.58,636.7,691.6298,619.5186,679.711,618.125,683.58,636.7" style="stroke:#F5BDE6;stroke-width:1.0;"/></g><!--link EitherTMonad to MonadError--><g id="link_EitherTMonad_MonadError"><path codeLine="74" d="M669.49,347.17 C663.9,433.14 661.4228,557.0246 667.0628,618.7746 " fill="none" id="EitherTMonad-to-MonadError" style="stroke:#F5BDE6;stroke-width:1.0;"/><polygon fill="none" points="668.7,636.7,673.0379,618.2289,661.0876,619.3204,668.7,636.7" style="stroke:#F5BDE6;stroke-width:1.0;"/></g><!--link EitherTMonad to EitherTKindHelper--><g id="link_EitherTMonad_EitherTKindHelper"><path codeLine="71" d="M774.46,347.37 C811.29,375.02 848.2616,402.7878 883.3616,429.1378 " fill="none" id="EitherTMonad-to-EitherTKindHelper" style="stroke:#F5BDE6;stroke-width:1.0;stroke-dasharray:7.0,7.0;"/><polygon fill="#F5BDE6" points="888.16,432.74,883.3639,424.1378,884.1614,429.7382,878.561,430.5356,888.16,432.74" style="stroke:#F5BDE6;stroke-width:1.0;"/><text fill="#CAD3F5" font-family="Helvetica" font-size="12" lengthAdjust="spacing" textLength="114.7207" x="832.79" y="387.2402">uses for wrap/unwrap</text></g><!--link EitherTMonad to EitherT--><g id="link_EitherTMonad_EitherT"><path codeLine="72" d="M1107.49,338.3 C1227.42,359.86 1357.16,387.32 1474.75,421 C1480.6,422.68 1480.8043,422.6448 1486.7543,424.5448 " fill="none" id="EitherTMonad-to-EitherT" style="stroke:#F5BDE6;stroke-width:1.0;stroke-dasharray:7.0,7.0;"/><polygon fill="#F5BDE6" points="1492.47,426.37,1485.1133,419.8218,1487.707,424.849,1482.6797,427.4427,1492.47,426.37" style="stroke:#F5BDE6;stroke-width:1.0;"/><text fill="#CAD3F5" font-family="Helvetica" font-size="12" lengthAdjust="spacing" textLength="107.3906" x="1348.07" y="387.2402">creates/manipulates</text></g><!--link EitherTMonad to Monad--><g id="link_EitherTMonad_Monad"><path codeLine="73" d="M480.43,347.47 C455.47,357.02 430.42,366.99 406.75,377 C339.9,405.26 270.083,439.8302 222.913,463.9302 " fill="none" id="EitherTMonad-to-Monad" style="stroke:#F5BDE6;stroke-width:1.0;stroke-dasharray:7.0,7.0;"/><polygon fill="#F5BDE6" points="217.57,466.66,227.4044,466.1272,222.0225,464.3851,223.7646,459.0032,217.57,466.66" style="stroke:#F5BDE6;stroke-width:1.0;"/><text fill="#CAD3F5" font-family="Helvetica" font-size="12" lengthAdjust="spacing" textLength="224.1445" x="407.75" y="387.2402">(depends on instance of outer Monad&lt;F&gt;)</text></g><!--reverse link EitherT to Kind--><g id="link_EitherT_Kind"><path codeLine="90" d="M1565.1708,571.375 C1535.9208,598.165 1513.12,619.04 1490.73,639.55 " fill="none" id="EitherT-backto-Kind" style="stroke:#F5BDE6;stroke-width:1.0;"/><polygon fill="#F5BDE6" points="1574.02,563.27,1566.8937,564.3728,1565.1708,571.375,1572.297,570.2722,1574.02,563.27" style="stroke:#F5BDE6;stroke-width:1.0;"/><text fill="#CAD3F5" font-family="Helvetica" font-size="12" lengthAdjust="spacing" textLength="131.4082" x="1539.73" y="603.2402">(value field holds a Kind)</text><text fill="#CAD3F5" font-family="Helvetica" font-size="12" lengthAdjust="spacing" textLength="6.6738" x="1490.7055" y="629.2543">1</text></g><!--SRC=[jLVTR-es57_dh_3widGZGRkF4Oh4LcXPKpe1tTMUa0aEM7DiAt7QNTtsVz-ndGz30g8Fzm6K-FpEyU_uV3a_KPwmSaVGGIbPXADHZj-2FLM7SbiM94y4LuIh817PY2UYKDYdoIZ1IieoIIZtCvma1ugLy2N3N9KPyzM1P6IKOSf7vZ6Gi3eO72ZiGZAflg6CP5kI5uF1024A6-GfJWXwf7mt_ZfVBwQhrH3zFOaZz1q020K1QAY3s1Nm22iVyED24PJJ_K4XaHhL4DqJJdAQc3V7RfgB33qy_eaIaPFWUCydmV5kF8iG-G_yX0qcKZ8A_j5NefSjWPHXzOIbDojvegZWuydGifqDqUzHrBvCejlGaVHoDLksPCthPzXEyrpaslwqPTsuOVdcc1R4uBofGsWI6Ua1ynspugyGQAyL3r7ZuTHrAZerSiOhO_F4DRDsmJ-mb31S56WAN4Y-rdl4GxIiVVaLlM9MafQ0nOqD9geWbQxNYxcjGDyXUnLDFWm5ZJm33pjKJWqOhxtwq05nXGuZgQiINw6YULgCe-XolMPRcggPerwxV4dP7BXtU_x8FuxJiZ9JestqwjGqgmuYW9pZf2WCCd823LN-PaL8VPFafDItGYb87CWqnvRHcuMeCgcbeWHMADF-6caSeXXEtfe4EUMGcvKD0rY6Q6cIk0-1FFYtvs7b4n1Rb-w74vDPuAHXg8-aeWRKtoEN9meHpII3NiXLqSbuZNWWJ9BSdacJ-4qGvmleXlExpUDySRTPlCJnvcbr7wALoYdVNmIl__bhUWtuuJc-coutg_LatSNxNQPUfwXA_fP3YpmVxiry0Tx1VtIQVOsaBu6DrNveQyEctgcTRfVg-16Y5qKPXPcKGfSgS4hCXX9SHz0cAw_qQq-hgghAnAoDhzkbB-Hz4sVVvcmr5kfAFMviPhMfulhiHUejwogzM64LFdD7sDAUq-RvPLstXKisTDoksSlOg_Qxc0uMtqldH_7fZ76xwNKsVXGfPrR7dmbcxnI_gEYSTdo5Cr5qBPscpfIGJfKzDKtu4otQi_S5ypmrHTcMqvbsQszGGH1roniQBznY2sD75_B8rlC5NT18Se8LAU06owaicNxkKx1F8V9sH9f99pWC1sXRF26jcsxD7fdm_VV8ySrqb-vGXKWr0rAB2trIUZHlXM04yrPWXbYFP4zKhHCxQmryMIyUTmS8xPUsmMeQNw8QsQsZuH7kdDxnNIW-GdL1zfArx45zcF- -pXwYF-1MMGzldKIsRTV1_SNtqSrlDwWQofwTx2abR8SEWa4GiP7fQ1dC-DttJoQvvxvIhL58aj2q-l2urVlzZ9O43WdEfZXGMK1ONmLxrKDbR-_6e0OyuUig8LALc1aTO_5cTeCapZ5yyH1zRwvt7xeqXiUvP5Yqnk3In_yr5fM0AUPc8l98i0_WbFIuKdZBoAnKPKwiqMUfAMDc_VWV]--></g></svg>