<svg xmlns="http://www.w3.org/2000/svg" xmlns:xlink="http://www.w3.org/1999/xlink" contentStyleType="text/css" height="322px" preserveAspectRatio="none" style="width:1476px;height:322px;background:#24273A;" version="1.1" viewBox="0 0 1476 322" width="1476px" zoomAndPan="magnify"><defs/><g><rect fill="#24273A" height="322" style="stroke:none;stroke-width:1.0;" width="1476" x="0" y="0"/><!--cluster internal implementations--><g id="cluster_internal implementations"><path d="M1202.23,6 L1347.2554,6 A2.25,2.25 0 0 1 1348.7554,7.5 L1355.7554,24 L1468.23,24 A1.5,1.5 0 0 1 1469.73,25.5 L1469.73,285.5 A1.5,1.5 0 0 1 1468.23,287 L1202.23,287 A1.5,1.5 0 0 1 1200.73,285.5 L1200.73,7.5 A1.5,1.5 0 0 1 1202.23,6 " fill="#24273A" style="stroke:#CAD3F5;stroke-width:1.5;"/><line style="stroke:#CAD3F5;stroke-width:1.5;" x1="1200.73" x2="1355.7554" y1="24" y2="24"/><text fill="#CAD3F5" font-family="Helvetica" font-size="12" font-weight="bold" lengthAdjust="spacing" textLength="142.0254" x="1204.73" y="17.2402">internal implementations</text></g><!--class LeftRecord--><g id="elem_LeftRecord"><rect codeLine="22" fill="#24273A" height="58" id="LeftRecord" rx="1.5" ry="1.5" style="stroke:#C6A0F6;stroke-width:2.0;" width="99.3691" x="1217.04" y="213"/><rect fill="#363A4F" height="38" rx="1.5" ry="1.5" style="stroke:#363A4F;stroke-width:2.0;" width="99.3691" x="1217.04" y="213"/><rect fill="#363A4F" height="1.5" style="stroke:#363A4F;stroke-width:2.0;" width="99.3691" x="1217.04" y="249.5"/><rect codeLine="22" fill="none" height="58" id="LeftRecord" rx="1.5" ry="1.5" style="stroke:#C6A0F6;stroke-width:2.0;" width="99.3691" x="1217.04" y="213"/><ellipse cx="1231.04" cy="232" fill="#ADD1B2" rx="10" ry="10" style="stroke:#181818;stroke-width:1.0;"/><path d="M1232.874,236.248 Q1232.4638,236.459 1232.0127,236.5645 Q1231.5615,236.6699 1231.0634,236.6699 Q1229.2939,236.6699 1228.3623,235.5039 Q1227.4306,234.3379 1227.4306,232.1348 Q1227.4306,229.9258 1228.3623,228.7598 Q1229.2939,227.5938 1231.0634,227.5938 Q1231.5615,227.5938 1232.0185,227.6992 Q1232.4755,227.8047 1232.874,228.0156 L1232.874,229.9375 Q1232.4287,229.5273 1232.0097,229.3369 Q1231.5908,229.1465 1231.1455,229.1465 Q1230.1963,229.1465 1229.7129,229.8994 Q1229.2295,230.6523 1229.2295,232.1348 Q1229.2295,233.6113 1229.7129,234.3643 Q1230.1963,235.1172 1231.1455,235.1172 Q1231.5908,235.1172 1232.0097,234.9268 Q1232.4287,234.7363 1232.874,234.3262 Z " fill="#CAD3F5"/><text fill="#CAD3F5" font-family="Helvetica" font-size="12" font-style="italic" lengthAdjust="spacing" textLength="47.3613" x="1242.04" y="227.2402">&#171;record&#187;</text><text fill="#A6DA95" font-family="Helvetica" font-size="16" lengthAdjust="spacing" textLength="26.6875" x="1252.3769" y="242.3203">Left</text><rect fill="#24273A" height="14" style="stroke:#C6A0F6;stroke-width:1.0;stroke-dasharray:2.0,2.0;" width="24.0078" x="1295.4013" y="210"/><text fill="#CAD3F5" font-family="Helvetica" font-size="12" font-style="italic" lengthAdjust="spacing" textLength="22.0078" x="1296.4013" y="220.2402">L, R</text><line style="stroke:#C6A0F6;stroke-width:2.0;" x1="1218.04" x2="1315.4091" y1="251" y2="251"/><ellipse cx="1228.04" cy="262.5" fill="#84BE84" rx="3" ry="3" style="stroke:#038048;stroke-width:1.0;"/><text fill="#A6DA95" font-family="Helvetica" font-size="12" lengthAdjust="spacing" textLength="66.7031" x="1236.04" y="264.2402">Left(L value)</text></g><!--class Either--><g id="elem_Either"><rect fill="#24273A" height="30" id="Either" rx="1.5" ry="1.5" style="stroke:#C6A0F6;stroke-width:2.0;" width="71.7969" x="1298.83" y="37"/><rect fill="#363A4F" height="30" rx="1.5" ry="1.5" style="stroke:#363A4F;stroke-width:2.0;" width="71.7969" x="1298.83" y="37"/><rect fill="#363A4F" height="1.5" style="stroke:#363A4F;stroke-width:2.0;" width="71.7969" x="1298.83" y="65.5"/><rect fill="none" height="30" id="Either" rx="1.5" ry="1.5" style="stroke:#C6A0F6;stroke-width:2.0;" width="71.7969" x="1298.83" y="37"/><ellipse cx="1312.83" cy="52" fill="#B4A7E5" rx="10" ry="10" style="stroke:#181818;stroke-width:1.0;"/><path d="M1309.8378,49.2754 L1309.8378,47.752 L1315.0468,47.752 L1315.0468,49.2754 L1313.3066,49.2754 L1313.3066,54.9766 L1315.0468,54.9766 L1315.0468,56.5 L1309.8378,56.5 L1309.8378,54.9766 L1311.578,54.9766 L1311.578,49.2754 Z " fill="#CAD3F5"/><text fill="#A6DA95" font-family="Helvetica" font-size="16" font-style="italic" lengthAdjust="spacing" textLength="41.7969" x="1325.83" y="56.3203">Either</text></g><!--class RightRecord--><g id="elem_RightRecord"><rect codeLine="25" fill="#24273A" height="58" id="RightRecord" rx="1.5" ry="1.5" style="stroke:#C6A0F6;stroke-width:2.0;" width="101.6934" x="1351.88" y="213"/><rect fill="#363A4F" height="38" rx="1.5" ry="1.5" style="stroke:#363A4F;stroke-width:2.0;" width="101.6934" x="1351.88" y="213"/><rect fill="#363A4F" height="1.5" style="stroke:#363A4F;stroke-width:2.0;" width="101.6934" x="1351.88" y="249.5"/><rect codeLine="25" fill="none" height="58" id="RightRecord" rx="1.5" ry="1.5" style="stroke:#C6A0F6;stroke-width:2.0;" width="101.6934" x="1351.88" y="213"/><ellipse cx="1366.9259" cy="232" fill="#ADD1B2" rx="10" ry="10" style="stroke:#181818;stroke-width:1.0;"/><path d="M1368.7599,236.248 Q1368.3497,236.459 1367.8986,236.5645 Q1367.4474,236.6699 1366.9493,236.6699 Q1365.1798,236.6699 1364.2482,235.5039 Q1363.3165,234.3379 1363.3165,232.1348 Q1363.3165,229.9258 1364.2482,228.7598 Q1365.1798,227.5938 1366.9493,227.5938 Q1367.4474,227.5938 1367.9044,227.6992 Q1368.3614,227.8047 1368.7599,228.0156 L1368.7599,229.9375 Q1368.3146,229.5273 1367.8956,229.3369 Q1367.4767,229.1465 1367.0314,229.1465 Q1366.0821,229.1465 1365.5988,229.8994 Q1365.1154,230.6523 1365.1154,232.1348 Q1365.1154,233.6113 1365.5988,234.3643 Q1366.0821,235.1172 1367.0314,235.1172 Q1367.4767,235.1172 1367.8956,234.9268 Q1368.3146,234.7363 1368.7599,234.3262 Z " fill="#CAD3F5"/><text fill="#CAD3F5" font-family="Helvetica" font-size="12" font-style="italic" lengthAdjust="spacing" textLength="47.3613" x="1378.1583" y="227.2402">&#171;record&#187;</text><text fill="#A6DA95" font-family="Helvetica" font-size="16" lengthAdjust="spacing" textLength="37.3516" x="1383.1632" y="242.3203">Right</text><rect fill="#24273A" height="14" style="stroke:#C6A0F6;stroke-width:1.0;stroke-dasharray:2.0,2.0;" width="24.0078" x="1432.5655" y="210"/><text fill="#CAD3F5" font-family="Helvetica" font-size="12" font-style="italic" lengthAdjust="spacing" textLength="22.0078" x="1433.5655" y="220.2402">L, R</text><line style="stroke:#C6A0F6;stroke-width:2.0;" x1="1352.88" x2="1452.5734" y1="251" y2="251"/><ellipse cx="1362.88" cy="262.5" fill="#84BE84" rx="3" ry="3" style="stroke:#038048;stroke-width:1.0;"/><text fill="#A6DA95" font-family="Helvetica" font-size="12" lengthAdjust="spacing" textLength="76.6934" x="1370.88" y="264.2402">Right(R value)</text></g><!--class Kind--><g id="elem_Kind"><rect codeLine="4" fill="#24273A" height="30" id="Kind" rx="1.5" ry="1.5" style="stroke:#C6A0F6;stroke-width:2.0;" width="149.3672" x="623.04" y="227"/><rect fill="#363A4F" height="30" rx="1.5" ry="1.5" style="stroke:#363A4F;stroke-width:2.0;" width="149.3672" x="623.04" y="227"/><rect fill="#363A4F" height="1.5" style="stroke:#363A4F;stroke-width:2.0;" width="149.3672" x="623.04" y="255.5"/><rect codeLine="4" fill="none" height="30" id="Kind" rx="1.5" ry="1.5" style="stroke:#C6A0F6;stroke-width:2.0;" width="149.3672" x="623.04" y="227"/><ellipse cx="637.04" cy="242" fill="#B4A7E5" rx="10" ry="10" style="stroke:#181818;stroke-width:1.0;"/><path d="M634.0478,239.2754 L634.0478,237.752 L639.2568,237.752 L639.2568,239.2754 L637.5166,239.2754 L637.5166,244.9766 L639.2568,244.9766 L639.2568,246.5 L634.0478,246.5 L634.0478,244.9766 L635.788,244.9766 L635.788,239.2754 Z " fill="#CAD3F5"/><text fill="#A6DA95" font-family="Helvetica" font-size="16" font-style="italic" lengthAdjust="spacing" textLength="32.0234" x="650.04" y="246.3203">Kind</text><rect fill="#24273A" height="14" style="stroke:#C6A0F6;stroke-width:1.0;stroke-dasharray:2.0,2.0;" width="85.3438" x="690.0634" y="224"/><text fill="#CAD3F5" font-family="Helvetica" font-size="12" font-style="italic" lengthAdjust="spacing" textLength="83.3438" x="691.0634" y="234.2402">F_WITNESS, A</text></g><!--class EitherInterface--><g id="elem_EitherInterface"><rect codeLine="9" fill="#24273A" height="146" id="EitherInterface" rx="1.5" ry="1.5" style="stroke:#C6A0F6;stroke-width:2.0;" width="375.1621" x="807.15" y="169"/><rect fill="#363A4F" height="30" rx="1.5" ry="1.5" style="stroke:#363A4F;stroke-width:2.0;" width="375.1621" x="807.15" y="169"/><rect fill="#363A4F" height="1.5" style="stroke:#363A4F;stroke-width:2.0;" width="375.1621" x="807.15" y="197.5"/><rect codeLine="9" fill="none" height="146" id="EitherInterface" rx="1.5" ry="1.5" style="stroke:#C6A0F6;stroke-width:2.0;" width="375.1621" x="807.15" y="169"/><ellipse cx="956.8287" cy="184" fill="#B4A7E5" rx="10" ry="10" style="stroke:#181818;stroke-width:1.0;"/><path d="M953.8365,181.2754 L953.8365,179.752 L959.0455,179.752 L959.0455,181.2754 L957.3053,181.2754 L957.3053,186.9766 L959.0455,186.9766 L959.0455,188.5 L953.8365,188.5 L953.8365,186.9766 L955.5768,186.9766 L955.5768,181.2754 Z " fill="#CAD3F5"/><text fill="#A6DA95" font-family="Helvetica" font-size="16" font-style="italic" lengthAdjust="spacing" textLength="41.7969" x="975.8287" y="188.3203">Either</text><rect fill="#24273A" height="14" style="stroke:#C6A0F6;stroke-width:1.0;stroke-dasharray:2.0,2.0;" width="24.0078" x="1161.3043" y="166"/><text fill="#CAD3F5" font-family="Helvetica" font-size="12" font-style="italic" lengthAdjust="spacing" textLength="22.0078" x="1162.3043" y="176.2402">L, R</text><line style="stroke:#C6A0F6;stroke-width:2.0;" x1="808.15" x2="1181.3121" y1="199" y2="199"/><ellipse cx="818.15" cy="210.5" fill="#84BE84" rx="3" ry="3" style="stroke:#038048;stroke-width:1.0;"/><text fill="#A6DA95" font-family="Helvetica" font-size="12" lengthAdjust="spacing" text-decoration="underline" textLength="118.7344" x="826.15" y="212.2402">Left&lt;L,R&gt; left(L value)</text><ellipse cx="818.15" cy="222.5" fill="#84BE84" rx="3" ry="3" style="stroke:#038048;stroke-width:1.0;"/><text fill="#A6DA95" font-family="Helvetica" font-size="12" lengthAdjust="spacing" text-decoration="underline" textLength="136.0605" x="826.15" y="224.2402">Right&lt;L,R&gt; right(R value)</text><ellipse cx="818.15" cy="234.5" fill="#84BE84" rx="3" ry="3" style="stroke:#038048;stroke-width:1.0;"/><text fill="#A6DA95" font-family="Helvetica" font-size="12" lengthAdjust="spacing" textLength="82.7168" x="826.15" y="236.2402">boolean isLeft()</text><ellipse cx="818.15" cy="246.5" fill="#84BE84" rx="3" ry="3" style="stroke:#038048;stroke-width:1.0;"/><text fill="#A6DA95" font-family="Helvetica" font-size="12" lengthAdjust="spacing" textLength="90.7148" x="826.15" y="248.2402">boolean isRight()</text><ellipse cx="818.15" cy="258.5" fill="#84BE84" rx="3" ry="3" style="stroke:#038048;stroke-width:1.0;"/><text fill="#A6DA95" font-family="Helvetica" font-size="12" lengthAdjust="spacing" textLength="236.1211" x="826.15" y="260.2402">L getLeft() throws NoSuchElementException</text><ellipse cx="818.15" cy="270.5" fill="#84BE84" rx="3" ry="3" style="stroke:#038048;stroke-width:1.0;"/><text fill="#A6DA95" font-family="Helvetica" font-size="12" lengthAdjust="spacing" textLength="246.1113" x="826.15" y="272.2402">R getRight() throws NoSuchElementException</text><ellipse cx="818.15" cy="282.5" fill="#84BE84" rx="3" ry="3" style="stroke:#038048;stroke-width:1.0;"/><text fill="#A6DA95" font-family="Helvetica" font-size="12" lengthAdjust="spacing" text-decoration="underline" textLength="332.8242" x="829.484" y="284.2402">U fold(Function&lt;L,U&gt; leftMapper, Function&lt;R,U&gt; rightMapper)</text><ellipse cx="818.15" cy="294.5" fill="#84BE84" rx="3" ry="3" style="stroke:#038048;stroke-width:1.0;"/><text fill="#A6DA95" font-family="Helvetica" font-size="12" lengthAdjust="spacing" textLength="275.4492" x="826.15" y="296.2402">&lt;RR&gt; Either&lt;L,RR&gt; map(Function&lt;R,RR&gt; mapper)</text><ellipse cx="818.15" cy="306.5" fill="#84BE84" rx="3" ry="3" style="stroke:#038048;stroke-width:1.0;"/><text fill="#A6DA95" font-family="Helvetica" font-size="12" lengthAdjust="spacing" textLength="350.1621" x="826.15" y="308.2402">&lt;RR&gt; Either&lt;L,RR&gt; flatMap(Function&lt;R, Either&lt;L,RR&gt;&gt; mapper)</text></g><!--class EitherKind--><g id="elem_EitherKind"><rect fill="#24273A" height="30" id="EitherKind" rx="1.5" ry="1.5" style="stroke:#C6A0F6;stroke-width:2.0;" width="103.8203" x="794.82" y="37"/><rect fill="#363A4F" height="30" rx="1.5" ry="1.5" style="stroke:#363A4F;stroke-width:2.0;" width="103.8203" x="794.82" y="37"/><rect fill="#363A4F" height="1.5" style="stroke:#363A4F;stroke-width:2.0;" width="103.8203" x="794.82" y="65.5"/><rect fill="none" height="30" id="EitherKind" rx="1.5" ry="1.5" style="stroke:#C6A0F6;stroke-width:2.0;" width="103.8203" x="794.82" y="37"/><ellipse cx="808.82" cy="52" fill="#B4A7E5" rx="10" ry="10" style="stroke:#181818;stroke-width:1.0;"/><path d="M805.8278,49.2754 L805.8278,47.752 L811.0368,47.752 L811.0368,49.2754 L809.2966,49.2754 L809.2966,54.9766 L811.0368,54.9766 L811.0368,56.5 L805.8278,56.5 L805.8278,54.9766 L807.568,54.9766 L807.568,49.2754 Z " fill="#CAD3F5"/><text fill="#A6DA95" font-family="Helvetica" font-size="16" font-style="italic" lengthAdjust="spacing" textLength="73.8203" x="821.82" y="56.3203">EitherKind</text></g><!--class EitherKindHelper--><g id="elem_EitherKindHelper"><rect codeLine="33" fill="#24273A" height="86" id="EitherKindHelper" rx="1.5" ry="1.5" style="stroke:#C6A0F6;stroke-width:2.0;" width="449.4531" x="7" y="9"/><rect fill="#363A4F" height="30" rx="1.5" ry="1.5" style="stroke:#363A4F;stroke-width:2.0;" width="449.4531" x="7" y="9"/><rect fill="#363A4F" height="1.5" style="stroke:#363A4F;stroke-width:2.0;" width="449.4531" x="7" y="37.5"/><rect codeLine="33" fill="none" height="86" id="EitherKindHelper" rx="1.5" ry="1.5" style="stroke:#C6A0F6;stroke-width:2.0;" width="449.4531" x="7" y="9"/><ellipse cx="167.25" cy="24" fill="#ADD1B2" rx="10" ry="10" style="stroke:#181818;stroke-width:1.0;"/><path d="M169.084,28.248 Q168.6738,28.459 168.2227,28.5645 Q167.7715,28.6699 167.2734,28.6699 Q165.5039,28.6699 164.5723,27.5039 Q163.6406,26.3379 163.6406,24.1348 Q163.6406,21.9258 164.5723,20.7598 Q165.5039,19.5938 167.2734,19.5938 Q167.7715,19.5938 168.2285,19.6992 Q168.6855,19.8047 169.084,20.0156 L169.084,21.9375 Q168.6387,21.5273 168.2197,21.3369 Q167.8008,21.1465 167.3555,21.1465 Q166.4063,21.1465 165.9229,21.8994 Q165.4395,22.6523 165.4395,24.1348 Q165.4395,25.6113 165.9229,26.3643 Q166.4063,27.1172 167.3555,27.1172 Q167.8008,27.1172 168.2197,26.9268 Q168.6387,26.7363 169.084,26.3262 Z " fill="#CAD3F5"/><text fill="#A6DA95" font-family="Helvetica" font-size="16" lengthAdjust="spacing" textLength="120.9531" x="186.25" y="28.3203">EitherKindHelper</text><line style="stroke:#C6A0F6;stroke-width:2.0;" x1="8" x2="455.4531" y1="39" y2="39"/><ellipse cx="18" cy="50.5" fill="#84BE84" rx="3" ry="3" style="stroke:#038048;stroke-width:1.0;"/><text fill="#A6DA95" font-family="Helvetica" font-size="12" lengthAdjust="spacing" text-decoration="underline" textLength="316.8223" x="26" y="52.2402">wrap(either: Either&lt;L,R&gt;): Kind&lt;EitherKind.Witness&lt;L&gt;, R&gt;</text><ellipse cx="18" cy="62.5" fill="#84BE84" rx="3" ry="3" style="stroke:#038048;stroke-width:1.0;"/><text fill="#A6DA95" font-family="Helvetica" font-size="12" lengthAdjust="spacing" text-decoration="underline" textLength="322.166" x="26" y="64.2402">unwrap(kind: Kind&lt;EitherKind.Witness&lt;L&gt;, R&gt;): Either&lt;L,R&gt;</text><ellipse cx="18" cy="74.5" fill="#84BE84" rx="3" ry="3" style="stroke:#038048;stroke-width:1.0;"/><text fill="#A6DA95" font-family="Helvetica" font-size="12" lengthAdjust="spacing" text-decoration="underline" textLength="424.4414" x="26" y="76.2402">left(monad: MonadError&lt;F,L&gt;, error: L): Kind&lt;F,R&gt; ' This is more for EitherT.left</text><ellipse cx="18" cy="86.5" fill="#84BE84" rx="3" ry="3" style="stroke:#038048;stroke-width:1.0;"/><text fill="#A6DA95" font-family="Helvetica" font-size="12" lengthAdjust="spacing" text-decoration="underline" textLength="424.4531" x="26" y="88.2402">right(monad: Monad&lt;F&gt;, value: R): Kind&lt;F,R&gt;      ' This is more for EitherT.right</text></g><path d="M491.84,14 L491.84,27 L342.8223,49 L491.84,35 L491.84,48 A0,0 0 0 0 491.84,48 L744.2443,48 A0,0 0 0 0 744.2443,48 L744.2443,24 L734.2443,14 L491.84,14 A0,0 0 0 0 491.84,14 " fill="#EED49F" style="stroke:#24273A;stroke-width:0.5;"/><path d="M734.2443,14 L734.2443,24 L744.2443,24 L734.2443,14 " fill="#EED49F" style="stroke:#24273A;stroke-width:0.5;"/><text fill="#24273A" font-family="Helvetica" font-size="12" lengthAdjust="spacing" textLength="213.3926" x="497.84" y="28.2402">`wrap` effectively casts `Either` to `Kind`</text><text fill="#24273A" font-family="Helvetica" font-size="12" lengthAdjust="spacing" textLength="231.4043" x="497.84" y="40.2402">as `Either` directly implements `EitherKind`.</text><path d="M491.84,58 L491.84,65 L348.166,61 L491.84,73 L491.84,80 A0,0 0 0 0 491.84,80 L759.6134,80 A0,0 0 0 0 759.6134,80 L759.6134,68 L749.6134,58 L491.84,58 A0,0 0 0 0 491.84,58 " fill="#EED49F" style="stroke:#24273A;stroke-width:0.5;"/><path d="M749.6134,58 L749.6134,68 L759.6134,68 L749.6134,58 " fill="#EED49F" style="stroke:#24273A;stroke-width:0.5;"/><text fill="#24273A" font-family="Helvetica" font-size="12" lengthAdjust="spacing" textLength="246.7734" x="497.84" y="72.2402">`unwrap` checks `instanceof Either` and casts.</text><!--class Either<L, R>--><g id="elem_Either&lt;L, R&gt;"><rect fill="#24273A" height="30" id="Either&lt;L, R&gt;" rx="1.5" ry="1.5" style="stroke:#C6A0F6;stroke-width:2.0;" width="119.8281" x="171.81" y="227"/><rect fill="#363A4F" height="30" rx="1.5" ry="1.5" style="stroke:#363A4F;stroke-width:2.0;" width="119.8281" x="171.81" y="227"/><rect fill="#363A4F" height="1.5" style="stroke:#363A4F;stroke-width:2.0;" width="119.8281" x="171.81" y="255.5"/><rect fill="none" height="30" id="Either&lt;L, R&gt;" rx="1.5" ry="1.5" style="stroke:#C6A0F6;stroke-width:2.0;" width="119.8281" x="171.81" y="227"/><ellipse cx="185.81" cy="242" fill="#ADD1B2" rx="10" ry="10" style="stroke:#181818;stroke-width:1.0;"/><path d="M187.644,246.248 Q187.2338,246.459 186.7827,246.5645 Q186.3315,246.6699 185.8334,246.6699 Q184.0639,246.6699 183.1323,245.5039 Q182.2006,244.3379 182.2006,242.1348 Q182.2006,239.9258 183.1323,238.7598 Q184.0639,237.5938 185.8334,237.5938 Q186.3315,237.5938 186.7885,237.6992 Q187.2455,237.8047 187.644,238.0156 L187.644,239.9375 Q187.1987,239.5273 186.7797,239.3369 Q186.3608,239.1465 185.9155,239.1465 Q184.9663,239.1465 184.4829,239.8994 Q183.9995,240.6523 183.9995,242.1348 Q183.9995,243.6113 184.4829,244.3643 Q184.9663,245.1172 185.9155,245.1172 Q186.3608,245.1172 186.7797,244.9268 Q187.1987,244.7363 187.644,244.3262 Z " fill="#CAD3F5"/><text fill="#A6DA95" font-family="Helvetica" font-size="16" lengthAdjust="spacing" textLength="89.8281" x="198.81" y="246.3203">Either&lt;L, R&gt;</text></g><!--reverse link EitherKind to EitherInterface--><g id="link_EitherKind_EitherInterface"><path d="M869.2247,81.5828 C886.2147,103.1628 908.25,131.15 937.65,168.5 " fill="none" id="EitherKind-backto-EitherInterface" style="stroke:#F5BDE6;stroke-width:1.0;"/><polygon fill="none" points="858.09,67.44,864.5104,85.2944,873.9389,77.8712,858.09,67.44" style="stroke:#F5BDE6;stroke-width:1.0;"/></g><!--reverse link Either to LeftRecord--><g id="link_Either_LeftRecord"><path d="M1313.074,83.0134 C1295.084,114.0534 1276.74,172.03 1267.25,212.72 " fill="none" id="Either-backto-LeftRecord" style="stroke:#F5BDE6;stroke-width:1.0;stroke-dasharray:7.0,7.0;"/><polygon fill="none" points="1322.1,67.44,1307.8829,80.0048,1318.2652,86.0221,1322.1,67.44" style="stroke:#F5BDE6;stroke-width:1.0;"/></g><!--reverse link Either to LeftRecord--><g id="link_Either_LeftRecord"><path codeLine="29" d="M1334.3443,85.2562 C1329.8743,116.2962 1306.61,172.03 1286.66,212.72 " fill="none" id="Either-backto-LeftRecord-1" style="stroke:#F5BDE6;stroke-width:1.0;"/><polygon fill="none" points="1336.91,67.44,1328.4056,84.401,1340.2831,86.1114,1336.91,67.44" style="stroke:#F5BDE6;stroke-width:1.0;"/></g><!--reverse link Either to RightRecord--><g id="link_Either_RightRecord"><path d="M1335.1057,85.2562 C1339.5757,116.2962 1362.85,172.03 1382.79,212.72 " fill="none" id="Either-backto-RightRecord" style="stroke:#F5BDE6;stroke-width:1.0;stroke-dasharray:7.0,7.0;"/><polygon fill="none" points="1332.54,67.44,1329.1669,86.1114,1341.0444,84.401,1332.54,67.44" style="stroke:#F5BDE6;stroke-width:1.0;"/></g><!--reverse link Either to RightRecord--><g id="link_Either_RightRecord"><path codeLine="30" d="M1356.376,83.0134 C1374.366,114.0534 1392.71,172.03 1402.2,212.72 " fill="none" id="Either-backto-RightRecord-1" style="stroke:#F5BDE6;stroke-width:1.0;"/><polygon fill="none" points="1347.35,67.44,1351.1848,86.0221,1361.5671,80.0048,1347.35,67.44" style="stroke:#F5BDE6;stroke-width:1.0;"/></g><!--link EitherKindHelper to Either<L, R>--><g id="link_EitherKindHelper_Either&lt;L, R&gt;"><path codeLine="47" d="M231.73,95.19 C231.73,137.2 231.73,193.27 231.73,220.88 " fill="none" id="EitherKindHelper-to-Either&lt;L, R&gt;" style="stroke:#F5BDE6;stroke-width:1.0;stroke-dasharray:7.0,7.0;"/><polygon fill="#F5BDE6" points="231.73,226.88,235.73,217.88,231.73,221.88,227.73,217.88,231.73,226.88" style="stroke:#F5BDE6;stroke-width:1.0;"/><text fill="#CAD3F5" font-family="Helvetica" font-size="12" lengthAdjust="spacing" textLength="68.6836" x="232.73" y="135.2402">casts to/from</text></g><!--link EitherKind to Kind--><g id="link_EitherKind_Kind"><path codeLine="49" d="M835.28,67.44 C807.55,102.43 748.1725,177.365 720.3925,212.405 " fill="none" id="EitherKind-to-Kind" style="stroke:#F5BDE6;stroke-width:1.0;"/><polygon fill="none" points="709.21,226.51,725.0942,216.1325,715.6909,208.6775,709.21,226.51" style="stroke:#F5BDE6;stroke-width:1.0;"/></g><!--SRC=[ZLHBRwCm4BxdLypcigasm1sXI7j8jDNI7cYh7XVN6O9Li95j-b3R_xvZcn2II6sHeepdyNtpidy8oPj-Yr1RsvaqIJHxZdV2rlr3Rr1p9IrA6tFL9f8hOraaUCAPxRgUSo6Zbd5U2sPLr3LCshvj8bjZYqdBX4oy67UadSrgGIpOTlOLMcmVK9kP871TCOum_olaDjlykx-ylLxVt2pXzseEp81Jpzm7C75UKtweitm9HN0BYilH0ryew-rUxx7pPR62Dy81-0LlL8WL_0Doh6mmDIGjSdXYJOyNfsw5sDM3dtRYeZXsV52gGIP160UuE5TxW56Vmmvjy0HRQ_Liu5hTzBnUDzGlQTSl73ihb1py2-S_G7mh8BjRmHrKgjakDhtapaBPtuKghrZNeLx2Q2cSnTSLJFiqiuBg7Nlj3Yth5fEmGVLfIDKm1piDEtAO8douENUCFx8TJTaFNB86HDk5Cfa3CFDXZBnXni1y6E5-5TonGAxq5h9CUu4uHWWp8J_iGtusVCfbmh6V_vx4dyzPlg8fpdTdv7A_40FPUnHDwZWnJBZzlGWf7ZRz3pRKplDLVzOq1VHkwJIxYzJViko04DyBAz6OB5-vYa-1UkcX7idpgz2B8wPJ87_bMYKPuLovlxNMIcURfGj69wUGxzFRk4R-XDjQ6BfFq2gDjE1wmB-D7TWfGRYhKuPiGz2-_IaKHz3- -mJVOmrpaifY00TLdRK-JLr_V2wbaqh0ga9Q_YTiNe4pGzjHXg0Ih8BIXPRUdqqiMq5xPIbYibJbWQkCAO8UEP_CDt8AKmjP1Ra4NYD_95GXgMEIunXO0YDad-eHpRYAaqMBuzNfYvp2F9HfLL9frSvdiqCOHD7xQdZO_mC0]--></g></svg>