<svg xmlns="http://www.w3.org/2000/svg" xmlns:xlink="http://www.w3.org/1999/xlink" contentStyleType="text/css" height="1014px" preserveAspectRatio="none" style="width:2022px;height:1014px;background:#24273A;" version="1.1" viewBox="0 0 2022 1014" width="2022px" zoomAndPan="magnify"><defs/><g><rect fill="#24273A" height="1014" style="stroke:none;stroke-width:1.0;" width="2022" x="0" y="0"/><!--class Kind--><g id="elem_Kind"><rect codeLine="8" fill="#24273A" height="59.1992" id="Kind" rx="1.5" ry="1.5" style="stroke:#C6A0F6;stroke-width:2.0;" width="153.0879" x="1487.46" y="695.72"/><rect fill="#363A4F" height="30" rx="1.5" ry="1.5" style="stroke:#363A4F;stroke-width:2.0;" width="153.0879" x="1487.46" y="695.72"/><rect fill="#363A4F" height="1.5" style="stroke:#363A4F;stroke-width:2.0;" width="153.0879" x="1487.46" y="724.22"/><rect codeLine="8" fill="none" height="59.1992" id="Kind" rx="1.5" ry="1.5" style="stroke:#C6A0F6;stroke-width:2.0;" width="153.0879" x="1487.46" y="695.72"/><ellipse cx="1501.46" cy="710.72" fill="#B4A7E5" rx="10" ry="10" style="stroke:#181818;stroke-width:1.0;"/><path d="M1498.4678,707.9954 L1498.4678,706.472 L1503.6768,706.472 L1503.6768,707.9954 L1501.9366,707.9954 L1501.9366,713.6966 L1503.6768,713.6966 L1503.6768,715.22 L1498.4678,715.22 L1498.4678,713.6966 L1500.208,713.6966 L1500.208,707.9954 Z " fill="#CAD3F5"/><text fill="#A6DA95" font-family="sans-serif" font-size="16" font-style="italic" lengthAdjust="spacing" textLength="35.0703" x="1514.46" y="716.7669">Kind</text><rect fill="#24273A" height="14" style="stroke:#C6A0F6;stroke-width:1.0;stroke-dasharray:2.0,2.0;" width="86.0176" x="1557.5303" y="692.72"/><text fill="#CAD3F5" font-family="Roboto, Helvetica" font-size="12" font-style="italic" lengthAdjust="spacing" textLength="84.0176" x="1558.5303" y="702.9602">WITNESS, VAL</text><line style="stroke:#C6A0F6;stroke-width:2.0;" x1="1488.46" x2="1639.5479" y1="725.72" y2="725.72"/><line style="stroke:#C6A0F6;stroke-width:1.0;stroke-dasharray:1.0,2.0;" x1="1488.46" x2="1538.5713" y1="740.7864" y2="740.7864"/><text fill="#A6DA95" font-family="sans-serif" font-size="12" lengthAdjust="spacing" textLength="50.8652" x="1538.5713" y="744.8216">methods</text><line style="stroke:#C6A0F6;stroke-width:1.0;stroke-dasharray:1.0,2.0;" x1="1589.4366" x2="1639.5479" y1="740.7864" y2="740.7864"/></g><g id="elem_GMN3"><path d="M1675.82,714.75 L1675.82,721.32 L1640.71,725.32 L1675.82,729.32 L1675.82,735.8828 A1.5,1.5 0 0 0 1677.32,737.3828 L1912.6852,737.3828 A1.5,1.5 0 0 0 1914.1852,735.8828 L1914.1852,723.25 L1904.1852,713.25 L1677.32,713.25 A1.5,1.5 0 0 0 1675.82,714.75 " fill="#EED49F" style="stroke:#24273A;stroke-width:0.5;"/><path d="M1904.1852,713.25 L1904.1852,722.5 A0.75,0.75 0 0 0 1904.9352,723.25 L1914.1852,723.25 L1904.1852,713.25 " fill="#EED49F" style="stroke:#24273A;stroke-width:0.5;"/><text fill="#24273A" font-family="sans-serif" font-size="12" lengthAdjust="spacing" textLength="217.3652" x="1681.82" y="729.8516">Generic Kind interface from HKJ core.</text></g><!--class Monad--><g id="elem_Monad"><rect codeLine="13" fill="#24273A" height="52.1328" id="Monad" rx="1.5" ry="1.5" style="stroke:#C6A0F6;stroke-width:2.0;" width="364.0137" x="7" y="510.59"/><rect fill="#363A4F" height="30" rx="1.5" ry="1.5" style="stroke:#363A4F;stroke-width:2.0;" width="364.0137" x="7" y="510.59"/><rect fill="#363A4F" height="1.5" style="stroke:#363A4F;stroke-width:2.0;" width="364.0137" x="7" y="539.09"/><rect codeLine="13" fill="none" height="52.1328" id="Monad" rx="1.5" ry="1.5" style="stroke:#C6A0F6;stroke-width:2.0;" width="364.0137" x="7" y="510.59"/><ellipse cx="153.1191" cy="525.59" fill="#B4A7E5" rx="10" ry="10" style="stroke:#181818;stroke-width:1.0;"/><path d="M150.127,522.8654 L150.127,521.342 L155.3359,521.342 L155.3359,522.8654 L153.5957,522.8654 L153.5957,528.5666 L155.3359,528.5666 L155.3359,530.09 L150.127,530.09 L150.127,528.5666 L151.8672,528.5666 L151.8672,522.8654 Z " fill="#CAD3F5"/><text fill="#A6DA95" font-family="sans-serif" font-size="16" font-style="italic" lengthAdjust="spacing" textLength="52.4453" x="172.1191" y="531.6369">Monad</text><rect fill="#24273A" height="14" style="stroke:#C6A0F6;stroke-width:1.0;stroke-dasharray:2.0,2.0;" width="9.3301" x="364.6836" y="507.59"/><text fill="#CAD3F5" font-family="Roboto, Helvetica" font-size="12" font-style="italic" lengthAdjust="spacing" textLength="7.3301" x="365.6836" y="517.8302">F</text><line style="stroke:#C6A0F6;stroke-width:2.0;" x1="8" x2="370.0137" y1="540.59" y2="540.59"/><text fill="#A6DA95" font-family="sans-serif" font-size="12" lengthAdjust="spacing" textLength="352.0137" x="13" y="556.1916">flatMap(Function&lt;A, Kind&lt;F, B&gt;&gt;, Kind&lt;F, A&gt;): Kind&lt;F, B&gt;</text></g><!--class Applicative--><g id="elem_Applicative"><rect fill="#24273A" height="30" id="Applicative" rx="1.5" ry="1.5" style="stroke:#C6A0F6;stroke-width:2.0;" width="115.2656" x="125.37" y="286.59"/><rect fill="#363A4F" height="30" rx="1.5" ry="1.5" style="stroke:#363A4F;stroke-width:2.0;" width="115.2656" x="125.37" y="286.59"/><rect fill="#363A4F" height="1.5" style="stroke:#363A4F;stroke-width:2.0;" width="115.2656" x="125.37" y="315.09"/><rect fill="none" height="30" id="Applicative" rx="1.5" ry="1.5" style="stroke:#C6A0F6;stroke-width:2.0;" width="115.2656" x="125.37" y="286.59"/><ellipse cx="139.37" cy="301.59" fill="#B4A7E5" rx="10" ry="10" style="stroke:#181818;stroke-width:1.0;"/><path d="M136.3778,298.8654 L136.3778,297.342 L141.5868,297.342 L141.5868,298.8654 L139.8466,298.8654 L139.8466,304.5666 L141.5868,304.5666 L141.5868,306.09 L136.3778,306.09 L136.3778,304.5666 L138.118,304.5666 L138.118,298.8654 Z " fill="#CAD3F5"/><text fill="#A6DA95" font-family="sans-serif" font-size="16" font-style="italic" lengthAdjust="spacing" textLength="85.2656" x="152.37" y="307.6369">Applicative</text></g><g id="elem_GMN9"><path d="M406.31,526.09 L406.31,532.66 L371.23,536.66 L406.31,540.66 L406.31,547.2228 A1.5,1.5 0 0 0 407.81,548.7228 L656.2065,548.7228 A1.5,1.5 0 0 0 657.7065,547.2228 L657.7065,534.59 L647.7065,524.59 L407.81,524.59 A1.5,1.5 0 0 0 406.31,526.09 " fill="#EED49F" style="stroke:#24273A;stroke-width:0.5;"/><path d="M647.7065,524.59 L647.7065,533.84 A0.75,0.75 0 0 0 648.4565,534.59 L657.7065,534.59 L647.7065,524.59 " fill="#EED49F" style="stroke:#24273A;stroke-width:0.5;"/><text fill="#24273A" font-family="sans-serif" font-size="12" lengthAdjust="spacing" textLength="230.3965" x="412.31" y="541.1916">Generic Monad interface from HKJ core.</text></g><!--class MonadError--><g id="elem_MonadError"><rect codeLine="18" fill="#24273A" height="66.2656" id="MonadError" rx="1.5" ry="1.5" style="stroke:#C6A0F6;stroke-width:2.0;" width="414.9844" x="520.51" y="692.19"/><rect fill="#363A4F" height="30" rx="1.5" ry="1.5" style="stroke:#363A4F;stroke-width:2.0;" width="414.9844" x="520.51" y="692.19"/><rect fill="#363A4F" height="1.5" style="stroke:#363A4F;stroke-width:2.0;" width="414.9844" x="520.51" y="720.69"/><rect codeLine="18" fill="none" height="66.2656" id="MonadError" rx="1.5" ry="1.5" style="stroke:#C6A0F6;stroke-width:2.0;" width="414.9844" x="520.51" y="692.19"/><ellipse cx="665.7082" cy="707.19" fill="#B4A7E5" rx="10" ry="10" style="stroke:#181818;stroke-width:1.0;"/><path d="M662.7161,704.4654 L662.7161,702.942 L667.925,702.942 L667.925,704.4654 L666.1848,704.4654 L666.1848,710.1666 L667.925,710.1666 L667.925,711.69 L662.7161,711.69 L662.7161,710.1666 L664.4563,710.1666 L664.4563,704.4654 Z " fill="#CAD3F5"/><text fill="#A6DA95" font-family="sans-serif" font-size="16" font-style="italic" lengthAdjust="spacing" textLength="90.5859" x="684.7082" y="713.2369">MonadError</text><rect fill="#24273A" height="14" style="stroke:#C6A0F6;stroke-width:1.0;stroke-dasharray:2.0,2.0;" width="24.002" x="914.4924" y="689.19"/><text fill="#CAD3F5" font-family="Roboto, Helvetica" font-size="12" font-style="italic" lengthAdjust="spacing" textLength="22.002" x="915.4924" y="699.4302">F, E</text><line style="stroke:#C6A0F6;stroke-width:2.0;" x1="521.51" x2="934.4944" y1="722.19" y2="722.19"/><text fill="#A6DA95" font-family="sans-serif" font-size="12" lengthAdjust="spacing" textLength="146.0039" x="526.51" y="737.7916">raiseError(E): Kind&lt;F, A&gt;</text><text fill="#A6DA95" font-family="sans-serif" font-size="12" lengthAdjust="spacing" textLength="402.9844" x="526.51" y="751.9244">handleErrorWith(Kind&lt;F, A&gt;, Function&lt;E, Kind&lt;F, A&gt;&gt;): Kind&lt;F, A&gt;</text></g><g id="elem_GMN14"><path d="M970.01,714.75 L970.01,721.32 L935.79,725.32 L970.01,729.32 L970.01,735.8828 A1.5,1.5 0 0 0 971.51,737.3828 L1248.512,737.3828 A1.5,1.5 0 0 0 1250.012,735.8828 L1250.012,723.25 L1240.012,713.25 L971.51,713.25 A1.5,1.5 0 0 0 970.01,714.75 " fill="#EED49F" style="stroke:#24273A;stroke-width:0.5;"/><path d="M1240.012,713.25 L1240.012,722.5 A0.75,0.75 0 0 0 1240.762,723.25 L1250.012,723.25 L1240.012,713.25 " fill="#EED49F" style="stroke:#24273A;stroke-width:0.5;"/><text fill="#24273A" font-family="sans-serif" font-size="12" lengthAdjust="spacing" textLength="259.002" x="976.01" y="729.8516">Generic MonadError interface from HKJ core.</text></g><!--class EitherT--><g id="elem_EitherT"><rect codeLine="25" fill="#24273A" height="159.0625" id="EitherT" rx="1.5" ry="1.5" style="stroke:#C6A0F6;stroke-width:2.0;" width="340.7168" x="1596.65" y="457.12"/><rect fill="#363A4F" height="30" rx="1.5" ry="1.5" style="stroke:#363A4F;stroke-width:2.0;" width="340.7168" x="1596.65" y="457.12"/><rect fill="#363A4F" height="1.5" style="stroke:#363A4F;stroke-width:2.0;" width="340.7168" x="1596.65" y="485.62"/><rect codeLine="25" fill="none" height="159.0625" id="EitherT" rx="1.5" ry="1.5" style="stroke:#C6A0F6;stroke-width:2.0;" width="340.7168" x="1596.65" y="457.12"/><ellipse cx="1715.6109" cy="472.12" fill="#ADD1B2" rx="10" ry="10" style="stroke:#181818;stroke-width:1.0;"/><path d="M1717.4449,476.368 Q1717.0348,476.579 1716.5836,476.6845 Q1716.1324,476.7899 1715.6344,476.7899 Q1713.8648,476.7899 1712.9332,475.6239 Q1712.0016,474.4579 1712.0016,472.2548 Q1712.0016,470.0458 1712.9332,468.8798 Q1713.8648,467.7138 1715.6344,467.7138 Q1716.1324,467.7138 1716.5895,467.8192 Q1717.0465,467.9247 1717.4449,468.1356 L1717.4449,470.0575 Q1716.9996,469.6473 1716.5807,469.4569 Q1716.1617,469.2665 1715.7164,469.2665 Q1714.7672,469.2665 1714.2838,470.0194 Q1713.8004,470.7723 1713.8004,472.2548 Q1713.8004,473.7313 1714.2838,474.4843 Q1714.7672,475.2372 1715.7164,475.2372 Q1716.1617,475.2372 1716.5807,475.0468 Q1716.9996,474.8563 1717.4449,474.4462 Z " fill="#CAD3F5"/><text fill="#A6DA95" font-family="sans-serif" font-size="16" lengthAdjust="spacing" textLength="54.7891" x="1734.6109" y="478.1669">EitherT</text><rect fill="#24273A" height="14" style="stroke:#C6A0F6;stroke-width:1.0;stroke-dasharray:2.0,2.0;" width="38.0059" x="1902.3609" y="454.12"/><text fill="#CAD3F5" font-family="Roboto, Helvetica" font-size="12" font-style="italic" lengthAdjust="spacing" textLength="36.0059" x="1903.3609" y="464.3602">F, L, R</text><line style="stroke:#C6A0F6;stroke-width:2.0;" x1="1597.65" x2="1936.3668" y1="487.12" y2="487.12"/><text fill="#A6DA95" font-family="sans-serif" font-size="12" lengthAdjust="spacing" textLength="181.1426" x="1602.65" y="502.7216">+value: Kind&lt;F, Either&lt;L, R&gt;&gt;</text><line style="stroke:#C6A0F6;stroke-width:2.0;" x1="1597.65" x2="1936.3668" y1="509.2528" y2="509.2528"/><text fill="#A6DA95" font-family="sans-serif" font-size="12" lengthAdjust="spacing" textLength="192.0059" x="1602.65" y="524.8544">+EitherT(Kind&lt;F, Either&lt;L, R&gt;&gt;)</text><text fill="#A6DA95" font-family="sans-serif" font-size="12" lengthAdjust="spacing" text-decoration="underline" textLength="308.4844" x="1602.65" y="538.9872">+fromKind(Kind&lt;F, Either&lt;L, R&gt;&gt;): EitherT&lt;F, L, R&gt;</text><text fill="#A6DA95" font-family="sans-serif" font-size="12" lengthAdjust="spacing" text-decoration="underline" textLength="228.5391" x="1602.65" y="553.12">+right(Monad&lt;F&gt;, R): EitherT&lt;F, L, R&gt;</text><text fill="#A6DA95" font-family="sans-serif" font-size="12" lengthAdjust="spacing" text-decoration="underline" textLength="218.6074" x="1602.65" y="567.2528">+left(Monad&lt;F&gt;, L): EitherT&lt;F, L, R&gt;</text><text fill="#A6DA95" font-family="sans-serif" font-size="12" lengthAdjust="spacing" text-decoration="underline" textLength="328.7168" x="1602.65" y="581.3856">+fromEither(Monad&lt;F&gt;, Either&lt;L, R&gt;): EitherT&lt;F, L, R&gt;</text><text fill="#A6DA95" font-family="sans-serif" font-size="12" lengthAdjust="spacing" text-decoration="underline" textLength="282.4219" x="1602.65" y="595.5184">+liftF(Monad&lt;F&gt;, Kind&lt;F, R&gt;): EitherT&lt;F, L, R&gt;</text><text fill="#A6DA95" font-family="sans-serif" font-size="12" lengthAdjust="spacing" textLength="188.9473" x="1602.65" y="609.6513">+value(): Kind&lt;F, Either&lt;L, R&gt;&gt;</text></g><!--class EitherTKind--><g id="elem_EitherTKind"><rect codeLine="36" fill="#24273A" height="59.1992" id="EitherTKind" rx="1.5" ry="1.5" style="stroke:#C6A0F6;stroke-width:2.0;" width="159.8652" x="1542.07" y="834.45"/><rect fill="#363A4F" height="30" rx="1.5" ry="1.5" style="stroke:#363A4F;stroke-width:2.0;" width="159.8652" x="1542.07" y="834.45"/><rect fill="#363A4F" height="1.5" style="stroke:#363A4F;stroke-width:2.0;" width="159.8652" x="1542.07" y="862.95"/><rect codeLine="36" fill="none" height="59.1992" id="EitherTKind" rx="1.5" ry="1.5" style="stroke:#C6A0F6;stroke-width:2.0;" width="159.8652" x="1542.07" y="834.45"/><ellipse cx="1556.07" cy="849.45" fill="#B4A7E5" rx="10" ry="10" style="stroke:#181818;stroke-width:1.0;"/><path d="M1553.0778,846.7254 L1553.0778,845.202 L1558.2868,845.202 L1558.2868,846.7254 L1556.5466,846.7254 L1556.5466,852.4266 L1558.2868,852.4266 L1558.2868,853.95 L1553.0778,853.95 L1553.0778,852.4266 L1554.818,852.4266 L1554.818,846.7254 Z " fill="#CAD3F5"/><text fill="#A6DA95" font-family="sans-serif" font-size="16" font-style="italic" lengthAdjust="spacing" textLength="89.8594" x="1569.07" y="855.4969">EitherTKind</text><rect fill="#24273A" height="14" style="stroke:#C6A0F6;stroke-width:1.0;stroke-dasharray:2.0,2.0;" width="38.0059" x="1666.9294" y="831.45"/><text fill="#CAD3F5" font-family="Roboto, Helvetica" font-size="12" font-style="italic" lengthAdjust="spacing" textLength="36.0059" x="1667.9294" y="841.6902">F, L, R</text><line style="stroke:#C6A0F6;stroke-width:2.0;" x1="1543.07" x2="1700.9352" y1="864.45" y2="864.45"/><line style="stroke:#C6A0F6;stroke-width:1.0;stroke-dasharray:1.0,2.0;" x1="1543.07" x2="1585.821" y1="879.5164" y2="879.5164"/><text fill="#A6DA95" font-family="sans-serif" font-size="12" lengthAdjust="spacing" textLength="72.3633" x="1585.821" y="883.5516">witness type</text><line style="stroke:#C6A0F6;stroke-width:1.0;stroke-dasharray:1.0,2.0;" x1="1658.1843" x2="1700.9352" y1="879.5164" y2="879.5164"/></g><g id="elem_GMN20"><path d="M1435.98,956.15 L1435.98,1005.5484 A1.5,1.5 0 0 0 1437.48,1007.0484 L1806.5327,1007.0484 A1.5,1.5 0 0 0 1808.0327,1005.5484 L1808.0327,964.65 L1798.0327,954.65 L1626.01,954.65 L1622.01,894.02 L1618.01,954.65 L1437.48,954.65 A1.5,1.5 0 0 0 1435.98,956.15 " fill="#EED49F" style="stroke:#24273A;stroke-width:0.5;"/><path d="M1798.0327,954.65 L1798.0327,963.9 A0.75,0.75 0 0 0 1798.7827,964.65 L1808.0327,964.65 L1798.0327,954.65 " fill="#EED49F" style="stroke:#24273A;stroke-width:0.5;"/><text fill="#24273A" font-family="sans-serif" font-size="12" lengthAdjust="spacing" textLength="152.8945" x="1441.98" y="971.2516">F: Witness of outer monad</text><text fill="#24273A" font-family="sans-serif" font-size="12" lengthAdjust="spacing" textLength="151.4063" x="1441.98" y="985.3844">L: Left type of inner Either</text><text fill="#24273A" font-family="sans-serif" font-size="12" lengthAdjust="spacing" textLength="351.0527" x="1441.98" y="999.5172">R: Right type of inner Either (the value type A in Kind&lt;G,A&gt;)</text></g><!--class EitherTKindHelper--><g id="elem_EitherTKindHelper"><rect codeLine="47" fill="#24273A" height="130.7969" id="EitherTKindHelper" rx="1.5" ry="1.5" style="stroke:#C6A0F6;stroke-width:2.0;" width="465.082" x="798.47" y="471.26"/><rect fill="#363A4F" height="30" rx="1.5" ry="1.5" style="stroke:#363A4F;stroke-width:2.0;" width="465.082" x="798.47" y="471.26"/><rect fill="#363A4F" height="1.5" style="stroke:#363A4F;stroke-width:2.0;" width="465.082" x="798.47" y="499.76"/><rect codeLine="47" fill="none" height="130.7969" id="EitherTKindHelper" rx="1.5" ry="1.5" style="stroke:#C6A0F6;stroke-width:2.0;" width="465.082" x="798.47" y="471.26"/><ellipse cx="944.3313" cy="486.26" fill="#ADD1B2" rx="10" ry="10" style="stroke:#181818;stroke-width:1.0;"/><path d="M946.1653,490.508 Q945.7552,490.719 945.304,490.8245 Q944.8528,490.9299 944.3548,490.9299 Q942.5852,490.9299 941.6536,489.7639 Q940.722,488.5979 940.722,486.3948 Q940.722,484.1858 941.6536,483.0198 Q942.5852,481.8538 944.3548,481.8538 Q944.8528,481.8538 945.3098,481.9592 Q945.7669,482.0647 946.1653,482.2756 L946.1653,484.1975 Q945.72,483.7873 945.3011,483.5969 Q944.8821,483.4065 944.4368,483.4065 Q943.4876,483.4065 943.0042,484.1594 Q942.5208,484.9123 942.5208,486.3948 Q942.5208,487.8713 943.0042,488.6243 Q943.4876,489.3772 944.4368,489.3772 Q944.8821,489.3772 945.3011,489.1868 Q945.72,488.9963 946.1653,488.5862 Z " fill="#CAD3F5"/><text fill="#A6DA95" font-family="sans-serif" font-size="16" lengthAdjust="spacing" textLength="140.6875" x="963.3313" y="492.3069">EitherTKindHelper</text><rect fill="#24273A" height="14" style="stroke:#C6A0F6;stroke-width:1.0;stroke-dasharray:2.0,2.0;" width="22.6719" x="1243.8802" y="468.26"/><text fill="#CAD3F5" font-family="Roboto, Helvetica" font-size="12" font-style="italic" lengthAdjust="spacing" textLength="20.6719" x="1244.8802" y="478.5002">F, L</text><line style="stroke:#C6A0F6;stroke-width:2.0;" x1="799.47" x2="1262.552" y1="501.26" y2="501.26"/><text fill="#A6DA95" font-family="sans-serif" font-size="12" lengthAdjust="spacing" text-decoration="underline" textLength="201.2754" x="804.47" y="516.8616">+INVALID_KIND_NULL_MSG: String</text><text fill="#A6DA95" font-family="sans-serif" font-size="12" lengthAdjust="spacing" text-decoration="underline" textLength="199.5" x="804.47" y="530.9944">+INVALID_KIND_TYPE_MSG: String</text><text fill="#A6DA95" font-family="sans-serif" font-size="12" lengthAdjust="spacing" text-decoration="underline" textLength="226.1953" x="804.47" y="545.1272">+INVALID_HOLDER_STATE_MSG: String</text><line style="stroke:#C6A0F6;stroke-width:2.0;" x1="799.47" x2="1262.552" y1="551.6584" y2="551.6584"/><text fill="#A6DA95" font-family="sans-serif" font-size="12" lengthAdjust="spacing" textLength="120.2637" x="804.47" y="567.26">-EitherTKindHelper()</text><text fill="#A6DA95" font-family="sans-serif" font-size="12" lengthAdjust="spacing" text-decoration="underline" textLength="453.082" x="804.47" y="581.3928">+unwrap(Kind&lt;EitherTKind.Witness&lt;F_IN, L_IN&gt;, R&gt;): EitherT&lt;F_IN, L_IN, R&gt;</text><text fill="#A6DA95" font-family="sans-serif" font-size="12" lengthAdjust="spacing" text-decoration="underline" textLength="344.4199" x="804.47" y="595.5256">+wrap(EitherT&lt;F_IN, L_IN, R&gt;): EitherTKind&lt;F_IN, L_IN, R&gt;</text></g><g id="elem_GMN25"><path d="M1298.32,526.09 L1298.32,532.66 L1264.02,536.66 L1298.32,540.66 L1298.32,547.2228 A1.5,1.5 0 0 0 1299.82,548.7228 L1560.1989,548.7228 A1.5,1.5 0 0 0 1561.6989,547.2228 L1561.6989,534.59 L1551.6989,524.59 L1299.82,524.59 A1.5,1.5 0 0 0 1298.32,526.09 " fill="#EED49F" style="stroke:#24273A;stroke-width:0.5;"/><path d="M1551.6989,524.59 L1551.6989,533.84 A0.75,0.75 0 0 0 1552.4489,534.59 L1561.6989,534.59 L1551.6989,524.59 " fill="#EED49F" style="stroke:#24273A;stroke-width:0.5;"/><text fill="#24273A" font-family="sans-serif" font-size="12" lengthAdjust="spacing" textLength="242.3789" x="1304.32" y="541.1916">Utility for safe wrapping and unwrapping.</text></g><!--class EitherTMonad--><g id="elem_EitherTMonad"><rect codeLine="58" fill="#24273A" height="159.0625" id="EitherTMonad" rx="1.5" ry="1.5" style="stroke:#C6A0F6;stroke-width:2.0;" width="919.1895" x="275.41" y="222.06"/><rect fill="#363A4F" height="30" rx="1.5" ry="1.5" style="stroke:#363A4F;stroke-width:2.0;" width="919.1895" x="275.41" y="222.06"/><rect fill="#363A4F" height="1.5" style="stroke:#363A4F;stroke-width:2.0;" width="919.1895" x="275.41" y="250.56"/><rect codeLine="58" fill="none" height="159.0625" id="EitherTMonad" rx="1.5" ry="1.5" style="stroke:#C6A0F6;stroke-width:2.0;" width="919.1895" x="275.41" y="222.06"/><ellipse cx="665.0516" cy="237.06" fill="#ADD1B2" rx="10" ry="10" style="stroke:#181818;stroke-width:1.0;"/><path d="M666.8856,241.308 Q666.4754,241.519 666.0243,241.6245 Q665.5731,241.7299 665.075,241.7299 Q663.3055,241.7299 662.3739,240.5639 Q661.4422,239.3979 661.4422,237.1948 Q661.4422,234.9858 662.3739,233.8198 Q663.3055,232.6537 665.075,232.6537 Q665.5731,232.6537 666.0301,232.7592 Q666.4871,232.8647 666.8856,233.0756 L666.8856,234.9975 Q666.4403,234.5873 666.0213,234.3969 Q665.6024,234.2065 665.1571,234.2065 Q664.2079,234.2065 663.7245,234.9594 Q663.2411,235.7123 663.2411,237.1948 Q663.2411,238.6713 663.7245,239.4243 Q664.2079,240.1772 665.1571,240.1772 Q665.6024,240.1772 666.0213,239.9868 Q666.4403,239.7963 666.8856,239.3862 Z " fill="#CAD3F5"/><text fill="#A6DA95" font-family="sans-serif" font-size="16" lengthAdjust="spacing" textLength="107.2344" x="684.0516" y="243.1069">EitherTMonad</text><rect fill="#24273A" height="14" style="stroke:#C6A0F6;stroke-width:1.0;stroke-dasharray:2.0,2.0;" width="22.6719" x="1174.9276" y="219.06"/><text fill="#CAD3F5" font-family="Roboto, Helvetica" font-size="12" font-style="italic" lengthAdjust="spacing" textLength="20.6719" x="1175.9276" y="229.3002">F, L</text><line style="stroke:#C6A0F6;stroke-width:2.0;" x1="276.41" x2="1193.5995" y1="252.06" y2="252.06"/><text fill="#A6DA95" font-family="sans-serif" font-size="12" lengthAdjust="spacing" textLength="149.6191" x="281.41" y="267.6616">-outerMonad: Monad&lt;F&gt;</text><line style="stroke:#C6A0F6;stroke-width:2.0;" x1="276.41" x2="1193.5995" y1="274.1928" y2="274.1928"/><text fill="#A6DA95" font-family="sans-serif" font-size="12" lengthAdjust="spacing" textLength="162.6152" x="281.41" y="289.7944">+EitherTMonad(Monad&lt;F&gt;)</text><text fill="#A6DA95" font-family="sans-serif" font-size="12" lengthAdjust="spacing" textLength="260.1563" x="281.41" y="303.9272">+of(R): Kind&lt;EitherTKind.Witness&lt;F, L&gt;, R&gt;</text><text fill="#A6DA95" font-family="sans-serif" font-size="12" lengthAdjust="spacing" textLength="680.8008" x="281.41" y="318.06">+map(Function&lt;R_IN, R_OUT&gt;, Kind&lt;EitherTKind.Witness&lt;F, L&gt;, R_IN&gt;): Kind&lt;EitherTKind.Witness&lt;F, L&gt;, R_OUT&gt;</text><text fill="#A6DA95" font-family="sans-serif" font-size="12" lengthAdjust="spacing" textLength="877.8574" x="281.41" y="332.1928">+ap(Kind&lt;EitherTKind.Witness&lt;F, L&gt;, Function&lt;R_IN, R_OUT&gt;&gt;, Kind&lt;EitherTKind.Witness&lt;F, L&gt;, R_IN&gt;): Kind&lt;EitherTKind.Witness&lt;F, L&gt;, R_OUT&gt;</text><text fill="#A6DA95" font-family="sans-serif" font-size="12" lengthAdjust="spacing" textLength="907.1895" x="281.41" y="346.3256">+flatMap(Function&lt;R_IN, Kind&lt;EitherTKind.Witness&lt;F, L&gt;, R_OUT&gt;&gt;, Kind&lt;EitherTKind.Witness&lt;F, L&gt;, R_IN&gt;): Kind&lt;EitherTKind.Witness&lt;F, L&gt;, R_OUT&gt;</text><text fill="#A6DA95" font-family="sans-serif" font-size="12" lengthAdjust="spacing" textLength="303.5977" x="281.41" y="360.4584">+raiseError(L): Kind&lt;EitherTKind.Witness&lt;F, L&gt;, R&gt;</text><text fill="#A6DA95" font-family="sans-serif" font-size="12" lengthAdjust="spacing" textLength="856.8984" x="281.41" y="374.5912">+handleErrorWith(Kind&lt;EitherTKind.Witness&lt;F, L&gt;, R&gt;, Function&lt;L, Kind&lt;EitherTKind.Witness&lt;F, L&gt;, R&gt;&gt;): Kind&lt;EitherTKind.Witness&lt;F, L&gt;, R&gt;</text></g><g id="elem_GMN30"><path d="M606.36,67.9 L606.36,103.1656 A1.5,1.5 0 0 0 607.86,104.6656 L731.01,104.6656 L735.01,221.91 L739.01,104.6656 L862.1569,104.6656 A1.5,1.5 0 0 0 863.6569,103.1656 L863.6569,76.4 L853.6569,66.4 L607.86,66.4 A1.5,1.5 0 0 0 606.36,67.9 " fill="#EED49F" style="stroke:#24273A;stroke-width:0.5;"/><path d="M853.6569,66.4 L853.6569,75.65 A0.75,0.75 0 0 0 854.4069,76.4 L863.6569,76.4 L853.6569,66.4 " fill="#EED49F" style="stroke:#24273A;stroke-width:0.5;"/><text fill="#24273A" font-family="sans-serif" font-size="12" lengthAdjust="spacing" textLength="152.8945" x="612.36" y="83.0016">F: Witness of outer monad</text><text fill="#24273A" font-family="sans-serif" font-size="12" lengthAdjust="spacing" textLength="236.2969" x="612.36" y="97.1344">L: Left type (Error type E for MonadError)</text></g><!--class Either--><g id="elem_Either"><rect codeLine="79" fill="#24273A" height="151.0625" id="Either" rx="1.5" ry="1.5" style="stroke:#C6A0F6;stroke-width:2.0;" width="311.3262" x="898.34" y="10"/><rect fill="#363A4F" height="30" rx="1.5" ry="1.5" style="stroke:#363A4F;stroke-width:2.0;" width="311.3262" x="898.34" y="10"/><rect fill="#363A4F" height="1.5" style="stroke:#363A4F;stroke-width:2.0;" width="311.3262" x="898.34" y="38.5"/><rect codeLine="79" fill="none" height="151.0625" id="Either" rx="1.5" ry="1.5" style="stroke:#C6A0F6;stroke-width:2.0;" width="311.3262" x="898.34" y="10"/><ellipse cx="1016.3302" cy="25" fill="#B4A7E5" rx="10" ry="10" style="stroke:#181818;stroke-width:1.0;"/><path d="M1013.338,22.2754 L1013.338,20.752 L1018.547,20.752 L1018.547,22.2754 L1016.8068,22.2754 L1016.8068,27.9766 L1018.547,27.9766 L1018.547,29.5 L1013.338,29.5 L1013.338,27.9766 L1015.0783,27.9766 L1015.0783,22.2754 Z " fill="#CAD3F5"/><text fill="#A6DA95" font-family="sans-serif" font-size="16" font-style="italic" lengthAdjust="spacing" textLength="44.6719" x="1035.3302" y="31.0469">Either</text><rect fill="#24273A" height="14" style="stroke:#C6A0F6;stroke-width:1.0;stroke-dasharray:2.0,2.0;" width="20.6738" x="1191.9923" y="7"/><text fill="#CAD3F5" font-family="Roboto, Helvetica" font-size="12" font-style="italic" lengthAdjust="spacing" textLength="18.6738" x="1192.9923" y="17.2402">L,R</text><line style="stroke:#C6A0F6;stroke-width:2.0;" x1="899.34" x2="1208.6662" y1="40" y2="40"/><text fill="#A6DA95" font-family="sans-serif" font-size="12" lengthAdjust="spacing" textLength="93.4922" x="904.34" y="55.6016">isLeft(): boolean</text><text fill="#A6DA95" font-family="sans-serif" font-size="12" lengthAdjust="spacing" textLength="101.9824" x="904.34" y="69.7344">isRight(): boolean</text><text fill="#A6DA95" font-family="sans-serif" font-size="12" lengthAdjust="spacing" textLength="62.4375" x="904.34" y="83.8672">getLeft(): L</text><text fill="#A6DA95" font-family="sans-serif" font-size="12" lengthAdjust="spacing" textLength="72.1172" x="904.34" y="98">getRight(): R</text><text fill="#A6DA95" font-family="sans-serif" font-size="12" lengthAdjust="spacing" textLength="218.4199" x="904.34" y="112.1328">map(Function&lt;R, R2&gt;): Either&lt;L,R2&gt;</text><text fill="#A6DA95" font-family="sans-serif" font-size="12" lengthAdjust="spacing" textLength="299.3262" x="904.34" y="126.2656">flatMap(Function&lt;R, Either&lt;L,R2&gt;&gt;): Either&lt;L,R2&gt;</text><text fill="#A6DA95" font-family="sans-serif" font-size="12" lengthAdjust="spacing" text-decoration="underline" textLength="111.2168" x="904.34" y="140.3984">left(L): Either&lt;L,R&gt;</text><text fill="#A6DA95" font-family="sans-serif" font-size="12" lengthAdjust="spacing" text-decoration="underline" textLength="121.1484" x="904.34" y="154.5313">right(R): Either&lt;L,R&gt;</text></g><g id="elem_GMN38"><path d="M1244.93,74.96 L1244.93,81.53 L1209.77,85.53 L1244.93,89.53 L1244.93,96.0928 A1.5,1.5 0 0 0 1246.43,97.5928 L1361.5902,97.5928 A1.5,1.5 0 0 0 1363.0902,96.0928 L1363.0902,83.46 L1353.0902,73.46 L1246.43,73.46 A1.5,1.5 0 0 0 1244.93,74.96 " fill="#EED49F" style="stroke:#24273A;stroke-width:0.5;"/><path d="M1353.0902,73.46 L1353.0902,82.71 A0.75,0.75 0 0 0 1353.8402,83.46 L1363.0902,83.46 L1353.0902,73.46 " fill="#EED49F" style="stroke:#24273A;stroke-width:0.5;"/><text fill="#24273A" font-family="sans-serif" font-size="12" lengthAdjust="spacing" textLength="97.1602" x="1250.93" y="90.0616">Core Either type.</text></g><!--reverse link Applicative to Monad--><g id="link_Applicative_Monad"><path d="M183.8345,334.814 C184.8245,373.164 187.09,461.07 188.35,510.11 " fill="none" id="Applicative-backto-Monad" style="stroke:#F5BDE6;stroke-width:1.0;"/><polygon fill="none" points="183.37,316.82,177.8365,334.9688,189.8325,334.6592,183.37,316.82" style="stroke:#F5BDE6;stroke-width:1.0;"/></g><!--reverse link Monad to MonadError--><g id="link_Monad_MonadError"><path d="M267.4564,569.8701 C306.7864,585.7801 342.26,599.57 389.01,616.19 C465.55,643.39 552.91,671.18 619.77,691.77 " fill="none" id="Monad-backto-MonadError" style="stroke:#F5BDE6;stroke-width:1.0;"/><polygon fill="none" points="250.77,563.12,265.2064,575.4322,269.7064,564.3079,250.77,563.12" style="stroke:#F5BDE6;stroke-width:1.0;"/></g><!--reverse link Kind to EitherTKind--><g id="link_Kind_EitherTKind"><path d="M1574.3907,772.6736 C1578.0707,787.7036 1579.11,788.7 1586.01,804.45 C1590.41,814.51 1596.3,824.91 1602.04,834.11 " fill="none" id="Kind-backto-EitherTKind" style="stroke:#F5BDE6;stroke-width:1.0;"/><polygon fill="none" points="1570.11,755.19,1568.5629,774.1005,1580.2186,771.2467,1570.11,755.19" style="stroke:#F5BDE6;stroke-width:1.0;"/></g><!--reverse link Kind to EitherTKind--><g id="link_Kind_EitherTKind"><path codeLine="93" d="M1583.3384,771.8911 C1593.1784,795.0911 1599.89,810.9 1609.72,834.1 " fill="none" id="Kind-backto-EitherTKind-1" style="stroke:#F5BDE6;stroke-width:1.0;"/><polygon fill="none" points="1576.31,755.32,1577.8147,774.2339,1588.8621,769.5483,1576.31,755.32" style="stroke:#F5BDE6;stroke-width:1.0;"/><text fill="#CAD3F5" font-family="sans-serif" font-size="12" lengthAdjust="spacing" textLength="176.9004" x="1597.48" y="801.0516">(EitherTKind is a specific Kind)</text></g><!--link EitherT to EitherTKind--><g id="link_EitherT_EitherTKind"><path codeLine="45" d="M1883,616.57 C1930.03,658.44 1966.13,710.93 1932.01,758.45 C1880.08,830.78 1793.4398,852.0527 1720.1698,858.9927 " fill="none" id="EitherT-to-EitherTKind" style="stroke:#F5BDE6;stroke-width:1.0;stroke-dasharray:7.0,7.0;"/><polygon fill="none" points="1702.25,860.69,1720.7356,864.9659,1719.604,853.0194,1702.25,860.69" style="stroke:#F5BDE6;stroke-width:1.0;"/><text fill="#CAD3F5" font-family="sans-serif" font-size="12" lengthAdjust="spacing" textLength="68.3203" x="1946.46" y="729.9216">implements</text></g><!--reverse link MonadError to EitherTMonad--><g id="link_MonadError_EitherTMonad"><path d="M737.9959,673.9044 C745.4659,607.9544 746.98,474.76 744.2,381.42 " fill="none" id="MonadError-backto-EitherTMonad" style="stroke:#F5BDE6;stroke-width:1.0;stroke-dasharray:7.0,7.0;"/><polygon fill="none" points="735.97,691.79,743.9577,674.5797,732.034,673.2291,735.97,691.79" style="stroke:#F5BDE6;stroke-width:1.0;"/></g><!--link EitherTMonad to MonadError--><g id="link_EitherTMonad_MonadError"><path codeLine="76" d="M723.2,381.42 C717.32,474.76 714.4008,607.8976 719.6908,673.8476 " fill="none" id="EitherTMonad-to-MonadError" style="stroke:#F5BDE6;stroke-width:1.0;"/><polygon fill="none" points="721.13,691.79,725.6716,673.3679,713.71,674.3274,721.13,691.79" style="stroke:#F5BDE6;stroke-width:1.0;"/></g><!--link EitherTMonad to EitherTKindHelper--><g id="link_EitherTMonad_EitherTKindHelper"><path codeLine="73" d="M835.22,381.5 C872.12,410.55 908.7355,439.3887 943.8855,467.0587 " fill="none" id="EitherTMonad-to-EitherTKindHelper" style="stroke:#F5BDE6;stroke-width:1.0;stroke-dasharray:7.0,7.0;"/><polygon fill="#F5BDE6" points="948.6,470.77,944.0024,462.0601,944.6712,467.6773,939.0541,468.3461,948.6,470.77" style="stroke:#F5BDE6;stroke-width:1.0;"/><text fill="#CAD3F5" font-family="sans-serif" font-size="12" lengthAdjust="spacing" textLength="128.5137" x="892.88" y="423.7216">uses for wrap/unwrap</text></g><!--link EitherTMonad to EitherT--><g id="link_EitherTMonad_EitherT"><path codeLine="74" d="M1195.05,368.37 C1320.84,391.34 1456.28,420.72 1579.01,457.12 C1584.69,458.81 1584.7281,458.7423 1590.4981,460.6323 " fill="none" id="EitherTMonad-to-EitherT" style="stroke:#F5BDE6;stroke-width:1.0;stroke-dasharray:7.0,7.0;"/><polygon fill="#F5BDE6" points="1596.2,462.5,1588.8923,455.8972,1591.4484,460.9436,1586.402,463.4997,1596.2,462.5" style="stroke:#F5BDE6;stroke-width:1.0;"/><text fill="#CAD3F5" font-family="sans-serif" font-size="12" lengthAdjust="spacing" textLength="119.0859" x="1467.53" y="423.7216">creates/manipulates</text></g><!--link EitherTMonad to Monad--><g id="link_EitherTMonad_Monad"><path codeLine="75" d="M508.58,381.54 C483.92,391.1 459.33,401.05 436.01,411.12 C364.58,441.96 289.9216,480.7931 240.8516,507.2431 " fill="none" id="EitherTMonad-to-Monad" style="stroke:#F5BDE6;stroke-width:1.0;stroke-dasharray:7.0,7.0;"/><polygon fill="#F5BDE6" points="235.57,510.09,245.3903,509.3407,239.9713,507.7176,241.5944,502.2986,235.57,510.09" style="stroke:#F5BDE6;stroke-width:1.0;"/><text fill="#CAD3F5" font-family="sans-serif" font-size="12" lengthAdjust="spacing" textLength="247.1602" x="437.01" y="423.7216">(depends on instance of outer Monad&lt;F&gt;)</text></g><!--reverse link EitherT to Kind--><g id="link_EitherT_Kind"><path codeLine="92" d="M1672.3775,624.6732 C1641.8675,652.7332 1618.24,674.45 1595.24,695.6 " fill="none" id="EitherT-backto-Kind" style="stroke:#F5BDE6;stroke-width:1.0;"/><polygon fill="#F5BDE6" points="1681.21,616.55,1674.086,617.6675,1672.3775,624.6732,1679.5015,623.5558,1681.21,616.55" style="stroke:#F5BDE6;stroke-width:1.0;"/><text fill="#CAD3F5" font-family="sans-serif" font-size="12" lengthAdjust="spacing" textLength="143.9063" x="1648.32" y="658.7916">(value field holds a Kind)</text><text fill="#CAD3F5" font-family="sans-serif" font-size="12" lengthAdjust="spacing" textLength="7.5879" x="1594.3716" y="685.1837">1</text></g><!--SRC=[jLVTS-8s47_dhr1vgTDYQE_HmtY6Df3GEAG3f3TzOeHPW-PioMFBoLql-T-xalmXi678mpt0sDhVhdwxsW_v9yR3kDW1EKYPvjvebD7NuPx9Gx4jSiX2mILmEGn5CkAXo2LrMJWAgKpJ8WmPTnCQXWT6fN3Jc79P9B4h3v30AA6CZ_JZCCNLNY__mdXACvgGCAPvFf4oOzj2mXptMB7_WFncGNOGqIAMCzn-GHCW_QNO2Ya6v1xY5v0ifFtUWI5jI5BvZIIGR27BUxqU8GmPPn4DWJmmlXj_dgyNqzLgGFwP13xvZW12XaFKa0Uno_4HLzxnnuK4ah7zGH8HQLMFt067Z8NwpR8RPI8Xzmz_aL1aC3pUyr5mkXlFV09VCN2umIHDOwGhsGkePKCWYgbyfAapAtWecU3ZoS2mdGt87xxVl4py6y-IT7BLMpPazUj7s4wpJ6JA_hHXNRjX-6QKvQ1npjGYDF6rz43vBZRYpvWvJYCUaDh3gUsKVshaZ5VQvebhUks2VsX99nYP8XV8rcgFO42MbI-_aXSQ5z0GCBYnnlWbfDHrEZ4t9UWxbWEcuhkce91du5wBoga1xRLJ1HqHL-Z44DagmHKgYgV1M8esrsksPP6SMUgLovUKTS2Tc_CXVpzEoz9CXJQdLwMcNhKGGymv3dckaRvrq5ZbhqP4vBSKJaeTsud4nC5CisnflPb7IfDAAh15PIHH_cffu9408szCefnnpCtIXWOiFRBKITo580x-ctWO-GJ5ngMxmKHd5Zgf6QgGbDIG-fjlyoGUOKaQOtFbCczbl49WdqmXCp6f4xy-nFa2k-7yTlCmNznk5iz1i7bStNbaXIsPxo-2r__-FRq6VFyKt4wNczLwicxZtJPJfrLK1N_Di4MUF-xDV87UuRz_cdsrf2k1jTLkQ6F3fDwfdNQNQldXaMV9OeOpAS8kbTC8z8OfkawmJPPUgTUELbLMbJwpvdpjBdqXx-jpTatEbcEXgjJZngPNwogkOYyYPrbLwSKAA_69FSAM9awRf-TrrHOksL3dTirUsbwvtyLqCFXEEZ-AJskCcqsli_6ZI5cpElZ8ONPEyOkALhI3Avpn_Mlfr7KcHMfLsMFTX3_GeXrpNz3FKrsKJJcTQRVc1ZKS-ktoniQBr-9Ssr65F3BrV44NDS8Cg8GShyISfKMidhiKp9D7d1saUj89ZiC1snOFeN7JhjaZ4wxxvbk-wUxI7gfuKlM0LE9SHKgDvgqGCL3U2FGGwv3iGLOwWRLMmvVLud5tmAFzr3HOHUEJNo7RTJGumftJExuB1KUeDiXSifOTg7VztzNPFV8dtYghuQsIoBJjwd1_SLtI_xrFog7icCaUCOXtv21YF4IgPUgqD6RyvhedazonNvdIo5C8MLH-UDoe_NucIy0WOMpo0qjpFDON4R-eeR8tTsDKGvxuAHL2AWiQQnrjiJ_h4_rH1IfzyBPHRZUmQGoESqcpQ8pXfOz_qHQbm2bcPo9nOBWVOfJKk99q6yEia4K6nkXJgYZJsFZnFm00]--></g></svg>