<svg xmlns="http://www.w3.org/2000/svg" xmlns:xlink="http://www.w3.org/1999/xlink" contentStyleType="text/css" height="442px" preserveAspectRatio="none" style="width:374px;height:442px;background:#24273A;" version="1.1" viewBox="0 0 374 442" width="374px" zoomAndPan="magnify"><defs/><g><rect fill="#24273A" height="442" style="stroke:none;stroke-width:1.0;" width="374" x="0" y="0"/><!--class Kind--><g id="elem_Kind"><rect codeLine="7" fill="#24273A" height="30" id="Kind" rx="1.5" ry="1.5" style="stroke:#C6A0F6;stroke-width:2.0;" width="88.0254" x="100.67" y="405"/><rect fill="#363A4F" height="30" rx="1.5" ry="1.5" style="stroke:#363A4F;stroke-width:2.0;" width="88.0254" x="100.67" y="405"/><rect fill="#363A4F" height="1.5" style="stroke:#363A4F;stroke-width:2.0;" width="88.0254" x="100.67" y="433.5"/><rect codeLine="7" fill="none" height="30" id="Kind" rx="1.5" ry="1.5" style="stroke:#C6A0F6;stroke-width:2.0;" width="88.0254" x="100.67" y="405"/><ellipse cx="114.67" cy="420" fill="#B4A7E5" rx="10" ry="10" style="stroke:#181818;stroke-width:1.0;"/><path d="M111.6778,417.2754 L111.6778,415.752 L116.8868,415.752 L116.8868,417.2754 L115.1466,417.2754 L115.1466,422.9766 L116.8868,422.9766 L116.8868,424.5 L111.6778,424.5 L111.6778,422.9766 L113.418,422.9766 L113.418,417.2754 Z " fill="#CAD3F5"/><text fill="#A6DA95" font-family="Helvetica" font-size="16" font-style="italic" lengthAdjust="spacing" textLength="32.0234" x="127.67" y="424.3203">Kind</text><rect fill="#24273A" height="14" style="stroke:#C6A0F6;stroke-width:1.0;stroke-dasharray:2.0,2.0;" width="24.002" x="167.6934" y="402"/><text fill="#CAD3F5" font-family="Helvetica" font-size="12" font-style="italic" lengthAdjust="spacing" textLength="22.002" x="168.6934" y="412.2402">F, A</text></g><!--class FunctorBase--><g id="elem_FunctorBase"><rect codeLine="8" fill="#24273A" height="30" id="FunctorBase" rx="1.5" ry="1.5" style="stroke:#C6A0F6;stroke-width:2.0;" width="98.2383" x="34.57" y="314"/><rect fill="#363A4F" height="30" rx="1.5" ry="1.5" style="stroke:#363A4F;stroke-width:2.0;" width="98.2383" x="34.57" y="314"/><rect fill="#363A4F" height="1.5" style="stroke:#363A4F;stroke-width:2.0;" width="98.2383" x="34.57" y="342.5"/><rect codeLine="8" fill="none" height="30" id="FunctorBase" rx="1.5" ry="1.5" style="stroke:#C6A0F6;stroke-width:2.0;" width="98.2383" x="34.57" y="314"/><ellipse cx="48.57" cy="329" fill="#B4A7E5" rx="10" ry="10" style="stroke:#181818;stroke-width:1.0;"/><path d="M45.5778,326.2754 L45.5778,324.752 L50.7868,324.752 L50.7868,326.2754 L49.0466,326.2754 L49.0466,331.9766 L50.7868,331.9766 L50.7868,333.5 L45.5778,333.5 L45.5778,331.9766 L47.318,331.9766 L47.318,326.2754 Z " fill="#CAD3F5"/><text fill="#A6DA95" font-family="Helvetica" font-size="16" font-style="italic" lengthAdjust="spacing" textLength="54.2422" x="61.57" y="333.3203">Functor</text><rect fill="#24273A" height="14" style="stroke:#C6A0F6;stroke-width:1.0;stroke-dasharray:2.0,2.0;" width="11.9961" x="123.8122" y="311"/><text fill="#CAD3F5" font-family="Helvetica" font-size="12" font-style="italic" lengthAdjust="spacing" textLength="9.9961" x="124.8122" y="321.2402">M</text></g><!--class ApplicativeBase--><g id="elem_ApplicativeBase"><rect codeLine="9" fill="#24273A" height="30" id="ApplicativeBase" rx="1.5" ry="1.5" style="stroke:#C6A0F6;stroke-width:2.0;" width="121.3711" x="7" y="219"/><rect fill="#363A4F" height="30" rx="1.5" ry="1.5" style="stroke:#363A4F;stroke-width:2.0;" width="121.3711" x="7" y="219"/><rect fill="#363A4F" height="1.5" style="stroke:#363A4F;stroke-width:2.0;" width="121.3711" x="7" y="247.5"/><rect codeLine="9" fill="none" height="30" id="ApplicativeBase" rx="1.5" ry="1.5" style="stroke:#C6A0F6;stroke-width:2.0;" width="121.3711" x="7" y="219"/><ellipse cx="21" cy="234" fill="#B4A7E5" rx="10" ry="10" style="stroke:#181818;stroke-width:1.0;"/><path d="M18.0078,231.2754 L18.0078,229.752 L23.2168,229.752 L23.2168,231.2754 L21.4766,231.2754 L21.4766,236.9766 L23.2168,236.9766 L23.2168,238.5 L18.0078,238.5 L18.0078,236.9766 L19.748,236.9766 L19.748,231.2754 Z " fill="#CAD3F5"/><text fill="#A6DA95" font-family="Helvetica" font-size="16" font-style="italic" lengthAdjust="spacing" textLength="77.375" x="34" y="238.3203">Applicative</text><rect fill="#24273A" height="14" style="stroke:#C6A0F6;stroke-width:1.0;stroke-dasharray:2.0,2.0;" width="11.9961" x="119.375" y="216"/><text fill="#CAD3F5" font-family="Helvetica" font-size="12" font-style="italic" lengthAdjust="spacing" textLength="9.9961" x="120.375" y="226.2402">M</text></g><!--class MonadBase--><g id="elem_MonadBase"><rect codeLine="10" fill="#24273A" height="30" id="MonadBase" rx="1.5" ry="1.5" style="stroke:#C6A0F6;stroke-width:2.0;" width="92.918" x="21.23" y="111"/><rect fill="#363A4F" height="30" rx="1.5" ry="1.5" style="stroke:#363A4F;stroke-width:2.0;" width="92.918" x="21.23" y="111"/><rect fill="#363A4F" height="1.5" style="stroke:#363A4F;stroke-width:2.0;" width="92.918" x="21.23" y="139.5"/><rect codeLine="10" fill="none" height="30" id="MonadBase" rx="1.5" ry="1.5" style="stroke:#C6A0F6;stroke-width:2.0;" width="92.918" x="21.23" y="111"/><ellipse cx="35.23" cy="126" fill="#B4A7E5" rx="10" ry="10" style="stroke:#181818;stroke-width:1.0;"/><path d="M32.2378,123.2754 L32.2378,121.752 L37.4468,121.752 L37.4468,123.2754 L35.7066,123.2754 L35.7066,128.9766 L37.4468,128.9766 L37.4468,130.5 L32.2378,130.5 L32.2378,128.9766 L33.978,128.9766 L33.978,123.2754 Z " fill="#CAD3F5"/><text fill="#A6DA95" font-family="Helvetica" font-size="16" font-style="italic" lengthAdjust="spacing" textLength="48.9219" x="48.23" y="130.3203">Monad</text><rect fill="#24273A" height="14" style="stroke:#C6A0F6;stroke-width:1.0;stroke-dasharray:2.0,2.0;" width="11.9961" x="105.1519" y="108"/><text fill="#CAD3F5" font-family="Helvetica" font-size="12" font-style="italic" lengthAdjust="spacing" textLength="9.9961" x="106.1519" y="118.2402">M</text></g><!--class Id--><g id="elem_Id"><rect codeLine="15" fill="#24273A" height="38" id="Id" rx="1.5" ry="1.5" style="stroke:#C6A0F6;stroke-width:2.0;" width="90.0352" x="163.67" y="215"/><rect fill="#363A4F" height="38" rx="1.5" ry="1.5" style="stroke:#363A4F;stroke-width:2.0;" width="90.0352" x="163.67" y="215"/><rect fill="#363A4F" height="1.5" style="stroke:#363A4F;stroke-width:2.0;" width="90.0352" x="163.67" y="251.5"/><rect codeLine="15" fill="none" height="38" id="Id" rx="1.5" ry="1.5" style="stroke:#C6A0F6;stroke-width:2.0;" width="90.0352" x="163.67" y="215"/><ellipse cx="177.67" cy="234" fill="#DA70D6" rx="10" ry="10" style="stroke:#181818;stroke-width:1.0;"/><path d="M177.8985,234.3691 Q178.1563,234.4219 178.3468,234.6123 Q178.5372,234.8027 178.8126,235.3535 L180.3946,238.5 L178.4962,238.5 L177.4415,236.291 Q177.3946,236.1973 177.3184,236.0332 Q176.8555,235.043 176.2286,235.043 L175.6778,235.043 L175.6778,238.5 L173.9493,238.5 L173.9493,229.752 L176.4454,229.752 Q178.1329,229.752 178.8682,230.3496 Q179.6036,230.9473 179.6036,232.2949 Q179.6036,233.1973 179.1641,233.7305 Q178.7247,234.2637 177.8985,234.3691 Z M175.6778,231.2051 L175.6778,233.5898 L176.4923,233.5898 Q177.2013,233.5898 177.5089,233.3115 Q177.8165,233.0332 177.8165,232.3945 Q177.8165,231.7559 177.5118,231.4805 Q177.2071,231.2051 176.4923,231.2051 Z " fill="#CAD3F5"/><text fill="#CAD3F5" font-family="Helvetica" font-size="12" font-style="italic" lengthAdjust="spacing" textLength="52.0313" x="188.67" y="229.2402">&#171;Record&#187;</text><text fill="#A6DA95" font-family="Helvetica" font-size="16" lengthAdjust="spacing" textLength="13.3438" x="208.0138" y="244.3203">Id</text><rect fill="#24273A" height="14" style="stroke:#C6A0F6;stroke-width:1.0;stroke-dasharray:2.0,2.0;" width="10.0039" x="246.7013" y="212"/><text fill="#CAD3F5" font-family="Helvetica" font-size="12" font-style="italic" lengthAdjust="spacing" textLength="8.0039" x="247.7013" y="222.2402">A</text></g><!--class IdKindHelper--><g id="elem_IdKindHelper"><rect codeLine="25" fill="#24273A" height="30" id="IdKindHelper" rx="1.5" ry="1.5" style="stroke:#C6A0F6;stroke-width:2.0;" width="122.5" x="245.44" y="111"/><rect fill="#363A4F" height="30" rx="1.5" ry="1.5" style="stroke:#363A4F;stroke-width:2.0;" width="122.5" x="245.44" y="111"/><rect fill="#363A4F" height="1.5" style="stroke:#363A4F;stroke-width:2.0;" width="122.5" x="245.44" y="139.5"/><rect codeLine="25" fill="none" height="30" id="IdKindHelper" rx="1.5" ry="1.5" style="stroke:#C6A0F6;stroke-width:2.0;" width="122.5" x="245.44" y="111"/><ellipse cx="259.44" cy="126" fill="#808080" rx="10" ry="10" style="stroke:#181818;stroke-width:1.0;"/><path d="M256.2427,121.752 L257.9713,121.752 L257.9713,125.0859 L260.1334,125.0859 L260.1334,121.752 L261.8619,121.752 L261.8619,130.5 L260.1334,130.5 L260.1334,126.6094 L257.9713,126.6094 L257.9713,130.5 L256.2427,130.5 Z " fill="#CAD3F5"/><text fill="#A6DA95" font-family="Helvetica" font-size="16" lengthAdjust="spacing" textLength="92.5" x="272.44" y="130.3203">IdKindHelper</text></g><!--class IdentityMonad--><g id="elem_IdentityMonad"><rect codeLine="35" fill="#24273A" height="30" id="IdentityMonad" rx="1.5" ry="1.5" style="stroke:#C6A0F6;stroke-width:2.0;" width="130.5078" x="118.43" y="7"/><rect fill="#363A4F" height="30" rx="1.5" ry="1.5" style="stroke:#363A4F;stroke-width:2.0;" width="130.5078" x="118.43" y="7"/><rect fill="#363A4F" height="1.5" style="stroke:#363A4F;stroke-width:2.0;" width="130.5078" x="118.43" y="35.5"/><rect codeLine="35" fill="none" height="30" id="IdentityMonad" rx="1.5" ry="1.5" style="stroke:#C6A0F6;stroke-width:2.0;" width="130.5078" x="118.43" y="7"/><ellipse cx="132.43" cy="22" fill="#ADD1B2" rx="10" ry="10" style="stroke:#181818;stroke-width:1.0;"/><path d="M134.264,26.248 Q133.8538,26.459 133.4027,26.5645 Q132.9515,26.6699 132.4534,26.6699 Q130.6839,26.6699 129.7523,25.5039 Q128.8206,24.3379 128.8206,22.1348 Q128.8206,19.9258 129.7523,18.7598 Q130.6839,17.5938 132.4534,17.5938 Q132.9515,17.5938 133.4085,17.6992 Q133.8655,17.8047 134.264,18.0156 L134.264,19.9375 Q133.8187,19.5273 133.3997,19.3369 Q132.9808,19.1465 132.5355,19.1465 Q131.5863,19.1465 131.1029,19.8994 Q130.6195,20.6523 130.6195,22.1348 Q130.6195,23.6113 131.1029,24.3643 Q131.5863,25.1172 132.5355,25.1172 Q132.9808,25.1172 133.3997,24.9268 Q133.8187,24.7363 134.264,24.3262 Z " fill="#CAD3F5"/><text fill="#A6DA95" font-family="Helvetica" font-size="16" lengthAdjust="spacing" textLength="100.5078" x="145.43" y="26.3203">IdentityMonad</text></g><!--link MonadBase to ApplicativeBase--><g id="link_MonadBase_ApplicativeBase"><path codeLine="53" d="M67.69,141.3 C67.69,161.53 67.69,180.3 67.69,200.59 " fill="none" id="MonadBase-to-ApplicativeBase" style="stroke:#F5BDE6;stroke-width:1.0;"/><polygon fill="none" points="67.69,218.59,73.69,200.59,61.69,200.59,67.69,218.59" style="stroke:#F5BDE6;stroke-width:1.0;"/></g><!--link ApplicativeBase to FunctorBase--><g id="link_ApplicativeBase_FunctorBase"><path codeLine="54" d="M70.12,249.12 C73.12,266.6 75.1557,278.461 78.1757,296.001 " fill="none" id="ApplicativeBase-to-FunctorBase" style="stroke:#F5BDE6;stroke-width:1.0;"/><polygon fill="none" points="81.23,313.74,84.0887,294.9829,72.2627,297.0191,81.23,313.74" style="stroke:#F5BDE6;stroke-width:1.0;"/></g><!--link FunctorBase to Kind--><g id="link_FunctorBase_Kind"><path codeLine="55" d="M93.49,344.3 C104.87,360.91 113.3683,373.2895 124.7383,389.8895 " fill="none" id="FunctorBase-to-Kind" style="stroke:#F5BDE6;stroke-width:1.0;"/><polygon fill="none" points="134.91,404.74,129.6885,386.499,119.7882,393.2801,134.91,404.74" style="stroke:#F5BDE6;stroke-width:1.0;"/></g><!--link Id to Kind--><g id="link_Id_Kind"><path codeLine="59" d="M202.32,253.32 C189.54,290.04 166.9662,354.97 155.5062,387.9 " fill="none" id="Id-to-Kind" style="stroke:#F5BDE6;stroke-width:1.0;"/><polygon fill="none" points="149.59,404.9,161.1728,389.8721,149.8395,385.928,149.59,404.9" style="stroke:#F5BDE6;stroke-width:1.0;"/><text fill="#CAD3F5" font-family="Helvetica" font-size="12" lengthAdjust="spacing" textLength="84.7031" x="182.21" y="332.2402">&lt;Id.Witness, A&gt;</text></g><!--link IdentityMonad to MonadBase--><g id="link_IdentityMonad_MonadBase"><path codeLine="62" d="M130.35,37.48 C114.13,44.16 97.49,53.67 85.69,67 C74.92,79.15 73.009,79.8333 71.269,92.6633 " fill="none" id="IdentityMonad-to-MonadBase" style="stroke:#F5BDE6;stroke-width:1.0;stroke-dasharray:7.0,7.0;"/><polygon fill="none" points="68.85,110.5,77.2146,93.4696,65.3234,91.8569,68.85,110.5" style="stroke:#F5BDE6;stroke-width:1.0;"/><text fill="#CAD3F5" font-family="Helvetica" font-size="12" lengthAdjust="spacing" textLength="70.0313" x="86.69" y="77.2402">&lt;Id.Witness&gt;</text></g><!--link IdentityMonad to IdKindHelper--><g id="link_IdentityMonad_IdKindHelper"><path codeLine="65" d="M201.05,37.4 C224.49,56.84 261.4028,87.4384 284.7928,106.8484 " fill="none" id="IdentityMonad-to-IdKindHelper" style="stroke:#F5BDE6;stroke-width:1.0;stroke-dasharray:7.0,7.0;"/><polygon fill="#F5BDE6" points="289.41,110.68,285.0385,101.8545,285.5623,107.487,279.9297,108.0108,289.41,110.68" style="stroke:#F5BDE6;stroke-width:1.0;"/><text fill="#CAD3F5" font-family="Helvetica" font-size="12" lengthAdjust="spacing" textLength="65.3613" x="253.55" y="77.2402">uses narrow</text></g><!--link IdentityMonad to Id--><g id="link_IdentityMonad_Id"><path codeLine="66" d="M185.4,37.43 C189.83,74.59 200.8904,167.5521 205.7904,208.6921 " fill="none" id="IdentityMonad-to-Id" style="stroke:#F5BDE6;stroke-width:1.0;stroke-dasharray:7.0,7.0;"/><polygon fill="#F5BDE6" points="206.5,214.65,209.4075,205.2401,205.9087,209.6851,201.4636,206.1862,206.5,214.65" style="stroke:#F5BDE6;stroke-width:1.0;"/><text fill="#CAD3F5" font-family="Helvetica" font-size="12" lengthAdjust="spacing" textLength="25.3477" x="198.43" y="129.2402">uses</text></g><!--link IdKindHelper to Id--><g id="link_IdKindHelper_Id"><path codeLine="68" d="M293.47,141.3 C275.91,160.28 248.9634,189.4346 229.7034,210.2646 " fill="none" id="IdKindHelper-to-Id" style="stroke:#F5BDE6;stroke-width:1.0;stroke-dasharray:7.0,7.0;"/><polygon fill="#F5BDE6" points="225.63,214.67,234.677,210.7775,229.0245,210.9988,228.8031,205.3463,225.63,214.67" style="stroke:#F5BDE6;stroke-width:1.0;"/><text fill="#CAD3F5" font-family="Helvetica" font-size="12" lengthAdjust="spacing" textLength="97.3828" x="264.55" y="181.2402">uses wrap/unwrap</text></g><!--SRC=[fLPDRzim3BtxLt2zDC7Yv1u4xjnkHOAYFJGPTbPakH4cIu8afmkw_VTHydVgR0EMWs5BZu_a8qNb0vTKb1c3WtFQBXSBGrxdBzmTodrfcQ5AEYRTdAfY8QcoZiISBYXnMfUKSXaNXD839qx5MX3foaB4xi0AjYW8bulmEjUu6aNHWQCRLcXtWe8LUsPi55t3dJ8CrWyxsA0danFARCIRLxXwu39RtSyWJQw0MF2VyFQhZxWl9NNAh1uhHFrvIomx0wPQ2uwXyoDhmBsb4OD79KdMGCD70yAuupY6JGPRpIZFESKy2gqaQcNzbaTiibMQ0BT0m32gJ0O4W-VECf43eGX4MbIeIYfN1YtctxYJpDg82c8jN0MEu1zzhLOmUPufWu9dKtYkE9C4tYA0QqYfAubef0MLrm5KlfS1yn4-FPL2aBrWaCAHY99Dfc5dwr052fWuYdTgq6ysBF-2rIxnTFXK-QJZs5KS5SL68bgYS0Lp1vLPc11X5MXYd8yc20ZOK9Hf1_lIGSOnDYTEeAHFpok0sqScEKFGj0bYTHjyuxCWUXBgovLStO0jDJEGpk06s0ziKtI9e5nEtndcWhZ7lneZjizKKM6nsrhuGgsPGCEw9Dr2ACvwzcBOQThLvAlZWcE_LyNrrV0j47gwgxLlxe2-KwYWANq5gjpZWOl959UquKVYMBzcjTplQvOcjLD9Z56lan6_y1tNfcEMO-1NWnhMRJrkrM-lKWRyPQ-jj9iCpmtgLBL89Tscq0A7XpzFrJdiA2grjbo-2EQmTtZTUAreJzjT-dJtPJaalgnn3tH9vFfWX4eE_VKK6ERHmEeJrYmsu-MiR9Sq7vot54ZRtDYwjoCcvyUaWkLoDigU_mlVM167_4YK_uU3TySpdOtX_fn6EvMV6T8XYprmtGxZmGq3QyuCmJbwYhgn7iS_a_CB8Jg_80AeTyL4_UicRFhmgkcFaxSNI7iXr7S1x_fxBADcDaR8q_B24ixdHXGDcsu-HsoNrC0WyN5zPXhd6mvOZXVjkMqod6bBmFy0jXuVe-0QugFesGtsmjHOLCCWyh_V]--></g></svg>