<svg xmlns="http://www.w3.org/2000/svg" xmlns:xlink="http://www.w3.org/1999/xlink" contentStyleType="text/css" height="430px" preserveAspectRatio="none" style="width:518px;height:430px;background:#24273A;" version="1.1" viewBox="0 0 518 430" width="518px" zoomAndPan="magnify"><defs/><g><rect fill="#24273A" height="430" style="stroke:none;stroke-width:1.0;" width="518" x="0" y="0"/><!--class Kind--><g id="elem_Kind"><rect codeLine="4" fill="#24273A" height="38" id="Kind" rx="1.5" ry="1.5" style="stroke:#C6A0F6;stroke-width:2.0;" width="127.3711" x="7" y="10"/><rect fill="#363A4F" height="38" rx="1.5" ry="1.5" style="stroke:#363A4F;stroke-width:2.0;" width="127.3711" x="7" y="10"/><rect fill="#363A4F" height="1.5" style="stroke:#363A4F;stroke-width:2.0;" width="127.3711" x="7" y="46.5"/><rect codeLine="4" fill="none" height="38" id="Kind" rx="1.5" ry="1.5" style="stroke:#C6A0F6;stroke-width:2.0;" width="127.3711" x="7" y="10"/><ellipse cx="21" cy="29" fill="#B4A7E5" rx="10" ry="10" style="stroke:#181818;stroke-width:1.0;"/><path d="M18.0078,26.2754 L18.0078,24.752 L23.2168,24.752 L23.2168,26.2754 L21.4766,26.2754 L21.4766,31.9766 L23.2168,31.9766 L23.2168,33.5 L18.0078,33.5 L18.0078,31.9766 L19.748,31.9766 L19.748,26.2754 Z " fill="#CAD3F5"/><text fill="#CAD3F5" font-family="Helvetica" font-size="12" font-style="italic" lengthAdjust="spacing" textLength="75.3691" x="32" y="24.2402">&#171;HKT Bridge&#187;</text><text fill="#A6DA95" font-family="Helvetica" font-size="16" font-style="italic" lengthAdjust="spacing" textLength="32.0234" x="53.6729" y="39.3203">Kind</text><rect fill="#24273A" height="14" style="stroke:#C6A0F6;stroke-width:1.0;stroke-dasharray:2.0,2.0;" width="24.002" x="113.3691" y="7"/><text fill="#CAD3F5" font-family="Helvetica" font-size="12" font-style="italic" lengthAdjust="spacing" textLength="22.002" x="114.3691" y="17.2402">F, A</text></g><!--class IOKind--><g id="elem_IOKind"><rect codeLine="6" fill="#24273A" height="30" id="IOKind" rx="1.5" ry="1.5" style="stroke:#C6A0F6;stroke-width:2.0;" width="90.918" x="25.23" y="137"/><rect fill="#363A4F" height="30" rx="1.5" ry="1.5" style="stroke:#363A4F;stroke-width:2.0;" width="90.918" x="25.23" y="137"/><rect fill="#363A4F" height="1.5" style="stroke:#363A4F;stroke-width:2.0;" width="90.918" x="25.23" y="165.5"/><rect codeLine="6" fill="none" height="30" id="IOKind" rx="1.5" ry="1.5" style="stroke:#C6A0F6;stroke-width:2.0;" width="90.918" x="25.23" y="137"/><ellipse cx="39.23" cy="152" fill="#B4A7E5" rx="10" ry="10" style="stroke:#181818;stroke-width:1.0;"/><path d="M36.2378,149.2754 L36.2378,147.752 L41.4468,147.752 L41.4468,149.2754 L39.7066,149.2754 L39.7066,154.9766 L41.4468,154.9766 L41.4468,156.5 L36.2378,156.5 L36.2378,154.9766 L37.978,154.9766 L37.978,149.2754 Z " fill="#CAD3F5"/><text fill="#A6DA95" font-family="Helvetica" font-size="16" font-style="italic" lengthAdjust="spacing" textLength="48.9141" x="52.23" y="156.3203">IOKind</text><rect fill="#24273A" height="14" style="stroke:#C6A0F6;stroke-width:1.0;stroke-dasharray:2.0,2.0;" width="10.0039" x="109.1441" y="134"/><text fill="#CAD3F5" font-family="Helvetica" font-size="12" font-style="italic" lengthAdjust="spacing" textLength="8.0039" x="110.1441" y="144.2402">A</text></g><!--class IO--><g id="elem_IO"><rect codeLine="10" fill="#24273A" height="30" id="IO" rx="1.5" ry="1.5" style="stroke:#C6A0F6;stroke-width:2.0;" width="58.8945" x="223.24" y="393"/><rect fill="#363A4F" height="30" rx="1.5" ry="1.5" style="stroke:#363A4F;stroke-width:2.0;" width="58.8945" x="223.24" y="393"/><rect fill="#363A4F" height="1.5" style="stroke:#363A4F;stroke-width:2.0;" width="58.8945" x="223.24" y="421.5"/><rect codeLine="10" fill="none" height="30" id="IO" rx="1.5" ry="1.5" style="stroke:#C6A0F6;stroke-width:2.0;" width="58.8945" x="223.24" y="393"/><ellipse cx="237.24" cy="408" fill="#B4A7E5" rx="10" ry="10" style="stroke:#181818;stroke-width:1.0;"/><path d="M234.2478,405.2754 L234.2478,403.752 L239.4568,403.752 L239.4568,405.2754 L237.7166,405.2754 L237.7166,410.9766 L239.4568,410.9766 L239.4568,412.5 L234.2478,412.5 L234.2478,410.9766 L235.988,410.9766 L235.988,405.2754 Z " fill="#CAD3F5"/><text fill="#A6DA95" font-family="Helvetica" font-size="16" font-style="italic" lengthAdjust="spacing" textLength="16.8906" x="250.24" y="412.3203">IO</text><rect fill="#24273A" height="14" style="stroke:#C6A0F6;stroke-width:1.0;stroke-dasharray:2.0,2.0;" width="10.0039" x="275.1306" y="390"/><text fill="#CAD3F5" font-family="Helvetica" font-size="12" font-style="italic" lengthAdjust="spacing" textLength="8.0039" x="276.1306" y="400.2402">A</text></g><!--class IOKindHelper--><g id="elem_IOKindHelper"><rect codeLine="15" fill="#24273A" height="86" id="IOKindHelper" rx="1.5" ry="1.5" style="stroke:#C6A0F6;stroke-width:2.0;" width="360.168" x="151.6" y="109"/><rect fill="#363A4F" height="30" rx="1.5" ry="1.5" style="stroke:#363A4F;stroke-width:2.0;" width="360.168" x="151.6" y="109"/><rect fill="#363A4F" height="1.5" style="stroke:#363A4F;stroke-width:2.0;" width="360.168" x="151.6" y="137.5"/><rect codeLine="15" fill="none" height="86" id="IOKindHelper" rx="1.5" ry="1.5" style="stroke:#C6A0F6;stroke-width:2.0;" width="360.168" x="151.6" y="109"/><ellipse cx="279.6605" cy="124" fill="#ADD1B2" rx="10" ry="10" style="stroke:#181818;stroke-width:1.0;"/><path d="M281.4945,128.248 Q281.0844,128.459 280.6332,128.5645 Q280.182,128.6699 279.684,128.6699 Q277.9145,128.6699 276.9828,127.5039 Q276.0512,126.3379 276.0512,124.1348 Q276.0512,121.9258 276.9828,120.7598 Q277.9145,119.5938 279.684,119.5938 Q280.182,119.5938 280.6391,119.6992 Q281.0961,119.8047 281.4945,120.0156 L281.4945,121.9375 Q281.0492,121.5273 280.6303,121.3369 Q280.2113,121.1465 279.766,121.1465 Q278.8168,121.1465 278.3334,121.8994 Q277.85,122.6523 277.85,124.1348 Q277.85,125.6113 278.3334,126.3643 Q278.8168,127.1172 279.766,127.1172 Q280.2113,127.1172 280.6303,126.9268 Q281.0492,126.7363 281.4945,126.3262 Z " fill="#CAD3F5"/><text fill="#A6DA95" font-family="Helvetica" font-size="16" lengthAdjust="spacing" textLength="96.0469" x="298.6605" y="128.3203">IOKindHelper</text><line style="stroke:#C6A0F6;stroke-width:2.0;" x1="152.6" x2="510.768" y1="139" y2="139"/><ellipse cx="162.6" cy="150.5" fill="#84BE84" rx="3" ry="3" style="stroke:#038048;stroke-width:1.0;"/><text fill="#A6DA95" font-family="Helvetica" font-size="12" lengthAdjust="spacing" text-decoration="underline" textLength="270.9668" x="170.6" y="152.2402">Kind&lt;IOKind.Witness, A&gt; widen(@NonNull IO&lt;A&gt;)</text><ellipse cx="162.6" cy="162.5" fill="#84BE84" rx="3" ry="3" style="stroke:#038048;stroke-width:1.0;"/><text fill="#A6DA95" font-family="Helvetica" font-size="12" lengthAdjust="spacing" text-decoration="underline" textLength="335.168" x="170.6" y="164.2402">@NonNull IO&lt;A&gt; narrow(@Nullable Kind&lt;IOKind.Witness, A&gt;)</text><ellipse cx="162.6" cy="174.5" fill="#84BE84" rx="3" ry="3" style="stroke:#038048;stroke-width:1.0;"/><text fill="#A6DA95" font-family="Helvetica" font-size="12" lengthAdjust="spacing" text-decoration="underline" textLength="241.459" x="170.6" y="176.2402">Kind&lt;IOKind.Witness, A&gt; delay(Supplier&lt;A&gt;)</text><ellipse cx="162.6" cy="186.5" fill="#84BE84" rx="3" ry="3" style="stroke:#038048;stroke-width:1.0;"/><text fill="#A6DA95" font-family="Helvetica" font-size="12" lengthAdjust="spacing" text-decoration="underline" textLength="214.1309" x="170.6" y="188.2402">A unsafeRunSync(Kind&lt;IOKind&lt;?&gt;, A&gt;)</text></g><!--class IOHolder--><g id="elem_IOHolder"><rect codeLine="23" fill="#24273A" height="50" id="IOHolder" rx="1.5" ry="1.5" style="stroke:#C6A0F6;stroke-width:2.0;" width="175.9258" x="85.72" y="269"/><rect fill="#363A4F" height="30" rx="1.5" ry="1.5" style="stroke:#363A4F;stroke-width:2.0;" width="175.9258" x="85.72" y="269"/><rect fill="#363A4F" height="1.5" style="stroke:#363A4F;stroke-width:2.0;" width="175.9258" x="85.72" y="297.5"/><rect codeLine="23" fill="none" height="50" id="IOHolder" rx="1.5" ry="1.5" style="stroke:#C6A0F6;stroke-width:2.0;" width="175.9258" x="85.72" y="269"/><ellipse cx="131.6692" cy="284" fill="#ADD1B2" rx="10" ry="10" style="stroke:#181818;stroke-width:1.0;"/><path d="M133.5032,288.248 Q133.093,288.459 132.6419,288.5645 Q132.1907,288.6699 131.6927,288.6699 Q129.9231,288.6699 128.9915,287.5039 Q128.0598,286.3379 128.0598,284.1348 Q128.0598,281.9258 128.9915,280.7598 Q129.9231,279.5938 131.6927,279.5938 Q132.1907,279.5938 132.6477,279.6992 Q133.1048,279.8047 133.5032,280.0156 L133.5032,281.9375 Q133.0579,281.5273 132.6389,281.3369 Q132.22,281.1465 131.7747,281.1465 Q130.8255,281.1465 130.3421,281.8994 Q129.8587,282.6523 129.8587,284.1348 Q129.8587,285.6113 130.3421,286.3643 Q130.8255,287.1172 131.7747,287.1172 Q132.22,287.1172 132.6389,286.9268 Q133.0579,286.7363 133.5032,286.3262 Z " fill="#CAD3F5"/><text fill="#A6DA95" font-family="Helvetica" font-size="16" lengthAdjust="spacing" textLength="64.0234" x="150.6692" y="288.3203">IOHolder</text><rect fill="#24273A" height="14" style="stroke:#C6A0F6;stroke-width:1.0;stroke-dasharray:2.0,2.0;" width="10.0039" x="254.6419" y="266"/><text fill="#CAD3F5" font-family="Helvetica" font-size="12" font-style="italic" lengthAdjust="spacing" textLength="8.0039" x="255.6419" y="276.2402">A</text><line style="stroke:#C6A0F6;stroke-width:2.0;" x1="86.72" x2="260.6458" y1="299" y2="299"/><rect fill="none" height="6" style="stroke:#C82930;stroke-width:1.0;" width="6" x="93.72" y="307.5"/><text fill="#A6DA95" font-family="Helvetica" font-size="12" lengthAdjust="spacing" textLength="150.9258" x="104.72" y="312.2402">@NonNull IO&lt;A&gt; ioInstance</text></g><!--reverse link Kind to IOKind--><g id="link_Kind_IOKind"><path d="M70.69,66.38 C70.69,90.57 70.69,114.62 70.69,136.63 " fill="none" id="Kind-backto-IOKind" style="stroke:#F5BDE6;stroke-width:1.0;"/><polygon fill="none" points="70.69,48.38,64.69,66.38,76.69,66.38,70.69,48.38" style="stroke:#F5BDE6;stroke-width:1.0;"/></g><!--reverse link IOKind to IOHolder--><g id="link_IOKind_IOHolder"><path d="M91.9885,181.9577 C109.5685,205.8477 134.21,239.34 155.71,268.57 " fill="none" id="IOKind-backto-IOHolder" style="stroke:#F5BDE6;stroke-width:1.0;stroke-dasharray:7.0,7.0;"/><polygon fill="none" points="81.32,167.46,87.1559,185.5139,96.821,178.4016,81.32,167.46" style="stroke:#F5BDE6;stroke-width:1.0;"/></g><!--link IOKindHelper to IOHolder--><g id="link_IOKindHelper_IOHolder"><path codeLine="27" d="M283.85,195.38 C256.79,219.37 228.4004,244.5206 205.6404,264.6906 " fill="none" id="IOKindHelper-to-IOHolder" style="stroke:#F5BDE6;stroke-width:1.0;stroke-dasharray:7.0,7.0;"/><polygon fill="#F5BDE6" points="201.15,268.67,210.5386,265.6945,204.892,265.3538,205.2327,259.7072,201.15,268.67" style="stroke:#F5BDE6;stroke-width:1.0;"/><text fill="#CAD3F5" font-family="Helvetica" font-size="12" lengthAdjust="spacing" textLength="39.3516" x="248.95" y="235.2402">creates</text></g><!--link IOKindHelper to IO--><g id="link_IOKindHelper_IO"><path codeLine="28" d="M318.55,195.23 C300.48,253.35 270.6224,349.3309 258.9524,386.8409 " fill="none" id="IOKindHelper-to-IO" style="stroke:#F5BDE6;stroke-width:1.0;stroke-dasharray:7.0,7.0;"/><polygon fill="#F5BDE6" points="257.17,392.57,263.6631,385.1646,258.6554,387.7957,256.0242,382.788,257.17,392.57" style="stroke:#F5BDE6;stroke-width:1.0;"/><text fill="#CAD3F5" font-family="Helvetica" font-size="12" lengthAdjust="spacing" textLength="130.7109" x="295.82" y="297.2402">narrows to / widens from</text></g><!--link IOHolder to IO--><g id="link_IOHolder_IO"><path codeLine="29" d="M197.7459,329.1066 C213.5359,351.4966 226.0615,369.2571 239.1115,387.7571 " fill="none" id="IOHolder-IO" style="stroke:#F5BDE6;stroke-width:1.0;"/><polygon fill="none" points="190.83,319.3,191.0191,326.5086,197.7459,329.1066,197.5568,321.898,190.83,319.3" style="stroke:#F5BDE6;stroke-width:1.0;"/><polygon fill="#F5BDE6" points="242.57,392.66,240.6508,382.9999,239.6879,388.5742,234.1136,387.6113,242.57,392.66" style="stroke:#F5BDE6;stroke-width:1.0;"/><text fill="#CAD3F5" font-family="Helvetica" font-size="12" lengthAdjust="spacing" textLength="28.6875" x="221.26" y="359.2402">holds</text></g><!--SRC=[ZL91IpCn4BtlhnXFLdIpTwchzI0jWe8AdjFPgHj89Y6PK8lqlnjtQsdz5BvRUFFUcvUNd1X6cpk2NYIaowQ9UgtUZFHvcHD5z2p4ej2xXj4dqRN11hM4a14DrquZzaQBhuFLBDdPMdfor3Xjk1cEAXIqwarPGYx81Xov9SLKLQQOnvL6Wdl3tVJk0cOjJAVp-nUuZQPxexOz92qU1rhXq7j9rQLHjeElsq7-KG6SmgiHffJW3gvWFw-snsxJFNs6ahKj42nSi2KpYnRZ-KjH26XryHfzvcG3nK47S0uVwOk9syCeQhTzoBCkz-R9pOFdXspjkFNif_Xu3AnZzEiYAf1UMlhB_En_GtHazMRod4EmXk9l2MQGEUaLFML-tZ1E_crsb9o2KggSjeUzpBtj1bimt_MbWzSQkwf_tjBu1PVrZFJjTzImKktU6Yu18scXz3khpCVE4eY7PYmzmIfwDmXsBhwkT-o-0EK3VW80]--></g></svg>