<svg xmlns="http://www.w3.org/2000/svg" xmlns:xlink="http://www.w3.org/1999/xlink" contentStyleType="text/css" height="430px" preserveAspectRatio="none" style="width:495px;height:430px;background:#24273A;" version="1.1" viewBox="0 0 495 430" width="495px" zoomAndPan="magnify"><defs/><g><rect fill="#24273A" height="430" style="stroke:none;stroke-width:1.0;" width="495" x="0" y="0"/><!--class Kind--><g id="elem_Kind"><rect codeLine="4" fill="#24273A" height="38" id="Kind" rx="1.5" ry="1.5" style="stroke:#C6A0F6;stroke-width:2.0;" width="127.3711" x="7" y="10"/><rect fill="#363A4F" height="38" rx="1.5" ry="1.5" style="stroke:#363A4F;stroke-width:2.0;" width="127.3711" x="7" y="10"/><rect fill="#363A4F" height="1.5" style="stroke:#363A4F;stroke-width:2.0;" width="127.3711" x="7" y="46.5"/><rect codeLine="4" fill="none" height="38" id="Kind" rx="1.5" ry="1.5" style="stroke:#C6A0F6;stroke-width:2.0;" width="127.3711" x="7" y="10"/><ellipse cx="21" cy="29" fill="#B4A7E5" rx="10" ry="10" style="stroke:#181818;stroke-width:1.0;"/><path d="M18.0078,26.2754 L18.0078,24.752 L23.2168,24.752 L23.2168,26.2754 L21.4766,26.2754 L21.4766,31.9766 L23.2168,31.9766 L23.2168,33.5 L18.0078,33.5 L18.0078,31.9766 L19.748,31.9766 L19.748,26.2754 Z " fill="#CAD3F5"/><text fill="#CAD3F5" font-family="Helvetica" font-size="12" font-style="italic" lengthAdjust="spacing" textLength="75.3691" x="32" y="24.2402">&#171;HKT Bridge&#187;</text><text fill="#A6DA95" font-family="Helvetica" font-size="16" font-style="italic" lengthAdjust="spacing" textLength="32.0234" x="53.6729" y="39.3203">Kind</text><rect fill="#24273A" height="14" style="stroke:#C6A0F6;stroke-width:1.0;stroke-dasharray:2.0,2.0;" width="24.002" x="113.3691" y="7"/><text fill="#CAD3F5" font-family="Helvetica" font-size="12" font-style="italic" lengthAdjust="spacing" textLength="22.002" x="114.3691" y="17.2402">F, A</text></g><!--class IOKind--><g id="elem_IOKind"><rect codeLine="6" fill="#24273A" height="30" id="IOKind" rx="1.5" ry="1.5" style="stroke:#C6A0F6;stroke-width:2.0;" width="90.918" x="25.23" y="137"/><rect fill="#363A4F" height="30" rx="1.5" ry="1.5" style="stroke:#363A4F;stroke-width:2.0;" width="90.918" x="25.23" y="137"/><rect fill="#363A4F" height="1.5" style="stroke:#363A4F;stroke-width:2.0;" width="90.918" x="25.23" y="165.5"/><rect codeLine="6" fill="none" height="30" id="IOKind" rx="1.5" ry="1.5" style="stroke:#C6A0F6;stroke-width:2.0;" width="90.918" x="25.23" y="137"/><ellipse cx="39.23" cy="152" fill="#B4A7E5" rx="10" ry="10" style="stroke:#181818;stroke-width:1.0;"/><path d="M36.2378,149.2754 L36.2378,147.752 L41.4468,147.752 L41.4468,149.2754 L39.7066,149.2754 L39.7066,154.9766 L41.4468,154.9766 L41.4468,156.5 L36.2378,156.5 L36.2378,154.9766 L37.978,154.9766 L37.978,149.2754 Z " fill="#CAD3F5"/><text fill="#A6DA95" font-family="Helvetica" font-size="16" font-style="italic" lengthAdjust="spacing" textLength="48.9141" x="52.23" y="156.3203">IOKind</text><rect fill="#24273A" height="14" style="stroke:#C6A0F6;stroke-width:1.0;stroke-dasharray:2.0,2.0;" width="10.0039" x="109.1441" y="134"/><text fill="#CAD3F5" font-family="Helvetica" font-size="12" font-style="italic" lengthAdjust="spacing" textLength="8.0039" x="110.1441" y="144.2402">A</text></g><!--class IO--><g id="elem_IO"><rect codeLine="10" fill="#24273A" height="30" id="IO" rx="1.5" ry="1.5" style="stroke:#C6A0F6;stroke-width:2.0;" width="58.8945" x="211.24" y="393"/><rect fill="#363A4F" height="30" rx="1.5" ry="1.5" style="stroke:#363A4F;stroke-width:2.0;" width="58.8945" x="211.24" y="393"/><rect fill="#363A4F" height="1.5" style="stroke:#363A4F;stroke-width:2.0;" width="58.8945" x="211.24" y="421.5"/><rect codeLine="10" fill="none" height="30" id="IO" rx="1.5" ry="1.5" style="stroke:#C6A0F6;stroke-width:2.0;" width="58.8945" x="211.24" y="393"/><ellipse cx="225.24" cy="408" fill="#B4A7E5" rx="10" ry="10" style="stroke:#181818;stroke-width:1.0;"/><path d="M222.2478,405.2754 L222.2478,403.752 L227.4568,403.752 L227.4568,405.2754 L225.7166,405.2754 L225.7166,410.9766 L227.4568,410.9766 L227.4568,412.5 L222.2478,412.5 L222.2478,410.9766 L223.988,410.9766 L223.988,405.2754 Z " fill="#CAD3F5"/><text fill="#A6DA95" font-family="Helvetica" font-size="16" font-style="italic" lengthAdjust="spacing" textLength="16.8906" x="238.24" y="412.3203">IO</text><rect fill="#24273A" height="14" style="stroke:#C6A0F6;stroke-width:1.0;stroke-dasharray:2.0,2.0;" width="10.0039" x="263.1306" y="390"/><text fill="#CAD3F5" font-family="Helvetica" font-size="12" font-style="italic" lengthAdjust="spacing" textLength="8.0039" x="264.1306" y="400.2402">A</text></g><!--class IOKindHelper--><g id="elem_IOKindHelper"><rect codeLine="15" fill="#24273A" height="86" id="IOKindHelper" rx="1.5" ry="1.5" style="stroke:#C6A0F6;stroke-width:2.0;" width="337.5273" x="150.92" y="109"/><rect fill="#363A4F" height="30" rx="1.5" ry="1.5" style="stroke:#363A4F;stroke-width:2.0;" width="337.5273" x="150.92" y="109"/><rect fill="#363A4F" height="1.5" style="stroke:#363A4F;stroke-width:2.0;" width="337.5273" x="150.92" y="137.5"/><rect codeLine="15" fill="none" height="86" id="IOKindHelper" rx="1.5" ry="1.5" style="stroke:#C6A0F6;stroke-width:2.0;" width="337.5273" x="150.92" y="109"/><ellipse cx="267.6602" cy="124" fill="#ADD1B2" rx="10" ry="10" style="stroke:#181818;stroke-width:1.0;"/><path d="M269.4942,128.248 Q269.0841,128.459 268.6329,128.5645 Q268.1817,128.6699 267.6837,128.6699 Q265.9141,128.6699 264.9825,127.5039 Q264.0509,126.3379 264.0509,124.1348 Q264.0509,121.9258 264.9825,120.7598 Q265.9141,119.5938 267.6837,119.5938 Q268.1817,119.5938 268.6387,119.6992 Q269.0958,119.8047 269.4942,120.0156 L269.4942,121.9375 Q269.0489,121.5273 268.63,121.3369 Q268.211,121.1465 267.7657,121.1465 Q266.8165,121.1465 266.3331,121.8994 Q265.8497,122.6523 265.8497,124.1348 Q265.8497,125.6113 266.3331,126.3643 Q266.8165,127.1172 267.7657,127.1172 Q268.211,127.1172 268.63,126.9268 Q269.0489,126.7363 269.4942,126.3262 Z " fill="#CAD3F5"/><text fill="#A6DA95" font-family="Helvetica" font-size="16" lengthAdjust="spacing" textLength="96.0469" x="286.6602" y="128.3203">IOKindHelper</text><line style="stroke:#C6A0F6;stroke-width:2.0;" x1="151.92" x2="487.4473" y1="139" y2="139"/><ellipse cx="161.92" cy="150.5" fill="#84BE84" rx="3" ry="3" style="stroke:#038048;stroke-width:1.0;"/><text fill="#A6DA95" font-family="Helvetica" font-size="12" lengthAdjust="spacing" text-decoration="underline" textLength="188.9297" x="169.92" y="152.2402">IOKind&lt;A&gt; wrap(@NonNull IO&lt;A&gt;)</text><ellipse cx="161.92" cy="162.5" fill="#84BE84" rx="3" ry="3" style="stroke:#038048;stroke-width:1.0;"/><text fill="#A6DA95" font-family="Helvetica" font-size="12" lengthAdjust="spacing" text-decoration="underline" textLength="312.5273" x="169.92" y="164.2402">@NonNull IO&lt;A&gt; unwrap(@Nullable Kind&lt;IOKind&lt;?&gt;, A&gt;)</text><ellipse cx="161.92" cy="174.5" fill="#84BE84" rx="3" ry="3" style="stroke:#038048;stroke-width:1.0;"/><text fill="#A6DA95" font-family="Helvetica" font-size="12" lengthAdjust="spacing" text-decoration="underline" textLength="216.1406" x="169.92" y="176.2402">Kind&lt;IOKind&lt;?&gt;, A&gt; delay(Supplier&lt;A&gt;)</text><ellipse cx="161.92" cy="186.5" fill="#84BE84" rx="3" ry="3" style="stroke:#038048;stroke-width:1.0;"/><text fill="#A6DA95" font-family="Helvetica" font-size="12" lengthAdjust="spacing" text-decoration="underline" textLength="214.1309" x="169.92" y="188.2402">A unsafeRunSync(Kind&lt;IOKind&lt;?&gt;, A&gt;)</text></g><!--class IOHolder--><g id="elem_IOHolder"><rect codeLine="23" fill="#24273A" height="50" id="IOHolder" rx="1.5" ry="1.5" style="stroke:#C6A0F6;stroke-width:2.0;" width="175.9258" x="73.72" y="269"/><rect fill="#363A4F" height="30" rx="1.5" ry="1.5" style="stroke:#363A4F;stroke-width:2.0;" width="175.9258" x="73.72" y="269"/><rect fill="#363A4F" height="1.5" style="stroke:#363A4F;stroke-width:2.0;" width="175.9258" x="73.72" y="297.5"/><rect codeLine="23" fill="none" height="50" id="IOHolder" rx="1.5" ry="1.5" style="stroke:#C6A0F6;stroke-width:2.0;" width="175.9258" x="73.72" y="269"/><ellipse cx="119.6692" cy="284" fill="#ADD1B2" rx="10" ry="10" style="stroke:#181818;stroke-width:1.0;"/><path d="M121.5032,288.248 Q121.093,288.459 120.6419,288.5645 Q120.1907,288.6699 119.6927,288.6699 Q117.9231,288.6699 116.9915,287.5039 Q116.0598,286.3379 116.0598,284.1348 Q116.0598,281.9258 116.9915,280.7598 Q117.9231,279.5938 119.6927,279.5938 Q120.1907,279.5938 120.6477,279.6992 Q121.1048,279.8047 121.5032,280.0156 L121.5032,281.9375 Q121.0579,281.5273 120.6389,281.3369 Q120.22,281.1465 119.7747,281.1465 Q118.8255,281.1465 118.3421,281.8994 Q117.8587,282.6523 117.8587,284.1348 Q117.8587,285.6113 118.3421,286.3643 Q118.8255,287.1172 119.7747,287.1172 Q120.22,287.1172 120.6389,286.9268 Q121.0579,286.7363 121.5032,286.3262 Z " fill="#CAD3F5"/><text fill="#A6DA95" font-family="Helvetica" font-size="16" lengthAdjust="spacing" textLength="64.0234" x="138.6692" y="288.3203">IOHolder</text><rect fill="#24273A" height="14" style="stroke:#C6A0F6;stroke-width:1.0;stroke-dasharray:2.0,2.0;" width="10.0039" x="242.6419" y="266"/><text fill="#CAD3F5" font-family="Helvetica" font-size="12" font-style="italic" lengthAdjust="spacing" textLength="8.0039" x="243.6419" y="276.2402">A</text><line style="stroke:#C6A0F6;stroke-width:2.0;" x1="74.72" x2="248.6458" y1="299" y2="299"/><rect fill="none" height="6" style="stroke:#C82930;stroke-width:1.0;" width="6" x="81.72" y="307.5"/><text fill="#A6DA95" font-family="Helvetica" font-size="12" lengthAdjust="spacing" textLength="150.9258" x="92.72" y="312.2402">@NonNull IO&lt;A&gt; ioInstance</text></g><!--reverse link Kind to IOKind--><g id="link_Kind_IOKind"><path d="M70.69,66.38 C70.69,90.57 70.69,114.62 70.69,136.63 " fill="none" id="Kind-backto-IOKind" style="stroke:#F5BDE6;stroke-width:1.0;"/><polygon fill="none" points="70.69,48.38,64.69,66.38,76.69,66.38,70.69,48.38" style="stroke:#F5BDE6;stroke-width:1.0;"/></g><!--reverse link IOKind to IOHolder--><g id="link_IOKind_IOHolder"><path d="M89.8905,182.5516 C105.4205,206.4416 126.8,239.34 145.81,268.57 " fill="none" id="IOKind-backto-IOHolder" style="stroke:#F5BDE6;stroke-width:1.0;stroke-dasharray:7.0,7.0;"/><polygon fill="none" points="80.08,167.46,84.8599,185.8217,94.921,179.2814,80.08,167.46" style="stroke:#F5BDE6;stroke-width:1.0;"/></g><!--link IOKindHelper to IOHolder--><g id="link_IOKindHelper_IOHolder"><path codeLine="27" d="M271.85,195.38 C244.79,219.37 216.4004,244.5206 193.6404,264.6906 " fill="none" id="IOKindHelper-to-IOHolder" style="stroke:#F5BDE6;stroke-width:1.0;stroke-dasharray:7.0,7.0;"/><polygon fill="#F5BDE6" points="189.15,268.67,198.5386,265.6945,192.892,265.3538,193.2327,259.7072,189.15,268.67" style="stroke:#F5BDE6;stroke-width:1.0;"/><text fill="#CAD3F5" font-family="Helvetica" font-size="12" lengthAdjust="spacing" textLength="39.3516" x="236.95" y="235.2402">creates</text></g><!--link IOKindHelper to IO--><g id="link_IOKindHelper_IO"><path codeLine="28" d="M306.55,195.23 C288.48,253.35 258.6224,349.3309 246.9524,386.8409 " fill="none" id="IOKindHelper-to-IO" style="stroke:#F5BDE6;stroke-width:1.0;stroke-dasharray:7.0,7.0;"/><polygon fill="#F5BDE6" points="245.17,392.57,251.6631,385.1646,246.6554,387.7957,244.0242,382.788,245.17,392.57" style="stroke:#F5BDE6;stroke-width:1.0;"/><text fill="#CAD3F5" font-family="Helvetica" font-size="12" lengthAdjust="spacing" textLength="128.0449" x="283.82" y="297.2402">unwraps to / wraps from</text></g><!--link IOHolder to IO--><g id="link_IOHolder_IO"><path codeLine="29" d="M185.7459,329.1066 C201.5359,351.4966 214.0615,369.2571 227.1115,387.7571 " fill="none" id="IOHolder-IO" style="stroke:#F5BDE6;stroke-width:1.0;"/><polygon fill="none" points="178.83,319.3,179.0191,326.5086,185.7459,329.1066,185.5568,321.898,178.83,319.3" style="stroke:#F5BDE6;stroke-width:1.0;"/><polygon fill="#F5BDE6" points="230.57,392.66,228.6508,382.9999,227.6879,388.5742,222.1136,387.6113,230.57,392.66" style="stroke:#F5BDE6;stroke-width:1.0;"/><text fill="#CAD3F5" font-family="Helvetica" font-size="12" lengthAdjust="spacing" textLength="28.6875" x="209.26" y="359.2402">holds</text></g><!--SRC=[TL9DImCn4BtlhnXFLdHtxr9Nwq5Q10KhU4vdfsuWcOHaWXRfVpVTRKjRwsruUH_pXbneHfDQWax4nzkw3kgh-jJIfKMA5D2n44k5pjQCBeegDTQenFk4gBcq2h7JIbpfZM99rfJIaQNQAirrFrO-eqMdSmXPBokmP1SKOb7eR1wM2WcUDRVZfnkOD30UJv_VuJ7ezfEQvf0qU-rfcKFVUQis3h8jVD_qyfy2u18-j33524zm1_ltOdtiDjxJ9oX9cGp1p7gJTsPHeXrl59c0HcMlmMTAnbFeTG3Ny1CtJ5mVBFSLb1yzl3X-ISOCCLUdxEDdIBmLPKWj39qfziVYJFUMZ5gDvibxeocSovtagAYMz9Pulc8S_PTp2LLLvMbzM7_gJDlRWjvTAHxq7avIddRJRiOvdf5sVaU7hAfcRmstW86KK3pFok_3fIA8Wng6SHcSxVbR4rUMMtANWVpDVW40]--></g></svg>