<svg xmlns="http://www.w3.org/2000/svg" xmlns:xlink="http://www.w3.org/1999/xlink" contentStyleType="text/css" height="879px" preserveAspectRatio="none" style="width:1266px;height:879px;background:#24273A;" version="1.1" viewBox="0 0 1266 879" width="1266px" zoomAndPan="magnify"><defs/><g><rect fill="#24273A" height="879" style="stroke:none;stroke-width:1.0;" width="1266" x="0" y="0"/><!--class ThrowableSupplier--><g id="elem_ThrowableSupplier"><rect codeLine="4" fill="#24273A" height="50" id="ThrowableSupplier" rx="1.5" ry="1.5" style="stroke:#C6A0F6;stroke-width:2.0;" width="174.7363" x="407.59" y="822"/><rect fill="#363A4F" height="30" rx="1.5" ry="1.5" style="stroke:#363A4F;stroke-width:2.0;" width="174.7363" x="407.59" y="822"/><rect fill="#363A4F" height="1.5" style="stroke:#363A4F;stroke-width:2.0;" width="174.7363" x="407.59" y="850.5"/><rect codeLine="4" fill="none" height="50" id="ThrowableSupplier" rx="1.5" ry="1.5" style="stroke:#C6A0F6;stroke-width:2.0;" width="174.7363" x="407.59" y="822"/><ellipse cx="421.59" cy="837" fill="#B4A7E5" rx="10" ry="10" style="stroke:#181818;stroke-width:1.0;"/><path d="M418.5978,834.2754 L418.5978,832.752 L423.8068,832.752 L423.8068,834.2754 L422.0666,834.2754 L422.0666,839.9766 L423.8068,839.9766 L423.8068,841.5 L418.5978,841.5 L418.5978,839.9766 L420.338,839.9766 L420.338,834.2754 Z " fill="#CAD3F5"/><text fill="#A6DA95" font-family="Helvetica" font-size="16" font-style="italic" lengthAdjust="spacing" textLength="133.4063" x="434.59" y="841.3203">ThrowableSupplier</text><rect fill="#24273A" height="14" style="stroke:#C6A0F6;stroke-width:1.0;stroke-dasharray:2.0,2.0;" width="9.3301" x="575.9962" y="819"/><text fill="#CAD3F5" font-family="Helvetica" font-size="12" font-style="italic" lengthAdjust="spacing" textLength="7.3301" x="576.9962" y="829.2402">T</text><line style="stroke:#C6A0F6;stroke-width:2.0;" x1="408.59" x2="581.3263" y1="852" y2="852"/><ellipse cx="418.59" cy="863.5" fill="#84BE84" rx="3" ry="3" style="stroke:#038048;stroke-width:1.0;"/><text fill="#A6DA95" font-family="Helvetica" font-size="12" font-style="italic" lengthAdjust="spacing" textLength="133.377" x="426.59" y="865.2402">T get() throws Throwable</text></g><!--class Lazy--><g id="elem_Lazy"><rect codeLine="8" fill="#24273A" height="178" id="Lazy" rx="1.5" ry="1.5" style="stroke:#C6A0F6;stroke-width:2.0;" width="398.4121" x="295.75" y="570"/><rect fill="#363A4F" height="30" rx="1.5" ry="1.5" style="stroke:#363A4F;stroke-width:2.0;" width="398.4121" x="295.75" y="570"/><rect fill="#363A4F" height="1.5" style="stroke:#363A4F;stroke-width:2.0;" width="398.4121" x="295.75" y="598.5"/><rect codeLine="8" fill="none" height="178" id="Lazy" rx="1.5" ry="1.5" style="stroke:#C6A0F6;stroke-width:2.0;" width="398.4121" x="295.75" y="570"/><ellipse cx="468.0557" cy="585" fill="#ADD1B2" rx="10" ry="10" style="stroke:#181818;stroke-width:1.0;"/><path d="M469.8896,589.248 Q469.4795,589.459 469.0283,589.5645 Q468.5771,589.6699 468.0791,589.6699 Q466.3096,589.6699 465.3779,588.5039 Q464.4463,587.3379 464.4463,585.1348 Q464.4463,582.9258 465.3779,581.7598 Q466.3096,580.5938 468.0791,580.5938 Q468.5771,580.5938 469.0342,580.6992 Q469.4912,580.8047 469.8896,581.0156 L469.8896,582.9375 Q469.4443,582.5273 469.0254,582.3369 Q468.6064,582.1465 468.1611,582.1465 Q467.2119,582.1465 466.7285,582.8994 Q466.2451,583.6523 466.2451,585.1348 Q466.2451,586.6113 466.7285,587.3643 Q467.2119,588.1172 468.1611,588.1172 Q468.6064,588.1172 469.0254,587.9268 Q469.4443,587.7363 469.8896,587.3262 Z " fill="#CAD3F5"/><text fill="#A6DA95" font-family="Helvetica" font-size="16" lengthAdjust="spacing" textLength="33.7969" x="487.0557" y="589.3203">Lazy</text><rect fill="#24273A" height="14" style="stroke:#C6A0F6;stroke-width:1.0;stroke-dasharray:2.0,2.0;" width="10.0039" x="687.1582" y="567"/><text fill="#CAD3F5" font-family="Helvetica" font-size="12" font-style="italic" lengthAdjust="spacing" textLength="8.0039" x="688.1582" y="577.2402">A</text><line style="stroke:#C6A0F6;stroke-width:2.0;" x1="296.75" x2="693.1621" y1="600" y2="600"/><rect fill="none" height="6" style="stroke:#C82930;stroke-width:1.0;" width="6" x="303.75" y="608.5"/><text fill="#A6DA95" font-family="Helvetica" font-size="12" lengthAdjust="spacing" textLength="138.7734" x="314.75" y="613.2402">volatile boolean evaluated</text><rect fill="none" height="6" style="stroke:#C82930;stroke-width:1.0;" width="6" x="303.75" y="620.5"/><text fill="#A6DA95" font-family="Helvetica" font-size="12" lengthAdjust="spacing" textLength="40.0254" x="314.75" y="625.2402">A value</text><rect fill="none" height="6" style="stroke:#C82930;stroke-width:1.0;" width="6" x="303.75" y="632.5"/><text fill="#A6DA95" font-family="Helvetica" font-size="12" lengthAdjust="spacing" textLength="110.7305" x="314.75" y="637.2402">Throwable exception</text><rect fill="none" height="6" style="stroke:#C82930;stroke-width:1.0;" width="6" x="303.75" y="644.5"/><text fill="#A6DA95" font-family="Helvetica" font-size="12" lengthAdjust="spacing" textLength="246.1523" x="314.75" y="649.2402">ThrowableSupplier&lt;? extends A&gt; computation</text><ellipse cx="306.75" cy="675.5" fill="#84BE84" rx="3" ry="3" style="stroke:#038048;stroke-width:1.0;"/><text fill="#A6DA95" font-family="Helvetica" font-size="12" lengthAdjust="spacing" text-decoration="underline" textLength="263.4902" x="314.75" y="677.2402">Lazy&lt;A&gt; defer(ThrowableSupplier&lt;? extends A&gt;)</text><ellipse cx="306.75" cy="687.5" fill="#84BE84" rx="3" ry="3" style="stroke:#038048;stroke-width:1.0;"/><text fill="#A6DA95" font-family="Helvetica" font-size="12" lengthAdjust="spacing" text-decoration="underline" textLength="88.7109" x="314.75" y="689.2402">Lazy&lt;A&gt; now(A)</text><line style="stroke:#C6A0F6;stroke-width:1.0;" x1="296.75" x2="470.2822" y1="662" y2="662"/><text fill="#A6DA95" font-family="Helvetica" font-size="12" lengthAdjust="spacing" textLength="49.3477" x="470.2822" y="664.7402">Factories</text><line style="stroke:#C6A0F6;stroke-width:1.0;" x1="519.6299" x2="693.1621" y1="662" y2="662"/><ellipse cx="306.75" cy="715.5" fill="#84BE84" rx="3" ry="3" style="stroke:#038048;stroke-width:1.0;"/><text fill="#A6DA95" font-family="Helvetica" font-size="12" lengthAdjust="spacing" textLength="144.0469" x="314.75" y="717.2402">A force() throws Throwable</text><ellipse cx="306.75" cy="727.5" fill="#84BE84" rx="3" ry="3" style="stroke:#038048;stroke-width:1.0;"/><text fill="#A6DA95" font-family="Helvetica" font-size="12" lengthAdjust="spacing" textLength="25.3477" x="314.75" y="729.2402">Lazy</text><text fill="#A6DA95" font-family="Helvetica" font-size="12" font-weight="bold" lengthAdjust="spacing" textLength="227.3613" x="343.4316" y="729.2402">map(Function&lt;? super A, ? extends B&gt;)</text><ellipse cx="306.75" cy="739.5" fill="#84BE84" rx="3" ry="3" style="stroke:#038048;stroke-width:1.0;"/><text fill="#A6DA95" font-family="Helvetica" font-size="12" lengthAdjust="spacing" textLength="25.3477" x="314.75" y="741.2402">Lazy</text><text fill="#A6DA95" font-family="Helvetica" font-size="12" font-weight="bold" lengthAdjust="spacing" textLength="344.7305" x="343.4316" y="741.2402">flatMap(Function&lt;? super A, ? extends Lazy&lt;? extends B&gt;&gt;)</text><line style="stroke:#C6A0F6;stroke-width:1.0;" x1="296.75" x2="471.9434" y1="702" y2="702"/><text fill="#A6DA95" font-family="Helvetica" font-size="12" lengthAdjust="spacing" textLength="46.0254" x="471.9434" y="704.7402">Methods</text><line style="stroke:#C6A0F6;stroke-width:1.0;" x1="517.9688" x2="693.1621" y1="702" y2="702"/></g><!--class Kind--><g id="elem_Kind"><rect codeLine="23" fill="#24273A" height="38" id="Kind" rx="1.5" ry="1.5" style="stroke:#C6A0F6;stroke-width:2.0;" width="127.3711" x="1128.28" y="122"/><rect fill="#363A4F" height="38" rx="1.5" ry="1.5" style="stroke:#363A4F;stroke-width:2.0;" width="127.3711" x="1128.28" y="122"/><rect fill="#363A4F" height="1.5" style="stroke:#363A4F;stroke-width:2.0;" width="127.3711" x="1128.28" y="158.5"/><rect codeLine="23" fill="none" height="38" id="Kind" rx="1.5" ry="1.5" style="stroke:#C6A0F6;stroke-width:2.0;" width="127.3711" x="1128.28" y="122"/><ellipse cx="1142.28" cy="141" fill="#B4A7E5" rx="10" ry="10" style="stroke:#181818;stroke-width:1.0;"/><path d="M1139.2878,138.2754 L1139.2878,136.752 L1144.4968,136.752 L1144.4968,138.2754 L1142.7566,138.2754 L1142.7566,143.9766 L1144.4968,143.9766 L1144.4968,145.5 L1139.2878,145.5 L1139.2878,143.9766 L1141.028,143.9766 L1141.028,138.2754 Z " fill="#CAD3F5"/><text fill="#CAD3F5" font-family="Helvetica" font-size="12" font-style="italic" lengthAdjust="spacing" textLength="75.3691" x="1153.28" y="136.2402">&#171;HKT Bridge&#187;</text><text fill="#A6DA95" font-family="Helvetica" font-size="16" font-style="italic" lengthAdjust="spacing" textLength="32.0234" x="1174.9529" y="151.3203">Kind</text><rect fill="#24273A" height="14" style="stroke:#C6A0F6;stroke-width:1.0;stroke-dasharray:2.0,2.0;" width="24.002" x="1234.6491" y="119"/><text fill="#CAD3F5" font-family="Helvetica" font-size="12" font-style="italic" lengthAdjust="spacing" textLength="22.002" x="1235.6491" y="129.2402">F, A</text></g><!--class LazyKind--><g id="elem_LazyKind"><rect codeLine="27" fill="#24273A" height="30" id="LazyKind" rx="1.5" ry="1.5" style="stroke:#C6A0F6;stroke-width:2.0;" width="107.8242" x="708.05" y="300"/><rect fill="#363A4F" height="30" rx="1.5" ry="1.5" style="stroke:#363A4F;stroke-width:2.0;" width="107.8242" x="708.05" y="300"/><rect fill="#363A4F" height="1.5" style="stroke:#363A4F;stroke-width:2.0;" width="107.8242" x="708.05" y="328.5"/><rect codeLine="27" fill="none" height="30" id="LazyKind" rx="1.5" ry="1.5" style="stroke:#C6A0F6;stroke-width:2.0;" width="107.8242" x="708.05" y="300"/><ellipse cx="722.05" cy="315" fill="#B4A7E5" rx="10" ry="10" style="stroke:#181818;stroke-width:1.0;"/><path d="M719.0578,312.2754 L719.0578,310.752 L724.2668,310.752 L724.2668,312.2754 L722.5266,312.2754 L722.5266,317.9766 L724.2668,317.9766 L724.2668,319.5 L719.0578,319.5 L719.0578,317.9766 L720.798,317.9766 L720.798,312.2754 Z " fill="#CAD3F5"/><text fill="#A6DA95" font-family="Helvetica" font-size="16" font-style="italic" lengthAdjust="spacing" textLength="65.8203" x="735.05" y="319.3203">LazyKind</text><rect fill="#24273A" height="14" style="stroke:#C6A0F6;stroke-width:1.0;stroke-dasharray:2.0,2.0;" width="10.0039" x="808.8703" y="297"/><text fill="#CAD3F5" font-family="Helvetica" font-size="12" font-style="italic" lengthAdjust="spacing" textLength="8.0039" x="809.8703" y="307.2402">A</text></g><!--class LazyKindHelper--><g id="elem_LazyKindHelper"><rect codeLine="34" fill="#24273A" height="114" id="LazyKindHelper" rx="1.5" ry="1.5" style="stroke:#C6A0F6;stroke-width:2.0;" width="308.5117" x="364.71" y="258"/><rect fill="#363A4F" height="30" rx="1.5" ry="1.5" style="stroke:#363A4F;stroke-width:2.0;" width="308.5117" x="364.71" y="258"/><rect fill="#363A4F" height="1.5" style="stroke:#363A4F;stroke-width:2.0;" width="308.5117" x="364.71" y="286.5"/><rect codeLine="34" fill="none" height="114" id="LazyKindHelper" rx="1.5" ry="1.5" style="stroke:#C6A0F6;stroke-width:2.0;" width="308.5117" x="364.71" y="258"/><ellipse cx="458.4893" cy="273" fill="#ADD1B2" rx="10" ry="10" style="stroke:#181818;stroke-width:1.0;"/><path d="M460.3233,277.248 Q459.9131,277.459 459.462,277.5645 Q459.0108,277.6699 458.5127,277.6699 Q456.7432,277.6699 455.8116,276.5039 Q454.8799,275.3379 454.8799,273.1348 Q454.8799,270.9258 455.8116,269.7598 Q456.7432,268.5938 458.5127,268.5938 Q459.0108,268.5938 459.4678,268.6992 Q459.9248,268.8047 460.3233,269.0156 L460.3233,270.9375 Q459.878,270.5273 459.459,270.3369 Q459.0401,270.1465 458.5948,270.1465 Q457.6455,270.1465 457.1621,270.8994 Q456.6788,271.6523 456.6788,273.1348 Q456.6788,274.6113 457.1621,275.3643 Q457.6455,276.1172 458.5948,276.1172 Q459.0401,276.1172 459.459,275.9268 Q459.878,275.7363 460.3233,275.3262 Z " fill="#CAD3F5"/><text fill="#A6DA95" font-family="Helvetica" font-size="16" lengthAdjust="spacing" textLength="112.9531" x="477.4893" y="277.3203">LazyKindHelper</text><line style="stroke:#C6A0F6;stroke-width:2.0;" x1="365.71" x2="672.2217" y1="288" y2="288"/><ellipse cx="375.71" cy="315.5" fill="#84BE84" rx="3" ry="3" style="stroke:#038048;stroke-width:1.0;"/><text fill="#A6DA95" font-family="Helvetica" font-size="12" lengthAdjust="spacing" text-decoration="underline" textLength="156.0879" x="383.71" y="317.2402">LazyKind&lt;A&gt; wrap(Lazy&lt;A&gt;)</text><ellipse cx="375.71" cy="327.5" fill="#84BE84" rx="3" ry="3" style="stroke:#038048;stroke-width:1.0;"/><text fill="#A6DA95" font-family="Helvetica" font-size="12" lengthAdjust="spacing" text-decoration="underline" textLength="220.8105" x="383.71" y="329.2402">Lazy&lt;A&gt; unwrap(Kind&lt;LazyKind&lt;?&gt;, A&gt;)</text><ellipse cx="375.71" cy="339.5" fill="#84BE84" rx="3" ry="3" style="stroke:#038048;stroke-width:1.0;"/><text fill="#A6DA95" font-family="Helvetica" font-size="12" lengthAdjust="spacing" text-decoration="underline" textLength="283.5117" x="383.71" y="341.2402">Kind&lt;LazyKind&lt;?&gt;, A&gt; defer(ThrowableSupplier&lt;A&gt;)</text><ellipse cx="375.71" cy="351.5" fill="#84BE84" rx="3" ry="3" style="stroke:#038048;stroke-width:1.0;"/><text fill="#A6DA95" font-family="Helvetica" font-size="12" lengthAdjust="spacing" text-decoration="underline" textLength="164.1035" x="383.71" y="353.2402">Kind&lt;LazyKind&lt;?&gt;, A&gt; now(A)</text><ellipse cx="375.71" cy="363.5" fill="#84BE84" rx="3" ry="3" style="stroke:#038048;stroke-width:1.0;"/><text fill="#A6DA95" font-family="Helvetica" font-size="12" lengthAdjust="spacing" text-decoration="underline" textLength="266.8066" x="383.71" y="365.2402">A force(Kind&lt;LazyKind&lt;?&gt;, A&gt;) throws Throwable</text><line style="stroke:#C6A0F6;stroke-width:1.0;stroke-dasharray:1.0,2.0;" x1="365.71" x2="459.9385" y1="302" y2="302"/><text fill="#A6DA95" font-family="Helvetica" font-size="12" lengthAdjust="spacing" textLength="118.0547" x="459.9385" y="304.7402">Static Helper Methods</text><line style="stroke:#C6A0F6;stroke-width:1.0;stroke-dasharray:1.0,2.0;" x1="577.9932" x2="672.2217" y1="302" y2="302"/></g><!--class LazyHolder--><g id="elem_LazyHolder"><rect codeLine="44" fill="#24273A" height="50" id="LazyHolder" rx="1.5" ry="1.5" style="stroke:#C6A0F6;stroke-width:2.0;" width="142.4043" x="568.76" y="446"/><rect fill="#363A4F" height="30" rx="1.5" ry="1.5" style="stroke:#363A4F;stroke-width:2.0;" width="142.4043" x="568.76" y="446"/><rect fill="#363A4F" height="1.5" style="stroke:#363A4F;stroke-width:2.0;" width="142.4043" x="568.76" y="474.5"/><rect codeLine="44" fill="none" height="50" id="LazyHolder" rx="1.5" ry="1.5" style="stroke:#C6A0F6;stroke-width:2.0;" width="142.4043" x="568.76" y="446"/><ellipse cx="591.5218" cy="461" fill="#ADD1B2" rx="10" ry="10" style="stroke:#181818;stroke-width:1.0;"/><path d="M593.3558,465.248 Q592.9456,465.459 592.4945,465.5645 Q592.0433,465.6699 591.5453,465.6699 Q589.7757,465.6699 588.8441,464.5039 Q587.9124,463.3379 587.9124,461.1348 Q587.9124,458.9258 588.8441,457.7598 Q589.7757,456.5938 591.5453,456.5938 Q592.0433,456.5938 592.5003,456.6992 Q592.9574,456.8047 593.3558,457.0156 L593.3558,458.9375 Q592.9105,458.5273 592.4915,458.3369 Q592.0726,458.1465 591.6273,458.1465 Q590.6781,458.1465 590.1947,458.8994 Q589.7113,459.6523 589.7113,461.1348 Q589.7113,462.6113 590.1947,463.3643 Q590.6781,464.1172 591.6273,464.1172 Q592.0726,464.1172 592.4915,463.9268 Q592.9105,463.7363 593.3558,463.3262 Z " fill="#CAD3F5"/><text fill="#A6DA95" font-family="Helvetica" font-size="16" lengthAdjust="spacing" textLength="80.9297" x="606.4689" y="465.3203">LazyHolder</text><rect fill="#24273A" height="14" style="stroke:#C6A0F6;stroke-width:1.0;stroke-dasharray:2.0,2.0;" width="10.0039" x="704.1604" y="443"/><text fill="#CAD3F5" font-family="Helvetica" font-size="12" font-style="italic" lengthAdjust="spacing" textLength="8.0039" x="705.1604" y="453.2402">A</text><line style="stroke:#C6A0F6;stroke-width:2.0;" x1="569.76" x2="710.1643" y1="476" y2="476"/><rect fill="none" height="6" style="stroke:#C82930;stroke-width:1.0;" width="6" x="576.76" y="484.5"/><text fill="#A6DA95" font-family="Helvetica" font-size="12" lengthAdjust="spacing" textLength="117.4043" x="587.76" y="489.2402">Lazy&lt;A&gt; lazyInstance</text></g><!--class LazyMonad--><g id="elem_LazyMonad"><rect codeLine="54" fill="#24273A" height="86" id="LazyMonad" rx="1.5" ry="1.5" style="stroke:#C6A0F6;stroke-width:2.0;" width="815.9219" x="7" y="98"/><rect fill="#363A4F" height="30" rx="1.5" ry="1.5" style="stroke:#363A4F;stroke-width:2.0;" width="815.9219" x="7" y="98"/><rect fill="#363A4F" height="1.5" style="stroke:#363A4F;stroke-width:2.0;" width="815.9219" x="7" y="126.5"/><rect codeLine="54" fill="none" height="86" id="LazyMonad" rx="1.5" ry="1.5" style="stroke:#C6A0F6;stroke-width:2.0;" width="815.9219" x="7" y="98"/><ellipse cx="369.6016" cy="113" fill="#ADD1B2" rx="10" ry="10" style="stroke:#181818;stroke-width:1.0;"/><path d="M371.4355,117.248 Q371.0254,117.459 370.5742,117.5645 Q370.123,117.6699 369.625,117.6699 Q367.8555,117.6699 366.9238,116.5039 Q365.9922,115.3379 365.9922,113.1348 Q365.9922,110.9258 366.9238,109.7598 Q367.8555,108.5938 369.625,108.5938 Q370.123,108.5938 370.5801,108.6992 Q371.0371,108.8047 371.4355,109.0156 L371.4355,110.9375 Q370.9902,110.5273 370.5713,110.3369 Q370.1523,110.1465 369.707,110.1465 Q368.7578,110.1465 368.2744,110.8994 Q367.791,111.6523 367.791,113.1348 Q367.791,114.6113 368.2744,115.3643 Q368.7578,116.1172 369.707,116.1172 Q370.1523,116.1172 370.5713,115.9268 Q370.9902,115.7363 371.4355,115.3262 Z " fill="#CAD3F5"/><text fill="#A6DA95" font-family="Helvetica" font-size="16" lengthAdjust="spacing" textLength="82.7188" x="388.6016" y="117.3203">LazyMonad</text><line style="stroke:#C6A0F6;stroke-width:2.0;" x1="8" x2="821.9219" y1="128" y2="128"/><ellipse cx="18" cy="139.5" fill="#84BE84" rx="3" ry="3" style="stroke:#038048;stroke-width:1.0;"/><text fill="#A6DA95" font-family="Helvetica" font-size="12" lengthAdjust="spacing" textLength="634.8398" x="26" y="141.2402">&lt;A, B&gt; @NonNull Kind&lt;LazyKind.Witness, B&gt; map(@NonNull Function&lt;A, B&gt;, @NonNull Kind&lt;LazyKind.Witness, A&gt;)</text><ellipse cx="18" cy="151.5" fill="#84BE84" rx="3" ry="3" style="stroke:#038048;stroke-width:1.0;"/><text fill="#A6DA95" font-family="Helvetica" font-size="12" lengthAdjust="spacing" textLength="319.8457" x="26" y="153.2402">&lt;A&gt; @NonNull Kind&lt;LazyKind.Witness, A&gt; of(@Nullable A)</text><ellipse cx="18" cy="163.5" fill="#84BE84" rx="3" ry="3" style="stroke:#038048;stroke-width:1.0;"/><text fill="#A6DA95" font-family="Helvetica" font-size="12" lengthAdjust="spacing" textLength="764.918" x="26" y="165.2402">&lt;A, B&gt; @NonNull Kind&lt;LazyKind.Witness, B&gt; ap(@NonNull Kind&lt;LazyKind.Witness, Function&lt;A, B&gt;&gt;, @NonNull Kind&lt;LazyKind.Witness, A&gt;)</text><ellipse cx="18" cy="175.5" fill="#84BE84" rx="3" ry="3" style="stroke:#038048;stroke-width:1.0;"/><text fill="#A6DA95" font-family="Helvetica" font-size="12" lengthAdjust="spacing" textLength="790.9219" x="26" y="177.2402">&lt;A, B&gt; @NonNull Kind&lt;LazyKind.Witness, B&gt; flatMap(@NonNull Function&lt;A, Kind&lt;LazyKind.Witness, B&gt;&gt;, @NonNull Kind&lt;LazyKind.Witness, A&gt;)</text></g><!--class Monad--><g id="elem_Monad"><rect fill="#24273A" height="30" id="Monad" rx="1.5" ry="1.5" style="stroke:#C6A0F6;stroke-width:2.0;" width="78.9219" x="375.5" y="7"/><rect fill="#363A4F" height="30" rx="1.5" ry="1.5" style="stroke:#363A4F;stroke-width:2.0;" width="78.9219" x="375.5" y="7"/><rect fill="#363A4F" height="1.5" style="stroke:#363A4F;stroke-width:2.0;" width="78.9219" x="375.5" y="35.5"/><rect fill="none" height="30" id="Monad" rx="1.5" ry="1.5" style="stroke:#C6A0F6;stroke-width:2.0;" width="78.9219" x="375.5" y="7"/><ellipse cx="389.5" cy="22" fill="#B4A7E5" rx="10" ry="10" style="stroke:#181818;stroke-width:1.0;"/><path d="M386.5078,19.2754 L386.5078,17.752 L391.7168,17.752 L391.7168,19.2754 L389.9766,19.2754 L389.9766,24.9766 L391.7168,24.9766 L391.7168,26.5 L386.5078,26.5 L386.5078,24.9766 L388.248,24.9766 L388.248,19.2754 Z " fill="#CAD3F5"/><text fill="#A6DA95" font-family="Helvetica" font-size="16" font-style="italic" lengthAdjust="spacing" textLength="48.9219" x="402.5" y="26.3203">Monad</text></g><g id="elem_GMN20"><path d="M858.41,125.5 L858.41,137 L823.38,141 L858.41,145 L858.41,156.5 A1.5,1.5 0 0 0 859.91,158 L1092.0057,158 A1.5,1.5 0 0 0 1093.5057,156.5 L1093.5057,134 L1083.5057,124 L859.91,124 A1.5,1.5 0 0 0 858.41,125.5 " fill="#EED49F" style="stroke:#24273A;stroke-width:0.5;"/><path d="M1083.5057,124 L1083.5057,133.25 A0.75,0.75 0 0 0 1084.2557,134 L1093.5057,134 L1083.5057,124 " fill="#EED49F" style="stroke:#24273A;stroke-width:0.5;"/><text fill="#24273A" font-family="Helvetica" font-size="12" lengthAdjust="spacing" textLength="214.0957" x="864.41" y="138.2402">Implements Functor, Applicative, Monad</text><text fill="#24273A" font-family="Helvetica" font-size="12" lengthAdjust="spacing" textLength="180.1055" x="864.41" y="150.2402">for the LazyKind&lt;?&gt; witness type.</text></g><!--link Lazy to ThrowableSupplier--><g id="link_Lazy_ThrowableSupplier"><path codeLine="21" d="M494.96,748.37 C494.96,775.36 494.96,796.88 494.96,815.79 " fill="none" id="Lazy-to-ThrowableSupplier" style="stroke:#F5BDE6;stroke-width:1.0;"/><polygon fill="#F5BDE6" points="494.96,821.79,498.96,812.79,494.96,816.79,490.96,812.79,494.96,821.79" style="stroke:#F5BDE6;stroke-width:1.0;"/><polygon fill="#CAD3F5" points="498.96,789,501.3111,781.7639,496.6089,781.7639,498.96,789" style="stroke:#CAD3F5;stroke-width:1.0;"/><text fill="#CAD3F5" font-family="Helvetica" font-size="12" lengthAdjust="spacing" textLength="25.3477" x="507.96" y="788.2402">uses</text></g><!--reverse link Kind to LazyKind--><g id="link_Kind_LazyKind"><path d="M1143.0237,168.7632 C1128.5137,176.4932 1127.03,176.87 1110.96,184 C1003.54,231.65 872.74,277.16 805.9,299.56 " fill="none" id="Kind-backto-LazyKind" style="stroke:#F5BDE6;stroke-width:1.0;"/><polygon fill="none" points="1158.91,160.3,1140.2026,163.4678,1145.8448,174.0586,1158.91,160.3" style="stroke:#F5BDE6;stroke-width:1.0;"/></g><!--reverse link LazyKind to LazyHolder--><g id="link_LazyKind_LazyHolder"><path d="M739.302,344.5986 C718.362,371.0286 684.94,413.22 659.26,445.64 " fill="none" id="LazyKind-backto-LazyHolder" style="stroke:#F5BDE6;stroke-width:1.0;stroke-dasharray:7.0,7.0;"/><polygon fill="none" points="750.48,330.49,734.5991,340.8726,744.0049,348.3246,750.48,330.49" style="stroke:#F5BDE6;stroke-width:1.0;"/></g><!--link LazyKindHelper to LazyHolder--><g id="link_LazyKindHelper_LazyHolder"><path codeLine="47" d="M563.33,372.47 C583.16,397.71 601.7724,421.4026 617.1924,441.0226 " fill="none" id="LazyKindHelper-to-LazyHolder" style="stroke:#F5BDE6;stroke-width:1.0;stroke-dasharray:7.0,7.0;"/><polygon fill="#F5BDE6" points="620.9,445.74,618.4836,436.1922,617.8104,441.8088,612.1937,441.1356,620.9,445.74" style="stroke:#F5BDE6;stroke-width:1.0;"/><polygon fill="#CAD3F5" points="603.8413,412.1453,601.2194,405.0028,597.5219,407.908,603.8413,412.1453" style="stroke:#CAD3F5;stroke-width:1.0;"/><text fill="#CAD3F5" font-family="Helvetica" font-size="12" lengthAdjust="spacing" textLength="39.3516" x="610.37" y="412.2402">creates</text></g><!--link LazyKindHelper to Lazy--><g id="link_LazyKindHelper_Lazy"><path codeLine="48" d="M515,372.47 C511.24,426.07 505.9506,501.4648 501.5806,563.6448 " fill="none" id="LazyKindHelper-to-Lazy" style="stroke:#F5BDE6;stroke-width:1.0;"/><polygon fill="#F5BDE6" points="501.16,569.63,505.7811,560.9326,501.5105,564.6423,497.8008,560.3717,501.16,569.63" style="stroke:#F5BDE6;stroke-width:1.0;"/><polygon fill="#CAD3F5" points="513.4599,474.9902,516.312,467.9365,511.6212,467.6072,513.4599,474.9902" style="stroke:#CAD3F5;stroke-width:1.0;"/><text fill="#CAD3F5" font-family="Helvetica" font-size="12" lengthAdjust="spacing" textLength="25.3477" x="522.74" y="474.2402">uses</text></g><!--link LazyHolder to Lazy--><g id="link_LazyHolder_Lazy"><path codeLine="49" d="M613.6234,505.7849 C598.8934,524.6849 588.5498,537.9587 567.5398,564.8987 " fill="none" id="LazyHolder-Lazy" style="stroke:#F5BDE6;stroke-width:1.0;"/><polygon fill="none" points="621,496.32,614.1567,498.5936,613.6234,505.7849,620.4667,503.5114,621,496.32" style="stroke:#F5BDE6;stroke-width:1.0;"/><polygon fill="#F5BDE6" points="563.85,569.63,572.539,564.993,566.9249,565.6873,566.2306,560.0732,563.85,569.63" style="stroke:#F5BDE6;stroke-width:1.0;"/><text fill="#CAD3F5" font-family="Helvetica" font-size="12" lengthAdjust="spacing" textLength="28.6875" x="598.12" y="536.2402">holds</text></g><!--reverse link Monad to LazyMonad--><g id="link_Monad_LazyMonad"><path d="M414.96,55.35 C414.96,70.3 414.96,76.44 414.96,97.56 " fill="none" id="Monad-backto-LazyMonad" style="stroke:#F5BDE6;stroke-width:1.0;stroke-dasharray:7.0,7.0;"/><polygon fill="none" points="414.96,37.35,408.96,55.35,420.96,55.35,414.96,37.35" style="stroke:#F5BDE6;stroke-width:1.0;"/></g><!--link LazyMonad to LazyKindHelper--><g id="link_LazyMonad_LazyKindHelper"><path codeLine="60" d="M440.4,184.08 C453.81,206.25 467.3348,228.626 481.8448,252.616 " fill="none" id="LazyMonad-to-LazyKindHelper" style="stroke:#F5BDE6;stroke-width:1.0;stroke-dasharray:7.0,7.0;"/><polygon fill="#F5BDE6" points="484.95,257.75,483.7148,247.9789,482.3623,253.4717,476.8695,252.1192,484.95,257.75" style="stroke:#F5BDE6;stroke-width:1.0;"/><polygon fill="#CAD3F5" points="473.0298,224.4228,471.2974,217.0143,467.2736,219.4475,473.0298,224.4228" style="stroke:#CAD3F5;stroke-width:1.0;"/><text fill="#CAD3F5" font-family="Helvetica" font-size="12" lengthAdjust="spacing" textLength="25.3477" x="479.96" y="224.2402">uses</text></g><!--link LazyMonad to LazyKind--><g id="link_LazyMonad_LazyKind"><path codeLine="61" d="M535.53,184.49 C585.14,204.03 642.27,229.29 690.96,258 C711.38,270.04 727.9087,283.3929 741.7287,295.5729 " fill="none" id="LazyMonad-to-LazyKind" style="stroke:#F5BDE6;stroke-width:1.0;stroke-dasharray:7.0,7.0;"/><polygon fill="#F5BDE6" points="746.23,299.54,742.1228,290.5884,742.4789,296.234,736.8333,296.5902,746.23,299.54" style="stroke:#F5BDE6;stroke-width:1.0;"/><polygon fill="#CAD3F5" points="640.7315,222.8971,635.4761,217.3953,633.246,221.5351,640.7315,222.8971" style="stroke:#CAD3F5;stroke-width:1.0;"/><text fill="#CAD3F5" font-family="Helvetica" font-size="12" lengthAdjust="spacing" textLength="63.3809" x="646.21" y="224.2402">operates on</text></g><!--link LazyMonad to Lazy--><g id="link_LazyMonad_Lazy"><path codeLine="62" d="M382.74,184.42 C368.81,205.37 354.09,231.75 346.96,258 C333.69,306.9 335.77,322.58 346.96,372 C362.98,442.75 397.6371,510.139 431.0271,564.439 " fill="none" id="LazyMonad-to-Lazy" style="stroke:#F5BDE6;stroke-width:1.0;stroke-dasharray:7.0,7.0;"/><polygon fill="#F5BDE6" points="434.17,569.55,432.8631,559.7882,431.551,565.2908,426.0484,563.9787,434.17,569.55" style="stroke:#F5BDE6;stroke-width:1.0;"/><polygon fill="#CAD3F5" points="363.2842,412.9681,364.7045,405.4934,360.0397,406.0861,363.2842,412.9681" style="stroke:#CAD3F5;stroke-width:1.0;"/><text fill="#CAD3F5" font-family="Helvetica" font-size="12" lengthAdjust="spacing" textLength="122.0859" x="371.78" y="412.2402">operates on underlying</text></g><!--SRC=[bLLDSzem4BtxLsnFXGaszmnnIcRAX4cJGyCqPo4lM5DPyaXoACtmtxkIyGU9qv1S2DgtkqzldvOlGd5PPGYvSwMzd4uDsoLRuV9gNLaqN2k7oYLS5rF5jNKi5dpAcIlBYdEXue9ndWlcT5nAfbnLoDZbME2qO49Dmxz9IQTHBgW95gNRGu756esD1DKs6yOHLhdHExQM-5YLfHHePgiKNYA02tXXQ-iCu-u0AzYY6ut1URJjag935779h8KVxEz-DgzJOtZMaZaX4TPQIsGAy9d9YZdCGlXb8r1c1vY3FyQJixOsu1-EfHDQ3STRmjU49Aao2zIVv2ehnvgq61Pq0Mq4MlfINylwC3-qb3FSe1dzl-vuE5NftMW-hXlTeyjrrhQPmqORZaEY-N2eS9D2mShHebBS4wQEjYhHm7m2NVERO_CcOqFItd-O5T3z8bJb4FbJ8fY-LH4kWLnd8OrwvhWJAfij9bxNsUpsRWKtHcHRJEinVuLbi2XnO5BkuNkm60d1p6ygk6pAU9DqDJs5K9UADkp2zpPmdOQETGlVzLYGz0pPuVn9E8NakmLSGIypn7vvKy5gNo9DuGhcdW05EgDwy2rABvhl0f0ay1X62yVZPfX94kAlHj_mtncQmz4Buo6W1rKgm8Rk-2PdK8Zt_7bkVclI4sZZpq5UGvuzHEtC3GqSRhNCIAcVoBN9JkIj8_xkeYWbxI7bx8bkjUXnAv6apwKYPehNdU3rc98axPKcitA3j4wyNzzWlR-3qLjBGpzNz-8v7Td8_tNixydEMPzvE6WbIexE2xUuW1czEdgKtnwqUgYaF9r0WmqG_z9RMFjuG_ham_mmQzyjFGCAUaET21BMw7pyEPvzck-WJjb_Xlwv99ebDoZOksbdCgdtO3tdnbWz_xIs6KPHN1Cik4-hGTWhIAN8Tt8lrDQlLwKTWX7RtD6SEiUHIPUTvy9rjI6-_h7JhxvunWaqGBy9wGU-l_XWTro8ZjPU4j5Q1Tye-WS0]--></g></svg>