<svg xmlns="http://www.w3.org/2000/svg" xmlns:xlink="http://www.w3.org/1999/xlink" contentStyleType="text/css" height="327px" preserveAspectRatio="none" style="width:829px;height:327px;background:#24273A;" version="1.1" viewBox="0 0 829 327" width="829px" zoomAndPan="magnify"><defs/><g><rect fill="#24273A" height="327" style="stroke:none;stroke-width:1.0;" width="829" x="0" y="0"/><!--class LazyKindHelper--><g id="elem_LazyKindHelper"><rect codeLine="6" fill="#24273A" height="62" id="LazyKindHelper" rx="1.5" ry="1.5" style="stroke:#C6A0F6;stroke-width:2.0;" width="255.4512" x="182.24" y="258"/><rect fill="#363A4F" height="30" rx="1.5" ry="1.5" style="stroke:#363A4F;stroke-width:2.0;" width="255.4512" x="182.24" y="258"/><rect fill="#363A4F" height="1.5" style="stroke:#363A4F;stroke-width:2.0;" width="255.4512" x="182.24" y="286.5"/><rect codeLine="6" fill="none" height="62" id="LazyKindHelper" rx="1.5" ry="1.5" style="stroke:#C6A0F6;stroke-width:2.0;" width="255.4512" x="182.24" y="258"/><ellipse cx="249.489" cy="273" fill="#ADD1B2" rx="10" ry="10" style="stroke:#181818;stroke-width:1.0;"/><path d="M251.323,277.248 Q250.9129,277.459 250.4617,277.5645 Q250.0105,277.6699 249.5125,277.6699 Q247.7429,277.6699 246.8113,276.5039 Q245.8796,275.3379 245.8796,273.1348 Q245.8796,270.9258 246.8113,269.7598 Q247.7429,268.5938 249.5125,268.5938 Q250.0105,268.5938 250.4675,268.6992 Q250.9246,268.8047 251.323,269.0156 L251.323,270.9375 Q250.8777,270.5273 250.4588,270.3369 Q250.0398,270.1465 249.5945,270.1465 Q248.6453,270.1465 248.1619,270.8994 Q247.6785,271.6523 247.6785,273.1348 Q247.6785,274.6113 248.1619,275.3643 Q248.6453,276.1172 249.5945,276.1172 Q250.0398,276.1172 250.4588,275.9268 Q250.8777,275.7363 251.323,275.3262 Z " fill="#CAD3F5"/><text fill="#A6DA95" font-family="Helvetica" font-size="16" lengthAdjust="spacing" textLength="112.9531" x="268.489" y="277.3203">LazyKindHelper</text><line style="stroke:#C6A0F6;stroke-width:2.0;" x1="183.24" x2="436.6912" y1="288" y2="288"/><text fill="#A6DA95" font-family="Helvetica" font-size="12" lengthAdjust="spacing" text-decoration="underline" textLength="238.125" x="188.24" y="301.2402">Kind&lt;LazyKind.Witness, A&gt; widen(Lazy&lt;A&gt;)</text><text fill="#A6DA95" font-family="Helvetica" font-size="12" lengthAdjust="spacing" text-decoration="underline" textLength="243.4512" x="188.24" y="313.2402">Lazy&lt;A&gt; narrow(Kind&lt;LazyKind.Witness, A&gt;)</text></g><!--class LazyMonad--><g id="elem_LazyMonad"><rect codeLine="12" fill="#24273A" height="86" id="LazyMonad" rx="1.5" ry="1.5" style="stroke:#C6A0F6;stroke-width:2.0;" width="815.9219" x="7" y="98"/><rect fill="#363A4F" height="30" rx="1.5" ry="1.5" style="stroke:#363A4F;stroke-width:2.0;" width="815.9219" x="7" y="98"/><rect fill="#363A4F" height="1.5" style="stroke:#363A4F;stroke-width:2.0;" width="815.9219" x="7" y="126.5"/><rect codeLine="12" fill="none" height="86" id="LazyMonad" rx="1.5" ry="1.5" style="stroke:#C6A0F6;stroke-width:2.0;" width="815.9219" x="7" y="98"/><ellipse cx="369.6016" cy="113" fill="#ADD1B2" rx="10" ry="10" style="stroke:#181818;stroke-width:1.0;"/><path d="M371.4355,117.248 Q371.0254,117.459 370.5742,117.5645 Q370.123,117.6699 369.625,117.6699 Q367.8555,117.6699 366.9238,116.5039 Q365.9922,115.3379 365.9922,113.1348 Q365.9922,110.9258 366.9238,109.7598 Q367.8555,108.5938 369.625,108.5938 Q370.123,108.5938 370.5801,108.6992 Q371.0371,108.8047 371.4355,109.0156 L371.4355,110.9375 Q370.9902,110.5273 370.5713,110.3369 Q370.1523,110.1465 369.707,110.1465 Q368.7578,110.1465 368.2744,110.8994 Q367.791,111.6523 367.791,113.1348 Q367.791,114.6113 368.2744,115.3643 Q368.7578,116.1172 369.707,116.1172 Q370.1523,116.1172 370.5713,115.9268 Q370.9902,115.7363 371.4355,115.3262 Z " fill="#CAD3F5"/><text fill="#A6DA95" font-family="Helvetica" font-size="16" lengthAdjust="spacing" textLength="82.7188" x="388.6016" y="117.3203">LazyMonad</text><line style="stroke:#C6A0F6;stroke-width:2.0;" x1="8" x2="821.9219" y1="128" y2="128"/><ellipse cx="18" cy="139.5" fill="#84BE84" rx="3" ry="3" style="stroke:#038048;stroke-width:1.0;"/><text fill="#A6DA95" font-family="Helvetica" font-size="12" lengthAdjust="spacing" textLength="634.8398" x="26" y="141.2402">&lt;A, B&gt; @NonNull Kind&lt;LazyKind.Witness, B&gt; map(@NonNull Function&lt;A, B&gt;, @NonNull Kind&lt;LazyKind.Witness, A&gt;)</text><ellipse cx="18" cy="151.5" fill="#84BE84" rx="3" ry="3" style="stroke:#038048;stroke-width:1.0;"/><text fill="#A6DA95" font-family="Helvetica" font-size="12" lengthAdjust="spacing" textLength="319.8457" x="26" y="153.2402">&lt;A&gt; @NonNull Kind&lt;LazyKind.Witness, A&gt; of(@Nullable A)</text><ellipse cx="18" cy="163.5" fill="#84BE84" rx="3" ry="3" style="stroke:#038048;stroke-width:1.0;"/><text fill="#A6DA95" font-family="Helvetica" font-size="12" lengthAdjust="spacing" textLength="764.918" x="26" y="165.2402">&lt;A, B&gt; @NonNull Kind&lt;LazyKind.Witness, B&gt; ap(@NonNull Kind&lt;LazyKind.Witness, Function&lt;A, B&gt;&gt;, @NonNull Kind&lt;LazyKind.Witness, A&gt;)</text><ellipse cx="18" cy="175.5" fill="#84BE84" rx="3" ry="3" style="stroke:#038048;stroke-width:1.0;"/><text fill="#A6DA95" font-family="Helvetica" font-size="12" lengthAdjust="spacing" textLength="790.9219" x="26" y="177.2402">&lt;A, B&gt; @NonNull Kind&lt;LazyKind.Witness, B&gt; flatMap(@NonNull Function&lt;A, Kind&lt;LazyKind.Witness, B&gt;&gt;, @NonNull Kind&lt;LazyKind.Witness, A&gt;)</text></g><!--class Monad--><g id="elem_Monad"><rect fill="#24273A" height="30" id="Monad" rx="1.5" ry="1.5" style="stroke:#C6A0F6;stroke-width:2.0;" width="78.9219" x="375.5" y="7"/><rect fill="#363A4F" height="30" rx="1.5" ry="1.5" style="stroke:#363A4F;stroke-width:2.0;" width="78.9219" x="375.5" y="7"/><rect fill="#363A4F" height="1.5" style="stroke:#363A4F;stroke-width:2.0;" width="78.9219" x="375.5" y="35.5"/><rect fill="none" height="30" id="Monad" rx="1.5" ry="1.5" style="stroke:#C6A0F6;stroke-width:2.0;" width="78.9219" x="375.5" y="7"/><ellipse cx="389.5" cy="22" fill="#B4A7E5" rx="10" ry="10" style="stroke:#181818;stroke-width:1.0;"/><path d="M386.5078,19.2754 L386.5078,17.752 L391.7168,17.752 L391.7168,19.2754 L389.9766,19.2754 L389.9766,24.9766 L391.7168,24.9766 L391.7168,26.5 L386.5078,26.5 L386.5078,24.9766 L388.248,24.9766 L388.248,19.2754 Z " fill="#CAD3F5"/><text fill="#A6DA95" font-family="Helvetica" font-size="16" font-style="italic" lengthAdjust="spacing" textLength="48.9219" x="402.5" y="26.3203">Monad</text></g><!--class LazyKind--><g id="elem_LazyKind"><rect fill="#24273A" height="30" id="LazyKind" rx="1.5" ry="1.5" style="stroke:#C6A0F6;stroke-width:2.0;" width="95.8203" x="473.05" y="274"/><rect fill="#363A4F" height="30" rx="1.5" ry="1.5" style="stroke:#363A4F;stroke-width:2.0;" width="95.8203" x="473.05" y="274"/><rect fill="#363A4F" height="1.5" style="stroke:#363A4F;stroke-width:2.0;" width="95.8203" x="473.05" y="302.5"/><rect fill="none" height="30" id="LazyKind" rx="1.5" ry="1.5" style="stroke:#C6A0F6;stroke-width:2.0;" width="95.8203" x="473.05" y="274"/><ellipse cx="487.05" cy="289" fill="#ADD1B2" rx="10" ry="10" style="stroke:#181818;stroke-width:1.0;"/><path d="M488.884,293.248 Q488.4738,293.459 488.0227,293.5645 Q487.5715,293.6699 487.0734,293.6699 Q485.3039,293.6699 484.3723,292.5039 Q483.4406,291.3379 483.4406,289.1348 Q483.4406,286.9258 484.3723,285.7598 Q485.3039,284.5938 487.0734,284.5938 Q487.5715,284.5938 488.0285,284.6992 Q488.4855,284.8047 488.884,285.0156 L488.884,286.9375 Q488.4387,286.5273 488.0197,286.3369 Q487.6008,286.1465 487.1555,286.1465 Q486.2063,286.1465 485.7229,286.8994 Q485.2395,287.6523 485.2395,289.1348 Q485.2395,290.6113 485.7229,291.3643 Q486.2063,292.1172 487.1555,292.1172 Q487.6008,292.1172 488.0197,291.9268 Q488.4387,291.7363 488.884,291.3262 Z " fill="#CAD3F5"/><text fill="#A6DA95" font-family="Helvetica" font-size="16" lengthAdjust="spacing" textLength="65.8203" x="500.05" y="293.3203">LazyKind</text></g><!--reverse link Monad to LazyMonad--><g id="link_Monad_LazyMonad"><path d="M414.96,55.35 C414.96,70.3 414.96,76.44 414.96,97.56 " fill="none" id="Monad-backto-LazyMonad" style="stroke:#F5BDE6;stroke-width:1.0;stroke-dasharray:7.0,7.0;"/><polygon fill="none" points="414.96,37.35,408.96,55.35,420.96,55.35,414.96,37.35" style="stroke:#F5BDE6;stroke-width:1.0;"/></g><!--link LazyMonad to LazyKindHelper--><g id="link_LazyMonad_LazyKindHelper"><path codeLine="20" d="M384.59,184.23 C367.63,207.81 350.4026,231.7585 335.1026,253.0385 " fill="none" id="LazyMonad-to-LazyKindHelper" style="stroke:#F5BDE6;stroke-width:1.0;stroke-dasharray:7.0,7.0;"/><polygon fill="#F5BDE6" points="331.6,257.91,340.1016,252.9377,334.5188,253.8504,333.6062,248.2676,331.6,257.91" style="stroke:#F5BDE6;stroke-width:1.0;"/><text fill="#CAD3F5" font-family="Helvetica" font-size="12" lengthAdjust="spacing" textLength="25.3477" x="363.46" y="224.2402">uses</text></g><!--link LazyMonad to LazyKind--><g id="link_LazyMonad_LazyKind"><path codeLine="21" d="M445.62,184.23 C467.51,214.38 492.0956,248.2442 507.0256,268.8142 " fill="none" id="LazyMonad-to-LazyKind" style="stroke:#F5BDE6;stroke-width:1.0;stroke-dasharray:7.0,7.0;"/><polygon fill="#F5BDE6" points="510.55,273.67,508.5006,264.0367,507.613,269.6235,502.0262,268.7359,510.55,273.67" style="stroke:#F5BDE6;stroke-width:1.0;"/><text fill="#CAD3F5" font-family="Helvetica" font-size="12" lengthAdjust="spacing" textLength="63.3809" x="475.31" y="224.2402">operates on</text></g><!--SRC=[bP9FJyCm3CNl_HJcn2RQz3vD5UM0a62xSlQoZ4PAdAXnD8rftnrt_1kWYYsdo7xFxwSuLvQqosi37NDCixhkSQjUB7TvbPFfTI0sn4e7NvCEYR6okjR8CMQjBLKUjUuiSgYYG-BiNSMTyQRsQAa-NbMKQj5P2J4-yWwyyIlJfqAETfWIFE7hxj7I-i6uQ7hO5x2N9BRw04Dv_jbNpvR9f5H2sy1M1j9aQCtRPdfY-IW1OT-7xMHqWdYkGIbL74uv5e5m3TP79-Z42Ow5FmEQWV86vcq9TmtSBWCjitDZk2Bn62TViljCccsWTtlvh_y8EwGrPqWXR2H99BXo1jhfPPodc2Egd_INu9yBiN78Yx476xMTIIBhBhuthLJp-__DGBv-6j58DuW8sIG8LBm1]--></g></svg>