<svg xmlns="http://www.w3.org/2000/svg" xmlns:xlink="http://www.w3.org/1999/xlink" contentStyleType="text/css" height="406px" preserveAspectRatio="none" style="width:618px;height:406px;background:#24273A;" version="1.1" viewBox="0 0 618 406" width="618px" zoomAndPan="magnify"><defs/><g><rect fill="#24273A" height="406" style="stroke:none;stroke-width:1.0;" width="618" x="0" y="0"/><!--class Kind--><g id="elem_Kind"><rect codeLine="6" fill="#24273A" height="38" id="Kind" rx="1.5" ry="1.5" style="stroke:#C6A0F6;stroke-width:2.0;" width="215.4141" x="7" y="10"/><rect fill="#363A4F" height="38" rx="1.5" ry="1.5" style="stroke:#363A4F;stroke-width:2.0;" width="215.4141" x="7" y="10"/><rect fill="#363A4F" height="1.5" style="stroke:#363A4F;stroke-width:2.0;" width="215.4141" x="7" y="46.5"/><rect codeLine="6" fill="none" height="38" id="Kind" rx="1.5" ry="1.5" style="stroke:#C6A0F6;stroke-width:2.0;" width="215.4141" x="7" y="10"/><ellipse cx="21" cy="29" fill="#B4A7E5" rx="10" ry="10" style="stroke:#181818;stroke-width:1.0;"/><path d="M18.0078,26.2754 L18.0078,24.752 L23.2168,24.752 L23.2168,26.2754 L21.4766,26.2754 L21.4766,31.9766 L23.2168,31.9766 L23.2168,33.5 L18.0078,33.5 L18.0078,31.9766 L19.748,31.9766 L19.748,26.2754 Z " fill="#CAD3F5"/><text fill="#CAD3F5" font-family="Helvetica" font-size="12" font-style="italic" lengthAdjust="spacing" textLength="75.3691" x="32" y="24.2402">&#171;HKT Bridge&#187;</text><text fill="#A6DA95" font-family="Helvetica" font-size="16" font-style="italic" lengthAdjust="spacing" textLength="32.0234" x="53.6729" y="39.3203">Kind</text><rect fill="#24273A" height="14" style="stroke:#C6A0F6;stroke-width:1.0;stroke-dasharray:2.0,2.0;" width="112.0449" x="113.3691" y="7"/><text fill="#CAD3F5" font-family="Helvetica" font-size="12" font-style="italic" lengthAdjust="spacing" textLength="110.0449" x="114.3691" y="17.2402">LazyKind.Witness, A</text></g><!--class LazyKind--><g id="elem_LazyKind"><rect codeLine="8" fill="#24273A" height="30" id="LazyKind" rx="1.5" ry="1.5" style="stroke:#C6A0F6;stroke-width:2.0;" width="107.8242" x="60.79" y="125"/><rect fill="#363A4F" height="30" rx="1.5" ry="1.5" style="stroke:#363A4F;stroke-width:2.0;" width="107.8242" x="60.79" y="125"/><rect fill="#363A4F" height="1.5" style="stroke:#363A4F;stroke-width:2.0;" width="107.8242" x="60.79" y="153.5"/><rect codeLine="8" fill="none" height="30" id="LazyKind" rx="1.5" ry="1.5" style="stroke:#C6A0F6;stroke-width:2.0;" width="107.8242" x="60.79" y="125"/><ellipse cx="74.79" cy="140" fill="#B4A7E5" rx="10" ry="10" style="stroke:#181818;stroke-width:1.0;"/><path d="M71.7978,137.2754 L71.7978,135.752 L77.0068,135.752 L77.0068,137.2754 L75.2666,137.2754 L75.2666,142.9766 L77.0068,142.9766 L77.0068,144.5 L71.7978,144.5 L71.7978,142.9766 L73.538,142.9766 L73.538,137.2754 Z " fill="#CAD3F5"/><text fill="#A6DA95" font-family="Helvetica" font-size="16" font-style="italic" lengthAdjust="spacing" textLength="65.8203" x="87.79" y="144.3203">LazyKind</text><rect fill="#24273A" height="14" style="stroke:#C6A0F6;stroke-width:1.0;stroke-dasharray:2.0,2.0;" width="10.0039" x="161.6103" y="122"/><text fill="#CAD3F5" font-family="Helvetica" font-size="12" font-style="italic" lengthAdjust="spacing" textLength="8.0039" x="162.6103" y="132.2402">A</text></g><!--class Lazy--><g id="elem_Lazy"><rect codeLine="12" fill="#24273A" height="30" id="Lazy" rx="1.5" ry="1.5" style="stroke:#C6A0F6;stroke-width:2.0;" width="75.8008" x="219.81" y="369"/><rect fill="#363A4F" height="30" rx="1.5" ry="1.5" style="stroke:#363A4F;stroke-width:2.0;" width="75.8008" x="219.81" y="369"/><rect fill="#363A4F" height="1.5" style="stroke:#363A4F;stroke-width:2.0;" width="75.8008" x="219.81" y="397.5"/><rect codeLine="12" fill="none" height="30" id="Lazy" rx="1.5" ry="1.5" style="stroke:#C6A0F6;stroke-width:2.0;" width="75.8008" x="219.81" y="369"/><ellipse cx="233.81" cy="384" fill="#ADD1B2" rx="10" ry="10" style="stroke:#181818;stroke-width:1.0;"/><path d="M235.644,388.248 Q235.2338,388.459 234.7827,388.5645 Q234.3315,388.6699 233.8334,388.6699 Q232.0639,388.6699 231.1323,387.5039 Q230.2006,386.3379 230.2006,384.1348 Q230.2006,381.9258 231.1323,380.7598 Q232.0639,379.5938 233.8334,379.5938 Q234.3315,379.5938 234.7885,379.6992 Q235.2455,379.8047 235.644,380.0156 L235.644,381.9375 Q235.1987,381.5273 234.7797,381.3369 Q234.3608,381.1465 233.9155,381.1465 Q232.9663,381.1465 232.4829,381.8994 Q231.9995,382.6523 231.9995,384.1348 Q231.9995,385.6113 232.4829,386.3643 Q232.9663,387.1172 233.9155,387.1172 Q234.3608,387.1172 234.7797,386.9268 Q235.1987,386.7363 235.644,386.3262 Z " fill="#CAD3F5"/><text fill="#A6DA95" font-family="Helvetica" font-size="16" lengthAdjust="spacing" textLength="33.7969" x="246.81" y="388.3203">Lazy</text><rect fill="#24273A" height="14" style="stroke:#C6A0F6;stroke-width:1.0;stroke-dasharray:2.0,2.0;" width="10.0039" x="288.6069" y="366"/><text fill="#CAD3F5" font-family="Helvetica" font-size="12" font-style="italic" lengthAdjust="spacing" textLength="8.0039" x="289.6069" y="376.2402">A</text></g><!--class LazyKindHelper--><g id="elem_LazyKindHelper"><rect codeLine="17" fill="#24273A" height="62" id="LazyKindHelper" rx="1.5" ry="1.5" style="stroke:#C6A0F6;stroke-width:2.0;" width="388.2051" x="223.6" y="109"/><rect fill="#363A4F" height="30" rx="1.5" ry="1.5" style="stroke:#363A4F;stroke-width:2.0;" width="388.2051" x="223.6" y="109"/><rect fill="#363A4F" height="1.5" style="stroke:#363A4F;stroke-width:2.0;" width="388.2051" x="223.6" y="137.5"/><rect codeLine="17" fill="none" height="62" id="LazyKindHelper" rx="1.5" ry="1.5" style="stroke:#C6A0F6;stroke-width:2.0;" width="388.2051" x="223.6" y="109"/><ellipse cx="357.226" cy="124" fill="#ADD1B2" rx="10" ry="10" style="stroke:#181818;stroke-width:1.0;"/><path d="M359.06,128.248 Q358.6498,128.459 358.1986,128.5645 Q357.7475,128.6699 357.2494,128.6699 Q355.4799,128.6699 354.5482,127.5039 Q353.6166,126.3379 353.6166,124.1348 Q353.6166,121.9258 354.5482,120.7598 Q355.4799,119.5938 357.2494,119.5938 Q357.7475,119.5938 358.2045,119.6992 Q358.6615,119.8047 359.06,120.0156 L359.06,121.9375 Q358.6146,121.5273 358.1957,121.3369 Q357.7768,121.1465 357.3314,121.1465 Q356.3822,121.1465 355.8988,121.8994 Q355.4154,122.6523 355.4154,124.1348 Q355.4154,125.6113 355.8988,126.3643 Q356.3822,127.1172 357.3314,127.1172 Q357.7768,127.1172 358.1957,126.9268 Q358.6146,126.7363 359.06,126.3262 Z " fill="#CAD3F5"/><text fill="#A6DA95" font-family="Helvetica" font-size="16" lengthAdjust="spacing" textLength="112.9531" x="376.226" y="128.3203">LazyKindHelper</text><line style="stroke:#C6A0F6;stroke-width:2.0;" x1="224.6" x2="610.8051" y1="139" y2="139"/><ellipse cx="234.6" cy="150.5" fill="#84BE84" rx="3" ry="3" style="stroke:#038048;stroke-width:1.0;"/><text fill="#A6DA95" font-family="Helvetica" font-size="12" lengthAdjust="spacing" text-decoration="underline" textLength="214.2891" x="242.6" y="152.2402">LazyKind&lt;A&gt; wrap(@NonNull Lazy&lt;A&gt;)</text><ellipse cx="234.6" cy="162.5" fill="#84BE84" rx="3" ry="3" style="stroke:#038048;stroke-width:1.0;"/><text fill="#A6DA95" font-family="Helvetica" font-size="12" lengthAdjust="spacing" text-decoration="underline" textLength="363.2051" x="242.6" y="164.2402">@NonNull Lazy&lt;A&gt; unwrap(@Nullable Kind&lt;LazyKind.Witness, A&gt;)</text></g><!--class LazyHolder--><g id="elem_LazyHolder"><rect codeLine="23" fill="#24273A" height="50" id="LazyHolder" rx="1.5" ry="1.5" style="stroke:#C6A0F6;stroke-width:2.0;" width="200.6055" x="157.4" y="245"/><rect fill="#363A4F" height="30" rx="1.5" ry="1.5" style="stroke:#363A4F;stroke-width:2.0;" width="200.6055" x="157.4" y="245"/><rect fill="#363A4F" height="1.5" style="stroke:#363A4F;stroke-width:2.0;" width="200.6055" x="157.4" y="273.5"/><rect codeLine="23" fill="none" height="50" id="LazyHolder" rx="1.5" ry="1.5" style="stroke:#C6A0F6;stroke-width:2.0;" width="200.6055" x="157.4" y="245"/><ellipse cx="207.2359" cy="260" fill="#ADD1B2" rx="10" ry="10" style="stroke:#181818;stroke-width:1.0;"/><path d="M209.0699,264.248 Q208.6598,264.459 208.2086,264.5645 Q207.7574,264.6699 207.2594,264.6699 Q205.4898,264.6699 204.5582,263.5039 Q203.6266,262.3379 203.6266,260.1348 Q203.6266,257.9258 204.5582,256.7598 Q205.4898,255.5938 207.2594,255.5938 Q207.7574,255.5938 208.2145,255.6992 Q208.6715,255.8047 209.0699,256.0156 L209.0699,257.9375 Q208.6246,257.5273 208.2057,257.3369 Q207.7867,257.1465 207.3414,257.1465 Q206.3922,257.1465 205.9088,257.8994 Q205.4254,258.6523 205.4254,260.1348 Q205.4254,261.6113 205.9088,262.3643 Q206.3922,263.1172 207.3414,263.1172 Q207.7867,263.1172 208.2057,262.9268 Q208.6246,262.7363 209.0699,262.3262 Z " fill="#CAD3F5"/><text fill="#A6DA95" font-family="Helvetica" font-size="16" lengthAdjust="spacing" textLength="80.9297" x="226.2359" y="264.3203">LazyHolder</text><rect fill="#24273A" height="14" style="stroke:#C6A0F6;stroke-width:1.0;stroke-dasharray:2.0,2.0;" width="10.0039" x="351.0016" y="242"/><text fill="#CAD3F5" font-family="Helvetica" font-size="12" font-style="italic" lengthAdjust="spacing" textLength="8.0039" x="352.0016" y="252.2402">A</text><line style="stroke:#C6A0F6;stroke-width:2.0;" x1="158.4" x2="357.0055" y1="275" y2="275"/><rect fill="none" height="6" style="stroke:#C82930;stroke-width:1.0;" width="6" x="165.4" y="283.5"/><text fill="#A6DA95" font-family="Helvetica" font-size="12" lengthAdjust="spacing" textLength="175.6055" x="176.4" y="288.2402">@NonNull Lazy&lt;A&gt; lazyInstance</text></g><!--reverse link Kind to LazyKind--><g id="link_Kind_LazyKind"><path d="M114.71,66.49 C114.71,87.99 114.71,105.03 114.71,124.6 " fill="none" id="Kind-backto-LazyKind" style="stroke:#F5BDE6;stroke-width:1.0;"/><polygon fill="none" points="114.71,48.49,108.71,66.49,120.71,66.49,114.71,48.49" style="stroke:#F5BDE6;stroke-width:1.0;"/></g><!--reverse link LazyKind to Lazy--><g id="link_LazyKind_Lazy"><path d="M112.6949,173.3462 C111.2149,202.1062 112.3,249.85 139.71,295 C160.26,328.86 199.18,353.98 226.69,368.53 " fill="none" id="LazyKind-backto-Lazy" style="stroke:#F5BDE6;stroke-width:1.0;stroke-dasharray:7.0,7.0;"/><polygon fill="none" points="113.62,155.37,106.7029,173.0379,118.687,173.6546,113.62,155.37" style="stroke:#F5BDE6;stroke-width:1.0;"/></g><!--reverse link LazyKind to LazyHolder--><g id="link_LazyKind_LazyHolder"><path d="M144.2401,167.437 C168.4201,189.087 200.95,218.2 230.41,244.57 " fill="none" id="LazyKind-backto-LazyHolder" style="stroke:#F5BDE6;stroke-width:1.0;stroke-dasharray:7.0,7.0;"/><polygon fill="none" points="130.83,155.43,140.2378,171.9071,148.2425,162.967,130.83,155.43" style="stroke:#F5BDE6;stroke-width:1.0;"/></g><!--link LazyKindHelper to LazyHolder--><g id="link_LazyKindHelper_LazyHolder"><path codeLine="27" d="M379.79,171.33 C351.79,193.73 318.8554,220.082 292.8154,240.912 " fill="none" id="LazyKindHelper-to-LazyHolder" style="stroke:#F5BDE6;stroke-width:1.0;stroke-dasharray:7.0,7.0;"/><polygon fill="#F5BDE6" points="288.13,244.66,297.6567,242.1617,292.0345,241.5367,292.6594,235.9145,288.13,244.66" style="stroke:#F5BDE6;stroke-width:1.0;"/><text fill="#CAD3F5" font-family="Helvetica" font-size="12" lengthAdjust="spacing" textLength="39.3516" x="343.5" y="211.2402">creates</text></g><!--link LazyKindHelper to Lazy--><g id="link_LazyKindHelper_Lazy"><path codeLine="28" d="M415.32,171.22 C411.46,204.16 401.46,257.21 375.71,295 C353.11,328.16 319.1085,350.8507 292.1185,365.6807 " fill="none" id="LazyKindHelper-to-Lazy" style="stroke:#F5BDE6;stroke-width:1.0;stroke-dasharray:7.0,7.0;"/><polygon fill="#F5BDE6" points="286.86,368.57,296.674,367.7416,291.2421,366.1622,292.8215,360.7303,286.86,368.57" style="stroke:#F5BDE6;stroke-width:1.0;"/><text fill="#CAD3F5" font-family="Helvetica" font-size="12" lengthAdjust="spacing" textLength="128.0449" x="400.51" y="273.2402">unwraps to / wraps from</text></g><!--link LazyHolder to Lazy--><g id="link_LazyHolder_Lazy"><path codeLine="29" d="M257.71,307.3 C257.71,329.69 257.71,344.16 257.71,362.66 " fill="none" id="LazyHolder-Lazy" style="stroke:#F5BDE6;stroke-width:1.0;"/><polygon fill="none" points="257.71,295.3,253.71,301.3,257.71,307.3,261.71,301.3,257.71,295.3" style="stroke:#F5BDE6;stroke-width:1.0;"/><polygon fill="#F5BDE6" points="257.71,368.66,261.71,359.66,257.71,363.66,253.71,359.66,257.71,368.66" style="stroke:#F5BDE6;stroke-width:1.0;"/><text fill="#CAD3F5" font-family="Helvetica" font-size="12" lengthAdjust="spacing" textLength="28.6875" x="258.71" y="335.2402">holds</text></g><!--SRC=[VL5DJm8n4BttLumd9BhTEratui50C7WnyLow0stIhxIpGIJyTxiic0KZfqxUl7dptlHEEsdQ1a4HXJGfooYsVAD9jQisOPJU4JhYqjlIIPz855gMKb08hPJQ5LP8gRGWNmGZ7BNM5AJGOcc5TkMnv26ZZ2cTjw0Dj0EBTeKnCQQpUbmBYR3GhgdUnFUkA_Yd9eSfFSAqXggQBJxW9UfcWtKzd3dJgyp2h-opIJTqzWnW12S4Nk49hcdim9Wq8dUxJgUgRJ0vWQCqNDOhJIMrmXnnc9zvWhHtdSv0g9kQeGaOiuS7sAUE9GyNzhTHXFldfNVBrfZp-l6GVTs4rfs6CYXMviO9nsm4x_ah8kIpaO-xKlLsB9BoJUASNqQVUTDW_Fy0EKVnrv39xznblqvYftULdVDw80uJa145OVgFbnbzn0JaeOI-N4TlsK365yKlNMKeiHy0]--></g></svg>