<svg xmlns="http://www.w3.org/2000/svg" xmlns:xlink="http://www.w3.org/1999/xlink" contentStyleType="text/css" height="340px" preserveAspectRatio="none" style="width:829px;height:340px;background:#24273A;" version="1.1" viewBox="0 0 829 340" width="829px" zoomAndPan="magnify"><defs/><g><rect fill="#24273A" height="340" style="stroke:none;stroke-width:1.0;" width="829" x="0" y="0"/><!--class LazyKindHelper--><g id="elem_LazyKindHelper"><rect codeLine="6" fill="#24273A" height="62" id="LazyKindHelper" rx="1.5" ry="1.5" style="stroke:#C6A0F6;stroke-width:2.0;" width="258.1289" x="179.9" y="271"/><rect fill="#363A4F" height="30" rx="1.5" ry="1.5" style="stroke:#363A4F;stroke-width:2.0;" width="258.1289" x="179.9" y="271"/><rect fill="#363A4F" height="1.5" style="stroke:#363A4F;stroke-width:2.0;" width="258.1289" x="179.9" y="299.5"/><rect codeLine="6" fill="none" height="62" id="LazyKindHelper" rx="1.5" ry="1.5" style="stroke:#C6A0F6;stroke-width:2.0;" width="258.1289" x="179.9" y="271"/><ellipse cx="248.4879" cy="286" fill="#ADD1B2" rx="10" ry="10" style="stroke:#181818;stroke-width:1.0;"/><path d="M250.3219,290.248 Q249.9117,290.459 249.4605,290.5645 Q249.0094,290.6699 248.5113,290.6699 Q246.7418,290.6699 245.8102,289.5039 Q244.8785,288.3379 244.8785,286.1348 Q244.8785,283.9258 245.8102,282.7598 Q246.7418,281.5938 248.5113,281.5938 Q249.0094,281.5938 249.4664,281.6992 Q249.9234,281.8047 250.3219,282.0156 L250.3219,283.9375 Q249.8766,283.5273 249.4576,283.3369 Q249.0387,283.1465 248.5934,283.1465 Q247.6441,283.1465 247.1607,283.8994 Q246.6773,284.6523 246.6773,286.1348 Q246.6773,287.6113 247.1607,288.3643 Q247.6441,289.1172 248.5934,289.1172 Q249.0387,289.1172 249.4576,288.9268 Q249.8766,288.7363 250.3219,288.3262 Z " fill="#CAD3F5"/><text fill="#A6DA95" font-family="Helvetica" font-size="16" lengthAdjust="spacing" textLength="112.9531" x="267.4879" y="290.3203">LazyKindHelper</text><line style="stroke:#C6A0F6;stroke-width:2.0;" x1="180.9" x2="437.0289" y1="301" y2="301"/><text fill="#A6DA95" font-family="Helvetica" font-size="12" lengthAdjust="spacing" text-decoration="underline" textLength="156.0879" x="185.9" y="314.2402">LazyKind&lt;A&gt; wrap(Lazy&lt;A&gt;)</text><text fill="#A6DA95" font-family="Helvetica" font-size="12" lengthAdjust="spacing" text-decoration="underline" textLength="246.1289" x="185.9" y="326.2402">Lazy&lt;A&gt; unwrap(Kind&lt;LazyKind.Witness, A&gt;)</text></g><!--class LazyMonad--><g id="elem_LazyMonad"><rect codeLine="12" fill="#24273A" height="86" id="LazyMonad" rx="1.5" ry="1.5" style="stroke:#C6A0F6;stroke-width:2.0;" width="815.9219" x="7" y="111"/><rect fill="#363A4F" height="30" rx="1.5" ry="1.5" style="stroke:#363A4F;stroke-width:2.0;" width="815.9219" x="7" y="111"/><rect fill="#363A4F" height="1.5" style="stroke:#363A4F;stroke-width:2.0;" width="815.9219" x="7" y="139.5"/><rect codeLine="12" fill="none" height="86" id="LazyMonad" rx="1.5" ry="1.5" style="stroke:#C6A0F6;stroke-width:2.0;" width="815.9219" x="7" y="111"/><ellipse cx="369.6016" cy="126" fill="#ADD1B2" rx="10" ry="10" style="stroke:#181818;stroke-width:1.0;"/><path d="M371.4355,130.248 Q371.0254,130.459 370.5742,130.5645 Q370.123,130.6699 369.625,130.6699 Q367.8555,130.6699 366.9238,129.5039 Q365.9922,128.3379 365.9922,126.1348 Q365.9922,123.9258 366.9238,122.7598 Q367.8555,121.5938 369.625,121.5938 Q370.123,121.5938 370.5801,121.6992 Q371.0371,121.8047 371.4355,122.0156 L371.4355,123.9375 Q370.9902,123.5273 370.5713,123.3369 Q370.1523,123.1465 369.707,123.1465 Q368.7578,123.1465 368.2744,123.8994 Q367.791,124.6523 367.791,126.1348 Q367.791,127.6113 368.2744,128.3643 Q368.7578,129.1172 369.707,129.1172 Q370.1523,129.1172 370.5713,128.9268 Q370.9902,128.7363 371.4355,128.3262 Z " fill="#CAD3F5"/><text fill="#A6DA95" font-family="Helvetica" font-size="16" lengthAdjust="spacing" textLength="82.7188" x="388.6016" y="130.3203">LazyMonad</text><line style="stroke:#C6A0F6;stroke-width:2.0;" x1="8" x2="821.9219" y1="141" y2="141"/><ellipse cx="18" cy="152.5" fill="#84BE84" rx="3" ry="3" style="stroke:#038048;stroke-width:1.0;"/><text fill="#A6DA95" font-family="Helvetica" font-size="12" lengthAdjust="spacing" textLength="634.8398" x="26" y="154.2402">&lt;A, B&gt; @NonNull Kind&lt;LazyKind.Witness, B&gt; map(@NonNull Function&lt;A, B&gt;, @NonNull Kind&lt;LazyKind.Witness, A&gt;)</text><ellipse cx="18" cy="164.5" fill="#84BE84" rx="3" ry="3" style="stroke:#038048;stroke-width:1.0;"/><text fill="#A6DA95" font-family="Helvetica" font-size="12" lengthAdjust="spacing" textLength="319.8457" x="26" y="166.2402">&lt;A&gt; @NonNull Kind&lt;LazyKind.Witness, A&gt; of(@Nullable A)</text><ellipse cx="18" cy="176.5" fill="#84BE84" rx="3" ry="3" style="stroke:#038048;stroke-width:1.0;"/><text fill="#A6DA95" font-family="Helvetica" font-size="12" lengthAdjust="spacing" textLength="764.918" x="26" y="178.2402">&lt;A, B&gt; @NonNull Kind&lt;LazyKind.Witness, B&gt; ap(@NonNull Kind&lt;LazyKind.Witness, Function&lt;A, B&gt;&gt;, @NonNull Kind&lt;LazyKind.Witness, A&gt;)</text><ellipse cx="18" cy="188.5" fill="#84BE84" rx="3" ry="3" style="stroke:#038048;stroke-width:1.0;"/><text fill="#A6DA95" font-family="Helvetica" font-size="12" lengthAdjust="spacing" textLength="790.9219" x="26" y="190.2402">&lt;A, B&gt; @NonNull Kind&lt;LazyKind.Witness, B&gt; flatMap(@NonNull Function&lt;A, Kind&lt;LazyKind.Witness, B&gt;&gt;, @NonNull Kind&lt;LazyKind.Witness, A&gt;)</text></g><!--class Monad--><g id="elem_Monad"><rect fill="#24273A" height="30" id="Monad" rx="1.5" ry="1.5" style="stroke:#C6A0F6;stroke-width:2.0;" width="78.9219" x="375.5" y="7"/><rect fill="#363A4F" height="30" rx="1.5" ry="1.5" style="stroke:#363A4F;stroke-width:2.0;" width="78.9219" x="375.5" y="7"/><rect fill="#363A4F" height="1.5" style="stroke:#363A4F;stroke-width:2.0;" width="78.9219" x="375.5" y="35.5"/><rect fill="none" height="30" id="Monad" rx="1.5" ry="1.5" style="stroke:#C6A0F6;stroke-width:2.0;" width="78.9219" x="375.5" y="7"/><ellipse cx="389.5" cy="22" fill="#B4A7E5" rx="10" ry="10" style="stroke:#181818;stroke-width:1.0;"/><path d="M386.5078,19.2754 L386.5078,17.752 L391.7168,17.752 L391.7168,19.2754 L389.9766,19.2754 L389.9766,24.9766 L391.7168,24.9766 L391.7168,26.5 L386.5078,26.5 L386.5078,24.9766 L388.248,24.9766 L388.248,19.2754 Z " fill="#CAD3F5"/><text fill="#A6DA95" font-family="Helvetica" font-size="16" font-style="italic" lengthAdjust="spacing" textLength="48.9219" x="402.5" y="26.3203">Monad</text></g><!--class LazyKind--><g id="elem_LazyKind"><rect fill="#24273A" height="30" id="LazyKind" rx="1.5" ry="1.5" style="stroke:#C6A0F6;stroke-width:2.0;" width="95.8203" x="473.05" y="287"/><rect fill="#363A4F" height="30" rx="1.5" ry="1.5" style="stroke:#363A4F;stroke-width:2.0;" width="95.8203" x="473.05" y="287"/><rect fill="#363A4F" height="1.5" style="stroke:#363A4F;stroke-width:2.0;" width="95.8203" x="473.05" y="315.5"/><rect fill="none" height="30" id="LazyKind" rx="1.5" ry="1.5" style="stroke:#C6A0F6;stroke-width:2.0;" width="95.8203" x="473.05" y="287"/><ellipse cx="487.05" cy="302" fill="#ADD1B2" rx="10" ry="10" style="stroke:#181818;stroke-width:1.0;"/><path d="M488.884,306.248 Q488.4738,306.459 488.0227,306.5645 Q487.5715,306.6699 487.0734,306.6699 Q485.3039,306.6699 484.3723,305.5039 Q483.4406,304.3379 483.4406,302.1348 Q483.4406,299.9258 484.3723,298.7598 Q485.3039,297.5938 487.0734,297.5938 Q487.5715,297.5938 488.0285,297.6992 Q488.4855,297.8047 488.884,298.0156 L488.884,299.9375 Q488.4387,299.5273 488.0197,299.3369 Q487.6008,299.1465 487.1555,299.1465 Q486.2063,299.1465 485.7229,299.8994 Q485.2395,300.6523 485.2395,302.1348 Q485.2395,303.6113 485.7229,304.3643 Q486.2063,305.1172 487.1555,305.1172 Q487.6008,305.1172 488.0197,304.9268 Q488.4387,304.7363 488.884,304.3262 Z " fill="#CAD3F5"/><text fill="#A6DA95" font-family="Helvetica" font-size="16" lengthAdjust="spacing" textLength="65.8203" x="500.05" y="306.3203">LazyKind</text></g><!--reverse link Monad to LazyMonad--><g id="link_Monad_LazyMonad"><path d="M408.8837,54.9067 C407.3137,63.4967 408.75,56.98 407.96,67 C406.84,81.19 407.51,96.69 408.81,110.57 " fill="none" id="Monad-backto-LazyMonad" style="stroke:#F5BDE6;stroke-width:1.0;stroke-dasharray:7.0,7.0;"/><polygon fill="none" points="412.12,37.2,402.9815,53.8279,414.786,55.9854,412.12,37.2" style="stroke:#F5BDE6;stroke-width:1.0;"/></g><!--reverse link Monad to LazyMonad--><g id="link_Monad_LazyMonad"><path codeLine="19" d="M414.96,55.41 C414.96,72.99 414.96,85.51 414.96,110.77 " fill="none" id="Monad-backto-LazyMonad-1" style="stroke:#F5BDE6;stroke-width:1.0;stroke-dasharray:7.0,7.0;"/><polygon fill="none" points="414.96,37.41,408.96,55.41,420.96,55.41,414.96,37.41" style="stroke:#F5BDE6;stroke-width:1.0;"/><text fill="#CAD3F5" font-family="Helvetica" font-size="12" lengthAdjust="spacing" textLength="61.3535" x="415.96" y="77.2402">implements</text></g><!--link LazyMonad to LazyKindHelper--><g id="link_LazyMonad_LazyKindHelper"><path codeLine="20" d="M384.3,197.23 C367.18,220.81 349.7751,244.7747 334.3251,266.0547 " fill="none" id="LazyMonad-to-LazyKindHelper" style="stroke:#F5BDE6;stroke-width:1.0;stroke-dasharray:7.0,7.0;"/><polygon fill="#F5BDE6" points="330.8,270.91,339.3245,265.9771,333.7376,266.8639,332.8508,261.277,330.8,270.91" style="stroke:#F5BDE6;stroke-width:1.0;"/><text fill="#CAD3F5" font-family="Helvetica" font-size="12" lengthAdjust="spacing" textLength="25.3477" x="362.96" y="237.2402">uses</text></g><!--link LazyMonad to LazyKind--><g id="link_LazyMonad_LazyKind"><path codeLine="21" d="M445.62,197.23 C467.51,227.38 492.0956,261.2442 507.0256,281.8142 " fill="none" id="LazyMonad-to-LazyKind" style="stroke:#F5BDE6;stroke-width:1.0;stroke-dasharray:7.0,7.0;"/><polygon fill="#F5BDE6" points="510.55,286.67,508.5006,277.0367,507.613,282.6235,502.0262,281.7359,510.55,286.67" style="stroke:#F5BDE6;stroke-width:1.0;"/><text fill="#CAD3F5" font-family="Helvetica" font-size="12" lengthAdjust="spacing" textLength="63.3809" x="475.31" y="237.2402">operates on</text></g><!--SRC=[bPF1JiCm38RlVGfpWearlKzJnJWW9DYkdBqiev4I9seSJMFitV4wCSfGnTPJQt_E_wbkRonfbrS66kQO9bNLuaQzMsxoCYVJwa1iY9KElY8T4cDfTQMHOynQMoezQjrOv516XyJPkv8RuqtbqLBLtQeerQAn4c9yv2ruuvUcJOLSsc5Ay8eVsnTBgsVZecbXLy1EajZg_QardTMmQJ7U7GhoC3fZ3lrC7T7XttFgpJAPbCRGpTo2KghOzuFdWN05raSdhiG9kiAV0-g3rZrCPsDuhE5X4MYHdOE1C46yg9omfqoQRQ3Z-FZV-Kxsa5PVW49OIv8Wk7G6PgFhFFkQ0zHl-slqBvLOE-Jvq0iR7BlGHDRzisYLrMTzt35CUcll8we-_oGd87_342FT812oIH2e-080]--></g></svg>