<svg xmlns="http://www.w3.org/2000/svg" xmlns:xlink="http://www.w3.org/1999/xlink" contentStyleType="text/css" height="463px" preserveAspectRatio="none" style="width:820px;height:463px;background:#24273A;" version="1.1" viewBox="0 0 820 463" width="820px" zoomAndPan="magnify"><defs/><g><rect fill="#24273A" height="463" style="stroke:none;stroke-width:1.0;" width="820" x="0" y="0"/><!--class Kind--><g id="elem_Kind"><rect codeLine="6" fill="#24273A" height="30" id="Kind" rx="1.5" ry="1.5" style="stroke:#C6A0F6;stroke-width:2.0;" width="88.0254" x="445.34" y="426"/><rect fill="#363A4F" height="30" rx="1.5" ry="1.5" style="stroke:#363A4F;stroke-width:2.0;" width="88.0254" x="445.34" y="426"/><rect fill="#363A4F" height="1.5" style="stroke:#363A4F;stroke-width:2.0;" width="88.0254" x="445.34" y="454.5"/><rect codeLine="6" fill="none" height="30" id="Kind" rx="1.5" ry="1.5" style="stroke:#C6A0F6;stroke-width:2.0;" width="88.0254" x="445.34" y="426"/><ellipse cx="459.34" cy="441" fill="#B4A7E5" rx="10" ry="10" style="stroke:#181818;stroke-width:1.0;"/><path d="M456.3478,438.2754 L456.3478,436.752 L461.5568,436.752 L461.5568,438.2754 L459.8166,438.2754 L459.8166,443.9766 L461.5568,443.9766 L461.5568,445.5 L456.3478,445.5 L456.3478,443.9766 L458.088,443.9766 L458.088,438.2754 Z " fill="#CAD3F5"/><text fill="#A6DA95" font-family="Helvetica" font-size="16" font-style="italic" lengthAdjust="spacing" textLength="32.0234" x="472.34" y="445.3203">Kind</text><rect fill="#24273A" height="14" style="stroke:#C6A0F6;stroke-width:1.0;stroke-dasharray:2.0,2.0;" width="24.002" x="512.3634" y="423"/><text fill="#CAD3F5" font-family="Helvetica" font-size="12" font-style="italic" lengthAdjust="spacing" textLength="22.002" x="513.3634" y="433.2402">F, A</text></g><!--class Functor--><g id="elem_Functor"><rect codeLine="7" fill="#24273A" height="30" id="Functor" rx="1.5" ry="1.5" style="stroke:#C6A0F6;stroke-width:2.0;" width="95.5723" x="523.57" y="322"/><rect fill="#363A4F" height="30" rx="1.5" ry="1.5" style="stroke:#363A4F;stroke-width:2.0;" width="95.5723" x="523.57" y="322"/><rect fill="#363A4F" height="1.5" style="stroke:#363A4F;stroke-width:2.0;" width="95.5723" x="523.57" y="350.5"/><rect codeLine="7" fill="none" height="30" id="Functor" rx="1.5" ry="1.5" style="stroke:#C6A0F6;stroke-width:2.0;" width="95.5723" x="523.57" y="322"/><ellipse cx="537.57" cy="337" fill="#B4A7E5" rx="10" ry="10" style="stroke:#181818;stroke-width:1.0;"/><path d="M534.5778,334.2754 L534.5778,332.752 L539.7868,332.752 L539.7868,334.2754 L538.0466,334.2754 L538.0466,339.9766 L539.7868,339.9766 L539.7868,341.5 L534.5778,341.5 L534.5778,339.9766 L536.318,339.9766 L536.318,334.2754 Z " fill="#CAD3F5"/><text fill="#A6DA95" font-family="Helvetica" font-size="16" font-style="italic" lengthAdjust="spacing" textLength="54.2422" x="550.57" y="341.3203">Functor</text><rect fill="#24273A" height="14" style="stroke:#C6A0F6;stroke-width:1.0;stroke-dasharray:2.0,2.0;" width="9.3301" x="612.8122" y="319"/><text fill="#CAD3F5" font-family="Helvetica" font-size="12" font-style="italic" lengthAdjust="spacing" textLength="7.3301" x="613.8122" y="329.2402">F</text></g><!--class Applicative--><g id="elem_Applicative"><rect codeLine="8" fill="#24273A" height="30" id="Applicative" rx="1.5" ry="1.5" style="stroke:#C6A0F6;stroke-width:2.0;" width="118.7051" x="7" y="223"/><rect fill="#363A4F" height="30" rx="1.5" ry="1.5" style="stroke:#363A4F;stroke-width:2.0;" width="118.7051" x="7" y="223"/><rect fill="#363A4F" height="1.5" style="stroke:#363A4F;stroke-width:2.0;" width="118.7051" x="7" y="251.5"/><rect codeLine="8" fill="none" height="30" id="Applicative" rx="1.5" ry="1.5" style="stroke:#C6A0F6;stroke-width:2.0;" width="118.7051" x="7" y="223"/><ellipse cx="21" cy="238" fill="#B4A7E5" rx="10" ry="10" style="stroke:#181818;stroke-width:1.0;"/><path d="M18.0078,235.2754 L18.0078,233.752 L23.2168,233.752 L23.2168,235.2754 L21.4766,235.2754 L21.4766,240.9766 L23.2168,240.9766 L23.2168,242.5 L18.0078,242.5 L18.0078,240.9766 L19.748,240.9766 L19.748,235.2754 Z " fill="#CAD3F5"/><text fill="#A6DA95" font-family="Helvetica" font-size="16" font-style="italic" lengthAdjust="spacing" textLength="77.375" x="34" y="242.3203">Applicative</text><rect fill="#24273A" height="14" style="stroke:#C6A0F6;stroke-width:1.0;stroke-dasharray:2.0,2.0;" width="9.3301" x="119.375" y="220"/><text fill="#CAD3F5" font-family="Helvetica" font-size="12" font-style="italic" lengthAdjust="spacing" textLength="7.3301" x="120.375" y="230.2402">F</text></g><!--class MonadBase--><g id="elem_MonadBase"><rect codeLine="9" fill="#24273A" height="30" id="MonadBase" rx="1.5" ry="1.5" style="stroke:#C6A0F6;stroke-width:2.0;" width="92.918" x="31.89" y="111"/><rect fill="#363A4F" height="30" rx="1.5" ry="1.5" style="stroke:#363A4F;stroke-width:2.0;" width="92.918" x="31.89" y="111"/><rect fill="#363A4F" height="1.5" style="stroke:#363A4F;stroke-width:2.0;" width="92.918" x="31.89" y="139.5"/><rect codeLine="9" fill="none" height="30" id="MonadBase" rx="1.5" ry="1.5" style="stroke:#C6A0F6;stroke-width:2.0;" width="92.918" x="31.89" y="111"/><ellipse cx="45.89" cy="126" fill="#B4A7E5" rx="10" ry="10" style="stroke:#181818;stroke-width:1.0;"/><path d="M42.8978,123.2754 L42.8978,121.752 L48.1068,121.752 L48.1068,123.2754 L46.3666,123.2754 L46.3666,128.9766 L48.1068,128.9766 L48.1068,130.5 L42.8978,130.5 L42.8978,128.9766 L44.638,128.9766 L44.638,123.2754 Z " fill="#CAD3F5"/><text fill="#A6DA95" font-family="Helvetica" font-size="16" font-style="italic" lengthAdjust="spacing" textLength="48.9219" x="58.89" y="130.3203">Monad</text><rect fill="#24273A" height="14" style="stroke:#C6A0F6;stroke-width:1.0;stroke-dasharray:2.0,2.0;" width="11.9961" x="115.8119" y="108"/><text fill="#CAD3F5" font-family="Helvetica" font-size="12" font-style="italic" lengthAdjust="spacing" textLength="9.9961" x="116.8119" y="118.2402">M</text></g><!--class ListKindBase--><g id="elem_ListKindBase"><rect codeLine="11" fill="#24273A" height="30" id="ListKindBase" rx="1.5" ry="1.5" style="stroke:#C6A0F6;stroke-width:2.0;" width="98.9258" x="358.89" y="322"/><rect fill="#363A4F" height="30" rx="1.5" ry="1.5" style="stroke:#363A4F;stroke-width:2.0;" width="98.9258" x="358.89" y="322"/><rect fill="#363A4F" height="1.5" style="stroke:#363A4F;stroke-width:2.0;" width="98.9258" x="358.89" y="350.5"/><rect codeLine="11" fill="none" height="30" id="ListKindBase" rx="1.5" ry="1.5" style="stroke:#C6A0F6;stroke-width:2.0;" width="98.9258" x="358.89" y="322"/><ellipse cx="372.89" cy="337" fill="#DA70D6" rx="10" ry="10" style="stroke:#181818;stroke-width:1.0;"/><path d="M370.2084,341.5 L370.2084,332.752 L371.9369,332.752 L371.9369,339.9766 L375.6341,339.9766 L375.6341,341.5 Z " fill="#CAD3F5"/><text fill="#A6DA95" font-family="Helvetica" font-size="16" font-style="italic" lengthAdjust="spacing" textLength="56.9219" x="385.89" y="341.3203">ListKind</text><rect fill="#24273A" height="14" style="stroke:#C6A0F6;stroke-width:1.0;stroke-dasharray:2.0,2.0;" width="10.0039" x="450.8119" y="319"/><text fill="#CAD3F5" font-family="Helvetica" font-size="12" font-style="italic" lengthAdjust="spacing" textLength="8.0039" x="451.8119" y="329.2402">A</text></g><!--class ListKindHelper--><g id="elem_ListKindHelper"><rect codeLine="15" fill="#24273A" height="30" id="ListKindHelper" rx="1.5" ry="1.5" style="stroke:#C6A0F6;stroke-width:2.0;" width="134.0547" x="160.33" y="223"/><rect fill="#363A4F" height="30" rx="1.5" ry="1.5" style="stroke:#363A4F;stroke-width:2.0;" width="134.0547" x="160.33" y="223"/><rect fill="#363A4F" height="1.5" style="stroke:#363A4F;stroke-width:2.0;" width="134.0547" x="160.33" y="251.5"/><rect codeLine="15" fill="none" height="30" id="ListKindHelper" rx="1.5" ry="1.5" style="stroke:#C6A0F6;stroke-width:2.0;" width="134.0547" x="160.33" y="223"/><ellipse cx="174.33" cy="238" fill="#808080" rx="10" ry="10" style="stroke:#181818;stroke-width:1.0;"/><path d="M171.1327,233.752 L172.8613,233.752 L172.8613,237.0859 L175.0234,237.0859 L175.0234,233.752 L176.7519,233.752 L176.7519,242.5 L175.0234,242.5 L175.0234,238.6094 L172.8613,238.6094 L172.8613,242.5 L171.1327,242.5 Z " fill="#CAD3F5"/><text fill="#A6DA95" font-family="Helvetica" font-size="16" lengthAdjust="spacing" textLength="104.0547" x="187.33" y="242.3203">ListKindHelper</text></g><g id="elem_GMN8"><path d="M329.78,216.5 L329.78,234 L294.65,238 L329.78,242 L329.78,259.5 A1.5,1.5 0 0 0 331.28,261 L681.4304,261 A1.5,1.5 0 0 0 682.9304,259.5 L682.9304,225 L672.9304,215 L331.28,215 A1.5,1.5 0 0 0 329.78,216.5 " fill="#EED49F" style="stroke:#24273A;stroke-width:0.5;"/><path d="M672.9304,215 L672.9304,224.25 A0.75,0.75 0 0 0 673.6804,225 L682.9304,225 L672.9304,215 " fill="#EED49F" style="stroke:#24273A;stroke-width:0.5;"/><text fill="#24273A" font-family="Helvetica" font-size="12" lengthAdjust="spacing" textLength="211.3594" x="335.78" y="229.2402">Contains internal 'ListHolder&lt;A&gt; record'</text><text fill="#24273A" font-family="Helvetica" font-size="12" lengthAdjust="spacing" textLength="166.7461" x="335.78" y="241.2402">which implements ListKind&lt;A&gt;.</text><text fill="#24273A" font-family="Helvetica" font-size="12" lengthAdjust="spacing" textLength="332.1504" x="335.78" y="253.2402">`record ListHolder&lt;A&gt;(List&lt;A&gt; list) implements ListKind&lt;A&gt; {}`</text></g><!--class ListFunctorImpl--><g id="elem_ListFunctorImpl"><rect codeLine="26" fill="#24273A" height="30" id="ListFunctorImpl" rx="1.5" ry="1.5" style="stroke:#C6A0F6;stroke-width:2.0;" width="109.1406" x="361.78" y="111"/><rect fill="#363A4F" height="30" rx="1.5" ry="1.5" style="stroke:#363A4F;stroke-width:2.0;" width="109.1406" x="361.78" y="111"/><rect fill="#363A4F" height="1.5" style="stroke:#363A4F;stroke-width:2.0;" width="109.1406" x="361.78" y="139.5"/><rect codeLine="26" fill="none" height="30" id="ListFunctorImpl" rx="1.5" ry="1.5" style="stroke:#C6A0F6;stroke-width:2.0;" width="109.1406" x="361.78" y="111"/><ellipse cx="375.78" cy="126" fill="#ADD1B2" rx="10" ry="10" style="stroke:#181818;stroke-width:1.0;"/><path d="M377.614,130.248 Q377.2038,130.459 376.7527,130.5645 Q376.3015,130.6699 375.8034,130.6699 Q374.0339,130.6699 373.1023,129.5039 Q372.1706,128.3379 372.1706,126.1348 Q372.1706,123.9258 373.1023,122.7598 Q374.0339,121.5938 375.8034,121.5938 Q376.3015,121.5938 376.7585,121.6992 Q377.2155,121.8047 377.614,122.0156 L377.614,123.9375 Q377.1687,123.5273 376.7497,123.3369 Q376.3308,123.1465 375.8855,123.1465 Q374.9363,123.1465 374.4529,123.8994 Q373.9695,124.6523 373.9695,126.1348 Q373.9695,127.6113 374.4529,128.3643 Q374.9363,129.1172 375.8855,129.1172 Q376.3308,129.1172 376.7497,128.9268 Q377.1687,128.7363 377.614,128.3262 Z " fill="#CAD3F5"/><text fill="#A6DA95" font-family="Helvetica" font-size="16" lengthAdjust="spacing" textLength="79.1406" x="388.78" y="130.3203">ListFunctor</text></g><!--class ListMonadImpl--><g id="elem_ListMonadImpl"><rect codeLine="29" fill="#24273A" height="30" id="ListMonadImpl" rx="1.5" ry="1.5" style="stroke:#C6A0F6;stroke-width:2.0;" width="103.8203" x="158.44" y="7"/><rect fill="#363A4F" height="30" rx="1.5" ry="1.5" style="stroke:#363A4F;stroke-width:2.0;" width="103.8203" x="158.44" y="7"/><rect fill="#363A4F" height="1.5" style="stroke:#363A4F;stroke-width:2.0;" width="103.8203" x="158.44" y="35.5"/><rect codeLine="29" fill="none" height="30" id="ListMonadImpl" rx="1.5" ry="1.5" style="stroke:#C6A0F6;stroke-width:2.0;" width="103.8203" x="158.44" y="7"/><ellipse cx="172.44" cy="22" fill="#ADD1B2" rx="10" ry="10" style="stroke:#181818;stroke-width:1.0;"/><path d="M174.274,26.248 Q173.8638,26.459 173.4127,26.5645 Q172.9615,26.6699 172.4634,26.6699 Q170.6939,26.6699 169.7623,25.5039 Q168.8306,24.3379 168.8306,22.1348 Q168.8306,19.9258 169.7623,18.7598 Q170.6939,17.5938 172.4634,17.5938 Q172.9615,17.5938 173.4185,17.6992 Q173.8755,17.8047 174.274,18.0156 L174.274,19.9375 Q173.8287,19.5273 173.4097,19.3369 Q172.9908,19.1465 172.5455,19.1465 Q171.5963,19.1465 171.1129,19.8994 Q170.6295,20.6523 170.6295,22.1348 Q170.6295,23.6113 171.1129,24.3643 Q171.5963,25.1172 172.5455,25.1172 Q172.9908,25.1172 173.4097,24.9268 Q173.8287,24.7363 174.274,24.3262 Z " fill="#CAD3F5"/><text fill="#A6DA95" font-family="Helvetica" font-size="16" lengthAdjust="spacing" textLength="73.8203" x="185.44" y="26.3203">ListMonad</text></g><!--link MonadBase to Applicative--><g id="link_MonadBase_Applicative"><path codeLine="35" d="M76.78,141.38 C74.48,162.46 72.1714,183.6361 69.8714,204.7261 " fill="none" id="MonadBase-to-Applicative" style="stroke:#F5BDE6;stroke-width:1.0;"/><polygon fill="none" points="67.92,222.62,75.8361,205.3766,63.9068,204.0756,67.92,222.62" style="stroke:#F5BDE6;stroke-width:1.0;"/></g><!--link Applicative to Functor--><g id="link_Applicative_Functor"><path codeLine="36" d="M113.17,253.42 C122.77,256.13 132.85,258.8 142.35,261 C214.45,277.69 409.3514,309.8333 505.4614,325.3933 " fill="none" id="Applicative-to-Functor" style="stroke:#F5BDE6;stroke-width:1.0;"/><polygon fill="none" points="523.23,328.27,506.4203,319.4704,504.5025,331.3162,523.23,328.27" style="stroke:#F5BDE6;stroke-width:1.0;"/></g><!--link Functor to Kind--><g id="link_Functor_Kind"><path codeLine="37" d="M562.74,352.33 C555.25,364.39 543.84,381.88 532.35,396 C523.86,406.44 526.2033,404.6996 517.6833,412.9996 " fill="none" id="Functor-to-Kind" style="stroke:#F5BDE6;stroke-width:1.0;"/><polygon fill="none" points="504.79,425.56,521.8701,417.2974,513.4965,408.7019,504.79,425.56" style="stroke:#F5BDE6;stroke-width:1.0;"/><text fill="#CAD3F5" font-family="Helvetica" font-size="12" lengthAdjust="spacing" textLength="193.4063" x="543.81" y="392.2402">(logically, Kind is the base for HKTs)</text></g><!--link ListKindBase to Kind--><g id="link_ListKindBase_Kind"><path codeLine="39" d="M403.34,352.45 C399.96,364.9 397.42,382.89 405.35,396 C414.22,410.65 413.2578,413.4255 428.5678,420.1455 " fill="none" id="ListKindBase-to-Kind" style="stroke:#F5BDE6;stroke-width:1.0;"/><polygon fill="none" points="445.05,427.38,430.9793,414.6514,426.1563,425.6396,445.05,427.38" style="stroke:#F5BDE6;stroke-width:1.0;"/><text fill="#CAD3F5" font-family="Helvetica" font-size="12" lengthAdjust="spacing" textLength="121.0605" x="406.35" y="392.2402">&lt;ListKind&lt;Witness, A&gt;</text></g><!--link ListFunctorImpl to Functor--><g id="link_ListFunctorImpl_Functor"><path codeLine="41" d="M471.16,136.12 C545.73,149.76 673.02,177.92 700.35,215 C712.48,231.46 710.55,243.28 700.35,261 C683.04,291.09 665.2586,303.6357 636.2786,315.0457 " fill="none" id="ListFunctorImpl-to-Functor" style="stroke:#F5BDE6;stroke-width:1.0;stroke-dasharray:7.0,7.0;"/><polygon fill="none" points="619.53,321.64,638.4767,320.6286,634.0805,309.4629,619.53,321.64" style="stroke:#F5BDE6;stroke-width:1.0;"/><text fill="#CAD3F5" font-family="Helvetica" font-size="12" lengthAdjust="spacing" textLength="102.7148" x="709.74" y="241.2402">&lt;ListKind.Witness&gt;</text></g><!--link ListMonadImpl to ListFunctorImpl--><g id="link_ListMonadImpl_ListFunctorImpl"><path codeLine="42" d="M239.43,37.4 C278.58,56.78 331.7192,83.0927 370.9592,102.5227 " fill="none" id="ListMonadImpl-to-ListFunctorImpl" style="stroke:#F5BDE6;stroke-width:1.0;"/><polygon fill="none" points="387.09,110.51,373.6216,97.1458,368.2968,107.8996,387.09,110.51" style="stroke:#F5BDE6;stroke-width:1.0;"/></g><!--link ListMonadImpl to MonadBase--><g id="link_ListMonadImpl_MonadBase"><path codeLine="43" d="M158.02,26.82 C130.29,31.79 98.34,42.81 80.35,67 C71.09,79.45 68.9286,80.2191 71.3186,92.9491 " fill="none" id="ListMonadImpl-to-MonadBase" style="stroke:#F5BDE6;stroke-width:1.0;stroke-dasharray:7.0,7.0;"/><polygon fill="none" points="74.64,110.64,77.2156,91.842,65.4216,94.0562,74.64,110.64" style="stroke:#F5BDE6;stroke-width:1.0;"/><text fill="#CAD3F5" font-family="Helvetica" font-size="12" lengthAdjust="spacing" textLength="102.7148" x="81.35" y="77.2402">&lt;ListKind.Witness&gt;</text></g><!--link ListMonadImpl to ListKindHelper--><g id="link_ListMonadImpl_ListKindHelper"><path codeLine="45" d="M211.49,37.37 C214.59,76.36 222.6435,177.799 225.7435,216.709 " fill="none" id="ListMonadImpl-to-ListKindHelper" style="stroke:#F5BDE6;stroke-width:1.0;stroke-dasharray:7.0,7.0;"/><polygon fill="#F5BDE6" points="226.22,222.69,229.4926,213.4008,225.8229,217.7058,221.5179,214.0361,226.22,222.69" style="stroke:#F5BDE6;stroke-width:1.0;"/><text fill="#CAD3F5" font-family="Helvetica" font-size="12" lengthAdjust="spacing" textLength="114.7207" x="220.7" y="129.2402">uses for wrap/unwrap</text></g><!--link ListFunctorImpl to ListKindHelper--><g id="link_ListFunctorImpl_ListKindHelper"><path codeLine="46" d="M391.64,141.38 C355.42,162.46 293.4751,198.5109 257.2551,219.6009 " fill="none" id="ListFunctorImpl-to-ListKindHelper" style="stroke:#F5BDE6;stroke-width:1.0;stroke-dasharray:7.0,7.0;"/><polygon fill="#F5BDE6" points="252.07,222.62,261.8603,221.548,256.3909,220.1041,257.8348,214.6346,252.07,222.62" style="stroke:#F5BDE6;stroke-width:1.0;"/><text fill="#CAD3F5" font-family="Helvetica" font-size="12" lengthAdjust="spacing" textLength="114.7207" x="339.78" y="181.2402">uses for wrap/unwrap</text></g><!--SRC=[ZLN1Rjim3BthAxXUag29VI-23Es084FRMuTTgyYCJKoM34bf47Jzzr6oazfki-raIIGVdnv9-GiPfVS5GXL2us_otCb3LbAezjkzHwUi2MX2fcoT6sLza0jIkPAXQVPAaLdKKgcAPB2BHaiJzhLUX0fhp6j99a_BhE5J8IhYB5WtuGWrrbjqNWX13EzsKY5StPCfbkivtAwkG7g8sxvvlJSgMBTSj-Pks_UuRHfDJ8rUyEJLE-fxFbeZY-LZwvCsTzBZWCq3-P0OTNHE- -W8ooLC7-RMySsB6QnMy2e09l2JWa7l8HmRX9rrAKYy2Q6qvECpvWPrWsu0snubuCsyT7ZimVu8f8bLEo4cPQBX6hWUWHGmoMI9txqvEDbC4_Vp9RwkegwppwEwQqAAws1cJDlOWE2eh0BOtOWf8ttZrk0QUqYg6QbX4dqsLXVe8fv3PLqnOTT3HQe2gXlDxM22xwVDsFxSki8W_aG5D7zd5wBXzUrPe2aWaXq8tJN8MULk_vrXEbslMO7vNKy3NjSiGV8aQv9r3WCbiwx6yrQYNhxKHkTiQJVADLJRxgQtiuiyTbg6no6N2qJ-Jh6FVoaUnkrojWsK-8SKuZn7i5ZyNWr6hxTkZQVfxRxjOGI56vXgMxApriSs8H1FL8MmZT1n1ZRtJtucn60Y-m3lRNzYoBtV-lUR8ClUYVIZJlTQYM4XKueHoCWbGRxhy2deXv3L-16u0NvvVRfg7CcydUXF-Fzlv6JifxhHvKVQo19zR_0kpoh3F5LS2oKDR35v41R0kNnb3mOE_DC0oTXrOpt5jid9c9Wj3Gdjm20M677MCIW1gFYmIIwRr5IQcB35iLnn1mN9qicQ2_WBiI5J0WMe-4LQQ7n1dOa_]--></g></svg>