<svg xmlns="http://www.w3.org/2000/svg" xmlns:xlink="http://www.w3.org/1999/xlink" contentStyleType="text/css" height="941px" preserveAspectRatio="none" style="width:1244px;height:941px;background:#24273A;" version="1.1" viewBox="0 0 1244 941" width="1244px" zoomAndPan="magnify"><defs/><g><rect fill="#24273A" height="941" style="stroke:none;stroke-width:1.0;" width="1244" x="0" y="0"/><!--class MaybeTKind--><g id="elem_MaybeTKind"><rect codeLine="7" fill="#24273A" height="50" id="MaybeTKind" rx="1.5" ry="1.5" style="stroke:#C6A0F6;stroke-width:2.0;" width="252.4023" x="404.29" y="685"/><rect fill="#363A4F" height="30" rx="1.5" ry="1.5" style="stroke:#363A4F;stroke-width:2.0;" width="252.4023" x="404.29" y="685"/><rect fill="#363A4F" height="1.5" style="stroke:#363A4F;stroke-width:2.0;" width="252.4023" x="404.29" y="713.5"/><rect codeLine="7" fill="none" height="50" id="MaybeTKind" rx="1.5" ry="1.5" style="stroke:#C6A0F6;stroke-width:2.0;" width="252.4023" x="404.29" y="685"/><ellipse cx="468.58" cy="700" fill="#B4A7E5" rx="10" ry="10" style="stroke:#181818;stroke-width:1.0;"/><path d="M465.5879,697.2754 L465.5879,695.752 L470.7968,695.752 L470.7968,697.2754 L469.0566,697.2754 L469.0566,702.9766 L470.7968,702.9766 L470.7968,704.5 L465.5879,704.5 L465.5879,702.9766 L467.3281,702.9766 L467.3281,697.2754 Z " fill="#CAD3F5"/><text fill="#A6DA95" font-family="Helvetica" font-size="16" font-style="italic" lengthAdjust="spacing" textLength="89.8203" x="487.58" y="704.3203">MaybeTKind</text><rect fill="#24273A" height="14" style="stroke:#C6A0F6;stroke-width:1.0;stroke-dasharray:2.0,2.0;" width="24.002" x="635.6904" y="682"/><text fill="#CAD3F5" font-family="Helvetica" font-size="12" font-style="italic" lengthAdjust="spacing" textLength="22.002" x="636.6904" y="692.2402">F, A</text><line style="stroke:#C6A0F6;stroke-width:2.0;" x1="405.29" x2="655.6923" y1="715" y2="715"/><ellipse cx="415.29" cy="726.5" fill="#84BE84" rx="3" ry="3" style="stroke:#038048;stroke-width:1.0;"/><text fill="#A6DA95" font-family="Helvetica" font-size="12" lengthAdjust="spacing" text-decoration="underline" textLength="227.4023" x="423.29" y="728.2402">class Witness&lt;OUTER_F&gt; &#171;(W,lightblue)&#187;</text></g><!--class Kind--><g id="elem_Kind"><rect fill="#24273A" height="30" id="Kind" rx="1.5" ry="1.5" style="stroke:#C6A0F6;stroke-width:2.0;" width="62.0234" x="499.48" y="594"/><rect fill="#363A4F" height="30" rx="1.5" ry="1.5" style="stroke:#363A4F;stroke-width:2.0;" width="62.0234" x="499.48" y="594"/><rect fill="#363A4F" height="1.5" style="stroke:#363A4F;stroke-width:2.0;" width="62.0234" x="499.48" y="622.5"/><rect fill="none" height="30" id="Kind" rx="1.5" ry="1.5" style="stroke:#C6A0F6;stroke-width:2.0;" width="62.0234" x="499.48" y="594"/><ellipse cx="513.48" cy="609" fill="#B4A7E5" rx="10" ry="10" style="stroke:#181818;stroke-width:1.0;"/><path d="M510.4878,606.2754 L510.4878,604.752 L515.6968,604.752 L515.6968,606.2754 L513.9566,606.2754 L513.9566,611.9766 L515.6968,611.9766 L515.6968,613.5 L510.4878,613.5 L510.4878,611.9766 L512.228,611.9766 L512.228,606.2754 Z " fill="#CAD3F5"/><text fill="#A6DA95" font-family="Helvetica" font-size="16" font-style="italic" lengthAdjust="spacing" textLength="32.0234" x="526.48" y="613.3203">Kind</text></g><!--class MaybeT<F, A>--><g id="elem_MaybeT&lt;F, A&gt;"><rect codeLine="12" fill="#24273A" height="138" id="MaybeT&lt;F, A&gt;" rx="1.5" ry="1.5" style="stroke:#C6A0F6;stroke-width:2.0;" width="408.5137" x="326.24" y="796"/><rect fill="#363A4F" height="30" rx="1.5" ry="1.5" style="stroke:#363A4F;stroke-width:2.0;" width="408.5137" x="326.24" y="796"/><rect fill="#363A4F" height="1.5" style="stroke:#363A4F;stroke-width:2.0;" width="408.5137" x="326.24" y="824.5"/><rect codeLine="12" fill="none" height="138" id="MaybeT&lt;F, A&gt;" rx="1.5" ry="1.5" style="stroke:#C6A0F6;stroke-width:2.0;" width="408.5137" x="326.24" y="796"/><ellipse cx="473.5867" cy="811" fill="#ADD1B2" rx="10" ry="10" style="stroke:#181818;stroke-width:1.0;"/><path d="M475.4207,815.248 Q475.0105,815.459 474.5593,815.5645 Q474.1082,815.6699 473.6101,815.6699 Q471.8406,815.6699 470.9089,814.5039 Q469.9773,813.3379 469.9773,811.1348 Q469.9773,808.9258 470.9089,807.7598 Q471.8406,806.5938 473.6101,806.5938 Q474.1082,806.5938 474.5652,806.6992 Q475.0222,806.8047 475.4207,807.0156 L475.4207,808.9375 Q474.9754,808.5273 474.5564,808.3369 Q474.1375,808.1465 473.6921,808.1465 Q472.7429,808.1465 472.2595,808.8994 Q471.7761,809.6523 471.7761,811.1348 Q471.7761,812.6113 472.2595,813.3643 Q472.7429,814.1172 473.6921,814.1172 Q474.1375,814.1172 474.5564,813.9268 Q474.9754,813.7363 475.4207,813.3262 Z " fill="#CAD3F5"/><text fill="#A6DA95" font-family="Helvetica" font-size="16" lengthAdjust="spacing" textLength="105.8203" x="492.5867" y="815.3203">MaybeT&lt;F, A&gt;</text><line style="stroke:#C6A0F6;stroke-width:2.0;" x1="327.24" x2="733.7537" y1="826" y2="826"/><ellipse cx="337.24" cy="837.5" fill="none" rx="3" ry="3" style="stroke:#038048;stroke-width:1.0;"/><text fill="#A6DA95" font-family="Helvetica" font-size="12" lengthAdjust="spacing" textLength="145.4238" x="345.24" y="839.2402">value: Kind&lt;F, Maybe&lt;A&gt;&gt;</text><line style="stroke:#C6A0F6;stroke-width:1.0;" x1="327.24" x2="733.7537" y1="846" y2="846"/><ellipse cx="337.24" cy="857.5" fill="#84BE84" rx="3" ry="3" style="stroke:#038048;stroke-width:1.0;"/><text fill="#A6DA95" font-family="Helvetica" font-size="12" lengthAdjust="spacing" text-decoration="underline" textLength="252.1113" x="345.24" y="859.2402">fromKind(Kind&lt;F, Maybe&lt;A&gt;&gt;): MaybeT&lt;F, A&gt;</text><ellipse cx="337.24" cy="869.5" fill="#84BE84" rx="3" ry="3" style="stroke:#038048;stroke-width:1.0;"/><text fill="#A6DA95" font-family="Helvetica" font-size="12" lengthAdjust="spacing" text-decoration="underline" textLength="262.793" x="345.24" y="871.2402">just(Monad&lt;F&gt; outerMonad, A a): MaybeT&lt;F, A&gt;</text><ellipse cx="337.24" cy="881.5" fill="#84BE84" rx="3" ry="3" style="stroke:#038048;stroke-width:1.0;"/><text fill="#A6DA95" font-family="Helvetica" font-size="12" lengthAdjust="spacing" text-decoration="underline" textLength="258.8086" x="345.24" y="883.2402">nothing(Monad&lt;F&gt; outerMonad): MaybeT&lt;F, A&gt;</text><ellipse cx="337.24" cy="893.5" fill="#84BE84" rx="3" ry="3" style="stroke:#038048;stroke-width:1.0;"/><text fill="#A6DA95" font-family="Helvetica" font-size="12" lengthAdjust="spacing" text-decoration="underline" textLength="383.5137" x="345.24" y="895.2402">fromMaybe(Monad&lt;F&gt; outerMonad, Maybe&lt;A&gt; maybe): MaybeT&lt;F, A&gt;</text><ellipse cx="337.24" cy="905.5" fill="#84BE84" rx="3" ry="3" style="stroke:#038048;stroke-width:1.0;"/><text fill="#A6DA95" font-family="Helvetica" font-size="12" lengthAdjust="spacing" text-decoration="underline" textLength="318.8145" x="345.24" y="907.2402">liftF(Monad&lt;F&gt; outerMonad, Kind&lt;F, A&gt; fa): MaybeT&lt;F, A&gt;</text><line style="stroke:#C6A0F6;stroke-width:1.0;" x1="327.24" x2="733.7537" y1="914" y2="914"/><ellipse cx="337.24" cy="925.5" fill="#84BE84" rx="3" ry="3" style="stroke:#038048;stroke-width:1.0;"/><text fill="#A6DA95" font-family="Helvetica" font-size="12" lengthAdjust="spacing" textLength="153.416" x="345.24" y="927.2402">value(): Kind&lt;F, Maybe&lt;A&gt;&gt;</text></g><g id="elem_GMN7"><path d="M6,855.5 L6,874.5 A1.5,1.5 0 0 0 7.5,876 L289.4883,876 A1.5,1.5 0 0 0 290.9883,874.5 L290.9883,872 L325.93,865 L290.9883,864 L290.9883,864 L280.9883,854 L7.5,854 A1.5,1.5 0 0 0 6,855.5 " fill="#EED49F" style="stroke:#24273A;stroke-width:0.5;"/><path d="M280.9883,854 L280.9883,863.25 A0.75,0.75 0 0 0 281.7383,864 L290.9883,864 L280.9883,854 " fill="#EED49F" style="stroke:#24273A;stroke-width:0.5;"/><text fill="#24273A" font-family="Helvetica" font-size="12" lengthAdjust="spacing" textLength="263.9883" x="12" y="868.2402">"Wraps a monadic value of Kind&lt;F, Maybe&lt;A&gt;&gt;."</text></g><!--class MaybeTMonad--><g id="elem_MaybeTMonad"><rect codeLine="25" fill="#24273A" height="150" id="MaybeTMonad" rx="1.5" ry="1.5" style="stroke:#C6A0F6;stroke-width:2.0;" width="849.3965" x="102.8" y="98"/><rect fill="#363A4F" height="30" rx="1.5" ry="1.5" style="stroke:#363A4F;stroke-width:2.0;" width="849.3965" x="102.8" y="98"/><rect fill="#363A4F" height="1.5" style="stroke:#363A4F;stroke-width:2.0;" width="849.3965" x="102.8" y="126.5"/><rect codeLine="25" fill="none" height="150" id="MaybeTMonad" rx="1.5" ry="1.5" style="stroke:#C6A0F6;stroke-width:2.0;" width="849.3965" x="102.8" y="98"/><ellipse cx="464.4738" cy="113" fill="#ADD1B2" rx="10" ry="10" style="stroke:#181818;stroke-width:1.0;"/><path d="M466.3078,117.248 Q465.8977,117.459 465.4465,117.5645 Q464.9953,117.6699 464.4973,117.6699 Q462.7277,117.6699 461.7961,116.5039 Q460.8645,115.3379 460.8645,113.1348 Q460.8645,110.9258 461.7961,109.7598 Q462.7277,108.5938 464.4973,108.5938 Q464.9953,108.5938 465.4523,108.6992 Q465.9094,108.8047 466.3078,109.0156 L466.3078,110.9375 Q465.8625,110.5273 465.4436,110.3369 Q465.0246,110.1465 464.5793,110.1465 Q463.6301,110.1465 463.1467,110.8994 Q462.6633,111.6523 462.6633,113.1348 Q462.6633,114.6113 463.1467,115.3643 Q463.6301,116.1172 464.5793,116.1172 Q465.0246,116.1172 465.4436,115.9268 Q465.8625,115.7363 466.3078,115.3262 Z " fill="#CAD3F5"/><text fill="#A6DA95" font-family="Helvetica" font-size="16" lengthAdjust="spacing" textLength="106.7188" x="483.4738" y="117.3203">MaybeTMonad</text><rect fill="#24273A" height="14" style="stroke:#C6A0F6;stroke-width:1.0;stroke-dasharray:2.0,2.0;" width="9.3301" x="945.8664" y="95"/><text fill="#CAD3F5" font-family="Helvetica" font-size="12" font-style="italic" lengthAdjust="spacing" textLength="7.3301" x="946.8664" y="105.2402">F</text><line style="stroke:#C6A0F6;stroke-width:2.0;" x1="103.8" x2="951.1965" y1="128" y2="128"/><rect fill="none" height="6" style="stroke:#C82930;stroke-width:1.0;" width="6" x="110.8" y="136.5"/><text fill="#A6DA95" font-family="Helvetica" font-size="12" lengthAdjust="spacing" textLength="128.748" x="121.8" y="141.2402">outerMonad: Monad&lt;F&gt;</text><line style="stroke:#C6A0F6;stroke-width:1.0;" x1="103.8" x2="951.1965" y1="148" y2="148"/><ellipse cx="113.8" cy="159.5" fill="#84BE84" rx="3" ry="3" style="stroke:#038048;stroke-width:1.0;"/><text fill="#A6DA95" font-family="Helvetica" font-size="12" lengthAdjust="spacing" textLength="213.4453" x="121.8" y="161.2402">MaybeTMonad(Monad&lt;F&gt; outerMonad)</text><line style="stroke:#C6A0F6;stroke-width:1.0;" x1="103.8" x2="951.1965" y1="168" y2="168"/><ellipse cx="113.8" cy="179.5" fill="#84BE84" rx="3" ry="3" style="stroke:#038048;stroke-width:1.0;"/><text fill="#A6DA95" font-family="Helvetica" font-size="12" lengthAdjust="spacing" textLength="252.1172" x="121.8" y="181.2402">of(A value): Kind&lt;MaybeTKind.Witness&lt;F&gt;, A&gt;</text><ellipse cx="113.8" cy="191.5" fill="#84BE84" rx="3" ry="3" style="stroke:#038048;stroke-width:1.0;"/><text fill="#A6DA95" font-family="Helvetica" font-size="12" lengthAdjust="spacing" textLength="522.2461" x="121.8" y="193.2402">map(Function&lt;A, B&gt; f, Kind&lt;MaybeTKind.Witness&lt;F&gt;, A&gt; fa): Kind&lt;MaybeTKind.Witness&lt;F&gt;, B&gt;</text><ellipse cx="113.8" cy="203.5" fill="#84BE84" rx="3" ry="3" style="stroke:#038048;stroke-width:1.0;"/><text fill="#A6DA95" font-family="Helvetica" font-size="12" lengthAdjust="spacing" textLength="695.0039" x="121.8" y="205.2402">ap(Kind&lt;MaybeTKind.Witness&lt;F&gt;, Function&lt;A, B&gt;&gt; ff, Kind&lt;MaybeTKind.Witness&lt;F&gt;, A&gt; fa): Kind&lt;MaybeTKind.Witness&lt;F&gt;, B&gt;</text><ellipse cx="113.8" cy="215.5" fill="#84BE84" rx="3" ry="3" style="stroke:#038048;stroke-width:1.0;"/><text fill="#A6DA95" font-family="Helvetica" font-size="12" lengthAdjust="spacing" textLength="724.3359" x="121.8" y="217.2402">flatMap(Function&lt;A, Kind&lt;MaybeTKind.Witness&lt;F&gt;, B&gt;&gt; f, Kind&lt;MaybeTKind.Witness&lt;F&gt;, A&gt; ma): Kind&lt;MaybeTKind.Witness&lt;F&gt;, B&gt;</text><ellipse cx="113.8" cy="227.5" fill="#84BE84" rx="3" ry="3" style="stroke:#038048;stroke-width:1.0;"/><text fill="#A6DA95" font-family="Helvetica" font-size="12" lengthAdjust="spacing" textLength="307.4473" x="121.8" y="229.2402">raiseError(Void error): Kind&lt;MaybeTKind.Witness&lt;F&gt;, A&gt;</text><ellipse cx="113.8" cy="239.5" fill="#84BE84" rx="3" ry="3" style="stroke:#038048;stroke-width:1.0;"/><text fill="#A6DA95" font-family="Helvetica" font-size="12" lengthAdjust="spacing" textLength="824.3965" x="121.8" y="241.2402">handleErrorWith(Kind&lt;MaybeTKind.Witness&lt;F&gt;, A&gt; ma, Function&lt;Void, Kind&lt;MaybeTKind.Witness&lt;F&gt;, A&gt;&gt; handler): Kind&lt;MaybeTKind.Witness&lt;F&gt;, A&gt;</text></g><!--class MonadError--><g id="elem_MonadError"><rect fill="#24273A" height="30" id="MonadError" rx="1.5" ry="1.5" style="stroke:#C6A0F6;stroke-width:2.0;" width="114.4766" x="470.26" y="7"/><rect fill="#363A4F" height="30" rx="1.5" ry="1.5" style="stroke:#363A4F;stroke-width:2.0;" width="114.4766" x="470.26" y="7"/><rect fill="#363A4F" height="1.5" style="stroke:#363A4F;stroke-width:2.0;" width="114.4766" x="470.26" y="35.5"/><rect fill="none" height="30" id="MonadError" rx="1.5" ry="1.5" style="stroke:#C6A0F6;stroke-width:2.0;" width="114.4766" x="470.26" y="7"/><ellipse cx="484.26" cy="22" fill="#B4A7E5" rx="10" ry="10" style="stroke:#181818;stroke-width:1.0;"/><path d="M481.2678,19.2754 L481.2678,17.752 L486.4768,17.752 L486.4768,19.2754 L484.7366,19.2754 L484.7366,24.9766 L486.4768,24.9766 L486.4768,26.5 L481.2678,26.5 L481.2678,24.9766 L483.008,24.9766 L483.008,19.2754 Z " fill="#CAD3F5"/><text fill="#A6DA95" font-family="Helvetica" font-size="16" font-style="italic" lengthAdjust="spacing" textLength="84.4766" x="497.26" y="26.3203">MonadError</text></g><g id="elem_GMN13"><path d="M987.61,163.5 L987.61,169 L952.53,173 L987.61,177 L987.61,182.5 A1.5,1.5 0 0 0 989.11,184 L1235.8717,184 A1.5,1.5 0 0 0 1237.3717,182.5 L1237.3717,172 L1227.3717,162 L989.11,162 A1.5,1.5 0 0 0 987.61,163.5 " fill="#EED49F" style="stroke:#24273A;stroke-width:0.5;"/><path d="M1227.3717,162 L1227.3717,171.25 A0.75,0.75 0 0 0 1228.1217,172 L1237.3717,172 L1227.3717,162 " fill="#EED49F" style="stroke:#24273A;stroke-width:0.5;"/><text fill="#24273A" font-family="Helvetica" font-size="12" lengthAdjust="spacing" textLength="228.7617" x="993.61" y="176.2402">Provides MonadError instance for MaybeT.</text></g><!--class MaybeTKindHelper--><g id="elem_MaybeTKindHelper"><rect codeLine="39" fill="#24273A" height="94" id="MaybeTKindHelper" rx="1.5" ry="1.5" style="stroke:#C6A0F6;stroke-width:2.0;" width="379.1406" x="606.92" y="322"/><rect fill="#363A4F" height="30" rx="1.5" ry="1.5" style="stroke:#363A4F;stroke-width:2.0;" width="379.1406" x="606.92" y="322"/><rect fill="#363A4F" height="1.5" style="stroke:#363A4F;stroke-width:2.0;" width="379.1406" x="606.92" y="350.5"/><rect codeLine="39" fill="none" height="94" id="MaybeTKindHelper" rx="1.5" ry="1.5" style="stroke:#C6A0F6;stroke-width:2.0;" width="379.1406" x="606.92" y="322"/><ellipse cx="724.0138" cy="337" fill="#D3D3D3" rx="10" ry="10" style="stroke:#181818;stroke-width:1.0;"/><path d="M720.8165,332.752 L722.545,332.752 L722.545,336.0859 L724.7071,336.0859 L724.7071,332.752 L726.4356,332.752 L726.4356,341.5 L724.7071,341.5 L724.7071,337.6094 L722.545,337.6094 L722.545,341.5 L720.8165,341.5 Z " fill="#CAD3F5"/><text fill="#A6DA95" font-family="Helvetica" font-size="16" lengthAdjust="spacing" textLength="136.9531" x="743.0138" y="341.3203">MaybeTKindHelper</text><line style="stroke:#C6A0F6;stroke-width:2.0;" x1="607.92" x2="985.0606" y1="352" y2="352"/><ellipse cx="617.92" cy="363.5" fill="none" rx="3" ry="3" style="stroke:#038048;stroke-width:1.0;"/><text fill="#A6DA95" font-family="Helvetica" font-size="12" lengthAdjust="spacing" text-decoration="underline" textLength="191.4023" x="625.92" y="365.2402">INVALID_KIND_NULL_MSG: String</text><ellipse cx="617.92" cy="375.5" fill="none" rx="3" ry="3" style="stroke:#038048;stroke-width:1.0;"/><text fill="#A6DA95" font-family="Helvetica" font-size="12" lengthAdjust="spacing" text-decoration="underline" textLength="192.0645" x="625.92" y="377.2402">INVALID_KIND_TYPE_MSG: String</text><line style="stroke:#C6A0F6;stroke-width:1.0;" x1="607.92" x2="985.0606" y1="384" y2="384"/><ellipse cx="617.92" cy="395.5" fill="#84BE84" rx="3" ry="3" style="stroke:#038048;stroke-width:1.0;"/><text fill="#A6DA95" font-family="Helvetica" font-size="12" lengthAdjust="spacing" text-decoration="underline" textLength="346.1543" x="625.92" y="397.2402">unwrap(Kind&lt;MaybeTKind.Witness&lt;F&gt;, A&gt; kind): MaybeT&lt;F, A&gt;</text><ellipse cx="617.92" cy="407.5" fill="#84BE84" rx="3" ry="3" style="stroke:#038048;stroke-width:1.0;"/><text fill="#A6DA95" font-family="Helvetica" font-size="12" lengthAdjust="spacing" text-decoration="underline" textLength="354.1406" x="625.92" y="409.2402">wrap(MaybeT&lt;F, A&gt; maybeT): Kind&lt;MaybeTKind.Witness&lt;F&gt;, A&gt;</text></g><g id="elem_GMN17"><path d="M401.31,359.5 L401.31,378.5 A1.5,1.5 0 0 0 402.81,380 L570.183,380 A1.5,1.5 0 0 0 571.683,378.5 L571.683,376 L606.78,369 L571.683,368 L571.683,368 L561.683,358 L402.81,358 A1.5,1.5 0 0 0 401.31,359.5 " fill="#EED49F" style="stroke:#24273A;stroke-width:0.5;"/><path d="M561.683,358 L561.683,367.25 A0.75,0.75 0 0 0 562.433,368 L571.683,368 L561.683,358 " fill="#EED49F" style="stroke:#24273A;stroke-width:0.5;"/><text fill="#24273A" font-family="Helvetica" font-size="12" lengthAdjust="spacing" textLength="149.373" x="407.31" y="372.2402">Utility for HKT wrap/unwrap.</text></g><!--class MaybeT--><g id="elem_MaybeT"><rect fill="#24273A" height="30" id="MaybeT" rx="1.5" ry="1.5" style="stroke:#C6A0F6;stroke-width:2.0;" width="87.7969" x="486.6" y="490"/><rect fill="#363A4F" height="30" rx="1.5" ry="1.5" style="stroke:#363A4F;stroke-width:2.0;" width="87.7969" x="486.6" y="490"/><rect fill="#363A4F" height="1.5" style="stroke:#363A4F;stroke-width:2.0;" width="87.7969" x="486.6" y="518.5"/><rect fill="none" height="30" id="MaybeT" rx="1.5" ry="1.5" style="stroke:#C6A0F6;stroke-width:2.0;" width="87.7969" x="486.6" y="490"/><ellipse cx="500.6" cy="505" fill="#ADD1B2" rx="10" ry="10" style="stroke:#181818;stroke-width:1.0;"/><path d="M502.434,509.248 Q502.0238,509.459 501.5727,509.5645 Q501.1215,509.6699 500.6234,509.6699 Q498.8539,509.6699 497.9223,508.5039 Q496.9906,507.3379 496.9906,505.1348 Q496.9906,502.9258 497.9223,501.7598 Q498.8539,500.5938 500.6234,500.5938 Q501.1215,500.5938 501.5785,500.6992 Q502.0355,500.8047 502.434,501.0156 L502.434,502.9375 Q501.9887,502.5273 501.5697,502.3369 Q501.1508,502.1465 500.7055,502.1465 Q499.7563,502.1465 499.2729,502.8994 Q498.7895,503.6523 498.7895,505.1348 Q498.7895,506.6113 499.2729,507.3643 Q499.7563,508.1172 500.7055,508.1172 Q501.1508,508.1172 501.5697,507.9268 Q501.9887,507.7363 502.434,507.3262 Z " fill="#CAD3F5"/><text fill="#A6DA95" font-family="Helvetica" font-size="16" lengthAdjust="spacing" textLength="57.7969" x="513.6" y="509.3203">MaybeT</text></g><!--class Maybe--><g id="elem_Maybe"><rect fill="#24273A" height="30" id="Maybe" rx="1.5" ry="1.5" style="stroke:#C6A0F6;stroke-width:2.0;" width="78.0234" x="875.48" y="594"/><rect fill="#363A4F" height="30" rx="1.5" ry="1.5" style="stroke:#363A4F;stroke-width:2.0;" width="78.0234" x="875.48" y="594"/><rect fill="#363A4F" height="1.5" style="stroke:#363A4F;stroke-width:2.0;" width="78.0234" x="875.48" y="622.5"/><rect fill="none" height="30" id="Maybe" rx="1.5" ry="1.5" style="stroke:#C6A0F6;stroke-width:2.0;" width="78.0234" x="875.48" y="594"/><ellipse cx="889.48" cy="609" fill="#ADD1B2" rx="10" ry="10" style="stroke:#181818;stroke-width:1.0;"/><path d="M891.314,613.248 Q890.9038,613.459 890.4527,613.5645 Q890.0015,613.6699 889.5034,613.6699 Q887.7339,613.6699 886.8023,612.5039 Q885.8706,611.3379 885.8706,609.1348 Q885.8706,606.9258 886.8023,605.7598 Q887.7339,604.5938 889.5034,604.5938 Q890.0015,604.5938 890.4585,604.6992 Q890.9155,604.8047 891.314,605.0156 L891.314,606.9375 Q890.8687,606.5273 890.4497,606.3369 Q890.0308,606.1465 889.5855,606.1465 Q888.6363,606.1465 888.1529,606.8994 Q887.6695,607.6523 887.6695,609.1348 Q887.6695,610.6113 888.1529,611.3643 Q888.6363,612.1172 889.5855,612.1172 Q890.0308,612.1172 890.4497,611.9268 Q890.8687,611.7363 891.314,611.3262 Z " fill="#CAD3F5"/><text fill="#A6DA95" font-family="Helvetica" font-size="16" lengthAdjust="spacing" textLength="48.0234" x="902.48" y="613.3203">Maybe</text></g><!--class Monad--><g id="elem_Monad"><rect fill="#24273A" height="30" id="Monad" rx="1.5" ry="1.5" style="stroke:#C6A0F6;stroke-width:2.0;" width="78.9219" x="213.03" y="594"/><rect fill="#363A4F" height="30" rx="1.5" ry="1.5" style="stroke:#363A4F;stroke-width:2.0;" width="78.9219" x="213.03" y="594"/><rect fill="#363A4F" height="1.5" style="stroke:#363A4F;stroke-width:2.0;" width="78.9219" x="213.03" y="622.5"/><rect fill="none" height="30" id="Monad" rx="1.5" ry="1.5" style="stroke:#C6A0F6;stroke-width:2.0;" width="78.9219" x="213.03" y="594"/><ellipse cx="227.03" cy="609" fill="#ADD1B2" rx="10" ry="10" style="stroke:#181818;stroke-width:1.0;"/><path d="M228.864,613.248 Q228.4538,613.459 228.0027,613.5645 Q227.5515,613.6699 227.0534,613.6699 Q225.2839,613.6699 224.3523,612.5039 Q223.4206,611.3379 223.4206,609.1348 Q223.4206,606.9258 224.3523,605.7598 Q225.2839,604.5938 227.0534,604.5938 Q227.5515,604.5938 228.0085,604.6992 Q228.4655,604.8047 228.864,605.0156 L228.864,606.9375 Q228.4187,606.5273 227.9997,606.3369 Q227.5808,606.1465 227.1355,606.1465 Q226.1863,606.1465 225.7029,606.8994 Q225.2195,607.6523 225.2195,609.1348 Q225.2195,610.6113 225.7029,611.3643 Q226.1863,612.1172 227.1355,612.1172 Q227.5808,612.1172 227.9997,611.9268 Q228.4187,611.7363 228.864,611.3262 Z " fill="#CAD3F5"/><text fill="#A6DA95" font-family="Helvetica" font-size="16" lengthAdjust="spacing" textLength="48.9219" x="240.03" y="613.3203">Monad</text></g><!--reverse link Kind to MaybeTKind--><g id="link_Kind_MaybeTKind"><path d="M530.49,642.18 C530.49,657.9 530.49,665.54 530.49,684.51 " fill="none" id="Kind-backto-MaybeTKind" style="stroke:#F5BDE6;stroke-width:1.0;"/><polygon fill="none" points="530.49,624.18,524.49,642.18,536.49,642.18,530.49,624.18" style="stroke:#F5BDE6;stroke-width:1.0;"/></g><!--reverse link MaybeTKind to MaybeT<F, A>--><g id="link_MaybeTKind_MaybeT&lt;F, A&gt;"><path d="M530.49,753.24 C530.49,769.59 530.49,774.03 530.49,795.61 " fill="none" id="MaybeTKind-backto-MaybeT&lt;F, A&gt;" style="stroke:#F5BDE6;stroke-width:1.0;stroke-dasharray:7.0,7.0;"/><polygon fill="none" points="530.49,735.24,524.49,753.24,536.49,753.24,530.49,735.24" style="stroke:#F5BDE6;stroke-width:1.0;"/></g><!--reverse link MonadError to MaybeTMonad--><g id="link_MonadError_MaybeTMonad"><path d="M527.49,55.29 C527.49,69.56 527.49,74.65 527.49,97.71 " fill="none" id="MonadError-backto-MaybeTMonad" style="stroke:#F5BDE6;stroke-width:1.0;stroke-dasharray:7.0,7.0;"/><polygon fill="none" points="527.49,37.29,521.49,55.29,533.49,55.29,527.49,37.29" style="stroke:#F5BDE6;stroke-width:1.0;"/></g><!--link MaybeT to Kind--><g id="link_MaybeT_Kind"><path codeLine="75" d="M530.49,520.18 C530.49,539.56 530.49,568.12 530.49,587.61 " fill="none" id="MaybeT-to-Kind" style="stroke:#F5BDE6;stroke-width:1.0;"/><polygon fill="#F5BDE6" points="530.49,593.61,534.49,584.61,530.49,588.61,526.49,584.61,530.49,593.61" style="stroke:#F5BDE6;stroke-width:1.0;"/><text fill="#CAD3F5" font-family="Helvetica" font-size="12" lengthAdjust="spacing" textLength="28.6875" x="497.6243" y="583.23">value</text></g><!--link MaybeT to Maybe--><g id="link_MaybeT_Maybe"><path codeLine="76" d="M574.54,517.7 C650,537.74 796.9911,576.7897 869.2011,595.9697 " fill="none" id="MaybeT-to-Maybe" style="stroke:#F5BDE6;stroke-width:1.0;stroke-dasharray:7.0,7.0;"/><polygon fill="#F5BDE6" points="875,597.51,867.3285,591.3336,870.1676,596.2264,865.2748,599.0655,875,597.51" style="stroke:#F5BDE6;stroke-width:1.0;"/><text fill="#CAD3F5" font-family="Helvetica" font-size="12" lengthAdjust="spacing" textLength="70.043" x="746.49" y="560.2402">uses in value</text></g><!--link MaybeT to Monad--><g id="link_MaybeT_Monad"><path codeLine="77" d="M487.1,520.46 C462.25,528.86 430.53,539.77 402.49,550 C363.42,564.27 324.5895,579.3633 294.2995,591.3433 " fill="none" id="MaybeT-to-Monad" style="stroke:#F5BDE6;stroke-width:1.0;stroke-dasharray:7.0,7.0;"/><polygon fill="#F5BDE6" points="288.72,593.55,298.5603,593.9595,293.3695,591.7111,295.618,586.5203,288.72,593.55" style="stroke:#F5BDE6;stroke-width:1.0;"/><text fill="#CAD3F5" font-family="Helvetica" font-size="12" lengthAdjust="spacing" textLength="118.7227" x="403.49" y="560.2402">uses in static methods</text></g><!--link MaybeTMonad to Monad--><g id="link_MaybeTMonad_Monad"><path codeLine="79" d="M299.2007,255.7176 C273.6607,274.9876 262.14,291.87 250.49,322 C212.71,419.72 237.1775,544.8138 247.4375,587.8138 " fill="none" id="MaybeTMonad-Monad" style="stroke:#F5BDE6;stroke-width:1.0;"/><polygon fill="none" points="308.78,248.49,301.5812,248.9107,299.2007,255.7176,306.3996,255.2969,308.78,248.49" style="stroke:#F5BDE6;stroke-width:1.0;"/><polygon fill="#F5BDE6" points="248.83,593.65,250.632,583.9674,247.6696,588.7865,242.8504,585.8241,248.83,593.65" style="stroke:#F5BDE6;stroke-width:1.0;"/><text fill="#CAD3F5" font-family="Helvetica" font-size="12" lengthAdjust="spacing" textLength="64.043" x="172.1334" y="583.2843">outerMonad</text></g><!--link MaybeTMonad to MaybeTKindHelper--><g id="link_MaybeTMonad_MaybeTKindHelper"><path codeLine="80" d="M630.73,248.45 C664.8,273.03 696.8538,296.14 727.1738,318.01 " fill="none" id="MaybeTMonad-to-MaybeTKindHelper" style="stroke:#F5BDE6;stroke-width:1.0;stroke-dasharray:7.0,7.0;"/><polygon fill="#F5BDE6" points="732.04,321.52,727.0807,313.0109,727.9848,318.595,722.4007,319.4991,732.04,321.52" style="stroke:#F5BDE6;stroke-width:1.0;"/><text fill="#CAD3F5" font-family="Helvetica" font-size="12" lengthAdjust="spacing" textLength="25.3477" x="687.09" y="288.2402">uses</text></g><!--link MaybeTMonad to MaybeT--><g id="link_MaybeTMonad_MaybeT"><path codeLine="81" d="M346.17,248.43 C317.88,268.12 292.44,292.39 275.49,322 C254.74,358.26 251.25,381.98 275.49,416 C323.54,483.41 420.8111,499.3145 480.1311,502.9345 " fill="none" id="MaybeTMonad-to-MaybeT" style="stroke:#F5BDE6;stroke-width:1.0;stroke-dasharray:7.0,7.0;"/><polygon fill="#F5BDE6" points="486.12,503.3,477.3804,498.7592,481.1293,502.9954,476.8931,506.7444,486.12,503.3" style="stroke:#F5BDE6;stroke-width:1.0;"/><text fill="#CAD3F5" font-family="Helvetica" font-size="12" lengthAdjust="spacing" textLength="106.7227" x="276.49" y="372.2402">uses via KindHelper</text></g><!--link MaybeTMonad to Maybe--><g id="link_MaybeTMonad_Maybe"><path codeLine="83" d="M864.9,248.44 C929.3,269.45 983.07,294.26 1003.49,322 C1069.01,410.98 968.3052,544.7109 930.8752,589.1509 " fill="none" id="MaybeTMonad-to-Maybe" style="stroke:#F5BDE6;stroke-width:1.0;stroke-dasharray:7.0,7.0;"/><polygon fill="#F5BDE6" points="927.01,593.74,935.8673,589.4331,930.231,589.9157,929.7484,584.2795,927.01,593.74" style="stroke:#F5BDE6;stroke-width:1.0;"/><text fill="#CAD3F5" font-family="Helvetica" font-size="12" lengthAdjust="spacing" textLength="64.7051" x="1014.93" y="456.2402">manipulates</text></g><!--link MaybeTKindHelper to MaybeT--><g id="link_MaybeTKindHelper_MaybeT"><path codeLine="85" d="M704.21,416.49 C653.34,442.12 599.0382,469.47 564.5282,486.86 " fill="none" id="MaybeTKindHelper-to-MaybeT" style="stroke:#F5BDE6;stroke-width:1.0;stroke-dasharray:7.0,7.0;"/><polygon fill="#F5BDE6" points="559.17,489.56,569.0073,489.082,563.6351,487.31,565.4072,481.9378,559.17,489.56" style="stroke:#F5BDE6;stroke-width:1.0;"/><text fill="#CAD3F5" font-family="Helvetica" font-size="12" lengthAdjust="spacing" textLength="80.7012" x="640.67" y="456.2402">wraps/unwraps</text></g><!--SRC=[hLTBRziu4BxxLypg4WThotV34E2WSPDDx2rQfy6U0bgcBJOIIP2Kkq6H_zuXALgov4SMs9nayflvvZtC7uodURcca1aZzNWqKkHdl6KcArUbfYeLt51kubGK8vuARSYGfQEK62dBD6LyM90qpHWnOYXpmarPv4EJqOAE2iBuo7t64azxlOmX2osaUOE25YkgT0__01Wog0r9ASp9suek7nXVJsO3c2P0_qNojGPtLD_6pynmglLabZZOBzG2y2VyGlCCIzyXpOdM451_ForllxxC4fXCeFyyoDasCwkyfDUG92Zvthi2uC9GKFO6n0QwL326Bndw9memRvB2HYYuUrY2PaMP8wdWiVN54qTUtZiH0IjaZc7WHdSz3ARl21eqXd3ZS9EfimzWE6mxk56YiDX-H-1w34tsjk2FKfl-N722KWc84aFlVY4Mo0LPZ576-FQO-0L9QwwxFquTZ8V2VbpGbREDcHtNquZhvgWp-q2wSFUlZmVylLVLGquthXnQ-Hn3zAo8r42WiCGizVeijAClZkgwy6hsfZVhmfxTAYNKgJB_GNOanWxRnjy5MuV26JRy7qFGVEXhW_LewWxHOjEVUdT2T4xsNILH4DcVbJorJJ2P3k06ep-urB8kF-SmDq4zQZ-7EsH6nVydzmPRUzvoxxpWHtmlFiol2DFKbKNVPXse_VneNd1ShNClZVTP_w9LZM1Qjaj-91N3XmpQzrHhnheIjCDLYHtkXsOdu6B0dkUf7xOU7hURoRBTqLnIvQRxdP_kMqNVx7JlReRxnVVfu_sdbuVxnQUNnTFZuylys-SnV3CA9zjPyFAVBxSTS7Sob_odkb2o6EnNFBimvvoQ9i1Fn-L_YdQOO9rWZU79i9pXBWwRpFADlFMnNSnNagIlP4iXobvDX96yQgxgUjGUdaUkX72CpPAeTJELCcVuSc0xQYTGsEsd1VomcjVGfeRvSNWrGmTmMui5FIZmtlJBnRFZsNuPkVFkygodOq1sS65HdiFObRWeyvoiSdfIPnm7EQR_ikI8M0cHKyBhYqNDrhhRKYSn3RzRa_h6bfIKhe4zxytUpcEJBs1EYBbtLFK0iiRQ6BQVFdWMDM2LwQUHDb_mbVeNbiwOr3rVojXv2KGkQf4hnd0UnubNW2ME3rYDcVN1FG1KKoS0V5BmMMeoiSPdQNCs2STKxyl8InzWzgI7BMRLdy05yXqZKCkSKTfuYEwjPbjEJAdeSJ545eGpQT-dTEzKmy03QspVwwh_zJdiHMCmOv-LA2Kc5fHD7Lq3_liW1RVPxLqPWNMPeKxNO5vf_ULokV_bGtrmMKKAI-Ct]--></g></svg>