<svg xmlns="http://www.w3.org/2000/svg" xmlns:xlink="http://www.w3.org/1999/xlink" contentStyleType="text/css" height="1107px" preserveAspectRatio="none" style="width:2469px;height:1107px;background:#24273A;" version="1.1" viewBox="0 0 2469 1107" width="2469px" zoomAndPan="magnify"><defs/><g><rect fill="#24273A" height="1107" style="stroke:none;stroke-width:1.0;" width="2469" x="0" y="0"/><!--cluster trans--><g id="cluster_trans"><path d="M161.63,6 L196.6691,6 A2.25,2.25 0 0 1 198.1691,7.5 L205.1691,26.1328 L1765.63,26.1328 A1.5,1.5 0 0 1 1767.13,27.6328 L1767.13,711.02 A1.5,1.5 0 0 1 1765.63,712.52 L161.63,712.52 A1.5,1.5 0 0 1 160.13,711.02 L160.13,7.5 A1.5,1.5 0 0 1 161.63,6 " fill="#24273A" style="stroke:#CAD3F5;stroke-width:1.5;"/><line style="stroke:#CAD3F5;stroke-width:1.5;" x1="160.13" x2="205.1691" y1="26.1328" y2="26.1328"/><text fill="#CAD3F5" font-family="sans-serif" font-size="12" font-weight="bold" lengthAdjust="spacing" textLength="32.0391" x="164.13" y="19.6016">trans</text></g><!--cluster maybe_t--><g id="cluster_maybe_t"><path d="M185.63,47 L240.1632,47 A2.25,2.25 0 0 1 241.6632,48.5 L248.6632,67.1328 L1741.63,67.1328 A1.5,1.5 0 0 1 1743.13,68.6328 L1743.13,687.02 A1.5,1.5 0 0 1 1741.63,688.52 L185.63,688.52 A1.5,1.5 0 0 1 184.13,687.02 L184.13,48.5 A1.5,1.5 0 0 1 185.63,47 " fill="#24273A" style="stroke:#CAD3F5;stroke-width:1.5;"/><line style="stroke:#CAD3F5;stroke-width:1.5;" x1="184.13" x2="248.6632" y1="67.1328" y2="67.1328"/><text fill="#CAD3F5" font-family="sans-serif" font-size="12" font-weight="bold" lengthAdjust="spacing" textLength="51.5332" x="188.13" y="60.6016">maybe_t</text></g><!--cluster hkt--><g id="cluster_hkt"><path d="M595.63,88 L618.9679,88 A2.25,2.25 0 0 1 620.4679,89.5 L627.4679,108.1328 L845.63,108.1328 A1.5,1.5 0 0 1 847.13,109.6328 L847.13,165.5 A1.5,1.5 0 0 1 845.63,167 L595.63,167 A1.5,1.5 0 0 1 594.13,165.5 L594.13,89.5 A1.5,1.5 0 0 1 595.63,88 " fill="#24273A" style="stroke:#CAD3F5;stroke-width:1.5;"/><line style="stroke:#CAD3F5;stroke-width:1.5;" x1="594.13" x2="627.4679" y1="108.1328" y2="108.1328"/><text fill="#CAD3F5" font-family="sans-serif" font-size="12" font-weight="bold" lengthAdjust="spacing" textLength="20.3379" x="598.13" y="101.6016">hkt</text></g><!--cluster hkt--><g id="cluster_hkt"><path d="M1191.63,887.52 L1214.9679,887.52 A2.25,2.25 0 0 1 1216.4679,889.02 L1223.4679,907.6528 L2051.63,907.6528 A1.5,1.5 0 0 1 2053.13,909.1528 L2053.13,1099.02 A1.5,1.5 0 0 1 2051.63,1100.52 L1191.63,1100.52 A1.5,1.5 0 0 1 1190.13,1099.02 L1190.13,889.02 A1.5,1.5 0 0 1 1191.63,887.52 " fill="#24273A" style="stroke:#CAD3F5;stroke-width:1.5;"/><line style="stroke:#CAD3F5;stroke-width:1.5;" x1="1190.13" x2="1223.4679" y1="907.6528" y2="907.6528"/><text fill="#CAD3F5" font-family="sans-serif" font-size="12" font-weight="bold" lengthAdjust="spacing" textLength="20.3379" x="1194.13" y="901.1216">hkt</text></g><!--cluster maybe--><g id="cluster_maybe"><path d="M1825.63,928.52 L1869.2999,928.52 A2.25,2.25 0 0 1 1870.7999,930.02 L1877.7999,948.6528 L1934.63,948.6528 A1.5,1.5 0 0 1 1936.13,950.1528 L1936.13,1006.02 A1.5,1.5 0 0 1 1934.63,1007.52 L1825.63,1007.52 A1.5,1.5 0 0 1 1824.13,1006.02 L1824.13,930.02 A1.5,1.5 0 0 1 1825.63,928.52 " fill="#24273A" style="stroke:#CAD3F5;stroke-width:1.5;"/><line style="stroke:#CAD3F5;stroke-width:1.5;" x1="1824.13" x2="1877.7999" y1="948.6528" y2="948.6528"/><text fill="#CAD3F5" font-family="sans-serif" font-size="12" font-weight="bold" lengthAdjust="spacing" textLength="40.6699" x="1828.13" y="942.1216">maybe</text></g><!--cluster maybe--><g id="cluster_maybe"><path d="M1792.63,23.47 L1836.2999,23.47 A2.25,2.25 0 0 1 1837.7999,24.97 L1844.7999,43.6028 L2460.63,43.6028 A1.5,1.5 0 0 1 2462.13,45.1028 L2462.13,389.56 A1.5,1.5 0 0 1 2460.63,391.06 L1792.63,391.06 A1.5,1.5 0 0 1 1791.13,389.56 L1791.13,24.97 A1.5,1.5 0 0 1 1792.63,23.47 " fill="#24273A" style="stroke:#CAD3F5;stroke-width:1.5;"/><line style="stroke:#CAD3F5;stroke-width:1.5;" x1="1791.13" x2="1844.7999" y1="43.6028" y2="43.6028"/><text fill="#CAD3F5" font-family="sans-serif" font-size="12" font-weight="bold" lengthAdjust="spacing" textLength="40.6699" x="1795.13" y="37.0716">maybe</text></g><!--cluster MaybeTKind--><g id="cluster_MaybeTKind"><path d="M1599.63,760.52 L1679.089,760.52 A2.25,2.25 0 0 1 1680.589,762.02 L1687.589,780.6528 L1718.63,780.6528 A1.5,1.5 0 0 1 1720.13,782.1528 L1720.13,838.02 A1.5,1.5 0 0 1 1718.63,839.52 L1599.63,839.52 A1.5,1.5 0 0 1 1598.13,838.02 L1598.13,762.02 A1.5,1.5 0 0 1 1599.63,760.52 " fill="#24273A" style="stroke:#CAD3F5;stroke-width:1.5;"/><line style="stroke:#CAD3F5;stroke-width:1.5;" x1="1598.13" x2="1687.589" y1="780.6528" y2="780.6528"/><text fill="#CAD3F5" font-family="sans-serif" font-size="12" font-weight="bold" lengthAdjust="spacing" textLength="76.459" x="1602.13" y="774.1216">MaybeTKind</text></g><!--class MaybeTKind--><g id="elem_MaybeTKind"><rect codeLine="9" fill="#24273A" height="52.1328" id="MaybeTKind" rx="1.5" ry="1.5" style="stroke:#C6A0F6;stroke-width:2.0;" width="258.9785" x="199.64" y="333.99"/><rect fill="#363A4F" height="30" rx="1.5" ry="1.5" style="stroke:#363A4F;stroke-width:2.0;" width="258.9785" x="199.64" y="333.99"/><rect fill="#363A4F" height="1.5" style="stroke:#363A4F;stroke-width:2.0;" width="258.9785" x="199.64" y="362.49"/><rect codeLine="9" fill="none" height="52.1328" id="MaybeTKind" rx="1.5" ry="1.5" style="stroke:#C6A0F6;stroke-width:2.0;" width="258.9785" x="199.64" y="333.99"/><ellipse cx="264.5541" cy="348.99" fill="#B4A7E5" rx="10" ry="10" style="stroke:#181818;stroke-width:1.0;"/><path d="M261.5619,346.2654 L261.5619,344.742 L266.7709,344.742 L266.7709,346.2654 L265.0306,346.2654 L265.0306,351.9666 L266.7709,351.9666 L266.7709,353.49 L261.5619,353.49 L261.5619,351.9666 L263.3021,351.9666 L263.3021,346.2654 Z " fill="#CAD3F5"/><text fill="#A6DA95" font-family="sans-serif" font-size="16" font-style="italic" lengthAdjust="spacing" textLength="95.1484" x="283.5541" y="355.0369">MaybeTKind</text><rect fill="#24273A" height="14" style="stroke:#C6A0F6;stroke-width:1.0;stroke-dasharray:2.0,2.0;" width="24.002" x="437.6166" y="330.99"/><text fill="#CAD3F5" font-family="Roboto, Helvetica" font-size="12" font-style="italic" lengthAdjust="spacing" textLength="22.002" x="438.6166" y="341.2302">F, A</text><line style="stroke:#C6A0F6;stroke-width:2.0;" x1="200.64" x2="457.6185" y1="363.99" y2="363.99"/><text fill="#A6DA95" font-family="sans-serif" font-size="12" lengthAdjust="spacing" text-decoration="underline" textLength="246.9785" x="205.64" y="379.5916">+class Witness&lt;OUTER_F&gt; &#171;(W,lightblue)&#187;</text></g><!--class MaybeT<F, A>--><g id="elem_MaybeT&lt;F, A&gt;"><rect codeLine="14" fill="#24273A" height="152.9297" id="MaybeT&lt;F, A&gt;" rx="1.5" ry="1.5" style="stroke:#C6A0F6;stroke-width:2.0;" width="442.1836" x="547.04" y="519.59"/><rect fill="#363A4F" height="30" rx="1.5" ry="1.5" style="stroke:#363A4F;stroke-width:2.0;" width="442.1836" x="547.04" y="519.59"/><rect fill="#363A4F" height="1.5" style="stroke:#363A4F;stroke-width:2.0;" width="442.1836" x="547.04" y="548.09"/><rect codeLine="14" fill="none" height="152.9297" id="MaybeT&lt;F, A&gt;" rx="1.5" ry="1.5" style="stroke:#C6A0F6;stroke-width:2.0;" width="442.1836" x="547.04" y="519.59"/><ellipse cx="706.5029" cy="534.59" fill="#ADD1B2" rx="10" ry="10" style="stroke:#181818;stroke-width:1.0;"/><path d="M708.3369,538.838 Q707.9267,539.049 707.4755,539.1545 Q707.0244,539.2599 706.5263,539.2599 Q704.7568,539.2599 703.8252,538.0939 Q702.8935,536.9279 702.8935,534.7248 Q702.8935,532.5158 703.8252,531.3498 Q704.7568,530.1838 706.5263,530.1838 Q707.0244,530.1838 707.4814,530.2892 Q707.9384,530.3947 708.3369,530.6056 L708.3369,532.5275 Q707.8916,532.1173 707.4726,531.9269 Q707.0537,531.7365 706.6084,531.7365 Q705.6591,531.7365 705.1757,532.4894 Q704.6923,533.2423 704.6923,534.7248 Q704.6923,536.2013 705.1757,536.9543 Q705.6591,537.7072 706.6084,537.7072 Q707.0537,537.7072 707.4726,537.5168 Q707.8916,537.3263 708.3369,536.9162 Z " fill="#CAD3F5"/><text fill="#A6DA95" font-family="sans-serif" font-size="16" lengthAdjust="spacing" textLength="115.2578" x="725.5029" y="540.6369">MaybeT&lt;F, A&gt;</text><line style="stroke:#C6A0F6;stroke-width:2.0;" x1="548.04" x2="988.2236" y1="549.59" y2="549.59"/><text fill="#A6DA95" font-family="sans-serif" font-size="12" lengthAdjust="spacing" textLength="171.8086" x="553.04" y="565.1916">+value: Kind&lt;F, Maybe&lt;A&gt;&gt;</text><line style="stroke:#C6A0F6;stroke-width:1.0;" x1="548.04" x2="988.2236" y1="571.7228" y2="571.7228"/><text fill="#A6DA95" font-family="sans-serif" font-size="12" lengthAdjust="spacing" text-decoration="underline" textLength="289.8164" x="553.04" y="587.3244">+fromKind(Kind&lt;F, Maybe&lt;A&gt;&gt;): MaybeT&lt;F, A&gt;</text><text fill="#A6DA95" font-family="sans-serif" font-size="12" lengthAdjust="spacing" text-decoration="underline" textLength="298.2598" x="553.04" y="601.4572">+just(Monad&lt;F&gt; outerMonad, A a): MaybeT&lt;F, A&gt;</text><text fill="#A6DA95" font-family="sans-serif" font-size="12" lengthAdjust="spacing" text-decoration="underline" textLength="295.4121" x="553.04" y="615.59">+nothing(Monad&lt;F&gt; outerMonad): MaybeT&lt;F, A&gt;</text><text fill="#A6DA95" font-family="sans-serif" font-size="12" lengthAdjust="spacing" text-decoration="underline" textLength="430.1836" x="553.04" y="629.7228">+fromMaybe(Monad&lt;F&gt; outerMonad, Maybe&lt;A&gt; maybe): MaybeT&lt;F, A&gt;</text><text fill="#A6DA95" font-family="sans-serif" font-size="12" lengthAdjust="spacing" text-decoration="underline" textLength="362.6484" x="553.04" y="643.8556">+liftF(Monad&lt;F&gt; outerMonad, Kind&lt;F, A&gt; fa): MaybeT&lt;F, A&gt;</text><line style="stroke:#C6A0F6;stroke-width:1.0;" x1="548.04" x2="988.2236" y1="650.3869" y2="650.3869"/><text fill="#A6DA95" font-family="sans-serif" font-size="12" lengthAdjust="spacing" textLength="179.6133" x="553.04" y="665.9884">+value(): Kind&lt;F, Maybe&lt;A&gt;&gt;</text></g><g id="elem_GMN10"><path d="M200.57,585.49 L200.57,606.6228 A1.5,1.5 0 0 0 202.07,608.1228 L510.1911,608.1228 A1.5,1.5 0 0 0 511.6911,606.6228 L511.6911,601.99 L546.63,596.06 L511.6911,593.99 L511.6911,593.99 L501.6911,583.99 L202.07,583.99 A1.5,1.5 0 0 0 200.57,585.49 " fill="#EED49F" style="stroke:#24273A;stroke-width:0.5;"/><path d="M501.6911,583.99 L501.6911,593.24 A0.75,0.75 0 0 0 502.4411,593.99 L511.6911,593.99 L501.6911,583.99 " fill="#EED49F" style="stroke:#24273A;stroke-width:0.5;"/><text fill="#24273A" font-family="sans-serif" font-size="12" lengthAdjust="spacing" textLength="290.1211" x="206.57" y="600.5916">"Wraps a monadic value of Kind&lt;F, Maybe&lt;A&gt;&gt;."</text></g><!--class MaybeTMonad--><g id="elem_MaybeTMonad"><rect codeLine="27" fill="#24273A" height="167.0625" id="MaybeTMonad" rx="1.5" ry="1.5" style="stroke:#C6A0F6;stroke-width:2.0;" width="930.2988" x="493.98" y="276.53"/><rect fill="#363A4F" height="30" rx="1.5" ry="1.5" style="stroke:#363A4F;stroke-width:2.0;" width="930.2988" x="493.98" y="276.53"/><rect fill="#363A4F" height="1.5" style="stroke:#363A4F;stroke-width:2.0;" width="930.2988" x="493.98" y="305.03"/><rect codeLine="27" fill="none" height="167.0625" id="MaybeTMonad" rx="1.5" ry="1.5" style="stroke:#C6A0F6;stroke-width:2.0;" width="930.2988" x="493.98" y="276.53"/><ellipse cx="893.2027" cy="291.53" fill="#ADD1B2" rx="10" ry="10" style="stroke:#181818;stroke-width:1.0;"/><path d="M895.0366,295.778 Q894.6265,295.989 894.1753,296.0945 Q893.7241,296.1999 893.2261,296.1999 Q891.4566,296.1999 890.5249,295.0339 Q889.5933,293.8679 889.5933,291.6648 Q889.5933,289.4558 890.5249,288.2898 Q891.4566,287.1238 893.2261,287.1238 Q893.7241,287.1238 894.1812,287.2292 Q894.6382,287.3347 895.0366,287.5456 L895.0366,289.4675 Q894.5913,289.0573 894.1724,288.8669 Q893.7534,288.6765 893.3081,288.6765 Q892.3589,288.6765 891.8755,289.4294 Q891.3921,290.1823 891.3921,291.6648 Q891.3921,293.1413 891.8755,293.8943 Q892.3589,294.6472 893.3081,294.6472 Q893.7534,294.6472 894.1724,294.4568 Q894.5913,294.2663 895.0366,293.8562 Z " fill="#CAD3F5"/><text fill="#A6DA95" font-family="sans-serif" font-size="16" lengthAdjust="spacing" textLength="112.5234" x="912.2027" y="297.5769">MaybeTMonad</text><rect fill="#24273A" height="14" style="stroke:#C6A0F6;stroke-width:1.0;stroke-dasharray:2.0,2.0;" width="9.3301" x="1417.9488" y="273.53"/><text fill="#CAD3F5" font-family="Roboto, Helvetica" font-size="12" font-style="italic" lengthAdjust="spacing" textLength="7.3301" x="1418.9488" y="283.7702">F</text><line style="stroke:#C6A0F6;stroke-width:2.0;" x1="494.98" x2="1423.2788" y1="306.53" y2="306.53"/><text fill="#A6DA95" font-family="sans-serif" font-size="12" lengthAdjust="spacing" textLength="149.6191" x="499.98" y="322.1316">-outerMonad: Monad&lt;F&gt;</text><line style="stroke:#C6A0F6;stroke-width:1.0;" x1="494.98" x2="1423.2788" y1="328.6628" y2="328.6628"/><text fill="#A6DA95" font-family="sans-serif" font-size="12" lengthAdjust="spacing" textLength="240.6152" x="499.98" y="344.2644">+MaybeTMonad(Monad&lt;F&gt; outerMonad)</text><line style="stroke:#C6A0F6;stroke-width:1.0;" x1="494.98" x2="1423.2788" y1="350.7956" y2="350.7956"/><text fill="#A6DA95" font-family="sans-serif" font-size="12" lengthAdjust="spacing" textLength="285.75" x="499.98" y="366.3972">+of(A value): Kind&lt;MaybeTKind.Witness&lt;F&gt;, A&gt;</text><text fill="#A6DA95" font-family="sans-serif" font-size="12" lengthAdjust="spacing" textLength="584.7129" x="499.98" y="380.53">+map(Function&lt;A, B&gt; f, Kind&lt;MaybeTKind.Witness&lt;F&gt;, A&gt; fa): Kind&lt;MaybeTKind.Witness&lt;F&gt;, B&gt;</text><text fill="#A6DA95" font-family="sans-serif" font-size="12" lengthAdjust="spacing" textLength="776.1563" x="499.98" y="394.6628">+ap(Kind&lt;MaybeTKind.Witness&lt;F&gt;, Function&lt;A, B&gt;&gt; ff, Kind&lt;MaybeTKind.Witness&lt;F&gt;, A&gt; fa): Kind&lt;MaybeTKind.Witness&lt;F&gt;, B&gt;</text><text fill="#A6DA95" font-family="sans-serif" font-size="12" lengthAdjust="spacing" textLength="807.8672" x="499.98" y="408.7956">+flatMap(Function&lt;A, Kind&lt;MaybeTKind.Witness&lt;F&gt;, B&gt;&gt; f, Kind&lt;MaybeTKind.Witness&lt;F&gt;, A&gt; ma): Kind&lt;MaybeTKind.Witness&lt;F&gt;, B&gt;</text><text fill="#A6DA95" font-family="sans-serif" font-size="12" lengthAdjust="spacing" textLength="346.6875" x="499.98" y="422.9284">+raiseError(Void error): Kind&lt;MaybeTKind.Witness&lt;F&gt;, A&gt;</text><text fill="#A6DA95" font-family="sans-serif" font-size="12" lengthAdjust="spacing" textLength="918.2988" x="499.98" y="437.0613">+handleErrorWith(Kind&lt;MaybeTKind.Witness&lt;F&gt;, A&gt; ma, Function&lt;Void, Kind&lt;MaybeTKind.Witness&lt;F&gt;, A&gt;&gt; handler): Kind&lt;MaybeTKind.Witness&lt;F&gt;, A&gt;</text></g><g id="elem_GMN16"><path d="M1459.61,349.49 L1459.61,356.06 L1424.73,360.06 L1459.61,364.06 L1459.61,370.6228 A1.5,1.5 0 0 0 1461.11,372.1228 L1725.1627,372.1228 A1.5,1.5 0 0 0 1726.6627,370.6228 L1726.6627,357.99 L1716.6627,347.99 L1461.11,347.99 A1.5,1.5 0 0 0 1459.61,349.49 " fill="#EED49F" style="stroke:#24273A;stroke-width:0.5;"/><path d="M1716.6627,347.99 L1716.6627,357.24 A0.75,0.75 0 0 0 1717.4127,357.99 L1726.6627,357.99 L1716.6627,347.99 " fill="#EED49F" style="stroke:#24273A;stroke-width:0.5;"/><text fill="#24273A" font-family="sans-serif" font-size="12" lengthAdjust="spacing" textLength="246.0527" x="1465.61" y="364.5916">Provides MonadError instance for MaybeT.</text></g><!--class MaybeTKindHelper--><g id="elem_MaybeTKindHelper"><rect codeLine="41" fill="#24273A" height="102.5313" id="MaybeTKindHelper" rx="1.5" ry="1.5" style="stroke:#C6A0F6;stroke-width:2.0;" width="407.9531" x="1248.16" y="544.79"/><rect fill="#363A4F" height="30" rx="1.5" ry="1.5" style="stroke:#363A4F;stroke-width:2.0;" width="407.9531" x="1248.16" y="544.79"/><rect fill="#363A4F" height="1.5" style="stroke:#363A4F;stroke-width:2.0;" width="407.9531" x="1248.16" y="573.29"/><rect codeLine="41" fill="none" height="102.5313" id="MaybeTKindHelper" rx="1.5" ry="1.5" style="stroke:#C6A0F6;stroke-width:2.0;" width="407.9531" x="1248.16" y="544.79"/><ellipse cx="1375.1483" cy="559.79" fill="#D3D3D3" rx="10" ry="10" style="stroke:#181818;stroke-width:1.0;"/><path d="M1371.951,555.542 L1373.6795,555.542 L1373.6795,558.8759 L1375.8416,558.8759 L1375.8416,555.542 L1377.5702,555.542 L1377.5702,564.29 L1375.8416,564.29 L1375.8416,560.3994 L1373.6795,560.3994 L1373.6795,564.29 L1371.951,564.29 Z " fill="#CAD3F5"/><text fill="#A6DA95" font-family="sans-serif" font-size="16" lengthAdjust="spacing" textLength="145.9766" x="1394.1483" y="565.8369">MaybeTKindHelper</text><line style="stroke:#C6A0F6;stroke-width:2.0;" x1="1249.16" x2="1655.1131" y1="574.79" y2="574.79"/><text fill="#A6DA95" font-family="sans-serif" font-size="12" lengthAdjust="spacing" text-decoration="underline" textLength="201.2754" x="1254.16" y="590.3916">+INVALID_KIND_NULL_MSG: String</text><text fill="#A6DA95" font-family="sans-serif" font-size="12" lengthAdjust="spacing" text-decoration="underline" textLength="199.5" x="1254.16" y="604.5244">+INVALID_KIND_TYPE_MSG: String</text><line style="stroke:#C6A0F6;stroke-width:1.0;" x1="1249.16" x2="1655.1131" y1="611.0556" y2="611.0556"/><text fill="#A6DA95" font-family="sans-serif" font-size="12" lengthAdjust="spacing" text-decoration="underline" textLength="390.4043" x="1254.16" y="626.6572">+unwrap(Kind&lt;MaybeTKind.Witness&lt;F&gt;, A&gt; kind): MaybeT&lt;F, A&gt;</text><text fill="#A6DA95" font-family="sans-serif" font-size="12" lengthAdjust="spacing" text-decoration="underline" textLength="395.9531" x="1254.16" y="640.79">+wrap(MaybeT&lt;F, A&gt; maybeT): Kind&lt;MaybeTKind.Witness&lt;F&gt;, A&gt;</text></g><g id="elem_GMN20"><path d="M1024.66,585.49 L1024.66,606.6228 A1.5,1.5 0 0 0 1026.16,608.1228 L1212.1073,608.1228 A1.5,1.5 0 0 0 1213.6073,606.6228 L1213.6073,601.99 L1248.03,596.06 L1213.6073,593.99 L1213.6073,593.99 L1203.6073,583.99 L1026.16,583.99 A1.5,1.5 0 0 0 1024.66,585.49 " fill="#EED49F" style="stroke:#24273A;stroke-width:0.5;"/><path d="M1203.6073,583.99 L1203.6073,593.24 A0.75,0.75 0 0 0 1204.3573,593.99 L1213.6073,593.99 L1203.6073,583.99 " fill="#EED49F" style="stroke:#24273A;stroke-width:0.5;"/><text fill="#24273A" font-family="sans-serif" font-size="12" lengthAdjust="spacing" textLength="167.9473" x="1030.66" y="600.5916">Utility for HKT wrap/unwrap.</text></g><!--class Kind--><g id="elem_Kind"><rect fill="#24273A" height="30" id="Kind" rx="1.5" ry="1.5" style="stroke:#C6A0F6;stroke-width:2.0;" width="65.0703" x="610.6" y="121"/><rect fill="#363A4F" height="30" rx="1.5" ry="1.5" style="stroke:#363A4F;stroke-width:2.0;" width="65.0703" x="610.6" y="121"/><rect fill="#363A4F" height="1.5" style="stroke:#363A4F;stroke-width:2.0;" width="65.0703" x="610.6" y="149.5"/><rect fill="none" height="30" id="Kind" rx="1.5" ry="1.5" style="stroke:#C6A0F6;stroke-width:2.0;" width="65.0703" x="610.6" y="121"/><ellipse cx="624.6" cy="136" fill="#B4A7E5" rx="10" ry="10" style="stroke:#181818;stroke-width:1.0;"/><path d="M621.6078,133.2754 L621.6078,131.752 L626.8168,131.752 L626.8168,133.2754 L625.0766,133.2754 L625.0766,138.9766 L626.8168,138.9766 L626.8168,140.5 L621.6078,140.5 L621.6078,138.9766 L623.348,138.9766 L623.348,133.2754 Z " fill="#CAD3F5"/><text fill="#A6DA95" font-family="sans-serif" font-size="16" font-style="italic" lengthAdjust="spacing" textLength="35.0703" x="637.6" y="142.0469">Kind</text></g><!--class MonadError--><g id="elem_MonadError"><rect fill="#24273A" height="30" id="MonadError" rx="1.5" ry="1.5" style="stroke:#C6A0F6;stroke-width:2.0;" width="120.5859" x="710.84" y="121"/><rect fill="#363A4F" height="30" rx="1.5" ry="1.5" style="stroke:#363A4F;stroke-width:2.0;" width="120.5859" x="710.84" y="121"/><rect fill="#363A4F" height="1.5" style="stroke:#363A4F;stroke-width:2.0;" width="120.5859" x="710.84" y="149.5"/><rect fill="none" height="30" id="MonadError" rx="1.5" ry="1.5" style="stroke:#C6A0F6;stroke-width:2.0;" width="120.5859" x="710.84" y="121"/><ellipse cx="724.84" cy="136" fill="#B4A7E5" rx="10" ry="10" style="stroke:#181818;stroke-width:1.0;"/><path d="M721.8478,133.2754 L721.8478,131.752 L727.0568,131.752 L727.0568,133.2754 L725.3166,133.2754 L725.3166,138.9766 L727.0568,138.9766 L727.0568,140.5 L721.8478,140.5 L721.8478,138.9766 L723.588,138.9766 L723.588,133.2754 Z " fill="#CAD3F5"/><text fill="#A6DA95" font-family="sans-serif" font-size="16" font-style="italic" lengthAdjust="spacing" textLength="90.5859" x="737.84" y="142.0469">MonadError</text></g><!--class Kind--><g id="elem_Kind"><rect codeLine="53" fill="#24273A" height="30" id="Kind" rx="1.5" ry="1.5" style="stroke:#C6A0F6;stroke-width:2.0;" width="91.0723" x="1206.6" y="961.52"/><rect fill="#363A4F" height="30" rx="1.5" ry="1.5" style="stroke:#363A4F;stroke-width:2.0;" width="91.0723" x="1206.6" y="961.52"/><rect fill="#363A4F" height="1.5" style="stroke:#363A4F;stroke-width:2.0;" width="91.0723" x="1206.6" y="990.02"/><rect codeLine="53" fill="none" height="30" id="Kind" rx="1.5" ry="1.5" style="stroke:#C6A0F6;stroke-width:2.0;" width="91.0723" x="1206.6" y="961.52"/><ellipse cx="1220.6" cy="976.52" fill="#B4A7E5" rx="10" ry="10" style="stroke:#181818;stroke-width:1.0;"/><path d="M1217.6078,973.7954 L1217.6078,972.272 L1222.8168,972.272 L1222.8168,973.7954 L1221.0766,973.7954 L1221.0766,979.4966 L1222.8168,979.4966 L1222.8168,981.02 L1217.6078,981.02 L1217.6078,979.4966 L1219.348,979.4966 L1219.348,973.7954 Z " fill="#CAD3F5"/><text fill="#A6DA95" font-family="sans-serif" font-size="16" font-style="italic" lengthAdjust="spacing" textLength="35.0703" x="1233.6" y="982.5669">Kind</text><rect fill="#24273A" height="14" style="stroke:#C6A0F6;stroke-width:1.0;stroke-dasharray:2.0,2.0;" width="24.002" x="1276.6703" y="958.52"/><text fill="#CAD3F5" font-family="Roboto, Helvetica" font-size="12" font-style="italic" lengthAdjust="spacing" textLength="22.002" x="1277.6703" y="968.7602">F, A</text></g><!--class Functor<F>--><g id="elem_Functor&lt;F&gt;"><rect codeLine="54" fill="#24273A" height="30" id="Functor&lt;F&gt;" rx="1.5" ry="1.5" style="stroke:#C6A0F6;stroke-width:2.0;" width="123.0078" x="1332.63" y="961.52"/><rect fill="#363A4F" height="30" rx="1.5" ry="1.5" style="stroke:#363A4F;stroke-width:2.0;" width="123.0078" x="1332.63" y="961.52"/><rect fill="#363A4F" height="1.5" style="stroke:#363A4F;stroke-width:2.0;" width="123.0078" x="1332.63" y="990.02"/><rect codeLine="54" fill="none" height="30" id="Functor&lt;F&gt;" rx="1.5" ry="1.5" style="stroke:#C6A0F6;stroke-width:2.0;" width="123.0078" x="1332.63" y="961.52"/><ellipse cx="1346.63" cy="976.52" fill="#B4A7E5" rx="10" ry="10" style="stroke:#181818;stroke-width:1.0;"/><path d="M1343.6378,973.7954 L1343.6378,972.272 L1348.8468,972.272 L1348.8468,973.7954 L1347.1066,973.7954 L1347.1066,979.4966 L1348.8468,979.4966 L1348.8468,981.02 L1343.6378,981.02 L1343.6378,979.4966 L1345.378,979.4966 L1345.378,973.7954 Z " fill="#CAD3F5"/><text fill="#A6DA95" font-family="sans-serif" font-size="16" font-style="italic" lengthAdjust="spacing" textLength="93.0078" x="1359.63" y="982.5669">Functor&lt;F&gt;</text></g><!--class Applicative<F> extends Functor<F>--><g id="elem_Applicative&lt;F&gt; extends Functor&lt;F&gt;"><rect codeLine="55" fill="#24273A" height="30" id="Applicative&lt;F&gt; extends Functor&lt;F&gt;" rx="1.5" ry="1.5" style="stroke:#C6A0F6;stroke-width:2.0;" width="314.1953" x="1491.03" y="961.52"/><rect fill="#363A4F" height="30" rx="1.5" ry="1.5" style="stroke:#363A4F;stroke-width:2.0;" width="314.1953" x="1491.03" y="961.52"/><rect fill="#363A4F" height="1.5" style="stroke:#363A4F;stroke-width:2.0;" width="314.1953" x="1491.03" y="990.02"/><rect codeLine="55" fill="none" height="30" id="Applicative&lt;F&gt; extends Functor&lt;F&gt;" rx="1.5" ry="1.5" style="stroke:#C6A0F6;stroke-width:2.0;" width="314.1953" x="1491.03" y="961.52"/><ellipse cx="1505.03" cy="976.52" fill="#B4A7E5" rx="10" ry="10" style="stroke:#181818;stroke-width:1.0;"/><path d="M1502.0378,973.7954 L1502.0378,972.272 L1507.2468,972.272 L1507.2468,973.7954 L1505.5066,973.7954 L1505.5066,979.4966 L1507.2468,979.4966 L1507.2468,981.02 L1502.0378,981.02 L1502.0378,979.4966 L1503.778,979.4966 L1503.778,973.7954 Z " fill="#CAD3F5"/><text fill="#A6DA95" font-family="sans-serif" font-size="16" font-style="italic" lengthAdjust="spacing" textLength="284.1953" x="1518.03" y="982.5669">Applicative&lt;F&gt; extends Functor&lt;F&gt;</text></g><!--class Monad<M> extends Applicative<M>--><g id="elem_Monad&lt;M&gt; extends Applicative&lt;M&gt;"><rect codeLine="56" fill="#24273A" height="30" id="Monad&lt;M&gt; extends Applicative&lt;M&gt;" rx="1.5" ry="1.5" style="stroke:#C6A0F6;stroke-width:2.0;" width="318.0547" x="1235.1" y="1054.52"/><rect fill="#363A4F" height="30" rx="1.5" ry="1.5" style="stroke:#363A4F;stroke-width:2.0;" width="318.0547" x="1235.1" y="1054.52"/><rect fill="#363A4F" height="1.5" style="stroke:#363A4F;stroke-width:2.0;" width="318.0547" x="1235.1" y="1083.02"/><rect codeLine="56" fill="none" height="30" id="Monad&lt;M&gt; extends Applicative&lt;M&gt;" rx="1.5" ry="1.5" style="stroke:#C6A0F6;stroke-width:2.0;" width="318.0547" x="1235.1" y="1054.52"/><ellipse cx="1249.1" cy="1069.52" fill="#B4A7E5" rx="10" ry="10" style="stroke:#181818;stroke-width:1.0;"/><path d="M1246.1078,1066.7954 L1246.1078,1065.272 L1251.3168,1065.272 L1251.3168,1066.7954 L1249.5766,1066.7954 L1249.5766,1072.4966 L1251.3168,1072.4966 L1251.3168,1074.02 L1246.1078,1074.02 L1246.1078,1072.4966 L1247.848,1072.4966 L1247.848,1066.7954 Z " fill="#CAD3F5"/><text fill="#A6DA95" font-family="sans-serif" font-size="16" font-style="italic" lengthAdjust="spacing" textLength="288.0547" x="1262.1" y="1075.5669">Monad&lt;M&gt; extends Applicative&lt;M&gt;</text></g><!--class MonadError<M, E> extends Monad<M>--><g id="elem_MonadError&lt;M, E&gt; extends Monad&lt;M&gt;"><rect codeLine="57" fill="#24273A" height="30" id="MonadError&lt;M, E&gt; extends Monad&lt;M&gt;" rx="1.5" ry="1.5" style="stroke:#C6A0F6;stroke-width:2.0;" width="342.1719" x="1588.05" y="1054.52"/><rect fill="#363A4F" height="30" rx="1.5" ry="1.5" style="stroke:#363A4F;stroke-width:2.0;" width="342.1719" x="1588.05" y="1054.52"/><rect fill="#363A4F" height="1.5" style="stroke:#363A4F;stroke-width:2.0;" width="342.1719" x="1588.05" y="1083.02"/><rect codeLine="57" fill="none" height="30" id="MonadError&lt;M, E&gt; extends Monad&lt;M&gt;" rx="1.5" ry="1.5" style="stroke:#C6A0F6;stroke-width:2.0;" width="342.1719" x="1588.05" y="1054.52"/><ellipse cx="1602.05" cy="1069.52" fill="#B4A7E5" rx="10" ry="10" style="stroke:#181818;stroke-width:1.0;"/><path d="M1599.0578,1066.7954 L1599.0578,1065.272 L1604.2668,1065.272 L1604.2668,1066.7954 L1602.5266,1066.7954 L1602.5266,1072.4966 L1604.2668,1072.4966 L1604.2668,1074.02 L1599.0578,1074.02 L1599.0578,1072.4966 L1600.798,1072.4966 L1600.798,1066.7954 Z " fill="#CAD3F5"/><text fill="#A6DA95" font-family="sans-serif" font-size="16" font-style="italic" lengthAdjust="spacing" textLength="312.1719" x="1615.05" y="1075.5669">MonadError&lt;M, E&gt; extends Monad&lt;M&gt;</text></g><!--class Monad--><g id="elem_Monad"><rect fill="#24273A" height="30" id="Monad" rx="1.5" ry="1.5" style="stroke:#C6A0F6;stroke-width:2.0;" width="82.4453" x="1954.91" y="961.52"/><rect fill="#363A4F" height="30" rx="1.5" ry="1.5" style="stroke:#363A4F;stroke-width:2.0;" width="82.4453" x="1954.91" y="961.52"/><rect fill="#363A4F" height="1.5" style="stroke:#363A4F;stroke-width:2.0;" width="82.4453" x="1954.91" y="990.02"/><rect fill="none" height="30" id="Monad" rx="1.5" ry="1.5" style="stroke:#C6A0F6;stroke-width:2.0;" width="82.4453" x="1954.91" y="961.52"/><ellipse cx="1968.91" cy="976.52" fill="#ADD1B2" rx="10" ry="10" style="stroke:#181818;stroke-width:1.0;"/><path d="M1970.744,980.768 Q1970.3338,980.979 1969.8827,981.0845 Q1969.4315,981.1899 1968.9334,981.1899 Q1967.1639,981.1899 1966.2323,980.0239 Q1965.3006,978.8579 1965.3006,976.6548 Q1965.3006,974.4458 1966.2323,973.2798 Q1967.1639,972.1138 1968.9334,972.1138 Q1969.4315,972.1138 1969.8885,972.2192 Q1970.3455,972.3247 1970.744,972.5356 L1970.744,974.4575 Q1970.2987,974.0473 1969.8797,973.8569 Q1969.4608,973.6665 1969.0155,973.6665 Q1968.0662,973.6665 1967.5829,974.4194 Q1967.0995,975.1723 1967.0995,976.6548 Q1967.0995,978.1313 1967.5829,978.8843 Q1968.0662,979.6372 1969.0155,979.6372 Q1969.4608,979.6372 1969.8797,979.4468 Q1970.2987,979.2563 1970.744,978.8462 Z " fill="#CAD3F5"/><text fill="#A6DA95" font-family="sans-serif" font-size="16" lengthAdjust="spacing" textLength="52.4453" x="1981.91" y="982.5669">Monad</text></g><!--class Maybe--><g id="elem_Maybe"><rect fill="#24273A" height="30" id="Maybe" rx="1.5" ry="1.5" style="stroke:#C6A0F6;stroke-width:2.0;" width="79.9609" x="1840.15" y="961.52"/><rect fill="#363A4F" height="30" rx="1.5" ry="1.5" style="stroke:#363A4F;stroke-width:2.0;" width="79.9609" x="1840.15" y="961.52"/><rect fill="#363A4F" height="1.5" style="stroke:#363A4F;stroke-width:2.0;" width="79.9609" x="1840.15" y="990.02"/><rect fill="none" height="30" id="Maybe" rx="1.5" ry="1.5" style="stroke:#C6A0F6;stroke-width:2.0;" width="79.9609" x="1840.15" y="961.52"/><ellipse cx="1854.15" cy="976.52" fill="#ADD1B2" rx="10" ry="10" style="stroke:#181818;stroke-width:1.0;"/><path d="M1855.984,980.768 Q1855.5738,980.979 1855.1227,981.0845 Q1854.6715,981.1899 1854.1734,981.1899 Q1852.4039,981.1899 1851.4723,980.0239 Q1850.5406,978.8579 1850.5406,976.6548 Q1850.5406,974.4458 1851.4723,973.2798 Q1852.4039,972.1138 1854.1734,972.1138 Q1854.6715,972.1138 1855.1285,972.2192 Q1855.5855,972.3247 1855.984,972.5356 L1855.984,974.4575 Q1855.5387,974.0473 1855.1197,973.8569 Q1854.7008,973.6665 1854.2555,973.6665 Q1853.3062,973.6665 1852.8229,974.4194 Q1852.3395,975.1723 1852.3395,976.6548 Q1852.3395,978.1313 1852.8229,978.8843 Q1853.3062,979.6372 1854.2555,979.6372 Q1854.7008,979.6372 1855.1197,979.4468 Q1855.5387,979.2563 1855.984,978.8462 Z " fill="#CAD3F5"/><text fill="#A6DA95" font-family="sans-serif" font-size="16" lengthAdjust="spacing" textLength="49.9609" x="1867.15" y="982.5669">Maybe</text></g><!--class Maybe--><g id="elem_Maybe"><rect codeLine="61" fill="#24273A" height="159.0625" id="Maybe" rx="1.5" ry="1.5" style="stroke:#C6A0F6;stroke-width:2.0;" width="320.6074" x="1806.83" y="56.47"/><rect fill="#363A4F" height="30" rx="1.5" ry="1.5" style="stroke:#363A4F;stroke-width:2.0;" width="320.6074" x="1806.83" y="56.47"/><rect fill="#363A4F" height="1.5" style="stroke:#363A4F;stroke-width:2.0;" width="320.6074" x="1806.83" y="84.97"/><rect codeLine="61" fill="none" height="159.0625" id="Maybe" rx="1.5" ry="1.5" style="stroke:#C6A0F6;stroke-width:2.0;" width="320.6074" x="1806.83" y="56.47"/><ellipse cx="1932.1513" cy="71.47" fill="#B4A7E5" rx="10" ry="10" style="stroke:#181818;stroke-width:1.0;"/><path d="M1929.1591,68.7454 L1929.1591,67.222 L1934.3681,67.222 L1934.3681,68.7454 L1932.6279,68.7454 L1932.6279,74.4466 L1934.3681,74.4466 L1934.3681,75.97 L1929.1591,75.97 L1929.1591,74.4466 L1930.8993,74.4466 L1930.8993,68.7454 Z " fill="#CAD3F5"/><text fill="#A6DA95" font-family="sans-serif" font-size="16" font-style="italic" lengthAdjust="spacing" textLength="49.9609" x="1951.1513" y="77.5169">Maybe</text><rect fill="#24273A" height="14" style="stroke:#C6A0F6;stroke-width:1.0;stroke-dasharray:2.0,2.0;" width="10.0039" x="2120.4335" y="53.47"/><text fill="#CAD3F5" font-family="Roboto, Helvetica" font-size="12" font-style="italic" lengthAdjust="spacing" textLength="8.0039" x="2121.4335" y="63.7102">A</text><line style="stroke:#C6A0F6;stroke-width:2.0;" x1="1807.83" x2="2126.4374" y1="86.47" y2="86.47"/><text fill="#A6DA95" font-family="sans-serif" font-size="12" lengthAdjust="spacing" text-decoration="underline" textLength="153.9844" x="1812.83" y="102.0716">+just(A value): Maybe&lt;A&gt;</text><text fill="#A6DA95" font-family="sans-serif" font-size="12" lengthAdjust="spacing" text-decoration="underline" textLength="134.918" x="1812.83" y="116.2044">+nothing(): Maybe&lt;A&gt;</text><text fill="#A6DA95" font-family="sans-serif" font-size="12" lengthAdjust="spacing" text-decoration="underline" textLength="207.7617" x="1812.83" y="130.3372">+fromNullable(A value): Maybe&lt;A&gt;</text><line style="stroke:#C6A0F6;stroke-width:1.0;stroke-dasharray:1.0,2.0;" x1="1807.83" x2="2126.4374" y1="136.8684" y2="136.8684"/><text fill="#A6DA95" font-family="sans-serif" font-size="12" lengthAdjust="spacing" textLength="102.832" x="1812.83" y="152.47">+isJust(): boolean</text><text fill="#A6DA95" font-family="sans-serif" font-size="12" lengthAdjust="spacing" textLength="127.6172" x="1812.83" y="166.6028">+isNothing(): boolean</text><text fill="#A6DA95" font-family="sans-serif" font-size="12" lengthAdjust="spacing" textLength="51.873" x="1812.83" y="180.7356">+get(): A</text><text fill="#A6DA95" font-family="sans-serif" font-size="12" lengthAdjust="spacing" textLength="250.4063" x="1812.83" y="194.8684">+map(Function&lt;A,B&gt; mapper): Maybe&lt;B&gt;</text><text fill="#A6DA95" font-family="sans-serif" font-size="12" lengthAdjust="spacing" textLength="170.0859" x="1812.83" y="209.0013">+flatMap(Function&lt;A, Maybe</text><text fill="#A6DA95" font-family="sans-serif" font-size="12" font-weight="bold" lengthAdjust="spacing" textLength="138.5215" x="1982.9159" y="209.0013">&gt; mapper): Maybe&lt;B&gt;</text></g><!--class Just<A> implements Maybe<A>--><g id="elem_Just&lt;A&gt; implements Maybe&lt;A&gt;"><rect codeLine="72" fill="#24273A" height="30" id="Just&lt;A&gt; implements Maybe&lt;A&gt;" rx="1.5" ry="1.5" style="stroke:#C6A0F6;stroke-width:2.0;" width="283.1797" x="2162.54" y="121"/><rect fill="#363A4F" height="30" rx="1.5" ry="1.5" style="stroke:#363A4F;stroke-width:2.0;" width="283.1797" x="2162.54" y="121"/><rect fill="#363A4F" height="1.5" style="stroke:#363A4F;stroke-width:2.0;" width="283.1797" x="2162.54" y="149.5"/><rect codeLine="72" fill="none" height="30" id="Just&lt;A&gt; implements Maybe&lt;A&gt;" rx="1.5" ry="1.5" style="stroke:#C6A0F6;stroke-width:2.0;" width="283.1797" x="2162.54" y="121"/><ellipse cx="2176.54" cy="136" fill="#ADD1B2" rx="10" ry="10" style="stroke:#181818;stroke-width:1.0;"/><path d="M2178.374,140.248 Q2177.9638,140.459 2177.5127,140.5645 Q2177.0615,140.6699 2176.5634,140.6699 Q2174.7939,140.6699 2173.8623,139.5039 Q2172.9306,138.3379 2172.9306,136.1348 Q2172.9306,133.9258 2173.8623,132.7598 Q2174.7939,131.5938 2176.5634,131.5938 Q2177.0615,131.5938 2177.5185,131.6992 Q2177.9755,131.8047 2178.374,132.0156 L2178.374,133.9375 Q2177.9287,133.5273 2177.5097,133.3369 Q2177.0908,133.1465 2176.6455,133.1465 Q2175.6963,133.1465 2175.2129,133.8994 Q2174.7295,134.6523 2174.7295,136.1348 Q2174.7295,137.6113 2175.2129,138.3643 Q2175.6963,139.1172 2176.6455,139.1172 Q2177.0908,139.1172 2177.5097,138.9268 Q2177.9287,138.7363 2178.374,138.3262 Z " fill="#CAD3F5"/><text fill="#A6DA95" font-family="sans-serif" font-size="16" lengthAdjust="spacing" textLength="253.1797" x="2189.54" y="142.0469">Just&lt;A&gt; implements Maybe&lt;A&gt;</text></g><!--class Nothing<A> implements Maybe<A>--><g id="elem_Nothing&lt;A&gt; implements Maybe&lt;A&gt;"><rect codeLine="73" fill="#24273A" height="30" id="Nothing&lt;A&gt; implements Maybe&lt;A&gt;" rx="1.5" ry="1.5" style="stroke:#C6A0F6;stroke-width:2.0;" width="316.2266" x="1809.02" y="345.06"/><rect fill="#363A4F" height="30" rx="1.5" ry="1.5" style="stroke:#363A4F;stroke-width:2.0;" width="316.2266" x="1809.02" y="345.06"/><rect fill="#363A4F" height="1.5" style="stroke:#363A4F;stroke-width:2.0;" width="316.2266" x="1809.02" y="373.56"/><rect codeLine="73" fill="none" height="30" id="Nothing&lt;A&gt; implements Maybe&lt;A&gt;" rx="1.5" ry="1.5" style="stroke:#C6A0F6;stroke-width:2.0;" width="316.2266" x="1809.02" y="345.06"/><ellipse cx="1823.02" cy="360.06" fill="#ADD1B2" rx="10" ry="10" style="stroke:#181818;stroke-width:1.0;"/><path d="M1824.854,364.308 Q1824.4438,364.519 1823.9927,364.6245 Q1823.5415,364.7299 1823.0434,364.7299 Q1821.2739,364.7299 1820.3423,363.5639 Q1819.4106,362.3979 1819.4106,360.1948 Q1819.4106,357.9858 1820.3423,356.8198 Q1821.2739,355.6537 1823.0434,355.6537 Q1823.5415,355.6537 1823.9985,355.7592 Q1824.4555,355.8647 1824.854,356.0756 L1824.854,357.9975 Q1824.4087,357.5873 1823.9897,357.3969 Q1823.5708,357.2065 1823.1255,357.2065 Q1822.1763,357.2065 1821.6929,357.9594 Q1821.2095,358.7123 1821.2095,360.1948 Q1821.2095,361.6713 1821.6929,362.4243 Q1822.1763,363.1772 1823.1255,363.1772 Q1823.5708,363.1772 1823.9897,362.9868 Q1824.4087,362.7963 1824.854,362.3862 Z " fill="#CAD3F5"/><text fill="#A6DA95" font-family="sans-serif" font-size="16" lengthAdjust="spacing" textLength="286.2266" x="1836.02" y="366.1069">Nothing&lt;A&gt; implements Maybe&lt;A&gt;</text></g><!--class Witness--><g id="elem_Witness"><rect fill="#24273A" height="30" id="Witness" rx="1.5" ry="1.5" style="stroke:#C6A0F6;stroke-width:2.0;" width="89.4531" x="1614.41" y="793.52"/><rect fill="#363A4F" height="30" rx="1.5" ry="1.5" style="stroke:#363A4F;stroke-width:2.0;" width="89.4531" x="1614.41" y="793.52"/><rect fill="#363A4F" height="1.5" style="stroke:#363A4F;stroke-width:2.0;" width="89.4531" x="1614.41" y="822.02"/><rect fill="none" height="30" id="Witness" rx="1.5" ry="1.5" style="stroke:#C6A0F6;stroke-width:2.0;" width="89.4531" x="1614.41" y="793.52"/><ellipse cx="1628.41" cy="808.52" fill="#ADD1B2" rx="10" ry="10" style="stroke:#181818;stroke-width:1.0;"/><path d="M1630.244,812.768 Q1629.8338,812.979 1629.3827,813.0845 Q1628.9315,813.1899 1628.4334,813.1899 Q1626.6639,813.1899 1625.7323,812.0239 Q1624.8006,810.8579 1624.8006,808.6548 Q1624.8006,806.4458 1625.7323,805.2798 Q1626.6639,804.1138 1628.4334,804.1138 Q1628.9315,804.1138 1629.3885,804.2192 Q1629.8455,804.3247 1630.244,804.5356 L1630.244,806.4575 Q1629.7987,806.0473 1629.3797,805.8569 Q1628.9608,805.6665 1628.5155,805.6665 Q1627.5662,805.6665 1627.0829,806.4194 Q1626.5995,807.1723 1626.5995,808.6548 Q1626.5995,810.1313 1627.0829,810.8843 Q1627.5662,811.6372 1628.5155,811.6372 Q1628.9608,811.6372 1629.3797,811.4468 Q1629.7987,811.2563 1630.244,810.8462 Z " fill="#CAD3F5"/><text fill="#A6DA95" font-family="sans-serif" font-size="16" lengthAdjust="spacing" textLength="59.4531" x="1641.41" y="814.5669">Witness</text></g><!--class MaybeT--><g id="elem_MaybeT"><rect fill="#24273A" height="30" id="MaybeT" rx="1.5" ry="1.5" style="stroke:#C6A0F6;stroke-width:2.0;" width="90.0781" x="1407.09" y="793.52"/><rect fill="#363A4F" height="30" rx="1.5" ry="1.5" style="stroke:#363A4F;stroke-width:2.0;" width="90.0781" x="1407.09" y="793.52"/><rect fill="#363A4F" height="1.5" style="stroke:#363A4F;stroke-width:2.0;" width="90.0781" x="1407.09" y="822.02"/><rect fill="none" height="30" id="MaybeT" rx="1.5" ry="1.5" style="stroke:#C6A0F6;stroke-width:2.0;" width="90.0781" x="1407.09" y="793.52"/><ellipse cx="1421.09" cy="808.52" fill="#ADD1B2" rx="10" ry="10" style="stroke:#181818;stroke-width:1.0;"/><path d="M1422.924,812.768 Q1422.5138,812.979 1422.0627,813.0845 Q1421.6115,813.1899 1421.1134,813.1899 Q1419.3439,813.1899 1418.4123,812.0239 Q1417.4806,810.8579 1417.4806,808.6548 Q1417.4806,806.4458 1418.4123,805.2798 Q1419.3439,804.1138 1421.1134,804.1138 Q1421.6115,804.1138 1422.0685,804.2192 Q1422.5255,804.3247 1422.924,804.5356 L1422.924,806.4575 Q1422.4787,806.0473 1422.0597,805.8569 Q1421.6408,805.6665 1421.1955,805.6665 Q1420.2463,805.6665 1419.7629,806.4194 Q1419.2795,807.1723 1419.2795,808.6548 Q1419.2795,810.1313 1419.7629,810.8843 Q1420.2463,811.6372 1421.1955,811.6372 Q1421.6408,811.6372 1422.0597,811.4468 Q1422.4787,811.2563 1422.924,810.8462 Z " fill="#CAD3F5"/><text fill="#A6DA95" font-family="sans-serif" font-size="16" lengthAdjust="spacing" textLength="60.0781" x="1434.09" y="814.5669">MaybeT</text></g><!--reverse link Kind to MaybeTKind--><g id="link_Kind_MaybeTKind"><path d="M608.3133,161.6227 C556.2733,198.4227 431.35,286.77 365.05,333.66 " fill="none" id="Kind-backto-MaybeTKind" style="stroke:#F5BDE6;stroke-width:1.0;"/><polygon fill="none" points="623.01,151.23,604.8491,156.7238,611.7776,166.5216,623.01,151.23" style="stroke:#F5BDE6;stroke-width:1.0;"/></g><!--reverse link MaybeTKind to MaybeT<F, A>--><g id="link_MaybeTKind_MaybeT&lt;F, A&gt;"><path d="M389.2779,395.4462 C418.3179,411.9562 441.49,424.89 476.13,443.59 C522.49,468.62 573.35,495.28 619.46,519.14 " fill="none" id="MaybeTKind-backto-MaybeT&lt;F, A&gt;" style="stroke:#F5BDE6;stroke-width:1.0;stroke-dasharray:7.0,7.0;"/><polygon fill="none" points="373.63,386.55,386.3125,400.6622,392.2433,390.2303,373.63,386.55" style="stroke:#F5BDE6;stroke-width:1.0;"/></g><!--reverse link MonadError to MaybeTMonad--><g id="link_MonadError_MaybeTMonad"><path d="M794.8112,164.9674 C815.9612,189.9474 849.64,229.73 888.98,276.2 " fill="none" id="MonadError-backto-MaybeTMonad" style="stroke:#F5BDE6;stroke-width:1.0;stroke-dasharray:7.0,7.0;"/><polygon fill="none" points="783.18,151.23,790.232,168.8445,799.3903,161.0904,783.18,151.23" style="stroke:#F5BDE6;stroke-width:1.0;"/></g><!--link MaybeT to Kind--><g id="link_MaybeT_Kind"><path codeLine="77" d="M1411,823.98 C1381.88,835.69 1343.17,854.37 1315.13,879.52 C1288.57,903.35 1270.9426,935.379 1261.1826,955.749 " fill="none" id="MaybeT-to-Kind" style="stroke:#F5BDE6;stroke-width:1.0;"/><polygon fill="#F5BDE6" points="1258.59,961.16,1266.0862,954.7719,1260.7505,956.6509,1258.8716,951.3152,1258.59,961.16" style="stroke:#F5BDE6;stroke-width:1.0;"/><text fill="#CAD3F5" font-family="sans-serif" font-size="12" lengthAdjust="spacing" textLength="30.4395" x="1225.7278" y="951.0981">value</text></g><!--link MaybeT to Maybe--><g id="link_MaybeT_Maybe"><path codeLine="78" d="M1497.51,822.84 C1526.17,830.88 1564.08,840.82 1598.13,847.52 C1598.34,847.56 1835.96,879.4 1836.13,879.52 C1862.95,899.38 1872.7539,933.6247 1876.8339,955.1747 " fill="none" id="MaybeT-to-Maybe" style="stroke:#F5BDE6;stroke-width:1.0;stroke-dasharray:7.0,7.0;"/><polygon fill="#F5BDE6" points="1877.95,961.07,1880.206,951.483,1877.0199,956.1573,1872.3456,952.9712,1877.95,961.07" style="stroke:#F5BDE6;stroke-width:1.0;"/><text fill="#CAD3F5" font-family="sans-serif" font-size="12" lengthAdjust="spacing" textLength="75.3164" x="1773.27" y="868.1216">uses in value</text></g><!--link MaybeT to Monad--><g id="link_MaybeT_Monad"><path codeLine="79" d="M1496.98,823.98 C1525.59,832.5 1563.65,842.56 1598.13,847.52 C1672.81,858.25 1876.23,833.65 1936.13,879.52 C1964.37,901.15 1980.4664,934.5993 1988.7664,955.6193 " fill="none" id="MaybeT-to-Monad" style="stroke:#F5BDE6;stroke-width:1.0;stroke-dasharray:7.0,7.0;"/><polygon fill="#F5BDE6" points="1990.97,961.2,1991.3851,951.3599,1989.1337,956.5494,1983.9441,954.298,1990.97,961.2" style="stroke:#F5BDE6;stroke-width:1.0;"/><text fill="#CAD3F5" font-family="sans-serif" font-size="12" lengthAdjust="spacing" textLength="130.875" x="1920.14" y="868.1216">uses in static methods</text></g><!--link MaybeTMonad to Monad--><g id="link_MaybeTMonad_Monad"><path codeLine="81" d="M1436.5218,442.8301 C1442.3918,443.6601 1436.34,442.79 1442.13,443.59 C1569.19,461.07 1603.39,448.35 1729.13,473.59 C1798.75,487.57 1827.32,474.45 1882.13,519.59 C2012.4,626.88 2018.61,691.7 2059.13,855.52 C2069.36,896.86 2037.896,935.5109 2016.086,957.0809 " fill="none" id="MaybeTMonad-Monad" style="stroke:#F5BDE6;stroke-width:1.0;"/><polygon fill="none" points="1424.64,441.15,1430.0209,445.9506,1436.5218,442.8301,1431.1409,438.0294,1424.64,441.15" style="stroke:#F5BDE6;stroke-width:1.0;"/><polygon fill="#F5BDE6" points="2011.82,961.3,2021.0318,957.8154,2015.375,957.7841,2015.4063,952.1273,2011.82,961.3" style="stroke:#F5BDE6;stroke-width:1.0;"/><text fill="#CAD3F5" font-family="sans-serif" font-size="12" lengthAdjust="spacing" textLength="70.2363" x="1934.982" y="951.0093">outerMonad</text></g><!--link MaybeTMonad to MaybeTKindHelper--><g id="link_MaybeTMonad_MaybeTKindHelper"><path codeLine="82" d="M1133.99,444.05 C1204.59,477.56 1278.3596,512.5773 1340.0696,541.8673 " fill="none" id="MaybeTMonad-to-MaybeTKindHelper" style="stroke:#F5BDE6;stroke-width:1.0;stroke-dasharray:7.0,7.0;"/><polygon fill="#F5BDE6" points="1345.49,544.44,1339.0745,536.9673,1340.973,542.296,1335.6442,544.1945,1345.49,544.44" style="stroke:#F5BDE6;stroke-width:1.0;"/><text fill="#CAD3F5" font-family="sans-serif" font-size="12" lengthAdjust="spacing" textLength="26.3672" x="1221.41" y="486.1916">uses</text></g><!--link MaybeTMonad to MaybeT--><g id="link_MaybeTMonad_MaybeT"><path codeLine="83" d="M493.73,440.59 C279.4,477.77 71.04,514.93 67.13,519.59 C9.78,588.04 6,655.42 67.13,720.52 C114.09,770.52 1167.692,800.256 1400.972,806.246 " fill="none" id="MaybeTMonad-to-MaybeT" style="stroke:#F5BDE6;stroke-width:1.0;stroke-dasharray:7.0,7.0;"/><polygon fill="#F5BDE6" points="1406.97,806.4,1398.0756,802.1703,1401.9716,806.2717,1397.8703,810.1677,1406.97,806.4" style="stroke:#F5BDE6;stroke-width:1.0;"/><text fill="#CAD3F5" font-family="sans-serif" font-size="12" lengthAdjust="spacing" textLength="114.6914" x="68.13" y="600.6616">uses via KindHelper</text></g><!--link MaybeTMonad to Witness--><g id="link_MaybeTMonad_Witness"><path codeLine="84" d="M1424.52,443.43 C1547.79,469.46 1652.6,497.23 1673.13,519.59 C1741.27,593.8 1730.32,648.1 1701.13,744.52 C1695.49,763.14 1686.2055,776.7011 1676.1055,788.6911 " fill="none" id="MaybeTMonad-to-Witness" style="stroke:#F5BDE6;stroke-width:1.0;stroke-dasharray:7.0,7.0;"/><polygon fill="#F5BDE6" points="1672.24,793.28,1681.0975,788.9737,1675.4613,789.4559,1674.979,783.8197,1672.24,793.28" style="stroke:#F5BDE6;stroke-width:1.0;"/><text fill="#CAD3F5" font-family="sans-serif" font-size="12" lengthAdjust="spacing" textLength="99.5508" x="1724.92" y="600.6616">uses in signature</text></g><!--link MaybeTMonad to Maybe--><g id="link_MaybeTMonad_Maybe"><path codeLine="85" d="M1424.69,441 C1514.21,456.49 1587.38,469.28 1610.13,473.59 C1709.56,492.43 1765.27,444.52 1833.13,519.59 C1893.57,586.44 1884.1121,885.9057 1881.0721,955.4257 " fill="none" id="MaybeTMonad-to-Maybe" style="stroke:#F5BDE6;stroke-width:1.0;stroke-dasharray:7.0,7.0;"/><polygon fill="#F5BDE6" points="1880.81,961.42,1885.1994,952.6033,1881.0284,956.4248,1877.207,952.2538,1880.81,961.42" style="stroke:#F5BDE6;stroke-width:1.0;"/><text fill="#CAD3F5" font-family="sans-serif" font-size="12" lengthAdjust="spacing" textLength="71.1328" x="1881.89" y="741.1216">manipulates</text></g><!--link MaybeTKindHelper to MaybeT--><g id="link_MaybeTKindHelper_MaybeT"><path codeLine="87" d="M1452.13,647.73 C1452.13,695.41 1452.13,757.75 1452.13,787.16 " fill="none" id="MaybeTKindHelper-to-MaybeT" style="stroke:#F5BDE6;stroke-width:1.0;stroke-dasharray:7.0,7.0;"/><polygon fill="#F5BDE6" points="1452.13,793.16,1456.13,784.16,1452.13,788.16,1448.13,784.16,1452.13,793.16" style="stroke:#F5BDE6;stroke-width:1.0;"/><text fill="#CAD3F5" font-family="sans-serif" font-size="12" lengthAdjust="spacing" textLength="90.0938" x="1453.13" y="741.1216">wraps/unwraps</text></g><!--link MaybeTKindHelper to Witness--><g id="link_MaybeTKindHelper_Witness"><path codeLine="88" d="M1501.98,647.73 C1548.87,695.41 1611.8724,759.4726 1640.8024,788.8826 " fill="none" id="MaybeTKindHelper-to-Witness" style="stroke:#F5BDE6;stroke-width:1.0;stroke-dasharray:7.0,7.0;"/><polygon fill="#F5BDE6" points="1645.01,793.16,1641.5502,783.9388,1641.5037,789.5955,1635.847,789.549,1645.01,793.16" style="stroke:#F5BDE6;stroke-width:1.0;"/><text fill="#CAD3F5" font-family="sans-serif" font-size="12" lengthAdjust="spacing" textLength="99.5508" x="1593.18" y="741.1216">uses in signature</text></g><!--SRC=[hLVVR-8u47xFNp6Nbr8TX7j628bgoxRNmgrQkjKzLIOunDl4jco7lIxYVx-nJKWW0NhIlGNxcz_ZRuRV68-pOaaXDKRgGR-loCzenKnQB0fDLIoueTn4iSZxF1RQa1wB-p4nKXPnp7Wl9t6SCc94JsQ4coBFUYQbEUtdXF6- -umadWQ1VcTS4aLoY3EYzTWOnHQ5eVTeuvdzel173RAa2IaoCq7pCv9J29_4GXZHXJkQhQbXCGc3bA7RD9Vc0tAQBwZIGI19_4vMY3UAS1tbv6D1tqm8co00O1YBIaXCOMhFvm-CBuUJBen7GF_1C9SQqdSJkUCA4RqomwdMmyd8GJUe2U1ts60oq96j3mTAr5ylyzkdjya8XaFel7OpjahD8YleDOn6ABaDhW2uC1IKlG6HGDCK3E1RYjaKEPWFII4H2kuUvg1PNcHeLF38nkCDXrxU1n82osM6IUT6DwCiNLyJT6W0vOt33SVEFu1UxpZ0H8dSOZiDWUi1rAqV2_uejEbC1ISeDGA1nLRk5sA1N9357AMChzh4BqXQTzrzk-dIUN3DSK5NnX8pQTTJoslI6im-aIxTdUlsX6-3NJzaD77jS5JF0OIlYaWD179hcCLUduKsz4LXrHTUpTxrMb_O9dVdjqe9TQhLVv0rYV1DhwBlWYtBvkdLSe0nxxGVnbkpt5g-GxH8EcCVKfcXaszl9v4JsPaKFBOFOJZkmWrMe7j1rDVe7EQcL8_Qp-4EBQFY_zDsWizxUXJUUS7Fn9v_shuYJ5FN5XrRTQ3syxDrGSfQPbuQxzFEHQzgoRJMBiKnsbdub4FxTtN4iwu5BS4giSO1eg5w2JWWyDtps1EkXqV73yfQmo4agN8CV-SPVgNeXsNuvdIudtqVFzv_UNkudtrvcxqyFhvDdxyEu1cd7r-T1S___dRR03VPkU0_rOMMnMJZPBt4cqvD7U0PSlwVibsoM2DP0tWnB6CuhCjfPktrlVUOvMrjU2D1XIwJrSIksFRWE7GDX2Gs6OM75sCfCrmJ35jJIp_bW3-9zqGrhP1r1TDMz8u-kt1RIPLgmeE0N2AFGzeFeathtAn8iGIU6f5d87OMpeei8ukCdj8OHJiffl-qXl5-8KH62T-VpofBXrShwl3ZTcQ-iIqafNkmtkHPeYiXxLBRQkEnRjh47UywU1PMg9tJ9u5Oe2juedwXqYcJEl1TYuzi1A7BLRZV2CkxA1gvCrVIo1rYR-EkhB6qFi77q99oIf0l3Ywj9XLBN5hhn2ISxMfOXfM60vpLtVB6h8aJkDA1DIDGoPnHMjj6zvwp5IUcKBGXran9JZYJTbsb-n1hhXxuPIb0xwX0dyDUT0ih-bM9GcBTGTdIqYNWVnSfk2r-S6K4TcoAEZTs3_TAgozNv_qld_I3ortEhhR1lm00]--></g></svg>