<svg xmlns="http://www.w3.org/2000/svg" xmlns:xlink="http://www.w3.org/1999/xlink" contentStyleType="text/css" height="735px" preserveAspectRatio="none" style="width:1084px;height:735px;background:#24273A;" version="1.1" viewBox="0 0 1084 735" width="1084px" zoomAndPan="magnify"><defs/><g><rect fill="#24273A" height="735" style="stroke:none;stroke-width:1.0;" width="1084" x="0" y="0"/><!--class Kind--><g id="elem_Kind"><rect codeLine="4" fill="#24273A" height="30" id="Kind" rx="1.5" ry="1.5" style="stroke:#C6A0F6;stroke-width:2.0;" width="88.0254" x="862.66" y="698"/><rect fill="#363A4F" height="30" rx="1.5" ry="1.5" style="stroke:#363A4F;stroke-width:2.0;" width="88.0254" x="862.66" y="698"/><rect fill="#363A4F" height="1.5" style="stroke:#363A4F;stroke-width:2.0;" width="88.0254" x="862.66" y="726.5"/><rect codeLine="4" fill="none" height="30" id="Kind" rx="1.5" ry="1.5" style="stroke:#C6A0F6;stroke-width:2.0;" width="88.0254" x="862.66" y="698"/><ellipse cx="876.66" cy="713" fill="#B4A7E5" rx="10" ry="10" style="stroke:#181818;stroke-width:1.0;"/><path d="M873.6678,710.2754 L873.6678,708.752 L878.8768,708.752 L878.8768,710.2754 L877.1366,710.2754 L877.1366,715.9766 L878.8768,715.9766 L878.8768,717.5 L873.6678,717.5 L873.6678,715.9766 L875.408,715.9766 L875.408,710.2754 Z " fill="#CAD3F5"/><text fill="#A6DA95" font-family="Helvetica" font-size="16" font-style="italic" lengthAdjust="spacing" textLength="32.0234" x="889.66" y="717.3203">Kind</text><rect fill="#24273A" height="14" style="stroke:#C6A0F6;stroke-width:1.0;stroke-dasharray:2.0,2.0;" width="24.002" x="929.6834" y="695"/><text fill="#CAD3F5" font-family="Helvetica" font-size="12" font-style="italic" lengthAdjust="spacing" textLength="22.002" x="930.6834" y="705.2402">F, A</text></g><!--class Functor--><g id="elem_Functor"><rect codeLine="5" fill="#24273A" height="30" id="Functor" rx="1.5" ry="1.5" style="stroke:#C6A0F6;stroke-width:2.0;" width="95.5723" x="786.89" y="574"/><rect fill="#363A4F" height="30" rx="1.5" ry="1.5" style="stroke:#363A4F;stroke-width:2.0;" width="95.5723" x="786.89" y="574"/><rect fill="#363A4F" height="1.5" style="stroke:#363A4F;stroke-width:2.0;" width="95.5723" x="786.89" y="602.5"/><rect codeLine="5" fill="none" height="30" id="Functor" rx="1.5" ry="1.5" style="stroke:#C6A0F6;stroke-width:2.0;" width="95.5723" x="786.89" y="574"/><ellipse cx="800.89" cy="589" fill="#B4A7E5" rx="10" ry="10" style="stroke:#181818;stroke-width:1.0;"/><path d="M797.8978,586.2754 L797.8978,584.752 L803.1068,584.752 L803.1068,586.2754 L801.3666,586.2754 L801.3666,591.9766 L803.1068,591.9766 L803.1068,593.5 L797.8978,593.5 L797.8978,591.9766 L799.638,591.9766 L799.638,586.2754 Z " fill="#CAD3F5"/><text fill="#A6DA95" font-family="Helvetica" font-size="16" font-style="italic" lengthAdjust="spacing" textLength="54.2422" x="813.89" y="593.3203">Functor</text><rect fill="#24273A" height="14" style="stroke:#C6A0F6;stroke-width:1.0;stroke-dasharray:2.0,2.0;" width="9.3301" x="876.1322" y="571"/><text fill="#CAD3F5" font-family="Helvetica" font-size="12" font-style="italic" lengthAdjust="spacing" textLength="7.3301" x="877.1322" y="581.2402">F</text></g><!--class Applicative--><g id="elem_Applicative"><rect codeLine="6" fill="#24273A" height="30" id="Applicative" rx="1.5" ry="1.5" style="stroke:#C6A0F6;stroke-width:2.0;" width="118.7051" x="865.32" y="399"/><rect fill="#363A4F" height="30" rx="1.5" ry="1.5" style="stroke:#363A4F;stroke-width:2.0;" width="118.7051" x="865.32" y="399"/><rect fill="#363A4F" height="1.5" style="stroke:#363A4F;stroke-width:2.0;" width="118.7051" x="865.32" y="427.5"/><rect codeLine="6" fill="none" height="30" id="Applicative" rx="1.5" ry="1.5" style="stroke:#C6A0F6;stroke-width:2.0;" width="118.7051" x="865.32" y="399"/><ellipse cx="879.32" cy="414" fill="#B4A7E5" rx="10" ry="10" style="stroke:#181818;stroke-width:1.0;"/><path d="M876.3278,411.2754 L876.3278,409.752 L881.5368,409.752 L881.5368,411.2754 L879.7966,411.2754 L879.7966,416.9766 L881.5368,416.9766 L881.5368,418.5 L876.3278,418.5 L876.3278,416.9766 L878.068,416.9766 L878.068,411.2754 Z " fill="#CAD3F5"/><text fill="#A6DA95" font-family="Helvetica" font-size="16" font-style="italic" lengthAdjust="spacing" textLength="77.375" x="892.32" y="418.3203">Applicative</text><rect fill="#24273A" height="14" style="stroke:#C6A0F6;stroke-width:1.0;stroke-dasharray:2.0,2.0;" width="9.3301" x="977.695" y="396"/><text fill="#CAD3F5" font-family="Helvetica" font-size="12" font-style="italic" lengthAdjust="spacing" textLength="7.3301" x="978.695" y="406.2402">F</text></g><!--class MonadBase--><g id="elem_MonadBase"><rect codeLine="7" fill="#24273A" height="30" id="MonadBase" rx="1.5" ry="1.5" style="stroke:#C6A0F6;stroke-width:2.0;" width="92.918" x="872.21" y="223"/><rect fill="#363A4F" height="30" rx="1.5" ry="1.5" style="stroke:#363A4F;stroke-width:2.0;" width="92.918" x="872.21" y="223"/><rect fill="#363A4F" height="1.5" style="stroke:#363A4F;stroke-width:2.0;" width="92.918" x="872.21" y="251.5"/><rect codeLine="7" fill="none" height="30" id="MonadBase" rx="1.5" ry="1.5" style="stroke:#C6A0F6;stroke-width:2.0;" width="92.918" x="872.21" y="223"/><ellipse cx="886.21" cy="238" fill="#B4A7E5" rx="10" ry="10" style="stroke:#181818;stroke-width:1.0;"/><path d="M883.2178,235.2754 L883.2178,233.752 L888.4268,233.752 L888.4268,235.2754 L886.6866,235.2754 L886.6866,240.9766 L888.4268,240.9766 L888.4268,242.5 L883.2178,242.5 L883.2178,240.9766 L884.958,240.9766 L884.958,235.2754 Z " fill="#CAD3F5"/><text fill="#A6DA95" font-family="Helvetica" font-size="16" font-style="italic" lengthAdjust="spacing" textLength="48.9219" x="899.21" y="242.3203">Monad</text><rect fill="#24273A" height="14" style="stroke:#C6A0F6;stroke-width:1.0;stroke-dasharray:2.0,2.0;" width="11.9961" x="956.1319" y="220"/><text fill="#CAD3F5" font-family="Helvetica" font-size="12" font-style="italic" lengthAdjust="spacing" textLength="9.9961" x="957.1319" y="230.2402">M</text></g><!--class MonadErrorBase--><g id="elem_MonadErrorBase"><rect codeLine="8" fill="#24273A" height="30" id="MonadErrorBase" rx="1.5" ry="1.5" style="stroke:#C6A0F6;stroke-width:2.0;" width="143.1445" x="750.1" y="111"/><rect fill="#363A4F" height="30" rx="1.5" ry="1.5" style="stroke:#363A4F;stroke-width:2.0;" width="143.1445" x="750.1" y="111"/><rect fill="#363A4F" height="1.5" style="stroke:#363A4F;stroke-width:2.0;" width="143.1445" x="750.1" y="139.5"/><rect codeLine="8" fill="none" height="30" id="MonadErrorBase" rx="1.5" ry="1.5" style="stroke:#C6A0F6;stroke-width:2.0;" width="143.1445" x="750.1" y="111"/><ellipse cx="764.1" cy="126" fill="#B4A7E5" rx="10" ry="10" style="stroke:#181818;stroke-width:1.0;"/><path d="M761.1078,123.2754 L761.1078,121.752 L766.3168,121.752 L766.3168,123.2754 L764.5766,123.2754 L764.5766,128.9766 L766.3168,128.9766 L766.3168,130.5 L761.1078,130.5 L761.1078,128.9766 L762.848,128.9766 L762.848,123.2754 Z " fill="#CAD3F5"/><text fill="#A6DA95" font-family="Helvetica" font-size="16" font-style="italic" lengthAdjust="spacing" textLength="84.4766" x="777.1" y="130.3203">MonadError</text><rect fill="#24273A" height="14" style="stroke:#C6A0F6;stroke-width:1.0;stroke-dasharray:2.0,2.0;" width="26.668" x="869.5766" y="108"/><text fill="#CAD3F5" font-family="Helvetica" font-size="12" font-style="italic" lengthAdjust="spacing" textLength="24.668" x="870.5766" y="118.2402">M, E</text></g><!--class MaybeInterface--><g id="elem_MaybeInterface"><rect codeLine="11" fill="#24273A" height="158" id="MaybeInterface" rx="1.5" ry="1.5" style="stroke:#C6A0F6;stroke-width:2.0;" width="224.4004" x="91.47" y="335"/><rect fill="#363A4F" height="30" rx="1.5" ry="1.5" style="stroke:#363A4F;stroke-width:2.0;" width="224.4004" x="91.47" y="335"/><rect fill="#363A4F" height="1.5" style="stroke:#363A4F;stroke-width:2.0;" width="224.4004" x="91.47" y="363.5"/><rect codeLine="11" fill="none" height="158" id="MaybeInterface" rx="1.5" ry="1.5" style="stroke:#C6A0F6;stroke-width:2.0;" width="224.4004" x="91.47" y="335"/><ellipse cx="169.9934" cy="350" fill="#ADD8E6" rx="10" ry="10" style="stroke:#181818;stroke-width:1.0;"/><path d="M166.4973,345.752 L168.5598,345.752 L169.6028,349.5898 L170.6399,345.752 L172.7141,345.752 L172.7141,354.5 L171.2259,354.5 L171.2259,347.4922 L170.3001,351.3184 L168.9231,351.3184 L167.9856,347.4922 L167.9856,354.5 L166.4973,354.5 Z " fill="#CAD3F5"/><text fill="#A6DA95" font-family="Helvetica" font-size="16" font-style="italic" lengthAdjust="spacing" textLength="48.0234" x="188.9934" y="354.3203">Maybe</text><rect fill="#24273A" height="14" style="stroke:#C6A0F6;stroke-width:1.0;stroke-dasharray:2.0,2.0;" width="9.3301" x="309.5403" y="332"/><text fill="#CAD3F5" font-family="Helvetica" font-size="12" font-style="italic" lengthAdjust="spacing" textLength="7.3301" x="310.5403" y="342.2402">T</text><line style="stroke:#C6A0F6;stroke-width:2.0;" x1="92.47" x2="314.8704" y1="365" y2="365"/><ellipse cx="102.47" cy="376.5" fill="#84BE84" rx="3" ry="3" style="stroke:#038048;stroke-width:1.0;"/><text fill="#A6DA95" font-family="Helvetica" font-size="12" lengthAdjust="spacing" textLength="150.7148" x="110.47" y="378.2402">static &lt;T&gt; Maybe&lt;T&gt; just(T)</text><ellipse cx="102.47" cy="388.5" fill="#84BE84" rx="3" ry="3" style="stroke:#038048;stroke-width:1.0;"/><text fill="#A6DA95" font-family="Helvetica" font-size="12" lengthAdjust="spacing" textLength="164.0801" x="110.47" y="390.2402">static &lt;T&gt; Maybe&lt;T&gt; nothing()</text><ellipse cx="102.47" cy="400.5" fill="#84BE84" rx="3" ry="3" style="stroke:#038048;stroke-width:1.0;"/><text fill="#A6DA95" font-family="Helvetica" font-size="12" lengthAdjust="spacing" textLength="199.4004" x="110.47" y="402.2402">static &lt;T&gt; Maybe&lt;T&gt; fromNullable(T)</text><ellipse cx="102.47" cy="412.5" fill="#84BE84" rx="3" ry="3" style="stroke:#038048;stroke-width:1.0;"/><text fill="#A6DA95" font-family="Helvetica" font-size="12" lengthAdjust="spacing" textLength="84.709" x="110.47" y="414.2402">boolean isJust()</text><ellipse cx="102.47" cy="424.5" fill="#84BE84" rx="3" ry="3" style="stroke:#038048;stroke-width:1.0;"/><text fill="#A6DA95" font-family="Helvetica" font-size="12" lengthAdjust="spacing" textLength="104.0625" x="110.47" y="426.2402">boolean isNothing()</text><ellipse cx="102.47" cy="436.5" fill="#84BE84" rx="3" ry="3" style="stroke:#038048;stroke-width:1.0;"/><text fill="#A6DA95" font-family="Helvetica" font-size="12" lengthAdjust="spacing" textLength="35.3379" x="110.47" y="438.2402">T get()</text><ellipse cx="102.47" cy="448.5" fill="#84BE84" rx="3" ry="3" style="stroke:#038048;stroke-width:1.0;"/><text fill="#A6DA95" font-family="Helvetica" font-size="12" lengthAdjust="spacing" textLength="60" x="110.47" y="450.2402">T orElse(T)</text><ellipse cx="102.47" cy="460.5" fill="#84BE84" rx="3" ry="3" style="stroke:#038048;stroke-width:1.0;"/><text fill="#A6DA95" font-family="Helvetica" font-size="12" lengthAdjust="spacing" textLength="137.3848" x="110.47" y="462.2402">T orElseGet(Supplier&lt;T&gt;)</text><ellipse cx="102.47" cy="472.5" fill="#84BE84" rx="3" ry="3" style="stroke:#038048;stroke-width:1.0;"/><text fill="#A6DA95" font-family="Helvetica" font-size="12" lengthAdjust="spacing" textLength="36.0176" x="110.47" y="474.2402">Maybe</text><text fill="#A6DA95" font-family="Helvetica" font-size="12" lengthAdjust="spacing" text-decoration="underline" textLength="110.707" x="149.8216" y="474.2402">map(Function&lt;T,U&gt;)</text><ellipse cx="102.47" cy="484.5" fill="#84BE84" rx="3" ry="3" style="stroke:#038048;stroke-width:1.0;"/><text fill="#A6DA95" font-family="Helvetica" font-size="12" lengthAdjust="spacing" textLength="36.0176" x="110.47" y="486.2402">Maybe</text><text fill="#A6DA95" font-family="Helvetica" font-size="12" lengthAdjust="spacing" text-decoration="underline" textLength="143.0625" x="149.8216" y="486.2402">flatMap(Function&lt;T,Maybe</text><text fill="#A6DA95" font-family="Helvetica" font-size="12" lengthAdjust="spacing" text-decoration="underline" textLength="11.0039" x="292.8841" y="486.2402">&gt;)</text></g><!--class Just<T>--><g id="elem_Just&lt;T&gt;"><rect codeLine="24" fill="#24273A" height="70" id="Just&lt;T&gt;" rx="1.5" ry="1.5" style="stroke:#C6A0F6;stroke-width:2.0;" width="87.8047" x="220.77" y="554"/><rect fill="#363A4F" height="30" rx="1.5" ry="1.5" style="stroke:#363A4F;stroke-width:2.0;" width="87.8047" x="220.77" y="554"/><rect fill="#363A4F" height="1.5" style="stroke:#363A4F;stroke-width:2.0;" width="87.8047" x="220.77" y="582.5"/><rect codeLine="24" fill="none" height="70" id="Just&lt;T&gt;" rx="1.5" ry="1.5" style="stroke:#C6A0F6;stroke-width:2.0;" width="87.8047" x="220.77" y="554"/><ellipse cx="234.77" cy="569" fill="#ADD1B2" rx="10" ry="10" style="stroke:#181818;stroke-width:1.0;"/><path d="M236.604,573.248 Q236.1938,573.459 235.7427,573.5645 Q235.2915,573.6699 234.7934,573.6699 Q233.0239,573.6699 232.0923,572.5039 Q231.1606,571.3379 231.1606,569.1348 Q231.1606,566.9258 232.0923,565.7598 Q233.0239,564.5938 234.7934,564.5938 Q235.2915,564.5938 235.7485,564.6992 Q236.2055,564.8047 236.604,565.0156 L236.604,566.9375 Q236.1587,566.5273 235.7397,566.3369 Q235.3208,566.1465 234.8755,566.1465 Q233.9263,566.1465 233.4429,566.8994 Q232.9595,567.6523 232.9595,569.1348 Q232.9595,570.6113 233.4429,571.3643 Q233.9263,572.1172 234.8755,572.1172 Q235.3208,572.1172 235.7397,571.9268 Q236.1587,571.7363 236.604,571.3262 Z " fill="#CAD3F5"/><text fill="#A6DA95" font-family="Helvetica" font-size="16" lengthAdjust="spacing" textLength="57.8047" x="247.77" y="573.3203">Just&lt;T&gt;</text><line style="stroke:#C6A0F6;stroke-width:2.0;" x1="221.77" x2="307.5747" y1="584" y2="584"/><rect fill="none" height="6" style="stroke:#C82930;stroke-width:1.0;" width="6" x="228.77" y="592.5"/><text fill="#A6DA95" font-family="Helvetica" font-size="12" lengthAdjust="spacing" textLength="39.3516" x="239.77" y="597.2402">T value</text><line style="stroke:#C6A0F6;stroke-width:2.0;" x1="221.77" x2="307.5747" y1="604" y2="604"/><ellipse cx="231.77" cy="615.5" fill="#84BE84" rx="3" ry="3" style="stroke:#038048;stroke-width:1.0;"/><text fill="#A6DA95" font-family="Helvetica" font-size="12" lengthAdjust="spacing" textLength="37.3301" x="239.77" y="617.2402">Just(T)</text></g><!--class Nothing<T>--><g id="elem_Nothing&lt;T&gt;"><rect codeLine="29" fill="#24273A" height="70" id="Nothing&lt;T&gt;" rx="1.5" ry="1.5" style="stroke:#C6A0F6;stroke-width:2.0;" width="199.75" x="343.8" y="554"/><rect fill="#363A4F" height="30" rx="1.5" ry="1.5" style="stroke:#363A4F;stroke-width:2.0;" width="199.75" x="343.8" y="554"/><rect fill="#363A4F" height="1.5" style="stroke:#363A4F;stroke-width:2.0;" width="199.75" x="343.8" y="582.5"/><rect codeLine="29" fill="none" height="70" id="Nothing&lt;T&gt;" rx="1.5" ry="1.5" style="stroke:#C6A0F6;stroke-width:2.0;" width="199.75" x="343.8" y="554"/><ellipse cx="397.8703" cy="569" fill="#ADD1B2" rx="10" ry="10" style="stroke:#181818;stroke-width:1.0;"/><path d="M399.7043,573.248 Q399.2941,573.459 398.843,573.5645 Q398.3918,573.6699 397.8938,573.6699 Q396.1242,573.6699 395.1926,572.5039 Q394.2609,571.3379 394.2609,569.1348 Q394.2609,566.9258 395.1926,565.7598 Q396.1242,564.5938 397.8938,564.5938 Q398.3918,564.5938 398.8488,564.6992 Q399.3059,564.8047 399.7043,565.0156 L399.7043,566.9375 Q399.259,566.5273 398.84,566.3369 Q398.4211,566.1465 397.9758,566.1465 Q397.0266,566.1465 396.5432,566.8994 Q396.0598,567.6523 396.0598,569.1348 Q396.0598,570.6113 396.5432,571.3643 Q397.0266,572.1172 397.9758,572.1172 Q398.4211,572.1172 398.84,571.9268 Q399.259,571.7363 399.7043,571.3262 Z " fill="#CAD3F5"/><text fill="#A6DA95" font-family="Helvetica" font-size="16" lengthAdjust="spacing" textLength="83.6094" x="416.8703" y="573.3203">Nothing&lt;T&gt;</text><line style="stroke:#C6A0F6;stroke-width:2.0;" x1="344.8" x2="542.55" y1="584" y2="584"/><rect fill="none" height="6" style="stroke:#C82930;stroke-width:1.0;" width="6" x="351.8" y="592.5"/><text fill="#A6DA95" font-family="Helvetica" font-size="12" lengthAdjust="spacing" textLength="157.4004" x="362.8" y="597.2402">static Nothing&lt;?&gt; INSTANCE</text><line style="stroke:#C6A0F6;stroke-width:2.0;" x1="344.8" x2="542.55" y1="604" y2="604"/><ellipse cx="354.8" cy="615.5" fill="#84BE84" rx="3" ry="3" style="stroke:#038048;stroke-width:1.0;"/><text fill="#A6DA95" font-family="Helvetica" font-size="12" lengthAdjust="spacing" textLength="174.75" x="362.8" y="617.2402">static &lt;T&gt; Nothing&lt;T&gt; instance()</text></g><!--class MaybeKindBase--><g id="elem_MaybeKindBase"><rect codeLine="34" fill="#24273A" height="30" id="MaybeKindBase" rx="1.5" ry="1.5" style="stroke:#C6A0F6;stroke-width:2.0;" width="122.0508" x="917.65" y="574"/><rect fill="#363A4F" height="30" rx="1.5" ry="1.5" style="stroke:#363A4F;stroke-width:2.0;" width="122.0508" x="917.65" y="574"/><rect fill="#363A4F" height="1.5" style="stroke:#363A4F;stroke-width:2.0;" width="122.0508" x="917.65" y="602.5"/><rect codeLine="34" fill="none" height="30" id="MaybeKindBase" rx="1.5" ry="1.5" style="stroke:#C6A0F6;stroke-width:2.0;" width="122.0508" x="917.65" y="574"/><ellipse cx="931.65" cy="589" fill="#87CEFA" rx="10" ry="10" style="stroke:#181818;stroke-width:1.0;"/><path d="M927.8355,584.752 L929.5641,584.752 L929.5641,588.209 L932.2711,584.752 L934.2281,584.752 L931.4684,588.1973 L934.3277,593.5 L932.4059,593.5 L930.3316,589.5625 L929.5641,590.5352 L929.5641,593.5 L927.8355,593.5 Z " fill="#CAD3F5"/><text fill="#A6DA95" font-family="Helvetica" font-size="16" font-style="italic" lengthAdjust="spacing" textLength="80.0469" x="944.65" y="593.3203">MaybeKind</text><rect fill="#24273A" height="14" style="stroke:#C6A0F6;stroke-width:1.0;stroke-dasharray:2.0,2.0;" width="10.0039" x="1032.6969" y="571"/><text fill="#CAD3F5" font-family="Helvetica" font-size="12" font-style="italic" lengthAdjust="spacing" textLength="8.0039" x="1033.6969" y="581.2402">A</text></g><!--class MaybeKindHelper--><g id="elem_MaybeKindHelper"><rect codeLine="38" fill="#24273A" height="30" id="MaybeKindHelper" rx="1.5" ry="1.5" style="stroke:#C6A0F6;stroke-width:2.0;" width="157.1797" x="125.08" y="223"/><rect fill="#363A4F" height="30" rx="1.5" ry="1.5" style="stroke:#363A4F;stroke-width:2.0;" width="157.1797" x="125.08" y="223"/><rect fill="#363A4F" height="1.5" style="stroke:#363A4F;stroke-width:2.0;" width="157.1797" x="125.08" y="251.5"/><rect codeLine="38" fill="none" height="30" id="MaybeKindHelper" rx="1.5" ry="1.5" style="stroke:#C6A0F6;stroke-width:2.0;" width="157.1797" x="125.08" y="223"/><ellipse cx="139.08" cy="238" fill="#808080" rx="10" ry="10" style="stroke:#181818;stroke-width:1.0;"/><path d="M135.8827,233.752 L137.6112,233.752 L137.6112,237.0859 L139.7734,237.0859 L139.7734,233.752 L141.5019,233.752 L141.5019,242.5 L139.7734,242.5 L139.7734,238.6094 L137.6112,238.6094 L137.6112,242.5 L135.8827,242.5 Z " fill="#CAD3F5"/><text fill="#A6DA95" font-family="Helvetica" font-size="16" lengthAdjust="spacing" textLength="127.1797" x="152.08" y="242.3203">MaybeKindHelper</text></g><g id="elem_GMN14"><path d="M317.41,216.5 L317.41,234 L282.55,238 L317.41,242 L317.41,259.5 A1.5,1.5 0 0 0 318.91,261 L742.4432,261 A1.5,1.5 0 0 0 743.9432,259.5 L743.9432,225 L733.9432,215 L318.91,215 A1.5,1.5 0 0 0 317.41,216.5 " fill="#EED49F" style="stroke:#24273A;stroke-width:0.5;"/><path d="M733.9432,215 L733.9432,224.25 A0.75,0.75 0 0 0 734.6932,225 L743.9432,225 L733.9432,215 " fill="#EED49F" style="stroke:#24273A;stroke-width:0.5;"/><text fill="#24273A" font-family="Helvetica" font-size="12" lengthAdjust="spacing" textLength="228.7031" x="323.41" y="229.2402">Contains internal 'MaybeHolder&lt;A&gt; record'</text><text fill="#24273A" font-family="Helvetica" font-size="12" lengthAdjust="spacing" textLength="184.0898" x="323.41" y="241.2402">which implements MaybeKind&lt;A&gt;.</text><text fill="#24273A" font-family="Helvetica" font-size="12" lengthAdjust="spacing" textLength="405.5332" x="323.41" y="253.2402">`record MaybeHolder&lt;A&gt;(Maybe&lt;A&gt; maybe) implements MaybeKind&lt;A&gt; {}`</text></g><!--class MaybeFunctorImpl--><g id="elem_MaybeFunctorImpl"><rect codeLine="52" fill="#24273A" height="30" id="MaybeFunctorImpl" rx="1.5" ry="1.5" style="stroke:#C6A0F6;stroke-width:2.0;" width="132.2656" x="499.54" y="111"/><rect fill="#363A4F" height="30" rx="1.5" ry="1.5" style="stroke:#363A4F;stroke-width:2.0;" width="132.2656" x="499.54" y="111"/><rect fill="#363A4F" height="1.5" style="stroke:#363A4F;stroke-width:2.0;" width="132.2656" x="499.54" y="139.5"/><rect codeLine="52" fill="none" height="30" id="MaybeFunctorImpl" rx="1.5" ry="1.5" style="stroke:#C6A0F6;stroke-width:2.0;" width="132.2656" x="499.54" y="111"/><ellipse cx="513.54" cy="126" fill="#ADD1B2" rx="10" ry="10" style="stroke:#181818;stroke-width:1.0;"/><path d="M515.374,130.248 Q514.9638,130.459 514.5127,130.5645 Q514.0615,130.6699 513.5634,130.6699 Q511.7939,130.6699 510.8623,129.5039 Q509.9306,128.3379 509.9306,126.1348 Q509.9306,123.9258 510.8623,122.7598 Q511.7939,121.5938 513.5634,121.5938 Q514.0615,121.5938 514.5185,121.6992 Q514.9755,121.8047 515.374,122.0156 L515.374,123.9375 Q514.9287,123.5273 514.5097,123.3369 Q514.0908,123.1465 513.6455,123.1465 Q512.6963,123.1465 512.2129,123.8994 Q511.7295,124.6523 511.7295,126.1348 Q511.7295,127.6113 512.2129,128.3643 Q512.6963,129.1172 513.6455,129.1172 Q514.0908,129.1172 514.5097,128.9268 Q514.9287,128.7363 515.374,128.3262 Z " fill="#CAD3F5"/><text fill="#A6DA95" font-family="Helvetica" font-size="16" lengthAdjust="spacing" textLength="102.2656" x="526.54" y="130.3203">MaybeFunctor</text></g><!--class MaybeMonadImpl--><g id="elem_MaybeMonadImpl"><rect codeLine="56" fill="#24273A" height="30" id="MaybeMonadImpl" rx="1.5" ry="1.5" style="stroke:#C6A0F6;stroke-width:2.0;" width="126.9453" x="502.2" y="7"/><rect fill="#363A4F" height="30" rx="1.5" ry="1.5" style="stroke:#363A4F;stroke-width:2.0;" width="126.9453" x="502.2" y="7"/><rect fill="#363A4F" height="1.5" style="stroke:#363A4F;stroke-width:2.0;" width="126.9453" x="502.2" y="35.5"/><rect codeLine="56" fill="none" height="30" id="MaybeMonadImpl" rx="1.5" ry="1.5" style="stroke:#C6A0F6;stroke-width:2.0;" width="126.9453" x="502.2" y="7"/><ellipse cx="516.2" cy="22" fill="#ADD1B2" rx="10" ry="10" style="stroke:#181818;stroke-width:1.0;"/><path d="M518.034,26.248 Q517.6238,26.459 517.1727,26.5645 Q516.7215,26.6699 516.2234,26.6699 Q514.4539,26.6699 513.5223,25.5039 Q512.5906,24.3379 512.5906,22.1348 Q512.5906,19.9258 513.5223,18.7598 Q514.4539,17.5938 516.2234,17.5938 Q516.7215,17.5938 517.1785,17.6992 Q517.6355,17.8047 518.034,18.0156 L518.034,19.9375 Q517.5887,19.5273 517.1697,19.3369 Q516.7508,19.1465 516.3055,19.1465 Q515.3563,19.1465 514.8729,19.8994 Q514.3895,20.6523 514.3895,22.1348 Q514.3895,23.6113 514.8729,24.3643 Q515.3563,25.1172 516.3055,25.1172 Q516.7508,25.1172 517.1697,24.9268 Q517.5887,24.7363 518.034,24.3262 Z " fill="#CAD3F5"/><text fill="#A6DA95" font-family="Helvetica" font-size="16" lengthAdjust="spacing" textLength="96.9453" x="529.2" y="26.3203">MaybeMonad</text></g><!--class Just--><g id="elem_Just"><rect fill="#24273A" height="30" id="Just" rx="1.5" ry="1.5" style="stroke:#C6A0F6;stroke-width:2.0;" width="59.3438" x="7" y="574"/><rect fill="#363A4F" height="30" rx="1.5" ry="1.5" style="stroke:#363A4F;stroke-width:2.0;" width="59.3438" x="7" y="574"/><rect fill="#363A4F" height="1.5" style="stroke:#363A4F;stroke-width:2.0;" width="59.3438" x="7" y="602.5"/><rect fill="none" height="30" id="Just" rx="1.5" ry="1.5" style="stroke:#C6A0F6;stroke-width:2.0;" width="59.3438" x="7" y="574"/><ellipse cx="21" cy="589" fill="#ADD1B2" rx="10" ry="10" style="stroke:#181818;stroke-width:1.0;"/><path d="M22.834,593.248 Q22.4238,593.459 21.9727,593.5645 Q21.5215,593.6699 21.0234,593.6699 Q19.2539,593.6699 18.3223,592.5039 Q17.3906,591.3379 17.3906,589.1348 Q17.3906,586.9258 18.3223,585.7598 Q19.2539,584.5938 21.0234,584.5938 Q21.5215,584.5938 21.9785,584.6992 Q22.4355,584.8047 22.834,585.0156 L22.834,586.9375 Q22.3887,586.5273 21.9697,586.3369 Q21.5508,586.1465 21.1055,586.1465 Q20.1563,586.1465 19.6729,586.8994 Q19.1895,587.6523 19.1895,589.1348 Q19.1895,590.6113 19.6729,591.3643 Q20.1563,592.1172 21.1055,592.1172 Q21.5508,592.1172 21.9697,591.9268 Q22.3887,591.7363 22.834,591.3262 Z " fill="#CAD3F5"/><text fill="#A6DA95" font-family="Helvetica" font-size="16" lengthAdjust="spacing" textLength="29.3438" x="34" y="593.3203">Just</text></g><!--class Nothing--><g id="elem_Nothing"><rect fill="#24273A" height="30" id="Nothing" rx="1.5" ry="1.5" style="stroke:#C6A0F6;stroke-width:2.0;" width="85.1484" x="101.1" y="574"/><rect fill="#363A4F" height="30" rx="1.5" ry="1.5" style="stroke:#363A4F;stroke-width:2.0;" width="85.1484" x="101.1" y="574"/><rect fill="#363A4F" height="1.5" style="stroke:#363A4F;stroke-width:2.0;" width="85.1484" x="101.1" y="602.5"/><rect fill="none" height="30" id="Nothing" rx="1.5" ry="1.5" style="stroke:#C6A0F6;stroke-width:2.0;" width="85.1484" x="101.1" y="574"/><ellipse cx="115.1" cy="589" fill="#ADD1B2" rx="10" ry="10" style="stroke:#181818;stroke-width:1.0;"/><path d="M116.934,593.248 Q116.5238,593.459 116.0727,593.5645 Q115.6215,593.6699 115.1234,593.6699 Q113.3539,593.6699 112.4223,592.5039 Q111.4906,591.3379 111.4906,589.1348 Q111.4906,586.9258 112.4223,585.7598 Q113.3539,584.5938 115.1234,584.5938 Q115.6215,584.5938 116.0785,584.6992 Q116.5355,584.8047 116.934,585.0156 L116.934,586.9375 Q116.4887,586.5273 116.0697,586.3369 Q115.6508,586.1465 115.2055,586.1465 Q114.2563,586.1465 113.7729,586.8994 Q113.2895,587.6523 113.2895,589.1348 Q113.2895,590.6113 113.7729,591.3643 Q114.2563,592.1172 115.2055,592.1172 Q115.6508,592.1172 116.0697,591.9268 Q116.4887,591.7363 116.934,591.3262 Z " fill="#CAD3F5"/><text fill="#A6DA95" font-family="Helvetica" font-size="16" lengthAdjust="spacing" textLength="55.1484" x="128.1" y="593.3203">Nothing</text></g><!--reverse link MaybeInterface to Just<T>--><g id="link_MaybeInterface_Just&lt;T&gt;"><path d="M237.3057,510.3756 C244.7457,531.4756 246.42,536.25 252.53,553.56 " fill="none" id="MaybeInterface-backto-Just&lt;T&gt;" style="stroke:#F5BDE6;stroke-width:1.0;"/><polygon fill="none" points="231.32,493.4,231.6472,512.3708,242.9642,508.3804,231.32,493.4" style="stroke:#F5BDE6;stroke-width:1.0;"/></g><!--reverse link MaybeInterface to Nothing<T>--><g id="link_MaybeInterface_Nothing&lt;T&gt;"><path d="M327.0416,503.9259 C356.3116,525.0259 371.88,536.25 395.9,553.56 " fill="none" id="MaybeInterface-backto-Nothing&lt;T&gt;" style="stroke:#F5BDE6;stroke-width:1.0;"/><polygon fill="none" points="312.44,493.4,323.5329,508.7931,330.5502,499.0587,312.44,493.4" style="stroke:#F5BDE6;stroke-width:1.0;"/></g><!--link MonadErrorBase to MonadBase--><g id="link_MonadErrorBase_MonadBase"><path codeLine="66" d="M834.35,141.38 C852.94,162.46 875.4976,188.0269 894.0876,209.1169 " fill="none" id="MonadErrorBase-to-MonadBase" style="stroke:#F5BDE6;stroke-width:1.0;"/><polygon fill="none" points="905.99,222.62,898.5886,205.1495,889.5866,213.0844,905.99,222.62" style="stroke:#F5BDE6;stroke-width:1.0;"/></g><!--link MonadBase to Applicative--><g id="link_MonadBase_Applicative"><path codeLine="67" d="M919.16,253.24 C920.29,285.87 922.4204,347.7607 923.5504,380.5707 " fill="none" id="MonadBase-to-Applicative" style="stroke:#F5BDE6;stroke-width:1.0;"/><polygon fill="none" points="924.17,398.56,929.5469,380.3641,917.554,380.7772,924.17,398.56" style="stroke:#F5BDE6;stroke-width:1.0;"/></g><!--link Applicative to Functor--><g id="link_Applicative_Functor"><path codeLine="68" d="M917.15,429.45 C900.17,462.1 867.3164,525.2511 850.4164,557.7411 " fill="none" id="Applicative-to-Functor" style="stroke:#F5BDE6;stroke-width:1.0;"/><polygon fill="none" points="842.11,573.71,855.7393,560.5099,845.0934,554.9724,842.11,573.71" style="stroke:#F5BDE6;stroke-width:1.0;"/></g><!--link Functor to Kind--><g id="link_Functor_Kind"><path codeLine="69" d="M843.21,604.47 C857.07,627.95 875.1391,658.5796 888.9891,682.0396 " fill="none" id="Functor-to-Kind" style="stroke:#F5BDE6;stroke-width:1.0;"/><polygon fill="none" points="898.14,697.54,894.1559,678.9893,883.8223,685.0899,898.14,697.54" style="stroke:#F5BDE6;stroke-width:1.0;"/></g><!--link MaybeKindBase to Kind--><g id="link_MaybeKindBase_Kind"><path codeLine="71" d="M970.13,604.47 C956.27,627.95 938.2009,658.5796 924.3509,682.0396 " fill="none" id="MaybeKindBase-to-Kind" style="stroke:#F5BDE6;stroke-width:1.0;"/><polygon fill="none" points="915.2,697.54,929.5177,685.0899,919.1841,678.9893,915.2,697.54" style="stroke:#F5BDE6;stroke-width:1.0;"/><text fill="#CAD3F5" font-family="Helvetica" font-size="12" lengthAdjust="spacing" textLength="134.7305" x="941.51" y="664.2402">&lt;MaybeKind.Witness, A&gt;</text></g><!--link MaybeFunctorImpl to Functor--><g id="link_MaybeFunctorImpl_Functor"><path codeLine="73" d="M632.28,140.29 C675.61,152.43 729.78,174.83 761.67,215 C784.7,244 820.9514,491.1685 830.1414,555.9385 " fill="none" id="MaybeFunctorImpl-to-Functor" style="stroke:#F5BDE6;stroke-width:1.0;stroke-dasharray:7.0,7.0;"/><polygon fill="none" points="832.67,573.76,836.0819,555.0956,824.2009,556.7814,832.67,573.76" style="stroke:#F5BDE6;stroke-width:1.0;"/><text fill="#CAD3F5" font-family="Helvetica" font-size="12" lengthAdjust="spacing" textLength="120.0586" x="788.52" y="301.2402">&lt;MaybeKind.Witness&gt;</text></g><!--link MaybeMonadImpl to MaybeFunctorImpl--><g id="link_MaybeMonadImpl_MaybeFunctorImpl"><path codeLine="74" d="M565.67,37.18 C565.67,56.56 565.67,73.12 565.67,92.61 " fill="none" id="MaybeMonadImpl-to-MaybeFunctorImpl" style="stroke:#F5BDE6;stroke-width:1.0;"/><polygon fill="none" points="565.67,110.61,571.67,92.61,559.67,92.61,565.67,110.61" style="stroke:#F5BDE6;stroke-width:1.0;"/></g><!--link MaybeMonadImpl to MonadErrorBase--><g id="link_MaybeMonadImpl_MonadErrorBase"><path codeLine="75" d="M601.81,37.4 C650.46,56.78 719.8182,84.418 768.5882,103.848 " fill="none" id="MaybeMonadImpl-to-MonadErrorBase" style="stroke:#F5BDE6;stroke-width:1.0;stroke-dasharray:7.0,7.0;"/><polygon fill="none" points="785.31,110.51,770.8089,98.2741,766.3676,109.422,785.31,110.51" style="stroke:#F5BDE6;stroke-width:1.0;"/><text fill="#CAD3F5" font-family="Helvetica" font-size="12" lengthAdjust="spacing" textLength="150.7441" x="710" y="77.2402">&lt;MaybeKind.Witness, Void&gt;</text></g><!--link MaybeMonadImpl to MaybeKindHelper--><g id="link_MaybeMonadImpl_MaybeKindHelper"><path codeLine="77" d="M541.36,37.37 C475.41,76.36 298.865,180.7267 233.045,219.6367 " fill="none" id="MaybeMonadImpl-to-MaybeKindHelper" style="stroke:#F5BDE6;stroke-width:1.0;stroke-dasharray:7.0,7.0;"/><polygon fill="#F5BDE6" points="227.88,222.69,237.663,221.5533,232.1842,220.1456,233.5919,214.6667,227.88,222.69" style="stroke:#F5BDE6;stroke-width:1.0;"/><text fill="#CAD3F5" font-family="Helvetica" font-size="12" lengthAdjust="spacing" textLength="25.3477" x="415.71" y="129.2402">uses</text></g><!--link MaybeFunctorImpl to MaybeKindHelper--><g id="link_MaybeFunctorImpl_MaybeKindHelper"><path codeLine="78" d="M517.97,141.49 C448.57,162.58 326.2308,199.7554 256.9308,220.8154 " fill="none" id="MaybeFunctorImpl-to-MaybeKindHelper" style="stroke:#F5BDE6;stroke-width:1.0;stroke-dasharray:7.0,7.0;"/><polygon fill="#F5BDE6" points="251.19,222.56,260.9642,223.7703,255.974,221.1062,258.6381,216.1159,251.19,222.56" style="stroke:#F5BDE6;stroke-width:1.0;"/><text fill="#CAD3F5" font-family="Helvetica" font-size="12" lengthAdjust="spacing" textLength="25.3477" x="418.1" y="181.2402">uses</text></g><!--link MaybeKindHelper to MaybeInterface--><g id="link_MaybeKindHelper_MaybeInterface"><path codeLine="79" d="M203.67,253.24 C203.67,271.26 203.67,297.69 203.67,328.64 " fill="none" id="MaybeKindHelper-to-MaybeInterface" style="stroke:#F5BDE6;stroke-width:1.0;stroke-dasharray:7.0,7.0;"/><polygon fill="#F5BDE6" points="203.67,334.64,207.67,325.64,203.67,329.64,199.67,325.64,203.67,334.64" style="stroke:#F5BDE6;stroke-width:1.0;"/><text fill="#CAD3F5" font-family="Helvetica" font-size="12" lengthAdjust="spacing" textLength="105.375" x="204.67" y="301.2402">uses (wrap/unwrap)</text></g><!--reverse link MaybeInterface to Just--><g id="link_MaybeInterface_Just"><path codeLine="80" d="M115.4885,506.3504 C85.9685,536.9304 67.65,555.91 50.43,573.75 " fill="none" id="MaybeInterface-backto-Just" style="stroke:#F5BDE6;stroke-width:1.0;stroke-dasharray:7.0,7.0;"/><polygon fill="none" points="127.99,493.4,111.1717,502.1832,119.8053,510.5176,127.99,493.4" style="stroke:#F5BDE6;stroke-width:1.0;"/></g><!--reverse link MaybeInterface to Nothing--><g id="link_MaybeInterface_Nothing"><path codeLine="81" d="M170.5848,510.4072 C159.9848,540.9872 154.8,555.91 148.61,573.75 " fill="none" id="MaybeInterface-backto-Nothing" style="stroke:#F5BDE6;stroke-width:1.0;stroke-dasharray:7.0,7.0;"/><polygon fill="none" points="176.48,493.4,164.9157,508.4422,176.2538,512.3723,176.48,493.4" style="stroke:#F5BDE6;stroke-width:1.0;"/></g><!--SRC=[bLPBSzem4BxxLsnp2KoCkMSOTo13caV99QIzHWY1rSgIHvQJCad-UzUIRMI3QNh8nDhzzjkdLdpXaefYpI0n9iilnsDDNgCjDqcnAdAcgPA6IHDHbOubLRaX8qx7b9WiAoZbSfGIIXDEZ1fbWaXJf69a4fQoSKgu7DlFA4Dfa71qmjBCx21bwOhfF0WuakiDeGpExhbSJwv3cCPdG78eZxxwkf3KA3svTkhgw2EcMIOu1iPVM8toH3voeIHPJnOEOmypaXyYvbgZmqK8SmzfXHOU102-2Tcjs6HPGSl3RQESJ62m2B_pRM9cec13Y6DuGtE02y2A6au1BQ6cW5z5RWRBuGc4L2RXSZiuXTbebJuKGf2LO7ksbLA24Gaylokz78eVEjHBs3BZdPIUYzmZh2NV4FLOb1Ld6jtNQXVEKmmfoGQsRLp9oJ9yEaHi136BDghMMV17MN8gI9x3MHcyhJRxW_EvFYYvA-y8etiXMFBArLrJM9-holWpT5MTQuklCTm-F2wd3rVpmqRiQN5EK2uf6pIkkvDZnt_gJKyfAEVC3i-z6vx7txlE_9p3JsuamopCBcEmKTfPTp9i66-Oo9XkUt4ow-Sct6gsQ_4_6Iuutjc6sjvCfzkdEwtd3ZyA-QgnYpQZnYAguYml-B3NlAe2M8AQy2YyXtrQNPxfVnhvz-a3__3CG9Sr1xNfbifIN-5Yn0sNkqvA8k3SmcwKMEC5G4xDgDBhSuj-JJXDWAUPm7qeJTvADxAGPuU7DajJ1Rm_-37iuu2tZsUamTcriGVTvbSBSz_vId2BT4slBx1AuSplnQnpRqjrs5_7uR6vitjpxzWU3zns1a1j_1OUYUfWLqnxmvh5_mhPzz9B0lqptIhFPvoDHYFlEIcFhLBqpwacF6VMQF13yVNmasO9aMlXx52Q37gH8JIvbFmdKgbx7RIVHSpbFVOUrURBAVmNsVjsolfHh_uxeLqtGNibDWguXEChfhBmXpoAzYwEsiL1PpvTAXsUBiZITcfmFAgoe7LWldryi8el0NzwvSTIE8trn0rq_uOv90pAvJfsIteOT7-fl4UHVIMFAgeNBVWB]--></g></svg>