<svg xmlns="http://www.w3.org/2000/svg" xmlns:xlink="http://www.w3.org/1999/xlink" contentStyleType="text/css" height="791px" preserveAspectRatio="none" style="width:1184px;height:791px;background:#24273A;" version="1.1" viewBox="0 0 1184 791" width="1184px" zoomAndPan="magnify"><defs/><g><rect fill="#24273A" height="791" style="stroke:none;stroke-width:1.0;" width="1184" x="0" y="0"/><!--class Kind--><g id="elem_Kind"><rect codeLine="4" fill="#24273A" height="46" id="Kind" rx="1.5" ry="1.5" style="stroke:#C6A0F6;stroke-width:2.0;" width="88.0254" x="907.66" y="738"/><rect fill="#363A4F" height="30" rx="1.5" ry="1.5" style="stroke:#363A4F;stroke-width:2.0;" width="88.0254" x="907.66" y="738"/><rect fill="#363A4F" height="1.5" style="stroke:#363A4F;stroke-width:2.0;" width="88.0254" x="907.66" y="766.5"/><rect codeLine="4" fill="none" height="46" id="Kind" rx="1.5" ry="1.5" style="stroke:#C6A0F6;stroke-width:2.0;" width="88.0254" x="907.66" y="738"/><ellipse cx="921.66" cy="753" fill="#B4A7E5" rx="10" ry="10" style="stroke:#181818;stroke-width:1.0;"/><path d="M918.6678,750.2754 L918.6678,748.752 L923.8768,748.752 L923.8768,750.2754 L922.1366,750.2754 L922.1366,755.9766 L923.8768,755.9766 L923.8768,757.5 L918.6678,757.5 L918.6678,755.9766 L920.408,755.9766 L920.408,750.2754 Z " fill="#CAD3F5"/><text fill="#A6DA95" font-family="Helvetica" font-size="16" font-style="italic" lengthAdjust="spacing" textLength="32.0234" x="934.66" y="757.3203">Kind</text><rect fill="#24273A" height="14" style="stroke:#C6A0F6;stroke-width:1.0;stroke-dasharray:2.0,2.0;" width="24.002" x="974.6834" y="735"/><text fill="#CAD3F5" font-family="Helvetica" font-size="12" font-style="italic" lengthAdjust="spacing" textLength="22.002" x="975.6834" y="745.2402">F, A</text><line style="stroke:#C6A0F6;stroke-width:2.0;" x1="908.66" x2="994.6854" y1="768" y2="768"/><line style="stroke:#C6A0F6;stroke-width:2.0;" x1="908.66" x2="994.6854" y1="776" y2="776"/></g><!--class Functor--><g id="elem_Functor"><rect codeLine="5" fill="#24273A" height="46" id="Functor" rx="1.5" ry="1.5" style="stroke:#C6A0F6;stroke-width:2.0;" width="95.5723" x="786.89" y="606"/><rect fill="#363A4F" height="30" rx="1.5" ry="1.5" style="stroke:#363A4F;stroke-width:2.0;" width="95.5723" x="786.89" y="606"/><rect fill="#363A4F" height="1.5" style="stroke:#363A4F;stroke-width:2.0;" width="95.5723" x="786.89" y="634.5"/><rect codeLine="5" fill="none" height="46" id="Functor" rx="1.5" ry="1.5" style="stroke:#C6A0F6;stroke-width:2.0;" width="95.5723" x="786.89" y="606"/><ellipse cx="800.89" cy="621" fill="#B4A7E5" rx="10" ry="10" style="stroke:#181818;stroke-width:1.0;"/><path d="M797.8978,618.2754 L797.8978,616.752 L803.1068,616.752 L803.1068,618.2754 L801.3666,618.2754 L801.3666,623.9766 L803.1068,623.9766 L803.1068,625.5 L797.8978,625.5 L797.8978,623.9766 L799.638,623.9766 L799.638,618.2754 Z " fill="#CAD3F5"/><text fill="#A6DA95" font-family="Helvetica" font-size="16" font-style="italic" lengthAdjust="spacing" textLength="54.2422" x="813.89" y="625.3203">Functor</text><rect fill="#24273A" height="14" style="stroke:#C6A0F6;stroke-width:1.0;stroke-dasharray:2.0,2.0;" width="9.3301" x="876.1322" y="603"/><text fill="#CAD3F5" font-family="Helvetica" font-size="12" font-style="italic" lengthAdjust="spacing" textLength="7.3301" x="877.1322" y="613.2402">F</text><line style="stroke:#C6A0F6;stroke-width:2.0;" x1="787.89" x2="881.4623" y1="636" y2="636"/><line style="stroke:#C6A0F6;stroke-width:2.0;" x1="787.89" x2="881.4623" y1="644" y2="644"/></g><!--class Applicative--><g id="elem_Applicative"><rect codeLine="6" fill="#24273A" height="46" id="Applicative" rx="1.5" ry="1.5" style="stroke:#C6A0F6;stroke-width:2.0;" width="118.7051" x="865.32" y="427"/><rect fill="#363A4F" height="30" rx="1.5" ry="1.5" style="stroke:#363A4F;stroke-width:2.0;" width="118.7051" x="865.32" y="427"/><rect fill="#363A4F" height="1.5" style="stroke:#363A4F;stroke-width:2.0;" width="118.7051" x="865.32" y="455.5"/><rect codeLine="6" fill="none" height="46" id="Applicative" rx="1.5" ry="1.5" style="stroke:#C6A0F6;stroke-width:2.0;" width="118.7051" x="865.32" y="427"/><ellipse cx="879.32" cy="442" fill="#B4A7E5" rx="10" ry="10" style="stroke:#181818;stroke-width:1.0;"/><path d="M876.3278,439.2754 L876.3278,437.752 L881.5368,437.752 L881.5368,439.2754 L879.7966,439.2754 L879.7966,444.9766 L881.5368,444.9766 L881.5368,446.5 L876.3278,446.5 L876.3278,444.9766 L878.068,444.9766 L878.068,439.2754 Z " fill="#CAD3F5"/><text fill="#A6DA95" font-family="Helvetica" font-size="16" font-style="italic" lengthAdjust="spacing" textLength="77.375" x="892.32" y="446.3203">Applicative</text><rect fill="#24273A" height="14" style="stroke:#C6A0F6;stroke-width:1.0;stroke-dasharray:2.0,2.0;" width="9.3301" x="977.695" y="424"/><text fill="#CAD3F5" font-family="Helvetica" font-size="12" font-style="italic" lengthAdjust="spacing" textLength="7.3301" x="978.695" y="434.2402">F</text><line style="stroke:#C6A0F6;stroke-width:2.0;" x1="866.32" x2="983.0251" y1="457" y2="457"/><line style="stroke:#C6A0F6;stroke-width:2.0;" x1="866.32" x2="983.0251" y1="465" y2="465"/></g><!--class MonadBase--><g id="elem_MonadBase"><rect codeLine="7" fill="#24273A" height="46" id="MonadBase" rx="1.5" ry="1.5" style="stroke:#C6A0F6;stroke-width:2.0;" width="92.918" x="872.21" y="247"/><rect fill="#363A4F" height="30" rx="1.5" ry="1.5" style="stroke:#363A4F;stroke-width:2.0;" width="92.918" x="872.21" y="247"/><rect fill="#363A4F" height="1.5" style="stroke:#363A4F;stroke-width:2.0;" width="92.918" x="872.21" y="275.5"/><rect codeLine="7" fill="none" height="46" id="MonadBase" rx="1.5" ry="1.5" style="stroke:#C6A0F6;stroke-width:2.0;" width="92.918" x="872.21" y="247"/><ellipse cx="886.21" cy="262" fill="#B4A7E5" rx="10" ry="10" style="stroke:#181818;stroke-width:1.0;"/><path d="M883.2178,259.2754 L883.2178,257.752 L888.4268,257.752 L888.4268,259.2754 L886.6866,259.2754 L886.6866,264.9766 L888.4268,264.9766 L888.4268,266.5 L883.2178,266.5 L883.2178,264.9766 L884.958,264.9766 L884.958,259.2754 Z " fill="#CAD3F5"/><text fill="#A6DA95" font-family="Helvetica" font-size="16" font-style="italic" lengthAdjust="spacing" textLength="48.9219" x="899.21" y="266.3203">Monad</text><rect fill="#24273A" height="14" style="stroke:#C6A0F6;stroke-width:1.0;stroke-dasharray:2.0,2.0;" width="11.9961" x="956.1319" y="244"/><text fill="#CAD3F5" font-family="Helvetica" font-size="12" font-style="italic" lengthAdjust="spacing" textLength="9.9961" x="957.1319" y="254.2402">M</text><line style="stroke:#C6A0F6;stroke-width:2.0;" x1="873.21" x2="964.128" y1="277" y2="277"/><line style="stroke:#C6A0F6;stroke-width:2.0;" x1="873.21" x2="964.128" y1="285" y2="285"/></g><!--class MonadErrorBase--><g id="elem_MonadErrorBase"><rect codeLine="8" fill="#24273A" height="46" id="MonadErrorBase" rx="1.5" ry="1.5" style="stroke:#C6A0F6;stroke-width:2.0;" width="143.1445" x="750.1" y="127"/><rect fill="#363A4F" height="30" rx="1.5" ry="1.5" style="stroke:#363A4F;stroke-width:2.0;" width="143.1445" x="750.1" y="127"/><rect fill="#363A4F" height="1.5" style="stroke:#363A4F;stroke-width:2.0;" width="143.1445" x="750.1" y="155.5"/><rect codeLine="8" fill="none" height="46" id="MonadErrorBase" rx="1.5" ry="1.5" style="stroke:#C6A0F6;stroke-width:2.0;" width="143.1445" x="750.1" y="127"/><ellipse cx="764.1" cy="142" fill="#B4A7E5" rx="10" ry="10" style="stroke:#181818;stroke-width:1.0;"/><path d="M761.1078,139.2754 L761.1078,137.752 L766.3168,137.752 L766.3168,139.2754 L764.5766,139.2754 L764.5766,144.9766 L766.3168,144.9766 L766.3168,146.5 L761.1078,146.5 L761.1078,144.9766 L762.848,144.9766 L762.848,139.2754 Z " fill="#CAD3F5"/><text fill="#A6DA95" font-family="Helvetica" font-size="16" font-style="italic" lengthAdjust="spacing" textLength="84.4766" x="777.1" y="146.3203">MonadError</text><rect fill="#24273A" height="14" style="stroke:#C6A0F6;stroke-width:1.0;stroke-dasharray:2.0,2.0;" width="26.668" x="869.5766" y="124"/><text fill="#CAD3F5" font-family="Helvetica" font-size="12" font-style="italic" lengthAdjust="spacing" textLength="24.668" x="870.5766" y="134.2402">M, E</text><line style="stroke:#C6A0F6;stroke-width:2.0;" x1="751.1" x2="892.2445" y1="157" y2="157"/><line style="stroke:#C6A0F6;stroke-width:2.0;" x1="751.1" x2="892.2445" y1="165" y2="165"/></g><!--class MaybeInterface--><g id="elem_MaybeInterface"><rect codeLine="11" fill="#24273A" height="166" id="MaybeInterface" rx="1.5" ry="1.5" style="stroke:#C6A0F6;stroke-width:2.0;" width="224.4004" x="91.47" y="367"/><rect fill="#363A4F" height="30" rx="1.5" ry="1.5" style="stroke:#363A4F;stroke-width:2.0;" width="224.4004" x="91.47" y="367"/><rect fill="#363A4F" height="1.5" style="stroke:#363A4F;stroke-width:2.0;" width="224.4004" x="91.47" y="395.5"/><rect codeLine="11" fill="none" height="166" id="MaybeInterface" rx="1.5" ry="1.5" style="stroke:#C6A0F6;stroke-width:2.0;" width="224.4004" x="91.47" y="367"/><ellipse cx="169.9934" cy="382" fill="#ADD8E6" rx="10" ry="10" style="stroke:#181818;stroke-width:1.0;"/><path d="M166.4973,377.752 L168.5598,377.752 L169.6028,381.5898 L170.6399,377.752 L172.7141,377.752 L172.7141,386.5 L171.2259,386.5 L171.2259,379.4922 L170.3001,383.3184 L168.9231,383.3184 L167.9856,379.4922 L167.9856,386.5 L166.4973,386.5 Z " fill="#CAD3F5"/><text fill="#A6DA95" font-family="Helvetica" font-size="16" font-style="italic" lengthAdjust="spacing" textLength="48.0234" x="188.9934" y="386.3203">Maybe</text><rect fill="#24273A" height="14" style="stroke:#C6A0F6;stroke-width:1.0;stroke-dasharray:2.0,2.0;" width="9.3301" x="309.5403" y="364"/><text fill="#CAD3F5" font-family="Helvetica" font-size="12" font-style="italic" lengthAdjust="spacing" textLength="7.3301" x="310.5403" y="374.2402">T</text><line style="stroke:#C6A0F6;stroke-width:2.0;" x1="92.47" x2="314.8704" y1="397" y2="397"/><line style="stroke:#C6A0F6;stroke-width:2.0;" x1="92.47" x2="314.8704" y1="405" y2="405"/><ellipse cx="102.47" cy="416.5" fill="#84BE84" rx="3" ry="3" style="stroke:#038048;stroke-width:1.0;"/><text fill="#A6DA95" font-family="Helvetica" font-size="12" lengthAdjust="spacing" textLength="150.7148" x="110.47" y="418.2402">static &lt;T&gt; Maybe&lt;T&gt; just(T)</text><ellipse cx="102.47" cy="428.5" fill="#84BE84" rx="3" ry="3" style="stroke:#038048;stroke-width:1.0;"/><text fill="#A6DA95" font-family="Helvetica" font-size="12" lengthAdjust="spacing" textLength="164.0801" x="110.47" y="430.2402">static &lt;T&gt; Maybe&lt;T&gt; nothing()</text><ellipse cx="102.47" cy="440.5" fill="#84BE84" rx="3" ry="3" style="stroke:#038048;stroke-width:1.0;"/><text fill="#A6DA95" font-family="Helvetica" font-size="12" lengthAdjust="spacing" textLength="199.4004" x="110.47" y="442.2402">static &lt;T&gt; Maybe&lt;T&gt; fromNullable(T)</text><ellipse cx="102.47" cy="452.5" fill="#84BE84" rx="3" ry="3" style="stroke:#038048;stroke-width:1.0;"/><text fill="#A6DA95" font-family="Helvetica" font-size="12" lengthAdjust="spacing" textLength="84.709" x="110.47" y="454.2402">boolean isJust()</text><ellipse cx="102.47" cy="464.5" fill="#84BE84" rx="3" ry="3" style="stroke:#038048;stroke-width:1.0;"/><text fill="#A6DA95" font-family="Helvetica" font-size="12" lengthAdjust="spacing" textLength="104.0625" x="110.47" y="466.2402">boolean isNothing()</text><ellipse cx="102.47" cy="476.5" fill="#84BE84" rx="3" ry="3" style="stroke:#038048;stroke-width:1.0;"/><text fill="#A6DA95" font-family="Helvetica" font-size="12" lengthAdjust="spacing" textLength="35.3379" x="110.47" y="478.2402">T get()</text><ellipse cx="102.47" cy="488.5" fill="#84BE84" rx="3" ry="3" style="stroke:#038048;stroke-width:1.0;"/><text fill="#A6DA95" font-family="Helvetica" font-size="12" lengthAdjust="spacing" textLength="60" x="110.47" y="490.2402">T orElse(T)</text><ellipse cx="102.47" cy="500.5" fill="#84BE84" rx="3" ry="3" style="stroke:#038048;stroke-width:1.0;"/><text fill="#A6DA95" font-family="Helvetica" font-size="12" lengthAdjust="spacing" textLength="137.3848" x="110.47" y="502.2402">T orElseGet(Supplier&lt;T&gt;)</text><ellipse cx="102.47" cy="512.5" fill="#84BE84" rx="3" ry="3" style="stroke:#038048;stroke-width:1.0;"/><text fill="#A6DA95" font-family="Helvetica" font-size="12" lengthAdjust="spacing" textLength="36.0176" x="110.47" y="514.2402">Maybe</text><text fill="#A6DA95" font-family="Helvetica" font-size="12" lengthAdjust="spacing" text-decoration="underline" textLength="110.707" x="149.8216" y="514.2402">map(Function&lt;T,U&gt;)</text><ellipse cx="102.47" cy="524.5" fill="#84BE84" rx="3" ry="3" style="stroke:#038048;stroke-width:1.0;"/><text fill="#A6DA95" font-family="Helvetica" font-size="12" lengthAdjust="spacing" textLength="36.0176" x="110.47" y="526.2402">Maybe</text><text fill="#A6DA95" font-family="Helvetica" font-size="12" lengthAdjust="spacing" text-decoration="underline" textLength="143.0625" x="149.8216" y="526.2402">flatMap(Function&lt;T,Maybe</text><text fill="#A6DA95" font-family="Helvetica" font-size="12" lengthAdjust="spacing" text-decoration="underline" textLength="11.0039" x="292.8841" y="526.2402">&gt;)</text></g><!--class Just<T>--><g id="elem_Just&lt;T&gt;"><rect codeLine="24" fill="#24273A" height="70" id="Just&lt;T&gt;" rx="1.5" ry="1.5" style="stroke:#C6A0F6;stroke-width:2.0;" width="87.8047" x="220.77" y="594"/><rect fill="#363A4F" height="30" rx="1.5" ry="1.5" style="stroke:#363A4F;stroke-width:2.0;" width="87.8047" x="220.77" y="594"/><rect fill="#363A4F" height="1.5" style="stroke:#363A4F;stroke-width:2.0;" width="87.8047" x="220.77" y="622.5"/><rect codeLine="24" fill="none" height="70" id="Just&lt;T&gt;" rx="1.5" ry="1.5" style="stroke:#C6A0F6;stroke-width:2.0;" width="87.8047" x="220.77" y="594"/><ellipse cx="234.77" cy="609" fill="#ADD1B2" rx="10" ry="10" style="stroke:#181818;stroke-width:1.0;"/><path d="M236.604,613.248 Q236.1938,613.459 235.7427,613.5645 Q235.2915,613.6699 234.7934,613.6699 Q233.0239,613.6699 232.0923,612.5039 Q231.1606,611.3379 231.1606,609.1348 Q231.1606,606.9258 232.0923,605.7598 Q233.0239,604.5938 234.7934,604.5938 Q235.2915,604.5938 235.7485,604.6992 Q236.2055,604.8047 236.604,605.0156 L236.604,606.9375 Q236.1587,606.5273 235.7397,606.3369 Q235.3208,606.1465 234.8755,606.1465 Q233.9263,606.1465 233.4429,606.8994 Q232.9595,607.6523 232.9595,609.1348 Q232.9595,610.6113 233.4429,611.3643 Q233.9263,612.1172 234.8755,612.1172 Q235.3208,612.1172 235.7397,611.9268 Q236.1587,611.7363 236.604,611.3262 Z " fill="#CAD3F5"/><text fill="#A6DA95" font-family="Helvetica" font-size="16" lengthAdjust="spacing" textLength="57.8047" x="247.77" y="613.3203">Just&lt;T&gt;</text><line style="stroke:#C6A0F6;stroke-width:2.0;" x1="221.77" x2="307.5747" y1="624" y2="624"/><rect fill="none" height="6" style="stroke:#C82930;stroke-width:1.0;" width="6" x="228.77" y="632.5"/><text fill="#A6DA95" font-family="Helvetica" font-size="12" lengthAdjust="spacing" textLength="39.3516" x="239.77" y="637.2402">T value</text><line style="stroke:#C6A0F6;stroke-width:2.0;" x1="221.77" x2="307.5747" y1="644" y2="644"/><ellipse cx="231.77" cy="655.5" fill="#84BE84" rx="3" ry="3" style="stroke:#038048;stroke-width:1.0;"/><text fill="#A6DA95" font-family="Helvetica" font-size="12" lengthAdjust="spacing" textLength="37.3301" x="239.77" y="657.2402">Just(T)</text></g><!--class Nothing<T>--><g id="elem_Nothing&lt;T&gt;"><rect codeLine="29" fill="#24273A" height="70" id="Nothing&lt;T&gt;" rx="1.5" ry="1.5" style="stroke:#C6A0F6;stroke-width:2.0;" width="199.75" x="343.8" y="594"/><rect fill="#363A4F" height="30" rx="1.5" ry="1.5" style="stroke:#363A4F;stroke-width:2.0;" width="199.75" x="343.8" y="594"/><rect fill="#363A4F" height="1.5" style="stroke:#363A4F;stroke-width:2.0;" width="199.75" x="343.8" y="622.5"/><rect codeLine="29" fill="none" height="70" id="Nothing&lt;T&gt;" rx="1.5" ry="1.5" style="stroke:#C6A0F6;stroke-width:2.0;" width="199.75" x="343.8" y="594"/><ellipse cx="397.8703" cy="609" fill="#ADD1B2" rx="10" ry="10" style="stroke:#181818;stroke-width:1.0;"/><path d="M399.7043,613.248 Q399.2941,613.459 398.843,613.5645 Q398.3918,613.6699 397.8938,613.6699 Q396.1242,613.6699 395.1926,612.5039 Q394.2609,611.3379 394.2609,609.1348 Q394.2609,606.9258 395.1926,605.7598 Q396.1242,604.5938 397.8938,604.5938 Q398.3918,604.5938 398.8488,604.6992 Q399.3059,604.8047 399.7043,605.0156 L399.7043,606.9375 Q399.259,606.5273 398.84,606.3369 Q398.4211,606.1465 397.9758,606.1465 Q397.0266,606.1465 396.5432,606.8994 Q396.0598,607.6523 396.0598,609.1348 Q396.0598,610.6113 396.5432,611.3643 Q397.0266,612.1172 397.9758,612.1172 Q398.4211,612.1172 398.84,611.9268 Q399.259,611.7363 399.7043,611.3262 Z " fill="#CAD3F5"/><text fill="#A6DA95" font-family="Helvetica" font-size="16" lengthAdjust="spacing" textLength="83.6094" x="416.8703" y="613.3203">Nothing&lt;T&gt;</text><line style="stroke:#C6A0F6;stroke-width:2.0;" x1="344.8" x2="542.55" y1="624" y2="624"/><rect fill="none" height="6" style="stroke:#C82930;stroke-width:1.0;" width="6" x="351.8" y="632.5"/><text fill="#A6DA95" font-family="Helvetica" font-size="12" lengthAdjust="spacing" textLength="157.4004" x="362.8" y="637.2402">static Nothing&lt;?&gt; INSTANCE</text><line style="stroke:#C6A0F6;stroke-width:2.0;" x1="344.8" x2="542.55" y1="644" y2="644"/><ellipse cx="354.8" cy="655.5" fill="#84BE84" rx="3" ry="3" style="stroke:#038048;stroke-width:1.0;"/><text fill="#A6DA95" font-family="Helvetica" font-size="12" lengthAdjust="spacing" textLength="174.75" x="362.8" y="657.2402">static &lt;T&gt; Nothing&lt;T&gt; instance()</text></g><!--class MaybeKindBase--><g id="elem_MaybeKindBase"><rect codeLine="34" fill="#24273A" height="46" id="MaybeKindBase" rx="1.5" ry="1.5" style="stroke:#C6A0F6;stroke-width:2.0;" width="122.0508" x="1008.65" y="606"/><rect fill="#363A4F" height="30" rx="1.5" ry="1.5" style="stroke:#363A4F;stroke-width:2.0;" width="122.0508" x="1008.65" y="606"/><rect fill="#363A4F" height="1.5" style="stroke:#363A4F;stroke-width:2.0;" width="122.0508" x="1008.65" y="634.5"/><rect codeLine="34" fill="none" height="46" id="MaybeKindBase" rx="1.5" ry="1.5" style="stroke:#C6A0F6;stroke-width:2.0;" width="122.0508" x="1008.65" y="606"/><ellipse cx="1022.65" cy="621" fill="#87CEFA" rx="10" ry="10" style="stroke:#181818;stroke-width:1.0;"/><path d="M1018.8355,616.752 L1020.5641,616.752 L1020.5641,620.209 L1023.2711,616.752 L1025.2281,616.752 L1022.4684,620.1973 L1025.3277,625.5 L1023.4059,625.5 L1021.3316,621.5625 L1020.5641,622.5352 L1020.5641,625.5 L1018.8355,625.5 Z " fill="#CAD3F5"/><text fill="#A6DA95" font-family="Helvetica" font-size="16" font-style="italic" lengthAdjust="spacing" textLength="80.0469" x="1035.65" y="625.3203">MaybeKind</text><rect fill="#24273A" height="14" style="stroke:#C6A0F6;stroke-width:1.0;stroke-dasharray:2.0,2.0;" width="10.0039" x="1123.6969" y="603"/><text fill="#CAD3F5" font-family="Helvetica" font-size="12" font-style="italic" lengthAdjust="spacing" textLength="8.0039" x="1124.6969" y="613.2402">A</text><line style="stroke:#C6A0F6;stroke-width:2.0;" x1="1009.65" x2="1129.7008" y1="636" y2="636"/><line style="stroke:#C6A0F6;stroke-width:2.0;" x1="1009.65" x2="1129.7008" y1="644" y2="644"/></g><!--class MaybeKindHelper--><g id="elem_MaybeKindHelper"><rect codeLine="38" fill="#24273A" height="46" id="MaybeKindHelper" rx="1.5" ry="1.5" style="stroke:#C6A0F6;stroke-width:2.0;" width="157.1797" x="125.08" y="247"/><rect fill="#363A4F" height="30" rx="1.5" ry="1.5" style="stroke:#363A4F;stroke-width:2.0;" width="157.1797" x="125.08" y="247"/><rect fill="#363A4F" height="1.5" style="stroke:#363A4F;stroke-width:2.0;" width="157.1797" x="125.08" y="275.5"/><rect codeLine="38" fill="none" height="46" id="MaybeKindHelper" rx="1.5" ry="1.5" style="stroke:#C6A0F6;stroke-width:2.0;" width="157.1797" x="125.08" y="247"/><ellipse cx="139.08" cy="262" fill="#808080" rx="10" ry="10" style="stroke:#181818;stroke-width:1.0;"/><path d="M135.8827,257.752 L137.6112,257.752 L137.6112,261.0859 L139.7734,261.0859 L139.7734,257.752 L141.5019,257.752 L141.5019,266.5 L139.7734,266.5 L139.7734,262.6094 L137.6112,262.6094 L137.6112,266.5 L135.8827,266.5 Z " fill="#CAD3F5"/><text fill="#A6DA95" font-family="Helvetica" font-size="16" lengthAdjust="spacing" textLength="127.1797" x="152.08" y="266.3203">MaybeKindHelper</text><line style="stroke:#C6A0F6;stroke-width:2.0;" x1="126.08" x2="281.2597" y1="277" y2="277"/><line style="stroke:#C6A0F6;stroke-width:2.0;" x1="126.08" x2="281.2597" y1="285" y2="285"/></g><g id="elem_GMN14"><path d="M317.41,248.5 L317.41,266 L282.55,270 L317.41,274 L317.41,291.5 A1.5,1.5 0 0 0 318.91,293 L742.4432,293 A1.5,1.5 0 0 0 743.9432,291.5 L743.9432,257 L733.9432,247 L318.91,247 A1.5,1.5 0 0 0 317.41,248.5 " fill="#EED49F" style="stroke:#24273A;stroke-width:0.5;"/><path d="M733.9432,247 L733.9432,256.25 A0.75,0.75 0 0 0 734.6932,257 L743.9432,257 L733.9432,247 " fill="#EED49F" style="stroke:#24273A;stroke-width:0.5;"/><text fill="#24273A" font-family="Helvetica" font-size="12" lengthAdjust="spacing" textLength="228.7031" x="323.41" y="261.2402">Contains internal 'MaybeHolder&lt;A&gt; record'</text><text fill="#24273A" font-family="Helvetica" font-size="12" lengthAdjust="spacing" textLength="184.0898" x="323.41" y="273.2402">which implements MaybeKind&lt;A&gt;.</text><text fill="#24273A" font-family="Helvetica" font-size="12" lengthAdjust="spacing" textLength="405.5332" x="323.41" y="285.2402">`record MaybeHolder&lt;A&gt;(Maybe&lt;A&gt; maybe) implements MaybeKind&lt;A&gt; {}`</text></g><!--class MaybeFunctorImpl--><g id="elem_MaybeFunctorImpl"><rect codeLine="52" fill="#24273A" height="46" id="MaybeFunctorImpl" rx="1.5" ry="1.5" style="stroke:#C6A0F6;stroke-width:2.0;" width="132.2656" x="499.54" y="127"/><rect fill="#363A4F" height="30" rx="1.5" ry="1.5" style="stroke:#363A4F;stroke-width:2.0;" width="132.2656" x="499.54" y="127"/><rect fill="#363A4F" height="1.5" style="stroke:#363A4F;stroke-width:2.0;" width="132.2656" x="499.54" y="155.5"/><rect codeLine="52" fill="none" height="46" id="MaybeFunctorImpl" rx="1.5" ry="1.5" style="stroke:#C6A0F6;stroke-width:2.0;" width="132.2656" x="499.54" y="127"/><ellipse cx="513.54" cy="142" fill="#ADD1B2" rx="10" ry="10" style="stroke:#181818;stroke-width:1.0;"/><path d="M515.374,146.248 Q514.9638,146.459 514.5127,146.5645 Q514.0615,146.6699 513.5634,146.6699 Q511.7939,146.6699 510.8623,145.5039 Q509.9306,144.3379 509.9306,142.1348 Q509.9306,139.9258 510.8623,138.7598 Q511.7939,137.5938 513.5634,137.5938 Q514.0615,137.5938 514.5185,137.6992 Q514.9755,137.8047 515.374,138.0156 L515.374,139.9375 Q514.9287,139.5273 514.5097,139.3369 Q514.0908,139.1465 513.6455,139.1465 Q512.6963,139.1465 512.2129,139.8994 Q511.7295,140.6523 511.7295,142.1348 Q511.7295,143.6113 512.2129,144.3643 Q512.6963,145.1172 513.6455,145.1172 Q514.0908,145.1172 514.5097,144.9268 Q514.9287,144.7363 515.374,144.3262 Z " fill="#CAD3F5"/><text fill="#A6DA95" font-family="Helvetica" font-size="16" lengthAdjust="spacing" textLength="102.2656" x="526.54" y="146.3203">MaybeFunctor</text><line style="stroke:#C6A0F6;stroke-width:2.0;" x1="500.54" x2="630.8056" y1="157" y2="157"/><line style="stroke:#C6A0F6;stroke-width:2.0;" x1="500.54" x2="630.8056" y1="165" y2="165"/></g><!--class MaybeMonadImpl--><g id="elem_MaybeMonadImpl"><rect codeLine="56" fill="#24273A" height="46" id="MaybeMonadImpl" rx="1.5" ry="1.5" style="stroke:#C6A0F6;stroke-width:2.0;" width="126.9453" x="502.2" y="7"/><rect fill="#363A4F" height="30" rx="1.5" ry="1.5" style="stroke:#363A4F;stroke-width:2.0;" width="126.9453" x="502.2" y="7"/><rect fill="#363A4F" height="1.5" style="stroke:#363A4F;stroke-width:2.0;" width="126.9453" x="502.2" y="35.5"/><rect codeLine="56" fill="none" height="46" id="MaybeMonadImpl" rx="1.5" ry="1.5" style="stroke:#C6A0F6;stroke-width:2.0;" width="126.9453" x="502.2" y="7"/><ellipse cx="516.2" cy="22" fill="#ADD1B2" rx="10" ry="10" style="stroke:#181818;stroke-width:1.0;"/><path d="M518.034,26.248 Q517.6238,26.459 517.1727,26.5645 Q516.7215,26.6699 516.2234,26.6699 Q514.4539,26.6699 513.5223,25.5039 Q512.5906,24.3379 512.5906,22.1348 Q512.5906,19.9258 513.5223,18.7598 Q514.4539,17.5938 516.2234,17.5938 Q516.7215,17.5938 517.1785,17.6992 Q517.6355,17.8047 518.034,18.0156 L518.034,19.9375 Q517.5887,19.5273 517.1697,19.3369 Q516.7508,19.1465 516.3055,19.1465 Q515.3563,19.1465 514.8729,19.8994 Q514.3895,20.6523 514.3895,22.1348 Q514.3895,23.6113 514.8729,24.3643 Q515.3563,25.1172 516.3055,25.1172 Q516.7508,25.1172 517.1697,24.9268 Q517.5887,24.7363 518.034,24.3262 Z " fill="#CAD3F5"/><text fill="#A6DA95" font-family="Helvetica" font-size="16" lengthAdjust="spacing" textLength="96.9453" x="529.2" y="26.3203">MaybeMonad</text><line style="stroke:#C6A0F6;stroke-width:2.0;" x1="503.2" x2="628.1453" y1="37" y2="37"/><line style="stroke:#C6A0F6;stroke-width:2.0;" x1="503.2" x2="628.1453" y1="45" y2="45"/></g><!--class Just--><g id="elem_Just"><rect fill="#24273A" height="46" id="Just" rx="1.5" ry="1.5" style="stroke:#C6A0F6;stroke-width:2.0;" width="59.3438" x="7" y="606"/><rect fill="#363A4F" height="30" rx="1.5" ry="1.5" style="stroke:#363A4F;stroke-width:2.0;" width="59.3438" x="7" y="606"/><rect fill="#363A4F" height="1.5" style="stroke:#363A4F;stroke-width:2.0;" width="59.3438" x="7" y="634.5"/><rect fill="none" height="46" id="Just" rx="1.5" ry="1.5" style="stroke:#C6A0F6;stroke-width:2.0;" width="59.3438" x="7" y="606"/><ellipse cx="21" cy="621" fill="#ADD1B2" rx="10" ry="10" style="stroke:#181818;stroke-width:1.0;"/><path d="M22.834,625.248 Q22.4238,625.459 21.9727,625.5645 Q21.5215,625.6699 21.0234,625.6699 Q19.2539,625.6699 18.3223,624.5039 Q17.3906,623.3379 17.3906,621.1348 Q17.3906,618.9258 18.3223,617.7598 Q19.2539,616.5938 21.0234,616.5938 Q21.5215,616.5938 21.9785,616.6992 Q22.4355,616.8047 22.834,617.0156 L22.834,618.9375 Q22.3887,618.5273 21.9697,618.3369 Q21.5508,618.1465 21.1055,618.1465 Q20.1563,618.1465 19.6729,618.8994 Q19.1895,619.6523 19.1895,621.1348 Q19.1895,622.6113 19.6729,623.3643 Q20.1563,624.1172 21.1055,624.1172 Q21.5508,624.1172 21.9697,623.9268 Q22.3887,623.7363 22.834,623.3262 Z " fill="#CAD3F5"/><text fill="#A6DA95" font-family="Helvetica" font-size="16" lengthAdjust="spacing" textLength="29.3438" x="34" y="625.3203">Just</text><line style="stroke:#C6A0F6;stroke-width:2.0;" x1="8" x2="65.3438" y1="636" y2="636"/><line style="stroke:#C6A0F6;stroke-width:2.0;" x1="8" x2="65.3438" y1="644" y2="644"/></g><!--class Nothing--><g id="elem_Nothing"><rect fill="#24273A" height="46" id="Nothing" rx="1.5" ry="1.5" style="stroke:#C6A0F6;stroke-width:2.0;" width="85.1484" x="101.1" y="606"/><rect fill="#363A4F" height="30" rx="1.5" ry="1.5" style="stroke:#363A4F;stroke-width:2.0;" width="85.1484" x="101.1" y="606"/><rect fill="#363A4F" height="1.5" style="stroke:#363A4F;stroke-width:2.0;" width="85.1484" x="101.1" y="634.5"/><rect fill="none" height="46" id="Nothing" rx="1.5" ry="1.5" style="stroke:#C6A0F6;stroke-width:2.0;" width="85.1484" x="101.1" y="606"/><ellipse cx="115.1" cy="621" fill="#ADD1B2" rx="10" ry="10" style="stroke:#181818;stroke-width:1.0;"/><path d="M116.934,625.248 Q116.5238,625.459 116.0727,625.5645 Q115.6215,625.6699 115.1234,625.6699 Q113.3539,625.6699 112.4223,624.5039 Q111.4906,623.3379 111.4906,621.1348 Q111.4906,618.9258 112.4223,617.7598 Q113.3539,616.5938 115.1234,616.5938 Q115.6215,616.5938 116.0785,616.6992 Q116.5355,616.8047 116.934,617.0156 L116.934,618.9375 Q116.4887,618.5273 116.0697,618.3369 Q115.6508,618.1465 115.2055,618.1465 Q114.2563,618.1465 113.7729,618.8994 Q113.2895,619.6523 113.2895,621.1348 Q113.2895,622.6113 113.7729,623.3643 Q114.2563,624.1172 115.2055,624.1172 Q115.6508,624.1172 116.0697,623.9268 Q116.4887,623.7363 116.934,623.3262 Z " fill="#CAD3F5"/><text fill="#A6DA95" font-family="Helvetica" font-size="16" lengthAdjust="spacing" textLength="55.1484" x="128.1" y="625.3203">Nothing</text><line style="stroke:#C6A0F6;stroke-width:2.0;" x1="102.1" x2="185.2484" y1="636" y2="636"/><line style="stroke:#C6A0F6;stroke-width:2.0;" x1="102.1" x2="185.2484" y1="644" y2="644"/></g><!--reverse link MaybeInterface to Just<T>--><g id="link_MaybeInterface_Just&lt;T&gt;"><path d="M237.8919,550.2987 C245.2319,571.6087 246.88,576.38 252.84,593.68 " fill="none" id="MaybeInterface-backto-Just&lt;T&gt;" style="stroke:#F5BDE6;stroke-width:1.0;"/><polygon fill="none" points="232.03,533.28,232.219,552.2527,243.5648,548.3448,232.03,533.28" style="stroke:#F5BDE6;stroke-width:1.0;"/></g><!--reverse link MaybeInterface to Nothing<T>--><g id="link_MaybeInterface_Nothing&lt;T&gt;"><path d="M329.7256,543.9649 C358.6156,565.2749 373.67,576.38 397.13,593.68 " fill="none" id="MaybeInterface-backto-Nothing&lt;T&gt;" style="stroke:#F5BDE6;stroke-width:1.0;"/><polygon fill="none" points="315.24,533.28,326.1639,548.7935,333.2872,539.1364,315.24,533.28" style="stroke:#F5BDE6;stroke-width:1.0;"/></g><!--link MonadErrorBase to MonadBase--><g id="link_MonadErrorBase_MonadBase"><path codeLine="66" d="M840.15,173.47 C857.41,194.47 871.5989,211.7357 888.8389,232.7057 " fill="none" id="MonadErrorBase-to-MonadBase" style="stroke:#F5BDE6;stroke-width:1.0;"/><polygon fill="none" points="900.27,246.61,893.4737,228.8953,884.2041,236.5161,900.27,246.61" style="stroke:#F5BDE6;stroke-width:1.0;"/></g><!--link MonadBase to Applicative--><g id="link_MonadBase_Applicative"><path codeLine="67" d="M919.42,293.18 C920.57,327.29 922.1565,374.2701 923.3065,408.5501 " fill="none" id="MonadBase-to-Applicative" style="stroke:#F5BDE6;stroke-width:1.0;"/><polygon fill="none" points="923.91,426.54,929.3031,408.3489,917.3099,408.7513,923.91,426.54" style="stroke:#F5BDE6;stroke-width:1.0;"/></g><!--link Applicative to Functor--><g id="link_Applicative_Functor"><path codeLine="68" d="M913.27,473.42 C895.96,507.46 871.3875,555.7846 854.1375,589.7146 " fill="none" id="Applicative-to-Functor" style="stroke:#F5BDE6;stroke-width:1.0;"/><polygon fill="none" points="845.98,605.76,859.486,592.4337,848.789,586.9954,845.98,605.76" style="stroke:#F5BDE6;stroke-width:1.0;"/></g><!--link Functor to Kind--><g id="link_Functor_Kind"><path codeLine="69" d="M827.3,652.36 C823.25,669.05 820.96,691.69 831.67,708 C848.37,733.43 863.0032,742.1412 889.7932,748.8112 " fill="none" id="Functor-to-Kind" style="stroke:#F5BDE6;stroke-width:1.0;"/><polygon fill="none" points="907.26,753.16,891.2428,742.989,888.3436,754.6335,907.26,753.16" style="stroke:#F5BDE6;stroke-width:1.0;"/><text fill="#CAD3F5" font-family="Helvetica" font-size="12" lengthAdjust="spacing" textLength="193.4063" x="832.67" y="704.2402">(logically, Kind is the base for HKTs)</text></g><!--link MaybeKindBase to Kind--><g id="link_MaybeKindBase_Kind"><path codeLine="71" d="M1062.12,652.36 C1055.68,669.06 1045.15,691.7 1030.67,708 C1020.42,719.54 1022.251,719.98 1009.431,728.11 " fill="none" id="MaybeKindBase-to-Kind" style="stroke:#F5BDE6;stroke-width:1.0;"/><polygon fill="none" points="994.23,737.75,1012.6443,733.177,1006.2177,723.043,994.23,737.75" style="stroke:#F5BDE6;stroke-width:1.0;"/><text fill="#CAD3F5" font-family="Helvetica" font-size="12" lengthAdjust="spacing" textLength="134.7305" x="1041.75" y="704.2402">&lt;MaybeKind.Witness, A&gt;</text></g><!--link MaybeFunctorImpl to Functor--><g id="link_MaybeFunctorImpl_Functor"><path codeLine="73" d="M631.98,166.9 C675.46,180.8 729.93,205.45 761.67,247 C783.8,275.97 818.2032,510.6154 829.0632,587.8354 " fill="none" id="MaybeFunctorImpl-to-Functor" style="stroke:#F5BDE6;stroke-width:1.0;stroke-dasharray:7.0,7.0;"/><polygon fill="none" points="831.57,605.66,835.0047,586.9998,823.1217,588.671,831.57,605.66" style="stroke:#F5BDE6;stroke-width:1.0;"/><text fill="#CAD3F5" font-family="Helvetica" font-size="12" lengthAdjust="spacing" textLength="120.0586" x="788.48" y="333.2402">&lt;MaybeKind.Witness&gt;</text></g><!--link MaybeMonadImpl to MaybeFunctorImpl--><g id="link_MaybeMonadImpl_MaybeFunctorImpl"><path codeLine="74" d="M565.67,53.47 C565.67,74.47 565.67,87.64 565.67,108.61 " fill="none" id="MaybeMonadImpl-to-MaybeFunctorImpl" style="stroke:#F5BDE6;stroke-width:1.0;"/><polygon fill="none" points="565.67,126.61,571.67,108.61,559.67,108.61,565.67,126.61" style="stroke:#F5BDE6;stroke-width:1.0;"/></g><!--link MaybeMonadImpl to MonadErrorBase--><g id="link_MaybeMonadImpl_MonadErrorBase"><path codeLine="75" d="M614.43,53.47 C659.98,74.47 711.2633,98.1045 756.7533,119.0745 " fill="none" id="MaybeMonadImpl-to-MonadErrorBase" style="stroke:#F5BDE6;stroke-width:1.0;stroke-dasharray:7.0,7.0;"/><polygon fill="none" points="773.1,126.61,759.2651,113.6256,754.2414,124.5234,773.1,126.61" style="stroke:#F5BDE6;stroke-width:1.0;"/><text fill="#CAD3F5" font-family="Helvetica" font-size="12" lengthAdjust="spacing" textLength="150.7441" x="702.35" y="93.2402">&lt;MaybeKind.Witness, Void&gt;</text></g><!--link MaybeMonadImpl to MaybeKindHelper--><g id="link_MaybeMonadImpl_MaybeKindHelper"><path codeLine="77" d="M531.62,53.39 C462.53,98.81 311.6533,198.0036 242.6533,243.3736 " fill="none" id="MaybeMonadImpl-to-MaybeKindHelper" style="stroke:#F5BDE6;stroke-width:1.0;stroke-dasharray:7.0,7.0;"/><polygon fill="#F5BDE6" points="237.64,246.67,247.3576,245.0676,241.8178,243.923,242.9624,238.3831,237.64,246.67" style="stroke:#F5BDE6;stroke-width:1.0;"/><text fill="#CAD3F5" font-family="Helvetica" font-size="12" lengthAdjust="spacing" textLength="25.3477" x="415.71" y="153.2402">uses</text></g><!--link MaybeFunctorImpl to MaybeKindHelper--><g id="link_MaybeFunctorImpl_MaybeKindHelper"><path codeLine="78" d="M499.28,172.64 C434.88,193.63 343.3045,223.4802 278.1245,244.7302 " fill="none" id="MaybeFunctorImpl-to-MaybeKindHelper" style="stroke:#F5BDE6;stroke-width:1.0;stroke-dasharray:7.0,7.0;"/><polygon fill="#F5BDE6" points="272.42,246.59,282.2166,247.6033,277.1737,245.0402,279.7369,239.9973,272.42,246.59" style="stroke:#F5BDE6;stroke-width:1.0;"/><text fill="#CAD3F5" font-family="Helvetica" font-size="12" lengthAdjust="spacing" textLength="25.3477" x="396.53" y="213.2402">uses</text></g><!--link MaybeKindHelper to MaybeInterface--><g id="link_MaybeKindHelper_MaybeInterface"><path codeLine="79" d="M203.67,293.18 C203.67,311.82 203.67,333.68 203.67,360.7 " fill="none" id="MaybeKindHelper-to-MaybeInterface" style="stroke:#F5BDE6;stroke-width:1.0;stroke-dasharray:7.0,7.0;"/><polygon fill="#F5BDE6" points="203.67,366.7,207.67,357.7,203.67,361.7,199.67,357.7,203.67,366.7" style="stroke:#F5BDE6;stroke-width:1.0;"/><text fill="#CAD3F5" font-family="Helvetica" font-size="12" lengthAdjust="spacing" textLength="105.375" x="204.67" y="333.2402">uses (wrap/unwrap)</text></g><!--reverse link MaybeInterface to Just--><g id="link_MaybeInterface_Just"><path codeLine="80" d="M113.6874,546.3725 C88.6474,572.9125 75.25,587.12 57.86,605.54 " fill="none" id="MaybeInterface-backto-Just" style="stroke:#F5BDE6;stroke-width:1.0;stroke-dasharray:7.0,7.0;"/><polygon fill="none" points="126.04,533.28,109.3233,542.255,118.0516,550.49,126.04,533.28" style="stroke:#F5BDE6;stroke-width:1.0;"/></g><!--reverse link MaybeInterface to Nothing--><g id="link_MaybeInterface_Nothing"><path codeLine="81" d="M169.9993,550.3265 C160.9993,576.8665 157.53,587.12 151.28,605.54 " fill="none" id="MaybeInterface-backto-Nothing" style="stroke:#F5BDE6;stroke-width:1.0;stroke-dasharray:7.0,7.0;"/><polygon fill="none" points="175.78,533.28,164.3172,548.3996,175.6815,552.2534,175.78,533.28" style="stroke:#F5BDE6;stroke-width:1.0;"/></g><!--SRC=[bLPBSzem4BxxLsnpYPc0kMSOTo2JD8-IIqXxZH02gnMIHvQJCad-UrUIRMI3q_J08Er- - -r3gvM_S4b5kMAG6PCNv-En9Y_9XfkiN9O5qrH9mwH9gDgE9LM58IDEnvIOF2yfvNAq9PHcd1WroWMHfjoAaSdObestXCknMoOvIgCeuaYbruGoEBdZSZMv6i8qFG5IWDs6wgjIKgFqvCghgss8cEQvu1W6VsOrAX25oBcIP3MPUupRp4XnYBZK6XtEXt0P89tGmQC883GXkoMRB2getTmqoia4uldmEzzaPYPADe0qXLSq1pW3h9_X5D0IQWhuLHOcNWm-G4XbCYutyKUOjLRR-r88iXHipxPKIZ0YWHUtrikX-Bv3lO0DCy5EwKjH18Irv1kY7afRSQRHVQtsuJoci2Lvx8wDApbP31yF4Mj1pBoDgdKE_6vBJWKf2ZYnmRjgip_OZQk3alloZZ2wPu8bhrpTDeKDkQgCFqDNrRcs-9h2pVt3Odf_SNbu47jQx1EKIyhYndMtSrpxJuFkiGBRPwvvxdppFFpUTVhd57vo8nbcONOvWxNIthgJOSDupKJETDkBbpa_ryEDPhiM_wFXWflTdjhTJA_Rfpkj-muNfNpHU8ekeyOYgUAq5tpGQrvL0Hn1JNWKtiC-hIxFz3-DmllqZZ_SCz2svg3MtL8vwWiSWpZF2d-IaWWuTR1h9LPu0P1JCwhqwjIXNp9EC-3RNE3qawPefPiuo9F7GvkbgGBU7rmC-ZZWzVq9QR1tNUnHz_2hWRa_-KfmWtJDMPzXbOQpy2ncdNjhrSF-EWwEzPsRctl7RdlWjjC0QXqUuP6e3cR5j3UiMVgla4CllIJGtzEjydp6sMWq2fuJkssLehzFDU45SqRn3yLNWq-QPKIkXBT3QHRt8eVGv6BvFqYbFkke_InYBczfyAWsAwy8N-HWxPNrerxzUw5r2-SG2xL1i10x7nC-L82V4h2qr7OsNTyjYW56qvgT8SFnMLHPXBSXIVQn7BLBequZ-vmxF5sGe-qKwtXKjl9rOA5zUZ2ppm6_o8fZANoC3SGDTF_OUIJ4TWgF_JGVHDrFchSaSS_fKKNrz4L_0G00]--></g></svg>