<svg xmlns="http://www.w3.org/2000/svg" xmlns:xlink="http://www.w3.org/1999/xlink" contentStyleType="text/css" height="941px" preserveAspectRatio="none" style="width:1243px;height:941px;background:#24273A;" version="1.1" viewBox="0 0 1243 941" width="1243px" zoomAndPan="magnify"><defs/><g><rect fill="#24273A" height="941" style="stroke:none;stroke-width:1.0;" width="1243" x="0" y="0"/><!--class MaybeTKind--><g id="elem_MaybeTKind"><rect codeLine="7" fill="#24273A" height="50" id="MaybeTKind" rx="1.5" ry="1.5" style="stroke:#C6A0F6;stroke-width:2.0;" width="252.4023" x="404.29" y="685"/><rect fill="#363A4F" height="30" rx="1.5" ry="1.5" style="stroke:#363A4F;stroke-width:2.0;" width="252.4023" x="404.29" y="685"/><rect fill="#363A4F" height="1.5" style="stroke:#363A4F;stroke-width:2.0;" width="252.4023" x="404.29" y="713.5"/><rect codeLine="7" fill="none" height="50" id="MaybeTKind" rx="1.5" ry="1.5" style="stroke:#C6A0F6;stroke-width:2.0;" width="252.4023" x="404.29" y="685"/><ellipse cx="468.58" cy="700" fill="#B4A7E5" rx="10" ry="10" style="stroke:#181818;stroke-width:1.0;"/><path d="M465.5879,697.2754 L465.5879,695.752 L470.7968,695.752 L470.7968,697.2754 L469.0566,697.2754 L469.0566,702.9766 L470.7968,702.9766 L470.7968,704.5 L465.5879,704.5 L465.5879,702.9766 L467.3281,702.9766 L467.3281,697.2754 Z " fill="#CAD3F5"/><text fill="#A6DA95" font-family="Helvetica" font-size="16" font-style="italic" lengthAdjust="spacing" textLength="89.8203" x="487.58" y="704.3203">MaybeTKind</text><rect fill="#24273A" height="14" style="stroke:#C6A0F6;stroke-width:1.0;stroke-dasharray:2.0,2.0;" width="24.002" x="635.6904" y="682"/><text fill="#CAD3F5" font-family="Helvetica" font-size="12" font-style="italic" lengthAdjust="spacing" textLength="22.002" x="636.6904" y="692.2402">F, A</text><line style="stroke:#C6A0F6;stroke-width:2.0;" x1="405.29" x2="655.6923" y1="715" y2="715"/><ellipse cx="415.29" cy="726.5" fill="#84BE84" rx="3" ry="3" style="stroke:#038048;stroke-width:1.0;"/><text fill="#A6DA95" font-family="Helvetica" font-size="12" lengthAdjust="spacing" text-decoration="underline" textLength="227.4023" x="423.29" y="728.2402">class Witness&lt;OUTER_F&gt; &#171;(W,lightblue)&#187;</text></g><!--class Kind--><g id="elem_Kind"><rect fill="#24273A" height="30" id="Kind" rx="1.5" ry="1.5" style="stroke:#C6A0F6;stroke-width:2.0;" width="62.0234" x="499.48" y="594"/><rect fill="#363A4F" height="30" rx="1.5" ry="1.5" style="stroke:#363A4F;stroke-width:2.0;" width="62.0234" x="499.48" y="594"/><rect fill="#363A4F" height="1.5" style="stroke:#363A4F;stroke-width:2.0;" width="62.0234" x="499.48" y="622.5"/><rect fill="none" height="30" id="Kind" rx="1.5" ry="1.5" style="stroke:#C6A0F6;stroke-width:2.0;" width="62.0234" x="499.48" y="594"/><ellipse cx="513.48" cy="609" fill="#B4A7E5" rx="10" ry="10" style="stroke:#181818;stroke-width:1.0;"/><path d="M510.4878,606.2754 L510.4878,604.752 L515.6968,604.752 L515.6968,606.2754 L513.9566,606.2754 L513.9566,611.9766 L515.6968,611.9766 L515.6968,613.5 L510.4878,613.5 L510.4878,611.9766 L512.228,611.9766 L512.228,606.2754 Z " fill="#CAD3F5"/><text fill="#A6DA95" font-family="Helvetica" font-size="16" font-style="italic" lengthAdjust="spacing" textLength="32.0234" x="526.48" y="613.3203">Kind</text></g><!--class MaybeT<F, A>--><g id="elem_MaybeT&lt;F, A&gt;"><rect codeLine="12" fill="#24273A" height="138" id="MaybeT&lt;F, A&gt;" rx="1.5" ry="1.5" style="stroke:#C6A0F6;stroke-width:2.0;" width="408.5137" x="326.24" y="796"/><rect fill="#363A4F" height="30" rx="1.5" ry="1.5" style="stroke:#363A4F;stroke-width:2.0;" width="408.5137" x="326.24" y="796"/><rect fill="#363A4F" height="1.5" style="stroke:#363A4F;stroke-width:2.0;" width="408.5137" x="326.24" y="824.5"/><rect codeLine="12" fill="none" height="138" id="MaybeT&lt;F, A&gt;" rx="1.5" ry="1.5" style="stroke:#C6A0F6;stroke-width:2.0;" width="408.5137" x="326.24" y="796"/><ellipse cx="473.5867" cy="811" fill="#ADD1B2" rx="10" ry="10" style="stroke:#181818;stroke-width:1.0;"/><path d="M475.4207,815.248 Q475.0105,815.459 474.5593,815.5645 Q474.1082,815.6699 473.6101,815.6699 Q471.8406,815.6699 470.9089,814.5039 Q469.9773,813.3379 469.9773,811.1348 Q469.9773,808.9258 470.9089,807.7598 Q471.8406,806.5938 473.6101,806.5938 Q474.1082,806.5938 474.5652,806.6992 Q475.0222,806.8047 475.4207,807.0156 L475.4207,808.9375 Q474.9754,808.5273 474.5564,808.3369 Q474.1375,808.1465 473.6921,808.1465 Q472.7429,808.1465 472.2595,808.8994 Q471.7761,809.6523 471.7761,811.1348 Q471.7761,812.6113 472.2595,813.3643 Q472.7429,814.1172 473.6921,814.1172 Q474.1375,814.1172 474.5564,813.9268 Q474.9754,813.7363 475.4207,813.3262 Z " fill="#CAD3F5"/><text fill="#A6DA95" font-family="Helvetica" font-size="16" lengthAdjust="spacing" textLength="105.8203" x="492.5867" y="815.3203">MaybeT&lt;F, A&gt;</text><line style="stroke:#C6A0F6;stroke-width:2.0;" x1="327.24" x2="733.7537" y1="826" y2="826"/><ellipse cx="337.24" cy="837.5" fill="none" rx="3" ry="3" style="stroke:#038048;stroke-width:1.0;"/><text fill="#A6DA95" font-family="Helvetica" font-size="12" lengthAdjust="spacing" textLength="145.4238" x="345.24" y="839.2402">value: Kind&lt;F, Maybe&lt;A&gt;&gt;</text><line style="stroke:#C6A0F6;stroke-width:1.0;" x1="327.24" x2="733.7537" y1="846" y2="846"/><ellipse cx="337.24" cy="857.5" fill="#84BE84" rx="3" ry="3" style="stroke:#038048;stroke-width:1.0;"/><text fill="#A6DA95" font-family="Helvetica" font-size="12" lengthAdjust="spacing" text-decoration="underline" textLength="252.1113" x="345.24" y="859.2402">fromKind(Kind&lt;F, Maybe&lt;A&gt;&gt;): MaybeT&lt;F, A&gt;</text><ellipse cx="337.24" cy="869.5" fill="#84BE84" rx="3" ry="3" style="stroke:#038048;stroke-width:1.0;"/><text fill="#A6DA95" font-family="Helvetica" font-size="12" lengthAdjust="spacing" text-decoration="underline" textLength="262.793" x="345.24" y="871.2402">just(Monad&lt;F&gt; outerMonad, A a): MaybeT&lt;F, A&gt;</text><ellipse cx="337.24" cy="881.5" fill="#84BE84" rx="3" ry="3" style="stroke:#038048;stroke-width:1.0;"/><text fill="#A6DA95" font-family="Helvetica" font-size="12" lengthAdjust="spacing" text-decoration="underline" textLength="258.8086" x="345.24" y="883.2402">nothing(Monad&lt;F&gt; outerMonad): MaybeT&lt;F, A&gt;</text><ellipse cx="337.24" cy="893.5" fill="#84BE84" rx="3" ry="3" style="stroke:#038048;stroke-width:1.0;"/><text fill="#A6DA95" font-family="Helvetica" font-size="12" lengthAdjust="spacing" text-decoration="underline" textLength="383.5137" x="345.24" y="895.2402">fromMaybe(Monad&lt;F&gt; outerMonad, Maybe&lt;A&gt; maybe): MaybeT&lt;F, A&gt;</text><ellipse cx="337.24" cy="905.5" fill="#84BE84" rx="3" ry="3" style="stroke:#038048;stroke-width:1.0;"/><text fill="#A6DA95" font-family="Helvetica" font-size="12" lengthAdjust="spacing" text-decoration="underline" textLength="318.8145" x="345.24" y="907.2402">liftF(Monad&lt;F&gt; outerMonad, Kind&lt;F, A&gt; fa): MaybeT&lt;F, A&gt;</text><line style="stroke:#C6A0F6;stroke-width:1.0;" x1="327.24" x2="733.7537" y1="914" y2="914"/><ellipse cx="337.24" cy="925.5" fill="#84BE84" rx="3" ry="3" style="stroke:#038048;stroke-width:1.0;"/><text fill="#A6DA95" font-family="Helvetica" font-size="12" lengthAdjust="spacing" textLength="153.416" x="345.24" y="927.2402">value(): Kind&lt;F, Maybe&lt;A&gt;&gt;</text></g><g id="elem_GMN7"><path d="M6,855.5 L6,874.5 A1.5,1.5 0 0 0 7.5,876 L289.4883,876 A1.5,1.5 0 0 0 290.9883,874.5 L290.9883,872 L325.93,865 L290.9883,864 L290.9883,864 L280.9883,854 L7.5,854 A1.5,1.5 0 0 0 6,855.5 " fill="#EED49F" style="stroke:#24273A;stroke-width:0.5;"/><path d="M280.9883,854 L280.9883,863.25 A0.75,0.75 0 0 0 281.7383,864 L290.9883,864 L280.9883,854 " fill="#EED49F" style="stroke:#24273A;stroke-width:0.5;"/><text fill="#24273A" font-family="Helvetica" font-size="12" lengthAdjust="spacing" textLength="263.9883" x="12" y="868.2402">"Wraps a monadic value of Kind&lt;F, Maybe&lt;A&gt;&gt;."</text></g><!--class MaybeTMonad--><g id="elem_MaybeTMonad"><rect codeLine="25" fill="#24273A" height="150" id="MaybeTMonad" rx="1.5" ry="1.5" style="stroke:#C6A0F6;stroke-width:2.0;" width="846.7188" x="105.13" y="98"/><rect fill="#363A4F" height="30" rx="1.5" ry="1.5" style="stroke:#363A4F;stroke-width:2.0;" width="846.7188" x="105.13" y="98"/><rect fill="#363A4F" height="1.5" style="stroke:#363A4F;stroke-width:2.0;" width="846.7188" x="105.13" y="126.5"/><rect codeLine="25" fill="none" height="150" id="MaybeTMonad" rx="1.5" ry="1.5" style="stroke:#C6A0F6;stroke-width:2.0;" width="846.7188" x="105.13" y="98"/><ellipse cx="465.465" cy="113" fill="#ADD1B2" rx="10" ry="10" style="stroke:#181818;stroke-width:1.0;"/><path d="M467.2989,117.248 Q466.8888,117.459 466.4376,117.5645 Q465.9864,117.6699 465.4884,117.6699 Q463.7189,117.6699 462.7872,116.5039 Q461.8556,115.3379 461.8556,113.1348 Q461.8556,110.9258 462.7872,109.7598 Q463.7189,108.5938 465.4884,108.5938 Q465.9864,108.5938 466.4435,108.6992 Q466.9005,108.8047 467.2989,109.0156 L467.2989,110.9375 Q466.8536,110.5273 466.4347,110.3369 Q466.0157,110.1465 465.5704,110.1465 Q464.6212,110.1465 464.1378,110.8994 Q463.6544,111.6523 463.6544,113.1348 Q463.6544,114.6113 464.1378,115.3643 Q464.6212,116.1172 465.5704,116.1172 Q466.0157,116.1172 466.4347,115.9268 Q466.8536,115.7363 467.2989,115.3262 Z " fill="#CAD3F5"/><text fill="#A6DA95" font-family="Helvetica" font-size="16" lengthAdjust="spacing" textLength="106.7188" x="484.465" y="117.3203">MaybeTMonad</text><rect fill="#24273A" height="14" style="stroke:#C6A0F6;stroke-width:1.0;stroke-dasharray:2.0,2.0;" width="9.3301" x="945.5187" y="95"/><text fill="#CAD3F5" font-family="Helvetica" font-size="12" font-style="italic" lengthAdjust="spacing" textLength="7.3301" x="946.5187" y="105.2402">F</text><line style="stroke:#C6A0F6;stroke-width:2.0;" x1="106.13" x2="950.8488" y1="128" y2="128"/><rect fill="none" height="6" style="stroke:#C82930;stroke-width:1.0;" width="6" x="113.13" y="136.5"/><text fill="#A6DA95" font-family="Helvetica" font-size="12" lengthAdjust="spacing" textLength="128.748" x="124.13" y="141.2402">outerMonad: Monad&lt;F&gt;</text><line style="stroke:#C6A0F6;stroke-width:1.0;" x1="106.13" x2="950.8488" y1="148" y2="148"/><ellipse cx="116.13" cy="159.5" fill="#84BE84" rx="3" ry="3" style="stroke:#038048;stroke-width:1.0;"/><text fill="#A6DA95" font-family="Helvetica" font-size="12" lengthAdjust="spacing" textLength="213.4453" x="124.13" y="161.2402">MaybeTMonad(Monad&lt;F&gt; outerMonad)</text><line style="stroke:#C6A0F6;stroke-width:1.0;" x1="106.13" x2="950.8488" y1="168" y2="168"/><ellipse cx="116.13" cy="179.5" fill="#84BE84" rx="3" ry="3" style="stroke:#038048;stroke-width:1.0;"/><text fill="#A6DA95" font-family="Helvetica" font-size="12" lengthAdjust="spacing" textLength="252.1172" x="124.13" y="181.2402">of(A value): Kind&lt;MaybeTKind.Witness&lt;F&gt;, A&gt;</text><ellipse cx="116.13" cy="191.5" fill="#84BE84" rx="3" ry="3" style="stroke:#038048;stroke-width:1.0;"/><text fill="#A6DA95" font-family="Helvetica" font-size="12" lengthAdjust="spacing" textLength="522.2461" x="124.13" y="193.2402">map(Function&lt;A, B&gt; f, Kind&lt;MaybeTKind.Witness&lt;F&gt;, A&gt; fa): Kind&lt;MaybeTKind.Witness&lt;F&gt;, B&gt;</text><ellipse cx="116.13" cy="203.5" fill="#84BE84" rx="3" ry="3" style="stroke:#038048;stroke-width:1.0;"/><text fill="#A6DA95" font-family="Helvetica" font-size="12" lengthAdjust="spacing" textLength="695.0039" x="124.13" y="205.2402">ap(Kind&lt;MaybeTKind.Witness&lt;F&gt;, Function&lt;A, B&gt;&gt; ff, Kind&lt;MaybeTKind.Witness&lt;F&gt;, A&gt; fa): Kind&lt;MaybeTKind.Witness&lt;F&gt;, B&gt;</text><ellipse cx="116.13" cy="215.5" fill="#84BE84" rx="3" ry="3" style="stroke:#038048;stroke-width:1.0;"/><text fill="#A6DA95" font-family="Helvetica" font-size="12" lengthAdjust="spacing" textLength="724.3359" x="124.13" y="217.2402">flatMap(Function&lt;A, Kind&lt;MaybeTKind.Witness&lt;F&gt;, B&gt;&gt; f, Kind&lt;MaybeTKind.Witness&lt;F&gt;, A&gt; ma): Kind&lt;MaybeTKind.Witness&lt;F&gt;, B&gt;</text><ellipse cx="116.13" cy="227.5" fill="#84BE84" rx="3" ry="3" style="stroke:#038048;stroke-width:1.0;"/><text fill="#A6DA95" font-family="Helvetica" font-size="12" lengthAdjust="spacing" textLength="304.7695" x="124.13" y="229.2402">raiseError(Unit error): Kind&lt;MaybeTKind.Witness&lt;F&gt;, A&gt;</text><ellipse cx="116.13" cy="239.5" fill="#84BE84" rx="3" ry="3" style="stroke:#038048;stroke-width:1.0;"/><text fill="#A6DA95" font-family="Helvetica" font-size="12" lengthAdjust="spacing" textLength="821.7188" x="124.13" y="241.2402">handleErrorWith(Kind&lt;MaybeTKind.Witness&lt;F&gt;, A&gt; ma, Function&lt;Unit, Kind&lt;MaybeTKind.Witness&lt;F&gt;, A&gt;&gt; handler): Kind&lt;MaybeTKind.Witness&lt;F&gt;, A&gt;</text></g><!--class MonadError--><g id="elem_MonadError"><rect fill="#24273A" height="30" id="MonadError" rx="1.5" ry="1.5" style="stroke:#C6A0F6;stroke-width:2.0;" width="114.4766" x="471.26" y="7"/><rect fill="#363A4F" height="30" rx="1.5" ry="1.5" style="stroke:#363A4F;stroke-width:2.0;" width="114.4766" x="471.26" y="7"/><rect fill="#363A4F" height="1.5" style="stroke:#363A4F;stroke-width:2.0;" width="114.4766" x="471.26" y="35.5"/><rect fill="none" height="30" id="MonadError" rx="1.5" ry="1.5" style="stroke:#C6A0F6;stroke-width:2.0;" width="114.4766" x="471.26" y="7"/><ellipse cx="485.26" cy="22" fill="#B4A7E5" rx="10" ry="10" style="stroke:#181818;stroke-width:1.0;"/><path d="M482.2678,19.2754 L482.2678,17.752 L487.4768,17.752 L487.4768,19.2754 L485.7366,19.2754 L485.7366,24.9766 L487.4768,24.9766 L487.4768,26.5 L482.2678,26.5 L482.2678,24.9766 L484.008,24.9766 L484.008,19.2754 Z " fill="#CAD3F5"/><text fill="#A6DA95" font-family="Helvetica" font-size="16" font-style="italic" lengthAdjust="spacing" textLength="84.4766" x="498.26" y="26.3203">MonadError</text></g><g id="elem_GMN13"><path d="M986.61,163.5 L986.61,169 L952.08,173 L986.61,177 L986.61,182.5 A1.5,1.5 0 0 0 988.11,184 L1234.8717,184 A1.5,1.5 0 0 0 1236.3717,182.5 L1236.3717,172 L1226.3717,162 L988.11,162 A1.5,1.5 0 0 0 986.61,163.5 " fill="#EED49F" style="stroke:#24273A;stroke-width:0.5;"/><path d="M1226.3717,162 L1226.3717,171.25 A0.75,0.75 0 0 0 1227.1217,172 L1236.3717,172 L1226.3717,162 " fill="#EED49F" style="stroke:#24273A;stroke-width:0.5;"/><text fill="#24273A" font-family="Helvetica" font-size="12" lengthAdjust="spacing" textLength="228.7617" x="992.61" y="176.2402">Provides MonadError instance for MaybeT.</text></g><!--class MaybeTKindHelper--><g id="elem_MaybeTKindHelper"><rect codeLine="39" fill="#24273A" height="94" id="MaybeTKindHelper" rx="1.5" ry="1.5" style="stroke:#C6A0F6;stroke-width:2.0;" width="384.4844" x="611.25" y="322"/><rect fill="#363A4F" height="30" rx="1.5" ry="1.5" style="stroke:#363A4F;stroke-width:2.0;" width="384.4844" x="611.25" y="322"/><rect fill="#363A4F" height="1.5" style="stroke:#363A4F;stroke-width:2.0;" width="384.4844" x="611.25" y="350.5"/><rect codeLine="39" fill="none" height="94" id="MaybeTKindHelper" rx="1.5" ry="1.5" style="stroke:#C6A0F6;stroke-width:2.0;" width="384.4844" x="611.25" y="322"/><ellipse cx="731.0156" cy="337" fill="#D3D3D3" rx="10" ry="10" style="stroke:#181818;stroke-width:1.0;"/><path d="M727.8184,332.752 L729.5469,332.752 L729.5469,336.0859 L731.709,336.0859 L731.709,332.752 L733.4375,332.752 L733.4375,341.5 L731.709,341.5 L731.709,337.6094 L729.5469,337.6094 L729.5469,341.5 L727.8184,341.5 Z " fill="#CAD3F5"/><text fill="#A6DA95" font-family="Helvetica" font-size="16" lengthAdjust="spacing" textLength="136.9531" x="750.0156" y="341.3203">MaybeTKindHelper</text><line style="stroke:#C6A0F6;stroke-width:2.0;" x1="612.25" x2="994.7344" y1="352" y2="352"/><ellipse cx="622.25" cy="363.5" fill="none" rx="3" ry="3" style="stroke:#038048;stroke-width:1.0;"/><text fill="#A6DA95" font-family="Helvetica" font-size="12" lengthAdjust="spacing" text-decoration="underline" textLength="191.4023" x="630.25" y="365.2402">INVALID_KIND_NULL_MSG: String</text><ellipse cx="622.25" cy="375.5" fill="none" rx="3" ry="3" style="stroke:#038048;stroke-width:1.0;"/><text fill="#A6DA95" font-family="Helvetica" font-size="12" lengthAdjust="spacing" text-decoration="underline" textLength="192.0645" x="630.25" y="377.2402">INVALID_KIND_TYPE_MSG: String</text><line style="stroke:#C6A0F6;stroke-width:1.0;" x1="612.25" x2="994.7344" y1="384" y2="384"/><ellipse cx="622.25" cy="395.5" fill="#84BE84" rx="3" ry="3" style="stroke:#038048;stroke-width:1.0;"/><text fill="#A6DA95" font-family="Helvetica" font-size="12" lengthAdjust="spacing" text-decoration="underline" textLength="343.4766" x="630.25" y="397.2402">narrow(Kind&lt;MaybeTKind.Witness&lt;F&gt;, A&gt; kind): MaybeT&lt;F, A&gt;</text><ellipse cx="622.25" cy="407.5" fill="#84BE84" rx="3" ry="3" style="stroke:#038048;stroke-width:1.0;"/><text fill="#A6DA95" font-family="Helvetica" font-size="12" lengthAdjust="spacing" text-decoration="underline" textLength="359.4844" x="630.25" y="409.2402">widen(MaybeT&lt;F, A&gt; maybeT): Kind&lt;MaybeTKind.Witness&lt;F&gt;, A&gt;</text></g><g id="elem_GMN17"><path d="M396.64,359.5 L396.64,378.5 A1.5,1.5 0 0 0 398.14,380 L574.847,380 A1.5,1.5 0 0 0 576.347,378.5 L576.347,376 L611.15,369 L576.347,368 L576.347,368 L566.347,358 L398.14,358 A1.5,1.5 0 0 0 396.64,359.5 " fill="#EED49F" style="stroke:#24273A;stroke-width:0.5;"/><path d="M566.347,358 L566.347,367.25 A0.75,0.75 0 0 0 567.097,368 L576.347,368 L566.347,358 " fill="#EED49F" style="stroke:#24273A;stroke-width:0.5;"/><text fill="#24273A" font-family="Helvetica" font-size="12" lengthAdjust="spacing" textLength="158.707" x="402.64" y="372.2402">Utility for HKT widen / narrow.</text></g><!--class MaybeT--><g id="elem_MaybeT"><rect fill="#24273A" height="30" id="MaybeT" rx="1.5" ry="1.5" style="stroke:#C6A0F6;stroke-width:2.0;" width="87.7969" x="486.6" y="490"/><rect fill="#363A4F" height="30" rx="1.5" ry="1.5" style="stroke:#363A4F;stroke-width:2.0;" width="87.7969" x="486.6" y="490"/><rect fill="#363A4F" height="1.5" style="stroke:#363A4F;stroke-width:2.0;" width="87.7969" x="486.6" y="518.5"/><rect fill="none" height="30" id="MaybeT" rx="1.5" ry="1.5" style="stroke:#C6A0F6;stroke-width:2.0;" width="87.7969" x="486.6" y="490"/><ellipse cx="500.6" cy="505" fill="#ADD1B2" rx="10" ry="10" style="stroke:#181818;stroke-width:1.0;"/><path d="M502.434,509.248 Q502.0238,509.459 501.5727,509.5645 Q501.1215,509.6699 500.6234,509.6699 Q498.8539,509.6699 497.9223,508.5039 Q496.9906,507.3379 496.9906,505.1348 Q496.9906,502.9258 497.9223,501.7598 Q498.8539,500.5938 500.6234,500.5938 Q501.1215,500.5938 501.5785,500.6992 Q502.0355,500.8047 502.434,501.0156 L502.434,502.9375 Q501.9887,502.5273 501.5697,502.3369 Q501.1508,502.1465 500.7055,502.1465 Q499.7563,502.1465 499.2729,502.8994 Q498.7895,503.6523 498.7895,505.1348 Q498.7895,506.6113 499.2729,507.3643 Q499.7563,508.1172 500.7055,508.1172 Q501.1508,508.1172 501.5697,507.9268 Q501.9887,507.7363 502.434,507.3262 Z " fill="#CAD3F5"/><text fill="#A6DA95" font-family="Helvetica" font-size="16" lengthAdjust="spacing" textLength="57.7969" x="513.6" y="509.3203">MaybeT</text></g><!--class Maybe--><g id="elem_Maybe"><rect fill="#24273A" height="30" id="Maybe" rx="1.5" ry="1.5" style="stroke:#C6A0F6;stroke-width:2.0;" width="78.0234" x="882.48" y="594"/><rect fill="#363A4F" height="30" rx="1.5" ry="1.5" style="stroke:#363A4F;stroke-width:2.0;" width="78.0234" x="882.48" y="594"/><rect fill="#363A4F" height="1.5" style="stroke:#363A4F;stroke-width:2.0;" width="78.0234" x="882.48" y="622.5"/><rect fill="none" height="30" id="Maybe" rx="1.5" ry="1.5" style="stroke:#C6A0F6;stroke-width:2.0;" width="78.0234" x="882.48" y="594"/><ellipse cx="896.48" cy="609" fill="#ADD1B2" rx="10" ry="10" style="stroke:#181818;stroke-width:1.0;"/><path d="M898.314,613.248 Q897.9038,613.459 897.4527,613.5645 Q897.0015,613.6699 896.5034,613.6699 Q894.7339,613.6699 893.8023,612.5039 Q892.8706,611.3379 892.8706,609.1348 Q892.8706,606.9258 893.8023,605.7598 Q894.7339,604.5938 896.5034,604.5938 Q897.0015,604.5938 897.4585,604.6992 Q897.9155,604.8047 898.314,605.0156 L898.314,606.9375 Q897.8687,606.5273 897.4497,606.3369 Q897.0308,606.1465 896.5855,606.1465 Q895.6363,606.1465 895.1529,606.8994 Q894.6695,607.6523 894.6695,609.1348 Q894.6695,610.6113 895.1529,611.3643 Q895.6363,612.1172 896.5855,612.1172 Q897.0308,612.1172 897.4497,611.9268 Q897.8687,611.7363 898.314,611.3262 Z " fill="#CAD3F5"/><text fill="#A6DA95" font-family="Helvetica" font-size="16" lengthAdjust="spacing" textLength="48.0234" x="909.48" y="613.3203">Maybe</text></g><!--class Monad--><g id="elem_Monad"><rect fill="#24273A" height="30" id="Monad" rx="1.5" ry="1.5" style="stroke:#C6A0F6;stroke-width:2.0;" width="78.9219" x="210.03" y="594"/><rect fill="#363A4F" height="30" rx="1.5" ry="1.5" style="stroke:#363A4F;stroke-width:2.0;" width="78.9219" x="210.03" y="594"/><rect fill="#363A4F" height="1.5" style="stroke:#363A4F;stroke-width:2.0;" width="78.9219" x="210.03" y="622.5"/><rect fill="none" height="30" id="Monad" rx="1.5" ry="1.5" style="stroke:#C6A0F6;stroke-width:2.0;" width="78.9219" x="210.03" y="594"/><ellipse cx="224.03" cy="609" fill="#ADD1B2" rx="10" ry="10" style="stroke:#181818;stroke-width:1.0;"/><path d="M225.864,613.248 Q225.4538,613.459 225.0027,613.5645 Q224.5515,613.6699 224.0534,613.6699 Q222.2839,613.6699 221.3523,612.5039 Q220.4206,611.3379 220.4206,609.1348 Q220.4206,606.9258 221.3523,605.7598 Q222.2839,604.5938 224.0534,604.5938 Q224.5515,604.5938 225.0085,604.6992 Q225.4655,604.8047 225.864,605.0156 L225.864,606.9375 Q225.4187,606.5273 224.9997,606.3369 Q224.5808,606.1465 224.1355,606.1465 Q223.1863,606.1465 222.7029,606.8994 Q222.2195,607.6523 222.2195,609.1348 Q222.2195,610.6113 222.7029,611.3643 Q223.1863,612.1172 224.1355,612.1172 Q224.5808,612.1172 224.9997,611.9268 Q225.4187,611.7363 225.864,611.3262 Z " fill="#CAD3F5"/><text fill="#A6DA95" font-family="Helvetica" font-size="16" lengthAdjust="spacing" textLength="48.9219" x="237.03" y="613.3203">Monad</text></g><!--reverse link Kind to MaybeTKind--><g id="link_Kind_MaybeTKind"><path d="M530.49,642.18 C530.49,657.9 530.49,665.54 530.49,684.51 " fill="none" id="Kind-backto-MaybeTKind" style="stroke:#F5BDE6;stroke-width:1.0;"/><polygon fill="none" points="530.49,624.18,524.49,642.18,536.49,642.18,530.49,624.18" style="stroke:#F5BDE6;stroke-width:1.0;"/></g><!--reverse link MaybeTKind to MaybeT<F, A>--><g id="link_MaybeTKind_MaybeT&lt;F, A&gt;"><path d="M530.49,753.24 C530.49,769.59 530.49,774.03 530.49,795.61 " fill="none" id="MaybeTKind-backto-MaybeT&lt;F, A&gt;" style="stroke:#F5BDE6;stroke-width:1.0;stroke-dasharray:7.0,7.0;"/><polygon fill="none" points="530.49,735.24,524.49,753.24,536.49,753.24,530.49,735.24" style="stroke:#F5BDE6;stroke-width:1.0;"/></g><!--reverse link MonadError to MaybeTMonad--><g id="link_MonadError_MaybeTMonad"><path d="M528.49,55.29 C528.49,69.56 528.49,74.65 528.49,97.71 " fill="none" id="MonadError-backto-MaybeTMonad" style="stroke:#F5BDE6;stroke-width:1.0;stroke-dasharray:7.0,7.0;"/><polygon fill="none" points="528.49,37.29,522.49,55.29,534.49,55.29,528.49,37.29" style="stroke:#F5BDE6;stroke-width:1.0;"/></g><!--link MaybeT to Kind--><g id="link_MaybeT_Kind"><path codeLine="50" d="M530.49,520.18 C530.49,539.56 530.49,568.12 530.49,587.61 " fill="none" id="MaybeT-to-Kind" style="stroke:#F5BDE6;stroke-width:1.0;"/><polygon fill="#F5BDE6" points="530.49,593.61,534.49,584.61,530.49,588.61,526.49,584.61,530.49,593.61" style="stroke:#F5BDE6;stroke-width:1.0;"/><text fill="#CAD3F5" font-family="Helvetica" font-size="12" lengthAdjust="spacing" textLength="28.6875" x="497.6243" y="583.23">value</text></g><!--link MaybeT to Maybe--><g id="link_MaybeT_Maybe"><path codeLine="51" d="M574.59,517.5 C651.48,537.56 803.0844,577.1051 876.4344,596.2451 " fill="none" id="MaybeT-to-Maybe" style="stroke:#F5BDE6;stroke-width:1.0;stroke-dasharray:7.0,7.0;"/><polygon fill="#F5BDE6" points="882.24,597.76,874.5415,591.6172,877.402,596.4976,872.5217,599.358,882.24,597.76" style="stroke:#F5BDE6;stroke-width:1.0;"/><text fill="#CAD3F5" font-family="Helvetica" font-size="12" lengthAdjust="spacing" textLength="70.043" x="750.4" y="560.2402">uses in value</text></g><!--link MaybeT to Monad--><g id="link_MaybeT_Monad"><path codeLine="52" d="M487.42,520.43 C462.53,528.86 430.67,539.82 402.49,550 C362.69,564.38 322.9872,579.5086 292.0672,591.4486 " fill="none" id="MaybeT-to-Monad" style="stroke:#F5BDE6;stroke-width:1.0;stroke-dasharray:7.0,7.0;"/><polygon fill="#F5BDE6" points="286.47,593.61,296.3067,594.0994,291.1343,591.8088,293.4248,586.6365,286.47,593.61" style="stroke:#F5BDE6;stroke-width:1.0;"/><text fill="#CAD3F5" font-family="Helvetica" font-size="12" lengthAdjust="spacing" textLength="118.7227" x="403.49" y="560.2402">uses in static methods</text></g><!--link MaybeTMonad to Monad--><g id="link_MaybeTMonad_Monad"><path codeLine="54" d="M295.184,255.6986 C269.634,274.9386 258.16,291.83 246.49,322 C208.71,419.72 233.8267,544.8213 244.3267,587.8213 " fill="none" id="MaybeTMonad-Monad" style="stroke:#F5BDE6;stroke-width:1.0;"/><polygon fill="none" points="304.77,248.48,297.5708,248.894,295.184,255.6986,302.3832,255.2846,304.77,248.48" style="stroke:#F5BDE6;stroke-width:1.0;"/><polygon fill="#F5BDE6" points="245.75,593.65,247.5009,583.958,244.5639,588.7927,239.7292,585.8558,245.75,593.65" style="stroke:#F5BDE6;stroke-width:1.0;"/><text fill="#CAD3F5" font-family="Helvetica" font-size="12" lengthAdjust="spacing" textLength="64.043" x="169.0249" y="583.2843">outerMonad</text></g><!--link MaybeTMonad to MaybeTKindHelper--><g id="link_MaybeTMonad_MaybeTKindHelper"><path codeLine="55" d="M634.03,248.45 C668.87,273.03 701.6973,296.1912 732.6973,318.0612 " fill="none" id="MaybeTMonad-to-MaybeTKindHelper" style="stroke:#F5BDE6;stroke-width:1.0;stroke-dasharray:7.0,7.0;"/><polygon fill="#F5BDE6" points="737.6,321.52,732.5518,313.0633,733.5144,318.6377,727.94,319.6003,737.6,321.52" style="stroke:#F5BDE6;stroke-width:1.0;"/><text fill="#CAD3F5" font-family="Helvetica" font-size="12" lengthAdjust="spacing" textLength="25.3477" x="691.63" y="288.2402">uses</text></g><!--link MaybeTMonad to MaybeT--><g id="link_MaybeTMonad_MaybeT"><path codeLine="56" d="M343,248.28 C314.4,267.95 288.69,292.25 271.49,322 C250.59,358.17 247.16,382.04 271.49,416 C320.58,484.53 420.1188,500.0061 480.2288,503.2561 " fill="none" id="MaybeTMonad-to-MaybeT" style="stroke:#F5BDE6;stroke-width:1.0;stroke-dasharray:7.0,7.0;"/><polygon fill="#F5BDE6" points="486.22,503.58,477.4491,499.0999,481.2273,503.3101,477.0172,507.0883,486.22,503.58" style="stroke:#F5BDE6;stroke-width:1.0;"/><text fill="#CAD3F5" font-family="Helvetica" font-size="12" lengthAdjust="spacing" textLength="106.7227" x="272.49" y="372.2402">uses via KindHelper</text></g><!--link MaybeTMonad to Maybe--><g id="link_MaybeTMonad_Maybe"><path codeLine="58" d="M874.07,248.44 C938.87,269.34 992.84,294.1 1013.49,322 C1079.45,411.08 976.4356,544.7938 938.1856,589.2038 " fill="none" id="MaybeTMonad-to-Maybe" style="stroke:#F5BDE6;stroke-width:1.0;stroke-dasharray:7.0,7.0;"/><polygon fill="#F5BDE6" points="934.27,593.75,943.1742,589.5411,937.533,589.9615,937.1126,584.3203,934.27,593.75" style="stroke:#F5BDE6;stroke-width:1.0;"/><text fill="#CAD3F5" font-family="Helvetica" font-size="12" lengthAdjust="spacing" textLength="64.7051" x="1024.33" y="456.2402">manipulates</text></g><!--link MaybeTKindHelper to MaybeT--><g id="link_MaybeTKindHelper_MaybeT"><path codeLine="60" d="M708.78,416.49 C656.57,442.12 600.7259,469.5257 565.3059,486.9157 " fill="none" id="MaybeTKindHelper-to-MaybeT" style="stroke:#F5BDE6;stroke-width:1.0;stroke-dasharray:7.0,7.0;"/><polygon fill="#F5BDE6" points="559.92,489.56,569.7617,489.1842,564.4082,487.3564,566.236,482.003,559.92,489.56" style="stroke:#F5BDE6;stroke-width:1.0;"/><text fill="#CAD3F5" font-family="Helvetica" font-size="12" lengthAdjust="spacing" textLength="71.3672" x="643.54" y="456.2402">widen/narrow</text></g><!--SRC=[hLRVRzem47xdhxZnibI3v3r2aQXQrggbgpfOjITaWaEynNPaE-rGrVzzPvj0-572fF4KxE_kk-zyllCd9jAYMb38ZIbr74MAl8PBPl9gNccgKYaC5IPC9Oz4AhKXVPP6AJ5bMQKf4trEqZHdnCX-MH1XAbxqJKuvZJXX8dAVOOchdKxEa8Noqgo0KpwdIdVm1y2GGMKafJ0cgpcTt36n68nwC4o0_a7oXGQtjDqDdvaHLEl1A76mD_G2y0NUC3p3qdT82w8rrAXlqydrqsoKm600mNElOClSp8kANa2IeELxvpE0a8Q2iZiWCpYaWXWUSzGdEPXLII6J2cxk9g0PhmeabIAqMZnnrzjx4LrWl2mm3SBeGuLrw2y40ugXtd6umT351z3lxmlCbEGM6nmONCJGPDyt_5Lf4uob86YLWAmmzUuVOe6qs6AESYQMnynRB6suRlyuTHqySFlHugjWcHaTzzF8QtPKp2QHBjt1nV64ltVMzL3Gp9N3tdd6q7rMfDH0W5jYbdf_5dhWB-nkwyAxsOJUh0kxTgsKL1-L-LGmKvTBlw4wXjhVhi86rz43sqNBB1Xw4NLEFhnjQmjEoc1KYTIM_c3OWqlCUQ_jehfJEOMvhDsZzrEuNMPq_3-vCxpGuprvfmtFqSxFvbU4QUgA8R2d3jH-ddiksAGMXRV6_JneZQgHJClMfYDPCvmLqEOcxNLMLuAsfIhvWbEXMVyu3l2cYzItM0yFzw-GPRkXHKcLw-atlgSl5LtPdduu3suVVWplRwzcTxSFLxE7wVtzRFpzQmpVZS9-TX8y-VbuVG0-xCU2OEolRSd-ZMijtUqLqo629i8tnSa_fRjkN0VPYc5gMC5m1DS3p152j5Q0cSPf-4JzIDCvAtN7Eq7H2NHTY-YwIEhrC4my3ph75uF60_ITP0UmFl0QuENYEy3aSe7lW6PPICUqRLLTRxs3sP3kYhFkFy3Lv2-CmDRcXDF6vDz4pPQ2c4hHusQ8v4ImqZu8w4PK8y2TQ5pY8v_sKz3MM3f_0G00]--></g></svg>