<svg xmlns="http://www.w3.org/2000/svg" xmlns:xlink="http://www.w3.org/1999/xlink" contentStyleType="text/css" height="792px" preserveAspectRatio="none" style="width:1055px;height:792px;background:#24273A;" version="1.1" viewBox="0 0 1055 792" width="1055px" zoomAndPan="magnify"><defs/><g><rect fill="#24273A" height="792" style="stroke:none;stroke-width:1.0;" width="1055" x="0" y="0"/><!--class Kind--><g id="elem_Kind"><rect codeLine="5" fill="#24273A" height="30" id="Kind" rx="1.5" ry="1.5" style="stroke:#C6A0F6;stroke-width:2.0;" width="148.0547" x="118.9877" y="289"/><rect fill="#363A4F" height="30" rx="1.5" ry="1.5" style="stroke:#363A4F;stroke-width:2.0;" width="148.0547" x="118.9877" y="289"/><rect fill="#363A4F" height="1.5" style="stroke:#363A4F;stroke-width:2.0;" width="148.0547" x="118.9877" y="317.5"/><rect codeLine="5" fill="none" height="30" id="Kind" rx="1.5" ry="1.5" style="stroke:#C6A0F6;stroke-width:2.0;" width="148.0547" x="118.9877" y="289"/><ellipse cx="132.9877" cy="304" fill="#B4A7E5" rx="10" ry="10" style="stroke:#181818;stroke-width:1.0;"/><path d="M129.9956,301.2754 L129.9956,299.752 L135.2045,299.752 L135.2045,301.2754 L133.4643,301.2754 L133.4643,306.9766 L135.2045,306.9766 L135.2045,308.5 L129.9956,308.5 L129.9956,306.9766 L131.7358,306.9766 L131.7358,301.2754 Z " fill="#CAD3F5"/><text fill="#A6DA95" font-family="Helvetica" font-size="16" font-style="italic" lengthAdjust="spacing" textLength="32.0234" x="145.9877" y="308.3203">Kind</text><rect fill="#24273A" height="14" style="stroke:#C6A0F6;stroke-width:1.0;stroke-dasharray:2.0,2.0;" width="84.0313" x="186.0112" y="286"/><text fill="#CAD3F5" font-family="Helvetica" font-size="12" font-style="italic" lengthAdjust="spacing" textLength="82.0313" x="187.0112" y="296.2402">F_HKT, A_VAL</text></g><!--class Monad--><g id="elem_Monad"><rect codeLine="6" fill="#24273A" height="30" id="Monad" rx="1.5" ry="1.5" style="stroke:#C6A0F6;stroke-width:2.0;" width="120.9258" x="738.5577" y="755"/><rect fill="#363A4F" height="30" rx="1.5" ry="1.5" style="stroke:#363A4F;stroke-width:2.0;" width="120.9258" x="738.5577" y="755"/><rect fill="#363A4F" height="1.5" style="stroke:#363A4F;stroke-width:2.0;" width="120.9258" x="738.5577" y="783.5"/><rect codeLine="6" fill="none" height="30" id="Monad" rx="1.5" ry="1.5" style="stroke:#C6A0F6;stroke-width:2.0;" width="120.9258" x="738.5577" y="755"/><ellipse cx="752.5577" cy="770" fill="#B4A7E5" rx="10" ry="10" style="stroke:#181818;stroke-width:1.0;"/><path d="M749.5656,767.2754 L749.5656,765.752 L754.7745,765.752 L754.7745,767.2754 L753.0343,767.2754 L753.0343,772.9766 L754.7745,772.9766 L754.7745,774.5 L749.5656,774.5 L749.5656,772.9766 L751.3058,772.9766 L751.3058,767.2754 Z " fill="#CAD3F5"/><text fill="#A6DA95" font-family="Helvetica" font-size="16" font-style="italic" lengthAdjust="spacing" textLength="48.9219" x="765.5577" y="774.3203">Monad</text><rect fill="#24273A" height="14" style="stroke:#C6A0F6;stroke-width:1.0;stroke-dasharray:2.0,2.0;" width="40.0039" x="822.4796" y="752"/><text fill="#CAD3F5" font-family="Helvetica" font-size="12" font-style="italic" lengthAdjust="spacing" textLength="38.0039" x="823.4796" y="762.2402">F_HKT</text></g><!--class MonadError--><g id="elem_MonadError"><rect codeLine="7" fill="#24273A" height="30" id="MonadError" rx="1.5" ry="1.5" style="stroke:#C6A0F6;stroke-width:2.0;" width="203.1621" x="707.4377" y="10"/><rect fill="#363A4F" height="30" rx="1.5" ry="1.5" style="stroke:#363A4F;stroke-width:2.0;" width="203.1621" x="707.4377" y="10"/><rect fill="#363A4F" height="1.5" style="stroke:#363A4F;stroke-width:2.0;" width="203.1621" x="707.4377" y="38.5"/><rect codeLine="7" fill="none" height="30" id="MonadError" rx="1.5" ry="1.5" style="stroke:#C6A0F6;stroke-width:2.0;" width="203.1621" x="707.4377" y="10"/><ellipse cx="721.4377" cy="25" fill="#B4A7E5" rx="10" ry="10" style="stroke:#181818;stroke-width:1.0;"/><path d="M718.4456,22.2754 L718.4456,20.752 L723.6545,20.752 L723.6545,22.2754 L721.9143,22.2754 L721.9143,27.9766 L723.6545,27.9766 L723.6545,29.5 L718.4456,29.5 L718.4456,27.9766 L720.1858,27.9766 L720.1858,22.2754 Z " fill="#CAD3F5"/><text fill="#A6DA95" font-family="Helvetica" font-size="16" font-style="italic" lengthAdjust="spacing" textLength="84.4766" x="734.4377" y="29.3203">MonadError</text><rect fill="#24273A" height="14" style="stroke:#C6A0F6;stroke-width:1.0;stroke-dasharray:2.0,2.0;" width="86.6855" x="826.9143" y="7"/><text fill="#CAD3F5" font-family="Helvetica" font-size="12" font-style="italic" lengthAdjust="spacing" textLength="84.6855" x="827.9143" y="17.2402">F_HKT, E_ERR</text></g><!--class OptionalT--><g id="elem_OptionalT"><rect codeLine="9" fill="#24273A" height="134" id="OptionalT" rx="1.5" ry="1.5" style="stroke:#C6A0F6;stroke-width:2.0;" width="480.5723" x="351.7277" y="560"/><rect fill="#363A4F" height="38" rx="1.5" ry="1.5" style="stroke:#363A4F;stroke-width:2.0;" width="480.5723" x="351.7277" y="560"/><rect fill="#363A4F" height="1.5" style="stroke:#363A4F;stroke-width:2.0;" width="480.5723" x="351.7277" y="596.5"/><rect codeLine="9" fill="none" height="134" id="OptionalT" rx="1.5" ry="1.5" style="stroke:#C6A0F6;stroke-width:2.0;" width="480.5723" x="351.7277" y="560"/><ellipse cx="540.3293" cy="579" fill="#ADD1B2" rx="10" ry="10" style="stroke:#181818;stroke-width:1.0;"/><path d="M542.1633,583.248 Q541.7531,583.459 541.302,583.5645 Q540.8508,583.6699 540.3527,583.6699 Q538.5832,583.6699 537.6516,582.5039 Q536.7199,581.3379 536.7199,579.1348 Q536.7199,576.9258 537.6516,575.7598 Q538.5832,574.5938 540.3527,574.5938 Q540.8508,574.5938 541.3078,574.6992 Q541.7649,574.8047 542.1633,575.0156 L542.1633,576.9375 Q541.718,576.5273 541.299,576.3369 Q540.8801,576.1465 540.4348,576.1465 Q539.4856,576.1465 539.0022,576.8994 Q538.5188,577.6523 538.5188,579.1348 Q538.5188,580.6113 539.0022,581.3643 Q539.4856,582.1172 540.4348,582.1172 Q540.8801,582.1172 541.299,581.9268 Q541.718,581.7363 542.1633,581.3262 Z " fill="#CAD3F5"/><text fill="#CAD3F5" font-family="Helvetica" font-size="12" font-style="italic" lengthAdjust="spacing" textLength="47.3613" x="570.3322" y="574.2402">&#171;record&#187;</text><text fill="#A6DA95" font-family="Helvetica" font-size="16" lengthAdjust="spacing" textLength="69.3672" x="559.3293" y="589.3203">OptionalT</text><rect fill="#24273A" height="14" style="stroke:#C6A0F6;stroke-width:1.0;stroke-dasharray:2.0,2.0;" width="24.002" x="811.2981" y="557"/><text fill="#CAD3F5" font-family="Helvetica" font-size="12" font-style="italic" lengthAdjust="spacing" textLength="22.002" x="812.2981" y="567.2402">F, A</text><line style="stroke:#C6A0F6;stroke-width:2.0;" x1="352.7277" x2="831.3" y1="598" y2="598"/><ellipse cx="362.7277" cy="609.5" fill="none" rx="3" ry="3" style="stroke:#038048;stroke-width:1.0;"/><text fill="#A6DA95" font-family="Helvetica" font-size="12" lengthAdjust="spacing" textLength="208.9688" x="370.7277" y="611.2402">@NonNull Kind&lt;F, Optional&lt;A&gt;&gt; value</text><ellipse cx="362.7277" cy="637.5" fill="#84BE84" rx="3" ry="3" style="stroke:#038048;stroke-width:1.0;"/><text fill="#A6DA95" font-family="Helvetica" font-size="12" lengthAdjust="spacing" textLength="368.8477" x="370.7277" y="639.2402">static &lt;F, A&gt; OptionalT&lt;F, A&gt; fromKind(Kind&lt;F, Optional&lt;A&gt;&gt; value)</text><ellipse cx="362.7277" cy="649.5" fill="#84BE84" rx="3" ry="3" style="stroke:#038048;stroke-width:1.0;"/><text fill="#A6DA95" font-family="Helvetica" font-size="12" lengthAdjust="spacing" textLength="322.1484" x="370.7277" y="651.2402">static &lt;F, A&gt; OptionalT&lt;F, A&gt; some(Monad&lt;F&gt; monad, A a)</text><ellipse cx="362.7277" cy="661.5" fill="#84BE84" rx="3" ry="3" style="stroke:#038048;stroke-width:1.0;"/><text fill="#A6DA95" font-family="Helvetica" font-size="12" lengthAdjust="spacing" textLength="294.8203" x="370.7277" y="663.2402">static &lt;F, A&gt; OptionalT&lt;F, A&gt; none(Monad&lt;F&gt; monad)</text><ellipse cx="362.7277" cy="673.5" fill="#84BE84" rx="3" ry="3" style="stroke:#038048;stroke-width:1.0;"/><text fill="#A6DA95" font-family="Helvetica" font-size="12" lengthAdjust="spacing" textLength="455.5723" x="370.7277" y="675.2402">static &lt;F, A&gt; OptionalT&lt;F, A&gt; fromOptional(Monad&lt;F&gt; monad, Optional&lt;A&gt; optional)</text><ellipse cx="362.7277" cy="685.5" fill="#84BE84" rx="3" ry="3" style="stroke:#038048;stroke-width:1.0;"/><text fill="#A6DA95" font-family="Helvetica" font-size="12" lengthAdjust="spacing" textLength="367.5" x="370.7277" y="687.2402">static &lt;F, A&gt; OptionalT&lt;F, A&gt; liftF(Monad&lt;F&gt; monad, Kind&lt;F, A&gt; fa)</text><line style="stroke:#C6A0F6;stroke-width:1.0;" x1="352.7277" x2="567.3401" y1="624" y2="624"/><text fill="#A6DA95" font-family="Helvetica" font-size="12" lengthAdjust="spacing" textLength="49.3477" x="567.3401" y="626.7402">Factories</text><line style="stroke:#C6A0F6;stroke-width:1.0;" x1="616.6877" x2="831.3" y1="624" y2="624"/></g><!--class OptionalTKind--><g id="elem_OptionalTKind"><rect codeLine="19" fill="#24273A" height="62" id="OptionalTKind" rx="1.5" ry="1.5" style="stroke:#C6A0F6;stroke-width:2.0;" width="214.7402" x="307.6477" y="437"/><rect fill="#363A4F" height="30" rx="1.5" ry="1.5" style="stroke:#363A4F;stroke-width:2.0;" width="214.7402" x="307.6477" y="437"/><rect fill="#363A4F" height="1.5" style="stroke:#363A4F;stroke-width:2.0;" width="214.7402" x="307.6477" y="465.5"/><rect codeLine="19" fill="none" height="62" id="OptionalTKind" rx="1.5" ry="1.5" style="stroke:#C6A0F6;stroke-width:2.0;" width="214.7402" x="307.6477" y="437"/><ellipse cx="347.4542" cy="452" fill="#B4A7E5" rx="10" ry="10" style="stroke:#181818;stroke-width:1.0;"/><path d="M344.462,449.2754 L344.462,447.752 L349.671,447.752 L349.671,449.2754 L347.9308,449.2754 L347.9308,454.9766 L349.671,454.9766 L349.671,456.5 L344.462,456.5 L344.462,454.9766 L346.2022,454.9766 L346.2022,449.2754 Z " fill="#CAD3F5"/><text fill="#A6DA95" font-family="Helvetica" font-size="16" font-style="italic" lengthAdjust="spacing" textLength="101.3906" x="366.189" y="456.3203">OptionalTKind</text><rect fill="#24273A" height="14" style="stroke:#C6A0F6;stroke-width:1.0;stroke-dasharray:2.0,2.0;" width="24.002" x="501.386" y="434"/><text fill="#CAD3F5" font-family="Helvetica" font-size="12" font-style="italic" lengthAdjust="spacing" textLength="22.002" x="502.386" y="444.2402">F, A</text><line style="stroke:#C6A0F6;stroke-width:2.0;" x1="308.6477" x2="521.388" y1="467" y2="467"/><text fill="#A6DA95" font-family="Helvetica" font-size="12" lengthAdjust="spacing" textLength="202.7402" x="313.6477" y="480.2402">// Witness: OptionalTKind.Witness&lt;F&gt;</text><text fill="#A6DA95" font-family="Helvetica" font-size="12" lengthAdjust="spacing" textLength="55.3652" x="313.6477" y="492.2402">// Value: A</text></g><!--class OptionalTMonad--><g id="elem_OptionalTMonad"><rect codeLine="24" fill="#24273A" height="70" id="OptionalTMonad" rx="1.5" ry="1.5" style="stroke:#C6A0F6;stroke-width:2.0;" width="353.998" x="632.0177" y="101"/><rect fill="#363A4F" height="30" rx="1.5" ry="1.5" style="stroke:#363A4F;stroke-width:2.0;" width="353.998" x="632.0177" y="101"/><rect fill="#363A4F" height="1.5" style="stroke:#363A4F;stroke-width:2.0;" width="353.998" x="632.0177" y="129.5"/><rect codeLine="24" fill="none" height="70" id="OptionalTMonad" rx="1.5" ry="1.5" style="stroke:#C6A0F6;stroke-width:2.0;" width="353.998" x="632.0177" y="101"/><ellipse cx="715.8703" cy="116" fill="#ADD1B2" rx="10" ry="10" style="stroke:#181818;stroke-width:1.0;"/><path d="M717.7043,120.248 Q717.2941,120.459 716.8429,120.5645 Q716.3918,120.6699 715.8937,120.6699 Q714.1242,120.6699 713.1926,119.5039 Q712.2609,118.3379 712.2609,116.1348 Q712.2609,113.9258 713.1926,112.7598 Q714.1242,111.5938 715.8937,111.5938 Q716.3918,111.5938 716.8488,111.6992 Q717.3058,111.8047 717.7043,112.0156 L717.7043,113.9375 Q717.259,113.5273 716.84,113.3369 Q716.4211,113.1465 715.9758,113.1465 Q715.0265,113.1465 714.5431,113.8994 Q714.0597,114.6523 714.0597,116.1348 Q714.0597,117.6113 714.5431,118.3643 Q715.0265,119.1172 715.9758,119.1172 Q716.4211,119.1172 716.84,118.9268 Q717.259,118.7363 717.7043,118.3262 Z " fill="#CAD3F5"/><text fill="#A6DA95" font-family="Helvetica" font-size="16" lengthAdjust="spacing" textLength="118.2891" x="734.8703" y="120.3203">OptionalTMonad</text><rect fill="#24273A" height="14" style="stroke:#C6A0F6;stroke-width:1.0;stroke-dasharray:2.0,2.0;" width="58.0039" x="931.0119" y="98"/><text fill="#CAD3F5" font-family="Helvetica" font-size="12" font-style="italic" lengthAdjust="spacing" textLength="56.0039" x="932.0119" y="108.2402">F_OUTER</text><line style="stroke:#C6A0F6;stroke-width:2.0;" x1="633.0177" x2="985.0158" y1="131" y2="131"/><rect fill="none" height="6" style="stroke:#C82930;stroke-width:1.0;" width="6" x="640.0177" y="139.5"/><text fill="#A6DA95" font-family="Helvetica" font-size="12" lengthAdjust="spacing" textLength="257.6367" x="651.0177" y="144.2402">final @NonNull Monad&lt;F_OUTER&gt; outerMonad</text><line style="stroke:#C6A0F6;stroke-width:2.0;" x1="633.0177" x2="985.0158" y1="151" y2="151"/><ellipse cx="643.0177" cy="162.5" fill="#84BE84" rx="3" ry="3" style="stroke:#038048;stroke-width:1.0;"/><text fill="#A6DA95" font-family="Helvetica" font-size="12" lengthAdjust="spacing" textLength="328.998" x="651.0177" y="164.2402">OptionalTMonad(@NonNull Monad&lt;F_OUTER&gt; outerMonad)</text></g><!--class OptionalTKindHelper--><g id="elem_OptionalTKindHelper"><rect codeLine="30" fill="#24273A" height="118" id="OptionalTKindHelper" rx="1.5" ry="1.5" style="stroke:#C6A0F6;stroke-width:2.0;" width="453.1914" x="302.4177" y="245"/><rect fill="#363A4F" height="30" rx="1.5" ry="1.5" style="stroke:#363A4F;stroke-width:2.0;" width="453.1914" x="302.4177" y="245"/><rect fill="#363A4F" height="1.5" style="stroke:#363A4F;stroke-width:2.0;" width="453.1914" x="302.4177" y="273.5"/><rect codeLine="30" fill="none" height="118" id="OptionalTKindHelper" rx="1.5" ry="1.5" style="stroke:#C6A0F6;stroke-width:2.0;" width="453.1914" x="302.4177" y="245"/><ellipse cx="450.7517" cy="260" fill="#ADD1B2" rx="10" ry="10" style="stroke:#181818;stroke-width:1.0;"/><path d="M452.5857,264.248 Q452.1756,264.459 451.7244,264.5645 Q451.2732,264.6699 450.7752,264.6699 Q449.0056,264.6699 448.074,263.5039 Q447.1424,262.3379 447.1424,260.1348 Q447.1424,257.9258 448.074,256.7598 Q449.0056,255.5938 450.7752,255.5938 Q451.2732,255.5938 451.7302,255.6992 Q452.1873,255.8047 452.5857,256.0156 L452.5857,257.9375 Q452.1404,257.5273 451.7215,257.3369 Q451.3025,257.1465 450.8572,257.1465 Q449.908,257.1465 449.4246,257.8994 Q448.9412,258.6523 448.9412,260.1348 Q448.9412,261.6113 449.4246,262.3643 Q449.908,263.1172 450.8572,263.1172 Q451.3025,263.1172 451.7215,262.9268 Q452.1404,262.7363 452.5857,262.3262 Z " fill="#CAD3F5"/><text fill="#A6DA95" font-family="Helvetica" font-size="16" lengthAdjust="spacing" textLength="148.5234" x="469.7517" y="264.3203">OptionalTKindHelper</text><line style="stroke:#C6A0F6;stroke-width:2.0;" x1="303.4177" x2="754.6092" y1="275" y2="275"/><text fill="#A6DA95" font-family="Helvetica" font-size="12" lengthAdjust="spacing" textLength="216.123" x="308.4177" y="288.2402">note right of OptionalTKindHelper::widen</text><text fill="#A6DA95" font-family="Helvetica" font-size="12" lengthAdjust="spacing" textLength="160.7402" x="308.4177" y="300.2402">Uses internal OptionalTHolder</text><text fill="#A6DA95" font-family="Helvetica" font-size="12" lengthAdjust="spacing" textLength="46.7109" x="308.4177" y="312.2402">end note</text><line style="stroke:#C6A0F6;stroke-width:2.0;" x1="303.4177" x2="754.6092" y1="319" y2="319"/><ellipse cx="313.4177" cy="330.5" fill="#84BE84" rx="3" ry="3" style="stroke:#038048;stroke-width:1.0;"/><text fill="#A6DA95" font-family="Helvetica" font-size="12" lengthAdjust="spacing" textLength="428.1914" x="321.4177" y="332.2402">static &lt;F, A&gt; OptionalT&lt;F, A&gt; narrow(Kind&lt;OptionalTKind.Witness&lt;F&gt;, A&gt; kind)</text><ellipse cx="313.4177" cy="342.5" fill="#84BE84" rx="3" ry="3" style="stroke:#038048;stroke-width:1.0;"/><text fill="#A6DA95" font-family="Helvetica" font-size="12" lengthAdjust="spacing" textLength="366.1758" x="321.4177" y="344.2402">static &lt;F, A&gt; OptionalTKind&lt;F, A&gt; widen(OptionalT&lt;F, A&gt; optionalT)</text><text fill="#A6DA95" font-family="Helvetica" font-size="12" lengthAdjust="spacing" textLength="118.7109" x="321.4177" y="356.2402">(not shown for brevity)</text></g><!--reverse link OptionalTKind to OptionalT--><g id="link_OptionalTKind_OptionalT"><path d="M462.6134,511.2147 C482.0034,528.4147 493.6077,538.71 517.3177,559.74 " fill="none" id="OptionalTKind-backto-OptionalT" style="stroke:#F5BDE6;stroke-width:1.0;stroke-dasharray:7.0,7.0;"/><polygon fill="none" points="449.1477,499.27,458.6318,515.7033,466.595,506.7262,449.1477,499.27" style="stroke:#F5BDE6;stroke-width:1.0;"/></g><!--reverse link Kind to OptionalTKind--><g id="link_Kind_OptionalTKind"><path d="M227.259,329.989 C263.129,356.159 325.2577,401.5 373.2277,436.51 " fill="none" id="Kind-backto-OptionalTKind" style="stroke:#F5BDE6;stroke-width:1.0;"/><polygon fill="none" points="212.7177,319.38,223.7227,334.8361,230.7954,325.1419,212.7177,319.38" style="stroke:#F5BDE6;stroke-width:1.0;"/></g><!--reverse link MonadError to OptionalTMonad--><g id="link_MonadError_OptionalTMonad"><path d="M809.0177,58.25 C809.0177,73.48 809.0177,80.2 809.0177,100.57 " fill="none" id="MonadError-backto-OptionalTMonad" style="stroke:#F5BDE6;stroke-width:1.0;stroke-dasharray:7.0,7.0;"/><polygon fill="none" points="809.0177,40.25,803.0177,58.25,815.0177,58.25,809.0177,40.25" style="stroke:#F5BDE6;stroke-width:1.0;"/></g><!--reverse link OptionalTMonad to Monad--><g id="link_OptionalTMonad_Monad"><path codeLine="42" d="M871.4949,178.8021 C910.0449,208.4921 946.0177,247.88 946.0177,303 C946.0177,303 946.0177,303 946.0177,628 C946.0177,690.24 876.5377,733.54 833.1077,754.53 " fill="none" id="OptionalTMonad-backto-Monad" style="stroke:#F5BDE6;stroke-width:1.0;"/><polygon fill="#F5BDE6" points="861.9877,171.48,864.3006,178.3101,871.4949,178.8021,869.182,171.972,861.9877,171.48" style="stroke:#F5BDE6;stroke-width:1.0;"/><text fill="#CAD3F5" font-family="Helvetica" font-size="12" lengthAdjust="spacing" textLength="182.0801" x="866.7357" y="746.0002">outerMonad (Monad&lt;F_OUTER&gt;)</text></g><!--link OptionalTMonad to OptionalTKindHelper--><g id="link_OptionalTMonad_OptionalTKindHelper"><path codeLine="43" d="M750.9977,171.4 C715.3577,192.53 673.9388,217.0801 632.6488,241.5601 " fill="none" id="OptionalTMonad-to-OptionalTKindHelper" style="stroke:#F5BDE6;stroke-width:1.0;stroke-dasharray:7.0,7.0;"/><polygon fill="#F5BDE6" points="627.4877,244.62,637.2693,243.4709,631.7887,242.0701,633.1895,236.5894,627.4877,244.62" style="stroke:#F5BDE6;stroke-width:1.0;"/><text fill="#CAD3F5" font-family="Helvetica" font-size="12" lengthAdjust="spacing" textLength="25.3477" x="695.0977" y="211.2402">uses</text></g><!--link OptionalTMonad to OptionalT--><g id="link_OptionalTMonad_OptionalT"><path codeLine="44" d="M808.2377,171.17 C806.1777,216.54 798.8277,298.44 773.0177,363 C743.7477,436.21 694.9008,504.6129 653.9108,555.0729 " fill="none" id="OptionalTMonad-to-OptionalT" style="stroke:#F5BDE6;stroke-width:1.0;stroke-dasharray:7.0,7.0;"/><polygon fill="#F5BDE6" points="650.1277,559.73,658.9071,555.2664,653.2803,555.8491,652.6976,550.2223,650.1277,559.73" style="stroke:#F5BDE6;stroke-width:1.0;"/><text fill="#CAD3F5" font-family="Helvetica" font-size="12" lengthAdjust="spacing" textLength="112.7344" x="760.6077" y="403.2402">creates / operates on</text></g><!--link OptionalTKindHelper to OptionalT--><g id="link_OptionalTKindHelper_OptionalT"><path codeLine="46" d="M547.4277,363.42 C550.1877,373.24 552.8377,383.37 555.0177,393 C567.5977,448.63 576.6306,506.7345 582.9906,553.5845 " fill="none" id="OptionalTKindHelper-to-OptionalT" style="stroke:#F5BDE6;stroke-width:1.0;stroke-dasharray:7.0,7.0;"/><polygon fill="#F5BDE6" points="583.7977,559.53,586.5507,550.0737,583.1252,554.5754,578.6234,551.1499,583.7977,559.53" style="stroke:#F5BDE6;stroke-width:1.0;"/><text fill="#CAD3F5" font-family="Helvetica" font-size="12" lengthAdjust="spacing" textLength="85.3535" x="575.8877" y="471.2402">narrow() returns</text></g><!--link OptionalTKindHelper to OptionalTKind--><g id="link_OptionalTKindHelper_OptionalTKind"><path codeLine="47" d="M487.8577,363.49 C470.3877,388.32 454.1999,411.3126 439.7299,431.8826 " fill="none" id="OptionalTKindHelper-to-OptionalTKind" style="stroke:#F5BDE6;stroke-width:1.0;stroke-dasharray:7.0,7.0;"/><polygon fill="#F5BDE6" points="436.2777,436.79,444.7276,431.7303,439.1545,432.7005,438.1843,427.1274,436.2777,436.79" style="stroke:#F5BDE6;stroke-width:1.0;"/><text fill="#CAD3F5" font-family="Helvetica" font-size="12" lengthAdjust="spacing" textLength="80.0273" x="466.1877" y="403.2402">widen() returns</text></g><!--link OptionalT to Kind--><g id="link_OptionalT_Kind"><path codeLine="50" d="M379.6977,559.66 C347.2477,543.3 315.9677,523.3 290.0177,499 C233.9477,446.49 207.1626,360.2856 197.9726,325.0656 " fill="none" id="OptionalT-to-Kind" style="stroke:#F5BDE6;stroke-width:1.0;stroke-dasharray:7.0,7.0;"/><polygon fill="#F5BDE6" points="196.4577,319.26,194.8596,328.9783,197.7201,324.098,202.6005,326.9585,196.4577,319.26" style="stroke:#F5BDE6;stroke-width:1.0;"/><text fill="#CAD3F5" font-family="Helvetica" font-size="12" lengthAdjust="spacing" textLength="162.7676" x="6" y="336.3399">value is Kind&lt;F, Optional&lt;A&gt;&gt;</text></g><!--link OptionalT to Monad--><g id="link_OptionalT_Monad"><path codeLine="51" d="M689.4577,694.37 C722.7977,717.09 752.0293,736.9916 773.1493,751.3816 " fill="none" id="OptionalT-to-Monad" style="stroke:#F5BDE6;stroke-width:1.0;stroke-dasharray:7.0,7.0;"/><polygon fill="#F5BDE6" points="778.1077,754.76,772.9223,746.3867,773.9757,751.9447,768.4178,752.998,778.1077,754.76" style="stroke:#F5BDE6;stroke-width:1.0;"/><text fill="#CAD3F5" font-family="Helvetica" font-size="12" lengthAdjust="spacing" textLength="147.4102" x="596.3686" y="744.168">factories require Monad&lt;F&gt;</text></g><!--SRC=[ZLLDZzem4BtdLqovDBI4t16AoW6qqdPtfHMxFI9Zd8rLVwIsitIrwd_ln74W2I100ZdZzsR6yrxC5wweg7OC2kTAEqjJG_RJD-wAQbjPPgXMZYatfLgcYchhIC9fIeahoufIhX99A2quSJef1L6kaY9n1PCibOIhr2-d9KQZgE1OXSdIVO1aSikCZIAEsKrEA8DxhdRprURkVZs1nUPryJFhR3veHS9kDppoyQKnshJKvMRv_9oDW5WuRaOH01N4MdWg7SUmMCzNM2Q3-Tmmgiqkou3BKc2podLGJLCU-Oav0Bx3ZqUj7YiXeDrhmVC59dadec8UcIIm8jHfmvd5Xy36-JbE8UGSTfCRBUkqyUNSuviIMIrP78QMWQmN60To6rjfDMIFR-w_ZPsKxvm5T5ZVbbRmtArEydMqoVt1_jKo7yrnJaJs5ysyimst1vZ-uaunQx50H-uqXH2VmILu2tojvPd1ekraOBZMmaylw-LppsqT4r-e4KWJU57SjRqba7E47WqvgA0hd8IFXI7tMuclynfrli8JliMcqoQ-lgxGECPOvnEGf9n0BeXxg1Vrrn1kcKTEe21g9ve7F4unlZ2T-hntJ9HOvpDK3O-Xrct69LXd7rzNzpV6hdYluvezNbmg7XPhFRmUHpwJqew1uM-50vsVEzbivXDvCC2BnNl1kxKMyG2_qsB7JC34c1DieVSASXpxrh1txZwQnj77lcGpKFpjomlVy08Q7RM4k2_pU0IjDmR4wJGxgyiCyF_0Ni4ZYXf679ujnGanuvTQzHhi91sIWu9ZCCnLHjbRQ7KSgOrAHsQlf6UC_0qAt9wzkqS-UahA3xUuONygRWx_HbaxGlpy1m00]--></g></svg>