<svg xmlns="http://www.w3.org/2000/svg" xmlns:xlink="http://www.w3.org/1999/xlink" contentStyleType="text/css" height="746px" preserveAspectRatio="none" style="width:1681px;height:746px;background:#24273A;" version="1.1" viewBox="0 0 1681 746" width="1681px" zoomAndPan="magnify"><defs/><g><rect fill="#24273A" height="746" style="stroke:none;stroke-width:1.0;" width="1681" x="0" y="0"/><!--class Kind--><g id="elem_Kind"><rect codeLine="9" fill="#24273A" height="28.8438" id="Kind" rx="1.5" ry="1.5" style="stroke:#C6A0F6;stroke-width:2.0;" width="153.7891" x="151.2325" y="214.51"/><rect fill="#363A4F" height="28.8438" rx="1.5" ry="1.5" style="stroke:#363A4F;stroke-width:2.0;" width="153.7891" x="151.2325" y="214.51"/><rect fill="#363A4F" height="1.5" style="stroke:#363A4F;stroke-width:2.0;" width="153.7891" x="151.2325" y="241.8538"/><rect codeLine="9" fill="none" height="28.8438" id="Kind" rx="1.5" ry="1.5" style="stroke:#C6A0F6;stroke-width:2.0;" width="153.7891" x="151.2325" y="214.51"/><ellipse cx="164.2325" cy="228.9319" fill="#FFFFFF" rx="9" ry="9" style="stroke:#000000;stroke-width:1.0;"/><path d="M161.2403,226.2073 L161.2403,224.6838 L166.4493,224.6838 L166.4493,226.2073 L164.7091,226.2073 L164.7091,231.9084 L166.4493,231.9084 L166.4493,233.4319 L161.2403,233.4319 L161.2403,231.9084 L162.9806,231.9084 L162.9806,226.2073 Z " fill="#CAD3F5"/><text fill="#A6DA95" font-family="sans-serif" font-size="16" font-style="italic" lengthAdjust="spacing" textLength="35.0703" x="176.2325" y="234.9788">Kind</text><rect fill="#24273A" height="16.584" style="stroke:#C6A0F6;stroke-width:1.0;stroke-dasharray:2.0,2.0;" width="88.7188" x="219.3028" y="211.51"/><text fill="#000000" font-family="Verdana" font-size="12" font-style="italic" lengthAdjust="spacing" textLength="86.7188" x="220.3028" y="224.5745">F_HKT, A_VAL</text></g><!--class Monad--><g id="elem_Monad"><rect codeLine="10" fill="#24273A" height="28.8438" id="Monad" rx="1.5" ry="1.5" style="stroke:#C6A0F6;stroke-width:2.0;" width="123.6973" x="737.2825" y="711.22"/><rect fill="#363A4F" height="28.8438" rx="1.5" ry="1.5" style="stroke:#363A4F;stroke-width:2.0;" width="123.6973" x="737.2825" y="711.22"/><rect fill="#363A4F" height="1.5" style="stroke:#363A4F;stroke-width:2.0;" width="123.6973" x="737.2825" y="738.5637"/><rect codeLine="10" fill="none" height="28.8438" id="Monad" rx="1.5" ry="1.5" style="stroke:#C6A0F6;stroke-width:2.0;" width="123.6973" x="737.2825" y="711.22"/><ellipse cx="750.2825" cy="725.6419" fill="#FFFFFF" rx="9" ry="9" style="stroke:#000000;stroke-width:1.0;"/><path d="M747.2903,722.9173 L747.2903,721.3938 L752.4993,721.3938 L752.4993,722.9173 L750.7591,722.9173 L750.7591,728.6184 L752.4993,728.6184 L752.4993,730.1419 L747.2903,730.1419 L747.2903,728.6184 L749.0306,728.6184 L749.0306,722.9173 Z " fill="#CAD3F5"/><text fill="#A6DA95" font-family="sans-serif" font-size="16" font-style="italic" lengthAdjust="spacing" textLength="52.4453" x="762.2825" y="731.6887">Monad</text><rect fill="#24273A" height="16.584" style="stroke:#C6A0F6;stroke-width:1.0;stroke-dasharray:2.0,2.0;" width="41.252" x="822.7278" y="708.22"/><text fill="#000000" font-family="Verdana" font-size="12" font-style="italic" lengthAdjust="spacing" textLength="39.252" x="823.7278" y="721.2845">F_HKT</text></g><!--class MonadError<F_HKT, E_ERR> extends Monad<F_HKT>--><g id="elem_MonadError&lt;F_HKT, E_ERR&gt; extends Monad&lt;F_HKT&gt;"><rect codeLine="11" fill="#24273A" height="28.8438" id="MonadError&lt;F_HKT, E_ERR&gt; extends Monad&lt;F_HKT&gt;" rx="1.5" ry="1.5" style="stroke:#C6A0F6;stroke-width:2.0;" width="447.3125" x="1227.4725" y="37.13"/><rect fill="#363A4F" height="28.8438" rx="1.5" ry="1.5" style="stroke:#363A4F;stroke-width:2.0;" width="447.3125" x="1227.4725" y="37.13"/><rect fill="#363A4F" height="1.5" style="stroke:#363A4F;stroke-width:2.0;" width="447.3125" x="1227.4725" y="64.4738"/><rect codeLine="11" fill="none" height="28.8438" id="MonadError&lt;F_HKT, E_ERR&gt; extends Monad&lt;F_HKT&gt;" rx="1.5" ry="1.5" style="stroke:#C6A0F6;stroke-width:2.0;" width="447.3125" x="1227.4725" y="37.13"/><ellipse cx="1240.4725" cy="51.5519" fill="#FFFFFF" rx="9" ry="9" style="stroke:#000000;stroke-width:1.0;"/><path d="M1237.4803,48.8273 L1237.4803,47.3038 L1242.6893,47.3038 L1242.6893,48.8273 L1240.9491,48.8273 L1240.9491,54.5284 L1242.6893,54.5284 L1242.6893,56.0519 L1237.4803,56.0519 L1237.4803,54.5284 L1239.2206,54.5284 L1239.2206,48.8273 Z " fill="#CAD3F5"/><text fill="#A6DA95" font-family="sans-serif" font-size="16" font-style="italic" lengthAdjust="spacing" textLength="419.3125" x="1252.4725" y="57.5987">MonadError&lt;F_HKT, E_ERR&gt; extends Monad&lt;F_HKT&gt;</text></g><!--class OptionalT--><g id="elem_OptionalT"><rect codeLine="13" fill="#24273A" height="154.3574" id="OptionalT" rx="1.5" ry="1.5" style="stroke:#C6A0F6;stroke-width:2.0;" width="534.9492" x="230.6525" y="495.86"/><rect fill="#363A4F" height="43.4277" rx="1.5" ry="1.5" style="stroke:#363A4F;stroke-width:2.0;" width="534.9492" x="230.6525" y="495.86"/><rect fill="#363A4F" height="1.5" style="stroke:#363A4F;stroke-width:2.0;" width="534.9492" x="230.6525" y="537.7877"/><rect codeLine="13" fill="none" height="154.3574" id="OptionalT" rx="1.5" ry="1.5" style="stroke:#C6A0F6;stroke-width:2.0;" width="534.9492" x="230.6525" y="495.86"/><ellipse cx="442.3185" cy="517.5739" fill="#FFFFFF" rx="9" ry="9" style="stroke:#000000;stroke-width:1.0;"/><path d="M444.1525,521.8219 Q443.7423,522.0329 443.2912,522.1383 Q442.84,522.2438 442.342,522.2438 Q440.5724,522.2438 439.6408,521.0778 Q438.7091,519.9118 438.7091,517.7086 Q438.7091,515.4996 439.6408,514.3336 Q440.5724,513.1676 442.342,513.1676 Q442.84,513.1676 443.297,513.2731 Q443.7541,513.3786 444.1525,513.5895 L444.1525,515.5114 Q443.7072,515.1012 443.2882,514.9108 Q442.8693,514.7204 442.424,514.7204 Q441.4748,514.7204 440.9914,515.4733 Q440.508,516.2262 440.508,517.7086 Q440.508,519.1852 440.9914,519.9381 Q441.4748,520.6911 442.424,520.6911 Q442.8693,520.6911 443.2882,520.5006 Q443.7072,520.3102 444.1525,519.9 Z " fill="#CAD3F5"/><text fill="#000000" font-family="Verdana" font-size="12" font-style="italic" lengthAdjust="spacing" textLength="53.8711" x="471.1056" y="512.9245">&#171;record&#187;</text><text fill="#A6DA95" font-family="sans-serif" font-size="16" lengthAdjust="spacing" textLength="76.4453" x="459.8185" y="530.9127">OptionalT</text><rect fill="#24273A" height="16.584" style="stroke:#C6A0F6;stroke-width:1.0;stroke-dasharray:2.0,2.0;" width="25.6719" x="742.9298" y="492.86"/><text fill="#000000" font-family="Verdana" font-size="12" font-style="italic" lengthAdjust="spacing" textLength="23.6719" x="743.9298" y="505.9245">F, A</text><line style="stroke:#C6A0F6;stroke-width:2.0;" x1="231.6525" x2="764.6017" y1="539.2877" y2="539.2877"/><text fill="#A6DA95" font-family="sans-serif" font-size="12" lengthAdjust="spacing" textLength="241.3184" x="236.6525" y="554.8893">+@NonNull Kind&lt;F, Optional&lt;A&gt;&gt; value</text><text fill="#A6DA95" font-family="sans-serif" font-size="12" lengthAdjust="spacing" textLength="425.1211" x="236.6525" y="587.1549">+static &lt;F, A&gt; OptionalT&lt;F, A&gt; fromKind(Kind&lt;F, Optional&lt;A&gt;&gt; value)</text><text fill="#A6DA95" font-family="sans-serif" font-size="12" lengthAdjust="spacing" textLength="366.6914" x="236.6525" y="601.2877">+static &lt;F, A&gt; OptionalT&lt;F, A&gt; some(Monad&lt;F&gt; monad, A a)</text><text fill="#A6DA95" font-family="sans-serif" font-size="12" lengthAdjust="spacing" textLength="337.9688" x="236.6525" y="615.4205">+static &lt;F, A&gt; OptionalT&lt;F, A&gt; none(Monad&lt;F&gt; monad)</text><text fill="#A6DA95" font-family="sans-serif" font-size="12" lengthAdjust="spacing" textLength="522.9492" x="236.6525" y="629.5534">+static &lt;F, A&gt; OptionalT&lt;F, A&gt; fromOptional(Monad&lt;F&gt; monad, Optional&lt;A&gt; optional)</text><text fill="#A6DA95" font-family="sans-serif" font-size="12" lengthAdjust="spacing" textLength="421.4063" x="236.6525" y="643.6862">+static &lt;F, A&gt; OptionalT&lt;F, A&gt; liftF(Monad&lt;F&gt; monad, Kind&lt;F, A&gt; fa)</text><line style="stroke:#C6A0F6;stroke-width:1.0;" x1="231.6525" x2="472.0031" y1="568.487" y2="568.487"/><text fill="#A6DA95" font-family="sans-serif" font-size="12" lengthAdjust="spacing" textLength="52.248" x="472.0031" y="572.5221">Factories</text><line style="stroke:#C6A0F6;stroke-width:1.0;" x1="524.2511" x2="764.6017" y1="568.487" y2="568.487"/></g><!--class OptionalTKind--><g id="elem_OptionalTKind"><rect codeLine="23" fill="#24273A" height="65.1094" id="OptionalTKind" rx="1.5" ry="1.5" style="stroke:#C6A0F6;stroke-width:2.0;" width="238.1016" x="284.0825" y="369.75"/><rect fill="#363A4F" height="28.8438" rx="1.5" ry="1.5" style="stroke:#363A4F;stroke-width:2.0;" width="238.1016" x="284.0825" y="369.75"/><rect fill="#363A4F" height="1.5" style="stroke:#363A4F;stroke-width:2.0;" width="238.1016" x="284.0825" y="397.0937"/><rect codeLine="23" fill="none" height="65.1094" id="OptionalTKind" rx="1.5" ry="1.5" style="stroke:#C6A0F6;stroke-width:2.0;" width="238.1016" x="284.0825" y="369.75"/><ellipse cx="329.7895" cy="384.1719" fill="#FFFFFF" rx="9" ry="9" style="stroke:#000000;stroke-width:1.0;"/><path d="M326.7973,381.4473 L326.7973,379.9238 L332.0063,379.9238 L332.0063,381.4473 L330.2661,381.4473 L330.2661,387.1484 L332.0063,387.1484 L332.0063,388.6719 L326.7973,388.6719 L326.7973,387.1484 L328.5376,387.1484 L328.5376,381.4473 Z " fill="#CAD3F5"/><text fill="#A6DA95" font-family="sans-serif" font-size="16" font-style="italic" lengthAdjust="spacing" textLength="111.5156" x="347.2895" y="390.2187">OptionalTKind</text><rect fill="#24273A" height="16.584" style="stroke:#C6A0F6;stroke-width:1.0;stroke-dasharray:2.0,2.0;" width="25.6719" x="499.5122" y="366.75"/><text fill="#000000" font-family="Verdana" font-size="12" font-style="italic" lengthAdjust="spacing" textLength="23.6719" x="500.5122" y="379.8145">F, A</text><line style="stroke:#C6A0F6;stroke-width:2.0;" x1="285.0825" x2="521.1841" y1="398.5937" y2="398.5937"/><text fill="#A6DA95" font-family="sans-serif" font-size="12" lengthAdjust="spacing" textLength="226.1016" x="290.0825" y="414.1953">// Witness: OptionalTKind.Witness&lt;F&gt;</text><text fill="#A6DA95" font-family="sans-serif" font-size="12" lengthAdjust="spacing" textLength="64.3301" x="290.0825" y="428.3281">// Value: A</text></g><!--class OptionalTMonad--><g id="elem_OptionalTMonad"><rect codeLine="28" fill="#24273A" height="73.1094" id="OptionalTMonad" rx="1.5" ry="1.5" style="stroke:#C6A0F6;stroke-width:2.0;" width="371.2383" x="821.5125" y="15"/><rect fill="#363A4F" height="28.8438" rx="1.5" ry="1.5" style="stroke:#363A4F;stroke-width:2.0;" width="371.2383" x="821.5125" y="15"/><rect fill="#363A4F" height="1.5" style="stroke:#363A4F;stroke-width:2.0;" width="371.2383" x="821.5125" y="42.3438"/><rect codeLine="28" fill="none" height="73.1094" id="OptionalTMonad" rx="1.5" ry="1.5" style="stroke:#C6A0F6;stroke-width:2.0;" width="371.2383" x="821.5125" y="15"/><ellipse cx="908.8963" cy="29.4219" fill="#FFFFFF" rx="9" ry="9" style="stroke:#000000;stroke-width:1.0;"/><path d="M910.7303,33.6699 Q910.3201,33.8809 909.8689,33.9863 Q909.4178,34.0918 908.9197,34.0918 Q907.1502,34.0918 906.2186,32.9258 Q905.2869,31.7598 905.2869,29.5566 Q905.2869,27.3477 906.2186,26.1816 Q907.1502,25.0156 908.9197,25.0156 Q909.4178,25.0156 909.8748,25.1211 Q910.3318,25.2266 910.7303,25.4375 L910.7303,27.3594 Q910.285,26.9492 909.866,26.7588 Q909.4471,26.5684 909.0018,26.5684 Q908.0525,26.5684 907.5691,27.3213 Q907.0857,28.0742 907.0857,29.5566 Q907.0857,31.0332 907.5691,31.7861 Q908.0525,32.5391 909.0018,32.5391 Q909.4471,32.5391 909.866,32.3486 Q910.285,32.1582 910.7303,31.748 Z " fill="#CAD3F5"/><text fill="#A6DA95" font-family="sans-serif" font-size="16" lengthAdjust="spacing" textLength="128.8906" x="926.3963" y="35.4688">OptionalTMonad</text><rect fill="#24273A" height="16.584" style="stroke:#C6A0F6;stroke-width:1.0;stroke-dasharray:2.0,2.0;" width="58.0801" x="1137.6707" y="12"/><text fill="#000000" font-family="Verdana" font-size="12" font-style="italic" lengthAdjust="spacing" textLength="56.0801" x="1138.6707" y="25.0645">F_OUTER</text><line style="stroke:#C6A0F6;stroke-width:2.0;" x1="822.5125" x2="1191.7508" y1="43.8438" y2="43.8438"/><text fill="#A6DA95" font-family="sans-serif" font-size="12" lengthAdjust="spacing" textLength="281.3906" x="827.5125" y="59.4453">-final @NonNull Monad&lt;F_OUTER&gt; outerMonad</text><line style="stroke:#C6A0F6;stroke-width:2.0;" x1="822.5125" x2="1191.7508" y1="65.9766" y2="65.9766"/><text fill="#A6DA95" font-family="sans-serif" font-size="12" lengthAdjust="spacing" textLength="359.2383" x="827.5125" y="81.5781">+OptionalTMonad(@NonNull Monad&lt;F_OUTER&gt; outerMonad)</text></g><!--class MonadError--><g id="elem_MonadError"><rect fill="#24273A" height="28.8438" id="MonadError" rx="1.5" ry="1.5" style="stroke:#C6A0F6;stroke-width:2.0;" width="118.5859" x="1059.8325" y="214.51"/><rect fill="#363A4F" height="28.8438" rx="1.5" ry="1.5" style="stroke:#363A4F;stroke-width:2.0;" width="118.5859" x="1059.8325" y="214.51"/><rect fill="#363A4F" height="1.5" style="stroke:#363A4F;stroke-width:2.0;" width="118.5859" x="1059.8325" y="241.8538"/><rect fill="none" height="28.8438" id="MonadError" rx="1.5" ry="1.5" style="stroke:#C6A0F6;stroke-width:2.0;" width="118.5859" x="1059.8325" y="214.51"/><ellipse cx="1072.8325" cy="228.9319" fill="#FFFFFF" rx="9" ry="9" style="stroke:#000000;stroke-width:1.0;"/><path d="M1069.8403,226.2073 L1069.8403,224.6838 L1075.0493,224.6838 L1075.0493,226.2073 L1073.3091,226.2073 L1073.3091,231.9084 L1075.0493,231.9084 L1075.0493,233.4319 L1069.8403,233.4319 L1069.8403,231.9084 L1071.5806,231.9084 L1071.5806,226.2073 Z " fill="#CAD3F5"/><text fill="#A6DA95" font-family="sans-serif" font-size="16" font-style="italic" lengthAdjust="spacing" textLength="90.5859" x="1084.8325" y="234.9788">MonadError</text></g><!--class OptionalTKindHelper--><g id="elem_OptionalTKindHelper"><rect codeLine="34" fill="#24273A" height="129.6406" id="OptionalTKindHelper" rx="1.5" ry="1.5" style="stroke:#C6A0F6;stroke-width:2.0;" width="503.4727" x="340.3925" y="164.11"/><rect fill="#363A4F" height="28.8438" rx="1.5" ry="1.5" style="stroke:#363A4F;stroke-width:2.0;" width="503.4727" x="340.3925" y="164.11"/><rect fill="#363A4F" height="1.5" style="stroke:#363A4F;stroke-width:2.0;" width="503.4727" x="340.3925" y="191.4537"/><rect codeLine="34" fill="none" height="129.6406" id="OptionalTKindHelper" rx="1.5" ry="1.5" style="stroke:#C6A0F6;stroke-width:2.0;" width="503.4727" x="340.3925" y="164.11"/><ellipse cx="507.207" cy="178.5319" fill="#FFFFFF" rx="9" ry="9" style="stroke:#000000;stroke-width:1.0;"/><path d="M509.0409,182.7799 Q508.6308,182.9909 508.1796,183.0963 Q507.7284,183.2018 507.2304,183.2018 Q505.4609,183.2018 504.5292,182.0358 Q503.5976,180.8698 503.5976,178.6666 Q503.5976,176.4577 504.5292,175.2916 Q505.4609,174.1256 507.2304,174.1256 Q507.7284,174.1256 508.1855,174.2311 Q508.6425,174.3366 509.0409,174.5475 L509.0409,176.4694 Q508.5956,176.0592 508.1767,175.8688 Q507.7577,175.6784 507.3124,175.6784 Q506.3632,175.6784 505.8798,176.4313 Q505.3964,177.1842 505.3964,178.6666 Q505.3964,180.1432 505.8798,180.8961 Q506.3632,181.6491 507.3124,181.6491 Q507.7577,181.6491 508.1767,181.4586 Q508.5956,181.2682 509.0409,180.858 Z " fill="#CAD3F5"/><text fill="#A6DA95" font-family="sans-serif" font-size="16" lengthAdjust="spacing" textLength="162.3438" x="524.707" y="184.5787">OptionalTKindHelper</text><line style="stroke:#C6A0F6;stroke-width:2.0;" x1="341.3925" x2="842.8652" y1="192.9537" y2="192.9537"/><text fill="#A6DA95" font-family="sans-serif" font-size="12" lengthAdjust="spacing" textLength="234.6504" x="346.3925" y="208.5553">note right of OptionalTKindHelper::wrap</text><text fill="#A6DA95" font-family="sans-serif" font-size="12" lengthAdjust="spacing" textLength="175.5117" x="346.3925" y="222.6881">Uses internal OptionalTHolder</text><text fill="#A6DA95" font-family="sans-serif" font-size="12" lengthAdjust="spacing" textLength="51.4746" x="346.3925" y="236.8209">end note</text><line style="stroke:#C6A0F6;stroke-width:2.0;" x1="341.3925" x2="842.8652" y1="243.3522" y2="243.3522"/><text fill="#A6DA95" font-family="sans-serif" font-size="12" lengthAdjust="spacing" textLength="491.4727" x="346.3925" y="258.9537">+static &lt;F, A&gt; OptionalT&lt;F, A&gt; unwrap(Kind&lt;OptionalTKind.Witness&lt;F&gt;, A&gt; kind)</text><text fill="#A6DA95" font-family="sans-serif" font-size="12" lengthAdjust="spacing" textLength="412.7109" x="346.3925" y="273.0866">+static &lt;F, A&gt; OptionalTKind&lt;F, A&gt; wrap(OptionalT&lt;F, A&gt; optionalT)</text><text fill="#A6DA95" font-family="sans-serif" font-size="12" lengthAdjust="spacing" textLength="132.4102" x="346.3925" y="287.2194">(not shown for brevity)</text></g><!--reverse link OptionalTKind to OptionalT--><g id="link_OptionalTKind_OptionalT"><path d="M417.8308,451.4673 C425.5308,468.6573 429.7225,474.26 442.0225,495.61 " fill="none" id="OptionalTKind-backto-OptionalT" style="stroke:#F5BDE6;stroke-width:1.0;stroke-dasharray:7.0,7.0;"/><polygon fill="none" points="410.4725,435.04,412.3551,453.92,423.3066,449.0145,410.4725,435.04" style="stroke:#F5BDE6;stroke-width:1.0;"/></g><!--link OptionalT to OptionalTKind--><g id="link_OptionalT_OptionalTKind"><path codeLine="53" d="M468.1725,495.61 C456.4325,474.26 453.2708,467.1305 441.6208,449.9405 " fill="none" id="OptionalT-to-OptionalTKind" style="stroke:#F5BDE6;stroke-width:1.0;"/><polygon fill="none" points="431.5225,435.04,436.654,453.3066,446.5877,446.5743,431.5225,435.04" style="stroke:#F5BDE6;stroke-width:1.0;"/></g><!--reverse link Kind to OptionalTKind--><g id="link_Kind_OptionalTKind"><path d="M245.7639,257.7896 C267.1439,284.8796 317.2325,331.68 360.0225,369.36 " fill="none" id="Kind-backto-OptionalTKind" style="stroke:#F5BDE6;stroke-width:1.0;"/><polygon fill="none" points="234.6125,243.66,241.054,261.5068,250.4738,254.0725,234.6125,243.66" style="stroke:#F5BDE6;stroke-width:1.0;"/></g><!--link OptionalTKind to Kind--><g id="link_OptionalTKind_Kind"><path codeLine="57" d="M381.0025,369.36 C346.8425,331.68 297.7007,281.9788 263.7607,254.8888 " fill="none" id="OptionalTKind-to-Kind" style="stroke:#F5BDE6;stroke-width:1.0;"/><polygon fill="none" points="249.6925,243.66,260.0177,259.5782,267.5036,250.1994,249.6925,243.66" style="stroke:#F5BDE6;stroke-width:1.0;"/></g><!--reverse link MonadError to OptionalTMonad--><g id="link_MonadError_OptionalTMonad"><path d="M1111.0197,197.525 C1100.0797,170.725 1069.6525,127.35 1040.8925,88.47 " fill="none" id="MonadError-backto-OptionalTMonad" style="stroke:#F5BDE6;stroke-width:1.0;stroke-dasharray:7.0,7.0;"/><polygon fill="none" points="1117.8225,214.19,1116.5747,195.2574,1105.4647,199.7926,1117.8225,214.19" style="stroke:#F5BDE6;stroke-width:1.0;"/></g><!--link OptionalTMonad to MonadError--><g id="link_OptionalTMonad_MonadError"><path codeLine="45" d="M1019.2325,88.47 C1040.1325,127.35 1067.7954,173.8035 1091.0854,200.6035 " fill="none" id="OptionalTMonad-to-MonadError" style="stroke:#F5BDE6;stroke-width:1.0;"/><polygon fill="none" points="1102.8925,214.19,1095.6143,196.6678,1086.5566,204.5392,1102.8925,214.19" style="stroke:#F5BDE6;stroke-width:1.0;"/></g><!--reverse link OptionalTMonad to Monad--><g id="link_OptionalTMonad_Monad"><path codeLine="46" d="M1007.1325,100.49 C1007.1325,135.94 1007.1325,179.67 1007.1325,227.93 C1007.1325,227.93 1007.1325,227.93 1007.1325,574.04 C1007.1325,649.83 915.4025,691.37 853.7825,710.73 " fill="none" id="OptionalTMonad-backto-Monad" style="stroke:#F5BDE6;stroke-width:1.0;"/><polygon fill="#F5BDE6" points="1007.1325,88.49,1003.1325,94.49,1007.1325,100.49,1011.1325,94.49,1007.1325,88.49" style="stroke:#F5BDE6;stroke-width:1.0;"/><text fill="#CAD3F5" font-family="sans-serif" font-size="12" lengthAdjust="spacing" textLength="192" x="869.3184" y="706.0787">outerMonad (Monad&lt;F_OUTER&gt;)</text></g><!--link OptionalTMonad to OptionalTKindHelper--><g id="link_OptionalTMonad_OptionalTKindHelper"><path codeLine="47" d="M915.8325,88.44 C892.1025,97.94 866.6025,108.28 843.1325,118.11 C808.5725,132.57 777.0317,146.1302 742.2917,161.2902 " fill="none" id="OptionalTMonad-to-OptionalTKindHelper" style="stroke:#F5BDE6;stroke-width:1.0;stroke-dasharray:7.0,7.0;"/><polygon fill="#F5BDE6" points="736.7925,163.69,746.6411,163.7565,741.3752,161.6902,743.4415,156.4242,736.7925,163.69" style="stroke:#F5BDE6;stroke-width:1.0;"/><text fill="#CAD3F5" font-family="sans-serif" font-size="12" lengthAdjust="spacing" textLength="26.3672" x="844.1325" y="130.7116">uses</text></g><!--link OptionalTMonad to OptionalT--><g id="link_OptionalTMonad_OptionalT"><path codeLine="48" d="M990.7125,88.43 C966.8725,138.11 919.1025,229.04 861.1325,293.75 C790.6525,372.41 700.3969,441.0803 625.1569,492.1503 " fill="none" id="OptionalTMonad-to-OptionalT" style="stroke:#F5BDE6;stroke-width:1.0;stroke-dasharray:7.0,7.0;"/><polygon fill="#F5BDE6" points="620.1925,495.52,629.8856,493.7751,624.3295,492.712,625.3927,487.1559,620.1925,495.52" style="stroke:#F5BDE6;stroke-width:1.0;"/><text fill="#CAD3F5" font-family="sans-serif" font-size="12" lengthAdjust="spacing" textLength="124.5996" x="832.7425" y="336.3516">creates / operates on</text></g><!--link OptionalTKindHelper to OptionalT--><g id="link_OptionalTKindHelper_OptionalT"><path codeLine="50" d="M580.4325,294.06 C577.3725,309.11 573.8725,325.05 570.1325,339.75 C556.7825,392.23 540.5926,444.7156 525.9126,489.7356 " fill="none" id="OptionalTKindHelper-to-OptionalT" style="stroke:#F5BDE6;stroke-width:1.0;stroke-dasharray:7.0,7.0;"/><polygon fill="#F5BDE6" points="524.0525,495.44,530.6455,488.1235,525.6026,490.6863,523.0397,485.6434,524.0525,495.44" style="stroke:#F5BDE6;stroke-width:1.0;"/><text fill="#CAD3F5" font-family="sans-serif" font-size="12" lengthAdjust="spacing" textLength="96.8379" x="563.1325" y="406.9016">unwrap() returns</text></g><!--link OptionalTKindHelper to OptionalTKind--><g id="link_OptionalTKindHelper_OptionalTKind"><path codeLine="51" d="M516.2725,294.21 C505.0625,304 493.7325,314.07 483.1325,323.75 C466.9925,338.49 453.7963,351.129 439.3063,365.339 " fill="none" id="OptionalTKindHelper-to-OptionalTKind" style="stroke:#F5BDE6;stroke-width:1.0;stroke-dasharray:7.0,7.0;"/><polygon fill="#F5BDE6" points="435.0225,369.54,444.2489,366.0943,438.5924,366.0391,438.6475,360.3825,435.0225,369.54" style="stroke:#F5BDE6;stroke-width:1.0;"/><text fill="#CAD3F5" font-family="sans-serif" font-size="12" lengthAdjust="spacing" textLength="81.9434" x="484.1325" y="336.3516">wrap() returns</text></g><!--link OptionalT to Kind--><g id="link_OptionalT_Kind"><path codeLine="54" d="M328.1225,495.44 C304.3925,478.45 282.5525,458.35 266.1325,434.86 C223.6325,374.06 224.4668,285.2088 226.6268,249.8388 " fill="none" id="OptionalT-to-Kind" style="stroke:#F5BDE6;stroke-width:1.0;stroke-dasharray:7.0,7.0;"/><polygon fill="#F5BDE6" points="226.9925,243.85,222.4513,252.5894,226.6877,248.8407,230.4365,253.0771,226.9925,243.85" style="stroke:#F5BDE6;stroke-width:1.0;"/><text fill="#CAD3F5" font-family="sans-serif" font-size="12" lengthAdjust="spacing" textLength="184.1309" x="11" y="263.0087">value is Kind&lt;F, Optional&lt;A&gt;&gt;</text></g><!--link OptionalT to Monad--><g id="link_OptionalT_Monad"><path codeLine="55" d="M651.2725,650.66 C697.4625,673.77 737.9471,694.0244 766.0571,708.0944 " fill="none" id="OptionalT-to-Monad" style="stroke:#F5BDE6;stroke-width:1.0;stroke-dasharray:7.0,7.0;"/><polygon fill="#F5BDE6" points="771.4225,710.78,765.1648,703.1747,766.9513,708.542,761.584,710.3286,771.4225,710.78" style="stroke:#F5BDE6;stroke-width:1.0;"/><text fill="#CAD3F5" font-family="sans-serif" font-size="12" lengthAdjust="spacing" textLength="164.3262" x="568.3969" y="700.6169">factories require Monad&lt;F&gt;</text></g><!--SRC=[ZLLDSvim4BtpApPSQhUswTdZOUg3FUcaIMPSnprcP262faAYqf8qJVlVkmX8WDXZ7vWHgxTllnxB1MOY5r0e9dLm8JLNPI8WGopSF8eiUvezICpAVUc4vKQZq3ZZ9eyqDmxPLFA8CooAadEffpdZF9CCpPJuD9QvcdhwA2Vso1zd1Lc3mFsKkc2MvS0LSsw9QEM-HF6LOdoNVmHyxa0IaR9IuPh2tp1ADjoOlK4pWKkX7WLApi8WavIso0jyXbpaUs5T40IIyhKfumAkf4uMw_lBg-q4blUxvRUuStbjD6jkk-RGsrVM6jkwhkvNcqqCuZVr8N4znp08e2u6RWkKTAEsYpL5Ys6ni88RcyGnoBnGr0MD7LITcqU-40V09_XoO_HDgHIqToruiIIIHwPAuP7JAQmPHsEbSFJIUDDWg2dGS0wpIQt9AzhHSUxnMKJEv6BKj226l3gG7TXvtjheeVVuxFnRsxlmdLh0DEVpQ9LCSVsEhpERr1VshnhpcqOE3R5LXpVr0BCV4hLmZW9qnXr5qDZdS0pU0dVLUEQmR3CP2AuLvEtTThNfgQsZvICn6gS9x8nCsjoca4g2lWbo4C7GDskzhMboFvNHQRzwEX_WbjQ3xQH9dp5cXjeuCka4SbPC85KChwj3zLWcdV382MHC9wf-eNAoyP7kLFNIoYWepaiJjNbjOfqbb58_MLQCJa-NzjSfINTKuqc7iLe9RyU19z861LZva26Oz51Xytd5ux40TuwsWjTgDS9NzALHYR0DPaIKu3Bpf26bfk-jU9JuNATDAlOHstRsPqlxvc_S6TXxm4TQJ-7Rf67K5y4uX5Ov0yVPB3uujJdGRyYTm1EAMy6GQe-eWSBwez6z2ZgaG-TclcEm0akhtJbkbPrS1uvTpxfRFOVUTKKN-kKBqXrS-o4STafVVm1M_2gbVVsVnMr_XnNKkNYsu3y0]--></g></svg>