<svg xmlns="http://www.w3.org/2000/svg" xmlns:xlink="http://www.w3.org/1999/xlink" contentStyleType="text/css" height="567px" preserveAspectRatio="none" style="width:1018px;height:567px;background:#24273A;" version="1.1" viewBox="0 0 1018 567" width="1018px" zoomAndPan="magnify"><defs/><g><rect fill="#24273A" height="567" style="stroke:none;stroke-width:1.0;" width="1018" x="0" y="0"/><!--class Kind--><g id="elem_Kind"><rect codeLine="3" fill="#24273A" height="30" id="Kind" rx="1.5" ry="1.5" style="stroke:#C6A0F6;stroke-width:2.0;" width="88.0254" x="707.56" y="530"/><rect fill="#363A4F" height="30" rx="1.5" ry="1.5" style="stroke:#363A4F;stroke-width:2.0;" width="88.0254" x="707.56" y="530"/><rect fill="#363A4F" height="1.5" style="stroke:#363A4F;stroke-width:2.0;" width="88.0254" x="707.56" y="558.5"/><rect codeLine="3" fill="none" height="30" id="Kind" rx="1.5" ry="1.5" style="stroke:#C6A0F6;stroke-width:2.0;" width="88.0254" x="707.56" y="530"/><ellipse cx="721.56" cy="545" fill="#B4A7E5" rx="10" ry="10" style="stroke:#181818;stroke-width:1.0;"/><path d="M718.5678,542.2754 L718.5678,540.752 L723.7768,540.752 L723.7768,542.2754 L722.0366,542.2754 L722.0366,547.9766 L723.7768,547.9766 L723.7768,549.5 L718.5678,549.5 L718.5678,547.9766 L720.308,547.9766 L720.308,542.2754 Z " fill="#CAD3F5"/><text fill="#A6DA95" font-family="Helvetica" font-size="16" font-style="italic" lengthAdjust="spacing" textLength="32.0234" x="734.56" y="549.3203">Kind</text><rect fill="#24273A" height="14" style="stroke:#C6A0F6;stroke-width:1.0;stroke-dasharray:2.0,2.0;" width="24.002" x="774.5834" y="527"/><text fill="#CAD3F5" font-family="Helvetica" font-size="12" font-style="italic" lengthAdjust="spacing" textLength="22.002" x="775.5834" y="537.2402">F, A</text></g><!--class Functor--><g id="elem_Functor"><rect codeLine="4" fill="#24273A" height="30" id="Functor" rx="1.5" ry="1.5" style="stroke:#C6A0F6;stroke-width:2.0;" width="95.5723" x="796.79" y="426"/><rect fill="#363A4F" height="30" rx="1.5" ry="1.5" style="stroke:#363A4F;stroke-width:2.0;" width="95.5723" x="796.79" y="426"/><rect fill="#363A4F" height="1.5" style="stroke:#363A4F;stroke-width:2.0;" width="95.5723" x="796.79" y="454.5"/><rect codeLine="4" fill="none" height="30" id="Functor" rx="1.5" ry="1.5" style="stroke:#C6A0F6;stroke-width:2.0;" width="95.5723" x="796.79" y="426"/><ellipse cx="810.79" cy="441" fill="#B4A7E5" rx="10" ry="10" style="stroke:#181818;stroke-width:1.0;"/><path d="M807.7978,438.2754 L807.7978,436.752 L813.0068,436.752 L813.0068,438.2754 L811.2666,438.2754 L811.2666,443.9766 L813.0068,443.9766 L813.0068,445.5 L807.7978,445.5 L807.7978,443.9766 L809.538,443.9766 L809.538,438.2754 Z " fill="#CAD3F5"/><text fill="#A6DA95" font-family="Helvetica" font-size="16" font-style="italic" lengthAdjust="spacing" textLength="54.2422" x="823.79" y="445.3203">Functor</text><rect fill="#24273A" height="14" style="stroke:#C6A0F6;stroke-width:1.0;stroke-dasharray:2.0,2.0;" width="9.3301" x="886.0322" y="423"/><text fill="#CAD3F5" font-family="Helvetica" font-size="12" font-style="italic" lengthAdjust="spacing" textLength="7.3301" x="887.0322" y="433.2402">F</text></g><!--class Applicative--><g id="elem_Applicative"><rect codeLine="5" fill="#24273A" height="30" id="Applicative" rx="1.5" ry="1.5" style="stroke:#C6A0F6;stroke-width:2.0;" width="118.7051" x="540.22" y="335"/><rect fill="#363A4F" height="30" rx="1.5" ry="1.5" style="stroke:#363A4F;stroke-width:2.0;" width="118.7051" x="540.22" y="335"/><rect fill="#363A4F" height="1.5" style="stroke:#363A4F;stroke-width:2.0;" width="118.7051" x="540.22" y="363.5"/><rect codeLine="5" fill="none" height="30" id="Applicative" rx="1.5" ry="1.5" style="stroke:#C6A0F6;stroke-width:2.0;" width="118.7051" x="540.22" y="335"/><ellipse cx="554.22" cy="350" fill="#B4A7E5" rx="10" ry="10" style="stroke:#181818;stroke-width:1.0;"/><path d="M551.2278,347.2754 L551.2278,345.752 L556.4368,345.752 L556.4368,347.2754 L554.6966,347.2754 L554.6966,352.9766 L556.4368,352.9766 L556.4368,354.5 L551.2278,354.5 L551.2278,352.9766 L552.968,352.9766 L552.968,347.2754 Z " fill="#CAD3F5"/><text fill="#A6DA95" font-family="Helvetica" font-size="16" font-style="italic" lengthAdjust="spacing" textLength="77.375" x="567.22" y="354.3203">Applicative</text><rect fill="#24273A" height="14" style="stroke:#C6A0F6;stroke-width:1.0;stroke-dasharray:2.0,2.0;" width="9.3301" x="652.595" y="332"/><text fill="#CAD3F5" font-family="Helvetica" font-size="12" font-style="italic" lengthAdjust="spacing" textLength="7.3301" x="653.595" y="342.2402">F</text></g><!--class MonadBase--><g id="elem_MonadBase"><rect codeLine="6" fill="#24273A" height="30" id="MonadBase" rx="1.5" ry="1.5" style="stroke:#C6A0F6;stroke-width:2.0;" width="92.918" x="38.11" y="223"/><rect fill="#363A4F" height="30" rx="1.5" ry="1.5" style="stroke:#363A4F;stroke-width:2.0;" width="92.918" x="38.11" y="223"/><rect fill="#363A4F" height="1.5" style="stroke:#363A4F;stroke-width:2.0;" width="92.918" x="38.11" y="251.5"/><rect codeLine="6" fill="none" height="30" id="MonadBase" rx="1.5" ry="1.5" style="stroke:#C6A0F6;stroke-width:2.0;" width="92.918" x="38.11" y="223"/><ellipse cx="52.11" cy="238" fill="#B4A7E5" rx="10" ry="10" style="stroke:#181818;stroke-width:1.0;"/><path d="M49.1178,235.2754 L49.1178,233.752 L54.3268,233.752 L54.3268,235.2754 L52.5866,235.2754 L52.5866,240.9766 L54.3268,240.9766 L54.3268,242.5 L49.1178,242.5 L49.1178,240.9766 L50.858,240.9766 L50.858,235.2754 Z " fill="#CAD3F5"/><text fill="#A6DA95" font-family="Helvetica" font-size="16" font-style="italic" lengthAdjust="spacing" textLength="48.9219" x="65.11" y="242.3203">Monad</text><rect fill="#24273A" height="14" style="stroke:#C6A0F6;stroke-width:1.0;stroke-dasharray:2.0,2.0;" width="11.9961" x="122.0319" y="220"/><text fill="#CAD3F5" font-family="Helvetica" font-size="12" font-style="italic" lengthAdjust="spacing" textLength="9.9961" x="123.0319" y="230.2402">M</text></g><!--class MonadErrorBase--><g id="elem_MonadErrorBase"><rect codeLine="7" fill="#24273A" height="30" id="MonadErrorBase" rx="1.5" ry="1.5" style="stroke:#C6A0F6;stroke-width:2.0;" width="143.1445" x="7" y="111"/><rect fill="#363A4F" height="30" rx="1.5" ry="1.5" style="stroke:#363A4F;stroke-width:2.0;" width="143.1445" x="7" y="111"/><rect fill="#363A4F" height="1.5" style="stroke:#363A4F;stroke-width:2.0;" width="143.1445" x="7" y="139.5"/><rect codeLine="7" fill="none" height="30" id="MonadErrorBase" rx="1.5" ry="1.5" style="stroke:#C6A0F6;stroke-width:2.0;" width="143.1445" x="7" y="111"/><ellipse cx="21" cy="126" fill="#B4A7E5" rx="10" ry="10" style="stroke:#181818;stroke-width:1.0;"/><path d="M18.0078,123.2754 L18.0078,121.752 L23.2168,121.752 L23.2168,123.2754 L21.4766,123.2754 L21.4766,128.9766 L23.2168,128.9766 L23.2168,130.5 L18.0078,130.5 L18.0078,128.9766 L19.748,128.9766 L19.748,123.2754 Z " fill="#CAD3F5"/><text fill="#A6DA95" font-family="Helvetica" font-size="16" font-style="italic" lengthAdjust="spacing" textLength="84.4766" x="34" y="130.3203">MonadError</text><rect fill="#24273A" height="14" style="stroke:#C6A0F6;stroke-width:1.0;stroke-dasharray:2.0,2.0;" width="26.668" x="126.4766" y="108"/><text fill="#CAD3F5" font-family="Helvetica" font-size="12" font-style="italic" lengthAdjust="spacing" textLength="24.668" x="127.4766" y="118.2402">M, E</text></g><!--class OptionalKindBase--><g id="elem_OptionalKindBase"><rect codeLine="9" fill="#24273A" height="30" id="OptionalKindBase" rx="1.5" ry="1.5" style="stroke:#C6A0F6;stroke-width:2.0;" width="133.6211" x="592.76" y="426"/><rect fill="#363A4F" height="30" rx="1.5" ry="1.5" style="stroke:#363A4F;stroke-width:2.0;" width="133.6211" x="592.76" y="426"/><rect fill="#363A4F" height="1.5" style="stroke:#363A4F;stroke-width:2.0;" width="133.6211" x="592.76" y="454.5"/><rect codeLine="9" fill="none" height="30" id="OptionalKindBase" rx="1.5" ry="1.5" style="stroke:#C6A0F6;stroke-width:2.0;" width="133.6211" x="592.76" y="426"/><ellipse cx="606.76" cy="441" fill="#ADD8E6" rx="10" ry="10" style="stroke:#181818;stroke-width:1.0;"/><path d="M606.3694,438.1465 Q605.7073,438.1465 605.4026,438.8525 Q605.0979,439.5586 605.0979,441.1348 Q605.0979,442.7051 605.4026,443.4111 Q605.7073,444.1172 606.3694,444.1172 Q607.0373,444.1172 607.342,443.4111 Q607.6467,442.7051 607.6467,441.1348 Q607.6467,439.5586 607.342,438.8525 Q607.0373,438.1465 606.3694,438.1465 Z M603.2991,441.1348 Q603.2991,438.8906 604.0754,437.7422 Q604.8518,436.5938 606.3694,436.5938 Q607.8928,436.5938 608.6692,437.7422 Q609.4455,438.8906 609.4455,441.1348 Q609.4455,443.373 608.6692,444.5215 Q607.8928,445.6699 606.3694,445.6699 Q604.8518,445.6699 604.0754,444.5215 Q603.2991,443.373 603.2991,441.1348 Z " fill="#CAD3F5"/><text fill="#A6DA95" font-family="Helvetica" font-size="16" font-style="italic" lengthAdjust="spacing" textLength="91.6172" x="619.76" y="445.3203">OptionalKind</text><rect fill="#24273A" height="14" style="stroke:#C6A0F6;stroke-width:1.0;stroke-dasharray:2.0,2.0;" width="10.0039" x="719.3772" y="423"/><text fill="#CAD3F5" font-family="Helvetica" font-size="12" font-style="italic" lengthAdjust="spacing" textLength="8.0039" x="720.3772" y="433.2402">A</text></g><!--class OptionalKindHelper--><g id="elem_OptionalKindHelper"><rect codeLine="13" fill="#24273A" height="30" id="OptionalKindHelper" rx="1.5" ry="1.5" style="stroke:#C6A0F6;stroke-width:2.0;" width="168.75" x="167.2" y="223"/><rect fill="#363A4F" height="30" rx="1.5" ry="1.5" style="stroke:#363A4F;stroke-width:2.0;" width="168.75" x="167.2" y="223"/><rect fill="#363A4F" height="1.5" style="stroke:#363A4F;stroke-width:2.0;" width="168.75" x="167.2" y="251.5"/><rect codeLine="13" fill="none" height="30" id="OptionalKindHelper" rx="1.5" ry="1.5" style="stroke:#C6A0F6;stroke-width:2.0;" width="168.75" x="167.2" y="223"/><ellipse cx="181.2" cy="238" fill="#808080" rx="10" ry="10" style="stroke:#181818;stroke-width:1.0;"/><path d="M178.0027,233.752 L179.7313,233.752 L179.7313,237.0859 L181.8934,237.0859 L181.8934,233.752 L183.6219,233.752 L183.6219,242.5 L181.8934,242.5 L181.8934,238.6094 L179.7313,238.6094 L179.7313,242.5 L178.0027,242.5 Z " fill="#CAD3F5"/><text fill="#A6DA95" font-family="Helvetica" font-size="16" lengthAdjust="spacing" textLength="138.75" x="194.2" y="242.3203">OptionalKindHelper</text></g><g id="elem_GMN9"><path d="M371.28,216.5 L371.28,234 L336.44,238 L371.28,242 L371.28,259.5 A1.5,1.5 0 0 0 372.78,261 L828.364,261 A1.5,1.5 0 0 0 829.864,259.5 L829.864,225 L819.864,215 L372.78,215 A1.5,1.5 0 0 0 371.28,216.5 " fill="#EED49F" style="stroke:#24273A;stroke-width:0.5;"/><path d="M819.864,215 L819.864,224.25 A0.75,0.75 0 0 0 820.614,225 L829.864,225 L819.864,215 " fill="#EED49F" style="stroke:#24273A;stroke-width:0.5;"/><text fill="#24273A" font-family="Helvetica" font-size="12" lengthAdjust="spacing" textLength="237.3809" x="377.28" y="229.2402">Contains internal 'OptionalHolder&lt;A&gt; record'</text><text fill="#24273A" font-family="Helvetica" font-size="12" lengthAdjust="spacing" textLength="192.7676" x="377.28" y="241.2402">which implements OptionalKind&lt;A&gt;.</text><text fill="#24273A" font-family="Helvetica" font-size="12" lengthAdjust="spacing" textLength="437.584" x="377.28" y="253.2402">`record OptionalHolder&lt;A&gt;(Optional&lt;A&gt; optional) implements OptionalKind&lt;A&gt; {}`</text></g><!--class OptionalFunctorImpl--><g id="elem_OptionalFunctorImpl"><rect codeLine="24" fill="#24273A" height="30" id="OptionalFunctorImpl" rx="1.5" ry="1.5" style="stroke:#C6A0F6;stroke-width:2.0;" width="143.8359" x="403.65" y="111"/><rect fill="#363A4F" height="30" rx="1.5" ry="1.5" style="stroke:#363A4F;stroke-width:2.0;" width="143.8359" x="403.65" y="111"/><rect fill="#363A4F" height="1.5" style="stroke:#363A4F;stroke-width:2.0;" width="143.8359" x="403.65" y="139.5"/><rect codeLine="24" fill="none" height="30" id="OptionalFunctorImpl" rx="1.5" ry="1.5" style="stroke:#C6A0F6;stroke-width:2.0;" width="143.8359" x="403.65" y="111"/><ellipse cx="417.65" cy="126" fill="#ADD1B2" rx="10" ry="10" style="stroke:#181818;stroke-width:1.0;"/><path d="M419.484,130.248 Q419.0738,130.459 418.6227,130.5645 Q418.1715,130.6699 417.6734,130.6699 Q415.9039,130.6699 414.9723,129.5039 Q414.0406,128.3379 414.0406,126.1348 Q414.0406,123.9258 414.9723,122.7598 Q415.9039,121.5938 417.6734,121.5938 Q418.1715,121.5938 418.6285,121.6992 Q419.0855,121.8047 419.484,122.0156 L419.484,123.9375 Q419.0387,123.5273 418.6197,123.3369 Q418.2008,123.1465 417.7555,123.1465 Q416.8063,123.1465 416.3229,123.8994 Q415.8395,124.6523 415.8395,126.1348 Q415.8395,127.6113 416.3229,128.3643 Q416.8063,129.1172 417.7555,129.1172 Q418.2008,129.1172 418.6197,128.9268 Q419.0387,128.7363 419.484,128.3262 Z " fill="#CAD3F5"/><text fill="#A6DA95" font-family="Helvetica" font-size="16" lengthAdjust="spacing" textLength="113.8359" x="430.65" y="130.3203">OptionalFunctor</text></g><!--class OptionalMonadImpl--><g id="elem_OptionalMonadImpl"><rect codeLine="27" fill="#24273A" height="30" id="OptionalMonadImpl" rx="1.5" ry="1.5" style="stroke:#C6A0F6;stroke-width:2.0;" width="138.5156" x="183.31" y="7"/><rect fill="#363A4F" height="30" rx="1.5" ry="1.5" style="stroke:#363A4F;stroke-width:2.0;" width="138.5156" x="183.31" y="7"/><rect fill="#363A4F" height="1.5" style="stroke:#363A4F;stroke-width:2.0;" width="138.5156" x="183.31" y="35.5"/><rect codeLine="27" fill="none" height="30" id="OptionalMonadImpl" rx="1.5" ry="1.5" style="stroke:#C6A0F6;stroke-width:2.0;" width="138.5156" x="183.31" y="7"/><ellipse cx="197.31" cy="22" fill="#ADD1B2" rx="10" ry="10" style="stroke:#181818;stroke-width:1.0;"/><path d="M199.144,26.248 Q198.7338,26.459 198.2827,26.5645 Q197.8315,26.6699 197.3334,26.6699 Q195.5639,26.6699 194.6323,25.5039 Q193.7006,24.3379 193.7006,22.1348 Q193.7006,19.9258 194.6323,18.7598 Q195.5639,17.5938 197.3334,17.5938 Q197.8315,17.5938 198.2885,17.6992 Q198.7455,17.8047 199.144,18.0156 L199.144,19.9375 Q198.6987,19.5273 198.2797,19.3369 Q197.8608,19.1465 197.4155,19.1465 Q196.4663,19.1465 195.9829,19.8994 Q195.4995,20.6523 195.4995,22.1348 Q195.4995,23.6113 195.9829,24.3643 Q196.4663,25.1172 197.4155,25.1172 Q197.8608,25.1172 198.2797,24.9268 Q198.6987,24.7363 199.144,24.3262 Z " fill="#CAD3F5"/><text fill="#A6DA95" font-family="Helvetica" font-size="16" lengthAdjust="spacing" textLength="108.5156" x="210.31" y="26.3203">OptionalMonad</text></g><!--link MonadErrorBase to MonadBase--><g id="link_MonadErrorBase_MonadBase"><path codeLine="36" d="M79.36,141.38 C80.51,162.46 81.6599,183.5567 82.8099,204.6467 " fill="none" id="MonadErrorBase-to-MonadBase" style="stroke:#F5BDE6;stroke-width:1.0;"/><polygon fill="none" points="83.79,222.62,88.801,204.32,76.8188,204.9734,83.79,222.62" style="stroke:#F5BDE6;stroke-width:1.0;"/></g><!--link MonadBase to Applicative--><g id="link_MonadBase_Applicative"><path codeLine="37" d="M124.54,253.46 C132.76,256.17 141.4,258.83 149.57,261 C287.67,297.7 435.5723,323.3799 522.2523,337.1299 " fill="none" id="MonadBase-to-Applicative" style="stroke:#F5BDE6;stroke-width:1.0;"/><polygon fill="none" points="540.03,339.95,523.1923,331.204,521.3123,343.0558,540.03,339.95" style="stroke:#F5BDE6;stroke-width:1.0;"/></g><!--link Applicative to Functor--><g id="link_Applicative_Functor"><path codeLine="38" d="M639.48,365.5 C685.04,382.05 742.2121,402.8131 787.7621,419.3631 " fill="none" id="Applicative-to-Functor" style="stroke:#F5BDE6;stroke-width:1.0;"/><polygon fill="none" points="804.68,425.51,789.8111,413.7238,785.7131,425.0024,804.68,425.51" style="stroke:#F5BDE6;stroke-width:1.0;"/></g><!--link Functor to Kind--><g id="link_Functor_Kind"><path codeLine="39" d="M836.65,456.19 C829.42,468.48 818,486.37 805.57,500 C795.55,510.99 797.0624,510.7433 786.4124,518.7733 " fill="none" id="Functor-to-Kind" style="stroke:#F5BDE6;stroke-width:1.0;"/><polygon fill="none" points="772.04,529.61,790.0246,523.5641,782.8002,513.9825,772.04,529.61" style="stroke:#F5BDE6;stroke-width:1.0;"/><text fill="#CAD3F5" font-family="Helvetica" font-size="12" lengthAdjust="spacing" textLength="193.4063" x="817.51" y="496.2402">(logically, Kind is the base for HKTs)</text></g><!--link OptionalKindBase to Kind--><g id="link_OptionalKindBase_Kind"><path codeLine="41" d="M654.54,456.05 C651,468.58 648.21,486.91 656.57,500 C667.83,517.61 671.0881,522.5151 690.0481,528.9251 " fill="none" id="OptionalKindBase-to-Kind" style="stroke:#F5BDE6;stroke-width:1.0;"/><polygon fill="none" points="707.1,534.69,691.9698,523.2412,688.1265,534.6091,707.1,534.69" style="stroke:#F5BDE6;stroke-width:1.0;"/><text fill="#CAD3F5" font-family="Helvetica" font-size="12" lengthAdjust="spacing" textLength="143.4082" x="657.57" y="496.2402">&lt;OptionalKind.Witness, A&gt;</text></g><!--link OptionalFunctorImpl to Functor--><g id="link_OptionalFunctorImpl_Functor"><path codeLine="43" d="M547.93,133.63 C645.4,144.23 810.93,168.68 847.57,215 C897.86,278.58 870.9234,370.0349 856.5334,408.8049 " fill="none" id="OptionalFunctorImpl-to-Functor" style="stroke:#F5BDE6;stroke-width:1.0;stroke-dasharray:7.0,7.0;"/><polygon fill="none" points="850.27,425.68,862.1585,410.8927,850.9084,406.7171,850.27,425.68" style="stroke:#F5BDE6;stroke-width:1.0;"/><text fill="#CAD3F5" font-family="Helvetica" font-size="12" lengthAdjust="spacing" textLength="128.7363" x="875.39" y="301.2402">&lt;OptionalKind.Witness&gt;</text></g><!--link OptionalMonadImpl to OptionalFunctorImpl--><g id="link_OptionalMonadImpl_OptionalFunctorImpl"><path codeLine="44" d="M284.05,37.4 C326.43,56.78 385.041,83.593 427.521,103.023 " fill="none" id="OptionalMonadImpl-to-OptionalFunctorImpl" style="stroke:#F5BDE6;stroke-width:1.0;"/><polygon fill="none" points="443.89,110.51,430.0167,97.5666,425.0253,108.4793,443.89,110.51" style="stroke:#F5BDE6;stroke-width:1.0;"/></g><!--link OptionalMonadImpl to MonadErrorBase--><g id="link_OptionalMonadImpl_MonadErrorBase"><path codeLine="45" d="M183.22,30.65 C137.28,37.32 82.92,48.82 68.57,67 C58.82,79.35 56.755,81.5436 62.765,94.3136 " fill="none" id="OptionalMonadImpl-to-MonadErrorBase" style="stroke:#F5BDE6;stroke-width:1.0;stroke-dasharray:7.0,7.0;"/><polygon fill="none" points="70.43,110.6,68.1939,91.7586,57.3362,96.8685,70.43,110.6" style="stroke:#F5BDE6;stroke-width:1.0;"/><text fill="#CAD3F5" font-family="Helvetica" font-size="12" lengthAdjust="spacing" textLength="156.7441" x="69.57" y="77.2402">&lt;OptionalKind.Witness, Unit&gt;</text></g><!--link OptionalMonadImpl to OptionalKindHelper--><g id="link_OptionalMonadImpl_OptionalKindHelper"><path codeLine="47" d="M252.51,37.37 C252.32,76.36 251.8478,177.7801 251.6678,216.6901 " fill="none" id="OptionalMonadImpl-to-OptionalKindHelper" style="stroke:#F5BDE6;stroke-width:1.0;stroke-dasharray:7.0,7.0;"/><polygon fill="#F5BDE6" points="251.64,222.69,255.6816,213.7086,251.6631,217.6901,247.6817,213.6716,251.64,222.69" style="stroke:#F5BDE6;stroke-width:1.0;"/><text fill="#CAD3F5" font-family="Helvetica" font-size="12" lengthAdjust="spacing" textLength="114.7207" x="253.16" y="129.2402">uses for wrap/unwrap</text></g><!--link OptionalFunctorImpl to OptionalKindHelper--><g id="link_OptionalFunctorImpl_OptionalKindHelper"><path codeLine="48" d="M446.29,141.38 C403.36,162.46 329.1855,198.8849 286.2455,219.9749 " fill="none" id="OptionalFunctorImpl-to-OptionalKindHelper" style="stroke:#F5BDE6;stroke-width:1.0;stroke-dasharray:7.0,7.0;"/><polygon fill="#F5BDE6" points="280.86,222.62,290.7016,222.2427,285.3479,220.4158,287.1748,215.062,280.86,222.62" style="stroke:#F5BDE6;stroke-width:1.0;"/><text fill="#CAD3F5" font-family="Helvetica" font-size="12" lengthAdjust="spacing" textLength="114.7207" x="384.64" y="181.2402">uses for wrap/unwrap</text></g><!--SRC=[bLLDR-8m4BtxLyps0b7pSKSe4goAM5MebwtsMkCOOicnBTjPXBhzxsixWHe2gNh2de_tPjuummyc26yh2hMroioAGkD3lcUsRhUjePf8OQcmEP5D8OWq5cUC50HRfLf2cCWQJ4ZDi9MPubZOjk6PhMb3YmOpKOHZhfmLrSoHq4RP8pIqsL9j47FOUeS9XOTd9ghvAeL5-G3OWB_6xbKhY9LwlkhS_JMEM2Z5cQkB_QMdgCWKHswamDLyqyM4onAROSIJrevmay9J51cC8JoEVr6MEIyFJVGTn3QV0FCvJ5zIplQrtVAM9b2My8ucy8TPGOq1UrGKTbAVCz47GeHZvxeWM5Ekg1vmTER0iaxtcXxF1A-MSUPKZx63lXDu13TGomYugiy-Vsx5GMCr3Gt5ENbVhHzKSW-Wbm42H8IQk8w4j1Iq5m7axaO3wATxSExb60ZwEXzCJb5hoIkgFRAcHEfgWWur8pMmHd7tp8GrroNawAqBXG56N1Z8_foCOC7xnnkYeWBVmc0o_Oky64jl- -KWmo0UdKhfyaedTs-SJ27MMKD42lU5xsIyOWzlyu8xM7fcW8vxE26vcowIi_zMRJkExUQolf7YbkMNjSTaOq0m-lmkvFgISm9PbaKViB-YaoPZgQ0nCpJaJ5y5iqcavMXUZKN5kqHdhQTZmIcSk_4Suys4wQFBNUJQ-LT6c-nywXpn6epEdVEqIVlVpkWvOGPJBlSkcFDZLnCmjwLg2biFxRV9-lctIH0QhBeOvExw-CoBlvCy_opgNdQ9XgyyKDu0l14QAAuKl5kddqXKQenItjg_Ct3_cYQeuzTVqItIEwr-1-4_]--></g></svg>