<svg xmlns="http://www.w3.org/2000/svg" xmlns:xlink="http://www.w3.org/1999/xlink" contentStyleType="text/css" height="792px" preserveAspectRatio="none" style="width:1057px;height:792px;background:#24273A;" version="1.1" viewBox="0 0 1057 792" width="1057px" zoomAndPan="magnify"><defs/><g><rect fill="#24273A" height="792" style="stroke:none;stroke-width:1.0;" width="1057" x="0" y="0"/><!--class Kind--><g id="elem_Kind"><rect codeLine="5" fill="#24273A" height="30" id="Kind" rx="1.5" ry="1.5" style="stroke:#C6A0F6;stroke-width:2.0;" width="148.0547" x="118.8782" y="289"/><rect fill="#363A4F" height="30" rx="1.5" ry="1.5" style="stroke:#363A4F;stroke-width:2.0;" width="148.0547" x="118.8782" y="289"/><rect fill="#363A4F" height="1.5" style="stroke:#363A4F;stroke-width:2.0;" width="148.0547" x="118.8782" y="317.5"/><rect codeLine="5" fill="none" height="30" id="Kind" rx="1.5" ry="1.5" style="stroke:#C6A0F6;stroke-width:2.0;" width="148.0547" x="118.8782" y="289"/><ellipse cx="132.8782" cy="304" fill="#B4A7E5" rx="10" ry="10" style="stroke:#181818;stroke-width:1.0;"/><path d="M129.8861,301.2754 L129.8861,299.752 L135.095,299.752 L135.095,301.2754 L133.3548,301.2754 L133.3548,306.9766 L135.095,306.9766 L135.095,308.5 L129.8861,308.5 L129.8861,306.9766 L131.6263,306.9766 L131.6263,301.2754 Z " fill="#CAD3F5"/><text fill="#A6DA95" font-family="Helvetica" font-size="16" font-style="italic" lengthAdjust="spacing" textLength="32.0234" x="145.8782" y="308.3203">Kind</text><rect fill="#24273A" height="14" style="stroke:#C6A0F6;stroke-width:1.0;stroke-dasharray:2.0,2.0;" width="84.0313" x="185.9017" y="286"/><text fill="#CAD3F5" font-family="Helvetica" font-size="12" font-style="italic" lengthAdjust="spacing" textLength="82.0313" x="186.9017" y="296.2402">F_HKT, A_VAL</text></g><!--class Monad--><g id="elem_Monad"><rect codeLine="6" fill="#24273A" height="30" id="Monad" rx="1.5" ry="1.5" style="stroke:#C6A0F6;stroke-width:2.0;" width="120.9258" x="740.4482" y="755"/><rect fill="#363A4F" height="30" rx="1.5" ry="1.5" style="stroke:#363A4F;stroke-width:2.0;" width="120.9258" x="740.4482" y="755"/><rect fill="#363A4F" height="1.5" style="stroke:#363A4F;stroke-width:2.0;" width="120.9258" x="740.4482" y="783.5"/><rect codeLine="6" fill="none" height="30" id="Monad" rx="1.5" ry="1.5" style="stroke:#C6A0F6;stroke-width:2.0;" width="120.9258" x="740.4482" y="755"/><ellipse cx="754.4482" cy="770" fill="#B4A7E5" rx="10" ry="10" style="stroke:#181818;stroke-width:1.0;"/><path d="M751.4561,767.2754 L751.4561,765.752 L756.665,765.752 L756.665,767.2754 L754.9248,767.2754 L754.9248,772.9766 L756.665,772.9766 L756.665,774.5 L751.4561,774.5 L751.4561,772.9766 L753.1963,772.9766 L753.1963,767.2754 Z " fill="#CAD3F5"/><text fill="#A6DA95" font-family="Helvetica" font-size="16" font-style="italic" lengthAdjust="spacing" textLength="48.9219" x="767.4482" y="774.3203">Monad</text><rect fill="#24273A" height="14" style="stroke:#C6A0F6;stroke-width:1.0;stroke-dasharray:2.0,2.0;" width="40.0039" x="824.3701" y="752"/><text fill="#CAD3F5" font-family="Helvetica" font-size="12" font-style="italic" lengthAdjust="spacing" textLength="38.0039" x="825.3701" y="762.2402">F_HKT</text></g><!--class MonadError--><g id="elem_MonadError"><rect codeLine="7" fill="#24273A" height="30" id="MonadError" rx="1.5" ry="1.5" style="stroke:#C6A0F6;stroke-width:2.0;" width="203.1621" x="709.3282" y="10"/><rect fill="#363A4F" height="30" rx="1.5" ry="1.5" style="stroke:#363A4F;stroke-width:2.0;" width="203.1621" x="709.3282" y="10"/><rect fill="#363A4F" height="1.5" style="stroke:#363A4F;stroke-width:2.0;" width="203.1621" x="709.3282" y="38.5"/><rect codeLine="7" fill="none" height="30" id="MonadError" rx="1.5" ry="1.5" style="stroke:#C6A0F6;stroke-width:2.0;" width="203.1621" x="709.3282" y="10"/><ellipse cx="723.3282" cy="25" fill="#B4A7E5" rx="10" ry="10" style="stroke:#181818;stroke-width:1.0;"/><path d="M720.3361,22.2754 L720.3361,20.752 L725.545,20.752 L725.545,22.2754 L723.8048,22.2754 L723.8048,27.9766 L725.545,27.9766 L725.545,29.5 L720.3361,29.5 L720.3361,27.9766 L722.0763,27.9766 L722.0763,22.2754 Z " fill="#CAD3F5"/><text fill="#A6DA95" font-family="Helvetica" font-size="16" font-style="italic" lengthAdjust="spacing" textLength="84.4766" x="736.3282" y="29.3203">MonadError</text><rect fill="#24273A" height="14" style="stroke:#C6A0F6;stroke-width:1.0;stroke-dasharray:2.0,2.0;" width="86.6855" x="828.8048" y="7"/><text fill="#CAD3F5" font-family="Helvetica" font-size="12" font-style="italic" lengthAdjust="spacing" textLength="84.6855" x="829.8048" y="17.2402">F_HKT, E_ERR</text></g><!--class OptionalT--><g id="elem_OptionalT"><rect codeLine="9" fill="#24273A" height="134" id="OptionalT" rx="1.5" ry="1.5" style="stroke:#C6A0F6;stroke-width:2.0;" width="480.5723" x="352.6182" y="560"/><rect fill="#363A4F" height="38" rx="1.5" ry="1.5" style="stroke:#363A4F;stroke-width:2.0;" width="480.5723" x="352.6182" y="560"/><rect fill="#363A4F" height="1.5" style="stroke:#363A4F;stroke-width:2.0;" width="480.5723" x="352.6182" y="596.5"/><rect codeLine="9" fill="none" height="134" id="OptionalT" rx="1.5" ry="1.5" style="stroke:#C6A0F6;stroke-width:2.0;" width="480.5723" x="352.6182" y="560"/><ellipse cx="541.2198" cy="579" fill="#ADD1B2" rx="10" ry="10" style="stroke:#181818;stroke-width:1.0;"/><path d="M543.0538,583.248 Q542.6436,583.459 542.1925,583.5645 Q541.7413,583.6699 541.2432,583.6699 Q539.4737,583.6699 538.5421,582.5039 Q537.6104,581.3379 537.6104,579.1348 Q537.6104,576.9258 538.5421,575.7598 Q539.4737,574.5938 541.2432,574.5938 Q541.7413,574.5938 542.1983,574.6992 Q542.6554,574.8047 543.0538,575.0156 L543.0538,576.9375 Q542.6085,576.5273 542.1895,576.3369 Q541.7706,576.1465 541.3253,576.1465 Q540.3761,576.1465 539.8927,576.8994 Q539.4093,577.6523 539.4093,579.1348 Q539.4093,580.6113 539.8927,581.3643 Q540.3761,582.1172 541.3253,582.1172 Q541.7706,582.1172 542.1895,581.9268 Q542.6085,581.7363 543.0538,581.3262 Z " fill="#CAD3F5"/><text fill="#CAD3F5" font-family="Helvetica" font-size="12" font-style="italic" lengthAdjust="spacing" textLength="47.3613" x="571.2227" y="574.2402">&#171;record&#187;</text><text fill="#A6DA95" font-family="Helvetica" font-size="16" lengthAdjust="spacing" textLength="69.3672" x="560.2198" y="589.3203">OptionalT</text><rect fill="#24273A" height="14" style="stroke:#C6A0F6;stroke-width:1.0;stroke-dasharray:2.0,2.0;" width="24.002" x="812.1886" y="557"/><text fill="#CAD3F5" font-family="Helvetica" font-size="12" font-style="italic" lengthAdjust="spacing" textLength="22.002" x="813.1886" y="567.2402">F, A</text><line style="stroke:#C6A0F6;stroke-width:2.0;" x1="353.6182" x2="832.1905" y1="598" y2="598"/><ellipse cx="363.6182" cy="609.5" fill="none" rx="3" ry="3" style="stroke:#038048;stroke-width:1.0;"/><text fill="#A6DA95" font-family="Helvetica" font-size="12" lengthAdjust="spacing" textLength="208.9688" x="371.6182" y="611.2402">@NonNull Kind&lt;F, Optional&lt;A&gt;&gt; value</text><ellipse cx="363.6182" cy="637.5" fill="#84BE84" rx="3" ry="3" style="stroke:#038048;stroke-width:1.0;"/><text fill="#A6DA95" font-family="Helvetica" font-size="12" lengthAdjust="spacing" textLength="368.8477" x="371.6182" y="639.2402">static &lt;F, A&gt; OptionalT&lt;F, A&gt; fromKind(Kind&lt;F, Optional&lt;A&gt;&gt; value)</text><ellipse cx="363.6182" cy="649.5" fill="#84BE84" rx="3" ry="3" style="stroke:#038048;stroke-width:1.0;"/><text fill="#A6DA95" font-family="Helvetica" font-size="12" lengthAdjust="spacing" textLength="322.1484" x="371.6182" y="651.2402">static &lt;F, A&gt; OptionalT&lt;F, A&gt; some(Monad&lt;F&gt; monad, A a)</text><ellipse cx="363.6182" cy="661.5" fill="#84BE84" rx="3" ry="3" style="stroke:#038048;stroke-width:1.0;"/><text fill="#A6DA95" font-family="Helvetica" font-size="12" lengthAdjust="spacing" textLength="294.8203" x="371.6182" y="663.2402">static &lt;F, A&gt; OptionalT&lt;F, A&gt; none(Monad&lt;F&gt; monad)</text><ellipse cx="363.6182" cy="673.5" fill="#84BE84" rx="3" ry="3" style="stroke:#038048;stroke-width:1.0;"/><text fill="#A6DA95" font-family="Helvetica" font-size="12" lengthAdjust="spacing" textLength="455.5723" x="371.6182" y="675.2402">static &lt;F, A&gt; OptionalT&lt;F, A&gt; fromOptional(Monad&lt;F&gt; monad, Optional&lt;A&gt; optional)</text><ellipse cx="363.6182" cy="685.5" fill="#84BE84" rx="3" ry="3" style="stroke:#038048;stroke-width:1.0;"/><text fill="#A6DA95" font-family="Helvetica" font-size="12" lengthAdjust="spacing" textLength="367.5" x="371.6182" y="687.2402">static &lt;F, A&gt; OptionalT&lt;F, A&gt; liftF(Monad&lt;F&gt; monad, Kind&lt;F, A&gt; fa)</text><line style="stroke:#C6A0F6;stroke-width:1.0;" x1="353.6182" x2="568.2306" y1="624" y2="624"/><text fill="#A6DA95" font-family="Helvetica" font-size="12" lengthAdjust="spacing" textLength="49.3477" x="568.2306" y="626.7402">Factories</text><line style="stroke:#C6A0F6;stroke-width:1.0;" x1="617.5782" x2="832.1905" y1="624" y2="624"/></g><!--class OptionalTKind--><g id="elem_OptionalTKind"><rect codeLine="19" fill="#24273A" height="62" id="OptionalTKind" rx="1.5" ry="1.5" style="stroke:#C6A0F6;stroke-width:2.0;" width="214.7402" x="308.5382" y="437"/><rect fill="#363A4F" height="30" rx="1.5" ry="1.5" style="stroke:#363A4F;stroke-width:2.0;" width="214.7402" x="308.5382" y="437"/><rect fill="#363A4F" height="1.5" style="stroke:#363A4F;stroke-width:2.0;" width="214.7402" x="308.5382" y="465.5"/><rect codeLine="19" fill="none" height="62" id="OptionalTKind" rx="1.5" ry="1.5" style="stroke:#C6A0F6;stroke-width:2.0;" width="214.7402" x="308.5382" y="437"/><ellipse cx="348.3447" cy="452" fill="#B4A7E5" rx="10" ry="10" style="stroke:#181818;stroke-width:1.0;"/><path d="M345.3525,449.2754 L345.3525,447.752 L350.5615,447.752 L350.5615,449.2754 L348.8213,449.2754 L348.8213,454.9766 L350.5615,454.9766 L350.5615,456.5 L345.3525,456.5 L345.3525,454.9766 L347.0927,454.9766 L347.0927,449.2754 Z " fill="#CAD3F5"/><text fill="#A6DA95" font-family="Helvetica" font-size="16" font-style="italic" lengthAdjust="spacing" textLength="101.3906" x="367.0795" y="456.3203">OptionalTKind</text><rect fill="#24273A" height="14" style="stroke:#C6A0F6;stroke-width:1.0;stroke-dasharray:2.0,2.0;" width="24.002" x="502.2765" y="434"/><text fill="#CAD3F5" font-family="Helvetica" font-size="12" font-style="italic" lengthAdjust="spacing" textLength="22.002" x="503.2765" y="444.2402">F, A</text><line style="stroke:#C6A0F6;stroke-width:2.0;" x1="309.5382" x2="522.2785" y1="467" y2="467"/><text fill="#A6DA95" font-family="Helvetica" font-size="12" lengthAdjust="spacing" textLength="202.7402" x="314.5382" y="480.2402">// Witness: OptionalTKind.Witness&lt;F&gt;</text><text fill="#A6DA95" font-family="Helvetica" font-size="12" lengthAdjust="spacing" textLength="55.3652" x="314.5382" y="492.2402">// Value: A</text></g><!--class OptionalTMonad--><g id="elem_OptionalTMonad"><rect codeLine="24" fill="#24273A" height="70" id="OptionalTMonad" rx="1.5" ry="1.5" style="stroke:#C6A0F6;stroke-width:2.0;" width="353.998" x="633.9082" y="101"/><rect fill="#363A4F" height="30" rx="1.5" ry="1.5" style="stroke:#363A4F;stroke-width:2.0;" width="353.998" x="633.9082" y="101"/><rect fill="#363A4F" height="1.5" style="stroke:#363A4F;stroke-width:2.0;" width="353.998" x="633.9082" y="129.5"/><rect codeLine="24" fill="none" height="70" id="OptionalTMonad" rx="1.5" ry="1.5" style="stroke:#C6A0F6;stroke-width:2.0;" width="353.998" x="633.9082" y="101"/><ellipse cx="717.7608" cy="116" fill="#ADD1B2" rx="10" ry="10" style="stroke:#181818;stroke-width:1.0;"/><path d="M719.5948,120.248 Q719.1846,120.459 718.7334,120.5645 Q718.2823,120.6699 717.7842,120.6699 Q716.0147,120.6699 715.0831,119.5039 Q714.1514,118.3379 714.1514,116.1348 Q714.1514,113.9258 715.0831,112.7598 Q716.0147,111.5938 717.7842,111.5938 Q718.2823,111.5938 718.7393,111.6992 Q719.1963,111.8047 719.5948,112.0156 L719.5948,113.9375 Q719.1495,113.5273 718.7305,113.3369 Q718.3116,113.1465 717.8663,113.1465 Q716.917,113.1465 716.4336,113.8994 Q715.9502,114.6523 715.9502,116.1348 Q715.9502,117.6113 716.4336,118.3643 Q716.917,119.1172 717.8663,119.1172 Q718.3116,119.1172 718.7305,118.9268 Q719.1495,118.7363 719.5948,118.3262 Z " fill="#CAD3F5"/><text fill="#A6DA95" font-family="Helvetica" font-size="16" lengthAdjust="spacing" textLength="118.2891" x="736.7608" y="120.3203">OptionalTMonad</text><rect fill="#24273A" height="14" style="stroke:#C6A0F6;stroke-width:1.0;stroke-dasharray:2.0,2.0;" width="58.0039" x="932.9024" y="98"/><text fill="#CAD3F5" font-family="Helvetica" font-size="12" font-style="italic" lengthAdjust="spacing" textLength="56.0039" x="933.9024" y="108.2402">F_OUTER</text><line style="stroke:#C6A0F6;stroke-width:2.0;" x1="634.9082" x2="986.9063" y1="131" y2="131"/><rect fill="none" height="6" style="stroke:#C82930;stroke-width:1.0;" width="6" x="641.9082" y="139.5"/><text fill="#A6DA95" font-family="Helvetica" font-size="12" lengthAdjust="spacing" textLength="257.6367" x="652.9082" y="144.2402">final @NonNull Monad&lt;F_OUTER&gt; outerMonad</text><line style="stroke:#C6A0F6;stroke-width:2.0;" x1="634.9082" x2="986.9063" y1="151" y2="151"/><ellipse cx="644.9082" cy="162.5" fill="#84BE84" rx="3" ry="3" style="stroke:#038048;stroke-width:1.0;"/><text fill="#A6DA95" font-family="Helvetica" font-size="12" lengthAdjust="spacing" textLength="328.998" x="652.9082" y="164.2402">OptionalTMonad(@NonNull Monad&lt;F_OUTER&gt; outerMonad)</text></g><!--class OptionalTKindHelper--><g id="elem_OptionalTKindHelper"><rect codeLine="30" fill="#24273A" height="118" id="OptionalTKindHelper" rx="1.5" ry="1.5" style="stroke:#C6A0F6;stroke-width:2.0;" width="455.8691" x="301.9782" y="245"/><rect fill="#363A4F" height="30" rx="1.5" ry="1.5" style="stroke:#363A4F;stroke-width:2.0;" width="455.8691" x="301.9782" y="245"/><rect fill="#363A4F" height="1.5" style="stroke:#363A4F;stroke-width:2.0;" width="455.8691" x="301.9782" y="273.5"/><rect codeLine="30" fill="none" height="118" id="OptionalTKindHelper" rx="1.5" ry="1.5" style="stroke:#C6A0F6;stroke-width:2.0;" width="455.8691" x="301.9782" y="245"/><ellipse cx="451.6511" cy="260" fill="#ADD1B2" rx="10" ry="10" style="stroke:#181818;stroke-width:1.0;"/><path d="M453.4851,264.248 Q453.0749,264.459 452.6238,264.5645 Q452.1726,264.6699 451.6745,264.6699 Q449.905,264.6699 448.9734,263.5039 Q448.0417,262.3379 448.0417,260.1348 Q448.0417,257.9258 448.9734,256.7598 Q449.905,255.5938 451.6745,255.5938 Q452.1726,255.5938 452.6296,255.6992 Q453.0866,255.8047 453.4851,256.0156 L453.4851,257.9375 Q453.0398,257.5273 452.6208,257.3369 Q452.2019,257.1465 451.7566,257.1465 Q450.8073,257.1465 450.324,257.8994 Q449.8406,258.6523 449.8406,260.1348 Q449.8406,261.6113 450.324,262.3643 Q450.8073,263.1172 451.7566,263.1172 Q452.2019,263.1172 452.6208,262.9268 Q453.0398,262.7363 453.4851,262.3262 Z " fill="#CAD3F5"/><text fill="#A6DA95" font-family="Helvetica" font-size="16" lengthAdjust="spacing" textLength="148.5234" x="470.6511" y="264.3203">OptionalTKindHelper</text><line style="stroke:#C6A0F6;stroke-width:2.0;" x1="302.9782" x2="756.8474" y1="275" y2="275"/><text fill="#A6DA95" font-family="Helvetica" font-size="12" lengthAdjust="spacing" textLength="210.7793" x="307.9782" y="288.2402">note right of OptionalTKindHelper::wrap</text><text fill="#A6DA95" font-family="Helvetica" font-size="12" lengthAdjust="spacing" textLength="160.7402" x="307.9782" y="300.2402">Uses internal OptionalTHolder</text><text fill="#A6DA95" font-family="Helvetica" font-size="12" lengthAdjust="spacing" textLength="46.7109" x="307.9782" y="312.2402">end note</text><line style="stroke:#C6A0F6;stroke-width:2.0;" x1="302.9782" x2="756.8474" y1="319" y2="319"/><ellipse cx="312.9782" cy="330.5" fill="#84BE84" rx="3" ry="3" style="stroke:#038048;stroke-width:1.0;"/><text fill="#A6DA95" font-family="Helvetica" font-size="12" lengthAdjust="spacing" textLength="430.8691" x="320.9782" y="332.2402">static &lt;F, A&gt; OptionalT&lt;F, A&gt; unwrap(Kind&lt;OptionalTKind.Witness&lt;F&gt;, A&gt; kind)</text><ellipse cx="312.9782" cy="342.5" fill="#84BE84" rx="3" ry="3" style="stroke:#038048;stroke-width:1.0;"/><text fill="#A6DA95" font-family="Helvetica" font-size="12" lengthAdjust="spacing" textLength="360.832" x="320.9782" y="344.2402">static &lt;F, A&gt; OptionalTKind&lt;F, A&gt; wrap(OptionalT&lt;F, A&gt; optionalT)</text><text fill="#A6DA95" font-family="Helvetica" font-size="12" lengthAdjust="spacing" textLength="118.7109" x="320.9782" y="356.2402">(not shown for brevity)</text></g><!--reverse link OptionalTKind to OptionalT--><g id="link_OptionalTKind_OptionalT"><path d="M463.5039,511.2147 C482.8939,528.4147 494.4982,538.71 518.2182,559.74 " fill="none" id="OptionalTKind-backto-OptionalT" style="stroke:#F5BDE6;stroke-width:1.0;stroke-dasharray:7.0,7.0;"/><polygon fill="none" points="450.0382,499.27,459.5223,515.7033,467.4855,506.7262,450.0382,499.27" style="stroke:#F5BDE6;stroke-width:1.0;"/></g><!--reverse link Kind to OptionalTKind--><g id="link_Kind_OptionalTKind"><path d="M227.262,329.9582 C263.292,356.1282 325.7482,401.5 373.9382,436.51 " fill="none" id="Kind-backto-OptionalTKind" style="stroke:#F5BDE6;stroke-width:1.0;"/><polygon fill="none" points="212.6982,319.38,223.7359,334.8128,230.788,325.1036,212.6982,319.38" style="stroke:#F5BDE6;stroke-width:1.0;"/></g><!--reverse link MonadError to OptionalTMonad--><g id="link_MonadError_OptionalTMonad"><path d="M810.9082,58.25 C810.9082,73.48 810.9082,80.2 810.9082,100.57 " fill="none" id="MonadError-backto-OptionalTMonad" style="stroke:#F5BDE6;stroke-width:1.0;stroke-dasharray:7.0,7.0;"/><polygon fill="none" points="810.9082,40.25,804.9082,58.25,816.9082,58.25,810.9082,40.25" style="stroke:#F5BDE6;stroke-width:1.0;"/></g><!--reverse link OptionalTMonad to Monad--><g id="link_OptionalTMonad_Monad"><path codeLine="42" d="M873.3854,178.8021 C911.9354,208.4921 947.9082,247.88 947.9082,303 C947.9082,303 947.9082,303 947.9082,628 C947.9082,690.24 878.4282,733.54 834.9982,754.53 " fill="none" id="OptionalTMonad-backto-Monad" style="stroke:#F5BDE6;stroke-width:1.0;"/><polygon fill="#F5BDE6" points="863.8782,171.48,866.1911,178.3101,873.3854,178.8021,871.0725,171.972,863.8782,171.48" style="stroke:#F5BDE6;stroke-width:1.0;"/><text fill="#CAD3F5" font-family="Helvetica" font-size="12" lengthAdjust="spacing" textLength="182.0801" x="868.6262" y="746.0002">outerMonad (Monad&lt;F_OUTER&gt;)</text></g><!--link OptionalTMonad to OptionalTKindHelper--><g id="link_OptionalTMonad_OptionalTKindHelper"><path codeLine="43" d="M752.6882,171.4 C716.9182,192.53 675.3342,217.0883 633.8942,241.5683 " fill="none" id="OptionalTMonad-to-OptionalTKindHelper" style="stroke:#F5BDE6;stroke-width:1.0;stroke-dasharray:7.0,7.0;"/><polygon fill="#F5BDE6" points="628.7282,244.62,638.5117,243.4864,633.0332,242.0769,634.4427,236.5985,628.7282,244.62" style="stroke:#F5BDE6;stroke-width:1.0;"/><text fill="#CAD3F5" font-family="Helvetica" font-size="12" lengthAdjust="spacing" textLength="25.3477" x="696.5782" y="211.2402">uses</text></g><!--link OptionalTMonad to OptionalT--><g id="link_OptionalTMonad_OptionalT"><path codeLine="44" d="M810.1582,171.18 C808.1182,216.56 800.8082,298.47 774.9082,363 C745.5382,436.17 696.5538,504.4431 655.3638,554.8731 " fill="none" id="OptionalTMonad-to-OptionalT" style="stroke:#F5BDE6;stroke-width:1.0;stroke-dasharray:7.0,7.0;"/><polygon fill="#F5BDE6" points="651.5682,559.52,660.3595,555.0799,654.7312,555.6475,654.1636,550.0192,651.5682,559.52" style="stroke:#F5BDE6;stroke-width:1.0;"/><text fill="#CAD3F5" font-family="Helvetica" font-size="12" lengthAdjust="spacing" textLength="112.7344" x="762.4282" y="403.2402">creates / operates on</text></g><!--link OptionalTKindHelper to OptionalT--><g id="link_OptionalTKindHelper_OptionalT"><path codeLine="46" d="M543.4782,363.15 C545.6982,373.09 547.9182,383.33 549.9082,393 C561.4382,449 572.0706,506.9722 580.3506,553.6622 " fill="none" id="OptionalTKindHelper-to-OptionalT" style="stroke:#F5BDE6;stroke-width:1.0;stroke-dasharray:7.0,7.0;"/><polygon fill="#F5BDE6" points="581.3982,559.57,583.7653,550.0098,580.5252,554.6468,575.8882,551.4067,581.3982,559.57" style="stroke:#F5BDE6;stroke-width:1.0;"/><text fill="#CAD3F5" font-family="Helvetica" font-size="12" lengthAdjust="spacing" textLength="88.0313" x="570.8482" y="471.2402">unwrap() returns</text></g><!--link OptionalTKindHelper to OptionalTKind--><g id="link_OptionalTKindHelper_OptionalTKind"><path codeLine="47" d="M488.7482,363.49 C471.2782,388.32 455.102,411.3137 440.622,431.8837 " fill="none" id="OptionalTKindHelper-to-OptionalTKind" style="stroke:#F5BDE6;stroke-width:1.0;stroke-dasharray:7.0,7.0;"/><polygon fill="#F5BDE6" points="437.1682,436.79,445.6197,431.733,440.0464,432.7014,439.078,427.1281,437.1682,436.79" style="stroke:#F5BDE6;stroke-width:1.0;"/><text fill="#CAD3F5" font-family="Helvetica" font-size="12" lengthAdjust="spacing" textLength="74.6836" x="467.0782" y="403.2402">wrap() returns</text></g><!--link OptionalT to Kind--><g id="link_OptionalT_Kind"><path codeLine="50" d="M380.6782,559.57 C348.2082,543.22 316.9082,523.25 290.9082,499 C234.6182,446.5 207.3524,360.2779 197.9724,325.0579 " fill="none" id="OptionalT-to-Kind" style="stroke:#F5BDE6;stroke-width:1.0;stroke-dasharray:7.0,7.0;"/><polygon fill="#F5BDE6" points="196.4282,319.26,194.8792,328.9863,197.715,324.0916,202.6097,326.9274,196.4282,319.26" style="stroke:#F5BDE6;stroke-width:1.0;"/><text fill="#CAD3F5" font-family="Helvetica" font-size="12" lengthAdjust="spacing" textLength="162.7676" x="6" y="336.3399">value is Kind&lt;F, Optional&lt;A&gt;&gt;</text></g><!--link OptionalT to Monad--><g id="link_OptionalT_Monad"><path codeLine="51" d="M690.8182,694.37 C724.3282,717.09 753.7124,737.0025 774.9324,751.3925 " fill="none" id="OptionalT-to-Monad" style="stroke:#F5BDE6;stroke-width:1.0;stroke-dasharray:7.0,7.0;"/><polygon fill="#F5BDE6" points="779.8982,754.76,774.6945,746.3981,775.76,751.9537,770.2044,753.0193,779.8982,754.76" style="stroke:#F5BDE6;stroke-width:1.0;"/><text fill="#CAD3F5" font-family="Helvetica" font-size="12" lengthAdjust="spacing" textLength="147.4102" x="598.1222" y="744.168">factories require Monad&lt;F&gt;</text></g><!--SRC=[ZLLDZzem4BtdLqnpQMW9kICKbGDefUqk4eBj4NcDix7gZzHsbgvM_U-T66T9iY100ZdZzzwCPrxC5wwegFSCIkSgEyqoGmwJ5-xA-hcsp52j75DkGhNC5DNMaPJJZ19NLJMbNAMIK5foudHQ2Q9SBKNgIYPP9WbNcLzEAen6KSan2vELUmF9v3CpDeeugfk2K0RtNErdoztT_MOCyztJ_6VUsNpGYeJTRZZsyOKnshJKnMwnNkSn40kdpIW2e89O2wlASGoBpMo9QNAOpGoZskpp7BYi11QhN0TrBCeZtr43u3lyUDJgiHO2shqMF9kZo2iHDVF8D8KbeKuRpYm-13Rspt4AGNDOJM6qR6IJozgZcuIibYm9JSj1DWkC0xcDhRGQiaStrz_6FgNld0LqMDycAtZXbf_qEhCf_C7-DMC-cUFS4DbVDFFU7hazmEGNTufPYmawuyuo2F4fN8AtmATcF5EOjvKC3DTQUBNTBDOzjtLCV25788rXgxXhQqkXu0Wz6NAGGTVO2HyBJUwNabpd7QVp5LRu5fjEcVZwkb9Z6nDTZ46IQWo58EwXMJHVGxXb7Zc6agYzE3xWSShHXUuqvxrZei8yxo5hU0ovRZ9AhGw6LCdrwVx6s1NlTLpZHOUvMWjlHf4NKjenCFobTA2BSmURJXiTZmNOMhmLl5UR4NwWxxJOCnCm2Kg2BVL1GO5DVpRibRktOzdeOf_ns4xyxGyNlk7r4vyc2Kb_oACOMcSCY9D9VdOgKy1_0ti5ZoXg675ujWmRn8nVQjKhi2Cw98VvZS0mLnjbRw4rSQGEYBsCdX3xwnEuFNjnnpxwcLHyNE66_Qcv-VWhojiEukS_]--></g></svg>