<svg xmlns="http://www.w3.org/2000/svg" xmlns:xlink="http://www.w3.org/1999/xlink" contentStyleType="text/css" height="647px" preserveAspectRatio="none" style="width:1017px;height:647px;background:#24273A;" version="1.1" viewBox="0 0 1017 647" width="1017px" zoomAndPan="magnify"><defs/><g><rect fill="#24273A" height="647" style="stroke:none;stroke-width:1.0;" width="1017" x="0" y="0"/><!--class Kind--><g id="elem_Kind"><rect codeLine="3" fill="#24273A" height="46" id="Kind" rx="1.5" ry="1.5" style="stroke:#C6A0F6;stroke-width:2.0;" width="88.0254" x="707.56" y="594"/><rect fill="#363A4F" height="30" rx="1.5" ry="1.5" style="stroke:#363A4F;stroke-width:2.0;" width="88.0254" x="707.56" y="594"/><rect fill="#363A4F" height="1.5" style="stroke:#363A4F;stroke-width:2.0;" width="88.0254" x="707.56" y="622.5"/><rect codeLine="3" fill="none" height="46" id="Kind" rx="1.5" ry="1.5" style="stroke:#C6A0F6;stroke-width:2.0;" width="88.0254" x="707.56" y="594"/><ellipse cx="721.56" cy="609" fill="#B4A7E5" rx="10" ry="10" style="stroke:#181818;stroke-width:1.0;"/><path d="M718.5678,606.2754 L718.5678,604.752 L723.7768,604.752 L723.7768,606.2754 L722.0366,606.2754 L722.0366,611.9766 L723.7768,611.9766 L723.7768,613.5 L718.5678,613.5 L718.5678,611.9766 L720.308,611.9766 L720.308,606.2754 Z " fill="#CAD3F5"/><text fill="#A6DA95" font-family="Helvetica" font-size="16" font-style="italic" lengthAdjust="spacing" textLength="32.0234" x="734.56" y="613.3203">Kind</text><rect fill="#24273A" height="14" style="stroke:#C6A0F6;stroke-width:1.0;stroke-dasharray:2.0,2.0;" width="24.002" x="774.5834" y="591"/><text fill="#CAD3F5" font-family="Helvetica" font-size="12" font-style="italic" lengthAdjust="spacing" textLength="22.002" x="775.5834" y="601.2402">F, A</text><line style="stroke:#C6A0F6;stroke-width:2.0;" x1="708.56" x2="794.5854" y1="624" y2="624"/><line style="stroke:#C6A0F6;stroke-width:2.0;" x1="708.56" x2="794.5854" y1="632" y2="632"/></g><!--class Functor--><g id="elem_Functor"><rect codeLine="4" fill="#24273A" height="46" id="Functor" rx="1.5" ry="1.5" style="stroke:#C6A0F6;stroke-width:2.0;" width="95.5723" x="796.79" y="474"/><rect fill="#363A4F" height="30" rx="1.5" ry="1.5" style="stroke:#363A4F;stroke-width:2.0;" width="95.5723" x="796.79" y="474"/><rect fill="#363A4F" height="1.5" style="stroke:#363A4F;stroke-width:2.0;" width="95.5723" x="796.79" y="502.5"/><rect codeLine="4" fill="none" height="46" id="Functor" rx="1.5" ry="1.5" style="stroke:#C6A0F6;stroke-width:2.0;" width="95.5723" x="796.79" y="474"/><ellipse cx="810.79" cy="489" fill="#B4A7E5" rx="10" ry="10" style="stroke:#181818;stroke-width:1.0;"/><path d="M807.7978,486.2754 L807.7978,484.752 L813.0068,484.752 L813.0068,486.2754 L811.2666,486.2754 L811.2666,491.9766 L813.0068,491.9766 L813.0068,493.5 L807.7978,493.5 L807.7978,491.9766 L809.538,491.9766 L809.538,486.2754 Z " fill="#CAD3F5"/><text fill="#A6DA95" font-family="Helvetica" font-size="16" font-style="italic" lengthAdjust="spacing" textLength="54.2422" x="823.79" y="493.3203">Functor</text><rect fill="#24273A" height="14" style="stroke:#C6A0F6;stroke-width:1.0;stroke-dasharray:2.0,2.0;" width="9.3301" x="886.0322" y="471"/><text fill="#CAD3F5" font-family="Helvetica" font-size="12" font-style="italic" lengthAdjust="spacing" textLength="7.3301" x="887.0322" y="481.2402">F</text><line style="stroke:#C6A0F6;stroke-width:2.0;" x1="797.79" x2="891.3623" y1="504" y2="504"/><line style="stroke:#C6A0F6;stroke-width:2.0;" x1="797.79" x2="891.3623" y1="512" y2="512"/></g><!--class Applicative--><g id="elem_Applicative"><rect codeLine="5" fill="#24273A" height="46" id="Applicative" rx="1.5" ry="1.5" style="stroke:#C6A0F6;stroke-width:2.0;" width="118.7051" x="540.22" y="367"/><rect fill="#363A4F" height="30" rx="1.5" ry="1.5" style="stroke:#363A4F;stroke-width:2.0;" width="118.7051" x="540.22" y="367"/><rect fill="#363A4F" height="1.5" style="stroke:#363A4F;stroke-width:2.0;" width="118.7051" x="540.22" y="395.5"/><rect codeLine="5" fill="none" height="46" id="Applicative" rx="1.5" ry="1.5" style="stroke:#C6A0F6;stroke-width:2.0;" width="118.7051" x="540.22" y="367"/><ellipse cx="554.22" cy="382" fill="#B4A7E5" rx="10" ry="10" style="stroke:#181818;stroke-width:1.0;"/><path d="M551.2278,379.2754 L551.2278,377.752 L556.4368,377.752 L556.4368,379.2754 L554.6966,379.2754 L554.6966,384.9766 L556.4368,384.9766 L556.4368,386.5 L551.2278,386.5 L551.2278,384.9766 L552.968,384.9766 L552.968,379.2754 Z " fill="#CAD3F5"/><text fill="#A6DA95" font-family="Helvetica" font-size="16" font-style="italic" lengthAdjust="spacing" textLength="77.375" x="567.22" y="386.3203">Applicative</text><rect fill="#24273A" height="14" style="stroke:#C6A0F6;stroke-width:1.0;stroke-dasharray:2.0,2.0;" width="9.3301" x="652.595" y="364"/><text fill="#CAD3F5" font-family="Helvetica" font-size="12" font-style="italic" lengthAdjust="spacing" textLength="7.3301" x="653.595" y="374.2402">F</text><line style="stroke:#C6A0F6;stroke-width:2.0;" x1="541.22" x2="657.9251" y1="397" y2="397"/><line style="stroke:#C6A0F6;stroke-width:2.0;" x1="541.22" x2="657.9251" y1="405" y2="405"/></g><!--class MonadBase--><g id="elem_MonadBase"><rect codeLine="6" fill="#24273A" height="46" id="MonadBase" rx="1.5" ry="1.5" style="stroke:#C6A0F6;stroke-width:2.0;" width="92.918" x="38.11" y="247"/><rect fill="#363A4F" height="30" rx="1.5" ry="1.5" style="stroke:#363A4F;stroke-width:2.0;" width="92.918" x="38.11" y="247"/><rect fill="#363A4F" height="1.5" style="stroke:#363A4F;stroke-width:2.0;" width="92.918" x="38.11" y="275.5"/><rect codeLine="6" fill="none" height="46" id="MonadBase" rx="1.5" ry="1.5" style="stroke:#C6A0F6;stroke-width:2.0;" width="92.918" x="38.11" y="247"/><ellipse cx="52.11" cy="262" fill="#B4A7E5" rx="10" ry="10" style="stroke:#181818;stroke-width:1.0;"/><path d="M49.1178,259.2754 L49.1178,257.752 L54.3268,257.752 L54.3268,259.2754 L52.5866,259.2754 L52.5866,264.9766 L54.3268,264.9766 L54.3268,266.5 L49.1178,266.5 L49.1178,264.9766 L50.858,264.9766 L50.858,259.2754 Z " fill="#CAD3F5"/><text fill="#A6DA95" font-family="Helvetica" font-size="16" font-style="italic" lengthAdjust="spacing" textLength="48.9219" x="65.11" y="266.3203">Monad</text><rect fill="#24273A" height="14" style="stroke:#C6A0F6;stroke-width:1.0;stroke-dasharray:2.0,2.0;" width="11.9961" x="122.0319" y="244"/><text fill="#CAD3F5" font-family="Helvetica" font-size="12" font-style="italic" lengthAdjust="spacing" textLength="9.9961" x="123.0319" y="254.2402">M</text><line style="stroke:#C6A0F6;stroke-width:2.0;" x1="39.11" x2="130.028" y1="277" y2="277"/><line style="stroke:#C6A0F6;stroke-width:2.0;" x1="39.11" x2="130.028" y1="285" y2="285"/></g><!--class MonadErrorBase--><g id="elem_MonadErrorBase"><rect codeLine="7" fill="#24273A" height="46" id="MonadErrorBase" rx="1.5" ry="1.5" style="stroke:#C6A0F6;stroke-width:2.0;" width="143.1445" x="7" y="127"/><rect fill="#363A4F" height="30" rx="1.5" ry="1.5" style="stroke:#363A4F;stroke-width:2.0;" width="143.1445" x="7" y="127"/><rect fill="#363A4F" height="1.5" style="stroke:#363A4F;stroke-width:2.0;" width="143.1445" x="7" y="155.5"/><rect codeLine="7" fill="none" height="46" id="MonadErrorBase" rx="1.5" ry="1.5" style="stroke:#C6A0F6;stroke-width:2.0;" width="143.1445" x="7" y="127"/><ellipse cx="21" cy="142" fill="#B4A7E5" rx="10" ry="10" style="stroke:#181818;stroke-width:1.0;"/><path d="M18.0078,139.2754 L18.0078,137.752 L23.2168,137.752 L23.2168,139.2754 L21.4766,139.2754 L21.4766,144.9766 L23.2168,144.9766 L23.2168,146.5 L18.0078,146.5 L18.0078,144.9766 L19.748,144.9766 L19.748,139.2754 Z " fill="#CAD3F5"/><text fill="#A6DA95" font-family="Helvetica" font-size="16" font-style="italic" lengthAdjust="spacing" textLength="84.4766" x="34" y="146.3203">MonadError</text><rect fill="#24273A" height="14" style="stroke:#C6A0F6;stroke-width:1.0;stroke-dasharray:2.0,2.0;" width="26.668" x="126.4766" y="124"/><text fill="#CAD3F5" font-family="Helvetica" font-size="12" font-style="italic" lengthAdjust="spacing" textLength="24.668" x="127.4766" y="134.2402">M, E</text><line style="stroke:#C6A0F6;stroke-width:2.0;" x1="8" x2="149.1445" y1="157" y2="157"/><line style="stroke:#C6A0F6;stroke-width:2.0;" x1="8" x2="149.1445" y1="165" y2="165"/></g><!--class OptionalKindBase--><g id="elem_OptionalKindBase"><rect codeLine="9" fill="#24273A" height="46" id="OptionalKindBase" rx="1.5" ry="1.5" style="stroke:#C6A0F6;stroke-width:2.0;" width="133.6211" x="592.76" y="474"/><rect fill="#363A4F" height="30" rx="1.5" ry="1.5" style="stroke:#363A4F;stroke-width:2.0;" width="133.6211" x="592.76" y="474"/><rect fill="#363A4F" height="1.5" style="stroke:#363A4F;stroke-width:2.0;" width="133.6211" x="592.76" y="502.5"/><rect codeLine="9" fill="none" height="46" id="OptionalKindBase" rx="1.5" ry="1.5" style="stroke:#C6A0F6;stroke-width:2.0;" width="133.6211" x="592.76" y="474"/><ellipse cx="606.76" cy="489" fill="#ADD8E6" rx="10" ry="10" style="stroke:#181818;stroke-width:1.0;"/><path d="M606.3694,486.1465 Q605.7073,486.1465 605.4026,486.8525 Q605.0979,487.5586 605.0979,489.1348 Q605.0979,490.7051 605.4026,491.4111 Q605.7073,492.1172 606.3694,492.1172 Q607.0373,492.1172 607.342,491.4111 Q607.6467,490.7051 607.6467,489.1348 Q607.6467,487.5586 607.342,486.8525 Q607.0373,486.1465 606.3694,486.1465 Z M603.2991,489.1348 Q603.2991,486.8906 604.0754,485.7422 Q604.8518,484.5938 606.3694,484.5938 Q607.8928,484.5938 608.6692,485.7422 Q609.4455,486.8906 609.4455,489.1348 Q609.4455,491.373 608.6692,492.5215 Q607.8928,493.6699 606.3694,493.6699 Q604.8518,493.6699 604.0754,492.5215 Q603.2991,491.373 603.2991,489.1348 Z " fill="#CAD3F5"/><text fill="#A6DA95" font-family="Helvetica" font-size="16" font-style="italic" lengthAdjust="spacing" textLength="91.6172" x="619.76" y="493.3203">OptionalKind</text><rect fill="#24273A" height="14" style="stroke:#C6A0F6;stroke-width:1.0;stroke-dasharray:2.0,2.0;" width="10.0039" x="719.3772" y="471"/><text fill="#CAD3F5" font-family="Helvetica" font-size="12" font-style="italic" lengthAdjust="spacing" textLength="8.0039" x="720.3772" y="481.2402">A</text><line style="stroke:#C6A0F6;stroke-width:2.0;" x1="593.76" x2="725.3811" y1="504" y2="504"/><line style="stroke:#C6A0F6;stroke-width:2.0;" x1="593.76" x2="725.3811" y1="512" y2="512"/></g><!--class OptionalKindHelper--><g id="elem_OptionalKindHelper"><rect codeLine="13" fill="#24273A" height="46" id="OptionalKindHelper" rx="1.5" ry="1.5" style="stroke:#C6A0F6;stroke-width:2.0;" width="168.75" x="167.2" y="247"/><rect fill="#363A4F" height="30" rx="1.5" ry="1.5" style="stroke:#363A4F;stroke-width:2.0;" width="168.75" x="167.2" y="247"/><rect fill="#363A4F" height="1.5" style="stroke:#363A4F;stroke-width:2.0;" width="168.75" x="167.2" y="275.5"/><rect codeLine="13" fill="none" height="46" id="OptionalKindHelper" rx="1.5" ry="1.5" style="stroke:#C6A0F6;stroke-width:2.0;" width="168.75" x="167.2" y="247"/><ellipse cx="181.2" cy="262" fill="#808080" rx="10" ry="10" style="stroke:#181818;stroke-width:1.0;"/><path d="M178.0027,257.752 L179.7313,257.752 L179.7313,261.0859 L181.8934,261.0859 L181.8934,257.752 L183.6219,257.752 L183.6219,266.5 L181.8934,266.5 L181.8934,262.6094 L179.7313,262.6094 L179.7313,266.5 L178.0027,266.5 Z " fill="#CAD3F5"/><text fill="#A6DA95" font-family="Helvetica" font-size="16" lengthAdjust="spacing" textLength="138.75" x="194.2" y="266.3203">OptionalKindHelper</text><line style="stroke:#C6A0F6;stroke-width:2.0;" x1="168.2" x2="334.95" y1="277" y2="277"/><line style="stroke:#C6A0F6;stroke-width:2.0;" x1="168.2" x2="334.95" y1="285" y2="285"/></g><g id="elem_GMN9"><path d="M371.28,248.5 L371.28,266 L336.44,270 L371.28,274 L371.28,291.5 A1.5,1.5 0 0 0 372.78,293 L828.364,293 A1.5,1.5 0 0 0 829.864,291.5 L829.864,257 L819.864,247 L372.78,247 A1.5,1.5 0 0 0 371.28,248.5 " fill="#EED49F" style="stroke:#24273A;stroke-width:0.5;"/><path d="M819.864,247 L819.864,256.25 A0.75,0.75 0 0 0 820.614,257 L829.864,257 L819.864,247 " fill="#EED49F" style="stroke:#24273A;stroke-width:0.5;"/><text fill="#24273A" font-family="Helvetica" font-size="12" lengthAdjust="spacing" textLength="237.3809" x="377.28" y="261.2402">Contains internal 'OptionalHolder&lt;A&gt; record'</text><text fill="#24273A" font-family="Helvetica" font-size="12" lengthAdjust="spacing" textLength="192.7676" x="377.28" y="273.2402">which implements OptionalKind&lt;A&gt;.</text><text fill="#24273A" font-family="Helvetica" font-size="12" lengthAdjust="spacing" textLength="437.584" x="377.28" y="285.2402">`record OptionalHolder&lt;A&gt;(Optional&lt;A&gt; optional) implements OptionalKind&lt;A&gt; {}`</text></g><!--class OptionalFunctorImpl--><g id="elem_OptionalFunctorImpl"><rect codeLine="24" fill="#24273A" height="46" id="OptionalFunctorImpl" rx="1.5" ry="1.5" style="stroke:#C6A0F6;stroke-width:2.0;" width="143.8359" x="404.65" y="127"/><rect fill="#363A4F" height="30" rx="1.5" ry="1.5" style="stroke:#363A4F;stroke-width:2.0;" width="143.8359" x="404.65" y="127"/><rect fill="#363A4F" height="1.5" style="stroke:#363A4F;stroke-width:2.0;" width="143.8359" x="404.65" y="155.5"/><rect codeLine="24" fill="none" height="46" id="OptionalFunctorImpl" rx="1.5" ry="1.5" style="stroke:#C6A0F6;stroke-width:2.0;" width="143.8359" x="404.65" y="127"/><ellipse cx="418.65" cy="142" fill="#ADD1B2" rx="10" ry="10" style="stroke:#181818;stroke-width:1.0;"/><path d="M420.484,146.248 Q420.0738,146.459 419.6227,146.5645 Q419.1715,146.6699 418.6734,146.6699 Q416.9039,146.6699 415.9723,145.5039 Q415.0406,144.3379 415.0406,142.1348 Q415.0406,139.9258 415.9723,138.7598 Q416.9039,137.5938 418.6734,137.5938 Q419.1715,137.5938 419.6285,137.6992 Q420.0855,137.8047 420.484,138.0156 L420.484,139.9375 Q420.0387,139.5273 419.6197,139.3369 Q419.2008,139.1465 418.7555,139.1465 Q417.8063,139.1465 417.3229,139.8994 Q416.8395,140.6523 416.8395,142.1348 Q416.8395,143.6113 417.3229,144.3643 Q417.8063,145.1172 418.7555,145.1172 Q419.2008,145.1172 419.6197,144.9268 Q420.0387,144.7363 420.484,144.3262 Z " fill="#CAD3F5"/><text fill="#A6DA95" font-family="Helvetica" font-size="16" lengthAdjust="spacing" textLength="113.8359" x="431.65" y="146.3203">OptionalFunctor</text><line style="stroke:#C6A0F6;stroke-width:2.0;" x1="405.65" x2="547.4859" y1="157" y2="157"/><line style="stroke:#C6A0F6;stroke-width:2.0;" x1="405.65" x2="547.4859" y1="165" y2="165"/></g><!--class OptionalMonadImpl--><g id="elem_OptionalMonadImpl"><rect codeLine="27" fill="#24273A" height="46" id="OptionalMonadImpl" rx="1.5" ry="1.5" style="stroke:#C6A0F6;stroke-width:2.0;" width="138.5156" x="184.31" y="7"/><rect fill="#363A4F" height="30" rx="1.5" ry="1.5" style="stroke:#363A4F;stroke-width:2.0;" width="138.5156" x="184.31" y="7"/><rect fill="#363A4F" height="1.5" style="stroke:#363A4F;stroke-width:2.0;" width="138.5156" x="184.31" y="35.5"/><rect codeLine="27" fill="none" height="46" id="OptionalMonadImpl" rx="1.5" ry="1.5" style="stroke:#C6A0F6;stroke-width:2.0;" width="138.5156" x="184.31" y="7"/><ellipse cx="198.31" cy="22" fill="#ADD1B2" rx="10" ry="10" style="stroke:#181818;stroke-width:1.0;"/><path d="M200.144,26.248 Q199.7338,26.459 199.2827,26.5645 Q198.8315,26.6699 198.3334,26.6699 Q196.5639,26.6699 195.6323,25.5039 Q194.7006,24.3379 194.7006,22.1348 Q194.7006,19.9258 195.6323,18.7598 Q196.5639,17.5938 198.3334,17.5938 Q198.8315,17.5938 199.2885,17.6992 Q199.7455,17.8047 200.144,18.0156 L200.144,19.9375 Q199.6987,19.5273 199.2797,19.3369 Q198.8608,19.1465 198.4155,19.1465 Q197.4663,19.1465 196.9829,19.8994 Q196.4995,20.6523 196.4995,22.1348 Q196.4995,23.6113 196.9829,24.3643 Q197.4663,25.1172 198.4155,25.1172 Q198.8608,25.1172 199.2797,24.9268 Q199.6987,24.7363 200.144,24.3262 Z " fill="#CAD3F5"/><text fill="#A6DA95" font-family="Helvetica" font-size="16" lengthAdjust="spacing" textLength="108.5156" x="211.31" y="26.3203">OptionalMonad</text><line style="stroke:#C6A0F6;stroke-width:2.0;" x1="185.31" x2="321.8256" y1="37" y2="37"/><line style="stroke:#C6A0F6;stroke-width:2.0;" x1="185.31" x2="321.8256" y1="45" y2="45"/></g><!--link MonadErrorBase to MonadBase--><g id="link_MonadErrorBase_MonadBase"><path codeLine="36" d="M79.71,173.47 C80.78,194.47 81.4613,207.663 82.5213,228.633 " fill="none" id="MonadErrorBase-to-MonadBase" style="stroke:#F5BDE6;stroke-width:1.0;"/><polygon fill="none" points="83.43,246.61,88.5136,228.33,76.5289,228.9359,83.43,246.61" style="stroke:#F5BDE6;stroke-width:1.0;"/></g><!--link MonadBase to Applicative--><g id="link_MonadBase_Applicative"><path codeLine="37" d="M131.24,287.52 C137.37,289.48 143.6,291.36 149.57,293 C287.83,331.01 435.7277,359.7045 522.3677,375.3845 " fill="none" id="MonadBase-to-Applicative" style="stroke:#F5BDE6;stroke-width:1.0;"/><polygon fill="none" points="540.08,378.59,523.4362,369.4804,521.2992,381.2885,540.08,378.59" style="stroke:#F5BDE6;stroke-width:1.0;"/></g><!--link Applicative to Functor--><g id="link_Applicative_Functor"><path codeLine="38" d="M651.83,413.4 C694.69,431.77 738.3462,450.4675 780.0062,468.3275 " fill="none" id="Applicative-to-Functor" style="stroke:#F5BDE6;stroke-width:1.0;"/><polygon fill="none" points="796.55,475.42,782.3704,462.8129,777.6421,473.8421,796.55,475.42" style="stroke:#F5BDE6;stroke-width:1.0;"/></g><!--link Functor to Kind--><g id="link_Functor_Kind"><path codeLine="39" d="M833.33,520.36 C826.19,533.62 816.3,550.43 805.57,564 C797.26,574.52 800.0713,572.7322 790.6513,581.4922 " fill="none" id="Functor-to-Kind" style="stroke:#F5BDE6;stroke-width:1.0;"/><polygon fill="none" points="777.47,593.75,794.7372,585.886,786.5654,577.0985,777.47,593.75" style="stroke:#F5BDE6;stroke-width:1.0;"/><text fill="#CAD3F5" font-family="Helvetica" font-size="12" lengthAdjust="spacing" textLength="193.4063" x="816.4" y="560.2402">(logically, Kind is the base for HKTs)</text></g><!--link OptionalKindBase to Kind--><g id="link_OptionalKindBase_Kind"><path codeLine="41" d="M652.71,520.29 C649.89,533.83 648.85,550.97 656.57,564 C667.69,582.76 671.628,588.2689 690.778,596.2589 " fill="none" id="OptionalKindBase-to-Kind" style="stroke:#F5BDE6;stroke-width:1.0;"/><polygon fill="none" points="707.39,603.19,693.0883,590.7216,688.4676,601.7963,707.39,603.19" style="stroke:#F5BDE6;stroke-width:1.0;"/><text fill="#CAD3F5" font-family="Helvetica" font-size="12" lengthAdjust="spacing" textLength="143.4082" x="657.57" y="560.2402">&lt;OptionalKind.Witness, A&gt;</text></g><!--link OptionalFunctorImpl to Functor--><g id="link_OptionalFunctorImpl_Functor"><path codeLine="43" d="M548.81,159.27 C646.12,172.06 811.32,200.18 847.57,247 C899.84,314.52 875.5984,409.0608 859.0784,456.5108 " fill="none" id="OptionalFunctorImpl-to-Functor" style="stroke:#F5BDE6;stroke-width:1.0;stroke-dasharray:7.0,7.0;"/><polygon fill="none" points="853.16,473.51,864.7448,458.4836,853.412,454.538,853.16,473.51" style="stroke:#F5BDE6;stroke-width:1.0;"/><text fill="#CAD3F5" font-family="Helvetica" font-size="12" lengthAdjust="spacing" textLength="128.7363" x="877.71" y="333.2402">&lt;OptionalKind.Witness&gt;</text></g><!--link OptionalMonadImpl to OptionalFunctorImpl--><g id="link_OptionalMonadImpl_OptionalFunctorImpl"><path codeLine="44" d="M296.04,53.47 C335.72,74.47 378.7201,97.2213 418.3501,118.1913 " fill="none" id="OptionalMonadImpl-to-OptionalFunctorImpl" style="stroke:#F5BDE6;stroke-width:1.0;"/><polygon fill="none" points="434.26,126.61,421.1563,112.888,415.5438,123.4947,434.26,126.61" style="stroke:#F5BDE6;stroke-width:1.0;"/></g><!--link OptionalMonadImpl to MonadErrorBase--><g id="link_OptionalMonadImpl_MonadErrorBase"><path codeLine="45" d="M183.96,41.42 C137,50.03 81.05,63.95 66.57,83 C57.13,95.43 54.0095,96.2845 59.7095,110.1345 " fill="none" id="OptionalMonadImpl-to-MonadErrorBase" style="stroke:#F5BDE6;stroke-width:1.0;stroke-dasharray:7.0,7.0;"/><polygon fill="none" points="66.56,126.78,65.258,107.8511,54.161,112.418,66.56,126.78" style="stroke:#F5BDE6;stroke-width:1.0;"/><text fill="#CAD3F5" font-family="Helvetica" font-size="12" lengthAdjust="spacing" textLength="159.4219" x="67.57" y="93.2402">&lt;OptionalKind.Witness, Void&gt;</text></g><!--link OptionalMonadImpl to OptionalKindHelper--><g id="link_OptionalMonadImpl_OptionalKindHelper"><path codeLine="47" d="M253.38,53.39 C253,98.87 252.1904,195.5602 251.8104,240.8402 " fill="none" id="OptionalMonadImpl-to-OptionalKindHelper" style="stroke:#F5BDE6;stroke-width:1.0;stroke-dasharray:7.0,7.0;"/><polygon fill="#F5BDE6" points="251.76,246.84,255.8354,237.8739,251.802,241.8402,247.8357,237.8067,251.76,246.84" style="stroke:#F5BDE6;stroke-width:1.0;"/><text fill="#CAD3F5" font-family="Helvetica" font-size="12" lengthAdjust="spacing" textLength="114.7207" x="253.74" y="153.2402">uses for wrap/unwrap</text></g><!--link OptionalFunctorImpl to OptionalKindHelper--><g id="link_OptionalFunctorImpl_OptionalKindHelper"><path codeLine="48" d="M433.72,173.47 C393.69,194.47 339.5637,222.8536 299.5737,243.8236 " fill="none" id="OptionalFunctorImpl-to-OptionalKindHelper" style="stroke:#F5BDE6;stroke-width:1.0;stroke-dasharray:7.0,7.0;"/><polygon fill="#F5BDE6" points="294.26,246.61,304.0882,245.9729,298.6881,244.288,300.373,238.8879,294.26,246.61" style="stroke:#F5BDE6;stroke-width:1.0;"/><text fill="#CAD3F5" font-family="Helvetica" font-size="12" lengthAdjust="spacing" textLength="114.7207" x="371.82" y="213.2402">uses for wrap/unwrap</text></g><!--SRC=[bLLBRwCm4BxxLyps4b1vtAC8ALaroggAUjd7jOvnWYLZ8sCsYhhzxsiRGaq8L3t5dldc- -PX9j-O8Bp9AHHQL_KoJHK-9oUcY-RGr5GHAJGLEY6oJ0MHjSOn8od1kgeQGfY8Iqn8mR2MSSMnq4t9OrtGagObPY9rnwGoLeIOOL97J2WyF3EHhxOHhBC7m3NOg-_UDe9egLRRrjrTVSIwgZWpMR2_z8hoJ3voBmNEL_iMuouRN8yHJqePmNq4JnxI6HtSnxzKcXalTqLq5VWs6m2h5GGl4MUdGXzuGqF8CdX32_Z3jA1r3VfIKJXArKUYTuG8nyOr4DXHNb4rqcZDJcKNdHIzz0A_DEDCNmRShhyBU0GpFiq8cAnxdpqtugnm5RY2_9YaozOEAfmYwDe0Zi9Z3Kr5GceAoZO1vF5E0UYxULxcdTJW-cjyiBYYTfBdL5bcHObK-GAT2qOAO6N5pQCIkhvD8K6lBHH677vY8BjpECC5R- -lY8eSR0cZoNGlSZ2MplR3KBf1F9ekHPkRFfbxQThaiCRg415CDxvjuuswUvi3RMVfb05QxV64v35OXxt_Ncv7ZlL-cDzCSfliqznziJaYc7r-WtPzghc0E8wz3zXUqRKdSw6WCAkfYmb-IvQ7NYzdumeiSju66ciHp84ZwAkn6lF5kEcZuIuovVpBl4tMdrg7lmQzS-kyRjBkjpLQJLX2mEN9W3c_j3a1Crkge72mr7QRx9v_rY52erNdaqokZuyu_pj9ae-afg8pD7xbJl8EuHseaxZfu6IUTY9UgZvBTc__Bi7yHzQkEtRzfUqYdIZrAmp_0G00]--></g></svg>