<svg xmlns="http://www.w3.org/2000/svg" xmlns:xlink="http://www.w3.org/1999/xlink" contentStyleType="text/css" height="701px" preserveAspectRatio="none" style="width:1569px;height:701px;background:#24273A;" version="1.1" viewBox="0 0 1569 701" width="1569px" zoomAndPan="magnify"><defs/><g><rect fill="#24273A" height="701" style="stroke:none;stroke-width:1.0;" width="1569" x="0" y="0"/><!--class Kind--><g id="elem_Kind"><rect codeLine="6" fill="#24273A" height="30" id="Kind" rx="1.5" ry="1.5" style="stroke:#C6A0F6;stroke-width:2.0;" width="148.0547" x="124.3568" y="198"/><rect fill="#363A4F" height="30" rx="1.5" ry="1.5" style="stroke:#363A4F;stroke-width:2.0;" width="148.0547" x="124.3568" y="198"/><rect fill="#363A4F" height="1.5" style="stroke:#363A4F;stroke-width:2.0;" width="148.0547" x="124.3568" y="226.5"/><rect codeLine="6" fill="none" height="30" id="Kind" rx="1.5" ry="1.5" style="stroke:#C6A0F6;stroke-width:2.0;" width="148.0547" x="124.3568" y="198"/><ellipse cx="138.3568" cy="213" fill="#B4A7E5" rx="10" ry="10" style="stroke:#181818;stroke-width:1.0;"/><path d="M135.3646,210.2754 L135.3646,208.752 L140.5736,208.752 L140.5736,210.2754 L138.8333,210.2754 L138.8333,215.9766 L140.5736,215.9766 L140.5736,217.5 L135.3646,217.5 L135.3646,215.9766 L137.1048,215.9766 L137.1048,210.2754 Z " fill="#CAD3F5"/><text fill="#A6DA95" font-family="Helvetica" font-size="16" font-style="italic" lengthAdjust="spacing" textLength="32.0234" x="151.3568" y="217.3203">Kind</text><rect fill="#24273A" height="14" style="stroke:#C6A0F6;stroke-width:1.0;stroke-dasharray:2.0,2.0;" width="84.0313" x="191.3802" y="195"/><text fill="#CAD3F5" font-family="Helvetica" font-size="12" font-style="italic" lengthAdjust="spacing" textLength="82.0313" x="192.3802" y="205.2402">F_HKT, A_VAL</text></g><!--class Monad--><g id="elem_Monad"><rect codeLine="7" fill="#24273A" height="30" id="Monad" rx="1.5" ry="1.5" style="stroke:#C6A0F6;stroke-width:2.0;" width="120.9258" x="666.9268" y="664"/><rect fill="#363A4F" height="30" rx="1.5" ry="1.5" style="stroke:#363A4F;stroke-width:2.0;" width="120.9258" x="666.9268" y="664"/><rect fill="#363A4F" height="1.5" style="stroke:#363A4F;stroke-width:2.0;" width="120.9258" x="666.9268" y="692.5"/><rect codeLine="7" fill="none" height="30" id="Monad" rx="1.5" ry="1.5" style="stroke:#C6A0F6;stroke-width:2.0;" width="120.9258" x="666.9268" y="664"/><ellipse cx="680.9268" cy="679" fill="#B4A7E5" rx="10" ry="10" style="stroke:#181818;stroke-width:1.0;"/><path d="M677.9346,676.2754 L677.9346,674.752 L683.1436,674.752 L683.1436,676.2754 L681.4033,676.2754 L681.4033,681.9766 L683.1436,681.9766 L683.1436,683.5 L677.9346,683.5 L677.9346,681.9766 L679.6748,681.9766 L679.6748,676.2754 Z " fill="#CAD3F5"/><text fill="#A6DA95" font-family="Helvetica" font-size="16" font-style="italic" lengthAdjust="spacing" textLength="48.9219" x="693.9268" y="683.3203">Monad</text><rect fill="#24273A" height="14" style="stroke:#C6A0F6;stroke-width:1.0;stroke-dasharray:2.0,2.0;" width="40.0039" x="750.8486" y="661"/><text fill="#CAD3F5" font-family="Helvetica" font-size="12" font-style="italic" lengthAdjust="spacing" textLength="38.0039" x="751.8486" y="671.2402">F_HKT</text></g><!--class MonadError<F_HKT, E_ERR> extends Monad<F_HKT>--><g id="elem_MonadError&lt;F_HKT, E_ERR&gt; extends Monad&lt;F_HKT&gt;"><rect codeLine="8" fill="#24273A" height="30" id="MonadError&lt;F_HKT, E_ERR&gt; extends Monad&lt;F_HKT&gt;" rx="1.5" ry="1.5" style="stroke:#C6A0F6;stroke-width:2.0;" width="429.2891" x="1132.7468" y="30"/><rect fill="#363A4F" height="30" rx="1.5" ry="1.5" style="stroke:#363A4F;stroke-width:2.0;" width="429.2891" x="1132.7468" y="30"/><rect fill="#363A4F" height="1.5" style="stroke:#363A4F;stroke-width:2.0;" width="429.2891" x="1132.7468" y="58.5"/><rect codeLine="8" fill="none" height="30" id="MonadError&lt;F_HKT, E_ERR&gt; extends Monad&lt;F_HKT&gt;" rx="1.5" ry="1.5" style="stroke:#C6A0F6;stroke-width:2.0;" width="429.2891" x="1132.7468" y="30"/><ellipse cx="1146.7468" cy="45" fill="#B4A7E5" rx="10" ry="10" style="stroke:#181818;stroke-width:1.0;"/><path d="M1143.7546,42.2754 L1143.7546,40.752 L1148.9636,40.752 L1148.9636,42.2754 L1147.2233,42.2754 L1147.2233,47.9766 L1148.9636,47.9766 L1148.9636,49.5 L1143.7546,49.5 L1143.7546,47.9766 L1145.4948,47.9766 L1145.4948,42.2754 Z " fill="#CAD3F5"/><text fill="#A6DA95" font-family="Helvetica" font-size="16" font-style="italic" lengthAdjust="spacing" textLength="399.2891" x="1159.7468" y="49.3203">MonadError&lt;F_HKT, E_ERR&gt; extends Monad&lt;F_HKT&gt;</text></g><!--class OptionalT--><g id="elem_OptionalT"><rect codeLine="10" fill="#24273A" height="134" id="OptionalT" rx="1.5" ry="1.5" style="stroke:#C6A0F6;stroke-width:2.0;" width="480.5723" x="207.1068" y="469"/><rect fill="#363A4F" height="38" rx="1.5" ry="1.5" style="stroke:#363A4F;stroke-width:2.0;" width="480.5723" x="207.1068" y="469"/><rect fill="#363A4F" height="1.5" style="stroke:#363A4F;stroke-width:2.0;" width="480.5723" x="207.1068" y="505.5"/><rect codeLine="10" fill="none" height="134" id="OptionalT" rx="1.5" ry="1.5" style="stroke:#C6A0F6;stroke-width:2.0;" width="480.5723" x="207.1068" y="469"/><ellipse cx="395.7083" cy="488" fill="#ADD1B2" rx="10" ry="10" style="stroke:#181818;stroke-width:1.0;"/><path d="M397.5423,492.248 Q397.1322,492.459 396.681,492.5645 Q396.2298,492.6699 395.7318,492.6699 Q393.9622,492.6699 393.0306,491.5039 Q392.099,490.3379 392.099,488.1348 Q392.099,485.9258 393.0306,484.7598 Q393.9622,483.5938 395.7318,483.5938 Q396.2298,483.5938 396.6868,483.6992 Q397.1439,483.8047 397.5423,484.0156 L397.5423,485.9375 Q397.097,485.5273 396.6781,485.3369 Q396.2591,485.1465 395.8138,485.1465 Q394.8646,485.1465 394.3812,485.8994 Q393.8978,486.6523 393.8978,488.1348 Q393.8978,489.6113 394.3812,490.3643 Q394.8646,491.1172 395.8138,491.1172 Q396.2591,491.1172 396.6781,490.9268 Q397.097,490.7363 397.5423,490.3262 Z " fill="#CAD3F5"/><text fill="#CAD3F5" font-family="Helvetica" font-size="12" font-style="italic" lengthAdjust="spacing" textLength="47.3613" x="425.7113" y="483.2402">&#171;record&#187;</text><text fill="#A6DA95" font-family="Helvetica" font-size="16" lengthAdjust="spacing" textLength="69.3672" x="414.7083" y="498.3203">OptionalT</text><rect fill="#24273A" height="14" style="stroke:#C6A0F6;stroke-width:1.0;stroke-dasharray:2.0,2.0;" width="24.002" x="666.6771" y="466"/><text fill="#CAD3F5" font-family="Helvetica" font-size="12" font-style="italic" lengthAdjust="spacing" textLength="22.002" x="667.6771" y="476.2402">F, A</text><line style="stroke:#C6A0F6;stroke-width:2.0;" x1="208.1068" x2="686.679" y1="507" y2="507"/><ellipse cx="218.1068" cy="518.5" fill="none" rx="3" ry="3" style="stroke:#038048;stroke-width:1.0;"/><text fill="#A6DA95" font-family="Helvetica" font-size="12" lengthAdjust="spacing" textLength="208.9688" x="226.1068" y="520.2402">@NonNull Kind&lt;F, Optional&lt;A&gt;&gt; value</text><ellipse cx="218.1068" cy="546.5" fill="#84BE84" rx="3" ry="3" style="stroke:#038048;stroke-width:1.0;"/><text fill="#A6DA95" font-family="Helvetica" font-size="12" lengthAdjust="spacing" textLength="368.8477" x="226.1068" y="548.2402">static &lt;F, A&gt; OptionalT&lt;F, A&gt; fromKind(Kind&lt;F, Optional&lt;A&gt;&gt; value)</text><ellipse cx="218.1068" cy="558.5" fill="#84BE84" rx="3" ry="3" style="stroke:#038048;stroke-width:1.0;"/><text fill="#A6DA95" font-family="Helvetica" font-size="12" lengthAdjust="spacing" textLength="322.1484" x="226.1068" y="560.2402">static &lt;F, A&gt; OptionalT&lt;F, A&gt; some(Monad&lt;F&gt; monad, A a)</text><ellipse cx="218.1068" cy="570.5" fill="#84BE84" rx="3" ry="3" style="stroke:#038048;stroke-width:1.0;"/><text fill="#A6DA95" font-family="Helvetica" font-size="12" lengthAdjust="spacing" textLength="294.8203" x="226.1068" y="572.2402">static &lt;F, A&gt; OptionalT&lt;F, A&gt; none(Monad&lt;F&gt; monad)</text><ellipse cx="218.1068" cy="582.5" fill="#84BE84" rx="3" ry="3" style="stroke:#038048;stroke-width:1.0;"/><text fill="#A6DA95" font-family="Helvetica" font-size="12" lengthAdjust="spacing" textLength="455.5723" x="226.1068" y="584.2402">static &lt;F, A&gt; OptionalT&lt;F, A&gt; fromOptional(Monad&lt;F&gt; monad, Optional&lt;A&gt; optional)</text><ellipse cx="218.1068" cy="594.5" fill="#84BE84" rx="3" ry="3" style="stroke:#038048;stroke-width:1.0;"/><text fill="#A6DA95" font-family="Helvetica" font-size="12" lengthAdjust="spacing" textLength="367.5" x="226.1068" y="596.2402">static &lt;F, A&gt; OptionalT&lt;F, A&gt; liftF(Monad&lt;F&gt; monad, Kind&lt;F, A&gt; fa)</text><line style="stroke:#C6A0F6;stroke-width:1.0;" x1="208.1068" x2="422.7191" y1="533" y2="533"/><text fill="#A6DA95" font-family="Helvetica" font-size="12" lengthAdjust="spacing" textLength="49.3477" x="422.7191" y="535.7402">Factories</text><line style="stroke:#C6A0F6;stroke-width:1.0;" x1="472.0667" x2="686.679" y1="533" y2="533"/></g><!--class OptionalTKind--><g id="elem_OptionalTKind"><rect codeLine="20" fill="#24273A" height="62" id="OptionalTKind" rx="1.5" ry="1.5" style="stroke:#C6A0F6;stroke-width:2.0;" width="214.7402" x="251.0168" y="346"/><rect fill="#363A4F" height="30" rx="1.5" ry="1.5" style="stroke:#363A4F;stroke-width:2.0;" width="214.7402" x="251.0168" y="346"/><rect fill="#363A4F" height="1.5" style="stroke:#363A4F;stroke-width:2.0;" width="214.7402" x="251.0168" y="374.5"/><rect codeLine="20" fill="none" height="62" id="OptionalTKind" rx="1.5" ry="1.5" style="stroke:#C6A0F6;stroke-width:2.0;" width="214.7402" x="251.0168" y="346"/><ellipse cx="290.8232" cy="361" fill="#B4A7E5" rx="10" ry="10" style="stroke:#181818;stroke-width:1.0;"/><path d="M287.831,358.2754 L287.831,356.752 L293.04,356.752 L293.04,358.2754 L291.2998,358.2754 L291.2998,363.9766 L293.04,363.9766 L293.04,365.5 L287.831,365.5 L287.831,363.9766 L289.5713,363.9766 L289.5713,358.2754 Z " fill="#CAD3F5"/><text fill="#A6DA95" font-family="Helvetica" font-size="16" font-style="italic" lengthAdjust="spacing" textLength="101.3906" x="309.558" y="365.3203">OptionalTKind</text><rect fill="#24273A" height="14" style="stroke:#C6A0F6;stroke-width:1.0;stroke-dasharray:2.0,2.0;" width="24.002" x="444.755" y="343"/><text fill="#CAD3F5" font-family="Helvetica" font-size="12" font-style="italic" lengthAdjust="spacing" textLength="22.002" x="445.755" y="353.2402">F, A</text><line style="stroke:#C6A0F6;stroke-width:2.0;" x1="252.0168" x2="464.757" y1="376" y2="376"/><text fill="#A6DA95" font-family="Helvetica" font-size="12" lengthAdjust="spacing" textLength="202.7402" x="257.0168" y="389.2402">// Witness: OptionalTKind.Witness&lt;F&gt;</text><text fill="#A6DA95" font-family="Helvetica" font-size="12" lengthAdjust="spacing" textLength="55.3652" x="257.0168" y="401.2402">// Value: A</text></g><!--class OptionalTMonad--><g id="elem_OptionalTMonad"><rect codeLine="25" fill="#24273A" height="70" id="OptionalTMonad" rx="1.5" ry="1.5" style="stroke:#C6A0F6;stroke-width:2.0;" width="353.998" x="743.3868" y="10"/><rect fill="#363A4F" height="30" rx="1.5" ry="1.5" style="stroke:#363A4F;stroke-width:2.0;" width="353.998" x="743.3868" y="10"/><rect fill="#363A4F" height="1.5" style="stroke:#363A4F;stroke-width:2.0;" width="353.998" x="743.3868" y="38.5"/><rect codeLine="25" fill="none" height="70" id="OptionalTMonad" rx="1.5" ry="1.5" style="stroke:#C6A0F6;stroke-width:2.0;" width="353.998" x="743.3868" y="10"/><ellipse cx="827.2393" cy="25" fill="#ADD1B2" rx="10" ry="10" style="stroke:#181818;stroke-width:1.0;"/><path d="M829.0733,29.248 Q828.6631,29.459 828.212,29.5645 Q827.7608,29.6699 827.2627,29.6699 Q825.4932,29.6699 824.5616,28.5039 Q823.6299,27.3379 823.6299,25.1348 Q823.6299,22.9258 824.5616,21.7598 Q825.4932,20.5938 827.2627,20.5938 Q827.7608,20.5938 828.2178,20.6992 Q828.6749,20.8047 829.0733,21.0156 L829.0733,22.9375 Q828.628,22.5273 828.209,22.3369 Q827.7901,22.1465 827.3448,22.1465 Q826.3956,22.1465 825.9122,22.8994 Q825.4288,23.6523 825.4288,25.1348 Q825.4288,26.6113 825.9122,27.3643 Q826.3956,28.1172 827.3448,28.1172 Q827.7901,28.1172 828.209,27.9268 Q828.628,27.7363 829.0733,27.3262 Z " fill="#CAD3F5"/><text fill="#A6DA95" font-family="Helvetica" font-size="16" lengthAdjust="spacing" textLength="118.2891" x="846.2393" y="29.3203">OptionalTMonad</text><rect fill="#24273A" height="14" style="stroke:#C6A0F6;stroke-width:1.0;stroke-dasharray:2.0,2.0;" width="58.0039" x="1042.3809" y="7"/><text fill="#CAD3F5" font-family="Helvetica" font-size="12" font-style="italic" lengthAdjust="spacing" textLength="56.0039" x="1043.3809" y="17.2402">F_OUTER</text><line style="stroke:#C6A0F6;stroke-width:2.0;" x1="744.3868" x2="1096.3848" y1="40" y2="40"/><rect fill="none" height="6" style="stroke:#C82930;stroke-width:1.0;" width="6" x="751.3868" y="48.5"/><text fill="#A6DA95" font-family="Helvetica" font-size="12" lengthAdjust="spacing" textLength="257.6367" x="762.3868" y="53.2402">final @NonNull Monad&lt;F_OUTER&gt; outerMonad</text><line style="stroke:#C6A0F6;stroke-width:2.0;" x1="744.3868" x2="1096.3848" y1="60" y2="60"/><ellipse cx="754.3868" cy="71.5" fill="#84BE84" rx="3" ry="3" style="stroke:#038048;stroke-width:1.0;"/><text fill="#A6DA95" font-family="Helvetica" font-size="12" lengthAdjust="spacing" textLength="328.998" x="762.3868" y="73.2402">OptionalTMonad(@NonNull Monad&lt;F_OUTER&gt; outerMonad)</text></g><!--class MonadError--><g id="elem_MonadError"><rect fill="#24273A" height="30" id="MonadError" rx="1.5" ry="1.5" style="stroke:#C6A0F6;stroke-width:2.0;" width="114.4766" x="973.1468" y="198"/><rect fill="#363A4F" height="30" rx="1.5" ry="1.5" style="stroke:#363A4F;stroke-width:2.0;" width="114.4766" x="973.1468" y="198"/><rect fill="#363A4F" height="1.5" style="stroke:#363A4F;stroke-width:2.0;" width="114.4766" x="973.1468" y="226.5"/><rect fill="none" height="30" id="MonadError" rx="1.5" ry="1.5" style="stroke:#C6A0F6;stroke-width:2.0;" width="114.4766" x="973.1468" y="198"/><ellipse cx="987.1468" cy="213" fill="#B4A7E5" rx="10" ry="10" style="stroke:#181818;stroke-width:1.0;"/><path d="M984.1546,210.2754 L984.1546,208.752 L989.3636,208.752 L989.3636,210.2754 L987.6233,210.2754 L987.6233,215.9766 L989.3636,215.9766 L989.3636,217.5 L984.1546,217.5 L984.1546,215.9766 L985.8948,215.9766 L985.8948,210.2754 Z " fill="#CAD3F5"/><text fill="#A6DA95" font-family="Helvetica" font-size="16" font-style="italic" lengthAdjust="spacing" textLength="84.4766" x="1000.1468" y="217.3203">MonadError</text></g><!--class OptionalTKindHelper--><g id="elem_OptionalTKindHelper"><rect codeLine="31" fill="#24273A" height="118" id="OptionalTKindHelper" rx="1.5" ry="1.5" style="stroke:#C6A0F6;stroke-width:2.0;" width="455.8691" x="307.4568" y="154"/><rect fill="#363A4F" height="30" rx="1.5" ry="1.5" style="stroke:#363A4F;stroke-width:2.0;" width="455.8691" x="307.4568" y="154"/><rect fill="#363A4F" height="1.5" style="stroke:#363A4F;stroke-width:2.0;" width="455.8691" x="307.4568" y="182.5"/><rect codeLine="31" fill="none" height="118" id="OptionalTKindHelper" rx="1.5" ry="1.5" style="stroke:#C6A0F6;stroke-width:2.0;" width="455.8691" x="307.4568" y="154"/><ellipse cx="457.1296" cy="169" fill="#ADD1B2" rx="10" ry="10" style="stroke:#181818;stroke-width:1.0;"/><path d="M458.9636,173.248 Q458.5534,173.459 458.1023,173.5645 Q457.6511,173.6699 457.1531,173.6699 Q455.3835,173.6699 454.4519,172.5039 Q453.5202,171.3379 453.5202,169.1348 Q453.5202,166.9258 454.4519,165.7598 Q455.3835,164.5938 457.1531,164.5938 Q457.6511,164.5938 458.1081,164.6992 Q458.5652,164.8047 458.9636,165.0156 L458.9636,166.9375 Q458.5183,166.5273 458.0993,166.3369 Q457.6804,166.1465 457.2351,166.1465 Q456.2859,166.1465 455.8025,166.8994 Q455.3191,167.6523 455.3191,169.1348 Q455.3191,170.6113 455.8025,171.3643 Q456.2859,172.1172 457.2351,172.1172 Q457.6804,172.1172 458.0993,171.9268 Q458.5183,171.7363 458.9636,171.3262 Z " fill="#CAD3F5"/><text fill="#A6DA95" font-family="Helvetica" font-size="16" lengthAdjust="spacing" textLength="148.5234" x="476.1296" y="173.3203">OptionalTKindHelper</text><line style="stroke:#C6A0F6;stroke-width:2.0;" x1="308.4568" x2="762.3259" y1="184" y2="184"/><text fill="#A6DA95" font-family="Helvetica" font-size="12" lengthAdjust="spacing" textLength="210.7793" x="313.4568" y="197.2402">note right of OptionalTKindHelper::wrap</text><text fill="#A6DA95" font-family="Helvetica" font-size="12" lengthAdjust="spacing" textLength="160.7402" x="313.4568" y="209.2402">Uses internal OptionalTHolder</text><text fill="#A6DA95" font-family="Helvetica" font-size="12" lengthAdjust="spacing" textLength="46.7109" x="313.4568" y="221.2402">end note</text><line style="stroke:#C6A0F6;stroke-width:2.0;" x1="308.4568" x2="762.3259" y1="228" y2="228"/><ellipse cx="318.4568" cy="239.5" fill="#84BE84" rx="3" ry="3" style="stroke:#038048;stroke-width:1.0;"/><text fill="#A6DA95" font-family="Helvetica" font-size="12" lengthAdjust="spacing" textLength="430.8691" x="326.4568" y="241.2402">static &lt;F, A&gt; OptionalT&lt;F, A&gt; unwrap(Kind&lt;OptionalTKind.Witness&lt;F&gt;, A&gt; kind)</text><ellipse cx="318.4568" cy="251.5" fill="#84BE84" rx="3" ry="3" style="stroke:#038048;stroke-width:1.0;"/><text fill="#A6DA95" font-family="Helvetica" font-size="12" lengthAdjust="spacing" textLength="360.832" x="326.4568" y="253.2402">static &lt;F, A&gt; OptionalTKind&lt;F, A&gt; wrap(OptionalT&lt;F, A&gt; optionalT)</text><text fill="#A6DA95" font-family="Helvetica" font-size="12" lengthAdjust="spacing" textLength="118.7109" x="326.4568" y="265.2402">(not shown for brevity)</text></g><!--reverse link OptionalTKind to OptionalT--><g id="link_OptionalTKind_OptionalT"><path d="M372.2676,424.7095 C379.9376,441.9095 384.4268,447.71 396.8468,468.74 " fill="none" id="OptionalTKind-backto-OptionalT" style="stroke:#F5BDE6;stroke-width:1.0;stroke-dasharray:7.0,7.0;"/><polygon fill="none" points="364.9368,408.27,366.7878,427.1532,377.7475,422.2659,364.9368,408.27" style="stroke:#F5BDE6;stroke-width:1.0;"/></g><!--link OptionalT to OptionalTKind--><g id="link_OptionalT_OptionalTKind"><path codeLine="50" d="M422.8068,468.74 C411.3768,447.71 408.1872,440.3007 396.3572,423.1007 " fill="none" id="OptionalT-to-OptionalTKind" style="stroke:#F5BDE6;stroke-width:1.0;"/><polygon fill="none" points="386.1568,408.27,391.4136,426.5009,401.3008,419.7006,386.1568,408.27" style="stroke:#F5BDE6;stroke-width:1.0;"/></g><!--reverse link Kind to OptionalTKind--><g id="link_Kind_OptionalTKind"><path d="M215.6051,242.7133 C235.4851,268.8833 278.9768,310.5 317.7468,345.51 " fill="none" id="Kind-backto-OptionalTKind" style="stroke:#F5BDE6;stroke-width:1.0;"/><polygon fill="none" points="204.7168,228.38,210.8273,246.3428,220.3829,239.0839,204.7168,228.38" style="stroke:#F5BDE6;stroke-width:1.0;"/></g><!--link OptionalTKind to Kind--><g id="link_OptionalTKind_Kind"><path codeLine="54" d="M338.7968,345.51 C308.4168,310.5 266.1789,265.9837 234.3589,239.8137 " fill="none" id="OptionalTKind-to-Kind" style="stroke:#F5BDE6;stroke-width:1.0;"/><polygon fill="none" points="220.4568,228.38,230.5477,244.4478,238.1702,235.1796,220.4568,228.38" style="stroke:#F5BDE6;stroke-width:1.0;"/></g><!--reverse link MonadError to OptionalTMonad--><g id="link_MonadError_OptionalTMonad"><path d="M1021.6029,181.3527 C1010.4329,155.5627 981.9168,116.67 954.0568,80.4 " fill="none" id="MonadError-backto-OptionalTMonad" style="stroke:#F5BDE6;stroke-width:1.0;stroke-dasharray:7.0,7.0;"/><polygon fill="none" points="1028.7568,197.87,1027.1087,178.968,1016.0971,183.7373,1028.7568,197.87" style="stroke:#F5BDE6;stroke-width:1.0;"/></g><!--link OptionalTMonad to MonadError--><g id="link_OptionalTMonad_MonadError"><path codeLine="42" d="M932.3068,80.4 C952.5268,116.67 978.3033,158.6488 1001.3133,184.4388 " fill="none" id="OptionalTMonad-to-MonadError" style="stroke:#F5BDE6;stroke-width:1.0;"/><polygon fill="none" points="1013.2968,197.87,1005.7904,180.4443,996.8363,188.4333,1013.2968,197.87" style="stroke:#F5BDE6;stroke-width:1.0;"/></g><!--reverse link OptionalTMonad to Monad--><g id="link_OptionalTMonad_Monad"><path codeLine="43" d="M920.3868,92.34 C920.3868,125.9 920.3868,166.47 920.3868,212 C920.3868,212 920.3868,212 920.3868,537 C920.3868,605.88 839.2368,644.72 782.1768,663.51 " fill="none" id="OptionalTMonad-backto-Monad" style="stroke:#F5BDE6;stroke-width:1.0;"/><polygon fill="#F5BDE6" points="920.3868,80.34,916.3868,86.34,920.3868,92.34,924.3868,86.34,920.3868,80.34" style="stroke:#F5BDE6;stroke-width:1.0;"/><text fill="#CAD3F5" font-family="Helvetica" font-size="12" lengthAdjust="spacing" textLength="182.0801" x="796.0759" y="658.702">outerMonad (Monad&lt;F_OUTER&gt;)</text></g><!--link OptionalTMonad to OptionalTKindHelper--><g id="link_OptionalTMonad_OptionalTKindHelper"><path codeLine="44" d="M834.6168,80.36 C811.4368,89.81 786.3968,100.17 763.3868,110 C731.0868,123.8 701.8852,136.6331 669.5552,151.0731 " fill="none" id="OptionalTMonad-to-OptionalTKindHelper" style="stroke:#F5BDE6;stroke-width:1.0;stroke-dasharray:7.0,7.0;"/><polygon fill="#F5BDE6" points="664.0768,153.52,673.9256,153.5019,668.6421,151.4809,670.6631,146.1974,664.0768,153.52" style="stroke:#F5BDE6;stroke-width:1.0;"/><text fill="#CAD3F5" font-family="Helvetica" font-size="12" lengthAdjust="spacing" textLength="25.3477" x="764.3868" y="120.2402">uses</text></g><!--link OptionalTMonad to OptionalT--><g id="link_OptionalTMonad_OptionalT"><path codeLine="45" d="M903.9568,80.26 C880.6168,126.82 834.6168,211.21 780.3868,272 C712.0968,348.55 624.4893,416.2094 554.3093,465.1194 " fill="none" id="OptionalTMonad-to-OptionalT" style="stroke:#F5BDE6;stroke-width:1.0;stroke-dasharray:7.0,7.0;"/><polygon fill="#F5BDE6" points="549.3868,468.55,559.0576,466.6858,553.4888,465.6912,554.4834,460.1224,549.3868,468.55" style="stroke:#F5BDE6;stroke-width:1.0;"/><text fill="#CAD3F5" font-family="Helvetica" font-size="12" lengthAdjust="spacing" textLength="112.7344" x="752.6668" y="312.2402">creates / operates on</text></g><!--link OptionalTKindHelper to OptionalT--><g id="link_OptionalTKindHelper_OptionalT"><path codeLine="47" d="M523.6268,272.44 C520.5168,286.74 517.0068,301.97 513.3868,316 C500.0368,367.72 484.3018,419.8179 470.6618,463.0579 " fill="none" id="OptionalTKindHelper-to-OptionalT" style="stroke:#F5BDE6;stroke-width:1.0;stroke-dasharray:7.0,7.0;"/><polygon fill="#F5BDE6" points="468.8568,468.78,475.379,461.4003,470.3609,464.0116,467.7496,458.9936,468.8568,468.78" style="stroke:#F5BDE6;stroke-width:1.0;"/><text fill="#CAD3F5" font-family="Helvetica" font-size="12" lengthAdjust="spacing" textLength="88.0313" x="506.3668" y="380.2402">unwrap() returns</text></g><!--link OptionalTKindHelper to OptionalTKind--><g id="link_OptionalTKindHelper_OptionalTKind"><path codeLine="48" d="M466.5268,272.31 C455.3368,282.1 443.9568,292.25 433.3868,302 C418.1968,316.02 406.051,327.8389 392.471,341.4089 " fill="none" id="OptionalTKindHelper-to-OptionalTKind" style="stroke:#F5BDE6;stroke-width:1.0;stroke-dasharray:7.0,7.0;"/><polygon fill="#F5BDE6" points="388.2268,345.65,397.4205,342.1179,391.7636,342.1158,391.7657,336.4589,388.2268,345.65" style="stroke:#F5BDE6;stroke-width:1.0;"/><text fill="#CAD3F5" font-family="Helvetica" font-size="12" lengthAdjust="spacing" textLength="74.6836" x="434.3868" y="312.2402">wrap() returns</text></g><!--link OptionalT to Kind--><g id="link_OptionalT_Kind"><path codeLine="51" d="M296.9568,468.61 C272.5868,451.96 249.9568,431.87 233.3868,408 C193.8668,351.07 194.5856,268.8079 196.7756,234.4079 " fill="none" id="OptionalT-to-Kind" style="stroke:#F5BDE6;stroke-width:1.0;stroke-dasharray:7.0,7.0;"/><polygon fill="#F5BDE6" points="197.1568,228.42,192.593,237.1477,196.8391,233.4099,200.5769,237.656,197.1568,228.42" style="stroke:#F5BDE6;stroke-width:1.0;"/><text fill="#CAD3F5" font-family="Helvetica" font-size="12" lengthAdjust="spacing" textLength="162.7676" x="6" y="245.2911">value is Kind&lt;F, Optional&lt;A&gt;&gt;</text></g><!--link OptionalT to Monad--><g id="link_OptionalT_Monad"><path codeLine="52" d="M579.1868,603.37 C624.1568,626.01 664.8873,646.5325 693.4773,660.9225 " fill="none" id="OptionalT-to-Monad" style="stroke:#F5BDE6;stroke-width:1.0;stroke-dasharray:7.0,7.0;"/><polygon fill="#F5BDE6" points="698.8368,663.62,692.596,656.0008,694.3706,661.3721,688.9993,663.1467,698.8368,663.62" style="stroke:#F5BDE6;stroke-width:1.0;"/><text fill="#CAD3F5" font-family="Helvetica" font-size="12" lengthAdjust="spacing" textLength="147.4102" x="515.5535" y="653.2436">factories require Monad&lt;F&gt;</text></g><!--SRC=[ZLNBRjim4BphAxQ-L6ujwsuOGdom4I1D0WHEUZGOYeg8yg6ILD8WxRztHPE9fDYm3mAevSpiSdT4VU6AYhPaK3lNs4MU6_8oV-AkRXzRompLoZ7bvbJBN55j7SaupIbnJTDIobKc2QKr9qvdZI3AjL9ahcQIvP9mbVlblC5eajGSip3Pk5UGJ3uoOvCauIXlAa8PN75LBZUxowlj35QxXzMFehTvhHK9k_tmnCVNncWJgUlT-kwk0FO7ooxjW3X94W0gYBLmspYEEsAxt62s0fPBmwWsPL40but0efNheVQrUUGRQW1yXuiRhMvQ8I3kHV1oXIBFHBJC8xCCDeGwRJYp-1BOs4V7AGJDSJMLqRAJJOzhJyyIibgoDBIW0DajC0xaFBRIQioUdbr_Z7rAtpiBwB0-JrRmocq-wVLcK_c3_Ul6_E6HGqECxl2X0M3-apl5hCK4lN7dEOJu0ex18_2X6yy2Lh6IaU6Y8M_lj-kxWTjwNZwI8v1cyA1v6MlBeE88_J3aA8DkiHC-5feyB2KzpTjFvolSujTiUcNYP-ngZMrCTJK3IPePL8AuwsxHFOPmopno1ZLHfTY_u77gwP7kTEUzPAB1F6yXQtWDkSuoIgjU36dIqzFzXR4JtkkvnekESqKBRwU95rBQCJ3ygNQWgqC7Momw7Oy5kBTuAtYlTYDyHrzgKJ8JC2bAWgtrYu8Ac_ves3Dth_koqSK-OspdSBPut_mjUWFx3FY6rzFaOzAG3aqmdK1qpeWudnS7fxO0_6lO4tX4KSE8mxFds41c_5AhmGbwecDocEyK37EjKVOSMXT7weZOP-wxDI0CjZkvYRzyWTk3r_u43fEgzn-0ORzRRjx_PqNix_W4-rgyMl8V]--></g></svg>