<svg xmlns="http://www.w3.org/2000/svg" xmlns:xlink="http://www.w3.org/1999/xlink" contentStyleType="text/css" height="748px" preserveAspectRatio="none" style="width:1665px;height:748px;background:#24273A;" version="1.1" viewBox="0 0 1665 748" width="1665px" zoomAndPan="magnify"><defs/><g><rect fill="#24273A" height="748" style="stroke:none;stroke-width:1.0;" width="1665" x="0" y="0"/><!--class Kind--><g id="elem_Kind"><rect codeLine="7" fill="#24273A" height="30" id="Kind" rx="1.5" ry="1.5" style="stroke:#C6A0F6;stroke-width:2.0;" width="88.0254" x="326.91" y="711"/><rect fill="#363A4F" height="30" rx="1.5" ry="1.5" style="stroke:#363A4F;stroke-width:2.0;" width="88.0254" x="326.91" y="711"/><rect fill="#363A4F" height="1.5" style="stroke:#363A4F;stroke-width:2.0;" width="88.0254" x="326.91" y="739.5"/><rect codeLine="7" fill="none" height="30" id="Kind" rx="1.5" ry="1.5" style="stroke:#C6A0F6;stroke-width:2.0;" width="88.0254" x="326.91" y="711"/><ellipse cx="340.91" cy="726" fill="#B4A7E5" rx="10" ry="10" style="stroke:#181818;stroke-width:1.0;"/><path d="M337.9178,723.2754 L337.9178,721.752 L343.1268,721.752 L343.1268,723.2754 L341.3866,723.2754 L341.3866,728.9766 L343.1268,728.9766 L343.1268,730.5 L337.9178,730.5 L337.9178,728.9766 L339.658,728.9766 L339.658,723.2754 Z " fill="#CAD3F5"/><text fill="#A6DA95" font-family="Helvetica" font-size="16" font-style="italic" lengthAdjust="spacing" textLength="32.0234" x="353.91" y="730.3203">Kind</text><rect fill="#24273A" height="14" style="stroke:#C6A0F6;stroke-width:1.0;stroke-dasharray:2.0,2.0;" width="24.002" x="393.9334" y="708"/><text fill="#CAD3F5" font-family="Helvetica" font-size="12" font-style="italic" lengthAdjust="spacing" textLength="22.002" x="394.9334" y="718.2402">F, A</text></g><!--class Functor--><g id="elem_Functor"><rect codeLine="8" fill="#24273A" height="30" id="Functor" rx="1.5" ry="1.5" style="stroke:#C6A0F6;stroke-width:2.0;" width="95.5723" x="1337.14" y="10"/><rect fill="#363A4F" height="30" rx="1.5" ry="1.5" style="stroke:#363A4F;stroke-width:2.0;" width="95.5723" x="1337.14" y="10"/><rect fill="#363A4F" height="1.5" style="stroke:#363A4F;stroke-width:2.0;" width="95.5723" x="1337.14" y="38.5"/><rect codeLine="8" fill="none" height="30" id="Functor" rx="1.5" ry="1.5" style="stroke:#C6A0F6;stroke-width:2.0;" width="95.5723" x="1337.14" y="10"/><ellipse cx="1351.14" cy="25" fill="#B4A7E5" rx="10" ry="10" style="stroke:#181818;stroke-width:1.0;"/><path d="M1348.1478,22.2754 L1348.1478,20.752 L1353.3568,20.752 L1353.3568,22.2754 L1351.6166,22.2754 L1351.6166,27.9766 L1353.3568,27.9766 L1353.3568,29.5 L1348.1478,29.5 L1348.1478,27.9766 L1349.888,27.9766 L1349.888,22.2754 Z " fill="#CAD3F5"/><text fill="#A6DA95" font-family="Helvetica" font-size="16" font-style="italic" lengthAdjust="spacing" textLength="54.2422" x="1364.14" y="29.3203">Functor</text><rect fill="#24273A" height="14" style="stroke:#C6A0F6;stroke-width:1.0;stroke-dasharray:2.0,2.0;" width="9.3301" x="1426.3822" y="7"/><text fill="#CAD3F5" font-family="Helvetica" font-size="12" font-style="italic" lengthAdjust="spacing" textLength="7.3301" x="1427.3822" y="17.2402">F</text></g><!--class Applicative--><g id="elem_Applicative"><rect codeLine="9" fill="#24273A" height="30" id="Applicative" rx="1.5" ry="1.5" style="stroke:#C6A0F6;stroke-width:2.0;" width="118.7051" x="961.57" y="111"/><rect fill="#363A4F" height="30" rx="1.5" ry="1.5" style="stroke:#363A4F;stroke-width:2.0;" width="118.7051" x="961.57" y="111"/><rect fill="#363A4F" height="1.5" style="stroke:#363A4F;stroke-width:2.0;" width="118.7051" x="961.57" y="139.5"/><rect codeLine="9" fill="none" height="30" id="Applicative" rx="1.5" ry="1.5" style="stroke:#C6A0F6;stroke-width:2.0;" width="118.7051" x="961.57" y="111"/><ellipse cx="975.57" cy="126" fill="#B4A7E5" rx="10" ry="10" style="stroke:#181818;stroke-width:1.0;"/><path d="M972.5778,123.2754 L972.5778,121.752 L977.7868,121.752 L977.7868,123.2754 L976.0466,123.2754 L976.0466,128.9766 L977.7868,128.9766 L977.7868,130.5 L972.5778,130.5 L972.5778,128.9766 L974.318,128.9766 L974.318,123.2754 Z " fill="#CAD3F5"/><text fill="#A6DA95" font-family="Helvetica" font-size="16" font-style="italic" lengthAdjust="spacing" textLength="77.375" x="988.57" y="130.3203">Applicative</text><rect fill="#24273A" height="14" style="stroke:#C6A0F6;stroke-width:1.0;stroke-dasharray:2.0,2.0;" width="9.3301" x="1073.945" y="108"/><text fill="#CAD3F5" font-family="Helvetica" font-size="12" font-style="italic" lengthAdjust="spacing" textLength="7.3301" x="1074.945" y="118.2402">F</text></g><!--class Monad--><g id="elem_Monad"><rect codeLine="10" fill="#24273A" height="30" id="Monad" rx="1.5" ry="1.5" style="stroke:#C6A0F6;stroke-width:2.0;" width="90.252" x="642.8" y="228"/><rect fill="#363A4F" height="30" rx="1.5" ry="1.5" style="stroke:#363A4F;stroke-width:2.0;" width="90.252" x="642.8" y="228"/><rect fill="#363A4F" height="1.5" style="stroke:#363A4F;stroke-width:2.0;" width="90.252" x="642.8" y="256.5"/><rect codeLine="10" fill="none" height="30" id="Monad" rx="1.5" ry="1.5" style="stroke:#C6A0F6;stroke-width:2.0;" width="90.252" x="642.8" y="228"/><ellipse cx="656.8" cy="243" fill="#B4A7E5" rx="10" ry="10" style="stroke:#181818;stroke-width:1.0;"/><path d="M653.8078,240.2754 L653.8078,238.752 L659.0168,238.752 L659.0168,240.2754 L657.2766,240.2754 L657.2766,245.9766 L659.0168,245.9766 L659.0168,247.5 L653.8078,247.5 L653.8078,245.9766 L655.548,245.9766 L655.548,240.2754 Z " fill="#CAD3F5"/><text fill="#A6DA95" font-family="Helvetica" font-size="16" font-style="italic" lengthAdjust="spacing" textLength="48.9219" x="669.8" y="247.3203">Monad</text><rect fill="#24273A" height="14" style="stroke:#C6A0F6;stroke-width:1.0;stroke-dasharray:2.0,2.0;" width="9.3301" x="726.7219" y="225"/><text fill="#CAD3F5" font-family="Helvetica" font-size="12" font-style="italic" lengthAdjust="spacing" textLength="7.3301" x="727.7219" y="235.2402">F</text></g><!--class Reader--><g id="elem_Reader"><rect codeLine="13" fill="#24273A" height="118" id="Reader" rx="1.5" ry="1.5" style="stroke:#C6A0F6;stroke-width:2.0;" width="310.4805" x="564.69" y="519"/><rect fill="#363A4F" height="38" rx="1.5" ry="1.5" style="stroke:#363A4F;stroke-width:2.0;" width="310.4805" x="564.69" y="519"/><rect fill="#363A4F" height="1.5" style="stroke:#363A4F;stroke-width:2.0;" width="310.4805" x="564.69" y="555.5"/><rect codeLine="13" fill="none" height="118" id="Reader" rx="1.5" ry="1.5" style="stroke:#C6A0F6;stroke-width:2.0;" width="310.4805" x="564.69" y="519"/><ellipse cx="644.8912" cy="538" fill="#B4A7E5" rx="10" ry="10" style="stroke:#181818;stroke-width:1.0;"/><path d="M641.899,535.2754 L641.899,533.752 L647.108,533.752 L647.108,535.2754 L645.3677,535.2754 L645.3677,540.9766 L647.108,540.9766 L647.108,542.5 L641.899,542.5 L641.899,540.9766 L643.6392,540.9766 L643.6392,535.2754 Z " fill="#CAD3F5"/><text fill="#CAD3F5" font-family="Helvetica" font-size="12" font-style="italic" lengthAdjust="spacing" textLength="118.7402" x="661.8912" y="533.2402">&#171;Functional Interface&#187;</text><text fill="#A6DA95" font-family="Helvetica" font-size="16" font-style="italic" lengthAdjust="spacing" textLength="52.4766" x="695.023" y="548.3203">Reader</text><rect fill="#24273A" height="14" style="stroke:#C6A0F6;stroke-width:1.0;stroke-dasharray:2.0,2.0;" width="25.3379" x="852.8326" y="516"/><text fill="#CAD3F5" font-family="Helvetica" font-size="12" font-style="italic" lengthAdjust="spacing" textLength="23.3379" x="853.8326" y="526.2402">R, A</text><line style="stroke:#C6A0F6;stroke-width:2.0;" x1="565.69" x2="874.1705" y1="557" y2="557"/><ellipse cx="575.69" cy="568.5" fill="#84BE84" rx="3" ry="3" style="stroke:#038048;stroke-width:1.0;"/><text fill="#A6DA95" font-family="Helvetica" font-size="12" lengthAdjust="spacing" textLength="52.6699" x="583.69" y="570.2402">A run(R r)</text><ellipse cx="575.69" cy="580.5" fill="#84BE84" rx="3" ry="3" style="stroke:#038048;stroke-width:1.0;"/><text fill="#A6DA95" font-family="Helvetica" font-size="12" lengthAdjust="spacing" text-decoration="underline" textLength="207.4395" x="583.69" y="582.2402">Reader&lt;R, A&gt; of(Function&lt;R, A&gt; func)</text><ellipse cx="575.69" cy="592.5" fill="#84BE84" rx="3" ry="3" style="stroke:#038048;stroke-width:1.0;"/><text fill="#A6DA95" font-family="Helvetica" font-size="12" lengthAdjust="spacing" text-decoration="underline" textLength="173.4258" x="583.69" y="594.2402">Reader&lt;R, A&gt; constant(A value)</text><ellipse cx="575.69" cy="604.5" fill="#84BE84" rx="3" ry="3" style="stroke:#038048;stroke-width:1.0;"/><text fill="#A6DA95" font-family="Helvetica" font-size="12" lengthAdjust="spacing" text-decoration="underline" textLength="107.373" x="583.69" y="606.2402">Reader&lt;R, R&gt; ask()</text><ellipse cx="575.69" cy="616.5" fill="#84BE84" rx="3" ry="3" style="stroke:#038048;stroke-width:1.0;"/><text fill="#A6DA95" font-family="Helvetica" font-size="12" lengthAdjust="spacing" textLength="200.7656" x="583.69" y="618.2402">Reader&lt;R, B&gt; map(Function&lt;A, B&gt; f)</text><ellipse cx="575.69" cy="628.5" fill="#84BE84" rx="3" ry="3" style="stroke:#038048;stroke-width:1.0;"/><text fill="#A6DA95" font-family="Helvetica" font-size="12" lengthAdjust="spacing" textLength="285.4805" x="583.69" y="630.2402">Reader&lt;R, B&gt; flatMap(Function&lt;A, Reader&lt;R, B&gt;&gt; f)</text></g><!--class ReaderKindHelper--><g id="elem_ReaderKindHelper"><rect codeLine="24" fill="#24273A" height="110" id="ReaderKindHelper" rx="1.5" ry="1.5" style="stroke:#C6A0F6;stroke-width:2.0;" width="395.8516" x="7" y="335"/><rect fill="#363A4F" height="30" rx="1.5" ry="1.5" style="stroke:#363A4F;stroke-width:2.0;" width="395.8516" x="7" y="335"/><rect fill="#363A4F" height="1.5" style="stroke:#363A4F;stroke-width:2.0;" width="395.8516" x="7" y="363.5"/><rect codeLine="24" fill="none" height="110" id="ReaderKindHelper" rx="1.5" ry="1.5" style="stroke:#C6A0F6;stroke-width:2.0;" width="395.8516" x="7" y="335"/><ellipse cx="135.1094" cy="350" fill="#ADD1B2" rx="10" ry="10" style="stroke:#181818;stroke-width:1.0;"/><path d="M136.9434,354.248 Q136.5332,354.459 136.082,354.5645 Q135.6309,354.6699 135.1328,354.6699 Q133.3633,354.6699 132.4316,353.5039 Q131.5,352.3379 131.5,350.1348 Q131.5,347.9258 132.4316,346.7598 Q133.3633,345.5938 135.1328,345.5938 Q135.6309,345.5938 136.0879,345.6992 Q136.5449,345.8047 136.9434,346.0156 L136.9434,347.9375 Q136.498,347.5273 136.0791,347.3369 Q135.6602,347.1465 135.2148,347.1465 Q134.2656,347.1465 133.7822,347.8994 Q133.2988,348.6523 133.2988,350.1348 Q133.2988,351.6113 133.7822,352.3643 Q134.2656,353.1172 135.2148,353.1172 Q135.6602,353.1172 136.0791,352.9268 Q136.498,352.7363 136.9434,352.3262 Z " fill="#CAD3F5"/><text fill="#A6DA95" font-family="Helvetica" font-size="16" lengthAdjust="spacing" textLength="131.6328" x="154.1094" y="354.3203">ReaderKindHelper</text><line style="stroke:#C6A0F6;stroke-width:2.0;" x1="8" x2="401.8516" y1="365" y2="365"/><ellipse cx="18" cy="376.5" fill="#84BE84" rx="3" ry="3" style="stroke:#038048;stroke-width:1.0;"/><text fill="#A6DA95" font-family="Helvetica" font-size="12" lengthAdjust="spacing" text-decoration="underline" textLength="337.5117" x="26" y="378.2402">Reader&lt;R, A&gt; unwrap(Kind&lt;ReaderKind.Witness&lt;R&gt;, A&gt; kind)</text><ellipse cx="18" cy="388.5" fill="#84BE84" rx="3" ry="3" style="stroke:#038048;stroke-width:1.0;"/><text fill="#A6DA95" font-family="Helvetica" font-size="12" lengthAdjust="spacing" text-decoration="underline" textLength="252.7969" x="26" y="390.2402">ReaderKind&lt;R, A&gt; wrap(Reader&lt;R, A&gt; reader)</text><ellipse cx="18" cy="400.5" fill="#84BE84" rx="3" ry="3" style="stroke:#038048;stroke-width:1.0;"/><text fill="#A6DA95" font-family="Helvetica" font-size="12" lengthAdjust="spacing" text-decoration="underline" textLength="296.8242" x="26" y="402.2402">ReaderKind&lt;R, A&gt; reader(Function&lt;R, A&gt; runFunction)</text><ellipse cx="18" cy="412.5" fill="#84BE84" rx="3" ry="3" style="stroke:#038048;stroke-width:1.0;"/><text fill="#A6DA95" font-family="Helvetica" font-size="12" lengthAdjust="spacing" text-decoration="underline" textLength="197.4434" x="26" y="414.2402">ReaderKind&lt;R, A&gt; constant(A value)</text><ellipse cx="18" cy="424.5" fill="#84BE84" rx="3" ry="3" style="stroke:#038048;stroke-width:1.0;"/><text fill="#A6DA95" font-family="Helvetica" font-size="12" lengthAdjust="spacing" text-decoration="underline" textLength="131.3906" x="26" y="426.2402">ReaderKind&lt;R, R&gt; ask()</text><ellipse cx="18" cy="436.5" fill="#84BE84" rx="3" ry="3" style="stroke:#038048;stroke-width:1.0;"/><text fill="#A6DA95" font-family="Helvetica" font-size="12" lengthAdjust="spacing" text-decoration="underline" textLength="370.8516" x="26" y="438.2402">A runReader(Kind&lt;ReaderKind.Witness&lt;R&gt;, A&gt; kind, R environment)</text></g><!--class ReaderFunctor--><g id="elem_ReaderFunctor"><rect codeLine="33" fill="#24273A" height="50" id="ReaderFunctor" rx="1.5" ry="1.5" style="stroke:#C6A0F6;stroke-width:2.0;" width="538.6035" x="1115.62" y="101"/><rect fill="#363A4F" height="30" rx="1.5" ry="1.5" style="stroke:#363A4F;stroke-width:2.0;" width="538.6035" x="1115.62" y="101"/><rect fill="#363A4F" height="1.5" style="stroke:#363A4F;stroke-width:2.0;" width="538.6035" x="1115.62" y="129.5"/><rect codeLine="33" fill="none" height="50" id="ReaderFunctor" rx="1.5" ry="1.5" style="stroke:#C6A0F6;stroke-width:2.0;" width="538.6035" x="1115.62" y="101"/><ellipse cx="1321.2294" cy="116" fill="#ADD1B2" rx="10" ry="10" style="stroke:#181818;stroke-width:1.0;"/><path d="M1323.0634,120.248 Q1322.6532,120.459 1322.202,120.5645 Q1321.7509,120.6699 1321.2528,120.6699 Q1319.4833,120.6699 1318.5516,119.5039 Q1317.62,118.3379 1317.62,116.1348 Q1317.62,113.9258 1318.5516,112.7598 Q1319.4833,111.5938 1321.2528,111.5938 Q1321.7509,111.5938 1322.2079,111.6992 Q1322.6649,111.8047 1323.0634,112.0156 L1323.0634,113.9375 Q1322.618,113.5273 1322.1991,113.3369 Q1321.7802,113.1465 1321.3348,113.1465 Q1320.3856,113.1465 1319.9022,113.8994 Q1319.4188,114.6523 1319.4188,116.1348 Q1319.4188,117.6113 1319.9022,118.3643 Q1320.3856,119.1172 1321.3348,119.1172 Q1321.7802,119.1172 1322.1991,118.9268 Q1322.618,118.7363 1323.0634,118.3262 Z " fill="#CAD3F5"/><text fill="#A6DA95" font-family="Helvetica" font-size="16" lengthAdjust="spacing" textLength="106.7188" x="1340.2294" y="120.3203">ReaderFunctor</text><rect fill="#24273A" height="14" style="stroke:#C6A0F6;stroke-width:1.0;stroke-dasharray:2.0,2.0;" width="10.666" x="1646.5575" y="98"/><text fill="#CAD3F5" font-family="Helvetica" font-size="12" font-style="italic" lengthAdjust="spacing" textLength="8.666" x="1647.5575" y="108.2402">R</text><line style="stroke:#C6A0F6;stroke-width:2.0;" x1="1116.62" x2="1653.2235" y1="131" y2="131"/><ellipse cx="1126.62" cy="142.5" fill="#84BE84" rx="3" ry="3" style="stroke:#038048;stroke-width:1.0;"/><text fill="#A6DA95" font-family="Helvetica" font-size="12" lengthAdjust="spacing" textLength="513.6035" x="1134.62" y="144.2402">Kind&lt;ReaderKind.Witness&lt;R&gt;, B&gt; map(Function&lt;A, B&gt; f, Kind&lt;ReaderKind.Witness&lt;R&gt;, A&gt; fa)</text></g><!--class ReaderApplicative--><g id="elem_ReaderApplicative"><rect codeLine="36" fill="#24273A" height="62" id="ReaderApplicative" rx="1.5" ry="1.5" style="stroke:#C6A0F6;stroke-width:2.0;" width="708.707" x="767.57" y="212"/><rect fill="#363A4F" height="30" rx="1.5" ry="1.5" style="stroke:#363A4F;stroke-width:2.0;" width="708.707" x="767.57" y="212"/><rect fill="#363A4F" height="1.5" style="stroke:#363A4F;stroke-width:2.0;" width="708.707" x="767.57" y="240.5"/><rect codeLine="36" fill="none" height="62" id="ReaderApplicative" rx="1.5" ry="1.5" style="stroke:#C6A0F6;stroke-width:2.0;" width="708.707" x="767.57" y="212"/><ellipse cx="1046.6647" cy="227" fill="#ADD1B2" rx="10" ry="10" style="stroke:#181818;stroke-width:1.0;"/><path d="M1048.4987,231.248 Q1048.0886,231.459 1047.6374,231.5645 Q1047.1862,231.6699 1046.6882,231.6699 Q1044.9186,231.6699 1043.987,230.5039 Q1043.0554,229.3379 1043.0554,227.1348 Q1043.0554,224.9258 1043.987,223.7598 Q1044.9186,222.5938 1046.6882,222.5938 Q1047.1862,222.5938 1047.6432,222.6992 Q1048.1003,222.8047 1048.4987,223.0156 L1048.4987,224.9375 Q1048.0534,224.5273 1047.6345,224.3369 Q1047.2155,224.1465 1046.7702,224.1465 Q1045.821,224.1465 1045.3376,224.8994 Q1044.8542,225.6523 1044.8542,227.1348 Q1044.8542,228.6113 1045.3376,229.3643 Q1045.821,230.1172 1046.7702,230.1172 Q1047.2155,230.1172 1047.6345,229.9268 Q1048.0534,229.7363 1048.4987,229.3262 Z " fill="#CAD3F5"/><text fill="#A6DA95" font-family="Helvetica" font-size="16" lengthAdjust="spacing" textLength="129.8516" x="1065.6647" y="231.3203">ReaderApplicative</text><rect fill="#24273A" height="14" style="stroke:#C6A0F6;stroke-width:1.0;stroke-dasharray:2.0,2.0;" width="10.666" x="1468.611" y="209"/><text fill="#CAD3F5" font-family="Helvetica" font-size="12" font-style="italic" lengthAdjust="spacing" textLength="8.666" x="1469.611" y="219.2402">R</text><line style="stroke:#C6A0F6;stroke-width:2.0;" x1="768.57" x2="1475.277" y1="242" y2="242"/><ellipse cx="778.57" cy="253.5" fill="#84BE84" rx="3" ry="3" style="stroke:#038048;stroke-width:1.0;"/><text fill="#A6DA95" font-family="Helvetica" font-size="12" lengthAdjust="spacing" textLength="246.1289" x="786.57" y="255.2402">Kind&lt;ReaderKind.Witness&lt;R&gt;, A&gt; of(A value)</text><ellipse cx="778.57" cy="265.5" fill="#84BE84" rx="3" ry="3" style="stroke:#038048;stroke-width:1.0;"/><text fill="#A6DA95" font-family="Helvetica" font-size="12" lengthAdjust="spacing" textLength="683.707" x="786.57" y="267.2402">Kind&lt;ReaderKind.Witness&lt;R&gt;, B&gt; ap(Kind&lt;ReaderKind.Witness&lt;R&gt;, Function&lt;A, B&gt;&gt; ff, Kind&lt;ReaderKind.Witness&lt;R&gt;, A&gt; fa)</text></g><!--class ReaderMonad--><g id="elem_ReaderMonad"><rect codeLine="40" fill="#24273A" height="50" id="ReaderMonad" rx="1.5" ry="1.5" style="stroke:#C6A0F6;stroke-width:2.0;" width="738.0391" x="437.91" y="365"/><rect fill="#363A4F" height="30" rx="1.5" ry="1.5" style="stroke:#363A4F;stroke-width:2.0;" width="738.0391" x="437.91" y="365"/><rect fill="#363A4F" height="1.5" style="stroke:#363A4F;stroke-width:2.0;" width="738.0391" x="437.91" y="393.5"/><rect codeLine="40" fill="none" height="50" id="ReaderMonad" rx="1.5" ry="1.5" style="stroke:#C6A0F6;stroke-width:2.0;" width="738.0391" x="437.91" y="365"/><ellipse cx="745.8973" cy="380" fill="#ADD1B2" rx="10" ry="10" style="stroke:#181818;stroke-width:1.0;"/><path d="M747.7313,384.248 Q747.3211,384.459 746.87,384.5645 Q746.4188,384.6699 745.9207,384.6699 Q744.1512,384.6699 743.2196,383.5039 Q742.2879,382.3379 742.2879,380.1348 Q742.2879,377.9258 743.2196,376.7598 Q744.1512,375.5938 745.9207,375.5938 Q746.4188,375.5938 746.8758,375.6992 Q747.3329,375.8047 747.7313,376.0156 L747.7313,377.9375 Q747.286,377.5273 746.867,377.3369 Q746.4481,377.1465 746.0028,377.1465 Q745.0536,377.1465 744.5702,377.8994 Q744.0868,378.6523 744.0868,380.1348 Q744.0868,381.6113 744.5702,382.3643 Q745.0536,383.1172 746.0028,383.1172 Q746.4481,383.1172 746.867,382.9268 Q747.286,382.7363 747.7313,382.3262 Z " fill="#CAD3F5"/><text fill="#A6DA95" font-family="Helvetica" font-size="16" lengthAdjust="spacing" textLength="101.3984" x="764.8973" y="384.3203">ReaderMonad</text><rect fill="#24273A" height="14" style="stroke:#C6A0F6;stroke-width:1.0;stroke-dasharray:2.0,2.0;" width="10.666" x="1168.283" y="362"/><text fill="#CAD3F5" font-family="Helvetica" font-size="12" font-style="italic" lengthAdjust="spacing" textLength="8.666" x="1169.283" y="372.2402">R</text><line style="stroke:#C6A0F6;stroke-width:2.0;" x1="438.91" x2="1174.9491" y1="395" y2="395"/><ellipse cx="448.91" cy="406.5" fill="#84BE84" rx="3" ry="3" style="stroke:#038048;stroke-width:1.0;"/><text fill="#A6DA95" font-family="Helvetica" font-size="12" lengthAdjust="spacing" textLength="713.0391" x="456.91" y="408.2402">Kind&lt;ReaderKind.Witness&lt;R&gt;, B&gt; flatMap(Function&lt;A, Kind&lt;ReaderKind.Witness&lt;R&gt;, B&gt;&gt; f, Kind&lt;ReaderKind.Witness&lt;R&gt;, A&gt; ma)</text></g><!--class ReaderKind<R,A>--><g id="elem_ReaderKind&lt;R,A&gt;"><rect fill="#24273A" height="30" id="ReaderKind&lt;R,A&gt;" rx="1.5" ry="1.5" style="stroke:#C6A0F6;stroke-width:2.0;" width="159.8594" x="291" y="563"/><rect fill="#363A4F" height="30" rx="1.5" ry="1.5" style="stroke:#363A4F;stroke-width:2.0;" width="159.8594" x="291" y="563"/><rect fill="#363A4F" height="1.5" style="stroke:#363A4F;stroke-width:2.0;" width="159.8594" x="291" y="591.5"/><rect fill="none" height="30" id="ReaderKind&lt;R,A&gt;" rx="1.5" ry="1.5" style="stroke:#C6A0F6;stroke-width:2.0;" width="159.8594" x="291" y="563"/><ellipse cx="305" cy="578" fill="#ADD1B2" rx="10" ry="10" style="stroke:#181818;stroke-width:1.0;"/><path d="M306.834,582.248 Q306.4238,582.459 305.9727,582.5645 Q305.5215,582.6699 305.0234,582.6699 Q303.2539,582.6699 302.3223,581.5039 Q301.3906,580.3379 301.3906,578.1348 Q301.3906,575.9258 302.3223,574.7598 Q303.2539,573.5938 305.0234,573.5938 Q305.5215,573.5938 305.9785,573.6992 Q306.4355,573.8047 306.834,574.0156 L306.834,575.9375 Q306.3887,575.5273 305.9697,575.3369 Q305.5508,575.1465 305.1055,575.1465 Q304.1563,575.1465 303.6729,575.8994 Q303.1895,576.6523 303.1895,578.1348 Q303.1895,579.6113 303.6729,580.3643 Q304.1563,581.1172 305.1055,581.1172 Q305.5508,581.1172 305.9697,580.9268 Q306.3887,580.7363 306.834,580.3262 Z " fill="#CAD3F5"/><text fill="#A6DA95" font-family="Helvetica" font-size="16" lengthAdjust="spacing" textLength="129.8594" x="318" y="582.3203">ReaderKind&lt;R,A&gt;</text></g><!--reverse link Functor to ReaderFunctor--><g id="link_Functor_ReaderFunctor"><path d="M1384.93,58.18 C1384.93,73.9 1384.93,81.54 1384.93,100.51 " fill="none" id="Functor-backto-ReaderFunctor" style="stroke:#F5BDE6;stroke-width:1.0;stroke-dasharray:7.0,7.0;"/><polygon fill="none" points="1384.93,40.18,1378.93,58.18,1390.93,58.18,1384.93,40.18" style="stroke:#F5BDE6;stroke-width:1.0;"/></g><!--reverse link ReaderFunctor to ReaderApplicative--><g id="link_ReaderFunctor_ReaderApplicative"><path d="M1312.6571,158.6 C1272.3971,176.2 1234.27,192.88 1191.21,211.71 " fill="none" id="ReaderFunctor-backto-ReaderApplicative" style="stroke:#F5BDE6;stroke-width:1.0;"/><polygon fill="none" points="1329.15,151.39,1310.2538,153.1024,1315.0604,164.0976,1329.15,151.39" style="stroke:#F5BDE6;stroke-width:1.0;"/></g><!--reverse link Applicative to ReaderApplicative--><g id="link_Applicative_ReaderApplicative"><path d="M1045.1888,154.6239 C1060.5688,172.1339 1075.35,188.97 1095.42,211.82 " fill="none" id="Applicative-backto-ReaderApplicative" style="stroke:#F5BDE6;stroke-width:1.0;stroke-dasharray:7.0,7.0;"/><polygon fill="none" points="1033.31,141.1,1040.6808,158.5835,1049.6967,150.6643,1033.31,141.1" style="stroke:#F5BDE6;stroke-width:1.0;"/></g><!--reverse link ReaderApplicative to ReaderMonad--><g id="link_ReaderApplicative_ReaderMonad"><path d="M1039.539,281.9263 C981.359,308.7063 914.05,339.69 860.08,364.53 " fill="none" id="ReaderApplicative-backto-ReaderMonad" style="stroke:#F5BDE6;stroke-width:1.0;"/><polygon fill="none" points="1055.89,274.4,1037.0302,276.476,1042.0478,287.3766,1055.89,274.4" style="stroke:#F5BDE6;stroke-width:1.0;"/></g><!--reverse link Monad to ReaderMonad--><g id="link_Monad_ReaderMonad"><path d="M711.1875,272.3455 C731.5275,297.1355 761.9,334.13 786.85,364.54 " fill="none" id="Monad-backto-ReaderMonad" style="stroke:#F5BDE6;stroke-width:1.0;stroke-dasharray:7.0,7.0;"/><polygon fill="none" points="699.77,258.43,706.549,276.1513,715.826,268.5396,699.77,258.43" style="stroke:#F5BDE6;stroke-width:1.0;"/></g><!--link ReaderKind<R,A> to Kind--><g id="link_ReaderKind&lt;R,A&gt;_Kind"><path codeLine="46" d="M370.93,593.26 C370.93,621.25 370.93,677.04 370.93,704.89 " fill="none" id="ReaderKind&lt;R,A&gt;-to-Kind" style="stroke:#F5BDE6;stroke-width:1.0;"/><polygon fill="#F5BDE6" points="370.93,710.89,374.93,701.89,370.93,705.89,366.93,701.89,370.93,710.89" style="stroke:#F5BDE6;stroke-width:1.0;"/><text fill="#CAD3F5" font-family="Helvetica" font-size="12" lengthAdjust="spacing" textLength="206.1152" x="371.93" y="677.2402">extends &lt;ReaderKind.Witness&lt;R&gt;, A&gt;</text></g><!--link ReaderKindHelper to Reader--><g id="link_ReaderKindHelper_Reader"><path codeLine="48" d="M337.12,445.43 C373.8,460.05 413.75,475.53 450.93,489 C487.42,502.22 521.31,513.7965 558.61,526.0565 " fill="none" id="ReaderKindHelper-to-Reader" style="stroke:#F5BDE6;stroke-width:1.0;stroke-dasharray:7.0,7.0;"/><polygon fill="#F5BDE6" points="564.31,527.93,557.009,521.3197,559.56,526.3687,554.511,528.9197,564.31,527.93" style="stroke:#F5BDE6;stroke-width:1.0;"/><text fill="#CAD3F5" font-family="Helvetica" font-size="12" lengthAdjust="spacing" textLength="88.043" x="451.93" y="485.2402">creates/unwraps</text></g><!--link ReaderKindHelper to ReaderKind<R,A>--><g id="link_ReaderKindHelper_ReaderKind&lt;R,A&gt;"><path codeLine="49" d="M253.39,445.3 C289.37,485.62 331.8947,533.2637 354.0747,558.1137 " fill="none" id="ReaderKindHelper-to-ReaderKind&lt;R,A&gt;" style="stroke:#F5BDE6;stroke-width:1.0;stroke-dasharray:7.0,7.0;"/><polygon fill="#F5BDE6" points="358.07,562.59,355.0612,553.212,354.7405,558.8598,349.0928,558.5391,358.07,562.59" style="stroke:#F5BDE6;stroke-width:1.0;"/><text fill="#CAD3F5" font-family="Helvetica" font-size="12" lengthAdjust="spacing" textLength="88.043" x="288.93" y="485.2402">creates/unwraps</text></g><!--link ReaderMonad to ReaderKind<R,A>--><g id="link_ReaderMonad_ReaderKind&lt;R,A&gt;"><path codeLine="51" d="M734.22,415.45 C688.81,431.26 629.41,452.95 577.93,475 C512.01,503.24 442.3744,539.0459 403.2544,559.7259 " fill="none" id="ReaderMonad-to-ReaderKind&lt;R,A&gt;" style="stroke:#F5BDE6;stroke-width:1.0;stroke-dasharray:7.0,7.0;"/><polygon fill="#F5BDE6" points="397.95,562.53,407.7761,561.8602,402.3704,560.1933,404.0373,554.7876,397.95,562.53" style="stroke:#F5BDE6;stroke-width:1.0;"/><text fill="#CAD3F5" font-family="Helvetica" font-size="12" lengthAdjust="spacing" textLength="176.7949" x="578.93" y="485.2402">operates on &lt;ReaderKind&lt;R,?&gt;&gt;</text></g><!--link ReaderMonad to Reader--><g id="link_ReaderMonad_Reader"><path codeLine="52" d="M795.55,415.32 C783.35,441.41 766.0632,478.3757 749.7632,513.2057 " fill="none" id="ReaderMonad-to-Reader" style="stroke:#F5BDE6;stroke-width:1.0;stroke-dasharray:7.0,7.0;"/><polygon fill="#F5BDE6" points="747.22,518.64,754.6577,512.184,749.3393,514.1114,747.4119,508.793,747.22,518.64" style="stroke:#F5BDE6;stroke-width:1.0;"/><text fill="#CAD3F5" font-family="Helvetica" font-size="12" lengthAdjust="spacing" textLength="88.0488" x="767.03" y="485.2402">uses methods of</text></g><!--SRC=[fLLDRzim3BthLt2zBCLg-ruO6jn3q67e9PUTLKMUXLeVaEHqGz7_Fbfs4ZcnawAxMTJZ8_b8ob-avcst5T24OFrzKJZscl-MeUcUEoySDpe87N9kLA6vyO5baXUS1MixpgNE5EEyaIoOpBPCXqwrMMY44eLYKXVnCxTe9OGq4iC8PSDVK48z2-S9aKZlQiO5_9HwMwxleAA9STrf7emhrwcnihQLc8BSYUd5az5isvjIterWM-7AJSyCPHaP9G9R-B77K0fl102-GGMkqwiDkDlX_8O51ydVfoocNkrfHakDnuikg2FQTLXLi6Dj9vR16mhClwn6mD7-G44nUmnSHLCzXwjR5fvEi2aWkhsZIeItpFlnhc_0esYjS56DfKew_UgGExRhw9Z_aa4BxyiDZQWNjDtEiGn-4HDv9jmk7gxv3QZJ5c3ZzfPh17FDMCGd_KWmSL06u4UaG1eGUYUTqGhNAQgVQh-VSmmcbMr53_A7wP_bFipifV0BGtC7LtAkMPzYcc6wT9Yb-8FFmlPo-XENJvSmxDjqRQwKV6KyfsfWiP_HOtXhpfGuaIbHOtJudrRExVLbbu_qMh7XCVYA9M00vFMDj9xSJFQWeZUGPJIImVsXwcLUGiwUbJodeqp8m76DW_35y9xuUVHv3kUE96d8efD1njuBZ4vpnlllb9un79B4Nw37drLe3DPgQl8F]--></g></svg>