<svg xmlns="http://www.w3.org/2000/svg" xmlns:xlink="http://www.w3.org/1999/xlink" contentStyleType="text/css" height="764px" preserveAspectRatio="none" style="width:751px;height:764px;background:#24273A;" version="1.1" viewBox="0 0 751 764" width="751px" zoomAndPan="magnify"><title>ReaderT Class Diagram</title><defs/><g><rect fill="#24273A" height="764" style="stroke:none;stroke-width:1.0;" width="751" x="0" y="0"/><text fill="#CAD3F5" font-family="Helvetica" font-size="22" font-weight="bold" lengthAdjust="spacing" textLength="246.9951" x="247.6275" y="31.9404">ReaderT Class Diagram</text><!--class Kind--><g id="elem_Kind"><rect codeLine="8" fill="#24273A" height="28" id="Kind" rx="1.5" ry="1.5" style="stroke:#C6A0F6;stroke-width:2.0;" width="150.7422" x="178.05" y="58"/><rect fill="#363A4F" height="28" rx="1.5" ry="1.5" style="stroke:#363A4F;stroke-width:2.0;" width="150.7422" x="178.05" y="58"/><rect fill="#363A4F" height="1.5" style="stroke:#363A4F;stroke-width:2.0;" width="150.7422" x="178.05" y="84.5"/><rect codeLine="8" fill="none" height="28" id="Kind" rx="1.5" ry="1.5" style="stroke:#C6A0F6;stroke-width:2.0;" width="150.7422" x="178.05" y="58"/><ellipse cx="191.05" cy="72" fill="#FFFFFF" rx="9" ry="9" style="stroke:#000000;stroke-width:1.0;"/><path d="M188.0578,69.2754 L188.0578,67.752 L193.2668,67.752 L193.2668,69.2754 L191.5266,69.2754 L191.5266,74.9766 L193.2668,74.9766 L193.2668,76.5 L188.0578,76.5 L188.0578,74.9766 L189.798,74.9766 L189.798,69.2754 Z " fill="#CAD3F5"/><text fill="#A6DA95" font-family="Helvetica" font-size="16" font-style="italic" lengthAdjust="spacing" textLength="32.0234" x="203.05" y="76.3203">Kind</text><rect fill="#24273A" height="16.584" style="stroke:#C6A0F6;stroke-width:1.0;stroke-dasharray:2.0,2.0;" width="88.7188" x="243.0734" y="55"/><text fill="#000000" font-family="Verdana" font-size="12" font-style="italic" lengthAdjust="spacing" textLength="86.7188" x="244.0734" y="68.0645">F_HKT, A_VAL</text></g><!--class Monad--><g id="elem_Monad"><rect codeLine="9" fill="#24273A" height="28" id="Monad" rx="1.5" ry="1.5" style="stroke:#C6A0F6;stroke-width:2.0;" width="120.1738" x="506.34" y="453.58"/><rect fill="#363A4F" height="28" rx="1.5" ry="1.5" style="stroke:#363A4F;stroke-width:2.0;" width="120.1738" x="506.34" y="453.58"/><rect fill="#363A4F" height="1.5" style="stroke:#363A4F;stroke-width:2.0;" width="120.1738" x="506.34" y="480.08"/><rect codeLine="9" fill="none" height="28" id="Monad" rx="1.5" ry="1.5" style="stroke:#C6A0F6;stroke-width:2.0;" width="120.1738" x="506.34" y="453.58"/><ellipse cx="519.34" cy="467.58" fill="#FFFFFF" rx="9" ry="9" style="stroke:#000000;stroke-width:1.0;"/><path d="M516.3478,464.8554 L516.3478,463.332 L521.5568,463.332 L521.5568,464.8554 L519.8166,464.8554 L519.8166,470.5566 L521.5568,470.5566 L521.5568,472.08 L516.3478,472.08 L516.3478,470.5566 L518.088,470.5566 L518.088,464.8554 Z " fill="#CAD3F5"/><text fill="#A6DA95" font-family="Helvetica" font-size="16" font-style="italic" lengthAdjust="spacing" textLength="48.9219" x="531.34" y="471.9003">Monad</text><rect fill="#24273A" height="16.584" style="stroke:#C6A0F6;stroke-width:1.0;stroke-dasharray:2.0,2.0;" width="41.252" x="588.2619" y="450.58"/><text fill="#000000" font-family="Verdana" font-size="12" font-style="italic" lengthAdjust="spacing" textLength="39.252" x="589.2619" y="463.6445">F_HKT</text></g><!--class ReaderT--><g id="elem_ReaderT"><rect codeLine="13" fill="#24273A" height="124.584" id="ReaderT" rx="1.5" ry="1.5" style="stroke:#C6A0F6;stroke-width:2.0;" width="402.1641" x="162.34" y="268"/><rect fill="#363A4F" height="40.584" rx="1.5" ry="1.5" style="stroke:#363A4F;stroke-width:2.0;" width="402.1641" x="162.34" y="268"/><rect fill="#363A4F" height="1.5" style="stroke:#363A4F;stroke-width:2.0;" width="402.1641" x="162.34" y="307.084"/><rect codeLine="13" fill="none" height="124.584" id="ReaderT" rx="1.5" ry="1.5" style="stroke:#C6A0F6;stroke-width:2.0;" width="402.1641" x="162.34" y="268"/><ellipse cx="306.2472" cy="288.292" fill="#FFFFFF" rx="9" ry="9" style="stroke:#000000;stroke-width:1.0;"/><path d="M308.0812,292.54 Q307.6711,292.751 307.2199,292.8564 Q306.7687,292.9619 306.2707,292.9619 Q304.5011,292.9619 303.5695,291.7959 Q302.6379,290.6299 302.6379,288.4268 Q302.6379,286.2178 303.5695,285.0518 Q304.5011,283.8857 306.2707,283.8857 Q306.7687,283.8857 307.2257,283.9912 Q307.6828,284.0967 308.0812,284.3076 L308.0812,286.2295 Q307.6359,285.8193 307.217,285.6289 Q306.798,285.4385 306.3527,285.4385 Q305.4035,285.4385 304.9201,286.1914 Q304.4367,286.9443 304.4367,288.4268 Q304.4367,289.9033 304.9201,290.6563 Q305.4035,291.4092 306.3527,291.4092 Q306.798,291.4092 307.217,291.2188 Q307.6359,291.0283 308.0812,290.6182 Z " fill="#CAD3F5"/><text fill="#000000" font-family="Verdana" font-size="12" font-style="italic" lengthAdjust="spacing" textLength="53.8711" x="327.9367" y="285.0645">&#171;record&#187;</text><text fill="#A6DA95" font-family="Helvetica" font-size="16" lengthAdjust="spacing" textLength="62.25" x="323.7472" y="299.9043">ReaderT</text><rect fill="#24273A" height="16.584" style="stroke:#C6A0F6;stroke-width:1.0;stroke-dasharray:2.0,2.0;" width="42.5996" x="524.9045" y="265"/><text fill="#000000" font-family="Verdana" font-size="12" font-style="italic" lengthAdjust="spacing" textLength="40.5996" x="525.9045" y="278.0645">F, R, A</text><line style="stroke:#C6A0F6;stroke-width:2.0;" x1="163.34" x2="563.5041" y1="308.584" y2="308.584"/><ellipse cx="173.34" cy="320.084" fill="none" rx="3" ry="3" style="stroke:#000000;stroke-width:1.0;"/><text fill="#A6DA95" font-family="Helvetica" font-size="12" lengthAdjust="spacing" textLength="214.2891" x="180.34" y="321.8242">@NonNull Function&lt;R, Kind&lt;F, A&gt;&gt; run</text><ellipse cx="173.34" cy="348.084" fill="#FFFFFF" rx="3" ry="3" style="stroke:#000000;stroke-width:1.0;"/><text fill="#A6DA95" font-family="Helvetica" font-size="12" lengthAdjust="spacing" textLength="340.8105" x="180.34" y="349.8242">static &lt;F, R, A&gt; ReaderT&lt;F, R, A&gt; of(Function&lt;R, Kind&lt;F, A&gt;&gt;)</text><ellipse cx="173.34" cy="360.084" fill="#FFFFFF" rx="3" ry="3" style="stroke:#000000;stroke-width:1.0;"/><text fill="#A6DA95" font-family="Helvetica" font-size="12" lengthAdjust="spacing" textLength="332.1328" x="180.34" y="361.8242">static &lt;F, R, A&gt; ReaderT&lt;F, R, A&gt; lift(Monad&lt;F&gt;, Kind&lt;F, A&gt;)</text><ellipse cx="173.34" cy="372.084" fill="#FFFFFF" rx="3" ry="3" style="stroke:#000000;stroke-width:1.0;"/><text fill="#A6DA95" font-family="Helvetica" font-size="12" lengthAdjust="spacing" textLength="378.1641" x="180.34" y="373.8242">static &lt;F, R, A&gt; ReaderT&lt;F, R, A&gt; reader(Monad&lt;F&gt;, Function&lt;R, A&gt;)</text><ellipse cx="173.34" cy="384.084" fill="#FFFFFF" rx="3" ry="3" style="stroke:#000000;stroke-width:1.0;"/><text fill="#A6DA95" font-family="Helvetica" font-size="12" lengthAdjust="spacing" textLength="258.0938" x="180.34" y="385.8242">static &lt;F, R&gt; ReaderT&lt;F, R, R&gt; ask(Monad&lt;F&gt;)</text><line style="stroke:#C6A0F6;stroke-width:1.0;" x1="163.34" x2="338.7482" y1="334.584" y2="334.584"/><text fill="#A6DA95" font-family="Helvetica" font-size="12" lengthAdjust="spacing" textLength="49.3477" x="338.7482" y="337.3242">Factories</text><line style="stroke:#C6A0F6;stroke-width:1.0;" x1="388.0959" x2="563.5041" y1="334.584" y2="334.584"/></g><!--class ReaderTKind--><g id="elem_ReaderTKind"><rect codeLine="22" fill="#24273A" height="60" id="ReaderTKind" rx="1.5" ry="1.5" style="stroke:#C6A0F6;stroke-width:2.0;" width="224.7363" x="141.06" y="147"/><rect fill="#363A4F" height="28" rx="1.5" ry="1.5" style="stroke:#363A4F;stroke-width:2.0;" width="224.7363" x="141.06" y="147"/><rect fill="#363A4F" height="1.5" style="stroke:#363A4F;stroke-width:2.0;" width="224.7363" x="141.06" y="173.5"/><rect codeLine="22" fill="none" height="60" id="ReaderTKind" rx="1.5" ry="1.5" style="stroke:#C6A0F6;stroke-width:2.0;" width="224.7363" x="141.06" y="147"/><ellipse cx="180.2416" cy="161" fill="#FFFFFF" rx="9" ry="9" style="stroke:#000000;stroke-width:1.0;"/><path d="M177.2495,158.2754 L177.2495,156.752 L182.4584,156.752 L182.4584,158.2754 L180.7182,158.2754 L180.7182,163.9766 L182.4584,163.9766 L182.4584,165.5 L177.2495,165.5 L177.2495,163.9766 L178.9897,163.9766 L178.9897,158.2754 Z " fill="#CAD3F5"/><text fill="#A6DA95" font-family="Helvetica" font-size="16" font-style="italic" lengthAdjust="spacing" textLength="94.2734" x="197.7416" y="165.3203">ReaderTKind</text><rect fill="#24273A" height="16.584" style="stroke:#C6A0F6;stroke-width:1.0;stroke-dasharray:2.0,2.0;" width="42.5996" x="326.1967" y="144"/><text fill="#000000" font-family="Verdana" font-size="12" font-style="italic" lengthAdjust="spacing" textLength="40.5996" x="327.1967" y="157.0645">F, R, A</text><line style="stroke:#C6A0F6;stroke-width:2.0;" x1="142.06" x2="364.7963" y1="175" y2="175"/><text fill="#A6DA95" font-family="Helvetica" font-size="12" lengthAdjust="spacing" textLength="212.7363" x="147.06" y="188.2402">// Witness: ReaderTKind.Witness&lt;F, R&gt;</text><text fill="#A6DA95" font-family="Helvetica" font-size="12" lengthAdjust="spacing" textLength="55.3652" x="147.06" y="200.2402">// Value: A</text></g><!--class ReaderTMonad--><g id="elem_ReaderTMonad"><rect codeLine="27" fill="#24273A" height="68" id="ReaderTMonad" rx="1.5" ry="1.5" style="stroke:#C6A0F6;stroke-width:2.0;" width="347.6602" x="392.59" y="555.58"/><rect fill="#363A4F" height="28" rx="1.5" ry="1.5" style="stroke:#363A4F;stroke-width:2.0;" width="347.6602" x="392.59" y="555.58"/><rect fill="#363A4F" height="1.5" style="stroke:#363A4F;stroke-width:2.0;" width="347.6602" x="392.59" y="582.08"/><rect codeLine="27" fill="none" height="68" id="ReaderTMonad" rx="1.5" ry="1.5" style="stroke:#C6A0F6;stroke-width:2.0;" width="347.6602" x="392.59" y="555.58"/><ellipse cx="452.3879" cy="569.58" fill="#FFFFFF" rx="9" ry="9" style="stroke:#000000;stroke-width:1.0;"/><path d="M454.2218,573.828 Q453.8117,574.039 453.3605,574.1445 Q452.9093,574.2499 452.4113,574.2499 Q450.6418,574.2499 449.7101,573.0839 Q448.7785,571.9179 448.7785,569.7148 Q448.7785,567.5058 449.7101,566.3398 Q450.6418,565.1738 452.4113,565.1738 Q452.9093,565.1738 453.3664,565.2792 Q453.8234,565.3847 454.2218,565.5956 L454.2218,567.5175 Q453.7765,567.1073 453.3576,566.9169 Q452.9386,566.7265 452.4933,566.7265 Q451.5441,566.7265 451.0607,567.4794 Q450.5773,568.2323 450.5773,569.7148 Q450.5773,571.1913 451.0607,571.9443 Q451.5441,572.6972 452.4933,572.6972 Q452.9386,572.6972 453.3576,572.5068 Q453.7765,572.3163 454.2218,571.9062 Z " fill="#CAD3F5"/><text fill="#A6DA95" font-family="Helvetica" font-size="16" lengthAdjust="spacing" textLength="111.1719" x="469.8879" y="573.9003">ReaderTMonad</text><rect fill="#24273A" height="16.584" style="stroke:#C6A0F6;stroke-width:1.0;stroke-dasharray:2.0,2.0;" width="107.3926" x="635.8576" y="552.58"/><text fill="#000000" font-family="Verdana" font-size="12" font-style="italic" lengthAdjust="spacing" textLength="105.3926" x="636.8576" y="565.6445">F_OUTER, R_ENV</text><line style="stroke:#C6A0F6;stroke-width:2.0;" x1="393.59" x2="739.2502" y1="583.58" y2="583.58"/><rect fill="none" height="6" style="stroke:#000000;stroke-width:1.0;" width="6" x="400.59" y="592.08"/><text fill="#A6DA95" font-family="Helvetica" font-size="12" lengthAdjust="spacing" textLength="257.6367" x="410.59" y="596.8202">final @NonNull Monad&lt;F_OUTER&gt; outerMonad</text><line style="stroke:#C6A0F6;stroke-width:2.0;" x1="393.59" x2="739.2502" y1="603.58" y2="603.58"/><ellipse cx="403.59" cy="615.08" fill="#FFFFFF" rx="3" ry="3" style="stroke:#000000;stroke-width:1.0;"/><text fill="#A6DA95" font-family="Helvetica" font-size="12" lengthAdjust="spacing" textLength="323.6602" x="410.59" y="616.8202">ReaderTMonad(@NonNull Monad&lt;F_OUTER&gt; outerMonad)</text></g><!--class ReaderTKindHelper--><g id="elem_ReaderTKindHelper"><rect codeLine="33" fill="#24273A" height="60" id="ReaderTKindHelper" rx="1.5" ry="1.5" style="stroke:#C6A0F6;stroke-width:2.0;" width="464.8477" x="12" y="697.58"/><rect fill="#363A4F" height="28" rx="1.5" ry="1.5" style="stroke:#363A4F;stroke-width:2.0;" width="464.8477" x="12" y="697.58"/><rect fill="#363A4F" height="1.5" style="stroke:#363A4F;stroke-width:2.0;" width="464.8477" x="12" y="724.08"/><rect codeLine="33" fill="none" height="60" id="ReaderTKindHelper" rx="1.5" ry="1.5" style="stroke:#C6A0F6;stroke-width:2.0;" width="464.8477" x="12" y="697.58"/><ellipse cx="169.9707" cy="711.58" fill="#FFFFFF" rx="9" ry="9" style="stroke:#000000;stroke-width:1.0;"/><path d="M171.8047,715.828 Q171.3945,716.039 170.9434,716.1445 Q170.4922,716.2499 169.9941,716.2499 Q168.2246,716.2499 167.293,715.0839 Q166.3613,713.9179 166.3613,711.7148 Q166.3613,709.5058 167.293,708.3398 Q168.2246,707.1738 169.9941,707.1738 Q170.4922,707.1738 170.9492,707.2792 Q171.4063,707.3847 171.8047,707.5956 L171.8047,709.5175 Q171.3594,709.1073 170.9404,708.9169 Q170.5215,708.7265 170.0762,708.7265 Q169.127,708.7265 168.6436,709.4794 Q168.1602,710.2323 168.1602,711.7148 Q168.1602,713.1913 168.6436,713.9443 Q169.127,714.6972 170.0762,714.6972 Q170.5215,714.6972 170.9404,714.5068 Q171.3594,714.3163 171.8047,713.9062 Z " fill="#CAD3F5"/><text fill="#A6DA95" font-family="Helvetica" font-size="16" lengthAdjust="spacing" textLength="141.4063" x="187.4707" y="715.9003">ReaderTKindHelper</text><line style="stroke:#C6A0F6;stroke-width:2.0;" x1="13" x2="475.8477" y1="725.58" y2="725.58"/><ellipse cx="23" cy="737.08" fill="#FFFFFF" rx="3" ry="3" style="stroke:#000000;stroke-width:1.0;"/><text fill="#A6DA95" font-family="Helvetica" font-size="12" lengthAdjust="spacing" textLength="440.8477" x="30" y="738.8202">static &lt;F, R, A&gt; ReaderT&lt;F, R, A&gt; unwrap(Kind&lt;ReaderTKind.Witness&lt;F, R&gt;, A&gt;)</text><ellipse cx="23" cy="749.08" fill="#FFFFFF" rx="3" ry="3" style="stroke:#000000;stroke-width:1.0;"/><text fill="#A6DA95" font-family="Helvetica" font-size="12" lengthAdjust="spacing" textLength="343.459" x="30" y="750.8202">static &lt;F, R, A&gt; ReaderTKind&lt;F, R, A&gt; wrap(ReaderT&lt;F, R, A&gt;)</text></g><!--reverse link ReaderTKind to ReaderT--><g id="link_ReaderTKind_ReaderT"><path d="M273.306,222.5898 C283.646,239.7598 289.87,246.73 305.68,267.64 " fill="none" id="ReaderTKind-backto-ReaderT" style="stroke:#F5BDE6;stroke-width:1.0;stroke-dasharray:7.0,7.0;"/><polygon fill="none" points="264.02,207.17,268.1661,225.6851,278.4459,219.4945,264.02,207.17" style="stroke:#F5BDE6;stroke-width:1.0;"/></g><!--link ReaderT to ReaderTKind--><g id="link_ReaderT_ReaderTKind"><path codeLine="49" d="M331.53,267.64 C316.93,246.73 311.5541,238.0409 296.9241,220.8709 " fill="none" id="ReaderT-to-ReaderTKind" style="stroke:#F5BDE6;stroke-width:1.0;"/><polygon fill="none" points="285.25,207.17,292.3571,224.7623,301.4911,216.9795,285.25,207.17" style="stroke:#F5BDE6;stroke-width:1.0;"/></g><!--reverse link Kind to ReaderTKind--><g id="link_Kind_ReaderTKind"><path d="M239.6161,103.8613 C235.5761,119.1313 239.26,127.08 241.47,146.91 " fill="none" id="Kind-backto-ReaderTKind" style="stroke:#F5BDE6;stroke-width:1.0;"/><polygon fill="none" points="244.22,86.46,233.8157,102.3266,245.4166,105.3959,244.22,86.46" style="stroke:#F5BDE6;stroke-width:1.0;"/></g><!--link ReaderTKind to Kind--><g id="link_ReaderTKind_Kind"><path codeLine="53" d="M265.37,146.91 C267.59,127.08 271.2845,119.1285 267.2345,103.8585 " fill="none" id="ReaderTKind-to-Kind" style="stroke:#F5BDE6;stroke-width:1.0;"/><polygon fill="none" points="262.62,86.46,261.435,105.3966,273.034,102.3203,262.62,86.46" style="stroke:#F5BDE6;stroke-width:1.0;"/></g><!--reverse link Monad to ReaderTMonad--><g id="link_Monad_ReaderTMonad"><path d="M540.8796,497.8468 C531.7296,515.4268 537.85,531.02 542.63,555.27 " fill="none" id="Monad-backto-ReaderTMonad" style="stroke:#F5BDE6;stroke-width:1.0;stroke-dasharray:7.0,7.0;"/><polygon fill="none" points="549.19,481.88,535.5574,495.0767,546.2019,500.6169,549.19,481.88" style="stroke:#F5BDE6;stroke-width:1.0;"/></g><!--link ReaderTMonad to Monad--><g id="link_ReaderTMonad_Monad"><path codeLine="41" d="M566.42,555.27 C566.42,531.02 566.42,517.46 566.42,499.88 " fill="none" id="ReaderTMonad-to-Monad" style="stroke:#F5BDE6;stroke-width:1.0;"/><polygon fill="none" points="566.42,481.88,560.42,499.88,572.42,499.88,566.42,481.88" style="stroke:#F5BDE6;stroke-width:1.0;"/></g><!--reverse link ReaderTMonad to Monad--><g id="link_ReaderTMonad_Monad"><path codeLine="42" d="M592.5307,543.4965 C597.3107,519.2465 592.81,499.46 583.66,481.88 " fill="none" id="ReaderTMonad-backto-Monad" style="stroke:#F5BDE6;stroke-width:1.0;"/><polygon fill="#F5BDE6" points="590.21,555.27,595.2948,550.1568,592.5307,543.4965,587.4459,548.6097,590.21,555.27" style="stroke:#F5BDE6;stroke-width:1.0;"/><text fill="#CAD3F5" font-family="Helvetica" font-size="12" lengthAdjust="spacing" textLength="182.0801" x="373.5516" y="498.8596">outerMonad (Monad&lt;F_OUTER&gt;)</text></g><!--link ReaderTMonad to ReaderTKindHelper--><g id="link_ReaderTMonad_ReaderTKindHelper"><path codeLine="43" d="M487.24,624.02 C434.26,646.4 370.7173,673.2356 319.7873,694.7456 " fill="none" id="ReaderTMonad-to-ReaderTKindHelper" style="stroke:#F5BDE6;stroke-width:1.0;stroke-dasharray:7.0,7.0;"/><polygon fill="#F5BDE6" points="314.26,697.08,324.1072,697.2632,318.866,695.1347,320.9946,689.8936,314.26,697.08" style="stroke:#F5BDE6;stroke-width:1.0;"/><text fill="#CAD3F5" font-family="Helvetica" font-size="12" lengthAdjust="spacing" textLength="25.3477" x="416.08" y="663.8202">uses</text></g><!--link ReaderTMonad to ReaderT--><g id="link_ReaderTMonad_ReaderT"><path codeLine="44" d="M465.3,555.12 C430.77,538.51 395.56,514.72 374.42,481.58 C357.89,455.66 354.042,427.8674 354.902,398.8974 " fill="none" id="ReaderTMonad-to-ReaderT" style="stroke:#F5BDE6;stroke-width:1.0;stroke-dasharray:7.0,7.0;"/><polygon fill="#F5BDE6" points="355.08,392.9,350.8147,401.7773,354.9316,397.8978,358.8112,402.0147,355.08,392.9" style="stroke:#F5BDE6;stroke-width:1.0;"/><text fill="#CAD3F5" font-family="Helvetica" font-size="12" lengthAdjust="spacing" textLength="112.7344" x="375.42" y="470.8202">creates / operates on</text></g><!--link ReaderTKindHelper to ReaderT--><g id="link_ReaderTKindHelper_ReaderT"><path codeLine="46" d="M251.73,697.2 C262.2,655.65 282.42,577.43 302.42,511.58 C314.52,471.74 327.5179,433.1066 339.5979,398.3966 " fill="none" id="ReaderTKindHelper-to-ReaderT" style="stroke:#F5BDE6;stroke-width:1.0;stroke-dasharray:7.0,7.0;"/><polygon fill="#F5BDE6" points="341.57,392.73,334.834,399.9152,339.9266,397.4522,342.3895,402.5447,341.57,392.73" style="stroke:#F5BDE6;stroke-width:1.0;"/><text fill="#CAD3F5" font-family="Helvetica" font-size="12" lengthAdjust="spacing" textLength="88.0313" x="303.42" y="521.8202">unwrap() returns</text></g><!--link ReaderTKindHelper to ReaderTKind--><g id="link_ReaderTKindHelper_ReaderTKind"><path codeLine="47" d="M187.17,697.3 C150.38,673.98 109.42,637.49 109.42,590.58 C109.42,329.29 109.42,329.29 109.42,329.29 C109.42,275.62 152.4992,236.6787 193.1092,210.6387 " fill="none" id="ReaderTKindHelper-to-ReaderTKind" style="stroke:#F5BDE6;stroke-width:1.0;stroke-dasharray:7.0,7.0;"/><polygon fill="#F5BDE6" points="198.16,207.4,188.4246,208.8908,193.951,210.0989,192.7429,215.6253,198.16,207.4" style="stroke:#F5BDE6;stroke-width:1.0;"/><text fill="#CAD3F5" font-family="Helvetica" font-size="12" lengthAdjust="spacing" textLength="74.6836" x="110.42" y="470.8202">wrap() returns</text></g><!--link ReaderT to Kind--><g id="link_ReaderT_Kind"><path codeLine="50" d="M387.95,267.56 C398.62,230.3 404.47,183.19 383.42,147 C365.67,116.46 335.7057,99.6028 306.2557,88.5228 " fill="none" id="ReaderT-to-Kind" style="stroke:#F5BDE6;stroke-width:1.0;stroke-dasharray:7.0,7.0;"/><polygon fill="#F5BDE6" points="300.64,86.41,307.655,93.323,305.3197,88.1707,310.4721,85.8354,300.64,86.41" style="stroke:#F5BDE6;stroke-width:1.0;"/><text fill="#CAD3F5" font-family="Helvetica" font-size="12" lengthAdjust="spacing" textLength="126.0527" x="168.8304" y="103.1764">run() returns Kind&lt;F,A&gt;</text></g><!--link ReaderT to Monad--><g id="link_ReaderT_Monad"><path codeLine="51" d="M456.01,393 C489.89,415.58 520.1184,435.7107 541.4084,449.9107 " fill="none" id="ReaderT-to-Monad" style="stroke:#F5BDE6;stroke-width:1.0;stroke-dasharray:7.0,7.0;"/><polygon fill="#F5BDE6" points="546.4,453.24,541.1322,444.9184,542.2403,450.4656,536.6931,451.5738,546.4,453.24" style="stroke:#F5BDE6;stroke-width:1.0;"/><text fill="#CAD3F5" font-family="Helvetica" font-size="12" lengthAdjust="spacing" textLength="147.4102" x="363.8211" y="442.7256">factories require Monad&lt;F&gt;</text></g><!--SRC=[ZLJBRjim4BphApQ-L6ujwMuOGeqsHe0q3X2axj5WQ2eYIf4i7qYBjF_UrSkYNAMsJXGvCxkStUMLArd5G0l2PNJ59HN-mA1qJjjbbXdoaZvpL_edRvcXIZecNKfLbKcgh2C9fnabJcjFAPT9HIWjEN4gGJtfV2MIHZwhK3rhbgd6tIWgEKPXbNQ_e6BL4pCsYXntWi438mTc7k6J8DR2PqwU3QcYY6DeKn3Au9RBmsgplxbzNC1wlrj_oOF3EoL9Tvf7-07GHgTJNMqMy82q75OhmwWoXpm7Ncc1cKbtXBKXUkWhgW1yW8zR9RTU2DXuIHrNSeNdFNIDGiRB1feai27KASEPnP-EZdOvJc7G_ISdLSHlICylrX2yS77dGXvgN2vXcer094ngMkXK1JU8_NwKg2b_wc8CXPfqclt4_ZhODki0aNxZJZ9hsrX1KR8CkgCbl8dlaJiYF5l2kazcr1bzuzn_VRokBx2_tkv6hT429eECINrk2HHS4Z6qpIW4LjkZ5yrUPsYOINoUrTRX7TpZN9aMXhFaIeK6ngfOG4Nq0Wf1t5sz87e-UV7wAZTCQDHuxHIxtqxiuhxnyiKG7PylthbM73T58teQR1ur6lsDGkjmudxdq1ixEdcFapaR78HuREvyDarBqtp2hINWcsZ_WqK4nLbo-0Xae93IB9KC4WxaniJEopaEe_D6sdEKUXTf9wI1rPeIW8EZMcQ6RzT0x9-DTJw3AN1nVDqC- -6vERwxUU_WEDysUgCK_GK0]--></g></svg>