<svg xmlns="http://www.w3.org/2000/svg" xmlns:xlink="http://www.w3.org/1999/xlink" contentStyleType="text/css" height="725px" preserveAspectRatio="none" style="width:1444px;height:725px;background:#24273A;" version="1.1" viewBox="0 0 1444 725" width="1444px" zoomAndPan="magnify"><defs/><g><rect fill="#24273A" height="725" style="stroke:none;stroke-width:1.0;" width="1444" x="0" y="0"/><!--class Kind--><g id="elem_Kind"><rect codeLine="9" fill="#24273A" height="30" id="Kind" rx="1.5" ry="1.5" style="stroke:#C6A0F6;stroke-width:2.0;" width="91.0723" x="701.76" y="688.84"/><rect fill="#363A4F" height="30" rx="1.5" ry="1.5" style="stroke:#363A4F;stroke-width:2.0;" width="91.0723" x="701.76" y="688.84"/><rect fill="#363A4F" height="1.5" style="stroke:#363A4F;stroke-width:2.0;" width="91.0723" x="701.76" y="717.34"/><rect codeLine="9" fill="none" height="30" id="Kind" rx="1.5" ry="1.5" style="stroke:#C6A0F6;stroke-width:2.0;" width="91.0723" x="701.76" y="688.84"/><ellipse cx="715.76" cy="703.84" fill="#B4A7E5" rx="10" ry="10" style="stroke:#181818;stroke-width:1.0;"/><path d="M712.7678,701.1154 L712.7678,699.592 L717.9768,699.592 L717.9768,701.1154 L716.2366,701.1154 L716.2366,706.8166 L717.9768,706.8166 L717.9768,708.34 L712.7678,708.34 L712.7678,706.8166 L714.508,706.8166 L714.508,701.1154 Z " fill="#CAD3F5"/><text fill="#A6DA95" font-family="sans-serif" font-size="16" font-style="italic" lengthAdjust="spacing" textLength="35.0703" x="728.76" y="709.8869">Kind</text><rect fill="#24273A" height="14" style="stroke:#C6A0F6;stroke-width:1.0;stroke-dasharray:2.0,2.0;" width="24.002" x="771.8303" y="685.84"/><text fill="#CAD3F5" font-family="Roboto, Helvetica" font-size="12" font-style="italic" lengthAdjust="spacing" textLength="22.002" x="772.8303" y="696.0802">F, A</text></g><!--class Functor--><g id="elem_Functor"><rect codeLine="10" fill="#24273A" height="30" id="Functor" rx="1.5" ry="1.5" style="stroke:#C6A0F6;stroke-width:2.0;" width="100.3223" x="1229.14" y="156.27"/><rect fill="#363A4F" height="30" rx="1.5" ry="1.5" style="stroke:#363A4F;stroke-width:2.0;" width="100.3223" x="1229.14" y="156.27"/><rect fill="#363A4F" height="1.5" style="stroke:#363A4F;stroke-width:2.0;" width="100.3223" x="1229.14" y="184.77"/><rect codeLine="10" fill="none" height="30" id="Functor" rx="1.5" ry="1.5" style="stroke:#C6A0F6;stroke-width:2.0;" width="100.3223" x="1229.14" y="156.27"/><ellipse cx="1243.14" cy="171.27" fill="#B4A7E5" rx="10" ry="10" style="stroke:#181818;stroke-width:1.0;"/><path d="M1240.1478,168.5454 L1240.1478,167.022 L1245.3568,167.022 L1245.3568,168.5454 L1243.6166,168.5454 L1243.6166,174.2466 L1245.3568,174.2466 L1245.3568,175.77 L1240.1478,175.77 L1240.1478,174.2466 L1241.888,174.2466 L1241.888,168.5454 Z " fill="#CAD3F5"/><text fill="#A6DA95" font-family="sans-serif" font-size="16" font-style="italic" lengthAdjust="spacing" textLength="58.9922" x="1256.14" y="177.3169">Functor</text><rect fill="#24273A" height="14" style="stroke:#C6A0F6;stroke-width:1.0;stroke-dasharray:2.0,2.0;" width="9.3301" x="1323.1322" y="153.27"/><text fill="#CAD3F5" font-family="Roboto, Helvetica" font-size="12" font-style="italic" lengthAdjust="spacing" textLength="7.3301" x="1324.1322" y="163.5102">F</text></g><!--class Applicative--><g id="elem_Applicative"><rect codeLine="11" fill="#24273A" height="30" id="Applicative" rx="1.5" ry="1.5" style="stroke:#C6A0F6;stroke-width:2.0;" width="126.5957" x="7" y="326.8"/><rect fill="#363A4F" height="30" rx="1.5" ry="1.5" style="stroke:#363A4F;stroke-width:2.0;" width="126.5957" x="7" y="326.8"/><rect fill="#363A4F" height="1.5" style="stroke:#363A4F;stroke-width:2.0;" width="126.5957" x="7" y="355.3"/><rect codeLine="11" fill="none" height="30" id="Applicative" rx="1.5" ry="1.5" style="stroke:#C6A0F6;stroke-width:2.0;" width="126.5957" x="7" y="326.8"/><ellipse cx="21" cy="341.8" fill="#B4A7E5" rx="10" ry="10" style="stroke:#181818;stroke-width:1.0;"/><path d="M18.0078,339.0754 L18.0078,337.552 L23.2168,337.552 L23.2168,339.0754 L21.4766,339.0754 L21.4766,344.7766 L23.2168,344.7766 L23.2168,346.3 L18.0078,346.3 L18.0078,344.7766 L19.748,344.7766 L19.748,339.0754 Z " fill="#CAD3F5"/><text fill="#A6DA95" font-family="sans-serif" font-size="16" font-style="italic" lengthAdjust="spacing" textLength="85.2656" x="34" y="347.8469">Applicative</text><rect fill="#24273A" height="14" style="stroke:#C6A0F6;stroke-width:1.0;stroke-dasharray:2.0,2.0;" width="9.3301" x="127.2656" y="323.8"/><text fill="#CAD3F5" font-family="Roboto, Helvetica" font-size="12" font-style="italic" lengthAdjust="spacing" textLength="7.3301" x="128.2656" y="334.0402">F</text></g><!--class Monad--><g id="elem_Monad"><rect codeLine="12" fill="#24273A" height="30" id="Monad" rx="1.5" ry="1.5" style="stroke:#C6A0F6;stroke-width:2.0;" width="93.7754" x="1012.41" y="531.02"/><rect fill="#363A4F" height="30" rx="1.5" ry="1.5" style="stroke:#363A4F;stroke-width:2.0;" width="93.7754" x="1012.41" y="531.02"/><rect fill="#363A4F" height="1.5" style="stroke:#363A4F;stroke-width:2.0;" width="93.7754" x="1012.41" y="559.52"/><rect codeLine="12" fill="none" height="30" id="Monad" rx="1.5" ry="1.5" style="stroke:#C6A0F6;stroke-width:2.0;" width="93.7754" x="1012.41" y="531.02"/><ellipse cx="1026.41" cy="546.02" fill="#B4A7E5" rx="10" ry="10" style="stroke:#181818;stroke-width:1.0;"/><path d="M1023.4178,543.2954 L1023.4178,541.772 L1028.6268,541.772 L1028.6268,543.2954 L1026.8866,543.2954 L1026.8866,548.9966 L1028.6268,548.9966 L1028.6268,550.52 L1023.4178,550.52 L1023.4178,548.9966 L1025.158,548.9966 L1025.158,543.2954 Z " fill="#CAD3F5"/><text fill="#A6DA95" font-family="sans-serif" font-size="16" font-style="italic" lengthAdjust="spacing" textLength="52.4453" x="1039.41" y="552.0669">Monad</text><rect fill="#24273A" height="14" style="stroke:#C6A0F6;stroke-width:1.0;stroke-dasharray:2.0,2.0;" width="9.3301" x="1099.8553" y="528.02"/><text fill="#CAD3F5" font-family="Roboto, Helvetica" font-size="12" font-style="italic" lengthAdjust="spacing" textLength="7.3301" x="1100.8553" y="538.2602">F</text></g><!--class Reader--><g id="elem_Reader"><rect codeLine="16" fill="#24273A" height="133.6406" id="Reader" rx="1.5" ry="1.5" style="stroke:#C6A0F6;stroke-width:2.0;" width="332.4844" x="263.06" y="479.2"/><rect fill="#363A4F" height="40.8438" rx="1.5" ry="1.5" style="stroke:#363A4F;stroke-width:2.0;" width="332.4844" x="263.06" y="479.2"/><rect fill="#363A4F" height="1.5" style="stroke:#363A4F;stroke-width:2.0;" width="332.4844" x="263.06" y="518.5438"/><rect codeLine="16" fill="none" height="133.6406" id="Reader" rx="1.5" ry="1.5" style="stroke:#C6A0F6;stroke-width:2.0;" width="332.4844" x="263.06" y="479.2"/><ellipse cx="354.2631" cy="499.6219" fill="#B4A7E5" rx="10" ry="10" style="stroke:#181818;stroke-width:1.0;"/><path d="M351.2709,496.8973 L351.2709,495.3738 L356.4799,495.3738 L356.4799,496.8973 L354.7397,496.8973 L354.7397,502.5984 L356.4799,502.5984 L356.4799,504.1219 L351.2709,504.1219 L351.2709,502.5984 L353.0112,502.5984 L353.0112,496.8973 Z " fill="#CAD3F5"/><text fill="#CAD3F5" font-family="Roboto, Helvetica" font-size="12" font-style="italic" lengthAdjust="spacing" textLength="118.7402" x="371.2631" y="493.4402">&#171;Functional Interface&#187;</text><text fill="#A6DA95" font-family="sans-serif" font-size="16" font-style="italic" lengthAdjust="spacing" textLength="53.3984" x="403.934" y="511.6688">Reader</text><rect fill="#24273A" height="14" style="stroke:#C6A0F6;stroke-width:1.0;stroke-dasharray:2.0,2.0;" width="25.3379" x="573.2065" y="476.2"/><text fill="#CAD3F5" font-family="Roboto, Helvetica" font-size="12" font-style="italic" lengthAdjust="spacing" textLength="23.3379" x="574.2065" y="486.4402">R, A</text><line style="stroke:#C6A0F6;stroke-width:2.0;" x1="264.06" x2="594.5444" y1="520.0438" y2="520.0438"/><text fill="#A6DA95" font-family="sans-serif" font-size="12" lengthAdjust="spacing" textLength="65.5195" x="269.06" y="535.6453">+A run(R r)</text><text fill="#A6DA95" font-family="sans-serif" font-size="12" lengthAdjust="spacing" text-decoration="underline" textLength="237.5508" x="269.06" y="549.7781">+Reader&lt;R, A&gt; of(Function&lt;R, A&gt; func)</text><text fill="#A6DA95" font-family="sans-serif" font-size="12" lengthAdjust="spacing" text-decoration="underline" textLength="196.377" x="269.06" y="563.9109">+Reader&lt;R, A&gt; constant(A value)</text><text fill="#A6DA95" font-family="sans-serif" font-size="12" lengthAdjust="spacing" text-decoration="underline" textLength="122.7949" x="269.06" y="578.0438">+Reader&lt;R, R&gt; ask()</text><text fill="#A6DA95" font-family="sans-serif" font-size="12" lengthAdjust="spacing" textLength="228.0469" x="269.06" y="592.1766">+Reader&lt;R, B&gt; map(Function&lt;A, B&gt; f)</text><text fill="#A6DA95" font-family="sans-serif" font-size="12" lengthAdjust="spacing" textLength="320.4844" x="269.06" y="606.3094">+Reader&lt;R, B&gt; flatMap(Function&lt;A, Reader&lt;R, B&gt;&gt; f)</text></g><!--class ReaderKindHelper--><g id="elem_ReaderKindHelper"><rect codeLine="27" fill="#24273A" height="122.7969" id="ReaderKindHelper" rx="1.5" ry="1.5" style="stroke:#C6A0F6;stroke-width:2.0;" width="425.5547" x="168.52" y="280.4"/><rect fill="#363A4F" height="30" rx="1.5" ry="1.5" style="stroke:#363A4F;stroke-width:2.0;" width="425.5547" x="168.52" y="280.4"/><rect fill="#363A4F" height="1.5" style="stroke:#363A4F;stroke-width:2.0;" width="425.5547" x="168.52" y="308.9"/><rect codeLine="27" fill="none" height="122.7969" id="ReaderKindHelper" rx="1.5" ry="1.5" style="stroke:#C6A0F6;stroke-width:2.0;" width="425.5547" x="168.52" y="280.4"/><ellipse cx="307.6489" cy="295.4" fill="#ADD1B2" rx="10" ry="10" style="stroke:#181818;stroke-width:1.0;"/><path d="M309.4829,299.648 Q309.0727,299.859 308.6216,299.9645 Q308.1704,300.0699 307.6723,300.0699 Q305.9028,300.0699 304.9712,298.9039 Q304.0395,297.7379 304.0395,295.5348 Q304.0395,293.3258 304.9712,292.1598 Q305.9028,290.9938 307.6723,290.9938 Q308.1704,290.9938 308.6274,291.0992 Q309.0845,291.2047 309.4829,291.4156 L309.4829,293.3375 Q309.0376,292.9273 308.6186,292.7369 Q308.1997,292.5465 307.7544,292.5465 Q306.8052,292.5465 306.3218,293.2994 Q305.8384,294.0523 305.8384,295.5348 Q305.8384,297.0113 306.3218,297.7643 Q306.8052,298.5172 307.7544,298.5172 Q308.1997,298.5172 308.6186,298.3268 Q309.0376,298.1363 309.4829,297.7262 Z " fill="#CAD3F5"/><text fill="#A6DA95" font-family="sans-serif" font-size="16" lengthAdjust="spacing" textLength="139.2969" x="326.6489" y="301.4469">ReaderKindHelper</text><line style="stroke:#C6A0F6;stroke-width:2.0;" x1="169.52" x2="593.0747" y1="310.4" y2="310.4"/><text fill="#A6DA95" font-family="sans-serif" font-size="12" lengthAdjust="spacing" text-decoration="underline" textLength="378.8965" x="174.52" y="326.0016">+Reader&lt;R, A&gt; unwrap(Kind&lt;ReaderKind.Witness&lt;R&gt;, A&gt; kind)</text><text fill="#A6DA95" font-family="sans-serif" font-size="12" lengthAdjust="spacing" text-decoration="underline" textLength="282.123" x="174.52" y="340.1344">+ReaderKind&lt;R, A&gt; wrap(Reader&lt;R, A&gt; reader)</text><text fill="#A6DA95" font-family="sans-serif" font-size="12" lengthAdjust="spacing" text-decoration="underline" textLength="334.043" x="174.52" y="354.2672">+ReaderKind&lt;R, A&gt; reader(Function&lt;R, A&gt; runFunction)</text><text fill="#A6DA95" font-family="sans-serif" font-size="12" lengthAdjust="spacing" text-decoration="underline" textLength="222.6797" x="174.52" y="368.4">+ReaderKind&lt;R, A&gt; constant(A value)</text><text fill="#A6DA95" font-family="sans-serif" font-size="12" lengthAdjust="spacing" text-decoration="underline" textLength="149.0977" x="174.52" y="382.5328">+ReaderKind&lt;R, R&gt; ask()</text><text fill="#A6DA95" font-family="sans-serif" font-size="12" lengthAdjust="spacing" text-decoration="underline" textLength="413.5547" x="174.52" y="396.6656">+A runReader(Kind&lt;ReaderKind.Witness&lt;R&gt;, A&gt; kind, R environment)</text></g><!--class ReaderFunctor--><g id="elem_ReaderFunctor"><rect codeLine="36" fill="#24273A" height="52.1328" id="ReaderFunctor" rx="1.5" ry="1.5" style="stroke:#C6A0F6;stroke-width:2.0;" width="585.2051" x="790.7" y="10"/><rect fill="#363A4F" height="30" rx="1.5" ry="1.5" style="stroke:#363A4F;stroke-width:2.0;" width="585.2051" x="790.7" y="10"/><rect fill="#363A4F" height="1.5" style="stroke:#363A4F;stroke-width:2.0;" width="585.2051" x="790.7" y="38.5"/><rect codeLine="36" fill="none" height="52.1328" id="ReaderFunctor" rx="1.5" ry="1.5" style="stroke:#C6A0F6;stroke-width:2.0;" width="585.2051" x="790.7" y="10"/><ellipse cx="1016.7742" cy="25" fill="#ADD1B2" rx="10" ry="10" style="stroke:#181818;stroke-width:1.0;"/><path d="M1018.6082,29.248 Q1018.198,29.459 1017.7469,29.5645 Q1017.2957,29.6699 1016.7977,29.6699 Q1015.0281,29.6699 1014.0965,28.5039 Q1013.1648,27.3379 1013.1648,25.1348 Q1013.1648,22.9258 1014.0965,21.7598 Q1015.0281,20.5938 1016.7977,20.5938 Q1017.2957,20.5938 1017.7527,20.6992 Q1018.2098,20.8047 1018.6082,21.0156 L1018.6082,22.9375 Q1018.1629,22.5273 1017.7439,22.3369 Q1017.325,22.1465 1016.8797,22.1465 Q1015.9305,22.1465 1015.4471,22.8994 Q1014.9637,23.6523 1014.9637,25.1348 Q1014.9637,26.6113 1015.4471,27.3643 Q1015.9305,28.1172 1016.8797,28.1172 Q1017.325,28.1172 1017.7439,27.9268 Q1018.1629,27.7363 1018.6082,27.3262 Z " fill="#CAD3F5"/><text fill="#A6DA95" font-family="sans-serif" font-size="16" lengthAdjust="spacing" textLength="112.3906" x="1035.7742" y="31.0469">ReaderFunctor</text><rect fill="#24273A" height="14" style="stroke:#C6A0F6;stroke-width:1.0;stroke-dasharray:2.0,2.0;" width="10.666" x="1368.2391" y="7"/><text fill="#CAD3F5" font-family="Roboto, Helvetica" font-size="12" font-style="italic" lengthAdjust="spacing" textLength="8.666" x="1369.2391" y="17.2402">R</text><line style="stroke:#C6A0F6;stroke-width:2.0;" x1="791.7" x2="1374.9051" y1="40" y2="40"/><text fill="#A6DA95" font-family="sans-serif" font-size="12" lengthAdjust="spacing" textLength="573.2051" x="796.7" y="55.6016">+Kind&lt;ReaderKind.Witness&lt;R&gt;, B&gt; map(Function&lt;A, B&gt; f, Kind&lt;ReaderKind.Witness&lt;R&gt;, A&gt; fa)</text></g><!--class ReaderApplicative--><g id="elem_ReaderApplicative"><rect codeLine="39" fill="#24273A" height="66.2656" id="ReaderApplicative" rx="1.5" ry="1.5" style="stroke:#C6A0F6;stroke-width:2.0;" width="772.793" x="420.9" y="138.14"/><rect fill="#363A4F" height="30" rx="1.5" ry="1.5" style="stroke:#363A4F;stroke-width:2.0;" width="772.793" x="420.9" y="138.14"/><rect fill="#363A4F" height="1.5" style="stroke:#363A4F;stroke-width:2.0;" width="772.793" x="420.9" y="166.64"/><rect codeLine="39" fill="none" height="66.2656" id="ReaderApplicative" rx="1.5" ry="1.5" style="stroke:#C6A0F6;stroke-width:2.0;" width="772.793" x="420.9" y="138.14"/><ellipse cx="727.6314" cy="153.14" fill="#ADD1B2" rx="10" ry="10" style="stroke:#181818;stroke-width:1.0;"/><path d="M729.4654,157.388 Q729.0553,157.599 728.6041,157.7045 Q728.1529,157.8099 727.6549,157.8099 Q725.8854,157.8099 724.9537,156.6439 Q724.0221,155.4779 724.0221,153.2748 Q724.0221,151.0658 724.9537,149.8998 Q725.8854,148.7338 727.6549,148.7338 Q728.1529,148.7338 728.61,148.8392 Q729.067,148.9447 729.4654,149.1556 L729.4654,151.0775 Q729.0201,150.6673 728.6012,150.4769 Q728.1822,150.2865 727.7369,150.2865 Q726.7877,150.2865 726.3043,151.0394 Q725.8209,151.7923 725.8209,153.2748 Q725.8209,154.7513 726.3043,155.5043 Q726.7877,156.2572 727.7369,156.2572 Q728.1822,156.2572 728.6012,156.0668 Q729.0201,155.8763 729.4654,155.4662 Z " fill="#CAD3F5"/><text fill="#A6DA95" font-family="sans-serif" font-size="16" lengthAdjust="spacing" textLength="138.6641" x="746.6314" y="159.1869">ReaderApplicative</text><rect fill="#24273A" height="14" style="stroke:#C6A0F6;stroke-width:1.0;stroke-dasharray:2.0,2.0;" width="10.666" x="1186.027" y="135.14"/><text fill="#CAD3F5" font-family="Roboto, Helvetica" font-size="12" font-style="italic" lengthAdjust="spacing" textLength="8.666" x="1187.027" y="145.3802">R</text><line style="stroke:#C6A0F6;stroke-width:2.0;" x1="421.9" x2="1192.693" y1="168.14" y2="168.14"/><text fill="#A6DA95" font-family="sans-serif" font-size="12" lengthAdjust="spacing" textLength="278.0977" x="426.9" y="183.7416">+Kind&lt;ReaderKind.Witness&lt;R&gt;, A&gt; of(A value)</text><text fill="#A6DA95" font-family="sans-serif" font-size="12" lengthAdjust="spacing" textLength="760.793" x="426.9" y="197.8744">+Kind&lt;ReaderKind.Witness&lt;R&gt;, B&gt; ap(Kind&lt;ReaderKind.Witness&lt;R&gt;, Function&lt;A, B&gt;&gt; ff, Kind&lt;ReaderKind.Witness&lt;R&gt;, A&gt; fa)</text></g><!--class ReaderMonad--><g id="elem_ReaderMonad"><rect codeLine="43" fill="#24273A" height="52.1328" id="ReaderMonad" rx="1.5" ry="1.5" style="stroke:#C6A0F6;stroke-width:2.0;" width="804.5039" x="629.05" y="315.73"/><rect fill="#363A4F" height="30" rx="1.5" ry="1.5" style="stroke:#363A4F;stroke-width:2.0;" width="804.5039" x="629.05" y="315.73"/><rect fill="#363A4F" height="1.5" style="stroke:#363A4F;stroke-width:2.0;" width="804.5039" x="629.05" y="344.23"/><rect codeLine="43" fill="none" height="52.1328" id="ReaderMonad" rx="1.5" ry="1.5" style="stroke:#C6A0F6;stroke-width:2.0;" width="804.5039" x="629.05" y="315.73"/><ellipse cx="968.0471" cy="330.73" fill="#ADD1B2" rx="10" ry="10" style="stroke:#181818;stroke-width:1.0;"/><path d="M969.8811,334.978 Q969.4709,335.189 969.0197,335.2945 Q968.5686,335.3999 968.0705,335.3999 Q966.301,335.3999 965.3693,334.2339 Q964.4377,333.0679 964.4377,330.8648 Q964.4377,328.6558 965.3693,327.4898 Q966.301,326.3238 968.0705,326.3238 Q968.5686,326.3238 969.0256,326.4292 Q969.4826,326.5347 969.8811,326.7456 L969.8811,328.6675 Q969.4357,328.2573 969.0168,328.0669 Q968.5979,327.8765 968.1525,327.8765 Q967.2033,327.8765 966.7199,328.6294 Q966.2365,329.3823 966.2365,330.8648 Q966.2365,332.3413 966.7199,333.0943 Q967.2033,333.8472 968.1525,333.8472 Q968.5979,333.8472 969.0168,333.6568 Q969.4357,333.4663 969.8811,333.0562 Z " fill="#CAD3F5"/><text fill="#A6DA95" font-family="sans-serif" font-size="16" lengthAdjust="spacing" textLength="105.8438" x="987.0471" y="336.7769">ReaderMonad</text><rect fill="#24273A" height="14" style="stroke:#C6A0F6;stroke-width:1.0;stroke-dasharray:2.0,2.0;" width="10.666" x="1425.8879" y="312.73"/><text fill="#CAD3F5" font-family="Roboto, Helvetica" font-size="12" font-style="italic" lengthAdjust="spacing" textLength="8.666" x="1426.8879" y="322.9702">R</text><line style="stroke:#C6A0F6;stroke-width:2.0;" x1="630.05" x2="1432.5539" y1="345.73" y2="345.73"/><text fill="#A6DA95" font-family="sans-serif" font-size="12" lengthAdjust="spacing" textLength="792.5039" x="635.05" y="361.3316">+Kind&lt;ReaderKind.Witness&lt;R&gt;, B&gt; flatMap(Function&lt;A, Kind&lt;ReaderKind.Witness&lt;R&gt;, B&gt;&gt; f, Kind&lt;ReaderKind.Witness&lt;R&gt;, A&gt; ma)</text></g><!--class ReaderKind<R,A>--><g id="elem_ReaderKind&lt;R,A&gt;"><rect fill="#24273A" height="30" id="ReaderKind&lt;R,A&gt;" rx="1.5" ry="1.5" style="stroke:#C6A0F6;stroke-width:2.0;" width="170.125" x="662.24" y="531.02"/><rect fill="#363A4F" height="30" rx="1.5" ry="1.5" style="stroke:#363A4F;stroke-width:2.0;" width="170.125" x="662.24" y="531.02"/><rect fill="#363A4F" height="1.5" style="stroke:#363A4F;stroke-width:2.0;" width="170.125" x="662.24" y="559.52"/><rect fill="none" height="30" id="ReaderKind&lt;R,A&gt;" rx="1.5" ry="1.5" style="stroke:#C6A0F6;stroke-width:2.0;" width="170.125" x="662.24" y="531.02"/><ellipse cx="676.24" cy="546.02" fill="#ADD1B2" rx="10" ry="10" style="stroke:#181818;stroke-width:1.0;"/><path d="M678.074,550.268 Q677.6638,550.479 677.2127,550.5845 Q676.7615,550.6899 676.2634,550.6899 Q674.4939,550.6899 673.5623,549.5239 Q672.6306,548.3579 672.6306,546.1548 Q672.6306,543.9458 673.5623,542.7798 Q674.4939,541.6138 676.2634,541.6138 Q676.7615,541.6138 677.2185,541.7192 Q677.6755,541.8247 678.074,542.0356 L678.074,543.9575 Q677.6287,543.5473 677.2097,543.3569 Q676.7908,543.1665 676.3455,543.1665 Q675.3963,543.1665 674.9129,543.9194 Q674.4295,544.6723 674.4295,546.1548 Q674.4295,547.6313 674.9129,548.3843 Q675.3963,549.1372 676.3455,549.1372 Q676.7908,549.1372 677.2097,548.9468 Q677.6287,548.7563 678.074,548.3462 Z " fill="#CAD3F5"/><text fill="#A6DA95" font-family="sans-serif" font-size="16" lengthAdjust="spacing" textLength="140.125" x="689.24" y="552.0669">ReaderKind&lt;R,A&gt;</text></g><!--reverse link Functor to ReaderFunctor--><g id="link_Functor_ReaderFunctor"><path d="M1268.1825,138.9813 C1261.6725,121.5813 1254.79,109.36 1234.3,92.14 C1219.67,79.84 1202.05,70.18 1184.1,62.63 " fill="none" id="Functor-backto-ReaderFunctor" style="stroke:#F5BDE6;stroke-width:1.0;stroke-dasharray:7.0,7.0;"/><polygon fill="none" points="1274.49,155.84,1273.8021,136.8788,1262.563,141.0838,1274.49,155.84" style="stroke:#F5BDE6;stroke-width:1.0;"/></g><!--link ReaderFunctor to Functor--><g id="link_ReaderFunctor_Functor"><path codeLine="50" d="M1105.66,62.4 C1119.33,76.94 1137.73,94.88 1156.3,108.14 C1164.55,114.03 1215.8,139.36 1249.49,155.8 " fill="none" id="ReaderFunctor-Functor" style="stroke:#F5BDE6;stroke-width:1.0;"/><text fill="#CAD3F5" font-family="sans-serif" font-size="12" lengthAdjust="spacing" textLength="68.3203" x="1157.3" y="104.7416">implements</text></g><!--reverse link ReaderFunctor to ReaderApplicative--><g id="link_ReaderFunctor_ReaderApplicative"><path d="M1014.1992,70.4136 C969.8992,91.7936 922.62,114.61 874.69,137.75 " fill="none" id="ReaderFunctor-backto-ReaderApplicative" style="stroke:#F5BDE6;stroke-width:1.0;"/><polygon fill="none" points="1030.41,62.59,1011.5913,65.01,1016.8071,75.8172,1030.41,62.59" style="stroke:#F5BDE6;stroke-width:1.0;"/></g><!--reverse link ReaderFunctor to ReaderApplicative--><g id="link_ReaderFunctor_ReaderApplicative"><path codeLine="54" d="M1044.1097,66.0022 C1023.4597,80.5922 1001.14,95.07 975.3,108.14 C953.65,119.08 929.6,129.12 906.62,137.8 " fill="none" id="ReaderFunctor-backto-ReaderApplicative-1" style="stroke:#F5BDE6;stroke-width:1.0;stroke-dasharray:7.0,7.0;"/><polygon fill="#F5BDE6" points="1049.01,62.54,1039.3514,64.4665,1044.9264,65.4252,1043.9677,71.0002,1049.01,62.54" style="stroke:#F5BDE6;stroke-width:1.0;"/><text fill="#CAD3F5" font-family="sans-serif" font-size="12" lengthAdjust="spacing" textLength="46.3359" x="1004.15" y="104.7416">extends</text></g><!--reverse link Applicative to ReaderApplicative--><g id="link_Applicative_ReaderApplicative"><path d="M97.2555,313.9246 C112.3055,299.4546 124.7,290.4 151.3,280.4 C310.29,220.62 365.12,280.43 532.3,250.4 C592.38,239.61 658.22,221.15 710.4,204.89 " fill="none" id="Applicative-backto-ReaderApplicative" style="stroke:#F5BDE6;stroke-width:1.0;stroke-dasharray:7.0,7.0;"/><polygon fill="none" points="84.28,326.4,101.414,318.2497,93.097,309.5994,84.28,326.4" style="stroke:#F5BDE6;stroke-width:1.0;"/></g><!--link ReaderApplicative to Applicative--><g id="link_ReaderApplicative_Applicative"><path codeLine="51" d="M420.5,204.69 C329.81,220.76 235.21,244.72 151.3,280.4 C125.47,291.38 100.29,312.23 85.03,326.32 " fill="none" id="ReaderApplicative-Applicative" style="stroke:#F5BDE6;stroke-width:1.0;"/><text fill="#CAD3F5" font-family="sans-serif" font-size="12" lengthAdjust="spacing" textLength="68.3203" x="271.74" y="247.0016">implements</text></g><!--reverse link ReaderApplicative to ReaderMonad--><g id="link_ReaderApplicative_ReaderMonad"><path d="M864.8723,215.5836 C907.7123,247.8236 958.11,285.73 997.38,315.28 " fill="none" id="ReaderApplicative-backto-ReaderMonad" style="stroke:#F5BDE6;stroke-width:1.0;"/><polygon fill="none" points="850.49,204.76,861.2644,220.3777,868.4801,210.7895,850.49,204.76" style="stroke:#F5BDE6;stroke-width:1.0;"/></g><!--reverse link ReaderApplicative to ReaderMonad--><g id="link_ReaderApplicative_ReaderMonad"><path codeLine="55" d="M883.016,207.7288 C899.216,216.4288 910.68,223.61 925.3,234.4 C957.81,258.41 989.81,292.35 1010,315.39 " fill="none" id="ReaderApplicative-backto-ReaderMonad-1" style="stroke:#F5BDE6;stroke-width:1.0;stroke-dasharray:7.0,7.0;"/><polygon fill="#F5BDE6" points="877.73,204.89,883.7664,212.6721,882.135,207.2556,887.5515,205.6242,877.73,204.89" style="stroke:#F5BDE6;stroke-width:1.0;"/><text fill="#CAD3F5" font-family="sans-serif" font-size="12" lengthAdjust="spacing" textLength="46.3359" x="945.48" y="247.0016">extends</text></g><!--reverse link Monad to ReaderMonad--><g id="link_Monad_ReaderMonad"><path d="M1054.8445,512.8497 C1050.1445,478.8597 1040.72,410.88 1034.79,368 " fill="none" id="Monad-backto-ReaderMonad" style="stroke:#F5BDE6;stroke-width:1.0;stroke-dasharray:7.0,7.0;"/><polygon fill="none" points="1057.31,530.68,1060.7879,512.0278,1048.901,513.6715,1057.31,530.68" style="stroke:#F5BDE6;stroke-width:1.0;"/></g><!--link ReaderMonad to Monad--><g id="link_ReaderMonad_Monad"><path codeLine="52" d="M1037.07,368 C1041.02,386.07 1046.11,411.02 1049.3,433.2 C1054.32,468.12 1057.24,509.56 1058.52,530.84 " fill="none" id="ReaderMonad-Monad" style="stroke:#F5BDE6;stroke-width:1.0;"/><text fill="#CAD3F5" font-family="sans-serif" font-size="12" lengthAdjust="spacing" textLength="68.3203" x="1052.3" y="445.8016">implements</text></g><!--link ReaderKind<R,A> to Kind--><g id="link_ReaderKind&lt;R,A&gt;_Kind"><path codeLine="49" d="M747.3,561.4 C747.3,591.08 747.3,652.84 747.3,682.49 " fill="none" id="ReaderKind&lt;R,A&gt;-to-Kind" style="stroke:#F5BDE6;stroke-width:1.0;"/><polygon fill="#F5BDE6" points="747.3,688.49,751.3,679.49,747.3,683.49,743.3,679.49,747.3,688.49" style="stroke:#F5BDE6;stroke-width:1.0;"/><text fill="#CAD3F5" font-family="sans-serif" font-size="12" lengthAdjust="spacing" textLength="226.4883" x="748.3" y="655.4416">extends &lt;ReaderKind.Witness&lt;R&gt;, A&gt;</text></g><!--link ReaderKindHelper to Reader--><g id="link_ReaderKindHelper_Reader"><path codeLine="57" d="M383.25,403.51 C384.61,418.58 386.79,434.6 390.3,449.2 C392.64,458.98 393.7846,463.4294 397.3346,473.2194 " fill="none" id="ReaderKindHelper-to-Reader" style="stroke:#F5BDE6;stroke-width:1.0;stroke-dasharray:7.0,7.0;"/><polygon fill="#F5BDE6" points="399.38,478.86,400.0724,469.0355,397.6755,474.1595,392.5515,471.7627,399.38,478.86" style="stroke:#F5BDE6;stroke-width:1.0;"/><text fill="#CAD3F5" font-family="sans-serif" font-size="12" lengthAdjust="spacing" textLength="97.3008" x="391.3" y="445.8016">creates/unwraps</text></g><!--link ReaderKindHelper to ReaderKind<R,A>--><g id="link_ReaderKindHelper_ReaderKind&lt;R,A&gt;"><path codeLine="58" d="M458.56,403.52 C481.22,419.66 506.57,436.2 531.3,449.2 C565.65,467.25 577.61,463.96 613.3,479.2 C650.96,495.28 687.8578,513.8197 714.6578,527.7697 " fill="none" id="ReaderKindHelper-to-ReaderKind&lt;R,A&gt;" style="stroke:#F5BDE6;stroke-width:1.0;stroke-dasharray:7.0,7.0;"/><polygon fill="#F5BDE6" points="719.98,530.54,713.8436,522.8364,715.5449,528.2314,710.1499,529.9327,719.98,530.54" style="stroke:#F5BDE6;stroke-width:1.0;"/><text fill="#CAD3F5" font-family="sans-serif" font-size="12" lengthAdjust="spacing" textLength="97.3008" x="532.3" y="445.8016">creates/unwraps</text></g><!--link ReaderMonad to ReaderKind<R,A>--><g id="link_ReaderMonad_ReaderKind&lt;R,A&gt;"><path codeLine="60" d="M959.98,368.21 C922.47,383.61 876.99,405.61 841.3,433.2 C804.17,461.89 774.9196,502.4988 759.7096,525.5988 " fill="none" id="ReaderMonad-to-ReaderKind&lt;R,A&gt;" style="stroke:#F5BDE6;stroke-width:1.0;stroke-dasharray:7.0,7.0;"/><polygon fill="#F5BDE6" points="756.41,530.61,764.7002,525.2929,759.1597,526.434,758.0186,520.8934,756.41,530.61" style="stroke:#F5BDE6;stroke-width:1.0;"/><text fill="#CAD3F5" font-family="sans-serif" font-size="12" lengthAdjust="spacing" textLength="193.8047" x="842.3" y="445.8016">operates on &lt;ReaderKind&lt;R,?&gt;&gt;</text></g><!--link ReaderMonad to Reader--><g id="link_ReaderMonad_Reader"><path codeLine="61" d="M934.05,368.37 C871.67,385.36 789.19,408.95 717.3,433.2 C676.51,446.96 638.5972,460.9187 598.0672,476.5687 " fill="none" id="ReaderMonad-to-Reader" style="stroke:#F5BDE6;stroke-width:1.0;stroke-dasharray:7.0,7.0;"/><polygon fill="#F5BDE6" points="592.47,478.73,602.3067,479.2196,597.1344,476.9289,599.425,471.7566,592.47,478.73" style="stroke:#F5BDE6;stroke-width:1.0;"/><text fill="#CAD3F5" font-family="sans-serif" font-size="12" lengthAdjust="spacing" textLength="96.6094" x="718.3" y="445.8016">uses methods of</text></g><!--SRC=[fLPDZvim4BtpAznScbK3zBoAgEWXwghQ7j93puuPYhNuGxR9jbtjV-zWmdT88eKJsE-zcNapTlA1IrPM6P32EMqVuzZGr-WtTqLrg2mOfgG3wIAcH2oPiew6dCMCEgqhnhWC1MMiuDIfK9TKkagKeIj0G2mebx5_ZJIk1e5zuL9JGmLX9RKsTSxmG-NW2MFyvF-0V1v0CiXfLReTXlz11P3LNXsKKnlo3SeZECxeAYWufWr2kxz4W3Y0iK4G47muvcnooe1yvpBRxZOaJIORkqeofynsDzr8jIvHtV4Zp3UVbQHPlJmBj0UQWTdkwr1ak_No7D4bUMenIKBUF0kVJoGbffBhFJ4F_TeRsekblO_LLBvkvKuhENvUfQ6hk2xTEYL7MbPmcR1F2BKlwm6et_kQ445rdqJgb_8bR5vIzpp13m4TzRsrqS_32LDt37kimNHkBLLOoLU3SNoFUtBqYpi9rcxtYKVXI6KFIqeDr-EyraZV-8zRk0rosYPiSBjoYyXImnOvavuDS7wu6l0jzg0K0NdaHac1XxthphGtxQ71m5pe4cgmxOxIsHYZcR-KoiAGRSYL_7FQfZlDTdYICMFuWnTPThcK4UMkSffpEpzwLoouCivZTx3uU_nfBhEPCnFR1kwS2FUs-TpzS9boonm8sbyg7x4K38BQjk3Q1glHkKcJ5Gd3n0kInwxwPUrWD3B8RKSUsRqzmSo-6ZdyF8FsbjQuvcM4E2COLL4o7k2-W97Y03ZEe0K7iziswXW8OtYZER1nSyNQy-YvhNFYEAi5aaB5caMK7BO1zxyaoKoXInB_drZyvNU5mlQfFFWF]--></g></svg>