<svg xmlns="http://www.w3.org/2000/svg" xmlns:xlink="http://www.w3.org/1999/xlink" contentStyleType="text/css" height="1017px" preserveAspectRatio="none" style="width:1557px;height:1017px;background:#24273A;" version="1.1" viewBox="0 0 1557 1017" width="1557px" zoomAndPan="magnify"><defs/><g><rect fill="#24273A" height="1017" style="stroke:none;stroke-width:1.0;" width="1557" x="0" y="0"/><!--cluster Core HKT Interfaces--><g id="cluster_Core HKT Interfaces"><path d="M12.5,842.93 L139.7129,842.93 A2.25,2.25 0 0 1 141.2129,844.43 L148.2129,863.0628 L423.5,863.0628 A1.5,1.5 0 0 1 425,864.5628 L425,1009.12 A1.5,1.5 0 0 1 423.5,1010.62 L12.5,1010.62 A1.5,1.5 0 0 1 11,1009.12 L11,844.43 A1.5,1.5 0 0 1 12.5,842.93 " fill="#24273A" style="stroke:#CAD3F5;stroke-width:1.0;"/><line style="stroke:#CAD3F5;stroke-width:1.0;" x1="11" x2="148.2129" y1="863.0628" y2="863.0628"/><text fill="#CAD3F5" font-family="sans-serif" font-size="12" font-weight="bold" lengthAdjust="spacing" textLength="124.2129" x="15" y="856.5316">Core HKT Interfaces</text></g><!--cluster Reader Type--><g id="cluster_Reader Type"><path d="M1181.5,609.71 L1261.5156,609.71 A2.25,2.25 0 0 1 1263.0156,611.21 L1270.0156,629.8428 L1542.5,629.8428 A1.5,1.5 0 0 1 1544,631.3428 L1544,793.43 A1.5,1.5 0 0 1 1542.5,794.93 L1181.5,794.93 A1.5,1.5 0 0 1 1180,793.43 L1180,611.21 A1.5,1.5 0 0 1 1181.5,609.71 " fill="#24273A" style="stroke:#CAD3F5;stroke-width:1.0;"/><line style="stroke:#CAD3F5;stroke-width:1.0;" x1="1180" x2="1270.0156" y1="629.8428" y2="629.8428"/><text fill="#CAD3F5" font-family="sans-serif" font-size="12" font-weight="bold" lengthAdjust="spacing" textLength="77.0156" x="1184" y="623.3116">Reader Type</text></g><!--cluster Reader HKT Simulation--><g id="cluster_Reader HKT Simulation"><path d="M478.5,11 L623.918,11 A2.25,2.25 0 0 1 625.418,12.5 L632.418,31.1328 L1395.5,31.1328 A1.5,1.5 0 0 1 1397,32.6328 L1397,560.21 A1.5,1.5 0 0 1 1395.5,561.71 L478.5,561.71 A1.5,1.5 0 0 1 477,560.21 L477,12.5 A1.5,1.5 0 0 1 478.5,11 " fill="#24273A" style="stroke:#CAD3F5;stroke-width:1.0;"/><line style="stroke:#CAD3F5;stroke-width:1.0;" x1="477" x2="632.418" y1="31.1328" y2="31.1328"/><text fill="#CAD3F5" font-family="sans-serif" font-size="12" font-weight="bold" lengthAdjust="spacing" textLength="142.418" x="481" y="24.6016">Reader HKT Simulation</text></g><!--cluster ReaderKind<R, A> extends Kind<ReaderKind--><g id="cluster_ReaderKind&lt;R, A&gt; extends Kind&lt;ReaderKind"><path d="M502.5,57.4 L785.0801,57.4 A2.25,2.25 0 0 1 786.5801,58.9 L793.5801,77.5328 L794.5,77.5328 A1.5,1.5 0 0 1 796,79.0328 L796,133.75 A1.5,1.5 0 0 1 794.5,135.25 L502.5,135.25 A1.5,1.5 0 0 1 501,133.75 L501,58.9 A1.5,1.5 0 0 1 502.5,57.4 " fill="#24273A" style="stroke:#CAD3F5;stroke-width:1.0;"/><line style="stroke:#CAD3F5;stroke-width:1.0;" x1="501" x2="793.5801" y1="77.5328" y2="77.5328"/><text fill="#CAD3F5" font-family="sans-serif" font-size="12" font-weight="bold" lengthAdjust="spacing" textLength="279.5801" x="505" y="71.0016">ReaderKind&lt;R, A&gt; extends Kind&lt;ReaderKind</text></g><!--class Kind--><g id="elem_Kind"><rect codeLine="9" fill="#24273A" height="28.8438" id="Kind" rx="1.5" ry="1.5" style="stroke:#C6A0F6;stroke-width:2.0;" width="90.7422" x="318.63" y="875.93"/><rect fill="#363A4F" height="28.8438" rx="1.5" ry="1.5" style="stroke:#363A4F;stroke-width:2.0;" width="90.7422" x="318.63" y="875.93"/><rect fill="#363A4F" height="1.5" style="stroke:#363A4F;stroke-width:2.0;" width="90.7422" x="318.63" y="903.2738"/><rect codeLine="9" fill="none" height="28.8438" id="Kind" rx="1.5" ry="1.5" style="stroke:#C6A0F6;stroke-width:2.0;" width="90.7422" x="318.63" y="875.93"/><ellipse cx="331.63" cy="890.3519" fill="#FFFFFF" rx="9" ry="9" style="stroke:#000000;stroke-width:1.0;"/><path d="M328.6378,887.6273 L328.6378,886.1038 L333.8468,886.1038 L333.8468,887.6273 L332.1066,887.6273 L332.1066,893.3284 L333.8468,893.3284 L333.8468,894.8519 L328.6378,894.8519 L328.6378,893.3284 L330.378,893.3284 L330.378,887.6273 Z " fill="#CAD3F5"/><text fill="#A6DA95" font-family="sans-serif" font-size="16" font-style="italic" lengthAdjust="spacing" textLength="35.0703" x="343.63" y="896.3988">Kind</text><rect fill="#24273A" height="16.584" style="stroke:#C6A0F6;stroke-width:1.0;stroke-dasharray:2.0,2.0;" width="25.6719" x="386.7003" y="872.93"/><text fill="#000000" font-family="Verdana" font-size="12" font-style="italic" lengthAdjust="spacing" textLength="23.6719" x="387.7003" y="885.9945">F, A</text></g><!--class Functor--><g id="elem_Functor"><rect codeLine="10" fill="#24273A" height="28.8438" id="Functor" rx="1.5" ry="1.5" style="stroke:#C6A0F6;stroke-width:2.0;" width="97.8887" x="27.06" y="875.93"/><rect fill="#363A4F" height="28.8438" rx="1.5" ry="1.5" style="stroke:#363A4F;stroke-width:2.0;" width="97.8887" x="27.06" y="875.93"/><rect fill="#363A4F" height="1.5" style="stroke:#363A4F;stroke-width:2.0;" width="97.8887" x="27.06" y="903.2738"/><rect codeLine="10" fill="none" height="28.8438" id="Functor" rx="1.5" ry="1.5" style="stroke:#C6A0F6;stroke-width:2.0;" width="97.8887" x="27.06" y="875.93"/><ellipse cx="40.06" cy="890.3519" fill="#FFFFFF" rx="9" ry="9" style="stroke:#000000;stroke-width:1.0;"/><path d="M37.0678,887.6273 L37.0678,886.1038 L42.2768,886.1038 L42.2768,887.6273 L40.5366,887.6273 L40.5366,893.3284 L42.2768,893.3284 L42.2768,894.8519 L37.0678,894.8519 L37.0678,893.3284 L38.808,893.3284 L38.808,887.6273 Z " fill="#CAD3F5"/><text fill="#A6DA95" font-family="sans-serif" font-size="16" font-style="italic" lengthAdjust="spacing" textLength="58.9922" x="52.06" y="896.3988">Functor</text><rect fill="#24273A" height="16.584" style="stroke:#C6A0F6;stroke-width:1.0;stroke-dasharray:2.0,2.0;" width="8.8965" x="119.0522" y="872.93"/><text fill="#000000" font-family="Verdana" font-size="12" font-style="italic" lengthAdjust="spacing" textLength="6.8965" x="120.0522" y="885.9945">F</text></g><!--class Applicative--><g id="elem_Applicative"><rect codeLine="11" fill="#24273A" height="28.8438" id="Applicative" rx="1.5" ry="1.5" style="stroke:#C6A0F6;stroke-width:2.0;" width="124.1621" x="159.92" y="875.93"/><rect fill="#363A4F" height="28.8438" rx="1.5" ry="1.5" style="stroke:#363A4F;stroke-width:2.0;" width="124.1621" x="159.92" y="875.93"/><rect fill="#363A4F" height="1.5" style="stroke:#363A4F;stroke-width:2.0;" width="124.1621" x="159.92" y="903.2738"/><rect codeLine="11" fill="none" height="28.8438" id="Applicative" rx="1.5" ry="1.5" style="stroke:#C6A0F6;stroke-width:2.0;" width="124.1621" x="159.92" y="875.93"/><ellipse cx="172.92" cy="890.3519" fill="#FFFFFF" rx="9" ry="9" style="stroke:#000000;stroke-width:1.0;"/><path d="M169.9278,887.6273 L169.9278,886.1038 L175.1368,886.1038 L175.1368,887.6273 L173.3966,887.6273 L173.3966,893.3284 L175.1368,893.3284 L175.1368,894.8519 L169.9278,894.8519 L169.9278,893.3284 L171.668,893.3284 L171.668,887.6273 Z " fill="#CAD3F5"/><text fill="#A6DA95" font-family="sans-serif" font-size="16" font-style="italic" lengthAdjust="spacing" textLength="85.2656" x="184.92" y="896.3988">Applicative</text><rect fill="#24273A" height="16.584" style="stroke:#C6A0F6;stroke-width:1.0;stroke-dasharray:2.0,2.0;" width="8.8965" x="278.1856" y="872.93"/><text fill="#000000" font-family="Verdana" font-size="12" font-style="italic" lengthAdjust="spacing" textLength="6.8965" x="279.1856" y="885.9945">F</text></g><!--class Monad--><g id="elem_Monad"><rect codeLine="12" fill="#24273A" height="28.8438" id="Monad" rx="1.5" ry="1.5" style="stroke:#C6A0F6;stroke-width:2.0;" width="91.3418" x="30.33" y="965.78"/><rect fill="#363A4F" height="28.8438" rx="1.5" ry="1.5" style="stroke:#363A4F;stroke-width:2.0;" width="91.3418" x="30.33" y="965.78"/><rect fill="#363A4F" height="1.5" style="stroke:#363A4F;stroke-width:2.0;" width="91.3418" x="30.33" y="993.1238"/><rect codeLine="12" fill="none" height="28.8438" id="Monad" rx="1.5" ry="1.5" style="stroke:#C6A0F6;stroke-width:2.0;" width="91.3418" x="30.33" y="965.78"/><ellipse cx="43.33" cy="980.2019" fill="#FFFFFF" rx="9" ry="9" style="stroke:#000000;stroke-width:1.0;"/><path d="M40.3378,977.4773 L40.3378,975.9538 L45.5468,975.9538 L45.5468,977.4773 L43.8066,977.4773 L43.8066,983.1784 L45.5468,983.1784 L45.5468,984.7019 L40.3378,984.7019 L40.3378,983.1784 L42.078,983.1784 L42.078,977.4773 Z " fill="#CAD3F5"/><text fill="#A6DA95" font-family="sans-serif" font-size="16" font-style="italic" lengthAdjust="spacing" textLength="52.4453" x="55.33" y="986.2488">Monad</text><rect fill="#24273A" height="16.584" style="stroke:#C6A0F6;stroke-width:1.0;stroke-dasharray:2.0,2.0;" width="8.8965" x="115.7753" y="962.78"/><text fill="#000000" font-family="Verdana" font-size="12" font-style="italic" lengthAdjust="spacing" textLength="6.8965" x="116.7753" y="975.8445">F</text></g><!--class Reader--><g id="elem_Reader"><rect codeLine="16" fill="#24273A" height="136.2246" id="Reader" rx="1.5" ry="1.5" style="stroke:#C6A0F6;stroke-width:2.0;" width="332.4844" x="1195.76" y="642.71"/><rect fill="#363A4F" height="43.4277" rx="1.5" ry="1.5" style="stroke:#363A4F;stroke-width:2.0;" width="332.4844" x="1195.76" y="642.71"/><rect fill="#363A4F" height="1.5" style="stroke:#363A4F;stroke-width:2.0;" width="332.4844" x="1195.76" y="684.6377"/><rect codeLine="16" fill="none" height="136.2246" id="Reader" rx="1.5" ry="1.5" style="stroke:#C6A0F6;stroke-width:2.0;" width="332.4844" x="1195.76" y="642.71"/><ellipse cx="1277.7473" cy="664.4239" fill="#FFFFFF" rx="9" ry="9" style="stroke:#000000;stroke-width:1.0;"/><path d="M1274.7551,661.6993 L1274.7551,660.1758 L1279.9641,660.1758 L1279.9641,661.6993 L1278.2239,661.6993 L1278.2239,667.4004 L1279.9641,667.4004 L1279.9641,668.9239 L1274.7551,668.9239 L1274.7551,667.4004 L1276.4954,667.4004 L1276.4954,661.6993 Z " fill="#CAD3F5"/><text fill="#000000" font-family="Verdana" font-size="12" font-style="italic" lengthAdjust="spacing" textLength="135.8906" x="1293.2473" y="659.7745">&#171;Functional Interface&#187;</text><text fill="#A6DA95" font-family="sans-serif" font-size="16" font-style="italic" lengthAdjust="spacing" textLength="53.3984" x="1334.4934" y="677.7627">Reader</text><rect fill="#24273A" height="16.584" style="stroke:#C6A0F6;stroke-width:1.0;stroke-dasharray:2.0,2.0;" width="27.1191" x="1504.1252" y="639.71"/><text fill="#000000" font-family="Verdana" font-size="12" font-style="italic" lengthAdjust="spacing" textLength="25.1191" x="1505.1252" y="652.7745">R, A</text><line style="stroke:#C6A0F6;stroke-width:2.0;" x1="1196.76" x2="1527.2444" y1="686.1377" y2="686.1377"/><text fill="#A6DA95" font-family="sans-serif" font-size="12" lengthAdjust="spacing" textLength="65.5195" x="1201.76" y="701.7393">+A run(R r)</text><text fill="#A6DA95" font-family="sans-serif" font-size="12" lengthAdjust="spacing" text-decoration="underline" textLength="237.5508" x="1201.76" y="715.8721">+Reader&lt;R, A&gt; of(Function&lt;R, A&gt; func)</text><text fill="#A6DA95" font-family="sans-serif" font-size="12" lengthAdjust="spacing" text-decoration="underline" textLength="196.377" x="1201.76" y="730.0049">+Reader&lt;R, A&gt; constant(A value)</text><text fill="#A6DA95" font-family="sans-serif" font-size="12" lengthAdjust="spacing" text-decoration="underline" textLength="122.7949" x="1201.76" y="744.1377">+Reader&lt;R, R&gt; ask()</text><text fill="#A6DA95" font-family="sans-serif" font-size="12" lengthAdjust="spacing" textLength="228.0469" x="1201.76" y="758.2705">+Reader&lt;R, B&gt; map(Function&lt;A, B&gt; f)</text><text fill="#A6DA95" font-family="sans-serif" font-size="12" lengthAdjust="spacing" textLength="320.4844" x="1201.76" y="772.4034">+Reader&lt;R, B&gt; flatMap(Function&lt;A, Reader&lt;R, B&gt;&gt; f)</text></g><!--class ReaderKindHelper--><g id="elem_ReaderKindHelper"><rect codeLine="29" fill="#24273A" height="121.6406" id="ReaderKindHelper" rx="1.5" ry="1.5" style="stroke:#C6A0F6;stroke-width:2.0;" width="425.5547" x="812.22" y="44"/><rect fill="#363A4F" height="28.8438" rx="1.5" ry="1.5" style="stroke:#363A4F;stroke-width:2.0;" width="425.5547" x="812.22" y="44"/><rect fill="#363A4F" height="1.5" style="stroke:#363A4F;stroke-width:2.0;" width="425.5547" x="812.22" y="71.3438"/><rect codeLine="29" fill="none" height="121.6406" id="ReaderKindHelper" rx="1.5" ry="1.5" style="stroke:#C6A0F6;stroke-width:2.0;" width="425.5547" x="812.22" y="44"/><ellipse cx="951.5989" cy="58.4219" fill="#FFFFFF" rx="9" ry="9" style="stroke:#000000;stroke-width:1.0;"/><path d="M953.4329,62.6699 Q953.0227,62.8809 952.5716,62.9863 Q952.1204,63.0918 951.6223,63.0918 Q949.8528,63.0918 948.9212,61.9258 Q947.9895,60.7598 947.9895,58.5566 Q947.9895,56.3477 948.9212,55.1816 Q949.8528,54.0156 951.6223,54.0156 Q952.1204,54.0156 952.5774,54.1211 Q953.0345,54.2266 953.4329,54.4375 L953.4329,56.3594 Q952.9876,55.9492 952.5686,55.7588 Q952.1497,55.5684 951.7044,55.5684 Q950.7552,55.5684 950.2718,56.3213 Q949.7884,57.0742 949.7884,58.5566 Q949.7884,60.0332 950.2718,60.7861 Q950.7552,61.5391 951.7044,61.5391 Q952.1497,61.5391 952.5686,61.3486 Q952.9876,61.1582 953.4329,60.748 Z " fill="#CAD3F5"/><text fill="#A6DA95" font-family="sans-serif" font-size="16" lengthAdjust="spacing" textLength="139.2969" x="969.0989" y="64.4688">ReaderKindHelper</text><line style="stroke:#C6A0F6;stroke-width:2.0;" x1="813.22" x2="1236.7747" y1="72.8438" y2="72.8438"/><text fill="#A6DA95" font-family="sans-serif" font-size="12" lengthAdjust="spacing" text-decoration="underline" textLength="378.8965" x="818.22" y="88.4453">+Reader&lt;R, A&gt; unwrap(Kind&lt;ReaderKind.Witness&lt;R&gt;, A&gt; kind)</text><text fill="#A6DA95" font-family="sans-serif" font-size="12" lengthAdjust="spacing" text-decoration="underline" textLength="282.123" x="818.22" y="102.5781">+ReaderKind&lt;R, A&gt; wrap(Reader&lt;R, A&gt; reader)</text><text fill="#A6DA95" font-family="sans-serif" font-size="12" lengthAdjust="spacing" text-decoration="underline" textLength="334.043" x="818.22" y="116.7109">+ReaderKind&lt;R, A&gt; reader(Function&lt;R, A&gt; runFunction)</text><text fill="#A6DA95" font-family="sans-serif" font-size="12" lengthAdjust="spacing" text-decoration="underline" textLength="222.6797" x="818.22" y="130.8438">+ReaderKind&lt;R, A&gt; constant(A value)</text><text fill="#A6DA95" font-family="sans-serif" font-size="12" lengthAdjust="spacing" text-decoration="underline" textLength="149.0977" x="818.22" y="144.9766">+ReaderKind&lt;R, R&gt; ask()</text><text fill="#A6DA95" font-family="sans-serif" font-size="12" lengthAdjust="spacing" text-decoration="underline" textLength="413.5547" x="818.22" y="159.1094">+A runReader(Kind&lt;ReaderKind.Witness&lt;R&gt;, A&gt; kind, R environment)</text></g><!--class ReaderFunctor--><g id="elem_ReaderFunctor"><rect codeLine="38" fill="#24273A" height="50.9766" id="ReaderFunctor" rx="1.5" ry="1.5" style="stroke:#C6A0F6;stroke-width:2.0;" width="585.2051" x="545.4" y="226.65"/><rect fill="#363A4F" height="28.8438" rx="1.5" ry="1.5" style="stroke:#363A4F;stroke-width:2.0;" width="585.2051" x="545.4" y="226.65"/><rect fill="#363A4F" height="1.5" style="stroke:#363A4F;stroke-width:2.0;" width="585.2051" x="545.4" y="253.9937"/><rect codeLine="38" fill="none" height="50.9766" id="ReaderFunctor" rx="1.5" ry="1.5" style="stroke:#C6A0F6;stroke-width:2.0;" width="585.2051" x="545.4" y="226.65"/><ellipse cx="771.8854" cy="241.0719" fill="#FFFFFF" rx="9" ry="9" style="stroke:#000000;stroke-width:1.0;"/><path d="M773.7193,245.3199 Q773.3092,245.5309 772.858,245.6363 Q772.4068,245.7418 771.9088,245.7418 Q770.1393,245.7418 769.2076,244.5758 Q768.276,243.4098 768.276,241.2066 Q768.276,238.9977 769.2076,237.8316 Q770.1393,236.6656 771.9088,236.6656 Q772.4068,236.6656 772.8639,236.7711 Q773.3209,236.8766 773.7193,237.0875 L773.7193,239.0094 Q773.274,238.5992 772.8551,238.4088 Q772.4361,238.2184 771.9908,238.2184 Q771.0416,238.2184 770.5582,238.9713 Q770.0748,239.7242 770.0748,241.2066 Q770.0748,242.6832 770.5582,243.4361 Q771.0416,244.1891 771.9908,244.1891 Q772.4361,244.1891 772.8551,243.9986 Q773.274,243.8082 773.7193,243.398 Z " fill="#CAD3F5"/><text fill="#A6DA95" font-family="sans-serif" font-size="16" lengthAdjust="spacing" textLength="112.3906" x="789.3854" y="247.1187">ReaderFunctor</text><rect fill="#24273A" height="16.584" style="stroke:#C6A0F6;stroke-width:1.0;stroke-dasharray:2.0,2.0;" width="10.3438" x="1123.2613" y="223.65"/><text fill="#000000" font-family="Verdana" font-size="12" font-style="italic" lengthAdjust="spacing" textLength="8.3438" x="1124.2613" y="236.7145">R</text><line style="stroke:#C6A0F6;stroke-width:2.0;" x1="546.4" x2="1129.6051" y1="255.4937" y2="255.4937"/><text fill="#A6DA95" font-family="sans-serif" font-size="12" lengthAdjust="spacing" textLength="573.2051" x="551.4" y="271.0953">+Kind&lt;ReaderKind.Witness&lt;R&gt;, B&gt; map(Function&lt;A, B&gt; f, Kind&lt;ReaderKind.Witness&lt;R&gt;, A&gt; fa)</text></g><!--class Functor--><g id="elem_Functor"><rect fill="#24273A" height="28.8438" id="Functor" rx="1.5" ry="1.5" style="stroke:#C6A0F6;stroke-width:2.0;" width="86.9922" x="1272.5" y="90.4"/><rect fill="#363A4F" height="28.8438" rx="1.5" ry="1.5" style="stroke:#363A4F;stroke-width:2.0;" width="86.9922" x="1272.5" y="90.4"/><rect fill="#363A4F" height="1.5" style="stroke:#363A4F;stroke-width:2.0;" width="86.9922" x="1272.5" y="117.7437"/><rect fill="none" height="28.8438" id="Functor" rx="1.5" ry="1.5" style="stroke:#C6A0F6;stroke-width:2.0;" width="86.9922" x="1272.5" y="90.4"/><ellipse cx="1285.5" cy="104.8219" fill="#FFFFFF" rx="9" ry="9" style="stroke:#000000;stroke-width:1.0;"/><path d="M1282.5078,102.0973 L1282.5078,100.5738 L1287.7168,100.5738 L1287.7168,102.0973 L1285.9766,102.0973 L1285.9766,107.7984 L1287.7168,107.7984 L1287.7168,109.3219 L1282.5078,109.3219 L1282.5078,107.7984 L1284.248,107.7984 L1284.248,102.0973 Z " fill="#CAD3F5"/><text fill="#A6DA95" font-family="sans-serif" font-size="16" font-style="italic" lengthAdjust="spacing" textLength="58.9922" x="1297.5" y="110.8687">Functor</text></g><!--class ReaderApplicative--><g id="elem_ReaderApplicative"><rect codeLine="41" fill="#24273A" height="65.1094" id="ReaderApplicative" rx="1.5" ry="1.5" style="stroke:#C6A0F6;stroke-width:2.0;" width="772.793" x="492.6" y="353.62"/><rect fill="#363A4F" height="28.8438" rx="1.5" ry="1.5" style="stroke:#363A4F;stroke-width:2.0;" width="772.793" x="492.6" y="353.62"/><rect fill="#363A4F" height="1.5" style="stroke:#363A4F;stroke-width:2.0;" width="772.793" x="492.6" y="380.9638"/><rect codeLine="41" fill="none" height="65.1094" id="ReaderApplicative" rx="1.5" ry="1.5" style="stroke:#C6A0F6;stroke-width:2.0;" width="772.793" x="492.6" y="353.62"/><ellipse cx="799.7426" cy="368.0419" fill="#FFFFFF" rx="9" ry="9" style="stroke:#000000;stroke-width:1.0;"/><path d="M801.5766,372.2899 Q801.1664,372.5009 800.7152,372.6063 Q800.2641,372.7118 799.766,372.7118 Q797.9965,372.7118 797.0648,371.5458 Q796.1332,370.3798 796.1332,368.1766 Q796.1332,365.9677 797.0648,364.8016 Q797.9965,363.6356 799.766,363.6356 Q800.2641,363.6356 800.7211,363.7411 Q801.1781,363.8466 801.5766,364.0575 L801.5766,365.9794 Q801.1313,365.5692 800.7123,365.3788 Q800.2934,365.1884 799.848,365.1884 Q798.8988,365.1884 798.4154,365.9413 Q797.932,366.6942 797.932,368.1766 Q797.932,369.6532 798.4154,370.4061 Q798.8988,371.1591 799.848,371.1591 Q800.2934,371.1591 800.7123,370.9686 Q801.1313,370.7782 801.5766,370.368 Z " fill="#CAD3F5"/><text fill="#A6DA95" font-family="sans-serif" font-size="16" lengthAdjust="spacing" textLength="138.6641" x="817.2426" y="374.0888">ReaderApplicative</text><rect fill="#24273A" height="16.584" style="stroke:#C6A0F6;stroke-width:1.0;stroke-dasharray:2.0,2.0;" width="10.3438" x="1258.0492" y="350.62"/><text fill="#000000" font-family="Verdana" font-size="12" font-style="italic" lengthAdjust="spacing" textLength="8.3438" x="1259.0492" y="363.6845">R</text><line style="stroke:#C6A0F6;stroke-width:2.0;" x1="493.6" x2="1264.393" y1="382.4638" y2="382.4638"/><text fill="#A6DA95" font-family="sans-serif" font-size="12" lengthAdjust="spacing" textLength="278.0977" x="498.6" y="398.0653">+Kind&lt;ReaderKind.Witness&lt;R&gt;, A&gt; of(A value)</text><text fill="#A6DA95" font-family="sans-serif" font-size="12" lengthAdjust="spacing" textLength="760.793" x="498.6" y="412.1981">+Kind&lt;ReaderKind.Witness&lt;R&gt;, B&gt; ap(Kind&lt;ReaderKind.Witness&lt;R&gt;, Function&lt;A, B&gt;&gt; ff, Kind&lt;ReaderKind.Witness&lt;R&gt;, A&gt; fa)</text></g><!--class Applicative--><g id="elem_Applicative"><rect fill="#24273A" height="28.8438" id="Applicative" rx="1.5" ry="1.5" style="stroke:#C6A0F6;stroke-width:2.0;" width="113.2656" x="1165.37" y="237.71"/><rect fill="#363A4F" height="28.8438" rx="1.5" ry="1.5" style="stroke:#363A4F;stroke-width:2.0;" width="113.2656" x="1165.37" y="237.71"/><rect fill="#363A4F" height="1.5" style="stroke:#363A4F;stroke-width:2.0;" width="113.2656" x="1165.37" y="265.0538"/><rect fill="none" height="28.8438" id="Applicative" rx="1.5" ry="1.5" style="stroke:#C6A0F6;stroke-width:2.0;" width="113.2656" x="1165.37" y="237.71"/><ellipse cx="1178.37" cy="252.1319" fill="#FFFFFF" rx="9" ry="9" style="stroke:#000000;stroke-width:1.0;"/><path d="M1175.3778,249.4073 L1175.3778,247.8838 L1180.5868,247.8838 L1180.5868,249.4073 L1178.8466,249.4073 L1178.8466,255.1084 L1180.5868,255.1084 L1180.5868,256.6319 L1175.3778,256.6319 L1175.3778,255.1084 L1177.118,255.1084 L1177.118,249.4073 Z " fill="#CAD3F5"/><text fill="#A6DA95" font-family="sans-serif" font-size="16" font-style="italic" lengthAdjust="spacing" textLength="85.2656" x="1190.37" y="258.1788">Applicative</text></g><!--class ReaderMonad--><g id="elem_ReaderMonad"><rect codeLine="45" fill="#24273A" height="50.9766" id="ReaderMonad" rx="1.5" ry="1.5" style="stroke:#C6A0F6;stroke-width:2.0;" width="804.5039" x="517.75" y="494.73"/><rect fill="#363A4F" height="28.8438" rx="1.5" ry="1.5" style="stroke:#363A4F;stroke-width:2.0;" width="804.5039" x="517.75" y="494.73"/><rect fill="#363A4F" height="1.5" style="stroke:#363A4F;stroke-width:2.0;" width="804.5039" x="517.75" y="522.0738"/><rect codeLine="45" fill="none" height="50.9766" id="ReaderMonad" rx="1.5" ry="1.5" style="stroke:#C6A0F6;stroke-width:2.0;" width="804.5039" x="517.75" y="494.73"/><ellipse cx="857.1582" cy="509.1519" fill="#FFFFFF" rx="9" ry="9" style="stroke:#000000;stroke-width:1.0;"/><path d="M858.9922,513.3999 Q858.582,513.6109 858.1309,513.7163 Q857.6797,513.8218 857.1816,513.8218 Q855.4121,513.8218 854.4805,512.6558 Q853.5488,511.4898 853.5488,509.2866 Q853.5488,507.0777 854.4805,505.9116 Q855.4121,504.7456 857.1816,504.7456 Q857.6797,504.7456 858.1367,504.8511 Q858.5938,504.9566 858.9922,505.1675 L858.9922,507.0894 Q858.5469,506.6792 858.1279,506.4888 Q857.709,506.2984 857.2637,506.2984 Q856.3145,506.2984 855.8311,507.0513 Q855.3477,507.8042 855.3477,509.2866 Q855.3477,510.7632 855.8311,511.5161 Q856.3145,512.2691 857.2637,512.2691 Q857.709,512.2691 858.1279,512.0786 Q858.5469,511.8882 858.9922,511.478 Z " fill="#CAD3F5"/><text fill="#A6DA95" font-family="sans-serif" font-size="16" lengthAdjust="spacing" textLength="105.8438" x="874.6582" y="515.1988">ReaderMonad</text><rect fill="#24273A" height="16.584" style="stroke:#C6A0F6;stroke-width:1.0;stroke-dasharray:2.0,2.0;" width="10.3438" x="1314.9102" y="491.73"/><text fill="#000000" font-family="Verdana" font-size="12" font-style="italic" lengthAdjust="spacing" textLength="8.3438" x="1315.9102" y="504.7945">R</text><line style="stroke:#C6A0F6;stroke-width:2.0;" x1="518.75" x2="1321.2539" y1="523.5738" y2="523.5738"/><text fill="#A6DA95" font-family="sans-serif" font-size="12" lengthAdjust="spacing" textLength="792.5039" x="523.75" y="539.1753">+Kind&lt;ReaderKind.Witness&lt;R&gt;, B&gt; flatMap(Function&lt;A, Kind&lt;ReaderKind.Witness&lt;R&gt;, B&gt;&gt; f, Kind&lt;ReaderKind.Witness&lt;R&gt;, A&gt; ma)</text></g><!--class Monad--><g id="elem_Monad"><rect fill="#24273A" height="28.8438" id="Monad" rx="1.5" ry="1.5" style="stroke:#C6A0F6;stroke-width:2.0;" width="80.4453" x="1300.78" y="371.75"/><rect fill="#363A4F" height="28.8438" rx="1.5" ry="1.5" style="stroke:#363A4F;stroke-width:2.0;" width="80.4453" x="1300.78" y="371.75"/><rect fill="#363A4F" height="1.5" style="stroke:#363A4F;stroke-width:2.0;" width="80.4453" x="1300.78" y="399.0938"/><rect fill="none" height="28.8438" id="Monad" rx="1.5" ry="1.5" style="stroke:#C6A0F6;stroke-width:2.0;" width="80.4453" x="1300.78" y="371.75"/><ellipse cx="1313.78" cy="386.1719" fill="#FFFFFF" rx="9" ry="9" style="stroke:#000000;stroke-width:1.0;"/><path d="M1310.7878,383.4473 L1310.7878,381.9238 L1315.9968,381.9238 L1315.9968,383.4473 L1314.2566,383.4473 L1314.2566,389.1484 L1315.9968,389.1484 L1315.9968,390.6719 L1310.7878,390.6719 L1310.7878,389.1484 L1312.528,389.1484 L1312.528,383.4473 Z " fill="#CAD3F5"/><text fill="#A6DA95" font-family="sans-serif" font-size="16" font-style="italic" lengthAdjust="spacing" textLength="52.4453" x="1325.78" y="392.2188">Monad</text></g><!--class Witness<R>, A>--><g id="elem_Witness&lt;R&gt;, A&gt;"><rect codeLine="27" fill="#24273A" height="28.8438" id="Witness&lt;R&gt;, A&gt;" rx="1.5" ry="1.5" style="stroke:#C6A0F6;stroke-width:2.0;" width="156.8906" x="568.55" y="90.4"/><rect fill="#363A4F" height="28.8438" rx="1.5" ry="1.5" style="stroke:#363A4F;stroke-width:2.0;" width="156.8906" x="568.55" y="90.4"/><rect fill="#363A4F" height="1.5" style="stroke:#363A4F;stroke-width:2.0;" width="156.8906" x="568.55" y="117.7437"/><rect codeLine="27" fill="none" height="28.8438" id="Witness&lt;R&gt;, A&gt;" rx="1.5" ry="1.5" style="stroke:#C6A0F6;stroke-width:2.0;" width="156.8906" x="568.55" y="90.4"/><ellipse cx="581.55" cy="104.8219" fill="#FFFFFF" rx="9" ry="9" style="stroke:#000000;stroke-width:1.0;"/><path d="M578.5578,102.0973 L578.5578,100.5738 L583.7668,100.5738 L583.7668,102.0973 L582.0266,102.0973 L582.0266,107.7984 L583.7668,107.7984 L583.7668,109.3219 L578.5578,109.3219 L578.5578,107.7984 L580.298,107.7984 L580.298,102.0973 Z " fill="#CAD3F5"/><text fill="#A6DA95" font-family="sans-serif" font-size="16" font-style="italic" lengthAdjust="spacing" textLength="128.8906" x="593.55" y="110.8687">Witness&lt;R&gt;, A&gt;</text></g><!--class ReaderKind--><g id="elem_ReaderKind"><rect fill="#24273A" height="28.8438" id="ReaderKind" rx="1.5" ry="1.5" style="stroke:#C6A0F6;stroke-width:2.0;" width="116.4688" x="305.77" y="696.4"/><rect fill="#363A4F" height="28.8438" rx="1.5" ry="1.5" style="stroke:#363A4F;stroke-width:2.0;" width="116.4688" x="305.77" y="696.4"/><rect fill="#363A4F" height="1.5" style="stroke:#363A4F;stroke-width:2.0;" width="116.4688" x="305.77" y="723.7438"/><rect fill="none" height="28.8438" id="ReaderKind" rx="1.5" ry="1.5" style="stroke:#C6A0F6;stroke-width:2.0;" width="116.4688" x="305.77" y="696.4"/><ellipse cx="318.77" cy="710.8219" fill="#FFFFFF" rx="9" ry="9" style="stroke:#000000;stroke-width:1.0;"/><path d="M320.604,715.0699 Q320.1938,715.2809 319.7427,715.3863 Q319.2915,715.4918 318.7934,715.4918 Q317.0239,715.4918 316.0923,714.3258 Q315.1606,713.1598 315.1606,710.9566 Q315.1606,708.7477 316.0923,707.5816 Q317.0239,706.4156 318.7934,706.4156 Q319.2915,706.4156 319.7485,706.5211 Q320.2055,706.6266 320.604,706.8375 L320.604,708.7594 Q320.1587,708.3492 319.7397,708.1588 Q319.3208,707.9684 318.8755,707.9684 Q317.9263,707.9684 317.4429,708.7213 Q316.9595,709.4742 316.9595,710.9566 Q316.9595,712.4332 317.4429,713.1861 Q317.9263,713.9391 318.8755,713.9391 Q319.3208,713.9391 319.7397,713.7486 Q320.1587,713.5582 320.604,713.148 Z " fill="#CAD3F5"/><text fill="#A6DA95" font-family="sans-serif" font-size="16" lengthAdjust="spacing" textLength="88.4688" x="330.77" y="716.8688">ReaderKind</text></g><!--class Functor--><g id="elem_Functor"><rect fill="#24273A" height="28.8438" id="Functor" rx="1.5" ry="1.5" style="stroke:#C6A0F6;stroke-width:2.0;" width="86.9922" x="370.5" y="371.75"/><rect fill="#363A4F" height="28.8438" rx="1.5" ry="1.5" style="stroke:#363A4F;stroke-width:2.0;" width="86.9922" x="370.5" y="371.75"/><rect fill="#363A4F" height="1.5" style="stroke:#363A4F;stroke-width:2.0;" width="86.9922" x="370.5" y="399.0938"/><rect fill="none" height="28.8438" id="Functor" rx="1.5" ry="1.5" style="stroke:#C6A0F6;stroke-width:2.0;" width="86.9922" x="370.5" y="371.75"/><ellipse cx="383.5" cy="386.1719" fill="#FFFFFF" rx="9" ry="9" style="stroke:#000000;stroke-width:1.0;"/><path d="M385.334,390.4199 Q384.9238,390.6309 384.4727,390.7363 Q384.0215,390.8418 383.5234,390.8418 Q381.7539,390.8418 380.8223,389.6758 Q379.8906,388.5098 379.8906,386.3066 Q379.8906,384.0977 380.8223,382.9316 Q381.7539,381.7656 383.5234,381.7656 Q384.0215,381.7656 384.4785,381.8711 Q384.9355,381.9766 385.334,382.1875 L385.334,384.1094 Q384.8887,383.6992 384.4697,383.5088 Q384.0508,383.3184 383.6055,383.3184 Q382.6563,383.3184 382.1729,384.0713 Q381.6895,384.8242 381.6895,386.3066 Q381.6895,387.7832 382.1729,388.5361 Q382.6563,389.2891 383.6055,389.2891 Q384.0508,389.2891 384.4697,389.0986 Q384.8887,388.9082 385.334,388.498 Z " fill="#CAD3F5"/><text fill="#A6DA95" font-family="sans-serif" font-size="16" lengthAdjust="spacing" textLength="58.9922" x="395.5" y="392.2188">Functor</text></g><!--class Applicative--><g id="elem_Applicative"><rect fill="#24273A" height="28.8438" id="Applicative" rx="1.5" ry="1.5" style="stroke:#C6A0F6;stroke-width:2.0;" width="113.2656" x="347.37" y="505.8"/><rect fill="#363A4F" height="28.8438" rx="1.5" ry="1.5" style="stroke:#363A4F;stroke-width:2.0;" width="113.2656" x="347.37" y="505.8"/><rect fill="#363A4F" height="1.5" style="stroke:#363A4F;stroke-width:2.0;" width="113.2656" x="347.37" y="533.1438"/><rect fill="none" height="28.8438" id="Applicative" rx="1.5" ry="1.5" style="stroke:#C6A0F6;stroke-width:2.0;" width="113.2656" x="347.37" y="505.8"/><ellipse cx="360.37" cy="520.2219" fill="#FFFFFF" rx="9" ry="9" style="stroke:#000000;stroke-width:1.0;"/><path d="M362.204,524.4699 Q361.7938,524.6809 361.3427,524.7863 Q360.8915,524.8918 360.3934,524.8918 Q358.6239,524.8918 357.6923,523.7258 Q356.7606,522.5598 356.7606,520.3566 Q356.7606,518.1477 357.6923,516.9816 Q358.6239,515.8156 360.3934,515.8156 Q360.8915,515.8156 361.3485,515.9211 Q361.8055,516.0266 362.204,516.2375 L362.204,518.1594 Q361.7587,517.7492 361.3397,517.5588 Q360.9208,517.3684 360.4755,517.3684 Q359.5263,517.3684 359.0429,518.1213 Q358.5595,518.8742 358.5595,520.3566 Q358.5595,521.8332 359.0429,522.5861 Q359.5263,523.3391 360.4755,523.3391 Q360.9208,523.3391 361.3397,523.1486 Q361.7587,522.9582 362.204,522.548 Z " fill="#CAD3F5"/><text fill="#A6DA95" font-family="sans-serif" font-size="16" lengthAdjust="spacing" textLength="85.2656" x="372.37" y="526.2688">Applicative</text></g><!--class Monad--><g id="elem_Monad"><rect fill="#24273A" height="28.8438" id="Monad" rx="1.5" ry="1.5" style="stroke:#C6A0F6;stroke-width:2.0;" width="80.4453" x="879.78" y="696.4"/><rect fill="#363A4F" height="28.8438" rx="1.5" ry="1.5" style="stroke:#363A4F;stroke-width:2.0;" width="80.4453" x="879.78" y="696.4"/><rect fill="#363A4F" height="1.5" style="stroke:#363A4F;stroke-width:2.0;" width="80.4453" x="879.78" y="723.7438"/><rect fill="none" height="28.8438" id="Monad" rx="1.5" ry="1.5" style="stroke:#C6A0F6;stroke-width:2.0;" width="80.4453" x="879.78" y="696.4"/><ellipse cx="892.78" cy="710.8219" fill="#FFFFFF" rx="9" ry="9" style="stroke:#000000;stroke-width:1.0;"/><path d="M894.614,715.0699 Q894.2038,715.2809 893.7527,715.3863 Q893.3015,715.4918 892.8034,715.4918 Q891.0339,715.4918 890.1023,714.3258 Q889.1706,713.1598 889.1706,710.9566 Q889.1706,708.7477 890.1023,707.5816 Q891.0339,706.4156 892.8034,706.4156 Q893.3015,706.4156 893.7585,706.5211 Q894.2155,706.6266 894.614,706.8375 L894.614,708.7594 Q894.1687,708.3492 893.7497,708.1588 Q893.3308,707.9684 892.8855,707.9684 Q891.9363,707.9684 891.4529,708.7213 Q890.9695,709.4742 890.9695,710.9566 Q890.9695,712.4332 891.4529,713.1861 Q891.9363,713.9391 892.8855,713.9391 Q893.3308,713.9391 893.7497,713.7486 Q894.1687,713.5582 894.614,713.148 Z " fill="#CAD3F5"/><text fill="#A6DA95" font-family="sans-serif" font-size="16" lengthAdjust="spacing" textLength="52.4453" x="904.78" y="716.8688">Monad</text></g><!--reverse link Functor to ReaderFunctor--><g id="link_Functor_ReaderFunctor"><path d="M1294.8027,133.6628 C1283.8627,147.5328 1276.21,154.36 1255,165.65 C1200.93,194.41 1138.17,213.51 1078,226.19 " fill="none" id="Functor-backto-ReaderFunctor" style="stroke:#F5BDE6;stroke-width:1.0;stroke-dasharray:7.0,7.0;"/><polygon fill="none" points="1305.95,119.53,1290.0917,129.9471,1299.5136,137.3786,1305.95,119.53" style="stroke:#F5BDE6;stroke-width:1.0;"/></g><!--reverse link ReaderFunctor to ReaderApplicative--><g id="link_ReaderFunctor_ReaderApplicative"><path d="M837.2138,296.1091 C837.3538,309.8191 838.47,308.97 843,323.62 C846.15,333.79 851.24,344.08 856.62,353.25 " fill="none" id="ReaderFunctor-backto-ReaderApplicative" style="stroke:#F5BDE6;stroke-width:1.0;"/><polygon fill="none" points="837.03,278.11,831.2141,296.1703,843.2135,296.0478,837.03,278.11" style="stroke:#F5BDE6;stroke-width:1.0;"/></g><!--reverse link ReaderFunctor to ReaderApplicative--><g id="link_ReaderFunctor_ReaderApplicative"><path codeLine="56" d="M847.4903,283.6998 C854.1303,305.0698 861.96,330.28 869.15,353.44 " fill="none" id="ReaderFunctor-backto-ReaderApplicative-1" style="stroke:#F5BDE6;stroke-width:1.0;stroke-dasharray:7.0,7.0;"/><polygon fill="#F5BDE6" points="845.71,277.97,844.5606,287.7516,847.1936,282.7448,852.2004,285.3778,845.71,277.97" style="stroke:#F5BDE6;stroke-width:1.0;"/><text fill="#CAD3F5" font-family="sans-serif" font-size="12" lengthAdjust="spacing" textLength="46.3359" x="860.73" y="320.2216">extends</text></g><!--reverse link Applicative to ReaderApplicative--><g id="link_Applicative_ReaderApplicative"><path d="M1169.1422,273.478 C1116.4222,293.778 1033.63,325.65 962.17,353.16 " fill="none" id="Applicative-backto-ReaderApplicative" style="stroke:#F5BDE6;stroke-width:1.0;stroke-dasharray:7.0,7.0;"/><polygon fill="none" points="1185.94,267.01,1166.9862,267.8788,1171.2983,279.0773,1185.94,267.01" style="stroke:#F5BDE6;stroke-width:1.0;"/></g><!--reverse link ReaderApplicative to ReaderMonad--><g id="link_ReaderApplicative_ReaderMonad"><path d="M877.655,437.208 C877.865,451.468 879.14,450.28 884,464.73 C887.5,475.16 893.52,485.5 899.64,494.34 " fill="none" id="ReaderApplicative-backto-ReaderMonad" style="stroke:#F5BDE6;stroke-width:1.0;"/><polygon fill="none" points="877.39,419.21,871.6557,437.2964,883.6544,437.1197,877.39,419.21" style="stroke:#F5BDE6;stroke-width:1.0;"/></g><!--reverse link ReaderApplicative to ReaderMonad--><g id="link_ReaderApplicative_ReaderMonad"><path codeLine="57" d="M890.7006,424.8697 C897.9106,448.0697 905.73,473.27 912.35,494.58 " fill="none" id="ReaderApplicative-backto-ReaderMonad-1" style="stroke:#F5BDE6;stroke-width:1.0;stroke-dasharray:7.0,7.0;"/><polygon fill="#F5BDE6" points="888.92,419.14,887.7712,428.9216,890.4039,423.9147,895.4108,426.5474,888.92,419.14" style="stroke:#F5BDE6;stroke-width:1.0;"/><text fill="#CAD3F5" font-family="sans-serif" font-size="12" lengthAdjust="spacing" textLength="46.3359" x="902.95" y="461.3316">extends</text></g><!--reverse link Monad to ReaderMonad--><g id="link_Monad_ReaderMonad"><path d="M1302.8309,409.9741 C1292.3309,416.0041 1295.12,413.83 1283,418.73 C1202.67,451.2 1108.25,476.98 1035.85,494.3 " fill="none" id="Monad-backto-ReaderMonad" style="stroke:#F5BDE6;stroke-width:1.0;stroke-dasharray:7.0,7.0;"/><polygon fill="none" points="1318.44,401.01,1299.8428,404.7711,1305.8189,415.1771,1318.44,401.01" style="stroke:#F5BDE6;stroke-width:1.0;"/></g><!--link ReaderKind to Kind--><g id="link_ReaderKind_Kind"><path codeLine="51" d="M364,725.46 C364,758.58 364,842.99 364,875.91 " fill="none" id="ReaderKind-Kind" style="stroke:#F5BDE6;stroke-width:1.0;"/><text fill="#CAD3F5" font-family="sans-serif" font-size="12" lengthAdjust="spacing" textLength="46.3359" x="365" y="823.5316">extends</text></g><!--link ReaderFunctor to Functor--><g id="link_ReaderFunctor_Functor"><path codeLine="52" d="M727.21,278.09 C654.86,295.82 558.95,322.03 477,353.62 C464.1,358.59 450.32,365.32 438.94,371.29 " fill="none" id="ReaderFunctor-Functor" style="stroke:#F5BDE6;stroke-width:1.0;"/><text fill="#CAD3F5" font-family="sans-serif" font-size="12" lengthAdjust="spacing" textLength="68.3203" x="614.73" y="320.2216">implements</text></g><!--link ReaderApplicative to Applicative--><g id="link_ReaderApplicative_Applicative"><path codeLine="53" d="M751.24,419.19 C671.95,439.6 568.14,467.28 477,494.73 C466.12,498.01 454.42,501.81 443.64,505.42 " fill="none" id="ReaderApplicative-Applicative" style="stroke:#F5BDE6;stroke-width:1.0;"/><text fill="#CAD3F5" font-family="sans-serif" font-size="12" lengthAdjust="spacing" textLength="68.3203" x="632.02" y="461.3316">implements</text></g><!--link ReaderMonad to Monad--><g id="link_ReaderMonad_Monad"><path codeLine="54" d="M920,545.88 C920,586.01 920,664.19 920,695.93 " fill="none" id="ReaderMonad-Monad" style="stroke:#F5BDE6;stroke-width:1.0;"/><text fill="#CAD3F5" font-family="sans-serif" font-size="12" lengthAdjust="spacing" textLength="68.3203" x="921" y="590.3116">implements</text></g><!--link ReaderKindHelper to Reader--><g id="link_ReaderKindHelper_Reader"><path codeLine="59" d="M1228.33,166.1 C1337.95,200.08 1451,238.25 1451,251.13 C1451,251.13 1451,251.13 1451,521.22 C1451,564.3 1434.8425,602.9364 1414.2625,637.4564 " fill="none" id="ReaderKindHelper-to-Reader" style="stroke:#F5BDE6;stroke-width:1.0;stroke-dasharray:7.0,7.0;"/><polygon fill="#F5BDE6" points="1411.19,642.61,1419.2345,636.9279,1413.7504,638.3153,1412.363,632.8312,1411.19,642.61" style="stroke:#F5BDE6;stroke-width:1.0;"/><text fill="#CAD3F5" font-family="sans-serif" font-size="12" lengthAdjust="spacing" textLength="97.3008" x="1452" y="390.7816">creates/unwraps</text></g><!--link ReaderKindHelper to ReaderKind--><g id="link_ReaderKindHelper_ReaderKind"><path codeLine="60" d="M811.95,151.65 C788.04,156.51 764.02,161.27 741,165.65 C629.4,186.86 237,137.53 237,251.13 C237,251.13 237,251.13 237,521.22 C237,598.2 306.0368,663.5422 341.1468,692.1222 " fill="none" id="ReaderKindHelper-to-ReaderKind" style="stroke:#F5BDE6;stroke-width:1.0;stroke-dasharray:7.0,7.0;"/><polygon fill="#F5BDE6" points="345.8,695.91,341.3453,687.1261,341.9223,692.7535,336.2949,693.3305,345.8,695.91" style="stroke:#F5BDE6;stroke-width:1.0;"/><text fill="#CAD3F5" font-family="sans-serif" font-size="12" lengthAdjust="spacing" textLength="97.3008" x="238" y="390.7816">creates/unwraps</text></g><!--link ReaderMonad to ReaderKind--><g id="link_ReaderMonad_ReaderKind"><path codeLine="62" d="M823.71,546.18 C789.79,555.45 751.52,566.47 717,577.71 C598.16,616.4 465.7143,668.6554 403.2943,693.8354 " fill="none" id="ReaderMonad-to-ReaderKind" style="stroke:#F5BDE6;stroke-width:1.0;stroke-dasharray:7.0,7.0;"/><polygon fill="#F5BDE6" points="397.73,696.08,407.5729,696.4226,402.3669,694.2095,404.5801,689.0035,397.73,696.08" style="stroke:#F5BDE6;stroke-width:1.0;"/><text fill="#CAD3F5" font-family="sans-serif" font-size="12" lengthAdjust="spacing" textLength="193.8047" x="718" y="590.3116">operates on &lt;ReaderKind&lt;R,?&gt;&gt;</text></g><!--link ReaderMonad to Reader--><g id="link_ReaderMonad_Reader"><path codeLine="63" d="M978.24,546.07 C1035.44,570.48 1119.7513,606.4555 1198.1313,639.8955 " fill="none" id="ReaderMonad-to-Reader" style="stroke:#F5BDE6;stroke-width:1.0;stroke-dasharray:7.0,7.0;"/><polygon fill="#F5BDE6" points="1203.65,642.25,1196.9416,635.0391,1199.0511,640.2879,1193.8022,642.3974,1203.65,642.25" style="stroke:#F5BDE6;stroke-width:1.0;"/><text fill="#CAD3F5" font-family="sans-serif" font-size="12" lengthAdjust="spacing" textLength="96.6094" x="1089.41" y="590.3116">uses methods of</text></g><!--SRC=[fLPBRwCm4BxxLqnpsLJRm9uhH9LTAMfLTG-qqfuTOufL_91jqkrM_UyxG2Yla4Gg9vZvvfk7Fu-uy3cN74n1XI8NGh6YJ3datXjt7OQMlWRFmkVbjdJSCgqyLpvWMeQAQUVfIh2GKMzCoPXGAqaPomNrUeLyofUoMDNqeKJsi7uD35e9SIz26Mgf15PGvzRUMx4jFR_378_Y7uSVFKZACreMVeFfVrCiTf7ehVRw2cvviUDUCBeWkS2okJJ-3IINMsuT8OQo5_gC-5_QShYzVu8xRC1cb76tW7S2-8ZM0lT2fT7c2jRnoB4f5VFQHfknOsrCWSczsF6fyq4hcbRcZruX2QSfj_3qPlYqWCOP9LK944LrMe4iHLTs7E-ZyFaEQx2bMYPWBplREvuAJkHZoAQpPKktjsJuUJ8C3mFjoY_NiAD5oOy7935GzxBiWJhVpnWaDLqHwzgKpM6pWlg74RuF-0pzE3JUwgGVXIoH16EdWzxZwWDl6kL_KTYfQpJGUOC_mYlkN9J45Mn1Qg9QiT2XK8K6ixO7CpVCKhrQREbu2a3HfvTpJBsAQwu1lwq_pebja6D5e9PQopaaSzgOZHd9euUhTTo0pnaFKW5NEs6rahYEMY5CpgQzjvXOI5Fm2km-R_F178FhTQoK6JrVdL0GPBGjTrnjVvaadIAFjJ88-L8xpOgOtl8J8pWXv-5qiFclpAVPfvF9ZCRMcyu-uAl7V6WL7GyvHmUIzlRND-obsLKk5yQHBWnMgve9hjksoK0GbRzzlUurJoR3gP3zpmFeUc0LhdaP80uG1cKG3-KvgR8XwW675RHWCjcbmMS4mXZkAyzTs2nGTmozdzKuObZE6AsHeuA3LX0DTjPD7C-4OXZ-4Jdyr_2vHZ7gZFm7]--></g></svg>