<svg xmlns="http://www.w3.org/2000/svg" xmlns:xlink="http://www.w3.org/1999/xlink" contentStyleType="text/css" height="724px" preserveAspectRatio="none" style="width:747px;height:724px;background:#24273A;" version="1.1" viewBox="0 0 747 724" width="747px" zoomAndPan="magnify"><defs/><g><rect fill="#24273A" height="724" style="stroke:none;stroke-width:1.0;" width="747" x="0" y="0"/><!--class Kind--><g id="elem_Kind"><rect codeLine="6" fill="#24273A" height="30" id="Kind" rx="1.5" ry="1.5" style="stroke:#C6A0F6;stroke-width:2.0;" width="148.0547" x="175.9" y="10"/><rect fill="#363A4F" height="30" rx="1.5" ry="1.5" style="stroke:#363A4F;stroke-width:2.0;" width="148.0547" x="175.9" y="10"/><rect fill="#363A4F" height="1.5" style="stroke:#363A4F;stroke-width:2.0;" width="148.0547" x="175.9" y="38.5"/><rect codeLine="6" fill="none" height="30" id="Kind" rx="1.5" ry="1.5" style="stroke:#C6A0F6;stroke-width:2.0;" width="148.0547" x="175.9" y="10"/><ellipse cx="189.9" cy="25" fill="#B4A7E5" rx="10" ry="10" style="stroke:#181818;stroke-width:1.0;"/><path d="M186.9078,22.2754 L186.9078,20.752 L192.1168,20.752 L192.1168,22.2754 L190.3766,22.2754 L190.3766,27.9766 L192.1168,27.9766 L192.1168,29.5 L186.9078,29.5 L186.9078,27.9766 L188.648,27.9766 L188.648,22.2754 Z " fill="#CAD3F5"/><text fill="#A6DA95" font-family="Helvetica" font-size="16" font-style="italic" lengthAdjust="spacing" textLength="32.0234" x="202.9" y="29.3203">Kind</text><rect fill="#24273A" height="14" style="stroke:#C6A0F6;stroke-width:1.0;stroke-dasharray:2.0,2.0;" width="84.0313" x="242.9234" y="7"/><text fill="#CAD3F5" font-family="Helvetica" font-size="12" font-style="italic" lengthAdjust="spacing" textLength="82.0313" x="243.9234" y="17.2402">F_HKT, A_VAL</text></g><!--class Monad--><g id="elem_Monad"><rect codeLine="7" fill="#24273A" height="30" id="Monad" rx="1.5" ry="1.5" style="stroke:#C6A0F6;stroke-width:2.0;" width="120.9258" x="501.46" y="407"/><rect fill="#363A4F" height="30" rx="1.5" ry="1.5" style="stroke:#363A4F;stroke-width:2.0;" width="120.9258" x="501.46" y="407"/><rect fill="#363A4F" height="1.5" style="stroke:#363A4F;stroke-width:2.0;" width="120.9258" x="501.46" y="435.5"/><rect codeLine="7" fill="none" height="30" id="Monad" rx="1.5" ry="1.5" style="stroke:#C6A0F6;stroke-width:2.0;" width="120.9258" x="501.46" y="407"/><ellipse cx="515.46" cy="422" fill="#B4A7E5" rx="10" ry="10" style="stroke:#181818;stroke-width:1.0;"/><path d="M512.4678,419.2754 L512.4678,417.752 L517.6768,417.752 L517.6768,419.2754 L515.9366,419.2754 L515.9366,424.9766 L517.6768,424.9766 L517.6768,426.5 L512.4678,426.5 L512.4678,424.9766 L514.208,424.9766 L514.208,419.2754 Z " fill="#CAD3F5"/><text fill="#A6DA95" font-family="Helvetica" font-size="16" font-style="italic" lengthAdjust="spacing" textLength="48.9219" x="528.46" y="426.3203">Monad</text><rect fill="#24273A" height="14" style="stroke:#C6A0F6;stroke-width:1.0;stroke-dasharray:2.0,2.0;" width="40.0039" x="585.3819" y="404"/><text fill="#CAD3F5" font-family="Helvetica" font-size="12" font-style="italic" lengthAdjust="spacing" textLength="38.0039" x="586.3819" y="414.2402">F_HKT</text></g><!--class ReaderT--><g id="elem_ReaderT"><rect codeLine="11" fill="#24273A" height="122" id="ReaderT" rx="1.5" ry="1.5" style="stroke:#C6A0F6;stroke-width:2.0;" width="403.1641" x="158.34" y="224"/><rect fill="#363A4F" height="38" rx="1.5" ry="1.5" style="stroke:#363A4F;stroke-width:2.0;" width="403.1641" x="158.34" y="224"/><rect fill="#363A4F" height="1.5" style="stroke:#363A4F;stroke-width:2.0;" width="403.1641" x="158.34" y="260.5"/><rect codeLine="11" fill="none" height="122" id="ReaderT" rx="1.5" ry="1.5" style="stroke:#C6A0F6;stroke-width:2.0;" width="403.1641" x="158.34" y="224"/><ellipse cx="304.1291" cy="243" fill="#ADD1B2" rx="10" ry="10" style="stroke:#181818;stroke-width:1.0;"/><path d="M305.963,247.248 Q305.5529,247.459 305.1017,247.5645 Q304.6505,247.6699 304.1525,247.6699 Q302.383,247.6699 301.4513,246.5039 Q300.5197,245.3379 300.5197,243.1348 Q300.5197,240.9258 301.4513,239.7598 Q302.383,238.5938 304.1525,238.5938 Q304.6505,238.5938 305.1076,238.6992 Q305.5646,238.8047 305.963,239.0156 L305.963,240.9375 Q305.5177,240.5273 305.0988,240.3369 Q304.6798,240.1465 304.2345,240.1465 Q303.2853,240.1465 302.8019,240.8994 Q302.3185,241.6523 302.3185,243.1348 Q302.3185,244.6113 302.8019,245.3643 Q303.2853,246.1172 304.2345,246.1172 Q304.6798,246.1172 305.0988,245.9268 Q305.5177,245.7363 305.963,245.3262 Z " fill="#CAD3F5"/><text fill="#CAD3F5" font-family="Helvetica" font-size="12" font-style="italic" lengthAdjust="spacing" textLength="47.3613" x="330.5734" y="238.2402">&#171;record&#187;</text><text fill="#A6DA95" font-family="Helvetica" font-size="16" lengthAdjust="spacing" textLength="62.25" x="323.1291" y="253.3203">ReaderT</text><rect fill="#24273A" height="14" style="stroke:#C6A0F6;stroke-width:1.0;stroke-dasharray:2.0,2.0;" width="39.3359" x="525.1681" y="221"/><text fill="#CAD3F5" font-family="Helvetica" font-size="12" font-style="italic" lengthAdjust="spacing" textLength="37.3359" x="526.1681" y="231.2402">F, R, A</text><line style="stroke:#C6A0F6;stroke-width:2.0;" x1="159.34" x2="560.5041" y1="262" y2="262"/><ellipse cx="169.34" cy="273.5" fill="none" rx="3" ry="3" style="stroke:#038048;stroke-width:1.0;"/><text fill="#A6DA95" font-family="Helvetica" font-size="12" lengthAdjust="spacing" textLength="214.2891" x="177.34" y="275.2402">@NonNull Function&lt;R, Kind&lt;F, A&gt;&gt; run</text><ellipse cx="169.34" cy="301.5" fill="#84BE84" rx="3" ry="3" style="stroke:#038048;stroke-width:1.0;"/><text fill="#A6DA95" font-family="Helvetica" font-size="12" lengthAdjust="spacing" textLength="340.8105" x="177.34" y="303.2402">static &lt;F, R, A&gt; ReaderT&lt;F, R, A&gt; of(Function&lt;R, Kind&lt;F, A&gt;&gt;)</text><ellipse cx="169.34" cy="313.5" fill="#84BE84" rx="3" ry="3" style="stroke:#038048;stroke-width:1.0;"/><text fill="#A6DA95" font-family="Helvetica" font-size="12" lengthAdjust="spacing" textLength="332.1328" x="177.34" y="315.2402">static &lt;F, R, A&gt; ReaderT&lt;F, R, A&gt; lift(Monad&lt;F&gt;, Kind&lt;F, A&gt;)</text><ellipse cx="169.34" cy="325.5" fill="#84BE84" rx="3" ry="3" style="stroke:#038048;stroke-width:1.0;"/><text fill="#A6DA95" font-family="Helvetica" font-size="12" lengthAdjust="spacing" textLength="378.1641" x="177.34" y="327.2402">static &lt;F, R, A&gt; ReaderT&lt;F, R, A&gt; reader(Monad&lt;F&gt;, Function&lt;R, A&gt;)</text><ellipse cx="169.34" cy="337.5" fill="#84BE84" rx="3" ry="3" style="stroke:#038048;stroke-width:1.0;"/><text fill="#A6DA95" font-family="Helvetica" font-size="12" lengthAdjust="spacing" textLength="258.0938" x="177.34" y="339.2402">static &lt;F, R&gt; ReaderT&lt;F, R, R&gt; ask(Monad&lt;F&gt;)</text><line style="stroke:#C6A0F6;stroke-width:1.0;" x1="159.34" x2="335.2482" y1="288" y2="288"/><text fill="#A6DA95" font-family="Helvetica" font-size="12" lengthAdjust="spacing" textLength="49.3477" x="335.2482" y="290.7402">Factories</text><line style="stroke:#C6A0F6;stroke-width:1.0;" x1="384.5959" x2="560.5041" y1="288" y2="288"/></g><!--class ReaderTKind--><g id="elem_ReaderTKind"><rect codeLine="20" fill="#24273A" height="62" id="ReaderTKind" rx="1.5" ry="1.5" style="stroke:#C6A0F6;stroke-width:2.0;" width="224.7363" x="137.56" y="101"/><rect fill="#363A4F" height="30" rx="1.5" ry="1.5" style="stroke:#363A4F;stroke-width:2.0;" width="224.7363" x="137.56" y="101"/><rect fill="#363A4F" height="1.5" style="stroke:#363A4F;stroke-width:2.0;" width="224.7363" x="137.56" y="129.5"/><rect codeLine="20" fill="none" height="62" id="ReaderTKind" rx="1.5" ry="1.5" style="stroke:#C6A0F6;stroke-width:2.0;" width="224.7363" x="137.56" y="101"/><ellipse cx="178.1671" cy="116" fill="#B4A7E5" rx="10" ry="10" style="stroke:#181818;stroke-width:1.0;"/><path d="M175.1749,113.2754 L175.1749,111.752 L180.3839,111.752 L180.3839,113.2754 L178.6437,113.2754 L178.6437,118.9766 L180.3839,118.9766 L180.3839,120.5 L175.1749,120.5 L175.1749,118.9766 L176.9152,118.9766 L176.9152,113.2754 Z " fill="#CAD3F5"/><text fill="#A6DA95" font-family="Helvetica" font-size="16" font-style="italic" lengthAdjust="spacing" textLength="94.2734" x="197.0798" y="120.3203">ReaderTKind</text><rect fill="#24273A" height="14" style="stroke:#C6A0F6;stroke-width:1.0;stroke-dasharray:2.0,2.0;" width="39.3359" x="325.9604" y="98"/><text fill="#CAD3F5" font-family="Helvetica" font-size="12" font-style="italic" lengthAdjust="spacing" textLength="37.3359" x="326.9604" y="108.2402">F, R, A</text><line style="stroke:#C6A0F6;stroke-width:2.0;" x1="138.56" x2="361.2963" y1="131" y2="131"/><text fill="#A6DA95" font-family="Helvetica" font-size="12" lengthAdjust="spacing" textLength="212.7363" x="143.56" y="144.2402">// Witness: ReaderTKind.Witness&lt;F, R&gt;</text><text fill="#A6DA95" font-family="Helvetica" font-size="12" lengthAdjust="spacing" textLength="55.3652" x="143.56" y="156.2402">// Value: A</text></g><!--class ReaderTMonad--><g id="elem_ReaderTMonad"><rect codeLine="25" fill="#24273A" height="70" id="ReaderTMonad" rx="1.5" ry="1.5" style="stroke:#C6A0F6;stroke-width:2.0;" width="348.6602" x="387.59" y="511"/><rect fill="#363A4F" height="30" rx="1.5" ry="1.5" style="stroke:#363A4F;stroke-width:2.0;" width="348.6602" x="387.59" y="511"/><rect fill="#363A4F" height="1.5" style="stroke:#363A4F;stroke-width:2.0;" width="348.6602" x="387.59" y="539.5"/><rect codeLine="25" fill="none" height="70" id="ReaderTMonad" rx="1.5" ry="1.5" style="stroke:#C6A0F6;stroke-width:2.0;" width="348.6602" x="387.59" y="511"/><ellipse cx="448.9914" cy="526" fill="#ADD1B2" rx="10" ry="10" style="stroke:#181818;stroke-width:1.0;"/><path d="M450.8254,530.248 Q450.4152,530.459 449.964,530.5645 Q449.5129,530.6699 449.0148,530.6699 Q447.2453,530.6699 446.3136,529.5039 Q445.382,528.3379 445.382,526.1348 Q445.382,523.9258 446.3136,522.7598 Q447.2453,521.5938 449.0148,521.5938 Q449.5129,521.5938 449.9699,521.6992 Q450.4269,521.8047 450.8254,522.0156 L450.8254,523.9375 Q450.38,523.5273 449.9611,523.3369 Q449.5421,523.1465 449.0968,523.1465 Q448.1476,523.1465 447.6642,523.8994 Q447.1808,524.6523 447.1808,526.1348 Q447.1808,527.6113 447.6642,528.3643 Q448.1476,529.1172 449.0968,529.1172 Q449.5421,529.1172 449.9611,528.9268 Q450.38,528.7363 450.8254,528.3262 Z " fill="#CAD3F5"/><text fill="#A6DA95" font-family="Helvetica" font-size="16" lengthAdjust="spacing" textLength="111.1719" x="467.9914" y="530.3203">ReaderTMonad</text><rect fill="#24273A" height="14" style="stroke:#C6A0F6;stroke-width:1.0;stroke-dasharray:2.0,2.0;" width="104.6855" x="634.5646" y="508"/><text fill="#CAD3F5" font-family="Helvetica" font-size="12" font-style="italic" lengthAdjust="spacing" textLength="102.6855" x="635.5646" y="518.2402">F_OUTER, R_ENV</text><line style="stroke:#C6A0F6;stroke-width:2.0;" x1="388.59" x2="735.2502" y1="541" y2="541"/><rect fill="none" height="6" style="stroke:#C82930;stroke-width:1.0;" width="6" x="395.59" y="549.5"/><text fill="#A6DA95" font-family="Helvetica" font-size="12" lengthAdjust="spacing" textLength="257.6367" x="406.59" y="554.2402">final @NonNull Monad&lt;F_OUTER&gt; outerMonad</text><line style="stroke:#C6A0F6;stroke-width:2.0;" x1="388.59" x2="735.2502" y1="561" y2="561"/><ellipse cx="398.59" cy="572.5" fill="#84BE84" rx="3" ry="3" style="stroke:#038048;stroke-width:1.0;"/><text fill="#A6DA95" font-family="Helvetica" font-size="12" lengthAdjust="spacing" textLength="323.6602" x="406.59" y="574.2402">ReaderTMonad(@NonNull Monad&lt;F_OUTER&gt; outerMonad)</text></g><!--class ReaderTKindHelper--><g id="elem_ReaderTKindHelper"><rect codeLine="31" fill="#24273A" height="62" id="ReaderTKindHelper" rx="1.5" ry="1.5" style="stroke:#C6A0F6;stroke-width:2.0;" width="465.8477" x="7" y="655"/><rect fill="#363A4F" height="30" rx="1.5" ry="1.5" style="stroke:#363A4F;stroke-width:2.0;" width="465.8477" x="7" y="655"/><rect fill="#363A4F" height="1.5" style="stroke:#363A4F;stroke-width:2.0;" width="465.8477" x="7" y="683.5"/><rect codeLine="31" fill="none" height="62" id="ReaderTKindHelper" rx="1.5" ry="1.5" style="stroke:#C6A0F6;stroke-width:2.0;" width="465.8477" x="7" y="655"/><ellipse cx="165.2207" cy="670" fill="#ADD1B2" rx="10" ry="10" style="stroke:#181818;stroke-width:1.0;"/><path d="M167.0547,674.248 Q166.6445,674.459 166.1934,674.5645 Q165.7422,674.6699 165.2441,674.6699 Q163.4746,674.6699 162.543,673.5039 Q161.6113,672.3379 161.6113,670.1348 Q161.6113,667.9258 162.543,666.7598 Q163.4746,665.5938 165.2441,665.5938 Q165.7422,665.5938 166.1992,665.6992 Q166.6563,665.8047 167.0547,666.0156 L167.0547,667.9375 Q166.6094,667.5273 166.1904,667.3369 Q165.7715,667.1465 165.3262,667.1465 Q164.377,667.1465 163.8936,667.8994 Q163.4102,668.6523 163.4102,670.1348 Q163.4102,671.6113 163.8936,672.3643 Q164.377,673.1172 165.3262,673.1172 Q165.7715,673.1172 166.1904,672.9268 Q166.6094,672.7363 167.0547,672.3262 Z " fill="#CAD3F5"/><text fill="#A6DA95" font-family="Helvetica" font-size="16" lengthAdjust="spacing" textLength="141.4063" x="184.2207" y="674.3203">ReaderTKindHelper</text><line style="stroke:#C6A0F6;stroke-width:2.0;" x1="8" x2="471.8477" y1="685" y2="685"/><ellipse cx="18" cy="696.5" fill="#84BE84" rx="3" ry="3" style="stroke:#038048;stroke-width:1.0;"/><text fill="#A6DA95" font-family="Helvetica" font-size="12" lengthAdjust="spacing" textLength="440.8477" x="26" y="698.2402">static &lt;F, R, A&gt; ReaderT&lt;F, R, A&gt; unwrap(Kind&lt;ReaderTKind.Witness&lt;F, R&gt;, A&gt;)</text><ellipse cx="18" cy="708.5" fill="#84BE84" rx="3" ry="3" style="stroke:#038048;stroke-width:1.0;"/><text fill="#A6DA95" font-family="Helvetica" font-size="12" lengthAdjust="spacing" textLength="343.459" x="26" y="710.2402">static &lt;F, R, A&gt; ReaderTKind&lt;F, R, A&gt; wrap(ReaderT&lt;F, R, A&gt;)</text></g><!--reverse link ReaderTKind to ReaderT--><g id="link_ReaderTKind_ReaderT"><path d="M270.5223,178.5697 C281.0423,195.8697 287.25,202.83 303.02,223.58 " fill="none" id="ReaderTKind-backto-ReaderT" style="stroke:#F5BDE6;stroke-width:1.0;stroke-dasharray:7.0,7.0;"/><polygon fill="none" points="261.17,163.19,265.3957,181.6871,275.6488,175.4523,261.17,163.19" style="stroke:#F5BDE6;stroke-width:1.0;"/></g><!--link ReaderT to ReaderTKind--><g id="link_ReaderT_ReaderTKind"><path codeLine="47" d="M328.8,223.58 C314.34,202.83 308.9962,194.2147 294.3162,176.9147 " fill="none" id="ReaderT-to-ReaderTKind" style="stroke:#F5BDE6;stroke-width:1.0;"/><polygon fill="none" points="282.67,163.19,289.7413,180.7967,298.891,173.0326,282.67,163.19" style="stroke:#F5BDE6;stroke-width:1.0;"/></g><!--reverse link Kind to ReaderTKind--><g id="link_Kind_ReaderTKind"><path d="M236.1939,57.6099 C232.2839,73.0599 235.8,80.8 237.91,100.74 " fill="none" id="Kind-backto-ReaderTKind" style="stroke:#F5BDE6;stroke-width:1.0;"/><polygon fill="none" points="240.61,40.16,230.3773,56.1378,242.0105,59.0819,240.61,40.16" style="stroke:#F5BDE6;stroke-width:1.0;"/></g><!--link ReaderTKind to Kind--><g id="link_ReaderTKind_Kind"><path codeLine="51" d="M261.94,100.74 C264.05,80.8 267.5767,73.0572 263.6567,57.6072 " fill="none" id="ReaderTKind-to-Kind" style="stroke:#F5BDE6;stroke-width:1.0;"/><polygon fill="none" points="259.23,40.16,257.841,59.0828,269.4725,56.1316,259.23,40.16" style="stroke:#F5BDE6;stroke-width:1.0;"/></g><!--reverse link Monad to ReaderTMonad--><g id="link_Monad_ReaderTMonad"><path d="M536.3595,453.6678 C527.6695,471.5978 533.46,486.52 538.05,510.69 " fill="none" id="Monad-backto-ReaderTMonad" style="stroke:#F5BDE6;stroke-width:1.0;stroke-dasharray:7.0,7.0;"/><polygon fill="none" points="544.21,437.47,530.9602,451.051,541.7588,456.2847,544.21,437.47" style="stroke:#F5BDE6;stroke-width:1.0;"/></g><!--link ReaderTMonad to Monad--><g id="link_ReaderTMonad_Monad"><path codeLine="39" d="M561.92,510.69 C561.92,486.52 561.92,473.4 561.92,455.47 " fill="none" id="ReaderTMonad-to-Monad" style="stroke:#F5BDE6;stroke-width:1.0;"/><polygon fill="none" points="561.92,437.47,555.92,455.47,567.92,455.47,561.92,437.47" style="stroke:#F5BDE6;stroke-width:1.0;"/></g><!--reverse link ReaderTMonad to Monad--><g id="link_ReaderTMonad_Monad"><path codeLine="40" d="M588.0341,498.8998 C592.6141,474.7298 588.33,455.4 579.64,437.47 " fill="none" id="ReaderTMonad-backto-Monad" style="stroke:#F5BDE6;stroke-width:1.0;"/><polygon fill="#F5BDE6" points="585.8,510.69,590.8471,505.5396,588.0341,498.8998,582.987,504.0502,585.8,510.69" style="stroke:#F5BDE6;stroke-width:1.0;"/><text fill="#CAD3F5" font-family="Helvetica" font-size="12" lengthAdjust="spacing" textLength="182.0801" x="371.5472" y="454.3589">outerMonad (Monad&lt;F_OUTER&gt;)</text></g><!--link ReaderTMonad to ReaderTKindHelper--><g id="link_ReaderTMonad_ReaderTKindHelper"><path codeLine="41" d="M481.5,581.47 C429.06,603.94 366.7748,630.6364 316.3548,652.2464 " fill="none" id="ReaderTMonad-to-ReaderTKindHelper" style="stroke:#F5BDE6;stroke-width:1.0;stroke-dasharray:7.0,7.0;"/><polygon fill="#F5BDE6" points="310.84,654.61,320.688,654.7411,315.4357,652.6403,317.5365,647.388,310.84,654.61" style="stroke:#F5BDE6;stroke-width:1.0;"/><text fill="#CAD3F5" font-family="Helvetica" font-size="12" lengthAdjust="spacing" textLength="25.3477" x="411.58" y="621.2402">uses</text></g><!--link ReaderTMonad to ReaderT--><g id="link_ReaderTMonad_ReaderT"><path codeLine="42" d="M459.65,510.6 C425.42,493.85 390.72,470 369.92,437 C353.19,410.44 349.6453,381.7646 350.8953,352.3446 " fill="none" id="ReaderTMonad-to-ReaderT" style="stroke:#F5BDE6;stroke-width:1.0;stroke-dasharray:7.0,7.0;"/><polygon fill="#F5BDE6" points="351.15,346.35,346.7716,355.1721,350.9378,351.3455,354.7643,355.5117,351.15,346.35" style="stroke:#F5BDE6;stroke-width:1.0;"/><text fill="#CAD3F5" font-family="Helvetica" font-size="12" lengthAdjust="spacing" textLength="112.7344" x="370.92" y="425.2402">creates / operates on</text></g><!--link ReaderTKindHelper to ReaderT--><g id="link_ReaderTKindHelper_ReaderT"><path codeLine="44" d="M247.01,654.82 C257.13,612.54 276.71,533.43 296.92,467 C309.27,426.41 322.9153,387.0045 335.5353,351.9945 " fill="none" id="ReaderTKindHelper-to-ReaderT" style="stroke:#F5BDE6;stroke-width:1.0;stroke-dasharray:7.0,7.0;"/><polygon fill="#F5BDE6" points="337.57,346.35,330.755,353.4603,335.8745,351.0537,338.281,356.1732,337.57,346.35" style="stroke:#F5BDE6;stroke-width:1.0;"/><text fill="#CAD3F5" font-family="Helvetica" font-size="12" lengthAdjust="spacing" textLength="88.0313" x="297.92" y="477.2402">unwrap() returns</text></g><!--link ReaderTKindHelper to ReaderTKind--><g id="link_ReaderTKindHelper_ReaderTKind"><path codeLine="45" d="M181.89,654.58 C145.3,630.8 104.92,593.92 104.92,547 C104.92,284 104.92,284 104.92,284 C104.92,230.94 147.0392,192.5188 187.5692,166.5288 " fill="none" id="ReaderTKindHelper-to-ReaderTKind" style="stroke:#F5BDE6;stroke-width:1.0;stroke-dasharray:7.0,7.0;"/><polygon fill="#F5BDE6" points="192.62,163.29,182.8847,164.781,188.411,165.989,187.2031,171.5154,192.62,163.29" style="stroke:#F5BDE6;stroke-width:1.0;"/><text fill="#CAD3F5" font-family="Helvetica" font-size="12" lengthAdjust="spacing" textLength="74.6836" x="105.92" y="425.2402">wrap() returns</text></g><!--link ReaderT to Kind--><g id="link_ReaderT_Kind"><path codeLine="48" d="M383.94,223.77 C394.91,186.13 401.26,137.95 379.92,101 C362.53,70.88 333.508,53.9649 304.378,42.5749 " fill="none" id="ReaderT-to-Kind" style="stroke:#F5BDE6;stroke-width:1.0;stroke-dasharray:7.0,7.0;"/><polygon fill="#F5BDE6" points="298.79,40.39,305.7154,47.3928,303.4467,42.2108,308.6287,39.9421,298.79,40.39" style="stroke:#F5BDE6;stroke-width:1.0;"/><text fill="#CAD3F5" font-family="Helvetica" font-size="12" lengthAdjust="spacing" textLength="126.0527" x="167.763" y="57.2504">run() returns Kind&lt;F,A&gt;</text></g><!--link ReaderT to Monad--><g id="link_ReaderT_Monad"><path codeLine="49" d="M450.29,346.39 C483.69,368.72 513.6816,388.756 535.3916,403.266 " fill="none" id="ReaderT-to-Monad" style="stroke:#F5BDE6;stroke-width:1.0;stroke-dasharray:7.0,7.0;"/><polygon fill="#F5BDE6" points="540.38,406.6,535.1201,398.2733,536.223,403.8216,530.6747,404.9246,540.38,406.6" style="stroke:#F5BDE6;stroke-width:1.0;"/><text fill="#CAD3F5" font-family="Helvetica" font-size="12" lengthAdjust="spacing" textLength="147.4102" x="359.594" y="396.2165">factories require Monad&lt;F&gt;</text></g><!--SRC=[ZLJBRjim4BphAxQ-L6uiwMuOGds84I2D0mIkUpGOceg8KYJB1z8YxRztzR8eLwcj4qNEp2w7k_k1IohyaK7fdBRBB3FaDNtXhlJFtZ93bNHCkfIgAfDKMKSIJZDAdDQUKYwJYb1QSk9KeWMHpbSYSIMhM5OHBhDccMhSZQAIOnHMQVSBAbOzCsEZYAEwAGXbSC_bSRKvtDtl5h0-xDTVyk3mGKdIdUOHVW1K46lXYP4ZCxlLPW5FICjXjJACAdFCS-2L5XXSkXEi3T53tr05u0O-RvNSUY5WuoLrNCaLdlVGDGePBnjeai26KASCPnP_EZewuZY5GVUVd5GHloCzlrf3yCB5dGjvg76zX6as0f4mgMcXSnNS8FRxIQAc_AaVOtYeIQVPJooXessp3X3fD-uaixQD5JnAba5tj8HtyJroJuHdIrZtoOmgeo-Snw-xs_e2XzljVbGQBM0oo9ZKvvP0mIKHGzcCGk1hU_IYsUiC3JE9BxFQT_W8ZzWwfeLXkxXIeO6nAXPG4Rs0GX3tK2-8dazUlBxA7HCQDTuwnUwt4xkwRhnyDKJ7bn_lKYcEYw8HFGysRtgxkKre6tRRxnnwKqSddx0hPuDx48-DdS-cQMcQJpYr11nvzZzOH53i8uS380E5b6QfP91m83ScTZxEiH6TDz9UejIxI3iZ3QpMb00S7DKoCvnR0x4V6Ujy1bFWuZJP3FlXkJdDtBntS9nl6xrHYlu2]--></g></svg>