<svg xmlns="http://www.w3.org/2000/svg" xmlns:xlink="http://www.w3.org/1999/xlink" contentStyleType="text/css" height="1013.6px" preserveAspectRatio="none" style="width:978px;height:1013px;background:#24273A;" version="1.1" viewBox="0 0 978 1013" width="978.6px" zoomAndPan="magnify"><defs/><g><rect fill="#24273A" height="1013.6" style="stroke:none;stroke-width:1.3999999999999997;" width="978.6" x="0" y="0"/><!--class Kind--><g id="elem_Kind"><rect codeLine="6" fill="#24273A" height="42" id="Kind" rx="2.1" ry="2.1" style="stroke:#C6A0F6;stroke-width:2.7999999999999994;" width="207.2766" x="284.06" y="14"/><rect fill="#363A4F" height="42" rx="2.1" ry="2.1" style="stroke:#363A4F;stroke-width:2.7999999999999994;" width="207.2766" x="284.06" y="14"/><rect fill="#363A4F" height="2.1" style="stroke:#363A4F;stroke-width:2.7999999999999994;" width="207.2766" x="284.06" y="53.9"/><rect codeLine="6" fill="none" height="42" id="Kind" rx="2.1" ry="2.1" style="stroke:#C6A0F6;stroke-width:2.7999999999999994;" width="207.2766" x="284.06" y="14"/><ellipse cx="303.66" cy="35" fill="#B4A7E5" rx="14" ry="14" style="stroke:#181818;stroke-width:1.3999999999999997;"/><path d="M299.4709,31.1855 L299.4709,29.0527 L306.7635,29.0527 L306.7635,31.1855 L304.3272,31.1855 L304.3272,39.1672 L306.7635,39.1672 L306.7635,41.3 L299.4709,41.3 L299.4709,39.1672 L301.9073,39.1672 L301.9073,31.1855 Z " fill="#CAD3F5"/><text fill="#A6DA95" font-family="Helvetica" font-size="22.4" font-style="italic" lengthAdjust="spacing" textLength="44.8328" x="321.86" y="41.0484">Kind</text><rect fill="#24273A" height="19.6" style="stroke:#C6A0F6;stroke-width:1.3999999999999997;stroke-dasharray:2.0,2.0;" width="117.6437" x="377.8928" y="9.8"/><text fill="#CAD3F5" font-family="Helvetica" font-size="16.8" font-style="italic" lengthAdjust="spacing" textLength="114.8437" x="379.2928" y="24.1363">F_HKT, A_VAL</text></g><!--class Monad--><g id="elem_Monad"><rect codeLine="7" fill="#24273A" height="42" id="Monad" rx="2.1" ry="2.1" style="stroke:#C6A0F6;stroke-width:2.7999999999999994;" width="169.2961" x="702.044" y="569.8"/><rect fill="#363A4F" height="42" rx="2.1" ry="2.1" style="stroke:#363A4F;stroke-width:2.7999999999999994;" width="169.2961" x="702.044" y="569.8"/><rect fill="#363A4F" height="2.1" style="stroke:#363A4F;stroke-width:2.7999999999999994;" width="169.2961" x="702.044" y="609.7"/><rect codeLine="7" fill="none" height="42" id="Monad" rx="2.1" ry="2.1" style="stroke:#C6A0F6;stroke-width:2.7999999999999994;" width="169.2961" x="702.044" y="569.8"/><ellipse cx="721.644" cy="590.8" fill="#B4A7E5" rx="14" ry="14" style="stroke:#181818;stroke-width:1.3999999999999997;"/><path d="M717.4549,586.9855 L717.4549,584.8527 L724.7475,584.8527 L724.7475,586.9855 L722.3112,586.9855 L722.3112,594.9672 L724.7475,594.9672 L724.7475,597.1 L717.4549,597.1 L717.4549,594.9672 L719.8913,594.9672 L719.8913,586.9855 Z " fill="#CAD3F5"/><text fill="#A6DA95" font-family="Helvetica" font-size="22.4" font-style="italic" lengthAdjust="spacing" textLength="68.4906" x="739.844" y="596.8484">Monad</text><rect fill="#24273A" height="19.6" style="stroke:#C6A0F6;stroke-width:1.3999999999999997;stroke-dasharray:2.0,2.0;" width="56.0055" x="819.5346" y="565.6"/><text fill="#CAD3F5" font-family="Helvetica" font-size="16.8" font-style="italic" lengthAdjust="spacing" textLength="53.2055" x="820.9346" y="579.9363">F_HKT</text></g><!--class ReaderT--><g id="elem_ReaderT"><rect codeLine="11" fill="#24273A" height="170.8" id="ReaderT" rx="2.1" ry="2.1" style="stroke:#C6A0F6;stroke-width:2.7999999999999994;" width="564.4297" x="221.676" y="313.6"/><rect fill="#363A4F" height="53.2" rx="2.1" ry="2.1" style="stroke:#363A4F;stroke-width:2.7999999999999994;" width="564.4297" x="221.676" y="313.6"/><rect fill="#363A4F" height="2.1" style="stroke:#363A4F;stroke-width:2.7999999999999994;" width="564.4297" x="221.676" y="364.7"/><rect codeLine="11" fill="none" height="170.8" id="ReaderT" rx="2.1" ry="2.1" style="stroke:#C6A0F6;stroke-width:2.7999999999999994;" width="564.4297" x="221.676" y="313.6"/><ellipse cx="425.7807" cy="340.2" fill="#ADD1B2" rx="14" ry="14" style="stroke:#181818;stroke-width:1.3999999999999997;"/><path d="M428.3483,346.1473 Q427.774,346.4426 427.1424,346.5902 Q426.5108,346.7379 425.8135,346.7379 Q423.3362,346.7379 422.0319,345.1055 Q420.7276,343.473 420.7276,340.3887 Q420.7276,337.2961 422.0319,335.6637 Q423.3362,334.0312 425.8135,334.0312 Q426.5108,334.0312 427.1506,334.1789 Q427.7905,334.3266 428.3483,334.6219 L428.3483,337.3125 Q427.7248,336.7383 427.1383,336.4717 Q426.5518,336.2051 425.9283,336.2051 Q424.5994,336.2051 423.9227,337.2592 Q423.2459,338.3133 423.2459,340.3887 Q423.2459,342.4559 423.9227,343.51 Q424.5994,344.5641 425.9283,344.5641 Q426.5518,344.5641 427.1383,344.2975 Q427.7248,344.0309 428.3483,343.4566 Z " fill="#CAD3F5"/><text fill="#CAD3F5" font-family="Helvetica" font-size="16.8" font-style="italic" lengthAdjust="spacing" textLength="66.3059" x="462.8028" y="333.5363">&#171;record&#187;</text><text fill="#A6DA95" font-family="Helvetica" font-size="22.4" lengthAdjust="spacing" textLength="87.15" x="452.3807" y="354.6484">ReaderT</text><rect fill="#24273A" height="19.6" style="stroke:#C6A0F6;stroke-width:1.3999999999999997;stroke-dasharray:2.0,2.0;" width="55.0703" x="735.2354" y="309.4"/><text fill="#CAD3F5" font-family="Helvetica" font-size="16.8" font-style="italic" lengthAdjust="spacing" textLength="52.2703" x="736.6354" y="323.7363">F, R, A</text><line style="stroke:#C6A0F6;stroke-width:2.7999999999999994;" x1="223.076" x2="784.7057" y1="366.8" y2="366.8"/><ellipse cx="237.076" cy="382.9" fill="none" rx="4.2" ry="4.2" style="stroke:#038048;stroke-width:1.3999999999999997;"/><text fill="#A6DA95" font-family="Helvetica" font-size="16.8" lengthAdjust="spacing" textLength="300.0047" x="248.276" y="385.3363">@NonNull Function&lt;R, Kind&lt;F, A&gt;&gt; run</text><ellipse cx="237.076" cy="422.1" fill="#84BE84" rx="4.2" ry="4.2" style="stroke:#038048;stroke-width:1.3999999999999997;"/><text fill="#A6DA95" font-family="Helvetica" font-size="16.8" lengthAdjust="spacing" textLength="477.1348" x="248.276" y="424.5363">static &lt;F, R, A&gt; ReaderT&lt;F, R, A&gt; of(Function&lt;R, Kind&lt;F, A&gt;&gt;)</text><ellipse cx="237.076" cy="438.9" fill="#84BE84" rx="4.2" ry="4.2" style="stroke:#038048;stroke-width:1.3999999999999997;"/><text fill="#A6DA95" font-family="Helvetica" font-size="16.8" lengthAdjust="spacing" textLength="464.9859" x="248.276" y="441.3363">static &lt;F, R, A&gt; ReaderT&lt;F, R, A&gt; lift(Monad&lt;F&gt;, Kind&lt;F, A&gt;)</text><ellipse cx="237.076" cy="455.7" fill="#84BE84" rx="4.2" ry="4.2" style="stroke:#038048;stroke-width:1.3999999999999997;"/><text fill="#A6DA95" font-family="Helvetica" font-size="16.8" lengthAdjust="spacing" textLength="529.4297" x="248.276" y="458.1363">static &lt;F, R, A&gt; ReaderT&lt;F, R, A&gt; reader(Monad&lt;F&gt;, Function&lt;R, A&gt;)</text><ellipse cx="237.076" cy="472.5" fill="#84BE84" rx="4.2" ry="4.2" style="stroke:#038048;stroke-width:1.3999999999999997;"/><text fill="#A6DA95" font-family="Helvetica" font-size="16.8" lengthAdjust="spacing" textLength="361.3312" x="248.276" y="474.9363">static &lt;F, R&gt; ReaderT&lt;F, R, R&gt; ask(Monad&lt;F&gt;)</text><line style="stroke:#C6A0F6;stroke-width:1.3999999999999997;" x1="223.076" x2="469.3475" y1="403.2" y2="403.2"/><text fill="#A6DA95" font-family="Helvetica" font-size="16.8" lengthAdjust="spacing" textLength="69.0867" x="469.3475" y="407.0363">Factories</text><line style="stroke:#C6A0F6;stroke-width:1.3999999999999997;" x1="538.4342" x2="784.7057" y1="403.2" y2="403.2"/></g><!--class ReaderTKind--><g id="elem_ReaderTKind"><rect codeLine="20" fill="#24273A" height="86.8" id="ReaderTKind" rx="2.1" ry="2.1" style="stroke:#C6A0F6;stroke-width:2.7999999999999994;" width="314.6309" x="115.584" y="141.4"/><rect fill="#363A4F" height="42" rx="2.1" ry="2.1" style="stroke:#363A4F;stroke-width:2.7999999999999994;" width="314.6309" x="115.584" y="141.4"/><rect fill="#363A4F" height="2.1" style="stroke:#363A4F;stroke-width:2.7999999999999994;" width="314.6309" x="115.584" y="181.3"/><rect codeLine="20" fill="none" height="86.8" id="ReaderTKind" rx="2.1" ry="2.1" style="stroke:#C6A0F6;stroke-width:2.7999999999999994;" width="314.6309" x="115.584" y="141.4"/><ellipse cx="172.434" cy="162.4" fill="#B4A7E5" rx="14" ry="14" style="stroke:#181818;stroke-width:1.3999999999999997;"/><path d="M168.2449,158.5855 L168.2449,156.4527 L175.5375,156.4527 L175.5375,158.5855 L173.1012,158.5855 L173.1012,166.5672 L175.5375,166.5672 L175.5375,168.7 L168.2449,168.7 L168.2449,166.5672 L170.6812,166.5672 L170.6812,158.5855 Z " fill="#CAD3F5"/><text fill="#A6DA95" font-family="Helvetica" font-size="22.4" font-style="italic" lengthAdjust="spacing" textLength="131.9828" x="198.9118" y="168.4484">ReaderTKind</text><rect fill="#24273A" height="19.6" style="stroke:#C6A0F6;stroke-width:1.3999999999999997;stroke-dasharray:2.0,2.0;" width="55.0703" x="379.3445" y="137.2"/><text fill="#CAD3F5" font-family="Helvetica" font-size="16.8" font-style="italic" lengthAdjust="spacing" textLength="52.2703" x="380.7445" y="151.5363">F, R, A</text><line style="stroke:#C6A0F6;stroke-width:2.7999999999999994;" x1="116.984" x2="428.8149" y1="183.4" y2="183.4"/><text fill="#A6DA95" font-family="Helvetica" font-size="16.8" lengthAdjust="spacing" textLength="297.8309" x="123.984" y="201.9363">// Witness: ReaderTKind.Witness&lt;F, R&gt;</text><text fill="#A6DA95" font-family="Helvetica" font-size="16.8" lengthAdjust="spacing" textLength="77.5113" x="123.984" y="218.7363">// Value: A</text></g><!--class ReaderTMonad--><g id="elem_ReaderTMonad"><rect codeLine="25" fill="#24273A" height="98" id="ReaderTMonad" rx="2.1" ry="2.1" style="stroke:#C6A0F6;stroke-width:2.7999999999999994;" width="488.1242" x="475.426" y="715.4"/><rect fill="#363A4F" height="42" rx="2.1" ry="2.1" style="stroke:#363A4F;stroke-width:2.7999999999999994;" width="488.1242" x="475.426" y="715.4"/><rect fill="#363A4F" height="2.1" style="stroke:#363A4F;stroke-width:2.7999999999999994;" width="488.1242" x="475.426" y="755.3"/><rect codeLine="25" fill="none" height="98" id="ReaderTMonad" rx="2.1" ry="2.1" style="stroke:#C6A0F6;stroke-width:2.7999999999999994;" width="488.1242" x="475.426" y="715.4"/><ellipse cx="561.3879" cy="736.4" fill="#ADD1B2" rx="14" ry="14" style="stroke:#181818;stroke-width:1.3999999999999997;"/><path d="M563.9555,742.3473 Q563.3813,742.6426 562.7496,742.7902 Q562.118,742.9379 561.4207,742.9379 Q558.9434,742.9379 557.6391,741.3055 Q556.3348,739.673 556.3348,736.5887 Q556.3348,733.4961 557.6391,731.8637 Q558.9434,730.2312 561.4207,730.2312 Q562.118,730.2312 562.7578,730.3789 Q563.3977,730.5266 563.9555,730.8219 L563.9555,733.5125 Q563.3321,732.9383 562.7455,732.6717 Q562.159,732.4051 561.5356,732.4051 Q560.2067,732.4051 559.5299,733.4592 Q558.8531,734.5133 558.8531,736.5887 Q558.8531,738.6559 559.5299,739.71 Q560.2067,740.7641 561.5356,740.7641 Q562.159,740.7641 562.7455,740.4975 Q563.3321,740.2309 563.9555,739.6566 Z " fill="#CAD3F5"/><text fill="#A6DA95" font-family="Helvetica" font-size="22.4" lengthAdjust="spacing" textLength="155.6406" x="587.9879" y="742.4484">ReaderTMonad</text><rect fill="#24273A" height="19.6" style="stroke:#C6A0F6;stroke-width:1.3999999999999997;stroke-dasharray:2.0,2.0;" width="146.5598" x="821.1905" y="711.2"/><text fill="#CAD3F5" font-family="Helvetica" font-size="16.8" font-style="italic" lengthAdjust="spacing" textLength="143.7598" x="822.5905" y="725.5363">F_OUTER, R_ENV</text><line style="stroke:#C6A0F6;stroke-width:2.7999999999999994;" x1="476.826" x2="962.1502" y1="757.4" y2="757.4"/><rect fill="none" height="8.4" style="stroke:#C82930;stroke-width:1.3999999999999997;" width="8.4" x="486.626" y="769.3"/><text fill="#A6DA95" font-family="Helvetica" font-size="16.8" lengthAdjust="spacing" textLength="360.6914" x="502.026" y="775.9363">final @NonNull Monad&lt;F_OUTER&gt; outerMonad</text><line style="stroke:#C6A0F6;stroke-width:2.7999999999999994;" x1="476.826" x2="962.1502" y1="785.4" y2="785.4"/><ellipse cx="490.826" cy="801.5" fill="#84BE84" rx="4.2" ry="4.2" style="stroke:#038048;stroke-width:1.3999999999999997;"/><text fill="#A6DA95" font-family="Helvetica" font-size="16.8" lengthAdjust="spacing" textLength="453.1242" x="502.026" y="803.9363">ReaderTMonad(@NonNull Monad&lt;F_OUTER&gt; outerMonad)</text></g><!--class ReaderTKindHelper--><g id="elem_ReaderTKindHelper"><rect codeLine="31" fill="#24273A" height="86.8" id="ReaderTKindHelper" rx="2.1" ry="2.1" style="stroke:#C6A0F6;stroke-width:2.7999999999999994;" width="652.1867" x="9.8" y="917"/><rect fill="#363A4F" height="42" rx="2.1" ry="2.1" style="stroke:#363A4F;stroke-width:2.7999999999999994;" width="652.1867" x="9.8" y="917"/><rect fill="#363A4F" height="2.1" style="stroke:#363A4F;stroke-width:2.7999999999999994;" width="652.1867" x="9.8" y="956.9"/><rect codeLine="31" fill="none" height="86.8" id="ReaderTKindHelper" rx="2.1" ry="2.1" style="stroke:#C6A0F6;stroke-width:2.7999999999999994;" width="652.1867" x="9.8" y="917"/><ellipse cx="231.309" cy="938" fill="#ADD1B2" rx="14" ry="14" style="stroke:#181818;stroke-width:1.3999999999999997;"/><path d="M233.8766,943.9473 Q233.3023,944.2426 232.6707,944.3902 Q232.0391,944.5379 231.3418,944.5379 Q228.8645,944.5379 227.5602,942.9055 Q226.2559,941.273 226.2559,938.1887 Q226.2559,935.0961 227.5602,933.4637 Q228.8645,931.8312 231.3418,931.8312 Q232.0391,931.8312 232.6789,931.9789 Q233.3187,932.1266 233.8766,932.4219 L233.8766,935.1125 Q233.2531,934.5383 232.6666,934.2717 Q232.0801,934.0051 231.4566,934.0051 Q230.1277,934.0051 229.451,935.0592 Q228.7742,936.1133 228.7742,938.1887 Q228.7742,940.2559 229.451,941.31 Q230.1277,942.3641 231.4566,942.3641 Q232.0801,942.3641 232.6666,942.0975 Q233.2531,941.8309 233.8766,941.2566 Z " fill="#CAD3F5"/><text fill="#A6DA95" font-family="Helvetica" font-size="22.4" lengthAdjust="spacing" textLength="197.9687" x="257.909" y="944.0484">ReaderTKindHelper</text><line style="stroke:#C6A0F6;stroke-width:2.7999999999999994;" x1="11.2" x2="660.5867" y1="959" y2="959"/><ellipse cx="25.2" cy="975.1" fill="#84BE84" rx="4.2" ry="4.2" style="stroke:#038048;stroke-width:1.3999999999999997;"/><text fill="#A6DA95" font-family="Helvetica" font-size="16.8" lengthAdjust="spacing" textLength="617.1867" x="36.4" y="977.5363">static &lt;F, R, A&gt; ReaderT&lt;F, R, A&gt; unwrap(Kind&lt;ReaderTKind.Witness&lt;F, R&gt;, A&gt;)</text><ellipse cx="25.2" cy="991.9" fill="#84BE84" rx="4.2" ry="4.2" style="stroke:#038048;stroke-width:1.3999999999999997;"/><text fill="#A6DA95" font-family="Helvetica" font-size="16.8" lengthAdjust="spacing" textLength="480.8426" x="36.4" y="994.3363">static &lt;F, R, A&gt; ReaderTKind&lt;F, R, A&gt; wrap(ReaderT&lt;F, R, A&gt;)</text></g><!--reverse link ReaderTKind to ReaderT--><g id="link_ReaderTKind_ReaderT"><path d="M337.6765,245.4809 C364.1365,269.7009 379.722,283.962 411.46,313.012 " fill="none" id="ReaderTKind-backto-ReaderT" style="stroke:#F5BDE6;stroke-width:1.3999999999999997;stroke-dasharray:7.0,7.0;"/><polygon fill="none" points="319.088,228.466,332.0049,251.6771,343.3482,239.2847,319.088,228.466" style="stroke:#F5BDE6;stroke-width:1.3999999999999997;"/></g><!--reverse link Kind to ReaderTKind--><g id="link_Kind_ReaderTKind"><path d="M356.698,76.0886 C339.814,97.7186 327.782,113.12 305.984,141.036 " fill="none" id="Kind-backto-ReaderTKind" style="stroke:#F5BDE6;stroke-width:1.3999999999999997;"/><polygon fill="none" points="372.204,56.224,350.0765,70.92,363.3196,81.2573,372.204,56.224" style="stroke:#F5BDE6;stroke-width:1.3999999999999997;"/></g><!--reverse link Monad to ReaderTMonad--><g id="link_Monad_ReaderTMonad"><path d="M752.7972,633.7236 C736.8372,658.8256 731.78,681.128 721.686,714.966 " fill="none" id="Monad-backto-ReaderTMonad" style="stroke:#F5BDE6;stroke-width:1.3999999999999997;stroke-dasharray:7.0,7.0;"/><polygon fill="none" points="766.318,612.458,745.7086,629.2167,759.8857,638.2306,766.318,612.458" style="stroke:#F5BDE6;stroke-width:1.3999999999999997;"/></g><!--reverse link ReaderTMonad to Monad--><g id="link_ReaderTMonad_Monad"><path codeLine="40" d="M762.4744,699.8691 C778.9944,666.0311 787.332,637.56 791.126,612.458 " fill="none" id="ReaderTMonad-backto-Monad" style="stroke:#F5BDE6;stroke-width:1.3999999999999997;"/><polygon fill="#F5BDE6" points="755.104,714.966,763.8215,709.8744,762.4744,699.8691,753.7569,704.9607,755.104,714.966" style="stroke:#F5BDE6;stroke-width:1.3999999999999997;"/><text fill="#CAD3F5" font-family="Helvetica" font-size="16.8" lengthAdjust="spacing" textLength="254.9121" x="492.5393" y="636.1025">outerMonad (Monad&lt;F_OUTER&gt;)</text></g><!--link ReaderTMonad to ReaderTKindHelper--><g id="link_ReaderTMonad_ReaderTKindHelper"><path codeLine="41" d="M623.686,814.058 C561.106,845.572 487.6603,882.5618 427.5583,912.8298 " fill="none" id="ReaderTMonad-to-ReaderTKindHelper" style="stroke:#F5BDE6;stroke-width:1.3999999999999997;stroke-dasharray:7.0,7.0;"/><polygon fill="#F5BDE6" points="420.056,916.608,433.8283,915.9422,426.3079,913.4595,428.7907,905.9391,420.056,916.608" style="stroke:#F5BDE6;stroke-width:1.3999999999999997;"/><text fill="#CAD3F5" font-family="Helvetica" font-size="16.8" lengthAdjust="spacing" textLength="35.4867" x="540.596" y="869.7363">uses</text></g><!--link ReaderTMonad to ReaderT--><g id="link_ReaderTMonad_ReaderT"><path codeLine="42" d="M623.112,714.854 C583.492,689.822 541.45,655.27 517.888,611.8 C497.126,573.482 492.3447,533.7328 493.4647,493.0768 " fill="none" id="ReaderTMonad-to-ReaderT" style="stroke:#F5BDE6;stroke-width:1.3999999999999997;stroke-dasharray:7.0,7.0;"/><polygon fill="#F5BDE6" points="493.696,484.68,487.7511,497.121,493.5032,491.6773,498.9469,497.4294,493.696,484.68" style="stroke:#F5BDE6;stroke-width:1.3999999999999997;"/><text fill="#CAD3F5" font-family="Helvetica" font-size="16.8" lengthAdjust="spacing" textLength="157.8281" x="519.288" y="595.3363">creates / operates on</text></g><!--link ReaderTKindHelper to ReaderT--><g id="link_ReaderTKindHelper_ReaderT"><path codeLine="44" d="M344.876,916.65 C357.798,857.36 383.208,746.466 411.488,653.8 C428.918,596.694 448.9094,541.4713 467.5994,492.5273 " fill="none" id="ReaderTKindHelper-to-ReaderT" style="stroke:#F5BDE6;stroke-width:1.3999999999999997;stroke-dasharray:7.0,7.0;"/><polygon fill="#F5BDE6" points="470.596,484.68,460.8695,494.4532,468.0988,491.2194,471.3326,498.4487,470.596,484.68" style="stroke:#F5BDE6;stroke-width:1.3999999999999997;"/><text fill="#CAD3F5" font-family="Helvetica" font-size="16.8" lengthAdjust="spacing" textLength="123.2437" x="412.888" y="668.1363">unwrap() returns</text></g><!--link ReaderTKindHelper to ReaderTKind--><g id="link_ReaderTKindHelper_ReaderTKind"><path codeLine="45" d="M254.646,916.412 C203.42,883.12 146.888,831.488 146.888,765.8 C146.888,397.6 146.888,397.6 146.888,397.6 C146.888,331.8 186.8262,274.867 223.1702,235.009 " fill="none" id="ReaderTKindHelper-to-ReaderTKind" style="stroke:#F5BDE6;stroke-width:1.3999999999999997;stroke-dasharray:7.0,7.0;"/><polygon fill="#F5BDE6" points="228.83,228.802,216.2023,234.3393,224.1135,233.9745,224.4783,241.8857,228.83,228.802" style="stroke:#F5BDE6;stroke-width:1.3999999999999997;"/><text fill="#CAD3F5" font-family="Helvetica" font-size="16.8" lengthAdjust="spacing" textLength="104.557" x="148.288" y="595.3363">wrap() returns</text></g><!--link ReaderT to Kind--><g id="link_ReaderT_Kind"><path codeLine="48" d="M495.964,313.418 C489.16,262.304 476.854,196.504 454.888,141.4 C442.162,109.438 424.4166,83.3366 408.9466,63.1066 " fill="none" id="ReaderT-to-Kind" style="stroke:#F5BDE6;stroke-width:1.3999999999999997;stroke-dasharray:7.0,7.0;"/><polygon fill="#F5BDE6" points="403.844,56.434,407.0495,69.8446,408.0962,61.9945,415.9463,63.0412,403.844,56.434" style="stroke:#F5BDE6;stroke-width:1.3999999999999997;"/><text fill="#CAD3F5" font-family="Helvetica" font-size="16.8" lengthAdjust="spacing" textLength="176.4738" x="201.7878" y="79.9987">run() returns Kind&lt;F,A&gt;</text></g><!--link ReaderT to Monad--><g id="link_ReaderT_Monad"><path codeLine="49" d="M630.406,484.946 C677.166,516.208 719.1542,544.2584 749.5482,564.5724 " fill="none" id="ReaderT-to-Monad" style="stroke:#F5BDE6;stroke-width:1.3999999999999997;stroke-dasharray:7.0,7.0;"/><polygon fill="#F5BDE6" points="756.532,569.24,749.1681,557.5827,750.7122,565.3503,742.9446,566.8944,756.532,569.24" style="stroke:#F5BDE6;stroke-width:1.3999999999999997;"/><text fill="#CAD3F5" font-family="Helvetica" font-size="16.8" lengthAdjust="spacing" textLength="206.3742" x="503.4316" y="554.7031">factories require Monad&lt;F&gt;</text></g><!--SRC=[ZLHDRzim3BtxLt2vpDbY-nu4nd9eKA1h2XHPTmnKHPw5oP8cKUY6Olzzz5Tif-cI80TPUk-HUYJrGMgkma50YMZzCiiSUqb_I2p3S_32SQDHQ4ovgJBDZKUMI9vnXjO6pgLEAiPvAHcQn2gcCLGgmL9K8gkOr5cpJ2tjHb4fAOgeBFw1IbJFmlaeagJk2iO5t4bzM6tsjtUx1QptJ-kl-UZmtcZMdUOH_G2uOjx3es07uNQhpG8UYPR3QkK4D-wGvo0hgoYunYEi3T53Nqa5u3DysHgz3Kh19cYEqkWLdVVGDGcve1jeai26SJHE2ayV7PqSGSbXq7sJaodYTwJdLsieMM3SkP2FDQwNSCt6I6ISr7cXKnNQOFxdKQAc_AsBCHJghDFYDxNGmRTPZn3fTubQUD_66XKbow0xMiAx-1xvn5GGIrZtoKmwes-SXs-xc_e2-vljqwGrMi3P85DIdri2XTHC3Mqp2K7L3kH5izSPEiualingw_0H7cXqN0kZSS7Ia86nAHPGCRk0GZ6yhnVCpizUlBxAhL2MD5uxnUwp4xkwRu9-SSp6bujtgHMdJT68dWQRDxFTt8R-O-VW4utVRB09ugc3yndqfazeQPgViMG9zBRv_s09mMbWa2Oz0qEKPcbqD716SbDYPzYS9Ww3q_uIfTubsWbf5Aa1p-WP6exx5s2TpvhbARWuFbHE_0hI7P_GlFU9Vly0]--></g></svg>