<svg xmlns="http://www.w3.org/2000/svg" xmlns:xlink="http://www.w3.org/1999/xlink" contentStyleType="text/css" height="576px" preserveAspectRatio="none" style="width:2103px;height:576px;background:#24273A;" version="1.1" viewBox="0 0 2103 576" width="2103px" zoomAndPan="magnify"><defs/><g><rect fill="#24273A" height="576" style="stroke:none;stroke-width:1.0;" width="2103" x="0" y="0"/><!--class Kind--><g id="elem_Kind"><rect codeLine="8" fill="#24273A" height="30" id="Kind" rx="1.5" ry="1.5" style="stroke:#C6A0F6;stroke-width:2.0;" width="88.0254" x="1879.9" y="235"/><rect fill="#363A4F" height="30" rx="1.5" ry="1.5" style="stroke:#363A4F;stroke-width:2.0;" width="88.0254" x="1879.9" y="235"/><rect fill="#363A4F" height="1.5" style="stroke:#363A4F;stroke-width:2.0;" width="88.0254" x="1879.9" y="263.5"/><rect codeLine="8" fill="none" height="30" id="Kind" rx="1.5" ry="1.5" style="stroke:#C6A0F6;stroke-width:2.0;" width="88.0254" x="1879.9" y="235"/><ellipse cx="1893.9" cy="250" fill="#B4A7E5" rx="10" ry="10" style="stroke:#181818;stroke-width:1.0;"/><path d="M1890.9078,247.2754 L1890.9078,245.752 L1896.1168,245.752 L1896.1168,247.2754 L1894.3766,247.2754 L1894.3766,252.9766 L1896.1168,252.9766 L1896.1168,254.5 L1890.9078,254.5 L1890.9078,252.9766 L1892.648,252.9766 L1892.648,247.2754 Z " fill="#CAD3F5"/><text fill="#A6DA95" font-family="Helvetica" font-size="16" font-style="italic" lengthAdjust="spacing" textLength="32.0234" x="1906.9" y="254.3203">Kind</text><rect fill="#24273A" height="14" style="stroke:#C6A0F6;stroke-width:1.0;stroke-dasharray:2.0,2.0;" width="24.002" x="1946.9234" y="232"/><text fill="#CAD3F5" font-family="Helvetica" font-size="12" font-style="italic" lengthAdjust="spacing" textLength="22.002" x="1947.9234" y="242.2402">F, A</text></g><!--class Monad--><g id="elem_Monad"><rect codeLine="12" fill="#24273A" height="30" id="Monad" rx="1.5" ry="1.5" style="stroke:#C6A0F6;stroke-width:2.0;" width="90.252" x="467.79" y="409"/><rect fill="#363A4F" height="30" rx="1.5" ry="1.5" style="stroke:#363A4F;stroke-width:2.0;" width="90.252" x="467.79" y="409"/><rect fill="#363A4F" height="1.5" style="stroke:#363A4F;stroke-width:2.0;" width="90.252" x="467.79" y="437.5"/><rect codeLine="12" fill="none" height="30" id="Monad" rx="1.5" ry="1.5" style="stroke:#C6A0F6;stroke-width:2.0;" width="90.252" x="467.79" y="409"/><ellipse cx="481.79" cy="424" fill="#B4A7E5" rx="10" ry="10" style="stroke:#181818;stroke-width:1.0;"/><path d="M478.7978,421.2754 L478.7978,419.752 L484.0068,419.752 L484.0068,421.2754 L482.2666,421.2754 L482.2666,426.9766 L484.0068,426.9766 L484.0068,428.5 L478.7978,428.5 L478.7978,426.9766 L480.538,426.9766 L480.538,421.2754 Z " fill="#CAD3F5"/><text fill="#A6DA95" font-family="Helvetica" font-size="16" font-style="italic" lengthAdjust="spacing" textLength="48.9219" x="494.79" y="428.3203">Monad</text><rect fill="#24273A" height="14" style="stroke:#C6A0F6;stroke-width:1.0;stroke-dasharray:2.0,2.0;" width="9.3301" x="551.7119" y="406"/><text fill="#CAD3F5" font-family="Helvetica" font-size="12" font-style="italic" lengthAdjust="spacing" textLength="7.3301" x="552.7119" y="416.2402">F</text></g><!--class Applicative--><g id="elem_Applicative"><rect codeLine="15" fill="#24273A" height="30" id="Applicative" rx="1.5" ry="1.5" style="stroke:#C6A0F6;stroke-width:2.0;" width="118.7051" x="480.56" y="235"/><rect fill="#363A4F" height="30" rx="1.5" ry="1.5" style="stroke:#363A4F;stroke-width:2.0;" width="118.7051" x="480.56" y="235"/><rect fill="#363A4F" height="1.5" style="stroke:#363A4F;stroke-width:2.0;" width="118.7051" x="480.56" y="263.5"/><rect codeLine="15" fill="none" height="30" id="Applicative" rx="1.5" ry="1.5" style="stroke:#C6A0F6;stroke-width:2.0;" width="118.7051" x="480.56" y="235"/><ellipse cx="494.56" cy="250" fill="#B4A7E5" rx="10" ry="10" style="stroke:#181818;stroke-width:1.0;"/><path d="M491.5678,247.2754 L491.5678,245.752 L496.7768,245.752 L496.7768,247.2754 L495.0366,247.2754 L495.0366,252.9766 L496.7768,252.9766 L496.7768,254.5 L491.5678,254.5 L491.5678,252.9766 L493.308,252.9766 L493.308,247.2754 Z " fill="#CAD3F5"/><text fill="#A6DA95" font-family="Helvetica" font-size="16" font-style="italic" lengthAdjust="spacing" textLength="77.375" x="507.56" y="254.3203">Applicative</text><rect fill="#24273A" height="14" style="stroke:#C6A0F6;stroke-width:1.0;stroke-dasharray:2.0,2.0;" width="9.3301" x="592.935" y="232"/><text fill="#CAD3F5" font-family="Helvetica" font-size="12" font-style="italic" lengthAdjust="spacing" textLength="7.3301" x="593.935" y="242.2402">F</text></g><!--class Functor--><g id="elem_Functor"><rect codeLine="19" fill="#24273A" height="30" id="Functor" rx="1.5" ry="1.5" style="stroke:#C6A0F6;stroke-width:2.0;" width="95.5723" x="492.13" y="47"/><rect fill="#363A4F" height="30" rx="1.5" ry="1.5" style="stroke:#363A4F;stroke-width:2.0;" width="95.5723" x="492.13" y="47"/><rect fill="#363A4F" height="1.5" style="stroke:#363A4F;stroke-width:2.0;" width="95.5723" x="492.13" y="75.5"/><rect codeLine="19" fill="none" height="30" id="Functor" rx="1.5" ry="1.5" style="stroke:#C6A0F6;stroke-width:2.0;" width="95.5723" x="492.13" y="47"/><ellipse cx="506.13" cy="62" fill="#B4A7E5" rx="10" ry="10" style="stroke:#181818;stroke-width:1.0;"/><path d="M503.1378,59.2754 L503.1378,57.752 L508.3468,57.752 L508.3468,59.2754 L506.6066,59.2754 L506.6066,64.9766 L508.3468,64.9766 L508.3468,66.5 L503.1378,66.5 L503.1378,64.9766 L504.878,64.9766 L504.878,59.2754 Z " fill="#CAD3F5"/><text fill="#A6DA95" font-family="Helvetica" font-size="16" font-style="italic" lengthAdjust="spacing" textLength="54.2422" x="519.13" y="66.3203">Functor</text><rect fill="#24273A" height="14" style="stroke:#C6A0F6;stroke-width:1.0;stroke-dasharray:2.0,2.0;" width="9.3301" x="581.3722" y="44"/><text fill="#CAD3F5" font-family="Helvetica" font-size="12" font-style="italic" lengthAdjust="spacing" textLength="7.3301" x="582.3722" y="54.2402">F</text></g><!--class StateTuple--><g id="elem_StateTuple"><rect codeLine="24" fill="#24273A" height="82" id="StateTuple" rx="1.5" ry="1.5" style="stroke:#C6A0F6;stroke-width:2.0;" width="193.082" x="1248.37" y="383"/><rect fill="#363A4F" height="30" rx="1.5" ry="1.5" style="stroke:#363A4F;stroke-width:2.0;" width="193.082" x="1248.37" y="383"/><rect fill="#363A4F" height="1.5" style="stroke:#363A4F;stroke-width:2.0;" width="193.082" x="1248.37" y="411.5"/><rect codeLine="24" fill="none" height="82" id="StateTuple" rx="1.5" ry="1.5" style="stroke:#C6A0F6;stroke-width:2.0;" width="193.082" x="1248.37" y="383"/><ellipse cx="1288.9305" cy="398" fill="#ADD1B2" rx="10" ry="10" style="stroke:#181818;stroke-width:1.0;"/><path d="M1290.7645,402.248 Q1290.3544,402.459 1289.9032,402.5645 Q1289.452,402.6699 1288.954,402.6699 Q1287.1845,402.6699 1286.2528,401.5039 Q1285.3212,400.3379 1285.3212,398.1348 Q1285.3212,395.9258 1286.2528,394.7598 Q1287.1845,393.5938 1288.954,393.5938 Q1289.452,393.5938 1289.9091,393.6992 Q1290.3661,393.8047 1290.7645,394.0156 L1290.7645,395.9375 Q1290.3192,395.5273 1289.9003,395.3369 Q1289.4813,395.1465 1289.036,395.1465 Q1288.0868,395.1465 1287.6034,395.8994 Q1287.12,396.6523 1287.12,398.1348 Q1287.12,399.6113 1287.6034,400.3643 Q1288.0868,401.1172 1289.036,401.1172 Q1289.4813,401.1172 1289.9003,400.9268 Q1290.3192,400.7363 1290.7645,400.3262 Z " fill="#CAD3F5"/><text fill="#A6DA95" font-family="Helvetica" font-size="16" lengthAdjust="spacing" textLength="77.3828" x="1307.8329" y="402.3203">StateTuple</text><rect fill="#24273A" height="14" style="stroke:#C6A0F6;stroke-width:1.0;stroke-dasharray:2.0,2.0;" width="24.6758" x="1419.7763" y="380"/><text fill="#CAD3F5" font-family="Helvetica" font-size="12" font-style="italic" lengthAdjust="spacing" textLength="22.6758" x="1420.7763" y="390.2402">S, A</text><line style="stroke:#C6A0F6;stroke-width:2.0;" x1="1249.37" x2="1440.452" y1="413" y2="413"/><ellipse cx="1259.37" cy="424.5" fill="none" rx="3" ry="3" style="stroke:#038048;stroke-width:1.0;"/><text fill="#A6DA95" font-family="Helvetica" font-size="12" lengthAdjust="spacing" textLength="37.3535" x="1267.37" y="426.2402">S state</text><ellipse cx="1259.37" cy="436.5" fill="none" rx="3" ry="3" style="stroke:#038048;stroke-width:1.0;"/><text fill="#A6DA95" font-family="Helvetica" font-size="12" lengthAdjust="spacing" textLength="40.0254" x="1267.37" y="438.2402">A value</text><line style="stroke:#C6A0F6;stroke-width:2.0;" x1="1249.37" x2="1440.452" y1="445" y2="445"/><ellipse cx="1259.37" cy="456.5" fill="#84BE84" rx="3" ry="3" style="stroke:#038048;stroke-width:1.0;"/><text fill="#A6DA95" font-family="Helvetica" font-size="12" lengthAdjust="spacing" text-decoration="underline" textLength="168.082" x="1267.37" y="458.2402">of(s: S, a: A): StateTuple&lt;S, A&gt;</text></g><!--class StateT--><g id="elem_StateT"><rect codeLine="32" fill="#24273A" height="118" id="StateT" rx="1.5" ry="1.5" style="stroke:#C6A0F6;stroke-width:2.0;" width="703.9551" x="771.93" y="191"/><rect fill="#363A4F" height="30" rx="1.5" ry="1.5" style="stroke:#363A4F;stroke-width:2.0;" width="703.9551" x="771.93" y="191"/><rect fill="#363A4F" height="1.5" style="stroke:#363A4F;stroke-width:2.0;" width="703.9551" x="771.93" y="219.5"/><rect codeLine="32" fill="none" height="118" id="StateT" rx="1.5" ry="1.5" style="stroke:#C6A0F6;stroke-width:2.0;" width="703.9551" x="771.93" y="191"/><ellipse cx="1045.3333" cy="206" fill="#ADD1B2" rx="10" ry="10" style="stroke:#181818;stroke-width:1.0;"/><path d="M1047.1673,210.248 Q1046.7571,210.459 1046.306,210.5645 Q1045.8548,210.6699 1045.3568,210.6699 Q1043.5872,210.6699 1042.6556,209.5039 Q1041.7239,208.3379 1041.7239,206.1348 Q1041.7239,203.9258 1042.6556,202.7598 Q1043.5872,201.5938 1045.3568,201.5938 Q1045.8548,201.5938 1046.3118,201.6992 Q1046.7689,201.8047 1047.1673,202.0156 L1047.1673,203.9375 Q1046.722,203.5273 1046.303,203.3369 Q1045.8841,203.1465 1045.4388,203.1465 Q1044.4896,203.1465 1044.0062,203.8994 Q1043.5228,204.6523 1043.5228,206.1348 Q1043.5228,207.6113 1044.0062,208.3643 Q1044.4896,209.1172 1045.4388,209.1172 Q1045.8841,209.1172 1046.303,208.9268 Q1046.722,208.7363 1047.1673,208.3262 Z " fill="#CAD3F5"/><text fill="#A6DA95" font-family="Helvetica" font-size="16" lengthAdjust="spacing" textLength="47.1328" x="1064.3333" y="210.3203">StateT</text><rect fill="#24273A" height="14" style="stroke:#C6A0F6;stroke-width:1.0;stroke-dasharray:2.0,2.0;" width="100.0156" x="1378.8695" y="188"/><text fill="#CAD3F5" font-family="Helvetica" font-size="12" font-style="italic" lengthAdjust="spacing" textLength="98.0156" x="1379.8695" y="198.2402">S, F_WITNESS, A</text><line style="stroke:#C6A0F6;stroke-width:2.0;" x1="772.93" x2="1474.8851" y1="221" y2="221"/><rect fill="none" height="6" style="stroke:#C82930;stroke-width:1.0;" width="6" x="779.93" y="229.5"/><text fill="#A6DA95" font-family="Helvetica" font-size="12" lengthAdjust="spacing" textLength="306.8262" x="790.93" y="234.2402">run: Function&lt;S, Kind&lt;F_WITNESS, StateTuple&lt;S, A&gt;&gt;&gt;</text><rect fill="none" height="6" style="stroke:#C82930;stroke-width:1.0;" width="6" x="779.93" y="241.5"/><text fill="#A6DA95" font-family="Helvetica" font-size="12" lengthAdjust="spacing" textLength="170.0684" x="790.93" y="246.2402">monadF: Monad&lt;F_WITNESS&gt;</text><line style="stroke:#C6A0F6;stroke-width:2.0;" x1="772.93" x2="1474.8851" y1="253" y2="253"/><ellipse cx="782.93" cy="264.5" fill="#84BE84" rx="3" ry="3" style="stroke:#038048;stroke-width:1.0;"/><text fill="#A6DA95" font-family="Helvetica" font-size="12" lengthAdjust="spacing" text-decoration="underline" textLength="678.9551" x="790.93" y="266.2402">create(run: Function&lt;S, Kind&lt;F_WITNESS, StateTuple&lt;S, A&gt;&gt;&gt;, monadF: Monad&lt;F_WITNESS&gt;): StateT&lt;S, F_WITNESS, A&gt;</text><ellipse cx="782.93" cy="276.5" fill="#84BE84" rx="3" ry="3" style="stroke:#038048;stroke-width:1.0;"/><text fill="#A6DA95" font-family="Helvetica" font-size="12" lengthAdjust="spacing" textLength="296.127" x="790.93" y="278.2402">runStateT(s: S): Kind&lt;F_WITNESS, StateTuple&lt;S, A&gt;&gt;</text><ellipse cx="782.93" cy="288.5" fill="#84BE84" rx="3" ry="3" style="stroke:#038048;stroke-width:1.0;"/><text fill="#A6DA95" font-family="Helvetica" font-size="12" lengthAdjust="spacing" textLength="214.0723" x="790.93" y="290.2402">evalStateT(s: S): Kind&lt;F_WITNESS, A&gt;</text><ellipse cx="782.93" cy="300.5" fill="#84BE84" rx="3" ry="3" style="stroke:#038048;stroke-width:1.0;"/><text fill="#A6DA95" font-family="Helvetica" font-size="12" lengthAdjust="spacing" textLength="217.4063" x="790.93" y="302.2402">execStateT(s: S): Kind&lt;F_WITNESS, S&gt;</text></g><!--class StateTWitness--><g id="elem_StateTWitness"><rect codeLine="44" fill="#24273A" height="30" id="StateTWitness" rx="1.5" ry="1.5" style="stroke:#C6A0F6;stroke-width:2.0;" width="257.8438" x="1650.99" y="539"/><rect fill="#363A4F" height="30" rx="1.5" ry="1.5" style="stroke:#363A4F;stroke-width:2.0;" width="257.8438" x="1650.99" y="539"/><rect fill="#363A4F" height="1.5" style="stroke:#363A4F;stroke-width:2.0;" width="257.8438" x="1650.99" y="567.5"/><rect codeLine="44" fill="none" height="30" id="StateTWitness" rx="1.5" ry="1.5" style="stroke:#C6A0F6;stroke-width:2.0;" width="257.8438" x="1650.99" y="539"/><ellipse cx="1664.99" cy="554" fill="#B4A7E5" rx="10" ry="10" style="stroke:#181818;stroke-width:1.0;"/><path d="M1661.9978,551.2754 L1661.9978,549.752 L1667.2068,549.752 L1667.2068,551.2754 L1665.4666,551.2754 L1665.4666,556.9766 L1667.2068,556.9766 L1667.2068,558.5 L1661.9978,558.5 L1661.9978,556.9766 L1663.738,556.9766 L1663.738,551.2754 Z " fill="#CAD3F5"/><text fill="#A6DA95" font-family="Helvetica" font-size="16" font-style="italic" lengthAdjust="spacing" textLength="140.5" x="1677.99" y="558.3203">StateTKind.Witness</text><rect fill="#24273A" height="14" style="stroke:#C6A0F6;stroke-width:1.0;stroke-dasharray:2.0,2.0;" width="85.3438" x="1826.49" y="536"/><text fill="#CAD3F5" font-family="Helvetica" font-size="12" font-style="italic" lengthAdjust="spacing" textLength="83.3438" x="1827.49" y="546.2402">S, F_WITNESS</text></g><!--class StateTKind--><g id="elem_StateTKind"><rect codeLine="50" fill="#24273A" height="30" id="StateTKind" rx="1.5" ry="1.5" style="stroke:#C6A0F6;stroke-width:2.0;" width="211.1719" x="1674.33" y="409"/><rect fill="#363A4F" height="30" rx="1.5" ry="1.5" style="stroke:#363A4F;stroke-width:2.0;" width="211.1719" x="1674.33" y="409"/><rect fill="#363A4F" height="1.5" style="stroke:#363A4F;stroke-width:2.0;" width="211.1719" x="1674.33" y="437.5"/><rect codeLine="50" fill="none" height="30" id="StateTKind" rx="1.5" ry="1.5" style="stroke:#C6A0F6;stroke-width:2.0;" width="211.1719" x="1674.33" y="409"/><ellipse cx="1688.33" cy="424" fill="#B4A7E5" rx="10" ry="10" style="stroke:#181818;stroke-width:1.0;"/><path d="M1685.3378,421.2754 L1685.3378,419.752 L1690.5468,419.752 L1690.5468,421.2754 L1688.8066,421.2754 L1688.8066,426.9766 L1690.5468,426.9766 L1690.5468,428.5 L1685.3378,428.5 L1685.3378,426.9766 L1687.078,426.9766 L1687.078,421.2754 Z " fill="#CAD3F5"/><text fill="#A6DA95" font-family="Helvetica" font-size="16" font-style="italic" lengthAdjust="spacing" textLength="79.1563" x="1701.33" y="428.3203">StateTKind</text><rect fill="#24273A" height="14" style="stroke:#C6A0F6;stroke-width:1.0;stroke-dasharray:2.0,2.0;" width="100.0156" x="1788.4863" y="406"/><text fill="#CAD3F5" font-family="Helvetica" font-size="12" font-style="italic" lengthAdjust="spacing" textLength="98.0156" x="1789.4863" y="416.2402">S, F_WITNESS, A</text></g><!--class StateTMonadInstance--><g id="elem_StateTMonadInstance"><rect codeLine="54" fill="#24273A" height="70" id="StateTMonadInstance" rx="1.5" ry="1.5" style="stroke:#C6A0F6;stroke-width:2.0;" width="423.8242" x="7" y="215"/><rect fill="#363A4F" height="30" rx="1.5" ry="1.5" style="stroke:#363A4F;stroke-width:2.0;" width="423.8242" x="7" y="215"/><rect fill="#363A4F" height="1.5" style="stroke:#363A4F;stroke-width:2.0;" width="423.8242" x="7" y="243.5"/><rect codeLine="54" fill="none" height="70" id="StateTMonadInstance" rx="1.5" ry="1.5" style="stroke:#C6A0F6;stroke-width:2.0;" width="423.8242" x="7" y="215"/><ellipse cx="123.2129" cy="230" fill="#ADD1B2" rx="10" ry="10" style="stroke:#181818;stroke-width:1.0;"/><path d="M125.0469,234.248 Q124.6367,234.459 124.1855,234.5645 Q123.7344,234.6699 123.2363,234.6699 Q121.4668,234.6699 120.5352,233.5039 Q119.6035,232.3379 119.6035,230.1348 Q119.6035,227.9258 120.5352,226.7598 Q121.4668,225.5938 123.2363,225.5938 Q123.7344,225.5938 124.1914,225.6992 Q124.6484,225.8047 125.0469,226.0156 L125.0469,227.9375 Q124.6016,227.5273 124.1826,227.3369 Q123.7637,227.1465 123.3184,227.1465 Q122.3691,227.1465 121.8857,227.8994 Q121.4023,228.6523 121.4023,230.1348 Q121.4023,231.6113 121.8857,232.3643 Q122.3691,233.1172 123.3184,233.1172 Q123.7637,233.1172 124.1826,232.9268 Q124.6016,232.7363 125.0469,232.3262 Z " fill="#CAD3F5"/><text fill="#A6DA95" font-family="Helvetica" font-size="16" lengthAdjust="spacing" textLength="96.0547" x="142.2129" y="234.3203">StateTMonad</text><rect fill="#24273A" height="14" style="stroke:#C6A0F6;stroke-width:1.0;stroke-dasharray:2.0,2.0;" width="85.3438" x="348.4805" y="212"/><text fill="#CAD3F5" font-family="Helvetica" font-size="12" font-style="italic" lengthAdjust="spacing" textLength="83.3438" x="349.4805" y="222.2402">S, F_WITNESS</text><line style="stroke:#C6A0F6;stroke-width:2.0;" x1="8" x2="429.8242" y1="245" y2="245"/><rect fill="none" height="6" style="stroke:#C82930;stroke-width:1.0;" width="6" x="15" y="253.5"/><text fill="#A6DA95" font-family="Helvetica" font-size="12" lengthAdjust="spacing" textLength="170.0684" x="26" y="258.2402">monadF: Monad&lt;F_WITNESS&gt;</text><line style="stroke:#C6A0F6;stroke-width:2.0;" x1="8" x2="429.8242" y1="265" y2="265"/><ellipse cx="18" cy="276.5" fill="#84BE84" rx="3" ry="3" style="stroke:#038048;stroke-width:1.0;"/><text fill="#A6DA95" font-family="Helvetica" font-size="12" lengthAdjust="spacing" text-decoration="underline" textLength="398.8242" x="26" y="278.2402">instance(monadF: Monad&lt;F_WITNESS&gt;): StateTMonad&lt;S, F_WITNESS&gt;</text></g><!--class StateTKindHelper--><g id="elem_StateTKindHelper"><rect codeLine="62" fill="#24273A" height="110" id="StateTKindHelper" rx="1.5" ry="1.5" style="stroke:#C6A0F6;stroke-width:2.0;" width="783.3262" x="1154.25" y="7"/><rect fill="#363A4F" height="30" rx="1.5" ry="1.5" style="stroke:#363A4F;stroke-width:2.0;" width="783.3262" x="1154.25" y="7"/><rect fill="#363A4F" height="1.5" style="stroke:#363A4F;stroke-width:2.0;" width="783.3262" x="1154.25" y="35.5"/><rect codeLine="62" fill="none" height="110" id="StateTKindHelper" rx="1.5" ry="1.5" style="stroke:#C6A0F6;stroke-width:2.0;" width="783.3262" x="1154.25" y="7"/><ellipse cx="1478.7686" cy="22" fill="#ADD1B2" rx="10" ry="10" style="stroke:#181818;stroke-width:1.0;"/><path d="M1480.6025,26.248 Q1480.1924,26.459 1479.7412,26.5645 Q1479.29,26.6699 1478.792,26.6699 Q1477.0225,26.6699 1476.0908,25.5039 Q1475.1592,24.3379 1475.1592,22.1348 Q1475.1592,19.9258 1476.0908,18.7598 Q1477.0225,17.5938 1478.792,17.5938 Q1479.29,17.5938 1479.7471,17.6992 Q1480.2041,17.8047 1480.6025,18.0156 L1480.6025,19.9375 Q1480.1572,19.5273 1479.7383,19.3369 Q1479.3193,19.1465 1478.874,19.1465 Q1477.9248,19.1465 1477.4414,19.8994 Q1476.958,20.6523 1476.958,22.1348 Q1476.958,23.6113 1477.4414,24.3643 Q1477.9248,25.1172 1478.874,25.1172 Q1479.3193,25.1172 1479.7383,24.9268 Q1480.1572,24.7363 1480.6025,24.3262 Z " fill="#CAD3F5"/><text fill="#A6DA95" font-family="Helvetica" font-size="16" lengthAdjust="spacing" textLength="126.2891" x="1497.7686" y="26.3203">StateTKindHelper</text><line style="stroke:#C6A0F6;stroke-width:2.0;" x1="1155.25" x2="1936.5762" y1="37" y2="37"/><ellipse cx="1165.25" cy="48.5" fill="#84BE84" rx="3" ry="3" style="stroke:#038048;stroke-width:1.0;"/><text fill="#A6DA95" font-family="Helvetica" font-size="12" lengthAdjust="spacing" text-decoration="underline" textLength="482.8418" x="1173.25" y="50.2402">narrow(kind: Kind&lt;StateTKind.Witness&lt;S, F_WITNESS&gt;, A&gt;): StateT&lt;S, F_WITNESS, A&gt;</text><ellipse cx="1165.25" cy="60.5" fill="#84BE84" rx="3" ry="3" style="stroke:#038048;stroke-width:1.0;"/><text fill="#A6DA95" font-family="Helvetica" font-size="12" lengthAdjust="spacing" text-decoration="underline" textLength="483.5039" x="1173.25" y="62.2402">wrap(stateT: StateT&lt;S, F_WITNESS, A&gt;): Kind&lt;StateTKind.Witness&lt;S, F_WITNESS&gt;, A&gt;</text><ellipse cx="1165.25" cy="72.5" fill="#84BE84" rx="3" ry="3" style="stroke:#038048;stroke-width:1.0;"/><text fill="#A6DA95" font-family="Helvetica" font-size="12" lengthAdjust="spacing" text-decoration="underline" textLength="586.916" x="1173.25" y="74.2402">runStateT(kind: Kind&lt;StateTKind.Witness&lt;S, F_WITNESS&gt;, A&gt;, s: S): Kind&lt;F_WITNESS, StateTuple&lt;S, A&gt;&gt;</text><ellipse cx="1165.25" cy="84.5" fill="#84BE84" rx="3" ry="3" style="stroke:#038048;stroke-width:1.0;"/><text fill="#A6DA95" font-family="Helvetica" font-size="12" lengthAdjust="spacing" text-decoration="underline" textLength="504.8613" x="1173.25" y="86.2402">evalStateT(kind: Kind&lt;StateTKind.Witness&lt;S, F_WITNESS&gt;, A&gt;, s: S): Kind&lt;F_WITNESS, A&gt;</text><ellipse cx="1165.25" cy="96.5" fill="#84BE84" rx="3" ry="3" style="stroke:#038048;stroke-width:1.0;"/><text fill="#A6DA95" font-family="Helvetica" font-size="12" lengthAdjust="spacing" text-decoration="underline" textLength="508.1953" x="1173.25" y="98.2402">execStateT(kind: Kind&lt;StateTKind.Witness&lt;S, F_WITNESS&gt;, A&gt;, s: S): Kind&lt;F_WITNESS, S&gt;</text><ellipse cx="1165.25" cy="108.5" fill="#84BE84" rx="3" ry="3" style="stroke:#038048;stroke-width:1.0;"/><text fill="#A6DA95" font-family="Helvetica" font-size="12" lengthAdjust="spacing" text-decoration="underline" textLength="758.3262" x="1173.25" y="110.2402">lift(fn: Function&lt;S, Kind&lt;F_WITNESS, StateTuple&lt;S,A&gt;&gt;&gt;, monadF: Monad&lt;F_WITNESS&gt;) : Kind&lt;StateTKind.Witness&lt;S, F_WITNESS&gt;, A&gt;</text></g><!--reverse link Applicative to Monad--><g id="link_Applicative_Monad"><path d="M574.7812,276.2066 C599.7812,295.3866 622.39,319.97 605.91,353 C593.28,378.32 566.65,396.88 545.11,408.5 " fill="none" id="Applicative-backto-Monad" style="stroke:#F5BDE6;stroke-width:1.0;"/><polygon fill="none" points="560.5,265.25,571.129,280.967,578.4334,271.4462,560.5,265.25" style="stroke:#F5BDE6;stroke-width:1.0;"/></g><!--reverse link Functor to Applicative--><g id="link_Functor_Applicative"><path d="M539.91,95.29 C539.91,129.91 539.91,199.99 539.91,234.67 " fill="none" id="Functor-backto-Applicative" style="stroke:#F5BDE6;stroke-width:1.0;"/><polygon fill="none" points="539.91,77.29,533.91,95.29,545.91,95.29,539.91,77.29" style="stroke:#F5BDE6;stroke-width:1.0;"/></g><!--reverse link Kind to StateTKind--><g id="link_Kind_StateTKind"><path d="M1900.3266,279.1729 C1873.1566,311.6329 1818.85,376.49 1791.81,408.79 " fill="none" id="Kind-backto-StateTKind" style="stroke:#F5BDE6;stroke-width:1.0;"/><polygon fill="none" points="1911.88,265.37,1895.7256,275.3217,1904.9275,283.024,1911.88,265.37" style="stroke:#F5BDE6;stroke-width:1.0;"/></g><!--reverse link Monad to StateTMonadInstance--><g id="link_Monad_StateTMonadInstance"><path d="M449.9352,409.689 C370.8052,392.829 232.76,362.41 224.91,353 C209.57,334.62 208.74,307.26 211.38,285.5 " fill="none" id="Monad-backto-StateTMonadInstance" style="stroke:#F5BDE6;stroke-width:1.0;stroke-dasharray:7.0,7.0;"/><polygon fill="none" points="467.54,413.44,451.1855,403.8207,448.6848,415.5573,467.54,413.44" style="stroke:#F5BDE6;stroke-width:1.0;"/></g><!--link StateTMonadInstance to Monad--><g id="link_StateTMonadInstance_Monad"><path codeLine="75" d="M223.89,285.32 C228.86,307.56 238.67,335.55 257.91,353 C273.55,367.19 380.89,393.1403 449.91,408.8703 " fill="none" id="StateTMonadInstance-to-Monad" style="stroke:#F5BDE6;stroke-width:1.0;stroke-dasharray:7.0,7.0;"/><polygon fill="none" points="467.46,412.87,451.2433,403.0203,448.5768,414.7203,467.46,412.87" style="stroke:#F5BDE6;stroke-width:1.0;"/><text fill="#CAD3F5" font-family="Helvetica" font-size="12" lengthAdjust="spacing" textLength="61.3535" x="258.91" y="349.2402">implements</text></g><!--link StateTMonadInstance to Monad--><g id="link_StateTMonadInstance_Monad"><path codeLine="77" d="M260.48,285.4 C287.07,306.45 322.84,333.07 356.91,353 C395.48,375.55 437.0342,393.5642 469.3442,406.4042 " fill="none" id="StateTMonadInstance-to-Monad-1" style="stroke:#F5BDE6;stroke-width:1.0;stroke-dasharray:7.0,7.0;"/><polygon fill="#F5BDE6" points="474.92,408.62,468.0335,401.579,470.2735,406.7735,465.079,409.0135,474.92,408.62" style="stroke:#F5BDE6;stroke-width:1.0;"/><text fill="#CAD3F5" font-family="Helvetica" font-size="12" lengthAdjust="spacing" textLength="239.4785" x="357.91" y="349.2402">depends on (holds ref to underlying monadF)</text></g><!--link StateT to StateTKind--><g id="link_StateT_StateTKind"><path codeLine="73" d="M1346.92,309.47 C1481.38,344.73 1624.7382,382.3159 1707.4082,403.9859 " fill="none" id="StateT-to-StateTKind" style="stroke:#F5BDE6;stroke-width:1.0;stroke-dasharray:7.0,7.0;"/><polygon fill="none" points="1724.82,408.55,1708.9296,398.182,1705.8869,409.7898,1724.82,408.55" style="stroke:#F5BDE6;stroke-width:1.0;"/><text fill="#CAD3F5" font-family="Helvetica" font-size="12" lengthAdjust="spacing" textLength="61.3535" x="1511.67" y="349.2402">implements</text></g><!--link StateTKind to StateTWitness--><g id="link_StateTKind_StateTWitness"><path codeLine="74" d="M1779.91,439.19 C1779.91,463.79 1779.91,508.1 1779.91,532.75 " fill="none" id="StateTKind-to-StateTWitness" style="stroke:#F5BDE6;stroke-width:1.0;stroke-dasharray:7.0,7.0;"/><polygon fill="#F5BDE6" points="1779.91,538.75,1783.91,529.75,1779.91,533.75,1775.91,529.75,1779.91,538.75" style="stroke:#F5BDE6;stroke-width:1.0;"/><text fill="#CAD3F5" font-family="Helvetica" font-size="12" lengthAdjust="spacing" textLength="126.7207" x="1780.91" y="505.2402">uses witness (phantom)</text></g><!--link StateTMonadInstance to StateTWitness--><g id="link_StateTMonadInstance_StateTWitness"><path codeLine="76" d="M208.61,285.32 C204.25,305.49 201.65,331.22 208.91,353 C228.59,412.03 238.11,435.54 292.91,465 C410.83,528.38 1304.8206,546.7165 1644.6006,551.4465 " fill="none" id="StateTMonadInstance-to-StateTWitness" style="stroke:#F5BDE6;stroke-width:1.0;stroke-dasharray:7.0,7.0;"/><polygon fill="#F5BDE6" points="1650.6,551.53,1641.6565,547.4051,1645.6005,551.4604,1641.5452,555.4043,1650.6,551.53" style="stroke:#F5BDE6;stroke-width:1.0;"/><text fill="#CAD3F5" font-family="Helvetica" font-size="12" lengthAdjust="spacing" textLength="155.3965" x="293.91" y="427.2402">uses witness (for Monad&lt;F&gt;)</text></g><!--link StateT to Monad--><g id="link_StateT_Monad"><path codeLine="78" d="M916.2,309.47 C787.68,345.65 639.1155,387.4741 564.0955,408.5941 " fill="none" id="StateT-to-Monad" style="stroke:#F5BDE6;stroke-width:1.0;stroke-dasharray:7.0,7.0;"/><polygon fill="#F5BDE6" points="558.32,410.22,568.0672,411.6314,563.1329,408.865,565.8993,403.9308,558.32,410.22" style="stroke:#F5BDE6;stroke-width:1.0;"/><text fill="#CAD3F5" font-family="Helvetica" font-size="12" lengthAdjust="spacing" textLength="239.4785" x="801.09" y="349.2402">depends on (holds ref to underlying monadF)</text></g><!--link StateT to StateTuple--><g id="link_StateT_StateTuple"><path codeLine="79" d="M1141.16,309.32 C1148.06,325.07 1157.43,341.04 1169.91,353 C1191.65,373.82 1214.7579,386.5976 1242.6279,397.1376 " fill="none" id="StateT-to-StateTuple" style="stroke:#F5BDE6;stroke-width:1.0;stroke-dasharray:7.0,7.0;"/><polygon fill="#F5BDE6" points="1248.24,399.26,1241.2368,392.335,1243.5633,397.4913,1238.4069,399.8178,1248.24,399.26" style="stroke:#F5BDE6;stroke-width:1.0;"/><text fill="#CAD3F5" font-family="Helvetica" font-size="12" lengthAdjust="spacing" textLength="196.377" x="1170.91" y="349.2402">uses (in its run function's return type)</text></g><!--link StateTKindHelper to StateT--><g id="link_StateTKindHelper_StateT"><path codeLine="80" d="M1422.43,117.42 C1370.26,140.42 1314.9003,164.82 1261.7903,188.23 " fill="none" id="StateTKindHelper-to-StateT" style="stroke:#F5BDE6;stroke-width:1.0;stroke-dasharray:7.0,7.0;"/><polygon fill="#F5BDE6" points="1256.3,190.65,1266.1488,190.6802,1260.8753,188.6333,1262.9221,183.3597,1256.3,190.65" style="stroke:#F5BDE6;stroke-width:1.0;"/><text fill="#CAD3F5" font-family="Helvetica" font-size="12" lengthAdjust="spacing" textLength="91.3652" x="1348.57" y="157.2402">narrows to/wraps</text></g><!--link StateTKindHelper to StateTKind--><g id="link_StateTKindHelper_StateTKind"><path codeLine="81" d="M1658.78,117.45 C1688.35,136.8 1717.39,161.32 1736.91,191 C1783.51,261.84 1783.1733,363.8177 1781.2133,402.5477 " fill="none" id="StateTKindHelper-to-StateTKind" style="stroke:#F5BDE6;stroke-width:1.0;stroke-dasharray:7.0,7.0;"/><polygon fill="#F5BDE6" points="1780.91,408.54,1785.3598,399.7537,1781.1627,403.5464,1777.37,399.3493,1780.91,408.54" style="stroke:#F5BDE6;stroke-width:1.0;"/><text fill="#CAD3F5" font-family="Helvetica" font-size="12" lengthAdjust="spacing" textLength="63.3809" x="1777.47" y="253.2402">operates on</text></g><!--link StateTKindHelper to StateTWitness--><g id="link_StateTKindHelper_StateTWitness"><path codeLine="82" d="M1830.11,117.49 C1901.45,137.17 1964.03,161.85 1985.91,191 C2072.78,306.74 2019.45,407.89 1915.91,509 C1901.97,522.61 1889.4621,530.0248 1870.9521,536.5148 " fill="none" id="StateTKindHelper-to-StateTWitness" style="stroke:#F5BDE6;stroke-width:1.0;stroke-dasharray:7.0,7.0;"/><polygon fill="#F5BDE6" points="1865.29,538.5,1875.1066,539.2968,1870.0084,536.8456,1872.4596,531.7474,1865.29,538.5" style="stroke:#F5BDE6;stroke-width:1.0;"/><text fill="#CAD3F5" font-family="Helvetica" font-size="12" lengthAdjust="spacing" textLength="68.6953" x="2026.97" y="349.2402">uses witness</text></g><!--link StateTKindHelper to StateTuple--><g id="link_StateTKindHelper_StateTuple"><path codeLine="83" d="M1557.64,117.22 C1568.01,180.3 1574.58,284.5 1523.91,353 C1504.17,379.69 1478.4294,394.3347 1447.3694,404.5547 " fill="none" id="StateTKindHelper-to-StateTuple" style="stroke:#F5BDE6;stroke-width:1.0;stroke-dasharray:7.0,7.0;"/><polygon fill="#F5BDE6" points="1441.67,406.43,1451.4693,407.4166,1446.4195,404.8672,1448.9689,399.8174,1441.67,406.43" style="stroke:#F5BDE6;stroke-width:1.0;"/><text fill="#CAD3F5" font-family="Helvetica" font-size="12" lengthAdjust="spacing" textLength="162.7383" x="1565.89" y="253.2402">uses (in runStateT return type)</text></g><!--link StateTKindHelper to Monad--><g id="link_StateTKindHelper_Monad"><path codeLine="84" d="M1153.83,81.84 C962.52,98.71 758.41,130.63 686.91,191 C629.03,239.88 681.62,294.15 633.91,353 C612.9,378.92 585.0604,394.8161 558.6904,406.1761 " fill="none" id="StateTKindHelper-to-Monad" style="stroke:#F5BDE6;stroke-width:1.0;stroke-dasharray:7.0,7.0;"/><polygon fill="#F5BDE6" points="553.18,408.55,563.0282,408.6628,557.772,406.5718,559.8631,401.3156,553.18,408.55" style="stroke:#F5BDE6;stroke-width:1.0;"/><text fill="#CAD3F5" font-family="Helvetica" font-size="12" lengthAdjust="spacing" textLength="66.0117" x="687.91" y="253.2402">uses (for lift)</text></g><!--SRC=[hLPRQzim57xthpZhInEMoxifXdGij9IEqPJrSMYAN8lPaf3aTQNhVz-HBDlArStMG42HpZdVkNpweWzSqB9UCoYiLIQTppLvcZroMzG_QiCqbS8oOMTKLdD1fR5aokcS4gjKJIaNqufGMd1YvLILHDYwAgUsO1MRLuIBkL_E5Euc1KSGLYdx31MhVZ1j4loSmoUf6LpTt0D799qJoapIBU66Y_N5SWAB35uIW7DO0ZU0ORtB4xU26GCZLI2shC0-ApRsTelMxXSfQ-OFajSeyAqK12Ddm7vZWMi32wLAZeNnNynjls1gy17oajXReaQvI65P2sgv51UBIPVNPPPD82TfbEWuZKutCBSWMcGVL-e8LUOZ3BaOns6R4vTAtcz7APsKoIvajQV8oy68wBkonBBxMfKieIN1OVGR5wjkS1zX1SOT-FMYcOfVlxXjJbzTqIO5T0cbRyU9uS0eHddEANXCf0p6Qk3F6Wldi_p-S7t_vVFAkvy1QNFp6JcIh09AGuzchtDAuI7GAvVQKwaMQwRBPouUeNBqWMNmMQJmhQUPsvk2hkDkhbhAz2bjrvTbmTF7NgOjHLkFvZXg6DKC8up-0MXo4AFh-qx_0ZgYDGP-M1qVZg05HuOZF-xPOR3VZ0w0EDDND_IUqs7mpdGM9hTHHCo0Th8j4Rv6-k77xTI5eU2jSTZlI9R3AH_ZgpllrA8n7YYrktSkoJkcD3EeuXt_CJBnWTgKDgvEmub3hVEdrm99AB02Nk6WAnyxk0rabhtpvNlxTU4Xvz4Wz_Sq8EHtBGgcEHOhyucJJ1Gh_8O_YSrczesuOgLYEjGT9II8rl9fz1DDqhUFTV26Tl6VD6gw5ztxWpxZ4v2tu_TIS6894pXHEph8I4JU2tEthaX-tgsm7P2IvtRp3tT8kGU46qwRvAj_VDqnf2w2cu8hamHrcCt-PB7ofD4jJwBzsIpRajCKyCreTfvbusIVT7WOlxKFOTjs2Ch9HFkc6n-CqSAjcV9YAWMC2bdYIhCShDnHcUMuxyf_k_VZRDCVSG5EJl0gGHw8SEwYsLgBy9hT4P8-58PfH0IVkdBkxhivPXwcAN4NVxhqZrdlx_GnZ-tAEe5uGq5jQnjdDqrtGyR8qhy0]--></g></svg>