<svg xmlns="http://www.w3.org/2000/svg" xmlns:xlink="http://www.w3.org/1999/xlink" contentStyleType="text/css" height="1134px" preserveAspectRatio="none" style="width:1482px;height:1134px;background:#24273A;" version="1.1" viewBox="0 0 1482 1134" width="1482px" zoomAndPan="magnify"><defs/><g><rect fill="#24273A" height="1134" style="stroke:none;stroke-width:1.0;" width="1482" x="0" y="0"/><!--cluster Core HKT Interfaces--><g id="cluster_Core HKT Interfaces"><path d="M12.5,939.85 L139.7129,939.85 A2.25,2.25 0 0 1 141.2129,941.35 L148.2129,959.9828 L423.5,959.9828 A1.5,1.5 0 0 1 425,961.4828 L425,1126.4 A1.5,1.5 0 0 1 423.5,1127.9 L12.5,1127.9 A1.5,1.5 0 0 1 11,1126.4 L11,941.35 A1.5,1.5 0 0 1 12.5,939.85 " fill="#24273A" style="stroke:#CAD3F5;stroke-width:1.0;"/><line style="stroke:#CAD3F5;stroke-width:1.0;" x1="11" x2="148.2129" y1="959.9828" y2="959.9828"/><text fill="#CAD3F5" font-family="sans-serif" font-size="12" font-weight="bold" lengthAdjust="spacing" textLength="124.2129" x="15" y="953.4516">Core HKT Interfaces</text></g><!--cluster State Type--><g id="cluster_State Type"><path d="M1114.5,666.23 L1182.3809,666.23 A2.25,2.25 0 0 1 1183.8809,667.73 L1190.8809,686.3628 L1473.5,686.3628 A1.5,1.5 0 0 1 1475,687.8628 L1475,1034.56 A1.5,1.5 0 0 1 1473.5,1036.06 L1114.5,1036.06 A1.5,1.5 0 0 1 1113,1034.56 L1113,667.73 A1.5,1.5 0 0 1 1114.5,666.23 " fill="#24273A" style="stroke:#CAD3F5;stroke-width:1.0;"/><line style="stroke:#CAD3F5;stroke-width:1.0;" x1="1113" x2="1190.8809" y1="686.3628" y2="686.3628"/><text fill="#CAD3F5" font-family="sans-serif" font-size="12" font-weight="bold" lengthAdjust="spacing" textLength="64.8809" x="1117" y="679.8316">State Type</text></g><!--cluster State HKT Simulation--><g id="cluster_State HKT Simulation"><path d="M502.5,11 L635.7832,11 A2.25,2.25 0 0 1 637.2832,12.5 L644.2832,31.1328 L1403.5,31.1328 A1.5,1.5 0 0 1 1405,32.6328 L1405,616.73 A1.5,1.5 0 0 1 1403.5,618.23 L502.5,618.23 A1.5,1.5 0 0 1 501,616.73 L501,12.5 A1.5,1.5 0 0 1 502.5,11 " fill="#24273A" style="stroke:#CAD3F5;stroke-width:1.0;"/><line style="stroke:#CAD3F5;stroke-width:1.0;" x1="501" x2="644.2832" y1="31.1328" y2="31.1328"/><text fill="#CAD3F5" font-family="sans-serif" font-size="12" font-weight="bold" lengthAdjust="spacing" textLength="130.2832" x="505" y="24.6016">State HKT Simulation</text></g><!--cluster StateKind<S, A> extends Kind<StateKind--><g id="cluster_StateKind&lt;S, A&gt; extends Kind&lt;StateKind"><path d="M526.5,85.66 L783.3867,85.66 A2.25,2.25 0 0 1 784.8867,87.16 L791.8867,105.7928 L792.5,105.7928 A1.5,1.5 0 0 1 794,107.2928 L794,162 A1.5,1.5 0 0 1 792.5,163.5 L526.5,163.5 A1.5,1.5 0 0 1 525,162 L525,87.16 A1.5,1.5 0 0 1 526.5,85.66 " fill="#24273A" style="stroke:#CAD3F5;stroke-width:1.0;"/><line style="stroke:#CAD3F5;stroke-width:1.0;" x1="525" x2="791.8867" y1="105.7928" y2="105.7928"/><text fill="#CAD3F5" font-family="sans-serif" font-size="12" font-weight="bold" lengthAdjust="spacing" textLength="253.8867" x="529" y="99.2616">StateKind&lt;S, A&gt; extends Kind&lt;StateKind</text></g><!--class Kind--><g id="elem_Kind"><rect codeLine="9" fill="#24273A" height="28.8438" id="Kind" rx="1.5" ry="1.5" style="stroke:#C6A0F6;stroke-width:2.0;" width="90.7422" x="318.63" y="972.85"/><rect fill="#363A4F" height="28.8438" rx="1.5" ry="1.5" style="stroke:#363A4F;stroke-width:2.0;" width="90.7422" x="318.63" y="972.85"/><rect fill="#363A4F" height="1.5" style="stroke:#363A4F;stroke-width:2.0;" width="90.7422" x="318.63" y="1000.1938"/><rect codeLine="9" fill="none" height="28.8438" id="Kind" rx="1.5" ry="1.5" style="stroke:#C6A0F6;stroke-width:2.0;" width="90.7422" x="318.63" y="972.85"/><ellipse cx="331.63" cy="987.2719" fill="#FFFFFF" rx="9" ry="9" style="stroke:#000000;stroke-width:1.0;"/><path d="M328.6378,984.5473 L328.6378,983.0238 L333.8468,983.0238 L333.8468,984.5473 L332.1066,984.5473 L332.1066,990.2484 L333.8468,990.2484 L333.8468,991.7719 L328.6378,991.7719 L328.6378,990.2484 L330.378,990.2484 L330.378,984.5473 Z " fill="#CAD3F5"/><text fill="#A6DA95" font-family="sans-serif" font-size="16" font-style="italic" lengthAdjust="spacing" textLength="35.0703" x="343.63" y="993.3188">Kind</text><rect fill="#24273A" height="16.584" style="stroke:#C6A0F6;stroke-width:1.0;stroke-dasharray:2.0,2.0;" width="25.6719" x="386.7003" y="969.85"/><text fill="#000000" font-family="Verdana" font-size="12" font-style="italic" lengthAdjust="spacing" textLength="23.6719" x="387.7003" y="982.9145">F, A</text></g><!--class Functor--><g id="elem_Functor"><rect codeLine="10" fill="#24273A" height="28.8438" id="Functor" rx="1.5" ry="1.5" style="stroke:#C6A0F6;stroke-width:2.0;" width="97.8887" x="27.06" y="972.85"/><rect fill="#363A4F" height="28.8438" rx="1.5" ry="1.5" style="stroke:#363A4F;stroke-width:2.0;" width="97.8887" x="27.06" y="972.85"/><rect fill="#363A4F" height="1.5" style="stroke:#363A4F;stroke-width:2.0;" width="97.8887" x="27.06" y="1000.1938"/><rect codeLine="10" fill="none" height="28.8438" id="Functor" rx="1.5" ry="1.5" style="stroke:#C6A0F6;stroke-width:2.0;" width="97.8887" x="27.06" y="972.85"/><ellipse cx="40.06" cy="987.2719" fill="#FFFFFF" rx="9" ry="9" style="stroke:#000000;stroke-width:1.0;"/><path d="M37.0678,984.5473 L37.0678,983.0238 L42.2768,983.0238 L42.2768,984.5473 L40.5366,984.5473 L40.5366,990.2484 L42.2768,990.2484 L42.2768,991.7719 L37.0678,991.7719 L37.0678,990.2484 L38.808,990.2484 L38.808,984.5473 Z " fill="#CAD3F5"/><text fill="#A6DA95" font-family="sans-serif" font-size="16" font-style="italic" lengthAdjust="spacing" textLength="58.9922" x="52.06" y="993.3188">Functor</text><rect fill="#24273A" height="16.584" style="stroke:#C6A0F6;stroke-width:1.0;stroke-dasharray:2.0,2.0;" width="8.8965" x="119.0522" y="969.85"/><text fill="#000000" font-family="Verdana" font-size="12" font-style="italic" lengthAdjust="spacing" textLength="6.8965" x="120.0522" y="982.9145">F</text></g><!--class Applicative--><g id="elem_Applicative"><rect codeLine="11" fill="#24273A" height="28.8438" id="Applicative" rx="1.5" ry="1.5" style="stroke:#C6A0F6;stroke-width:2.0;" width="124.1621" x="159.92" y="972.85"/><rect fill="#363A4F" height="28.8438" rx="1.5" ry="1.5" style="stroke:#363A4F;stroke-width:2.0;" width="124.1621" x="159.92" y="972.85"/><rect fill="#363A4F" height="1.5" style="stroke:#363A4F;stroke-width:2.0;" width="124.1621" x="159.92" y="1000.1938"/><rect codeLine="11" fill="none" height="28.8438" id="Applicative" rx="1.5" ry="1.5" style="stroke:#C6A0F6;stroke-width:2.0;" width="124.1621" x="159.92" y="972.85"/><ellipse cx="172.92" cy="987.2719" fill="#FFFFFF" rx="9" ry="9" style="stroke:#000000;stroke-width:1.0;"/><path d="M169.9278,984.5473 L169.9278,983.0238 L175.1368,983.0238 L175.1368,984.5473 L173.3966,984.5473 L173.3966,990.2484 L175.1368,990.2484 L175.1368,991.7719 L169.9278,991.7719 L169.9278,990.2484 L171.668,990.2484 L171.668,984.5473 Z " fill="#CAD3F5"/><text fill="#A6DA95" font-family="sans-serif" font-size="16" font-style="italic" lengthAdjust="spacing" textLength="85.2656" x="184.92" y="993.3188">Applicative</text><rect fill="#24273A" height="16.584" style="stroke:#C6A0F6;stroke-width:1.0;stroke-dasharray:2.0,2.0;" width="8.8965" x="278.1856" y="969.85"/><text fill="#000000" font-family="Verdana" font-size="12" font-style="italic" lengthAdjust="spacing" textLength="6.8965" x="279.1856" y="982.9145">F</text></g><!--class Monad--><g id="elem_Monad"><rect codeLine="12" fill="#24273A" height="28.8438" id="Monad" rx="1.5" ry="1.5" style="stroke:#C6A0F6;stroke-width:2.0;" width="91.3418" x="30.33" y="1083.06"/><rect fill="#363A4F" height="28.8438" rx="1.5" ry="1.5" style="stroke:#363A4F;stroke-width:2.0;" width="91.3418" x="30.33" y="1083.06"/><rect fill="#363A4F" height="1.5" style="stroke:#363A4F;stroke-width:2.0;" width="91.3418" x="30.33" y="1110.4038"/><rect codeLine="12" fill="none" height="28.8438" id="Monad" rx="1.5" ry="1.5" style="stroke:#C6A0F6;stroke-width:2.0;" width="91.3418" x="30.33" y="1083.06"/><ellipse cx="43.33" cy="1097.4819" fill="#FFFFFF" rx="9" ry="9" style="stroke:#000000;stroke-width:1.0;"/><path d="M40.3378,1094.7573 L40.3378,1093.2338 L45.5468,1093.2338 L45.5468,1094.7573 L43.8066,1094.7573 L43.8066,1100.4584 L45.5468,1100.4584 L45.5468,1101.9819 L40.3378,1101.9819 L40.3378,1100.4584 L42.078,1100.4584 L42.078,1094.7573 Z " fill="#CAD3F5"/><text fill="#A6DA95" font-family="sans-serif" font-size="16" font-style="italic" lengthAdjust="spacing" textLength="52.4453" x="55.33" y="1103.5288">Monad</text><rect fill="#24273A" height="16.584" style="stroke:#C6A0F6;stroke-width:1.0;stroke-dasharray:2.0,2.0;" width="8.8965" x="115.7753" y="1080.06"/><text fill="#000000" font-family="Verdana" font-size="12" font-style="italic" lengthAdjust="spacing" textLength="6.8965" x="116.7753" y="1093.1245">F</text></g><!--class State--><g id="elem_State"><rect codeLine="16" fill="#24273A" height="178.623" id="State" rx="1.5" ry="1.5" style="stroke:#C6A0F6;stroke-width:2.0;" width="330.6328" x="1128.68" y="699.23"/><rect fill="#363A4F" height="43.4277" rx="1.5" ry="1.5" style="stroke:#363A4F;stroke-width:2.0;" width="330.6328" x="1128.68" y="699.23"/><rect fill="#363A4F" height="1.5" style="stroke:#363A4F;stroke-width:2.0;" width="330.6328" x="1128.68" y="741.1577"/><rect codeLine="16" fill="none" height="178.623" id="State" rx="1.5" ry="1.5" style="stroke:#C6A0F6;stroke-width:2.0;" width="330.6328" x="1128.68" y="699.23"/><ellipse cx="1209.8118" cy="720.9439" fill="#FFFFFF" rx="9" ry="9" style="stroke:#000000;stroke-width:1.0;"/><path d="M1206.8196,718.2193 L1206.8196,716.6958 L1212.0286,716.6958 L1212.0286,718.2193 L1210.2884,718.2193 L1210.2884,723.9204 L1212.0286,723.9204 L1212.0286,725.4439 L1206.8196,725.4439 L1206.8196,723.9204 L1208.5599,723.9204 L1208.5599,718.2193 Z " fill="#CAD3F5"/><text fill="#000000" font-family="Verdana" font-size="12" font-style="italic" lengthAdjust="spacing" textLength="135.8906" x="1225.3118" y="716.2945">&#171;Functional Interface&#187;</text><text fill="#A6DA95" font-family="sans-serif" font-size="16" font-style="italic" lengthAdjust="spacing" textLength="38.3359" x="1274.0892" y="734.2827">State</text><rect fill="#24273A" height="16.584" style="stroke:#C6A0F6;stroke-width:1.0;stroke-dasharray:2.0,2.0;" width="26.9785" x="1435.3343" y="696.23"/><text fill="#000000" font-family="Verdana" font-size="12" font-style="italic" lengthAdjust="spacing" textLength="24.9785" x="1436.3343" y="709.2945">S, A</text><line style="stroke:#C6A0F6;stroke-width:2.0;" x1="1129.68" x2="1458.3128" y1="742.6577" y2="742.6577"/><text fill="#A6DA95" font-family="sans-serif" font-size="12" lengthAdjust="spacing" textLength="215.3027" x="1134.68" y="758.2593">+StateTuple&lt;S, A&gt; run(S initialState)</text><text fill="#A6DA95" font-family="sans-serif" font-size="12" lengthAdjust="spacing" text-decoration="underline" textLength="318.6328" x="1134.68" y="772.3921">+State&lt;S, A&gt; of(Function&lt;S, StateTuple&lt;S, A&gt;&gt; func)</text><text fill="#A6DA95" font-family="sans-serif" font-size="12" lengthAdjust="spacing" text-decoration="underline" textLength="160.418" x="1134.68" y="786.5249">+State&lt;S, A&gt; pure(A value)</text><text fill="#A6DA95" font-family="sans-serif" font-size="12" lengthAdjust="spacing" text-decoration="underline" textLength="108.1465" x="1134.68" y="800.6577">+State&lt;S, S&gt; get()</text><text fill="#A6DA95" font-family="sans-serif" font-size="12" lengthAdjust="spacing" text-decoration="underline" textLength="188.9473" x="1134.68" y="814.7905">+State&lt;S, Void&gt; set(S newState)</text><text fill="#A6DA95" font-family="sans-serif" font-size="12" lengthAdjust="spacing" text-decoration="underline" textLength="247.5996" x="1134.68" y="828.9234">+State&lt;S, Void&gt; modify(Function&lt;S, S&gt; f)</text><text fill="#A6DA95" font-family="sans-serif" font-size="12" lengthAdjust="spacing" text-decoration="underline" textLength="233.0859" x="1134.68" y="843.0562">+State&lt;S, A&gt; inspect(Function&lt;S, A&gt; f)</text><text fill="#A6DA95" font-family="sans-serif" font-size="12" lengthAdjust="spacing" textLength="215.625" x="1134.68" y="857.189">+State&lt;S, B&gt; map(Function&lt;A, B&gt; f)</text><text fill="#A6DA95" font-family="sans-serif" font-size="12" lengthAdjust="spacing" textLength="295.6406" x="1134.68" y="871.3218">+State&lt;S, B&gt; flatMap(Function&lt;A, State&lt;S, B&gt;&gt; f)</text></g><!--class StateTuple--><g id="elem_StateTuple"><rect codeLine="29" fill="#24273A" height="65.5605" id="StateTuple" rx="1.5" ry="1.5" style="stroke:#C6A0F6;stroke-width:2.0;" width="179.6133" x="1204.19" y="954.5"/><rect fill="#363A4F" height="43.4277" rx="1.5" ry="1.5" style="stroke:#363A4F;stroke-width:2.0;" width="179.6133" x="1204.19" y="954.5"/><rect fill="#363A4F" height="1.5" style="stroke:#363A4F;stroke-width:2.0;" width="179.6133" x="1204.19" y="996.4277"/><rect codeLine="29" fill="none" height="65.5605" id="StateTuple" rx="1.5" ry="1.5" style="stroke:#C6A0F6;stroke-width:2.0;" width="179.6133" x="1204.19" y="954.5"/><ellipse cx="1235.4792" cy="976.2139" fill="#FFFFFF" rx="9" ry="9" style="stroke:#000000;stroke-width:1.0;"/><path d="M1237.3131,980.4619 Q1236.903,980.6729 1236.4518,980.7783 Q1236.0006,980.8838 1235.5026,980.8838 Q1233.7331,980.8838 1232.8014,979.7178 Q1231.8698,978.5518 1231.8698,976.3486 Q1231.8698,974.1396 1232.8014,972.9736 Q1233.7331,971.8076 1235.5026,971.8076 Q1236.0006,971.8076 1236.4577,971.9131 Q1236.9147,972.0186 1237.3131,972.2295 L1237.3131,974.1514 Q1236.8678,973.7412 1236.4489,973.5508 Q1236.0299,973.3604 1235.5846,973.3604 Q1234.6354,973.3604 1234.152,974.1133 Q1233.6686,974.8662 1233.6686,976.3486 Q1233.6686,977.8252 1234.152,978.5781 Q1234.6354,979.3311 1235.5846,979.3311 Q1236.0299,979.3311 1236.4489,979.1406 Q1236.8678,978.9502 1237.3131,978.54 Z " fill="#CAD3F5"/><text fill="#000000" font-family="Verdana" font-size="12" font-style="italic" lengthAdjust="spacing" textLength="53.8711" x="1265.604" y="971.5645">&#171;record&#187;</text><text fill="#A6DA95" font-family="sans-serif" font-size="16" lengthAdjust="spacing" textLength="81.9922" x="1251.5434" y="989.5527">StateTuple</text><rect fill="#24273A" height="16.584" style="stroke:#C6A0F6;stroke-width:1.0;stroke-dasharray:2.0,2.0;" width="26.9785" x="1359.8248" y="951.5"/><text fill="#000000" font-family="Verdana" font-size="12" font-style="italic" lengthAdjust="spacing" textLength="24.9785" x="1360.8248" y="964.5645">S, A</text><line style="stroke:#C6A0F6;stroke-width:2.0;" x1="1205.19" x2="1382.8033" y1="997.9277" y2="997.9277"/><text fill="#A6DA95" font-family="sans-serif" font-size="12" lengthAdjust="spacing" textLength="167.6133" x="1210.19" y="1013.5293">+StateTuple(A value, S state)</text></g><!--class StateKindHelper--><g id="elem_StateKindHelper"><rect codeLine="37" fill="#24273A" height="178.1719" id="StateKindHelper" rx="1.5" ry="1.5" style="stroke:#C6A0F6;stroke-width:2.0;" width="457.623" x="810.19" y="44"/><rect fill="#363A4F" height="28.8438" rx="1.5" ry="1.5" style="stroke:#363A4F;stroke-width:2.0;" width="457.623" x="810.19" y="44"/><rect fill="#363A4F" height="1.5" style="stroke:#363A4F;stroke-width:2.0;" width="457.623" x="810.19" y="71.3438"/><rect codeLine="37" fill="none" height="178.1719" id="StateKindHelper" rx="1.5" ry="1.5" style="stroke:#C6A0F6;stroke-width:2.0;" width="457.623" x="810.19" y="44"/><ellipse cx="973.1343" cy="58.4219" fill="#FFFFFF" rx="9" ry="9" style="stroke:#000000;stroke-width:1.0;"/><path d="M974.9683,62.6699 Q974.5582,62.8809 974.107,62.9863 Q973.6558,63.0918 973.1578,63.0918 Q971.3882,63.0918 970.4566,61.9258 Q969.525,60.7598 969.525,58.5566 Q969.525,56.3477 970.4566,55.1816 Q971.3882,54.0156 973.1578,54.0156 Q973.6558,54.0156 974.1129,54.1211 Q974.5699,54.2266 974.9683,54.4375 L974.9683,56.3594 Q974.523,55.9492 974.1041,55.7588 Q973.6851,55.5684 973.2398,55.5684 Q972.2906,55.5684 971.8072,56.3213 Q971.3238,57.0742 971.3238,58.5566 Q971.3238,60.0332 971.8072,60.7861 Q972.2906,61.5391 973.2398,61.5391 Q973.6851,61.5391 974.1041,61.3486 Q974.523,61.1582 974.9683,60.748 Z " fill="#CAD3F5"/><text fill="#A6DA95" font-family="sans-serif" font-size="16" lengthAdjust="spacing" textLength="124.2344" x="990.6343" y="64.4688">StateKindHelper</text><line style="stroke:#C6A0F6;stroke-width:2.0;" x1="811.19" x2="1266.813" y1="72.8438" y2="72.8438"/><text fill="#A6DA95" font-family="sans-serif" font-size="12" lengthAdjust="spacing" text-decoration="underline" textLength="269.918" x="816.19" y="88.4453">+State&lt;S, A&gt; unwrap(Kind&lt;StateKind.Witness</text><text fill="#A6DA95" font-family="sans-serif" font-size="12" lengthAdjust="spacing" text-decoration="underline" textLength="58.5938" x="1086.108" y="88.4453">, A&gt; kind)</text><text fill="#A6DA95" font-family="sans-serif" font-size="12" lengthAdjust="spacing" text-decoration="underline" textLength="248.3145" x="816.19" y="102.5781">+StateKind&lt;S, A&gt; wrap(State&lt;S, A&gt; state)</text><text fill="#A6DA95" font-family="sans-serif" font-size="12" lengthAdjust="spacing" text-decoration="underline" textLength="186.7207" x="816.19" y="116.7109">+StateKind&lt;S, A&gt; pure(A value)</text><text fill="#A6DA95" font-family="sans-serif" font-size="12" lengthAdjust="spacing" text-decoration="underline" textLength="134.4492" x="816.19" y="130.8438">+StateKind&lt;S, S&gt; get()</text><text fill="#A6DA95" font-family="sans-serif" font-size="12" lengthAdjust="spacing" text-decoration="underline" textLength="215.25" x="816.19" y="144.9766">+StateKind&lt;S, Void&gt; set(S newState)</text><text fill="#A6DA95" font-family="sans-serif" font-size="12" lengthAdjust="spacing" text-decoration="underline" textLength="273.9023" x="816.19" y="159.1094">+StateKind&lt;S, Void&gt; modify(Function&lt;S, S&gt; f)</text><text fill="#A6DA95" font-family="sans-serif" font-size="12" lengthAdjust="spacing" text-decoration="underline" textLength="259.3887" x="816.19" y="173.2422">+StateKind&lt;S, A&gt; inspect(Function&lt;S, A&gt; f)</text><text fill="#A6DA95" font-family="sans-serif" font-size="12" lengthAdjust="spacing" text-decoration="underline" textLength="307.9863" x="816.19" y="187.375">+StateTuple&lt;S, A&gt; runState(Kind&lt;StateKind.Witness</text><text fill="#A6DA95" font-family="sans-serif" font-size="12" lengthAdjust="spacing" text-decoration="underline" textLength="137.6367" x="1124.1763" y="187.375">, A&gt; kind, S initialState)</text><text fill="#A6DA95" font-family="sans-serif" font-size="12" lengthAdjust="spacing" text-decoration="underline" textLength="216.5449" x="816.19" y="201.5078">+A evalState(Kind&lt;StateKind.Witness</text><text fill="#A6DA95" font-family="sans-serif" font-size="12" lengthAdjust="spacing" text-decoration="underline" textLength="137.6367" x="1032.7349" y="201.5078">, A&gt; kind, S initialState)</text><text fill="#A6DA95" font-family="sans-serif" font-size="12" lengthAdjust="spacing" text-decoration="underline" textLength="218.6133" x="816.19" y="215.6406">+S execState(Kind&lt;StateKind.Witness</text><text fill="#A6DA95" font-family="sans-serif" font-size="12" lengthAdjust="spacing" text-decoration="underline" textLength="137.6367" x="1034.8033" y="215.6406">, A&gt; kind, S initialState)</text></g><!--class StateFunctor--><g id="elem_StateFunctor"><rect codeLine="50" fill="#24273A" height="50.9766" id="StateFunctor" rx="1.5" ry="1.5" style="stroke:#C6A0F6;stroke-width:2.0;" width="509.2793" x="552.36" y="283.17"/><rect fill="#363A4F" height="28.8438" rx="1.5" ry="1.5" style="stroke:#363A4F;stroke-width:2.0;" width="509.2793" x="552.36" y="283.17"/><rect fill="#363A4F" height="1.5" style="stroke:#363A4F;stroke-width:2.0;" width="509.2793" x="552.36" y="310.5138"/><rect codeLine="50" fill="none" height="50.9766" id="StateFunctor" rx="1.5" ry="1.5" style="stroke:#C6A0F6;stroke-width:2.0;" width="509.2793" x="552.36" y="283.17"/><ellipse cx="748.484" cy="297.5919" fill="#FFFFFF" rx="9" ry="9" style="stroke:#000000;stroke-width:1.0;"/><path d="M750.318,301.8399 Q749.9079,302.0509 749.4567,302.1563 Q749.0055,302.2618 748.5075,302.2618 Q746.7379,302.2618 745.8063,301.0958 Q744.8746,299.9298 744.8746,297.7266 Q744.8746,295.5177 745.8063,294.3516 Q746.7379,293.1856 748.5075,293.1856 Q749.0055,293.1856 749.4625,293.2911 Q749.9196,293.3966 750.318,293.6075 L750.318,295.5294 Q749.8727,295.1192 749.4538,294.9288 Q749.0348,294.7384 748.5895,294.7384 Q747.6403,294.7384 747.1569,295.4913 Q746.6735,296.2442 746.6735,297.7266 Q746.6735,299.2032 747.1569,299.9561 Q747.6403,300.7091 748.5895,300.7091 Q749.0348,300.7091 749.4538,300.5186 Q749.8727,300.3282 750.318,299.918 Z " fill="#CAD3F5"/><text fill="#A6DA95" font-family="sans-serif" font-size="16" lengthAdjust="spacing" textLength="97.3281" x="765.984" y="303.6388">StateFunctor</text><rect fill="#24273A" height="16.584" style="stroke:#C6A0F6;stroke-width:1.0;stroke-dasharray:2.0,2.0;" width="10.2031" x="1054.4362" y="280.17"/><text fill="#000000" font-family="Verdana" font-size="12" font-style="italic" lengthAdjust="spacing" textLength="8.2031" x="1055.4362" y="293.2345">S</text><line style="stroke:#C6A0F6;stroke-width:2.0;" x1="553.36" x2="1060.6393" y1="312.0138" y2="312.0138"/><text fill="#A6DA95" font-family="sans-serif" font-size="12" lengthAdjust="spacing" textLength="148.8223" x="558.36" y="327.6153">+Kind&lt;StateKind.Witness</text><text fill="#A6DA95" font-family="sans-serif" font-size="12" lengthAdjust="spacing" text-decoration="line-through" textLength="304.3066" x="707.1823" y="327.6153">, B&gt; map(Function&lt;A, B&gt; f, Kind&lt;StateKind.Witness</text><text fill="#A6DA95" font-family="sans-serif" font-size="12" lengthAdjust="spacing" text-decoration="line-through" textLength="44.1504" x="1011.4889" y="327.6153">, A&gt; fa)</text></g><!--class Functor--><g id="elem_Functor"><rect fill="#24273A" height="28.8438" id="Functor" rx="1.5" ry="1.5" style="stroke:#C6A0F6;stroke-width:2.0;" width="86.9922" x="1302.5" y="118.66"/><rect fill="#363A4F" height="28.8438" rx="1.5" ry="1.5" style="stroke:#363A4F;stroke-width:2.0;" width="86.9922" x="1302.5" y="118.66"/><rect fill="#363A4F" height="1.5" style="stroke:#363A4F;stroke-width:2.0;" width="86.9922" x="1302.5" y="146.0038"/><rect fill="none" height="28.8438" id="Functor" rx="1.5" ry="1.5" style="stroke:#C6A0F6;stroke-width:2.0;" width="86.9922" x="1302.5" y="118.66"/><ellipse cx="1315.5" cy="133.0819" fill="#FFFFFF" rx="9" ry="9" style="stroke:#000000;stroke-width:1.0;"/><path d="M1312.5078,130.3573 L1312.5078,128.8338 L1317.7168,128.8338 L1317.7168,130.3573 L1315.9766,130.3573 L1315.9766,136.0584 L1317.7168,136.0584 L1317.7168,137.5819 L1312.5078,137.5819 L1312.5078,136.0584 L1314.248,136.0584 L1314.248,130.3573 Z " fill="#CAD3F5"/><text fill="#A6DA95" font-family="sans-serif" font-size="16" font-style="italic" lengthAdjust="spacing" textLength="58.9922" x="1327.5" y="139.1288">Functor</text></g><!--class StateApplicative--><g id="elem_StateApplicative"><rect codeLine="53" fill="#24273A" height="65.1094" id="StateApplicative" rx="1.5" ry="1.5" style="stroke:#C6A0F6;stroke-width:2.0;" width="658.9043" x="518.55" y="410.15"/><rect fill="#363A4F" height="28.8438" rx="1.5" ry="1.5" style="stroke:#363A4F;stroke-width:2.0;" width="658.9043" x="518.55" y="410.15"/><rect fill="#363A4F" height="1.5" style="stroke:#363A4F;stroke-width:2.0;" width="658.9043" x="518.55" y="437.4938"/><rect codeLine="53" fill="none" height="65.1094" id="StateApplicative" rx="1.5" ry="1.5" style="stroke:#C6A0F6;stroke-width:2.0;" width="658.9043" x="518.55" y="410.15"/><ellipse cx="776.3498" cy="424.5719" fill="#FFFFFF" rx="9" ry="9" style="stroke:#000000;stroke-width:1.0;"/><path d="M778.1838,428.8199 Q777.7736,429.0309 777.3225,429.1363 Q776.8713,429.2418 776.3732,429.2418 Q774.6037,429.2418 773.6721,428.0758 Q772.7404,426.9098 772.7404,424.7066 Q772.7404,422.4977 773.6721,421.3316 Q774.6037,420.1656 776.3732,420.1656 Q776.8713,420.1656 777.3283,420.2711 Q777.7854,420.3766 778.1838,420.5875 L778.1838,422.5094 Q777.7385,422.0992 777.3195,421.9088 Q776.9006,421.7184 776.4553,421.7184 Q775.5061,421.7184 775.0227,422.4713 Q774.5393,423.2242 774.5393,424.7066 Q774.5393,426.1832 775.0227,426.9361 Q775.5061,427.6891 776.4553,427.6891 Q776.9006,427.6891 777.3195,427.4986 Q777.7385,427.3082 778.1838,426.898 Z " fill="#CAD3F5"/><text fill="#A6DA95" font-family="sans-serif" font-size="16" lengthAdjust="spacing" textLength="123.6016" x="793.8498" y="430.6188">StateApplicative</text><rect fill="#24273A" height="16.584" style="stroke:#C6A0F6;stroke-width:1.0;stroke-dasharray:2.0,2.0;" width="10.2031" x="1170.2512" y="407.15"/><text fill="#000000" font-family="Verdana" font-size="12" font-style="italic" lengthAdjust="spacing" textLength="8.2031" x="1171.2512" y="420.2145">S</text><line style="stroke:#C6A0F6;stroke-width:2.0;" x1="519.55" x2="1176.4543" y1="438.9938" y2="438.9938"/><text fill="#A6DA95" font-family="sans-serif" font-size="12" lengthAdjust="spacing" textLength="148.8223" x="524.55" y="454.5953">+Kind&lt;StateKind.Witness</text><text fill="#A6DA95" font-family="sans-serif" font-size="12" lengthAdjust="spacing" text-decoration="line-through" textLength="91.3125" x="673.3723" y="454.5953">, A&gt; of(A value)</text><text fill="#A6DA95" font-family="sans-serif" font-size="12" lengthAdjust="spacing" textLength="148.8223" x="524.55" y="468.7281">+Kind&lt;StateKind.Witness</text><text fill="#A6DA95" font-family="sans-serif" font-size="12" lengthAdjust="spacing" text-decoration="line-through" textLength="185.1973" x="673.3723" y="468.7281">, B&gt; ap(Kind&lt;StateKind.Witness</text><text fill="#A6DA95" font-family="sans-serif" font-size="12" lengthAdjust="spacing" text-decoration="line-through" textLength="268.7344" x="858.5695" y="468.7281">, Function&lt;A, B&gt;&gt; ff, Kind&lt;StateKind.Witness</text><text fill="#A6DA95" font-family="sans-serif" font-size="12" lengthAdjust="spacing" text-decoration="line-through" textLength="44.1504" x="1127.3039" y="468.7281">, A&gt; fa)</text></g><!--class Applicative--><g id="elem_Applicative"><rect fill="#24273A" height="28.8438" id="Applicative" rx="1.5" ry="1.5" style="stroke:#C6A0F6;stroke-width:2.0;" width="113.2656" x="1096.37" y="294.23"/><rect fill="#363A4F" height="28.8438" rx="1.5" ry="1.5" style="stroke:#363A4F;stroke-width:2.0;" width="113.2656" x="1096.37" y="294.23"/><rect fill="#363A4F" height="1.5" style="stroke:#363A4F;stroke-width:2.0;" width="113.2656" x="1096.37" y="321.5738"/><rect fill="none" height="28.8438" id="Applicative" rx="1.5" ry="1.5" style="stroke:#C6A0F6;stroke-width:2.0;" width="113.2656" x="1096.37" y="294.23"/><ellipse cx="1109.37" cy="308.6519" fill="#FFFFFF" rx="9" ry="9" style="stroke:#000000;stroke-width:1.0;"/><path d="M1106.3778,305.9273 L1106.3778,304.4038 L1111.5868,304.4038 L1111.5868,305.9273 L1109.8466,305.9273 L1109.8466,311.6284 L1111.5868,311.6284 L1111.5868,313.1519 L1106.3778,313.1519 L1106.3778,311.6284 L1108.118,311.6284 L1108.118,305.9273 Z " fill="#CAD3F5"/><text fill="#A6DA95" font-family="sans-serif" font-size="16" font-style="italic" lengthAdjust="spacing" textLength="85.2656" x="1121.37" y="314.6988">Applicative</text></g><!--class StateMonad--><g id="elem_StateMonad"><rect codeLine="57" fill="#24273A" height="50.9766" id="StateMonad" rx="1.5" ry="1.5" style="stroke:#C6A0F6;stroke-width:2.0;" width="690.6152" x="543.69" y="551.25"/><rect fill="#363A4F" height="28.8438" rx="1.5" ry="1.5" style="stroke:#363A4F;stroke-width:2.0;" width="690.6152" x="543.69" y="551.25"/><rect fill="#363A4F" height="1.5" style="stroke:#363A4F;stroke-width:2.0;" width="690.6152" x="543.69" y="578.5938"/><rect codeLine="57" fill="none" height="50.9766" id="StateMonad" rx="1.5" ry="1.5" style="stroke:#C6A0F6;stroke-width:2.0;" width="690.6152" x="543.69" y="551.25"/><ellipse cx="833.7554" cy="565.6719" fill="#FFFFFF" rx="9" ry="9" style="stroke:#000000;stroke-width:1.0;"/><path d="M835.5894,569.9199 Q835.1793,570.1309 834.7281,570.2363 Q834.2769,570.3418 833.7789,570.3418 Q832.0093,570.3418 831.0777,569.1758 Q830.1461,568.0098 830.1461,565.8066 Q830.1461,563.5977 831.0777,562.4316 Q832.0093,561.2656 833.7789,561.2656 Q834.2769,561.2656 834.7339,561.3711 Q835.191,561.4766 835.5894,561.6875 L835.5894,563.6094 Q835.1441,563.1992 834.7252,563.0088 Q834.3062,562.8184 833.8609,562.8184 Q832.9117,562.8184 832.4283,563.5713 Q831.9449,564.3242 831.9449,565.8066 Q831.9449,567.2832 832.4283,568.0361 Q832.9117,568.7891 833.8609,568.7891 Q834.3062,568.7891 834.7252,568.5986 Q835.1441,568.4082 835.5894,567.998 Z " fill="#CAD3F5"/><text fill="#A6DA95" font-family="sans-serif" font-size="16" lengthAdjust="spacing" textLength="90.7813" x="851.2554" y="571.7188">StateMonad</text><rect fill="#24273A" height="16.584" style="stroke:#C6A0F6;stroke-width:1.0;stroke-dasharray:2.0,2.0;" width="10.2031" x="1227.1021" y="548.25"/><text fill="#000000" font-family="Verdana" font-size="12" font-style="italic" lengthAdjust="spacing" textLength="8.2031" x="1228.1021" y="561.3145">S</text><line style="stroke:#C6A0F6;stroke-width:2.0;" x1="544.69" x2="1233.3052" y1="580.0938" y2="580.0938"/><text fill="#A6DA95" font-family="sans-serif" font-size="12" lengthAdjust="spacing" textLength="148.8223" x="549.69" y="595.6953">+Kind&lt;StateKind.Witness</text><text fill="#A6DA95" font-family="sans-serif" font-size="12" lengthAdjust="spacing" text-decoration="line-through" textLength="290.1914" x="698.5123" y="595.6953">, B&gt; flatMap(Function&lt;A, Kind&lt;StateKind.Witness</text><text fill="#A6DA95" font-family="sans-serif" font-size="12" lengthAdjust="spacing" text-decoration="line-through" textLength="188.6602" x="988.7037" y="595.6953">, B&gt;&gt; f, Kind&lt;StateKind.Witness</text><text fill="#A6DA95" font-family="sans-serif" font-size="12" lengthAdjust="spacing" text-decoration="line-through" textLength="50.9414" x="1177.3638" y="595.6953">, A&gt; ma)</text></g><!--class Monad--><g id="elem_Monad"><rect fill="#24273A" height="28.8438" id="Monad" rx="1.5" ry="1.5" style="stroke:#C6A0F6;stroke-width:2.0;" width="80.4453" x="1212.78" y="428.28"/><rect fill="#363A4F" height="28.8438" rx="1.5" ry="1.5" style="stroke:#363A4F;stroke-width:2.0;" width="80.4453" x="1212.78" y="428.28"/><rect fill="#363A4F" height="1.5" style="stroke:#363A4F;stroke-width:2.0;" width="80.4453" x="1212.78" y="455.6238"/><rect fill="none" height="28.8438" id="Monad" rx="1.5" ry="1.5" style="stroke:#C6A0F6;stroke-width:2.0;" width="80.4453" x="1212.78" y="428.28"/><ellipse cx="1225.78" cy="442.7019" fill="#FFFFFF" rx="9" ry="9" style="stroke:#000000;stroke-width:1.0;"/><path d="M1222.7878,439.9773 L1222.7878,438.4538 L1227.9968,438.4538 L1227.9968,439.9773 L1226.2566,439.9773 L1226.2566,445.6784 L1227.9968,445.6784 L1227.9968,447.2019 L1222.7878,447.2019 L1222.7878,445.6784 L1224.528,445.6784 L1224.528,439.9773 Z " fill="#CAD3F5"/><text fill="#A6DA95" font-family="sans-serif" font-size="16" font-style="italic" lengthAdjust="spacing" textLength="52.4453" x="1237.78" y="448.7488">Monad</text></g><!--class Witness<S>, A>--><g id="elem_Witness&lt;S&gt;, A&gt;"><rect codeLine="35" fill="#24273A" height="28.8438" id="Witness&lt;S&gt;, A&gt;" rx="1.5" ry="1.5" style="stroke:#C6A0F6;stroke-width:2.0;" width="121.3359" x="597.33" y="118.66"/><rect fill="#363A4F" height="28.8438" rx="1.5" ry="1.5" style="stroke:#363A4F;stroke-width:2.0;" width="121.3359" x="597.33" y="118.66"/><rect fill="#363A4F" height="1.5" style="stroke:#363A4F;stroke-width:2.0;" width="121.3359" x="597.33" y="146.0038"/><rect codeLine="35" fill="none" height="28.8438" id="Witness&lt;S&gt;, A&gt;" rx="1.5" ry="1.5" style="stroke:#C6A0F6;stroke-width:2.0;" width="121.3359" x="597.33" y="118.66"/><ellipse cx="610.33" cy="133.0819" fill="#FFFFFF" rx="9" ry="9" style="stroke:#000000;stroke-width:1.0;"/><path d="M607.3378,130.3573 L607.3378,128.8338 L612.5468,128.8338 L612.5468,130.3573 L610.8066,130.3573 L610.8066,136.0584 L612.5468,136.0584 L612.5468,137.5819 L607.3378,137.5819 L607.3378,136.0584 L609.078,136.0584 L609.078,130.3573 Z " fill="#CAD3F5"/><text fill="#A6DA95" font-family="sans-serif" font-size="16" font-style="italic" lengthAdjust="spacing" textLength="59.4531" x="622.33" y="139.1288">Witness</text><text fill="#A6DA95" font-family="sans-serif" font-size="16" font-style="italic" lengthAdjust="spacing" text-decoration="line-through" textLength="33.8828" x="681.7831" y="139.1288">, A&gt;</text></g><!--class StateKind--><g id="elem_StateKind"><rect fill="#24273A" height="28.8438" id="StateKind" rx="1.5" ry="1.5" style="stroke:#C6A0F6;stroke-width:2.0;" width="101.4063" x="313.3" y="774.12"/><rect fill="#363A4F" height="28.8438" rx="1.5" ry="1.5" style="stroke:#363A4F;stroke-width:2.0;" width="101.4063" x="313.3" y="774.12"/><rect fill="#363A4F" height="1.5" style="stroke:#363A4F;stroke-width:2.0;" width="101.4063" x="313.3" y="801.4638"/><rect fill="none" height="28.8438" id="StateKind" rx="1.5" ry="1.5" style="stroke:#C6A0F6;stroke-width:2.0;" width="101.4063" x="313.3" y="774.12"/><ellipse cx="326.3" cy="788.5419" fill="#FFFFFF" rx="9" ry="9" style="stroke:#000000;stroke-width:1.0;"/><path d="M328.134,792.7899 Q327.7238,793.0009 327.2727,793.1063 Q326.8215,793.2118 326.3234,793.2118 Q324.5539,793.2118 323.6223,792.0458 Q322.6906,790.8798 322.6906,788.6766 Q322.6906,786.4677 323.6223,785.3016 Q324.5539,784.1356 326.3234,784.1356 Q326.8215,784.1356 327.2785,784.2411 Q327.7355,784.3466 328.134,784.5575 L328.134,786.4794 Q327.6887,786.0692 327.2697,785.8788 Q326.8508,785.6884 326.4055,785.6884 Q325.4563,785.6884 324.9729,786.4413 Q324.4895,787.1942 324.4895,788.6766 Q324.4895,790.1532 324.9729,790.9061 Q325.4563,791.6591 326.4055,791.6591 Q326.8508,791.6591 327.2697,791.4686 Q327.6887,791.2782 328.134,790.868 Z " fill="#CAD3F5"/><text fill="#A6DA95" font-family="sans-serif" font-size="16" lengthAdjust="spacing" textLength="73.4063" x="338.3" y="794.5888">StateKind</text></g><!--class Functor--><g id="elem_Functor"><rect fill="#24273A" height="28.8438" id="Functor" rx="1.5" ry="1.5" style="stroke:#C6A0F6;stroke-width:2.0;" width="86.9922" x="396.5" y="428.28"/><rect fill="#363A4F" height="28.8438" rx="1.5" ry="1.5" style="stroke:#363A4F;stroke-width:2.0;" width="86.9922" x="396.5" y="428.28"/><rect fill="#363A4F" height="1.5" style="stroke:#363A4F;stroke-width:2.0;" width="86.9922" x="396.5" y="455.6238"/><rect fill="none" height="28.8438" id="Functor" rx="1.5" ry="1.5" style="stroke:#C6A0F6;stroke-width:2.0;" width="86.9922" x="396.5" y="428.28"/><ellipse cx="409.5" cy="442.7019" fill="#FFFFFF" rx="9" ry="9" style="stroke:#000000;stroke-width:1.0;"/><path d="M411.334,446.9499 Q410.9238,447.1609 410.4727,447.2663 Q410.0215,447.3718 409.5234,447.3718 Q407.7539,447.3718 406.8223,446.2058 Q405.8906,445.0398 405.8906,442.8366 Q405.8906,440.6277 406.8223,439.4616 Q407.7539,438.2956 409.5234,438.2956 Q410.0215,438.2956 410.4785,438.4011 Q410.9355,438.5066 411.334,438.7175 L411.334,440.6394 Q410.8887,440.2292 410.4697,440.0388 Q410.0508,439.8484 409.6055,439.8484 Q408.6563,439.8484 408.1729,440.6013 Q407.6895,441.3542 407.6895,442.8366 Q407.6895,444.3132 408.1729,445.0661 Q408.6563,445.8191 409.6055,445.8191 Q410.0508,445.8191 410.4697,445.6286 Q410.8887,445.4382 411.334,445.028 Z " fill="#CAD3F5"/><text fill="#A6DA95" font-family="sans-serif" font-size="16" lengthAdjust="spacing" textLength="58.9922" x="421.5" y="448.7488">Functor</text></g><!--class Applicative--><g id="elem_Applicative"><rect fill="#24273A" height="28.8438" id="Applicative" rx="1.5" ry="1.5" style="stroke:#C6A0F6;stroke-width:2.0;" width="113.2656" x="371.37" y="562.32"/><rect fill="#363A4F" height="28.8438" rx="1.5" ry="1.5" style="stroke:#363A4F;stroke-width:2.0;" width="113.2656" x="371.37" y="562.32"/><rect fill="#363A4F" height="1.5" style="stroke:#363A4F;stroke-width:2.0;" width="113.2656" x="371.37" y="589.6638"/><rect fill="none" height="28.8438" id="Applicative" rx="1.5" ry="1.5" style="stroke:#C6A0F6;stroke-width:2.0;" width="113.2656" x="371.37" y="562.32"/><ellipse cx="384.37" cy="576.7419" fill="#FFFFFF" rx="9" ry="9" style="stroke:#000000;stroke-width:1.0;"/><path d="M386.204,580.9899 Q385.7938,581.2009 385.3427,581.3063 Q384.8915,581.4118 384.3934,581.4118 Q382.6239,581.4118 381.6923,580.2458 Q380.7606,579.0798 380.7606,576.8766 Q380.7606,574.6677 381.6923,573.5016 Q382.6239,572.3356 384.3934,572.3356 Q384.8915,572.3356 385.3485,572.4411 Q385.8055,572.5466 386.204,572.7575 L386.204,574.6794 Q385.7587,574.2692 385.3397,574.0788 Q384.9208,573.8884 384.4755,573.8884 Q383.5263,573.8884 383.0429,574.6413 Q382.5595,575.3942 382.5595,576.8766 Q382.5595,578.3532 383.0429,579.1061 Q383.5263,579.8591 384.4755,579.8591 Q384.9208,579.8591 385.3397,579.6686 Q385.7587,579.4782 386.204,579.068 Z " fill="#CAD3F5"/><text fill="#A6DA95" font-family="sans-serif" font-size="16" lengthAdjust="spacing" textLength="85.2656" x="396.37" y="582.7888">Applicative</text></g><!--class Monad--><g id="elem_Monad"><rect fill="#24273A" height="28.8438" id="Monad" rx="1.5" ry="1.5" style="stroke:#C6A0F6;stroke-width:2.0;" width="80.4453" x="848.78" y="774.12"/><rect fill="#363A4F" height="28.8438" rx="1.5" ry="1.5" style="stroke:#363A4F;stroke-width:2.0;" width="80.4453" x="848.78" y="774.12"/><rect fill="#363A4F" height="1.5" style="stroke:#363A4F;stroke-width:2.0;" width="80.4453" x="848.78" y="801.4638"/><rect fill="none" height="28.8438" id="Monad" rx="1.5" ry="1.5" style="stroke:#C6A0F6;stroke-width:2.0;" width="80.4453" x="848.78" y="774.12"/><ellipse cx="861.78" cy="788.5419" fill="#FFFFFF" rx="9" ry="9" style="stroke:#000000;stroke-width:1.0;"/><path d="M863.614,792.7899 Q863.2038,793.0009 862.7527,793.1063 Q862.3015,793.2118 861.8034,793.2118 Q860.0339,793.2118 859.1023,792.0458 Q858.1706,790.8798 858.1706,788.6766 Q858.1706,786.4677 859.1023,785.3016 Q860.0339,784.1356 861.8034,784.1356 Q862.3015,784.1356 862.7585,784.2411 Q863.2155,784.3466 863.614,784.5575 L863.614,786.4794 Q863.1687,786.0692 862.7497,785.8788 Q862.3308,785.6884 861.8855,785.6884 Q860.9363,785.6884 860.4529,786.4413 Q859.9695,787.1942 859.9695,788.6766 Q859.9695,790.1532 860.4529,790.9061 Q860.9363,791.6591 861.8855,791.6591 Q862.3308,791.6591 862.7497,791.4686 Q863.1687,791.2782 863.614,790.868 Z " fill="#CAD3F5"/><text fill="#A6DA95" font-family="sans-serif" font-size="16" lengthAdjust="spacing" textLength="52.4453" x="873.78" y="794.5888">Monad</text></g><!--reverse link State to StateTuple--><g id="link_State_StateTuple"><path codeLine="27" d="M1294,894.13 C1294,921.25 1294,933.39 1294,954.16 " fill="none" id="State-backto-StateTuple" style="stroke:#F5BDE6;stroke-width:1.0;"/><ellipse cx="1294" cy="886.13" fill="#24273A" rx="8" ry="8" style="stroke:#F5BDE6;stroke-width:1.0;"/><line style="stroke:#F5BDE6;stroke-width:1.0;" x1="1294" x2="1294" y1="894.13" y2="878.13"/><line style="stroke:#F5BDE6;stroke-width:1.0;" x1="1286" x2="1302" y1="886.13" y2="886.13"/><polygon fill="#CAD3F5" points="1298,919.9164,1300.3511,912.6803,1295.6489,912.6803,1298,919.9164" style="stroke:#CAD3F5;stroke-width:1.0;"/><text fill="#CAD3F5" font-family="sans-serif" font-size="12" lengthAdjust="spacing" textLength="26.3672" x="1307" y="920.4516">uses</text></g><!--reverse link Functor to StateFunctor--><g id="link_Functor_StateFunctor"><path d="M1333.3454,164.4927 C1324.7154,184.3827 1313.17,204.07 1285,222.17 C1243.82,248.63 1141.64,268.67 1042.28,282.68 " fill="none" id="Functor-backto-StateFunctor" style="stroke:#F5BDE6;stroke-width:1.0;stroke-dasharray:7.0,7.0;"/><polygon fill="none" points="1340.51,147.98,1327.8412,162.1045,1338.8496,166.8809,1340.51,147.98" style="stroke:#F5BDE6;stroke-width:1.0;"/></g><!--reverse link StateFunctor to StateApplicative--><g id="link_StateFunctor_StateApplicative"><path d="M806.2137,352.6291 C806.3537,366.3491 807.47,365.49 812,380.15 C815.15,390.32 820.24,400.6 825.62,409.77 " fill="none" id="StateFunctor-backto-StateApplicative" style="stroke:#F5BDE6;stroke-width:1.0;"/><polygon fill="none" points="806.03,334.63,800.214,352.6903,812.2134,352.5678,806.03,334.63" style="stroke:#F5BDE6;stroke-width:1.0;"/></g><!--reverse link StateFunctor to StateApplicative--><g id="link_StateFunctor_StateApplicative"><path codeLine="68" d="M816.4903,340.2198 C823.1303,361.5898 830.96,386.81 838.15,409.96 " fill="none" id="StateFunctor-backto-StateApplicative-1" style="stroke:#F5BDE6;stroke-width:1.0;stroke-dasharray:7.0,7.0;"/><polygon fill="#F5BDE6" points="814.71,334.49,813.5606,344.2716,816.1936,339.2648,821.2004,341.8978,814.71,334.49" style="stroke:#F5BDE6;stroke-width:1.0;"/><text fill="#CAD3F5" font-family="sans-serif" font-size="12" lengthAdjust="spacing" textLength="46.3359" x="829.73" y="376.7516">extends</text></g><!--reverse link Applicative to StateApplicative--><g id="link_Applicative_StateApplicative"><path d="M1104.4208,330.6896 C1057.5408,350.9796 985.5,382.17 921.96,409.68 " fill="none" id="Applicative-backto-StateApplicative" style="stroke:#F5BDE6;stroke-width:1.0;stroke-dasharray:7.0,7.0;"/><polygon fill="none" points="1120.94,323.54,1102.0376,325.1832,1106.804,336.196,1120.94,323.54" style="stroke:#F5BDE6;stroke-width:1.0;"/></g><!--reverse link StateApplicative to StateMonad--><g id="link_StateApplicative_StateMonad"><path d="M846.6549,493.7281 C846.8649,507.9981 848.14,506.8 853,521.25 C856.5,531.68 862.52,542.03 868.64,550.86 " fill="none" id="StateApplicative-backto-StateMonad" style="stroke:#F5BDE6;stroke-width:1.0;"/><polygon fill="none" points="846.39,475.73,840.6555,493.8163,852.6542,493.6398,846.39,475.73" style="stroke:#F5BDE6;stroke-width:1.0;"/></g><!--reverse link StateApplicative to StateMonad--><g id="link_StateApplicative_StateMonad"><path codeLine="69" d="M859.6999,481.3899 C866.9099,504.5999 874.73,529.8 881.35,551.1 " fill="none" id="StateApplicative-backto-StateMonad-1" style="stroke:#F5BDE6;stroke-width:1.0;stroke-dasharray:7.0,7.0;"/><polygon fill="#F5BDE6" points="857.92,475.66,856.77,485.4415,859.4033,480.4349,864.4099,483.0682,857.92,475.66" style="stroke:#F5BDE6;stroke-width:1.0;"/><text fill="#CAD3F5" font-family="sans-serif" font-size="12" lengthAdjust="spacing" textLength="46.3359" x="871.95" y="517.8516">extends</text></g><!--reverse link Monad to StateMonad--><g id="link_Monad_StateMonad"><path d="M1214.1166,466.4589 C1203.6966,472.3589 1206.79,470.16 1195,475.25 C1124.29,505.8 1041.08,532.57 979.29,550.78 " fill="none" id="Monad-backto-StateMonad" style="stroke:#F5BDE6;stroke-width:1.0;stroke-dasharray:7.0,7.0;"/><polygon fill="none" points="1229.78,457.59,1211.1603,461.2378,1217.0729,471.6801,1229.78,457.59" style="stroke:#F5BDE6;stroke-width:1.0;"/></g><!--link StateKind to Kind--><g id="link_StateKind_Kind"><path codeLine="63" d="M364,803.38 C364,839.5 364,936.35 364,972.46 " fill="none" id="StateKind-Kind" style="stroke:#F5BDE6;stroke-width:1.0;"/><text fill="#CAD3F5" font-family="sans-serif" font-size="12" lengthAdjust="spacing" textLength="46.3359" x="365" y="920.4516">extends</text></g><!--link StateFunctor to Functor--><g id="link_StateFunctor_Functor"><path codeLine="64" d="M718.58,334.59 C656.72,353.03 572.67,380.07 501,410.15 C488.69,415.31 475.47,422 464.5,427.88 " fill="none" id="StateFunctor-Functor" style="stroke:#F5BDE6;stroke-width:1.0;"/><text fill="#CAD3F5" font-family="sans-serif" font-size="12" lengthAdjust="spacing" textLength="68.3203" x="618.01" y="376.7516">implements</text></g><!--link StateApplicative to Applicative--><g id="link_StateApplicative_Applicative"><path codeLine="65" d="M742.64,475.66 C673.76,496.73 581.88,525.16 501,551.25 C490.57,554.62 479.33,558.34 468.87,561.85 " fill="none" id="StateApplicative-Applicative" style="stroke:#F5BDE6;stroke-width:1.0;"/><text fill="#CAD3F5" font-family="sans-serif" font-size="12" lengthAdjust="spacing" textLength="68.3203" x="644.72" y="517.8516">implements</text></g><!--link StateMonad to Monad--><g id="link_StateMonad_Monad"><path codeLine="66" d="M889,602.63 C889,647.14 889,738.94 889,773.75 " fill="none" id="StateMonad-Monad" style="stroke:#F5BDE6;stroke-width:1.0;"/><text fill="#CAD3F5" font-family="sans-serif" font-size="12" lengthAdjust="spacing" textLength="68.3203" x="890" y="646.8316">implements</text></g><!--link StateKindHelper to State--><g id="link_StateKindHelper_State"><path codeLine="71" d="M1267.98,220.6 C1321.38,247.8 1363,278.38 1363,307.66 C1363,307.66 1363,307.66 1363,577.74 C1363,618.77 1353.099,656.548 1339.059,693.148 " fill="none" id="StateKindHelper-to-State" style="stroke:#F5BDE6;stroke-width:1.0;stroke-dasharray:7.0,7.0;"/><polygon fill="#F5BDE6" points="1336.91,698.75,1343.8681,691.7797,1338.7008,694.0817,1336.3988,688.9144,1336.91,698.75" style="stroke:#F5BDE6;stroke-width:1.0;"/><text fill="#CAD3F5" font-family="sans-serif" font-size="12" lengthAdjust="spacing" textLength="97.3008" x="1364" y="447.3016">creates/unwraps</text></g><!--link StateKindHelper to StateKind--><g id="link_StateKindHelper_StateKind"><path codeLine="72" d="M809.77,203.22 C784.63,209.99 759.34,216.45 735,222.17 C631.23,246.53 263,201.06 263,307.66 C263,307.66 263,307.66 263,577.74 C263,659 321.4046,737.3926 348.1646,769.3026 " fill="none" id="StateKindHelper-to-StateKind" style="stroke:#F5BDE6;stroke-width:1.0;stroke-dasharray:7.0,7.0;"/><polygon fill="#F5BDE6" points="352.02,773.9,349.3018,764.4337,348.8072,770.0689,343.172,769.5742,352.02,773.9" style="stroke:#F5BDE6;stroke-width:1.0;"/><text fill="#CAD3F5" font-family="sans-serif" font-size="12" lengthAdjust="spacing" textLength="97.3008" x="264" y="447.3016">creates/unwraps</text></g><!--link StateMonad to StateKind--><g id="link_StateMonad_StateKind"><path codeLine="74" d="M794.86,602.69 C763.71,611.71 729.08,622.57 698,634.23 C580.62,678.27 451.9901,742.2945 396.0601,770.9445 " fill="none" id="StateMonad-to-StateKind" style="stroke:#F5BDE6;stroke-width:1.0;stroke-dasharray:7.0,7.0;"/><polygon fill="#F5BDE6" points="390.72,773.68,400.5539,773.1369,395.1701,771.4004,396.9066,766.0167,390.72,773.68" style="stroke:#F5BDE6;stroke-width:1.0;"/><text fill="#CAD3F5" font-family="sans-serif" font-size="12" lengthAdjust="spacing" textLength="181.3828" x="699" y="646.8316">operates on &lt;StateKind&lt;S,?&gt;&gt;</text></g><!--link StateMonad to State--><g id="link_StateMonad_State"><path codeLine="75" d="M937.05,602.63 C984.4,627.16 1054.1722,663.3105 1123.2922,699.1105 " fill="none" id="StateMonad-to-State" style="stroke:#F5BDE6;stroke-width:1.0;stroke-dasharray:7.0,7.0;"/><polygon fill="#F5BDE6" points="1128.62,701.87,1122.468,694.1789,1124.1802,699.5704,1118.7887,701.2826,1128.62,701.87" style="stroke:#F5BDE6;stroke-width:1.0;"/><text fill="#CAD3F5" font-family="sans-serif" font-size="12" lengthAdjust="spacing" textLength="96.6094" x="1021" y="646.8316">uses methods of</text></g><!--SRC=[hLLBRzf04BxxLsoub2W1UaQM8re99OhIGnorvsKz3gju7ze7QHhntpksCQnjC55J3h3iVFFDO-TnuTOWWEY2SXbTSCaAdm5PEwVjV3Opz7NwpDtQhxm5mvHq8DsKAJ6JJ5b79vpD67LQUyQud0ZAs9fJfoR89vqNnQIYdmbadrN7gSRRAB8lN6fgg22ieDOkd3DyvHtSeOsK_m7oDO1aa5DVk2MQ_q7HsT6ZMYcdhiaj51jmdD5HjEReDWZjteW0iG9ZeqXJzaAV4VzT6I2tzq_a3WCmEMLWH-Gz8lZXpGsvvpABbzTaaNG4Io-PKoPUTWKBhGiqxlW6-i879MbMNcy3Hr977P2dDmrz-vKiJai7I1nNHZbo50UdasIdX9-h6l_aTT4e6I_7AH9onsbHIIyFw7TyBSpKjcL6vUF6JddJPKn8Zj9p9DeR62_8XXP-s62Qa6Tmuq7CJyMpX5Y4fKJ2w_aeQWMXCfw_jOD1xy-vpgNLm5nBRz7MsyE_eHMg3z15TNKAcXVKFNJWWNolkAs-wxAucao29o1pWZrdIH9LaAfD-cyUnmQOCXaoxciZB8tcOT0wiOTaRezKPTaVAHSUFKU7-_LPmwekgMt3Rvm6cQqRPo-S_k9EWhLncfIeKS_z4eIDgy447Xzz7YzV3UPma9_WbCWkJ_04pbPC8RaDIsj0yLXvdu9tAlmKRAZ8XtNErFb06ETAlQlQ6IpLtGTUegopOnCee5yGsEoa_uSmnKe4zZd2RQzCcwcF-UK2So5myzdzBZXceZMT1nmvCKckXnk9v3GS6O6duHfA3sqv44LBunEHr2kaF_k7WnzkwNPQCEn_JqozWhifwQGhICiE_xcdFJRv1pK-yFI21cFx2tc4UaRRDTSssciHt1_Lxxm9E0fhe1GtntaGTjJDIWaC__R1LQ9AM7re0VfqKpzDMjNOTR1cES3QnXjerDqUqmQF86O03tPMhmnx6hjBK1VVSgI3LKXGWecI90xdwasI7DLhLhS0jrPOTYgF_W80]--></g></svg>