<svg xmlns="http://www.w3.org/2000/svg" xmlns:xlink="http://www.w3.org/1999/xlink" contentStyleType="text/css" height="806.4px" preserveAspectRatio="none" style="width:2658px;height:806px;background:#24273A;" version="1.1" viewBox="0 0 2658 806" width="2658.6px" zoomAndPan="magnify"><defs/><g><rect fill="#24273A" height="806.4" style="stroke:none;stroke-width:1.3999999999999997;" width="2658.6" x="0" y="0"/><!--class Kind--><g id="elem_Kind"><rect codeLine="8" fill="#24273A" height="42" id="Kind" rx="2.1" ry="2.1" style="stroke:#C6A0F6;stroke-width:2.7999999999999994;" width="123.2355" x="237.51" y="329"/><rect fill="#363A4F" height="42" rx="2.1" ry="2.1" style="stroke:#363A4F;stroke-width:2.7999999999999994;" width="123.2355" x="237.51" y="329"/><rect fill="#363A4F" height="2.1" style="stroke:#363A4F;stroke-width:2.7999999999999994;" width="123.2355" x="237.51" y="368.9"/><rect codeLine="8" fill="none" height="42" id="Kind" rx="2.1" ry="2.1" style="stroke:#C6A0F6;stroke-width:2.7999999999999994;" width="123.2355" x="237.51" y="329"/><ellipse cx="257.11" cy="350" fill="#B4A7E5" rx="14" ry="14" style="stroke:#181818;stroke-width:1.3999999999999997;"/><path d="M252.9209,346.1855 L252.9209,344.0527 L260.2135,344.0527 L260.2135,346.1855 L257.7772,346.1855 L257.7772,354.1672 L260.2135,354.1672 L260.2135,356.3 L252.9209,356.3 L252.9209,354.1672 L255.3573,354.1672 L255.3573,346.1855 Z " fill="#CAD3F5"/><text fill="#A6DA95" font-family="Helvetica" font-size="22.4" font-style="italic" lengthAdjust="spacing" textLength="44.8328" x="275.31" y="356.0484">Kind</text><rect fill="#24273A" height="19.6" style="stroke:#C6A0F6;stroke-width:1.3999999999999997;stroke-dasharray:2.0,2.0;" width="33.6027" x="331.3428" y="324.8"/><text fill="#CAD3F5" font-family="Helvetica" font-size="16.8" font-style="italic" lengthAdjust="spacing" textLength="30.8027" x="332.7428" y="339.1363">F, A</text></g><!--class Monad--><g id="elem_Monad"><rect codeLine="12" fill="#24273A" height="42" id="Monad" rx="2.1" ry="2.1" style="stroke:#C6A0F6;stroke-width:2.7999999999999994;" width="126.3527" x="2072.756" y="572.6"/><rect fill="#363A4F" height="42" rx="2.1" ry="2.1" style="stroke:#363A4F;stroke-width:2.7999999999999994;" width="126.3527" x="2072.756" y="572.6"/><rect fill="#363A4F" height="2.1" style="stroke:#363A4F;stroke-width:2.7999999999999994;" width="126.3527" x="2072.756" y="612.5"/><rect codeLine="12" fill="none" height="42" id="Monad" rx="2.1" ry="2.1" style="stroke:#C6A0F6;stroke-width:2.7999999999999994;" width="126.3527" x="2072.756" y="572.6"/><ellipse cx="2092.356" cy="593.6" fill="#B4A7E5" rx="14" ry="14" style="stroke:#181818;stroke-width:1.3999999999999997;"/><path d="M2088.1669,589.7855 L2088.1669,587.6527 L2095.4595,587.6527 L2095.4595,589.7855 L2093.0232,589.7855 L2093.0232,597.7672 L2095.4595,597.7672 L2095.4595,599.9 L2088.1669,599.9 L2088.1669,597.7672 L2090.6033,597.7672 L2090.6033,589.7855 Z " fill="#CAD3F5"/><text fill="#A6DA95" font-family="Helvetica" font-size="22.4" font-style="italic" lengthAdjust="spacing" textLength="68.4906" x="2110.556" y="599.6484">Monad</text><rect fill="#24273A" height="19.6" style="stroke:#C6A0F6;stroke-width:1.3999999999999997;stroke-dasharray:2.0,2.0;" width="13.0621" x="2190.2466" y="568.4"/><text fill="#CAD3F5" font-family="Helvetica" font-size="16.8" font-style="italic" lengthAdjust="spacing" textLength="10.2621" x="2191.6466" y="582.7363">F</text></g><!--class StateTuple--><g id="elem_StateTuple"><rect codeLine="19" fill="#24273A" height="114.8" id="StateTuple" rx="2.1" ry="2.1" style="stroke:#C6A0F6;stroke-width:2.7999999999999994;" width="270.3148" x="686.168" y="536.2"/><rect fill="#363A4F" height="42" rx="2.1" ry="2.1" style="stroke:#363A4F;stroke-width:2.7999999999999994;" width="270.3148" x="686.168" y="536.2"/><rect fill="#363A4F" height="2.1" style="stroke:#363A4F;stroke-width:2.7999999999999994;" width="270.3148" x="686.168" y="576.1"/><rect codeLine="19" fill="none" height="114.8" id="StateTuple" rx="2.1" ry="2.1" style="stroke:#C6A0F6;stroke-width:2.7999999999999994;" width="270.3148" x="686.168" y="536.2"/><ellipse cx="742.9528" cy="557.2" fill="#ADD1B2" rx="14" ry="14" style="stroke:#181818;stroke-width:1.3999999999999997;"/><path d="M745.5203,563.1473 Q744.9461,563.4426 744.3145,563.5902 Q743.6828,563.7379 742.9856,563.7379 Q740.5082,563.7379 739.2039,562.1055 Q737.8996,560.473 737.8996,557.3887 Q737.8996,554.2961 739.2039,552.6637 Q740.5082,551.0312 742.9856,551.0312 Q743.6828,551.0312 744.3227,551.1789 Q744.9625,551.3266 745.5203,551.6219 L745.5203,554.3125 Q744.8969,553.7383 744.3104,553.4717 Q743.7239,553.2051 743.1004,553.2051 Q741.7715,553.2051 741.0948,554.2592 Q740.418,555.3133 740.418,557.3887 Q740.418,559.4559 741.0948,560.51 Q741.7715,561.5641 743.1004,561.5641 Q743.7239,561.5641 744.3104,561.2975 Q744.8969,561.0309 745.5203,560.4566 Z " fill="#CAD3F5"/><text fill="#A6DA95" font-family="Helvetica" font-size="22.4" lengthAdjust="spacing" textLength="108.3359" x="769.416" y="563.2484">StateTuple</text><rect fill="#24273A" height="19.6" style="stroke:#C6A0F6;stroke-width:1.3999999999999997;stroke-dasharray:2.0,2.0;" width="34.5461" x="926.1367" y="532"/><text fill="#CAD3F5" font-family="Helvetica" font-size="16.8" font-style="italic" lengthAdjust="spacing" textLength="31.7461" x="927.5367" y="546.3363">S, A</text><line style="stroke:#C6A0F6;stroke-width:2.7999999999999994;" x1="687.568" x2="955.0828" y1="578.2" y2="578.2"/><ellipse cx="701.568" cy="594.3" fill="none" rx="4.2" ry="4.2" style="stroke:#038048;stroke-width:1.3999999999999997;"/><text fill="#A6DA95" font-family="Helvetica" font-size="16.8" lengthAdjust="spacing" textLength="52.2949" x="712.768" y="596.7363">S state</text><ellipse cx="701.568" cy="611.1" fill="none" rx="4.2" ry="4.2" style="stroke:#038048;stroke-width:1.3999999999999997;"/><text fill="#A6DA95" font-family="Helvetica" font-size="16.8" lengthAdjust="spacing" textLength="56.0355" x="712.768" y="613.5363">A value</text><line style="stroke:#C6A0F6;stroke-width:2.7999999999999994;" x1="687.568" x2="955.0828" y1="623" y2="623"/><ellipse cx="701.568" cy="639.1" fill="#84BE84" rx="4.2" ry="4.2" style="stroke:#038048;stroke-width:1.3999999999999997;"/><text fill="#A6DA95" font-family="Helvetica" font-size="16.8" lengthAdjust="spacing" text-decoration="underline" textLength="235.3148" x="712.768" y="641.5363">of(s: S, a: A): StateTuple&lt;S, A&gt;</text></g><!--class StateT--><g id="elem_StateT"><rect codeLine="27" fill="#24273A" height="165.2" id="StateT" rx="2.1" ry="2.1" style="stroke:#C6A0F6;stroke-width:2.7999999999999994;" width="985.5371" x="836.766" y="267.4"/><rect fill="#363A4F" height="42" rx="2.1" ry="2.1" style="stroke:#363A4F;stroke-width:2.7999999999999994;" width="985.5371" x="836.766" y="267.4"/><rect fill="#363A4F" height="2.1" style="stroke:#363A4F;stroke-width:2.7999999999999994;" width="985.5371" x="836.766" y="307.3"/><rect codeLine="27" fill="none" height="165.2" id="StateT" rx="2.1" ry="2.1" style="stroke:#C6A0F6;stroke-width:2.7999999999999994;" width="985.5371" x="836.766" y="267.4"/><ellipse cx="1219.5306" cy="288.4" fill="#ADD1B2" rx="14" ry="14" style="stroke:#181818;stroke-width:1.3999999999999997;"/><path d="M1222.0982,294.3473 Q1221.524,294.6426 1220.8924,294.7902 Q1220.2607,294.9379 1219.5635,294.9379 Q1217.0861,294.9379 1215.7818,293.3055 Q1214.4775,291.673 1214.4775,288.5887 Q1214.4775,285.4961 1215.7818,283.8637 Q1217.0861,282.2312 1219.5635,282.2312 Q1220.2607,282.2312 1220.9006,282.3789 Q1221.5404,282.5266 1222.0982,282.8219 L1222.0982,285.5125 Q1221.4748,284.9383 1220.8883,284.6717 Q1220.3017,284.4051 1219.6783,284.4051 Q1218.3494,284.4051 1217.6726,285.4592 Q1216.9959,286.5133 1216.9959,288.5887 Q1216.9959,290.6559 1217.6726,291.71 Q1218.3494,292.7641 1219.6783,292.7641 Q1220.3017,292.7641 1220.8883,292.4975 Q1221.4748,292.2309 1222.0982,291.6566 Z " fill="#CAD3F5"/><text fill="#A6DA95" font-family="Helvetica" font-size="22.4" lengthAdjust="spacing" textLength="65.9859" x="1246.1306" y="294.4484">StateT</text><rect fill="#24273A" height="19.6" style="stroke:#C6A0F6;stroke-width:1.3999999999999997;stroke-dasharray:2.0,2.0;" width="140.0219" x="1686.4812" y="263.2"/><text fill="#CAD3F5" font-family="Helvetica" font-size="16.8" font-style="italic" lengthAdjust="spacing" textLength="137.2219" x="1687.8812" y="277.5363">S, F_WITNESS, A</text><line style="stroke:#C6A0F6;stroke-width:2.7999999999999994;" x1="838.166" x2="1820.9031" y1="309.4" y2="309.4"/><rect fill="none" height="8.4" style="stroke:#C82930;stroke-width:1.3999999999999997;" width="8.4" x="847.966" y="321.3"/><text fill="#A6DA95" font-family="Helvetica" font-size="16.8" lengthAdjust="spacing" textLength="429.5566" x="863.366" y="327.9363">run: Function&lt;S, Kind&lt;F_WITNESS, StateTuple&lt;S, A&gt;&gt;&gt;</text><rect fill="none" height="8.4" style="stroke:#C82930;stroke-width:1.3999999999999997;" width="8.4" x="847.966" y="338.1"/><text fill="#A6DA95" font-family="Helvetica" font-size="16.8" lengthAdjust="spacing" textLength="238.0957" x="863.366" y="344.7363">monadF: Monad&lt;F_WITNESS&gt;</text><line style="stroke:#C6A0F6;stroke-width:2.7999999999999994;" x1="838.166" x2="1820.9031" y1="354.2" y2="354.2"/><ellipse cx="852.166" cy="370.3" fill="#84BE84" rx="4.2" ry="4.2" style="stroke:#038048;stroke-width:1.3999999999999997;"/><text fill="#A6DA95" font-family="Helvetica" font-size="16.8" lengthAdjust="spacing" text-decoration="underline" textLength="950.5371" x="863.366" y="372.7363">create(run: Function&lt;S, Kind&lt;F_WITNESS, StateTuple&lt;S, A&gt;&gt;&gt;, monadF: Monad&lt;F_WITNESS&gt;): StateT&lt;S, F_WITNESS, A&gt;</text><ellipse cx="852.166" cy="387.1" fill="#84BE84" rx="4.2" ry="4.2" style="stroke:#038048;stroke-width:1.3999999999999997;"/><text fill="#A6DA95" font-family="Helvetica" font-size="16.8" lengthAdjust="spacing" textLength="414.5777" x="863.366" y="389.5363">runStateT(s: S): Kind&lt;F_WITNESS, StateTuple&lt;S, A&gt;&gt;</text><ellipse cx="852.166" cy="403.9" fill="#84BE84" rx="4.2" ry="4.2" style="stroke:#038048;stroke-width:1.3999999999999997;"/><text fill="#A6DA95" font-family="Helvetica" font-size="16.8" lengthAdjust="spacing" textLength="299.7012" x="863.366" y="406.3363">evalStateT(s: S): Kind&lt;F_WITNESS, A&gt;</text><ellipse cx="852.166" cy="420.7" fill="#84BE84" rx="4.2" ry="4.2" style="stroke:#038048;stroke-width:1.3999999999999997;"/><text fill="#A6DA95" font-family="Helvetica" font-size="16.8" lengthAdjust="spacing" textLength="304.3687" x="863.366" y="423.1363">execStateT(s: S): Kind&lt;F_WITNESS, S&gt;</text></g><!--class StateTWitness--><g id="elem_StateTWitness"><rect codeLine="39" fill="#24273A" height="42" id="StateTWitness" rx="2.1" ry="2.1" style="stroke:#C6A0F6;stroke-width:2.7999999999999994;" width="360.9812" x="254.436" y="754.6"/><rect fill="#363A4F" height="42" rx="2.1" ry="2.1" style="stroke:#363A4F;stroke-width:2.7999999999999994;" width="360.9812" x="254.436" y="754.6"/><rect fill="#363A4F" height="2.1" style="stroke:#363A4F;stroke-width:2.7999999999999994;" width="360.9812" x="254.436" y="794.5"/><rect codeLine="39" fill="none" height="42" id="StateTWitness" rx="2.1" ry="2.1" style="stroke:#C6A0F6;stroke-width:2.7999999999999994;" width="360.9812" x="254.436" y="754.6"/><ellipse cx="274.036" cy="775.6" fill="#B4A7E5" rx="14" ry="14" style="stroke:#181818;stroke-width:1.3999999999999997;"/><path d="M269.8469,771.7855 L269.8469,769.6527 L277.1395,769.6527 L277.1395,771.7855 L274.7032,771.7855 L274.7032,779.7672 L277.1395,779.7672 L277.1395,781.9 L269.8469,781.9 L269.8469,779.7672 L272.2833,779.7672 L272.2833,771.7855 Z " fill="#CAD3F5"/><text fill="#A6DA95" font-family="Helvetica" font-size="22.4" font-style="italic" lengthAdjust="spacing" textLength="196.7" x="292.236" y="781.6484">StateTKind.Witness</text><rect fill="#24273A" height="19.6" style="stroke:#C6A0F6;stroke-width:1.3999999999999997;stroke-dasharray:2.0,2.0;" width="119.4812" x="500.136" y="750.4"/><text fill="#CAD3F5" font-family="Helvetica" font-size="16.8" font-style="italic" lengthAdjust="spacing" textLength="116.6812" x="501.536" y="764.7363">S, F_WITNESS</text></g><!--class StateTKind--><g id="elem_StateTKind"><rect codeLine="45" fill="#24273A" height="42" id="StateTKind" rx="2.1" ry="2.1" style="stroke:#C6A0F6;stroke-width:2.7999999999999994;" width="295.6406" x="64.512" y="572.6"/><rect fill="#363A4F" height="42" rx="2.1" ry="2.1" style="stroke:#363A4F;stroke-width:2.7999999999999994;" width="295.6406" x="64.512" y="572.6"/><rect fill="#363A4F" height="2.1" style="stroke:#363A4F;stroke-width:2.7999999999999994;" width="295.6406" x="64.512" y="612.5"/><rect codeLine="45" fill="none" height="42" id="StateTKind" rx="2.1" ry="2.1" style="stroke:#C6A0F6;stroke-width:2.7999999999999994;" width="295.6406" x="64.512" y="572.6"/><ellipse cx="84.112" cy="593.6" fill="#B4A7E5" rx="14" ry="14" style="stroke:#181818;stroke-width:1.3999999999999997;"/><path d="M79.9229,589.7855 L79.9229,587.6527 L87.2155,587.6527 L87.2155,589.7855 L84.7792,589.7855 L84.7792,597.7672 L87.2155,597.7672 L87.2155,599.9 L79.9229,599.9 L79.9229,597.7672 L82.3593,597.7672 L82.3593,589.7855 Z " fill="#CAD3F5"/><text fill="#A6DA95" font-family="Helvetica" font-size="22.4" font-style="italic" lengthAdjust="spacing" textLength="110.8187" x="102.312" y="599.6484">StateTKind</text><rect fill="#24273A" height="19.6" style="stroke:#C6A0F6;stroke-width:1.3999999999999997;stroke-dasharray:2.0,2.0;" width="140.0219" x="224.3307" y="568.4"/><text fill="#CAD3F5" font-family="Helvetica" font-size="16.8" font-style="italic" lengthAdjust="spacing" textLength="137.2219" x="225.7307" y="582.7363">S, F_WITNESS, A</text></g><!--class StateTMonadInstance--><g id="elem_StateTMonadInstance"><rect codeLine="49" fill="#24273A" height="98" id="StateTMonadInstance" rx="2.1" ry="2.1" style="stroke:#C6A0F6;stroke-width:2.7999999999999994;" width="593.3539" x="1871.45" y="301"/><rect fill="#363A4F" height="42" rx="2.1" ry="2.1" style="stroke:#363A4F;stroke-width:2.7999999999999994;" width="593.3539" x="1871.45" y="301"/><rect fill="#363A4F" height="2.1" style="stroke:#363A4F;stroke-width:2.7999999999999994;" width="593.3539" x="1871.45" y="340.9"/><rect codeLine="49" fill="none" height="98" id="StateTMonadInstance" rx="2.1" ry="2.1" style="stroke:#C6A0F6;stroke-width:2.7999999999999994;" width="593.3539" x="1871.45" y="301"/><ellipse cx="2034.148" cy="322" fill="#ADD1B2" rx="14" ry="14" style="stroke:#181818;stroke-width:1.3999999999999997;"/><path d="M2036.7156,327.9473 Q2036.1414,328.2426 2035.5098,328.3902 Q2034.8781,328.5379 2034.1809,328.5379 Q2031.7035,328.5379 2030.3992,326.9055 Q2029.0949,325.273 2029.0949,322.1887 Q2029.0949,319.0961 2030.3992,317.4637 Q2031.7035,315.8312 2034.1809,315.8312 Q2034.8781,315.8312 2035.518,315.9789 Q2036.1578,316.1266 2036.7156,316.4219 L2036.7156,319.1125 Q2036.0922,318.5383 2035.5057,318.2717 Q2034.9191,318.0051 2034.2957,318.0051 Q2032.9668,318.0051 2032.29,319.0592 Q2031.6133,320.1133 2031.6133,322.1887 Q2031.6133,324.2559 2032.29,325.31 Q2032.9668,326.3641 2034.2957,326.3641 Q2034.9191,326.3641 2035.5057,326.0975 Q2036.0922,325.8309 2036.7156,325.2566 Z " fill="#CAD3F5"/><text fill="#A6DA95" font-family="Helvetica" font-size="22.4" lengthAdjust="spacing" textLength="134.4766" x="2060.748" y="328.0484">StateTMonad</text><rect fill="#24273A" height="19.6" style="stroke:#C6A0F6;stroke-width:1.3999999999999997;stroke-dasharray:2.0,2.0;" width="119.4812" x="2349.5227" y="296.8"/><text fill="#CAD3F5" font-family="Helvetica" font-size="16.8" font-style="italic" lengthAdjust="spacing" textLength="116.6812" x="2350.9227" y="311.1363">S, F_WITNESS</text><line style="stroke:#C6A0F6;stroke-width:2.7999999999999994;" x1="1872.85" x2="2463.4039" y1="343" y2="343"/><rect fill="none" height="8.4" style="stroke:#C82930;stroke-width:1.3999999999999997;" width="8.4" x="1882.65" y="354.9"/><text fill="#A6DA95" font-family="Helvetica" font-size="16.8" lengthAdjust="spacing" textLength="238.0957" x="1898.05" y="361.5363">monadF: Monad&lt;F_WITNESS&gt;</text><line style="stroke:#C6A0F6;stroke-width:2.7999999999999994;" x1="1872.85" x2="2463.4039" y1="371" y2="371"/><ellipse cx="1886.85" cy="387.1" fill="#84BE84" rx="4.2" ry="4.2" style="stroke:#038048;stroke-width:1.3999999999999997;"/><text fill="#A6DA95" font-family="Helvetica" font-size="16.8" lengthAdjust="spacing" text-decoration="underline" textLength="558.3539" x="1898.05" y="389.5363">instance(monadF: Monad&lt;F_WITNESS&gt;): StateTMonad&lt;S, F_WITNESS&gt;</text></g><!--class StateTKindHelper--><g id="elem_StateTKindHelper"><rect codeLine="57" fill="#24273A" height="154" id="StateTKindHelper" rx="2.1" ry="2.1" style="stroke:#C6A0F6;stroke-width:2.7999999999999994;" width="1096.6566" x="9.8" y="9.8"/><rect fill="#363A4F" height="42" rx="2.1" ry="2.1" style="stroke:#363A4F;stroke-width:2.7999999999999994;" width="1096.6566" x="9.8" y="9.8"/><rect fill="#363A4F" height="2.1" style="stroke:#363A4F;stroke-width:2.7999999999999994;" width="1096.6566" x="9.8" y="49.7"/><rect codeLine="57" fill="none" height="154" id="StateTKindHelper" rx="2.1" ry="2.1" style="stroke:#C6A0F6;stroke-width:2.7999999999999994;" width="1096.6566" x="9.8" y="9.8"/><ellipse cx="464.126" cy="30.8" fill="#ADD1B2" rx="14" ry="14" style="stroke:#181818;stroke-width:1.3999999999999997;"/><path d="M466.6936,36.7473 Q466.1193,37.0426 465.4877,37.1902 Q464.8561,37.3379 464.1588,37.3379 Q461.6814,37.3379 460.3771,35.7055 Q459.0729,34.073 459.0729,30.9887 Q459.0729,27.8961 460.3771,26.2637 Q461.6814,24.6312 464.1588,24.6312 Q464.8561,24.6312 465.4959,24.7789 Q466.1357,24.9266 466.6936,25.2219 L466.6936,27.9125 Q466.0701,27.3383 465.4836,27.0717 Q464.8971,26.8051 464.2736,26.8051 Q462.9447,26.8051 462.268,27.8592 Q461.5912,28.9133 461.5912,30.9887 Q461.5912,33.0559 462.268,34.11 Q462.9447,35.1641 464.2736,35.1641 Q464.8971,35.1641 465.4836,34.8975 Q466.0701,34.6309 466.6936,34.0566 Z " fill="#CAD3F5"/><text fill="#A6DA95" font-family="Helvetica" font-size="22.4" lengthAdjust="spacing" textLength="176.8047" x="490.726" y="36.8484">StateTKindHelper</text><line style="stroke:#C6A0F6;stroke-width:2.7999999999999994;" x1="11.2" x2="1105.0566" y1="51.8" y2="51.8"/><ellipse cx="25.2" cy="67.9" fill="#84BE84" rx="4.2" ry="4.2" style="stroke:#038048;stroke-width:1.3999999999999997;"/><text fill="#A6DA95" font-family="Helvetica" font-size="16.8" lengthAdjust="spacing" text-decoration="underline" textLength="675.9785" x="36.4" y="70.3363">narrow(kind: Kind&lt;StateTKind.Witness&lt;S, F_WITNESS&gt;, A&gt;): StateT&lt;S, F_WITNESS, A&gt;</text><ellipse cx="25.2" cy="84.7" fill="#84BE84" rx="4.2" ry="4.2" style="stroke:#038048;stroke-width:1.3999999999999997;"/><text fill="#A6DA95" font-family="Helvetica" font-size="16.8" lengthAdjust="spacing" text-decoration="underline" textLength="676.9055" x="36.4" y="87.1363">wrap(stateT: StateT&lt;S, F_WITNESS, A&gt;): Kind&lt;StateTKind.Witness&lt;S, F_WITNESS&gt;, A&gt;</text><ellipse cx="25.2" cy="101.5" fill="#84BE84" rx="4.2" ry="4.2" style="stroke:#038048;stroke-width:1.3999999999999997;"/><text fill="#A6DA95" font-family="Helvetica" font-size="16.8" lengthAdjust="spacing" text-decoration="underline" textLength="821.6824" x="36.4" y="103.9363">runStateT(kind: Kind&lt;StateTKind.Witness&lt;S, F_WITNESS&gt;, A&gt;, s: S): Kind&lt;F_WITNESS, StateTuple&lt;S, A&gt;&gt;</text><ellipse cx="25.2" cy="118.3" fill="#84BE84" rx="4.2" ry="4.2" style="stroke:#038048;stroke-width:1.3999999999999997;"/><text fill="#A6DA95" font-family="Helvetica" font-size="16.8" lengthAdjust="spacing" text-decoration="underline" textLength="706.8059" x="36.4" y="120.7363">evalStateT(kind: Kind&lt;StateTKind.Witness&lt;S, F_WITNESS&gt;, A&gt;, s: S): Kind&lt;F_WITNESS, A&gt;</text><ellipse cx="25.2" cy="135.1" fill="#84BE84" rx="4.2" ry="4.2" style="stroke:#038048;stroke-width:1.3999999999999997;"/><text fill="#A6DA95" font-family="Helvetica" font-size="16.8" lengthAdjust="spacing" text-decoration="underline" textLength="711.4734" x="36.4" y="137.5363">execStateT(kind: Kind&lt;StateTKind.Witness&lt;S, F_WITNESS&gt;, A&gt;, s: S): Kind&lt;F_WITNESS, S&gt;</text><ellipse cx="25.2" cy="151.9" fill="#84BE84" rx="4.2" ry="4.2" style="stroke:#038048;stroke-width:1.3999999999999997;"/><text fill="#A6DA95" font-family="Helvetica" font-size="16.8" lengthAdjust="spacing" text-decoration="underline" textLength="1061.6566" x="36.4" y="154.3363">lift(fn: Function&lt;S, Kind&lt;F_WITNESS, StateTuple&lt;S,A&gt;&gt;&gt;, monadF: Monad&lt;F_WITNESS&gt;) : Kind&lt;StateTKind.Witness&lt;S, F_WITNESS&gt;, A&gt;</text></g><!--reverse link Kind to StateTKind--><g id="link_Kind_StateTKind"><path d="M283.327,395.225 C266.947,440.669 235.802,527.086 219.492,572.306 " fill="none" id="Kind-backto-StateTKind" style="stroke:#F5BDE6;stroke-width:1.3999999999999997;"/><polygon fill="none" points="291.872,371.518,275.4246,392.3767,291.2293,398.0734,291.872,371.518" style="stroke:#F5BDE6;stroke-width:1.3999999999999997;"/></g><!--reverse link Monad to StateTMonadInstance--><g id="link_Monad_StateTMonadInstance"><path d="M2224.6421,578.9312 C2313.3041,564.6232 2441.712,538.132 2474.724,494.2 C2506.84,451.486 2477.37,421.092 2426.06,399.672 " fill="none" id="Monad-backto-StateTMonadInstance" style="stroke:#F5BDE6;stroke-width:1.3999999999999997;stroke-dasharray:7.0,7.0;"/><polygon fill="none" points="2199.764,582.946,2225.9804,587.224,2223.3039,570.6385,2199.764,582.946" style="stroke:#F5BDE6;stroke-width:1.3999999999999997;"/></g><!--link StateTMonadInstance to Monad--><g id="link_StateTMonadInstance_Monad"><path codeLine="70" d="M2061.766,399.672 C2032.366,418.6 2004.016,443.394 1987.524,474.6 C1963.962,519.218 1998.5259,543.4579 2048.7859,563.0439 " fill="none" id="StateTMonadInstance-to-Monad" style="stroke:#F5BDE6;stroke-width:1.3999999999999997;stroke-dasharray:7.0,7.0;"/><polygon fill="none" points="2072.266,572.194,2051.8359,555.2172,2045.7359,570.8707,2072.266,572.194" style="stroke:#F5BDE6;stroke-width:1.3999999999999997;"/><text fill="#CAD3F5" font-family="Helvetica" font-size="16.8" lengthAdjust="spacing" textLength="85.8949" x="1988.924" y="488.9363">implements</text></g><!--link StateTMonadInstance to Monad--><g id="link_StateTMonadInstance_Monad"><path codeLine="72" d="M2147.586,399.602 C2139.13,421.974 2130.338,449.19 2126.124,474.6 C2120.496,508.55 2124.7974,540.359 2129.5854,563.865 " fill="none" id="StateTMonadInstance-to-Monad-1" style="stroke:#F5BDE6;stroke-width:1.3999999999999997;stroke-dasharray:7.0,7.0;"/><polygon fill="#F5BDE6" points="2131.262,572.096,2134.2344,558.6318,2129.8648,565.2368,2123.2598,560.8673,2131.262,572.096" style="stroke:#F5BDE6;stroke-width:1.3999999999999997;"/><text fill="#CAD3F5" font-family="Helvetica" font-size="16.8" lengthAdjust="spacing" textLength="335.2699" x="2127.524" y="488.9363">depends on (holds ref to underlying monadF)</text></g><!--link StateT to StateTKind--><g id="link_StateT_StateTKind"><path codeLine="68" d="M949.732,433.258 C720.748,482.622 471.5705,536.3234 330.7865,566.6614 " fill="none" id="StateT-to-StateTKind" style="stroke:#F5BDE6;stroke-width:1.3999999999999997;stroke-dasharray:7.0,7.0;"/><polygon fill="none" points="306.152,571.97,332.556,574.8729,329.017,558.4499,306.152,571.97" style="stroke:#F5BDE6;stroke-width:1.3999999999999997;"/><text fill="#CAD3F5" font-family="Helvetica" font-size="16.8" lengthAdjust="spacing" textLength="85.8949" x="738.836" y="488.9363">implements</text></g><!--link StateTKind to StateTWitness--><g id="link_StateTKind_StateTWitness"><path codeLine="69" d="M207.172,614.922 C201.824,640.486 197.064,684.838 219.324,712.6 C234.43,731.43 247.113,741.4874 269.415,750.8674 " fill="none" id="StateTKind-to-StateTWitness" style="stroke:#F5BDE6;stroke-width:1.3999999999999997;stroke-dasharray:7.0,7.0;"/><polygon fill="#F5BDE6" points="277.158,754.124,267.7146,744.077,270.7055,751.4101,263.3724,754.4011,277.158,754.124" style="stroke:#F5BDE6;stroke-width:1.3999999999999997;"/><text fill="#CAD3F5" font-family="Helvetica" font-size="16.8" lengthAdjust="spacing" textLength="177.409" x="220.724" y="707.3363">uses witness (phantom)</text></g><!--link StateTMonadInstance to StateTWitness--><g id="link_StateTMonadInstance_StateTWitness"><path codeLine="71" d="M2029.342,399.546 C1941.688,429.002 1825.712,466.27 1721.524,494.2 C1290.408,609.756 776.7575,710.3627 553.3175,752.3487 " fill="none" id="StateTMonadInstance-to-StateTWitness" style="stroke:#F5BDE6;stroke-width:1.3999999999999997;stroke-dasharray:7.0,7.0;"/><polygon fill="#F5BDE6" points="545.062,753.9,558.4795,757.0768,551.9416,752.6073,556.4111,746.0694,545.062,753.9" style="stroke:#F5BDE6;stroke-width:1.3999999999999997;"/><text fill="#CAD3F5" font-family="Helvetica" font-size="16.8" lengthAdjust="spacing" textLength="217.5551" x="1549.548" y="598.1363">uses witness (for Monad&lt;F&gt;)</text></g><!--link StateT to Monad--><g id="link_StateT_Monad"><path codeLine="73" d="M1478.82,433.174 C1526.896,456.316 1581.23,479.248 1633.324,494.2 C1783.922,537.404 1830.99,499.632 1983.324,536.2 C2019.822,544.964 2051.8054,556.5583 2081.5974,568.7243 " fill="none" id="StateT-to-Monad" style="stroke:#F5BDE6;stroke-width:1.3999999999999997;stroke-dasharray:7.0,7.0;"/><polygon fill="#F5BDE6" points="2089.374,571.9,2079.8263,561.9521,2082.8935,569.2536,2075.592,572.3209,2089.374,571.9" style="stroke:#F5BDE6;stroke-width:1.3999999999999997;"/><text fill="#CAD3F5" font-family="Helvetica" font-size="16.8" lengthAdjust="spacing" textLength="335.2699" x="1634.724" y="488.9363">depends on (holds ref to underlying monadF)</text></g><!--link StateT to StateTuple--><g id="link_StateT_StateTuple"><path codeLine="74" d="M1110.242,433.216 C1079.162,446.278 1047.886,460.25 1018.724,474.6 C982.044,492.66 950.2536,510.7284 916.7376,531.1684 " fill="none" id="StateT-to-StateTuple" style="stroke:#F5BDE6;stroke-width:1.3999999999999997;stroke-dasharray:7.0,7.0;"/><polygon fill="#F5BDE6" points="909.566,535.542,923.2391,533.7626,915.5423,531.8973,917.4076,524.2005,909.566,535.542" style="stroke:#F5BDE6;stroke-width:1.3999999999999997;"/><text fill="#CAD3F5" font-family="Helvetica" font-size="16.8" lengthAdjust="spacing" textLength="274.9277" x="1020.124" y="488.9363">uses (in its run function's return type)</text></g><!--link StateTKindHelper to StateT--><g id="link_StateTKindHelper_StateT"><path codeLine="75" d="M783.846,164.388 C879.214,196.588 982.4995,231.4487 1079.5615,264.2227 " fill="none" id="StateTKindHelper-to-StateT" style="stroke:#F5BDE6;stroke-width:1.3999999999999997;stroke-dasharray:7.0,7.0;"/><polygon fill="#F5BDE6" points="1087.52,266.91,1077.3737,257.5734,1080.8879,264.6706,1073.7907,268.1848,1087.52,266.91" style="stroke:#F5BDE6;stroke-width:1.3999999999999997;"/><text fill="#CAD3F5" font-family="Helvetica" font-size="16.8" lengthAdjust="spacing" textLength="127.9113" x="945.224" y="220.1363">narrows to/wraps</text></g><!--link StateTKindHelper to StateTKind--><g id="link_StateTKindHelper_StateTKind"><path codeLine="76" d="M241.612,164.43 C194.096,189.56 151.116,222.978 121.324,267.4 C53.816,368.074 149.8736,511.6383 191.0756,565.4543 " fill="none" id="StateTKindHelper-to-StateTKind" style="stroke:#F5BDE6;stroke-width:1.3999999999999997;stroke-dasharray:7.0,7.0;"/><polygon fill="#F5BDE6" points="196.182,572.124,192.9689,558.7152,191.9267,566.5659,184.076,565.5237,196.182,572.124" style="stroke:#F5BDE6;stroke-width:1.3999999999999997;"/><text fill="#CAD3F5" font-family="Helvetica" font-size="16.8" lengthAdjust="spacing" textLength="88.7332" x="122.724" y="354.5363">operates on</text></g><!--link StateTKindHelper to StateTWitness--><g id="link_StateTKindHelper_StateTWitness"><path codeLine="77" d="M541.408,164.024 C538.482,177.898 535.542,192.276 532.924,205.8 C491.596,419.636 451.0786,672.1175 439.4166,745.7155 " fill="none" id="StateTKindHelper-to-StateTWitness" style="stroke:#F5BDE6;stroke-width:1.3999999999999997;stroke-dasharray:7.0,7.0;"/><polygon fill="#F5BDE6" points="438.102,754.012,445.6049,742.4437,439.1975,747.0983,434.5429,740.6908,438.102,754.012" style="stroke:#F5BDE6;stroke-width:1.3999999999999997;"/><text fill="#CAD3F5" font-family="Helvetica" font-size="16.8" lengthAdjust="spacing" textLength="96.1734" x="485.632" y="488.9363">uses witness</text></g><!--link StateTKindHelper to StateTuple--><g id="link_StateTKindHelper_StateTuple"><path codeLine="78" d="M546.98,164.122 C539.952,237.23 539.21,348.782 583.324,432.6 C606.508,476.616 640.6871,506.2894 682.5191,531.3634 " fill="none" id="StateTKindHelper-to-StateTuple" style="stroke:#F5BDE6;stroke-width:1.3999999999999997;stroke-dasharray:7.0,7.0;"/><polygon fill="#F5BDE6" points="689.724,535.682,681.7958,524.4009,683.72,532.0832,676.0377,534.0074,689.724,535.682" style="stroke:#F5BDE6;stroke-width:1.3999999999999997;"/><text fill="#CAD3F5" font-family="Helvetica" font-size="16.8" lengthAdjust="spacing" textLength="227.8336" x="584.724" y="354.5363">uses (in runStateT return type)</text></g><!--link StateTKindHelper to Monad--><g id="link_StateTKindHelper_Monad"><path codeLine="79" d="M1106.952,104.594 C1642.438,126.028 2390.57,172.634 2488.724,267.4 C2561.748,337.89 2577.47,413.966 2515.324,494.2 C2476.95,543.746 2305.6216,571.6856 2207.9156,584.0476 " fill="none" id="StateTKindHelper-to-Monad" style="stroke:#F5BDE6;stroke-width:1.3999999999999997;stroke-dasharray:7.0,7.0;"/><polygon fill="#F5BDE6" points="2199.582,585.102,2212.7853,589.0761,2206.5266,584.2233,2211.3794,577.9647,2199.582,585.102" style="stroke:#F5BDE6;stroke-width:1.3999999999999997;"/><text fill="#CAD3F5" font-family="Helvetica" font-size="16.8" lengthAdjust="spacing" textLength="92.4164" x="2555.35" y="354.5363">uses (for lift)</text></g><!--SRC=[hLRRRjim37ttLt1zYOCcphjH6CY61IsA3aCJR8-3giYrC5io97bPqUNVHydo9LUtMm84K2IHXpmaJ_I12vfNQmQPCQMEPpD5Dj4pDrdrL6ccg1I62HDHMSm4bTgGAQSpIanPLfHoCIq8fHadHaxBd0XJ5VdKPAnWiu9mCNFBgCJT8EC8mehIl431YYUcT82V4NoIYi7j_Geu8gcKKAQ3TWdtNAnl5XEO9_0Q08nW0Lm3kdKc6su4qnh2CaDiMO1vATdOtPitztwHl6Bk8DZs73z8GT1p0kXt170DQKxC0od3LCImg0GrN8gR-QIDu6EIJ20bSI-aSTmxHUykdwKXXgsgCcS1pGa6rstSBDj4hc49sXwuzRoEqgrVxJQdMv1fg6D04yIS8zI-7mlOm84k6UKff-0maKBqLSDVrJUipUB7zxlLbyzBPtu5f8dDHMH9MtgKcgvwhpMAuRkdEvNAKLk9DLFv2nVFK5WwOU5jvZ5ywsYtUrDGLP_OPKDi5z9-VadYBPtlHToKhB6eZtk4KSNGG_WFG9EJ62tl1_nvT4IhBxXYjHrn1iqRCYpvUSiMW_rcT034NjtQedSTxWjlhqQ-SZj9z3kWgMpJ25zxy-JARQUDeG2iiTWNR9RJ8P_hLtkEfA0mhNLDnL2gxTpP81zPgPX6LMlx7pqJvwW9QMTqwfuuHPqxlHFOX08pu0KMkd2-lTb0PCc5X-_juy9zpE5WxnyXmCTt9pAcE2OhKvmXKg9OuTTBwIwP7H6tB2-Pyddt0X94ARa9V-AL-Erb7PpGrlz6eRmxqLsTj1c_0tdVVoS5xqnX0k_KZXQo9oANmZpCgoS_5qli02JdgTdzxnrIxW7XXlTLSkl-l1yPjYw2wuoNEl3g44L_ahxonBqf3thxKPJioMaC-8RI1y-KSN1CEXoCspg6i7zt2ChAHFF66P_qqS2jMUd4L0e8CvdZIh4KZ3nGcSMuO-M_pRjoDk67N82L4nmbI7qZZAmtKodXNtS7GjAvGZUrYE3JJyxilEjprtqr9UxYJnl-kTl7cJvdiPzPAn1lIAYXjZQsrRGJCiOk_Gi0]--></g></svg>