<svg xmlns="http://www.w3.org/2000/svg" xmlns:xlink="http://www.w3.org/1999/xlink" contentStyleType="text/css" height="864px" preserveAspectRatio="none" style="width:1350px;height:864px;background:#24273A;" version="1.1" viewBox="0 0 1350 864" width="1350px" zoomAndPan="magnify"><defs/><g><rect fill="#24273A" height="864" style="stroke:none;stroke-width:1.0;" width="1350" x="0" y="0"/><!--class Kind--><g id="elem_Kind"><rect codeLine="9" fill="#24273A" height="28.8438" id="Kind" rx="1.5" ry="1.5" style="stroke:#C6A0F6;stroke-width:2.0;" width="90.7422" x="402.26" y="810.24"/><rect fill="#363A4F" height="28.8438" rx="1.5" ry="1.5" style="stroke:#363A4F;stroke-width:2.0;" width="90.7422" x="402.26" y="810.24"/><rect fill="#363A4F" height="1.5" style="stroke:#363A4F;stroke-width:2.0;" width="90.7422" x="402.26" y="837.5838"/><rect codeLine="9" fill="none" height="28.8438" id="Kind" rx="1.5" ry="1.5" style="stroke:#C6A0F6;stroke-width:2.0;" width="90.7422" x="402.26" y="810.24"/><ellipse cx="415.26" cy="824.6619" fill="#FFFFFF" rx="9" ry="9" style="stroke:#000000;stroke-width:1.0;"/><path d="M412.2678,821.9373 L412.2678,820.4138 L417.4768,820.4138 L417.4768,821.9373 L415.7366,821.9373 L415.7366,827.6384 L417.4768,827.6384 L417.4768,829.1619 L412.2678,829.1619 L412.2678,827.6384 L414.008,827.6384 L414.008,821.9373 Z " fill="#CAD3F5"/><text fill="#A6DA95" font-family="sans-serif" font-size="16" font-style="italic" lengthAdjust="spacing" textLength="35.0703" x="427.26" y="830.7088">Kind</text><rect fill="#24273A" height="16.584" style="stroke:#C6A0F6;stroke-width:1.0;stroke-dasharray:2.0,2.0;" width="25.6719" x="470.3303" y="807.24"/><text fill="#000000" font-family="Verdana" font-size="12" font-style="italic" lengthAdjust="spacing" textLength="23.6719" x="471.3303" y="820.3045">F, A</text></g><!--class State--><g id="elem_State"><rect codeLine="16" fill="#24273A" height="178.623" id="State" rx="1.5" ry="1.5" style="stroke:#C6A0F6;stroke-width:2.0;" width="330.6328" x="812.32" y="537.26"/><rect fill="#363A4F" height="43.4277" rx="1.5" ry="1.5" style="stroke:#363A4F;stroke-width:2.0;" width="330.6328" x="812.32" y="537.26"/><rect fill="#363A4F" height="1.5" style="stroke:#363A4F;stroke-width:2.0;" width="330.6328" x="812.32" y="579.1877"/><rect codeLine="16" fill="none" height="178.623" id="State" rx="1.5" ry="1.5" style="stroke:#C6A0F6;stroke-width:2.0;" width="330.6328" x="812.32" y="537.26"/><ellipse cx="893.4518" cy="558.9739" fill="#FFFFFF" rx="9" ry="9" style="stroke:#000000;stroke-width:1.0;"/><path d="M890.4596,556.2493 L890.4596,554.7258 L895.6686,554.7258 L895.6686,556.2493 L893.9284,556.2493 L893.9284,561.9504 L895.6686,561.9504 L895.6686,563.4739 L890.4596,563.4739 L890.4596,561.9504 L892.1999,561.9504 L892.1999,556.2493 Z " fill="#CAD3F5"/><text fill="#000000" font-family="Verdana" font-size="12" font-style="italic" lengthAdjust="spacing" textLength="135.8906" x="908.9518" y="554.3245">&#171;Functional Interface&#187;</text><text fill="#A6DA95" font-family="sans-serif" font-size="16" font-style="italic" lengthAdjust="spacing" textLength="38.3359" x="957.7292" y="572.3127">State</text><rect fill="#24273A" height="16.584" style="stroke:#C6A0F6;stroke-width:1.0;stroke-dasharray:2.0,2.0;" width="26.9785" x="1118.9743" y="534.26"/><text fill="#000000" font-family="Verdana" font-size="12" font-style="italic" lengthAdjust="spacing" textLength="24.9785" x="1119.9743" y="547.3245">S, A</text><line style="stroke:#C6A0F6;stroke-width:2.0;" x1="813.32" x2="1141.9528" y1="580.6877" y2="580.6877"/><text fill="#A6DA95" font-family="sans-serif" font-size="12" lengthAdjust="spacing" textLength="215.3027" x="818.32" y="596.2893">+StateTuple&lt;S, A&gt; run(S initialState)</text><text fill="#A6DA95" font-family="sans-serif" font-size="12" lengthAdjust="spacing" text-decoration="underline" textLength="318.6328" x="818.32" y="610.4221">+State&lt;S, A&gt; of(Function&lt;S, StateTuple&lt;S, A&gt;&gt; func)</text><text fill="#A6DA95" font-family="sans-serif" font-size="12" lengthAdjust="spacing" text-decoration="underline" textLength="160.418" x="818.32" y="624.5549">+State&lt;S, A&gt; pure(A value)</text><text fill="#A6DA95" font-family="sans-serif" font-size="12" lengthAdjust="spacing" text-decoration="underline" textLength="108.1465" x="818.32" y="638.6877">+State&lt;S, S&gt; get()</text><text fill="#A6DA95" font-family="sans-serif" font-size="12" lengthAdjust="spacing" text-decoration="underline" textLength="188.9473" x="818.32" y="652.8205">+State&lt;S, Void&gt; set(S newState)</text><text fill="#A6DA95" font-family="sans-serif" font-size="12" lengthAdjust="spacing" text-decoration="underline" textLength="247.5996" x="818.32" y="666.9534">+State&lt;S, Void&gt; modify(Function&lt;S, S&gt; f)</text><text fill="#A6DA95" font-family="sans-serif" font-size="12" lengthAdjust="spacing" text-decoration="underline" textLength="233.0859" x="818.32" y="681.0862">+State&lt;S, A&gt; inspect(Function&lt;S, A&gt; f)</text><text fill="#A6DA95" font-family="sans-serif" font-size="12" lengthAdjust="spacing" textLength="215.625" x="818.32" y="695.219">+State&lt;S, B&gt; map(Function&lt;A, B&gt; f)</text><text fill="#A6DA95" font-family="sans-serif" font-size="12" lengthAdjust="spacing" textLength="295.6406" x="818.32" y="709.3518">+State&lt;S, B&gt; flatMap(Function&lt;A, State&lt;S, B&gt;&gt; f)</text></g><!--class StateTuple--><g id="elem_StateTuple"><rect codeLine="29" fill="#24273A" height="65.5605" id="StateTuple" rx="1.5" ry="1.5" style="stroke:#C6A0F6;stroke-width:2.0;" width="179.6133" x="887.83" y="791.88"/><rect fill="#363A4F" height="43.4277" rx="1.5" ry="1.5" style="stroke:#363A4F;stroke-width:2.0;" width="179.6133" x="887.83" y="791.88"/><rect fill="#363A4F" height="1.5" style="stroke:#363A4F;stroke-width:2.0;" width="179.6133" x="887.83" y="833.8077"/><rect codeLine="29" fill="none" height="65.5605" id="StateTuple" rx="1.5" ry="1.5" style="stroke:#C6A0F6;stroke-width:2.0;" width="179.6133" x="887.83" y="791.88"/><ellipse cx="919.1192" cy="813.5939" fill="#FFFFFF" rx="9" ry="9" style="stroke:#000000;stroke-width:1.0;"/><path d="M920.9531,817.8419 Q920.543,818.0529 920.0918,818.1583 Q919.6406,818.2638 919.1426,818.2638 Q917.3731,818.2638 916.4414,817.0978 Q915.5098,815.9318 915.5098,813.7286 Q915.5098,811.5196 916.4414,810.3536 Q917.3731,809.1876 919.1426,809.1876 Q919.6406,809.1876 920.0977,809.2931 Q920.5547,809.3986 920.9531,809.6095 L920.9531,811.5314 Q920.5078,811.1212 920.0889,810.9308 Q919.6699,810.7404 919.2246,810.7404 Q918.2754,810.7404 917.792,811.4933 Q917.3086,812.2462 917.3086,813.7286 Q917.3086,815.2052 917.792,815.9581 Q918.2754,816.7111 919.2246,816.7111 Q919.6699,816.7111 920.0889,816.5206 Q920.5078,816.3302 920.9531,815.92 Z " fill="#CAD3F5"/><text fill="#000000" font-family="Verdana" font-size="12" font-style="italic" lengthAdjust="spacing" textLength="53.8711" x="949.244" y="808.9445">&#171;record&#187;</text><text fill="#A6DA95" font-family="sans-serif" font-size="16" lengthAdjust="spacing" textLength="81.9922" x="935.1834" y="826.9327">StateTuple</text><rect fill="#24273A" height="16.584" style="stroke:#C6A0F6;stroke-width:1.0;stroke-dasharray:2.0,2.0;" width="26.9785" x="1043.4648" y="788.88"/><text fill="#000000" font-family="Verdana" font-size="12" font-style="italic" lengthAdjust="spacing" textLength="24.9785" x="1044.4648" y="801.9445">S, A</text><line style="stroke:#C6A0F6;stroke-width:2.0;" x1="888.83" x2="1066.4433" y1="835.3077" y2="835.3077"/><text fill="#A6DA95" font-family="sans-serif" font-size="12" lengthAdjust="spacing" textLength="167.6133" x="893.83" y="850.9093">+StateTuple(A value, S state)</text></g><!--class StateKind<S, A>--><g id="elem_StateKind&lt;S, A&gt;"><rect codeLine="35" fill="#24273A" height="28.8438" id="StateKind&lt;S, A&gt;" rx="1.5" ry="1.5" style="stroke:#C6A0F6;stroke-width:2.0;" width="156.625" x="254.32" y="612.15"/><rect fill="#363A4F" height="28.8438" rx="1.5" ry="1.5" style="stroke:#363A4F;stroke-width:2.0;" width="156.625" x="254.32" y="612.15"/><rect fill="#363A4F" height="1.5" style="stroke:#363A4F;stroke-width:2.0;" width="156.625" x="254.32" y="639.4938"/><rect codeLine="35" fill="none" height="28.8438" id="StateKind&lt;S, A&gt;" rx="1.5" ry="1.5" style="stroke:#C6A0F6;stroke-width:2.0;" width="156.625" x="254.32" y="612.15"/><ellipse cx="267.32" cy="626.5719" fill="#FFFFFF" rx="9" ry="9" style="stroke:#000000;stroke-width:1.0;"/><path d="M264.3278,623.8473 L264.3278,622.3238 L269.5368,622.3238 L269.5368,623.8473 L267.7966,623.8473 L267.7966,629.5484 L269.5368,629.5484 L269.5368,631.0719 L264.3278,631.0719 L264.3278,629.5484 L266.068,629.5484 L266.068,623.8473 Z " fill="#CAD3F5"/><text fill="#A6DA95" font-family="sans-serif" font-size="16" font-style="italic" lengthAdjust="spacing" textLength="128.625" x="279.32" y="632.6188">StateKind&lt;S, A&gt;</text></g><!--class StateKindHelper--><g id="elem_StateKindHelper"><rect codeLine="38" fill="#24273A" height="178.1719" id="StateKindHelper" rx="1.5" ry="1.5" style="stroke:#C6A0F6;stroke-width:2.0;" width="457.623" x="885.82" y="283.08"/><rect fill="#363A4F" height="28.8438" rx="1.5" ry="1.5" style="stroke:#363A4F;stroke-width:2.0;" width="457.623" x="885.82" y="283.08"/><rect fill="#363A4F" height="1.5" style="stroke:#363A4F;stroke-width:2.0;" width="457.623" x="885.82" y="310.4238"/><rect codeLine="38" fill="none" height="178.1719" id="StateKindHelper" rx="1.5" ry="1.5" style="stroke:#C6A0F6;stroke-width:2.0;" width="457.623" x="885.82" y="283.08"/><ellipse cx="1048.7643" cy="297.5019" fill="#FFFFFF" rx="9" ry="9" style="stroke:#000000;stroke-width:1.0;"/><path d="M1050.5983,301.7499 Q1050.1882,301.9609 1049.737,302.0663 Q1049.2858,302.1718 1048.7878,302.1718 Q1047.0182,302.1718 1046.0866,301.0058 Q1045.155,299.8398 1045.155,297.6366 Q1045.155,295.4277 1046.0866,294.2616 Q1047.0182,293.0956 1048.7878,293.0956 Q1049.2858,293.0956 1049.7429,293.2011 Q1050.1999,293.3066 1050.5983,293.5175 L1050.5983,295.4394 Q1050.153,295.0292 1049.7341,294.8388 Q1049.3151,294.6484 1048.8698,294.6484 Q1047.9206,294.6484 1047.4372,295.4013 Q1046.9538,296.1542 1046.9538,297.6366 Q1046.9538,299.1132 1047.4372,299.8661 Q1047.9206,300.6191 1048.8698,300.6191 Q1049.3151,300.6191 1049.7341,300.4286 Q1050.153,300.2382 1050.5983,299.828 Z " fill="#CAD3F5"/><text fill="#A6DA95" font-family="sans-serif" font-size="16" lengthAdjust="spacing" textLength="124.2344" x="1066.2643" y="303.5488">StateKindHelper</text><line style="stroke:#C6A0F6;stroke-width:2.0;" x1="886.82" x2="1342.443" y1="311.9238" y2="311.9238"/><text fill="#A6DA95" font-family="sans-serif" font-size="12" lengthAdjust="spacing" text-decoration="underline" textLength="269.918" x="891.82" y="327.5253">+State&lt;S, A&gt; unwrap(Kind&lt;StateKind.Witness</text><text fill="#A6DA95" font-family="sans-serif" font-size="12" lengthAdjust="spacing" text-decoration="underline" textLength="58.5938" x="1161.738" y="327.5253">, A&gt; kind)</text><text fill="#A6DA95" font-family="sans-serif" font-size="12" lengthAdjust="spacing" text-decoration="underline" textLength="248.3145" x="891.82" y="341.6581">+StateKind&lt;S, A&gt; wrap(State&lt;S, A&gt; state)</text><text fill="#A6DA95" font-family="sans-serif" font-size="12" lengthAdjust="spacing" text-decoration="underline" textLength="186.7207" x="891.82" y="355.7909">+StateKind&lt;S, A&gt; pure(A value)</text><text fill="#A6DA95" font-family="sans-serif" font-size="12" lengthAdjust="spacing" text-decoration="underline" textLength="134.4492" x="891.82" y="369.9238">+StateKind&lt;S, S&gt; get()</text><text fill="#A6DA95" font-family="sans-serif" font-size="12" lengthAdjust="spacing" text-decoration="underline" textLength="215.25" x="891.82" y="384.0566">+StateKind&lt;S, Void&gt; set(S newState)</text><text fill="#A6DA95" font-family="sans-serif" font-size="12" lengthAdjust="spacing" text-decoration="underline" textLength="273.9023" x="891.82" y="398.1894">+StateKind&lt;S, Void&gt; modify(Function&lt;S, S&gt; f)</text><text fill="#A6DA95" font-family="sans-serif" font-size="12" lengthAdjust="spacing" text-decoration="underline" textLength="259.3887" x="891.82" y="412.3222">+StateKind&lt;S, A&gt; inspect(Function&lt;S, A&gt; f)</text><text fill="#A6DA95" font-family="sans-serif" font-size="12" lengthAdjust="spacing" text-decoration="underline" textLength="307.9863" x="891.82" y="426.455">+StateTuple&lt;S, A&gt; runState(Kind&lt;StateKind.Witness</text><text fill="#A6DA95" font-family="sans-serif" font-size="12" lengthAdjust="spacing" text-decoration="underline" textLength="137.6367" x="1199.8063" y="426.455">, A&gt; kind, S initialState)</text><text fill="#A6DA95" font-family="sans-serif" font-size="12" lengthAdjust="spacing" text-decoration="underline" textLength="216.5449" x="891.82" y="440.5878">+A evalState(Kind&lt;StateKind.Witness</text><text fill="#A6DA95" font-family="sans-serif" font-size="12" lengthAdjust="spacing" text-decoration="underline" textLength="137.6367" x="1108.3649" y="440.5878">, A&gt; kind, S initialState)</text><text fill="#A6DA95" font-family="sans-serif" font-size="12" lengthAdjust="spacing" text-decoration="underline" textLength="218.6133" x="891.82" y="454.7206">+S execState(Kind&lt;StateKind.Witness</text><text fill="#A6DA95" font-family="sans-serif" font-size="12" lengthAdjust="spacing" text-decoration="underline" textLength="137.6367" x="1110.4333" y="454.7206">, A&gt; kind, S initialState)</text></g><!--class StateFunctor--><g id="elem_StateFunctor"><rect codeLine="51" fill="#24273A" height="50.9766" id="StateFunctor" rx="1.5" ry="1.5" style="stroke:#C6A0F6;stroke-width:2.0;" width="509.2793" x="353.99" y="15"/><rect fill="#363A4F" height="28.8438" rx="1.5" ry="1.5" style="stroke:#363A4F;stroke-width:2.0;" width="509.2793" x="353.99" y="15"/><rect fill="#363A4F" height="1.5" style="stroke:#363A4F;stroke-width:2.0;" width="509.2793" x="353.99" y="42.3438"/><rect codeLine="51" fill="none" height="50.9766" id="StateFunctor" rx="1.5" ry="1.5" style="stroke:#C6A0F6;stroke-width:2.0;" width="509.2793" x="353.99" y="15"/><ellipse cx="550.114" cy="29.4219" fill="#FFFFFF" rx="9" ry="9" style="stroke:#000000;stroke-width:1.0;"/><path d="M551.948,33.6699 Q551.5379,33.8809 551.0867,33.9863 Q550.6355,34.0918 550.1375,34.0918 Q548.3679,34.0918 547.4363,32.9258 Q546.5046,31.7598 546.5046,29.5566 Q546.5046,27.3477 547.4363,26.1816 Q548.3679,25.0156 550.1375,25.0156 Q550.6355,25.0156 551.0925,25.1211 Q551.5496,25.2266 551.948,25.4375 L551.948,27.3594 Q551.5027,26.9492 551.0838,26.7588 Q550.6648,26.5684 550.2195,26.5684 Q549.2703,26.5684 548.7869,27.3213 Q548.3035,28.0742 548.3035,29.5566 Q548.3035,31.0332 548.7869,31.7861 Q549.2703,32.5391 550.2195,32.5391 Q550.6648,32.5391 551.0838,32.3486 Q551.5027,32.1582 551.948,31.748 Z " fill="#CAD3F5"/><text fill="#A6DA95" font-family="sans-serif" font-size="16" lengthAdjust="spacing" textLength="97.3281" x="567.614" y="35.4688">StateFunctor</text><rect fill="#24273A" height="16.584" style="stroke:#C6A0F6;stroke-width:1.0;stroke-dasharray:2.0,2.0;" width="10.2031" x="856.0662" y="12"/><text fill="#000000" font-family="Verdana" font-size="12" font-style="italic" lengthAdjust="spacing" textLength="8.2031" x="857.0662" y="25.0645">S</text><line style="stroke:#C6A0F6;stroke-width:2.0;" x1="354.99" x2="862.2693" y1="43.8438" y2="43.8438"/><text fill="#A6DA95" font-family="sans-serif" font-size="12" lengthAdjust="spacing" textLength="148.8223" x="359.99" y="59.4453">+Kind&lt;StateKind.Witness</text><text fill="#A6DA95" font-family="sans-serif" font-size="12" lengthAdjust="spacing" text-decoration="line-through" textLength="304.3066" x="508.8123" y="59.4453">, B&gt; map(Function&lt;A, B&gt; f, Kind&lt;StateKind.Witness</text><text fill="#A6DA95" font-family="sans-serif" font-size="12" lengthAdjust="spacing" text-decoration="line-through" textLength="44.1504" x="813.1189" y="59.4453">, A&gt; fa)</text></g><!--class Functor--><g id="elem_Functor"><rect fill="#24273A" height="28.8438" id="Functor" rx="1.5" ry="1.5" style="stroke:#C6A0F6;stroke-width:2.0;" width="86.9922" x="745.14" y="160.11"/><rect fill="#363A4F" height="28.8438" rx="1.5" ry="1.5" style="stroke:#363A4F;stroke-width:2.0;" width="86.9922" x="745.14" y="160.11"/><rect fill="#363A4F" height="1.5" style="stroke:#363A4F;stroke-width:2.0;" width="86.9922" x="745.14" y="187.4538"/><rect fill="none" height="28.8438" id="Functor" rx="1.5" ry="1.5" style="stroke:#C6A0F6;stroke-width:2.0;" width="86.9922" x="745.14" y="160.11"/><ellipse cx="758.14" cy="174.5319" fill="#FFFFFF" rx="9" ry="9" style="stroke:#000000;stroke-width:1.0;"/><path d="M755.1478,171.8073 L755.1478,170.2838 L760.3568,170.2838 L760.3568,171.8073 L758.6166,171.8073 L758.6166,177.5084 L760.3568,177.5084 L760.3568,179.0319 L755.1478,179.0319 L755.1478,177.5084 L756.888,177.5084 L756.888,171.8073 Z " fill="#CAD3F5"/><text fill="#A6DA95" font-family="sans-serif" font-size="16" font-style="italic" lengthAdjust="spacing" textLength="58.9922" x="770.14" y="180.5788">Functor</text></g><!--class StateApplicative--><g id="elem_StateApplicative"><rect codeLine="54" fill="#24273A" height="65.1094" id="StateApplicative" rx="1.5" ry="1.5" style="stroke:#C6A0F6;stroke-width:2.0;" width="658.9043" x="51.18" y="141.98"/><rect fill="#363A4F" height="28.8438" rx="1.5" ry="1.5" style="stroke:#363A4F;stroke-width:2.0;" width="658.9043" x="51.18" y="141.98"/><rect fill="#363A4F" height="1.5" style="stroke:#363A4F;stroke-width:2.0;" width="658.9043" x="51.18" y="169.3238"/><rect codeLine="54" fill="none" height="65.1094" id="StateApplicative" rx="1.5" ry="1.5" style="stroke:#C6A0F6;stroke-width:2.0;" width="658.9043" x="51.18" y="141.98"/><ellipse cx="308.9798" cy="156.4019" fill="#FFFFFF" rx="9" ry="9" style="stroke:#000000;stroke-width:1.0;"/><path d="M310.8138,160.6499 Q310.4036,160.8609 309.9525,160.9663 Q309.5013,161.0718 309.0032,161.0718 Q307.2337,161.0718 306.3021,159.9058 Q305.3704,158.7398 305.3704,156.5366 Q305.3704,154.3277 306.3021,153.1616 Q307.2337,151.9956 309.0032,151.9956 Q309.5013,151.9956 309.9583,152.1011 Q310.4154,152.2066 310.8138,152.4175 L310.8138,154.3394 Q310.3685,153.9292 309.9495,153.7388 Q309.5306,153.5484 309.0853,153.5484 Q308.1361,153.5484 307.6527,154.3013 Q307.1693,155.0542 307.1693,156.5366 Q307.1693,158.0132 307.6527,158.7661 Q308.1361,159.5191 309.0853,159.5191 Q309.5306,159.5191 309.9495,159.3286 Q310.3685,159.1382 310.8138,158.728 Z " fill="#CAD3F5"/><text fill="#A6DA95" font-family="sans-serif" font-size="16" lengthAdjust="spacing" textLength="123.6016" x="326.4798" y="162.4488">StateApplicative</text><rect fill="#24273A" height="16.584" style="stroke:#C6A0F6;stroke-width:1.0;stroke-dasharray:2.0,2.0;" width="10.2031" x="702.8812" y="138.98"/><text fill="#000000" font-family="Verdana" font-size="12" font-style="italic" lengthAdjust="spacing" textLength="8.2031" x="703.8812" y="152.0445">S</text><line style="stroke:#C6A0F6;stroke-width:2.0;" x1="52.18" x2="709.0843" y1="170.8238" y2="170.8238"/><text fill="#A6DA95" font-family="sans-serif" font-size="12" lengthAdjust="spacing" textLength="148.8223" x="57.18" y="186.4253">+Kind&lt;StateKind.Witness</text><text fill="#A6DA95" font-family="sans-serif" font-size="12" lengthAdjust="spacing" text-decoration="line-through" textLength="91.3125" x="206.0023" y="186.4253">, A&gt; of(A value)</text><text fill="#A6DA95" font-family="sans-serif" font-size="12" lengthAdjust="spacing" textLength="148.8223" x="57.18" y="200.5581">+Kind&lt;StateKind.Witness</text><text fill="#A6DA95" font-family="sans-serif" font-size="12" lengthAdjust="spacing" text-decoration="line-through" textLength="185.1973" x="206.0023" y="200.5581">, B&gt; ap(Kind&lt;StateKind.Witness</text><text fill="#A6DA95" font-family="sans-serif" font-size="12" lengthAdjust="spacing" text-decoration="line-through" textLength="268.7344" x="391.1995" y="200.5581">, Function&lt;A, B&gt;&gt; ff, Kind&lt;StateKind.Witness</text><text fill="#A6DA95" font-family="sans-serif" font-size="12" lengthAdjust="spacing" text-decoration="line-through" textLength="44.1504" x="659.9339" y="200.5581">, A&gt; fa)</text></g><!--class Applicative--><g id="elem_Applicative"><rect fill="#24273A" height="28.8438" id="Applicative" rx="1.5" ry="1.5" style="stroke:#C6A0F6;stroke-width:2.0;" width="113.2656" x="12" y="357.75"/><rect fill="#363A4F" height="28.8438" rx="1.5" ry="1.5" style="stroke:#363A4F;stroke-width:2.0;" width="113.2656" x="12" y="357.75"/><rect fill="#363A4F" height="1.5" style="stroke:#363A4F;stroke-width:2.0;" width="113.2656" x="12" y="385.0938"/><rect fill="none" height="28.8438" id="Applicative" rx="1.5" ry="1.5" style="stroke:#C6A0F6;stroke-width:2.0;" width="113.2656" x="12" y="357.75"/><ellipse cx="25" cy="372.1719" fill="#FFFFFF" rx="9" ry="9" style="stroke:#000000;stroke-width:1.0;"/><path d="M22.0078,369.4473 L22.0078,367.9238 L27.2168,367.9238 L27.2168,369.4473 L25.4766,369.4473 L25.4766,375.1484 L27.2168,375.1484 L27.2168,376.6719 L22.0078,376.6719 L22.0078,375.1484 L23.748,375.1484 L23.748,369.4473 Z " fill="#CAD3F5"/><text fill="#A6DA95" font-family="sans-serif" font-size="16" font-style="italic" lengthAdjust="spacing" textLength="85.2656" x="37" y="378.2188">Applicative</text></g><!--class StateMonad--><g id="elem_StateMonad"><rect codeLine="58" fill="#24273A" height="50.9766" id="StateMonad" rx="1.5" ry="1.5" style="stroke:#C6A0F6;stroke-width:2.0;" width="690.6152" x="160.33" y="346.68"/><rect fill="#363A4F" height="28.8438" rx="1.5" ry="1.5" style="stroke:#363A4F;stroke-width:2.0;" width="690.6152" x="160.33" y="346.68"/><rect fill="#363A4F" height="1.5" style="stroke:#363A4F;stroke-width:2.0;" width="690.6152" x="160.33" y="374.0238"/><rect codeLine="58" fill="none" height="50.9766" id="StateMonad" rx="1.5" ry="1.5" style="stroke:#C6A0F6;stroke-width:2.0;" width="690.6152" x="160.33" y="346.68"/><ellipse cx="450.3954" cy="361.1019" fill="#FFFFFF" rx="9" ry="9" style="stroke:#000000;stroke-width:1.0;"/><path d="M452.2294,365.3499 Q451.8193,365.5609 451.3681,365.6663 Q450.9169,365.7718 450.4189,365.7718 Q448.6493,365.7718 447.7177,364.6058 Q446.7861,363.4398 446.7861,361.2366 Q446.7861,359.0277 447.7177,357.8616 Q448.6493,356.6956 450.4189,356.6956 Q450.9169,356.6956 451.3739,356.8011 Q451.831,356.9066 452.2294,357.1175 L452.2294,359.0394 Q451.7841,358.6292 451.3652,358.4388 Q450.9462,358.2484 450.5009,358.2484 Q449.5517,358.2484 449.0683,359.0013 Q448.5849,359.7542 448.5849,361.2366 Q448.5849,362.7132 449.0683,363.4661 Q449.5517,364.2191 450.5009,364.2191 Q450.9462,364.2191 451.3652,364.0286 Q451.7841,363.8382 452.2294,363.428 Z " fill="#CAD3F5"/><text fill="#A6DA95" font-family="sans-serif" font-size="16" lengthAdjust="spacing" textLength="90.7813" x="467.8954" y="367.1488">StateMonad</text><rect fill="#24273A" height="16.584" style="stroke:#C6A0F6;stroke-width:1.0;stroke-dasharray:2.0,2.0;" width="10.2031" x="843.7421" y="343.68"/><text fill="#000000" font-family="Verdana" font-size="12" font-style="italic" lengthAdjust="spacing" textLength="8.2031" x="844.7421" y="356.7445">S</text><line style="stroke:#C6A0F6;stroke-width:2.0;" x1="161.33" x2="849.9452" y1="375.5238" y2="375.5238"/><text fill="#A6DA95" font-family="sans-serif" font-size="12" lengthAdjust="spacing" textLength="148.8223" x="166.33" y="391.1253">+Kind&lt;StateKind.Witness</text><text fill="#A6DA95" font-family="sans-serif" font-size="12" lengthAdjust="spacing" text-decoration="line-through" textLength="290.1914" x="315.1523" y="391.1253">, B&gt; flatMap(Function&lt;A, Kind&lt;StateKind.Witness</text><text fill="#A6DA95" font-family="sans-serif" font-size="12" lengthAdjust="spacing" text-decoration="line-through" textLength="188.6602" x="605.3437" y="391.1253">, B&gt;&gt; f, Kind&lt;StateKind.Witness</text><text fill="#A6DA95" font-family="sans-serif" font-size="12" lengthAdjust="spacing" text-decoration="line-through" textLength="50.9414" x="794.0038" y="391.1253">, A&gt; ma)</text></g><!--class Monad--><g id="elem_Monad"><rect fill="#24273A" height="28.8438" id="Monad" rx="1.5" ry="1.5" style="stroke:#C6A0F6;stroke-width:2.0;" width="80.4453" x="446.41" y="612.15"/><rect fill="#363A4F" height="28.8438" rx="1.5" ry="1.5" style="stroke:#363A4F;stroke-width:2.0;" width="80.4453" x="446.41" y="612.15"/><rect fill="#363A4F" height="1.5" style="stroke:#363A4F;stroke-width:2.0;" width="80.4453" x="446.41" y="639.4938"/><rect fill="none" height="28.8438" id="Monad" rx="1.5" ry="1.5" style="stroke:#C6A0F6;stroke-width:2.0;" width="80.4453" x="446.41" y="612.15"/><ellipse cx="459.41" cy="626.5719" fill="#FFFFFF" rx="9" ry="9" style="stroke:#000000;stroke-width:1.0;"/><path d="M456.4178,623.8473 L456.4178,622.3238 L461.6268,622.3238 L461.6268,623.8473 L459.8866,623.8473 L459.8866,629.5484 L461.6268,629.5484 L461.6268,631.0719 L456.4178,631.0719 L456.4178,629.5484 L458.158,629.5484 L458.158,623.8473 Z " fill="#CAD3F5"/><text fill="#A6DA95" font-family="sans-serif" font-size="16" font-style="italic" lengthAdjust="spacing" textLength="52.4453" x="471.41" y="632.6188">Monad</text></g><!--class StateKind--><g id="elem_StateKind"><rect fill="#24273A" height="28.8438" id="StateKind" rx="1.5" ry="1.5" style="stroke:#C6A0F6;stroke-width:2.0;" width="101.4063" x="561.93" y="612.15"/><rect fill="#363A4F" height="28.8438" rx="1.5" ry="1.5" style="stroke:#363A4F;stroke-width:2.0;" width="101.4063" x="561.93" y="612.15"/><rect fill="#363A4F" height="1.5" style="stroke:#363A4F;stroke-width:2.0;" width="101.4063" x="561.93" y="639.4938"/><rect fill="none" height="28.8438" id="StateKind" rx="1.5" ry="1.5" style="stroke:#C6A0F6;stroke-width:2.0;" width="101.4063" x="561.93" y="612.15"/><ellipse cx="574.93" cy="626.5719" fill="#FFFFFF" rx="9" ry="9" style="stroke:#000000;stroke-width:1.0;"/><path d="M576.764,630.8199 Q576.3538,631.0309 575.9027,631.1363 Q575.4515,631.2418 574.9534,631.2418 Q573.1839,631.2418 572.2523,630.0758 Q571.3206,628.9098 571.3206,626.7066 Q571.3206,624.4977 572.2523,623.3316 Q573.1839,622.1656 574.9534,622.1656 Q575.4515,622.1656 575.9085,622.2711 Q576.3655,622.3766 576.764,622.5875 L576.764,624.5094 Q576.3187,624.0992 575.8997,623.9088 Q575.4808,623.7184 575.0355,623.7184 Q574.0863,623.7184 573.6029,624.4713 Q573.1195,625.2242 573.1195,626.7066 Q573.1195,628.1832 573.6029,628.9361 Q574.0863,629.6891 575.0355,629.6891 Q575.4808,629.6891 575.8997,629.4986 Q576.3187,629.3082 576.764,628.898 Z " fill="#CAD3F5"/><text fill="#A6DA95" font-family="sans-serif" font-size="16" lengthAdjust="spacing" textLength="73.4063" x="586.93" y="632.6188">StateKind</text></g><!--reverse link State to StateTuple--><g id="link_State_StateTuple"><path codeLine="27" d="M977.63,732.15 C977.63,759.15 977.63,771.11 977.63,791.75 " fill="none" id="State-backto-StateTuple" style="stroke:#F5BDE6;stroke-width:1.0;"/><ellipse cx="977.63" cy="724.15" fill="#24273A" rx="8" ry="8" style="stroke:#F5BDE6;stroke-width:1.0;"/><line style="stroke:#F5BDE6;stroke-width:1.0;" x1="977.63" x2="977.63" y1="732.15" y2="716.15"/><line style="stroke:#F5BDE6;stroke-width:1.0;" x1="969.63" x2="985.63" y1="724.15" y2="724.15"/><polygon fill="#CAD3F5" points="981.63,757.9464,983.9811,750.7103,979.2789,750.7103,981.63,757.9464" style="stroke:#CAD3F5;stroke-width:1.0;"/><text fill="#CAD3F5" font-family="sans-serif" font-size="12" lengthAdjust="spacing" textLength="26.3672" x="990.63" y="758.4816">uses</text></g><!--link StateKind<S, A> to Kind--><g id="link_StateKind&lt;S, A&gt;_Kind"><path codeLine="36" d="M335.07,641.14 C340.1,666.56 353.44,722.33 379.63,761.88 C392.4,781.16 398.1441,787.5879 413.1941,798.9279 " fill="none" id="StateKind&lt;S, A&gt;-to-Kind" style="stroke:#F5BDE6;stroke-width:1.0;"/><polygon fill="none" points="427.57,809.76,416.8048,794.136,409.5834,803.7199,427.57,809.76" style="stroke:#F5BDE6;stroke-width:1.0;"/><text fill="#CAD3F5" font-family="sans-serif" font-size="12" lengthAdjust="spacing" textLength="112.9805" x="380.63" y="758.4816">&lt;StateKind.Witness</text><text fill="#CAD3F5" font-family="sans-serif" font-size="12" lengthAdjust="spacing" text-decoration="line-through" textLength="25.4121" x="493.6105" y="758.4816">, A&gt;</text></g><!--reverse link Functor to StateFunctor--><g id="link_Functor_StateFunctor"><path d="M780.7665,142.5054 C776.1265,125.3654 770.61,113.47 751.63,95.98 C738.16,83.55 721.55,73.86 704.49,66.34 " fill="none" id="Functor-backto-StateFunctor" style="stroke:#F5BDE6;stroke-width:1.0;stroke-dasharray:7.0,7.0;"/><polygon fill="none" points="785.47,159.88,786.558,140.9376,774.975,144.0732,785.47,159.88" style="stroke:#F5BDE6;stroke-width:1.0;"/></g><!--link StateFunctor to Functor--><g id="link_StateFunctor_Functor"><path codeLine="65" d="M627.93,66.28 C640.03,80.76 656.52,98.73 673.63,111.98 C677.54,115 729.55,142.5 762.28,159.71 " fill="none" id="StateFunctor-Functor" style="stroke:#F5BDE6;stroke-width:1.0;"/><text fill="#CAD3F5" font-family="sans-serif" font-size="12" lengthAdjust="spacing" textLength="68.3203" x="674.63" y="108.5816">implements</text></g><!--reverse link StateFunctor to StateApplicative--><g id="link_StateFunctor_StateApplicative"><path d="M550.1727,75.3393 C513.4027,96.6293 475.79,118.42 435.85,141.55 " fill="none" id="StateFunctor-backto-StateApplicative" style="stroke:#F5BDE6;stroke-width:1.0;"/><polygon fill="none" points="565.75,66.32,547.1663,70.1469,553.1792,80.5317,565.75,66.32" style="stroke:#F5BDE6;stroke-width:1.0;"/></g><!--reverse link StateFunctor to StateApplicative--><g id="link_StateFunctor_StateApplicative"><path codeLine="69" d="M578.1259,70.47 C562.0159,85.01 544.89,98.96 523.63,111.98 C505.65,122.98 485.35,133 465.82,141.6 " fill="none" id="StateFunctor-backto-StateApplicative-1" style="stroke:#F5BDE6;stroke-width:1.0;stroke-dasharray:7.0,7.0;"/><polygon fill="#F5BDE6" points="582.58,66.45,573.2188,69.5107,578.8682,69.8,578.5788,75.4495,582.58,66.45" style="stroke:#F5BDE6;stroke-width:1.0;"/><text fill="#CAD3F5" font-family="sans-serif" font-size="12" lengthAdjust="spacing" textLength="46.3359" x="547.1" y="108.5816">extends</text></g><!--reverse link Applicative to StateApplicative--><g id="link_Applicative_StateApplicative"><path d="M85.4173,341.9953 C97.0573,322.3553 112.04,301.97 142.63,283.08 C191.62,252.85 216.06,276.54 268.63,253.08 C294.88,241.38 321.44,223.31 342.1,207.56 " fill="none" id="Applicative-backto-StateApplicative" style="stroke:#F5BDE6;stroke-width:1.0;stroke-dasharray:7.0,7.0;"/><polygon fill="none" points="76.24,357.48,90.5789,345.0544,80.2557,338.9362,76.24,357.48" style="stroke:#F5BDE6;stroke-width:1.0;"/></g><!--link StateApplicative to Applicative--><g id="link_StateApplicative_Applicative"><path codeLine="66" d="M254.47,207.52 C232.42,215.57 210.28,225.34 190.63,237.08 C137.95,268.57 94.74,329.89 77.14,357.32 " fill="none" id="StateApplicative-Applicative" style="stroke:#F5BDE6;stroke-width:1.0;"/><text fill="#CAD3F5" font-family="sans-serif" font-size="12" lengthAdjust="spacing" textLength="68.3203" x="191.63" y="249.6816">implements</text></g><!--reverse link StateApplicative to StateMonad--><g id="link_StateApplicative_StateMonad"><path d="M410.6828,222.5674 C435.5228,261.4374 467.28,311.15 489.84,346.45 " fill="none" id="StateApplicative-backto-StateMonad" style="stroke:#F5BDE6;stroke-width:1.0;"/><polygon fill="none" points="400.99,207.4,405.627,225.7983,415.7386,219.3365,400.99,207.4" style="stroke:#F5BDE6;stroke-width:1.0;"/></g><!--reverse link StateApplicative to StateMonad--><g id="link_StateApplicative_StateMonad"><path codeLine="70" d="M427.8524,211.5297 C437.6924,220.3297 443.02,226.41 450.63,237.08 C475.03,271.3 491,317.93 499.16,346.23 " fill="none" id="StateApplicative-backto-StateMonad-1" style="stroke:#F5BDE6;stroke-width:1.0;stroke-dasharray:7.0,7.0;"/><polygon fill="#F5BDE6" points="423.38,207.53,427.4221,216.5112,427.107,210.8631,432.7551,210.548,423.38,207.53" style="stroke:#F5BDE6;stroke-width:1.0;"/><text fill="#CAD3F5" font-family="sans-serif" font-size="12" lengthAdjust="spacing" textLength="46.3359" x="460.23" y="249.6816">extends</text></g><!--reverse link Monad to StateMonad--><g id="link_Monad_StateMonad"><path d="M489.0193,593.8306 C492.0893,552.9906 499.84,450.18 503.78,397.83 " fill="none" id="Monad-backto-StateMonad" style="stroke:#F5BDE6;stroke-width:1.0;stroke-dasharray:7.0,7.0;"/><polygon fill="none" points="487.67,611.78,495.0024,594.2804,483.0362,593.3809,487.67,611.78" style="stroke:#F5BDE6;stroke-width:1.0;"/></g><!--link StateMonad to Monad--><g id="link_StateMonad_Monad"><path codeLine="67" d="M479.5,397.98 C458.22,420.11 429.79,454.61 417.63,491.26 C415.39,498.01 415.78,500.39 417.63,507.26 C428.86,548.8 458.71,590.74 475.23,611.75 " fill="none" id="StateMonad-Monad" style="stroke:#F5BDE6;stroke-width:1.0;"/><text fill="#CAD3F5" font-family="sans-serif" font-size="12" lengthAdjust="spacing" textLength="68.3203" x="418.63" y="503.8616">implements</text></g><!--link StateKind to Kind--><g id="link_StateKind_Kind"><path codeLine="64" d="M605.49,641.1 C591.74,666.44 559.72,722.1 523.63,761.88 C506.72,780.52 483.97,798.26 467.77,809.9 " fill="none" id="StateKind-Kind" style="stroke:#F5BDE6;stroke-width:1.0;"/><text fill="#CAD3F5" font-family="sans-serif" font-size="12" lengthAdjust="spacing" textLength="46.3359" x="536.02" y="758.4816">extends</text></g><!--link StateKindHelper to State--><g id="link_StateKindHelper_State"><path codeLine="72" d="M1092.88,461.68 C1087.56,477.29 1081.18,493.07 1073.63,507.26 C1068.29,517.3 1065.4434,522.3656 1058.7334,532.0656 " fill="none" id="StateKindHelper-to-State" style="stroke:#F5BDE6;stroke-width:1.0;stroke-dasharray:7.0,7.0;"/><polygon fill="#F5BDE6" points="1055.32,537,1063.7297,531.874,1058.1645,532.888,1057.1505,527.3227,1055.32,537" style="stroke:#F5BDE6;stroke-width:1.0;"/><text fill="#CAD3F5" font-family="sans-serif" font-size="12" lengthAdjust="spacing" textLength="97.3008" x="1081.33" y="503.8616">creates/unwraps</text></g><!--link StateKindHelper to StateKind--><g id="link_StateKindHelper_StateKind"><path codeLine="73" d="M973.19,461.72 C944.45,477.97 914.01,493.97 884.63,507.26 C846.22,524.63 833.68,521.35 794.63,537.26 C737.55,560.5 678.5065,590.5797 643.6765,608.9597 " fill="none" id="StateKindHelper-to-StateKind" style="stroke:#F5BDE6;stroke-width:1.0;stroke-dasharray:7.0,7.0;"/><polygon fill="#F5BDE6" points="638.37,611.76,648.1965,611.0973,642.7921,609.4265,644.4629,604.022,638.37,611.76" style="stroke:#F5BDE6;stroke-width:1.0;"/><text fill="#CAD3F5" font-family="sans-serif" font-size="12" lengthAdjust="spacing" textLength="97.3008" x="918.27" y="503.8616">creates/unwraps</text></g><!--link StateMonad to StateKind--><g id="link_StateMonad_StateKind"><path codeLine="75" d="M516.09,397.83 C538.28,450.18 587.1385,565.4157 604.4485,606.2557 " fill="none" id="StateMonad-to-StateKind" style="stroke:#F5BDE6;stroke-width:1.0;stroke-dasharray:7.0,7.0;"/><polygon fill="#F5BDE6" points="606.79,611.78,606.9607,601.9326,604.8388,607.1764,599.595,605.0546,606.79,611.78" style="stroke:#F5BDE6;stroke-width:1.0;"/><text fill="#CAD3F5" font-family="sans-serif" font-size="12" lengthAdjust="spacing" textLength="181.3828" x="563.34" y="503.8616">operates on &lt;StateKind&lt;S,?&gt;&gt;</text></g><!--link StateMonad to State--><g id="link_StateMonad_State"><path codeLine="76" d="M561.55,397.94 C612.31,420.87 688.91,456.55 753.63,491.26 C780.01,505.4 802.4999,518.1352 829.0399,533.7652 " fill="none" id="StateMonad-to-State" style="stroke:#F5BDE6;stroke-width:1.0;stroke-dasharray:7.0,7.0;"/><polygon fill="#F5BDE6" points="834.21,536.81,828.4848,528.7962,829.9016,534.2727,824.4251,535.6896,834.21,536.81" style="stroke:#F5BDE6;stroke-width:1.0;"/><text fill="#CAD3F5" font-family="sans-serif" font-size="12" lengthAdjust="spacing" textLength="96.6094" x="779.48" y="503.8616">uses methods of</text></g><!--SRC=[hLLDJ-Cm4BtxLvXUA8AqUqPHLjsLAX1Y3mJjdbrdGYqIsxAT0ilsl-_4QLedRLEqR0yeUDwy-V3pp9bRGWbK5qn8SYOaBweCwD8vRQ-dKyDU9a_2BQj5PS5m9Hr8D-6gd4gkh6EHu5FEdDOLvq969UDyAPXJ4V99LvL5vEcd9R9F_UT4uoaXzbb8pGmhAI-OjJFdZ5XK3cunHYf-0_qIG3B8MLMuEOR_mJ3PqODQAAUkw0qKAt22in5P2amRIktUQ0db0embv5mp_ioUqE6xCa1lxXxfBLPWSiR1ZkWxeVWJxGcz4pABvrTqbf3phcLUIUwKYUTxbfdM1SPtOWK7hFTAiioVhmdfHKiTSn2dTJWQnpw2G7YnIp59DYdYxxB1FrQwQ9rC9SSf4WedME6j5plqEruEDcRT2QFoSHkdFkap9ZH7woaINHaOp-YA5TLmm3IXJ-36WvYVIcG9jGXBgOINqrKq3gNAHFxMBGQpFvMwa5O3Tns_MTTl2_-6KPZUGMV-w1WqBvYxxy43-zPnxVzw2xsCek0Aw3N59sPfqkZ4luhzEuzZ0roP31ctsWYbqLuCHgTsrynQVJtvZRoJbxod7f6z4nf5VnB_AZ2vU6kT_19EWhLnclYtqi-tnk33r62250_UHoLV33Qj2Nc4dk8Ko2wEyEoIfPuf9BUXbWOS3-dv6BmdwMEm8LKF-vmGza0PfxJTT-rD4d_sWPkeXNLev0JqCmghZVN_4AOKNe5_Zd2z9zDsfcD_HOczA76psUsaFnIYCuu74ZaoEgxeSF8v2sT4a6cuOp1RUCKbd0rMqV7uH2NDpjWVziF53p_fRbkmx7zlJBDU-otfjIjeomR_kQizDEe7FJvmzINRpUbp-W0O0fdjKcXBjauuZjjXlAcNX1AepUtdTL0rwJUb1eR_xeDzdsfOyz41xDDDgadI4MC_mOPb1-i6Rw6alpmcBHv1t01-s6cpCUnnxAP1VNmdaHvM8K4Dfae6Mmv7uzSaEUZNhkeIt5AXwbHE_W80]--></g></svg>