<svg xmlns="http://www.w3.org/2000/svg" xmlns:xlink="http://www.w3.org/1999/xlink" contentStyleType="text/css" height="550px" preserveAspectRatio="none" style="width:850px;height:550px;background:#24273A;" version="1.1" viewBox="0 0 850 550" width="850px" zoomAndPan="magnify"><defs/><g><rect fill="#24273A" height="550" style="stroke:none;stroke-width:1.0;" width="850" x="0" y="0"/>
<!--class Kind--><g id="elem_Kind"><rect codeLine="6" fill="#24273A" height="30" id="Kind" rx="1.5" ry="1.5" style="stroke:#C6A0F6;stroke-width:2.0;" width="88.0254" x="445.34" y="513"/><rect fill="#363A4F" height="30" rx="1.5" ry="1.5" style="stroke:#363A4F;stroke-width:2.0;" width="88.0254" x="445.34" y="513"/><rect fill="#363A4F" height="1.5" style="stroke:#363A4F;stroke-width:2.0;" width="88.0254" x="445.34" y="541.5"/><rect codeLine="6" fill="none" height="30" id="Kind" rx="1.5" ry="1.5" style="stroke:#C6A0F6;stroke-width:2.0;" width="88.0254" x="445.34" y="513"/><ellipse cx="459.34" cy="528" fill="#B4A7E5" rx="10" ry="10" style="stroke:#181818;stroke-width:1.0;"/><path d="M456.3478,525.2754 L456.3478,523.752 L461.5568,523.752 L461.5568,525.2754 L459.8166,525.2754 L459.8166,530.9766 L461.5568,530.9766 L461.5568,532.5 L456.3478,532.5 L456.3478,530.9766 L458.088,530.9766 L458.088,525.2754 Z " fill="#CAD3F5"/><text fill="#A6DA95" font-family="Helvetica" font-size="16" font-style="italic" lengthAdjust="spacing" textLength="32.0234" x="472.34" y="532.3203">Kind</text><rect fill="#24273A" height="14" style="stroke:#C6A0F6;stroke-width:1.0;stroke-dasharray:2.0,2.0;" width="24.002" x="512.3634" y="510"/><text fill="#CAD3F5" font-family="Helvetica" font-size="12" font-style="italic" lengthAdjust="spacing" textLength="22.002" x="513.3634" y="520.2402">F, A</text></g>
<!--class Functor--><g id="elem_Functor"><rect codeLine="7" fill="#24273A" height="30" id="Functor" rx="1.5" ry="1.5" style="stroke:#C6A0F6;stroke-width:2.0;" width="95.5723" x="523.57" y="409"/><rect fill="#363A4F" height="30" rx="1.5" ry="1.5" style="stroke:#363A4F;stroke-width:2.0;" width="95.5723" x="523.57" y="409"/><rect fill="#363A4F" height="1.5" style="stroke:#363A4F;stroke-width:2.0;" width="95.5723" x="523.57" y="437.5"/><rect codeLine="7" fill="none" height="30" id="Functor" rx="1.5" ry="1.5" style="stroke:#C6A0F6;stroke-width:2.0;" width="95.5723" x="523.57" y="409"/><ellipse cx="537.57" cy="424" fill="#B4A7E5" rx="10" ry="10" style="stroke:#181818;stroke-width:1.0;"/><path d="M534.5778,421.2754 L534.5778,419.752 L539.7868,419.752 L539.7868,421.2754 L538.0466,421.2754 L538.0466,426.9766 L539.7868,426.9766 L539.7868,428.5 L534.5778,428.5 L534.5778,426.9766 L536.318,426.9766 L536.318,421.2754 Z " fill="#CAD3F5"/><text fill="#A6DA95" font-family="Helvetica" font-size="16" font-style="italic" lengthAdjust="spacing" textLength="54.2422" x="550.57" y="428.3203">Functor</text><rect fill="#24273A" height="14" style="stroke:#C6A0F6;stroke-width:1.0;stroke-dasharray:2.0,2.0;" width="9.3301" x="612.8122" y="406"/><text fill="#CAD3F5" font-family="Helvetica" font-size="12" font-style="italic" lengthAdjust="spacing" textLength="7.3301" x="613.8122" y="416.2402">F</text></g>
<!--class Applicative--><g id="elem_Applicative"><rect codeLine="8" fill="#24273A" height="30" id="Applicative" rx="1.5" ry="1.5" style="stroke:#C6A0F6;stroke-width:2.0;" width="118.7051" x="7" y="310"/><rect fill="#363A4F" height="30" rx="1.5" ry="1.5" style="stroke:#363A4F;stroke-width:2.0;" width="118.7051" x="7" y="310"/><rect fill="#363A4F" height="1.5" style="stroke:#363A4F;stroke-width:2.0;" width="118.7051" x="7" y="338.5"/><rect codeLine="8" fill="none" height="30" id="Applicative" rx="1.5" ry="1.5" style="stroke:#C6A0F6;stroke-width:2.0;" width="118.7051" x="7" y="310"/><ellipse cx="21" cy="325" fill="#B4A7E5" rx="10" ry="10" style="stroke:#181818;stroke-width:1.0;"/><path d="M18.0078,322.2754 L18.0078,320.752 L23.2168,320.752 L23.2168,322.2754 L21.4766,322.2754 L21.4766,327.9766 L23.2168,327.9766 L23.2168,329.5 L18.0078,329.5 L18.0078,327.9766 L19.748,327.9766 L19.748,322.2754 Z " fill="#CAD3F5"/><text fill="#A6DA95" font-family="Helvetica" font-size="16" font-style="italic" lengthAdjust="spacing" textLength="77.375" x="34" y="329.3203">Applicative</text><rect fill="#24273A" height="14" style="stroke:#C6A0F6;stroke-width:1.0;stroke-dasharray:2.0,2.0;" width="9.3301" x="119.375" y="307"/><text fill="#CAD3F5" font-family="Helvetica" font-size="12" font-style="italic" lengthAdjust="spacing" textLength="7.3301" x="120.375" y="317.2402">F</text></g>
<!--class MonadBase--><g id="elem_MonadBase"><rect codeLine="9" fill="#24273A" height="30" id="MonadBase" rx="1.5" ry="1.5" style="stroke:#C6A0F6;stroke-width:2.0;" width="92.918" x="31.89" y="198"/><rect fill="#363A4F" height="30" rx="1.5" ry="1.5" style="stroke:#363A4F;stroke-width:2.0;" width="92.918" x="31.89" y="198"/><rect fill="#363A4F" height="1.5" style="stroke:#363A4F;stroke-width:2.0;" width="92.918" x="31.89" y="226.5"/><rect codeLine="9" fill="none" height="30" id="MonadBase" rx="1.5" ry="1.5" style="stroke:#C6A0F6;stroke-width:2.0;" width="92.918" x="31.89" y="198"/><ellipse cx="45.89" cy="213" fill="#B4A7E5" rx="10" ry="10" style="stroke:#181818;stroke-width:1.0;"/><path d="M42.8978,210.2754 L42.8978,208.752 L48.1068,208.752 L48.1068,210.2754 L46.3666,210.2754 L46.3666,215.9766 L48.1068,215.9766 L48.1068,217.5 L42.8978,217.5 L42.8978,215.9766 L44.638,215.9766 L44.638,210.2754 Z " fill="#CAD3F5"/><text fill="#A6DA95" font-family="Helvetica" font-size="16" font-style="italic" lengthAdjust="spacing" textLength="48.9219" x="58.89" y="217.3203">Monad</text><rect fill="#24273A" height="14" style="stroke:#C6A0F6;stroke-width:1.0;stroke-dasharray:2.0,2.0;" width="11.9961" x="115.8119" y="195"/><text fill="#CAD3F5" font-family="Helvetica" font-size="12" font-style="italic" lengthAdjust="spacing" textLength="9.9961" x="116.8119" y="205.2402">M</text></g>
<!--class MonadZero--><g id="elem_MonadZero"><rect fill="#24273A" height="30" id="MonadZero" rx="1.5" ry="1.5" style="stroke:#C6A0F6;stroke-width:2.0;" width="108.0" x="23.5" y="86"/><rect fill="#363A4F" height="30" rx="1.5" ry="1.5" style="stroke:#363A4F;stroke-width:2.0;" width="108.0" x="23.5" y="86"/><rect fill="#363A4F" height="1.5" style="stroke:#363A4F;stroke-width:2.0;" width="108.0" x="23.5" y="114.5"/><rect fill="none" height="30" id="MonadZero" rx="1.5" ry="1.5" style="stroke:#C6A0F6;stroke-width:2.0;" width="108.0" x="23.5" y="86"/><ellipse cx="38" cy="101" fill="#B4A7E5" rx="10" ry="10" style="stroke:#181818;stroke-width:1.0;"/><path d="M35.01,98.28 L35.01,96.75 L40.22,96.75 L40.22,98.28 L38.48,98.28 L38.48,103.98 L40.22,103.98 L40.22,105.5 L35.01,105.5 L35.01,103.98 L36.75,103.98 L36.75,98.28 Z " fill="#CAD3F5"/><text fill="#A6DA95" font-family="Helvetica" font-size="16" font-style="italic" lengthAdjust="spacing" textLength="75" x="51" y="105.32">MonadZero</text><rect fill="#24273A" height="14" style="stroke:#C6A0F6;stroke-width:1.0;stroke-dasharray:2.0,2.0;" width="11.996" x="123.502" y="83"/><text fill="#CAD3F5" font-family="Helvetica" font-size="12" font-style="italic" lengthAdjust="spacing" textLength="9.996" x="124.502" y="93.24">M</text></g>
<!--class Traverse--><g id="elem_Traverse"><rect fill="#24273A" height="30" id="Traverse" rx="1.5" ry="1.5" style="stroke:#C6A0F6;stroke-width:2.0;" width="102.0" x="670" y="310"/><rect fill="#363A4F" height="30" rx="1.5" ry="1.5" style="stroke:#363A4F;stroke-width:2.0;" width="102.0" x="670" y="310"/><rect fill="#363A4F" height="1.5" style="stroke:#363A4F;stroke-width:2.0;" width="102.0" x="670" y="338.5"/><rect fill="none" height="30" id="Traverse" rx="1.5" ry="1.5" style="stroke:#C6A0F6;stroke-width:2.0;" width="102.0" x="670" y="310"/><ellipse cx="684" cy="325" fill="#B4A7E5" rx="10" ry="10" style="stroke:#181818;stroke-width:1.0;"/><path d="M681.01,322.28 L681.01,320.75 L686.22,320.75 L686.22,322.28 L684.48,322.28 L684.48,327.98 L686.22,327.98 L686.22,329.5 L681.01,329.5 L681.01,327.98 L682.75,327.98 L682.75,322.28 Z " fill="#CAD3F5"/><text fill="#A6DA95" font-family="Helvetica" font-size="16" font-style="italic" lengthAdjust="spacing" textLength="65" x="697" y="329.32">Traverse</text><rect fill="#24273A" height="14" style="stroke:#C6A0F6;stroke-width:1.0;stroke-dasharray:2.0,2.0;" width="9.33" x="764" y="307"/><text fill="#CAD3F5" font-family="Helvetica" font-size="12" font-style="italic" lengthAdjust="spacing" textLength="7.33" x="765" y="317.24">T</text></g>
<!--class Foldable--><g id="elem_Foldable"><rect fill="#24273A" height="30" id="Foldable" rx="1.5" ry="1.5" style="stroke:#C6A0F6;stroke-width:2.0;" width="96.0" x="673" y="409"/><rect fill="#363A4F" height="30" rx="1.5" ry="1.5" style="stroke:#363A4F;stroke-width:2.0;" width="96.0" x="673" y="409"/><rect fill="#363A4F" height="1.5" style="stroke:#363A4F;stroke-width:2.0;" width="96.0" x="673" y="437.5"/><rect fill="none" height="30" id="Foldable" rx="1.5" ry="1.5" style="stroke:#C6A0F6;stroke-width:2.0;" width="96.0" x="673" y="409"/><ellipse cx="687" cy="424" fill="#B4A7E5" rx="10" ry="10" style="stroke:#181818;stroke-width:1.0;"/><path d="M684.01,421.28 L684.01,419.75 L689.22,419.75 L689.22,421.28 L687.48,421.28 L687.48,426.98 L689.22,426.98 L689.22,428.5 L684.01,428.5 L684.01,426.98 L685.75,426.98 L685.75,421.28 Z " fill="#CAD3F5"/><text fill="#A6DA95" font-family="Helvetica" font-size="16" font-style="italic" lengthAdjust="spacing" textLength="59" x="700" y="428.32">Foldable</text><rect fill="#24273A" height="14" style="stroke:#C6A0F6;stroke-width:1.0;stroke-dasharray:2.0,2.0;" width="9.33" x="761" y="406"/><text fill="#CAD3F5" font-family="Helvetica" font-size="12" font-style="italic" lengthAdjust="spacing" textLength="7.33" x="762" y="416.24">T</text></g>
<!--class StreamKindBase--><g id="elem_StreamKindBase"><rect fill="#24273A" height="30" id="StreamKindBase" rx="1.5" ry="1.5" style="stroke:#C6A0F6;stroke-width:2.0;" width="118.0" x="340" y="409"/><rect fill="#363A4F" height="30" rx="1.5" ry="1.5" style="stroke:#363A4F;stroke-width:2.0;" width="118.0" x="340" y="409"/><rect fill="#363A4F" height="1.5" style="stroke:#363A4F;stroke-width:2.0;" width="118.0" x="340" y="437.5"/><rect fill="none" height="30" id="StreamKindBase" rx="1.5" ry="1.5" style="stroke:#C6A0F6;stroke-width:2.0;" width="118.0" x="340" y="409"/><ellipse cx="354" cy="424" fill="#DA70D6" rx="10" ry="10" style="stroke:#181818;stroke-width:1.0;"/><path d="M351.32,428.5 L351.32,419.75 L353.05,419.75 L353.05,426.98 L356.75,426.98 L356.75,428.5 Z " fill="#CAD3F5"/><text fill="#A6DA95" font-family="Helvetica" font-size="16" font-style="italic" lengthAdjust="spacing" textLength="82" x="367" y="428.32">StreamKind</text><rect fill="#24273A" height="14" style="stroke:#C6A0F6;stroke-width:1.0;stroke-dasharray:2.0,2.0;" width="10.0" x="451" y="406"/><text fill="#CAD3F5" font-family="Helvetica" font-size="12" font-style="italic" lengthAdjust="spacing" textLength="8.0" x="452" y="416.24">A</text></g>
<!--class StreamKindHelper--><g id="elem_StreamKindHelper"><rect fill="#24273A" height="30" id="StreamKindHelper" rx="1.5" ry="1.5" style="stroke:#C6A0F6;stroke-width:2.0;" width="160.0" x="140" y="310"/><rect fill="#363A4F" height="30" rx="1.5" ry="1.5" style="stroke:#363A4F;stroke-width:2.0;" width="160.0" x="140" y="310"/><rect fill="#363A4F" height="1.5" style="stroke:#363A4F;stroke-width:2.0;" width="160.0" x="140" y="338.5"/><rect fill="none" height="30" id="StreamKindHelper" rx="1.5" ry="1.5" style="stroke:#C6A0F6;stroke-width:2.0;" width="160.0" x="140" y="310"/><ellipse cx="154" cy="325" fill="#808080" rx="10" ry="10" style="stroke:#181818;stroke-width:1.0;"/><path d="M150.8,320.75 L152.53,320.75 L152.53,324.09 L154.69,324.09 L154.69,320.75 L156.42,320.75 L156.42,329.5 L154.69,329.5 L154.69,325.61 L152.53,325.61 L152.53,329.5 L150.8,329.5 Z " fill="#CAD3F5"/><text fill="#A6DA95" font-family="Helvetica" font-size="16" lengthAdjust="spacing" textLength="130" x="167" y="329.32">StreamKindHelper</text></g>
<g id="elem_Note1"><path d="M330,290 L330,310 L290,315 L330,320 L330,340 A1.5,1.5 0 0 0 331.5,341.5 L700,341.5 A1.5,1.5 0 0 0 701.5,340 L701.5,300 L691.5,290 L331.5,290 A1.5,1.5 0 0 0 330,291.5 " fill="#EED49F" style="stroke:#24273A;stroke-width:0.5;"/><path d="M691.5,290 L691.5,299.25 A0.75,0.75 0 0 0 692.25,300 L701.5,300 L691.5,290 " fill="#EED49F" style="stroke:#24273A;stroke-width:0.5;"/><text fill="#24273A" font-family="Helvetica" font-size="12" lengthAdjust="spacing" textLength="238" x="336" y="304.24">Contains internal 'StreamHolder&lt;A&gt; record'</text><text fill="#24273A" font-family="Helvetica" font-size="12" lengthAdjust="spacing" textLength="194" x="336" y="316.24">which implements StreamKind&lt;A&gt;.</text><text fill="#24273A" font-family="Helvetica" font-size="12" lengthAdjust="spacing" textLength="360" x="336" y="328.24">`record StreamHolder&lt;A&gt;(Stream&lt;A&gt; stream) implements StreamKind&lt;A&gt; {}`</text></g>
<!--class StreamFunctorImpl--><g id="elem_StreamFunctorImpl"><rect fill="#24273A" height="30" id="StreamFunctorImpl" rx="1.5" ry="1.5" style="stroke:#C6A0F6;stroke-width:2.0;" width="138.0" x="350" y="198"/><rect fill="#363A4F" height="30" rx="1.5" ry="1.5" style="stroke:#363A4F;stroke-width:2.0;" width="138.0" x="350" y="198"/><rect fill="#363A4F" height="1.5" style="stroke:#363A4F;stroke-width:2.0;" width="138.0" x="350" y="226.5"/><rect fill="none" height="30" id="StreamFunctorImpl" rx="1.5" ry="1.5" style="stroke:#C6A0F6;stroke-width:2.0;" width="138.0" x="350" y="198"/><ellipse cx="364" cy="213" fill="#ADD1B2" rx="10" ry="10" style="stroke:#181818;stroke-width:1.0;"/><path d="M365.83,217.25 Q365.42,217.46 364.97,217.56 Q364.52,217.67 364.02,217.67 Q362.25,217.67 361.32,216.5 Q360.39,215.34 360.39,213.13 Q360.39,210.93 361.32,209.76 Q362.25,208.59 364.02,208.59 Q364.52,208.59 364.98,208.7 Q365.44,208.8 365.83,209.02 L365.83,210.94 Q365.39,210.53 364.97,210.34 Q364.55,210.15 364.11,210.15 Q363.16,210.15 362.68,210.9 Q362.19,211.65 362.19,213.13 Q362.19,214.61 362.68,215.36 Q363.16,216.12 364.11,216.12 Q364.55,216.12 364.97,215.93 Q365.39,215.74 365.83,215.33 Z " fill="#CAD3F5"/><text fill="#A6DA95" font-family="Helvetica" font-size="16" lengthAdjust="spacing" textLength="108" x="377" y="217.32">StreamFunctor</text></g>
<!--class StreamMonadImpl--><g id="elem_StreamMonadImpl"><rect fill="#24273A" height="30" id="StreamMonadImpl" rx="1.5" ry="1.5" style="stroke:#C6A0F6;stroke-width:2.0;" width="134.0" x="150" y="7"/><rect fill="#363A4F" height="30" rx="1.5" ry="1.5" style="stroke:#363A4F;stroke-width:2.0;" width="134.0" x="150" y="7"/><rect fill="#363A4F" height="1.5" style="stroke:#363A4F;stroke-width:2.0;" width="134.0" x="150" y="35.5"/><rect fill="none" height="30" id="StreamMonadImpl" rx="1.5" ry="1.5" style="stroke:#C6A0F6;stroke-width:2.0;" width="134.0" x="150" y="7"/><ellipse cx="164" cy="22" fill="#ADD1B2" rx="10" ry="10" style="stroke:#181818;stroke-width:1.0;"/><path d="M165.83,26.25 Q165.42,26.46 164.97,26.56 Q164.52,26.67 164.02,26.67 Q162.25,26.67 161.32,25.5 Q160.39,24.34 160.39,22.13 Q160.39,19.93 161.32,18.76 Q162.25,17.59 164.02,17.59 Q164.52,17.59 164.98,17.7 Q165.44,17.8 165.83,18.02 L165.83,19.94 Q165.39,19.53 164.97,19.34 Q164.55,19.15 164.11,19.15 Q163.16,19.15 162.68,19.9 Q162.19,20.65 162.19,22.13 Q162.19,23.61 162.68,24.36 Q163.16,25.12 164.11,25.12 Q164.55,25.12 164.97,24.93 Q165.39,24.74 165.83,24.33 Z " fill="#CAD3F5"/><text fill="#A6DA95" font-family="Helvetica" font-size="16" lengthAdjust="spacing" textLength="104" x="177" y="26.32">StreamMonad</text></g>
<!--class StreamTraverseImpl--><g id="elem_StreamTraverseImpl"><rect fill="#24273A" height="30" id="StreamTraverseImpl" rx="1.5" ry="1.5" style="stroke:#C6A0F6;stroke-width:2.0;" width="152.0" x="565" y="198"/><rect fill="#363A4F" height="30" rx="1.5" ry="1.5" style="stroke:#363A4F;stroke-width:2.0;" width="152.0" x="565" y="198"/><rect fill="#363A4F" height="1.5" style="stroke:#363A4F;stroke-width:2.0;" width="152.0" x="565" y="226.5"/><rect fill="none" height="30" id="StreamTraverseImpl" rx="1.5" ry="1.5" style="stroke:#C6A0F6;stroke-width:2.0;" width="152.0" x="565" y="198"/><ellipse cx="579" cy="213" fill="#ADD1B2" rx="10" ry="10" style="stroke:#181818;stroke-width:1.0;"/><path d="M580.83,217.25 Q580.42,217.46 579.97,217.56 Q579.52,217.67 579.02,217.67 Q577.25,217.67 576.32,216.5 Q575.39,215.34 575.39,213.13 Q575.39,210.93 576.32,209.76 Q577.25,208.59 579.02,208.59 Q579.52,208.59 579.98,208.7 Q580.44,208.8 580.83,209.02 L580.83,210.94 Q580.39,210.53 579.97,210.34 Q579.55,210.15 579.11,210.15 Q578.16,210.15 577.68,210.9 Q577.19,211.65 577.19,213.13 Q577.19,214.61 577.68,215.36 Q578.16,216.12 579.11,216.12 Q579.55,216.12 579.97,215.93 Q580.39,215.74 580.83,215.33 Z " fill="#CAD3F5"/><text fill="#A6DA95" font-family="Helvetica" font-size="16" lengthAdjust="spacing" textLength="122" x="592" y="217.32">StreamTraverse</text></g>
<!--links-->
<path d="M77.5,116 L77.5,148 L77.5,198" fill="none" style="stroke:#F5BDE6;stroke-width:1.0;"/><polygon fill="none" points="72,198,77.5,188,83,198,72,198" style="stroke:#F5BDE6;stroke-width:1.0;"/>
<path d="M77.5,228 L77.5,260 L66.5,290 L66.5,310" fill="none" style="stroke:#F5BDE6;stroke-width:1.0;"/><polygon fill="none" points="61,310,66.5,300,72,310,61,310" style="stroke:#F5BDE6;stroke-width:1.0;"/>
<path d="M113,340 C140,360 200,380 250,390 C350,410 480,420 523,422" fill="none" style="stroke:#F5BDE6;stroke-width:1.0;"/><polygon fill="none" points="523,417,513,422,523,427,523,417" style="stroke:#F5BDE6;stroke-width:1.0;"/>
<path d="M562,439 C555,455 545,475 535,490 C525,505 520,510 510,520" fill="none" style="stroke:#F5BDE6;stroke-width:1.0;"/><polygon fill="none" points="505,520,514,516,509,510,505,520" style="stroke:#F5BDE6;stroke-width:1.0;"/><text fill="#CAD3F5" font-family="Helvetica" font-size="12" lengthAdjust="spacing" textLength="193" x="540" y="479.24">(logically, Kind is the base for HKTs)</text>
<path d="M721,340 L721,370 L721,409" fill="none" style="stroke:#F5BDE6;stroke-width:1.0;"/><polygon fill="none" points="716,409,721,399,726,409,716,409" style="stroke:#F5BDE6;stroke-width:1.0;"/>
<path d="M619,340 C600,360 570,380 550,395 L540,409" fill="none" style="stroke:#F5BDE6;stroke-width:1.0;"/><polygon fill="none" points="535,413,544,410,539,404,535,413" style="stroke:#F5BDE6;stroke-width:1.0;"/>
<path d="M399,439 L399,475 L445,513" fill="none" style="stroke:#F5BDE6;stroke-width:1.0;"/><polygon fill="none" points="445,508,440,518,450,513,445,508" style="stroke:#F5BDE6;stroke-width:1.0;"/><text fill="#CAD3F5" font-family="Helvetica" font-size="12" lengthAdjust="spacing" textLength="135" x="405" y="479.24">&lt;StreamKind&lt;Witness, A&gt;</text>
<path d="M419,228 C430,250 450,280 490,300 C510,310 530,315 547,320" fill="none" style="stroke:#F5BDE6;stroke-width:1.0;stroke-dasharray:7.0,7.0;"/><polygon fill="none" points="547,315,537,320,547,325,547,315" style="stroke:#F5BDE6;stroke-width:1.0;"/><text fill="#CAD3F5" font-family="Helvetica" font-size="12" lengthAdjust="spacing" textLength="130" x="495" y="272.24">&lt;StreamKind.Witness&gt;</text>
<path d="M217,37 C217,50 217,70 120,86 L90,95" fill="none" style="stroke:#F5BDE6;stroke-width:1.0;stroke-dasharray:7.0,7.0;"/><polygon fill="none" points="85,95,95,91,90,86,85,95" style="stroke:#F5BDE6;stroke-width:1.0;"/><text fill="#CAD3F5" font-family="Helvetica" font-size="12" lengthAdjust="spacing" textLength="130" x="125" y="64.24">&lt;StreamKind.Witness&gt;</text>
<path d="M641,228 C641,250 660,280 690,300 L705,310" fill="none" style="stroke:#F5BDE6;stroke-width:1.0;stroke-dasharray:7.0,7.0;"/><polygon fill="none" points="705,305,700,315,710,310,705,305" style="stroke:#F5BDE6;stroke-width:1.0;"/><text fill="#CAD3F5" font-family="Helvetica" font-size="12" lengthAdjust="spacing" textLength="130" x="665" y="272.24">&lt;StreamKind.Witness&gt;</text>
<path d="M217,37 L217,70 L220,105 L220,135 L220,170 L220,205" fill="none" style="stroke:#F5BDE6;stroke-width:1.0;stroke-dasharray:7.0,7.0;"/><polygon fill="#F5BDE6" points="220,198,216,208,220,211,224,208,220,198" style="stroke:#F5BDE6;stroke-width:1.0;"/><text fill="#CAD3F5" font-family="Helvetica" font-size="12" lengthAdjust="spacing" textLength="130" x="225" y="129.24">uses for widen / narrow</text>
<path d="M300,325 L330,325 L360,325" fill="none" style="stroke:#F5BDE6;stroke-width:1.0;stroke-dasharray:7.0,7.0;"/><polygon fill="#F5BDE6" points="419,228,415,238,419,241,423,238,419,228" style="stroke:#F5BDE6;stroke-width:1.0;"/>
<path d="M280,340 C320,360 380,380 420,395" fill="none" style="stroke:#F5BDE6;stroke-width:1.0;stroke-dasharray:7.0,7.0;"/><polygon fill="#F5BDE6" points="399,409,409,404,404,409,409,414,399,409" style="stroke:#F5BDE6;stroke-width:1.0;"/>
<path d="M280,340 C400,390 560,400 640,320 L641,280 L641,228" fill="none" style="stroke:#F5BDE6;stroke-width:1.0;stroke-dasharray:7.0,7.0;"/><polygon fill="#F5BDE6" points="641,228,637,238,641,241,645,238,641,228" style="stroke:#F5BDE6;stroke-width:1.0;"/><text fill="#CAD3F5" font-family="Helvetica" font-size="12" lengthAdjust="spacing" textLength="130" x="500" y="360.24">uses for widen / narrow</text>
</g></svg>