<svg xmlns="http://www.w3.org/2000/svg" xmlns:xlink="http://www.w3.org/1999/xlink" contentStyleType="text/css" height="870px" preserveAspectRatio="none" style="width:611px;height:870px;background:#24273A;" version="1.1" viewBox="0 0 611 870" width="611px" zoomAndPan="magnify"><defs/><g><rect fill="#24273A" height="870" style="stroke:none;stroke-width:1.0;" width="611" x="0" y="0"/><!--cluster Supported Types (Monad Implementations)--><g id="cluster_Supported Types (Monad Implementations)"><path d="M7.5,6 L257.1797,6 A2.25,2.25 0 0 1 258.6797,7.5 L265.6797,24 L602.66,24 A1.5,1.5 0 0 1 604.16,25.5 L604.16,861.5 A1.5,1.5 0 0 1 602.66,863 L7.5,863 A1.5,1.5 0 0 1 6,861.5 L6,7.5 A1.5,1.5 0 0 1 7.5,6 " fill="#24273A" style="stroke:#CAD3F5;stroke-width:1.5;"/><line style="stroke:#CAD3F5;stroke-width:1.5;" x1="6" x2="265.6797" y1="24" y2="24"/><text fill="#CAD3F5" font-family="Helvetica" font-size="12" font-weight="bold" lengthAdjust="spacing" textLength="246.6797" x="10" y="17.2402">Supported Types (Monad Implementations)</text></g><!--cluster CoreInterfaces--><g id="cluster_CoreInterfaces"><path d="M431.62,396 L518.6552,396 A2.25,2.25 0 0 1 520.1552,397.5 L527.1552,414 L575.09,414 A1.5,1.5 0 0 1 576.59,415.5 L576.59,536.5 A1.5,1.5 0 0 1 575.09,538 L431.62,538 A1.5,1.5 0 0 1 430.12,536.5 L430.12,397.5 A1.5,1.5 0 0 1 431.62,396 " fill="#24273A" style="stroke:#CAD3F5;stroke-width:1.5;"/><line style="stroke:#CAD3F5;stroke-width:1.5;" x1="430.12" x2="527.1552" y1="414" y2="414"/><text fill="#CAD3F5" font-family="Helvetica" font-size="12" font-weight="bold" lengthAdjust="spacing" textLength="84.0352" x="434.12" y="407.2402">CoreInterfaces</text></g><!--cluster Simulation Plumbing--><g id="cluster_Simulation Plumbing"><path d="M428.05,762 L550.382,762 A2.25,2.25 0 0 1 551.882,763.5 L558.882,780 L578.66,780 A1.5,1.5 0 0 1 580.16,781.5 L580.16,837.5 A1.5,1.5 0 0 1 578.66,839 L428.05,839 A1.5,1.5 0 0 1 426.55,837.5 L426.55,763.5 A1.5,1.5 0 0 1 428.05,762 " fill="#24273A" style="stroke:#CAD3F5;stroke-width:1.5;"/><line style="stroke:#CAD3F5;stroke-width:1.5;" x1="426.55" x2="558.882" y1="780" y2="780"/><text fill="#CAD3F5" font-family="Helvetica" font-size="12" font-weight="bold" lengthAdjust="spacing" textLength="119.332" x="430.55" y="773.2402">Simulation Plumbing</text></g><!--class ListMonad--><g id="elem_ListMonad"><rect codeLine="7" fill="#24273A" height="30" id="ListMonad" rx="1.5" ry="1.5" style="stroke:#C6A0F6;stroke-width:2.0;" width="103.8203" x="95.36" y="37"/><rect fill="#363A4F" height="30" rx="1.5" ry="1.5" style="stroke:#363A4F;stroke-width:2.0;" width="103.8203" x="95.36" y="37"/><rect fill="#363A4F" height="1.5" style="stroke:#363A4F;stroke-width:2.0;" width="103.8203" x="95.36" y="65.5"/><rect codeLine="7" fill="none" height="30" id="ListMonad" rx="1.5" ry="1.5" style="stroke:#C6A0F6;stroke-width:2.0;" width="103.8203" x="95.36" y="37"/><ellipse cx="109.36" cy="52" fill="#ADD1B2" rx="10" ry="10" style="stroke:#181818;stroke-width:1.0;"/><path d="M111.194,56.248 Q110.7838,56.459 110.3327,56.5645 Q109.8815,56.6699 109.3834,56.6699 Q107.6139,56.6699 106.6823,55.5039 Q105.7506,54.3379 105.7506,52.1348 Q105.7506,49.9258 106.6823,48.7598 Q107.6139,47.5938 109.3834,47.5938 Q109.8815,47.5938 110.3385,47.6992 Q110.7955,47.8047 111.194,48.0156 L111.194,49.9375 Q110.7487,49.5273 110.3297,49.3369 Q109.9108,49.1465 109.4655,49.1465 Q108.5163,49.1465 108.0329,49.8994 Q107.5495,50.6523 107.5495,52.1348 Q107.5495,53.6113 108.0329,54.3643 Q108.5163,55.1172 109.4655,55.1172 Q109.9108,55.1172 110.3297,54.9268 Q110.7487,54.7363 111.194,54.3262 Z " fill="#CAD3F5"/><text fill="#A6DA95" font-family="Helvetica" font-size="16" lengthAdjust="spacing" textLength="73.8203" x="122.36" y="56.3203">ListMonad</text></g><!--class OptionalMonad--><g id="elem_OptionalMonad"><rect codeLine="8" fill="#24273A" height="30" id="OptionalMonad" rx="1.5" ry="1.5" style="stroke:#C6A0F6;stroke-width:2.0;" width="138.5156" x="78.02" y="817"/><rect fill="#363A4F" height="30" rx="1.5" ry="1.5" style="stroke:#363A4F;stroke-width:2.0;" width="138.5156" x="78.02" y="817"/><rect fill="#363A4F" height="1.5" style="stroke:#363A4F;stroke-width:2.0;" width="138.5156" x="78.02" y="845.5"/><rect codeLine="8" fill="none" height="30" id="OptionalMonad" rx="1.5" ry="1.5" style="stroke:#C6A0F6;stroke-width:2.0;" width="138.5156" x="78.02" y="817"/><ellipse cx="92.02" cy="832" fill="#ADD1B2" rx="10" ry="10" style="stroke:#181818;stroke-width:1.0;"/><path d="M93.854,836.248 Q93.4438,836.459 92.9927,836.5645 Q92.5415,836.6699 92.0434,836.6699 Q90.2739,836.6699 89.3423,835.5039 Q88.4106,834.3379 88.4106,832.1348 Q88.4106,829.9258 89.3423,828.7598 Q90.2739,827.5938 92.0434,827.5938 Q92.5415,827.5938 92.9985,827.6992 Q93.4555,827.8047 93.854,828.0156 L93.854,829.9375 Q93.4087,829.5273 92.9897,829.3369 Q92.5708,829.1465 92.1255,829.1465 Q91.1763,829.1465 90.6929,829.8994 Q90.2095,830.6523 90.2095,832.1348 Q90.2095,833.6113 90.6929,834.3643 Q91.1763,835.1172 92.1255,835.1172 Q92.5708,835.1172 92.9897,834.9268 Q93.4087,834.7363 93.854,834.3262 Z " fill="#CAD3F5"/><text fill="#A6DA95" font-family="Helvetica" font-size="16" lengthAdjust="spacing" textLength="108.5156" x="105.02" y="836.3203">OptionalMonad</text></g><!--class MaybeMonad--><g id="elem_MaybeMonad"><rect codeLine="9" fill="#24273A" height="30" id="MaybeMonad" rx="1.5" ry="1.5" style="stroke:#C6A0F6;stroke-width:2.0;" width="126.9453" x="83.8" y="557"/><rect fill="#363A4F" height="30" rx="1.5" ry="1.5" style="stroke:#363A4F;stroke-width:2.0;" width="126.9453" x="83.8" y="557"/><rect fill="#363A4F" height="1.5" style="stroke:#363A4F;stroke-width:2.0;" width="126.9453" x="83.8" y="585.5"/><rect codeLine="9" fill="none" height="30" id="MaybeMonad" rx="1.5" ry="1.5" style="stroke:#C6A0F6;stroke-width:2.0;" width="126.9453" x="83.8" y="557"/><ellipse cx="97.8" cy="572" fill="#ADD1B2" rx="10" ry="10" style="stroke:#181818;stroke-width:1.0;"/><path d="M99.634,576.248 Q99.2238,576.459 98.7727,576.5645 Q98.3215,576.6699 97.8234,576.6699 Q96.0539,576.6699 95.1223,575.5039 Q94.1906,574.3379 94.1906,572.1348 Q94.1906,569.9258 95.1223,568.7598 Q96.0539,567.5938 97.8234,567.5938 Q98.3215,567.5938 98.7785,567.6992 Q99.2355,567.8047 99.634,568.0156 L99.634,569.9375 Q99.1887,569.5273 98.7697,569.3369 Q98.3508,569.1465 97.9055,569.1465 Q96.9563,569.1465 96.4729,569.8994 Q95.9895,570.6523 95.9895,572.1348 Q95.9895,573.6113 96.4729,574.3643 Q96.9563,575.1172 97.9055,575.1172 Q98.3508,575.1172 98.7697,574.9268 Q99.1887,574.7363 99.634,574.3262 Z " fill="#CAD3F5"/><text fill="#A6DA95" font-family="Helvetica" font-size="16" lengthAdjust="spacing" textLength="96.9453" x="110.8" y="576.3203">MaybeMonad</text></g><!--class EitherMonad--><g id="elem_EitherMonad"><rect codeLine="10" fill="#24273A" height="30" id="EitherMonad" rx="1.5" ry="1.5" style="stroke:#C6A0F6;stroke-width:2.0;" width="131.3926" x="81.58" y="492"/><rect fill="#363A4F" height="30" rx="1.5" ry="1.5" style="stroke:#363A4F;stroke-width:2.0;" width="131.3926" x="81.58" y="492"/><rect fill="#363A4F" height="1.5" style="stroke:#363A4F;stroke-width:2.0;" width="131.3926" x="81.58" y="520.5"/><rect codeLine="10" fill="none" height="30" id="EitherMonad" rx="1.5" ry="1.5" style="stroke:#C6A0F6;stroke-width:2.0;" width="131.3926" x="81.58" y="492"/><ellipse cx="95.58" cy="507" fill="#ADD1B2" rx="10" ry="10" style="stroke:#181818;stroke-width:1.0;"/><path d="M97.414,511.248 Q97.0038,511.459 96.5527,511.5645 Q96.1015,511.6699 95.6034,511.6699 Q93.8339,511.6699 92.9023,510.5039 Q91.9706,509.3379 91.9706,507.1348 Q91.9706,504.9258 92.9023,503.7598 Q93.8339,502.5938 95.6034,502.5938 Q96.1015,502.5938 96.5585,502.6992 Q97.0155,502.8047 97.414,503.0156 L97.414,504.9375 Q96.9687,504.5273 96.5497,504.3369 Q96.1308,504.1465 95.6855,504.1465 Q94.7363,504.1465 94.2529,504.8994 Q93.7695,505.6523 93.7695,507.1348 Q93.7695,508.6113 94.2529,509.3643 Q94.7363,510.1172 95.6855,510.1172 Q96.1308,510.1172 96.5497,509.9268 Q96.9687,509.7363 97.414,509.3262 Z " fill="#CAD3F5"/><text fill="#A6DA95" font-family="Helvetica" font-size="16" lengthAdjust="spacing" textLength="90.7188" x="108.58" y="511.3203">EitherMonad</text><rect fill="#24273A" height="14" style="stroke:#C6A0F6;stroke-width:1.0;stroke-dasharray:2.0,2.0;" width="8.6738" x="207.2987" y="489"/><text fill="#CAD3F5" font-family="Helvetica" font-size="12" font-style="italic" lengthAdjust="spacing" textLength="6.6738" x="208.2987" y="499.2402">L</text></g><!--class CompletableFutureMonadError--><g id="elem_CompletableFutureMonadError"><rect codeLine="11" fill="#24273A" height="30" id="CompletableFutureMonadError" rx="1.5" ry="1.5" style="stroke:#C6A0F6;stroke-width:2.0;" width="250.5469" x="22" y="752"/><rect fill="#363A4F" height="30" rx="1.5" ry="1.5" style="stroke:#363A4F;stroke-width:2.0;" width="250.5469" x="22" y="752"/><rect fill="#363A4F" height="1.5" style="stroke:#363A4F;stroke-width:2.0;" width="250.5469" x="22" y="780.5"/><rect codeLine="11" fill="none" height="30" id="CompletableFutureMonadError" rx="1.5" ry="1.5" style="stroke:#C6A0F6;stroke-width:2.0;" width="250.5469" x="22" y="752"/><ellipse cx="36" cy="767" fill="#ADD1B2" rx="10" ry="10" style="stroke:#181818;stroke-width:1.0;"/><path d="M37.834,771.248 Q37.4238,771.459 36.9727,771.5645 Q36.5215,771.6699 36.0234,771.6699 Q34.2539,771.6699 33.3223,770.5039 Q32.3906,769.3379 32.3906,767.1348 Q32.3906,764.9258 33.3223,763.7598 Q34.2539,762.5938 36.0234,762.5938 Q36.5215,762.5938 36.9785,762.6992 Q37.4355,762.8047 37.834,763.0156 L37.834,764.9375 Q37.3887,764.5273 36.9697,764.3369 Q36.5508,764.1465 36.1055,764.1465 Q35.1563,764.1465 34.6729,764.8994 Q34.1895,765.6523 34.1895,767.1348 Q34.1895,768.6113 34.6729,769.3643 Q35.1563,770.1172 36.1055,770.1172 Q36.5508,770.1172 36.9697,769.9268 Q37.3887,769.7363 37.834,769.3262 Z " fill="#CAD3F5"/><text fill="#A6DA95" font-family="Helvetica" font-size="16" lengthAdjust="spacing" textLength="220.5469" x="49" y="771.3203">CompletableFutureMonadError</text></g><!--class TryMonadError--><g id="elem_TryMonadError"><rect codeLine="12" fill="#24273A" height="30" id="TryMonadError" rx="1.5" ry="1.5" style="stroke:#C6A0F6;stroke-width:2.0;" width="137.5781" x="78.48" y="687"/><rect fill="#363A4F" height="30" rx="1.5" ry="1.5" style="stroke:#363A4F;stroke-width:2.0;" width="137.5781" x="78.48" y="687"/><rect fill="#363A4F" height="1.5" style="stroke:#363A4F;stroke-width:2.0;" width="137.5781" x="78.48" y="715.5"/><rect codeLine="12" fill="none" height="30" id="TryMonadError" rx="1.5" ry="1.5" style="stroke:#C6A0F6;stroke-width:2.0;" width="137.5781" x="78.48" y="687"/><ellipse cx="92.48" cy="702" fill="#ADD1B2" rx="10" ry="10" style="stroke:#181818;stroke-width:1.0;"/><path d="M94.314,706.248 Q93.9038,706.459 93.4527,706.5645 Q93.0015,706.6699 92.5034,706.6699 Q90.7339,706.6699 89.8023,705.5039 Q88.8706,704.3379 88.8706,702.1348 Q88.8706,699.9258 89.8023,698.7598 Q90.7339,697.5938 92.5034,697.5938 Q93.0015,697.5938 93.4585,697.6992 Q93.9155,697.8047 94.314,698.0156 L94.314,699.9375 Q93.8687,699.5273 93.4497,699.3369 Q93.0308,699.1465 92.5855,699.1465 Q91.6363,699.1465 91.1529,699.8994 Q90.6695,700.6523 90.6695,702.1348 Q90.6695,703.6113 91.1529,704.3643 Q91.6363,705.1172 92.5855,705.1172 Q93.0308,705.1172 93.4497,704.9268 Q93.8687,704.7363 94.314,704.3262 Z " fill="#CAD3F5"/><text fill="#A6DA95" font-family="Helvetica" font-size="16" lengthAdjust="spacing" textLength="107.5781" x="105.48" y="706.3203">TryMonadError</text></g><!--class IOMonad--><g id="elem_IOMonad"><rect codeLine="13" fill="#24273A" height="30" id="IOMonad" rx="1.5" ry="1.5" style="stroke:#C6A0F6;stroke-width:2.0;" width="95.8125" x="99.37" y="427"/><rect fill="#363A4F" height="30" rx="1.5" ry="1.5" style="stroke:#363A4F;stroke-width:2.0;" width="95.8125" x="99.37" y="427"/><rect fill="#363A4F" height="1.5" style="stroke:#363A4F;stroke-width:2.0;" width="95.8125" x="99.37" y="455.5"/><rect codeLine="13" fill="none" height="30" id="IOMonad" rx="1.5" ry="1.5" style="stroke:#C6A0F6;stroke-width:2.0;" width="95.8125" x="99.37" y="427"/><ellipse cx="113.37" cy="442" fill="#ADD1B2" rx="10" ry="10" style="stroke:#181818;stroke-width:1.0;"/><path d="M115.204,446.248 Q114.7938,446.459 114.3427,446.5645 Q113.8915,446.6699 113.3934,446.6699 Q111.6239,446.6699 110.6923,445.5039 Q109.7606,444.3379 109.7606,442.1348 Q109.7606,439.9258 110.6923,438.7598 Q111.6239,437.5938 113.3934,437.5938 Q113.8915,437.5938 114.3485,437.6992 Q114.8055,437.8047 115.204,438.0156 L115.204,439.9375 Q114.7587,439.5273 114.3397,439.3369 Q113.9208,439.1465 113.4755,439.1465 Q112.5263,439.1465 112.0429,439.8994 Q111.5595,440.6523 111.5595,442.1348 Q111.5595,443.6113 112.0429,444.3643 Q112.5263,445.1172 113.4755,445.1172 Q113.9208,445.1172 114.3397,444.9268 Q114.7587,444.7363 115.204,444.3262 Z " fill="#CAD3F5"/><text fill="#A6DA95" font-family="Helvetica" font-size="16" lengthAdjust="spacing" textLength="65.8125" x="126.37" y="446.3203">IOMonad</text></g><!--class LazyMonad--><g id="elem_LazyMonad"><rect codeLine="14" fill="#24273A" height="30" id="LazyMonad" rx="1.5" ry="1.5" style="stroke:#C6A0F6;stroke-width:2.0;" width="112.7188" x="90.91" y="362"/><rect fill="#363A4F" height="30" rx="1.5" ry="1.5" style="stroke:#363A4F;stroke-width:2.0;" width="112.7188" x="90.91" y="362"/><rect fill="#363A4F" height="1.5" style="stroke:#363A4F;stroke-width:2.0;" width="112.7188" x="90.91" y="390.5"/><rect codeLine="14" fill="none" height="30" id="LazyMonad" rx="1.5" ry="1.5" style="stroke:#C6A0F6;stroke-width:2.0;" width="112.7188" x="90.91" y="362"/><ellipse cx="104.91" cy="377" fill="#ADD1B2" rx="10" ry="10" style="stroke:#181818;stroke-width:1.0;"/><path d="M106.744,381.248 Q106.3338,381.459 105.8827,381.5645 Q105.4315,381.6699 104.9334,381.6699 Q103.1639,381.6699 102.2323,380.5039 Q101.3006,379.3379 101.3006,377.1348 Q101.3006,374.9258 102.2323,373.7598 Q103.1639,372.5938 104.9334,372.5938 Q105.4315,372.5938 105.8885,372.6992 Q106.3455,372.8047 106.744,373.0156 L106.744,374.9375 Q106.2987,374.5273 105.8797,374.3369 Q105.4608,374.1465 105.0155,374.1465 Q104.0663,374.1465 103.5829,374.8994 Q103.0995,375.6523 103.0995,377.1348 Q103.0995,378.6113 103.5829,379.3643 Q104.0663,380.1172 105.0155,380.1172 Q105.4608,380.1172 105.8797,379.9268 Q106.2987,379.7363 106.744,379.3262 Z " fill="#CAD3F5"/><text fill="#A6DA95" font-family="Helvetica" font-size="16" lengthAdjust="spacing" textLength="82.7188" x="117.91" y="381.3203">LazyMonad</text></g><!--class IdMonad--><g id="elem_IdMonad"><rect codeLine="15" fill="#24273A" height="30" id="IdMonad" rx="1.5" ry="1.5" style="stroke:#C6A0F6;stroke-width:2.0;" width="92.2656" x="101.14" y="297"/><rect fill="#363A4F" height="30" rx="1.5" ry="1.5" style="stroke:#363A4F;stroke-width:2.0;" width="92.2656" x="101.14" y="297"/><rect fill="#363A4F" height="1.5" style="stroke:#363A4F;stroke-width:2.0;" width="92.2656" x="101.14" y="325.5"/><rect codeLine="15" fill="none" height="30" id="IdMonad" rx="1.5" ry="1.5" style="stroke:#C6A0F6;stroke-width:2.0;" width="92.2656" x="101.14" y="297"/><ellipse cx="115.14" cy="312" fill="#ADD1B2" rx="10" ry="10" style="stroke:#181818;stroke-width:1.0;"/><path d="M116.974,316.248 Q116.5638,316.459 116.1127,316.5645 Q115.6615,316.6699 115.1634,316.6699 Q113.3939,316.6699 112.4623,315.5039 Q111.5306,314.3379 111.5306,312.1348 Q111.5306,309.9258 112.4623,308.7598 Q113.3939,307.5938 115.1634,307.5938 Q115.6615,307.5938 116.1185,307.6992 Q116.5755,307.8047 116.974,308.0156 L116.974,309.9375 Q116.5287,309.5273 116.1097,309.3369 Q115.6908,309.1465 115.2455,309.1465 Q114.2963,309.1465 113.8129,309.8994 Q113.3295,310.6523 113.3295,312.1348 Q113.3295,313.6113 113.8129,314.3643 Q114.2963,315.1172 115.2455,315.1172 Q115.6908,315.1172 116.1097,314.9268 Q116.5287,314.7363 116.974,314.3262 Z " fill="#CAD3F5"/><text fill="#A6DA95" font-family="Helvetica" font-size="16" lengthAdjust="spacing" textLength="62.2656" x="128.14" y="316.3203">IdMonad</text></g><!--class ReaderMonad--><g id="elem_ReaderMonad"><rect codeLine="16" fill="#24273A" height="30" id="ReaderMonad" rx="1.5" ry="1.5" style="stroke:#C6A0F6;stroke-width:2.0;" width="144.0645" x="75.24" y="232"/><rect fill="#363A4F" height="30" rx="1.5" ry="1.5" style="stroke:#363A4F;stroke-width:2.0;" width="144.0645" x="75.24" y="232"/><rect fill="#363A4F" height="1.5" style="stroke:#363A4F;stroke-width:2.0;" width="144.0645" x="75.24" y="260.5"/><rect codeLine="16" fill="none" height="30" id="ReaderMonad" rx="1.5" ry="1.5" style="stroke:#C6A0F6;stroke-width:2.0;" width="144.0645" x="75.24" y="232"/><ellipse cx="89.24" cy="247" fill="#ADD1B2" rx="10" ry="10" style="stroke:#181818;stroke-width:1.0;"/><path d="M91.074,251.248 Q90.6638,251.459 90.2127,251.5645 Q89.7615,251.6699 89.2634,251.6699 Q87.4939,251.6699 86.5623,250.5039 Q85.6306,249.3379 85.6306,247.1348 Q85.6306,244.9258 86.5623,243.7598 Q87.4939,242.5938 89.2634,242.5938 Q89.7615,242.5938 90.2185,242.6992 Q90.6755,242.8047 91.074,243.0156 L91.074,244.9375 Q90.6287,244.5273 90.2097,244.3369 Q89.7908,244.1465 89.3455,244.1465 Q88.3963,244.1465 87.9129,244.8994 Q87.4295,245.6523 87.4295,247.1348 Q87.4295,248.6113 87.9129,249.3643 Q88.3963,250.1172 89.3455,250.1172 Q89.7908,250.1172 90.2097,249.9268 Q90.6287,249.7363 91.074,249.3262 Z " fill="#CAD3F5"/><text fill="#A6DA95" font-family="Helvetica" font-size="16" lengthAdjust="spacing" textLength="101.3984" x="102.24" y="251.3203">ReaderMonad</text><rect fill="#24273A" height="14" style="stroke:#C6A0F6;stroke-width:1.0;stroke-dasharray:2.0,2.0;" width="10.666" x="211.6384" y="229"/><text fill="#CAD3F5" font-family="Helvetica" font-size="12" font-style="italic" lengthAdjust="spacing" textLength="8.666" x="212.6384" y="239.2402">R</text></g><!--class StateMonad--><g id="elem_StateMonad"><rect codeLine="17" fill="#24273A" height="30" id="StateMonad" rx="1.5" ry="1.5" style="stroke:#C6A0F6;stroke-width:2.0;" width="128.2852" x="83.13" y="167"/><rect fill="#363A4F" height="30" rx="1.5" ry="1.5" style="stroke:#363A4F;stroke-width:2.0;" width="128.2852" x="83.13" y="167"/><rect fill="#363A4F" height="1.5" style="stroke:#363A4F;stroke-width:2.0;" width="128.2852" x="83.13" y="195.5"/><rect codeLine="17" fill="none" height="30" id="StateMonad" rx="1.5" ry="1.5" style="stroke:#C6A0F6;stroke-width:2.0;" width="128.2852" x="83.13" y="167"/><ellipse cx="97.13" cy="182" fill="#ADD1B2" rx="10" ry="10" style="stroke:#181818;stroke-width:1.0;"/><path d="M98.964,186.248 Q98.5538,186.459 98.1027,186.5645 Q97.6515,186.6699 97.1534,186.6699 Q95.3839,186.6699 94.4523,185.5039 Q93.5206,184.3379 93.5206,182.1348 Q93.5206,179.9258 94.4523,178.7598 Q95.3839,177.5938 97.1534,177.5938 Q97.6515,177.5938 98.1085,177.6992 Q98.5655,177.8047 98.964,178.0156 L98.964,179.9375 Q98.5187,179.5273 98.0997,179.3369 Q97.6808,179.1465 97.2355,179.1465 Q96.2863,179.1465 95.8029,179.8994 Q95.3195,180.6523 95.3195,182.1348 Q95.3195,183.6113 95.8029,184.3643 Q96.2863,185.1172 97.2355,185.1172 Q97.6808,185.1172 98.0997,184.9268 Q98.5187,184.7363 98.964,184.3262 Z " fill="#CAD3F5"/><text fill="#A6DA95" font-family="Helvetica" font-size="16" lengthAdjust="spacing" textLength="86.2813" x="110.13" y="186.3203">StateMonad</text><rect fill="#24273A" height="14" style="stroke:#C6A0F6;stroke-width:1.0;stroke-dasharray:2.0,2.0;" width="10.0039" x="204.4113" y="164"/><text fill="#CAD3F5" font-family="Helvetica" font-size="12" font-style="italic" lengthAdjust="spacing" textLength="8.0039" x="205.4113" y="174.2402">S</text></g><!--class WriterMonad--><g id="elem_WriterMonad"><rect codeLine="18" fill="#24273A" height="30" id="WriterMonad" rx="1.5" ry="1.5" style="stroke:#C6A0F6;stroke-width:2.0;" width="136.9043" x="78.82" y="102"/><rect fill="#363A4F" height="30" rx="1.5" ry="1.5" style="stroke:#363A4F;stroke-width:2.0;" width="136.9043" x="78.82" y="102"/><rect fill="#363A4F" height="1.5" style="stroke:#363A4F;stroke-width:2.0;" width="136.9043" x="78.82" y="130.5"/><rect codeLine="18" fill="none" height="30" id="WriterMonad" rx="1.5" ry="1.5" style="stroke:#C6A0F6;stroke-width:2.0;" width="136.9043" x="78.82" y="102"/><ellipse cx="92.82" cy="117" fill="#ADD1B2" rx="10" ry="10" style="stroke:#181818;stroke-width:1.0;"/><path d="M94.654,121.248 Q94.2438,121.459 93.7927,121.5645 Q93.3415,121.6699 92.8434,121.6699 Q91.0739,121.6699 90.1423,120.5039 Q89.2106,119.3379 89.2106,117.1348 Q89.2106,114.9258 90.1423,113.7598 Q91.0739,112.5938 92.8434,112.5938 Q93.3415,112.5938 93.7985,112.6992 Q94.2555,112.8047 94.654,113.0156 L94.654,114.9375 Q94.2087,114.5273 93.7897,114.3369 Q93.3708,114.1465 92.9255,114.1465 Q91.9763,114.1465 91.4929,114.8994 Q91.0095,115.6523 91.0095,117.1348 Q91.0095,118.6113 91.4929,119.3643 Q91.9763,120.1172 92.9255,120.1172 Q93.3708,120.1172 93.7897,119.9268 Q94.2087,119.7363 94.654,119.3262 Z " fill="#CAD3F5"/><text fill="#A6DA95" font-family="Helvetica" font-size="16" lengthAdjust="spacing" textLength="91.5781" x="105.82" y="121.3203">WriterMonad</text><rect fill="#24273A" height="14" style="stroke:#C6A0F6;stroke-width:1.0;stroke-dasharray:2.0,2.0;" width="13.3262" x="205.3981" y="99"/><text fill="#CAD3F5" font-family="Helvetica" font-size="12" font-style="italic" lengthAdjust="spacing" textLength="11.3262" x="206.3981" y="109.2402">W</text></g><!--class ValidatedMonad--><g id="elem_ValidatedMonad"><rect codeLine="19" fill="#24273A" height="30" id="ValidatedMonad" rx="1.5" ry="1.5" style="stroke:#C6A0F6;stroke-width:2.0;" width="157.6445" x="68.45" y="622"/><rect fill="#363A4F" height="30" rx="1.5" ry="1.5" style="stroke:#363A4F;stroke-width:2.0;" width="157.6445" x="68.45" y="622"/><rect fill="#363A4F" height="1.5" style="stroke:#363A4F;stroke-width:2.0;" width="157.6445" x="68.45" y="650.5"/><rect codeLine="19" fill="none" height="30" id="ValidatedMonad" rx="1.5" ry="1.5" style="stroke:#C6A0F6;stroke-width:2.0;" width="157.6445" x="68.45" y="622"/><ellipse cx="82.45" cy="637" fill="#ADD1B2" rx="10" ry="10" style="stroke:#181818;stroke-width:1.0;"/><path d="M84.284,641.248 Q83.8738,641.459 83.4227,641.5645 Q82.9715,641.6699 82.4734,641.6699 Q80.7039,641.6699 79.7723,640.5039 Q78.8406,639.3379 78.8406,637.1348 Q78.8406,634.9258 79.7723,633.7598 Q80.7039,632.5938 82.4734,632.5938 Q82.9715,632.5938 83.4285,632.6992 Q83.8855,632.8047 84.284,633.0156 L84.284,634.9375 Q83.8387,634.5273 83.4197,634.3369 Q83.0008,634.1465 82.5555,634.1465 Q81.6063,634.1465 81.1229,634.8994 Q80.6395,635.6523 80.6395,637.1348 Q80.6395,638.6113 81.1229,639.3643 Q81.6063,640.1172 82.5555,640.1172 Q83.0008,640.1172 83.4197,639.9268 Q83.8387,639.7363 84.284,639.3262 Z " fill="#CAD3F5"/><text fill="#A6DA95" font-family="Helvetica" font-size="16" lengthAdjust="spacing" textLength="115.6406" x="95.45" y="641.3203">ValidatedMonad</text><rect fill="#24273A" height="14" style="stroke:#C6A0F6;stroke-width:1.0;stroke-dasharray:2.0,2.0;" width="10.0039" x="219.0906" y="619"/><text fill="#CAD3F5" font-family="Helvetica" font-size="12" font-style="italic" lengthAdjust="spacing" textLength="8.0039" x="220.0906" y="629.2402">E</text></g><!--class Monad--><g id="elem_Monad"><rect fill="#24273A" height="30" id="Monad" rx="1.5" ry="1.5" style="stroke:#C6A0F6;stroke-width:2.0;" width="78.9219" x="463.89" y="427"/><rect fill="#363A4F" height="30" rx="1.5" ry="1.5" style="stroke:#363A4F;stroke-width:2.0;" width="78.9219" x="463.89" y="427"/><rect fill="#363A4F" height="1.5" style="stroke:#363A4F;stroke-width:2.0;" width="78.9219" x="463.89" y="455.5"/><rect fill="none" height="30" id="Monad" rx="1.5" ry="1.5" style="stroke:#C6A0F6;stroke-width:2.0;" width="78.9219" x="463.89" y="427"/><ellipse cx="477.89" cy="442" fill="#ADD1B2" rx="10" ry="10" style="stroke:#181818;stroke-width:1.0;"/><path d="M479.724,446.248 Q479.3138,446.459 478.8627,446.5645 Q478.4115,446.6699 477.9134,446.6699 Q476.1439,446.6699 475.2123,445.5039 Q474.2806,444.3379 474.2806,442.1348 Q474.2806,439.9258 475.2123,438.7598 Q476.1439,437.5938 477.9134,437.5938 Q478.4115,437.5938 478.8685,437.6992 Q479.3255,437.8047 479.724,438.0156 L479.724,439.9375 Q479.2787,439.5273 478.8597,439.3369 Q478.4408,439.1465 477.9955,439.1465 Q477.0463,439.1465 476.5629,439.8994 Q476.0795,440.6523 476.0795,442.1348 Q476.0795,443.6113 476.5629,444.3643 Q477.0463,445.1172 477.9955,445.1172 Q478.4408,445.1172 478.8597,444.9268 Q479.2787,444.7363 479.724,444.3262 Z " fill="#CAD3F5"/><text fill="#A6DA95" font-family="Helvetica" font-size="16" lengthAdjust="spacing" textLength="48.9219" x="490.89" y="446.3203">Monad</text></g><!--class MonadError--><g id="elem_MonadError"><rect fill="#24273A" height="30" id="MonadError" rx="1.5" ry="1.5" style="stroke:#C6A0F6;stroke-width:2.0;" width="114.4766" x="446.12" y="492"/><rect fill="#363A4F" height="30" rx="1.5" ry="1.5" style="stroke:#363A4F;stroke-width:2.0;" width="114.4766" x="446.12" y="492"/><rect fill="#363A4F" height="1.5" style="stroke:#363A4F;stroke-width:2.0;" width="114.4766" x="446.12" y="520.5"/><rect fill="none" height="30" id="MonadError" rx="1.5" ry="1.5" style="stroke:#C6A0F6;stroke-width:2.0;" width="114.4766" x="446.12" y="492"/><ellipse cx="460.12" cy="507" fill="#ADD1B2" rx="10" ry="10" style="stroke:#181818;stroke-width:1.0;"/><path d="M461.954,511.248 Q461.5438,511.459 461.0927,511.5645 Q460.6415,511.6699 460.1434,511.6699 Q458.3739,511.6699 457.4423,510.5039 Q456.5106,509.3379 456.5106,507.1348 Q456.5106,504.9258 457.4423,503.7598 Q458.3739,502.5938 460.1434,502.5938 Q460.6415,502.5938 461.0985,502.6992 Q461.5555,502.8047 461.954,503.0156 L461.954,504.9375 Q461.5087,504.5273 461.0897,504.3369 Q460.6708,504.1465 460.2255,504.1465 Q459.2763,504.1465 458.7929,504.8994 Q458.3095,505.6523 458.3095,507.1348 Q458.3095,508.6113 458.7929,509.3643 Q459.2763,510.1172 460.2255,510.1172 Q460.6708,510.1172 461.0897,509.9268 Q461.5087,509.7363 461.954,509.3262 Z " fill="#CAD3F5"/><text fill="#A6DA95" font-family="Helvetica" font-size="16" lengthAdjust="spacing" textLength="84.4766" x="473.12" y="511.3203">MonadError</text></g><!--class OptionalKind--><g id="elem_OptionalKind"><rect fill="#24273A" height="30" id="OptionalKind" rx="1.5" ry="1.5" style="stroke:#C6A0F6;stroke-width:2.0;" width="121.6172" x="442.55" y="793"/><rect fill="#363A4F" height="30" rx="1.5" ry="1.5" style="stroke:#363A4F;stroke-width:2.0;" width="121.6172" x="442.55" y="793"/><rect fill="#363A4F" height="1.5" style="stroke:#363A4F;stroke-width:2.0;" width="121.6172" x="442.55" y="821.5"/><rect fill="none" height="30" id="OptionalKind" rx="1.5" ry="1.5" style="stroke:#C6A0F6;stroke-width:2.0;" width="121.6172" x="442.55" y="793"/><ellipse cx="456.55" cy="808" fill="#ADD1B2" rx="10" ry="10" style="stroke:#181818;stroke-width:1.0;"/><path d="M458.384,812.248 Q457.9738,812.459 457.5227,812.5645 Q457.0715,812.6699 456.5734,812.6699 Q454.8039,812.6699 453.8723,811.5039 Q452.9406,810.3379 452.9406,808.1348 Q452.9406,805.9258 453.8723,804.7598 Q454.8039,803.5938 456.5734,803.5938 Q457.0715,803.5938 457.5285,803.6992 Q457.9855,803.8047 458.384,804.0156 L458.384,805.9375 Q457.9387,805.5273 457.5197,805.3369 Q457.1008,805.1465 456.6555,805.1465 Q455.7063,805.1465 455.2229,805.8994 Q454.7395,806.6523 454.7395,808.1348 Q454.7395,809.6113 455.2229,810.3643 Q455.7063,811.1172 456.6555,811.1172 Q457.1008,811.1172 457.5197,810.9268 Q457.9387,810.7363 458.384,810.3262 Z " fill="#CAD3F5"/><text fill="#A6DA95" font-family="Helvetica" font-size="16" lengthAdjust="spacing" textLength="91.6172" x="469.55" y="812.3203">OptionalKind</text></g><!--reverse link ListMonad to Monad--><g id="link_ListMonad_Monad"><path codeLine="21" d="M217.1961,63.1697 C240.4261,67.9797 250.04,71.99 272.55,84 C345.04,122.67 363.64,139.55 410.55,207 C461.81,280.72 489.84,387.07 498.98,426.51 " fill="none" id="ListMonad-backto-Monad" style="stroke:#F5BDE6;stroke-width:1.0;stroke-dasharray:7.0,7.0;"/><polygon fill="none" points="199.57,59.52,215.9796,69.045,218.4127,57.2943,199.57,59.52" style="stroke:#F5BDE6;stroke-width:1.0;"/></g><!--reverse link OptionalMonad to MonadError--><g id="link_OptionalMonad_MonadError"><path codeLine="22" d="M234.2774,815.276 C293.6374,800.946 360.2,775.9 410.55,719 C464.63,657.87 490.74,559.96 499.18,522.38 " fill="none" id="OptionalMonad-backto-MonadError" style="stroke:#F5BDE6;stroke-width:1.0;stroke-dasharray:7.0,7.0;"/><polygon fill="none" points="216.78,819.5,235.6854,821.1084,232.8694,809.4435,216.78,819.5" style="stroke:#F5BDE6;stroke-width:1.0;"/></g><!--reverse link MaybeMonad to MonadError--><g id="link_MaybeMonad_MonadError"><path codeLine="23" d="M228.8742,557.2001 C295.4442,544.9801 381.86,529.12 445.89,517.37 " fill="none" id="MaybeMonad-backto-MonadError" style="stroke:#F5BDE6;stroke-width:1.0;stroke-dasharray:7.0,7.0;"/><polygon fill="none" points="211.17,560.45,229.9575,563.1015,227.7909,551.2987,211.17,560.45" style="stroke:#F5BDE6;stroke-width:1.0;"/></g><!--reverse link EitherMonad to MonadError--><g id="link_EitherMonad_MonadError"><path codeLine="24" d="M231.22,507 C297.8,507 382.32,507 445.71,507 " fill="none" id="EitherMonad-backto-MonadError" style="stroke:#F5BDE6;stroke-width:1.0;stroke-dasharray:7.0,7.0;"/><polygon fill="none" points="213.22,507,231.22,513,231.22,501,213.22,507" style="stroke:#F5BDE6;stroke-width:1.0;"/></g><!--reverse link CompletableFutureMonadError to MonadError--><g id="link_CompletableFutureMonadError_MonadError"><path codeLine="25" d="M242.2562,746.8092 C258.3362,742.3892 257.6,741.68 272.55,735 C287.18,728.47 288.51,722.73 302.55,715 C348.57,689.67 371.55,702.19 410.55,667 C457.15,624.95 486.21,553.5 497.27,522.32 " fill="none" id="CompletableFutureMonadError-backto-MonadError" style="stroke:#F5BDE6;stroke-width:1.0;stroke-dasharray:7.0,7.0;"/><polygon fill="none" points="224.9,751.58,243.8465,752.5946,240.666,741.0238,224.9,751.58" style="stroke:#F5BDE6;stroke-width:1.0;"/></g><!--reverse link TryMonadError to MonadError--><g id="link_TryMonadError_MonadError"><path codeLine="26" d="M233.8833,682.6488 C252.3233,677.9088 254.69,676.62 272.55,670 C336.66,646.24 355.3,642.29 410.55,602 C442.98,578.35 473.97,542.64 490.34,522.41 " fill="none" id="TryMonadError-backto-MonadError" style="stroke:#F5BDE6;stroke-width:1.0;stroke-dasharray:7.0,7.0;"/><polygon fill="none" points="216.45,687.13,235.377,688.4599,232.3895,676.8377,216.45,687.13" style="stroke:#F5BDE6;stroke-width:1.0;"/></g><!--reverse link ValidatedMonad to MonadError--><g id="link_ValidatedMonad_MonadError"><path codeLine="27" d="M231.9267,617.0624 C250.8167,612.2224 253.89,611.03 272.55,605 C335.22,584.75 350.14,577.25 410.55,551 C431.13,542.05 453.89,531.15 471.6,522.44 " fill="none" id="ValidatedMonad-backto-MonadError" style="stroke:#F5BDE6;stroke-width:1.0;stroke-dasharray:7.0,7.0;"/><polygon fill="none" points="214.49,621.53,233.416,622.8746,230.4375,611.2501,214.49,621.53" style="stroke:#F5BDE6;stroke-width:1.0;"/></g><!--reverse link IdMonad to Monad--><g id="link_IdMonad_Monad"><path codeLine="28" d="M211.1334,326.0972 C234.8934,331.7372 246.81,335.26 272.55,344 C345.03,368.63 426.8,405.88 470.6,426.64 " fill="none" id="IdMonad-backto-Monad" style="stroke:#F5BDE6;stroke-width:1.0;stroke-dasharray:7.0,7.0;"/><polygon fill="none" points="193.62,321.94,209.7476,331.935,212.5191,320.2594,193.62,321.94" style="stroke:#F5BDE6;stroke-width:1.0;"/></g><!--reverse link IOMonad to Monad--><g id="link_IOMonad_Monad"><path codeLine="29" d="M213.66,442 C284.33,442 398,442 463.41,442 " fill="none" id="IOMonad-backto-Monad" style="stroke:#F5BDE6;stroke-width:1.0;stroke-dasharray:7.0,7.0;"/><polygon fill="none" points="195.66,442,213.66,448,213.66,436,195.66,442" style="stroke:#F5BDE6;stroke-width:1.0;"/></g><!--reverse link LazyMonad to Monad--><g id="link_LazyMonad_Monad"><path codeLine="30" d="M221.6942,390.4797 C294.0442,403.7597 400.78,423.35 463.63,434.89 " fill="none" id="LazyMonad-backto-Monad" style="stroke:#F5BDE6;stroke-width:1.0;stroke-dasharray:7.0,7.0;"/><polygon fill="none" points="203.99,387.23,220.611,396.3811,222.7774,384.5782,203.99,387.23" style="stroke:#F5BDE6;stroke-width:1.0;"/></g><!--reverse link ReaderMonad to Monad--><g id="link_ReaderMonad_Monad"><path codeLine="31" d="M237.0004,265.7592 C254.6804,270.3992 255.91,271.72 272.55,279 C361.28,317.82 450.23,394.1 485.98,426.67 " fill="none" id="ReaderMonad-backto-Monad" style="stroke:#F5BDE6;stroke-width:1.0;stroke-dasharray:7.0,7.0;"/><polygon fill="none" points="219.59,261.19,235.4773,271.5627,238.5235,259.9558,219.59,261.19" style="stroke:#F5BDE6;stroke-width:1.0;"/></g><!--reverse link StateMonad to Monad--><g id="link_StateMonad_Monad"><path codeLine="32" d="M229.1409,197.3708 C249.2209,202.2508 253.62,204.78 272.55,214 C342.07,247.88 356.13,265.04 410.55,320 C444.86,354.66 477.28,402.52 492.8,426.7 " fill="none" id="StateMonad-backto-Monad" style="stroke:#F5BDE6;stroke-width:1.0;stroke-dasharray:7.0,7.0;"/><polygon fill="none" points="211.65,193.12,227.724,203.2011,230.5578,191.5405,211.65,193.12" style="stroke:#F5BDE6;stroke-width:1.0;"/></g><!--reverse link WriterMonad to Monad--><g id="link_WriterMonad_Monad"><path codeLine="33" d="M233.5417,133.019 C252.4617,137.799 255.14,139.99 272.55,149 C343.96,185.96 360.35,203.18 410.55,266 C452.93,319.04 484.45,394.67 496.73,426.72 " fill="none" id="WriterMonad-backto-Monad" style="stroke:#F5BDE6;stroke-width:1.0;stroke-dasharray:7.0,7.0;"/><polygon fill="none" points="216.09,128.61,232.072,138.8363,235.0113,127.2018,216.09,128.61" style="stroke:#F5BDE6;stroke-width:1.0;"/></g><!--link OptionalMonad to OptionalKind--><g id="link_OptionalMonad_OptionalKind"><path codeLine="36" d="M216.96,827.34 C282.33,822.91 373.7137,816.7157 436.1237,812.4857 " fill="none" id="OptionalMonad-to-OptionalKind" style="stroke:#F5BDE6;stroke-width:1.0;stroke-dasharray:7.0,7.0;"/><polygon fill="#F5BDE6" points="442.11,812.08,432.8601,808.6978,437.1214,812.4181,433.4011,816.6794,442.11,812.08" style="stroke:#F5BDE6;stroke-width:1.0;"/><text fill="#CAD3F5" font-family="Helvetica" font-size="12" lengthAdjust="spacing" textLength="106.7285" x="303.55" y="810.6802">operates on witness</text></g><!--SRC=[ZPDBRzim48Jl_1LRNTeUBDq38vV21OGuI107pNb5hIsYV85S8LKV_xsq5CUqcyRIIHXykrhCZ3ueAtNV4dJCFbvLLS3dSgUuwvi-Kf3ECbakfJELbIuoBfIi9BBtlPJABWnAsIbaj_0QBVT6BxWZGvL1PQlnjVH95PrA7o7ZUG13fg4GXT2qPM07GUqwXbO5agoS5SAZ_8uxWcBJU-y2KmkFWwS8dswTnHPgutNQR1dtVFnSm2y1wP4QOuIrYZnocNRdzoJgS_qMXuREnMAL3A0moilrTG4O8PCoyelRNyBOQFhQSn-cLQiGNCYenp2ygTTtv_lM-7Cur-hsd_iU2Dl3VG_JVPcKavjaqNJKSZE1HoNddeBYmyQd2SoadFo6MhLfnNJLSZN1fweO1rvpWENlianU1QfJdS8M9SNokFWac_-pH_UEeSsXi-JcuEz4EcVy9Eiv0wVEpPcespcklfJh0lLQk0jSLgyBvB5V5y2iN- -G8_eHLZzm7mi4qkC_3zlaxg4uRxIeBAzJ-PNfN_1xtPj6sLrvm6wKRGku0kSff8CZ9EXPiQKOnHyXn5y0]--></g></svg>