<svg xmlns="http://www.w3.org/2000/svg" xmlns:xlink="http://www.w3.org/1999/xlink" contentStyleType="text/css" height="870px" preserveAspectRatio="none" style="width:575px;height:870px;background:#24273A;" version="1.1" viewBox="0 0 575 870" width="575px" zoomAndPan="magnify"><defs/><g><rect fill="#24273A" height="870" style="stroke:none;stroke-width:1.0;" width="575" x="0" y="0"/><!--cluster Supported Types (Monad Implementations)--><g id="cluster_Supported Types (Monad Implementations)"><path d="M7.5,6 L257.1797,6 A2.25,2.25 0 0 1 258.6797,7.5 L265.6797,24 L567.11,24 A1.5,1.5 0 0 1 568.61,25.5 L568.61,861.5 A1.5,1.5 0 0 1 567.11,863 L7.5,863 A1.5,1.5 0 0 1 6,861.5 L6,7.5 A1.5,1.5 0 0 1 7.5,6 " fill="#24273A" style="stroke:#CAD3F5;stroke-width:1.5;"/><line style="stroke:#CAD3F5;stroke-width:1.5;" x1="6" x2="265.6797" y1="24" y2="24"/><text fill="#CAD3F5" font-family="Helvetica" font-size="12" font-weight="bold" lengthAdjust="spacing" textLength="246.6797" x="10" y="17.2402">Supported Types (Monad Implementations)</text></g><!--cluster CoreInterfaces--><g id="cluster_CoreInterfaces"><path d="M396.06,396 L483.0952,396 A2.25,2.25 0 0 1 484.5952,397.5 L491.5952,414 L539.54,414 A1.5,1.5 0 0 1 541.04,415.5 L541.04,536.5 A1.5,1.5 0 0 1 539.54,538 L396.06,538 A1.5,1.5 0 0 1 394.56,536.5 L394.56,397.5 A1.5,1.5 0 0 1 396.06,396 " fill="#24273A" style="stroke:#CAD3F5;stroke-width:1.5;"/><line style="stroke:#CAD3F5;stroke-width:1.5;" x1="394.56" x2="491.5952" y1="414" y2="414"/><text fill="#CAD3F5" font-family="Helvetica" font-size="12" font-weight="bold" lengthAdjust="spacing" textLength="84.0352" x="398.56" y="407.2402">CoreInterfaces</text></g><!--cluster Simulation Plumbing--><g id="cluster_Simulation Plumbing"><path d="M392.49,762 L514.822,762 A2.25,2.25 0 0 1 516.322,763.5 L523.322,780 L543.11,780 A1.5,1.5 0 0 1 544.61,781.5 L544.61,837.5 A1.5,1.5 0 0 1 543.11,839 L392.49,839 A1.5,1.5 0 0 1 390.99,837.5 L390.99,763.5 A1.5,1.5 0 0 1 392.49,762 " fill="#24273A" style="stroke:#CAD3F5;stroke-width:1.5;"/><line style="stroke:#CAD3F5;stroke-width:1.5;" x1="390.99" x2="523.322" y1="780" y2="780"/><text fill="#CAD3F5" font-family="Helvetica" font-size="12" font-weight="bold" lengthAdjust="spacing" textLength="119.332" x="394.99" y="773.2402">Simulation Plumbing</text></g><!--class ListMonad--><g id="elem_ListMonad"><rect codeLine="7" fill="#24273A" height="30" id="ListMonad" rx="1.5" ry="1.5" style="stroke:#C6A0F6;stroke-width:2.0;" width="103.8203" x="77.59" y="37"/><rect fill="#363A4F" height="30" rx="1.5" ry="1.5" style="stroke:#363A4F;stroke-width:2.0;" width="103.8203" x="77.59" y="37"/><rect fill="#363A4F" height="1.5" style="stroke:#363A4F;stroke-width:2.0;" width="103.8203" x="77.59" y="65.5"/><rect codeLine="7" fill="none" height="30" id="ListMonad" rx="1.5" ry="1.5" style="stroke:#C6A0F6;stroke-width:2.0;" width="103.8203" x="77.59" y="37"/><ellipse cx="91.59" cy="52" fill="#ADD1B2" rx="10" ry="10" style="stroke:#181818;stroke-width:1.0;"/><path d="M93.424,56.248 Q93.0138,56.459 92.5627,56.5645 Q92.1115,56.6699 91.6134,56.6699 Q89.8439,56.6699 88.9123,55.5039 Q87.9806,54.3379 87.9806,52.1348 Q87.9806,49.9258 88.9123,48.7598 Q89.8439,47.5938 91.6134,47.5938 Q92.1115,47.5938 92.5685,47.6992 Q93.0255,47.8047 93.424,48.0156 L93.424,49.9375 Q92.9787,49.5273 92.5597,49.3369 Q92.1408,49.1465 91.6955,49.1465 Q90.7463,49.1465 90.2629,49.8994 Q89.7795,50.6523 89.7795,52.1348 Q89.7795,53.6113 90.2629,54.3643 Q90.7463,55.1172 91.6955,55.1172 Q92.1408,55.1172 92.5597,54.9268 Q92.9787,54.7363 93.424,54.3262 Z " fill="#CAD3F5"/><text fill="#A6DA95" font-family="Helvetica" font-size="16" lengthAdjust="spacing" textLength="73.8203" x="104.59" y="56.3203">ListMonad</text></g><!--class OptionalMonad--><g id="elem_OptionalMonad"><rect codeLine="8" fill="#24273A" height="30" id="OptionalMonad" rx="1.5" ry="1.5" style="stroke:#C6A0F6;stroke-width:2.0;" width="138.5156" x="60.24" y="817"/><rect fill="#363A4F" height="30" rx="1.5" ry="1.5" style="stroke:#363A4F;stroke-width:2.0;" width="138.5156" x="60.24" y="817"/><rect fill="#363A4F" height="1.5" style="stroke:#363A4F;stroke-width:2.0;" width="138.5156" x="60.24" y="845.5"/><rect codeLine="8" fill="none" height="30" id="OptionalMonad" rx="1.5" ry="1.5" style="stroke:#C6A0F6;stroke-width:2.0;" width="138.5156" x="60.24" y="817"/><ellipse cx="74.24" cy="832" fill="#ADD1B2" rx="10" ry="10" style="stroke:#181818;stroke-width:1.0;"/><path d="M76.074,836.248 Q75.6638,836.459 75.2127,836.5645 Q74.7615,836.6699 74.2634,836.6699 Q72.4939,836.6699 71.5623,835.5039 Q70.6306,834.3379 70.6306,832.1348 Q70.6306,829.9258 71.5623,828.7598 Q72.4939,827.5938 74.2634,827.5938 Q74.7615,827.5938 75.2185,827.6992 Q75.6755,827.8047 76.074,828.0156 L76.074,829.9375 Q75.6287,829.5273 75.2097,829.3369 Q74.7908,829.1465 74.3455,829.1465 Q73.3963,829.1465 72.9129,829.8994 Q72.4295,830.6523 72.4295,832.1348 Q72.4295,833.6113 72.9129,834.3643 Q73.3963,835.1172 74.3455,835.1172 Q74.7908,835.1172 75.2097,834.9268 Q75.6287,834.7363 76.074,834.3262 Z " fill="#CAD3F5"/><text fill="#A6DA95" font-family="Helvetica" font-size="16" lengthAdjust="spacing" textLength="108.5156" x="87.24" y="836.3203">OptionalMonad</text></g><!--class MaybeMonad--><g id="elem_MaybeMonad"><rect codeLine="9" fill="#24273A" height="30" id="MaybeMonad" rx="1.5" ry="1.5" style="stroke:#C6A0F6;stroke-width:2.0;" width="126.9453" x="66.02" y="557"/><rect fill="#363A4F" height="30" rx="1.5" ry="1.5" style="stroke:#363A4F;stroke-width:2.0;" width="126.9453" x="66.02" y="557"/><rect fill="#363A4F" height="1.5" style="stroke:#363A4F;stroke-width:2.0;" width="126.9453" x="66.02" y="585.5"/><rect codeLine="9" fill="none" height="30" id="MaybeMonad" rx="1.5" ry="1.5" style="stroke:#C6A0F6;stroke-width:2.0;" width="126.9453" x="66.02" y="557"/><ellipse cx="80.02" cy="572" fill="#ADD1B2" rx="10" ry="10" style="stroke:#181818;stroke-width:1.0;"/><path d="M81.854,576.248 Q81.4438,576.459 80.9927,576.5645 Q80.5415,576.6699 80.0434,576.6699 Q78.2739,576.6699 77.3423,575.5039 Q76.4106,574.3379 76.4106,572.1348 Q76.4106,569.9258 77.3423,568.7598 Q78.2739,567.5938 80.0434,567.5938 Q80.5415,567.5938 80.9985,567.6992 Q81.4555,567.8047 81.854,568.0156 L81.854,569.9375 Q81.4087,569.5273 80.9897,569.3369 Q80.5708,569.1465 80.1255,569.1465 Q79.1763,569.1465 78.6929,569.8994 Q78.2095,570.6523 78.2095,572.1348 Q78.2095,573.6113 78.6929,574.3643 Q79.1763,575.1172 80.1255,575.1172 Q80.5708,575.1172 80.9897,574.9268 Q81.4087,574.7363 81.854,574.3262 Z " fill="#CAD3F5"/><text fill="#A6DA95" font-family="Helvetica" font-size="16" lengthAdjust="spacing" textLength="96.9453" x="93.02" y="576.3203">MaybeMonad</text></g><!--class EitherMonad--><g id="elem_EitherMonad"><rect codeLine="10" fill="#24273A" height="30" id="EitherMonad" rx="1.5" ry="1.5" style="stroke:#C6A0F6;stroke-width:2.0;" width="131.3926" x="63.8" y="492"/><rect fill="#363A4F" height="30" rx="1.5" ry="1.5" style="stroke:#363A4F;stroke-width:2.0;" width="131.3926" x="63.8" y="492"/><rect fill="#363A4F" height="1.5" style="stroke:#363A4F;stroke-width:2.0;" width="131.3926" x="63.8" y="520.5"/><rect codeLine="10" fill="none" height="30" id="EitherMonad" rx="1.5" ry="1.5" style="stroke:#C6A0F6;stroke-width:2.0;" width="131.3926" x="63.8" y="492"/><ellipse cx="77.8" cy="507" fill="#ADD1B2" rx="10" ry="10" style="stroke:#181818;stroke-width:1.0;"/><path d="M79.634,511.248 Q79.2238,511.459 78.7727,511.5645 Q78.3215,511.6699 77.8234,511.6699 Q76.0539,511.6699 75.1223,510.5039 Q74.1906,509.3379 74.1906,507.1348 Q74.1906,504.9258 75.1223,503.7598 Q76.0539,502.5938 77.8234,502.5938 Q78.3215,502.5938 78.7785,502.6992 Q79.2355,502.8047 79.634,503.0156 L79.634,504.9375 Q79.1887,504.5273 78.7697,504.3369 Q78.3508,504.1465 77.9055,504.1465 Q76.9563,504.1465 76.4729,504.8994 Q75.9895,505.6523 75.9895,507.1348 Q75.9895,508.6113 76.4729,509.3643 Q76.9563,510.1172 77.9055,510.1172 Q78.3508,510.1172 78.7697,509.9268 Q79.1887,509.7363 79.634,509.3262 Z " fill="#CAD3F5"/><text fill="#A6DA95" font-family="Helvetica" font-size="16" lengthAdjust="spacing" textLength="90.7188" x="90.8" y="511.3203">EitherMonad</text><rect fill="#24273A" height="14" style="stroke:#C6A0F6;stroke-width:1.0;stroke-dasharray:2.0,2.0;" width="8.6738" x="189.5188" y="489"/><text fill="#CAD3F5" font-family="Helvetica" font-size="12" font-style="italic" lengthAdjust="spacing" textLength="6.6738" x="190.5188" y="499.2402">L</text></g><!--class CompletableFutureMonad--><g id="elem_CompletableFutureMonad"><rect codeLine="11" fill="#24273A" height="30" id="CompletableFutureMonad" rx="1.5" ry="1.5" style="stroke:#C6A0F6;stroke-width:2.0;" width="214.9922" x="22" y="752"/><rect fill="#363A4F" height="30" rx="1.5" ry="1.5" style="stroke:#363A4F;stroke-width:2.0;" width="214.9922" x="22" y="752"/><rect fill="#363A4F" height="1.5" style="stroke:#363A4F;stroke-width:2.0;" width="214.9922" x="22" y="780.5"/><rect codeLine="11" fill="none" height="30" id="CompletableFutureMonad" rx="1.5" ry="1.5" style="stroke:#C6A0F6;stroke-width:2.0;" width="214.9922" x="22" y="752"/><ellipse cx="36" cy="767" fill="#ADD1B2" rx="10" ry="10" style="stroke:#181818;stroke-width:1.0;"/><path d="M37.834,771.248 Q37.4238,771.459 36.9727,771.5645 Q36.5215,771.6699 36.0234,771.6699 Q34.2539,771.6699 33.3223,770.5039 Q32.3906,769.3379 32.3906,767.1348 Q32.3906,764.9258 33.3223,763.7598 Q34.2539,762.5938 36.0234,762.5938 Q36.5215,762.5938 36.9785,762.6992 Q37.4355,762.8047 37.834,763.0156 L37.834,764.9375 Q37.3887,764.5273 36.9697,764.3369 Q36.5508,764.1465 36.1055,764.1465 Q35.1563,764.1465 34.6729,764.8994 Q34.1895,765.6523 34.1895,767.1348 Q34.1895,768.6113 34.6729,769.3643 Q35.1563,770.1172 36.1055,770.1172 Q36.5508,770.1172 36.9697,769.9268 Q37.3887,769.7363 37.834,769.3262 Z " fill="#CAD3F5"/><text fill="#A6DA95" font-family="Helvetica" font-size="16" lengthAdjust="spacing" textLength="184.9922" x="49" y="771.3203">CompletableFutureMonad</text></g><!--class TryMonad--><g id="elem_TryMonad"><rect codeLine="12" fill="#24273A" height="30" id="TryMonad" rx="1.5" ry="1.5" style="stroke:#C6A0F6;stroke-width:2.0;" width="102.0234" x="78.48" y="687"/><rect fill="#363A4F" height="30" rx="1.5" ry="1.5" style="stroke:#363A4F;stroke-width:2.0;" width="102.0234" x="78.48" y="687"/><rect fill="#363A4F" height="1.5" style="stroke:#363A4F;stroke-width:2.0;" width="102.0234" x="78.48" y="715.5"/><rect codeLine="12" fill="none" height="30" id="TryMonad" rx="1.5" ry="1.5" style="stroke:#C6A0F6;stroke-width:2.0;" width="102.0234" x="78.48" y="687"/><ellipse cx="92.48" cy="702" fill="#ADD1B2" rx="10" ry="10" style="stroke:#181818;stroke-width:1.0;"/><path d="M94.314,706.248 Q93.9038,706.459 93.4527,706.5645 Q93.0015,706.6699 92.5034,706.6699 Q90.7339,706.6699 89.8023,705.5039 Q88.8706,704.3379 88.8706,702.1348 Q88.8706,699.9258 89.8023,698.7598 Q90.7339,697.5938 92.5034,697.5938 Q93.0015,697.5938 93.4585,697.6992 Q93.9155,697.8047 94.314,698.0156 L94.314,699.9375 Q93.8687,699.5273 93.4497,699.3369 Q93.0308,699.1465 92.5855,699.1465 Q91.6363,699.1465 91.1529,699.8994 Q90.6695,700.6523 90.6695,702.1348 Q90.6695,703.6113 91.1529,704.3643 Q91.6363,705.1172 92.5855,705.1172 Q93.0308,705.1172 93.4497,704.9268 Q93.8687,704.7363 94.314,704.3262 Z " fill="#CAD3F5"/><text fill="#A6DA95" font-family="Helvetica" font-size="16" lengthAdjust="spacing" textLength="72.0234" x="105.48" y="706.3203">TryMonad</text></g><!--class IOMonad--><g id="elem_IOMonad"><rect codeLine="13" fill="#24273A" height="30" id="IOMonad" rx="1.5" ry="1.5" style="stroke:#C6A0F6;stroke-width:2.0;" width="95.8125" x="81.59" y="427"/><rect fill="#363A4F" height="30" rx="1.5" ry="1.5" style="stroke:#363A4F;stroke-width:2.0;" width="95.8125" x="81.59" y="427"/><rect fill="#363A4F" height="1.5" style="stroke:#363A4F;stroke-width:2.0;" width="95.8125" x="81.59" y="455.5"/><rect codeLine="13" fill="none" height="30" id="IOMonad" rx="1.5" ry="1.5" style="stroke:#C6A0F6;stroke-width:2.0;" width="95.8125" x="81.59" y="427"/><ellipse cx="95.59" cy="442" fill="#ADD1B2" rx="10" ry="10" style="stroke:#181818;stroke-width:1.0;"/><path d="M97.424,446.248 Q97.0138,446.459 96.5627,446.5645 Q96.1115,446.6699 95.6134,446.6699 Q93.8439,446.6699 92.9123,445.5039 Q91.9806,444.3379 91.9806,442.1348 Q91.9806,439.9258 92.9123,438.7598 Q93.8439,437.5938 95.6134,437.5938 Q96.1115,437.5938 96.5685,437.6992 Q97.0255,437.8047 97.424,438.0156 L97.424,439.9375 Q96.9787,439.5273 96.5597,439.3369 Q96.1408,439.1465 95.6955,439.1465 Q94.7463,439.1465 94.2629,439.8994 Q93.7795,440.6523 93.7795,442.1348 Q93.7795,443.6113 94.2629,444.3643 Q94.7463,445.1172 95.6955,445.1172 Q96.1408,445.1172 96.5597,444.9268 Q96.9787,444.7363 97.424,444.3262 Z " fill="#CAD3F5"/><text fill="#A6DA95" font-family="Helvetica" font-size="16" lengthAdjust="spacing" textLength="65.8125" x="108.59" y="446.3203">IOMonad</text></g><!--class LazyMonad--><g id="elem_LazyMonad"><rect codeLine="14" fill="#24273A" height="30" id="LazyMonad" rx="1.5" ry="1.5" style="stroke:#C6A0F6;stroke-width:2.0;" width="112.7188" x="73.14" y="362"/><rect fill="#363A4F" height="30" rx="1.5" ry="1.5" style="stroke:#363A4F;stroke-width:2.0;" width="112.7188" x="73.14" y="362"/><rect fill="#363A4F" height="1.5" style="stroke:#363A4F;stroke-width:2.0;" width="112.7188" x="73.14" y="390.5"/><rect codeLine="14" fill="none" height="30" id="LazyMonad" rx="1.5" ry="1.5" style="stroke:#C6A0F6;stroke-width:2.0;" width="112.7188" x="73.14" y="362"/><ellipse cx="87.14" cy="377" fill="#ADD1B2" rx="10" ry="10" style="stroke:#181818;stroke-width:1.0;"/><path d="M88.974,381.248 Q88.5638,381.459 88.1127,381.5645 Q87.6615,381.6699 87.1634,381.6699 Q85.3939,381.6699 84.4623,380.5039 Q83.5306,379.3379 83.5306,377.1348 Q83.5306,374.9258 84.4623,373.7598 Q85.3939,372.5938 87.1634,372.5938 Q87.6615,372.5938 88.1185,372.6992 Q88.5755,372.8047 88.974,373.0156 L88.974,374.9375 Q88.5287,374.5273 88.1097,374.3369 Q87.6908,374.1465 87.2455,374.1465 Q86.2963,374.1465 85.8129,374.8994 Q85.3295,375.6523 85.3295,377.1348 Q85.3295,378.6113 85.8129,379.3643 Q86.2963,380.1172 87.2455,380.1172 Q87.6908,380.1172 88.1097,379.9268 Q88.5287,379.7363 88.974,379.3262 Z " fill="#CAD3F5"/><text fill="#A6DA95" font-family="Helvetica" font-size="16" lengthAdjust="spacing" textLength="82.7188" x="100.14" y="381.3203">LazyMonad</text></g><!--class IdMonad--><g id="elem_IdMonad"><rect codeLine="15" fill="#24273A" height="30" id="IdMonad" rx="1.5" ry="1.5" style="stroke:#C6A0F6;stroke-width:2.0;" width="92.2656" x="83.36" y="297"/><rect fill="#363A4F" height="30" rx="1.5" ry="1.5" style="stroke:#363A4F;stroke-width:2.0;" width="92.2656" x="83.36" y="297"/><rect fill="#363A4F" height="1.5" style="stroke:#363A4F;stroke-width:2.0;" width="92.2656" x="83.36" y="325.5"/><rect codeLine="15" fill="none" height="30" id="IdMonad" rx="1.5" ry="1.5" style="stroke:#C6A0F6;stroke-width:2.0;" width="92.2656" x="83.36" y="297"/><ellipse cx="97.36" cy="312" fill="#ADD1B2" rx="10" ry="10" style="stroke:#181818;stroke-width:1.0;"/><path d="M99.194,316.248 Q98.7838,316.459 98.3327,316.5645 Q97.8815,316.6699 97.3834,316.6699 Q95.6139,316.6699 94.6823,315.5039 Q93.7506,314.3379 93.7506,312.1348 Q93.7506,309.9258 94.6823,308.7598 Q95.6139,307.5938 97.3834,307.5938 Q97.8815,307.5938 98.3385,307.6992 Q98.7955,307.8047 99.194,308.0156 L99.194,309.9375 Q98.7487,309.5273 98.3297,309.3369 Q97.9108,309.1465 97.4655,309.1465 Q96.5163,309.1465 96.0329,309.8994 Q95.5495,310.6523 95.5495,312.1348 Q95.5495,313.6113 96.0329,314.3643 Q96.5163,315.1172 97.4655,315.1172 Q97.9108,315.1172 98.3297,314.9268 Q98.7487,314.7363 99.194,314.3262 Z " fill="#CAD3F5"/><text fill="#A6DA95" font-family="Helvetica" font-size="16" lengthAdjust="spacing" textLength="62.2656" x="110.36" y="316.3203">IdMonad</text></g><!--class ReaderMonad--><g id="elem_ReaderMonad"><rect codeLine="16" fill="#24273A" height="30" id="ReaderMonad" rx="1.5" ry="1.5" style="stroke:#C6A0F6;stroke-width:2.0;" width="144.0645" x="57.46" y="232"/><rect fill="#363A4F" height="30" rx="1.5" ry="1.5" style="stroke:#363A4F;stroke-width:2.0;" width="144.0645" x="57.46" y="232"/><rect fill="#363A4F" height="1.5" style="stroke:#363A4F;stroke-width:2.0;" width="144.0645" x="57.46" y="260.5"/><rect codeLine="16" fill="none" height="30" id="ReaderMonad" rx="1.5" ry="1.5" style="stroke:#C6A0F6;stroke-width:2.0;" width="144.0645" x="57.46" y="232"/><ellipse cx="71.46" cy="247" fill="#ADD1B2" rx="10" ry="10" style="stroke:#181818;stroke-width:1.0;"/><path d="M73.294,251.248 Q72.8838,251.459 72.4327,251.5645 Q71.9815,251.6699 71.4834,251.6699 Q69.7139,251.6699 68.7823,250.5039 Q67.8506,249.3379 67.8506,247.1348 Q67.8506,244.9258 68.7823,243.7598 Q69.7139,242.5938 71.4834,242.5938 Q71.9815,242.5938 72.4385,242.6992 Q72.8955,242.8047 73.294,243.0156 L73.294,244.9375 Q72.8487,244.5273 72.4297,244.3369 Q72.0108,244.1465 71.5655,244.1465 Q70.6163,244.1465 70.1329,244.8994 Q69.6495,245.6523 69.6495,247.1348 Q69.6495,248.6113 70.1329,249.3643 Q70.6163,250.1172 71.5655,250.1172 Q72.0108,250.1172 72.4297,249.9268 Q72.8487,249.7363 73.294,249.3262 Z " fill="#CAD3F5"/><text fill="#A6DA95" font-family="Helvetica" font-size="16" lengthAdjust="spacing" textLength="101.3984" x="84.46" y="251.3203">ReaderMonad</text><rect fill="#24273A" height="14" style="stroke:#C6A0F6;stroke-width:1.0;stroke-dasharray:2.0,2.0;" width="10.666" x="193.8584" y="229"/><text fill="#CAD3F5" font-family="Helvetica" font-size="12" font-style="italic" lengthAdjust="spacing" textLength="8.666" x="194.8584" y="239.2402">R</text></g><!--class StateMonad--><g id="elem_StateMonad"><rect codeLine="17" fill="#24273A" height="30" id="StateMonad" rx="1.5" ry="1.5" style="stroke:#C6A0F6;stroke-width:2.0;" width="128.2852" x="65.35" y="167"/><rect fill="#363A4F" height="30" rx="1.5" ry="1.5" style="stroke:#363A4F;stroke-width:2.0;" width="128.2852" x="65.35" y="167"/><rect fill="#363A4F" height="1.5" style="stroke:#363A4F;stroke-width:2.0;" width="128.2852" x="65.35" y="195.5"/><rect codeLine="17" fill="none" height="30" id="StateMonad" rx="1.5" ry="1.5" style="stroke:#C6A0F6;stroke-width:2.0;" width="128.2852" x="65.35" y="167"/><ellipse cx="79.35" cy="182" fill="#ADD1B2" rx="10" ry="10" style="stroke:#181818;stroke-width:1.0;"/><path d="M81.184,186.248 Q80.7738,186.459 80.3227,186.5645 Q79.8715,186.6699 79.3734,186.6699 Q77.6039,186.6699 76.6723,185.5039 Q75.7406,184.3379 75.7406,182.1348 Q75.7406,179.9258 76.6723,178.7598 Q77.6039,177.5938 79.3734,177.5938 Q79.8715,177.5938 80.3285,177.6992 Q80.7855,177.8047 81.184,178.0156 L81.184,179.9375 Q80.7387,179.5273 80.3197,179.3369 Q79.9008,179.1465 79.4555,179.1465 Q78.5063,179.1465 78.0229,179.8994 Q77.5395,180.6523 77.5395,182.1348 Q77.5395,183.6113 78.0229,184.3643 Q78.5063,185.1172 79.4555,185.1172 Q79.9008,185.1172 80.3197,184.9268 Q80.7387,184.7363 81.184,184.3262 Z " fill="#CAD3F5"/><text fill="#A6DA95" font-family="Helvetica" font-size="16" lengthAdjust="spacing" textLength="86.2813" x="92.35" y="186.3203">StateMonad</text><rect fill="#24273A" height="14" style="stroke:#C6A0F6;stroke-width:1.0;stroke-dasharray:2.0,2.0;" width="10.0039" x="186.6313" y="164"/><text fill="#CAD3F5" font-family="Helvetica" font-size="12" font-style="italic" lengthAdjust="spacing" textLength="8.0039" x="187.6313" y="174.2402">S</text></g><!--class WriterMonad--><g id="elem_WriterMonad"><rect codeLine="18" fill="#24273A" height="30" id="WriterMonad" rx="1.5" ry="1.5" style="stroke:#C6A0F6;stroke-width:2.0;" width="136.9043" x="61.04" y="102"/><rect fill="#363A4F" height="30" rx="1.5" ry="1.5" style="stroke:#363A4F;stroke-width:2.0;" width="136.9043" x="61.04" y="102"/><rect fill="#363A4F" height="1.5" style="stroke:#363A4F;stroke-width:2.0;" width="136.9043" x="61.04" y="130.5"/><rect codeLine="18" fill="none" height="30" id="WriterMonad" rx="1.5" ry="1.5" style="stroke:#C6A0F6;stroke-width:2.0;" width="136.9043" x="61.04" y="102"/><ellipse cx="75.04" cy="117" fill="#ADD1B2" rx="10" ry="10" style="stroke:#181818;stroke-width:1.0;"/><path d="M76.874,121.248 Q76.4638,121.459 76.0127,121.5645 Q75.5615,121.6699 75.0634,121.6699 Q73.2939,121.6699 72.3623,120.5039 Q71.4306,119.3379 71.4306,117.1348 Q71.4306,114.9258 72.3623,113.7598 Q73.2939,112.5938 75.0634,112.5938 Q75.5615,112.5938 76.0185,112.6992 Q76.4755,112.8047 76.874,113.0156 L76.874,114.9375 Q76.4287,114.5273 76.0097,114.3369 Q75.5908,114.1465 75.1455,114.1465 Q74.1963,114.1465 73.7129,114.8994 Q73.2295,115.6523 73.2295,117.1348 Q73.2295,118.6113 73.7129,119.3643 Q74.1963,120.1172 75.1455,120.1172 Q75.5908,120.1172 76.0097,119.9268 Q76.4287,119.7363 76.874,119.3262 Z " fill="#CAD3F5"/><text fill="#A6DA95" font-family="Helvetica" font-size="16" lengthAdjust="spacing" textLength="91.5781" x="88.04" y="121.3203">WriterMonad</text><rect fill="#24273A" height="14" style="stroke:#C6A0F6;stroke-width:1.0;stroke-dasharray:2.0,2.0;" width="13.3262" x="187.6181" y="99"/><text fill="#CAD3F5" font-family="Helvetica" font-size="12" font-style="italic" lengthAdjust="spacing" textLength="11.3262" x="188.6181" y="109.2402">W</text></g><!--class ValidatedMonad--><g id="elem_ValidatedMonad"><rect codeLine="19" fill="#24273A" height="30" id="ValidatedMonad" rx="1.5" ry="1.5" style="stroke:#C6A0F6;stroke-width:2.0;" width="157.6445" x="50.67" y="622"/><rect fill="#363A4F" height="30" rx="1.5" ry="1.5" style="stroke:#363A4F;stroke-width:2.0;" width="157.6445" x="50.67" y="622"/><rect fill="#363A4F" height="1.5" style="stroke:#363A4F;stroke-width:2.0;" width="157.6445" x="50.67" y="650.5"/><rect codeLine="19" fill="none" height="30" id="ValidatedMonad" rx="1.5" ry="1.5" style="stroke:#C6A0F6;stroke-width:2.0;" width="157.6445" x="50.67" y="622"/><ellipse cx="64.67" cy="637" fill="#ADD1B2" rx="10" ry="10" style="stroke:#181818;stroke-width:1.0;"/><path d="M66.504,641.248 Q66.0938,641.459 65.6427,641.5645 Q65.1915,641.6699 64.6934,641.6699 Q62.9239,641.6699 61.9923,640.5039 Q61.0606,639.3379 61.0606,637.1348 Q61.0606,634.9258 61.9923,633.7598 Q62.9239,632.5938 64.6934,632.5938 Q65.1915,632.5938 65.6485,632.6992 Q66.1055,632.8047 66.504,633.0156 L66.504,634.9375 Q66.0587,634.5273 65.6397,634.3369 Q65.2208,634.1465 64.7755,634.1465 Q63.8263,634.1465 63.3429,634.8994 Q62.8595,635.6523 62.8595,637.1348 Q62.8595,638.6113 63.3429,639.3643 Q63.8263,640.1172 64.7755,640.1172 Q65.2208,640.1172 65.6397,639.9268 Q66.0587,639.7363 66.504,639.3262 Z " fill="#CAD3F5"/><text fill="#A6DA95" font-family="Helvetica" font-size="16" lengthAdjust="spacing" textLength="115.6406" x="77.67" y="641.3203">ValidatedMonad</text><rect fill="#24273A" height="14" style="stroke:#C6A0F6;stroke-width:1.0;stroke-dasharray:2.0,2.0;" width="10.0039" x="201.3106" y="619"/><text fill="#CAD3F5" font-family="Helvetica" font-size="12" font-style="italic" lengthAdjust="spacing" textLength="8.0039" x="202.3106" y="629.2402">E</text></g><!--class Monad--><g id="elem_Monad"><rect fill="#24273A" height="30" id="Monad" rx="1.5" ry="1.5" style="stroke:#C6A0F6;stroke-width:2.0;" width="78.9219" x="428.34" y="427"/><rect fill="#363A4F" height="30" rx="1.5" ry="1.5" style="stroke:#363A4F;stroke-width:2.0;" width="78.9219" x="428.34" y="427"/><rect fill="#363A4F" height="1.5" style="stroke:#363A4F;stroke-width:2.0;" width="78.9219" x="428.34" y="455.5"/><rect fill="none" height="30" id="Monad" rx="1.5" ry="1.5" style="stroke:#C6A0F6;stroke-width:2.0;" width="78.9219" x="428.34" y="427"/><ellipse cx="442.34" cy="442" fill="#ADD1B2" rx="10" ry="10" style="stroke:#181818;stroke-width:1.0;"/><path d="M444.174,446.248 Q443.7638,446.459 443.3127,446.5645 Q442.8615,446.6699 442.3634,446.6699 Q440.5939,446.6699 439.6623,445.5039 Q438.7306,444.3379 438.7306,442.1348 Q438.7306,439.9258 439.6623,438.7598 Q440.5939,437.5938 442.3634,437.5938 Q442.8615,437.5938 443.3185,437.6992 Q443.7755,437.8047 444.174,438.0156 L444.174,439.9375 Q443.7287,439.5273 443.3097,439.3369 Q442.8908,439.1465 442.4455,439.1465 Q441.4963,439.1465 441.0129,439.8994 Q440.5295,440.6523 440.5295,442.1348 Q440.5295,443.6113 441.0129,444.3643 Q441.4963,445.1172 442.4455,445.1172 Q442.8908,445.1172 443.3097,444.9268 Q443.7287,444.7363 444.174,444.3262 Z " fill="#CAD3F5"/><text fill="#A6DA95" font-family="Helvetica" font-size="16" lengthAdjust="spacing" textLength="48.9219" x="455.34" y="446.3203">Monad</text></g><!--class MonadError--><g id="elem_MonadError"><rect fill="#24273A" height="30" id="MonadError" rx="1.5" ry="1.5" style="stroke:#C6A0F6;stroke-width:2.0;" width="114.4766" x="410.56" y="492"/><rect fill="#363A4F" height="30" rx="1.5" ry="1.5" style="stroke:#363A4F;stroke-width:2.0;" width="114.4766" x="410.56" y="492"/><rect fill="#363A4F" height="1.5" style="stroke:#363A4F;stroke-width:2.0;" width="114.4766" x="410.56" y="520.5"/><rect fill="none" height="30" id="MonadError" rx="1.5" ry="1.5" style="stroke:#C6A0F6;stroke-width:2.0;" width="114.4766" x="410.56" y="492"/><ellipse cx="424.56" cy="507" fill="#ADD1B2" rx="10" ry="10" style="stroke:#181818;stroke-width:1.0;"/><path d="M426.394,511.248 Q425.9838,511.459 425.5327,511.5645 Q425.0815,511.6699 424.5834,511.6699 Q422.8139,511.6699 421.8823,510.5039 Q420.9506,509.3379 420.9506,507.1348 Q420.9506,504.9258 421.8823,503.7598 Q422.8139,502.5938 424.5834,502.5938 Q425.0815,502.5938 425.5385,502.6992 Q425.9955,502.8047 426.394,503.0156 L426.394,504.9375 Q425.9487,504.5273 425.5297,504.3369 Q425.1108,504.1465 424.6655,504.1465 Q423.7163,504.1465 423.2329,504.8994 Q422.7495,505.6523 422.7495,507.1348 Q422.7495,508.6113 423.2329,509.3643 Q423.7163,510.1172 424.6655,510.1172 Q425.1108,510.1172 425.5297,509.9268 Q425.9487,509.7363 426.394,509.3262 Z " fill="#CAD3F5"/><text fill="#A6DA95" font-family="Helvetica" font-size="16" lengthAdjust="spacing" textLength="84.4766" x="437.56" y="511.3203">MonadError</text></g><!--class OptionalKind--><g id="elem_OptionalKind"><rect fill="#24273A" height="30" id="OptionalKind" rx="1.5" ry="1.5" style="stroke:#C6A0F6;stroke-width:2.0;" width="121.6172" x="406.99" y="793"/><rect fill="#363A4F" height="30" rx="1.5" ry="1.5" style="stroke:#363A4F;stroke-width:2.0;" width="121.6172" x="406.99" y="793"/><rect fill="#363A4F" height="1.5" style="stroke:#363A4F;stroke-width:2.0;" width="121.6172" x="406.99" y="821.5"/><rect fill="none" height="30" id="OptionalKind" rx="1.5" ry="1.5" style="stroke:#C6A0F6;stroke-width:2.0;" width="121.6172" x="406.99" y="793"/><ellipse cx="420.99" cy="808" fill="#ADD1B2" rx="10" ry="10" style="stroke:#181818;stroke-width:1.0;"/><path d="M422.824,812.248 Q422.4138,812.459 421.9627,812.5645 Q421.5115,812.6699 421.0134,812.6699 Q419.2439,812.6699 418.3123,811.5039 Q417.3806,810.3379 417.3806,808.1348 Q417.3806,805.9258 418.3123,804.7598 Q419.2439,803.5938 421.0134,803.5938 Q421.5115,803.5938 421.9685,803.6992 Q422.4255,803.8047 422.824,804.0156 L422.824,805.9375 Q422.3787,805.5273 421.9597,805.3369 Q421.5408,805.1465 421.0955,805.1465 Q420.1463,805.1465 419.6629,805.8994 Q419.1795,806.6523 419.1795,808.1348 Q419.1795,809.6113 419.6629,810.3643 Q420.1463,811.1172 421.0955,811.1172 Q421.5408,811.1172 421.9597,810.9268 Q422.3787,810.7363 422.824,810.3262 Z " fill="#CAD3F5"/><text fill="#A6DA95" font-family="Helvetica" font-size="16" lengthAdjust="spacing" textLength="91.6172" x="433.99" y="812.3203">OptionalKind</text></g><!--reverse link ListMonad to Monad--><g id="link_ListMonad_Monad"><path codeLine="21" d="M199.0129,67.2266 C217.1929,72.1966 219.99,74.45 236.99,84 C308.88,124.39 328,140.24 374.99,208 C425.97,281.51 454.18,387.34 463.39,426.59 " fill="none" id="ListMonad-backto-Monad" style="stroke:#F5BDE6;stroke-width:1.0;stroke-dasharray:7.0,7.0;"/><polygon fill="none" points="181.65,62.48,197.4307,73.0142,200.5951,61.439,181.65,62.48" style="stroke:#F5BDE6;stroke-width:1.0;"/></g><!--reverse link OptionalMonad to MonadError--><g id="link_OptionalMonad_MonadError"><path codeLine="22" d="M216.3099,811.5788 C271.1199,795.8288 328.9,771.09 374.99,719 C429.08,657.87 455.19,559.96 463.63,522.38 " fill="none" id="OptionalMonad-backto-MonadError" style="stroke:#F5BDE6;stroke-width:1.0;stroke-dasharray:7.0,7.0;"/><polygon fill="none" points="199.01,816.55,217.967,817.3454,214.6528,805.8121,199.01,816.55" style="stroke:#F5BDE6;stroke-width:1.0;"/></g><!--reverse link MaybeMonad to MonadError--><g id="link_MaybeMonad_MonadError"><path codeLine="23" d="M211.0331,556.4352 C273.2931,544.4052 350.11,529.55 410.12,517.95 " fill="none" id="MaybeMonad-backto-MonadError" style="stroke:#F5BDE6;stroke-width:1.0;stroke-dasharray:7.0,7.0;"/><polygon fill="none" points="193.36,559.85,212.1714,562.3262,209.8948,550.5441,193.36,559.85" style="stroke:#F5BDE6;stroke-width:1.0;"/></g><!--reverse link EitherMonad to MonadError--><g id="link_EitherMonad_MonadError"><path codeLine="24" d="M213.34,507 C275.66,507 350.89,507 410.26,507 " fill="none" id="EitherMonad-backto-MonadError" style="stroke:#F5BDE6;stroke-width:1.0;stroke-dasharray:7.0,7.0;"/><polygon fill="none" points="195.34,507,213.34,513,213.34,501,195.34,507" style="stroke:#F5BDE6;stroke-width:1.0;"/></g><!--reverse link CompletableFutureMonad to MonadError--><g id="link_CompletableFutureMonad_MonadError"><path codeLine="25" d="M210.2382,746.2676 C224.9682,741.7176 223.19,741.5 236.99,735 C251.49,728.18 252.92,722.67 266.99,715 C312.95,689.94 336.04,702.97 374.99,668 C421.92,625.87 450.81,553.88 461.77,522.44 " fill="none" id="CompletableFutureMonad-backto-MonadError" style="stroke:#F5BDE6;stroke-width:1.0;stroke-dasharray:7.0,7.0;"/><polygon fill="none" points="193.04,751.58,212.009,752.0003,208.4674,740.5349,193.04,751.58" style="stroke:#F5BDE6;stroke-width:1.0;"/></g><!--reverse link TryMonad to MonadError--><g id="link_TryMonad_MonadError"><path codeLine="26" d="M198.2009,684.1922 C250.3009,669.2322 314.97,645.78 374.99,602 C407.42,578.35 438.42,542.64 454.78,522.41 " fill="none" id="TryMonad-backto-MonadError" style="stroke:#F5BDE6;stroke-width:1.0;stroke-dasharray:7.0,7.0;"/><polygon fill="none" points="180.9,689.16,199.8568,689.9592,196.545,678.4253,180.9,689.16" style="stroke:#F5BDE6;stroke-width:1.0;"/></g><!--reverse link ValidatedMonad to MonadError--><g id="link_ValidatedMonad_MonadError"><path codeLine="27" d="M201.8779,616.3712 C218.7279,611.3412 220.08,610.72 236.99,605 C299.08,584 314.94,579.27 374.99,553 C396.39,543.64 419.93,531.81 437.81,522.5 " fill="none" id="ValidatedMonad-backto-MonadError" style="stroke:#F5BDE6;stroke-width:1.0;stroke-dasharray:7.0,7.0;"/><polygon fill="none" points="184.63,621.52,203.5942,622.1205,200.1616,610.6219,184.63,621.52" style="stroke:#F5BDE6;stroke-width:1.0;"/></g><!--reverse link IdMonad to Monad--><g id="link_IdMonad_Monad"><path codeLine="28" d="M193.2267,329.467 C212.2467,334.987 217.21,336.83 236.99,344 C308.36,369.85 389.54,406.15 433.77,426.54 " fill="none" id="IdMonad-backto-Monad" style="stroke:#F5BDE6;stroke-width:1.0;stroke-dasharray:7.0,7.0;"/><polygon fill="none" points="175.94,324.45,191.5544,335.2292,194.899,323.7047,175.94,324.45" style="stroke:#F5BDE6;stroke-width:1.0;"/></g><!--reverse link IOMonad to Monad--><g id="link_IOMonad_Monad"><path codeLine="29" d="M195.61,442 C262.5,442 365.74,442 427.84,442 " fill="none" id="IOMonad-backto-Monad" style="stroke:#F5BDE6;stroke-width:1.0;stroke-dasharray:7.0,7.0;"/><polygon fill="none" points="177.61,442,195.61,448,195.61,436,177.61,442" style="stroke:#F5BDE6;stroke-width:1.0;"/></g><!--reverse link LazyMonad to Monad--><g id="link_LazyMonad_Monad"><path codeLine="30" d="M203.7028,391.1465 C271.9828,404.3465 368.45,422.99 427.99,434.5 " fill="none" id="LazyMonad-backto-Monad" style="stroke:#F5BDE6;stroke-width:1.0;stroke-dasharray:7.0,7.0;"/><polygon fill="none" points="186.03,387.73,202.5639,397.0375,204.8416,385.2556,186.03,387.73" style="stroke:#F5BDE6;stroke-width:1.0;"/></g><!--reverse link ReaderMonad to Monad--><g id="link_ReaderMonad_Monad"><path codeLine="31" d="M209.914,267.7335 C224.734,272.2935 223.07,272.53 236.99,279 C324.61,319.7 413.81,394.62 450.01,426.73 " fill="none" id="ReaderMonad-backto-Monad" style="stroke:#F5BDE6;stroke-width:1.0;stroke-dasharray:7.0,7.0;"/><polygon fill="none" points="192.71,262.44,208.1495,273.4682,211.6785,261.9989,192.71,262.44" style="stroke:#F5BDE6;stroke-width:1.0;"/></g><!--reverse link StateMonad to Monad--><g id="link_StateMonad_Monad"><path codeLine="32" d="M211.1229,202.2616 C225.6729,206.8016 223.61,207.1 236.99,214 C305.98,249.54 320.4,265.84 374.99,321 C409.12,355.49 441.62,402.91 457.2,426.85 " fill="none" id="StateMonad-backto-Monad" style="stroke:#F5BDE6;stroke-width:1.0;stroke-dasharray:7.0,7.0;"/><polygon fill="none" points="193.94,196.9,209.3358,207.9892,212.9101,196.5339,193.94,196.9" style="stroke:#F5BDE6;stroke-width:1.0;"/></g><!--reverse link WriterMonad to Monad--><g id="link_WriterMonad_Monad"><path codeLine="33" d="M214.3924,137.9719 C227.9624,142.3719 224.71,142.29 236.99,149 C307.82,187.67 324.67,203.91 374.99,267 C417.14,319.84 448.79,394.99 461.13,426.82 " fill="none" id="WriterMonad-backto-Monad" style="stroke:#F5BDE6;stroke-width:1.0;stroke-dasharray:7.0,7.0;"/><polygon fill="none" points="197.27,132.42,212.5418,143.6793,216.243,132.2644,197.27,132.42" style="stroke:#F5BDE6;stroke-width:1.0;"/></g><!--link OptionalMonad to OptionalKind--><g id="link_OptionalMonad_OptionalKind"><path codeLine="36" d="M198.96,827.11 C259.93,822.76 342.2952,816.8868 400.6252,812.7268 " fill="none" id="OptionalMonad-to-OptionalKind" style="stroke:#F5BDE6;stroke-width:1.0;stroke-dasharray:7.0,7.0;"/><polygon fill="#F5BDE6" points="406.61,812.3,397.3483,808.9504,401.6227,812.6557,397.9174,816.9301,406.61,812.3" style="stroke:#F5BDE6;stroke-width:1.0;"/><text fill="#CAD3F5" font-family="Helvetica" font-size="12" lengthAdjust="spacing" textLength="106.7285" x="267.99" y="811.3302">operates on witness</text></g><!--SRC=[ZPDBRzim48Jl_1LRNTeUBDq38vV21OmuI107pNbDhIsYV85S8dKV_xsq5DkqdTRIIHXyknhCZZueAtLg2Jfc7s-Q9k1hlL7SfLMA5AIpJ9PhwKnZfOkC4oKRYUnzabBPYK4fEuNi9bwZvMJqX3ior1XKjkbVQvzLqQdy4JAUjs38h2X48JIj6TX1K9kEeLM192jdXV0el-E6e5ecxrrWQk5vwod2ftjdiOMvyJfljemxFdwku9U0_4YDCS92HUwvGdlmEnBrkNwFsnMTYzKi1q2XbwUBsmemGY4Lv1UtSyAuqlGrSGeNgvx3zboQFvmh2_nvIRKNhfu8sxshfy5L8PNaCWSpM9ak1_2ebDnBKBpV-3A0XLIItr2hDgyON4rd0togYdxWa3vCVzTrJYZGF9Seh55Ih8-BJoxoRtOMWWlzmF5KO-ZYNcFmzmyvPd9_uJ7iQLvZ9kRjc2pVAdM5EjJi2bUKwWfvRDKLi6ZLVyWU_GYp7xWx1WJI_VyDQnSETNcdEtLzcoklJ7h37tKoAsKtzHwxKxQju0QSfv0DHyZGgs9BCOe_GeY_]--></g></svg>