<svg xmlns="http://www.w3.org/2000/svg" xmlns:xlink="http://www.w3.org/1999/xlink" contentStyleType="text/css" height="1127px" preserveAspectRatio="none" style="width:855px;height:1126px;background:#24273A;" version="1.1" viewBox="0 0 855 1126" width="855.4px" zoomAndPan="magnify"><defs/><g><rect fill="#24273A" height="1127" style="stroke:none;stroke-width:1.3999999999999997;" width="855.4" x="0" y="0"/><!--cluster Supported Types (Monad Implementations)--><g id="cluster_Supported Types (Monad Implementations)"><path d="M10.5,8.4 L360.0516,8.4 A3.15,3.15 0 0 1 362.1516,10.5 L371.9516,33.6 L843.724,33.6 A2.1,2.1 0 0 1 845.824,35.7 L845.824,1115.1 A2.1,2.1 0 0 1 843.724,1117.2 L10.5,1117.2 A2.1,2.1 0 0 1 8.4,1115.1 L8.4,10.5 A2.1,2.1 0 0 1 10.5,8.4 " fill="#24273A" style="stroke:#CAD3F5;stroke-width:2.0999999999999996;"/><line style="stroke:#CAD3F5;stroke-width:2.0999999999999996;" x1="8.4" x2="371.9516" y1="33.6" y2="33.6"/><text fill="#CAD3F5" font-family="Helvetica" font-size="16.8" font-weight="bold" lengthAdjust="spacing" textLength="345.3516" x="14" y="24.1363">Supported Types (Monad Implementations)</text></g><!--cluster CoreInterfaces--><g id="cluster_CoreInterfaces"><path d="M604.268,509.6 L726.1172,509.6 A3.15,3.15 0 0 1 728.2172,511.7 L738.0172,534.8 L805.126,534.8 A2.1,2.1 0 0 1 807.226,536.9 L807.226,706.3 A2.1,2.1 0 0 1 805.126,708.4 L604.268,708.4 A2.1,2.1 0 0 1 602.168,706.3 L602.168,511.7 A2.1,2.1 0 0 1 604.268,509.6 " fill="#24273A" style="stroke:#CAD3F5;stroke-width:2.0999999999999996;"/><line style="stroke:#CAD3F5;stroke-width:2.0999999999999996;" x1="602.168" x2="738.0172" y1="534.8" y2="534.8"/><text fill="#CAD3F5" font-family="Helvetica" font-size="16.8" font-weight="bold" lengthAdjust="spacing" textLength="117.6492" x="607.768" y="525.3363">CoreInterfaces</text></g><!--cluster Simulation Plumbing--><g id="cluster_Simulation Plumbing"><path d="M599.27,975.8 L770.5348,975.8 A3.15,3.15 0 0 1 772.6348,977.9 L782.4348,1001 L810.124,1001 A2.1,2.1 0 0 1 812.224,1003.1 L812.224,1081.5 A2.1,2.1 0 0 1 810.124,1083.6 L599.27,1083.6 A2.1,2.1 0 0 1 597.17,1081.5 L597.17,977.9 A2.1,2.1 0 0 1 599.27,975.8 " fill="#24273A" style="stroke:#CAD3F5;stroke-width:2.0999999999999996;"/><line style="stroke:#CAD3F5;stroke-width:2.0999999999999996;" x1="597.17" x2="782.4348" y1="1001" y2="1001"/><text fill="#CAD3F5" font-family="Helvetica" font-size="16.8" font-weight="bold" lengthAdjust="spacing" textLength="167.0648" x="602.77" y="991.5363">Simulation Plumbing</text></g><!--class ListMonad--><g id="elem_ListMonad"><rect codeLine="7" fill="#24273A" height="42" id="ListMonad" rx="2.1" ry="2.1" style="stroke:#C6A0F6;stroke-width:2.7999999999999994;" width="145.3484" x="133.504" y="51.8"/><rect fill="#363A4F" height="42" rx="2.1" ry="2.1" style="stroke:#363A4F;stroke-width:2.7999999999999994;" width="145.3484" x="133.504" y="51.8"/><rect fill="#363A4F" height="2.1" style="stroke:#363A4F;stroke-width:2.7999999999999994;" width="145.3484" x="133.504" y="91.7"/><rect codeLine="7" fill="none" height="42" id="ListMonad" rx="2.1" ry="2.1" style="stroke:#C6A0F6;stroke-width:2.7999999999999994;" width="145.3484" x="133.504" y="51.8"/><ellipse cx="153.104" cy="72.8" fill="#ADD1B2" rx="14" ry="14" style="stroke:#181818;stroke-width:1.3999999999999997;"/><path d="M155.6716,78.7473 Q155.0974,79.0426 154.4657,79.1902 Q153.8341,79.3379 153.1368,79.3379 Q150.6595,79.3379 149.3552,77.7055 Q148.0509,76.073 148.0509,72.9887 Q148.0509,69.8961 149.3552,68.2637 Q150.6595,66.6312 153.1368,66.6312 Q153.8341,66.6312 154.4739,66.7789 Q155.1138,66.9266 155.6716,67.2219 L155.6716,69.9125 Q155.0481,69.3383 154.4616,69.0717 Q153.8751,68.8051 153.2517,68.8051 Q151.9227,68.8051 151.246,69.8592 Q150.5692,70.9133 150.5692,72.9887 Q150.5692,75.0559 151.246,76.11 Q151.9227,77.1641 153.2517,77.1641 Q153.8751,77.1641 154.4616,76.8975 Q155.0481,76.6309 155.6716,76.0566 Z " fill="#CAD3F5"/><text fill="#A6DA95" font-family="Helvetica" font-size="22.4" lengthAdjust="spacing" textLength="103.3484" x="171.304" y="78.8484">ListMonad</text></g><!--class OptionalMonad--><g id="elem_OptionalMonad"><rect codeLine="8" fill="#24273A" height="42" id="OptionalMonad" rx="2.1" ry="2.1" style="stroke:#C6A0F6;stroke-width:2.7999999999999994;" width="193.9219" x="109.228" y="1052.8"/><rect fill="#363A4F" height="42" rx="2.1" ry="2.1" style="stroke:#363A4F;stroke-width:2.7999999999999994;" width="193.9219" x="109.228" y="1052.8"/><rect fill="#363A4F" height="2.1" style="stroke:#363A4F;stroke-width:2.7999999999999994;" width="193.9219" x="109.228" y="1092.7"/><rect codeLine="8" fill="none" height="42" id="OptionalMonad" rx="2.1" ry="2.1" style="stroke:#C6A0F6;stroke-width:2.7999999999999994;" width="193.9219" x="109.228" y="1052.8"/><ellipse cx="128.828" cy="1073.8" fill="#ADD1B2" rx="14" ry="14" style="stroke:#181818;stroke-width:1.3999999999999997;"/><path d="M131.3956,1079.7473 Q130.8214,1080.0426 130.1897,1080.1902 Q129.5581,1080.3379 128.8608,1080.3379 Q126.3835,1080.3379 125.0792,1078.7055 Q123.7749,1077.073 123.7749,1073.9887 Q123.7749,1070.8961 125.0792,1069.2637 Q126.3835,1067.6312 128.8608,1067.6312 Q129.5581,1067.6312 130.1979,1067.7789 Q130.8378,1067.9266 131.3956,1068.2219 L131.3956,1070.9125 Q130.7721,1070.3383 130.1856,1070.0717 Q129.5991,1069.8051 128.9757,1069.8051 Q127.6467,1069.8051 126.97,1070.8592 Q126.2932,1071.9133 126.2932,1073.9887 Q126.2932,1076.0559 126.97,1077.11 Q127.6467,1078.1641 128.9757,1078.1641 Q129.5991,1078.1641 130.1856,1077.8975 Q130.7721,1077.6309 131.3956,1077.0566 Z " fill="#CAD3F5"/><text fill="#A6DA95" font-family="Helvetica" font-size="22.4" lengthAdjust="spacing" textLength="151.9219" x="147.028" y="1079.8484">OptionalMonad</text></g><!--class MaybeMonad--><g id="elem_MaybeMonad"><rect codeLine="9" fill="#24273A" height="42" id="MaybeMonad" rx="2.1" ry="2.1" style="stroke:#C6A0F6;stroke-width:2.7999999999999994;" width="177.7234" x="117.32" y="961.8"/><rect fill="#363A4F" height="42" rx="2.1" ry="2.1" style="stroke:#363A4F;stroke-width:2.7999999999999994;" width="177.7234" x="117.32" y="961.8"/><rect fill="#363A4F" height="2.1" style="stroke:#363A4F;stroke-width:2.7999999999999994;" width="177.7234" x="117.32" y="1001.7"/><rect codeLine="9" fill="none" height="42" id="MaybeMonad" rx="2.1" ry="2.1" style="stroke:#C6A0F6;stroke-width:2.7999999999999994;" width="177.7234" x="117.32" y="961.8"/><ellipse cx="136.92" cy="982.8" fill="#ADD1B2" rx="14" ry="14" style="stroke:#181818;stroke-width:1.3999999999999997;"/><path d="M139.4876,988.7473 Q138.9134,989.0426 138.2817,989.1902 Q137.6501,989.3379 136.9528,989.3379 Q134.4755,989.3379 133.1712,987.7055 Q131.8669,986.073 131.8669,982.9887 Q131.8669,979.8961 133.1712,978.2637 Q134.4755,976.6312 136.9528,976.6312 Q137.6501,976.6312 138.2899,976.7789 Q138.9298,976.9266 139.4876,977.2219 L139.4876,979.9125 Q138.8641,979.3383 138.2776,979.0717 Q137.6911,978.8051 137.0677,978.8051 Q135.7387,978.8051 135.062,979.8592 Q134.3852,980.9133 134.3852,982.9887 Q134.3852,985.0559 135.062,986.11 Q135.7387,987.1641 137.0677,987.1641 Q137.6911,987.1641 138.2776,986.8975 Q138.8641,986.6309 139.4876,986.0566 Z " fill="#CAD3F5"/><text fill="#A6DA95" font-family="Helvetica" font-size="22.4" lengthAdjust="spacing" textLength="135.7234" x="155.12" y="988.8484">MaybeMonad</text></g><!--class EitherMonad--><g id="elem_EitherMonad"><rect codeLine="10" fill="#24273A" height="42" id="EitherMonad" rx="2.1" ry="2.1" style="stroke:#C6A0F6;stroke-width:2.7999999999999994;" width="183.9496" x="114.212" y="870.8"/><rect fill="#363A4F" height="42" rx="2.1" ry="2.1" style="stroke:#363A4F;stroke-width:2.7999999999999994;" width="183.9496" x="114.212" y="870.8"/><rect fill="#363A4F" height="2.1" style="stroke:#363A4F;stroke-width:2.7999999999999994;" width="183.9496" x="114.212" y="910.7"/><rect codeLine="10" fill="none" height="42" id="EitherMonad" rx="2.1" ry="2.1" style="stroke:#C6A0F6;stroke-width:2.7999999999999994;" width="183.9496" x="114.212" y="870.8"/><ellipse cx="133.812" cy="891.8" fill="#ADD1B2" rx="14" ry="14" style="stroke:#181818;stroke-width:1.3999999999999997;"/><path d="M136.3796,897.7473 Q135.8054,898.0426 135.1737,898.1902 Q134.5421,898.3379 133.8448,898.3379 Q131.3675,898.3379 130.0632,896.7055 Q128.7589,895.073 128.7589,891.9887 Q128.7589,888.8961 130.0632,887.2637 Q131.3675,885.6312 133.8448,885.6312 Q134.5421,885.6312 135.1819,885.7789 Q135.8218,885.9266 136.3796,886.2219 L136.3796,888.9125 Q135.7561,888.3383 135.1696,888.0717 Q134.5831,887.8051 133.9597,887.8051 Q132.6307,887.8051 131.954,888.8592 Q131.2772,889.9133 131.2772,891.9887 Q131.2772,894.0559 131.954,895.11 Q132.6307,896.1641 133.9597,896.1641 Q134.5831,896.1641 135.1696,895.8975 Q135.7561,895.6309 136.3796,895.0566 Z " fill="#CAD3F5"/><text fill="#A6DA95" font-family="Helvetica" font-size="22.4" lengthAdjust="spacing" textLength="127.0062" x="152.012" y="897.8484">EitherMonad</text><rect fill="#24273A" height="19.6" style="stroke:#C6A0F6;stroke-width:1.3999999999999997;stroke-dasharray:2.0,2.0;" width="12.1434" x="290.2182" y="866.6"/><text fill="#CAD3F5" font-family="Helvetica" font-size="16.8" font-style="italic" lengthAdjust="spacing" textLength="9.3434" x="291.6182" y="880.9363">L</text></g><!--class CompletableFutureMonadError--><g id="elem_CompletableFutureMonadError"><rect codeLine="11" fill="#24273A" height="42" id="CompletableFutureMonadError" rx="2.1" ry="2.1" style="stroke:#C6A0F6;stroke-width:2.7999999999999994;" width="350.7656" x="30.8" y="779.8"/><rect fill="#363A4F" height="42" rx="2.1" ry="2.1" style="stroke:#363A4F;stroke-width:2.7999999999999994;" width="350.7656" x="30.8" y="779.8"/><rect fill="#363A4F" height="2.1" style="stroke:#363A4F;stroke-width:2.7999999999999994;" width="350.7656" x="30.8" y="819.7"/><rect codeLine="11" fill="none" height="42" id="CompletableFutureMonadError" rx="2.1" ry="2.1" style="stroke:#C6A0F6;stroke-width:2.7999999999999994;" width="350.7656" x="30.8" y="779.8"/><ellipse cx="50.4" cy="800.8" fill="#ADD1B2" rx="14" ry="14" style="stroke:#181818;stroke-width:1.3999999999999997;"/><path d="M52.9676,806.7473 Q52.3934,807.0426 51.7617,807.1902 Q51.1301,807.3379 50.4328,807.3379 Q47.9555,807.3379 46.6512,805.7055 Q45.3469,804.073 45.3469,800.9887 Q45.3469,797.8961 46.6512,796.2637 Q47.9555,794.6312 50.4328,794.6312 Q51.1301,794.6312 51.7699,794.7789 Q52.4098,794.9266 52.9676,795.2219 L52.9676,797.9125 Q52.3441,797.3383 51.7576,797.0717 Q51.1711,796.8051 50.5477,796.8051 Q49.2187,796.8051 48.542,797.8592 Q47.8652,798.9133 47.8652,800.9887 Q47.8652,803.0559 48.542,804.11 Q49.2187,805.1641 50.5477,805.1641 Q51.1711,805.1641 51.7576,804.8975 Q52.3441,804.6309 52.9676,804.0566 Z " fill="#CAD3F5"/><text fill="#A6DA95" font-family="Helvetica" font-size="22.4" lengthAdjust="spacing" textLength="308.7656" x="68.6" y="806.8484">CompletableFutureMonadError</text></g><!--class TryMonadError--><g id="elem_TryMonadError"><rect codeLine="12" fill="#24273A" height="42" id="TryMonadError" rx="2.1" ry="2.1" style="stroke:#C6A0F6;stroke-width:2.7999999999999994;" width="192.6094" x="109.872" y="688.8"/><rect fill="#363A4F" height="42" rx="2.1" ry="2.1" style="stroke:#363A4F;stroke-width:2.7999999999999994;" width="192.6094" x="109.872" y="688.8"/><rect fill="#363A4F" height="2.1" style="stroke:#363A4F;stroke-width:2.7999999999999994;" width="192.6094" x="109.872" y="728.7"/><rect codeLine="12" fill="none" height="42" id="TryMonadError" rx="2.1" ry="2.1" style="stroke:#C6A0F6;stroke-width:2.7999999999999994;" width="192.6094" x="109.872" y="688.8"/><ellipse cx="129.472" cy="709.8" fill="#ADD1B2" rx="14" ry="14" style="stroke:#181818;stroke-width:1.3999999999999997;"/><path d="M132.0396,715.7473 Q131.4654,716.0426 130.8337,716.1902 Q130.2021,716.3379 129.5048,716.3379 Q127.0275,716.3379 125.7232,714.7055 Q124.4189,713.073 124.4189,709.9887 Q124.4189,706.8961 125.7232,705.2637 Q127.0275,703.6312 129.5048,703.6312 Q130.2021,703.6312 130.8419,703.7789 Q131.4818,703.9266 132.0396,704.2219 L132.0396,706.9125 Q131.4161,706.3383 130.8296,706.0717 Q130.2431,705.8051 129.6197,705.8051 Q128.2907,705.8051 127.614,706.8592 Q126.9372,707.9133 126.9372,709.9887 Q126.9372,712.0559 127.614,713.11 Q128.2907,714.1641 129.6197,714.1641 Q130.2431,714.1641 130.8296,713.8975 Q131.4161,713.6309 132.0396,713.0566 Z " fill="#CAD3F5"/><text fill="#A6DA95" font-family="Helvetica" font-size="22.4" lengthAdjust="spacing" textLength="150.6094" x="147.672" y="715.8484">TryMonadError</text></g><!--class IOMonad--><g id="elem_IOMonad"><rect codeLine="13" fill="#24273A" height="42" id="IOMonad" rx="2.1" ry="2.1" style="stroke:#C6A0F6;stroke-width:2.7999999999999994;" width="134.1375" x="139.118" y="597.8"/><rect fill="#363A4F" height="42" rx="2.1" ry="2.1" style="stroke:#363A4F;stroke-width:2.7999999999999994;" width="134.1375" x="139.118" y="597.8"/><rect fill="#363A4F" height="2.1" style="stroke:#363A4F;stroke-width:2.7999999999999994;" width="134.1375" x="139.118" y="637.7"/><rect codeLine="13" fill="none" height="42" id="IOMonad" rx="2.1" ry="2.1" style="stroke:#C6A0F6;stroke-width:2.7999999999999994;" width="134.1375" x="139.118" y="597.8"/><ellipse cx="158.718" cy="618.8" fill="#ADD1B2" rx="14" ry="14" style="stroke:#181818;stroke-width:1.3999999999999997;"/><path d="M161.2856,624.7473 Q160.7114,625.0426 160.0797,625.1902 Q159.4481,625.3379 158.7508,625.3379 Q156.2735,625.3379 154.9692,623.7055 Q153.6649,622.073 153.6649,618.9887 Q153.6649,615.8961 154.9692,614.2637 Q156.2735,612.6312 158.7508,612.6312 Q159.4481,612.6312 160.0879,612.7789 Q160.7278,612.9266 161.2856,613.2219 L161.2856,615.9125 Q160.6621,615.3383 160.0756,615.0717 Q159.4891,614.8051 158.8657,614.8051 Q157.5367,614.8051 156.86,615.8592 Q156.1832,616.9133 156.1832,618.9887 Q156.1832,621.0559 156.86,622.11 Q157.5367,623.1641 158.8657,623.1641 Q159.4891,623.1641 160.0756,622.8975 Q160.6621,622.6309 161.2856,622.0566 Z " fill="#CAD3F5"/><text fill="#A6DA95" font-family="Helvetica" font-size="22.4" lengthAdjust="spacing" textLength="92.1375" x="176.918" y="624.8484">IOMonad</text></g><!--class LazyMonad--><g id="elem_LazyMonad"><rect codeLine="14" fill="#24273A" height="42" id="LazyMonad" rx="2.1" ry="2.1" style="stroke:#C6A0F6;stroke-width:2.7999999999999994;" width="157.8062" x="127.274" y="506.8"/><rect fill="#363A4F" height="42" rx="2.1" ry="2.1" style="stroke:#363A4F;stroke-width:2.7999999999999994;" width="157.8062" x="127.274" y="506.8"/><rect fill="#363A4F" height="2.1" style="stroke:#363A4F;stroke-width:2.7999999999999994;" width="157.8062" x="127.274" y="546.7"/><rect codeLine="14" fill="none" height="42" id="LazyMonad" rx="2.1" ry="2.1" style="stroke:#C6A0F6;stroke-width:2.7999999999999994;" width="157.8062" x="127.274" y="506.8"/><ellipse cx="146.874" cy="527.8" fill="#ADD1B2" rx="14" ry="14" style="stroke:#181818;stroke-width:1.3999999999999997;"/><path d="M149.4416,533.7473 Q148.8674,534.0426 148.2357,534.1902 Q147.6041,534.3379 146.9068,534.3379 Q144.4295,534.3379 143.1252,532.7055 Q141.8209,531.073 141.8209,527.9887 Q141.8209,524.8961 143.1252,523.2637 Q144.4295,521.6312 146.9068,521.6312 Q147.6041,521.6312 148.2439,521.7789 Q148.8838,521.9266 149.4416,522.2219 L149.4416,524.9125 Q148.8181,524.3383 148.2316,524.0717 Q147.6451,523.8051 147.0217,523.8051 Q145.6927,523.8051 145.016,524.8592 Q144.3392,525.9133 144.3392,527.9887 Q144.3392,530.0559 145.016,531.11 Q145.6927,532.1641 147.0217,532.1641 Q147.6451,532.1641 148.2316,531.8975 Q148.8181,531.6309 149.4416,531.0566 Z " fill="#CAD3F5"/><text fill="#A6DA95" font-family="Helvetica" font-size="22.4" lengthAdjust="spacing" textLength="115.8062" x="165.074" y="533.8484">LazyMonad</text></g><!--class IdMonad--><g id="elem_IdMonad"><rect codeLine="15" fill="#24273A" height="42" id="IdMonad" rx="2.1" ry="2.1" style="stroke:#C6A0F6;stroke-width:2.7999999999999994;" width="129.1719" x="141.596" y="415.8"/><rect fill="#363A4F" height="42" rx="2.1" ry="2.1" style="stroke:#363A4F;stroke-width:2.7999999999999994;" width="129.1719" x="141.596" y="415.8"/><rect fill="#363A4F" height="2.1" style="stroke:#363A4F;stroke-width:2.7999999999999994;" width="129.1719" x="141.596" y="455.7"/><rect codeLine="15" fill="none" height="42" id="IdMonad" rx="2.1" ry="2.1" style="stroke:#C6A0F6;stroke-width:2.7999999999999994;" width="129.1719" x="141.596" y="415.8"/><ellipse cx="161.196" cy="436.8" fill="#ADD1B2" rx="14" ry="14" style="stroke:#181818;stroke-width:1.3999999999999997;"/><path d="M163.7636,442.7473 Q163.1894,443.0426 162.5577,443.1902 Q161.9261,443.3379 161.2288,443.3379 Q158.7515,443.3379 157.4472,441.7055 Q156.1429,440.073 156.1429,436.9887 Q156.1429,433.8961 157.4472,432.2637 Q158.7515,430.6312 161.2288,430.6312 Q161.9261,430.6312 162.5659,430.7789 Q163.2058,430.9266 163.7636,431.2219 L163.7636,433.9125 Q163.1401,433.3383 162.5536,433.0717 Q161.9671,432.8051 161.3437,432.8051 Q160.0147,432.8051 159.338,433.8592 Q158.6612,434.9133 158.6612,436.9887 Q158.6612,439.0559 159.338,440.11 Q160.0147,441.1641 161.3437,441.1641 Q161.9671,441.1641 162.5536,440.8975 Q163.1401,440.6309 163.7636,440.0566 Z " fill="#CAD3F5"/><text fill="#A6DA95" font-family="Helvetica" font-size="22.4" lengthAdjust="spacing" textLength="87.1719" x="179.396" y="442.8484">IdMonad</text></g><!--class ReaderMonad--><g id="elem_ReaderMonad"><rect codeLine="16" fill="#24273A" height="42" id="ReaderMonad" rx="2.1" ry="2.1" style="stroke:#C6A0F6;stroke-width:2.7999999999999994;" width="201.6902" x="105.336" y="324.8"/><rect fill="#363A4F" height="42" rx="2.1" ry="2.1" style="stroke:#363A4F;stroke-width:2.7999999999999994;" width="201.6902" x="105.336" y="324.8"/><rect fill="#363A4F" height="2.1" style="stroke:#363A4F;stroke-width:2.7999999999999994;" width="201.6902" x="105.336" y="364.7"/><rect codeLine="16" fill="none" height="42" id="ReaderMonad" rx="2.1" ry="2.1" style="stroke:#C6A0F6;stroke-width:2.7999999999999994;" width="201.6902" x="105.336" y="324.8"/><ellipse cx="124.936" cy="345.8" fill="#ADD1B2" rx="14" ry="14" style="stroke:#181818;stroke-width:1.3999999999999997;"/><path d="M127.5036,351.7473 Q126.9294,352.0426 126.2977,352.1902 Q125.6661,352.3379 124.9688,352.3379 Q122.4915,352.3379 121.1872,350.7055 Q119.8829,349.073 119.8829,345.9887 Q119.8829,342.8961 121.1872,341.2637 Q122.4915,339.6312 124.9688,339.6312 Q125.6661,339.6312 126.3059,339.7789 Q126.9458,339.9266 127.5036,340.2219 L127.5036,342.9125 Q126.8801,342.3383 126.2936,342.0717 Q125.7071,341.8051 125.0837,341.8051 Q123.7547,341.8051 123.078,342.8592 Q122.4012,343.9133 122.4012,345.9887 Q122.4012,348.0559 123.078,349.11 Q123.7547,350.1641 125.0837,350.1641 Q125.7071,350.1641 126.2936,349.8975 Q126.8801,349.6309 127.5036,349.0566 Z " fill="#CAD3F5"/><text fill="#A6DA95" font-family="Helvetica" font-size="22.4" lengthAdjust="spacing" textLength="141.9578" x="143.136" y="351.8484">ReaderMonad</text><rect fill="#24273A" height="19.6" style="stroke:#C6A0F6;stroke-width:1.3999999999999997;stroke-dasharray:2.0,2.0;" width="14.9324" x="296.2938" y="320.6"/><text fill="#CAD3F5" font-family="Helvetica" font-size="16.8" font-style="italic" lengthAdjust="spacing" textLength="12.1324" x="297.6938" y="334.9363">R</text></g><!--class StateMonad--><g id="elem_StateMonad"><rect codeLine="17" fill="#24273A" height="42" id="StateMonad" rx="2.1" ry="2.1" style="stroke:#C6A0F6;stroke-width:2.7999999999999994;" width="179.5992" x="116.382" y="233.8"/><rect fill="#363A4F" height="42" rx="2.1" ry="2.1" style="stroke:#363A4F;stroke-width:2.7999999999999994;" width="179.5992" x="116.382" y="233.8"/><rect fill="#363A4F" height="2.1" style="stroke:#363A4F;stroke-width:2.7999999999999994;" width="179.5992" x="116.382" y="273.7"/><rect codeLine="17" fill="none" height="42" id="StateMonad" rx="2.1" ry="2.1" style="stroke:#C6A0F6;stroke-width:2.7999999999999994;" width="179.5992" x="116.382" y="233.8"/><ellipse cx="135.982" cy="254.8" fill="#ADD1B2" rx="14" ry="14" style="stroke:#181818;stroke-width:1.3999999999999997;"/><path d="M138.5496,260.7473 Q137.9754,261.0426 137.3437,261.1902 Q136.7121,261.3379 136.0148,261.3379 Q133.5375,261.3379 132.2332,259.7055 Q130.9289,258.073 130.9289,254.9887 Q130.9289,251.8961 132.2332,250.2637 Q133.5375,248.6312 136.0148,248.6312 Q136.7121,248.6312 137.3519,248.7789 Q137.9918,248.9266 138.5496,249.2219 L138.5496,251.9125 Q137.9261,251.3383 137.3396,251.0717 Q136.7531,250.8051 136.1297,250.8051 Q134.8007,250.8051 134.124,251.8592 Q133.4472,252.9133 133.4472,254.9887 Q133.4472,257.0559 134.124,258.11 Q134.8007,259.1641 136.1297,259.1641 Q136.7531,259.1641 137.3396,258.8975 Q137.9261,258.6309 138.5496,258.0566 Z " fill="#CAD3F5"/><text fill="#A6DA95" font-family="Helvetica" font-size="22.4" lengthAdjust="spacing" textLength="120.7937" x="154.182" y="260.8484">StateMonad</text><rect fill="#24273A" height="19.6" style="stroke:#C6A0F6;stroke-width:1.3999999999999997;stroke-dasharray:2.0,2.0;" width="14.0055" x="286.1757" y="229.6"/><text fill="#CAD3F5" font-family="Helvetica" font-size="16.8" font-style="italic" lengthAdjust="spacing" textLength="11.2055" x="287.5757" y="243.9363">S</text></g><!--class WriterMonad--><g id="elem_WriterMonad"><rect codeLine="18" fill="#24273A" height="42" id="WriterMonad" rx="2.1" ry="2.1" style="stroke:#C6A0F6;stroke-width:2.7999999999999994;" width="191.666" x="110.348" y="142.8"/><rect fill="#363A4F" height="42" rx="2.1" ry="2.1" style="stroke:#363A4F;stroke-width:2.7999999999999994;" width="191.666" x="110.348" y="142.8"/><rect fill="#363A4F" height="2.1" style="stroke:#363A4F;stroke-width:2.7999999999999994;" width="191.666" x="110.348" y="182.7"/><rect codeLine="18" fill="none" height="42" id="WriterMonad" rx="2.1" ry="2.1" style="stroke:#C6A0F6;stroke-width:2.7999999999999994;" width="191.666" x="110.348" y="142.8"/><ellipse cx="129.948" cy="163.8" fill="#ADD1B2" rx="14" ry="14" style="stroke:#181818;stroke-width:1.3999999999999997;"/><path d="M132.5156,169.7473 Q131.9414,170.0426 131.3097,170.1902 Q130.6781,170.3379 129.9808,170.3379 Q127.5035,170.3379 126.1992,168.7055 Q124.8949,167.073 124.8949,163.9887 Q124.8949,160.8961 126.1992,159.2637 Q127.5035,157.6312 129.9808,157.6312 Q130.6781,157.6312 131.3179,157.7789 Q131.9578,157.9266 132.5156,158.2219 L132.5156,160.9125 Q131.8921,160.3383 131.3056,160.0717 Q130.7191,159.8051 130.0957,159.8051 Q128.7667,159.8051 128.09,160.8592 Q127.4132,161.9133 127.4132,163.9887 Q127.4132,166.0559 128.09,167.11 Q128.7667,168.1641 130.0957,168.1641 Q130.7191,168.1641 131.3056,167.8975 Q131.8921,167.6309 132.5156,167.0566 Z " fill="#CAD3F5"/><text fill="#A6DA95" font-family="Helvetica" font-size="22.4" lengthAdjust="spacing" textLength="128.2094" x="148.148" y="169.8484">WriterMonad</text><rect fill="#24273A" height="19.6" style="stroke:#C6A0F6;stroke-width:1.3999999999999997;stroke-dasharray:2.0,2.0;" width="18.6566" x="287.5574" y="138.6"/><text fill="#CAD3F5" font-family="Helvetica" font-size="16.8" font-style="italic" lengthAdjust="spacing" textLength="15.8566" x="288.9574" y="152.9363">W</text></g><!--class Monad--><g id="elem_Monad"><rect fill="#24273A" height="42" id="Monad" rx="2.1" ry="2.1" style="stroke:#C6A0F6;stroke-width:2.7999999999999994;" width="110.4906" x="649.446" y="553"/><rect fill="#363A4F" height="42" rx="2.1" ry="2.1" style="stroke:#363A4F;stroke-width:2.7999999999999994;" width="110.4906" x="649.446" y="553"/><rect fill="#363A4F" height="2.1" style="stroke:#363A4F;stroke-width:2.7999999999999994;" width="110.4906" x="649.446" y="592.9"/><rect fill="none" height="42" id="Monad" rx="2.1" ry="2.1" style="stroke:#C6A0F6;stroke-width:2.7999999999999994;" width="110.4906" x="649.446" y="553"/><ellipse cx="669.046" cy="574" fill="#ADD1B2" rx="14" ry="14" style="stroke:#181818;stroke-width:1.3999999999999997;"/><path d="M671.6136,579.9473 Q671.0394,580.2426 670.4077,580.3902 Q669.7761,580.5379 669.0788,580.5379 Q666.6015,580.5379 665.2972,578.9055 Q663.9929,577.273 663.9929,574.1887 Q663.9929,571.0961 665.2972,569.4637 Q666.6015,567.8312 669.0788,567.8312 Q669.7761,567.8312 670.4159,567.9789 Q671.0558,568.1266 671.6136,568.4219 L671.6136,571.1125 Q670.9901,570.5383 670.4036,570.2717 Q669.8171,570.0051 669.1937,570.0051 Q667.8647,570.0051 667.188,571.0592 Q666.5112,572.1133 666.5112,574.1887 Q666.5112,576.2559 667.188,577.31 Q667.8647,578.3641 669.1937,578.3641 Q669.8171,578.3641 670.4036,578.0975 Q670.9901,577.8309 671.6136,577.2566 Z " fill="#CAD3F5"/><text fill="#A6DA95" font-family="Helvetica" font-size="22.4" lengthAdjust="spacing" textLength="68.4906" x="687.246" y="580.0484">Monad</text></g><!--class MonadError--><g id="elem_MonadError"><rect fill="#24273A" height="42" id="MonadError" rx="2.1" ry="2.1" style="stroke:#C6A0F6;stroke-width:2.7999999999999994;" width="160.2672" x="624.568" y="644"/><rect fill="#363A4F" height="42" rx="2.1" ry="2.1" style="stroke:#363A4F;stroke-width:2.7999999999999994;" width="160.2672" x="624.568" y="644"/><rect fill="#363A4F" height="2.1" style="stroke:#363A4F;stroke-width:2.7999999999999994;" width="160.2672" x="624.568" y="683.9"/><rect fill="none" height="42" id="MonadError" rx="2.1" ry="2.1" style="stroke:#C6A0F6;stroke-width:2.7999999999999994;" width="160.2672" x="624.568" y="644"/><ellipse cx="644.168" cy="665" fill="#ADD1B2" rx="14" ry="14" style="stroke:#181818;stroke-width:1.3999999999999997;"/><path d="M646.7356,670.9473 Q646.1614,671.2426 645.5297,671.3902 Q644.8981,671.5379 644.2008,671.5379 Q641.7235,671.5379 640.4192,669.9055 Q639.1149,668.273 639.1149,665.1887 Q639.1149,662.0961 640.4192,660.4637 Q641.7235,658.8312 644.2008,658.8312 Q644.8981,658.8312 645.5379,658.9789 Q646.1778,659.1266 646.7356,659.4219 L646.7356,662.1125 Q646.1121,661.5383 645.5256,661.2717 Q644.9391,661.0051 644.3157,661.0051 Q642.9867,661.0051 642.31,662.0592 Q641.6332,663.1133 641.6332,665.1887 Q641.6332,667.2559 642.31,668.31 Q642.9867,669.3641 644.3157,669.3641 Q644.9391,669.3641 645.5256,669.0975 Q646.1121,668.8309 646.7356,668.2566 Z " fill="#CAD3F5"/><text fill="#A6DA95" font-family="Helvetica" font-size="22.4" lengthAdjust="spacing" textLength="118.2672" x="662.368" y="671.0484">MonadError</text></g><!--class OptionalKind--><g id="elem_OptionalKind"><rect fill="#24273A" height="42" id="OptionalKind" rx="2.1" ry="2.1" style="stroke:#C6A0F6;stroke-width:2.7999999999999994;" width="170.2641" x="619.57" y="1019.2"/><rect fill="#363A4F" height="42" rx="2.1" ry="2.1" style="stroke:#363A4F;stroke-width:2.7999999999999994;" width="170.2641" x="619.57" y="1019.2"/><rect fill="#363A4F" height="2.1" style="stroke:#363A4F;stroke-width:2.7999999999999994;" width="170.2641" x="619.57" y="1059.1"/><rect fill="none" height="42" id="OptionalKind" rx="2.1" ry="2.1" style="stroke:#C6A0F6;stroke-width:2.7999999999999994;" width="170.2641" x="619.57" y="1019.2"/><ellipse cx="639.17" cy="1040.2" fill="#ADD1B2" rx="14" ry="14" style="stroke:#181818;stroke-width:1.3999999999999997;"/><path d="M641.7376,1046.1473 Q641.1634,1046.4426 640.5317,1046.5902 Q639.9001,1046.7379 639.2028,1046.7379 Q636.7255,1046.7379 635.4212,1045.1055 Q634.1169,1043.473 634.1169,1040.3887 Q634.1169,1037.2961 635.4212,1035.6637 Q636.7255,1034.0312 639.2028,1034.0312 Q639.9001,1034.0312 640.5399,1034.1789 Q641.1798,1034.3266 641.7376,1034.6219 L641.7376,1037.3125 Q641.1141,1036.7383 640.5276,1036.4717 Q639.9411,1036.2051 639.3177,1036.2051 Q637.9887,1036.2051 637.312,1037.2592 Q636.6352,1038.3133 636.6352,1040.3887 Q636.6352,1042.4559 637.312,1043.51 Q637.9887,1044.5641 639.3177,1044.5641 Q639.9411,1044.5641 640.5276,1044.2975 Q641.1141,1044.0309 641.7376,1043.4566 Z " fill="#CAD3F5"/><text fill="#A6DA95" font-family="Helvetica" font-size="22.4" lengthAdjust="spacing" textLength="128.2641" x="657.37" y="1046.2484">OptionalKind</text></g><!--reverse link ListMonad to Monad--><g id="link_ListMonad_Monad"><path codeLine="20" d="M304.0139,88.572 C336.5219,95.334 349.986,100.926 381.57,117.6 C482.538,170.94 506.94,195.132 574.77,287 C640.108,375.494 682.22,502.488 697.186,552.552 " fill="none" id="ListMonad-backto-Monad" style="stroke:#F5BDE6;stroke-width:1.3999999999999997;stroke-dasharray:7.0,7.0;"/><polygon fill="none" points="279.342,83.44,302.3032,96.796,305.7246,80.348,279.342,83.44" style="stroke:#F5BDE6;stroke-width:1.3999999999999997;"/></g><!--reverse link OptionalMonad to MonadError--><g id="link_OptionalMonad_MonadError"><path codeLine="21" d="M328.1455,1047.2347 C353.8215,1040.6127 356.902,1038.702 381.57,1029 C472.5,993.216 506.954,994.378 574.77,924 C644.42,851.704 683.69,734.286 697.536,686.378 " fill="none" id="OptionalMonad-backto-MonadError" style="stroke:#F5BDE6;stroke-width:1.3999999999999997;stroke-dasharray:7.0,7.0;"/><polygon fill="none" points="303.744,1053.528,330.2433,1055.3685,326.0478,1039.1009,303.744,1053.528" style="stroke:#F5BDE6;stroke-width:1.3999999999999997;"/></g><!--reverse link MaybeMonad to MonadError--><g id="link_MaybeMonad_MonadError"><path codeLine="22" d="M319.8329,957.8132 C347.7629,950.8272 354.074,948.192 381.57,938 C387.17,935.914 570.192,846.664 574.77,842.8 C629.468,796.6 673.148,722.372 692.482,686.196 " fill="none" id="MaybeMonad-backto-MonadError" style="stroke:#F5BDE6;stroke-width:1.3999999999999997;stroke-dasharray:7.0,7.0;"/><polygon fill="none" points="295.386,963.928,321.8711,965.9622,317.7946,949.6643,295.386,963.928" style="stroke:#F5BDE6;stroke-width:1.3999999999999997;"/></g><!--reverse link EitherMonad to MonadError--><g id="link_EitherMonad_MonadError"><path codeLine="23" d="M322.8802,865.7589 C349.9562,858.8989 355.04,856.66 381.57,847 C471.002,814.45 492.52,802.508 574.77,754.6 C610.722,733.656 649.614,705.74 675.08,686.672 " fill="none" id="EitherMonad-backto-MonadError" style="stroke:#F5BDE6;stroke-width:1.3999999999999997;stroke-dasharray:7.0,7.0;"/><polygon fill="none" points="298.452,871.948,324.9432,873.9016,320.8171,857.6161,298.452,871.948" style="stroke:#F5BDE6;stroke-width:1.3999999999999997;"/></g><!--reverse link CompletableFutureMonadError to MonadError--><g id="link_CompletableFutureMonadError_MonadError"><path codeLine="24" d="M317.4861,772.9521 C345.7101,765.7141 352.814,763.77 381.57,756 C467.712,732.746 488.908,725.69 574.77,701.4 C591.724,696.598 609.938,691.446 627.172,686.56 " fill="none" id="CompletableFutureMonadError-backto-MonadError" style="stroke:#F5BDE6;stroke-width:1.3999999999999997;stroke-dasharray:7.0,7.0;"/><polygon fill="none" points="293.076,779.212,319.5727,781.0888,315.3995,764.8154,293.076,779.212" style="stroke:#F5BDE6;stroke-width:1.3999999999999997;"/></g><!--reverse link TryMonadError to MonadError--><g id="link_TryMonadError_MonadError"><path codeLine="25" d="M328.2537,698.8941 C421.5217,690.4661 536.662,680.064 623.938,672.168 " fill="none" id="TryMonadError-backto-MonadError" style="stroke:#F5BDE6;stroke-width:1.3999999999999997;stroke-dasharray:7.0,7.0;"/><polygon fill="none" points="303.156,701.162,329.0097,707.26,327.4978,690.5282,303.156,701.162" style="stroke:#F5BDE6;stroke-width:1.3999999999999997;"/></g><!--reverse link IdMonad to Monad--><g id="link_IdMonad_Monad"><path codeLine="26" d="M295.7449,458.9621 C328.7149,467.3341 345.156,471.688 381.57,481.6 C475.762,507.248 584.892,539.028 648.774,557.844 " fill="none" id="IdMonad-backto-Monad" style="stroke:#F5BDE6;stroke-width:1.3999999999999997;stroke-dasharray:7.0,7.0;"/><polygon fill="none" points="271.32,452.76,293.6775,467.1038,297.8122,450.8205,271.32,452.76" style="stroke:#F5BDE6;stroke-width:1.3999999999999997;"/></g><!--reverse link IOMonad to Monad--><g id="link_IOMonad_Monad"><path codeLine="27" d="M299.0216,610.5387 C397.9596,601.5927 557.2,587.202 648.774,578.928 " fill="none" id="IOMonad-backto-Monad" style="stroke:#F5BDE6;stroke-width:1.3999999999999997;stroke-dasharray:7.0,7.0;"/><polygon fill="none" points="273.924,612.808,299.7781,618.9045,298.2652,602.1728,273.924,612.808" style="stroke:#F5BDE6;stroke-width:1.3999999999999997;"/></g><!--reverse link LazyMonad to Monad--><g id="link_LazyMonad_Monad"><path codeLine="28" d="M310.677,537.4069 C411.967,546.8569 561.092,560.742 649.082,568.946 " fill="none" id="LazyMonad-backto-Monad" style="stroke:#F5BDE6;stroke-width:1.3999999999999997;stroke-dasharray:7.0,7.0;"/><polygon fill="none" points="285.586,535.066,309.8967,545.7706,311.4573,529.0432,285.586,535.066" style="stroke:#F5BDE6;stroke-width:1.3999999999999997;"/></g><!--reverse link ReaderMonad to Monad--><g id="link_ReaderMonad_Monad"><path codeLine="29" d="M331.8833,373.0756 C356.5093,379.5436 358.148,381.108 381.57,390.6 C494.48,436.366 616.518,514.864 672.308,552.566 " fill="none" id="ReaderMonad-backto-Monad" style="stroke:#F5BDE6;stroke-width:1.3999999999999997;stroke-dasharray:7.0,7.0;"/><polygon fill="none" points="307.51,366.674,329.7494,381.2001,334.0172,364.9512,307.51,366.674" style="stroke:#F5BDE6;stroke-width:1.3999999999999997;"/></g><!--reverse link StateMonad to Monad--><g id="link_StateMonad_Monad"><path codeLine="30" d="M320.9556,277.0728 C348.9276,283.9188 354.97,287.252 381.57,299.6 C517.398,362.684 641.046,499.478 685.678,552.44 " fill="none" id="StateMonad-backto-Monad" style="stroke:#F5BDE6;stroke-width:1.3999999999999997;stroke-dasharray:7.0,7.0;"/><polygon fill="none" points="296.478,271.082,318.9586,285.2319,322.9525,268.9136,296.478,271.082" style="stroke:#F5BDE6;stroke-width:1.3999999999999997;"/></g><!--reverse link WriterMonad to Monad--><g id="link_WriterMonad_Monad"><path codeLine="31" d="M326.7865,186.5779 C353.2605,193.2839 357.056,196.252 381.57,208.6 C480.312,258.384 501.788,282.31 574.77,365.4 C628.656,426.762 674.016,513.422 693.322,552.916 " fill="none" id="WriterMonad-backto-Monad" style="stroke:#F5BDE6;stroke-width:1.3999999999999997;stroke-dasharray:7.0,7.0;"/><polygon fill="none" points="302.358,180.39,324.7239,194.7207,328.8491,178.435,302.358,180.39" style="stroke:#F5BDE6;stroke-width:1.3999999999999997;"/></g><!--link OptionalMonad to OptionalKind--><g id="link_OptionalMonad_OptionalKind"><path codeLine="34" d="M303.744,1067.276 C395.262,1061.074 523.1992,1052.402 610.5732,1046.48 " fill="none" id="OptionalMonad-to-OptionalKind" style="stroke:#F5BDE6;stroke-width:1.3999999999999997;stroke-dasharray:7.0,7.0;"/><polygon fill="#F5BDE6" points="618.954,1045.912,606.0042,1041.1769,611.97,1046.3854,606.7615,1052.3512,618.954,1045.912" style="stroke:#F5BDE6;stroke-width:1.3999999999999997;"/><text fill="#CAD3F5" font-family="Helvetica" font-size="16.8" lengthAdjust="spacing" textLength="149.4199" x="424.97" y="1043.9523">operates on witness</text></g><!--SRC=[ZPDBRzim48Jl_1LRNTeUBDq38vV21OmwI107o7b5hIsYuWFa4edw-E-b9JjYd3IoJiBWuseui_gaZEnYGz0okt1LLHwVohtYDjOna9VMC1akfTMLaJOmBfIi9B9pKKfb5XgbR1MoNRWE3KVTBRWbJPL6PQhXjNH95QrA7o7jk0TDkYOVXEXeny0MlDgt38to95bP8uH3-HFt1CKsEcSzKmCFlQC0NswimGRMsdLfic4yyE5h0Ry5f4Ts609iLE21oxHRTo2nEzTliA_fN2nMAG3oWxpSN1U00J8f8x_PWnF6kgFlaQCVHwsyjpwZ7dp_hhw-FP-tmL_zkRPktlYx9snE_kv7VvcKaziKqMXgkHt1IScvHw_uDF5n13D93EXBhh3yKvRfxfxMQJty3YM5SXhvAkl_irCQKmcNq5aJb-0VL7J9yLVTNNBWMDTCHiVgPwYNTPZXil9doAdz6J1h_mDoG3_3wXaF8OEdRlWZOPUoEgt1EpjHbjTfDPMEH_okYxfMPb-Ui1_AD0LSWNNaa-402NfIR2W4yLS8yGy0]--></g></svg>