<svg xmlns="http://www.w3.org/2000/svg" xmlns:xlink="http://www.w3.org/1999/xlink" contentStyleType="text/css" height="786px" preserveAspectRatio="none" style="width:612px;height:786px;background:#24273A;" version="1.1" viewBox="0 0 612 786" width="612px" zoomAndPan="magnify"><defs/><g><rect fill="#24273A" height="786" style="stroke:none;stroke-width:1.0;" width="612" x="0" y="0"/><!--cluster Supported Types (Monad Implementations)--><g id="cluster_Supported Types (Monad Implementations)"><path d="M12.5,11 L262.1797,11 A2.25,2.25 0 0 1 263.6797,12.5 L270.6797,29 L603.66,29 A1.5,1.5 0 0 1 605.16,30.5 L605.16,777.5 A1.5,1.5 0 0 1 603.66,779 L12.5,779 A1.5,1.5 0 0 1 11,777.5 L11,12.5 A1.5,1.5 0 0 1 12.5,11 " fill="#24273A" style="stroke:#CAD3F5;stroke-width:1.0;"/><line style="stroke:#CAD3F5;stroke-width:1.0;" x1="11" x2="270.6797" y1="29" y2="29"/><text fill="#CAD3F5" font-family="Helvetica" font-size="12" font-weight="bold" lengthAdjust="spacing" textLength="246.6797" x="15" y="22.2402">Supported Types (Monad Implementations)</text></g><!--cluster CoreInterfaces--><g id="cluster_CoreInterfaces"><path d="M434.62,357 L521.6552,357 A2.25,2.25 0 0 1 523.1552,358.5 L530.1552,375 L576.09,375 A1.5,1.5 0 0 1 577.59,376.5 L577.59,493.5 A1.5,1.5 0 0 1 576.09,495 L434.62,495 A1.5,1.5 0 0 1 433.12,493.5 L433.12,358.5 A1.5,1.5 0 0 1 434.62,357 " fill="#24273A" style="stroke:#CAD3F5;stroke-width:1.0;"/><line style="stroke:#CAD3F5;stroke-width:1.0;" x1="433.12" x2="530.1552" y1="375" y2="375"/><text fill="#CAD3F5" font-family="Helvetica" font-size="12" font-weight="bold" lengthAdjust="spacing" textLength="84.0352" x="437.12" y="368.2402">CoreInterfaces</text></g><!--cluster Simulation Plumbing--><g id="cluster_Simulation Plumbing"><path d="M431.05,680 L553.382,680 A2.25,2.25 0 0 1 554.882,681.5 L561.882,698 L579.66,698 A1.5,1.5 0 0 1 581.16,699.5 L581.16,753.5 A1.5,1.5 0 0 1 579.66,755 L431.05,755 A1.5,1.5 0 0 1 429.55,753.5 L429.55,681.5 A1.5,1.5 0 0 1 431.05,680 " fill="#24273A" style="stroke:#CAD3F5;stroke-width:1.0;"/><line style="stroke:#CAD3F5;stroke-width:1.0;" x1="429.55" x2="561.882" y1="698" y2="698"/><text fill="#CAD3F5" font-family="Helvetica" font-size="12" font-weight="bold" lengthAdjust="spacing" textLength="119.332" x="433.55" y="691.2402">Simulation Plumbing</text></g><!--class ListMonad--><g id="elem_ListMonad"><rect codeLine="8" fill="#24273A" height="28" id="ListMonad" rx="1.5" ry="1.5" style="stroke:#C6A0F6;stroke-width:2.0;" width="101.8203" x="100.36" y="42"/><rect fill="#363A4F" height="28" rx="1.5" ry="1.5" style="stroke:#363A4F;stroke-width:2.0;" width="101.8203" x="100.36" y="42"/><rect fill="#363A4F" height="1.5" style="stroke:#363A4F;stroke-width:2.0;" width="101.8203" x="100.36" y="68.5"/><rect codeLine="8" fill="none" height="28" id="ListMonad" rx="1.5" ry="1.5" style="stroke:#C6A0F6;stroke-width:2.0;" width="101.8203" x="100.36" y="42"/><ellipse cx="113.36" cy="56" fill="#FFFFFF" rx="9" ry="9" style="stroke:#000000;stroke-width:1.0;"/><path d="M115.194,60.248 Q114.7838,60.459 114.3327,60.5645 Q113.8815,60.6699 113.3834,60.6699 Q111.6139,60.6699 110.6823,59.5039 Q109.7506,58.3379 109.7506,56.1348 Q109.7506,53.9258 110.6823,52.7598 Q111.6139,51.5938 113.3834,51.5938 Q113.8815,51.5938 114.3385,51.6992 Q114.7955,51.8047 115.194,52.0156 L115.194,53.9375 Q114.7487,53.5273 114.3297,53.3369 Q113.9108,53.1465 113.4655,53.1465 Q112.5163,53.1465 112.0329,53.8994 Q111.5495,54.6523 111.5495,56.1348 Q111.5495,57.6113 112.0329,58.3643 Q112.5163,59.1172 113.4655,59.1172 Q113.9108,59.1172 114.3297,58.9268 Q114.7487,58.7363 115.194,58.3262 Z " fill="#CAD3F5"/><text fill="#A6DA95" font-family="Helvetica" font-size="16" lengthAdjust="spacing" textLength="73.8203" x="125.36" y="60.3203">ListMonad</text></g><!--class OptionalMonad--><g id="elem_OptionalMonad"><rect codeLine="9" fill="#24273A" height="28" id="OptionalMonad" rx="1.5" ry="1.5" style="stroke:#C6A0F6;stroke-width:2.0;" width="136.5156" x="83.02" y="735"/><rect fill="#363A4F" height="28" rx="1.5" ry="1.5" style="stroke:#363A4F;stroke-width:2.0;" width="136.5156" x="83.02" y="735"/><rect fill="#363A4F" height="1.5" style="stroke:#363A4F;stroke-width:2.0;" width="136.5156" x="83.02" y="761.5"/><rect codeLine="9" fill="none" height="28" id="OptionalMonad" rx="1.5" ry="1.5" style="stroke:#C6A0F6;stroke-width:2.0;" width="136.5156" x="83.02" y="735"/><ellipse cx="96.02" cy="749" fill="#FFFFFF" rx="9" ry="9" style="stroke:#000000;stroke-width:1.0;"/><path d="M97.854,753.248 Q97.4438,753.459 96.9927,753.5645 Q96.5415,753.6699 96.0434,753.6699 Q94.2739,753.6699 93.3423,752.5039 Q92.4106,751.3379 92.4106,749.1348 Q92.4106,746.9258 93.3423,745.7598 Q94.2739,744.5938 96.0434,744.5938 Q96.5415,744.5938 96.9985,744.6992 Q97.4555,744.8047 97.854,745.0156 L97.854,746.9375 Q97.4087,746.5273 96.9897,746.3369 Q96.5708,746.1465 96.1255,746.1465 Q95.1763,746.1465 94.6929,746.8994 Q94.2095,747.6523 94.2095,749.1348 Q94.2095,750.6113 94.6929,751.3643 Q95.1763,752.1172 96.1255,752.1172 Q96.5708,752.1172 96.9897,751.9268 Q97.4087,751.7363 97.854,751.3262 Z " fill="#CAD3F5"/><text fill="#A6DA95" font-family="Helvetica" font-size="16" lengthAdjust="spacing" textLength="108.5156" x="108.02" y="753.3203">OptionalMonad</text></g><!--class MaybeMonad--><g id="elem_MaybeMonad"><rect codeLine="10" fill="#24273A" height="28" id="MaybeMonad" rx="1.5" ry="1.5" style="stroke:#C6A0F6;stroke-width:2.0;" width="124.9453" x="88.8" y="672"/><rect fill="#363A4F" height="28" rx="1.5" ry="1.5" style="stroke:#363A4F;stroke-width:2.0;" width="124.9453" x="88.8" y="672"/><rect fill="#363A4F" height="1.5" style="stroke:#363A4F;stroke-width:2.0;" width="124.9453" x="88.8" y="698.5"/><rect codeLine="10" fill="none" height="28" id="MaybeMonad" rx="1.5" ry="1.5" style="stroke:#C6A0F6;stroke-width:2.0;" width="124.9453" x="88.8" y="672"/><ellipse cx="101.8" cy="686" fill="#FFFFFF" rx="9" ry="9" style="stroke:#000000;stroke-width:1.0;"/><path d="M103.634,690.248 Q103.2238,690.459 102.7727,690.5645 Q102.3215,690.6699 101.8234,690.6699 Q100.0539,690.6699 99.1223,689.5039 Q98.1906,688.3379 98.1906,686.1348 Q98.1906,683.9258 99.1223,682.7598 Q100.0539,681.5938 101.8234,681.5938 Q102.3215,681.5938 102.7785,681.6992 Q103.2355,681.8047 103.634,682.0156 L103.634,683.9375 Q103.1887,683.5273 102.7697,683.3369 Q102.3508,683.1465 101.9055,683.1465 Q100.9563,683.1465 100.4729,683.8994 Q99.9895,684.6523 99.9895,686.1348 Q99.9895,687.6113 100.4729,688.3643 Q100.9563,689.1172 101.9055,689.1172 Q102.3508,689.1172 102.7697,688.9268 Q103.1887,688.7363 103.634,688.3262 Z " fill="#CAD3F5"/><text fill="#A6DA95" font-family="Helvetica" font-size="16" lengthAdjust="spacing" textLength="96.9453" x="113.8" y="690.3203">MaybeMonad</text></g><!--class EitherMonad--><g id="elem_EitherMonad"><rect codeLine="11" fill="#24273A" height="28" id="EitherMonad" rx="1.5" ry="1.5" style="stroke:#C6A0F6;stroke-width:2.0;" width="129.3984" x="86.57" y="609"/><rect fill="#363A4F" height="28" rx="1.5" ry="1.5" style="stroke:#363A4F;stroke-width:2.0;" width="129.3984" x="86.57" y="609"/><rect fill="#363A4F" height="1.5" style="stroke:#363A4F;stroke-width:2.0;" width="129.3984" x="86.57" y="635.5"/><rect codeLine="11" fill="none" height="28" id="EitherMonad" rx="1.5" ry="1.5" style="stroke:#C6A0F6;stroke-width:2.0;" width="129.3984" x="86.57" y="609"/><ellipse cx="99.57" cy="623" fill="#FFFFFF" rx="9" ry="9" style="stroke:#000000;stroke-width:1.0;"/><path d="M101.404,627.248 Q100.9938,627.459 100.5427,627.5645 Q100.0915,627.6699 99.5934,627.6699 Q97.8239,627.6699 96.8923,626.5039 Q95.9606,625.3379 95.9606,623.1348 Q95.9606,620.9258 96.8923,619.7598 Q97.8239,618.5938 99.5934,618.5938 Q100.0915,618.5938 100.5485,618.6992 Q101.0055,618.8047 101.404,619.0156 L101.404,620.9375 Q100.9587,620.5273 100.5397,620.3369 Q100.1208,620.1465 99.6755,620.1465 Q98.7263,620.1465 98.2429,620.8994 Q97.7595,621.6523 97.7595,623.1348 Q97.7595,624.6113 98.2429,625.3643 Q98.7263,626.1172 99.6755,626.1172 Q100.1208,626.1172 100.5397,625.9268 Q100.9587,625.7363 101.404,625.3262 Z " fill="#CAD3F5"/><text fill="#A6DA95" font-family="Helvetica" font-size="16" lengthAdjust="spacing" textLength="90.7188" x="111.57" y="627.3203">EitherMonad</text><rect fill="#24273A" height="16.584" style="stroke:#C6A0F6;stroke-width:1.0;stroke-dasharray:2.0,2.0;" width="8.6797" x="210.2888" y="606"/><text fill="#000000" font-family="Verdana" font-size="12" font-style="italic" lengthAdjust="spacing" textLength="6.6797" x="211.2888" y="619.0645">L</text></g><!--class CompletableFutureMonadError--><g id="elem_CompletableFutureMonadError"><rect codeLine="12" fill="#24273A" height="28" id="CompletableFutureMonadError" rx="1.5" ry="1.5" style="stroke:#C6A0F6;stroke-width:2.0;" width="248.5469" x="27" y="546"/><rect fill="#363A4F" height="28" rx="1.5" ry="1.5" style="stroke:#363A4F;stroke-width:2.0;" width="248.5469" x="27" y="546"/><rect fill="#363A4F" height="1.5" style="stroke:#363A4F;stroke-width:2.0;" width="248.5469" x="27" y="572.5"/><rect codeLine="12" fill="none" height="28" id="CompletableFutureMonadError" rx="1.5" ry="1.5" style="stroke:#C6A0F6;stroke-width:2.0;" width="248.5469" x="27" y="546"/><ellipse cx="40" cy="560" fill="#FFFFFF" rx="9" ry="9" style="stroke:#000000;stroke-width:1.0;"/><path d="M41.834,564.248 Q41.4238,564.459 40.9727,564.5645 Q40.5215,564.6699 40.0234,564.6699 Q38.2539,564.6699 37.3223,563.5039 Q36.3906,562.3379 36.3906,560.1348 Q36.3906,557.9258 37.3223,556.7598 Q38.2539,555.5938 40.0234,555.5938 Q40.5215,555.5938 40.9785,555.6992 Q41.4355,555.8047 41.834,556.0156 L41.834,557.9375 Q41.3887,557.5273 40.9697,557.3369 Q40.5508,557.1465 40.1055,557.1465 Q39.1563,557.1465 38.6729,557.8994 Q38.1895,558.6523 38.1895,560.1348 Q38.1895,561.6113 38.6729,562.3643 Q39.1563,563.1172 40.1055,563.1172 Q40.5508,563.1172 40.9697,562.9268 Q41.3887,562.7363 41.834,562.3262 Z " fill="#CAD3F5"/><text fill="#A6DA95" font-family="Helvetica" font-size="16" lengthAdjust="spacing" textLength="220.5469" x="52" y="564.3203">CompletableFutureMonadError</text></g><!--class TryMonadError--><g id="elem_TryMonadError"><rect codeLine="13" fill="#24273A" height="28" id="TryMonadError" rx="1.5" ry="1.5" style="stroke:#C6A0F6;stroke-width:2.0;" width="135.5781" x="83.48" y="483"/><rect fill="#363A4F" height="28" rx="1.5" ry="1.5" style="stroke:#363A4F;stroke-width:2.0;" width="135.5781" x="83.48" y="483"/><rect fill="#363A4F" height="1.5" style="stroke:#363A4F;stroke-width:2.0;" width="135.5781" x="83.48" y="509.5"/><rect codeLine="13" fill="none" height="28" id="TryMonadError" rx="1.5" ry="1.5" style="stroke:#C6A0F6;stroke-width:2.0;" width="135.5781" x="83.48" y="483"/><ellipse cx="96.48" cy="497" fill="#FFFFFF" rx="9" ry="9" style="stroke:#000000;stroke-width:1.0;"/><path d="M98.314,501.248 Q97.9038,501.459 97.4527,501.5645 Q97.0015,501.6699 96.5034,501.6699 Q94.7339,501.6699 93.8023,500.5039 Q92.8706,499.3379 92.8706,497.1348 Q92.8706,494.9258 93.8023,493.7598 Q94.7339,492.5938 96.5034,492.5938 Q97.0015,492.5938 97.4585,492.6992 Q97.9155,492.8047 98.314,493.0156 L98.314,494.9375 Q97.8687,494.5273 97.4497,494.3369 Q97.0308,494.1465 96.5855,494.1465 Q95.6363,494.1465 95.1529,494.8994 Q94.6695,495.6523 94.6695,497.1348 Q94.6695,498.6113 95.1529,499.3643 Q95.6363,500.1172 96.5855,500.1172 Q97.0308,500.1172 97.4497,499.9268 Q97.8687,499.7363 98.314,499.3262 Z " fill="#CAD3F5"/><text fill="#A6DA95" font-family="Helvetica" font-size="16" lengthAdjust="spacing" textLength="107.5781" x="108.48" y="501.3203">TryMonadError</text></g><!--class IOMonad--><g id="elem_IOMonad"><rect codeLine="14" fill="#24273A" height="28" id="IOMonad" rx="1.5" ry="1.5" style="stroke:#C6A0F6;stroke-width:2.0;" width="93.8125" x="104.37" y="420"/><rect fill="#363A4F" height="28" rx="1.5" ry="1.5" style="stroke:#363A4F;stroke-width:2.0;" width="93.8125" x="104.37" y="420"/><rect fill="#363A4F" height="1.5" style="stroke:#363A4F;stroke-width:2.0;" width="93.8125" x="104.37" y="446.5"/><rect codeLine="14" fill="none" height="28" id="IOMonad" rx="1.5" ry="1.5" style="stroke:#C6A0F6;stroke-width:2.0;" width="93.8125" x="104.37" y="420"/><ellipse cx="117.37" cy="434" fill="#FFFFFF" rx="9" ry="9" style="stroke:#000000;stroke-width:1.0;"/><path d="M119.204,438.248 Q118.7938,438.459 118.3427,438.5645 Q117.8915,438.6699 117.3934,438.6699 Q115.6239,438.6699 114.6923,437.5039 Q113.7606,436.3379 113.7606,434.1348 Q113.7606,431.9258 114.6923,430.7598 Q115.6239,429.5938 117.3934,429.5938 Q117.8915,429.5938 118.3485,429.6992 Q118.8055,429.8047 119.204,430.0156 L119.204,431.9375 Q118.7587,431.5273 118.3397,431.3369 Q117.9208,431.1465 117.4755,431.1465 Q116.5263,431.1465 116.0429,431.8994 Q115.5595,432.6523 115.5595,434.1348 Q115.5595,435.6113 116.0429,436.3643 Q116.5263,437.1172 117.4755,437.1172 Q117.9208,437.1172 118.3397,436.9268 Q118.7587,436.7363 119.204,436.3262 Z " fill="#CAD3F5"/><text fill="#A6DA95" font-family="Helvetica" font-size="16" lengthAdjust="spacing" textLength="65.8125" x="129.37" y="438.3203">IOMonad</text></g><!--class LazyMonad--><g id="elem_LazyMonad"><rect codeLine="15" fill="#24273A" height="28" id="LazyMonad" rx="1.5" ry="1.5" style="stroke:#C6A0F6;stroke-width:2.0;" width="110.7188" x="95.91" y="357"/><rect fill="#363A4F" height="28" rx="1.5" ry="1.5" style="stroke:#363A4F;stroke-width:2.0;" width="110.7188" x="95.91" y="357"/><rect fill="#363A4F" height="1.5" style="stroke:#363A4F;stroke-width:2.0;" width="110.7188" x="95.91" y="383.5"/><rect codeLine="15" fill="none" height="28" id="LazyMonad" rx="1.5" ry="1.5" style="stroke:#C6A0F6;stroke-width:2.0;" width="110.7188" x="95.91" y="357"/><ellipse cx="108.91" cy="371" fill="#FFFFFF" rx="9" ry="9" style="stroke:#000000;stroke-width:1.0;"/><path d="M110.744,375.248 Q110.3338,375.459 109.8827,375.5645 Q109.4315,375.6699 108.9334,375.6699 Q107.1639,375.6699 106.2323,374.5039 Q105.3006,373.3379 105.3006,371.1348 Q105.3006,368.9258 106.2323,367.7598 Q107.1639,366.5938 108.9334,366.5938 Q109.4315,366.5938 109.8885,366.6992 Q110.3455,366.8047 110.744,367.0156 L110.744,368.9375 Q110.2987,368.5273 109.8797,368.3369 Q109.4608,368.1465 109.0155,368.1465 Q108.0663,368.1465 107.5829,368.8994 Q107.0995,369.6523 107.0995,371.1348 Q107.0995,372.6113 107.5829,373.3643 Q108.0663,374.1172 109.0155,374.1172 Q109.4608,374.1172 109.8797,373.9268 Q110.2987,373.7363 110.744,373.3262 Z " fill="#CAD3F5"/><text fill="#A6DA95" font-family="Helvetica" font-size="16" lengthAdjust="spacing" textLength="82.7188" x="120.91" y="375.3203">LazyMonad</text></g><!--class IdMonad--><g id="elem_IdMonad"><rect codeLine="16" fill="#24273A" height="28" id="IdMonad" rx="1.5" ry="1.5" style="stroke:#C6A0F6;stroke-width:2.0;" width="90.2656" x="106.14" y="294"/><rect fill="#363A4F" height="28" rx="1.5" ry="1.5" style="stroke:#363A4F;stroke-width:2.0;" width="90.2656" x="106.14" y="294"/><rect fill="#363A4F" height="1.5" style="stroke:#363A4F;stroke-width:2.0;" width="90.2656" x="106.14" y="320.5"/><rect codeLine="16" fill="none" height="28" id="IdMonad" rx="1.5" ry="1.5" style="stroke:#C6A0F6;stroke-width:2.0;" width="90.2656" x="106.14" y="294"/><ellipse cx="119.14" cy="308" fill="#FFFFFF" rx="9" ry="9" style="stroke:#000000;stroke-width:1.0;"/><path d="M120.974,312.248 Q120.5638,312.459 120.1127,312.5645 Q119.6615,312.6699 119.1634,312.6699 Q117.3939,312.6699 116.4623,311.5039 Q115.5306,310.3379 115.5306,308.1348 Q115.5306,305.9258 116.4623,304.7598 Q117.3939,303.5938 119.1634,303.5938 Q119.6615,303.5938 120.1185,303.6992 Q120.5755,303.8047 120.974,304.0156 L120.974,305.9375 Q120.5287,305.5273 120.1097,305.3369 Q119.6908,305.1465 119.2455,305.1465 Q118.2963,305.1465 117.8129,305.8994 Q117.3295,306.6523 117.3295,308.1348 Q117.3295,309.6113 117.8129,310.3643 Q118.2963,311.1172 119.2455,311.1172 Q119.6908,311.1172 120.1097,310.9268 Q120.5287,310.7363 120.974,310.3262 Z " fill="#CAD3F5"/><text fill="#A6DA95" font-family="Helvetica" font-size="16" lengthAdjust="spacing" textLength="62.2656" x="131.14" y="312.3203">IdMonad</text></g><!--class ReaderMonad--><g id="elem_ReaderMonad"><rect codeLine="17" fill="#24273A" height="28" id="ReaderMonad" rx="1.5" ry="1.5" style="stroke:#C6A0F6;stroke-width:2.0;" width="141.7422" x="80.4" y="231"/><rect fill="#363A4F" height="28" rx="1.5" ry="1.5" style="stroke:#363A4F;stroke-width:2.0;" width="141.7422" x="80.4" y="231"/><rect fill="#363A4F" height="1.5" style="stroke:#363A4F;stroke-width:2.0;" width="141.7422" x="80.4" y="257.5"/><rect codeLine="17" fill="none" height="28" id="ReaderMonad" rx="1.5" ry="1.5" style="stroke:#C6A0F6;stroke-width:2.0;" width="141.7422" x="80.4" y="231"/><ellipse cx="93.4" cy="245" fill="#FFFFFF" rx="9" ry="9" style="stroke:#000000;stroke-width:1.0;"/><path d="M95.234,249.248 Q94.8238,249.459 94.3727,249.5645 Q93.9215,249.6699 93.4234,249.6699 Q91.6539,249.6699 90.7223,248.5039 Q89.7906,247.3379 89.7906,245.1348 Q89.7906,242.9258 90.7223,241.7598 Q91.6539,240.5938 93.4234,240.5938 Q93.9215,240.5938 94.3785,240.6992 Q94.8355,240.8047 95.234,241.0156 L95.234,242.9375 Q94.7887,242.5273 94.3697,242.3369 Q93.9508,242.1465 93.5055,242.1465 Q92.5563,242.1465 92.0729,242.8994 Q91.5895,243.6523 91.5895,245.1348 Q91.5895,246.6113 92.0729,247.3643 Q92.5563,248.1172 93.5055,248.1172 Q93.9508,248.1172 94.3697,247.9268 Q94.7887,247.7363 95.234,247.3262 Z " fill="#CAD3F5"/><text fill="#A6DA95" font-family="Helvetica" font-size="16" lengthAdjust="spacing" textLength="101.3984" x="105.4" y="249.3203">ReaderMonad</text><rect fill="#24273A" height="16.584" style="stroke:#C6A0F6;stroke-width:1.0;stroke-dasharray:2.0,2.0;" width="10.3438" x="214.7984" y="228"/><text fill="#000000" font-family="Verdana" font-size="12" font-style="italic" lengthAdjust="spacing" textLength="8.3438" x="215.7984" y="241.0645">R</text></g><!--class StateMonad--><g id="elem_StateMonad"><rect codeLine="18" fill="#24273A" height="28" id="StateMonad" rx="1.5" ry="1.5" style="stroke:#C6A0F6;stroke-width:2.0;" width="126.4844" x="88.03" y="168"/><rect fill="#363A4F" height="28" rx="1.5" ry="1.5" style="stroke:#363A4F;stroke-width:2.0;" width="126.4844" x="88.03" y="168"/><rect fill="#363A4F" height="1.5" style="stroke:#363A4F;stroke-width:2.0;" width="126.4844" x="88.03" y="194.5"/><rect codeLine="18" fill="none" height="28" id="StateMonad" rx="1.5" ry="1.5" style="stroke:#C6A0F6;stroke-width:2.0;" width="126.4844" x="88.03" y="168"/><ellipse cx="101.03" cy="182" fill="#FFFFFF" rx="9" ry="9" style="stroke:#000000;stroke-width:1.0;"/><path d="M102.864,186.248 Q102.4538,186.459 102.0027,186.5645 Q101.5515,186.6699 101.0534,186.6699 Q99.2839,186.6699 98.3523,185.5039 Q97.4206,184.3379 97.4206,182.1348 Q97.4206,179.9258 98.3523,178.7598 Q99.2839,177.5938 101.0534,177.5938 Q101.5515,177.5938 102.0085,177.6992 Q102.4655,177.8047 102.864,178.0156 L102.864,179.9375 Q102.4187,179.5273 101.9997,179.3369 Q101.5808,179.1465 101.1355,179.1465 Q100.1863,179.1465 99.7029,179.8994 Q99.2195,180.6523 99.2195,182.1348 Q99.2195,183.6113 99.7029,184.3643 Q100.1863,185.1172 101.1355,185.1172 Q101.5808,185.1172 101.9997,184.9268 Q102.4187,184.7363 102.864,184.3262 Z " fill="#CAD3F5"/><text fill="#A6DA95" font-family="Helvetica" font-size="16" lengthAdjust="spacing" textLength="86.2813" x="113.03" y="186.3203">StateMonad</text><rect fill="#24273A" height="16.584" style="stroke:#C6A0F6;stroke-width:1.0;stroke-dasharray:2.0,2.0;" width="10.2031" x="207.3113" y="165"/><text fill="#000000" font-family="Verdana" font-size="12" font-style="italic" lengthAdjust="spacing" textLength="8.2031" x="208.3113" y="178.0645">S</text></g><!--class WriterMonad--><g id="elem_WriterMonad"><rect codeLine="19" fill="#24273A" height="28" id="WriterMonad" rx="1.5" ry="1.5" style="stroke:#C6A0F6;stroke-width:2.0;" width="135.4609" x="83.54" y="105"/><rect fill="#363A4F" height="28" rx="1.5" ry="1.5" style="stroke:#363A4F;stroke-width:2.0;" width="135.4609" x="83.54" y="105"/><rect fill="#363A4F" height="1.5" style="stroke:#363A4F;stroke-width:2.0;" width="135.4609" x="83.54" y="131.5"/><rect codeLine="19" fill="none" height="28" id="WriterMonad" rx="1.5" ry="1.5" style="stroke:#C6A0F6;stroke-width:2.0;" width="135.4609" x="83.54" y="105"/><ellipse cx="96.54" cy="119" fill="#FFFFFF" rx="9" ry="9" style="stroke:#000000;stroke-width:1.0;"/><path d="M98.374,123.248 Q97.9638,123.459 97.5127,123.5645 Q97.0615,123.6699 96.5634,123.6699 Q94.7939,123.6699 93.8623,122.5039 Q92.9306,121.3379 92.9306,119.1348 Q92.9306,116.9258 93.8623,115.7598 Q94.7939,114.5938 96.5634,114.5938 Q97.0615,114.5938 97.5185,114.6992 Q97.9755,114.8047 98.374,115.0156 L98.374,116.9375 Q97.9287,116.5273 97.5097,116.3369 Q97.0908,116.1465 96.6455,116.1465 Q95.6963,116.1465 95.2129,116.8994 Q94.7295,117.6523 94.7295,119.1348 Q94.7295,120.6113 95.2129,121.3643 Q95.6963,122.1172 96.6455,122.1172 Q97.0908,122.1172 97.5097,121.9268 Q97.9287,121.7363 98.374,121.3262 Z " fill="#CAD3F5"/><text fill="#A6DA95" font-family="Helvetica" font-size="16" lengthAdjust="spacing" textLength="91.5781" x="108.54" y="123.3203">WriterMonad</text><rect fill="#24273A" height="16.584" style="stroke:#C6A0F6;stroke-width:1.0;stroke-dasharray:2.0,2.0;" width="13.8828" x="208.1181" y="102"/><text fill="#000000" font-family="Verdana" font-size="12" font-style="italic" lengthAdjust="spacing" textLength="11.8828" x="209.1181" y="115.0645">W</text></g><!--class Monad--><g id="elem_Monad"><rect fill="#24273A" height="28" id="Monad" rx="1.5" ry="1.5" style="stroke:#C6A0F6;stroke-width:2.0;" width="76.9219" x="466.89" y="388"/><rect fill="#363A4F" height="28" rx="1.5" ry="1.5" style="stroke:#363A4F;stroke-width:2.0;" width="76.9219" x="466.89" y="388"/><rect fill="#363A4F" height="1.5" style="stroke:#363A4F;stroke-width:2.0;" width="76.9219" x="466.89" y="414.5"/><rect fill="none" height="28" id="Monad" rx="1.5" ry="1.5" style="stroke:#C6A0F6;stroke-width:2.0;" width="76.9219" x="466.89" y="388"/><ellipse cx="479.89" cy="402" fill="#FFFFFF" rx="9" ry="9" style="stroke:#000000;stroke-width:1.0;"/><path d="M481.724,406.248 Q481.3138,406.459 480.8627,406.5645 Q480.4115,406.6699 479.9134,406.6699 Q478.1439,406.6699 477.2123,405.5039 Q476.2806,404.3379 476.2806,402.1348 Q476.2806,399.9258 477.2123,398.7598 Q478.1439,397.5938 479.9134,397.5938 Q480.4115,397.5938 480.8685,397.6992 Q481.3255,397.8047 481.724,398.0156 L481.724,399.9375 Q481.2787,399.5273 480.8597,399.3369 Q480.4408,399.1465 479.9955,399.1465 Q479.0463,399.1465 478.5629,399.8994 Q478.0795,400.6523 478.0795,402.1348 Q478.0795,403.6113 478.5629,404.3643 Q479.0463,405.1172 479.9955,405.1172 Q480.4408,405.1172 480.8597,404.9268 Q481.2787,404.7363 481.724,404.3262 Z " fill="#CAD3F5"/><text fill="#A6DA95" font-family="Helvetica" font-size="16" lengthAdjust="spacing" textLength="48.9219" x="491.89" y="406.3203">Monad</text></g><!--class MonadError--><g id="elem_MonadError"><rect fill="#24273A" height="28" id="MonadError" rx="1.5" ry="1.5" style="stroke:#C6A0F6;stroke-width:2.0;" width="112.4766" x="449.12" y="451"/><rect fill="#363A4F" height="28" rx="1.5" ry="1.5" style="stroke:#363A4F;stroke-width:2.0;" width="112.4766" x="449.12" y="451"/><rect fill="#363A4F" height="1.5" style="stroke:#363A4F;stroke-width:2.0;" width="112.4766" x="449.12" y="477.5"/><rect fill="none" height="28" id="MonadError" rx="1.5" ry="1.5" style="stroke:#C6A0F6;stroke-width:2.0;" width="112.4766" x="449.12" y="451"/><ellipse cx="462.12" cy="465" fill="#FFFFFF" rx="9" ry="9" style="stroke:#000000;stroke-width:1.0;"/><path d="M463.954,469.248 Q463.5438,469.459 463.0927,469.5645 Q462.6415,469.6699 462.1434,469.6699 Q460.3739,469.6699 459.4423,468.5039 Q458.5106,467.3379 458.5106,465.1348 Q458.5106,462.9258 459.4423,461.7598 Q460.3739,460.5938 462.1434,460.5938 Q462.6415,460.5938 463.0985,460.6992 Q463.5555,460.8047 463.954,461.0156 L463.954,462.9375 Q463.5087,462.5273 463.0897,462.3369 Q462.6708,462.1465 462.2255,462.1465 Q461.2763,462.1465 460.7929,462.8994 Q460.3095,463.6523 460.3095,465.1348 Q460.3095,466.6113 460.7929,467.3643 Q461.2763,468.1172 462.2255,468.1172 Q462.6708,468.1172 463.0897,467.9268 Q463.5087,467.7363 463.954,467.3262 Z " fill="#CAD3F5"/><text fill="#A6DA95" font-family="Helvetica" font-size="16" lengthAdjust="spacing" textLength="84.4766" x="474.12" y="469.3203">MonadError</text></g><!--class OptionalKind--><g id="elem_OptionalKind"><rect fill="#24273A" height="28" id="OptionalKind" rx="1.5" ry="1.5" style="stroke:#C6A0F6;stroke-width:2.0;" width="119.6172" x="445.55" y="711"/><rect fill="#363A4F" height="28" rx="1.5" ry="1.5" style="stroke:#363A4F;stroke-width:2.0;" width="119.6172" x="445.55" y="711"/><rect fill="#363A4F" height="1.5" style="stroke:#363A4F;stroke-width:2.0;" width="119.6172" x="445.55" y="737.5"/><rect fill="none" height="28" id="OptionalKind" rx="1.5" ry="1.5" style="stroke:#C6A0F6;stroke-width:2.0;" width="119.6172" x="445.55" y="711"/><ellipse cx="458.55" cy="725" fill="#FFFFFF" rx="9" ry="9" style="stroke:#000000;stroke-width:1.0;"/><path d="M460.384,729.248 Q459.9738,729.459 459.5227,729.5645 Q459.0715,729.6699 458.5734,729.6699 Q456.8039,729.6699 455.8723,728.5039 Q454.9406,727.3379 454.9406,725.1348 Q454.9406,722.9258 455.8723,721.7598 Q456.8039,720.5938 458.5734,720.5938 Q459.0715,720.5938 459.5285,720.6992 Q459.9855,720.8047 460.384,721.0156 L460.384,722.9375 Q459.9387,722.5273 459.5197,722.3369 Q459.1008,722.1465 458.6555,722.1465 Q457.7063,722.1465 457.2229,722.8994 Q456.7395,723.6523 456.7395,725.1348 Q456.7395,726.6113 457.2229,727.3643 Q457.7063,728.1172 458.6555,728.1172 Q459.1008,728.1172 459.5197,727.9268 Q459.9387,727.7363 460.384,727.3262 Z " fill="#CAD3F5"/><text fill="#A6DA95" font-family="Helvetica" font-size="16" lengthAdjust="spacing" textLength="91.6172" x="470.55" y="729.3203">OptionalKind</text></g><!--reverse link ListMonad to Monad--><g id="link_ListMonad_Monad"><path codeLine="21" d="M220.0743,66.7909 C243.2143,71.4609 252.88,75.35 275.55,87 C347.06,123.76 364.96,139.93 413.55,204 C459.82,265.02 489.71,353.39 500.18,387.67 " fill="none" id="ListMonad-backto-Monad" style="stroke:#F5BDE6;stroke-width:1.0;stroke-dasharray:7.0,7.0;"/><polygon fill="none" points="202.43,63.23,218.8873,72.6723,221.2612,60.9095,202.43,63.23" style="stroke:#F5BDE6;stroke-width:1.0;"/></g><!--reverse link OptionalMonad to MonadError--><g id="link_OptionalMonad_MonadError"><path codeLine="22" d="M237.2292,730.8909 C255.6092,726.2809 257.87,724.9 275.55,718 C340.58,692.62 364.83,693 413.55,643 C462.21,593.05 490.44,511.81 500.32,479.2 " fill="none" id="OptionalMonad-backto-MonadError" style="stroke:#F5BDE6;stroke-width:1.0;stroke-dasharray:7.0,7.0;"/><polygon fill="none" points="219.77,735.27,238.6889,736.7107,235.7695,725.0712,219.77,735.27" style="stroke:#F5BDE6;stroke-width:1.0;"/></g><!--reverse link MaybeMonad to MonadError--><g id="link_MaybeMonad_MonadError"><path codeLine="23" d="M231.6987,668.9501 C251.5687,664.1101 255.99,662.25 275.55,655 C289.52,649.82 292.14,646.52 305.55,640 C353.29,616.8 372.61,622.79 413.55,589 C452.44,556.9 483.4,504.61 496.94,479.44 " fill="none" id="MaybeMonad-backto-MonadError" style="stroke:#F5BDE6;stroke-width:1.0;stroke-dasharray:7.0,7.0;"/><polygon fill="none" points="214.21,673.21,233.1186,674.7796,230.2787,663.1205,214.21,673.21" style="stroke:#F5BDE6;stroke-width:1.0;"/></g><!--reverse link EitherMonad to MonadError--><g id="link_EitherMonad_MonadError"><path codeLine="24" d="M233.7748,605.0035 C253.0448,600.2435 256.62,598.7 275.55,592 C339.28,569.43 354.89,561.62 413.55,528 C439.68,513.02 467.92,492.72 485.84,479.26 " fill="none" id="EitherMonad-backto-MonadError" style="stroke:#F5BDE6;stroke-width:1.0;stroke-dasharray:7.0,7.0;"/><polygon fill="none" points="216.3,609.32,235.2136,610.8284,232.3359,599.1785,216.3,609.32" style="stroke:#F5BDE6;stroke-width:1.0;"/></g><!--reverse link CompletableFutureMonadError to MonadError--><g id="link_CompletableFutureMonadError_MonadError"><path codeLine="25" d="M228.4316,541.1503 C248.8916,536.0303 254.53,534.54 275.55,529 C337.07,512.8 352.3,508.2 413.55,491 C426.81,487.28 441.14,483.2 454.42,479.4 " fill="none" id="CompletableFutureMonadError-backto-MonadError" style="stroke:#F5BDE6;stroke-width:1.0;stroke-dasharray:7.0,7.0;"/><polygon fill="none" points="210.97,545.52,229.8881,546.9709,226.975,535.3298,210.97,545.52" style="stroke:#F5BDE6;stroke-width:1.0;"/></g><!--reverse link TryMonadError to MonadError--><g id="link_TryMonadError_MonadError"><path codeLine="26" d="M237.2561,489.2801 C303.7961,483.2301 386.65,475.7 448.84,470.05 " fill="none" id="TryMonadError-backto-MonadError" style="stroke:#F5BDE6;stroke-width:1.0;stroke-dasharray:7.0,7.0;"/><polygon fill="none" points="219.33,490.91,237.7994,495.2555,236.7128,483.3048,219.33,490.91" style="stroke:#F5BDE6;stroke-width:1.0;"/></g><!--reverse link IdMonad to Monad--><g id="link_IdMonad_Monad"><path codeLine="27" d="M214.3082,323.2929 C237.7582,329.1229 249.51,332.14 275.55,339 C343.08,356.79 421.49,378.64 466.77,391.37 " fill="none" id="IdMonad-backto-Monad" style="stroke:#F5BDE6;stroke-width:1.0;stroke-dasharray:7.0,7.0;"/><polygon fill="none" points="196.84,318.95,212.8606,329.1156,215.7559,317.4701,196.84,318.95" style="stroke:#F5BDE6;stroke-width:1.0;"/></g><!--reverse link IOMonad to Monad--><g id="link_IOMonad_Monad"><path codeLine="28" d="M216.5863,428.1529 C286.9863,421.7629 401.53,411.35 466.49,405.44 " fill="none" id="IOMonad-backto-Monad" style="stroke:#F5BDE6;stroke-width:1.0;stroke-dasharray:7.0,7.0;"/><polygon fill="none" points="198.66,429.78,217.1287,434.1283,216.0439,422.1774,198.66,429.78" style="stroke:#F5BDE6;stroke-width:1.0;"/></g><!--reverse link LazyMonad to Monad--><g id="link_LazyMonad_Monad"><path codeLine="29" d="M224.8307,377.3878 C296.8807,383.7278 403.89,393.15 466.42,398.66 " fill="none" id="LazyMonad-backto-Monad" style="stroke:#F5BDE6;stroke-width:1.0;stroke-dasharray:7.0,7.0;"/><polygon fill="none" points="206.9,375.81,224.3048,383.3647,225.3566,371.4109,206.9,375.81" style="stroke:#F5BDE6;stroke-width:1.0;"/></g><!--reverse link ReaderMonad to Monad--><g id="link_ReaderMonad_Monad"><path codeLine="30" d="M239.8114,263.7593 C257.4514,268.2593 258.71,269.37 275.55,276 C355.94,307.63 443.39,361.96 482.87,387.69 " fill="none" id="ReaderMonad-backto-Monad" style="stroke:#F5BDE6;stroke-width:1.0;stroke-dasharray:7.0,7.0;"/><polygon fill="none" points="222.37,259.31,238.3283,269.5732,241.2945,257.9455,222.37,259.31" style="stroke:#F5BDE6;stroke-width:1.0;"/></g><!--reverse link StateMonad to Monad--><g id="link_StateMonad_Monad"><path codeLine="31" d="M232.3486,197.4171 C252.2586,202.1671 256.52,204.46 275.55,213 C343.24,243.41 356.93,259.02 413.55,307 C444.18,332.96 475.62,368.13 492.27,387.57 " fill="none" id="StateMonad-backto-Monad" style="stroke:#F5BDE6;stroke-width:1.0;stroke-dasharray:7.0,7.0;"/><polygon fill="none" points="214.84,193.24,230.9563,203.2533,233.741,191.5809,214.84,193.24" style="stroke:#F5BDE6;stroke-width:1.0;"/></g><!--reverse link WriterMonad to Monad--><g id="link_WriterMonad_Monad"><path codeLine="32" d="M236.8256,134.763 C255.5856,139.393 258.12,141.42 275.55,150 C345.67,184.52 361.19,200.97 413.55,259 C451.37,300.92 483.54,360.4 497.26,387.52 " fill="none" id="WriterMonad-backto-Monad" style="stroke:#F5BDE6;stroke-width:1.0;stroke-dasharray:7.0,7.0;"/><polygon fill="none" points="219.35,130.45,235.388,140.5882,238.2633,128.9378,219.35,130.45" style="stroke:#F5BDE6;stroke-width:1.0;"/></g><!--link OptionalMonad to OptionalKind--><g id="link_OptionalMonad_OptionalKind"><path codeLine="35" d="M219.74,744.4 C285.04,739.95 377.0339,733.6775 439.3239,729.4375 " fill="none" id="OptionalMonad-to-OptionalKind" style="stroke:#F5BDE6;stroke-width:1.0;stroke-dasharray:7.0,7.0;"/><polygon fill="#F5BDE6" points="445.31,729.03,436.0591,725.6504,440.3215,729.3696,436.6024,733.632,445.31,729.03" style="stroke:#F5BDE6;stroke-width:1.0;"/><text fill="#CAD3F5" font-family="Helvetica" font-size="12" lengthAdjust="spacing" textLength="106.7285" x="306.55" y="727.6802">operates on witness</text></g><!--SRC=[ZPDBRzim48Jl_1KRNTeUJDq38vV21OmuI107o9cYrXPHla0kaQgF_rvQiYF6JIFh90m-ZfOpgolgq21uBPHbLyfAdLg4ZiZ7wxeEueNl5NMfIH63T9RG4fVEr5QwI6AXP2q5UP-aL7PXX9IT4kGMsSzICdensDSckzV3A_TPPPtA7q7ZgGU3fi4G6TEu8o07GUqxWbO5bAISPSmB-Lti4Qfjyju5mXQUUeyHFjyvArfO6w-pioLnuEEN2duno8_K8aROg4W3LsZt_a0AVQxVYRx1Sx5QvG0m3F9oSrE1Y5181VdL7IOXqMZybYY5qMeLWWi5zHJwT_Nr_RdVHlpipxLr-yzyZoZQqtoFuto5L9BR7D4ur78xWfDISiz1qSdnUGGBYGteQwwm_Crvldl0TLwFi1CI8vyitsJzVtPAOohX4hfeuXByWuekEVwckqiE7EkQoUXO_GprkWupN57-33crFmCMxNz03kWdMFqGXv0Xe1x-IDZbh4vhyCvES7wJLrEPTCGVT3ADidj-mcwLRIku1kSnv84ZPEX5aSKOsH_6s5y0]--></g></svg>