<svg xmlns="http://www.w3.org/2000/svg" xmlns:xlink="http://www.w3.org/1999/xlink" contentStyleType="text/css" data-diagram-type="CLASS" height="334px" preserveAspectRatio="none" style="width:743px;height:334px;background:#24273A;" version="1.1" viewBox="0 0 743 334" width="743px" zoomAndPan="magnify"><defs/><g><rect fill="#24273A" height="334" style="stroke:none;stroke-width:1;" width="743" x="0" y="0"/><!--cluster Transformers--><g class="cluster" data-entity="Transformers" data-source-line="6" data-uid="ent0002" id="cluster_Transformers"><path d="M12.5,11 L106.4727,11 A2.25,2.25 0 0 1 107.9727,12.5 L114.9727,30.9688 L734.61,30.9688 A1.5,1.5 0 0 1 736.11,32.4688 L736.11,325.5 A1.5,1.5 0 0 1 734.61,327 L12.5,327 A1.5,1.5 0 0 1 11,325.5 L11,12.5 A1.5,1.5 0 0 1 12.5,11" fill="#24273A" style="stroke:#CAD3F5;stroke-width:1;"/><line style="stroke:#CAD3F5;stroke-width:1;" x1="11" x2="114.9727" y1="30.9688" y2="30.9688"/><text fill="#CAD3F5" font-family="Helvetica" font-size="12" font-weight="bold" lengthAdjust="spacing" textLength="90.9727" x="15" y="24.1387">Transformers</text></g><!--cluster CoreInterfaces--><g class="cluster" data-entity="CoreInterfaces" data-source-line="13" data-uid="ent0007" id="cluster_CoreInterfaces"><path d="M560.28,51 L662.9011,51 A2.25,2.25 0 0 1 664.4011,52.5 L671.4011,70.9688 L710.61,70.9688 A1.5,1.5 0 0 1 712.11,72.4688 L712.11,301.5 A1.5,1.5 0 0 1 710.61,303 L560.28,303 A1.5,1.5 0 0 1 558.78,301.5 L558.78,52.5 A1.5,1.5 0 0 1 560.28,51" fill="#24273A" style="stroke:#CAD3F5;stroke-width:1;"/><line style="stroke:#CAD3F5;stroke-width:1;" x1="558.78" x2="671.4011" y1="70.9688" y2="70.9688"/><text fill="#CAD3F5" font-family="Helvetica" font-size="12" font-weight="bold" lengthAdjust="spacing" textLength="99.6211" x="562.78" y="64.1387">CoreInterfaces</text></g><!--class EitherTMonad--><g class="entity" data-entity="EitherTMonad" data-source-line="7" data-uid="ent0003" id="entity_EitherTMonad"><rect fill="#24273A" height="44.625" rx="1.5" ry="1.5" style="stroke:#C6A0F6;stroke-width:2;" width="164.0762" x="250.53" y="236.69"/><rect fill="#363A4F" height="28.625" rx="1.5" ry="1.5" style="stroke:#363A4F;stroke-width:2;" width="164.0762" x="250.53" y="236.69"/><rect fill="#363A4F" height="1.5" style="stroke:#363A4F;stroke-width:2;" width="164.0762" x="250.53" y="263.815"/><rect fill="none" height="44.625" rx="1.5" ry="1.5" style="stroke:#C6A0F6;stroke-width:2;" width="164.0762" x="250.53" y="236.69"/><ellipse cx="263.53" cy="251.0025" fill="#FFFFFF" rx="9" ry="9" style="stroke:#000000;stroke-width:1;"/><path d="M265.3581,255.2525 Q264.9519,255.4556 264.4988,255.565 Q264.0456,255.6744 263.5613,255.6744 Q261.78,255.6744 260.8425,254.5181 Q259.9206,253.3463 259.9206,251.1431 Q259.9206,248.9244 260.8425,247.7681 Q261.78,246.5963 263.5613,246.5963 Q264.0456,246.5963 264.4988,246.7056 Q264.9675,246.7994 265.3581,247.0181 L265.3581,248.94 Q264.9206,248.5338 264.4988,248.3463 Q264.0769,248.1431 263.6394,248.1431 Q262.6863,248.1431 262.2019,248.9088 Q261.7175,249.6588 261.7175,251.1431 Q261.7175,252.6119 262.2019,253.3619 Q262.6863,254.1119 263.6394,254.1119 Q264.0769,254.1119 264.4988,253.9244 Q264.9206,253.7369 265.3581,253.3306 L265.3581,255.2525 Z " fill="#CAD3F5"/><text fill="#A6DA95" font-family="Helvetica" font-size="16" lengthAdjust="spacing" textLength="110.8594" x="275.53" y="256.5416">EitherTMonad</text><rect fill="#24273A" height="15.9688" style="stroke:#C6A0F6;stroke-width:1;stroke-dasharray:2.0,2.0;" width="23.2168" x="394.3894" y="233.69"/><text fill="#000000" font-family="Verdana" font-size="12" font-style="italic" lengthAdjust="spacing" textLength="21.2168" x="395.3894" y="245.8287">F, L</text><line style="stroke:#C6A0F6;stroke-width:2;" x1="251.53" x2="413.6062" y1="265.315" y2="265.315"/><line style="stroke:#C6A0F6;stroke-width:2;" x1="251.53" x2="413.6062" y1="273.315" y2="273.315"/></g><!--class EitherT--><g class="entity" data-entity="EitherT" data-source-line="8" data-uid="ent0004" id="entity_EitherT"><rect fill="#24273A" height="44.625" rx="1.5" ry="1.5" style="stroke:#C6A0F6;stroke-width:2;" width="126.3477" x="27" y="70.69"/><rect fill="#363A4F" height="28.625" rx="1.5" ry="1.5" style="stroke:#363A4F;stroke-width:2;" width="126.3477" x="27" y="70.69"/><rect fill="#363A4F" height="1.5" style="stroke:#363A4F;stroke-width:2;" width="126.3477" x="27" y="97.815"/><rect fill="none" height="44.625" rx="1.5" ry="1.5" style="stroke:#C6A0F6;stroke-width:2;" width="126.3477" x="27" y="70.69"/><ellipse cx="40" cy="85.0025" fill="#FFFFFF" rx="9" ry="9" style="stroke:#000000;stroke-width:1;"/><path d="M41.8281,89.2525 Q41.4219,89.4556 40.9688,89.565 Q40.5156,89.6744 40.0313,89.6744 Q38.25,89.6744 37.3125,88.5181 Q36.3906,87.3463 36.3906,85.1431 Q36.3906,82.9244 37.3125,81.7681 Q38.25,80.5963 40.0313,80.5963 Q40.5156,80.5963 40.9688,80.7056 Q41.4375,80.7994 41.8281,81.0181 L41.8281,82.94 Q41.3906,82.5338 40.9688,82.3463 Q40.5469,82.1431 40.1094,82.1431 Q39.1563,82.1431 38.6719,82.9088 Q38.1875,83.6588 38.1875,85.1431 Q38.1875,86.6119 38.6719,87.3619 Q39.1563,88.1119 40.1094,88.1119 Q40.5469,88.1119 40.9688,87.9244 Q41.3906,87.7369 41.8281,87.3306 L41.8281,89.2525 Z " fill="#CAD3F5"/><text fill="#A6DA95" font-family="Helvetica" font-size="16" lengthAdjust="spacing" textLength="57.1641" x="52" y="90.5416">EitherT</text><rect fill="#24273A" height="15.9688" style="stroke:#C6A0F6;stroke-width:1;stroke-dasharray:2.0,2.0;" width="39.1836" x="117.1641" y="67.69"/><text fill="#000000" font-family="Verdana" font-size="12" font-style="italic" lengthAdjust="spacing" textLength="37.1836" x="118.1641" y="79.8287">F, L, R</text><line style="stroke:#C6A0F6;stroke-width:2;" x1="28" x2="152.3477" y1="99.315" y2="99.315"/><line style="stroke:#C6A0F6;stroke-width:2;" x1="28" x2="152.3477" y1="107.315" y2="107.315"/></g><!--class EitherTKind--><g class="entity" data-entity="EitherTKind" data-source-line="9" data-uid="ent0005" id="entity_EitherTKind"><rect fill="#24273A" height="57.5781" rx="1.5" ry="1.5" style="stroke:#C6A0F6;stroke-width:2;" width="236.4336" x="214.35" y="137.21"/><rect fill="#363A4F" height="28.625" rx="1.5" ry="1.5" style="stroke:#363A4F;stroke-width:2;" width="236.4336" x="214.35" y="137.21"/><rect fill="#363A4F" height="1.5" style="stroke:#363A4F;stroke-width:2;" width="236.4336" x="214.35" y="164.335"/><rect fill="none" height="57.5781" rx="1.5" ry="1.5" style="stroke:#C6A0F6;stroke-width:2;" width="236.4336" x="214.35" y="137.21"/><ellipse cx="262.0258" cy="151.5225" fill="#FFFFFF" rx="9" ry="9" style="stroke:#000000;stroke-width:1;"/><path d="M259.0414,148.8038 L259.0414,147.2725 L264.2445,147.2725 L264.2445,148.8038 L262.5102,148.8038 L262.5102,154.4913 L264.2445,154.4913 L264.2445,156.0225 L259.0414,156.0225 L259.0414,154.4913 L260.7758,154.4913 L260.7758,148.8038 L259.0414,148.8038 Z " fill="#CAD3F5"/><text fill="#A6DA95" font-family="Helvetica" font-size="16" font-style="italic" lengthAdjust="spacing" textLength="92.3984" x="279.5258" y="157.0616">EitherTKind</text><rect fill="#24273A" height="15.9688" style="stroke:#C6A0F6;stroke-width:1;stroke-dasharray:2.0,2.0;" width="39.1836" x="414.6" y="134.21"/><text fill="#000000" font-family="Verdana" font-size="12" font-style="italic" lengthAdjust="spacing" textLength="37.1836" x="415.6" y="146.3487">F, L, R</text><line style="stroke:#C6A0F6;stroke-width:2;" x1="215.35" x2="449.7836" y1="165.835" y2="165.835"/><line style="stroke:#C6A0F6;stroke-width:2;" x1="215.35" x2="218.35" y1="180.8194" y2="180.8194"/><text fill="#A6DA95" font-family="Helvetica" font-size="12" lengthAdjust="spacing" textLength="228.4336" x="218.35" y="184.4737">Witness Type G = EitherTKind&lt;F,L,?&gt;</text><line style="stroke:#C6A0F6;stroke-width:2;" x1="446.7836" x2="449.7836" y1="180.8194" y2="180.8194"/></g><!--class MonadError--><g class="entity" data-entity="MonadError" data-source-line="13" data-uid="ent0006" id="entity_MonadError"><rect fill="#24273A" height="44.625" rx="1.5" ry="1.5" style="stroke:#C6A0F6;stroke-width:2;" width="121.3281" x="574.78" y="242.69"/><rect fill="#363A4F" height="28.625" rx="1.5" ry="1.5" style="stroke:#363A4F;stroke-width:2;" width="121.3281" x="574.78" y="242.69"/><rect fill="#363A4F" height="1.5" style="stroke:#363A4F;stroke-width:2;" width="121.3281" x="574.78" y="269.815"/><rect fill="none" height="44.625" rx="1.5" ry="1.5" style="stroke:#C6A0F6;stroke-width:2;" width="121.3281" x="574.78" y="242.69"/><ellipse cx="587.78" cy="257.0025" fill="#FFFFFF" rx="9" ry="9" style="stroke:#000000;stroke-width:1;"/><path d="M589.6081,261.2525 Q589.2019,261.4556 588.7488,261.565 Q588.2956,261.6744 587.8113,261.6744 Q586.03,261.6744 585.0925,260.5181 Q584.1706,259.3463 584.1706,257.1431 Q584.1706,254.9244 585.0925,253.7681 Q586.03,252.5963 587.8113,252.5963 Q588.2956,252.5963 588.7488,252.7056 Q589.2175,252.7994 589.6081,253.0181 L589.6081,254.94 Q589.1706,254.5338 588.7488,254.3463 Q588.3269,254.1431 587.8894,254.1431 Q586.9363,254.1431 586.4519,254.9088 Q585.9675,255.6588 585.9675,257.1431 Q585.9675,258.6119 586.4519,259.3619 Q586.9363,260.1119 587.8894,260.1119 Q588.3269,260.1119 588.7488,259.9244 Q589.1706,259.7369 589.6081,259.3306 L589.6081,261.2525 Z " fill="#CAD3F5"/><text fill="#A6DA95" font-family="Helvetica" font-size="16" lengthAdjust="spacing" textLength="93.3281" x="599.78" y="262.5416">MonadError</text><line style="stroke:#C6A0F6;stroke-width:2;" x1="575.78" x2="695.1081" y1="271.315" y2="271.315"/><line style="stroke:#C6A0F6;stroke-width:2;" x1="575.78" x2="695.1081" y1="279.315" y2="279.315"/></g><!--class Kind--><g class="entity" data-entity="Kind" data-source-line="15" data-uid="ent0010" id="entity_Kind"><rect fill="#24273A" height="44.625" rx="1.5" ry="1.5" style="stroke:#C6A0F6;stroke-width:2;" width="63.2344" x="603.83" y="82.69"/><rect fill="#363A4F" height="28.625" rx="1.5" ry="1.5" style="stroke:#363A4F;stroke-width:2;" width="63.2344" x="603.83" y="82.69"/><rect fill="#363A4F" height="1.5" style="stroke:#363A4F;stroke-width:2;" width="63.2344" x="603.83" y="109.815"/><rect fill="none" height="44.625" rx="1.5" ry="1.5" style="stroke:#C6A0F6;stroke-width:2;" width="63.2344" x="603.83" y="82.69"/><ellipse cx="616.83" cy="97.0025" fill="#FFFFFF" rx="9" ry="9" style="stroke:#000000;stroke-width:1;"/><path d="M618.6581,101.2525 Q618.2519,101.4556 617.7988,101.565 Q617.3456,101.6744 616.8613,101.6744 Q615.08,101.6744 614.1425,100.5181 Q613.2206,99.3463 613.2206,97.1431 Q613.2206,94.9244 614.1425,93.7681 Q615.08,92.5963 616.8613,92.5963 Q617.3456,92.5963 617.7988,92.7056 Q618.2675,92.7994 618.6581,93.0181 L618.6581,94.94 Q618.2206,94.5338 617.7988,94.3463 Q617.3769,94.1431 616.9394,94.1431 Q615.9863,94.1431 615.5019,94.9088 Q615.0175,95.6588 615.0175,97.1431 Q615.0175,98.6119 615.5019,99.3619 Q615.9863,100.1119 616.9394,100.1119 Q617.3769,100.1119 617.7988,99.9244 Q618.2206,99.7369 618.6581,99.3306 L618.6581,101.2525 Z " fill="#CAD3F5"/><text fill="#A6DA95" font-family="Helvetica" font-size="16" lengthAdjust="spacing" textLength="35.2344" x="628.83" y="102.5416">Kind</text><line style="stroke:#C6A0F6;stroke-width:2;" x1="604.83" x2="666.0644" y1="111.315" y2="111.315"/><line style="stroke:#C6A0F6;stroke-width:2;" x1="604.83" x2="666.0644" y1="119.315" y2="119.315"/></g><!--class Monad--><g class="entity" data-entity="Monad" data-source-line="16" data-uid="ent0012" id="entity_Monad"><rect fill="#24273A" height="44.625" rx="1.5" ry="1.5" style="stroke:#C6A0F6;stroke-width:2;" width="81.6953" x="594.6" y="162.69"/><rect fill="#363A4F" height="28.625" rx="1.5" ry="1.5" style="stroke:#363A4F;stroke-width:2;" width="81.6953" x="594.6" y="162.69"/><rect fill="#363A4F" height="1.5" style="stroke:#363A4F;stroke-width:2;" width="81.6953" x="594.6" y="189.815"/><rect fill="none" height="44.625" rx="1.5" ry="1.5" style="stroke:#C6A0F6;stroke-width:2;" width="81.6953" x="594.6" y="162.69"/><ellipse cx="607.6" cy="177.0025" fill="#FFFFFF" rx="9" ry="9" style="stroke:#000000;stroke-width:1;"/><path d="M609.4281,181.2525 Q609.0219,181.4556 608.5688,181.565 Q608.1156,181.6744 607.6313,181.6744 Q605.85,181.6744 604.9125,180.5181 Q603.9906,179.3463 603.9906,177.1431 Q603.9906,174.9244 604.9125,173.7681 Q605.85,172.5963 607.6313,172.5963 Q608.1156,172.5963 608.5688,172.7056 Q609.0375,172.7994 609.4281,173.0181 L609.4281,174.94 Q608.9906,174.5338 608.5688,174.3463 Q608.1469,174.1431 607.7094,174.1431 Q606.7563,174.1431 606.2719,174.9088 Q605.7875,175.6588 605.7875,177.1431 Q605.7875,178.6119 606.2719,179.3619 Q606.7563,180.1119 607.7094,180.1119 Q608.1469,180.1119 608.5688,179.9244 Q608.9906,179.7369 609.4281,179.3306 L609.4281,181.2525 Z " fill="#CAD3F5"/><text fill="#A6DA95" font-family="Helvetica" font-size="16" lengthAdjust="spacing" textLength="53.6953" x="619.6" y="182.5416">Monad</text><line style="stroke:#C6A0F6;stroke-width:2;" x1="595.6" x2="675.2953" y1="191.315" y2="191.315"/><line style="stroke:#C6A0F6;stroke-width:2;" x1="595.6" x2="675.2953" y1="199.315" y2="199.315"/></g><!--reverse link EitherTMonad to MonadError--><g class="link" data-entity-1="EitherTMonad" data-entity-2="MonadError" data-source-line="13" data-uid="lnk8" id="link_EitherTMonad_MonadError"><path codeLine="13" d="M432.9864,260.9814 C483.2764,261.9914 528.72,262.89 574.44,263.8" fill="none" id="EitherTMonad-backto-MonadError" style="stroke:#F5BDE6;stroke-width:1;stroke-dasharray:7.0,7.0;"/><polygon fill="none" points="414.99,260.62,432.8659,266.9802,433.1068,254.9826,414.99,260.62" style="stroke:#F5BDE6;stroke-width:1;"/></g><!--reverse link EitherT to EitherTKind--><g class="link" data-entity-1="EitherT" data-entity-2="EitherTKind" data-source-line="14" data-uid="lnk9" id="link_EitherT_EitherTKind"><path codeLine="14" d="M170.9336,117.2193 C195.8336,124.7793 207.84,128.43 235.32,136.77" fill="none" id="EitherT-backto-EitherTKind" style="stroke:#F5BDE6;stroke-width:1;stroke-dasharray:7.0,7.0;"/><polygon fill="none" points="153.71,111.99,169.1905,122.9606,172.6768,111.4781,153.71,111.99" style="stroke:#F5BDE6;stroke-width:1;"/></g><!--reverse link EitherTKind to Kind--><g class="link" data-entity-1="EitherTKind" data-entity-2="Kind" data-source-line="15" data-uid="lnk11" id="link_EitherTKind_Kind"><path codeLine="15" d="M468.8311,138.5737 C523.8811,127.4137 567.45,118.58 603.36,111.3" fill="none" id="EitherTKind-backto-Kind" style="stroke:#F5BDE6;stroke-width:1;stroke-dasharray:7.0,7.0;"/><polygon fill="none" points="451.19,142.15,470.0232,144.4541,467.639,132.6933,451.19,142.15" style="stroke:#F5BDE6;stroke-width:1;"/></g><!--link EitherTMonad to Monad--><g class="link" data-entity-1="EitherTMonad" data-entity-2="Monad" data-source-line="16" data-uid="lnk13" id="link_EitherTMonad_Monad"><path codeLine="16" d="M414.99,238.97 C473.12,224.68 542.9738,207.5039 588.5638,196.2839" fill="none" id="EitherTMonad-to-Monad" style="stroke:#F5BDE6;stroke-width:1;stroke-dasharray:7.0,7.0;"/><polygon fill="#F5BDE6" points="594.39,194.85,584.6949,193.1167,589.5349,196.0449,586.6067,200.8849,594.39,194.85" style="stroke:#F5BDE6;stroke-width:1;"/><text fill="#CAD3F5" font-family="Helvetica" font-size="12" lengthAdjust="spacing" textLength="60.1582" x="481.78" y="206.1387">requires F</text></g><!--link EitherT to Kind--><g class="link" data-entity-1="EitherT" data-entity-2="Kind" data-source-line="17" data-uid="lnk14" id="link_EitherT_Kind"><path codeLine="17" d="M153.76,94.38 C270.39,96.96 510.9715,102.2777 597.5815,104.1877" fill="none" id="EitherT-to-Kind" style="stroke:#F5BDE6;stroke-width:1;stroke-dasharray:7.0,7.0;"/><polygon fill="#F5BDE6" points="603.58,104.32,594.6704,100.1225,598.5812,104.2098,594.494,108.1206,603.58,104.32" style="stroke:#F5BDE6;stroke-width:1;"/><text fill="#CAD3F5" font-family="Helvetica" font-size="12" lengthAdjust="spacing" textLength="175.3418" x="245.06" y="93.1387">wraps Kind&lt;F, Either&lt;L,R&gt;&gt;</text></g><!--SRC=[RP51Ry8m38Nl-HM6SvlU4UiE4qpJs0KXxOWorz28DiaSLsZQ-EyBhPYerbmIsP_VUqbcKbDB41fZdPfPXqrN4TGY8IwAWirP7wtKtKSNYT4x8ISQVLiuz55CRh508o5qYDRbhK6ihH6V9pqdNTlalNpH9lMYF-gGgaerT10G3soFjK1bcL2iTqe5WoTp9DYnSV7WkIMEyAtWkh0nCS9ybG8HxzwyCzLodS6cd8E9S5-UudiqW-s87a2RxiK7W_G7lrfNJGvS6xSyQUtty6x5KVBPVGM2PtY0iSGcUomJDanSrB3VPuNbZzRmv9bURZ6YxZihPi-ZWO6zCnXr-snJQl_8mLZhSj8N5i3qsQLFYR0U-q-CzAuBEBC94MxlDl3BJROjItNv1G00]--></g></svg>