<svg xmlns="http://www.w3.org/2000/svg" xmlns:xlink="http://www.w3.org/1999/xlink" contentStyleType="text/css" height="864px" preserveAspectRatio="none" style="width:1368px;height:864px;background:#24273A;" version="1.1" viewBox="0 0 1368 864" width="1368px" zoomAndPan="magnify"><defs/><g><rect fill="#24273A" height="864" style="stroke:none;stroke-width:1.2;" width="1368" x="0" y="0"/><!--class Try--><g id="elem_Try"><rect codeLine="7" fill="#24273A" height="36" id="Try" rx="1.8" ry="1.8" style="stroke:#C6A0F6;stroke-width:2.4;" width="77.318" x="802.044" y="694.8"/><rect fill="#363A4F" height="36" rx="1.8" ry="1.8" style="stroke:#363A4F;stroke-width:2.4;" width="77.318" x="802.044" y="694.8"/><rect fill="#363A4F" height="1.8" style="stroke:#363A4F;stroke-width:2.4;" width="77.318" x="802.044" y="729"/><rect codeLine="7" fill="none" height="36" id="Try" rx="1.8" ry="1.8" style="stroke:#C6A0F6;stroke-width:2.4;" width="77.318" x="802.044" y="694.8"/><ellipse cx="818.844" cy="712.8" fill="#B4A7E5" rx="12" ry="12" style="stroke:#181818;stroke-width:1.2;"/><path d="M815.2534,709.5305 L815.2534,707.7023 L821.5042,707.7023 L821.5042,709.5305 L819.4159,709.5305 L819.4159,716.3719 L821.5042,716.3719 L821.5042,718.2 L815.2534,718.2 L815.2534,716.3719 L817.3417,716.3719 L817.3417,709.5305 Z " fill="#CAD3F5"/><text fill="#A6DA95" font-family="Helvetica" font-size="19.2" font-style="italic" lengthAdjust="spacing" textLength="27.7219" x="834.444" y="717.9844">Try</text><rect fill="#24273A" height="16.8" style="stroke:#C6A0F6;stroke-width:1.2;stroke-dasharray:2.0,2.0;" width="11.1961" x="871.7659" y="691.2"/><text fill="#CAD3F5" font-family="Helvetica" font-size="14.4" font-style="italic" lengthAdjust="spacing" textLength="8.7961" x="872.9659" y="703.4883">T</text></g><!--class TryKind--><g id="elem_TryKind"><rect codeLine="10" fill="#24273A" height="36" id="TryKind" rx="1.8" ry="1.8" style="stroke:#C6A0F6;stroke-width:2.4;" width="392.6977" x="921.552" y="694.8"/><rect fill="#363A4F" height="36" rx="1.8" ry="1.8" style="stroke:#363A4F;stroke-width:2.4;" width="392.6977" x="921.552" y="694.8"/><rect fill="#363A4F" height="1.8" style="stroke:#363A4F;stroke-width:2.4;" width="392.6977" x="921.552" y="729"/><rect codeLine="10" fill="none" height="36" id="TryKind" rx="1.8" ry="1.8" style="stroke:#C6A0F6;stroke-width:2.4;" width="392.6977" x="921.552" y="694.8"/><ellipse cx="938.352" cy="712.8" fill="#B4A7E5" rx="12" ry="12" style="stroke:#181818;stroke-width:1.2;"/><path d="M934.7614,709.5305 L934.7614,707.7023 L941.0122,707.7023 L941.0122,709.5305 L938.9239,709.5305 L938.9239,716.3719 L941.0122,716.3719 L941.0122,718.2 L934.7614,718.2 L934.7614,716.3719 L936.8497,716.3719 L936.8497,709.5305 Z " fill="#CAD3F5"/><text fill="#A6DA95" font-family="Helvetica" font-size="19.2" font-style="italic" lengthAdjust="spacing" textLength="230.2781" x="953.952" y="717.9844">TryKind&lt;T&gt;" extends "Kind</text><rect fill="#24273A" height="16.8" style="stroke:#C6A0F6;stroke-width:1.2;stroke-dasharray:2.0,2.0;" width="124.0195" x="1193.8301" y="691.2"/><text fill="#CAD3F5" font-family="Helvetica" font-size="14.4" font-style="italic" lengthAdjust="spacing" textLength="121.6195" x="1195.0301" y="703.4883">TryKind.Witness, T</text></g><!--class TryFunctor--><g id="elem_TryFunctor"><rect codeLine="12" fill="#24273A" height="60" id="TryFunctor" rx="1.8" ry="1.8" style="stroke:#C6A0F6;stroke-width:2.4;" width="539.0133" x="8.4" y="117.6"/><rect fill="#363A4F" height="36" rx="1.8" ry="1.8" style="stroke:#363A4F;stroke-width:2.4;" width="539.0133" x="8.4" y="117.6"/><rect fill="#363A4F" height="1.8" style="stroke:#363A4F;stroke-width:2.4;" width="539.0133" x="8.4" y="151.8"/><rect codeLine="12" fill="none" height="60" id="TryFunctor" rx="1.8" ry="1.8" style="stroke:#C6A0F6;stroke-width:2.4;" width="539.0133" x="8.4" y="117.6"/><ellipse cx="226.7004" cy="135.6" fill="#ADD1B2" rx="12" ry="12" style="stroke:#181818;stroke-width:1.2;"/><path d="M228.9012,140.6977 Q228.409,140.9508 227.8676,141.0773 Q227.3262,141.2039 226.7285,141.2039 Q224.6051,141.2039 223.4871,139.8047 Q222.3691,138.4055 222.3691,135.7617 Q222.3691,133.1109 223.4871,131.7117 Q224.6051,130.3125 226.7285,130.3125 Q227.3262,130.3125 227.8746,130.4391 Q228.423,130.5656 228.9012,130.8188 L228.9012,133.125 Q228.3668,132.6328 227.8641,132.4043 Q227.3613,132.1758 226.827,132.1758 Q225.6879,132.1758 225.1078,133.0793 Q224.5277,133.9828 224.5277,135.7617 Q224.5277,137.5336 225.1078,138.4371 Q225.6879,139.3406 226.827,139.3406 Q227.3613,139.3406 227.8641,139.1121 Q228.3668,138.8836 228.9012,138.3914 Z " fill="#CAD3F5"/><text fill="#A6DA95" font-family="Helvetica" font-size="19.2" lengthAdjust="spacing" textLength="92.8125" x="249.5004" y="140.7844">TryFunctor</text><line style="stroke:#C6A0F6;stroke-width:2.4;" x1="9.6" x2="546.2133" y1="153.6" y2="153.6"/><ellipse cx="21.6" cy="167.4" fill="#84BE84" rx="3.6" ry="3.6" style="stroke:#038048;stroke-width:1.2;"/><text fill="#A6DA95" font-family="Helvetica" font-size="14.4" lengthAdjust="spacing" textLength="509.0133" x="31.2" y="169.4883">Kind&lt;TryKind.Witness, B&gt; map(Function&lt;A, B&gt; f, Kind&lt;TryKind.Witness, A&gt; fa)</text></g><!--class Functor--><g id="elem_Functor"><rect fill="#24273A" height="36" id="Functor" rx="1.8" ry="1.8" style="stroke:#C6A0F6;stroke-width:2.4;" width="101.0906" x="227.364" y="8.4"/><rect fill="#363A4F" height="36" rx="1.8" ry="1.8" style="stroke:#363A4F;stroke-width:2.4;" width="101.0906" x="227.364" y="8.4"/><rect fill="#363A4F" height="1.8" style="stroke:#363A4F;stroke-width:2.4;" width="101.0906" x="227.364" y="42.6"/><rect fill="none" height="36" id="Functor" rx="1.8" ry="1.8" style="stroke:#C6A0F6;stroke-width:2.4;" width="101.0906" x="227.364" y="8.4"/><ellipse cx="244.164" cy="26.4" fill="#B4A7E5" rx="12" ry="12" style="stroke:#181818;stroke-width:1.2;"/><path d="M240.5734,23.1305 L240.5734,21.3023 L246.8242,21.3023 L246.8242,23.1305 L244.7359,23.1305 L244.7359,29.9719 L246.8242,29.9719 L246.8242,31.8 L240.5734,31.8 L240.5734,29.9719 L242.6617,29.9719 L242.6617,23.1305 Z " fill="#CAD3F5"/><text fill="#A6DA95" font-family="Helvetica" font-size="19.2" font-style="italic" lengthAdjust="spacing" textLength="65.0906" x="259.764" y="31.5844">Functor</text></g><!--class TryApplicative--><g id="elem_TryApplicative"><rect codeLine="15" fill="#24273A" height="74.4" id="TryApplicative" rx="1.8" ry="1.8" style="stroke:#C6A0F6;stroke-width:2.4;" width="689.482" x="120.36" y="250.8"/><rect fill="#363A4F" height="36" rx="1.8" ry="1.8" style="stroke:#363A4F;stroke-width:2.4;" width="689.482" x="120.36" y="250.8"/><rect fill="#363A4F" height="1.8" style="stroke:#363A4F;stroke-width:2.4;" width="689.482" x="120.36" y="285"/><rect codeLine="15" fill="none" height="74.4" id="TryApplicative" rx="1.8" ry="1.8" style="stroke:#C6A0F6;stroke-width:2.4;" width="689.482" x="120.36" y="250.8"/><ellipse cx="400.0151" cy="268.8" fill="#ADD1B2" rx="12" ry="12" style="stroke:#181818;stroke-width:1.2;"/><path d="M402.2159,273.8977 Q401.7237,274.1508 401.1823,274.2773 Q400.6409,274.4039 400.0432,274.4039 Q397.9198,274.4039 396.8018,273.0047 Q395.6838,271.6055 395.6838,268.9617 Q395.6838,266.3109 396.8018,264.9117 Q397.9198,263.5125 400.0432,263.5125 Q400.6409,263.5125 401.1893,263.6391 Q401.7377,263.7656 402.2159,264.0188 L402.2159,266.325 Q401.6815,265.8328 401.1788,265.6043 Q400.676,265.3758 400.1416,265.3758 Q399.0026,265.3758 398.4225,266.2793 Q397.8424,267.1828 397.8424,268.9617 Q397.8424,270.7336 398.4225,271.6371 Q399.0026,272.5406 400.1416,272.5406 Q400.676,272.5406 401.1788,272.3121 Q401.6815,272.0836 402.2159,271.5914 Z " fill="#CAD3F5"/><text fill="#A6DA95" font-family="Helvetica" font-size="19.2" lengthAdjust="spacing" textLength="120.5719" x="422.8151" y="273.9844">TryApplicative</text><line style="stroke:#C6A0F6;stroke-width:2.4;" x1="121.56" x2="808.642" y1="286.8" y2="286.8"/><ellipse cx="133.56" cy="300.6" fill="#84BE84" rx="3.6" ry="3.6" style="stroke:#038048;stroke-width:1.2;"/><text fill="#A6DA95" font-family="Helvetica" font-size="14.4" lengthAdjust="spacing" textLength="241.6992" x="143.16" y="302.6883">Kind&lt;TryKind.Witness, A&gt; of(A value)</text><ellipse cx="133.56" cy="315" fill="#84BE84" rx="3.6" ry="3.6" style="stroke:#038048;stroke-width:1.2;"/><text fill="#A6DA95" font-family="Helvetica" font-size="14.4" lengthAdjust="spacing" textLength="659.482" x="143.16" y="317.0883">Kind&lt;TryKind.Witness, B&gt; ap(Kind&lt;TryKind.Witness, Function&lt;A, B&gt;&gt; ff, Kind&lt;TryKind.Witness, A&gt; fa)</text></g><!--class Applicative--><g id="elem_Applicative"><rect fill="#24273A" height="36" id="Applicative" rx="1.8" ry="1.8" style="stroke:#C6A0F6;stroke-width:2.4;" width="128.85" x="589.08" y="129.6"/><rect fill="#363A4F" height="36" rx="1.8" ry="1.8" style="stroke:#363A4F;stroke-width:2.4;" width="128.85" x="589.08" y="129.6"/><rect fill="#363A4F" height="1.8" style="stroke:#363A4F;stroke-width:2.4;" width="128.85" x="589.08" y="163.8"/><rect fill="none" height="36" id="Applicative" rx="1.8" ry="1.8" style="stroke:#C6A0F6;stroke-width:2.4;" width="128.85" x="589.08" y="129.6"/><ellipse cx="605.88" cy="147.6" fill="#B4A7E5" rx="12" ry="12" style="stroke:#181818;stroke-width:1.2;"/><path d="M602.2894,144.3305 L602.2894,142.5023 L608.5402,142.5023 L608.5402,144.3305 L606.4519,144.3305 L606.4519,151.1719 L608.5402,151.1719 L608.5402,153 L602.2894,153 L602.2894,151.1719 L604.3777,151.1719 L604.3777,144.3305 Z " fill="#CAD3F5"/><text fill="#A6DA95" font-family="Helvetica" font-size="19.2" font-style="italic" lengthAdjust="spacing" textLength="92.85" x="621.48" y="152.7844">Applicative</text></g><!--class TryMonad--><g id="elem_TryMonad"><rect codeLine="19" fill="#24273A" height="60" id="TryMonad" rx="1.8" ry="1.8" style="stroke:#C6A0F6;stroke-width:2.4;" width="724.6805" x="319.968" y="398.4"/><rect fill="#363A4F" height="36" rx="1.8" ry="1.8" style="stroke:#363A4F;stroke-width:2.4;" width="724.6805" x="319.968" y="398.4"/><rect fill="#363A4F" height="1.8" style="stroke:#363A4F;stroke-width:2.4;" width="724.6805" x="319.968" y="432.6"/><rect codeLine="19" fill="none" height="60" id="TryMonad" rx="1.8" ry="1.8" style="stroke:#C6A0F6;stroke-width:2.4;" width="724.6805" x="319.968" y="398.4"/><ellipse cx="634.2942" cy="416.4" fill="#ADD1B2" rx="12" ry="12" style="stroke:#181818;stroke-width:1.2;"/><path d="M636.495,421.4977 Q636.0028,421.7508 635.4614,421.8773 Q634.92,422.0039 634.3223,422.0039 Q632.1989,422.0039 631.0809,420.6047 Q629.9629,419.2055 629.9629,416.5617 Q629.9629,413.9109 631.0809,412.5117 Q632.1989,411.1125 634.3223,411.1125 Q634.92,411.1125 635.4684,411.2391 Q636.0168,411.3656 636.495,411.6188 L636.495,413.925 Q635.9606,413.4328 635.4578,413.2043 Q634.9551,412.9758 634.4207,412.9758 Q633.2817,412.9758 632.7016,413.8793 Q632.1215,414.7828 632.1215,416.5617 Q632.1215,418.3336 632.7016,419.2371 Q633.2817,420.1406 634.4207,420.1406 Q634.9551,420.1406 635.4578,419.9121 Q635.9606,419.6836 636.495,419.1914 Z " fill="#CAD3F5"/><text fill="#A6DA95" font-family="Helvetica" font-size="19.2" lengthAdjust="spacing" textLength="86.4281" x="657.0942" y="421.5844">TryMonad</text><line style="stroke:#C6A0F6;stroke-width:2.4;" x1="321.168" x2="1043.4485" y1="434.4" y2="434.4"/><ellipse cx="333.168" cy="448.2" fill="#84BE84" rx="3.6" ry="3.6" style="stroke:#038048;stroke-width:1.2;"/><text fill="#A6DA95" font-family="Helvetica" font-size="14.4" lengthAdjust="spacing" textLength="694.6805" x="342.768" y="450.2883">Kind&lt;TryKind.Witness, B&gt; flatMap(Function&lt;A, Kind&lt;TryKind.Witness, B&gt;&gt; f, Kind&lt;TryKind.Witness, A&gt; ma)</text></g><!--class Monad--><g id="elem_Monad"><rect fill="#24273A" height="36" id="Monad" rx="1.8" ry="1.8" style="stroke:#C6A0F6;stroke-width:2.4;" width="94.7063" x="852.156" y="270"/><rect fill="#363A4F" height="36" rx="1.8" ry="1.8" style="stroke:#363A4F;stroke-width:2.4;" width="94.7063" x="852.156" y="270"/><rect fill="#363A4F" height="1.8" style="stroke:#363A4F;stroke-width:2.4;" width="94.7063" x="852.156" y="304.2"/><rect fill="none" height="36" id="Monad" rx="1.8" ry="1.8" style="stroke:#C6A0F6;stroke-width:2.4;" width="94.7063" x="852.156" y="270"/><ellipse cx="868.956" cy="288" fill="#B4A7E5" rx="12" ry="12" style="stroke:#181818;stroke-width:1.2;"/><path d="M865.3654,284.7305 L865.3654,282.9023 L871.6162,282.9023 L871.6162,284.7305 L869.5279,284.7305 L869.5279,291.5719 L871.6162,291.5719 L871.6162,293.4 L865.3654,293.4 L865.3654,291.5719 L867.4537,291.5719 L867.4537,284.7305 Z " fill="#CAD3F5"/><text fill="#A6DA95" font-family="Helvetica" font-size="19.2" font-style="italic" lengthAdjust="spacing" textLength="58.7063" x="884.556" y="293.1844">Monad</text></g><!--class TryMonadError--><g id="elem_TryMonadError"><rect codeLine="22" fill="#24273A" height="74.4" id="TryMonadError" rx="1.8" ry="1.8" style="stroke:#C6A0F6;stroke-width:2.4;" width="883.1648" x="477.12" y="531.6"/><rect fill="#363A4F" height="36" rx="1.8" ry="1.8" style="stroke:#363A4F;stroke-width:2.4;" width="883.1648" x="477.12" y="531.6"/><rect fill="#363A4F" height="1.8" style="stroke:#363A4F;stroke-width:2.4;" width="883.1648" x="477.12" y="565.8"/><rect codeLine="22" fill="none" height="74.4" id="TryMonadError" rx="1.8" ry="1.8" style="stroke:#C6A0F6;stroke-width:2.4;" width="883.1648" x="477.12" y="531.6"/><ellipse cx="849.3555" cy="549.6" fill="#ADD1B2" rx="12" ry="12" style="stroke:#181818;stroke-width:1.2;"/><path d="M851.5563,554.6977 Q851.0641,554.9508 850.5227,555.0773 Q849.9813,555.2039 849.3837,555.2039 Q847.2602,555.2039 846.1423,553.8047 Q845.0243,552.4055 845.0243,549.7617 Q845.0243,547.1109 846.1423,545.7117 Q847.2602,544.3125 849.3837,544.3125 Q849.9813,544.3125 850.5298,544.4391 Q851.0782,544.5656 851.5563,544.8188 L851.5563,547.125 Q851.022,546.6328 850.5192,546.4043 Q850.0165,546.1758 849.4821,546.1758 Q848.343,546.1758 847.763,547.0793 Q847.1829,547.9828 847.1829,549.7617 Q847.1829,551.5336 847.763,552.4371 Q848.343,553.3406 849.4821,553.3406 Q850.0165,553.3406 850.5192,553.1121 Q851.022,552.8836 851.5563,552.3914 Z " fill="#CAD3F5"/><text fill="#A6DA95" font-family="Helvetica" font-size="19.2" lengthAdjust="spacing" textLength="129.0938" x="872.1555" y="554.7844">TryMonadError</text><line style="stroke:#C6A0F6;stroke-width:2.4;" x1="478.32" x2="1359.0848" y1="567.6" y2="567.6"/><ellipse cx="490.32" cy="581.4" fill="#84BE84" rx="3.6" ry="3.6" style="stroke:#038048;stroke-width:1.2;"/><text fill="#A6DA95" font-family="Helvetica" font-size="14.4" lengthAdjust="spacing" textLength="346.507" x="499.92" y="583.4883">Kind&lt;TryKind.Witness, A&gt; raiseError(Throwable error)</text><ellipse cx="490.32" cy="595.8" fill="#84BE84" rx="3.6" ry="3.6" style="stroke:#038048;stroke-width:1.2;"/><text fill="#A6DA95" font-family="Helvetica" font-size="14.4" lengthAdjust="spacing" textLength="853.1648" x="499.92" y="597.8883">Kind&lt;TryKind.Witness, A&gt; handleErrorWith(Kind&lt;TryKind.Witness, A&gt; ma, Function&lt;Throwable, Kind&lt;TryKind.Witness, A&gt;&gt; handler)</text></g><!--class MonadError--><g id="elem_MonadError"><rect fill="#24273A" height="36" id="MonadError" rx="1.8" ry="1.8" style="stroke:#C6A0F6;stroke-width:2.4;" width="137.3719" x="1086.42" y="410.4"/><rect fill="#363A4F" height="36" rx="1.8" ry="1.8" style="stroke:#363A4F;stroke-width:2.4;" width="137.3719" x="1086.42" y="410.4"/><rect fill="#363A4F" height="1.8" style="stroke:#363A4F;stroke-width:2.4;" width="137.3719" x="1086.42" y="444.6"/><rect fill="none" height="36" id="MonadError" rx="1.8" ry="1.8" style="stroke:#C6A0F6;stroke-width:2.4;" width="137.3719" x="1086.42" y="410.4"/><ellipse cx="1103.22" cy="428.4" fill="#B4A7E5" rx="12" ry="12" style="stroke:#181818;stroke-width:1.2;"/><path d="M1099.6294,425.1305 L1099.6294,423.3023 L1105.8802,423.3023 L1105.8802,425.1305 L1103.7919,425.1305 L1103.7919,431.9719 L1105.8802,431.9719 L1105.8802,433.8 L1099.6294,433.8 L1099.6294,431.9719 L1101.7177,431.9719 L1101.7177,425.1305 Z " fill="#CAD3F5"/><text fill="#A6DA95" font-family="Helvetica" font-size="19.2" font-style="italic" lengthAdjust="spacing" textLength="101.3719" x="1118.82" y="433.5844">MonadError</text></g><!--class Kind--><g id="elem_Kind"><rect fill="#24273A" height="36" id="Kind" rx="1.8" ry="1.8" style="stroke:#C6A0F6;stroke-width:2.4;" width="74.4281" x="1080.696" y="819.6"/><rect fill="#363A4F" height="36" rx="1.8" ry="1.8" style="stroke:#363A4F;stroke-width:2.4;" width="74.4281" x="1080.696" y="819.6"/><rect fill="#363A4F" height="1.8" style="stroke:#363A4F;stroke-width:2.4;" width="74.4281" x="1080.696" y="853.8"/><rect fill="none" height="36" id="Kind" rx="1.8" ry="1.8" style="stroke:#C6A0F6;stroke-width:2.4;" width="74.4281" x="1080.696" y="819.6"/><ellipse cx="1097.496" cy="837.6" fill="#ADD1B2" rx="12" ry="12" style="stroke:#181818;stroke-width:1.2;"/><path d="M1099.6968,842.6977 Q1099.2046,842.9508 1098.6632,843.0773 Q1098.1218,843.2039 1097.5241,843.2039 Q1095.4007,843.2039 1094.2827,841.8047 Q1093.1648,840.4055 1093.1648,837.7617 Q1093.1648,835.1109 1094.2827,833.7117 Q1095.4007,832.3125 1097.5241,832.3125 Q1098.1218,832.3125 1098.6702,832.4391 Q1099.2187,832.5656 1099.6968,832.8188 L1099.6968,835.125 Q1099.1624,834.6328 1098.6597,834.4043 Q1098.1569,834.1758 1097.6226,834.1758 Q1096.4835,834.1758 1095.9034,835.0793 Q1095.3233,835.9828 1095.3233,837.7617 Q1095.3233,839.5336 1095.9034,840.4371 Q1096.4835,841.3406 1097.6226,841.3406 Q1098.1569,841.3406 1098.6597,841.1121 Q1099.1624,840.8836 1099.6968,840.3914 Z " fill="#CAD3F5"/><text fill="#A6DA95" font-family="Helvetica" font-size="19.2" lengthAdjust="spacing" textLength="38.4281" x="1113.096" y="842.7844">Kind</text></g><!--reverse link Functor to TryFunctor--><g id="link_Functor_TryFunctor"><path d="M277.908,66.216 C277.908,85.08 277.908,94.248 277.908,117.012 " fill="none" id="Functor-backto-TryFunctor" style="stroke:#F5BDE6;stroke-width:1.2;stroke-dasharray:7.0,7.0;"/><polygon fill="none" points="277.908,44.616,270.708,66.216,285.108,66.216,277.908,44.616" style="stroke:#F5BDE6;stroke-width:1.2;"/></g><!--reverse link TryFunctor to TryApplicative--><g id="link_TryFunctor_TryApplicative"><path d="M334.9917,190.8831 C363.6477,212.0031 385.14,227.856 415.788,250.452 " fill="none" id="TryFunctor-backto-TryApplicative" style="stroke:#F5BDE6;stroke-width:1.2;"/><polygon fill="none" points="317.604,178.068,330.72,196.679,339.2634,185.0872,317.604,178.068" style="stroke:#F5BDE6;stroke-width:1.2;"/></g><!--reverse link Applicative to TryApplicative--><g id="link_Applicative_TryApplicative"><path d="M612.5982,178.7593 C583.8942,199.7833 551.976,223.176 514.716,250.464 " fill="none" id="Applicative-backto-TryApplicative" style="stroke:#F5BDE6;stroke-width:1.2;stroke-dasharray:7.0,7.0;"/><polygon fill="none" points="630.024,165.996,608.3438,172.9508,616.8527,184.5679,630.024,165.996" style="stroke:#F5BDE6;stroke-width:1.2;"/></g><!--reverse link TryApplicative to TryMonad--><g id="link_TryApplicative_TryMonad"><path d="M540.3989,337.0362 C575.9789,359.6442 602.916,376.752 636.204,397.908 " fill="none" id="TryApplicative-backto-TryMonad" style="stroke:#F5BDE6;stroke-width:1.2;"/><polygon fill="none" points="522.168,325.452,536.5375,343.1132,544.2603,330.9592,522.168,325.452" style="stroke:#F5BDE6;stroke-width:1.2;"/></g><!--reverse link Monad to TryMonad--><g id="link_Monad_TryMonad"><path d="M854.2057,317.9811 C818.1577,340.8891 772.092,370.152 728.352,397.944 " fill="none" id="Monad-backto-TryMonad" style="stroke:#F5BDE6;stroke-width:1.2;stroke-dasharray:7.0,7.0;"/><polygon fill="none" points="872.436,306.396,850.344,311.9043,858.0674,324.0579,872.436,306.396" style="stroke:#F5BDE6;stroke-width:1.2;"/></g><!--reverse link TryMonad to TryMonadError--><g id="link_TryMonad_TryMonadError"><path d="M751.0983,469.7574 C787.2783,490.8774 817.728,508.656 856.428,531.252 " fill="none" id="TryMonad-backto-TryMonadError" style="stroke:#F5BDE6;stroke-width:1.2;"/><polygon fill="none" points="732.444,458.868,747.4685,475.9755,754.7281,463.5393,732.444,458.868" style="stroke:#F5BDE6;stroke-width:1.2;"/></g><!--reverse link MonadError to TryMonadError--><g id="link_MonadError_TryMonadError"><path d="M1106.9926,457.6835 C1070.9686,478.7075 1027.704,503.976 980.952,531.264 " fill="none" id="MonadError-backto-TryMonadError" style="stroke:#F5BDE6;stroke-width:1.2;stroke-dasharray:7.0,7.0;"/><polygon fill="none" points="1125.648,446.796,1103.3635,451.465,1110.6218,463.9019,1125.648,446.796" style="stroke:#F5BDE6;stroke-width:1.2;"/></g><!--link TryKind to Kind--><g id="link_TryKind_Kind"><path codeLine="27" d="M1117.908,731.016 C1117.908,754.272 1117.908,795.744 1117.908,819.132 " fill="none" id="TryKind-Kind" style="stroke:#F5BDE6;stroke-width:1.2;"/><text fill="#CAD3F5" font-family="Helvetica" font-size="14.4" lengthAdjust="spacing" textLength="50.4352" x="1119.108" y="779.0883">extends</text></g><!--link TryMonadError to TryKind--><g id="link_TryMonadError_TryKind"><path codeLine="29" d="M970.008,606.468 C1009.896,634.812 1057.5476,668.6924 1088.0516,690.3764 " fill="none" id="TryMonadError-to-TryKind" style="stroke:#F5BDE6;stroke-width:1.2;stroke-dasharray:7.0,7.0;"/><polygon fill="#F5BDE6" points="1093.92,694.548,1087.8985,684.3784,1089.0297,691.0717,1082.3364,692.2029,1093.92,694.548" style="stroke:#F5BDE6;stroke-width:1.2;"/><text fill="#CAD3F5" font-family="Helvetica" font-size="14.4" lengthAdjust="spacing" textLength="171.3164" x="1043.208" y="654.2883">operates on &lt;TryKind&lt;?&gt;&gt;</text></g><!--link TryMonadError to Try--><g id="link_TryMonadError_Try"><path codeLine="30" d="M898.62,606.468 C882.996,634.812 865.5196,666.5584 853.5676,688.2424 " fill="none" id="TryMonadError-to-Try" style="stroke:#F5BDE6;stroke-width:1.2;stroke-dasharray:7.0,7.0;"/><polygon fill="#F5BDE6" points="850.092,694.548,859.5091,687.4067,852.9883,689.2933,851.1016,682.7726,850.092,694.548" style="stroke:#F5BDE6;stroke-width:1.2;"/><text fill="#CAD3F5" font-family="Helvetica" font-size="14.4" lengthAdjust="spacing" textLength="105.6586" x="878.568" y="654.2883">uses methods of</text></g><!--SRC=[bLJBRkCm3BphAzYS4hIsxqNWHHPeBqLl1VRCoFHAW5wGv3wms7zVHcbIjNNIxKqYX-JCqFA5Tj9C0u7AEQJhhelurFxMMKtRAL6KtcLokPNUTaxwbB7HifEOGvYarAwnAANIc7qJ3BeyMTDaHPOwYzfrvTW6ZWgXD4yX6_8BMB9RYaa8eRbz754IB1xYo_gXNm0cuEEdt9rsGydJCpCQ4YpsaNsc_QMpevIkuAt5BYw4D9ZAzNPoCli8sWR3h5nEy1ewD5d_w7lu8m0kORxtpnuiXcKfqzwjDoKqNfs0RpY7A_7tZSCc1AFPFVr8Hntpr2haVzFZUNvSRk0HpKIhypfOndpklJXMy0rvzzxXK0khzLRY2kuxhey6y_q7vq-1po_4pZ2-YP7DhsZlTNmaN60LQ_xMLFHFk3NqvLuYwaIbmV9O1BIxhyuNAdI3sLToM2tF2AjsTvnnseb3wxZpGxm2e6bA0LmVx2YfogMsxGzlYq4-KCHC2Ro3Uf_pHLp0_vJ4ppyhpqxxKVm3]--></g></svg>