<svg xmlns="http://www.w3.org/2000/svg" xmlns:xlink="http://www.w3.org/1999/xlink" contentStyleType="text/css" height="479px" preserveAspectRatio="none" style="width:1114px;height:479px;background:#24273A;" version="1.1" viewBox="0 0 1114 479" width="1114px" zoomAndPan="magnify"><defs/><g><rect fill="#24273A" height="479" style="stroke:none;stroke-width:1.0;" width="1114" x="0" y="0"/><!--class Try--><g id="elem_Try"><rect codeLine="6" fill="#24273A" height="214.4375" id="Try" rx="1.5" ry="1.5" style="stroke:#C6A0F6;stroke-width:2.0;" width="490.6523" x="560.11" y="15"/><rect fill="#363A4F" height="28.8438" rx="1.5" ry="1.5" style="stroke:#363A4F;stroke-width:2.0;" width="490.6523" x="560.11" y="15"/><rect fill="#363A4F" height="1.5" style="stroke:#363A4F;stroke-width:2.0;" width="490.6523" x="560.11" y="42.3438"/><rect codeLine="6" fill="none" height="214.4375" id="Try" rx="1.5" ry="1.5" style="stroke:#C6A0F6;stroke-width:2.0;" width="490.6523" x="560.11" y="15"/><ellipse cx="783.4772" cy="29.4219" fill="#FFFFFF" rx="9" ry="9" style="stroke:#000000;stroke-width:1.0;"/><path d="M780.485,26.6973 L780.485,25.1738 L785.694,25.1738 L785.694,26.6973 L783.9538,26.6973 L783.9538,32.3984 L785.694,32.3984 L785.694,33.9219 L780.485,33.9219 L780.485,32.3984 L782.2252,32.3984 L782.2252,26.6973 Z " fill="#CAD3F5"/><text fill="#A6DA95" font-family="sans-serif" font-size="16" font-style="italic" lengthAdjust="spacing" textLength="25.0234" x="800.9772" y="35.4688">Try</text><rect fill="#24273A" height="16.584" style="stroke:#C6A0F6;stroke-width:1.0;stroke-dasharray:2.0,2.0;" width="9.3945" x="1044.3678" y="12"/><text fill="#000000" font-family="Verdana" font-size="12" font-style="italic" lengthAdjust="spacing" textLength="7.3945" x="1045.3678" y="25.0645">T</text><line style="stroke:#C6A0F6;stroke-width:2.0;" x1="561.11" x2="1049.7623" y1="43.8438" y2="43.8438"/><line style="stroke:#C6A0F6;stroke-width:2.0;" x1="561.11" x2="1049.7623" y1="51.8438" y2="51.8438"/><text fill="#A6DA95" font-family="sans-serif" font-size="12" font-style="italic" lengthAdjust="spacing" textLength="122.373" x="566.11" y="67.4453">+boolean isSuccess()</text><text fill="#A6DA95" font-family="sans-serif" font-size="12" font-style="italic" lengthAdjust="spacing" textLength="116.291" x="566.11" y="81.5781">+boolean isFailure()</text><text fill="#A6DA95" font-family="sans-serif" font-size="12" font-style="italic" lengthAdjust="spacing" textLength="155.4551" x="566.11" y="95.7109">+T get() throws Throwable</text><text fill="#A6DA95" font-family="sans-serif" font-size="12" font-style="italic" lengthAdjust="spacing" textLength="28.3066" x="566.11" y="109.8438">+Try</text><text fill="#A6DA95" font-family="sans-serif" font-size="12" font-style="italic" lengthAdjust="spacing" text-decoration="underline" textLength="174.3398" x="598.2135" y="109.8438">map(Function&lt;T, U&gt; mapper)</text><text fill="#A6DA95" font-family="sans-serif" font-size="12" font-style="italic" lengthAdjust="spacing" textLength="28.3066" x="566.11" y="123.9766">+Try</text><text fill="#A6DA95" font-family="sans-serif" font-size="12" font-style="italic" lengthAdjust="spacing" text-decoration="underline" textLength="141.1523" x="598.2135" y="123.9766">flatMap(Function&lt;T, Try</text><text fill="#A6DA95" font-family="sans-serif" font-size="12" font-style="italic" lengthAdjust="spacing" text-decoration="underline" textLength="61.7695" x="739.3659" y="123.9766">&gt; mapper)</text><text fill="#A6DA95" font-family="sans-serif" font-size="12" font-style="italic" lengthAdjust="spacing" textLength="335.3613" x="566.11" y="138.1094">+Try&lt;T&gt; recover(Function&lt;Throwable, T&gt; recoveryFunc)</text><text fill="#A6DA95" font-family="sans-serif" font-size="12" font-style="italic" lengthAdjust="spacing" textLength="398.877" x="566.11" y="152.2422">+Try&lt;T&gt; recoverWith(Function&lt;Throwable, Try&lt;T&gt;&gt; recoveryFunc)</text><text fill="#A6DA95" font-family="sans-serif" font-size="12" font-style="italic" lengthAdjust="spacing" textLength="475.5293" x="566.11" y="166.375">+U fold(Function&lt;T, U&gt; successMapper, Function&lt;Throwable, U&gt; failureMapper)</text><text fill="#A6DA95" font-family="sans-serif" font-size="12" font-style="italic" lengthAdjust="spacing" textLength="478.6523" x="566.11" y="180.5078">+void match(Consumer&lt;T&gt; successAction, Consumer&lt;Throwable&gt; failureAction)</text><text fill="#A6DA95" font-family="sans-serif" font-size="12" lengthAdjust="spacing" text-decoration="underline" textLength="203.5723" x="566.11" y="194.6406">+Try&lt;T&gt; of(Supplier&lt;T&gt; supplier)</text><text fill="#A6DA95" font-family="sans-serif" font-size="12" lengthAdjust="spacing" text-decoration="underline" textLength="153.1758" x="566.11" y="208.7734">+Try&lt;T&gt; success(T value)</text><text fill="#A6DA95" font-family="sans-serif" font-size="12" lengthAdjust="spacing" text-decoration="underline" textLength="226.084" x="566.11" y="222.9063">+Try&lt;T&gt; failure(Throwable throwable)</text></g><!--class Success<T>(T value)--><g id="elem_Success&lt;T&gt;(T value)"><rect codeLine="21" fill="#24273A" height="182.623" id="Success&lt;T&gt;(T value)" rx="1.5" ry="1.5" style="stroke:#C6A0F6;stroke-width:2.0;" width="410.877" x="12" y="289.44"/><rect fill="#363A4F" height="43.4277" rx="1.5" ry="1.5" style="stroke:#363A4F;stroke-width:2.0;" width="410.877" x="12" y="289.44"/><rect fill="#363A4F" height="1.5" style="stroke:#363A4F;stroke-width:2.0;" width="410.877" x="12" y="331.3677"/><rect codeLine="21" fill="none" height="182.623" id="Success&lt;T&gt;(T value)" rx="1.5" ry="1.5" style="stroke:#C6A0F6;stroke-width:2.0;" width="410.877" x="12" y="289.44"/><ellipse cx="132.7432" cy="311.1539" fill="#FFFFFF" rx="9" ry="9" style="stroke:#000000;stroke-width:1.0;"/><path d="M134.5771,315.4019 Q134.167,315.6129 133.7158,315.7183 Q133.2646,315.8238 132.7666,315.8238 Q130.9971,315.8238 130.0654,314.6578 Q129.1338,313.4918 129.1338,311.2886 Q129.1338,309.0796 130.0654,307.9136 Q130.9971,306.7476 132.7666,306.7476 Q133.2646,306.7476 133.7217,306.8531 Q134.1787,306.9586 134.5771,307.1695 L134.5771,309.0914 Q134.1318,308.6812 133.7129,308.4908 Q133.2939,308.3004 132.8486,308.3004 Q131.8994,308.3004 131.416,309.0533 Q130.9326,309.8062 130.9326,311.2886 Q130.9326,312.7652 131.416,313.5181 Q131.8994,314.2711 132.8486,314.2711 Q133.2939,314.2711 133.7129,314.0806 Q134.1318,313.8902 134.5771,313.48 Z " fill="#CAD3F5"/><text fill="#000000" font-family="Verdana" font-size="12" font-style="italic" lengthAdjust="spacing" textLength="53.8711" x="204.2529" y="306.5045">&#171;record&#187;</text><text fill="#A6DA95" font-family="sans-serif" font-size="16" lengthAdjust="spacing" textLength="161.8906" x="150.2432" y="324.4927">Success&lt;T&gt;(T value)</text><line style="stroke:#C6A0F6;stroke-width:2.0;" x1="13" x2="421.877" y1="332.8677" y2="332.8677"/><text fill="#A6DA95" font-family="sans-serif" font-size="12" lengthAdjust="spacing" textLength="104.291" x="18" y="348.4693">+Success(T value)</text><text fill="#A6DA95" font-family="sans-serif" font-size="12" lengthAdjust="spacing" textLength="122.373" x="18" y="380.7349">+boolean isSuccess()</text><text fill="#A6DA95" font-family="sans-serif" font-size="12" lengthAdjust="spacing" textLength="116.291" x="18" y="394.8677">+boolean isFailure()</text><text fill="#A6DA95" font-family="sans-serif" font-size="12" lengthAdjust="spacing" textLength="47.3848" x="18" y="409.0005">+T get()</text><text fill="#A6DA95" font-family="sans-serif" font-size="12" lengthAdjust="spacing" textLength="28.3066" x="18" y="423.1334">+Try</text><text fill="#A6DA95" font-family="sans-serif" font-size="12" lengthAdjust="spacing" text-decoration="underline" textLength="174.3398" x="50.1035" y="423.1334">map(Function&lt;T, U&gt; mapper)</text><text fill="#A6DA95" font-family="sans-serif" font-size="12" lengthAdjust="spacing" textLength="28.3066" x="18" y="437.2662">+Try</text><text fill="#A6DA95" font-family="sans-serif" font-size="12" lengthAdjust="spacing" text-decoration="underline" textLength="141.1523" x="50.1035" y="437.2662">flatMap(Function&lt;T, Try</text><text fill="#A6DA95" font-family="sans-serif" font-size="12" lengthAdjust="spacing" text-decoration="underline" textLength="61.7695" x="191.2559" y="437.2662">&gt; mapper)</text><text fill="#A6DA95" font-family="sans-serif" font-size="12" lengthAdjust="spacing" textLength="335.3613" x="18" y="451.399">+Try&lt;T&gt; recover(Function&lt;Throwable, T&gt; recoveryFunc)</text><text fill="#A6DA95" font-family="sans-serif" font-size="12" lengthAdjust="spacing" textLength="398.877" x="18" y="465.5318">+Try&lt;T&gt; recoverWith(Function&lt;Throwable, Try&lt;T&gt;&gt; recoveryFunc)</text><line style="stroke:#C6A0F6;stroke-width:2.0;" x1="13" x2="192.4395" y1="362.067" y2="362.067"/><text fill="#A6DA95" font-family="sans-serif" font-size="12" lengthAdjust="spacing" textLength="49.998" x="192.4395" y="366.1021">Methods</text><line style="stroke:#C6A0F6;stroke-width:2.0;" x1="242.4375" x2="421.877" y1="362.067" y2="362.067"/></g><!--class Failure<T>(Throwable cause)--><g id="elem_Failure&lt;T&gt;(Throwable cause)"><rect codeLine="35" fill="#24273A" height="182.623" id="Failure&lt;T&gt;(Throwable cause)" rx="1.5" ry="1.5" style="stroke:#C6A0F6;stroke-width:2.0;" width="410.877" x="458" y="289.44"/><rect fill="#363A4F" height="43.4277" rx="1.5" ry="1.5" style="stroke:#363A4F;stroke-width:2.0;" width="410.877" x="458" y="289.44"/><rect fill="#363A4F" height="1.5" style="stroke:#363A4F;stroke-width:2.0;" width="410.877" x="458" y="331.3677"/><rect codeLine="35" fill="none" height="182.623" id="Failure&lt;T&gt;(Throwable cause)" rx="1.5" ry="1.5" style="stroke:#C6A0F6;stroke-width:2.0;" width="410.877" x="458" y="289.44"/><ellipse cx="545.5361" cy="311.1539" fill="#FFFFFF" rx="9" ry="9" style="stroke:#000000;stroke-width:1.0;"/><path d="M547.3701,315.4019 Q546.96,315.6129 546.5088,315.7183 Q546.0576,315.8238 545.5596,315.8238 Q543.79,315.8238 542.8584,314.6578 Q541.9268,313.4918 541.9268,311.2886 Q541.9268,309.0796 542.8584,307.9136 Q543.79,306.7476 545.5596,306.7476 Q546.0576,306.7476 546.5146,306.8531 Q546.9717,306.9586 547.3701,307.1695 L547.3701,309.0914 Q546.9248,308.6812 546.5059,308.4908 Q546.0869,308.3004 545.6416,308.3004 Q544.6924,308.3004 544.209,309.0533 Q543.7256,309.8062 543.7256,311.2886 Q543.7256,312.7652 544.209,313.5181 Q544.6924,314.2711 545.6416,314.2711 Q546.0869,314.2711 546.5059,314.0806 Q546.9248,313.8902 547.3701,313.48 Z " fill="#CAD3F5"/><text fill="#000000" font-family="Verdana" font-size="12" font-style="italic" lengthAdjust="spacing" textLength="53.8711" x="650.2529" y="306.5045">&#171;record&#187;</text><text fill="#A6DA95" font-family="sans-serif" font-size="16" lengthAdjust="spacing" textLength="228.3047" x="563.0361" y="324.4927">Failure&lt;T&gt;(Throwable cause)</text><line style="stroke:#C6A0F6;stroke-width:2.0;" x1="459" x2="867.877" y1="332.8677" y2="332.8677"/><text fill="#A6DA95" font-family="sans-serif" font-size="12" lengthAdjust="spacing" textLength="154.1016" x="464" y="348.4693">+Failure(Throwable cause)</text><text fill="#A6DA95" font-family="sans-serif" font-size="12" lengthAdjust="spacing" textLength="122.373" x="464" y="380.7349">+boolean isSuccess()</text><text fill="#A6DA95" font-family="sans-serif" font-size="12" lengthAdjust="spacing" textLength="116.291" x="464" y="394.8677">+boolean isFailure()</text><text fill="#A6DA95" font-family="sans-serif" font-size="12" lengthAdjust="spacing" textLength="155.4551" x="464" y="409.0005">+T get() throws Throwable</text><text fill="#A6DA95" font-family="sans-serif" font-size="12" lengthAdjust="spacing" textLength="28.3066" x="464" y="423.1334">+Try</text><text fill="#A6DA95" font-family="sans-serif" font-size="12" lengthAdjust="spacing" text-decoration="underline" textLength="174.3398" x="496.1035" y="423.1334">map(Function&lt;T, U&gt; mapper)</text><text fill="#A6DA95" font-family="sans-serif" font-size="12" lengthAdjust="spacing" textLength="28.3066" x="464" y="437.2662">+Try</text><text fill="#A6DA95" font-family="sans-serif" font-size="12" lengthAdjust="spacing" text-decoration="underline" textLength="141.1523" x="496.1035" y="437.2662">flatMap(Function&lt;T, Try</text><text fill="#A6DA95" font-family="sans-serif" font-size="12" lengthAdjust="spacing" text-decoration="underline" textLength="61.7695" x="637.2559" y="437.2662">&gt; mapper)</text><text fill="#A6DA95" font-family="sans-serif" font-size="12" lengthAdjust="spacing" textLength="335.3613" x="464" y="451.399">+Try&lt;T&gt; recover(Function&lt;Throwable, T&gt; recoveryFunc)</text><text fill="#A6DA95" font-family="sans-serif" font-size="12" lengthAdjust="spacing" textLength="398.877" x="464" y="465.5318">+Try&lt;T&gt; recoverWith(Function&lt;Throwable, Try&lt;T&gt;&gt; recoveryFunc)</text><line style="stroke:#C6A0F6;stroke-width:2.0;" x1="459" x2="638.4395" y1="362.067" y2="362.067"/><text fill="#A6DA95" font-family="sans-serif" font-size="12" lengthAdjust="spacing" textLength="49.998" x="638.4395" y="366.1021">Methods</text><line style="stroke:#C6A0F6;stroke-width:2.0;" x1="688.4375" x2="867.877" y1="362.067" y2="362.067"/></g><!--class Success--><g id="elem_Success"><rect fill="#24273A" height="44.8438" id="Success" rx="1.5" ry="1.5" style="stroke:#C6A0F6;stroke-width:2.0;" width="88.1641" x="904.36" y="358.33"/><rect fill="#363A4F" height="28.8438" rx="1.5" ry="1.5" style="stroke:#363A4F;stroke-width:2.0;" width="88.1641" x="904.36" y="358.33"/><rect fill="#363A4F" height="1.5" style="stroke:#363A4F;stroke-width:2.0;" width="88.1641" x="904.36" y="385.6738"/><rect fill="none" height="44.8438" id="Success" rx="1.5" ry="1.5" style="stroke:#C6A0F6;stroke-width:2.0;" width="88.1641" x="904.36" y="358.33"/><ellipse cx="917.36" cy="372.7519" fill="#FFFFFF" rx="9" ry="9" style="stroke:#000000;stroke-width:1.0;"/><path d="M919.194,376.9999 Q918.7838,377.2109 918.3327,377.3163 Q917.8815,377.4218 917.3834,377.4218 Q915.6139,377.4218 914.6823,376.2558 Q913.7506,375.0898 913.7506,372.8866 Q913.7506,370.6777 914.6823,369.5116 Q915.6139,368.3456 917.3834,368.3456 Q917.8815,368.3456 918.3385,368.4511 Q918.7955,368.5566 919.194,368.7675 L919.194,370.6894 Q918.7487,370.2792 918.3297,370.0888 Q917.9108,369.8984 917.4655,369.8984 Q916.5163,369.8984 916.0329,370.6513 Q915.5495,371.4042 915.5495,372.8866 Q915.5495,374.3632 916.0329,375.1161 Q916.5163,375.8691 917.4655,375.8691 Q917.9108,375.8691 918.3297,375.6786 Q918.7487,375.4882 919.194,375.078 Z " fill="#CAD3F5"/><text fill="#A6DA95" font-family="sans-serif" font-size="16" lengthAdjust="spacing" textLength="60.1641" x="929.36" y="378.7988">Success</text><line style="stroke:#C6A0F6;stroke-width:2.0;" x1="905.36" x2="991.5241" y1="387.1738" y2="387.1738"/><line style="stroke:#C6A0F6;stroke-width:2.0;" x1="905.36" x2="991.5241" y1="395.1738" y2="395.1738"/></g><!--class Failure--><g id="elem_Failure"><rect fill="#24273A" height="44.8438" id="Failure" rx="1.5" ry="1.5" style="stroke:#C6A0F6;stroke-width:2.0;" width="80.0547" x="1027.41" y="358.33"/><rect fill="#363A4F" height="28.8438" rx="1.5" ry="1.5" style="stroke:#363A4F;stroke-width:2.0;" width="80.0547" x="1027.41" y="358.33"/><rect fill="#363A4F" height="1.5" style="stroke:#363A4F;stroke-width:2.0;" width="80.0547" x="1027.41" y="385.6738"/><rect fill="none" height="44.8438" id="Failure" rx="1.5" ry="1.5" style="stroke:#C6A0F6;stroke-width:2.0;" width="80.0547" x="1027.41" y="358.33"/><ellipse cx="1040.41" cy="372.7519" fill="#FFFFFF" rx="9" ry="9" style="stroke:#000000;stroke-width:1.0;"/><path d="M1042.244,376.9999 Q1041.8338,377.2109 1041.3827,377.3163 Q1040.9315,377.4218 1040.4334,377.4218 Q1038.6639,377.4218 1037.7323,376.2558 Q1036.8006,375.0898 1036.8006,372.8866 Q1036.8006,370.6777 1037.7323,369.5116 Q1038.6639,368.3456 1040.4334,368.3456 Q1040.9315,368.3456 1041.3885,368.4511 Q1041.8455,368.5566 1042.244,368.7675 L1042.244,370.6894 Q1041.7987,370.2792 1041.3797,370.0888 Q1040.9608,369.8984 1040.5155,369.8984 Q1039.5662,369.8984 1039.0829,370.6513 Q1038.5995,371.4042 1038.5995,372.8866 Q1038.5995,374.3632 1039.0829,375.1161 Q1039.5662,375.8691 1040.5155,375.8691 Q1040.9608,375.8691 1041.3797,375.6786 Q1041.7987,375.4882 1042.244,375.078 Z " fill="#CAD3F5"/><text fill="#A6DA95" font-family="sans-serif" font-size="16" lengthAdjust="spacing" textLength="52.0547" x="1052.41" y="378.7988">Failure</text><line style="stroke:#C6A0F6;stroke-width:2.0;" x1="1028.41" x2="1106.4647" y1="387.1738" y2="387.1738"/><line style="stroke:#C6A0F6;stroke-width:2.0;" x1="1028.41" x2="1106.4647" y1="395.1738" y2="395.1738"/></g><!--reverse link Try to Success<T>(T value)--><g id="link_Try_Success&lt;T&gt;(T value)"><path d="M544.6818,236.978 C498.7718,257.008 467.7,270.57 423.11,290.02 " fill="none" id="Try-backto-Success&lt;T&gt;(T value)" style="stroke:#F5BDE6;stroke-width:1.0;stroke-dasharray:7.0,7.0;"/><polygon fill="none" points="561.18,229.78,542.2825,231.4786,547.0812,242.4773,561.18,229.78" style="stroke:#F5BDE6;stroke-width:1.0;"/></g><!--reverse link Try to Failure<T>(Throwable cause)--><g id="link_Try_Failure&lt;T&gt;(Throwable cause)"><path d="M737.7322,245.528 C726.8322,265.218 724.27,269.85 713.66,289.02 " fill="none" id="Try-backto-Failure&lt;T&gt;(Throwable cause)" style="stroke:#F5BDE6;stroke-width:1.0;stroke-dasharray:7.0,7.0;"/><polygon fill="none" points="746.45,229.78,732.4829,242.6221,742.9815,248.4339,746.45,229.78" style="stroke:#F5BDE6;stroke-width:1.0;"/></g><!--reverse link Try to Success--><g id="link_Try_Success"><path codeLine="48" d="M873.605,245.5018 C900.315,293.4118 920.57,329.75 936.42,358.19 " fill="none" id="Try-backto-Success" style="stroke:#F5BDE6;stroke-width:1.0;"/><polygon fill="none" points="864.84,229.78,868.3644,248.4235,878.8456,242.5802,864.84,229.78" style="stroke:#F5BDE6;stroke-width:1.0;"/></g><!--reverse link Try to Failure--><g id="link_Try_Failure"><path codeLine="49" d="M962.8652,241.5301 C984.4452,260.3201 992.03,268.71 1010.44,289.44 C1029.28,310.65 1045.96,338.76 1056.33,357.95 " fill="none" id="Try-backto-Failure" style="stroke:#F5BDE6;stroke-width:1.0;"/><polygon fill="none" points="949.29,229.71,958.9251,246.0552,966.8052,237.005,949.29,229.71" style="stroke:#F5BDE6;stroke-width:1.0;"/></g><!--SRC=[tLGzRzim4DtrAowUPDIoEXU6WQ20qGxkK2le69meAY9AaG9vT92c-UyzVLWsRALnXYwTTEAzU_Vro1kgP2sXqQXCTAECqA6GK14r_bEQEdnSFYYgGXwyTC8QaeQMmjQf4TOJ9aga0gbfWX3A93KAKIaacp2VeL3hfADFQsPFEtFPy6daVohJeCCQX4RlRucSoWF9hvnYftv9-7W2AMI9GTE6itz3hdNstUQMx0A-IBsNf0JEeaXnQQv4mUxCFQsozGpG0vlm705yW6VCFJaKz0AvjLgY0ULtNBRqFfw_3jcWqi79IqW63vBYEL3bx2DdQZ-OQtc1ushkrb1Z4s-24QIiMMKBw8yQwUQl19GQQNiMrBl-6fcjmKbXzzATH1vgOuRH_TIwtw3umQkVfkbWRt3TGMbrSTwrxsU-xLfOm1Hxstq_zkrqetkh2Xu2YIh-R8qFjNHjrGFrRKUuWAFhG3tozf21btNC8XfxjsMy2qsZrO6qjwV1GyeuWptg8AT1Gz9uhACNJMlDevU8OxfR0BD1Znmp4ivWjMgdx0eUjweRpNV8q57PRRxTPH40z_UmbLJPmhFPdJ1oMlfdhbF9Twv1wkFl5Oe-1Lwdv37Y_GgU27stSdaD9uiOHj0jOboQG7u4hrh8vcBXVUm_MipK6_H_RweTzkftaXoaVpmOPXJz0G00]--></g></svg>