<svg xmlns="http://www.w3.org/2000/svg" xmlns:xlink="http://www.w3.org/1999/xlink" contentStyleType="text/css" height="716px" preserveAspectRatio="none" style="width:1915px;height:716px;background:#24273A;" version="1.1" viewBox="0 0 1915 716" width="1915px" zoomAndPan="magnify"><defs/><g><rect fill="#24273A" height="716" style="stroke:none;stroke-width:1.0;" width="1915" x="0" y="0"/><!--cluster Core HKT Interfaces--><g id="cluster_Core HKT Interfaces"><path d="M1395.5,395.86 L1522.7129,395.86 A2.25,2.25 0 0 1 1524.2129,397.36 L1531.2129,415.9928 L1806.5,415.9928 A1.5,1.5 0 0 1 1808,417.4928 L1808,606.25 A1.5,1.5 0 0 1 1806.5,607.75 L1395.5,607.75 A1.5,1.5 0 0 1 1394,606.25 L1394,397.36 A1.5,1.5 0 0 1 1395.5,395.86 " fill="#24273A" style="stroke:#CAD3F5;stroke-width:1.0;"/><line style="stroke:#CAD3F5;stroke-width:1.0;" x1="1394" x2="1531.2129" y1="415.9928" y2="415.9928"/><text fill="#CAD3F5" font-family="sans-serif" font-size="12" font-weight="bold" lengthAdjust="spacing" textLength="124.2129" x="1398" y="409.4616">Core HKT Interfaces</text></g><!--cluster Try Type--><g id="cluster_Try Type"><path d="M1406.5,260.95 L1464.4434,260.95 A2.25,2.25 0 0 1 1465.9434,262.45 L1472.9434,281.0828 L1499.5,281.0828 A1.5,1.5 0 0 1 1501,282.5828 L1501,337.3 A1.5,1.5 0 0 1 1499.5,338.8 L1406.5,338.8 A1.5,1.5 0 0 1 1405,337.3 L1405,262.45 A1.5,1.5 0 0 1 1406.5,260.95 " fill="#24273A" style="stroke:#CAD3F5;stroke-width:1.0;"/><line style="stroke:#CAD3F5;stroke-width:1.0;" x1="1405" x2="1472.9434" y1="281.0828" y2="281.0828"/><text fill="#CAD3F5" font-family="sans-serif" font-size="12" font-weight="bold" lengthAdjust="spacing" textLength="54.9434" x="1409" y="274.5516">Try Type</text></g><!--cluster Try HKT Simulation--><g id="cluster_Try HKT Simulation"><path d="M12.5,11 L135.8457,11 A2.25,2.25 0 0 1 137.3457,12.5 L144.3457,31.1328 L1246.5,31.1328 A1.5,1.5 0 0 1 1248,32.6328 L1248,617.32 A1.5,1.5 0 0 1 1246.5,618.82 L12.5,618.82 A1.5,1.5 0 0 1 11,617.32 L11,12.5 A1.5,1.5 0 0 1 12.5,11 " fill="#24273A" style="stroke:#CAD3F5;stroke-width:1.0;"/><line style="stroke:#CAD3F5;stroke-width:1.0;" x1="11" x2="144.3457" y1="31.1328" y2="31.1328"/><text fill="#CAD3F5" font-family="sans-serif" font-size="12" font-weight="bold" lengthAdjust="spacing" textLength="120.3457" x="15" y="24.6016">Try HKT Simulation</text></g><!--class Kind--><g id="elem_Kind"><rect codeLine="9" fill="#24273A" height="28.8438" id="Kind" rx="1.5" ry="1.5" style="stroke:#C6A0F6;stroke-width:2.0;" width="90.7422" x="1701.63" y="428.86"/><rect fill="#363A4F" height="28.8438" rx="1.5" ry="1.5" style="stroke:#363A4F;stroke-width:2.0;" width="90.7422" x="1701.63" y="428.86"/><rect fill="#363A4F" height="1.5" style="stroke:#363A4F;stroke-width:2.0;" width="90.7422" x="1701.63" y="456.2037"/><rect codeLine="9" fill="none" height="28.8438" id="Kind" rx="1.5" ry="1.5" style="stroke:#C6A0F6;stroke-width:2.0;" width="90.7422" x="1701.63" y="428.86"/><ellipse cx="1714.63" cy="443.2819" fill="#FFFFFF" rx="9" ry="9" style="stroke:#000000;stroke-width:1.0;"/><path d="M1711.6378,440.5573 L1711.6378,439.0338 L1716.8468,439.0338 L1716.8468,440.5573 L1715.1066,440.5573 L1715.1066,446.2584 L1716.8468,446.2584 L1716.8468,447.7819 L1711.6378,447.7819 L1711.6378,446.2584 L1713.378,446.2584 L1713.378,440.5573 Z " fill="#CAD3F5"/><text fill="#A6DA95" font-family="sans-serif" font-size="16" font-style="italic" lengthAdjust="spacing" textLength="35.0703" x="1726.63" y="449.3287">Kind</text><rect fill="#24273A" height="16.584" style="stroke:#C6A0F6;stroke-width:1.0;stroke-dasharray:2.0,2.0;" width="25.6719" x="1769.7003" y="425.86"/><text fill="#000000" font-family="Verdana" font-size="12" font-style="italic" lengthAdjust="spacing" textLength="23.6719" x="1770.7003" y="438.9245">F, A</text></g><!--class Functor--><g id="elem_Functor"><rect codeLine="10" fill="#24273A" height="28.8438" id="Functor" rx="1.5" ry="1.5" style="stroke:#C6A0F6;stroke-width:2.0;" width="97.8887" x="1410.06" y="428.86"/><rect fill="#363A4F" height="28.8438" rx="1.5" ry="1.5" style="stroke:#363A4F;stroke-width:2.0;" width="97.8887" x="1410.06" y="428.86"/><rect fill="#363A4F" height="1.5" style="stroke:#363A4F;stroke-width:2.0;" width="97.8887" x="1410.06" y="456.2037"/><rect codeLine="10" fill="none" height="28.8438" id="Functor" rx="1.5" ry="1.5" style="stroke:#C6A0F6;stroke-width:2.0;" width="97.8887" x="1410.06" y="428.86"/><ellipse cx="1423.06" cy="443.2819" fill="#FFFFFF" rx="9" ry="9" style="stroke:#000000;stroke-width:1.0;"/><path d="M1420.0678,440.5573 L1420.0678,439.0338 L1425.2768,439.0338 L1425.2768,440.5573 L1423.5366,440.5573 L1423.5366,446.2584 L1425.2768,446.2584 L1425.2768,447.7819 L1420.0678,447.7819 L1420.0678,446.2584 L1421.808,446.2584 L1421.808,440.5573 Z " fill="#CAD3F5"/><text fill="#A6DA95" font-family="sans-serif" font-size="16" font-style="italic" lengthAdjust="spacing" textLength="58.9922" x="1435.06" y="449.3287">Functor</text><rect fill="#24273A" height="16.584" style="stroke:#C6A0F6;stroke-width:1.0;stroke-dasharray:2.0,2.0;" width="8.8965" x="1502.0522" y="425.86"/><text fill="#000000" font-family="Verdana" font-size="12" font-style="italic" lengthAdjust="spacing" textLength="6.8965" x="1503.0522" y="438.9245">F</text></g><!--class Applicative--><g id="elem_Applicative"><rect codeLine="11" fill="#24273A" height="28.8438" id="Applicative" rx="1.5" ry="1.5" style="stroke:#C6A0F6;stroke-width:2.0;" width="124.1621" x="1542.92" y="428.86"/><rect fill="#363A4F" height="28.8438" rx="1.5" ry="1.5" style="stroke:#363A4F;stroke-width:2.0;" width="124.1621" x="1542.92" y="428.86"/><rect fill="#363A4F" height="1.5" style="stroke:#363A4F;stroke-width:2.0;" width="124.1621" x="1542.92" y="456.2037"/><rect codeLine="11" fill="none" height="28.8438" id="Applicative" rx="1.5" ry="1.5" style="stroke:#C6A0F6;stroke-width:2.0;" width="124.1621" x="1542.92" y="428.86"/><ellipse cx="1555.92" cy="443.2819" fill="#FFFFFF" rx="9" ry="9" style="stroke:#000000;stroke-width:1.0;"/><path d="M1552.9278,440.5573 L1552.9278,439.0338 L1558.1368,439.0338 L1558.1368,440.5573 L1556.3966,440.5573 L1556.3966,446.2584 L1558.1368,446.2584 L1558.1368,447.7819 L1552.9278,447.7819 L1552.9278,446.2584 L1554.668,446.2584 L1554.668,440.5573 Z " fill="#CAD3F5"/><text fill="#A6DA95" font-family="sans-serif" font-size="16" font-style="italic" lengthAdjust="spacing" textLength="85.2656" x="1567.92" y="449.3287">Applicative</text><rect fill="#24273A" height="16.584" style="stroke:#C6A0F6;stroke-width:1.0;stroke-dasharray:2.0,2.0;" width="8.8965" x="1661.1856" y="425.86"/><text fill="#000000" font-family="Verdana" font-size="12" font-style="italic" lengthAdjust="spacing" textLength="6.8965" x="1662.1856" y="438.9245">F</text></g><!--class Monad--><g id="elem_Monad"><rect codeLine="12" fill="#24273A" height="28.8438" id="Monad" rx="1.5" ry="1.5" style="stroke:#C6A0F6;stroke-width:2.0;" width="91.3418" x="1413.33" y="562.91"/><rect fill="#363A4F" height="28.8438" rx="1.5" ry="1.5" style="stroke:#363A4F;stroke-width:2.0;" width="91.3418" x="1413.33" y="562.91"/><rect fill="#363A4F" height="1.5" style="stroke:#363A4F;stroke-width:2.0;" width="91.3418" x="1413.33" y="590.2538"/><rect codeLine="12" fill="none" height="28.8438" id="Monad" rx="1.5" ry="1.5" style="stroke:#C6A0F6;stroke-width:2.0;" width="91.3418" x="1413.33" y="562.91"/><ellipse cx="1426.33" cy="577.3319" fill="#FFFFFF" rx="9" ry="9" style="stroke:#000000;stroke-width:1.0;"/><path d="M1423.3378,574.6073 L1423.3378,573.0838 L1428.5468,573.0838 L1428.5468,574.6073 L1426.8066,574.6073 L1426.8066,580.3084 L1428.5468,580.3084 L1428.5468,581.8319 L1423.3378,581.8319 L1423.3378,580.3084 L1425.078,580.3084 L1425.078,574.6073 Z " fill="#CAD3F5"/><text fill="#A6DA95" font-family="sans-serif" font-size="16" font-style="italic" lengthAdjust="spacing" textLength="52.4453" x="1438.33" y="583.3788">Monad</text><rect fill="#24273A" height="16.584" style="stroke:#C6A0F6;stroke-width:1.0;stroke-dasharray:2.0,2.0;" width="8.8965" x="1498.7753" y="559.91"/><text fill="#000000" font-family="Verdana" font-size="12" font-style="italic" lengthAdjust="spacing" textLength="6.8965" x="1499.7753" y="572.9745">F</text></g><!--class MonadError--><g id="elem_MonadError"><rect codeLine="13" fill="#24273A" height="28.8438" id="MonadError" rx="1.5" ry="1.5" style="stroke:#C6A0F6;stroke-width:2.0;" width="145.6543" x="1539.17" y="562.91"/><rect fill="#363A4F" height="28.8438" rx="1.5" ry="1.5" style="stroke:#363A4F;stroke-width:2.0;" width="145.6543" x="1539.17" y="562.91"/><rect fill="#363A4F" height="1.5" style="stroke:#363A4F;stroke-width:2.0;" width="145.6543" x="1539.17" y="590.2538"/><rect codeLine="13" fill="none" height="28.8438" id="MonadError" rx="1.5" ry="1.5" style="stroke:#C6A0F6;stroke-width:2.0;" width="145.6543" x="1539.17" y="562.91"/><ellipse cx="1552.17" cy="577.3319" fill="#FFFFFF" rx="9" ry="9" style="stroke:#000000;stroke-width:1.0;"/><path d="M1549.1778,574.6073 L1549.1778,573.0838 L1554.3868,573.0838 L1554.3868,574.6073 L1552.6466,574.6073 L1552.6466,580.3084 L1554.3868,580.3084 L1554.3868,581.8319 L1549.1778,581.8319 L1549.1778,580.3084 L1550.918,580.3084 L1550.918,574.6073 Z " fill="#CAD3F5"/><text fill="#A6DA95" font-family="sans-serif" font-size="16" font-style="italic" lengthAdjust="spacing" textLength="90.5859" x="1564.17" y="583.3788">MonadError</text><rect fill="#24273A" height="16.584" style="stroke:#C6A0F6;stroke-width:1.0;stroke-dasharray:2.0,2.0;" width="25.0684" x="1662.7559" y="559.91"/><text fill="#000000" font-family="Verdana" font-size="12" font-style="italic" lengthAdjust="spacing" textLength="23.0684" x="1663.7559" y="572.9745">F, E</text></g><!--class Try--><g id="elem_Try"><rect codeLine="17" fill="#24273A" height="28.8438" id="Try" rx="1.5" ry="1.5" style="stroke:#C6A0F6;stroke-width:2.0;" width="64.418" x="1420.79" y="293.95"/><rect fill="#363A4F" height="28.8438" rx="1.5" ry="1.5" style="stroke:#363A4F;stroke-width:2.0;" width="64.418" x="1420.79" y="293.95"/><rect fill="#363A4F" height="1.5" style="stroke:#363A4F;stroke-width:2.0;" width="64.418" x="1420.79" y="321.2938"/><rect codeLine="17" fill="none" height="28.8438" id="Try" rx="1.5" ry="1.5" style="stroke:#C6A0F6;stroke-width:2.0;" width="64.418" x="1420.79" y="293.95"/><ellipse cx="1433.79" cy="308.3719" fill="#FFFFFF" rx="9" ry="9" style="stroke:#000000;stroke-width:1.0;"/><path d="M1430.7978,305.6473 L1430.7978,304.1238 L1436.0068,304.1238 L1436.0068,305.6473 L1434.2666,305.6473 L1434.2666,311.3484 L1436.0068,311.3484 L1436.0068,312.8719 L1430.7978,312.8719 L1430.7978,311.3484 L1432.538,311.3484 L1432.538,305.6473 Z " fill="#CAD3F5"/><text fill="#A6DA95" font-family="sans-serif" font-size="16" font-style="italic" lengthAdjust="spacing" textLength="25.0234" x="1445.79" y="314.4188">Try</text><rect fill="#24273A" height="16.584" style="stroke:#C6A0F6;stroke-width:1.0;stroke-dasharray:2.0,2.0;" width="9.3945" x="1478.8134" y="290.95"/><text fill="#000000" font-family="Verdana" font-size="12" font-style="italic" lengthAdjust="spacing" textLength="7.3945" x="1479.8134" y="304.0145">T</text></g><!--class TryKind--><g id="elem_TryKind"><rect codeLine="24" fill="#24273A" height="28.8438" id="TryKind" rx="1.5" ry="1.5" style="stroke:#C6A0F6;stroke-width:2.0;" width="360.3555" x="871.82" y="293.95"/><rect fill="#363A4F" height="28.8438" rx="1.5" ry="1.5" style="stroke:#363A4F;stroke-width:2.0;" width="360.3555" x="871.82" y="293.95"/><rect fill="#363A4F" height="1.5" style="stroke:#363A4F;stroke-width:2.0;" width="360.3555" x="871.82" y="321.2938"/><rect codeLine="24" fill="none" height="28.8438" id="TryKind" rx="1.5" ry="1.5" style="stroke:#C6A0F6;stroke-width:2.0;" width="360.3555" x="871.82" y="293.95"/><ellipse cx="884.82" cy="308.3719" fill="#FFFFFF" rx="9" ry="9" style="stroke:#000000;stroke-width:1.0;"/><path d="M881.8278,305.6473 L881.8278,304.1238 L887.0368,304.1238 L887.0368,305.6473 L885.2966,305.6473 L885.2966,311.3484 L887.0368,311.3484 L887.0368,312.8719 L881.8278,312.8719 L881.8278,311.3484 L883.568,311.3484 L883.568,305.6473 Z " fill="#CAD3F5"/><text fill="#A6DA95" font-family="sans-serif" font-size="16" font-style="italic" lengthAdjust="spacing" textLength="214.5781" x="896.82" y="314.4188">TryKind&lt;T&gt;" extends "Kind</text><rect fill="#24273A" height="16.584" style="stroke:#C6A0F6;stroke-width:1.0;stroke-dasharray:2.0,2.0;" width="115.7773" x="1119.3981" y="290.95"/><text fill="#000000" font-family="Verdana" font-size="12" font-style="italic" lengthAdjust="spacing" textLength="113.7773" x="1120.3981" y="304.0145">TryKind.Witness, T</text></g><!--class TryFunctor--><g id="elem_TryFunctor"><rect codeLine="26" fill="#24273A" height="50.9766" id="TryFunctor" rx="1.5" ry="1.5" style="stroke:#C6A0F6;stroke-width:2.0;" width="489.3105" x="207.34" y="551.84"/><rect fill="#363A4F" height="28.8438" rx="1.5" ry="1.5" style="stroke:#363A4F;stroke-width:2.0;" width="489.3105" x="207.34" y="551.84"/><rect fill="#363A4F" height="1.5" style="stroke:#363A4F;stroke-width:2.0;" width="489.3105" x="207.34" y="579.1838"/><rect codeLine="26" fill="none" height="50.9766" id="TryFunctor" rx="1.5" ry="1.5" style="stroke:#C6A0F6;stroke-width:2.0;" width="489.3105" x="207.34" y="551.84"/><ellipse cx="406.2375" cy="566.2619" fill="#FFFFFF" rx="9" ry="9" style="stroke:#000000;stroke-width:1.0;"/><path d="M408.0714,570.5099 Q407.6613,570.7209 407.2101,570.8263 Q406.7589,570.9318 406.2609,570.9318 Q404.4914,570.9318 403.5597,569.7658 Q402.6281,568.5998 402.6281,566.3966 Q402.6281,564.1877 403.5597,563.0216 Q404.4914,561.8556 406.2609,561.8556 Q406.7589,561.8556 407.216,561.9611 Q407.673,562.0666 408.0714,562.2775 L408.0714,564.1994 Q407.6261,563.7892 407.2072,563.5988 Q406.7882,563.4084 406.3429,563.4084 Q405.3937,563.4084 404.9103,564.1613 Q404.4269,564.9142 404.4269,566.3966 Q404.4269,567.8732 404.9103,568.6261 Q405.3937,569.3791 406.3429,569.3791 Q406.7882,569.3791 407.2072,569.1886 Q407.6261,568.9982 408.0714,568.588 Z " fill="#CAD3F5"/><text fill="#A6DA95" font-family="sans-serif" font-size="16" lengthAdjust="spacing" textLength="84.0156" x="423.7375" y="572.3088">TryFunctor</text><line style="stroke:#C6A0F6;stroke-width:2.0;" x1="208.34" x2="695.6505" y1="580.6838" y2="580.6838"/><text fill="#A6DA95" font-family="sans-serif" font-size="12" lengthAdjust="spacing" textLength="477.3105" x="213.34" y="596.2853">+Kind&lt;TryKind.Witness, B&gt; map(Function&lt;A, B&gt; f, Kind&lt;TryKind.Witness, A&gt; fa)</text></g><!--class Functor--><g id="elem_Functor"><rect fill="#24273A" height="28.8438" id="Functor" rx="1.5" ry="1.5" style="stroke:#C6A0F6;stroke-width:2.0;" width="86.9922" x="69.5" y="428.86"/><rect fill="#363A4F" height="28.8438" rx="1.5" ry="1.5" style="stroke:#363A4F;stroke-width:2.0;" width="86.9922" x="69.5" y="428.86"/><rect fill="#363A4F" height="1.5" style="stroke:#363A4F;stroke-width:2.0;" width="86.9922" x="69.5" y="456.2037"/><rect fill="none" height="28.8438" id="Functor" rx="1.5" ry="1.5" style="stroke:#C6A0F6;stroke-width:2.0;" width="86.9922" x="69.5" y="428.86"/><ellipse cx="82.5" cy="443.2819" fill="#FFFFFF" rx="9" ry="9" style="stroke:#000000;stroke-width:1.0;"/><path d="M79.5078,440.5573 L79.5078,439.0338 L84.7168,439.0338 L84.7168,440.5573 L82.9766,440.5573 L82.9766,446.2584 L84.7168,446.2584 L84.7168,447.7819 L79.5078,447.7819 L79.5078,446.2584 L81.248,446.2584 L81.248,440.5573 Z " fill="#CAD3F5"/><text fill="#A6DA95" font-family="sans-serif" font-size="16" font-style="italic" lengthAdjust="spacing" textLength="58.9922" x="94.5" y="449.3287">Functor</text></g><!--class TryApplicative--><g id="elem_TryApplicative"><rect codeLine="29" fill="#24273A" height="65.1094" id="TryApplicative" rx="1.5" ry="1.5" style="stroke:#C6A0F6;stroke-width:2.0;" width="628.9512" x="191.52" y="410.73"/><rect fill="#363A4F" height="28.8438" rx="1.5" ry="1.5" style="stroke:#363A4F;stroke-width:2.0;" width="628.9512" x="191.52" y="410.73"/><rect fill="#363A4F" height="1.5" style="stroke:#363A4F;stroke-width:2.0;" width="628.9512" x="191.52" y="438.0737"/><rect codeLine="29" fill="none" height="65.1094" id="TryApplicative" rx="1.5" ry="1.5" style="stroke:#C6A0F6;stroke-width:2.0;" width="628.9512" x="191.52" y="410.73"/><ellipse cx="447.1011" cy="425.1519" fill="#FFFFFF" rx="9" ry="9" style="stroke:#000000;stroke-width:1.0;"/><path d="M448.935,429.3999 Q448.5249,429.6109 448.0737,429.7163 Q447.6225,429.8218 447.1245,429.8218 Q445.355,429.8218 444.4233,428.6558 Q443.4917,427.4898 443.4917,425.2866 Q443.4917,423.0777 444.4233,421.9116 Q445.355,420.7456 447.1245,420.7456 Q447.6225,420.7456 448.0796,420.8511 Q448.5366,420.9566 448.935,421.1675 L448.935,423.0894 Q448.4897,422.6792 448.0708,422.4888 Q447.6518,422.2984 447.2065,422.2984 Q446.2573,422.2984 445.7739,423.0513 Q445.2905,423.8042 445.2905,425.2866 Q445.2905,426.7632 445.7739,427.5161 Q446.2573,428.2691 447.2065,428.2691 Q447.6518,428.2691 448.0708,428.0786 Q448.4897,427.8882 448.935,427.478 Z " fill="#CAD3F5"/><text fill="#A6DA95" font-family="sans-serif" font-size="16" lengthAdjust="spacing" textLength="110.2891" x="464.6011" y="431.1987">TryApplicative</text><line style="stroke:#C6A0F6;stroke-width:2.0;" x1="192.52" x2="819.4712" y1="439.5737" y2="439.5737"/><text fill="#A6DA95" font-family="sans-serif" font-size="12" lengthAdjust="spacing" textLength="230.1504" x="197.52" y="455.1753">+Kind&lt;TryKind.Witness, A&gt; of(A value)</text><text fill="#A6DA95" font-family="sans-serif" font-size="12" lengthAdjust="spacing" textLength="616.9512" x="197.52" y="469.3081">+Kind&lt;TryKind.Witness, B&gt; ap(Kind&lt;TryKind.Witness, Function&lt;A, B&gt;&gt; ff, Kind&lt;TryKind.Witness, A&gt; fa)</text></g><!--class Applicative--><g id="elem_Applicative"><rect fill="#24273A" height="28.8438" id="Applicative" rx="1.5" ry="1.5" style="stroke:#C6A0F6;stroke-width:2.0;" width="113.2656" x="27.37" y="293.95"/><rect fill="#363A4F" height="28.8438" rx="1.5" ry="1.5" style="stroke:#363A4F;stroke-width:2.0;" width="113.2656" x="27.37" y="293.95"/><rect fill="#363A4F" height="1.5" style="stroke:#363A4F;stroke-width:2.0;" width="113.2656" x="27.37" y="321.2938"/><rect fill="none" height="28.8438" id="Applicative" rx="1.5" ry="1.5" style="stroke:#C6A0F6;stroke-width:2.0;" width="113.2656" x="27.37" y="293.95"/><ellipse cx="40.37" cy="308.3719" fill="#FFFFFF" rx="9" ry="9" style="stroke:#000000;stroke-width:1.0;"/><path d="M37.3778,305.6473 L37.3778,304.1238 L42.5868,304.1238 L42.5868,305.6473 L40.8466,305.6473 L40.8466,311.3484 L42.5868,311.3484 L42.5868,312.8719 L37.3778,312.8719 L37.3778,311.3484 L39.118,311.3484 L39.118,305.6473 Z " fill="#CAD3F5"/><text fill="#A6DA95" font-family="sans-serif" font-size="16" font-style="italic" lengthAdjust="spacing" textLength="85.2656" x="52.37" y="314.4188">Applicative</text></g><!--class TryMonad--><g id="elem_TryMonad"><rect codeLine="33" fill="#24273A" height="50.9766" id="TryMonad" rx="1.5" ry="1.5" style="stroke:#C6A0F6;stroke-width:2.0;" width="660.6621" x="175.67" y="282.89"/><rect fill="#363A4F" height="28.8438" rx="1.5" ry="1.5" style="stroke:#363A4F;stroke-width:2.0;" width="660.6621" x="175.67" y="282.89"/><rect fill="#363A4F" height="1.5" style="stroke:#363A4F;stroke-width:2.0;" width="660.6621" x="175.67" y="310.2338"/><rect codeLine="33" fill="none" height="50.9766" id="TryMonad" rx="1.5" ry="1.5" style="stroke:#C6A0F6;stroke-width:2.0;" width="660.6621" x="175.67" y="282.89"/><ellipse cx="463.5167" cy="297.3119" fill="#FFFFFF" rx="9" ry="9" style="stroke:#000000;stroke-width:1.0;"/><path d="M465.3507,301.5599 Q464.9405,301.7709 464.4893,301.8763 Q464.0382,301.9818 463.5401,301.9818 Q461.7706,301.9818 460.8389,300.8158 Q459.9073,299.6498 459.9073,297.4466 Q459.9073,295.2377 460.8389,294.0716 Q461.7706,292.9056 463.5401,292.9056 Q464.0382,292.9056 464.4952,293.0111 Q464.9522,293.1166 465.3507,293.3275 L465.3507,295.2494 Q464.9054,294.8392 464.4864,294.6488 Q464.0675,294.4584 463.6221,294.4584 Q462.6729,294.4584 462.1895,295.2113 Q461.7061,295.9642 461.7061,297.4466 Q461.7061,298.9232 462.1895,299.6761 Q462.6729,300.4291 463.6221,300.4291 Q464.0675,300.4291 464.4864,300.2386 Q464.9054,300.0482 465.3507,299.638 Z " fill="#CAD3F5"/><text fill="#A6DA95" font-family="sans-serif" font-size="16" lengthAdjust="spacing" textLength="77.4688" x="481.0167" y="303.3588">TryMonad</text><line style="stroke:#C6A0F6;stroke-width:2.0;" x1="176.67" x2="835.3321" y1="311.7338" y2="311.7338"/><text fill="#A6DA95" font-family="sans-serif" font-size="12" lengthAdjust="spacing" textLength="648.6621" x="181.67" y="327.3353">+Kind&lt;TryKind.Witness, B&gt; flatMap(Function&lt;A, Kind&lt;TryKind.Witness, B&gt;&gt; f, Kind&lt;TryKind.Witness, A&gt; ma)</text></g><!--class Monad--><g id="elem_Monad"><rect fill="#24273A" height="28.8438" id="Monad" rx="1.5" ry="1.5" style="stroke:#C6A0F6;stroke-width:2.0;" width="80.4453" x="310.78" y="151.98"/><rect fill="#363A4F" height="28.8438" rx="1.5" ry="1.5" style="stroke:#363A4F;stroke-width:2.0;" width="80.4453" x="310.78" y="151.98"/><rect fill="#363A4F" height="1.5" style="stroke:#363A4F;stroke-width:2.0;" width="80.4453" x="310.78" y="179.3238"/><rect fill="none" height="28.8438" id="Monad" rx="1.5" ry="1.5" style="stroke:#C6A0F6;stroke-width:2.0;" width="80.4453" x="310.78" y="151.98"/><ellipse cx="323.78" cy="166.4019" fill="#FFFFFF" rx="9" ry="9" style="stroke:#000000;stroke-width:1.0;"/><path d="M320.7878,163.6773 L320.7878,162.1538 L325.9968,162.1538 L325.9968,163.6773 L324.2566,163.6773 L324.2566,169.3784 L325.9968,169.3784 L325.9968,170.9019 L320.7878,170.9019 L320.7878,169.3784 L322.528,169.3784 L322.528,163.6773 Z " fill="#CAD3F5"/><text fill="#A6DA95" font-family="sans-serif" font-size="16" font-style="italic" lengthAdjust="spacing" textLength="52.4453" x="335.78" y="172.4488">Monad</text></g><!--class TryMonadError--><g id="elem_TryMonadError"><rect codeLine="36" fill="#24273A" height="65.1094" id="TryMonadError" rx="1.5" ry="1.5" style="stroke:#C6A0F6;stroke-width:2.0;" width="805.752" x="426.12" y="133.84"/><rect fill="#363A4F" height="28.8438" rx="1.5" ry="1.5" style="stroke:#363A4F;stroke-width:2.0;" width="805.752" x="426.12" y="133.84"/><rect fill="#363A4F" height="1.5" style="stroke:#363A4F;stroke-width:2.0;" width="805.752" x="426.12" y="161.1837"/><rect codeLine="36" fill="none" height="65.1094" id="TryMonadError" rx="1.5" ry="1.5" style="stroke:#C6A0F6;stroke-width:2.0;" width="805.752" x="426.12" y="133.84"/><ellipse cx="767.4413" cy="148.2619" fill="#FFFFFF" rx="9" ry="9" style="stroke:#000000;stroke-width:1.0;"/><path d="M769.2753,152.5099 Q768.8651,152.7209 768.4139,152.8263 Q767.9628,152.9318 767.4647,152.9318 Q765.6952,152.9318 764.7636,151.7658 Q763.8319,150.5998 763.8319,148.3966 Q763.8319,146.1877 764.7636,145.0216 Q765.6952,143.8556 767.4647,143.8556 Q767.9628,143.8556 768.4198,143.9611 Q768.8768,144.0666 769.2753,144.2775 L769.2753,146.1994 Q768.83,145.7892 768.411,145.5988 Q767.9921,145.4084 767.5468,145.4084 Q766.5975,145.4084 766.1141,146.1613 Q765.6307,146.9142 765.6307,148.3966 Q765.6307,149.8732 766.1141,150.6261 Q766.5975,151.3791 767.5468,151.3791 Q767.9921,151.3791 768.411,151.1886 Q768.83,150.9982 769.2753,150.588 Z " fill="#CAD3F5"/><text fill="#A6DA95" font-family="sans-serif" font-size="16" lengthAdjust="spacing" textLength="115.6094" x="784.9413" y="154.3087">TryMonadError</text><line style="stroke:#C6A0F6;stroke-width:2.0;" x1="427.12" x2="1230.872" y1="162.6837" y2="162.6837"/><text fill="#A6DA95" font-family="sans-serif" font-size="12" lengthAdjust="spacing" textLength="325.7461" x="432.12" y="178.2853">+Kind&lt;TryKind.Witness, A&gt; raiseError(Throwable error)</text><text fill="#A6DA95" font-family="sans-serif" font-size="12" lengthAdjust="spacing" textLength="793.752" x="432.12" y="192.4181">+Kind&lt;TryKind.Witness, A&gt; handleErrorWith(Kind&lt;TryKind.Witness, A&gt; ma, Function&lt;Throwable, Kind&lt;TryKind.Witness, A&gt;&gt; handler)</text></g><!--class MonadError--><g id="elem_MonadError"><rect fill="#24273A" height="28.8438" id="MonadError" rx="1.5" ry="1.5" style="stroke:#C6A0F6;stroke-width:2.0;" width="118.5859" x="769.71" y="44"/><rect fill="#363A4F" height="28.8438" rx="1.5" ry="1.5" style="stroke:#363A4F;stroke-width:2.0;" width="118.5859" x="769.71" y="44"/><rect fill="#363A4F" height="1.5" style="stroke:#363A4F;stroke-width:2.0;" width="118.5859" x="769.71" y="71.3438"/><rect fill="none" height="28.8438" id="MonadError" rx="1.5" ry="1.5" style="stroke:#C6A0F6;stroke-width:2.0;" width="118.5859" x="769.71" y="44"/><ellipse cx="782.71" cy="58.4219" fill="#FFFFFF" rx="9" ry="9" style="stroke:#000000;stroke-width:1.0;"/><path d="M779.7178,55.6973 L779.7178,54.1738 L784.9268,54.1738 L784.9268,55.6973 L783.1866,55.6973 L783.1866,61.3984 L784.9268,61.3984 L784.9268,62.9219 L779.7178,62.9219 L779.7178,61.3984 L781.458,61.3984 L781.458,55.6973 Z " fill="#CAD3F5"/><text fill="#A6DA95" font-family="sans-serif" font-size="16" font-style="italic" lengthAdjust="spacing" textLength="90.5859" x="794.71" y="64.4688">MonadError</text></g><!--class Functor--><g id="elem_Functor"><rect fill="#24273A" height="28.8438" id="Functor" rx="1.5" ry="1.5" style="stroke:#C6A0F6;stroke-width:2.0;" width="86.9922" x="408.5" y="680.82"/><rect fill="#363A4F" height="28.8438" rx="1.5" ry="1.5" style="stroke:#363A4F;stroke-width:2.0;" width="86.9922" x="408.5" y="680.82"/><rect fill="#363A4F" height="1.5" style="stroke:#363A4F;stroke-width:2.0;" width="86.9922" x="408.5" y="708.1637"/><rect fill="none" height="28.8438" id="Functor" rx="1.5" ry="1.5" style="stroke:#C6A0F6;stroke-width:2.0;" width="86.9922" x="408.5" y="680.82"/><ellipse cx="421.5" cy="695.2419" fill="#FFFFFF" rx="9" ry="9" style="stroke:#000000;stroke-width:1.0;"/><path d="M423.334,699.4899 Q422.9238,699.7009 422.4727,699.8063 Q422.0215,699.9118 421.5234,699.9118 Q419.7539,699.9118 418.8223,698.7458 Q417.8906,697.5798 417.8906,695.3766 Q417.8906,693.1677 418.8223,692.0016 Q419.7539,690.8356 421.5234,690.8356 Q422.0215,690.8356 422.4785,690.9411 Q422.9355,691.0466 423.334,691.2575 L423.334,693.1794 Q422.8887,692.7692 422.4697,692.5788 Q422.0508,692.3884 421.6055,692.3884 Q420.6563,692.3884 420.1729,693.1413 Q419.6895,693.8942 419.6895,695.3766 Q419.6895,696.8532 420.1729,697.6061 Q420.6563,698.3591 421.6055,698.3591 Q422.0508,698.3591 422.4697,698.1686 Q422.8887,697.9782 423.334,697.568 Z " fill="#CAD3F5"/><text fill="#A6DA95" font-family="sans-serif" font-size="16" lengthAdjust="spacing" textLength="58.9922" x="433.5" y="701.2887">Functor</text></g><!--class Applicative--><g id="elem_Applicative"><rect fill="#24273A" height="28.8438" id="Applicative" rx="1.5" ry="1.5" style="stroke:#C6A0F6;stroke-width:2.0;" width="113.2656" x="1264.37" y="562.91"/><rect fill="#363A4F" height="28.8438" rx="1.5" ry="1.5" style="stroke:#363A4F;stroke-width:2.0;" width="113.2656" x="1264.37" y="562.91"/><rect fill="#363A4F" height="1.5" style="stroke:#363A4F;stroke-width:2.0;" width="113.2656" x="1264.37" y="590.2538"/><rect fill="none" height="28.8438" id="Applicative" rx="1.5" ry="1.5" style="stroke:#C6A0F6;stroke-width:2.0;" width="113.2656" x="1264.37" y="562.91"/><ellipse cx="1277.37" cy="577.3319" fill="#FFFFFF" rx="9" ry="9" style="stroke:#000000;stroke-width:1.0;"/><path d="M1279.204,581.5799 Q1278.7938,581.7909 1278.3427,581.8963 Q1277.8915,582.0018 1277.3934,582.0018 Q1275.6239,582.0018 1274.6923,580.8358 Q1273.7606,579.6698 1273.7606,577.4666 Q1273.7606,575.2577 1274.6923,574.0916 Q1275.6239,572.9256 1277.3934,572.9256 Q1277.8915,572.9256 1278.3485,573.0311 Q1278.8055,573.1366 1279.204,573.3475 L1279.204,575.2694 Q1278.7587,574.8592 1278.3397,574.6688 Q1277.9208,574.4784 1277.4755,574.4784 Q1276.5263,574.4784 1276.0429,575.2313 Q1275.5595,575.9842 1275.5595,577.4666 Q1275.5595,578.9432 1276.0429,579.6961 Q1276.5263,580.4491 1277.4755,580.4491 Q1277.9208,580.4491 1278.3397,580.2586 Q1278.7587,580.0682 1279.204,579.658 Z " fill="#CAD3F5"/><text fill="#A6DA95" font-family="sans-serif" font-size="16" lengthAdjust="spacing" textLength="85.2656" x="1289.37" y="583.3788">Applicative</text></g><!--class Monad--><g id="elem_Monad"><rect fill="#24273A" height="28.8438" id="Monad" rx="1.5" ry="1.5" style="stroke:#C6A0F6;stroke-width:2.0;" width="80.4453" x="1827.78" y="428.86"/><rect fill="#363A4F" height="28.8438" rx="1.5" ry="1.5" style="stroke:#363A4F;stroke-width:2.0;" width="80.4453" x="1827.78" y="428.86"/><rect fill="#363A4F" height="1.5" style="stroke:#363A4F;stroke-width:2.0;" width="80.4453" x="1827.78" y="456.2037"/><rect fill="none" height="28.8438" id="Monad" rx="1.5" ry="1.5" style="stroke:#C6A0F6;stroke-width:2.0;" width="80.4453" x="1827.78" y="428.86"/><ellipse cx="1840.78" cy="443.2819" fill="#FFFFFF" rx="9" ry="9" style="stroke:#000000;stroke-width:1.0;"/><path d="M1842.614,447.5299 Q1842.2038,447.7409 1841.7527,447.8463 Q1841.3015,447.9518 1840.8034,447.9518 Q1839.0339,447.9518 1838.1023,446.7858 Q1837.1706,445.6198 1837.1706,443.4166 Q1837.1706,441.2077 1838.1023,440.0416 Q1839.0339,438.8756 1840.8034,438.8756 Q1841.3015,438.8756 1841.7585,438.9811 Q1842.2155,439.0866 1842.614,439.2975 L1842.614,441.2194 Q1842.1687,440.8092 1841.7497,440.6188 Q1841.3308,440.4284 1840.8855,440.4284 Q1839.9363,440.4284 1839.4529,441.1813 Q1838.9695,441.9342 1838.9695,443.4166 Q1838.9695,444.8932 1839.4529,445.6461 Q1839.9363,446.3991 1840.8855,446.3991 Q1841.3308,446.3991 1841.7497,446.2086 Q1842.1687,446.0182 1842.614,445.608 Z " fill="#CAD3F5"/><text fill="#A6DA95" font-family="sans-serif" font-size="16" lengthAdjust="spacing" textLength="52.4453" x="1852.78" y="449.3287">Monad</text></g><!--class MonadError--><g id="elem_MonadError"><rect fill="#24273A" height="28.8438" id="MonadError" rx="1.5" ry="1.5" style="stroke:#C6A0F6;stroke-width:2.0;" width="118.5859" x="1266.71" y="293.95"/><rect fill="#363A4F" height="28.8438" rx="1.5" ry="1.5" style="stroke:#363A4F;stroke-width:2.0;" width="118.5859" x="1266.71" y="293.95"/><rect fill="#363A4F" height="1.5" style="stroke:#363A4F;stroke-width:2.0;" width="118.5859" x="1266.71" y="321.2938"/><rect fill="none" height="28.8438" id="MonadError" rx="1.5" ry="1.5" style="stroke:#C6A0F6;stroke-width:2.0;" width="118.5859" x="1266.71" y="293.95"/><ellipse cx="1279.71" cy="308.3719" fill="#FFFFFF" rx="9" ry="9" style="stroke:#000000;stroke-width:1.0;"/><path d="M1281.544,312.6199 Q1281.1338,312.8309 1280.6827,312.9363 Q1280.2315,313.0418 1279.7334,313.0418 Q1277.9639,313.0418 1277.0323,311.8758 Q1276.1006,310.7098 1276.1006,308.5066 Q1276.1006,306.2977 1277.0323,305.1316 Q1277.9639,303.9656 1279.7334,303.9656 Q1280.2315,303.9656 1280.6885,304.0711 Q1281.1455,304.1766 1281.544,304.3875 L1281.544,306.3094 Q1281.0987,305.8992 1280.6797,305.7088 Q1280.2608,305.5184 1279.8155,305.5184 Q1278.8663,305.5184 1278.3829,306.2713 Q1277.8995,307.0242 1277.8995,308.5066 Q1277.8995,309.9832 1278.3829,310.7361 Q1278.8663,311.4891 1279.8155,311.4891 Q1280.2608,311.4891 1280.6797,311.2986 Q1281.0987,311.1082 1281.544,310.698 Z " fill="#CAD3F5"/><text fill="#A6DA95" font-family="sans-serif" font-size="16" lengthAdjust="spacing" textLength="90.5859" x="1291.71" y="314.4188">MonadError</text></g><!--reverse link Functor to TryFunctor--><g id="link_Functor_TryFunctor"><path d="M153.7548,466.5461 C164.6748,472.3661 161.87,470.54 174,475.84 C240.42,504.88 318.18,532.46 374.54,551.36 " fill="none" id="Functor-backto-TryFunctor" style="stroke:#F5BDE6;stroke-width:1.0;stroke-dasharray:7.0,7.0;"/><polygon fill="none" points="137.87,458.08,150.9327,471.841,156.5768,461.2511,137.87,458.08" style="stroke:#F5BDE6;stroke-width:1.0;"/></g><!--reverse link TryFunctor to TryApplicative--><g id="link_TryFunctor_TryApplicative"><path d="M493.0089,538.2977 C500.9789,529.7677 496.41,532.74 501,521.84 C506.97,507.66 508.61,490.73 508.6,476.31 " fill="none" id="TryFunctor-backto-TryApplicative" style="stroke:#F5BDE6;stroke-width:1.0;"/><polygon fill="none" points="480.72,551.45,497.393,542.394,488.6248,534.2014,480.72,551.45" style="stroke:#F5BDE6;stroke-width:1.0;"/></g><!--link TryApplicative to TryFunctor--><g id="link_TryApplicative_TryFunctor"><path codeLine="51" d="M465.33,476.11 C457.06,484.78 449.52,494.85 445,505.84 C439.1,520.17 439.3812,531.619 442.5312,545.489 " fill="none" id="TryApplicative-to-TryFunctor" style="stroke:#F5BDE6;stroke-width:1.0;"/><polygon fill="#F5BDE6" points="443.86,551.34,445.7674,541.6776,442.7527,546.4642,437.9661,543.4494,443.86,551.34" style="stroke:#F5BDE6;stroke-width:1.0;"/><text fill="#CAD3F5" font-family="sans-serif" font-size="12" lengthAdjust="spacing" textLength="46.3359" x="446" y="518.4416">extends</text></g><!--reverse link Applicative to TryApplicative--><g id="link_Applicative_TryApplicative"><path d="M124.2673,331.8631 C138.4273,339.5331 140.94,340.22 158,346.8 C224.35,372.38 300.27,394.05 364.23,410.24 " fill="none" id="Applicative-backto-TryApplicative" style="stroke:#F5BDE6;stroke-width:1.0;stroke-dasharray:7.0,7.0;"/><polygon fill="none" points="108.44,323.29,121.4096,337.1388,127.125,326.5873,108.44,323.29" style="stroke:#F5BDE6;stroke-width:1.0;"/></g><!--reverse link TryApplicative to TryMonad--><g id="link_TryApplicative_TryMonad"><path d="M528.1984,393.6505 C533.4684,379.4905 531.02,379.41 528,363.86 C526.05,353.85 522.27,343.34 518.38,334.26 " fill="none" id="TryApplicative-backto-TryMonad" style="stroke:#F5BDE6;stroke-width:1.0;"/><polygon fill="none" points="521.92,410.52,533.8216,395.7433,522.5752,391.5577,521.92,410.52" style="stroke:#F5BDE6;stroke-width:1.0;"/></g><!--link TryMonad to TryApplicative--><g id="link_TryMonad_TryApplicative"><path codeLine="50" d="M486.39,334.29 C480.58,343.12 474.98,353.47 472,363.86 C467.46,379.7 470.2692,391.3328 478.2892,405.3428 " fill="none" id="TryMonad-to-TryApplicative" style="stroke:#F5BDE6;stroke-width:1.0;"/><polygon fill="#F5BDE6" points="481.27,410.55,480.2702,400.752,478.786,406.2107,473.3273,404.7265,481.27,410.55" style="stroke:#F5BDE6;stroke-width:1.0;"/><text fill="#CAD3F5" font-family="sans-serif" font-size="12" lengthAdjust="spacing" textLength="46.3359" x="473" y="376.4616">extends</text></g><!--reverse link Monad to TryMonad--><g id="link_Monad_TryMonad"><path d="M379.4999,193.1329 C405.5599,216.6629 445.85,253.05 478.6,282.63 " fill="none" id="Monad-backto-TryMonad" style="stroke:#F5BDE6;stroke-width:1.0;stroke-dasharray:7.0,7.0;"/><polygon fill="none" points="366.14,181.07,375.4789,197.5862,383.5209,188.6796,366.14,181.07" style="stroke:#F5BDE6;stroke-width:1.0;"/></g><!--reverse link TryMonad to TryMonadError--><g id="link_TryMonad_TryMonadError"><path d="M580.0661,275.2732 C633.6061,252.0732 697.12,224.55 755.3,199.34 " fill="none" id="TryMonad-backto-TryMonadError" style="stroke:#F5BDE6;stroke-width:1.0;"/><polygon fill="none" points="563.55,282.43,582.4517,280.7786,577.6805,269.7679,563.55,282.43" style="stroke:#F5BDE6;stroke-width:1.0;"/></g><!--link TryMonadError to TryMonad--><g id="link_TryMonadError_TryMonad"><path codeLine="49" d="M676.09,199.36 C650.65,207.34 625.06,217.1 602,228.95 C575.01,242.83 552.9833,261.081 534.7333,278.391 " fill="none" id="TryMonadError-to-TryMonad" style="stroke:#F5BDE6;stroke-width:1.0;"/><polygon fill="#F5BDE6" points="530.38,282.52,539.6626,279.2286,534.0077,279.0791,534.1572,273.4242,530.38,282.52" style="stroke:#F5BDE6;stroke-width:1.0;"/><text fill="#CAD3F5" font-family="sans-serif" font-size="12" lengthAdjust="spacing" textLength="46.3359" x="603" y="241.5516">extends</text></g><!--reverse link MonadError to TryMonadError--><g id="link_MonadError_TryMonadError"><path d="M829,91.28 C829,106.54 829,113.58 829,133.71 " fill="none" id="MonadError-backto-TryMonadError" style="stroke:#F5BDE6;stroke-width:1.0;stroke-dasharray:7.0,7.0;"/><polygon fill="none" points="829,73.28,823,91.28,835,91.28,829,73.28" style="stroke:#F5BDE6;stroke-width:1.0;"/></g><!--link TryFunctor to Functor--><g id="link_TryFunctor_Functor"><path codeLine="44" d="M452,603.19 C452,626.87 452,655.64 452,674.63 " fill="none" id="TryFunctor-to-Functor" style="stroke:#F5BDE6;stroke-width:1.0;"/><polygon fill="#F5BDE6" points="452,680.63,456,671.63,452,675.63,448,671.63,452,680.63" style="stroke:#F5BDE6;stroke-width:1.0;"/><text fill="#CAD3F5" font-family="sans-serif" font-size="12" lengthAdjust="spacing" textLength="68.3203" x="453" y="647.4216">implements</text></g><!--link TryApplicative to Applicative--><g id="link_TryApplicative_Applicative"><path codeLine="45" d="M813.84,476.32 C948.21,493.53 1106.97,518.25 1248,551.84 C1259.83,554.66 1266.7995,556.6382 1278.1795,560.5082 " fill="none" id="TryApplicative-to-Applicative" style="stroke:#F5BDE6;stroke-width:1.0;"/><polygon fill="#F5BDE6" points="1283.86,562.44,1276.6271,555.7553,1279.1262,560.8302,1274.0514,563.3293,1283.86,562.44" style="stroke:#F5BDE6;stroke-width:1.0;"/><text fill="#CAD3F5" font-family="sans-serif" font-size="12" lengthAdjust="spacing" textLength="68.3203" x="1088.3" y="518.4416">implements</text></g><!--link TryMonad to Monad--><g id="link_TryMonad_Monad"><path codeLine="46" d="M717.9,334.35 C762.79,339.03 809.92,343.48 854,346.8 C855.65,346.92 1806.47,387.23 1808,387.86 C1828.68,396.36 1843.0148,410.661 1853.7848,423.791 " fill="none" id="TryMonad-to-Monad" style="stroke:#F5BDE6;stroke-width:1.0;"/><polygon fill="#F5BDE6" points="1857.59,428.43,1854.9749,418.9347,1854.419,424.5642,1848.7895,424.0083,1857.59,428.43" style="stroke:#F5BDE6;stroke-width:1.0;"/><text fill="#CAD3F5" font-family="sans-serif" font-size="12" lengthAdjust="spacing" textLength="68.3203" x="1626.12" y="376.4616">implements</text></g><!--link TryMonadError to MonadError--><g id="link_TryMonadError_MonadError"><path codeLine="47" d="M1071.23,199.44 C1130.49,211.97 1192.73,229.24 1248,252.95 C1271.67,263.11 1290.8545,277.2544 1305.8245,289.7544 " fill="none" id="TryMonadError-to-MonadError" style="stroke:#F5BDE6;stroke-width:1.0;"/><polygon fill="#F5BDE6" points="1310.43,293.6,1306.0854,284.7612,1306.592,290.3953,1300.9579,290.9019,1310.43,293.6" style="stroke:#F5BDE6;stroke-width:1.0;"/><text fill="#CAD3F5" font-family="sans-serif" font-size="12" lengthAdjust="spacing" textLength="68.3203" x="1227.73" y="241.5516">implements</text></g><!--link TryKind to Kind--><g id="link_TryKind_Kind"><path codeLine="53" d="M1112,323.2 C1150.84,331.55 1202.65,341.56 1249,346.8 C1299.71,352.52 1665.12,336.18 1708,363.86 C1730.61,378.46 1740.6,410.36 1744.61,428.66 " fill="none" id="TryKind-Kind" style="stroke:#F5BDE6;stroke-width:1.0;"/><text fill="#CAD3F5" font-family="sans-serif" font-size="12" lengthAdjust="spacing" textLength="46.3359" x="1724.21" y="376.4616">extends</text></g><!--link TryMonadError to TryKind--><g id="link_TryMonadError_TryKind"><path codeLine="55" d="M879.88,199.34 C927.19,229.03 990.3284,268.6599 1024.9584,290.3999 " fill="none" id="TryMonadError-to-TryKind" style="stroke:#F5BDE6;stroke-width:1.0;stroke-dasharray:7.0,7.0;"/><polygon fill="#F5BDE6" points="1030.04,293.59,1024.5443,285.417,1025.8053,290.9315,1020.2908,292.1925,1030.04,293.59" style="stroke:#F5BDE6;stroke-width:1.0;"/><text fill="#CAD3F5" font-family="sans-serif" font-size="12" lengthAdjust="spacing" textLength="161.1387" x="948.19" y="241.5516">operates on &lt;TryKind&lt;?&gt;&gt;</text></g><!--link TryMonadError to Try--><g id="link_TryMonadError_Try"><path codeLine="56" d="M1117.39,199.44 C1179.48,207.8 1244.59,217.69 1305,228.95 C1349.08,237.17 1364.4,230.13 1403,252.95 C1420.23,263.14 1431.5404,276.2392 1440.4704,288.7292 " fill="none" id="TryMonadError-to-Try" style="stroke:#F5BDE6;stroke-width:1.0;stroke-dasharray:7.0,7.0;"/><polygon fill="#F5BDE6" points="1443.96,293.61,1441.9794,283.9623,1441.052,289.5427,1435.4717,288.6152,1443.96,293.61" style="stroke:#F5BDE6;stroke-width:1.0;"/><text fill="#CAD3F5" font-family="sans-serif" font-size="12" lengthAdjust="spacing" textLength="96.6094" x="1387.05" y="241.5516">uses methods of</text></g><!--SRC=[dLHDRzim3BtxLx2vDCMIUESYy90D3LeKtQ7DiBCYqx5GwmEItAuR-jz7ot6YE4wxpYUPV2BVuuVEV8aImLHCgEHCA5xLEKBflN6NQMhPysmZV5clQuUMQ-LH-HdNCbLSEy-cWgUSUMDgpeMQIiPvAPZNKugdV2shQGYVIegUXkFCa3L9tADGXbacWLVCkONtLgnhZpUKuq7yHlWSGN8iM5tv9QN_peZiw5wljTSJkCRg2RtWR9IKWcYZDFu59CerMfSaXl57jY7yDsqHhczNS4C2RC4ukX7yIO0-qLdWLgXylfp08kivbhNYNjlvikzO65DHSY-UyDXvfnNBJvYlh6tYJU0gIruZdYlx0giNWyVa6jTybOs0EQ1ZyARdyCCXAEtHWRP09SXHjGKbIq6c1-eBEfSkcQXgge4e81TiqnHrWzw1rngejMqyYrpRlBj3sK18Kr7FbDydtOAs0Oz1S9uUIMeg_o1aNL6fj1eM5whV2CHVD6EvWr5hQJspdy8h8ZM1VGqQUn8Y1SMDQTkfc5BNl2x5bopRvWVu1CCvlcOWcHc7gqHulWYcOd82lY0VkmWnNm_vH0EoqpLCCnwbZr2btBeOB-29LJLUlA-BP0tx3iMIel-G6sOx5XhhZyIsg_71ZXGqFNUzhfm2lzqi-GRxi9cnX5PJdtoxm7i5D9UbrSziNU4_zSmouJ046Uyk0ZR_5-zVBfdAg_OscSln6qAZlkxodAvC5zfszMas-HpkiLrSLmhZO8t-6UcPsMwu2szxz-WaqNHFfrctVN0PLJ3f3KQ3Y__xsBO33Qez3VhRlkr0xUy1SW2w2txPTVmmNu_e0Qgl81A-noNR8XCY5BtdYkZCPbdtfX586xGilEeAuZqPlaGNwkR1b-XBJLEhY-Gl]--></g></svg>