<svg xmlns="http://www.w3.org/2000/svg" xmlns:xlink="http://www.w3.org/1999/xlink" contentStyleType="text/css" height="498px" preserveAspectRatio="none" style="width:864px;height:498px;background:#24273A;" version="1.1" viewBox="0 0 864 498" width="864px" zoomAndPan="magnify"><defs/><g><rect fill="#24273A" height="498" style="stroke:none;stroke-width:1.0;" width="864" x="0" y="0"/><!--class Kind--><g id="elem_Kind"><rect codeLine="5" fill="#24273A" height="30" id="Kind" rx="1.5" ry="1.5" style="stroke:#C6A0F6;stroke-width:2.0;" width="88.0254" x="560.4" y="461"/><rect fill="#363A4F" height="30" rx="1.5" ry="1.5" style="stroke:#363A4F;stroke-width:2.0;" width="88.0254" x="560.4" y="461"/><rect fill="#363A4F" height="1.5" style="stroke:#363A4F;stroke-width:2.0;" width="88.0254" x="560.4" y="489.5"/><rect codeLine="5" fill="none" height="30" id="Kind" rx="1.5" ry="1.5" style="stroke:#C6A0F6;stroke-width:2.0;" width="88.0254" x="560.4" y="461"/><ellipse cx="574.4" cy="476" fill="#B4A7E5" rx="10" ry="10" style="stroke:#181818;stroke-width:1.0;"/><path d="M571.4078,473.2754 L571.4078,471.752 L576.6168,471.752 L576.6168,473.2754 L574.8766,473.2754 L574.8766,478.9766 L576.6168,478.9766 L576.6168,480.5 L571.4078,480.5 L571.4078,478.9766 L573.148,478.9766 L573.148,473.2754 Z " fill="#CAD3F5"/><text fill="#A6DA95" font-family="Helvetica" font-size="16" font-style="italic" lengthAdjust="spacing" textLength="32.0234" x="587.4" y="480.3203">Kind</text><rect fill="#24273A" height="14" style="stroke:#C6A0F6;stroke-width:1.0;stroke-dasharray:2.0,2.0;" width="24.002" x="627.4234" y="458"/><text fill="#CAD3F5" font-family="Helvetica" font-size="12" font-style="italic" lengthAdjust="spacing" textLength="22.002" x="628.4234" y="468.2402">F, A</text></g><!--class ErrorMonad--><g id="elem_ErrorMonad"><rect codeLine="8" fill="#24273A" height="30" id="ErrorMonad" rx="1.5" ry="1.5" style="stroke:#C6A0F6;stroke-width:2.0;" width="275.2324" x="294.8" y="10"/><rect fill="#363A4F" height="30" rx="1.5" ry="1.5" style="stroke:#363A4F;stroke-width:2.0;" width="275.2324" x="294.8" y="10"/><rect fill="#363A4F" height="1.5" style="stroke:#363A4F;stroke-width:2.0;" width="275.2324" x="294.8" y="38.5"/><rect codeLine="8" fill="none" height="30" id="ErrorMonad" rx="1.5" ry="1.5" style="stroke:#C6A0F6;stroke-width:2.0;" width="275.2324" x="294.8" y="10"/><ellipse cx="308.8" cy="25" fill="#B4A7E5" rx="10" ry="10" style="stroke:#181818;stroke-width:1.0;"/><path d="M305.8078,22.2754 L305.8078,20.752 L311.0168,20.752 L311.0168,22.2754 L309.2766,22.2754 L309.2766,27.9766 L311.0168,27.9766 L311.0168,29.5 L305.8078,29.5 L305.8078,27.9766 L307.548,27.9766 L307.548,22.2754 Z " fill="#CAD3F5"/><text fill="#A6DA95" font-family="Helvetica" font-size="16" font-style="italic" lengthAdjust="spacing" textLength="84.4766" x="321.8" y="29.3203">ErrorMonad</text><rect fill="#24273A" height="14" style="stroke:#C6A0F6;stroke-width:1.0;stroke-dasharray:2.0,2.0;" width="158.7559" x="414.2766" y="7"/><text fill="#CAD3F5" font-family="Helvetica" font-size="12" font-style="italic" lengthAdjust="spacing" textLength="156.7559" x="415.2766" y="17.2402">ValidatedKind.Witness&lt;E&gt;, E</text></g><!--class Validated<E, A>--><g id="elem_Validated&lt;E, A&gt;"><rect codeLine="11" fill="#24273A" height="30" id="Validated&lt;E, A&gt;" rx="1.5" ry="1.5" style="stroke:#C6A0F6;stroke-width:2.0;" width="145.6406" x="189.6" y="461"/><rect fill="#363A4F" height="30" rx="1.5" ry="1.5" style="stroke:#363A4F;stroke-width:2.0;" width="145.6406" x="189.6" y="461"/><rect fill="#363A4F" height="1.5" style="stroke:#363A4F;stroke-width:2.0;" width="145.6406" x="189.6" y="489.5"/><rect codeLine="11" fill="none" height="30" id="Validated&lt;E, A&gt;" rx="1.5" ry="1.5" style="stroke:#C6A0F6;stroke-width:2.0;" width="145.6406" x="189.6" y="461"/><ellipse cx="203.6" cy="476" fill="#B4A7E5" rx="10" ry="10" style="stroke:#181818;stroke-width:1.0;"/><path d="M200.6078,473.2754 L200.6078,471.752 L205.8168,471.752 L205.8168,473.2754 L204.0766,473.2754 L204.0766,478.9766 L205.8168,478.9766 L205.8168,480.5 L200.6078,480.5 L200.6078,478.9766 L202.348,478.9766 L202.348,473.2754 Z " fill="#CAD3F5"/><text fill="#A6DA95" font-family="Helvetica" font-size="16" font-style="italic" lengthAdjust="spacing" textLength="115.6406" x="216.6" y="480.3203">Validated&lt;E, A&gt;</text></g><!--class ValidatedKindHelper--><g id="elem_ValidatedKindHelper"><rect codeLine="14" fill="#24273A" height="94" id="ValidatedKindHelper" rx="1.5" ry="1.5" style="stroke:#C6A0F6;stroke-width:2.0;" width="440.5938" x="42.12" y="293"/><rect fill="#363A4F" height="38" rx="1.5" ry="1.5" style="stroke:#363A4F;stroke-width:2.0;" width="440.5938" x="42.12" y="293"/><rect fill="#363A4F" height="1.5" style="stroke:#363A4F;stroke-width:2.0;" width="440.5938" x="42.12" y="329.5"/><rect codeLine="14" fill="none" height="94" id="ValidatedKindHelper" rx="1.5" ry="1.5" style="stroke:#C6A0F6;stroke-width:2.0;" width="440.5938" x="42.12" y="293"/><ellipse cx="185.4794" cy="312" fill="#CD853F" rx="10" ry="10" style="stroke:#181818;stroke-width:1.0;"/><path d="M182.1005,313.5215 L182.1005,308.002 L183.829,308.002 L183.829,313.9551 Q183.829,314.6113 184.163,314.9834 Q184.497,315.3555 185.0888,315.3555 Q185.6805,315.3555 186.0145,314.9834 Q186.3485,314.6113 186.3485,313.9551 L186.3485,308.002 L188.077,308.002 L188.077,313.5215 Q188.077,315.3027 187.368,316.1113 Q186.6591,316.9199 185.0888,316.9199 Q183.5243,316.9199 182.8124,316.1113 Q182.1005,315.3027 182.1005,313.5215 Z " fill="#CAD3F5"/><text fill="#CAD3F5" font-family="Helvetica" font-size="12" font-style="italic" lengthAdjust="spacing" textLength="42.6797" x="256.077" y="307.2402">&#171;Utility&#187;</text><text fill="#A6DA95" font-family="Helvetica" font-size="16" lengthAdjust="spacing" textLength="145.875" x="204.4794" y="322.3203">ValidatedKindHelper</text><line style="stroke:#C6A0F6;stroke-width:2.0;" x1="43.12" x2="481.7138" y1="331" y2="331"/><ellipse cx="53.12" cy="342.5" fill="#84BE84" rx="3" ry="3" style="stroke:#038048;stroke-width:1.0;"/><text fill="#A6DA95" font-family="Helvetica" font-size="12" lengthAdjust="spacing" text-decoration="underline" textLength="415.5938" x="61.12" y="344.2402">&lt;E, A&gt; Kind&lt;ValidatedKind.Witness&lt;E&gt;, A&gt; widen(Validated&lt;E, A&gt; validated)</text><ellipse cx="53.12" cy="354.5" fill="#84BE84" rx="3" ry="3" style="stroke:#038048;stroke-width:1.0;"/><text fill="#A6DA95" font-family="Helvetica" font-size="12" lengthAdjust="spacing" text-decoration="underline" textLength="394.8984" x="61.12" y="356.2402">&lt;E, A&gt; Validated&lt;E, A&gt; narrow(Kind&lt;ValidatedKind.Witness&lt;E&gt;, A&gt; kind)</text><ellipse cx="53.12" cy="366.5" fill="#84BE84" rx="3" ry="3" style="stroke:#038048;stroke-width:1.0;"/><text fill="#A6DA95" font-family="Helvetica" font-size="12" lengthAdjust="spacing" text-decoration="underline" textLength="310.8457" x="61.12" y="368.2402">&lt;E, A&gt; Kind&lt;ValidatedKind.Witness&lt;E&gt;, A&gt; valid(A value)</text><ellipse cx="53.12" cy="378.5" fill="#84BE84" rx="3" ry="3" style="stroke:#038048;stroke-width:1.0;"/><text fill="#A6DA95" font-family="Helvetica" font-size="12" lengthAdjust="spacing" text-decoration="underline" textLength="316.834" x="61.12" y="380.2402">&lt;E, A&gt; Kind&lt;ValidatedKind.Witness&lt;E&gt;, A&gt; invalid(E error)</text></g><!--class ValidatedMonad<E>--><g id="elem_ValidatedMonad&lt;E&gt;"><rect codeLine="21" fill="#24273A" height="118" id="ValidatedMonad&lt;E&gt;" rx="1.5" ry="1.5" style="stroke:#C6A0F6;stroke-width:2.0;" width="850.832" x="7" y="101"/><rect fill="#363A4F" height="30" rx="1.5" ry="1.5" style="stroke:#363A4F;stroke-width:2.0;" width="850.832" x="7" y="101"/><rect fill="#363A4F" height="1.5" style="stroke:#363A4F;stroke-width:2.0;" width="850.832" x="7" y="129.5"/><rect codeLine="21" fill="none" height="118" id="ValidatedMonad&lt;E&gt;" rx="1.5" ry="1.5" style="stroke:#C6A0F6;stroke-width:2.0;" width="850.832" x="7" y="101"/><ellipse cx="355.916" cy="116" fill="#ADD1B2" rx="10" ry="10" style="stroke:#181818;stroke-width:1.0;"/><path d="M357.75,120.248 Q357.3398,120.459 356.8887,120.5645 Q356.4375,120.6699 355.9395,120.6699 Q354.1699,120.6699 353.2383,119.5039 Q352.3066,118.3379 352.3066,116.1348 Q352.3066,113.9258 353.2383,112.7598 Q354.1699,111.5938 355.9395,111.5938 Q356.4375,111.5938 356.8945,111.6992 Q357.3516,111.8047 357.75,112.0156 L357.75,113.9375 Q357.3047,113.5273 356.8857,113.3369 Q356.4668,113.1465 356.0215,113.1465 Q355.0723,113.1465 354.5889,113.8994 Q354.1055,114.6523 354.1055,116.1348 Q354.1055,117.6113 354.5889,118.3643 Q355.0723,119.1172 356.0215,119.1172 Q356.4668,119.1172 356.8857,118.9268 Q357.3047,118.7363 357.75,118.3262 Z " fill="#CAD3F5"/><text fill="#A6DA95" font-family="Helvetica" font-size="16" lengthAdjust="spacing" textLength="145" x="374.916" y="120.3203">ValidatedMonad&lt;E&gt;</text><line style="stroke:#C6A0F6;stroke-width:2.0;" x1="8" x2="856.832" y1="131" y2="131"/><rect fill="none" height="6" style="stroke:#C82930;stroke-width:1.0;" width="6" x="15" y="139.5"/><text fill="#A6DA95" font-family="Helvetica" font-size="12" lengthAdjust="spacing" text-decoration="underline" textLength="171.4277" x="26" y="144.2402">ValidatedMonad&lt;?&gt; INSTANCE</text><ellipse cx="18" cy="154.5" fill="#84BE84" rx="3" ry="3" style="stroke:#038048;stroke-width:1.0;"/><text fill="#A6DA95" font-family="Helvetica" font-size="12" lengthAdjust="spacing" text-decoration="underline" textLength="190.125" x="26" y="156.2402">&lt;E&gt; ValidatedMonad&lt;E&gt; instance()</text><line style="stroke:#C6A0F6;stroke-width:1.0;" x1="8" x2="856.832" y1="163" y2="163"/><ellipse cx="18" cy="174.5" fill="#84BE84" rx="3" ry="3" style="stroke:#038048;stroke-width:1.0;"/><text fill="#A6DA95" font-family="Helvetica" font-size="12" lengthAdjust="spacing" textLength="623.0391" x="26" y="176.2402">&lt;A, B&gt; Kind&lt;ValidatedKind.Witness&lt;E&gt;, B&gt; map(Function&lt;A, B&gt; fn, Kind&lt;ValidatedKind.Witness&lt;E&gt;, A&gt; valueKind)</text><ellipse cx="18" cy="186.5" fill="#84BE84" rx="3" ry="3" style="stroke:#038048;stroke-width:1.0;"/><text fill="#A6DA95" font-family="Helvetica" font-size="12" lengthAdjust="spacing" textLength="281.502" x="26" y="188.2402">&lt;A&gt; Kind&lt;ValidatedKind.Witness&lt;E&gt;, A&gt; of(A value)</text><ellipse cx="18" cy="198.5" fill="#84BE84" rx="3" ry="3" style="stroke:#038048;stroke-width:1.0;"/><text fill="#A6DA95" font-family="Helvetica" font-size="12" lengthAdjust="spacing" textLength="823.8457" x="26" y="200.2402">&lt;A, B&gt; Kind&lt;ValidatedKind.Witness&lt;E&gt;, B&gt; ap(Kind&lt;ValidatedKind.Witness&lt;E&gt;, Function&lt;A, B&gt;&gt; fnKind, Kind&lt;ValidatedKind.Witness&lt;E&gt;, A&gt; valueKind)</text><ellipse cx="18" cy="210.5" fill="#84BE84" rx="3" ry="3" style="stroke:#038048;stroke-width:1.0;"/><text fill="#A6DA95" font-family="Helvetica" font-size="12" lengthAdjust="spacing" textLength="825.832" x="26" y="212.2402">&lt;A, B&gt; Kind&lt;ValidatedKind.Witness&lt;E&gt;, B&gt; flatMap(Function&lt;A, Kind&lt;ValidatedKind.Witness&lt;E&gt;, B&gt;&gt; fn, Kind&lt;ValidatedKind.Witness&lt;E&gt;, A&gt; valueKind)</text></g><!--class ValidatedKind<E,A>--><g id="elem_ValidatedKind&lt;E,A&gt;"><rect fill="#24273A" height="30" id="ValidatedKind&lt;E,A&gt;" rx="1.5" ry="1.5" style="stroke:#C6A0F6;stroke-width:2.0;" width="173.2188" x="517.81" y="325"/><rect fill="#363A4F" height="30" rx="1.5" ry="1.5" style="stroke:#363A4F;stroke-width:2.0;" width="173.2188" x="517.81" y="325"/><rect fill="#363A4F" height="1.5" style="stroke:#363A4F;stroke-width:2.0;" width="173.2188" x="517.81" y="353.5"/><rect fill="none" height="30" id="ValidatedKind&lt;E,A&gt;" rx="1.5" ry="1.5" style="stroke:#C6A0F6;stroke-width:2.0;" width="173.2188" x="517.81" y="325"/><ellipse cx="531.81" cy="340" fill="#ADD1B2" rx="10" ry="10" style="stroke:#181818;stroke-width:1.0;"/><path d="M533.644,344.248 Q533.2338,344.459 532.7827,344.5645 Q532.3315,344.6699 531.8334,344.6699 Q530.0639,344.6699 529.1323,343.5039 Q528.2006,342.3379 528.2006,340.1348 Q528.2006,337.9258 529.1323,336.7598 Q530.0639,335.5938 531.8334,335.5938 Q532.3315,335.5938 532.7885,335.6992 Q533.2455,335.8047 533.644,336.0156 L533.644,337.9375 Q533.1987,337.5273 532.7797,337.3369 Q532.3608,337.1465 531.9155,337.1465 Q530.9663,337.1465 530.4829,337.8994 Q529.9995,338.6523 529.9995,340.1348 Q529.9995,341.6113 530.4829,342.3643 Q530.9663,343.1172 531.9155,343.1172 Q532.3608,343.1172 532.7797,342.9268 Q533.1987,342.7363 533.644,342.3262 Z " fill="#CAD3F5"/><text fill="#A6DA95" font-family="Helvetica" font-size="16" lengthAdjust="spacing" textLength="143.2188" x="544.81" y="344.3203">ValidatedKind&lt;E,A&gt;</text></g><!--reverse link ErrorMonad to ValidatedMonad<E>--><g id="link_ErrorMonad_ValidatedMonad&lt;E&gt;"><path d="M432.42,58.49 C432.42,73.03 432.42,78.39 432.42,100.55 " fill="none" id="ErrorMonad-backto-ValidatedMonad&lt;E&gt;" style="stroke:#F5BDE6;stroke-width:1.0;stroke-dasharray:7.0,7.0;"/><polygon fill="none" points="432.42,40.49,426.42,58.49,438.42,58.49,432.42,40.49" style="stroke:#F5BDE6;stroke-width:1.0;"/></g><!--link ValidatedMonad<E> to ValidatedKindHelper--><g id="link_ValidatedMonad&lt;E&gt;_ValidatedKindHelper"><path codeLine="32" d="M376.75,219.28 C354,243.11 332.1838,265.9508 310.7638,288.3808 " fill="none" id="ValidatedMonad&lt;E&gt;-to-ValidatedKindHelper" style="stroke:#F5BDE6;stroke-width:1.0;stroke-dasharray:7.0,7.0;"/><polygon fill="#F5BDE6" points="306.62,292.72,315.7285,288.9737,310.0732,289.104,309.9429,283.4486,306.62,292.72" style="stroke:#F5BDE6;stroke-width:1.0;"/><polygon fill="#CAD3F5" points="348.6575,258.8929,355.3553,255.2834,351.9545,252.0359,348.6575,258.8929" style="stroke:#CAD3F5;stroke-width:1.0;"/><text fill="#CAD3F5" font-family="Helvetica" font-size="12" lengthAdjust="spacing" textLength="25.3477" x="360.42" y="259.2402">uses</text></g><!--link ValidatedKindHelper to Validated<E, A>--><g id="link_ValidatedKindHelper_Validated&lt;E, A&gt;"><path codeLine="34" d="M262.42,387.49 C262.42,413.19 262.42,437.35 262.42,454.71 " fill="none" id="ValidatedKindHelper-to-Validated&lt;E, A&gt;" style="stroke:#F5BDE6;stroke-width:1.0;stroke-dasharray:7.0,7.0;"/><polygon fill="#F5BDE6" points="262.42,460.71,266.42,451.71,262.42,455.71,258.42,451.71,262.42,460.71" style="stroke:#F5BDE6;stroke-width:1.0;"/><polygon fill="#CAD3F5" points="266.42,428,268.7711,420.7639,264.0689,420.7639,266.42,428" style="stroke:#CAD3F5;stroke-width:1.0;"/><text fill="#CAD3F5" font-family="Helvetica" font-size="12" lengthAdjust="spacing" textLength="130.7109" x="275.42" y="427.2402">narrows to / widens from</text></g><!--link ValidatedKind<E,A> to Kind--><g id="link_ValidatedKind&lt;E,A&gt;_Kind"><path codeLine="37" d="M604.42,355.34 C604.42,381.13 604.42,429.05 604.42,454.76 " fill="none" id="ValidatedKind&lt;E,A&gt;-to-Kind" style="stroke:#F5BDE6;stroke-width:1.0;"/><polygon fill="#F5BDE6" points="604.42,460.76,608.42,451.76,604.42,455.76,600.42,451.76,604.42,460.76" style="stroke:#F5BDE6;stroke-width:1.0;"/><text fill="#CAD3F5" font-family="Helvetica" font-size="12" lengthAdjust="spacing" textLength="216.1348" x="605.42" y="427.2402">extends &lt;ValidatedKind.Witness&lt;E&gt;, A&gt;</text></g><!--link ValidatedMonad<E> to ValidatedKind<E,A>--><g id="link_ValidatedMonad&lt;E&gt;_ValidatedKind&lt;E,A&gt;"><path codeLine="38" d="M488.74,219.28 C524.79,256.6 564.6104,297.8056 586.5004,320.4556 " fill="none" id="ValidatedMonad&lt;E&gt;-to-ValidatedKind&lt;E,A&gt;" style="stroke:#F5BDE6;stroke-width:1.0;stroke-dasharray:7.0,7.0;"/><polygon fill="#F5BDE6" points="590.67,324.77,587.2918,315.5186,587.1953,321.1747,581.5393,321.0782,590.67,324.77" style="stroke:#F5BDE6;stroke-width:1.0;"/><text fill="#CAD3F5" font-family="Helvetica" font-size="12" lengthAdjust="spacing" textLength="63.3809" x="529.71" y="259.2402">operates on</text></g><!--SRC=[dLHDRzim3BtxLt2vpC5Y-nuO7hB1nOQYnO2ksrcLwKIOHHcItBGe-jz7sUdYvcC9SeeZyZszHuhye4WsNOMmyhvryoopOfqkbLzr3vr3Amrv99zAepEIndcHA9b9uTksar9HeeMKAoMyITf6aEzqa_WLQioqK9JrdsdBfz5AyIMeM_yC6lK3MXT5YibjBIJ2jQ8glvh1eeZ6nvFIMcDl38ag_oKQLGcFLSXDVojFw5nU5ZCeYma81zjSvW0OiVo3vcMuOW8l77yDIR8HpeqI0lStR5gq4yXpYEzdFz1sKxZtgb4ilIXwBC0dUE5YU2LVOI0TB1mNoHbhBW75EsBWyUt_z0ZnBe046rt7f-_xmsVJYzNskk95-EtmSXf50r496FepFLRveScXbKgt3JyRykEMRigUR1Ni83yNyFtsxkVYzckvhxM0lNjO6CT9OZnuIv8DB5_CuCj9PvoXHHjVTIIzChG1rJGxhx8TNe-QavzLILFlTkDigQpqHD9x8y59IBdGpPcgwaRucvqYdaHTL6H-ST6XfvQcevUndNsO0oy_1xoC3aK3Qd-dp3U3wS0Ro8PXTr1RemDFz7x7C2XWacIe4uFnYHTjvU2_hewQECW-1yDo-T21eUWZtFddHj4Io7YSGqyPNXvwcOAm63nNK1iRPjE6RMS8baXebGJ_tA9ZZfBdfbAo9-NjFWnr7mqXzgkUDYG2bkeH2ORnVPksDFeB]--></g></svg>