<svg xmlns="http://www.w3.org/2000/svg" xmlns:xlink="http://www.w3.org/1999/xlink" contentStyleType="text/css" height="861px" preserveAspectRatio="none" style="width:1360px;height:861px;background:#24273A;" version="1.1" viewBox="0 0 1360 861" width="1360px" zoomAndPan="magnify"><defs/><g><rect fill="#24273A" height="861" style="stroke:none;stroke-width:1.0;" width="1360" x="0" y="0"/><!--class Monoid--><g id="elem_Monoid"><rect codeLine="7" fill="#24273A" height="62" id="Monoid" rx="1.5" ry="1.5" style="stroke:#C6A0F6;stroke-width:2.0;" width="140.998" x="608.71" y="792"/><rect fill="#363A4F" height="30" rx="1.5" ry="1.5" style="stroke:#363A4F;stroke-width:2.0;" width="140.998" x="608.71" y="792"/><rect fill="#363A4F" height="1.5" style="stroke:#363A4F;stroke-width:2.0;" width="140.998" x="608.71" y="820.5"/><rect codeLine="7" fill="none" height="62" id="Monoid" rx="1.5" ry="1.5" style="stroke:#C6A0F6;stroke-width:2.0;" width="140.998" x="608.71" y="792"/><ellipse cx="642.1479" cy="807" fill="#B4A7E5" rx="10" ry="10" style="stroke:#181818;stroke-width:1.0;"/><path d="M639.1557,804.2754 L639.1557,802.752 L644.3647,802.752 L644.3647,804.2754 L642.6245,804.2754 L642.6245,809.9766 L644.3647,809.9766 L644.3647,811.5 L639.1557,811.5 L639.1557,809.9766 L640.8959,809.9766 L640.8959,804.2754 Z " fill="#CAD3F5"/><text fill="#A6DA95" font-family="Helvetica" font-size="16" font-style="italic" lengthAdjust="spacing" textLength="52.4766" x="659.4674" y="811.3203">Monoid</text><rect fill="#24273A" height="14" style="stroke:#C6A0F6;stroke-width:1.0;stroke-dasharray:2.0,2.0;" width="13.3262" x="739.3819" y="789"/><text fill="#CAD3F5" font-family="Helvetica" font-size="12" font-style="italic" lengthAdjust="spacing" textLength="11.3262" x="740.3819" y="799.2402">W</text><line style="stroke:#C6A0F6;stroke-width:2.0;" x1="609.71" x2="748.708" y1="822" y2="822"/><ellipse cx="619.71" cy="833.5" fill="#84BE84" rx="3" ry="3" style="stroke:#038048;stroke-width:1.0;"/><text fill="#A6DA95" font-family="Helvetica" font-size="12" lengthAdjust="spacing" textLength="55.3301" x="627.71" y="835.2402">W empty()</text><ellipse cx="619.71" cy="845.5" fill="#84BE84" rx="3" ry="3" style="stroke:#038048;stroke-width:1.0;"/><text fill="#A6DA95" font-family="Helvetica" font-size="12" lengthAdjust="spacing" textLength="115.998" x="627.71" y="847.2402">W combine(W x, W y)</text></g><!--class Writer--><g id="elem_Writer"><rect codeLine="14" fill="#24273A" height="158" id="Writer" rx="1.5" ry="1.5" style="stroke:#C6A0F6;stroke-width:2.0;" width="401.1133" x="478.65" y="560"/><rect fill="#363A4F" height="38" rx="1.5" ry="1.5" style="stroke:#363A4F;stroke-width:2.0;" width="401.1133" x="478.65" y="560"/><rect fill="#363A4F" height="1.5" style="stroke:#363A4F;stroke-width:2.0;" width="401.1133" x="478.65" y="596.5"/><rect codeLine="14" fill="none" height="158" id="Writer" rx="1.5" ry="1.5" style="stroke:#C6A0F6;stroke-width:2.0;" width="401.1133" x="478.65" y="560"/><ellipse cx="638.527" cy="579" fill="#ADD1B2" rx="10" ry="10" style="stroke:#181818;stroke-width:1.0;"/><path d="M640.3609,583.248 Q639.9508,583.459 639.4996,583.5645 Q639.0484,583.6699 638.5504,583.6699 Q636.7809,583.6699 635.8492,582.5039 Q634.9176,581.3379 634.9176,579.1348 Q634.9176,576.9258 635.8492,575.7598 Q636.7809,574.5938 638.5504,574.5938 Q639.0484,574.5938 639.5055,574.6992 Q639.9625,574.8047 640.3609,575.0156 L640.3609,576.9375 Q639.9156,576.5273 639.4967,576.3369 Q639.0777,576.1465 638.6324,576.1465 Q637.6832,576.1465 637.1998,576.8994 Q636.7164,577.6523 636.7164,579.1348 Q636.7164,580.6113 637.1998,581.3643 Q637.6832,582.1172 638.6324,582.1172 Q639.0777,582.1172 639.4967,581.9268 Q639.9156,581.7363 640.3609,581.3262 Z " fill="#CAD3F5"/><text fill="#CAD3F5" font-family="Helvetica" font-size="12" font-style="italic" lengthAdjust="spacing" textLength="47.3613" x="655.527" y="574.2402">&#171;record&#187;</text><text fill="#A6DA95" font-family="Helvetica" font-size="16" lengthAdjust="spacing" textLength="42.6563" x="657.8795" y="589.3203">Writer</text><rect fill="#24273A" height="14" style="stroke:#C6A0F6;stroke-width:1.0;stroke-dasharray:2.0,2.0;" width="27.998" x="854.7652" y="557"/><text fill="#CAD3F5" font-family="Helvetica" font-size="12" font-style="italic" lengthAdjust="spacing" textLength="25.998" x="855.7652" y="567.2402">W, A</text><line style="stroke:#C6A0F6;stroke-width:2.0;" x1="479.65" x2="878.7633" y1="598" y2="598"/><ellipse cx="489.65" cy="609.5" fill="#84BE84" rx="3" ry="3" style="stroke:#038048;stroke-width:1.0;"/><text fill="#A6DA95" font-family="Helvetica" font-size="12" lengthAdjust="spacing" textLength="117.3516" x="497.65" y="611.2402">Writer(W log, A value)</text><ellipse cx="489.65" cy="637.5" fill="#84BE84" rx="3" ry="3" style="stroke:#038048;stroke-width:1.0;"/><text fill="#A6DA95" font-family="Helvetica" font-size="12" lengthAdjust="spacing" text-decoration="underline" textLength="194.0508" x="497.65" y="639.2402">Writer&lt;W, A&gt; create(W log, A value)</text><ellipse cx="489.65" cy="649.5" fill="#84BE84" rx="3" ry="3" style="stroke:#038048;stroke-width:1.0;"/><text fill="#A6DA95" font-family="Helvetica" font-size="12" lengthAdjust="spacing" text-decoration="underline" textLength="147.3809" x="497.65" y="651.2402">Writer&lt;W, A&gt; value(Monoid</text><text fill="#A6DA95" font-family="Helvetica" font-size="12" lengthAdjust="spacing" text-decoration="underline" textLength="101.373" x="648.3648" y="651.2402">monoidW, A value)</text><ellipse cx="489.65" cy="661.5" fill="#84BE84" rx="3" ry="3" style="stroke:#038048;stroke-width:1.0;"/><text fill="#A6DA95" font-family="Helvetica" font-size="12" lengthAdjust="spacing" text-decoration="underline" textLength="142.6816" x="497.65" y="663.2402">Writer&lt;W, Unit&gt; tell(W log)</text><ellipse cx="489.65" cy="673.5" fill="#84BE84" rx="3" ry="3" style="stroke:#038048;stroke-width:1.0;"/><text fill="#A6DA95" font-family="Helvetica" font-size="12" lengthAdjust="spacing" textLength="196.0605" x="497.65" y="675.2402">Writer&lt;W, B&gt; map(Function&lt;A, B&gt; f)</text><ellipse cx="489.65" cy="685.5" fill="#84BE84" rx="3" ry="3" style="stroke:#038048;stroke-width:1.0;"/><text fill="#A6DA95" font-family="Helvetica" font-size="12" lengthAdjust="spacing" textLength="158.0449" x="497.65" y="687.2402">Writer&lt;W, B&gt; flatMap(Monoid</text><text fill="#A6DA95" font-family="Helvetica" font-size="12" lengthAdjust="spacing" text-decoration="wavy underline" textLength="214.7344" x="659.0289" y="687.2402">monoidW, Function&lt;A, Writer&lt;W, B&gt;&gt; f)</text><ellipse cx="489.65" cy="697.5" fill="#84BE84" rx="3" ry="3" style="stroke:#038048;stroke-width:1.0;"/><text fill="#A6DA95" font-family="Helvetica" font-size="12" lengthAdjust="spacing" textLength="36.6738" x="497.65" y="699.2402">A run()</text><ellipse cx="489.65" cy="709.5" fill="#84BE84" rx="3" ry="3" style="stroke:#038048;stroke-width:1.0;"/><text fill="#A6DA95" font-family="Helvetica" font-size="12" lengthAdjust="spacing" textLength="48" x="497.65" y="711.2402">W exec()</text><line style="stroke:#C6A0F6;stroke-width:2.0;" x1="479.65" x2="656.1939" y1="624" y2="624"/><text fill="#A6DA95" font-family="Helvetica" font-size="12" lengthAdjust="spacing" textLength="46.0254" x="656.1939" y="626.7402">Methods</text><line style="stroke:#C6A0F6;stroke-width:2.0;" x1="702.2193" x2="878.7633" y1="624" y2="624"/></g><!--class WriterKindHelper--><g id="elem_WriterKindHelper"><rect codeLine="27" fill="#24273A" height="122" id="WriterKindHelper" rx="1.5" ry="1.5" style="stroke:#C6A0F6;stroke-width:2.0;" width="330.4141" x="7" y="364"/><rect fill="#363A4F" height="30" rx="1.5" ry="1.5" style="stroke:#363A4F;stroke-width:2.0;" width="330.4141" x="7" y="364"/><rect fill="#363A4F" height="1.5" style="stroke:#363A4F;stroke-width:2.0;" width="330.4141" x="7" y="392.5"/><rect codeLine="27" fill="none" height="122" id="WriterKindHelper" rx="1.5" ry="1.5" style="stroke:#C6A0F6;stroke-width:2.0;" width="330.4141" x="7" y="364"/><ellipse cx="107.3008" cy="379" fill="#ADD1B2" rx="10" ry="10" style="stroke:#181818;stroke-width:1.0;"/><path d="M109.1348,383.248 Q108.7246,383.459 108.2734,383.5645 Q107.8223,383.6699 107.3242,383.6699 Q105.5547,383.6699 104.623,382.5039 Q103.6914,381.3379 103.6914,379.1348 Q103.6914,376.9258 104.623,375.7598 Q105.5547,374.5938 107.3242,374.5938 Q107.8223,374.5938 108.2793,374.6992 Q108.7363,374.8047 109.1348,375.0156 L109.1348,376.9375 Q108.6895,376.5273 108.2705,376.3369 Q107.8516,376.1465 107.4063,376.1465 Q106.457,376.1465 105.9736,376.8994 Q105.4902,377.6523 105.4902,379.1348 Q105.4902,380.6113 105.9736,381.3643 Q106.457,382.1172 107.4063,382.1172 Q107.8516,382.1172 108.2705,381.9268 Q108.6895,381.7363 109.1348,381.3262 Z " fill="#CAD3F5"/><text fill="#A6DA95" font-family="Helvetica" font-size="16" lengthAdjust="spacing" textLength="121.8125" x="126.3008" y="383.3203">WriterKindHelper</text><line style="stroke:#C6A0F6;stroke-width:2.0;" x1="8" x2="336.4141" y1="394" y2="394"/><ellipse cx="18" cy="405.5" fill="#84BE84" rx="3" ry="3" style="stroke:#038048;stroke-width:1.0;"/><text fill="#A6DA95" font-family="Helvetica" font-size="12" lengthAdjust="spacing" text-decoration="underline" textLength="295.4355" x="26" y="407.2402">Writer&lt;W, A&gt; unwrap(Kind&lt;WriterKind&lt;W, ?&gt;, A&gt; kind)</text><ellipse cx="18" cy="417.5" fill="#84BE84" rx="3" ry="3" style="stroke:#038048;stroke-width:1.0;"/><text fill="#A6DA95" font-family="Helvetica" font-size="12" lengthAdjust="spacing" text-decoration="underline" textLength="238.0313" x="26" y="419.2402">WriterKind&lt;W, A&gt; wrap(Writer&lt;W, A&gt; writer)</text><ellipse cx="18" cy="429.5" fill="#84BE84" rx="3" ry="3" style="stroke:#038048;stroke-width:1.0;"/><text fill="#A6DA95" font-family="Helvetica" font-size="12" lengthAdjust="spacing" text-decoration="underline" textLength="171.3984" x="26" y="431.2402">WriterKind&lt;W, A&gt; value(Monoid</text><text fill="#A6DA95" font-family="Helvetica" font-size="12" lengthAdjust="spacing" text-decoration="underline" textLength="101.373" x="200.7324" y="431.2402">monoidW, A value)</text><ellipse cx="18" cy="441.5" fill="#84BE84" rx="3" ry="3" style="stroke:#038048;stroke-width:1.0;"/><text fill="#A6DA95" font-family="Helvetica" font-size="12" lengthAdjust="spacing" text-decoration="underline" textLength="171.3867" x="26" y="443.2402">WriterKind&lt;W, Unit&gt; tell(Monoid</text><text fill="#A6DA95" font-family="Helvetica" font-size="12" lengthAdjust="spacing" text-decoration="underline" textLength="92.0215" x="200.7207" y="443.2402">monoidW, W log)</text><ellipse cx="18" cy="453.5" fill="#84BE84" rx="3" ry="3" style="stroke:#038048;stroke-width:1.0;"/><text fill="#A6DA95" font-family="Helvetica" font-size="12" lengthAdjust="spacing" text-decoration="underline" textLength="305.4141" x="26" y="455.2402">Writer&lt;W, A&gt; runWriter(Kind&lt;WriterKind&lt;W, ?&gt;, A&gt; kind)</text><ellipse cx="18" cy="465.5" fill="#84BE84" rx="3" ry="3" style="stroke:#038048;stroke-width:1.0;"/><text fill="#A6DA95" font-family="Helvetica" font-size="12" lengthAdjust="spacing" text-decoration="underline" textLength="209.4199" x="26" y="467.2402">A run(Kind&lt;WriterKind&lt;W, ?&gt;, A&gt; kind)</text><ellipse cx="18" cy="477.5" fill="#84BE84" rx="3" ry="3" style="stroke:#038048;stroke-width:1.0;"/><text fill="#A6DA95" font-family="Helvetica" font-size="12" lengthAdjust="spacing" text-decoration="underline" textLength="220.7461" x="26" y="479.2402">W exec(Kind&lt;WriterKind&lt;W, ?&gt;, A&gt; kind)</text></g><!--class WriterFunctor--><g id="elem_WriterFunctor"><rect codeLine="37" fill="#24273A" height="50" id="WriterFunctor" rx="1.5" ry="1.5" style="stroke:#C6A0F6;stroke-width:2.0;" width="463.8613" x="588.28" y="98"/><rect fill="#363A4F" height="30" rx="1.5" ry="1.5" style="stroke:#363A4F;stroke-width:2.0;" width="463.8613" x="588.28" y="98"/><rect fill="#363A4F" height="1.5" style="stroke:#363A4F;stroke-width:2.0;" width="463.8613" x="588.28" y="126.5"/><rect codeLine="37" fill="none" height="50" id="WriterFunctor" rx="1.5" ry="1.5" style="stroke:#C6A0F6;stroke-width:2.0;" width="463.8613" x="588.28" y="98"/><ellipse cx="760.0984" cy="113" fill="#ADD1B2" rx="10" ry="10" style="stroke:#181818;stroke-width:1.0;"/><path d="M761.9323,117.248 Q761.5222,117.459 761.071,117.5645 Q760.6198,117.6699 760.1218,117.6699 Q758.3523,117.6699 757.4206,116.5039 Q756.489,115.3379 756.489,113.1348 Q756.489,110.9258 757.4206,109.7598 Q758.3523,108.5938 760.1218,108.5938 Q760.6198,108.5938 761.0769,108.6992 Q761.5339,108.8047 761.9323,109.0156 L761.9323,110.9375 Q761.487,110.5273 761.0681,110.3369 Q760.6491,110.1465 760.2038,110.1465 Q759.2546,110.1465 758.7712,110.8994 Q758.2878,111.6523 758.2878,113.1348 Q758.2878,114.6113 758.7712,115.3643 Q759.2546,116.1172 760.2038,116.1172 Q760.6491,116.1172 761.0681,115.9268 Q761.487,115.7363 761.9323,115.3262 Z " fill="#CAD3F5"/><text fill="#A6DA95" font-family="Helvetica" font-size="16" lengthAdjust="spacing" textLength="96.8984" x="779.0984" y="117.3203">WriterFunctor</text><rect fill="#24273A" height="14" style="stroke:#C6A0F6;stroke-width:1.0;stroke-dasharray:2.0,2.0;" width="13.3262" x="1041.8152" y="95"/><text fill="#CAD3F5" font-family="Helvetica" font-size="12" font-style="italic" lengthAdjust="spacing" textLength="11.3262" x="1042.8152" y="105.2402">W</text><line style="stroke:#C6A0F6;stroke-width:2.0;" x1="589.28" x2="1051.1413" y1="128" y2="128"/><ellipse cx="599.28" cy="139.5" fill="#84BE84" rx="3" ry="3" style="stroke:#038048;stroke-width:1.0;"/><text fill="#A6DA95" font-family="Helvetica" font-size="12" lengthAdjust="spacing" textLength="438.8613" x="607.28" y="141.2402">Kind&lt;WriterKind&lt;W, ?&gt;, B&gt; map(Function&lt;A, B&gt; f, Kind&lt;WriterKind&lt;W, ?&gt;, A&gt; fa)</text></g><!--class Functor--><g id="elem_Functor"><rect fill="#24273A" height="30" id="Functor" rx="1.5" ry="1.5" style="stroke:#C6A0F6;stroke-width:2.0;" width="84.2422" x="778.09" y="7"/><rect fill="#363A4F" height="30" rx="1.5" ry="1.5" style="stroke:#363A4F;stroke-width:2.0;" width="84.2422" x="778.09" y="7"/><rect fill="#363A4F" height="1.5" style="stroke:#363A4F;stroke-width:2.0;" width="84.2422" x="778.09" y="35.5"/><rect fill="none" height="30" id="Functor" rx="1.5" ry="1.5" style="stroke:#C6A0F6;stroke-width:2.0;" width="84.2422" x="778.09" y="7"/><ellipse cx="792.09" cy="22" fill="#B4A7E5" rx="10" ry="10" style="stroke:#181818;stroke-width:1.0;"/><path d="M789.0978,19.2754 L789.0978,17.752 L794.3068,17.752 L794.3068,19.2754 L792.5666,19.2754 L792.5666,24.9766 L794.3068,24.9766 L794.3068,26.5 L789.0978,26.5 L789.0978,24.9766 L790.838,24.9766 L790.838,19.2754 Z " fill="#CAD3F5"/><text fill="#A6DA95" font-family="Helvetica" font-size="16" font-style="italic" lengthAdjust="spacing" textLength="54.2422" x="805.09" y="26.3203">Functor</text></g><!--class WriterApplicative--><g id="elem_WriterApplicative"><rect codeLine="40" fill="#24273A" height="94" id="WriterApplicative" rx="1.5" ry="1.5" style="stroke:#C6A0F6;stroke-width:2.0;" width="596.5938" x="752.91" y="209"/><rect fill="#363A4F" height="30" rx="1.5" ry="1.5" style="stroke:#363A4F;stroke-width:2.0;" width="596.5938" x="752.91" y="209"/><rect fill="#363A4F" height="1.5" style="stroke:#363A4F;stroke-width:2.0;" width="596.5938" x="752.91" y="237.5"/><rect codeLine="40" fill="none" height="94" id="WriterApplicative" rx="1.5" ry="1.5" style="stroke:#C6A0F6;stroke-width:2.0;" width="596.5938" x="752.91" y="209"/><ellipse cx="979.5282" cy="224" fill="#ADD1B2" rx="10" ry="10" style="stroke:#181818;stroke-width:1.0;"/><path d="M981.3621,228.248 Q980.952,228.459 980.5008,228.5645 Q980.0496,228.6699 979.5516,228.6699 Q977.7821,228.6699 976.8504,227.5039 Q975.9188,226.3379 975.9188,224.1348 Q975.9188,221.9258 976.8504,220.7598 Q977.7821,219.5938 979.5516,219.5938 Q980.0496,219.5938 980.5067,219.6992 Q980.9637,219.8047 981.3621,220.0156 L981.3621,221.9375 Q980.9168,221.5273 980.4979,221.3369 Q980.0789,221.1465 979.6336,221.1465 Q978.6844,221.1465 978.201,221.8994 Q977.7176,222.6523 977.7176,224.1348 Q977.7176,225.6113 978.201,226.3643 Q978.6844,227.1172 979.6336,227.1172 Q980.0789,227.1172 980.4979,226.9268 Q980.9168,226.7363 981.3621,226.3262 Z " fill="#CAD3F5"/><text fill="#A6DA95" font-family="Helvetica" font-size="16" lengthAdjust="spacing" textLength="120.0313" x="998.5282" y="228.3203">WriterApplicative</text><rect fill="#24273A" height="14" style="stroke:#C6A0F6;stroke-width:1.0;stroke-dasharray:2.0,2.0;" width="13.3262" x="1339.1776" y="206"/><text fill="#CAD3F5" font-family="Helvetica" font-size="12" font-style="italic" lengthAdjust="spacing" textLength="11.3262" x="1340.1776" y="216.2402">W</text><line style="stroke:#C6A0F6;stroke-width:2.0;" x1="753.91" x2="1348.5037" y1="239" y2="239"/><polygon fill="none" points="763.91,245.5,767.91,249.5,763.91,253.5,759.91,249.5" style="stroke:#B38D22;stroke-width:1.0;"/><text fill="#A6DA95" font-family="Helvetica" font-size="12" lengthAdjust="spacing" textLength="122.0508" x="771.91" y="252.2402">monoidW: Monoid&lt;W&gt;</text><line style="stroke:#C6A0F6;stroke-width:2.0;" x1="753.91" x2="1348.5037" y1="259" y2="259"/><ellipse cx="763.91" cy="270.5" fill="#84BE84" rx="3" ry="3" style="stroke:#038048;stroke-width:1.0;"/><text fill="#A6DA95" font-family="Helvetica" font-size="12" lengthAdjust="spacing" textLength="133.377" x="771.91" y="272.2402">WriterApplicative(Monoid</text><text fill="#A6DA95" font-family="Helvetica" font-size="12" lengthAdjust="spacing" text-decoration="wavy underline" textLength="54.6797" x="908.6209" y="272.2402">monoidW)</text><ellipse cx="763.91" cy="282.5" fill="#84BE84" rx="3" ry="3" style="stroke:#038048;stroke-width:1.0;"/><text fill="#A6DA95" font-family="Helvetica" font-size="12" lengthAdjust="spacing" textLength="208.7578" x="771.91" y="284.2402">Kind&lt;WriterKind&lt;W, ?&gt;, A&gt; of(A value)</text><ellipse cx="763.91" cy="294.5" fill="#84BE84" rx="3" ry="3" style="stroke:#038048;stroke-width:1.0;"/><text fill="#A6DA95" font-family="Helvetica" font-size="12" lengthAdjust="spacing" textLength="571.5938" x="771.91" y="296.2402">Kind&lt;WriterKind&lt;W, ?&gt;, B&gt; ap(Kind&lt;WriterKind&lt;W, ?&gt;, Function&lt;A, B&gt;&gt; ff, Kind&lt;WriterKind&lt;W, ?&gt;, A&gt; fa)</text></g><!--class Applicative--><g id="elem_Applicative"><rect fill="#24273A" height="30" id="Applicative" rx="1.5" ry="1.5" style="stroke:#C6A0F6;stroke-width:2.0;" width="107.375" x="1087.52" y="108"/><rect fill="#363A4F" height="30" rx="1.5" ry="1.5" style="stroke:#363A4F;stroke-width:2.0;" width="107.375" x="1087.52" y="108"/><rect fill="#363A4F" height="1.5" style="stroke:#363A4F;stroke-width:2.0;" width="107.375" x="1087.52" y="136.5"/><rect fill="none" height="30" id="Applicative" rx="1.5" ry="1.5" style="stroke:#C6A0F6;stroke-width:2.0;" width="107.375" x="1087.52" y="108"/><ellipse cx="1101.52" cy="123" fill="#B4A7E5" rx="10" ry="10" style="stroke:#181818;stroke-width:1.0;"/><path d="M1098.5278,120.2754 L1098.5278,118.752 L1103.7368,118.752 L1103.7368,120.2754 L1101.9966,120.2754 L1101.9966,125.9766 L1103.7368,125.9766 L1103.7368,127.5 L1098.5278,127.5 L1098.5278,125.9766 L1100.268,125.9766 L1100.268,120.2754 Z " fill="#CAD3F5"/><text fill="#A6DA95" font-family="Helvetica" font-size="16" font-style="italic" lengthAdjust="spacing" textLength="77.375" x="1114.52" y="127.3203">Applicative</text></g><!--class WriterMonad--><g id="elem_WriterMonad"><rect codeLine="46" fill="#24273A" height="62" id="WriterMonad" rx="1.5" ry="1.5" style="stroke:#C6A0F6;stroke-width:2.0;" width="625.9258" x="372.24" y="394"/><rect fill="#363A4F" height="30" rx="1.5" ry="1.5" style="stroke:#363A4F;stroke-width:2.0;" width="625.9258" x="372.24" y="394"/><rect fill="#363A4F" height="1.5" style="stroke:#363A4F;stroke-width:2.0;" width="625.9258" x="372.24" y="422.5"/><rect codeLine="46" fill="none" height="62" id="WriterMonad" rx="1.5" ry="1.5" style="stroke:#C6A0F6;stroke-width:2.0;" width="625.9258" x="372.24" y="394"/><ellipse cx="627.7507" cy="409" fill="#ADD1B2" rx="10" ry="10" style="stroke:#181818;stroke-width:1.0;"/><path d="M629.5847,413.248 Q629.1746,413.459 628.7234,413.5645 Q628.2722,413.6699 627.7742,413.6699 Q626.0046,413.6699 625.073,412.5039 Q624.1414,411.3379 624.1414,409.1348 Q624.1414,406.9258 625.073,405.7598 Q626.0046,404.5938 627.7742,404.5938 Q628.2722,404.5938 628.7293,404.6992 Q629.1863,404.8047 629.5847,405.0156 L629.5847,406.9375 Q629.1394,406.5273 628.7205,406.3369 Q628.3015,406.1465 627.8562,406.1465 Q626.907,406.1465 626.4236,406.8994 Q625.9402,407.6523 625.9402,409.1348 Q625.9402,410.6113 626.4236,411.3643 Q626.907,412.1172 627.8562,412.1172 Q628.3015,412.1172 628.7205,411.9268 Q629.1394,411.7363 629.5847,411.3262 Z " fill="#CAD3F5"/><text fill="#A6DA95" font-family="Helvetica" font-size="16" lengthAdjust="spacing" textLength="91.5781" x="646.7507" y="413.3203">WriterMonad</text><rect fill="#24273A" height="14" style="stroke:#C6A0F6;stroke-width:1.0;stroke-dasharray:2.0,2.0;" width="13.3262" x="987.8396" y="391"/><text fill="#CAD3F5" font-family="Helvetica" font-size="12" font-style="italic" lengthAdjust="spacing" textLength="11.3262" x="988.8396" y="401.2402">W</text><line style="stroke:#C6A0F6;stroke-width:2.0;" x1="373.24" x2="997.1658" y1="424" y2="424"/><ellipse cx="383.24" cy="435.5" fill="#84BE84" rx="3" ry="3" style="stroke:#038048;stroke-width:1.0;"/><text fill="#A6DA95" font-family="Helvetica" font-size="12" lengthAdjust="spacing" textLength="112.0371" x="391.24" y="437.2402">WriterMonad(Monoid</text><text fill="#A6DA95" font-family="Helvetica" font-size="12" lengthAdjust="spacing" text-decoration="wavy underline" textLength="54.6797" x="506.6111" y="437.2402">monoidW)</text><ellipse cx="383.24" cy="447.5" fill="#84BE84" rx="3" ry="3" style="stroke:#038048;stroke-width:1.0;"/><text fill="#A6DA95" font-family="Helvetica" font-size="12" lengthAdjust="spacing" textLength="600.9258" x="391.24" y="449.2402">Kind&lt;WriterKind&lt;W, ?&gt;, B&gt; flatMap(Function&lt;A, Kind&lt;WriterKind&lt;W, ?&gt;, B&gt;&gt; f, Kind&lt;WriterKind&lt;W, ?&gt;, A&gt; ma)</text></g><!--class Monad--><g id="elem_Monad"><rect fill="#24273A" height="30" id="Monad" rx="1.5" ry="1.5" style="stroke:#C6A0F6;stroke-width:2.0;" width="78.9219" x="638.75" y="241"/><rect fill="#363A4F" height="30" rx="1.5" ry="1.5" style="stroke:#363A4F;stroke-width:2.0;" width="78.9219" x="638.75" y="241"/><rect fill="#363A4F" height="1.5" style="stroke:#363A4F;stroke-width:2.0;" width="78.9219" x="638.75" y="269.5"/><rect fill="none" height="30" id="Monad" rx="1.5" ry="1.5" style="stroke:#C6A0F6;stroke-width:2.0;" width="78.9219" x="638.75" y="241"/><ellipse cx="652.75" cy="256" fill="#B4A7E5" rx="10" ry="10" style="stroke:#181818;stroke-width:1.0;"/><path d="M649.7578,253.2754 L649.7578,251.752 L654.9668,251.752 L654.9668,253.2754 L653.2266,253.2754 L653.2266,258.9766 L654.9668,258.9766 L654.9668,260.5 L649.7578,260.5 L649.7578,258.9766 L651.498,258.9766 L651.498,253.2754 Z " fill="#CAD3F5"/><text fill="#A6DA95" font-family="Helvetica" font-size="16" font-style="italic" lengthAdjust="spacing" textLength="48.9219" x="665.75" y="260.3203">Monad</text></g><!--class WriterKind--><g id="elem_WriterKind"><rect fill="#24273A" height="30" id="WriterKind" rx="1.5" ry="1.5" style="stroke:#C6A0F6;stroke-width:2.0;" width="104.6797" x="322.87" y="624"/><rect fill="#363A4F" height="30" rx="1.5" ry="1.5" style="stroke:#363A4F;stroke-width:2.0;" width="104.6797" x="322.87" y="624"/><rect fill="#363A4F" height="1.5" style="stroke:#363A4F;stroke-width:2.0;" width="104.6797" x="322.87" y="652.5"/><rect fill="none" height="30" id="WriterKind" rx="1.5" ry="1.5" style="stroke:#C6A0F6;stroke-width:2.0;" width="104.6797" x="322.87" y="624"/><ellipse cx="336.87" cy="639" fill="#ADD1B2" rx="10" ry="10" style="stroke:#181818;stroke-width:1.0;"/><path d="M338.704,643.248 Q338.2938,643.459 337.8427,643.5645 Q337.3915,643.6699 336.8934,643.6699 Q335.1239,643.6699 334.1923,642.5039 Q333.2606,641.3379 333.2606,639.1348 Q333.2606,636.9258 334.1923,635.7598 Q335.1239,634.5938 336.8934,634.5938 Q337.3915,634.5938 337.8485,634.6992 Q338.3055,634.8047 338.704,635.0156 L338.704,636.9375 Q338.2587,636.5273 337.8397,636.3369 Q337.4208,636.1465 336.9755,636.1465 Q336.0263,636.1465 335.5429,636.8994 Q335.0595,637.6523 335.0595,639.1348 Q335.0595,640.6113 335.5429,641.3643 Q336.0263,642.1172 336.9755,642.1172 Q337.4208,642.1172 337.8397,641.9268 Q338.2587,641.7363 338.704,641.3262 Z " fill="#CAD3F5"/><text fill="#A6DA95" font-family="Helvetica" font-size="16" lengthAdjust="spacing" textLength="74.6797" x="349.87" y="643.3203">WriterKind</text></g><!--reverse link Functor to WriterFunctor--><g id="link_Functor_WriterFunctor"><path d="M820.21,55.18 C820.21,70.9 820.21,78.54 820.21,97.51 " fill="none" id="Functor-backto-WriterFunctor" style="stroke:#F5BDE6;stroke-width:1.0;stroke-dasharray:7.0,7.0;"/><polygon fill="none" points="820.21,37.18,814.21,55.18,826.21,55.18,820.21,37.18" style="stroke:#F5BDE6;stroke-width:1.0;"/></g><!--reverse link WriterFunctor to WriterApplicative--><g id="link_WriterFunctor_WriterApplicative"><path d="M879.0481,157.3683 C908.8181,174.2483 933.66,188.34 969.43,208.63 " fill="none" id="WriterFunctor-backto-WriterApplicative" style="stroke:#F5BDE6;stroke-width:1.0;"/><polygon fill="none" points="863.39,148.49,876.0886,162.5877,882.0075,152.149,863.39,148.49" style="stroke:#F5BDE6;stroke-width:1.0;"/></g><!--reverse link Applicative to WriterApplicative--><g id="link_Applicative_WriterApplicative"><path d="M1121.207,153.1058 C1109.637,169.9458 1100,183.97 1082.96,208.78 " fill="none" id="Applicative-backto-WriterApplicative" style="stroke:#F5BDE6;stroke-width:1.0;stroke-dasharray:7.0,7.0;"/><polygon fill="none" points="1131.4,138.27,1116.2617,149.7082,1126.1522,156.5035,1131.4,138.27" style="stroke:#F5BDE6;stroke-width:1.0;"/></g><!--reverse link WriterApplicative to WriterMonad--><g id="link_WriterApplicative_WriterMonad"><path d="M933.3637,310.7711 C870.2137,339.5811 807.16,368.35 751.9,393.57 " fill="none" id="WriterApplicative-backto-WriterMonad" style="stroke:#F5BDE6;stroke-width:1.0;"/><polygon fill="none" points="949.74,303.3,930.8734,305.3124,935.8541,316.2299,949.74,303.3" style="stroke:#F5BDE6;stroke-width:1.0;"/></g><!--reverse link Monad to WriterMonad--><g id="link_Monad_WriterMonad"><path d="M679.5535,289.2242 C680.6835,316.1942 682.41,357.31 683.93,393.58 " fill="none" id="Monad-backto-WriterMonad" style="stroke:#F5BDE6;stroke-width:1.0;stroke-dasharray:7.0,7.0;"/><polygon fill="none" points="678.8,271.24,673.5588,289.4754,685.5483,288.9731,678.8,271.24" style="stroke:#F5BDE6;stroke-width:1.0;"/></g><!--link WriterApplicative to Monoid--><g id="link_WriterApplicative_Monoid"><path codeLine="52" d="M1048.3032,315.3994 C1041.7032,407.5994 1014.72,602.83 897.21,718 C856.18,758.21 802.2895,783.1776 755.7895,799.5476 " fill="none" id="WriterApplicative-Monoid" style="stroke:#F5BDE6;stroke-width:1.0;"/><polygon fill="#F5BDE6" points="1049.16,303.43,1044.7418,309.1291,1048.3032,315.3994,1052.7214,309.7003,1049.16,303.43" style="stroke:#F5BDE6;stroke-width:1.0;"/><polygon fill="#F5BDE6" points="750.13,801.54,759.9476,802.3244,754.8463,799.8797,757.291,794.7784,750.13,801.54" style="stroke:#F5BDE6;stroke-width:1.0;"/><polygon fill="#CAD3F5" points="1012.4515,526.4236,1018.2058,521.4461,1014.1811,519.0144,1012.4515,526.4236" style="stroke:#CAD3F5;stroke-width:1.0;"/><text fill="#CAD3F5" font-family="Helvetica" font-size="12" lengthAdjust="spacing" textLength="25.3477" x="1023.52" y="526.2402">uses</text></g><!--link WriterKindHelper to Writer--><g id="link_WriterKindHelper_Writer"><path codeLine="54" d="M291.8,486.37 C322.62,501.23 355.92,516.68 387.21,530 C416.43,542.44 442.0062,552.7059 472.7162,564.4559 " fill="none" id="WriterKindHelper-to-Writer" style="stroke:#F5BDE6;stroke-width:1.0;stroke-dasharray:7.0,7.0;"/><polygon fill="#F5BDE6" points="478.32,566.6,471.3437,559.648,473.6501,564.8133,468.4849,567.1198,478.32,566.6" style="stroke:#F5BDE6;stroke-width:1.0;"/><text fill="#CAD3F5" font-family="Helvetica" font-size="12" lengthAdjust="spacing" textLength="88.043" x="388.21" y="526.2402">creates/unwraps</text></g><!--link WriterKindHelper to WriterKind--><g id="link_WriterKindHelper_WriterKind"><path codeLine="55" d="M191.93,486.38 C198.72,501.64 207.4,517.29 218.21,530 C234.02,548.59 244,546.31 264.21,560 C296.39,581.79 328.3201,604.399 350.4201,620.209 " fill="none" id="WriterKindHelper-to-WriterKind" style="stroke:#F5BDE6;stroke-width:1.0;stroke-dasharray:7.0,7.0;"/><polygon fill="#F5BDE6" points="355.3,623.7,350.3075,615.2103,351.2334,620.7909,345.6529,621.7168,355.3,623.7" style="stroke:#F5BDE6;stroke-width:1.0;"/><text fill="#CAD3F5" font-family="Helvetica" font-size="12" lengthAdjust="spacing" textLength="88.043" x="219.21" y="526.2402">creates/unwraps</text></g><!--link WriterKindHelper to Monoid--><g id="link_WriterKindHelper_Monoid"><path codeLine="56" d="M162.17,486.31 C154.95,551.9 154.86,655.69 212.21,718 C265.01,775.38 485.5786,803.9448 602.6186,815.4148 " fill="none" id="WriterKindHelper-to-Monoid" style="stroke:#F5BDE6;stroke-width:1.0;stroke-dasharray:7.0,7.0;"/><polygon fill="#F5BDE6" points="608.59,816,600.023,811.1413,603.6138,815.5123,599.2428,819.1031,608.59,816" style="stroke:#F5BDE6;stroke-width:1.0;"/><text fill="#CAD3F5" font-family="Helvetica" font-size="12" lengthAdjust="spacing" textLength="91.3711" x="213.21" y="642.2402">uses for factories</text></g><!--link WriterMonad to WriterKind--><g id="link_WriterMonad_WriterKind"><path codeLine="58" d="M609.24,456.33 C574.55,471.81 533.8,492.37 500.21,516 C453.58,548.8 411.9178,594.6585 391.0078,619.1285 " fill="none" id="WriterMonad-to-WriterKind" style="stroke:#F5BDE6;stroke-width:1.0;stroke-dasharray:7.0,7.0;"/><polygon fill="#F5BDE6" points="387.11,623.69,395.9977,619.4464,390.3582,619.8888,389.9158,614.2493,387.11,623.69" style="stroke:#F5BDE6;stroke-width:1.0;"/><text fill="#CAD3F5" font-family="Helvetica" font-size="12" lengthAdjust="spacing" textLength="172.0898" x="501.21" y="526.2402">operates on &lt;WriterKind&lt;W,?&gt;&gt;</text></g><!--link WriterMonad to Writer--><g id="link_WriterMonad_Writer"><path codeLine="59" d="M684.35,456.37 C683.59,483.28 682.6104,517.7524 681.5904,553.6624 " fill="none" id="WriterMonad-to-Writer" style="stroke:#F5BDE6;stroke-width:1.0;stroke-dasharray:7.0,7.0;"/><polygon fill="#F5BDE6" points="681.42,559.66,685.6739,550.7772,681.562,554.662,677.6771,550.5501,681.42,559.66" style="stroke:#F5BDE6;stroke-width:1.0;"/><text fill="#CAD3F5" font-family="Helvetica" font-size="12" lengthAdjust="spacing" textLength="88.0488" x="683.57" y="526.2402">uses methods of</text></g><!--link Writer to Monoid--><g id="link_Writer_Monoid"><path codeLine="60" d="M679.21,718.24 C679.21,744.25 679.21,765.69 679.21,785.81 " fill="none" id="Writer-to-Monoid" style="stroke:#F5BDE6;stroke-width:1.0;stroke-dasharray:7.0,7.0;"/><polygon fill="#F5BDE6" points="679.21,791.81,683.21,782.81,679.21,786.81,675.21,782.81,679.21,791.81" style="stroke:#F5BDE6;stroke-width:1.0;"/><text fill="#CAD3F5" font-family="Helvetica" font-size="12" lengthAdjust="spacing" textLength="117.3926" x="680.21" y="758.2402">uses for flatMap/value</text></g><!--SRC=[dLN1Zfim4Btp5LFrKD8DuHuXLgcggbALOyLnvPXXiGesCcQJrIh_ti4G0Y7EPlTcp9ldcVV6uoz2yg994N9ZgdeTXfhjLy_2vCskgL5p9GrAi-Ag32LNjM61u25dfgeQpeKCIiPvBfXHGLKmQPgo24oE9OOb4pAqorL5kvxdvOAEmR8ohr1YkKDTUnu023f1PumZR9LK8esI6DxQ7m0Fa7G1_kAyGQdiX4G_WSEIFb_jhoFnMmWlM5r3eWMHHiaIDZ54aKQkT1eFl1sJnH1DePu91o-iQ70n09wUO8icLsbDIs-8UYC9ZE37wH5S8pFeud95MPH_hhgqg-HEWhzIc1WC5aLtxWXz1lqWLbRvlnh9ZL0osjYjp8ND2cQsXB-IqvXY73Dbsu1kf3-c1pmWxtUELqpw8sJw6uiAzU2EIwz6xZKbrqP4v-3svsDi0V_eS-4YEM49Psacr7lxSK_ilQOvEKQ-NM6PMEaIWZJkk_V3MdG6VLp2piPxuevpZstlADqMAigge9aWJGt3xWNVw9e-WED4HrylmPrXnaxvNQQtgQf2q4mJBzYcY0SQUUdjt2SXxlo_denTduVRvTKRKSqROl6k4bIPolpvn70Bvxv2Kpb9iayAIcMmT2xbXSuZEVk0MuqmOlwCJAFXDgxIYNwdcSgXTkyR_CIAgaJ91TRUh5Ju7WHnRp-iWLxL6cBFcqs_rIhkYoHKzw3KOJVowbleTlFUY6aMcT9aOjlTRUBUIE4vlIAAbX-KXAaav9CZz7HEsR-ZAkk1hbmwWqBRojv_]--></g></svg>