<svg xmlns="http://www.w3.org/2000/svg" xmlns:xlink="http://www.w3.org/1999/xlink" contentStyleType="text/css" height="1166px" preserveAspectRatio="none" style="width:2092px;height:1166px;background:#24273A;" version="1.1" viewBox="0 0 2092 1166" width="2092px" zoomAndPan="magnify"><defs/><g><rect fill="#24273A" height="1166" style="stroke:none;stroke-width:1.0;" width="2092" x="0" y="0"/><!--cluster Core HKT Interfaces--><g id="cluster_Core HKT Interfaces"><path d="M255.5,971.99 L382.7129,971.99 A2.25,2.25 0 0 1 384.2129,973.49 L391.2129,992.1228 L666.5,992.1228 A1.5,1.5 0 0 1 668,993.6228 L668,1158.31 A1.5,1.5 0 0 1 666.5,1159.81 L255.5,1159.81 A1.5,1.5 0 0 1 254,1158.31 L254,973.49 A1.5,1.5 0 0 1 255.5,971.99 " fill="#24273A" style="stroke:#CAD3F5;stroke-width:1.0;"/><line style="stroke:#CAD3F5;stroke-width:1.0;" x1="254" x2="391.2129" y1="992.1228" y2="992.1228"/><text fill="#CAD3F5" font-family="sans-serif" font-size="12" font-weight="bold" lengthAdjust="spacing" textLength="124.2129" x="258" y="985.5916">Core HKT Interfaces</text></g><!--cluster Type Classes--><g id="cluster_Type Classes"><path d="M1626.5,953.86 L1710.6055,953.86 A2.25,2.25 0 0 1 1712.1055,955.36 L1719.1055,973.9928 L1797.5,973.9928 A1.5,1.5 0 0 1 1799,975.4928 L1799,1066.47 A1.5,1.5 0 0 1 1797.5,1067.97 L1626.5,1067.97 A1.5,1.5 0 0 1 1625,1066.47 L1625,955.36 A1.5,1.5 0 0 1 1626.5,953.86 " fill="#24273A" style="stroke:#CAD3F5;stroke-width:1.0;"/><line style="stroke:#CAD3F5;stroke-width:1.0;" x1="1625" x2="1719.1055" y1="973.9928" y2="973.9928"/><text fill="#CAD3F5" font-family="sans-serif" font-size="12" font-weight="bold" lengthAdjust="spacing" textLength="81.1055" x="1629" y="967.4616">Type Classes</text></g><!--cluster Writer Type--><g id="cluster_Writer Type"><path d="M1479.5,674.23 L1554.2656,674.23 A2.25,2.25 0 0 1 1555.7656,675.73 L1562.7656,694.3628 L1944.5,694.3628 A1.5,1.5 0 0 1 1946,695.8628 L1946,904.36 A1.5,1.5 0 0 1 1944.5,905.86 L1479.5,905.86 A1.5,1.5 0 0 1 1478,904.36 L1478,675.73 A1.5,1.5 0 0 1 1479.5,674.23 " fill="#24273A" style="stroke:#CAD3F5;stroke-width:1.0;"/><line style="stroke:#CAD3F5;stroke-width:1.0;" x1="1478" x2="1562.7656" y1="694.3628" y2="694.3628"/><text fill="#CAD3F5" font-family="sans-serif" font-size="12" font-weight="bold" lengthAdjust="spacing" textLength="71.7656" x="1482" y="687.8316">Writer Type</text></g><!--cluster Writer HKT Simulation--><g id="cluster_Writer HKT Simulation"><path d="M248.5,11 L388.668,11 A2.25,2.25 0 0 1 390.168,12.5 L397.168,31.1328 L1256.5,31.1328 A1.5,1.5 0 0 1 1258,32.6328 L1258,624.73 A1.5,1.5 0 0 1 1256.5,626.23 L248.5,626.23 A1.5,1.5 0 0 1 247,624.73 L247,12.5 A1.5,1.5 0 0 1 248.5,11 " fill="#24273A" style="stroke:#CAD3F5;stroke-width:1.0;"/><line style="stroke:#CAD3F5;stroke-width:1.0;" x1="247" x2="397.168" y1="31.1328" y2="31.1328"/><text fill="#CAD3F5" font-family="sans-serif" font-size="12" font-weight="bold" lengthAdjust="spacing" textLength="137.168" x="251" y="24.6016">Writer HKT Simulation</text></g><!--class Kind--><g id="elem_Kind"><rect codeLine="9" fill="#24273A" height="28.8438" id="Kind" rx="1.5" ry="1.5" style="stroke:#C6A0F6;stroke-width:2.0;" width="90.7422" x="561.63" y="1004.99"/><rect fill="#363A4F" height="28.8438" rx="1.5" ry="1.5" style="stroke:#363A4F;stroke-width:2.0;" width="90.7422" x="561.63" y="1004.99"/><rect fill="#363A4F" height="1.5" style="stroke:#363A4F;stroke-width:2.0;" width="90.7422" x="561.63" y="1032.3338"/><rect codeLine="9" fill="none" height="28.8438" id="Kind" rx="1.5" ry="1.5" style="stroke:#C6A0F6;stroke-width:2.0;" width="90.7422" x="561.63" y="1004.99"/><ellipse cx="574.63" cy="1019.4119" fill="#FFFFFF" rx="9" ry="9" style="stroke:#000000;stroke-width:1.0;"/><path d="M571.6378,1016.6873 L571.6378,1015.1638 L576.8468,1015.1638 L576.8468,1016.6873 L575.1066,1016.6873 L575.1066,1022.3884 L576.8468,1022.3884 L576.8468,1023.9119 L571.6378,1023.9119 L571.6378,1022.3884 L573.378,1022.3884 L573.378,1016.6873 Z " fill="#CAD3F5"/><text fill="#A6DA95" font-family="sans-serif" font-size="16" font-style="italic" lengthAdjust="spacing" textLength="35.0703" x="586.63" y="1025.4588">Kind</text><rect fill="#24273A" height="16.584" style="stroke:#C6A0F6;stroke-width:1.0;stroke-dasharray:2.0,2.0;" width="25.6719" x="629.7003" y="1001.99"/><text fill="#000000" font-family="Verdana" font-size="12" font-style="italic" lengthAdjust="spacing" textLength="23.6719" x="630.7003" y="1015.0545">F, A</text></g><!--class Functor--><g id="elem_Functor"><rect codeLine="10" fill="#24273A" height="28.8438" id="Functor" rx="1.5" ry="1.5" style="stroke:#C6A0F6;stroke-width:2.0;" width="97.8887" x="270.06" y="1004.99"/><rect fill="#363A4F" height="28.8438" rx="1.5" ry="1.5" style="stroke:#363A4F;stroke-width:2.0;" width="97.8887" x="270.06" y="1004.99"/><rect fill="#363A4F" height="1.5" style="stroke:#363A4F;stroke-width:2.0;" width="97.8887" x="270.06" y="1032.3338"/><rect codeLine="10" fill="none" height="28.8438" id="Functor" rx="1.5" ry="1.5" style="stroke:#C6A0F6;stroke-width:2.0;" width="97.8887" x="270.06" y="1004.99"/><ellipse cx="283.06" cy="1019.4119" fill="#FFFFFF" rx="9" ry="9" style="stroke:#000000;stroke-width:1.0;"/><path d="M280.0678,1016.6873 L280.0678,1015.1638 L285.2768,1015.1638 L285.2768,1016.6873 L283.5366,1016.6873 L283.5366,1022.3884 L285.2768,1022.3884 L285.2768,1023.9119 L280.0678,1023.9119 L280.0678,1022.3884 L281.808,1022.3884 L281.808,1016.6873 Z " fill="#CAD3F5"/><text fill="#A6DA95" font-family="sans-serif" font-size="16" font-style="italic" lengthAdjust="spacing" textLength="58.9922" x="295.06" y="1025.4588">Functor</text><rect fill="#24273A" height="16.584" style="stroke:#C6A0F6;stroke-width:1.0;stroke-dasharray:2.0,2.0;" width="8.8965" x="362.0522" y="1001.99"/><text fill="#000000" font-family="Verdana" font-size="12" font-style="italic" lengthAdjust="spacing" textLength="6.8965" x="363.0522" y="1015.0545">F</text></g><!--class Applicative--><g id="elem_Applicative"><rect codeLine="11" fill="#24273A" height="28.8438" id="Applicative" rx="1.5" ry="1.5" style="stroke:#C6A0F6;stroke-width:2.0;" width="124.1621" x="402.92" y="1004.99"/><rect fill="#363A4F" height="28.8438" rx="1.5" ry="1.5" style="stroke:#363A4F;stroke-width:2.0;" width="124.1621" x="402.92" y="1004.99"/><rect fill="#363A4F" height="1.5" style="stroke:#363A4F;stroke-width:2.0;" width="124.1621" x="402.92" y="1032.3338"/><rect codeLine="11" fill="none" height="28.8438" id="Applicative" rx="1.5" ry="1.5" style="stroke:#C6A0F6;stroke-width:2.0;" width="124.1621" x="402.92" y="1004.99"/><ellipse cx="415.92" cy="1019.4119" fill="#FFFFFF" rx="9" ry="9" style="stroke:#000000;stroke-width:1.0;"/><path d="M412.9278,1016.6873 L412.9278,1015.1638 L418.1368,1015.1638 L418.1368,1016.6873 L416.3966,1016.6873 L416.3966,1022.3884 L418.1368,1022.3884 L418.1368,1023.9119 L412.9278,1023.9119 L412.9278,1022.3884 L414.668,1022.3884 L414.668,1016.6873 Z " fill="#CAD3F5"/><text fill="#A6DA95" font-family="sans-serif" font-size="16" font-style="italic" lengthAdjust="spacing" textLength="85.2656" x="427.92" y="1025.4588">Applicative</text><rect fill="#24273A" height="16.584" style="stroke:#C6A0F6;stroke-width:1.0;stroke-dasharray:2.0,2.0;" width="8.8965" x="521.1856" y="1001.99"/><text fill="#000000" font-family="Verdana" font-size="12" font-style="italic" lengthAdjust="spacing" textLength="6.8965" x="522.1856" y="1015.0545">F</text></g><!--class Monad--><g id="elem_Monad"><rect codeLine="12" fill="#24273A" height="28.8438" id="Monad" rx="1.5" ry="1.5" style="stroke:#C6A0F6;stroke-width:2.0;" width="91.3418" x="273.33" y="1114.97"/><rect fill="#363A4F" height="28.8438" rx="1.5" ry="1.5" style="stroke:#363A4F;stroke-width:2.0;" width="91.3418" x="273.33" y="1114.97"/><rect fill="#363A4F" height="1.5" style="stroke:#363A4F;stroke-width:2.0;" width="91.3418" x="273.33" y="1142.3138"/><rect codeLine="12" fill="none" height="28.8438" id="Monad" rx="1.5" ry="1.5" style="stroke:#C6A0F6;stroke-width:2.0;" width="91.3418" x="273.33" y="1114.97"/><ellipse cx="286.33" cy="1129.3919" fill="#FFFFFF" rx="9" ry="9" style="stroke:#000000;stroke-width:1.0;"/><path d="M283.3378,1126.6673 L283.3378,1125.1438 L288.5468,1125.1438 L288.5468,1126.6673 L286.8066,1126.6673 L286.8066,1132.3684 L288.5468,1132.3684 L288.5468,1133.8919 L283.3378,1133.8919 L283.3378,1132.3684 L285.078,1132.3684 L285.078,1126.6673 Z " fill="#CAD3F5"/><text fill="#A6DA95" font-family="sans-serif" font-size="16" font-style="italic" lengthAdjust="spacing" textLength="52.4453" x="298.33" y="1135.4388">Monad</text><rect fill="#24273A" height="16.584" style="stroke:#C6A0F6;stroke-width:1.0;stroke-dasharray:2.0,2.0;" width="8.8965" x="358.7753" y="1111.97"/><text fill="#000000" font-family="Verdana" font-size="12" font-style="italic" lengthAdjust="spacing" textLength="6.8965" x="359.7753" y="1125.0345">F</text></g><!--class Monoid--><g id="elem_Monoid"><rect codeLine="16" fill="#24273A" height="65.1094" id="Monoid" rx="1.5" ry="1.5" style="stroke:#C6A0F6;stroke-width:2.0;" width="142.6289" x="1640.69" y="986.86"/><rect fill="#363A4F" height="28.8438" rx="1.5" ry="1.5" style="stroke:#363A4F;stroke-width:2.0;" width="142.6289" x="1640.69" y="986.86"/><rect fill="#363A4F" height="1.5" style="stroke:#363A4F;stroke-width:2.0;" width="142.6289" x="1640.69" y="1014.2037"/><rect codeLine="16" fill="none" height="65.1094" id="Monoid" rx="1.5" ry="1.5" style="stroke:#C6A0F6;stroke-width:2.0;" width="142.6289" x="1640.69" y="986.86"/><ellipse cx="1671.9976" cy="1001.2819" fill="#FFFFFF" rx="9" ry="9" style="stroke:#000000;stroke-width:1.0;"/><path d="M1669.0054,998.5573 L1669.0054,997.0338 L1674.2144,997.0338 L1674.2144,998.5573 L1672.4742,998.5573 L1672.4742,1004.2584 L1674.2144,1004.2584 L1674.2144,1005.7819 L1669.0054,1005.7819 L1669.0054,1004.2584 L1670.7457,1004.2584 L1670.7457,998.5573 Z " fill="#CAD3F5"/><text fill="#A6DA95" font-family="sans-serif" font-size="16" font-style="italic" lengthAdjust="spacing" textLength="58.0625" x="1688.066" y="1007.3287">Monoid</text><rect fill="#24273A" height="16.584" style="stroke:#C6A0F6;stroke-width:1.0;stroke-dasharray:2.0,2.0;" width="13.8828" x="1772.4361" y="983.86"/><text fill="#000000" font-family="Verdana" font-size="12" font-style="italic" lengthAdjust="spacing" textLength="11.8828" x="1773.4361" y="996.9245">W</text><line style="stroke:#C6A0F6;stroke-width:2.0;" x1="1641.69" x2="1782.3189" y1="1015.7037" y2="1015.7037"/><text fill="#A6DA95" font-family="sans-serif" font-size="12" lengthAdjust="spacing" textLength="67.6055" x="1646.69" y="1031.3053">+W empty()</text><text fill="#A6DA95" font-family="sans-serif" font-size="12" lengthAdjust="spacing" textLength="130.6289" x="1646.69" y="1045.4381">+W combine(W x, W y)</text></g><!--class Writer--><g id="elem_Writer"><rect codeLine="23" fill="#24273A" height="182.623" id="Writer" rx="1.5" ry="1.5" style="stroke:#C6A0F6;stroke-width:2.0;" width="436.8164" x="1493.59" y="707.23"/><rect fill="#363A4F" height="43.4277" rx="1.5" ry="1.5" style="stroke:#363A4F;stroke-width:2.0;" width="436.8164" x="1493.59" y="707.23"/><rect fill="#363A4F" height="1.5" style="stroke:#363A4F;stroke-width:2.0;" width="436.8164" x="1493.59" y="749.1577"/><rect codeLine="23" fill="none" height="182.623" id="Writer" rx="1.5" ry="1.5" style="stroke:#C6A0F6;stroke-width:2.0;" width="436.8164" x="1493.59" y="707.23"/><ellipse cx="1666.9836" cy="728.9439" fill="#FFFFFF" rx="9" ry="9" style="stroke:#000000;stroke-width:1.0;"/><path d="M1668.8175,733.1919 Q1668.4074,733.4029 1667.9562,733.5083 Q1667.505,733.6138 1667.007,733.6138 Q1665.2375,733.6138 1664.3058,732.4478 Q1663.3742,731.2818 1663.3742,729.0786 Q1663.3742,726.8696 1664.3058,725.7036 Q1665.2375,724.5376 1667.007,724.5376 Q1667.505,724.5376 1667.9621,724.6431 Q1668.4191,724.7486 1668.8175,724.9595 L1668.8175,726.8814 Q1668.3722,726.4712 1667.9533,726.2808 Q1667.5343,726.0904 1667.089,726.0904 Q1666.1398,726.0904 1665.6564,726.8433 Q1665.173,727.5962 1665.173,729.0786 Q1665.173,730.5552 1665.6564,731.3081 Q1666.1398,732.0611 1667.089,732.0611 Q1667.5343,732.0611 1667.9533,731.8706 Q1668.3722,731.6802 1668.8175,731.27 Z " fill="#CAD3F5"/><text fill="#000000" font-family="Verdana" font-size="12" font-style="italic" lengthAdjust="spacing" textLength="53.8711" x="1682.4836" y="724.2945">&#171;record&#187;</text><text fill="#A6DA95" font-family="sans-serif" font-size="16" lengthAdjust="spacing" textLength="46.3047" x="1686.2668" y="742.2827">Writer</text><rect fill="#24273A" height="16.584" style="stroke:#C6A0F6;stroke-width:1.0;stroke-dasharray:2.0,2.0;" width="30.6582" x="1902.7482" y="704.23"/><text fill="#000000" font-family="Verdana" font-size="12" font-style="italic" lengthAdjust="spacing" textLength="28.6582" x="1903.7482" y="717.2945">W, A</text><line style="stroke:#C6A0F6;stroke-width:2.0;" x1="1494.59" x2="1929.4064" y1="750.6577" y2="750.6577"/><text fill="#A6DA95" font-family="sans-serif" font-size="12" lengthAdjust="spacing" textLength="134.5664" x="1499.59" y="766.2593">+Writer(W log, A value)</text><text fill="#A6DA95" font-family="sans-serif" font-size="12" lengthAdjust="spacing" text-decoration="underline" textLength="219.123" x="1499.59" y="798.5249">+Writer&lt;W, A&gt; create(W log, A value)</text><text fill="#A6DA95" font-family="sans-serif" font-size="12" lengthAdjust="spacing" text-decoration="underline" textLength="171.1699" x="1499.59" y="812.6577">+Writer&lt;W, A&gt; value(Monoid</text><text fill="#A6DA95" font-family="sans-serif" font-size="12" lengthAdjust="spacing" text-decoration="underline" textLength="108.6914" x="1674.5568" y="812.6577">monoidW, A value)</text><text fill="#A6DA95" font-family="sans-serif" font-size="12" lengthAdjust="spacing" text-decoration="underline" textLength="169.541" x="1499.59" y="826.7905">+Writer&lt;W, Void&gt; tell(W log)</text><text fill="#A6DA95" font-family="sans-serif" font-size="12" lengthAdjust="spacing" textLength="225.4043" x="1499.59" y="840.9234">+Writer&lt;W, B&gt; map(Function&lt;A, B&gt; f)</text><text fill="#A6DA95" font-family="sans-serif" font-size="12" lengthAdjust="spacing" textLength="182.8652" x="1499.59" y="855.0562">+Writer&lt;W, B&gt; flatMap(Monoid</text><text fill="#A6DA95" font-family="sans-serif" font-size="12" lengthAdjust="spacing" text-decoration="wavy underline" textLength="238.1543" x="1686.2521" y="855.0562">monoidW, Function&lt;A, Writer&lt;W, B&gt;&gt; f)</text><text fill="#A6DA95" font-family="sans-serif" font-size="12" lengthAdjust="spacing" textLength="49.2246" x="1499.59" y="869.189">+A run()</text><text fill="#A6DA95" font-family="sans-serif" font-size="12" lengthAdjust="spacing" textLength="58.2832" x="1499.59" y="883.3218">+W exec()</text><line style="stroke:#C6A0F6;stroke-width:2.0;" x1="1494.59" x2="1686.9992" y1="779.857" y2="779.857"/><text fill="#A6DA95" font-family="sans-serif" font-size="12" lengthAdjust="spacing" textLength="49.998" x="1686.9992" y="783.8921">Methods</text><line style="stroke:#C6A0F6;stroke-width:2.0;" x1="1736.9972" x2="1929.4064" y1="779.857" y2="779.857"/></g><!--class WriterKind<W, A> extends Kind<WriterKind<W, ?>, A>--><g id="elem_WriterKind&lt;W, A&gt; extends Kind&lt;WriterKind&lt;W, ?&gt;, A&gt;"><rect codeLine="37" fill="#24273A" height="28.8438" id="WriterKind&lt;W, A&gt; extends Kind&lt;WriterKind&lt;W, ?&gt;, A&gt;" rx="1.5" ry="1.5" style="stroke:#C6A0F6;stroke-width:2.0;" width="460.6172" x="262.69" y="97.46"/><rect fill="#363A4F" height="28.8438" rx="1.5" ry="1.5" style="stroke:#363A4F;stroke-width:2.0;" width="460.6172" x="262.69" y="97.46"/><rect fill="#363A4F" height="1.5" style="stroke:#363A4F;stroke-width:2.0;" width="460.6172" x="262.69" y="124.8038"/><rect codeLine="37" fill="none" height="28.8438" id="WriterKind&lt;W, A&gt; extends Kind&lt;WriterKind&lt;W, ?&gt;, A&gt;" rx="1.5" ry="1.5" style="stroke:#C6A0F6;stroke-width:2.0;" width="460.6172" x="262.69" y="97.46"/><ellipse cx="275.69" cy="111.8819" fill="#FFFFFF" rx="9" ry="9" style="stroke:#000000;stroke-width:1.0;"/><path d="M272.6978,109.1573 L272.6978,107.6338 L277.9068,107.6338 L277.9068,109.1573 L276.1666,109.1573 L276.1666,114.8584 L277.9068,114.8584 L277.9068,116.3819 L272.6978,116.3819 L272.6978,114.8584 L274.438,114.8584 L274.438,109.1573 Z " fill="#CAD3F5"/><text fill="#A6DA95" font-family="sans-serif" font-size="16" font-style="italic" lengthAdjust="spacing" textLength="432.6172" x="287.69" y="117.9288">WriterKind&lt;W, A&gt; extends Kind&lt;WriterKind&lt;W, ?&gt;, A&gt;</text></g><!--class WriterKindHelper--><g id="elem_WriterKindHelper"><rect codeLine="39" fill="#24273A" height="135.7734" id="WriterKindHelper" rx="1.5" ry="1.5" style="stroke:#C6A0F6;stroke-width:2.0;" width="361.1836" x="880.41" y="44"/><rect fill="#363A4F" height="28.8438" rx="1.5" ry="1.5" style="stroke:#363A4F;stroke-width:2.0;" width="361.1836" x="880.41" y="44"/><rect fill="#363A4F" height="1.5" style="stroke:#363A4F;stroke-width:2.0;" width="361.1836" x="880.41" y="71.3438"/><rect codeLine="39" fill="none" height="135.7734" id="WriterKindHelper" rx="1.5" ry="1.5" style="stroke:#C6A0F6;stroke-width:2.0;" width="361.1836" x="880.41" y="44"/><ellipse cx="991.1502" cy="58.4219" fill="#FFFFFF" rx="9" ry="9" style="stroke:#000000;stroke-width:1.0;"/><path d="M992.9842,62.6699 Q992.5741,62.8809 992.1229,62.9863 Q991.6717,63.0918 991.1737,63.0918 Q989.4041,63.0918 988.4725,61.9258 Q987.5409,60.7598 987.5409,58.5566 Q987.5409,56.3477 988.4725,55.1816 Q989.4041,54.0156 991.1737,54.0156 Q991.6717,54.0156 992.1288,54.1211 Q992.5858,54.2266 992.9842,54.4375 L992.9842,56.3594 Q992.5389,55.9492 992.12,55.7588 Q991.701,55.5684 991.2557,55.5684 Q990.3065,55.5684 989.8231,56.3213 Q989.3397,57.0742 989.3397,58.5566 Q989.3397,60.0332 989.8231,60.7861 Q990.3065,61.5391 991.2557,61.5391 Q991.701,61.5391 992.12,61.3486 Q992.5389,61.1582 992.9842,60.748 Z " fill="#CAD3F5"/><text fill="#A6DA95" font-family="sans-serif" font-size="16" lengthAdjust="spacing" textLength="132.2031" x="1008.6502" y="64.4688">WriterKindHelper</text><line style="stroke:#C6A0F6;stroke-width:2.0;" x1="881.41" x2="1240.5936" y1="72.8438" y2="72.8438"/><text fill="#A6DA95" font-family="sans-serif" font-size="12" lengthAdjust="spacing" text-decoration="underline" textLength="337.8809" x="886.41" y="88.4453">+Writer&lt;W, A&gt; unwrap(Kind&lt;WriterKind&lt;W, ?&gt;, A&gt; kind)</text><text fill="#A6DA95" font-family="sans-serif" font-size="12" lengthAdjust="spacing" text-decoration="underline" textLength="273.1758" x="886.41" y="102.5781">+WriterKind&lt;W, A&gt; wrap(Writer&lt;W, A&gt; writer)</text><text fill="#A6DA95" font-family="sans-serif" font-size="12" lengthAdjust="spacing" text-decoration="underline" textLength="197.4727" x="886.41" y="116.7109">+WriterKind&lt;W, A&gt; value(Monoid</text><text fill="#A6DA95" font-family="sans-serif" font-size="12" lengthAdjust="spacing" text-decoration="underline" textLength="108.6914" x="1087.6795" y="116.7109">monoidW, A value)</text><text fill="#A6DA95" font-family="sans-serif" font-size="12" lengthAdjust="spacing" text-decoration="underline" textLength="203.1035" x="886.41" y="130.8438">+WriterKind&lt;W, Void&gt; tell(Monoid</text><text fill="#A6DA95" font-family="sans-serif" font-size="12" lengthAdjust="spacing" text-decoration="underline" textLength="98.5605" x="1093.3104" y="130.8438">monoidW, W log)</text><text fill="#A6DA95" font-family="sans-serif" font-size="12" lengthAdjust="spacing" text-decoration="underline" textLength="349.1836" x="886.41" y="144.9766">+Writer&lt;W, A&gt; runWriter(Kind&lt;WriterKind&lt;W, ?&gt;, A&gt; kind)</text><text fill="#A6DA95" font-family="sans-serif" font-size="12" lengthAdjust="spacing" text-decoration="underline" textLength="242.7891" x="886.41" y="159.1094">+A run(Kind&lt;WriterKind&lt;W, ?&gt;, A&gt; kind)</text><text fill="#A6DA95" font-family="sans-serif" font-size="12" lengthAdjust="spacing" text-decoration="underline" textLength="251.8477" x="886.41" y="173.2422">+W exec(Kind&lt;WriterKind&lt;W, ?&gt;, A&gt; kind)</text></g><!--class WriterFunctor--><g id="elem_WriterFunctor"><rect codeLine="49" fill="#24273A" height="50.9766" id="WriterFunctor" rx="1.5" ry="1.5" style="stroke:#C6A0F6;stroke-width:2.0;" width="508.459" x="547.77" y="240.77"/><rect fill="#363A4F" height="28.8438" rx="1.5" ry="1.5" style="stroke:#363A4F;stroke-width:2.0;" width="508.459" x="547.77" y="240.77"/><rect fill="#363A4F" height="1.5" style="stroke:#363A4F;stroke-width:2.0;" width="508.459" x="547.77" y="268.1138"/><rect codeLine="49" fill="none" height="50.9766" id="WriterFunctor" rx="1.5" ry="1.5" style="stroke:#C6A0F6;stroke-width:2.0;" width="508.459" x="547.77" y="240.77"/><ellipse cx="737.6596" cy="255.1919" fill="#FFFFFF" rx="9" ry="9" style="stroke:#000000;stroke-width:1.0;"/><path d="M739.4936,259.4399 Q739.0835,259.6509 738.6323,259.7563 Q738.1811,259.8618 737.6831,259.8618 Q735.9136,259.8618 734.9819,258.6958 Q734.0503,257.5298 734.0503,255.3266 Q734.0503,253.1177 734.9819,251.9516 Q735.9136,250.7856 737.6831,250.7856 Q738.1811,250.7856 738.6382,250.8911 Q739.0952,250.9966 739.4936,251.2075 L739.4936,253.1294 Q739.0483,252.7192 738.6294,252.5288 Q738.2104,252.3384 737.7651,252.3384 Q736.8159,252.3384 736.3325,253.0913 Q735.8491,253.8442 735.8491,255.3266 Q735.8491,256.8032 736.3325,257.5561 Q736.8159,258.3091 737.7651,258.3091 Q738.2104,258.3091 738.6294,258.1186 Q739.0483,257.9282 739.4936,257.518 Z " fill="#CAD3F5"/><text fill="#A6DA95" font-family="sans-serif" font-size="16" lengthAdjust="spacing" textLength="105.2969" x="755.1596" y="261.2388">WriterFunctor</text><rect fill="#24273A" height="16.584" style="stroke:#C6A0F6;stroke-width:1.0;stroke-dasharray:2.0,2.0;" width="13.8828" x="1045.3462" y="237.77"/><text fill="#000000" font-family="Verdana" font-size="12" font-style="italic" lengthAdjust="spacing" textLength="11.8828" x="1046.3462" y="250.8345">W</text><line style="stroke:#C6A0F6;stroke-width:2.0;" x1="548.77" x2="1055.229" y1="269.6138" y2="269.6138"/><text fill="#A6DA95" font-family="sans-serif" font-size="12" lengthAdjust="spacing" textLength="496.459" x="553.77" y="285.2153">+Kind&lt;WriterKind&lt;W, ?&gt;, B&gt; map(Function&lt;A, B&gt; f, Kind&lt;WriterKind&lt;W, ?&gt;, A&gt; fa)</text></g><!--class Functor--><g id="elem_Functor"><rect fill="#24273A" height="28.8438" id="Functor" rx="1.5" ry="1.5" style="stroke:#C6A0F6;stroke-width:2.0;" width="86.9922" x="758.5" y="97.46"/><rect fill="#363A4F" height="28.8438" rx="1.5" ry="1.5" style="stroke:#363A4F;stroke-width:2.0;" width="86.9922" x="758.5" y="97.46"/><rect fill="#363A4F" height="1.5" style="stroke:#363A4F;stroke-width:2.0;" width="86.9922" x="758.5" y="124.8038"/><rect fill="none" height="28.8438" id="Functor" rx="1.5" ry="1.5" style="stroke:#C6A0F6;stroke-width:2.0;" width="86.9922" x="758.5" y="97.46"/><ellipse cx="771.5" cy="111.8819" fill="#FFFFFF" rx="9" ry="9" style="stroke:#000000;stroke-width:1.0;"/><path d="M768.5078,109.1573 L768.5078,107.6338 L773.7168,107.6338 L773.7168,109.1573 L771.9766,109.1573 L771.9766,114.8584 L773.7168,114.8584 L773.7168,116.3819 L768.5078,116.3819 L768.5078,114.8584 L770.248,114.8584 L770.248,109.1573 Z " fill="#CAD3F5"/><text fill="#A6DA95" font-family="sans-serif" font-size="16" font-style="italic" lengthAdjust="spacing" textLength="58.9922" x="783.5" y="117.9288">Functor</text></g><!--class WriterApplicative--><g id="elem_WriterApplicative"><rect codeLine="52" fill="#24273A" height="101.375" id="WriterApplicative" rx="1.5" ry="1.5" style="stroke:#C6A0F6;stroke-width:2.0;" width="657.6738" x="584.16" y="367.75"/><rect fill="#363A4F" height="28.8438" rx="1.5" ry="1.5" style="stroke:#363A4F;stroke-width:2.0;" width="657.6738" x="584.16" y="367.75"/><rect fill="#363A4F" height="1.5" style="stroke:#363A4F;stroke-width:2.0;" width="657.6738" x="584.16" y="395.0938"/><rect codeLine="52" fill="none" height="101.375" id="WriterApplicative" rx="1.5" ry="1.5" style="stroke:#C6A0F6;stroke-width:2.0;" width="657.6738" x="584.16" y="367.75"/><ellipse cx="835.5204" cy="382.1719" fill="#FFFFFF" rx="9" ry="9" style="stroke:#000000;stroke-width:1.0;"/><path d="M837.3543,386.4199 Q836.9442,386.6309 836.493,386.7363 Q836.0418,386.8418 835.5438,386.8418 Q833.7743,386.8418 832.8426,385.6758 Q831.911,384.5098 831.911,382.3066 Q831.911,380.0977 832.8426,378.9316 Q833.7743,377.7656 835.5438,377.7656 Q836.0418,377.7656 836.4989,377.8711 Q836.9559,377.9766 837.3543,378.1875 L837.3543,380.1094 Q836.909,379.6992 836.4901,379.5088 Q836.0711,379.3184 835.6258,379.3184 Q834.6766,379.3184 834.1932,380.0713 Q833.7098,380.8242 833.7098,382.3066 Q833.7098,383.7832 834.1932,384.5361 Q834.6766,385.2891 835.6258,385.2891 Q836.0711,385.2891 836.4901,385.0986 Q836.909,384.9082 837.3543,384.498 Z " fill="#CAD3F5"/><text fill="#A6DA95" font-family="sans-serif" font-size="16" lengthAdjust="spacing" textLength="131.5703" x="853.0204" y="388.2188">WriterApplicative</text><rect fill="#24273A" height="16.584" style="stroke:#C6A0F6;stroke-width:1.0;stroke-dasharray:2.0,2.0;" width="13.8828" x="1230.951" y="364.75"/><text fill="#000000" font-family="Verdana" font-size="12" font-style="italic" lengthAdjust="spacing" textLength="11.8828" x="1231.951" y="377.8145">W</text><line style="stroke:#C6A0F6;stroke-width:2.0;" x1="585.16" x2="1240.8338" y1="396.5938" y2="396.5938"/><text fill="#A6DA95" font-family="sans-serif" font-size="12" lengthAdjust="spacing" textLength="142.752" x="590.16" y="412.1953">#monoidW: Monoid&lt;W&gt;</text><line style="stroke:#C6A0F6;stroke-width:2.0;" x1="585.16" x2="1240.8338" y1="418.7266" y2="418.7266"/><text fill="#A6DA95" font-family="sans-serif" font-size="12" lengthAdjust="spacing" textLength="155.666" x="590.16" y="434.3281">+WriterApplicative(Monoid</text><text fill="#A6DA95" font-family="sans-serif" font-size="12" lengthAdjust="spacing" text-decoration="wavy underline" textLength="58.582" x="749.6229" y="434.3281">monoidW)</text><text fill="#A6DA95" font-family="sans-serif" font-size="12" lengthAdjust="spacing" textLength="239.7246" x="590.16" y="448.4609">+Kind&lt;WriterKind&lt;W, ?&gt;, A&gt; of(A value)</text><text fill="#A6DA95" font-family="sans-serif" font-size="12" lengthAdjust="spacing" textLength="645.6738" x="590.16" y="462.5938">+Kind&lt;WriterKind&lt;W, ?&gt;, B&gt; ap(Kind&lt;WriterKind&lt;W, ?&gt;, Function&lt;A, B&gt;&gt; ff, Kind&lt;WriterKind&lt;W, ?&gt;, A&gt; fa)</text></g><!--class Applicative--><g id="elem_Applicative"><rect fill="#24273A" height="28.8438" id="Applicative" rx="1.5" ry="1.5" style="stroke:#C6A0F6;stroke-width:2.0;" width="113.2656" x="1091.37" y="251.84"/><rect fill="#363A4F" height="28.8438" rx="1.5" ry="1.5" style="stroke:#363A4F;stroke-width:2.0;" width="113.2656" x="1091.37" y="251.84"/><rect fill="#363A4F" height="1.5" style="stroke:#363A4F;stroke-width:2.0;" width="113.2656" x="1091.37" y="279.1837"/><rect fill="none" height="28.8438" id="Applicative" rx="1.5" ry="1.5" style="stroke:#C6A0F6;stroke-width:2.0;" width="113.2656" x="1091.37" y="251.84"/><ellipse cx="1104.37" cy="266.2619" fill="#FFFFFF" rx="9" ry="9" style="stroke:#000000;stroke-width:1.0;"/><path d="M1101.3778,263.5373 L1101.3778,262.0138 L1106.5868,262.0138 L1106.5868,263.5373 L1104.8466,263.5373 L1104.8466,269.2384 L1106.5868,269.2384 L1106.5868,270.7619 L1101.3778,270.7619 L1101.3778,269.2384 L1103.118,269.2384 L1103.118,263.5373 Z " fill="#CAD3F5"/><text fill="#A6DA95" font-family="sans-serif" font-size="16" font-style="italic" lengthAdjust="spacing" textLength="85.2656" x="1116.37" y="272.3087">Applicative</text></g><!--class WriterMonad--><g id="elem_WriterMonad"><rect codeLine="58" fill="#24273A" height="65.1094" id="WriterMonad" rx="1.5" ry="1.5" style="stroke:#C6A0F6;stroke-width:2.0;" width="689.3848" x="514.31" y="545.12"/><rect fill="#363A4F" height="28.8438" rx="1.5" ry="1.5" style="stroke:#363A4F;stroke-width:2.0;" width="689.3848" x="514.31" y="545.12"/><rect fill="#363A4F" height="1.5" style="stroke:#363A4F;stroke-width:2.0;" width="689.3848" x="514.31" y="572.4637"/><rect codeLine="58" fill="none" height="65.1094" id="WriterMonad" rx="1.5" ry="1.5" style="stroke:#C6A0F6;stroke-width:2.0;" width="689.3848" x="514.31" y="545.12"/><ellipse cx="797.936" cy="559.5419" fill="#FFFFFF" rx="9" ry="9" style="stroke:#000000;stroke-width:1.0;"/><path d="M799.77,563.7899 Q799.3598,564.0009 798.9086,564.1063 Q798.4575,564.2118 797.9594,564.2118 Q796.1899,564.2118 795.2582,563.0458 Q794.3266,561.8798 794.3266,559.6766 Q794.3266,557.4677 795.2582,556.3016 Q796.1899,555.1356 797.9594,555.1356 Q798.4575,555.1356 798.9145,555.2411 Q799.3715,555.3466 799.77,555.5575 L799.77,557.4794 Q799.3246,557.0692 798.9057,556.8788 Q798.4868,556.6884 798.0414,556.6884 Q797.0922,556.6884 796.6088,557.4413 Q796.1254,558.1942 796.1254,559.6766 Q796.1254,561.1532 796.6088,561.9061 Q797.0922,562.6591 798.0414,562.6591 Q798.4868,562.6591 798.9057,562.4686 Q799.3246,562.2782 799.77,561.868 Z " fill="#CAD3F5"/><text fill="#A6DA95" font-family="sans-serif" font-size="16" lengthAdjust="spacing" textLength="98.75" x="815.436" y="565.5887">WriterMonad</text><rect fill="#24273A" height="16.584" style="stroke:#C6A0F6;stroke-width:1.0;stroke-dasharray:2.0,2.0;" width="13.8828" x="1192.812" y="542.12"/><text fill="#000000" font-family="Verdana" font-size="12" font-style="italic" lengthAdjust="spacing" textLength="11.8828" x="1193.812" y="555.1845">W</text><line style="stroke:#C6A0F6;stroke-width:2.0;" x1="515.31" x2="1202.6948" y1="573.9637" y2="573.9637"/><text fill="#A6DA95" font-family="sans-serif" font-size="12" lengthAdjust="spacing" textLength="131.0508" x="520.31" y="589.5653">+WriterMonad(Monoid</text><text fill="#A6DA95" font-family="sans-serif" font-size="12" lengthAdjust="spacing" text-decoration="wavy underline" textLength="58.582" x="655.1577" y="589.5653">monoidW)</text><text fill="#A6DA95" font-family="sans-serif" font-size="12" lengthAdjust="spacing" textLength="677.3848" x="520.31" y="603.6981">+Kind&lt;WriterKind&lt;W, ?&gt;, B&gt; flatMap(Function&lt;A, Kind&lt;WriterKind&lt;W, ?&gt;, B&gt;&gt; f, Kind&lt;WriterKind&lt;W, ?&gt;, A&gt; ma)</text></g><!--class Monad--><g id="elem_Monad"><rect fill="#24273A" height="28.8438" id="Monad" rx="1.5" ry="1.5" style="stroke:#C6A0F6;stroke-width:2.0;" width="80.4453" x="468.78" y="404.02"/><rect fill="#363A4F" height="28.8438" rx="1.5" ry="1.5" style="stroke:#363A4F;stroke-width:2.0;" width="80.4453" x="468.78" y="404.02"/><rect fill="#363A4F" height="1.5" style="stroke:#363A4F;stroke-width:2.0;" width="80.4453" x="468.78" y="431.3638"/><rect fill="none" height="28.8438" id="Monad" rx="1.5" ry="1.5" style="stroke:#C6A0F6;stroke-width:2.0;" width="80.4453" x="468.78" y="404.02"/><ellipse cx="481.78" cy="418.4419" fill="#FFFFFF" rx="9" ry="9" style="stroke:#000000;stroke-width:1.0;"/><path d="M478.7878,415.7173 L478.7878,414.1938 L483.9968,414.1938 L483.9968,415.7173 L482.2566,415.7173 L482.2566,421.4184 L483.9968,421.4184 L483.9968,422.9419 L478.7878,422.9419 L478.7878,421.4184 L480.528,421.4184 L480.528,415.7173 Z " fill="#CAD3F5"/><text fill="#A6DA95" font-family="sans-serif" font-size="16" font-style="italic" lengthAdjust="spacing" textLength="52.4453" x="493.78" y="424.4888">Monad</text></g><!--class WriterKind--><g id="elem_WriterKind"><rect fill="#24273A" height="28.8438" id="WriterKind" rx="1.5" ry="1.5" style="stroke:#C6A0F6;stroke-width:2.0;" width="109.375" x="552.31" y="784.12"/><rect fill="#363A4F" height="28.8438" rx="1.5" ry="1.5" style="stroke:#363A4F;stroke-width:2.0;" width="109.375" x="552.31" y="784.12"/><rect fill="#363A4F" height="1.5" style="stroke:#363A4F;stroke-width:2.0;" width="109.375" x="552.31" y="811.4637"/><rect fill="none" height="28.8438" id="WriterKind" rx="1.5" ry="1.5" style="stroke:#C6A0F6;stroke-width:2.0;" width="109.375" x="552.31" y="784.12"/><ellipse cx="565.31" cy="798.5419" fill="#FFFFFF" rx="9" ry="9" style="stroke:#000000;stroke-width:1.0;"/><path d="M567.144,802.7899 Q566.7338,803.0009 566.2827,803.1063 Q565.8315,803.2118 565.3334,803.2118 Q563.5639,803.2118 562.6323,802.0458 Q561.7006,800.8798 561.7006,798.6766 Q561.7006,796.4677 562.6323,795.3016 Q563.5639,794.1356 565.3334,794.1356 Q565.8315,794.1356 566.2885,794.2411 Q566.7455,794.3466 567.144,794.5575 L567.144,796.4794 Q566.6987,796.0692 566.2797,795.8788 Q565.8608,795.6884 565.4155,795.6884 Q564.4663,795.6884 563.9829,796.4413 Q563.4995,797.1942 563.4995,798.6766 Q563.4995,800.1532 563.9829,800.9061 Q564.4663,801.6591 565.4155,801.6591 Q565.8608,801.6591 566.2797,801.4686 Q566.6987,801.2782 567.144,800.868 Z " fill="#CAD3F5"/><text fill="#A6DA95" font-family="sans-serif" font-size="16" lengthAdjust="spacing" textLength="81.375" x="577.31" y="804.5887">WriterKind</text></g><!--class Functor--><g id="elem_Functor"><rect fill="#24273A" height="28.8438" id="Functor" rx="1.5" ry="1.5" style="stroke:#C6A0F6;stroke-width:2.0;" width="86.9922" x="144.5" y="404.02"/><rect fill="#363A4F" height="28.8438" rx="1.5" ry="1.5" style="stroke:#363A4F;stroke-width:2.0;" width="86.9922" x="144.5" y="404.02"/><rect fill="#363A4F" height="1.5" style="stroke:#363A4F;stroke-width:2.0;" width="86.9922" x="144.5" y="431.3638"/><rect fill="none" height="28.8438" id="Functor" rx="1.5" ry="1.5" style="stroke:#C6A0F6;stroke-width:2.0;" width="86.9922" x="144.5" y="404.02"/><ellipse cx="157.5" cy="418.4419" fill="#FFFFFF" rx="9" ry="9" style="stroke:#000000;stroke-width:1.0;"/><path d="M159.334,422.6899 Q158.9238,422.9009 158.4727,423.0063 Q158.0215,423.1118 157.5234,423.1118 Q155.7539,423.1118 154.8223,421.9458 Q153.8906,420.7798 153.8906,418.5766 Q153.8906,416.3677 154.8223,415.2016 Q155.7539,414.0356 157.5234,414.0356 Q158.0215,414.0356 158.4785,414.1411 Q158.9355,414.2466 159.334,414.4575 L159.334,416.3794 Q158.8887,415.9692 158.4697,415.7788 Q158.0508,415.5884 157.6055,415.5884 Q156.6563,415.5884 156.1729,416.3413 Q155.6895,417.0942 155.6895,418.5766 Q155.6895,420.0532 156.1729,420.8061 Q156.6563,421.5591 157.6055,421.5591 Q158.0508,421.5591 158.4697,421.3686 Q158.8887,421.1782 159.334,420.768 Z " fill="#CAD3F5"/><text fill="#A6DA95" font-family="sans-serif" font-size="16" lengthAdjust="spacing" textLength="58.9922" x="169.5" y="424.4888">Functor</text></g><!--class Applicative--><g id="elem_Applicative"><rect fill="#24273A" height="28.8438" id="Applicative" rx="1.5" ry="1.5" style="stroke:#C6A0F6;stroke-width:2.0;" width="113.2656" x="1274.37" y="563.26"/><rect fill="#363A4F" height="28.8438" rx="1.5" ry="1.5" style="stroke:#363A4F;stroke-width:2.0;" width="113.2656" x="1274.37" y="563.26"/><rect fill="#363A4F" height="1.5" style="stroke:#363A4F;stroke-width:2.0;" width="113.2656" x="1274.37" y="590.6038"/><rect fill="none" height="28.8438" id="Applicative" rx="1.5" ry="1.5" style="stroke:#C6A0F6;stroke-width:2.0;" width="113.2656" x="1274.37" y="563.26"/><ellipse cx="1287.37" cy="577.6819" fill="#FFFFFF" rx="9" ry="9" style="stroke:#000000;stroke-width:1.0;"/><path d="M1289.204,581.9299 Q1288.7938,582.1409 1288.3427,582.2463 Q1287.8915,582.3518 1287.3934,582.3518 Q1285.6239,582.3518 1284.6923,581.1858 Q1283.7606,580.0198 1283.7606,577.8166 Q1283.7606,575.6077 1284.6923,574.4416 Q1285.6239,573.2756 1287.3934,573.2756 Q1287.8915,573.2756 1288.3485,573.3811 Q1288.8055,573.4866 1289.204,573.6975 L1289.204,575.6194 Q1288.7587,575.2092 1288.3397,575.0188 Q1287.9208,574.8284 1287.4755,574.8284 Q1286.5263,574.8284 1286.0429,575.5813 Q1285.5595,576.3342 1285.5595,577.8166 Q1285.5595,579.2932 1286.0429,580.0461 Q1286.5263,580.7991 1287.4755,580.7991 Q1287.9208,580.7991 1288.3397,580.6086 Q1288.7587,580.4182 1289.204,580.008 Z " fill="#CAD3F5"/><text fill="#A6DA95" font-family="sans-serif" font-size="16" lengthAdjust="spacing" textLength="85.2656" x="1299.37" y="583.7288">Applicative</text></g><!--class Monad--><g id="elem_Monad"><rect fill="#24273A" height="28.8438" id="Monad" rx="1.5" ry="1.5" style="stroke:#C6A0F6;stroke-width:2.0;" width="80.4453" x="818.78" y="784.12"/><rect fill="#363A4F" height="28.8438" rx="1.5" ry="1.5" style="stroke:#363A4F;stroke-width:2.0;" width="80.4453" x="818.78" y="784.12"/><rect fill="#363A4F" height="1.5" style="stroke:#363A4F;stroke-width:2.0;" width="80.4453" x="818.78" y="811.4637"/><rect fill="none" height="28.8438" id="Monad" rx="1.5" ry="1.5" style="stroke:#C6A0F6;stroke-width:2.0;" width="80.4453" x="818.78" y="784.12"/><ellipse cx="831.78" cy="798.5419" fill="#FFFFFF" rx="9" ry="9" style="stroke:#000000;stroke-width:1.0;"/><path d="M833.614,802.7899 Q833.2038,803.0009 832.7527,803.1063 Q832.3015,803.2118 831.8034,803.2118 Q830.0339,803.2118 829.1023,802.0458 Q828.1706,800.8798 828.1706,798.6766 Q828.1706,796.4677 829.1023,795.3016 Q830.0339,794.1356 831.8034,794.1356 Q832.3015,794.1356 832.7585,794.2411 Q833.2155,794.3466 833.614,794.5575 L833.614,796.4794 Q833.1687,796.0692 832.7497,795.8788 Q832.3308,795.6884 831.8855,795.6884 Q830.9363,795.6884 830.4529,796.4413 Q829.9695,797.1942 829.9695,798.6766 Q829.9695,800.1532 830.4529,800.9061 Q830.9363,801.6591 831.8855,801.6591 Q832.3308,801.6591 832.7497,801.4686 Q833.1687,801.2782 833.614,800.868 Z " fill="#CAD3F5"/><text fill="#A6DA95" font-family="sans-serif" font-size="16" lengthAdjust="spacing" textLength="52.4453" x="843.78" y="804.5887">Monad</text></g><!--reverse link Functor to WriterFunctor--><g id="link_Functor_WriterFunctor"><path d="M802,144.68 C802,170.39 802,207.98 802,240.4 " fill="none" id="Functor-backto-WriterFunctor" style="stroke:#F5BDE6;stroke-width:1.0;stroke-dasharray:7.0,7.0;"/><polygon fill="none" points="802,126.68,796,144.68,808,144.68,802,126.68" style="stroke:#F5BDE6;stroke-width:1.0;"/></g><!--reverse link WriterFunctor to WriterApplicative--><g id="link_WriterFunctor_WriterApplicative"><path d="M860.7607,302.5612 C872.3707,310.7812 869.36,310.37 878,321.75 C888.17,335.13 895.61,351.76 900.95,367.38 " fill="none" id="WriterFunctor-backto-WriterApplicative" style="stroke:#F5BDE6;stroke-width:1.0;"/><polygon fill="none" points="846.07,292.16,857.2936,307.458,864.2277,297.6643,846.07,292.16" style="stroke:#F5BDE6;stroke-width:1.0;"/></g><!--reverse link WriterFunctor to WriterApplicative--><g id="link_WriterFunctor_WriterApplicative"><path codeLine="70" d="M806.6435,298.0641 C809.4735,312.2541 813.3,323.99 822,337.75 C828.74,348.4 837.31,358.43 846.5,367.56 " fill="none" id="WriterFunctor-backto-WriterApplicative-1" style="stroke:#F5BDE6;stroke-width:1.0;stroke-dasharray:7.0,7.0;"/><polygon fill="#F5BDE6" points="805.47,292.18,803.3075,301.7885,806.4479,297.0834,811.153,300.2238,805.47,292.18" style="stroke:#F5BDE6;stroke-width:1.0;"/><text fill="#CAD3F5" font-family="sans-serif" font-size="12" lengthAdjust="spacing" textLength="46.3359" x="823" y="334.3516">extends</text></g><!--reverse link Applicative to WriterApplicative--><g id="link_Applicative_WriterApplicative"><path d="M1111.1428,290.8131 C1080.6928,310.2731 1038.84,337.02 991.41,367.33 " fill="none" id="Applicative-backto-WriterApplicative" style="stroke:#F5BDE6;stroke-width:1.0;stroke-dasharray:7.0,7.0;"/><polygon fill="none" points="1126.31,281.12,1107.9118,285.7573,1114.3738,295.8688,1126.31,281.12" style="stroke:#F5BDE6;stroke-width:1.0;"/></g><!--reverse link WriterApplicative to WriterMonad--><g id="link_WriterApplicative_WriterMonad"><path d="M915.4838,487.2977 C914.9238,502.4177 913.42,500.81 908,515.12 C903.98,525.73 897.42,535.92 890.38,544.86 " fill="none" id="WriterApplicative-backto-WriterMonad" style="stroke:#F5BDE6;stroke-width:1.0;"/><polygon fill="none" points="916.15,469.31,909.4879,487.0756,921.4797,487.5197,916.15,469.31" style="stroke:#F5BDE6;stroke-width:1.0;"/></g><!--reverse link WriterApplicative to WriterMonad--><g id="link_WriterApplicative_WriterMonad"><path codeLine="71" d="M863.9246,474.2808 C857.6646,483.6008 855.52,488.73 852,499.12 C847.1,513.59 847.89,530.4 850.3,544.66 " fill="none" id="WriterApplicative-backto-WriterMonad-1" style="stroke:#F5BDE6;stroke-width:1.0;stroke-dasharray:7.0,7.0;"/><polygon fill="#F5BDE6" points="867.27,469.3,858.9313,474.5408,864.4821,473.4506,865.5723,479.0014,867.27,469.3" style="stroke:#F5BDE6;stroke-width:1.0;"/><text fill="#CAD3F5" font-family="sans-serif" font-size="12" lengthAdjust="spacing" textLength="46.3359" x="853" y="511.7216">extends</text></g><!--reverse link Monad to WriterMonad--><g id="link_Monad_WriterMonad"><path d="M535.0457,445.8294 C546.1557,456.7694 550.07,459.19 567,469.12 C621.98,501.39 688.32,526.76 743.86,544.74 " fill="none" id="Monad-backto-WriterMonad" style="stroke:#F5BDE6;stroke-width:1.0;stroke-dasharray:7.0,7.0;"/><polygon fill="none" points="522.22,433.2,530.8359,450.1046,539.2555,441.5542,522.22,433.2" style="stroke:#F5BDE6;stroke-width:1.0;"/></g><!--link WriterKind to Kind--><g id="link_WriterKind_Kind"><path codeLine="65" d="M607,813.24 C607,852.54 607,965.43 607,1004.73 " fill="none" id="WriterKind-Kind" style="stroke:#F5BDE6;stroke-width:1.0;"/><text fill="#CAD3F5" font-family="sans-serif" font-size="12" lengthAdjust="spacing" textLength="46.3359" x="608" y="934.4616">extends</text></g><!--link WriterFunctor to Functor--><g id="link_WriterFunctor_Functor"><path codeLine="66" d="M547.28,285.29 C449.87,299.29 339.93,324.05 247,367.75 C228.58,376.41 211.23,392.3 200.18,403.79 " fill="none" id="WriterFunctor-Functor" style="stroke:#F5BDE6;stroke-width:1.0;"/><text fill="#CAD3F5" font-family="sans-serif" font-size="12" lengthAdjust="spacing" textLength="68.3203" x="362.91" y="334.3516">implements</text></g><!--link WriterApplicative to Applicative--><g id="link_WriterApplicative_Applicative"><path codeLine="67" d="M1056.39,469.55 C1118.66,491.86 1192.25,518.96 1258,545.12 C1271.86,550.64 1287.01,557.11 1299.91,562.76 " fill="none" id="WriterApplicative-Applicative" style="stroke:#F5BDE6;stroke-width:1.0;"/><text fill="#CAD3F5" font-family="sans-serif" font-size="12" lengthAdjust="spacing" textLength="68.3203" x="1174.43" y="511.7216">implements</text></g><!--link WriterMonad to Monad--><g id="link_WriterMonad_Monad"><path codeLine="68" d="M859,610.5 C859,659.11 859,749.81 859,784.02 " fill="none" id="WriterMonad-Monad" style="stroke:#F5BDE6;stroke-width:1.0;"/><text fill="#CAD3F5" font-family="sans-serif" font-size="12" lengthAdjust="spacing" textLength="68.3203" x="860" y="654.8316">implements</text></g><!--link WriterApplicative to Monoid--><g id="link_WriterApplicative_Monoid"><path codeLine="74" d="M1231.589,472.347 C1314.279,491.867 1376.97,514.31 1405,545.12 C1517.4,668.72 1373.86,783.22 1478,913.86 C1518.08,964.13 1581.6658,989.4397 1634.5058,1003.2797 " fill="none" id="WriterApplicative-Monoid" style="stroke:#F5BDE6;stroke-width:1.0;"/><polygon fill="#F5BDE6" points="1219.91,469.59,1224.8305,474.8615,1231.589,472.347,1226.6685,467.0755,1219.91,469.59" style="stroke:#F5BDE6;stroke-width:1.0;"/><polygon fill="#F5BDE6" points="1640.31,1004.8,1632.6172,998.6501,1635.4732,1003.5331,1630.5902,1006.3891,1640.31,1004.8" style="stroke:#F5BDE6;stroke-width:1.0;"/><polygon fill="#CAD3F5" points="1457.1481,653.4828,1454.6466,646.2973,1450.9008,649.1399,1457.1481,653.4828" style="stroke:#CAD3F5;stroke-width:1.0;"/><text fill="#CAD3F5" font-family="sans-serif" font-size="12" lengthAdjust="spacing" textLength="26.3672" x="1463.73" y="654.8316">uses</text></g><!--link WriterKindHelper to Writer--><g id="link_WriterKindHelper_Writer"><path codeLine="77" d="M1241.8,128.35 C1402.44,147.25 1612,186.92 1612,265.26 C1612,265.26 1612,265.26 1612,578.68 C1612,623.38 1626.6327,663.6632 1646.9727,701.5632 " fill="none" id="WriterKindHelper-to-Writer" style="stroke:#F5BDE6;stroke-width:1.0;stroke-dasharray:7.0,7.0;"/><polygon fill="#F5BDE6" points="1649.81,706.85,1649.0786,697.0283,1647.4456,702.4444,1642.0296,700.8114,1649.81,706.85" style="stroke:#F5BDE6;stroke-width:1.0;"/><text fill="#CAD3F5" font-family="sans-serif" font-size="12" lengthAdjust="spacing" textLength="97.3008" x="1613" y="423.0416">creates/unwraps</text></g><!--link WriterKindHelper to WriterKind--><g id="link_WriterKindHelper_WriterKind"><path codeLine="78" d="M879.91,175.85 C874.23,177.25 868.59,178.57 863,179.77 C770.01,199.87 11,170.12 11,265.26 C11,265.26 11,265.26 11,578.68 C11,693.32 398.5234,765.2145 546.0734,788.5045 " fill="none" id="WriterKindHelper-to-WriterKind" style="stroke:#F5BDE6;stroke-width:1.0;stroke-dasharray:7.0,7.0;"/><polygon fill="#F5BDE6" points="552,789.44,543.7337,784.0857,547.0611,788.6604,542.4864,791.9879,552,789.44" style="stroke:#F5BDE6;stroke-width:1.0;"/><text fill="#CAD3F5" font-family="sans-serif" font-size="12" lengthAdjust="spacing" textLength="97.3008" x="12" y="423.0416">creates/unwraps</text></g><!--link WriterKindHelper to Monoid--><g id="link_WriterKindHelper_Monoid"><path codeLine="79" d="M1242.06,124.8 C1510.57,144.94 1983,190.93 1983,265.26 C1983,265.26 1983,265.26 1983,799.55 C1983,852.95 1981.68,874.13 1946,913.86 C1903.48,961.19 1841.2224,986.6332 1789.4524,1001.3132 " fill="none" id="WriterKindHelper-to-Monoid" style="stroke:#F5BDE6;stroke-width:1.0;stroke-dasharray:7.0,7.0;"/><polygon fill="#F5BDE6" points="1783.68,1002.95,1793.4298,1004.343,1788.4903,1001.586,1791.2474,996.6465,1783.68,1002.95" style="stroke:#F5BDE6;stroke-width:1.0;"/><text fill="#CAD3F5" font-family="sans-serif" font-size="12" lengthAdjust="spacing" textLength="100.8809" x="1984" y="511.7216">uses for factories</text></g><!--link WriterMonad to WriterKind--><g id="link_WriterMonad_WriterKind"><path codeLine="81" d="M703.78,610.67 C686.92,618.89 671.14,629.24 658,642.23 C617.85,681.95 609.6612,747.7809 607.8512,777.7909 " fill="none" id="WriterMonad-to-WriterKind" style="stroke:#F5BDE6;stroke-width:1.0;stroke-dasharray:7.0,7.0;"/><polygon fill="#F5BDE6" points="607.49,783.78,612.0246,775.0371,607.791,778.7891,604.0391,774.5555,607.49,783.78" style="stroke:#F5BDE6;stroke-width:1.0;"/><text fill="#CAD3F5" font-family="sans-serif" font-size="12" lengthAdjust="spacing" textLength="191.1621" x="659" y="654.8316">operates on &lt;WriterKind&lt;W,?&gt;&gt;</text></g><!--link WriterMonad to Writer--><g id="link_WriterMonad_Writer"><path codeLine="82" d="M983.49,610.62 C1117.01,644.88 1325.8283,698.4588 1487.6083,739.9688 " fill="none" id="WriterMonad-to-Writer" style="stroke:#F5BDE6;stroke-width:1.0;stroke-dasharray:7.0,7.0;"/><polygon fill="#F5BDE6" points="1493.42,741.46,1485.6965,735.3487,1488.5769,740.2173,1483.7083,743.0977,1493.42,741.46" style="stroke:#F5BDE6;stroke-width:1.0;"/><text fill="#CAD3F5" font-family="sans-serif" font-size="12" lengthAdjust="spacing" textLength="96.6094" x="1160.26" y="654.8316">uses methods of</text></g><!--link Writer to Monoid--><g id="link_Writer_Monoid"><path codeLine="83" d="M1712,890.15 C1712,924.37 1712,955.12 1712,980.48 " fill="none" id="Writer-to-Monoid" style="stroke:#F5BDE6;stroke-width:1.0;stroke-dasharray:7.0,7.0;"/><polygon fill="#F5BDE6" points="1712,986.48,1716,977.48,1712,981.48,1708,977.48,1712,986.48" style="stroke:#F5BDE6;stroke-width:1.0;"/><text fill="#CAD3F5" font-family="sans-serif" font-size="12" lengthAdjust="spacing" textLength="130.8984" x="1713" y="934.4616">uses for flatMap/value</text></g><!--SRC=[dLPDSzem4BtxLspfeT1Wt3F3qA7fCCbaqaEIASUCaELO4rlIM389pUI_T_q54aO92ITPUljszVIquej9MSv0POIBu0iND2jZ1ganIa-Zg21FamTkqd9TQbPGAGmJPa9b7WagjI4Xfn4bHgcIKYx2d52QSc9aY7p2b7aMrlHHZknHFPmed0q2_SY58WN9WMP4wuKn1L-NXbrYZbl-Zy4F2nApX9IPMMBwFmIB7Tp8jJHo31Sisp33AHa4ASUoMQxC5dAMhrcXWq0H-aWU47yk2mONLtTmYHie4aAP7i1B0FZZtGnSSH7FbcDOp0yMbgMWHXQpvU72GgaCank-OVt5Qob8N4s_MeNSRHM3ysh7kmgS2CdZsMhUbWPdi6gsD1pj9r3yDHTik8BdCNvkwwLN9ykguCW9LR9kcxNAq2pCLjKcOJOh69L5FD_bQpBK6AJFv0FYO4EoaersWFjxk6OcbR76OR2BUa4pu46ykYbemOXXFYvVL8qQxjN8wz7gH8A_Y9s3OLdMvBNGUz0lP2LgM9yibsAsgASI7pR9YBb6_96QR0exncLRG56AeKqFx9dHTkRewLLslULvYQcHlc_N5bUxjj6DFUFjn7DfffpLd_CACGXwNgW0U8iK9knCu3kMKZmLg86N7V2-nYCVYLLdJUDGFzKVfyIUwWqlXsMF8ooEOtn2u56sb-J3MZG- -BY4ZLjEYNljdt7Nlt2ZF5SPDc5XzAwh7V9PtU3CPoNFzHdxhGS9wUexBC_kegkzYz-gtGdnr_-rEzZflhSUtd2Bgc-8qRjAuCvaCkmt9hzm_YlaoecIVLBGvkNfINcWioLd6_2M4IpcpyXazL1xbrxqEsRAYTKuly4DQvgaJhdImJu2mh0cWMadHU2ugbhlXbDBaA0dM8MqFu-WQsqgN3Dm44S89-LaxdgyLsL3P07T2Zem2l2RAHmoGJaxLlptC9otDm3Zy9-SXZb6sLcuI1b-QlolrL9jOSD9Ft4Gz1wEoQv0P6-UV1qrhuL-2zqUpKaHRlK9geMF88fMRTYLwv1U8aN53rA0woQqk2UqovEt_tHaqW9zjJJUZkek4Fm7]--></g></svg>