<?xml version="1.0" encoding="UTF-8" standalone="no"?><svg xmlns="http://www.w3.org/2000/svg" xmlns:xlink="http://www.w3.org/1999/xlink" contentScriptType="application/ecmascript" contentStyleType="text/css" height="450px" preserveAspectRatio="none" style="width:900px;height:450px;background:#24273A;" version="1.1" viewBox="0 0 900 450" width="900px" zoomAndPan="magnify"><defs/><g>

<!--class Kind--><g id="elem_Kind"><rect fill="#24273A" height="30" id="Kind" rx="1.5" ry="1.5" style="stroke:#C6A0F6;stroke-width:2.0;" width="120" x="390" y="390"/><rect fill="#363A4F" height="30" rx="1.5" ry="1.5" style="stroke:#363A4F;stroke-width:2.0;" width="120" x="390" y="390"/><ellipse cx="404" cy="405" fill="#B4A7E5" rx="10" ry="10" style="stroke:#181818;stroke-width:1.0;"/><text fill="#A6DA95" font-family="Helvetica" font-size="16" font-style="italic" lengthAdjust="spacing" textLength="70" x="420" y="410">Kind&lt;F, A&gt;</text></g>

<!--class FreeKind--><g id="elem_FreeKind"><rect fill="#24273A" height="30" id="FreeKind" rx="1.5" ry="1.5" style="stroke:#C6A0F6;stroke-width:2.0;" width="150" x="375" y="270"/><rect fill="#363A4F" height="30" rx="1.5" ry="1.5" style="stroke:#363A4F;stroke-width:2.0;" width="150" x="375" y="270"/><ellipse cx="390" cy="285" fill="#B4A7E5" rx="10" ry="10" style="stroke:#181818;stroke-width:1.0;"/><text fill="#A6DA95" font-family="Helvetica" font-size="16" font-style="italic" lengthAdjust="spacing" textLength="100" x="407" y="290">FreeKind&lt;F, A&gt;</text></g>

<!--class Free--><g id="elem_Free"><rect fill="#24273A" height="90" id="Free" rx="1.5" ry="1.5" style="stroke:#C6A0F6;stroke-width:2.0;" width="400" x="250" y="50"/><rect fill="#363A4F" height="30" rx="1.5" ry="1.5" style="stroke:#363A4F;stroke-width:2.0;" width="400" x="250" y="50"/><ellipse cx="330" cy="65" fill="#B4A7E5" rx="10" ry="10" style="stroke:#181818;stroke-width:1.0;"/><text fill="#CAD3F5" font-family="Helvetica" font-size="12" font-style="italic" x="345" y="63">«sealed interface»</text><text fill="#A6DA95" font-family="Helvetica" font-size="16" font-style="italic" x="360" y="75">Free&lt;F, A&gt;</text><line style="stroke:#C6A0F6;stroke-width:2.0;" x1="251" x2="649" y1="80" y2="80"/><ellipse cx="261" cy="92" fill="#84BE84" rx="3" ry="3" style="stroke:#038048;stroke-width:1.0;"/><text fill="#A6DA95" font-family="Helvetica" font-size="12" x="270" y="95">Free&lt;F, B&gt; map(Function&lt;A, B&gt; f)</text><ellipse cx="261" cy="108" fill="#84BE84" rx="3" ry="3" style="stroke:#038048;stroke-width:1.0;"/><text fill="#A6DA95" font-family="Helvetica" font-size="12" x="270" y="111">Free&lt;F, B&gt; flatMap(Function&lt;A, Free&lt;F, B&gt;&gt; f)</text><ellipse cx="261" cy="124" fill="#84BE84" rx="3" ry="3" style="stroke:#038048;stroke-width:1.0;"/><text fill="#A6DA95" font-family="Helvetica" font-size="12" x="270" y="127">Kind&lt;M, A&gt; foldMap(...)</text></g>

<!--class FreeKindHelper--><g id="elem_FreeKindHelper"><rect fill="#24273A" height="66" id="FreeKindHelper" rx="1.5" ry="1.5" style="stroke:#C6A0F6;stroke-width:2.0;" width="470" x="25" y="192"/><rect fill="#363A4F" height="30" rx="1.5" ry="1.5" style="stroke:#363A4F;stroke-width:2.0;" width="470" x="25" y="192"/><ellipse cx="95" cy="207" fill="#ADD1B2" rx="10" ry="10" style="stroke:#181818;stroke-width:1.0;"/><text fill="#A6DA95" font-family="Helvetica" font-size="16" x="110" y="212">FreeKindHelper</text><line style="stroke:#C6A0F6;stroke-width:2.0;" x1="26" x2="494" y1="222" y2="222"/><ellipse cx="36" cy="234" fill="#84BE84" rx="3" ry="3" style="stroke:#038048;stroke-width:1.0;"/><text fill="#A6DA95" font-family="Helvetica" font-size="12" text-decoration="underline" x="45" y="237">Kind&lt;FreeKind.Witness&lt;F&gt;, A&gt; widen(Free&lt;F, A&gt; free)</text><ellipse cx="36" cy="250" fill="#84BE84" rx="3" ry="3" style="stroke:#038048;stroke-width:1.0;"/><text fill="#A6DA95" font-family="Helvetica" font-size="12" text-decoration="underline" x="45" y="253">Free&lt;F, A&gt; narrow(Kind&lt;FreeKind.Witness&lt;F&gt;, A&gt; kind)</text></g>

<!--links--><path d="M450,300 L450,390" fill="none" style="stroke:#F5BDE6;stroke-width:1.0;"/><polygon fill="none" points="450,300,444,318,456,318,450,300" style="stroke:#F5BDE6;stroke-width:1.0;"/><text fill="#CAD3F5" font-family="Helvetica" font-size="11" x="455" y="350">«FreeKind.Witness&lt;F&gt;, A»</text>

<path d="M260,258 L260,210 L450,210 L450,140" fill="none" style="stroke:#F5BDE6;stroke-width:1.0;stroke-dasharray:7.0,7.0;"/><polygon fill="#F5BDE6" points="450,140,456,158,450,154,444,158,450,140" style="stroke:#F5BDE6;stroke-width:1.0;"/><text fill="#CAD3F5" font-family="Helvetica" font-size="11" x="265" y="175">widens/narrows</text>

<path d="M260,258 L260,240 L450,240 L450,300" fill="none" style="stroke:#F5BDE6;stroke-width:1.0;stroke-dasharray:7.0,7.0;"/><polygon fill="#F5BDE6" points="450,300,456,282,450,286,444,282,450,300" style="stroke:#F5BDE6;stroke-width:1.0;"/><text fill="#CAD3F5" font-family="Helvetica" font-size="11" x="265" y="255">widens/narrows</text>

</g></svg>
