<svg xmlns="http://www.w3.org/2000/svg" xmlns:xlink="http://www.w3.org/1999/xlink" contentStyleType="text/css" height="724px" preserveAspectRatio="none" style="width:696px;height:724px;background:#24273A;" version="1.1" viewBox="0 0 696 724" width="696px" zoomAndPan="magnify"><defs/><g><rect fill="#24273A" height="724" style="stroke:none;stroke-width:1.0;" width="696" x="0" y="0"/><!--class Kind--><g id="elem_Kind"><rect codeLine="6" fill="#24273A" height="30" id="Kind" rx="1.5" ry="1.5" style="stroke:#C6A0F6;stroke-width:2.0;" width="148.0547" x="196.56" y="10"/><rect fill="#363A4F" height="30" rx="1.5" ry="1.5" style="stroke:#363A4F;stroke-width:2.0;" width="148.0547" x="196.56" y="10"/><rect fill="#363A4F" height="1.5" style="stroke:#363A4F;stroke-width:2.0;" width="148.0547" x="196.56" y="38.5"/><rect codeLine="6" fill="none" height="30" id="Kind" rx="1.5" ry="1.5" style="stroke:#C6A0F6;stroke-width:2.0;" width="148.0547" x="196.56" y="10"/><ellipse cx="210.56" cy="25" fill="#B4A7E5" rx="10" ry="10" style="stroke:#181818;stroke-width:1.0;"/><path d="M207.5678,22.2754 L207.5678,20.752 L212.7768,20.752 L212.7768,22.2754 L211.0366,22.2754 L211.0366,27.9766 L212.7768,27.9766 L212.7768,29.5 L207.5678,29.5 L207.5678,27.9766 L209.308,27.9766 L209.308,22.2754 Z " fill="#CAD3F5"/><text fill="#A6DA95" font-family="Helvetica" font-size="16" font-style="italic" lengthAdjust="spacing" textLength="32.0234" x="223.56" y="29.3203">Kind</text><rect fill="#24273A" height="14" style="stroke:#C6A0F6;stroke-width:1.0;stroke-dasharray:2.0,2.0;" width="84.0313" x="263.5834" y="7"/><text fill="#CAD3F5" font-family="Helvetica" font-size="12" font-style="italic" lengthAdjust="spacing" textLength="82.0313" x="264.5834" y="17.2402">F_HKT, A_VAL</text></g><!--class Monad--><g id="elem_Monad"><rect codeLine="7" fill="#24273A" height="30" id="Monad" rx="1.5" ry="1.5" style="stroke:#C6A0F6;stroke-width:2.0;" width="120.9258" x="497.12" y="407"/><rect fill="#363A4F" height="30" rx="1.5" ry="1.5" style="stroke:#363A4F;stroke-width:2.0;" width="120.9258" x="497.12" y="407"/><rect fill="#363A4F" height="1.5" style="stroke:#363A4F;stroke-width:2.0;" width="120.9258" x="497.12" y="435.5"/><rect codeLine="7" fill="none" height="30" id="Monad" rx="1.5" ry="1.5" style="stroke:#C6A0F6;stroke-width:2.0;" width="120.9258" x="497.12" y="407"/><ellipse cx="511.12" cy="422" fill="#B4A7E5" rx="10" ry="10" style="stroke:#181818;stroke-width:1.0;"/><path d="M508.1278,419.2754 L508.1278,417.752 L513.3368,417.752 L513.3368,419.2754 L511.5966,419.2754 L511.5966,424.9766 L513.3368,424.9766 L513.3368,426.5 L508.1278,426.5 L508.1278,424.9766 L509.868,424.9766 L509.868,419.2754 Z " fill="#CAD3F5"/><text fill="#A6DA95" font-family="Helvetica" font-size="16" font-style="italic" lengthAdjust="spacing" textLength="48.9219" x="524.12" y="426.3203">Monad</text><rect fill="#24273A" height="14" style="stroke:#C6A0F6;stroke-width:1.0;stroke-dasharray:2.0,2.0;" width="40.0039" x="581.0419" y="404"/><text fill="#CAD3F5" font-family="Helvetica" font-size="12" font-style="italic" lengthAdjust="spacing" textLength="38.0039" x="582.0419" y="414.2402">F_HKT</text></g><!--class ReaderT--><g id="elem_ReaderT"><rect codeLine="11" fill="#24273A" height="122" id="ReaderT" rx="1.5" ry="1.5" style="stroke:#C6A0F6;stroke-width:2.0;" width="403.1641" x="152" y="224"/><rect fill="#363A4F" height="38" rx="1.5" ry="1.5" style="stroke:#363A4F;stroke-width:2.0;" width="403.1641" x="152" y="224"/><rect fill="#363A4F" height="1.5" style="stroke:#363A4F;stroke-width:2.0;" width="403.1641" x="152" y="260.5"/><rect codeLine="11" fill="none" height="122" id="ReaderT" rx="1.5" ry="1.5" style="stroke:#C6A0F6;stroke-width:2.0;" width="403.1641" x="152" y="224"/><ellipse cx="297.7891" cy="243" fill="#ADD1B2" rx="10" ry="10" style="stroke:#181818;stroke-width:1.0;"/><path d="M299.623,247.248 Q299.2129,247.459 298.7617,247.5645 Q298.3105,247.6699 297.8125,247.6699 Q296.043,247.6699 295.1113,246.5039 Q294.1797,245.3379 294.1797,243.1348 Q294.1797,240.9258 295.1113,239.7598 Q296.043,238.5938 297.8125,238.5938 Q298.3105,238.5938 298.7676,238.6992 Q299.2246,238.8047 299.623,239.0156 L299.623,240.9375 Q299.1777,240.5273 298.7588,240.3369 Q298.3398,240.1465 297.8945,240.1465 Q296.9453,240.1465 296.4619,240.8994 Q295.9785,241.6523 295.9785,243.1348 Q295.9785,244.6113 296.4619,245.3643 Q296.9453,246.1172 297.8945,246.1172 Q298.3398,246.1172 298.7588,245.9268 Q299.1777,245.7363 299.623,245.3262 Z " fill="#CAD3F5"/><text fill="#CAD3F5" font-family="Helvetica" font-size="12" font-style="italic" lengthAdjust="spacing" textLength="47.3613" x="324.2334" y="238.2402">&#171;record&#187;</text><text fill="#A6DA95" font-family="Helvetica" font-size="16" lengthAdjust="spacing" textLength="62.25" x="316.7891" y="253.3203">ReaderT</text><rect fill="#24273A" height="14" style="stroke:#C6A0F6;stroke-width:1.0;stroke-dasharray:2.0,2.0;" width="39.3359" x="518.8281" y="221"/><text fill="#CAD3F5" font-family="Helvetica" font-size="12" font-style="italic" lengthAdjust="spacing" textLength="37.3359" x="519.8281" y="231.2402">F, R, A</text><line style="stroke:#C6A0F6;stroke-width:2.0;" x1="153" x2="554.1641" y1="262" y2="262"/><ellipse cx="163" cy="273.5" fill="none" rx="3" ry="3" style="stroke:#038048;stroke-width:1.0;"/><text fill="#A6DA95" font-family="Helvetica" font-size="12" lengthAdjust="spacing" textLength="214.2891" x="171" y="275.2402">@NonNull Function&lt;R, Kind&lt;F, A&gt;&gt; run</text><ellipse cx="163" cy="301.5" fill="#84BE84" rx="3" ry="3" style="stroke:#038048;stroke-width:1.0;"/><text fill="#A6DA95" font-family="Helvetica" font-size="12" lengthAdjust="spacing" textLength="340.8105" x="171" y="303.2402">static &lt;F, R, A&gt; ReaderT&lt;F, R, A&gt; of(Function&lt;R, Kind&lt;F, A&gt;&gt;)</text><ellipse cx="163" cy="313.5" fill="#84BE84" rx="3" ry="3" style="stroke:#038048;stroke-width:1.0;"/><text fill="#A6DA95" font-family="Helvetica" font-size="12" lengthAdjust="spacing" textLength="332.1328" x="171" y="315.2402">static &lt;F, R, A&gt; ReaderT&lt;F, R, A&gt; lift(Monad&lt;F&gt;, Kind&lt;F, A&gt;)</text><ellipse cx="163" cy="325.5" fill="#84BE84" rx="3" ry="3" style="stroke:#038048;stroke-width:1.0;"/><text fill="#A6DA95" font-family="Helvetica" font-size="12" lengthAdjust="spacing" textLength="378.1641" x="171" y="327.2402">static &lt;F, R, A&gt; ReaderT&lt;F, R, A&gt; reader(Monad&lt;F&gt;, Function&lt;R, A&gt;)</text><ellipse cx="163" cy="337.5" fill="#84BE84" rx="3" ry="3" style="stroke:#038048;stroke-width:1.0;"/><text fill="#A6DA95" font-family="Helvetica" font-size="12" lengthAdjust="spacing" textLength="258.0938" x="171" y="339.2402">static &lt;F, R&gt; ReaderT&lt;F, R, R&gt; ask(Monad&lt;F&gt;)</text><line style="stroke:#C6A0F6;stroke-width:1.0;" x1="153" x2="328.9082" y1="288" y2="288"/><text fill="#A6DA95" font-family="Helvetica" font-size="12" lengthAdjust="spacing" textLength="49.3477" x="328.9082" y="290.7402">Factories</text><line style="stroke:#C6A0F6;stroke-width:1.0;" x1="378.2559" x2="554.1641" y1="288" y2="288"/></g><!--class ReaderTKind--><g id="elem_ReaderTKind"><rect codeLine="20" fill="#24273A" height="62" id="ReaderTKind" rx="1.5" ry="1.5" style="stroke:#C6A0F6;stroke-width:2.0;" width="224.7363" x="76.22" y="101"/><rect fill="#363A4F" height="30" rx="1.5" ry="1.5" style="stroke:#363A4F;stroke-width:2.0;" width="224.7363" x="76.22" y="101"/><rect fill="#363A4F" height="1.5" style="stroke:#363A4F;stroke-width:2.0;" width="224.7363" x="76.22" y="129.5"/><rect codeLine="20" fill="none" height="62" id="ReaderTKind" rx="1.5" ry="1.5" style="stroke:#C6A0F6;stroke-width:2.0;" width="224.7363" x="76.22" y="101"/><ellipse cx="116.8271" cy="116" fill="#B4A7E5" rx="10" ry="10" style="stroke:#181818;stroke-width:1.0;"/><path d="M113.8349,113.2754 L113.8349,111.752 L119.0439,111.752 L119.0439,113.2754 L117.3037,113.2754 L117.3037,118.9766 L119.0439,118.9766 L119.0439,120.5 L113.8349,120.5 L113.8349,118.9766 L115.5752,118.9766 L115.5752,113.2754 Z " fill="#CAD3F5"/><text fill="#A6DA95" font-family="Helvetica" font-size="16" font-style="italic" lengthAdjust="spacing" textLength="94.2734" x="135.7398" y="120.3203">ReaderTKind</text><rect fill="#24273A" height="14" style="stroke:#C6A0F6;stroke-width:1.0;stroke-dasharray:2.0,2.0;" width="39.3359" x="264.6204" y="98"/><text fill="#CAD3F5" font-family="Helvetica" font-size="12" font-style="italic" lengthAdjust="spacing" textLength="37.3359" x="265.6204" y="108.2402">F, R, A</text><line style="stroke:#C6A0F6;stroke-width:2.0;" x1="77.22" x2="299.9563" y1="131" y2="131"/><text fill="#A6DA95" font-family="Helvetica" font-size="12" lengthAdjust="spacing" textLength="212.7363" x="82.22" y="144.2402">// Witness: ReaderTKind.Witness&lt;F, R&gt;</text><text fill="#A6DA95" font-family="Helvetica" font-size="12" lengthAdjust="spacing" textLength="55.3652" x="82.22" y="156.2402">// Value: A</text></g><!--class ReaderTMonad--><g id="elem_ReaderTMonad"><rect codeLine="25" fill="#24273A" height="70" id="ReaderTMonad" rx="1.5" ry="1.5" style="stroke:#C6A0F6;stroke-width:2.0;" width="348.6602" x="337.25" y="511"/><rect fill="#363A4F" height="30" rx="1.5" ry="1.5" style="stroke:#363A4F;stroke-width:2.0;" width="348.6602" x="337.25" y="511"/><rect fill="#363A4F" height="1.5" style="stroke:#363A4F;stroke-width:2.0;" width="348.6602" x="337.25" y="539.5"/><rect codeLine="25" fill="none" height="70" id="ReaderTMonad" rx="1.5" ry="1.5" style="stroke:#C6A0F6;stroke-width:2.0;" width="348.6602" x="337.25" y="511"/><ellipse cx="398.6514" cy="526" fill="#ADD1B2" rx="10" ry="10" style="stroke:#181818;stroke-width:1.0;"/><path d="M400.4854,530.248 Q400.0752,530.459 399.624,530.5645 Q399.1729,530.6699 398.6748,530.6699 Q396.9053,530.6699 395.9736,529.5039 Q395.042,528.3379 395.042,526.1348 Q395.042,523.9258 395.9736,522.7598 Q396.9053,521.5938 398.6748,521.5938 Q399.1729,521.5938 399.6299,521.6992 Q400.0869,521.8047 400.4854,522.0156 L400.4854,523.9375 Q400.04,523.5273 399.6211,523.3369 Q399.2021,523.1465 398.7568,523.1465 Q397.8076,523.1465 397.3242,523.8994 Q396.8408,524.6523 396.8408,526.1348 Q396.8408,527.6113 397.3242,528.3643 Q397.8076,529.1172 398.7568,529.1172 Q399.2021,529.1172 399.6211,528.9268 Q400.04,528.7363 400.4854,528.3262 Z " fill="#CAD3F5"/><text fill="#A6DA95" font-family="Helvetica" font-size="16" lengthAdjust="spacing" textLength="111.1719" x="417.6514" y="530.3203">ReaderTMonad</text><rect fill="#24273A" height="14" style="stroke:#C6A0F6;stroke-width:1.0;stroke-dasharray:2.0,2.0;" width="104.6855" x="584.2246" y="508"/><text fill="#CAD3F5" font-family="Helvetica" font-size="12" font-style="italic" lengthAdjust="spacing" textLength="102.6855" x="585.2246" y="518.2402">F_OUTER, R_ENV</text><line style="stroke:#C6A0F6;stroke-width:2.0;" x1="338.25" x2="684.9102" y1="541" y2="541"/><rect fill="none" height="6" style="stroke:#C82930;stroke-width:1.0;" width="6" x="345.25" y="549.5"/><text fill="#A6DA95" font-family="Helvetica" font-size="12" lengthAdjust="spacing" textLength="257.6367" x="356.25" y="554.2402">final @NonNull Monad&lt;F_OUTER&gt; outerMonad</text><line style="stroke:#C6A0F6;stroke-width:2.0;" x1="338.25" x2="684.9102" y1="561" y2="561"/><ellipse cx="348.25" cy="572.5" fill="#84BE84" rx="3" ry="3" style="stroke:#038048;stroke-width:1.0;"/><text fill="#A6DA95" font-family="Helvetica" font-size="12" lengthAdjust="spacing" textLength="323.6602" x="356.25" y="574.2402">ReaderTMonad(@NonNull Monad&lt;F_OUTER&gt; outerMonad)</text></g><!--class ReaderTKindHelper--><g id="elem_ReaderTKindHelper"><rect codeLine="31" fill="#24273A" height="62" id="ReaderTKindHelper" rx="1.5" ry="1.5" style="stroke:#C6A0F6;stroke-width:2.0;" width="463.1699" x="7" y="655"/><rect fill="#363A4F" height="30" rx="1.5" ry="1.5" style="stroke:#363A4F;stroke-width:2.0;" width="463.1699" x="7" y="655"/><rect fill="#363A4F" height="1.5" style="stroke:#363A4F;stroke-width:2.0;" width="463.1699" x="7" y="683.5"/><rect codeLine="31" fill="none" height="62" id="ReaderTKindHelper" rx="1.5" ry="1.5" style="stroke:#C6A0F6;stroke-width:2.0;" width="463.1699" x="7" y="655"/><ellipse cx="163.8818" cy="670" fill="#ADD1B2" rx="10" ry="10" style="stroke:#181818;stroke-width:1.0;"/><path d="M165.7158,674.248 Q165.3057,674.459 164.8545,674.5645 Q164.4033,674.6699 163.9053,674.6699 Q162.1357,674.6699 161.2041,673.5039 Q160.2725,672.3379 160.2725,670.1348 Q160.2725,667.9258 161.2041,666.7598 Q162.1357,665.5938 163.9053,665.5938 Q164.4033,665.5938 164.8604,665.6992 Q165.3174,665.8047 165.7158,666.0156 L165.7158,667.9375 Q165.2705,667.5273 164.8516,667.3369 Q164.4326,667.1465 163.9873,667.1465 Q163.0381,667.1465 162.5547,667.8994 Q162.0713,668.6523 162.0713,670.1348 Q162.0713,671.6113 162.5547,672.3643 Q163.0381,673.1172 163.9873,673.1172 Q164.4326,673.1172 164.8516,672.9268 Q165.2705,672.7363 165.7158,672.3262 Z " fill="#CAD3F5"/><text fill="#A6DA95" font-family="Helvetica" font-size="16" lengthAdjust="spacing" textLength="141.4063" x="182.8818" y="674.3203">ReaderTKindHelper</text><line style="stroke:#C6A0F6;stroke-width:2.0;" x1="8" x2="469.1699" y1="685" y2="685"/><ellipse cx="18" cy="696.5" fill="#84BE84" rx="3" ry="3" style="stroke:#038048;stroke-width:1.0;"/><text fill="#A6DA95" font-family="Helvetica" font-size="12" lengthAdjust="spacing" textLength="438.1699" x="26" y="698.2402">static &lt;F, R, A&gt; ReaderT&lt;F, R, A&gt; narrow(Kind&lt;ReaderTKind.Witness&lt;F, R&gt;, A&gt;)</text><ellipse cx="18" cy="708.5" fill="#84BE84" rx="3" ry="3" style="stroke:#038048;stroke-width:1.0;"/><text fill="#A6DA95" font-family="Helvetica" font-size="12" lengthAdjust="spacing" textLength="432.8438" x="26" y="710.2402">static &lt;F, R, A&gt; Kind&lt;ReaderTKind.Witness&lt;F, R&gt;, A&gt; widen(ReaderT&lt;F, R, A&gt;)</text></g><!--reverse link ReaderTKind to ReaderT--><g id="link_ReaderTKind_ReaderT"><path d="M234.8575,175.3435 C253.7575,192.6435 264.89,202.83 287.56,223.58 " fill="none" id="ReaderTKind-backto-ReaderT" style="stroke:#F5BDE6;stroke-width:1.0;stroke-dasharray:7.0,7.0;"/><polygon fill="none" points="221.58,163.19,230.8064,179.7693,238.9087,170.9177,221.58,163.19" style="stroke:#F5BDE6;stroke-width:1.0;"/></g><!--reverse link Kind to ReaderTKind--><g id="link_Kind_ReaderTKind"><path d="M248.4486,54.3446 C236.3786,69.7946 227.79,80.8 212.22,100.74 " fill="none" id="Kind-backto-ReaderTKind" style="stroke:#F5BDE6;stroke-width:1.0;"/><polygon fill="none" points="259.53,40.16,243.7204,50.6508,253.1768,58.0384,259.53,40.16" style="stroke:#F5BDE6;stroke-width:1.0;"/></g><!--reverse link Monad to ReaderTMonad--><g id="link_Monad_ReaderTMonad"><path d="M533.7953,452.7746 C522.6953,470.7046 519.4,486.52 512.58,510.69 " fill="none" id="Monad-backto-ReaderTMonad" style="stroke:#F5BDE6;stroke-width:1.0;stroke-dasharray:7.0,7.0;"/><polygon fill="none" points="543.27,437.47,528.6938,449.6164,538.8969,455.9328,543.27,437.47" style="stroke:#F5BDE6;stroke-width:1.0;"/></g><!--reverse link ReaderTMonad to Monad--><g id="link_ReaderTMonad_Monad"><path codeLine="40" d="M541.5791,499.8367 C552.9791,475.6667 558.57,455.4 560.98,437.47 " fill="none" id="ReaderTMonad-backto-Monad" style="stroke:#F5BDE6;stroke-width:1.0;"/><polygon fill="#F5BDE6" points="536.46,510.69,542.6373,506.9697,541.5791,499.8367,535.4018,503.557,536.46,510.69" style="stroke:#F5BDE6;stroke-width:1.0;"/><text fill="#CAD3F5" font-family="Helvetica" font-size="12" lengthAdjust="spacing" textLength="182.0801" x="347.7857" y="454.3589">outerMonad (Monad&lt;F_OUTER&gt;)</text></g><!--link ReaderTMonad to ReaderTKindHelper--><g id="link_ReaderTMonad_ReaderTKindHelper"><path codeLine="41" d="M443.4,581.47 C398.86,603.98 346.6047,630.3932 303.8347,652.0132 " fill="none" id="ReaderTMonad-to-ReaderTKindHelper" style="stroke:#F5BDE6;stroke-width:1.0;stroke-dasharray:7.0,7.0;"/><polygon fill="#F5BDE6" points="298.48,654.72,308.3166,654.2296,302.9423,652.4643,304.7076,647.09,298.48,654.72" style="stroke:#F5BDE6;stroke-width:1.0;"/><text fill="#CAD3F5" font-family="Helvetica" font-size="12" lengthAdjust="spacing" textLength="25.3477" x="384.27" y="621.2402">uses</text></g><!--link ReaderTMonad to ReaderT--><g id="link_ReaderTMonad_ReaderT"><path codeLine="42" d="M441.99,510.71 C413.34,492.85 382.87,468.15 365.58,437 C350.46,409.75 346.6874,381.3694 347.0874,352.3094 " fill="none" id="ReaderTMonad-to-ReaderT" style="stroke:#F5BDE6;stroke-width:1.0;stroke-dasharray:7.0,7.0;"/><polygon fill="#F5BDE6" points="347.17,346.31,343.0465,355.2541,347.1012,351.3095,351.0458,355.3642,347.17,346.31" style="stroke:#F5BDE6;stroke-width:1.0;"/><text fill="#CAD3F5" font-family="Helvetica" font-size="12" lengthAdjust="spacing" textLength="112.7344" x="366.58" y="425.2402">creates / operates on</text></g><!--link ReaderTKindHelper to ReaderT--><g id="link_ReaderTKindHelper_ReaderT"><path codeLine="44" d="M245.46,654.84 C255.25,612.6 274.2,533.52 293.58,467 C305.4,426.48 318.3836,387.0955 330.3936,352.0755 " fill="none" id="ReaderTKindHelper-to-ReaderT" style="stroke:#F5BDE6;stroke-width:1.0;stroke-dasharray:7.0,7.0;"/><polygon fill="#F5BDE6" points="332.34,346.4,325.6367,353.6157,330.718,351.1296,333.2041,356.2109,332.34,346.4" style="stroke:#F5BDE6;stroke-width:1.0;"/><text fill="#CAD3F5" font-family="Helvetica" font-size="12" lengthAdjust="spacing" textLength="85.3535" x="294.58" y="477.2402">narrow() returns</text></g><!--link ReaderTKindHelper to ReaderTKind--><g id="link_ReaderTKindHelper_ReaderTKind"><path codeLine="45" d="M177.59,654.6 C139.86,631.05 98.58,594.44 98.58,547 C98.58,284 98.58,284 98.58,284 C98.58,237 127.1073,196.3336 153.0673,167.8636 " fill="none" id="ReaderTKindHelper-to-ReaderTKind" style="stroke:#F5BDE6;stroke-width:1.0;stroke-dasharray:7.0,7.0;"/><polygon fill="#F5BDE6" points="157.11,163.43,148.0902,167.3852,153.7411,167.1246,154.0017,172.7755,157.11,163.43" style="stroke:#F5BDE6;stroke-width:1.0;"/><text fill="#CAD3F5" font-family="Helvetica" font-size="12" lengthAdjust="spacing" textLength="80.0273" x="99.58" y="425.2402">widen() returns</text></g><!--link ReaderT to Kind--><g id="link_ReaderT_Kind"><path codeLine="48" d="M347.92,223.87 C343.07,187.36 334.27,140.36 318.58,101 C309.49,78.17 296.8147,59.5261 285.7647,45.0761 " fill="none" id="ReaderT-to-Kind" style="stroke:#F5BDE6;stroke-width:1.0;stroke-dasharray:7.0,7.0;"/><polygon fill="#F5BDE6" points="282.12,40.31,284.4096,49.889,285.1573,44.2818,290.7645,45.0294,282.12,40.31" style="stroke:#F5BDE6;stroke-width:1.0;"/><text fill="#CAD3F5" font-family="Helvetica" font-size="12" lengthAdjust="spacing" textLength="126.0527" x="137.7942" y="57.1419">run() returns Kind&lt;F,A&gt;</text></g><!--link ReaderT to Monad--><g id="link_ReaderT_Monad"><path codeLine="49" d="M444.84,346.39 C478.58,368.72 508.8968,388.7781 530.8168,403.2881 " fill="none" id="ReaderT-to-Monad" style="stroke:#F5BDE6;stroke-width:1.0;stroke-dasharray:7.0,7.0;"/><polygon fill="#F5BDE6" points="535.82,406.6,530.5232,398.2968,531.6507,403.8401,526.1074,404.9677,535.82,406.6" style="stroke:#F5BDE6;stroke-width:1.0;"/><text fill="#CAD3F5" font-family="Helvetica" font-size="12" lengthAdjust="spacing" textLength="147.4102" x="354.9557" y="396.2165">factories require Monad&lt;F&gt;</text></g><!--SRC=[ZLHBZzem4BxpAwPS6bgIt16Aoc7HIjjbfHNT7f7NE8rLnqxjiMYrsl_UoOiu50evH7vyyytucyS7gRdoUm45OkKMQMhP8VaXiV2ltWdBZKQXCU6cJ3Kt3baiUSePLfNdNEguP9mNag69AyKq-bB5M8XIf2MJEcsMIKMdaqaXoOieA_m3fIXVXNMJYIHscpCku47g_NAzkt_Opc6rUrbzpOBBHwDPTvjDw0FWYZa7puBjXTqkrtDu9hCCbaihkB7xB0DPLegSQpp2MXSzz8rO03x3butH6wyKhBtcA8rUqdqFNH6HzRg1nZ6i6KTZfN2qwSn94PGS1jv_OZ9vT85wTZE7aZb6dGfPo74xXMqE0f8mgFD4fonqmDpF8qLjybudOqZKMQN5RogXlMkZ3X39TubQEDVw2fAIfj1TBU0YlaU-CEN50bPzCAFAw0ldwTlshdx0xcxpCYgD5d3MoTYeZos6N6gcXh8PkQ1iUzAYEUi43IE9hbkrUVW8JzGwjeLHks1XIC38v7CeMJM7N35yh1UicfrzUFsKUw4gudZh6BjjHtPptMXchJb4rvDtiHHloFk1PeEEJdtFcbP_R_wXZF29Ud4wQ0RHMCxP5FeCZCoI93kZpm9eqBd_O0d1gNkGsZu5GoRDqkWWh81kRDYfDwFsGs-rksPIdv9PgyTW5RXgq5CQIiDrFmzMsRHPdeBpuzYoufUNzZXGirue-lu2]--></g></svg>