<svg xmlns="http://www.w3.org/2000/svg" xmlns:xlink="http://www.w3.org/1999/xlink" contentStyleType="text/css" data-diagram-type="CLASS" height="525px" preserveAspectRatio="none" style="width:1285px;height:525px;background:#24273A;" version="1.1" viewBox="0 0 1285 525" width="1285px" zoomAndPan="magnify"><defs/><g><rect fill="#24273A" height="525" style="stroke:none;stroke-width:1;" width="1285" x="0" y="0"/><!--cluster HKT_Integration--><g class="cluster" data-entity="HKT_Integration" data-source-line="44" data-uid="ent0007" id="cluster_HKT_Integration"><path d="M706.25,12.94 L818.9023,12.94 A2.25,2.25 0 0 1 820.4023,14.44 L827.4023,32.9087 L1277.25,32.9087 A1.5,1.5 0 0 1 1278.75,34.4087 L1278.75,517.41 A1.5,1.5 0 0 1 1277.25,518.91 L706.25,518.91 A1.5,1.5 0 0 1 704.75,517.41 L704.75,14.44 A1.5,1.5 0 0 1 706.25,12.94" fill="#24273A" style="stroke:#CAD3F5;stroke-width:1;"/><line style="stroke:#CAD3F5;stroke-width:1;" x1="704.75" x2="827.4023" y1="32.9087" y2="32.9087"/><text fill="#CAD3F5" font-family="Helvetica" font-size="12" font-weight="bold" lengthAdjust="spacing" textLength="109.6523" x="708.75" y="26.0787">HKT_Integration</text></g><!--cluster org--><g class="cluster" data-entity="org" data-source-line="59" data-uid="ent0012" id="cluster_org"><path d="M1064.25,274.28 L1090.002,274.28 A2.25,2.25 0 0 1 1091.502,275.78 L1098.502,294.2488 L1253.25,294.2488 A1.5,1.5 0 0 1 1254.75,295.7488 L1254.75,493.41 A1.5,1.5 0 0 1 1253.25,494.91 L1064.25,494.91 A1.5,1.5 0 0 1 1062.75,493.41 L1062.75,275.78 A1.5,1.5 0 0 1 1064.25,274.28" fill="#24273A" style="stroke:#CAD3F5;stroke-width:1;"/><line style="stroke:#CAD3F5;stroke-width:1;" x1="1062.75" x2="1098.502" y1="294.2488" y2="294.2488"/><text fill="#CAD3F5" font-family="Helvetica" font-size="12" font-weight="bold" lengthAdjust="spacing" textLength="22.752" x="1066.75" y="287.4187">org</text></g><!--cluster higherkindedj--><g class="cluster" data-entity="higherkindedj" data-source-line="59" data-uid="ent0013" id="cluster_simulation"><path d="M1088.25,314.28 L1162.4004,314.28 A2.25,2.25 0 0 1 1163.9004,315.78 L1170.9004,334.2488 L1229.25,334.2488 A1.5,1.5 0 0 1 1230.75,335.7488 L1230.75,469.41 A1.5,1.5 0 0 1 1229.25,470.91 L1088.25,470.91 A1.5,1.5 0 0 1 1086.75,469.41 L1086.75,315.78 A1.5,1.5 0 0 1 1088.25,314.28" fill="#24273A" style="stroke:#CAD3F5;stroke-width:1;"/><line style="stroke:#CAD3F5;stroke-width:1;" x1="1086.75" x2="1170.9004" y1="334.2488" y2="334.2488"/><text fill="#CAD3F5" font-family="Helvetica" font-size="12" font-weight="bold" lengthAdjust="spacing" textLength="71.1504" x="1090.75" y="327.4187">simulation</text></g><!--cluster hkt--><g class="cluster" data-entity="hkt" data-source-line="59" data-uid="ent0014" id="cluster_hkt"><path d="M1112.25,354.28 L1137.5098,354.28 A2.25,2.25 0 0 1 1139.0098,355.78 L1146.0098,374.2488 L1205.25,374.2488 A1.5,1.5 0 0 1 1206.75,375.7488 L1206.75,445.41 A1.5,1.5 0 0 1 1205.25,446.91 L1112.25,446.91 A1.5,1.5 0 0 1 1110.75,445.41 L1110.75,355.78 A1.5,1.5 0 0 1 1112.25,354.28" fill="#24273A" style="stroke:#CAD3F5;stroke-width:1;"/><line style="stroke:#CAD3F5;stroke-width:1;" x1="1110.75" x2="1146.0098" y1="374.2488" y2="374.2488"/><text fill="#CAD3F5" font-family="Helvetica" font-size="12" font-weight="bold" lengthAdjust="spacing" textLength="22.2598" x="1114.75" y="367.4187">hkt</text></g><!--class EitherKind--><g class="entity" data-entity="EitherKind" data-source-line="45" data-uid="ent0008" id="entity_EitherKind"><rect fill="#24273A" height="44.625" rx="1.5" ry="1.5" style="stroke:#C6A0F6;stroke-width:2;" width="137.2773" x="1090.11" y="91.83"/><rect fill="#363A4F" height="28.625" rx="1.5" ry="1.5" style="stroke:#363A4F;stroke-width:2;" width="137.2773" x="1090.11" y="91.83"/><rect fill="#363A4F" height="1.5" style="stroke:#363A4F;stroke-width:2;" width="137.2773" x="1090.11" y="118.955"/><rect fill="none" height="44.625" rx="1.5" ry="1.5" style="stroke:#C6A0F6;stroke-width:2;" width="137.2773" x="1090.11" y="91.83"/><ellipse cx="1103.11" cy="106.1425" fill="#FFFFFF" rx="9" ry="9" style="stroke:#000000;stroke-width:1;"/><path d="M1100.1256,103.4237 L1100.1256,101.8925 L1105.3288,101.8925 L1105.3288,103.4237 L1103.5944,103.4237 L1103.5944,109.1112 L1105.3288,109.1112 L1105.3288,110.6425 L1100.1256,110.6425 L1100.1256,109.1112 L1101.86,109.1112 L1101.86,103.4237 L1100.1256,103.4237 Z " fill="#CAD3F5"/><text fill="#A6DA95" font-family="Helvetica" font-size="16" font-style="italic" lengthAdjust="spacing" textLength="82.625" x="1115.11" y="111.6816">EitherKind</text><rect fill="#24273A" height="15.9688" style="stroke:#C6A0F6;stroke-width:1;stroke-dasharray:2.0,2.0;" width="24.6523" x="1205.735" y="88.83"/><text fill="#000000" font-family="Verdana" font-size="12" font-style="italic" lengthAdjust="spacing" textLength="22.6523" x="1206.735" y="100.9687">L, R</text><line style="stroke:#C6A0F6;stroke-width:2;" x1="1091.11" x2="1226.3873" y1="120.455" y2="120.455"/><line style="stroke:#C6A0F6;stroke-width:2;" x1="1091.11" x2="1226.3873" y1="128.455" y2="128.455"/></g><!--class Helper--><g class="entity" data-entity="Helper" data-source-line="46" data-uid="ent0009" id="entity_Helper"><rect fill="#24273A" height="72.5625" rx="1.5" ry="1.5" style="stroke:#C6A0F6;stroke-width:2;" width="325.9043" x="720.8" y="372.32"/><rect fill="#363A4F" height="28.625" rx="1.5" ry="1.5" style="stroke:#363A4F;stroke-width:2;" width="325.9043" x="720.8" y="372.32"/><rect fill="#363A4F" height="1.5" style="stroke:#363A4F;stroke-width:2;" width="325.9043" x="720.8" y="399.445"/><rect fill="none" height="72.5625" rx="1.5" ry="1.5" style="stroke:#C6A0F6;stroke-width:2;" width="325.9043" x="720.8" y="372.32"/><ellipse cx="812.2404" cy="386.6325" fill="#FFFFFF" rx="9" ry="9" style="stroke:#000000;stroke-width:1;"/><path d="M814.0686,390.8825 Q813.6623,391.0856 813.2092,391.195 Q812.7561,391.3044 812.2717,391.3044 Q810.4904,391.3044 809.5529,390.1481 Q808.6311,388.9762 808.6311,386.7731 Q808.6311,384.5544 809.5529,383.3981 Q810.4904,382.2262 812.2717,382.2262 Q812.7561,382.2262 813.2092,382.3356 Q813.6779,382.4294 814.0686,382.6481 L814.0686,384.57 Q813.6311,384.1637 813.2092,383.9762 Q812.7873,383.7731 812.3498,383.7731 Q811.3967,383.7731 810.9123,384.5387 Q810.4279,385.2887 810.4279,386.7731 Q810.4279,388.2419 810.9123,388.9919 Q811.3967,389.7419 812.3498,389.7419 Q812.7873,389.7419 813.2092,389.5544 Q813.6311,389.3669 814.0686,388.9606 L814.0686,390.8825 Z " fill="#CAD3F5"/><text fill="#A6DA95" font-family="Helvetica" font-size="16" lengthAdjust="spacing" textLength="135.5234" x="829.7404" y="392.1716">EitherKindHelper</text><line style="stroke:#C6A0F6;stroke-width:2;" x1="721.8" x2="1045.7043" y1="400.945" y2="400.945"/><line style="stroke:#C6A0F6;stroke-width:2;" x1="721.8" x2="1045.7043" y1="408.945" y2="408.945"/><ellipse cx="731.8" cy="421.4294" fill="#FFFFFF" rx="3" ry="3" style="stroke:#000000;stroke-width:1;"/><text fill="#A6DA95" font-family="Helvetica" font-size="12" lengthAdjust="spacing" text-decoration="underline" textLength="286.6934" x="738.8" y="424.0837">wrap(Either&lt;L,R&gt;) : Kind&lt;EitherKind&lt;L,?&gt;, R&gt;</text><ellipse cx="731.8" cy="435.3981" fill="#FFFFFF" rx="3" ry="3" style="stroke:#000000;stroke-width:1;"/><text fill="#A6DA95" font-family="Helvetica" font-size="12" lengthAdjust="spacing" text-decoration="underline" textLength="301.9043" x="738.8" y="438.0524">unwrap(Kind&lt;EitherKind&lt;L,?&gt;, R&gt;) : Either&lt;L,R&gt;</text></g><!--class Monad--><g class="entity" data-entity="Monad" data-source-line="50" data-uid="ent0010" id="entity_Monad"><rect fill="#24273A" height="138.4063" rx="1.5" ry="1.5" style="stroke:#C6A0F6;stroke-width:2;" width="286.3789" x="740.56" y="44.94"/><rect fill="#363A4F" height="28.625" rx="1.5" ry="1.5" style="stroke:#363A4F;stroke-width:2;" width="286.3789" x="740.56" y="44.94"/><rect fill="#363A4F" height="1.5" style="stroke:#363A4F;stroke-width:2;" width="286.3789" x="740.56" y="72.065"/><rect fill="none" height="138.4063" rx="1.5" ry="1.5" style="stroke:#C6A0F6;stroke-width:2;" width="286.3789" x="740.56" y="44.94"/><ellipse cx="824.1137" cy="59.2525" fill="#FFFFFF" rx="9" ry="9" style="stroke:#000000;stroke-width:1;"/><path d="M825.9418,63.5025 Q825.5356,63.7056 825.0825,63.815 Q824.6293,63.9244 824.145,63.9244 Q822.3637,63.9244 821.4262,62.7681 Q820.5043,61.5962 820.5043,59.3931 Q820.5043,57.1744 821.4262,56.0181 Q822.3637,54.8462 824.145,54.8462 Q824.6293,54.8462 825.0825,54.9556 Q825.5512,55.0494 825.9418,55.2681 L825.9418,57.19 Q825.5043,56.7837 825.0825,56.5962 Q824.6606,56.3931 824.2231,56.3931 Q823.27,56.3931 822.7856,57.1587 Q822.3012,57.9087 822.3012,59.3931 Q822.3012,60.8619 822.7856,61.6119 Q823.27,62.3619 824.2231,62.3619 Q824.6606,62.3619 825.0825,62.1744 Q825.5043,61.9869 825.9418,61.5806 L825.9418,63.5025 Z " fill="#CAD3F5"/><text fill="#A6DA95" font-family="Helvetica" font-size="16" lengthAdjust="spacing" textLength="101.0859" x="841.6137" y="64.7916">EitherMonad</text><rect fill="#24273A" height="15.9688" style="stroke:#C6A0F6;stroke-width:1;stroke-dasharray:2.0,2.0;" width="8.6855" x="1021.2534" y="41.94"/><text fill="#000000" font-family="Verdana" font-size="12" font-style="italic" lengthAdjust="spacing" textLength="6.6855" x="1022.2534" y="54.0787">L</text><line style="stroke:#C6A0F6;stroke-width:2;" x1="741.56" x2="1025.9389" y1="73.565" y2="73.565"/><ellipse cx="751.56" cy="104.0181" fill="#FFFFFF" rx="3" ry="3" style="stroke:#000000;stroke-width:1;"/><text fill="#A6DA95" font-family="Helvetica" font-size="12" lengthAdjust="spacing" textLength="117.1172" x="758.56" y="106.6724">map(...) : Kind&lt;...&gt;</text><ellipse cx="751.56" cy="117.9869" fill="#FFFFFF" rx="3" ry="3" style="stroke:#000000;stroke-width:1;"/><text fill="#A6DA95" font-family="Helvetica" font-size="12" lengthAdjust="spacing" textLength="135.3984" x="758.56" y="120.6412">flatMap(...) : Kind&lt;...&gt;</text><ellipse cx="751.56" cy="131.9556" fill="#FFFFFF" rx="3" ry="3" style="stroke:#000000;stroke-width:1;"/><text fill="#A6DA95" font-family="Helvetica" font-size="12" lengthAdjust="spacing" textLength="105.4277" x="758.56" y="134.6099">ap(...) : Kind&lt;...&gt;</text><ellipse cx="751.56" cy="145.9244" fill="#FFFFFF" rx="3" ry="3" style="stroke:#000000;stroke-width:1;"/><text fill="#A6DA95" font-family="Helvetica" font-size="12" lengthAdjust="spacing" textLength="98.918" x="758.56" y="148.5787">of(R) : Kind&lt;...&gt;</text><ellipse cx="751.56" cy="159.8931" fill="#FFFFFF" rx="3" ry="3" style="stroke:#000000;stroke-width:1;"/><text fill="#A6DA95" font-family="Helvetica" font-size="12" lengthAdjust="spacing" textLength="144.6797" x="758.56" y="162.5474">raiseError(L) : Kind&lt;...&gt;</text><ellipse cx="751.56" cy="173.8619" fill="#FFFFFF" rx="3" ry="3" style="stroke:#000000;stroke-width:1;"/><text fill="#A6DA95" font-family="Helvetica" font-size="12" lengthAdjust="spacing" textLength="188.5898" x="758.56" y="176.5162">handleErrorWith(...) : Kind&lt;...&gt;</text><line style="stroke:#C6A0F6;stroke-width:2;" x1="741.56" x2="744.56" y1="88.5494" y2="88.5494"/><text fill="#A6DA95" font-family="Helvetica" font-size="12" lengthAdjust="spacing" textLength="278.3789" x="744.56" y="92.2037">Implements MonadError&lt;EitherKind&lt;L,?&gt;, L&gt;</text><line style="stroke:#C6A0F6;stroke-width:2;" x1="1022.9389" x2="1025.9389" y1="88.5494" y2="88.5494"/></g><!--class Kind--><g class="entity" data-entity="Kind" data-source-line="59" data-uid="ent0011" id="entity_Kind"><rect fill="#24273A" height="44.625" rx="1.5" ry="1.5" style="stroke:#C6A0F6;stroke-width:2;" width="63.2344" x="1127.13" y="386.28"/><rect fill="#363A4F" height="28.625" rx="1.5" ry="1.5" style="stroke:#363A4F;stroke-width:2;" width="63.2344" x="1127.13" y="386.28"/><rect fill="#363A4F" height="1.5" style="stroke:#363A4F;stroke-width:2;" width="63.2344" x="1127.13" y="413.405"/><rect fill="none" height="44.625" rx="1.5" ry="1.5" style="stroke:#C6A0F6;stroke-width:2;" width="63.2344" x="1127.13" y="386.28"/><ellipse cx="1140.13" cy="400.5925" fill="#FFFFFF" rx="9" ry="9" style="stroke:#000000;stroke-width:1;"/><path d="M1141.9581,404.8425 Q1141.5519,405.0456 1141.0988,405.155 Q1140.6456,405.2644 1140.1613,405.2644 Q1138.38,405.2644 1137.4425,404.1081 Q1136.5206,402.9363 1136.5206,400.7331 Q1136.5206,398.5144 1137.4425,397.3581 Q1138.38,396.1863 1140.1613,396.1863 Q1140.6456,396.1863 1141.0988,396.2956 Q1141.5675,396.3894 1141.9581,396.6081 L1141.9581,398.53 Q1141.5206,398.1238 1141.0988,397.9363 Q1140.6769,397.7331 1140.2394,397.7331 Q1139.2863,397.7331 1138.8019,398.4988 Q1138.3175,399.2488 1138.3175,400.7331 Q1138.3175,402.2019 1138.8019,402.9519 Q1139.2863,403.7019 1140.2394,403.7019 Q1140.6769,403.7019 1141.0988,403.5144 Q1141.5206,403.3269 1141.9581,402.9206 L1141.9581,404.8425 Z " fill="#CAD3F5"/><text fill="#A6DA95" font-family="Helvetica" font-size="16" lengthAdjust="spacing" textLength="35.2344" x="1152.13" y="406.1316">Kind</text><line style="stroke:#C6A0F6;stroke-width:2;" x1="1128.13" x2="1189.3644" y1="414.905" y2="414.905"/><line style="stroke:#C6A0F6;stroke-width:2;" x1="1128.13" x2="1189.3644" y1="422.905" y2="422.905"/></g><!--class Either--><g class="entity" data-entity="Either" data-source-line="4" data-uid="ent0002" id="entity_Either"><rect fill="#24273A" height="198.2813" rx="1.5" ry="1.5" style="stroke:#C6A0F6;stroke-width:2;" width="521.5078" x="167" y="15"/><rect fill="#363A4F" height="28.625" rx="1.5" ry="1.5" style="stroke:#363A4F;stroke-width:2;" width="521.5078" x="167" y="15"/><rect fill="#363A4F" height="1.5" style="stroke:#363A4F;stroke-width:2;" width="521.5078" x="167" y="42.125"/><rect fill="none" height="198.2813" rx="1.5" ry="1.5" style="stroke:#C6A0F6;stroke-width:2;" width="521.5078" x="167" y="15"/><ellipse cx="386.9824" cy="29.3125" fill="#FFFFFF" rx="9" ry="9" style="stroke:#000000;stroke-width:1;"/><path d="M383.998,26.5938 L383.998,25.0625 L389.2012,25.0625 L389.2012,26.5938 L387.4668,26.5938 L387.4668,32.2813 L389.2012,32.2813 L389.2012,33.8125 L383.998,33.8125 L383.998,32.2813 L385.7324,32.2813 L385.7324,26.5938 L383.998,26.5938 Z " fill="#CAD3F5"/><text fill="#A6DA95" font-family="Helvetica" font-size="16" font-style="italic" lengthAdjust="spacing" textLength="47.3906" x="404.4824" y="34.8516">Either</text><rect fill="#24273A" height="15.9688" style="stroke:#C6A0F6;stroke-width:1;stroke-dasharray:2.0,2.0;" width="24.6523" x="666.8555" y="12"/><text fill="#000000" font-family="Verdana" font-size="12" font-style="italic" lengthAdjust="spacing" textLength="22.6523" x="667.8555" y="24.1387">L, R</text><line style="stroke:#C6A0F6;stroke-width:2;" x1="168" x2="687.5078" y1="43.625" y2="43.625"/><line style="stroke:#C6A0F6;stroke-width:2;" x1="168" x2="687.5078" y1="51.625" y2="51.625"/><ellipse cx="178" cy="64.1094" fill="#FFFFFF" rx="3" ry="3" style="stroke:#000000;stroke-width:1;"/><text fill="#A6DA95" font-family="Helvetica" font-size="12" font-style="italic" lengthAdjust="spacing" textLength="101.5957" x="185" y="66.7637">isLeft() : boolean</text><ellipse cx="178" cy="78.0781" fill="#FFFFFF" rx="3" ry="3" style="stroke:#000000;stroke-width:1;"/><text fill="#A6DA95" font-family="Helvetica" font-size="12" font-style="italic" lengthAdjust="spacing" textLength="110.1973" x="185" y="80.7324">isRight() : boolean</text><ellipse cx="178" cy="92.0469" fill="#FFFFFF" rx="3" ry="3" style="stroke:#000000;stroke-width:1;"/><text fill="#A6DA95" font-family="Helvetica" font-size="12" font-style="italic" lengthAdjust="spacing" textLength="70.4238" x="185" y="94.7012">getLeft() : L</text><ellipse cx="178" cy="106.0156" fill="#FFFFFF" rx="3" ry="3" style="stroke:#000000;stroke-width:1;"/><text fill="#A6DA95" font-family="Helvetica" font-size="12" font-style="italic" lengthAdjust="spacing" textLength="80.6777" x="185" y="108.6699">getRight() : R</text><ellipse cx="178" cy="119.9844" fill="#FFFFFF" rx="3" ry="3" style="stroke:#000000;stroke-width:1;"/><text fill="#A6DA95" font-family="Helvetica" font-size="12" lengthAdjust="spacing" textLength="466.7344" x="185" y="122.6387">fold(Function&lt;? super L, ? extends T&gt;, Function&lt;? super R, ? extends T&gt;) : T</text><ellipse cx="178" cy="133.9531" fill="#FFFFFF" rx="3" ry="3" style="stroke:#000000;stroke-width:1;"/><text fill="#A6DA95" font-family="Helvetica" font-size="12" lengthAdjust="spacing" textLength="347.2148" x="185" y="136.6074">map(Function&lt;? super R, ? extends R2&gt;) : Either&lt;L, R2&gt;</text><ellipse cx="178" cy="147.9219" fill="#FFFFFF" rx="3" ry="3" style="stroke:#000000;stroke-width:1;"/><text fill="#A6DA95" font-family="Helvetica" font-size="12" lengthAdjust="spacing" textLength="497.5078" x="185" y="150.5762">flatMap(Function&lt;? super R, ? extends Either&lt;L, ? extends R2&gt;&gt;) : Either&lt;L, R2&gt;</text><ellipse cx="178" cy="161.8906" fill="#FFFFFF" rx="3" ry="3" style="stroke:#000000;stroke-width:1;"/><text fill="#A6DA95" font-family="Helvetica" font-size="12" lengthAdjust="spacing" textLength="212.7598" x="185" y="164.5449">ifLeft(Consumer&lt;? super L&gt;) : void</text><ellipse cx="178" cy="175.8594" fill="#FFFFFF" rx="3" ry="3" style="stroke:#000000;stroke-width:1;"/><text fill="#A6DA95" font-family="Helvetica" font-size="12" lengthAdjust="spacing" textLength="223.0137" x="185" y="178.5137">ifRight(Consumer&lt;? super R&gt;) : void</text><ellipse cx="178" cy="189.8281" fill="#FFFFFF" rx="3" ry="3" style="stroke:#000000;stroke-width:1;"/><text fill="#A6DA95" font-family="Helvetica" font-size="12" lengthAdjust="spacing" text-decoration="underline" textLength="125.6719" x="185" y="192.4824">left(L) : Either&lt;L, R&gt;</text><ellipse cx="178" cy="203.7969" fill="#FFFFFF" rx="3" ry="3" style="stroke:#000000;stroke-width:1;"/><text fill="#A6DA95" font-family="Helvetica" font-size="12" lengthAdjust="spacing" text-decoration="underline" textLength="135.873" x="185" y="206.4512">right(R) : Either&lt;L, R&gt;</text></g><!--class Left<L, R>--><g class="entity" data-entity="Left&lt;L, R&gt;" data-source-line="18" data-uid="ent0003" id="entity_Left&lt;L, R&gt;"><rect fill="#24273A" height="194.2813" rx="1.5" ry="1.5" style="stroke:#C6A0F6;stroke-width:2;" width="295.5" x="12" y="311.46"/><rect fill="#363A4F" height="42.5938" rx="1.5" ry="1.5" style="stroke:#363A4F;stroke-width:2;" width="295.5" x="12" y="311.46"/><rect fill="#363A4F" height="1.5" style="stroke:#363A4F;stroke-width:2;" width="295.5" x="12" y="352.5538"/><rect fill="none" height="194.2813" rx="1.5" ry="1.5" style="stroke:#C6A0F6;stroke-width:2;" width="295.5" x="12" y="311.46"/><ellipse cx="112.1602" cy="332.7569" fill="#FFFFFF" rx="9" ry="9" style="stroke:#000000;stroke-width:1;"/><path d="M113.9883,337.0069 Q113.582,337.21 113.1289,337.3194 Q112.6758,337.4288 112.1914,337.4288 Q110.4102,337.4288 109.4727,336.2725 Q108.5508,335.1006 108.5508,332.8975 Q108.5508,330.6788 109.4727,329.5225 Q110.4102,328.3506 112.1914,328.3506 Q112.6758,328.3506 113.1289,328.46 Q113.5977,328.5538 113.9883,328.7725 L113.9883,330.6944 Q113.5508,330.2881 113.1289,330.1006 Q112.707,329.8975 112.2695,329.8975 Q111.3164,329.8975 110.832,330.6631 Q110.3477,331.4131 110.3477,332.8975 Q110.3477,334.3663 110.832,335.1163 Q111.3164,335.8663 112.2695,335.8663 Q112.707,335.8663 113.1289,335.6788 Q113.5508,335.4913 113.9883,335.085 L113.9883,337.0069 Z " fill="#CAD3F5"/><text fill="#000000" font-family="Verdana" font-size="12" font-style="italic" lengthAdjust="spacing" textLength="53.4902" x="146.7549" y="327.5987">&#171;record&#187;</text><text fill="#A6DA95" font-family="Helvetica" font-size="16" lengthAdjust="spacing" textLength="87.6797" x="129.6602" y="345.2803">Left&lt;L, R&gt;</text><line style="stroke:#C6A0F6;stroke-width:2;" x1="13" x2="306.5" y1="354.0538" y2="354.0538"/><ellipse cx="23" cy="366.5381" fill="#FFFFFF" rx="3" ry="3" style="stroke:#000000;stroke-width:1;"/><text fill="#A6DA95" font-family="Helvetica" font-size="12" lengthAdjust="spacing" textLength="75.6387" x="30" y="369.1924">Left(L value)</text><ellipse cx="23" cy="398.4756" fill="#FFFFFF" rx="3" ry="3" style="stroke:#000000;stroke-width:1;"/><text fill="#A6DA95" font-family="Helvetica" font-size="12" lengthAdjust="spacing" textLength="78.2461" x="30" y="401.1299">isLeft() : true</text><ellipse cx="23" cy="412.4444" fill="#FFFFFF" rx="3" ry="3" style="stroke:#000000;stroke-width:1;"/><text fill="#A6DA95" font-family="Helvetica" font-size="12" lengthAdjust="spacing" textLength="90.7676" x="30" y="415.0987">isRight() : false</text><ellipse cx="23" cy="426.4131" fill="#FFFFFF" rx="3" ry="3" style="stroke:#000000;stroke-width:1;"/><text fill="#A6DA95" font-family="Helvetica" font-size="12" lengthAdjust="spacing" textLength="70.4238" x="30" y="429.0674">getLeft() : L</text><ellipse cx="23" cy="440.3819" fill="#FFFFFF" rx="3" ry="3" style="stroke:#000000;stroke-width:1;"/><text fill="#A6DA95" font-family="Helvetica" font-size="12" lengthAdjust="spacing" textLength="271.5" x="30" y="443.0362">getRight() : throws NoSuchElementException</text><ellipse cx="23" cy="454.3506" fill="#FFFFFF" rx="3" ry="3" style="stroke:#000000;stroke-width:1;"/><text fill="#A6DA95" font-family="Helvetica" font-size="12" lengthAdjust="spacing" textLength="212.7598" x="30" y="457.0049">ifLeft(Consumer&lt;? super L&gt;) : void</text><ellipse cx="23" cy="468.3194" fill="#FFFFFF" rx="3" ry="3" style="stroke:#000000;stroke-width:1;"/><text fill="#A6DA95" font-family="Helvetica" font-size="12" lengthAdjust="spacing" textLength="223.0137" x="30" y="470.9737">ifRight(Consumer&lt;? super R&gt;) : void</text><ellipse cx="23" cy="482.2881" fill="#FFFFFF" rx="3" ry="3" style="stroke:#000000;stroke-width:1;"/><text fill="#A6DA95" font-family="Helvetica" font-size="12" lengthAdjust="spacing" textLength="132.5332" x="30" y="484.9424">map(...) : Left&lt;L, R2&gt;</text><ellipse cx="23" cy="496.2569" fill="#FFFFFF" rx="3" ry="3" style="stroke:#000000;stroke-width:1;"/><text fill="#A6DA95" font-family="Helvetica" font-size="12" lengthAdjust="spacing" textLength="150.8145" x="30" y="498.9112">flatMap(...) : Left&lt;L, R2&gt;</text><line style="stroke:#C6A0F6;stroke-width:2;" x1="13" x2="134.1211" y1="383.0069" y2="383.0069"/><text fill="#A6DA95" font-family="Helvetica" font-size="12" lengthAdjust="spacing" textLength="51.2578" x="134.1211" y="386.6612">Methods</text><line style="stroke:#C6A0F6;stroke-width:2;" x1="185.3789" x2="306.5" y1="383.0069" y2="383.0069"/></g><!--class Right<L, R>--><g class="entity" data-entity="Right&lt;L, R&gt;" data-source-line="31" data-uid="ent0005" id="entity_Right&lt;L, R&gt;"><rect fill="#24273A" height="194.2813" rx="1.5" ry="1.5" style="stroke:#C6A0F6;stroke-width:2;" width="286.8984" x="342.3" y="311.46"/><rect fill="#363A4F" height="42.5938" rx="1.5" ry="1.5" style="stroke:#363A4F;stroke-width:2;" width="286.8984" x="342.3" y="311.46"/><rect fill="#363A4F" height="1.5" style="stroke:#363A4F;stroke-width:2;" width="286.8984" x="342.3" y="352.5538"/><rect fill="none" height="194.2813" rx="1.5" ry="1.5" style="stroke:#C6A0F6;stroke-width:2;" width="286.8984" x="342.3" y="311.46"/><ellipse cx="432.425" cy="332.7569" fill="#FFFFFF" rx="9" ry="9" style="stroke:#000000;stroke-width:1;"/><path d="M434.2531,337.0069 Q433.8469,337.21 433.3938,337.3194 Q432.9406,337.4288 432.4563,337.4288 Q430.675,337.4288 429.7375,336.2725 Q428.8156,335.1006 428.8156,332.8975 Q428.8156,330.6788 429.7375,329.5225 Q430.675,328.3506 432.4563,328.3506 Q432.9406,328.3506 433.3938,328.46 Q433.8625,328.5538 434.2531,328.7725 L434.2531,330.6944 Q433.8156,330.2881 433.3938,330.1006 Q432.9719,329.8975 432.5344,329.8975 Q431.5813,329.8975 431.0969,330.6631 Q430.6125,331.4131 430.6125,332.8975 Q430.6125,334.3663 431.0969,335.1163 Q431.5813,335.8663 432.5344,335.8663 Q432.9719,335.8663 433.3938,335.6788 Q433.8156,335.4913 434.2531,335.085 L434.2531,337.0069 Z " fill="#CAD3F5"/><text fill="#000000" font-family="Verdana" font-size="12" font-style="italic" lengthAdjust="spacing" textLength="53.4902" x="472.7541" y="327.5987">&#171;record&#187;</text><text fill="#A6DA95" font-family="Helvetica" font-size="16" lengthAdjust="spacing" textLength="99.1484" x="449.925" y="345.2803">Right&lt;L, R&gt;</text><line style="stroke:#C6A0F6;stroke-width:2;" x1="343.3" x2="628.1984" y1="354.0538" y2="354.0538"/><ellipse cx="353.3" cy="366.5381" fill="#FFFFFF" rx="3" ry="3" style="stroke:#000000;stroke-width:1;"/><text fill="#A6DA95" font-family="Helvetica" font-size="12" lengthAdjust="spacing" textLength="85.8926" x="360.3" y="369.1924">Right(R value)</text><ellipse cx="353.3" cy="398.4756" fill="#FFFFFF" rx="3" ry="3" style="stroke:#000000;stroke-width:1;"/><text fill="#A6DA95" font-family="Helvetica" font-size="12" lengthAdjust="spacing" textLength="82.166" x="360.3" y="401.1299">isLeft() : false</text><ellipse cx="353.3" cy="412.4444" fill="#FFFFFF" rx="3" ry="3" style="stroke:#000000;stroke-width:1;"/><text fill="#A6DA95" font-family="Helvetica" font-size="12" lengthAdjust="spacing" textLength="86.8477" x="360.3" y="415.0987">isRight() : true</text><ellipse cx="353.3" cy="426.4131" fill="#FFFFFF" rx="3" ry="3" style="stroke:#000000;stroke-width:1;"/><text fill="#A6DA95" font-family="Helvetica" font-size="12" lengthAdjust="spacing" textLength="262.8984" x="360.3" y="429.0674">getLeft() : throws NoSuchElementException</text><ellipse cx="353.3" cy="440.3819" fill="#FFFFFF" rx="3" ry="3" style="stroke:#000000;stroke-width:1;"/><text fill="#A6DA95" font-family="Helvetica" font-size="12" lengthAdjust="spacing" textLength="80.6777" x="360.3" y="443.0362">getRight() : R</text><ellipse cx="353.3" cy="454.3506" fill="#FFFFFF" rx="3" ry="3" style="stroke:#000000;stroke-width:1;"/><text fill="#A6DA95" font-family="Helvetica" font-size="12" lengthAdjust="spacing" textLength="212.7598" x="360.3" y="457.0049">ifLeft(Consumer&lt;? super L&gt;) : void</text><ellipse cx="353.3" cy="468.3194" fill="#FFFFFF" rx="3" ry="3" style="stroke:#000000;stroke-width:1;"/><text fill="#A6DA95" font-family="Helvetica" font-size="12" lengthAdjust="spacing" textLength="223.0137" x="360.3" y="470.9737">ifRight(Consumer&lt;? super R&gt;) : void</text><ellipse cx="353.3" cy="482.2881" fill="#FFFFFF" rx="3" ry="3" style="stroke:#000000;stroke-width:1;"/><text fill="#A6DA95" font-family="Helvetica" font-size="12" lengthAdjust="spacing" textLength="145.0781" x="360.3" y="484.9424">map(...) : Either&lt;L, R2&gt;</text><ellipse cx="353.3" cy="496.2569" fill="#FFFFFF" rx="3" ry="3" style="stroke:#000000;stroke-width:1;"/><text fill="#A6DA95" font-family="Helvetica" font-size="12" lengthAdjust="spacing" textLength="163.3594" x="360.3" y="498.9112">flatMap(...) : Either&lt;L, R2&gt;</text><line style="stroke:#C6A0F6;stroke-width:2;" x1="343.3" x2="460.1203" y1="383.0069" y2="383.0069"/><text fill="#A6DA95" font-family="Helvetica" font-size="12" lengthAdjust="spacing" textLength="51.2578" x="460.1203" y="386.6612">Methods</text><line style="stroke:#C6A0F6;stroke-width:2;" x1="511.3781" x2="628.1984" y1="383.0069" y2="383.0069"/></g><!--reverse link Either to Left<L, R>--><g class="link" data-entity-1="Either" data-entity-2="Left&lt;L, R&gt;" data-source-line="19" data-uid="lnk4" id="link_Either_Left&lt;L, R&gt;"><path d="M325.2281,227.0198 C296.3581,258.5198 276.61,280.07 247.9,311.41" fill="none" id="Either-backto-Left&lt;L, R&gt;" style="stroke:#F5BDE6;stroke-width:1;stroke-dasharray:7.0,7.0;"/><polygon fill="none" points="337.39,213.75,320.8048,222.9659,329.6514,231.0738,337.39,213.75" style="stroke:#F5BDE6;stroke-width:1;"/></g><!--reverse link Either to Right<L, R>--><g class="link" data-entity-1="Either" data-entity-2="Right&lt;L, R&gt;" data-source-line="32" data-uid="lnk6" id="link_Either_Right&lt;L, R&gt;"><path d="M450.8077,231.4069 C457.0477,262.9069 460.46,280.07 466.67,311.41" fill="none" id="Either-backto-Right&lt;L, R&gt;" style="stroke:#F5BDE6;stroke-width:1;stroke-dasharray:7.0,7.0;"/><polygon fill="none" points="447.31,213.75,444.9221,232.5728,456.6934,230.241,447.31,213.75" style="stroke:#F5BDE6;stroke-width:1;"/></g><!--reverse link EitherKind to Kind--><g class="link" data-entity-1="EitherKind" data-entity-2="Kind" data-source-line="59" data-uid="lnk15" id="link_EitherKind_Kind"><path codeLine="59" d="M1158.75,154.65 C1158.75,208.73 1158.75,331.94 1158.75,386.06" fill="none" id="EitherKind-backto-Kind" style="stroke:#F5BDE6;stroke-width:1;stroke-dasharray:7.0,7.0;"/><polygon fill="none" points="1158.75,136.65,1152.75,154.65,1164.75,154.65,1158.75,136.65" style="stroke:#F5BDE6;stroke-width:1;"/></g><!--link Monad to Helper--><g class="link" data-entity-1="Monad" data-entity-2="Helper" data-source-line="60" data-uid="lnk16" id="link_Monad_Helper"><path codeLine="60" d="M883.75,183.71 C883.75,242.63 883.75,319.25 883.75,365.89" fill="none" id="Monad-to-Helper" style="stroke:#F5BDE6;stroke-width:1;stroke-dasharray:7.0,7.0;"/><polygon fill="#F5BDE6" points="883.75,371.89,887.75,362.89,883.75,366.89,879.75,362.89,883.75,371.89" style="stroke:#F5BDE6;stroke-width:1;"/><text fill="#CAD3F5" font-family="Helvetica" font-size="12" lengthAdjust="spacing" textLength="27.4922" x="884.75" y="255.4187">uses</text></g><!--reverse link Either to Helper--><g class="link" data-entity-1="Either" data-entity-2="Helper" data-source-line="63" data-uid="lnk17" id="link_Either_Helper"><path codeLine="63" d="M586.5506,216.989 C671.6106,271.539 767.11,332.79 828.11,371.92" fill="none" id="Either-backto-Helper" style="stroke:#F5BDE6;stroke-width:1;stroke-dasharray:7.0,7.0;"/><polygon fill="#F5BDE6" points="581.5,213.75,586.9166,221.9756,585.7088,216.4492,591.2353,215.2415,581.5,213.75" style="stroke:#F5BDE6;stroke-width:1;"/><text fill="#CAD3F5" font-family="Helvetica" font-size="12" lengthAdjust="spacing" textLength="71.7305" x="643.75" y="255.4187">operates on</text></g><!--SRC=[jLLDR-8m5BppAruvKMq9Key8XSEALQl27h98UqJ6CObLnuxyKIgn_FTziGCX2RIxXvwQlZSUpnkFpPtDMS6W58JBmHsNLBYKGMvjQQQJYIRxAECsTrjdcAPAMYPjH5KnaLGPIyQSJYYnPUaevN9S44fpJgmQ8v-qhX1ZJpyfa7tYFwCIguC1HoQz8vJ1S87yJC-M3v34Go06GW4E0u1lS21ROpMXzWZSBDdEZkvX2bkb12EoZqXubdy8oPWzioolD1k2n7TtIgIZ7qvIovMSpS6u4hMXs3cmTtGZDR2E7w27IDg8Yd3j2GjIZZv69uyUVk7BOnoq269NdovlrhKeRt3odRVZkvB65TWwJ-ZnRugdDImOqyCbRTm1Gs4vFOAeM9UTFUCsHdlAf0Sw3WPK46DWM6ax9MCsqumgdSOnyA8Kc2LfEs7neopXZGZ7xh6osS2AsLoX0vjDcAF9aDMErRNcq7T4c53j1wML3fjhjJVmK_roD5y4DOjtoihgOBx2sIetKHHvEITNEhcuqcwizBlyXvT1LVAFPZQ-NRfvjlZIpC-Tkt8DlyxCszViAW0DBGbz9Hc3fvVrvXdViKoJIhhthVUklN2PzjwsgeZW-cIQsXCJADO3mwVdlBmoUut2peh2L7wBrcxpkBvibqkTz8jleLkZ-iN7hiILaWGNX4dyFq5V5Otd9aQ-iz1QwVu-opY4ftC87e7VSTtg746tVRkZTk4zwTOruOPvJU5HwlPp8bCH0BzHypNwoevc7fZzYI8OAfr5XXTE-0X4-QkDgkuGiS4WN7iwoodWZwYf4bHVD6HkUWh_4CiCAFaN]--></g></svg>