<svg xmlns="http://www.w3.org/2000/svg" xmlns:xlink="http://www.w3.org/1999/xlink" contentStyleType="text/css" data-diagram-type="CLASS" height="444px" preserveAspectRatio="none" style="width:1353px;height:444px;background:#24273A;" version="1.1" viewBox="0 0 1353 444" width="1353px" zoomAndPan="magnify"><defs/><g><rect fill="#24273A" height="444" style="stroke:none;stroke-width:1;" width="1353" x="0" y="0"/><!--class Functor<F>--><g class="entity" data-entity="Functor.F." data-source-line="7" data-uid="ent0002" id="entity_Functor.F."><rect fill="#24273A" height="48.1362" rx="1.5" ry="1.5" style="stroke:#C6A0F6;stroke-width:2;" width="110.0322" x="1019.38" y="7"/><rect fill="#363A4F" height="48.1362" rx="1.5" ry="1.5" style="stroke:#363A4F;stroke-width:2;" width="110.0322" x="1019.38" y="7"/><rect fill="#363A4F" height="1.5" style="stroke:#363A4F;stroke-width:2;" width="110.0322" x="1019.38" y="53.6362"/><rect fill="none" height="48.1362" rx="1.5" ry="1.5" style="stroke:#C6A0F6;stroke-width:2;" width="110.0322" x="1019.38" y="7"/><ellipse cx="1033.38" cy="31.0681" fill="#B4A7E5" rx="10" ry="10" style="stroke:#181818;stroke-width:1;"/><path d="M1030.9581,35.5681 L1030.9581,34.365 L1032.63,34.1775 L1032.63,28.3962 L1030.9581,28.1931 L1030.9581,27.0056 L1036.005,27.0056 L1036.005,28.1931 L1034.3019,28.3962 L1034.3019,34.1775 L1036.005,34.365 L1036.005,35.5681 L1030.9581,35.5681 Z " fill="#CAD3F5"/><text fill="#CAD3F5" font-family="Helvetica" font-size="12" font-style="italic" lengthAdjust="spacing" textLength="58.2964" x="1057.2479" y="24.8281">&#171;interface&#187;</text><text fill="#A6DA95" font-family="Helvetica" font-size="16" font-style="italic" lengthAdjust="spacing" textLength="80.0322" x="1046.38" y="45.4481">Functor&lt;F&gt;</text></g><!--class Applicative<F>--><g class="entity" data-entity="Applicative.F." data-source-line="8" data-uid="ent0003" id="entity_Applicative.F."><rect fill="#24273A" height="48.1362" rx="1.5" ry="1.5" style="stroke:#C6A0F6;stroke-width:2;" width="132.9442" x="297.92" y="7"/><rect fill="#363A4F" height="48.1362" rx="1.5" ry="1.5" style="stroke:#363A4F;stroke-width:2;" width="132.9442" x="297.92" y="7"/><rect fill="#363A4F" height="1.5" style="stroke:#363A4F;stroke-width:2;" width="132.9442" x="297.92" y="53.6362"/><rect fill="none" height="48.1362" rx="1.5" ry="1.5" style="stroke:#C6A0F6;stroke-width:2;" width="132.9442" x="297.92" y="7"/><ellipse cx="311.92" cy="31.0681" fill="#B4A7E5" rx="10" ry="10" style="stroke:#181818;stroke-width:1;"/><path d="M309.4981,35.5681 L309.4981,34.365 L311.17,34.1775 L311.17,28.3962 L309.4981,28.1931 L309.4981,27.0056 L314.545,27.0056 L314.545,28.1931 L312.8419,28.3962 L312.8419,34.1775 L314.545,34.365 L314.545,35.5681 L309.4981,35.5681 Z " fill="#CAD3F5"/><text fill="#CAD3F5" font-family="Helvetica" font-size="12" font-style="italic" lengthAdjust="spacing" textLength="58.2964" x="347.2439" y="24.8281">&#171;interface&#187;</text><text fill="#A6DA95" font-family="Helvetica" font-size="16" font-style="italic" lengthAdjust="spacing" textLength="102.9442" x="324.92" y="45.4481">Applicative&lt;F&gt;</text></g><!--class FreeApFunctor<F>--><g class="entity" data-entity="FreeApFunctor.F." data-source-line="10" data-uid="ent0004" id="entity_FreeApFunctor.F."><rect fill="#24273A" height="72.4803" rx="1.5" ry="1.5" style="stroke:#C6A0F6;stroke-width:2;" width="543.9677" x="802.41" y="141.31"/><rect fill="#363A4F" height="48.1362" rx="1.5" ry="1.5" style="stroke:#363A4F;stroke-width:2;" width="543.9677" x="802.41" y="141.31"/><rect fill="#363A4F" height="1.5" style="stroke:#363A4F;stroke-width:2;" width="543.9677" x="802.41" y="187.9462"/><rect fill="none" height="72.4803" rx="1.5" ry="1.5" style="stroke:#C6A0F6;stroke-width:2;" width="543.9677" x="802.41" y="141.31"/><ellipse cx="1001.6657" cy="165.3781" fill="#ADD1B2" rx="10" ry="10" style="stroke:#181818;stroke-width:1;"/><path d="M1001.3844,170.0031 Q1000.1344,170.0031 999.3376,169.4875 Q998.5407,168.9562 998.1501,168.0031 Q997.7594,167.05 997.7594,165.7687 Q997.7594,164.3468 998.2282,163.3312 Q998.6969,162.3 999.6032,161.7531 Q1000.5094,161.1906 1001.8219,161.1906 Q1002.4469,161.1906 1002.9157,161.3156 Q1003.4001,161.4406 1003.8844,161.675 L1003.3063,163.1125 Q1002.8688,162.8781 1002.4782,162.8 Q1002.1032,162.7218 1001.7594,162.7218 Q1000.9313,162.7218 1000.4313,163.0968 Q999.9469,163.4562 999.7282,164.1281 Q999.5251,164.8 999.5251,165.7062 Q999.5251,167.1125 1000.0251,167.8 Q1000.5407,168.4718 1001.6657,168.4718 Q1002.0876,168.4718 1002.5251,168.3625 Q1002.9626,168.2531 1003.5563,167.9875 L1003.5563,169.55 Q1003.0407,169.7843 1002.4782,169.8937 Q1001.9157,170.0031 1001.3844,170.0031 Z " fill="#CAD3F5"/><text fill="#CAD3F5" font-family="Helvetica" font-size="12" font-style="italic" lengthAdjust="spacing" textLength="37.1643" x="1070.8117" y="159.1381">&#171;class&#187;</text><text fill="#A6DA95" font-family="Helvetica" font-size="16" lengthAdjust="spacing" textLength="137.4563" x="1020.6657" y="179.7581">FreeApFunctor&lt;F&gt;</text><line style="stroke:#C6A0F6;stroke-width:2;" x1="803.41" x2="1345.3777" y1="189.4462" y2="189.4462"/><ellipse cx="813.41" cy="203.1182" fill="#84BE84" rx="3" ry="3" style="stroke:#038048;stroke-width:1;"/><text fill="#A6DA95" font-family="Helvetica" font-size="12" lengthAdjust="spacing" textLength="518.9677" x="821.41" y="206.2742">Kind&lt;FreeApKind.Witness&lt;F&gt;, B&gt; map(Function&lt;A, B&gt; f, Kind&lt;FreeApKind.Witness&lt;F&gt;, A&gt; fa)</text></g><!--class FreeApApplicative<F>--><g class="entity" data-entity="FreeApApplicative.F." data-source-line="14" data-uid="ent0005" id="entity_FreeApApplicative.F."><rect fill="#24273A" height="88.8244" rx="1.5" ry="1.5" style="stroke:#C6A0F6;stroke-width:2;" width="714.7889" x="7" y="133.14"/><rect fill="#363A4F" height="48.1362" rx="1.5" ry="1.5" style="stroke:#363A4F;stroke-width:2;" width="714.7889" x="7" y="133.14"/><rect fill="#363A4F" height="1.5" style="stroke:#363A4F;stroke-width:2;" width="714.7889" x="7" y="179.7762"/><rect fill="none" height="88.8244" rx="1.5" ry="1.5" style="stroke:#C6A0F6;stroke-width:2;" width="714.7889" x="7" y="133.14"/><ellipse cx="279.6423" cy="157.2081" fill="#ADD1B2" rx="10" ry="10" style="stroke:#181818;stroke-width:1;"/><path d="M279.361,161.8331 Q278.111,161.8331 277.3141,161.3175 Q276.5173,160.7862 276.1266,159.8331 Q275.736,158.88 275.736,157.5987 Q275.736,156.1768 276.2048,155.1612 Q276.6735,154.13 277.5798,153.5831 Q278.486,153.0206 279.7985,153.0206 Q280.4235,153.0206 280.8923,153.1456 Q281.3766,153.2706 281.861,153.505 L281.2829,154.9425 Q280.8454,154.7081 280.4548,154.63 Q280.0798,154.5518 279.736,154.5518 Q278.9079,154.5518 278.4079,154.9268 Q277.9235,155.2862 277.7048,155.9581 Q277.5016,156.63 277.5016,157.5362 Q277.5016,158.9425 278.0016,159.63 Q278.5173,160.3018 279.6423,160.3018 Q280.0641,160.3018 280.5016,160.1925 Q280.9391,160.0831 281.5329,159.8175 L281.5329,161.38 Q281.0173,161.6143 280.4548,161.7237 Q279.8923,161.8331 279.361,161.8331 Z " fill="#CAD3F5"/><text fill="#CAD3F5" font-family="Helvetica" font-size="12" font-style="italic" lengthAdjust="spacing" textLength="37.1643" x="360.8123" y="150.9681">&#171;class&#187;</text><text fill="#A6DA95" font-family="Helvetica" font-size="16" lengthAdjust="spacing" textLength="161.5043" x="298.6423" y="171.5881">FreeApApplicative&lt;F&gt;</text><line style="stroke:#C6A0F6;stroke-width:2;" x1="8" x2="720.7889" y1="181.2762" y2="181.2762"/><ellipse cx="18" cy="194.9482" fill="#84BE84" rx="3" ry="3" style="stroke:#038048;stroke-width:1;"/><text fill="#A6DA95" font-family="Helvetica" font-size="12" lengthAdjust="spacing" textLength="248.1858" x="26" y="198.1042">Kind&lt;FreeApKind.Witness&lt;F&gt;, A&gt; of(A value)</text><ellipse cx="18" cy="211.2923" fill="#84BE84" rx="3" ry="3" style="stroke:#038048;stroke-width:1;"/><text fill="#A6DA95" font-family="Helvetica" font-size="12" lengthAdjust="spacing" textLength="689.7889" x="26" y="214.4484">Kind&lt;FreeApKind.Witness&lt;F&gt;, B&gt; ap(Kind&lt;FreeApKind.Witness&lt;F&gt;, Function&lt;A, B&gt;&gt; ff, Kind&lt;FreeApKind.Witness&lt;F&gt;, A&gt; fa)</text></g><!--class FreeApKind<F, A>--><g class="entity" data-entity="FreeApKind.F. A." data-source-line="19" data-uid="ent0006" id="entity_FreeApKind.F. A."><rect fill="#24273A" height="48.1362" rx="1.5" ry="1.5" style="stroke:#C6A0F6;stroke-width:2;" width="153.0563" x="136.87" y="344.82"/><rect fill="#363A4F" height="48.1362" rx="1.5" ry="1.5" style="stroke:#363A4F;stroke-width:2;" width="153.0563" x="136.87" y="344.82"/><rect fill="#363A4F" height="1.5" style="stroke:#363A4F;stroke-width:2;" width="153.0563" x="136.87" y="391.4562"/><rect fill="none" height="48.1362" rx="1.5" ry="1.5" style="stroke:#C6A0F6;stroke-width:2;" width="153.0563" x="136.87" y="344.82"/><ellipse cx="150.87" cy="368.8881" fill="#B4A7E5" rx="10" ry="10" style="stroke:#181818;stroke-width:1;"/><path d="M148.4481,373.3881 L148.4481,372.185 L150.12,371.9975 L150.12,366.2162 L148.4481,366.0131 L148.4481,364.8256 L153.495,364.8256 L153.495,366.0131 L151.7919,366.2162 L151.7919,371.9975 L153.495,372.185 L153.495,373.3881 L148.4481,373.3881 Z " fill="#CAD3F5"/><text fill="#CAD3F5" font-family="Helvetica" font-size="12" font-style="italic" lengthAdjust="spacing" textLength="58.2964" x="196.2499" y="362.6481">&#171;interface&#187;</text><text fill="#A6DA95" font-family="Helvetica" font-size="16" font-style="italic" lengthAdjust="spacing" textLength="123.0563" x="163.87" y="383.2681">FreeApKind&lt;F, A&gt;</text></g><!--class FreeAp<F, A>--><g class="entity" data-entity="FreeAp.F. A." data-source-line="21" data-uid="ent0007" id="entity_FreeAp.F. A."><rect fill="#24273A" height="137.8567" rx="1.5" ry="1.5" style="stroke:#C6A0F6;stroke-width:2;" width="383.3825" x="324.7" y="299.96"/><rect fill="#363A4F" height="48.1362" rx="1.5" ry="1.5" style="stroke:#363A4F;stroke-width:2;" width="383.3825" x="324.7" y="299.96"/><rect fill="#363A4F" height="1.5" style="stroke:#363A4F;stroke-width:2;" width="383.3825" x="324.7" y="346.5962"/><rect fill="none" height="137.8567" rx="1.5" ry="1.5" style="stroke:#C6A0F6;stroke-width:2;" width="383.3825" x="324.7" y="299.96"/><ellipse cx="466.6729" cy="324.0281" fill="#B4A7E5" rx="10" ry="10" style="stroke:#181818;stroke-width:1;"/><path d="M464.251,328.5281 L464.251,327.325 L465.9229,327.1375 L465.9229,321.3562 L464.251,321.1531 L464.251,319.9656 L469.2979,319.9656 L469.2979,321.1531 L467.5948,321.3562 L467.5948,327.1375 L469.2979,327.325 L469.2979,328.5281 L464.251,328.5281 Z " fill="#CAD3F5"/><text fill="#CAD3F5" font-family="Helvetica" font-size="12" font-style="italic" lengthAdjust="spacing" textLength="95.4367" x="483.6729" y="317.7881">&#171;sealed interface&#187;</text><text fill="#A6DA95" font-family="Helvetica" font-size="16" font-style="italic" lengthAdjust="spacing" textLength="91.4082" x="485.6872" y="338.4081">FreeAp&lt;F, A&gt;</text><line style="stroke:#C6A0F6;stroke-width:2;" x1="325.7" x2="707.0825" y1="348.0962" y2="348.0962"/><ellipse cx="335.7" cy="361.7682" fill="#84BE84" rx="3" ry="3" style="stroke:#038048;stroke-width:1;"/><text fill="#A6DA95" font-family="Helvetica" font-size="12" lengthAdjust="spacing" text-decoration="underline" textLength="151.4651" x="343.7" y="364.9242">FreeAp&lt;F, A&gt; pure(A value)</text><ellipse cx="335.7" cy="378.1123" fill="#84BE84" rx="3" ry="3" style="stroke:#038048;stroke-width:1;"/><text fill="#A6DA95" font-family="Helvetica" font-size="12" lengthAdjust="spacing" text-decoration="underline" textLength="171.9612" x="343.7" y="381.2684">FreeAp&lt;F, A&gt; lift(Kind&lt;F, A&gt; fa)</text><ellipse cx="335.7" cy="394.4564" fill="#84BE84" rx="3" ry="3" style="stroke:#038048;stroke-width:1;"/><text fill="#A6DA95" font-family="Helvetica" font-size="12" font-weight="bold" lengthAdjust="spacing" textLength="211.5255" x="346.82" y="397.6125">FreeAp&lt;F, B&gt; map(Function&lt;A, B&gt; f)</text><ellipse cx="335.7" cy="410.8006" fill="#84BE84" rx="3" ry="3" style="stroke:#038048;stroke-width:1;"/><text fill="#A6DA95" font-family="Helvetica" font-size="12" font-weight="bold" lengthAdjust="spacing" textLength="273.4939" x="346.82" y="413.9566">FreeAp&lt;F, B&gt; ap(FreeAp&lt;F, Function&lt;A, B&gt;&gt; ff)</text><ellipse cx="335.7" cy="427.1447" fill="#84BE84" rx="3" ry="3" style="stroke:#038048;stroke-width:1;"/><text fill="#A6DA95" font-family="Helvetica" font-size="12" lengthAdjust="spacing" textLength="358.3825" x="343.7" y="430.3007">&lt;G&gt; Kind&lt;G, A&gt; foldMap(Natural&lt;F, G&gt; nat, Applicative&lt;G&gt; app)</text></g><!--reverse link Functor<F> to FreeApFunctor<F>--><g class="link" data-entity-1="Functor.F." data-entity-2="FreeApFunctor.F." data-source-line="29" data-uid="lnk9" id="link_Functor.F._FreeApFunctor.F."><path codeLine="29" d="M1074.39,73.61 C1074.39,96.71 1074.39,114.27 1074.39,140.86" fill="none" id="Functor&lt;F&gt;-backto-FreeApFunctor&lt;F&gt;" style="stroke:#F5BDE6;stroke-width:1;stroke-dasharray:7,7;"/><polygon fill="none" points="1074.39,55.61,1068.39,73.61,1080.39,73.61,1074.39,55.61" style="stroke:#F5BDE6;stroke-width:1;"/><text fill="#CAD3F5" font-family="Helvetica" font-size="12" lengthAdjust="spacing" textLength="67.0445" x="1075.39" y="98.9681">implements</text></g><!--reverse link Applicative<F> to FreeApApplicative<F>--><g class="link" data-entity-1="Applicative.F." data-entity-2="FreeApApplicative.F." data-source-line="30" data-uid="lnk11" id="link_Applicative.F._FreeApApplicative.F."><path codeLine="30" d="M364.39,73.61 C364.39,94.48 364.39,107.5 364.39,132.9" fill="none" id="Applicative&lt;F&gt;-backto-FreeApApplicative&lt;F&gt;" style="stroke:#F5BDE6;stroke-width:1;stroke-dasharray:7,7;"/><polygon fill="none" points="364.39,55.61,358.39,73.61,370.39,73.61,364.39,55.61" style="stroke:#F5BDE6;stroke-width:1;"/><text fill="#CAD3F5" font-family="Helvetica" font-size="12" lengthAdjust="spacing" textLength="67.0445" x="365.39" y="98.9681">implements</text></g><!--link FreeApApplicative<F> to FreeApFunctor<F>--><g class="link" data-entity-1="FreeApApplicative.F." data-entity-2="FreeApFunctor.F." data-source-line="31" data-uid="lnk12" id="link_FreeApApplicative.F._FreeApFunctor.F."><path codeLine="31" d="M722.25,177.55 C749.06,177.55 757.85,177.55 784,177.55" fill="none" id="FreeApApplicative&lt;F&gt;-to-FreeApFunctor&lt;F&gt;" style="stroke:#F5BDE6;stroke-width:1;"/><polygon fill="none" points="802,177.55,784,171.55,784,183.55,802,177.55" style="stroke:#F5BDE6;stroke-width:1;"/><text fill="#CAD3F5" font-family="Helvetica" font-size="12" lengthAdjust="spacing" textLength="44.7603" x="740.1" y="170.3781">extends</text></g><!--link FreeApApplicative<F> to FreeApKind<F, A>--><g class="link" data-entity-1="FreeApApplicative.F." data-entity-2="FreeApKind.F. A." data-source-line="33" data-uid="lnk13" id="link_FreeApApplicative.F._FreeApKind.F. A."><path codeLine="33" d="M243.48,222.3 C232.47,230.59 222.73,240.4 215.39,251.96 C197.72,279.84 200.6328,313.709 205.8928,338.669" fill="none" id="FreeApApplicative&lt;F&gt;-to-FreeApKind&lt;F, A&gt;" style="stroke:#F5BDE6;stroke-width:1;stroke-dasharray:7,7;"/><polygon fill="#F5BDE6" points="207.13,344.54,209.1882,334.9086,206.099,339.6475,201.3601,336.5583,207.13,344.54" style="stroke:#F5BDE6;stroke-width:1;"/><text fill="#CAD3F5" font-family="Helvetica" font-size="12" lengthAdjust="spacing" textLength="256.4418" x="216.39" y="265.7881">operates on Kind&lt;FreeApKind.Witness&lt;F&gt;, A&gt;</text></g><!--link FreeApApplicative<F> to FreeAp<F, A>--><g class="link" data-entity-1="FreeApApplicative.F." data-entity-2="FreeAp.F. A." data-source-line="34" data-uid="lnk14" id="link_FreeApApplicative.F._FreeAp.F. A."><path codeLine="34" d="M446.56,222.25 C458.02,230.95 468.79,240.87 477.39,251.96 C488.19,265.89 494.1428,277.2947 499.8828,294.0247" fill="none" id="FreeApApplicative&lt;F&gt;-to-FreeAp&lt;F, A&gt;" style="stroke:#F5BDE6;stroke-width:1;stroke-dasharray:7,7;"/><polygon fill="#F5BDE6" points="501.83,299.7,502.6928,289.889,500.2074,294.9706,495.1258,292.4852,501.83,299.7" style="stroke:#F5BDE6;stroke-width:1;"/><text fill="#CAD3F5" font-family="Helvetica" font-size="12" lengthAdjust="spacing" textLength="93.4327" x="489.23" y="265.7881">uses methods of</text></g><!--SRC=[ZPHDRzim38Rl-XLSJobMs_V0CE0TaiEmNdjMPReMe2z8LBUYxNyVxNI9KoUTR_fuNl8LHUcRTiha3c4W2cbRLL7-Bfyq3Van9upAEq97fVAsSiedaeLMbP8KGbPAky9AfGOjoHV1I4VPce86j5XPgLqr3Sl0gqA8GNCQj85UmA9zn9Y4q1m-zb8XtEooK-HZlMjkeAwF6qqpXzeGZERq-XalW48PcHA7YeXjE0yuRJKDl0g0x_1Jkwu-OEEmVD3aC2Lcx-170rQ6pIJNtjNjjDJVVIbgcP2tulsJXwNVzJuufEytBJnBa_5sZMrs_HLnVY8slFfCysiwilLkH1Pti61FN49fi8CP_b66LsuiqkeTvWe8EUBv-IzpHlUqEJcQJ8zqpIKvWLUkzGewaiVvid0VgdrpAE3-aDURxXSBxoNbACsePC19ujrP7-p7w66gwuLEBNCetvhpvx05ROFXf-GeYIkTzK_tUNsDjeZwQQ1YIhimj0Nymtz0byJLr6LpgI-su0D6IPZ0k_yqsehGfx3yCIN-GcZm7OVknLy0]--></g></svg>