<svg xmlns="http://www.w3.org/2000/svg" xmlns:xlink="http://www.w3.org/1999/xlink" contentStyleType="text/css" data-diagram-type="CLASS" height="372px" preserveAspectRatio="none" style="width:847px;height:372px;background:#24273A;" version="1.1" viewBox="0 0 847 372" width="847px" zoomAndPan="magnify"><defs/><g><rect fill="#24273A" height="372" style="stroke:none;stroke-width:1;" width="847" x="0" y="0"/><g class="entity" data-entity="ArityNote" data-source-line="4" data-uid="ent0002" id="entity_ArityNote"><path d="M96.5,7.5 L96.5,47.1882 A1.5,1.5 0 0 0 98,48.6882 L347.7216,48.6882 A1.5,1.5 0 0 0 349.2216,47.1882 L349.2216,16 L339.2216,6 L98,6 A1.5,1.5 0 0 0 96.5,7.5" fill="#EED49F" style="stroke:#24273A;stroke-width:0.5;"/><path d="M339.2216,6 L339.2216,15.25 A0.75,0.75 0 0 0 339.9716,16 L349.2216,16 L339.2216,6" fill="#EED49F" style="stroke:#24273A;stroke-width:1;"/><text fill="#24273A" font-family="Helvetica" font-size="12" lengthAdjust="spacing" textLength="231.7216" x="102.5" y="23.8281">F extends WitnessArity&lt;TypeArity.Unary&gt;</text><text fill="#24273A" font-family="Helvetica" font-size="12" lengthAdjust="spacing" textLength="102.8288" x="102.5" y="40.1722">for all type classes</text></g><!--class LazyKindHelper--><g class="entity" data-entity="LazyKindHelper" data-source-line="6" data-uid="ent0003" id="entity_LazyKindHelper"><rect fill="#24273A" height="72.4803" rx="1.5" ry="1.5" style="stroke:#C6A0F6;stroke-width:2;" width="259.8857" x="187.92" y="292.86"/><rect fill="#363A4F" height="31.792" rx="1.5" ry="1.5" style="stroke:#363A4F;stroke-width:2;" width="259.8857" x="187.92" y="292.86"/><rect fill="#363A4F" height="1.5" style="stroke:#363A4F;stroke-width:2;" width="259.8857" x="187.92" y="323.152"/><rect fill="none" height="72.4803" rx="1.5" ry="1.5" style="stroke:#C6A0F6;stroke-width:2;" width="259.8857" x="187.92" y="292.86"/><ellipse cx="255.2227" cy="308.756" fill="#ADD1B2" rx="10" ry="10" style="stroke:#181818;stroke-width:1;"/><path d="M254.9415,313.381 Q253.6915,313.381 252.8946,312.8654 Q252.0977,312.3341 251.7071,311.381 Q251.3165,310.4279 251.3165,309.1466 Q251.3165,307.7248 251.7852,306.7091 Q252.254,305.6779 253.1602,305.131 Q254.0665,304.5685 255.379,304.5685 Q256.004,304.5685 256.4727,304.6935 Q256.9571,304.8185 257.4415,305.0529 L256.8634,306.4904 Q256.4259,306.256 256.0352,306.1779 Q255.6602,306.0998 255.3165,306.0998 Q254.4884,306.0998 253.9884,306.4748 Q253.504,306.8341 253.2852,307.506 Q253.0821,308.1779 253.0821,309.0841 Q253.0821,310.4904 253.5821,311.1779 Q254.0977,311.8498 255.2227,311.8498 Q255.6446,311.8498 256.0821,311.7404 Q256.5196,311.631 257.1134,311.3654 L257.1134,312.9279 Q256.5977,313.1623 256.0352,313.2716 Q255.4727,313.381 254.9415,313.381 Z " fill="#CAD3F5"/><text fill="#A6DA95" font-family="Helvetica" font-size="16" lengthAdjust="spacing" textLength="117.2802" x="274.2227" y="314.964">LazyKindHelper</text><line style="stroke:#C6A0F6;stroke-width:2;" x1="188.92" x2="446.8057" y1="324.652" y2="324.652"/><text fill="#A6DA95" font-family="Helvetica" font-size="12" lengthAdjust="spacing" text-decoration="underline" textLength="241.2257" x="193.92" y="341.4801">Kind&lt;LazyKind.Witness, A&gt; widen(Lazy&lt;A&gt;)</text><text fill="#A6DA95" font-family="Helvetica" font-size="12" lengthAdjust="spacing" text-decoration="underline" textLength="247.8857" x="193.92" y="357.8242">Lazy&lt;A&gt; narrow(Kind&lt;LazyKind.Witness, A&gt;)</text></g><!--class LazyMonad--><g class="entity" data-entity="LazyMonad" data-source-line="12" data-uid="ent0004" id="entity_LazyMonad"><rect fill="#24273A" height="105.1685" rx="1.5" ry="1.5" style="stroke:#C6A0F6;stroke-width:2;" width="833.7217" x="7" y="109.69"/><rect fill="#363A4F" height="31.792" rx="1.5" ry="1.5" style="stroke:#363A4F;stroke-width:2;" width="833.7217" x="7" y="109.69"/><rect fill="#363A4F" height="1.5" style="stroke:#363A4F;stroke-width:2;" width="833.7217" x="7" y="139.982"/><rect fill="none" height="105.1685" rx="1.5" ry="1.5" style="stroke:#C6A0F6;stroke-width:2;" width="833.7217" x="7" y="109.69"/><ellipse cx="376.8928" cy="125.586" fill="#ADD1B2" rx="10" ry="10" style="stroke:#181818;stroke-width:1;"/><path d="M376.6115,130.211 Q375.3615,130.211 374.5647,129.6954 Q373.7678,129.1641 373.3772,128.211 Q372.9865,127.2579 372.9865,125.9766 Q372.9865,124.5548 373.4553,123.5391 Q373.924,122.5079 374.8303,121.961 Q375.7365,121.3985 377.049,121.3985 Q377.674,121.3985 378.1428,121.5235 Q378.6272,121.6485 379.1115,121.8829 L378.5334,123.3204 Q378.0959,123.086 377.7053,123.0079 Q377.3303,122.9298 376.9865,122.9298 Q376.1584,122.9298 375.6584,123.3048 Q375.174,123.6641 374.9553,124.336 Q374.7522,125.0079 374.7522,125.9141 Q374.7522,127.3204 375.2522,128.0079 Q375.7678,128.6798 376.8928,128.6798 Q377.3147,128.6798 377.7522,128.5704 Q378.1897,128.461 378.7834,128.1954 L378.7834,129.7579 Q378.2678,129.9923 377.7053,130.1016 Q377.1428,130.211 376.6115,130.211 Z " fill="#CAD3F5"/><text fill="#A6DA95" font-family="Helvetica" font-size="16" lengthAdjust="spacing" textLength="85.9362" x="395.8928" y="131.794">LazyMonad</text><line style="stroke:#C6A0F6;stroke-width:2;" x1="8" x2="839.7217" y1="141.482" y2="141.482"/><ellipse cx="18" cy="155.1541" fill="#84BE84" rx="3" ry="3" style="stroke:#038048;stroke-width:1;"/><text fill="#A6DA95" font-family="Helvetica" font-size="12" lengthAdjust="spacing" textLength="647.8007" x="26" y="158.3101">&lt;A, B&gt; @NonNull Kind&lt;LazyKind.Witness, B&gt; map(@NonNull Function&lt;A, B&gt;, @NonNull Kind&lt;LazyKind.Witness, A&gt;)</text><ellipse cx="18" cy="171.4982" fill="#84BE84" rx="3" ry="3" style="stroke:#038048;stroke-width:1;"/><text fill="#A6DA95" font-family="Helvetica" font-size="12" lengthAdjust="spacing" textLength="325.5743" x="26" y="174.6542">&lt;A&gt; @NonNull Kind&lt;LazyKind.Witness, A&gt; of(@Nullable A)</text><ellipse cx="18" cy="187.8423" fill="#84BE84" rx="3" ry="3" style="stroke:#038048;stroke-width:1;"/><text fill="#A6DA95" font-family="Helvetica" font-size="12" lengthAdjust="spacing" textLength="779.5494" x="26" y="190.9984">&lt;A, B&gt; @NonNull Kind&lt;LazyKind.Witness, B&gt; ap(@NonNull Kind&lt;LazyKind.Witness, Function&lt;A, B&gt;&gt;, @NonNull Kind&lt;LazyKind.Witness, A&gt;)</text><ellipse cx="18" cy="204.1864" fill="#84BE84" rx="3" ry="3" style="stroke:#038048;stroke-width:1;"/><text fill="#A6DA95" font-family="Helvetica" font-size="12" lengthAdjust="spacing" textLength="808.7217" x="26" y="207.3425">&lt;A, B&gt; @NonNull Kind&lt;LazyKind.Witness, B&gt; flatMap(@NonNull Function&lt;A, Kind&lt;LazyKind.Witness, B&gt;&gt;, @NonNull Kind&lt;LazyKind.Witness, A&gt;)</text></g><!--class Monad--><g class="entity" data-entity="Monad" data-source-line="13" data-uid="ent0005" id="entity_Monad"><rect fill="#24273A" height="31.792" rx="1.5" ry="1.5" style="stroke:#C6A0F6;stroke-width:2;" width="80.0801" x="383.82" y="11.45"/><rect fill="#363A4F" height="31.792" rx="1.5" ry="1.5" style="stroke:#363A4F;stroke-width:2;" width="80.0801" x="383.82" y="11.45"/><rect fill="#363A4F" height="1.5" style="stroke:#363A4F;stroke-width:2;" width="80.0801" x="383.82" y="41.742"/><rect fill="none" height="31.792" rx="1.5" ry="1.5" style="stroke:#C6A0F6;stroke-width:2;" width="80.0801" x="383.82" y="11.45"/><ellipse cx="397.82" cy="27.346" fill="#B4A7E5" rx="10" ry="10" style="stroke:#181818;stroke-width:1;"/><path d="M395.3981,31.846 L395.3981,30.6429 L397.07,30.4554 L397.07,24.6741 L395.3981,24.471 L395.3981,23.2835 L400.445,23.2835 L400.445,24.471 L398.7419,24.6741 L398.7419,30.4554 L400.445,30.6429 L400.445,31.846 L395.3981,31.846 Z " fill="#CAD3F5"/><text fill="#A6DA95" font-family="Helvetica" font-size="16" font-style="italic" lengthAdjust="spacing" textLength="50.0801" x="410.82" y="33.554">Monad</text></g><!--class LazyKind--><g class="entity" data-entity="LazyKind" data-source-line="21" data-uid="ent0008" id="entity_LazyKind"><rect fill="#24273A" height="31.792" rx="1.5" ry="1.5" style="stroke:#C6A0F6;stroke-width:2;" width="96.8001" x="482.46" y="313.2"/><rect fill="#363A4F" height="31.792" rx="1.5" ry="1.5" style="stroke:#363A4F;stroke-width:2;" width="96.8001" x="482.46" y="313.2"/><rect fill="#363A4F" height="1.5" style="stroke:#363A4F;stroke-width:2;" width="96.8001" x="482.46" y="343.492"/><rect fill="none" height="31.792" rx="1.5" ry="1.5" style="stroke:#C6A0F6;stroke-width:2;" width="96.8001" x="482.46" y="313.2"/><ellipse cx="496.46" cy="329.096" fill="#ADD1B2" rx="10" ry="10" style="stroke:#181818;stroke-width:1;"/><path d="M496.1788,333.721 Q494.9288,333.721 494.1319,333.2054 Q493.335,332.6741 492.9444,331.721 Q492.5538,330.7679 492.5538,329.4866 Q492.5538,328.0648 493.0225,327.0491 Q493.4913,326.0179 494.3975,325.471 Q495.3038,324.9085 496.6163,324.9085 Q497.2413,324.9085 497.71,325.0335 Q498.1944,325.1585 498.6788,325.3929 L498.1006,326.8304 Q497.6631,326.596 497.2725,326.5179 Q496.8975,326.4398 496.5538,326.4398 Q495.7256,326.4398 495.2256,326.8148 Q494.7413,327.1741 494.5225,327.846 Q494.3194,328.5179 494.3194,329.4241 Q494.3194,330.8304 494.8194,331.5179 Q495.335,332.1898 496.46,332.1898 Q496.8819,332.1898 497.3194,332.0804 Q497.7569,331.971 498.3506,331.7054 L498.3506,333.2679 Q497.835,333.5023 497.2725,333.6116 Q496.71,333.721 496.1788,333.721 Z " fill="#CAD3F5"/><text fill="#A6DA95" font-family="Helvetica" font-size="16" lengthAdjust="spacing" textLength="66.8001" x="509.46" y="335.304">LazyKind</text></g><!--reverse link Monad to LazyMonad--><g class="link" data-entity-1="Monad" data-entity-2="LazyMonad" data-source-line="13" data-uid="lnk6" id="link_Monad_LazyMonad"><path d="M423.86,61.6 C423.86,77.62 423.86,85.73 423.86,109.28" fill="none" id="Monad-backto-LazyMonad" style="stroke:#F5BDE6;stroke-width:1;stroke-dasharray:7,7;"/><polygon fill="none" points="423.86,43.6,417.86,61.6,429.86,61.6,423.86,43.6" style="stroke:#F5BDE6;stroke-width:1;"/></g><!--link LazyMonad to LazyKindHelper--><g class="link" data-entity-1="LazyMonad" data-entity-2="LazyKindHelper" data-source-line="20" data-uid="lnk7" id="link_LazyMonad_LazyKindHelper"><path codeLine="20" d="M390.61,214.97 C374.4,240.18 358.5539,264.8125 344.0039,287.4525" fill="none" id="LazyMonad-to-LazyKindHelper" style="stroke:#F5BDE6;stroke-width:1;stroke-dasharray:7,7;"/><polygon fill="#F5BDE6" points="340.76,292.5,348.9908,287.0913,343.4632,288.2937,342.2608,282.7662,340.76,292.5" style="stroke:#F5BDE6;stroke-width:1;"/><text fill="#CAD3F5" font-family="Helvetica" font-size="12" lengthAdjust="spacing" textLength="25.6802" x="371.86" y="258.6881">uses</text></g><!--link LazyMonad to LazyKind--><g class="link" data-entity-1="LazyMonad" data-entity-2="LazyKind" data-source-line="21" data-uid="lnk9" id="link_LazyMonad_LazyKind"><path codeLine="21" d="M457.42,214.97 C479.36,248.77 503.2646,285.5764 517.6146,307.6964" fill="none" id="LazyMonad-to-LazyKind" style="stroke:#F5BDE6;stroke-width:1;stroke-dasharray:7,7;"/><polygon fill="#F5BDE6" points="520.88,312.73,519.3375,303.0027,518.1588,308.5354,512.6261,307.3566,520.88,312.73" style="stroke:#F5BDE6;stroke-width:1;"/><text fill="#CAD3F5" font-family="Helvetica" font-size="12" lengthAdjust="spacing" textLength="67.7405" x="487.94" y="258.6881">operates on</text></g><!--SRC=[bPDFJnin4CNl_XG35u98l7SKhLWE20d8gLKllKoS2Ml97blhMOK5yTqxsL88hLODD-lDcta__plnx4A_8MX5ShcigWvtzj5Bsw_xGfrBBCHYNOeLkrG45zvL3YNdtZdFYuZEjHubBN90bZw6XRGKgOhekHgNDgjgMgyX5BCC42ckgIl6S1A2qnkW9mtP5FZXXQcKflCoBByDcSQL_SxO3VLFtgOEC0GGhO0BM0gLKy02essbmumPPRZ7v-7Ey-QMGgOENWoyABfuzmfxUVcdRjyIvz3Ki5D2dkrBowO-FsXvaq0nkhIRJKxGdZEmrfhNGuw7nBW17tFGis0fC0h_3AZtb1UmREPmNSFLAl6grxrEXAabOfwzssvwTk8J_swV_xT_XDsdrKTO8MqrIIsu3WJD-TSu3p4dN9_flu9_BCGse3nC7TXasv4aUjtcuwQjhVz-VvUWVwbCUBIQr8H21HARNm00]--></g></svg>