<svg xmlns="http://www.w3.org/2000/svg" xmlns:xlink="http://www.w3.org/1999/xlink" contentStyleType="text/css" height="351px" preserveAspectRatio="none" style="width:604px;height:351px;background:#24273A;" version="1.1" viewBox="0 0 604 351" width="604px" zoomAndPan="magnify"><defs/><g><rect fill="#24273A" height="351" style="stroke:none;stroke-width:1.0;" width="604" x="0" y="0"/><!--class ThrowableSupplier--><g id="elem_ThrowableSupplier"><rect codeLine="4" fill="#24273A" height="58" id="ThrowableSupplier" rx="1.5" ry="1.5" style="stroke:#C6A0F6;stroke-width:2.0;" width="174.7363" x="212.71" y="286"/><rect fill="#363A4F" height="30" rx="1.5" ry="1.5" style="stroke:#363A4F;stroke-width:2.0;" width="174.7363" x="212.71" y="286"/><rect fill="#363A4F" height="1.5" style="stroke:#363A4F;stroke-width:2.0;" width="174.7363" x="212.71" y="314.5"/><rect codeLine="4" fill="none" height="58" id="ThrowableSupplier" rx="1.5" ry="1.5" style="stroke:#C6A0F6;stroke-width:2.0;" width="174.7363" x="212.71" y="286"/><ellipse cx="226.71" cy="301" fill="#B4A7E5" rx="10" ry="10" style="stroke:#181818;stroke-width:1.0;"/><path d="M223.7178,298.2754 L223.7178,296.752 L228.9268,296.752 L228.9268,298.2754 L227.1866,298.2754 L227.1866,303.9766 L228.9268,303.9766 L228.9268,305.5 L223.7178,305.5 L223.7178,303.9766 L225.458,303.9766 L225.458,298.2754 Z " fill="#CAD3F5"/><text fill="#A6DA95" font-family="Helvetica" font-size="16" font-style="italic" lengthAdjust="spacing" textLength="133.4063" x="239.71" y="305.3203">ThrowableSupplier</text><rect fill="#24273A" height="14" style="stroke:#C6A0F6;stroke-width:1.0;stroke-dasharray:2.0,2.0;" width="9.3301" x="381.1163" y="283"/><text fill="#CAD3F5" font-family="Helvetica" font-size="12" font-style="italic" lengthAdjust="spacing" textLength="7.3301" x="382.1163" y="293.2402">T</text><line style="stroke:#C6A0F6;stroke-width:2.0;" x1="213.71" x2="386.4463" y1="316" y2="316"/><line style="stroke:#C6A0F6;stroke-width:2.0;" x1="213.71" x2="386.4463" y1="324" y2="324"/><ellipse cx="223.71" cy="335.5" fill="#84BE84" rx="3" ry="3" style="stroke:#038048;stroke-width:1.0;"/><text fill="#A6DA95" font-family="Helvetica" font-size="12" font-style="italic" lengthAdjust="spacing" textLength="133.377" x="231.71" y="337.2402">T get() throws Throwable</text></g><!--class Lazy--><g id="elem_Lazy"><rect codeLine="8" fill="#24273A" height="202" id="Lazy" rx="1.5" ry="1.5" style="stroke:#C6A0F6;stroke-width:2.0;" width="586.1523" x="7" y="10"/><rect fill="#363A4F" height="30" rx="1.5" ry="1.5" style="stroke:#363A4F;stroke-width:2.0;" width="586.1523" x="7" y="10"/><rect fill="#363A4F" height="1.5" style="stroke:#363A4F;stroke-width:2.0;" width="586.1523" x="7" y="38.5"/><rect codeLine="8" fill="none" height="202" id="Lazy" rx="1.5" ry="1.5" style="stroke:#C6A0F6;stroke-width:2.0;" width="586.1523" x="7" y="10"/><ellipse cx="273.1758" cy="25" fill="#ADD1B2" rx="10" ry="10" style="stroke:#181818;stroke-width:1.0;"/><path d="M275.0098,29.248 Q274.5996,29.459 274.1484,29.5645 Q273.6973,29.6699 273.1992,29.6699 Q271.4297,29.6699 270.498,28.5039 Q269.5664,27.3379 269.5664,25.1348 Q269.5664,22.9258 270.498,21.7598 Q271.4297,20.5938 273.1992,20.5938 Q273.6973,20.5938 274.1543,20.6992 Q274.6113,20.8047 275.0098,21.0156 L275.0098,22.9375 Q274.5645,22.5273 274.1455,22.3369 Q273.7266,22.1465 273.2813,22.1465 Q272.332,22.1465 271.8486,22.8994 Q271.3652,23.6523 271.3652,25.1348 Q271.3652,26.6113 271.8486,27.3643 Q272.332,28.1172 273.2813,28.1172 Q273.7266,28.1172 274.1455,27.9268 Q274.5645,27.7363 275.0098,27.3262 Z " fill="#CAD3F5"/><text fill="#A6DA95" font-family="Helvetica" font-size="16" lengthAdjust="spacing" textLength="33.7969" x="292.1758" y="29.3203">Lazy</text><rect fill="#24273A" height="14" style="stroke:#C6A0F6;stroke-width:1.0;stroke-dasharray:2.0,2.0;" width="10.0039" x="586.1484" y="7"/><text fill="#CAD3F5" font-family="Helvetica" font-size="12" font-style="italic" lengthAdjust="spacing" textLength="8.0039" x="587.1484" y="17.2402">A</text><line style="stroke:#C6A0F6;stroke-width:2.0;" x1="8" x2="592.1523" y1="40" y2="40"/><rect fill="none" height="6" style="stroke:#C82930;stroke-width:1.0;" width="6" x="15" y="48.5"/><text fill="#A6DA95" font-family="Helvetica" font-size="12" lengthAdjust="spacing" textLength="188.1328" x="26" y="53.2402">transient volatile boolean evaluated</text><rect fill="none" height="6" style="stroke:#C82930;stroke-width:1.0;" width="6" x="15" y="60.5"/><text fill="#A6DA95" font-family="Helvetica" font-size="12" lengthAdjust="spacing" textLength="98.9004" x="26" y="65.2402">@Nullable A value</text><rect fill="none" height="6" style="stroke:#C82930;stroke-width:1.0;" width="6" x="15" y="72.5"/><text fill="#A6DA95" font-family="Helvetica" font-size="12" lengthAdjust="spacing" textLength="169.6055" x="26" y="77.2402">@Nullable Throwable exception</text><rect fill="none" height="6" style="stroke:#C82930;stroke-width:1.0;" width="6" x="15" y="84.5"/><text fill="#A6DA95" font-family="Helvetica" font-size="12" lengthAdjust="spacing" textLength="304.3535" x="26" y="89.2402">@NonNull ThrowableSupplier&lt;? extends A&gt; computation</text><line style="stroke:#C6A0F6;stroke-width:2.0;" x1="8" x2="592.1523" y1="96" y2="96"/><rect fill="#F24D5C" height="6" style="stroke:#C82930;stroke-width:1.0;" width="6" x="15" y="104.5"/><text fill="#A6DA95" font-family="Helvetica" font-size="12" lengthAdjust="spacing" textLength="268.9863" x="26" y="109.2402">Lazy(@NonNull ThrowableSupplier&lt;? extends A&gt;)</text><text fill="#A6DA95" font-family="Helvetica" font-size="12" lengthAdjust="spacing" textLength="3.334" x="26" y="121.2402">&#160;</text><ellipse cx="18" cy="131.5" fill="#84BE84" rx="3" ry="3" style="stroke:#038048;stroke-width:1.0;"/><text fill="#A6DA95" font-family="Helvetica" font-size="12" lengthAdjust="spacing" text-decoration="underline" textLength="405.2461" x="26" y="133.2402">&lt;A&gt; @NonNull Lazy&lt;A&gt; defer(@NonNull ThrowableSupplier&lt;? extends A&gt;)</text><ellipse cx="18" cy="143.5" fill="#84BE84" rx="3" ry="3" style="stroke:#038048;stroke-width:1.0;"/><text fill="#A6DA95" font-family="Helvetica" font-size="12" lengthAdjust="spacing" text-decoration="underline" textLength="231.1406" x="26" y="145.2402">&lt;A&gt; @NonNull Lazy&lt;A&gt; now(@Nullable A)</text><text fill="#A6DA95" font-family="Helvetica" font-size="12" lengthAdjust="spacing" textLength="3.334" x="26" y="157.2402">&#160;</text><ellipse cx="18" cy="167.5" fill="#84BE84" rx="3" ry="3" style="stroke:#038048;stroke-width:1.0;"/><text fill="#A6DA95" font-family="Helvetica" font-size="12" lengthAdjust="spacing" textLength="202.9219" x="26" y="169.2402">@Nullable A force() throws Throwable</text><ellipse cx="18" cy="179.5" fill="#84BE84" rx="3" ry="3" style="stroke:#038048;stroke-width:1.0;"/><text fill="#A6DA95" font-family="Helvetica" font-size="12" font-weight="bold" lengthAdjust="spacing" textLength="87.7031" x="29.334" y="181.2402">@NonNull Lazy</text><text fill="#A6DA95" font-family="Helvetica" font-size="12" font-weight="bold" lengthAdjust="spacing" textLength="288.3867" x="120.3711" y="181.2402">map(@NonNull Function&lt;? super A, ? extends B&gt;)</text><ellipse cx="18" cy="191.5" fill="#84BE84" rx="3" ry="3" style="stroke:#038048;stroke-width:1.0;"/><text fill="#A6DA95" font-family="Helvetica" font-size="12" font-weight="bold" lengthAdjust="spacing" textLength="87.7031" x="29.334" y="193.2402">@NonNull Lazy</text><text fill="#A6DA95" font-family="Helvetica" font-size="12" font-weight="bold" lengthAdjust="spacing" textLength="466.7813" x="120.3711" y="193.2402">flatMap(@NonNull Function&lt;? super A, ? extends @NonNull Lazy&lt;? extends B&gt;&gt;)</text><ellipse cx="18" cy="203.5" fill="#84BE84" rx="3" ry="3" style="stroke:#038048;stroke-width:1.0;"/><text fill="#A6DA95" font-family="Helvetica" font-size="12" lengthAdjust="spacing" textLength="84.0293" x="26" y="205.2402">String toString()</text></g><!--link Lazy to ThrowableSupplier--><g id="link_Lazy_ThrowableSupplier"><path codeLine="24" d="M300.08,212.41 C300.08,239.34 300.08,260.33 300.08,279.71 " fill="none" id="Lazy-to-ThrowableSupplier" style="stroke:#F5BDE6;stroke-width:1.0;"/><polygon fill="#F5BDE6" points="300.08,285.71,304.08,276.71,300.08,280.71,296.08,276.71,300.08,285.71" style="stroke:#F5BDE6;stroke-width:1.0;"/><polygon fill="#CAD3F5" points="304.08,253,306.4311,245.7639,301.7289,245.7639,304.08,253" style="stroke:#CAD3F5;stroke-width:1.0;"/><text fill="#CAD3F5" font-family="Helvetica" font-size="12" lengthAdjust="spacing" textLength="25.3477" x="313.08" y="252.2402">uses</text></g><!--SRC=[ZPF1JW8n48Rl-nJZRGakUoS4XOCdzG8lCCpEiaswRTDEGIMyk-qQ0PL4Raqxtp___6tlb24T6uPEn8LfNNlSJxPAkhY9WJrP8snaGhQl3TaWM2cg2SMvIAHCrIDHfr1ivJGQYRskfEEUwnwLgOVbnANTeb19oRT83ElEsprkDA-YSrgndwtdS2Z6SC1D48yaHrZ3bgKSWUJQS4QAOr6GnX3W6J_UPuiCLf0W4rGo2ZkhKPHcs5Yh6Gtm3dL4uIQL7Lh5kZd2uslKEgl10l8nNpqxzGH-8tQYhFbHPqqklJBDGm9IQas0P2ybvwBWG2SykovlP4T5pYHac8wGPps1tyCttBA_NUy_EMFtvKKuWu7Bi5hhYQ_ToXXcozzwQQD7TpRt50tb69Ad41rxMDp3sTvoi7TLfKrN-dAxqa_-iiFGOYLUcIs8_LgKe_IaSYLKrVnlW325z0y2p8jF]--></g></svg>