<svg xmlns="http://www.w3.org/2000/svg" xmlns:xlink="http://www.w3.org/1999/xlink" contentStyleType="text/css" height="861px" preserveAspectRatio="none" style="width:1423px;height:861px;background:#24273A;" version="1.1" viewBox="0 0 1423 861" width="1423px" zoomAndPan="magnify"><defs/><g><rect fill="#24273A" height="861" style="stroke:none;stroke-width:1.0;" width="1423" x="0" y="0"/><!--class Monoid--><g id="elem_Monoid"><rect codeLine="7" fill="#24273A" height="62" id="Monoid" rx="1.5" ry="1.5" style="stroke:#C6A0F6;stroke-width:2.0;" width="140.998" x="645.4" y="792"/><rect fill="#363A4F" height="30" rx="1.5" ry="1.5" style="stroke:#363A4F;stroke-width:2.0;" width="140.998" x="645.4" y="792"/><rect fill="#363A4F" height="1.5" style="stroke:#363A4F;stroke-width:2.0;" width="140.998" x="645.4" y="820.5"/><rect codeLine="7" fill="none" height="62" id="Monoid" rx="1.5" ry="1.5" style="stroke:#C6A0F6;stroke-width:2.0;" width="140.998" x="645.4" y="792"/><ellipse cx="678.8379" cy="807" fill="#B4A7E5" rx="10" ry="10" style="stroke:#181818;stroke-width:1.0;"/><path d="M675.8457,804.2754 L675.8457,802.752 L681.0547,802.752 L681.0547,804.2754 L679.3145,804.2754 L679.3145,809.9766 L681.0547,809.9766 L681.0547,811.5 L675.8457,811.5 L675.8457,809.9766 L677.5859,809.9766 L677.5859,804.2754 Z " fill="#CAD3F5"/><text fill="#A6DA95" font-family="Helvetica" font-size="16" font-style="italic" lengthAdjust="spacing" textLength="52.4766" x="696.1574" y="811.3203">Monoid</text><rect fill="#24273A" height="14" style="stroke:#C6A0F6;stroke-width:1.0;stroke-dasharray:2.0,2.0;" width="13.3262" x="776.0719" y="789"/><text fill="#CAD3F5" font-family="Helvetica" font-size="12" font-style="italic" lengthAdjust="spacing" textLength="11.3262" x="777.0719" y="799.2402">W</text><line style="stroke:#C6A0F6;stroke-width:2.0;" x1="646.4" x2="785.398" y1="822" y2="822"/><ellipse cx="656.4" cy="833.5" fill="#84BE84" rx="3" ry="3" style="stroke:#038048;stroke-width:1.0;"/><text fill="#A6DA95" font-family="Helvetica" font-size="12" lengthAdjust="spacing" textLength="55.3301" x="664.4" y="835.2402">W empty()</text><ellipse cx="656.4" cy="845.5" fill="#84BE84" rx="3" ry="3" style="stroke:#038048;stroke-width:1.0;"/><text fill="#A6DA95" font-family="Helvetica" font-size="12" lengthAdjust="spacing" textLength="115.998" x="664.4" y="847.2402">W combine(W x, W y)</text></g><!--class Writer--><g id="elem_Writer"><rect codeLine="14" fill="#24273A" height="158" id="Writer" rx="1.5" ry="1.5" style="stroke:#C6A0F6;stroke-width:2.0;" width="401.1133" x="515.35" y="560"/><rect fill="#363A4F" height="38" rx="1.5" ry="1.5" style="stroke:#363A4F;stroke-width:2.0;" width="401.1133" x="515.35" y="560"/><rect fill="#363A4F" height="1.5" style="stroke:#363A4F;stroke-width:2.0;" width="401.1133" x="515.35" y="596.5"/><rect codeLine="14" fill="none" height="158" id="Writer" rx="1.5" ry="1.5" style="stroke:#C6A0F6;stroke-width:2.0;" width="401.1133" x="515.35" y="560"/><ellipse cx="675.227" cy="579" fill="#ADD1B2" rx="10" ry="10" style="stroke:#181818;stroke-width:1.0;"/><path d="M677.0609,583.248 Q676.6508,583.459 676.1996,583.5645 Q675.7484,583.6699 675.2504,583.6699 Q673.4809,583.6699 672.5492,582.5039 Q671.6176,581.3379 671.6176,579.1348 Q671.6176,576.9258 672.5492,575.7598 Q673.4809,574.5938 675.2504,574.5938 Q675.7484,574.5938 676.2055,574.6992 Q676.6625,574.8047 677.0609,575.0156 L677.0609,576.9375 Q676.6156,576.5273 676.1967,576.3369 Q675.7777,576.1465 675.3324,576.1465 Q674.3832,576.1465 673.8998,576.8994 Q673.4164,577.6523 673.4164,579.1348 Q673.4164,580.6113 673.8998,581.3643 Q674.3832,582.1172 675.3324,582.1172 Q675.7777,582.1172 676.1967,581.9268 Q676.6156,581.7363 677.0609,581.3262 Z " fill="#CAD3F5"/><text fill="#CAD3F5" font-family="Helvetica" font-size="12" font-style="italic" lengthAdjust="spacing" textLength="47.3613" x="692.227" y="574.2402">&#171;record&#187;</text><text fill="#A6DA95" font-family="Helvetica" font-size="16" lengthAdjust="spacing" textLength="42.6563" x="694.5795" y="589.3203">Writer</text><rect fill="#24273A" height="14" style="stroke:#C6A0F6;stroke-width:1.0;stroke-dasharray:2.0,2.0;" width="27.998" x="891.4652" y="557"/><text fill="#CAD3F5" font-family="Helvetica" font-size="12" font-style="italic" lengthAdjust="spacing" textLength="25.998" x="892.4652" y="567.2402">W, A</text><line style="stroke:#C6A0F6;stroke-width:2.0;" x1="516.35" x2="915.4633" y1="598" y2="598"/><ellipse cx="526.35" cy="609.5" fill="#84BE84" rx="3" ry="3" style="stroke:#038048;stroke-width:1.0;"/><text fill="#A6DA95" font-family="Helvetica" font-size="12" lengthAdjust="spacing" textLength="117.3516" x="534.35" y="611.2402">Writer(W log, A value)</text><ellipse cx="526.35" cy="637.5" fill="#84BE84" rx="3" ry="3" style="stroke:#038048;stroke-width:1.0;"/><text fill="#A6DA95" font-family="Helvetica" font-size="12" lengthAdjust="spacing" text-decoration="underline" textLength="194.0508" x="534.35" y="639.2402">Writer&lt;W, A&gt; create(W log, A value)</text><ellipse cx="526.35" cy="649.5" fill="#84BE84" rx="3" ry="3" style="stroke:#038048;stroke-width:1.0;"/><text fill="#A6DA95" font-family="Helvetica" font-size="12" lengthAdjust="spacing" text-decoration="underline" textLength="147.3809" x="534.35" y="651.2402">Writer&lt;W, A&gt; value(Monoid</text><text fill="#A6DA95" font-family="Helvetica" font-size="12" lengthAdjust="spacing" text-decoration="underline" textLength="101.373" x="685.0648" y="651.2402">monoidW, A value)</text><ellipse cx="526.35" cy="661.5" fill="#84BE84" rx="3" ry="3" style="stroke:#038048;stroke-width:1.0;"/><text fill="#A6DA95" font-family="Helvetica" font-size="12" lengthAdjust="spacing" text-decoration="underline" textLength="142.6816" x="534.35" y="663.2402">Writer&lt;W, Unit&gt; tell(W log)</text><ellipse cx="526.35" cy="673.5" fill="#84BE84" rx="3" ry="3" style="stroke:#038048;stroke-width:1.0;"/><text fill="#A6DA95" font-family="Helvetica" font-size="12" lengthAdjust="spacing" textLength="196.0605" x="534.35" y="675.2402">Writer&lt;W, B&gt; map(Function&lt;A, B&gt; f)</text><ellipse cx="526.35" cy="685.5" fill="#84BE84" rx="3" ry="3" style="stroke:#038048;stroke-width:1.0;"/><text fill="#A6DA95" font-family="Helvetica" font-size="12" lengthAdjust="spacing" textLength="158.0449" x="534.35" y="687.2402">Writer&lt;W, B&gt; flatMap(Monoid</text><text fill="#A6DA95" font-family="Helvetica" font-size="12" lengthAdjust="spacing" text-decoration="wavy underline" textLength="214.7344" x="695.7289" y="687.2402">monoidW, Function&lt;A, Writer&lt;W, B&gt;&gt; f)</text><ellipse cx="526.35" cy="697.5" fill="#84BE84" rx="3" ry="3" style="stroke:#038048;stroke-width:1.0;"/><text fill="#A6DA95" font-family="Helvetica" font-size="12" lengthAdjust="spacing" textLength="36.6738" x="534.35" y="699.2402">A run()</text><ellipse cx="526.35" cy="709.5" fill="#84BE84" rx="3" ry="3" style="stroke:#038048;stroke-width:1.0;"/><text fill="#A6DA95" font-family="Helvetica" font-size="12" lengthAdjust="spacing" textLength="48" x="534.35" y="711.2402">W exec()</text><line style="stroke:#C6A0F6;stroke-width:2.0;" x1="516.35" x2="692.8939" y1="624" y2="624"/><text fill="#A6DA95" font-family="Helvetica" font-size="12" lengthAdjust="spacing" textLength="46.0254" x="692.8939" y="626.7402">Methods</text><line style="stroke:#C6A0F6;stroke-width:2.0;" x1="738.9193" x2="915.4633" y1="624" y2="624"/></g><!--class WriterKindHelper--><g id="elem_WriterKindHelper"><rect codeLine="27" fill="#24273A" height="122" id="WriterKindHelper" rx="1.5" ry="1.5" style="stroke:#C6A0F6;stroke-width:2.0;" width="359.8047" x="7" y="364"/><rect fill="#363A4F" height="30" rx="1.5" ry="1.5" style="stroke:#363A4F;stroke-width:2.0;" width="359.8047" x="7" y="364"/><rect fill="#363A4F" height="1.5" style="stroke:#363A4F;stroke-width:2.0;" width="359.8047" x="7" y="392.5"/><rect codeLine="27" fill="none" height="122" id="WriterKindHelper" rx="1.5" ry="1.5" style="stroke:#C6A0F6;stroke-width:2.0;" width="359.8047" x="7" y="364"/><ellipse cx="121.9961" cy="379" fill="#ADD1B2" rx="10" ry="10" style="stroke:#181818;stroke-width:1.0;"/><path d="M123.8301,383.248 Q123.4199,383.459 122.9688,383.5645 Q122.5176,383.6699 122.0195,383.6699 Q120.25,383.6699 119.3184,382.5039 Q118.3867,381.3379 118.3867,379.1348 Q118.3867,376.9258 119.3184,375.7598 Q120.25,374.5938 122.0195,374.5938 Q122.5176,374.5938 122.9746,374.6992 Q123.4316,374.8047 123.8301,375.0156 L123.8301,376.9375 Q123.3848,376.5273 122.9658,376.3369 Q122.5469,376.1465 122.1016,376.1465 Q121.1523,376.1465 120.6689,376.8994 Q120.1855,377.6523 120.1855,379.1348 Q120.1855,380.6113 120.6689,381.3643 Q121.1523,382.1172 122.1016,382.1172 Q122.5469,382.1172 122.9658,381.9268 Q123.3848,381.7363 123.8301,381.3262 Z " fill="#CAD3F5"/><text fill="#A6DA95" font-family="Helvetica" font-size="16" lengthAdjust="spacing" textLength="121.8125" x="140.9961" y="383.3203">WriterKindHelper</text><line style="stroke:#C6A0F6;stroke-width:2.0;" x1="8" x2="365.8047" y1="394" y2="394"/><ellipse cx="18" cy="405.5" fill="#84BE84" rx="3" ry="3" style="stroke:#038048;stroke-width:1.0;"/><text fill="#A6DA95" font-family="Helvetica" font-size="12" lengthAdjust="spacing" text-decoration="underline" textLength="249.0586" x="26" y="407.2402">Writer&lt;W, A&gt; narrow(Kind&lt;WriterKind.Witness</text><text fill="#A6DA95" font-family="Helvetica" font-size="12" lengthAdjust="spacing" text-decoration="underline" textLength="51.0234" x="275.0586" y="407.2402">, A&gt; kind)</text><ellipse cx="18" cy="417.5" fill="#84BE84" rx="3" ry="3" style="stroke:#038048;stroke-width:1.0;"/><text fill="#A6DA95" font-family="Helvetica" font-size="12" lengthAdjust="spacing" text-decoration="underline" textLength="133.043" x="26" y="419.2402">Kind&lt;WriterKind.Witness</text><text fill="#A6DA95" font-family="Helvetica" font-size="12" lengthAdjust="spacing" text-decoration="underline" textLength="169.0313" x="159.043" y="419.2402">, A&gt; widen(Writer&lt;W, A&gt; writer)</text><ellipse cx="18" cy="429.5" fill="#84BE84" rx="3" ry="3" style="stroke:#038048;stroke-width:1.0;"/><text fill="#A6DA95" font-family="Helvetica" font-size="12" lengthAdjust="spacing" text-decoration="underline" textLength="133.043" x="26" y="431.2402">Kind&lt;WriterKind.Witness</text><text fill="#A6DA95" font-family="Helvetica" font-size="12" lengthAdjust="spacing" text-decoration="underline" textLength="97.0547" x="159.043" y="431.2402">, A&gt; value(Monoid</text><text fill="#A6DA95" font-family="Helvetica" font-size="12" lengthAdjust="spacing" text-decoration="underline" textLength="101.373" x="259.4316" y="431.2402">monoidW, A value)</text><ellipse cx="18" cy="441.5" fill="#84BE84" rx="3" ry="3" style="stroke:#038048;stroke-width:1.0;"/><text fill="#A6DA95" font-family="Helvetica" font-size="12" lengthAdjust="spacing" text-decoration="underline" textLength="133.043" x="26" y="443.2402">Kind&lt;WriterKind.Witness</text><text fill="#A6DA95" font-family="Helvetica" font-size="12" lengthAdjust="spacing" text-decoration="underline" textLength="92.3555" x="159.043" y="443.2402">, Unit&gt; tell(W log)</text><ellipse cx="18" cy="453.5" fill="#84BE84" rx="3" ry="3" style="stroke:#038048;stroke-width:1.0;"/><text fill="#A6DA95" font-family="Helvetica" font-size="12" lengthAdjust="spacing" text-decoration="underline" textLength="261.7148" x="26" y="455.2402">Writer&lt;W, A&gt; runWriter(Kind&lt;WriterKind.Witness</text><text fill="#A6DA95" font-family="Helvetica" font-size="12" lengthAdjust="spacing" text-decoration="underline" textLength="51.0234" x="287.7148" y="455.2402">, A&gt; kind)</text><ellipse cx="18" cy="465.5" fill="#84BE84" rx="3" ry="3" style="stroke:#038048;stroke-width:1.0;"/><text fill="#A6DA95" font-family="Helvetica" font-size="12" lengthAdjust="spacing" text-decoration="underline" textLength="165.7207" x="26" y="467.2402">A run(Kind&lt;WriterKind.Witness</text><text fill="#A6DA95" font-family="Helvetica" font-size="12" lengthAdjust="spacing" text-decoration="underline" textLength="72.7031" x="191.7207" y="467.2402">, A&gt;, A&gt; kind)</text><ellipse cx="18" cy="477.5" fill="#84BE84" rx="3" ry="3" style="stroke:#038048;stroke-width:1.0;"/><text fill="#A6DA95" font-family="Helvetica" font-size="12" lengthAdjust="spacing" text-decoration="underline" textLength="177.0469" x="26" y="479.2402">W exec(Kind&lt;WriterKind.Witness</text><text fill="#A6DA95" font-family="Helvetica" font-size="12" lengthAdjust="spacing" text-decoration="underline" textLength="72.7031" x="203.0469" y="479.2402">, A&gt;, A&gt; kind)</text></g><!--class WriterFunctor--><g id="elem_WriterFunctor"><rect codeLine="37" fill="#24273A" height="50" id="WriterFunctor" rx="1.5" ry="1.5" style="stroke:#C6A0F6;stroke-width:2.0;" width="478.5098" x="627.65" y="98"/><rect fill="#363A4F" height="30" rx="1.5" ry="1.5" style="stroke:#363A4F;stroke-width:2.0;" width="478.5098" x="627.65" y="98"/><rect fill="#363A4F" height="1.5" style="stroke:#363A4F;stroke-width:2.0;" width="478.5098" x="627.65" y="126.5"/><rect codeLine="37" fill="none" height="50" id="WriterFunctor" rx="1.5" ry="1.5" style="stroke:#C6A0F6;stroke-width:2.0;" width="478.5098" x="627.65" y="98"/><ellipse cx="806.7926" cy="113" fill="#ADD1B2" rx="10" ry="10" style="stroke:#181818;stroke-width:1.0;"/><path d="M808.6266,117.248 Q808.2164,117.459 807.7652,117.5645 Q807.3141,117.6699 806.816,117.6699 Q805.0465,117.6699 804.1148,116.5039 Q803.1832,115.3379 803.1832,113.1348 Q803.1832,110.9258 804.1148,109.7598 Q805.0465,108.5938 806.816,108.5938 Q807.3141,108.5938 807.7711,108.6992 Q808.2281,108.8047 808.6266,109.0156 L808.6266,110.9375 Q808.1813,110.5273 807.7623,110.3369 Q807.3434,110.1465 806.898,110.1465 Q805.9488,110.1465 805.4654,110.8994 Q804.982,111.6523 804.982,113.1348 Q804.982,114.6113 805.4654,115.3643 Q805.9488,116.1172 806.898,116.1172 Q807.3434,116.1172 807.7623,115.9268 Q808.1813,115.7363 808.6266,115.3262 Z " fill="#CAD3F5"/><text fill="#A6DA95" font-family="Helvetica" font-size="16" lengthAdjust="spacing" textLength="96.8984" x="825.7926" y="117.3203">WriterFunctor</text><rect fill="#24273A" height="14" style="stroke:#C6A0F6;stroke-width:1.0;stroke-dasharray:2.0,2.0;" width="13.3262" x="1095.8336" y="95"/><text fill="#CAD3F5" font-family="Helvetica" font-size="12" font-style="italic" lengthAdjust="spacing" textLength="11.3262" x="1096.8336" y="105.2402">W</text><line style="stroke:#C6A0F6;stroke-width:2.0;" x1="628.65" x2="1105.1598" y1="128" y2="128"/><ellipse cx="638.65" cy="139.5" fill="#84BE84" rx="3" ry="3" style="stroke:#038048;stroke-width:1.0;"/><text fill="#A6DA95" font-family="Helvetica" font-size="12" lengthAdjust="spacing" textLength="133.043" x="646.65" y="141.2402">Kind&lt;WriterKind.Witness</text><text fill="#A6DA95" font-family="Helvetica" font-size="12" lengthAdjust="spacing" text-decoration="wavy underline" textLength="281.4492" x="779.693" y="141.2402">, B&gt; map(Function&lt;A, B&gt; f, Kind&lt;WriterKind.Witness</text><text fill="#A6DA95" font-family="Helvetica" font-size="12" lengthAdjust="spacing" text-decoration="wavy underline" textLength="39.0176" x="1061.1422" y="141.2402">, A&gt; fa)</text></g><!--class Functor--><g id="elem_Functor"><rect fill="#24273A" height="30" id="Functor" rx="1.5" ry="1.5" style="stroke:#C6A0F6;stroke-width:2.0;" width="84.2422" x="824.78" y="7"/><rect fill="#363A4F" height="30" rx="1.5" ry="1.5" style="stroke:#363A4F;stroke-width:2.0;" width="84.2422" x="824.78" y="7"/><rect fill="#363A4F" height="1.5" style="stroke:#363A4F;stroke-width:2.0;" width="84.2422" x="824.78" y="35.5"/><rect fill="none" height="30" id="Functor" rx="1.5" ry="1.5" style="stroke:#C6A0F6;stroke-width:2.0;" width="84.2422" x="824.78" y="7"/><ellipse cx="838.78" cy="22" fill="#B4A7E5" rx="10" ry="10" style="stroke:#181818;stroke-width:1.0;"/><path d="M835.7878,19.2754 L835.7878,17.752 L840.9968,17.752 L840.9968,19.2754 L839.2566,19.2754 L839.2566,24.9766 L840.9968,24.9766 L840.9968,26.5 L835.7878,26.5 L835.7878,24.9766 L837.528,24.9766 L837.528,19.2754 Z " fill="#CAD3F5"/><text fill="#A6DA95" font-family="Helvetica" font-size="16" font-style="italic" lengthAdjust="spacing" textLength="54.2422" x="851.78" y="26.3203">Functor</text></g><!--class WriterApplicative--><g id="elem_WriterApplicative"><rect codeLine="40" fill="#24273A" height="94" id="WriterApplicative" rx="1.5" ry="1.5" style="stroke:#C6A0F6;stroke-width:2.0;" width="618.5664" x="793.62" y="209"/><rect fill="#363A4F" height="30" rx="1.5" ry="1.5" style="stroke:#363A4F;stroke-width:2.0;" width="618.5664" x="793.62" y="209"/><rect fill="#363A4F" height="1.5" style="stroke:#363A4F;stroke-width:2.0;" width="618.5664" x="793.62" y="237.5"/><rect codeLine="40" fill="none" height="94" id="WriterApplicative" rx="1.5" ry="1.5" style="stroke:#C6A0F6;stroke-width:2.0;" width="618.5664" x="793.62" y="209"/><ellipse cx="1031.2245" cy="224" fill="#ADD1B2" rx="10" ry="10" style="stroke:#181818;stroke-width:1.0;"/><path d="M1033.0585,228.248 Q1032.6483,228.459 1032.1971,228.5645 Q1031.746,228.6699 1031.2479,228.6699 Q1029.4784,228.6699 1028.5468,227.5039 Q1027.6151,226.3379 1027.6151,224.1348 Q1027.6151,221.9258 1028.5468,220.7598 Q1029.4784,219.5938 1031.2479,219.5938 Q1031.746,219.5938 1032.203,219.6992 Q1032.66,219.8047 1033.0585,220.0156 L1033.0585,221.9375 Q1032.6132,221.5273 1032.1942,221.3369 Q1031.7753,221.1465 1031.33,221.1465 Q1030.3807,221.1465 1029.8973,221.8994 Q1029.4139,222.6523 1029.4139,224.1348 Q1029.4139,225.6113 1029.8973,226.3643 Q1030.3807,227.1172 1031.33,227.1172 Q1031.7753,227.1172 1032.1942,226.9268 Q1032.6132,226.7363 1033.0585,226.3262 Z " fill="#CAD3F5"/><text fill="#A6DA95" font-family="Helvetica" font-size="16" lengthAdjust="spacing" textLength="120.0313" x="1050.2245" y="228.3203">WriterApplicative</text><rect fill="#24273A" height="14" style="stroke:#C6A0F6;stroke-width:1.0;stroke-dasharray:2.0,2.0;" width="13.3262" x="1401.8602" y="206"/><text fill="#CAD3F5" font-family="Helvetica" font-size="12" font-style="italic" lengthAdjust="spacing" textLength="11.3262" x="1402.8602" y="216.2402">W</text><line style="stroke:#C6A0F6;stroke-width:2.0;" x1="794.62" x2="1411.1864" y1="239" y2="239"/><polygon fill="none" points="804.62,245.5,808.62,249.5,804.62,253.5,800.62,249.5" style="stroke:#B38D22;stroke-width:1.0;"/><text fill="#A6DA95" font-family="Helvetica" font-size="12" lengthAdjust="spacing" textLength="122.0508" x="812.62" y="252.2402">monoidW: Monoid&lt;W&gt;</text><line style="stroke:#C6A0F6;stroke-width:2.0;" x1="794.62" x2="1411.1864" y1="259" y2="259"/><ellipse cx="804.62" cy="270.5" fill="#84BE84" rx="3" ry="3" style="stroke:#038048;stroke-width:1.0;"/><text fill="#A6DA95" font-family="Helvetica" font-size="12" lengthAdjust="spacing" textLength="133.377" x="812.62" y="272.2402">WriterApplicative(Monoid</text><text fill="#A6DA95" font-family="Helvetica" font-size="12" lengthAdjust="spacing" text-decoration="wavy underline" textLength="54.6797" x="949.3309" y="272.2402">monoidW)</text><ellipse cx="804.62" cy="282.5" fill="#84BE84" rx="3" ry="3" style="stroke:#038048;stroke-width:1.0;"/><text fill="#A6DA95" font-family="Helvetica" font-size="12" lengthAdjust="spacing" textLength="133.043" x="812.62" y="284.2402">Kind&lt;WriterKind.Witness</text><text fill="#A6DA95" font-family="Helvetica" font-size="12" lengthAdjust="spacing" text-decoration="wavy underline" textLength="83.0391" x="945.663" y="284.2402">, A&gt; of(A value)</text><ellipse cx="804.62" cy="294.5" fill="#84BE84" rx="3" ry="3" style="stroke:#038048;stroke-width:1.0;"/><text fill="#A6DA95" font-family="Helvetica" font-size="12" lengthAdjust="spacing" textLength="133.043" x="812.62" y="296.2402">Kind&lt;WriterKind.Witness</text><text fill="#A6DA95" font-family="Helvetica" font-size="12" lengthAdjust="spacing" text-decoration="wavy underline" textLength="175.4004" x="945.663" y="296.2402">, B&gt; ap(Kind&lt;WriterKind.Witness</text><text fill="#A6DA95" font-family="Helvetica" font-size="12" lengthAdjust="spacing" text-decoration="wavy underline" textLength="246.1055" x="1121.0634" y="296.2402">, Function&lt;A, B&gt;&gt; ff, Kind&lt;WriterKind.Witness</text><text fill="#A6DA95" font-family="Helvetica" font-size="12" lengthAdjust="spacing" text-decoration="wavy underline" textLength="39.0176" x="1367.1688" y="296.2402">, A&gt; fa)</text></g><!--class Applicative--><g id="elem_Applicative"><rect fill="#24273A" height="30" id="Applicative" rx="1.5" ry="1.5" style="stroke:#C6A0F6;stroke-width:2.0;" width="107.375" x="1141.21" y="108"/><rect fill="#363A4F" height="30" rx="1.5" ry="1.5" style="stroke:#363A4F;stroke-width:2.0;" width="107.375" x="1141.21" y="108"/><rect fill="#363A4F" height="1.5" style="stroke:#363A4F;stroke-width:2.0;" width="107.375" x="1141.21" y="136.5"/><rect fill="none" height="30" id="Applicative" rx="1.5" ry="1.5" style="stroke:#C6A0F6;stroke-width:2.0;" width="107.375" x="1141.21" y="108"/><ellipse cx="1155.21" cy="123" fill="#B4A7E5" rx="10" ry="10" style="stroke:#181818;stroke-width:1.0;"/><path d="M1152.2178,120.2754 L1152.2178,118.752 L1157.4268,118.752 L1157.4268,120.2754 L1155.6866,120.2754 L1155.6866,125.9766 L1157.4268,125.9766 L1157.4268,127.5 L1152.2178,127.5 L1152.2178,125.9766 L1153.958,125.9766 L1153.958,120.2754 Z " fill="#CAD3F5"/><text fill="#A6DA95" font-family="Helvetica" font-size="16" font-style="italic" lengthAdjust="spacing" textLength="77.375" x="1168.21" y="127.3203">Applicative</text></g><!--class WriterMonad--><g id="elem_WriterMonad"><rect codeLine="46" fill="#24273A" height="62" id="WriterMonad" rx="1.5" ry="1.5" style="stroke:#C6A0F6;stroke-width:2.0;" width="647.8984" x="401.95" y="394"/><rect fill="#363A4F" height="30" rx="1.5" ry="1.5" style="stroke:#363A4F;stroke-width:2.0;" width="647.8984" x="401.95" y="394"/><rect fill="#363A4F" height="1.5" style="stroke:#363A4F;stroke-width:2.0;" width="647.8984" x="401.95" y="422.5"/><rect codeLine="46" fill="none" height="62" id="WriterMonad" rx="1.5" ry="1.5" style="stroke:#C6A0F6;stroke-width:2.0;" width="647.8984" x="401.95" y="394"/><ellipse cx="668.4471" cy="409" fill="#ADD1B2" rx="10" ry="10" style="stroke:#181818;stroke-width:1.0;"/><path d="M670.2811,413.248 Q669.8709,413.459 669.4197,413.5645 Q668.9686,413.6699 668.4705,413.6699 Q666.701,413.6699 665.7693,412.5039 Q664.8377,411.3379 664.8377,409.1348 Q664.8377,406.9258 665.7693,405.7598 Q666.701,404.5938 668.4705,404.5938 Q668.9686,404.5938 669.4256,404.6992 Q669.8826,404.8047 670.2811,405.0156 L670.2811,406.9375 Q669.8357,406.5273 669.4168,406.3369 Q668.9979,406.1465 668.5525,406.1465 Q667.6033,406.1465 667.1199,406.8994 Q666.6365,407.6523 666.6365,409.1348 Q666.6365,410.6113 667.1199,411.3643 Q667.6033,412.1172 668.5525,412.1172 Q668.9979,412.1172 669.4168,411.9268 Q669.8357,411.7363 670.2811,411.3262 Z " fill="#CAD3F5"/><text fill="#A6DA95" font-family="Helvetica" font-size="16" lengthAdjust="spacing" textLength="91.5781" x="687.4471" y="413.3203">WriterMonad</text><rect fill="#24273A" height="14" style="stroke:#C6A0F6;stroke-width:1.0;stroke-dasharray:2.0,2.0;" width="13.3262" x="1039.5223" y="391"/><text fill="#CAD3F5" font-family="Helvetica" font-size="12" font-style="italic" lengthAdjust="spacing" textLength="11.3262" x="1040.5223" y="401.2402">W</text><line style="stroke:#C6A0F6;stroke-width:2.0;" x1="402.95" x2="1048.8484" y1="424" y2="424"/><ellipse cx="412.95" cy="435.5" fill="#84BE84" rx="3" ry="3" style="stroke:#038048;stroke-width:1.0;"/><text fill="#A6DA95" font-family="Helvetica" font-size="12" lengthAdjust="spacing" textLength="112.0371" x="420.95" y="437.2402">WriterMonad(Monoid</text><text fill="#A6DA95" font-family="Helvetica" font-size="12" lengthAdjust="spacing" text-decoration="wavy underline" textLength="54.6797" x="536.3211" y="437.2402">monoidW)</text><ellipse cx="412.95" cy="447.5" fill="#84BE84" rx="3" ry="3" style="stroke:#038048;stroke-width:1.0;"/><text fill="#A6DA95" font-family="Helvetica" font-size="12" lengthAdjust="spacing" textLength="133.043" x="420.95" y="449.2402">Kind&lt;WriterKind.Witness</text><text fill="#A6DA95" font-family="Helvetica" font-size="12" lengthAdjust="spacing" text-decoration="wavy underline" textLength="269.1094" x="553.993" y="449.2402">, A&gt; flatMap(Function&lt;A, Kind&lt;WriterKind.Witness</text><text fill="#A6DA95" font-family="Helvetica" font-size="12" lengthAdjust="spacing" text-decoration="wavy underline" textLength="175.0664" x="823.1023" y="449.2402">, B&gt;&gt; f, Kind&lt;WriterKind.Witness</text><text fill="#A6DA95" font-family="Helvetica" font-size="12" lengthAdjust="spacing" text-decoration="wavy underline" textLength="45.6797" x="998.1688" y="449.2402">, A&gt; ma)</text></g><!--class Monad--><g id="elem_Monad"><rect fill="#24273A" height="30" id="Monad" rx="1.5" ry="1.5" style="stroke:#C6A0F6;stroke-width:2.0;" width="78.9219" x="679.44" y="241"/><rect fill="#363A4F" height="30" rx="1.5" ry="1.5" style="stroke:#363A4F;stroke-width:2.0;" width="78.9219" x="679.44" y="241"/><rect fill="#363A4F" height="1.5" style="stroke:#363A4F;stroke-width:2.0;" width="78.9219" x="679.44" y="269.5"/><rect fill="none" height="30" id="Monad" rx="1.5" ry="1.5" style="stroke:#C6A0F6;stroke-width:2.0;" width="78.9219" x="679.44" y="241"/><ellipse cx="693.44" cy="256" fill="#B4A7E5" rx="10" ry="10" style="stroke:#181818;stroke-width:1.0;"/><path d="M690.4478,253.2754 L690.4478,251.752 L695.6568,251.752 L695.6568,253.2754 L693.9166,253.2754 L693.9166,258.9766 L695.6568,258.9766 L695.6568,260.5 L690.4478,260.5 L690.4478,258.9766 L692.188,258.9766 L692.188,253.2754 Z " fill="#CAD3F5"/><text fill="#A6DA95" font-family="Helvetica" font-size="16" font-style="italic" lengthAdjust="spacing" textLength="48.9219" x="706.44" y="260.3203">Monad</text></g><!--class WriterKind--><g id="elem_WriterKind"><rect fill="#24273A" height="30" id="WriterKind" rx="1.5" ry="1.5" style="stroke:#C6A0F6;stroke-width:2.0;" width="104.6797" x="349.56" y="624"/><rect fill="#363A4F" height="30" rx="1.5" ry="1.5" style="stroke:#363A4F;stroke-width:2.0;" width="104.6797" x="349.56" y="624"/><rect fill="#363A4F" height="1.5" style="stroke:#363A4F;stroke-width:2.0;" width="104.6797" x="349.56" y="652.5"/><rect fill="none" height="30" id="WriterKind" rx="1.5" ry="1.5" style="stroke:#C6A0F6;stroke-width:2.0;" width="104.6797" x="349.56" y="624"/><ellipse cx="363.56" cy="639" fill="#ADD1B2" rx="10" ry="10" style="stroke:#181818;stroke-width:1.0;"/><path d="M365.394,643.248 Q364.9838,643.459 364.5327,643.5645 Q364.0815,643.6699 363.5834,643.6699 Q361.8139,643.6699 360.8823,642.5039 Q359.9506,641.3379 359.9506,639.1348 Q359.9506,636.9258 360.8823,635.7598 Q361.8139,634.5938 363.5834,634.5938 Q364.0815,634.5938 364.5385,634.6992 Q364.9955,634.8047 365.394,635.0156 L365.394,636.9375 Q364.9487,636.5273 364.5297,636.3369 Q364.1108,636.1465 363.6655,636.1465 Q362.7163,636.1465 362.2329,636.8994 Q361.7495,637.6523 361.7495,639.1348 Q361.7495,640.6113 362.2329,641.3643 Q362.7163,642.1172 363.6655,642.1172 Q364.1108,642.1172 364.5297,641.9268 Q364.9487,641.7363 365.394,641.3262 Z " fill="#CAD3F5"/><text fill="#A6DA95" font-family="Helvetica" font-size="16" lengthAdjust="spacing" textLength="74.6797" x="376.56" y="643.3203">WriterKind</text></g><!--reverse link Functor to WriterFunctor--><g id="link_Functor_WriterFunctor"><path d="M866.9,55.18 C866.9,70.9 866.9,78.54 866.9,97.51 " fill="none" id="Functor-backto-WriterFunctor" style="stroke:#F5BDE6;stroke-width:1.0;stroke-dasharray:7.0,7.0;"/><polygon fill="none" points="866.9,37.18,860.9,55.18,872.9,55.18,866.9,37.18" style="stroke:#F5BDE6;stroke-width:1.0;"/></g><!--reverse link WriterFunctor to WriterApplicative--><g id="link_WriterFunctor_WriterApplicative"><path d="M926.758,157.2259 C957.168,174.1059 982.81,188.34 1019.36,208.63 " fill="none" id="WriterFunctor-backto-WriterApplicative" style="stroke:#F5BDE6;stroke-width:1.0;"/><polygon fill="none" points="911.02,148.49,923.8461,162.4719,929.67,151.9799,911.02,148.49" style="stroke:#F5BDE6;stroke-width:1.0;"/></g><!--reverse link Applicative to WriterApplicative--><g id="link_Applicative_WriterApplicative"><path d="M1174.533,152.9989 C1162.703,169.8389 1152.78,183.97 1135.36,208.78 " fill="none" id="Applicative-backto-WriterApplicative" style="stroke:#F5BDE6;stroke-width:1.0;stroke-dasharray:7.0,7.0;"/><polygon fill="none" points="1184.88,138.27,1169.6234,149.5499,1179.4427,156.4479,1184.88,138.27" style="stroke:#F5BDE6;stroke-width:1.0;"/></g><!--reverse link WriterApplicative to WriterMonad--><g id="link_WriterApplicative_WriterMonad"><path d="M981.9319,310.5891 C916.8819,339.3991 851.52,368.35 794.6,393.57 " fill="none" id="WriterApplicative-backto-WriterMonad" style="stroke:#F5BDE6;stroke-width:1.0;"/><polygon fill="none" points="998.39,303.3,979.5022,305.1031,984.3616,316.0752,998.39,303.3" style="stroke:#F5BDE6;stroke-width:1.0;"/></g><!--reverse link Monad to WriterMonad--><g id="link_Monad_WriterMonad"><path d="M720.2535,289.2242 C721.3835,316.1942 723.11,357.31 724.63,393.58 " fill="none" id="Monad-backto-WriterMonad" style="stroke:#F5BDE6;stroke-width:1.0;stroke-dasharray:7.0,7.0;"/><polygon fill="none" points="719.5,271.24,714.2588,289.4754,726.2483,288.9731,719.5,271.24" style="stroke:#F5BDE6;stroke-width:1.0;"/></g><!--link WriterApplicative to Monoid--><g id="link_WriterApplicative_Monoid"><path codeLine="52" d="M1099.6662,315.3567 C1096.1462,362.4867 1088.34,425.07 1066.9,486 C1027.46,598.12 1020.84,636.96 933.9,718 C892.03,757.03 838.4827,781.9705 792.3327,798.6505 " fill="none" id="WriterApplicative-Monoid" style="stroke:#F5BDE6;stroke-width:1.0;"/><polygon fill="#F5BDE6" points="1100.56,303.39,1096.1242,309.0754,1099.6662,315.3567,1104.102,309.6713,1100.56,303.39" style="stroke:#F5BDE6;stroke-width:1.0;"/><polygon fill="#F5BDE6" points="786.69,800.69,796.5138,801.3926,791.3923,798.9905,793.7945,793.869,786.69,800.69" style="stroke:#F5BDE6;stroke-width:1.0;"/><polygon fill="#CAD3F5" points="1058.1936,526.3753,1064.0605,521.5309,1060.0925,519.0077,1058.1936,526.3753" style="stroke:#CAD3F5;stroke-width:1.0;"/><text fill="#CAD3F5" font-family="Helvetica" font-size="12" lengthAdjust="spacing" textLength="25.3477" x="1069.34" y="526.2402">uses</text></g><!--link WriterKindHelper to Writer--><g id="link_WriterKindHelper_Writer"><path codeLine="54" d="M292.01,486.43 C320.67,501.7 352.06,517.33 381.9,530 C389.37,533.17 442.7185,550.5518 509.1485,571.9318 " fill="none" id="WriterKindHelper-to-Writer" style="stroke:#F5BDE6;stroke-width:1.0;stroke-dasharray:7.0,7.0;"/><polygon fill="#F5BDE6" points="514.86,573.77,507.5182,567.205,510.1004,572.2382,505.0673,574.8204,514.86,573.77" style="stroke:#F5BDE6;stroke-width:1.0;"/><text fill="#CAD3F5" font-family="Helvetica" font-size="12" lengthAdjust="spacing" textLength="83.3672" x="382.9" y="526.2402">widens/narrows</text></g><!--link WriterKindHelper to WriterKind--><g id="link_WriterKindHelper_WriterKind"><path codeLine="55" d="M201.9,486.29 C207.67,501.64 215.47,517.35 225.9,530 C228.7,533.39 325.2414,591.8024 372.7514,620.4424 " fill="none" id="WriterKindHelper-to-WriterKind" style="stroke:#F5BDE6;stroke-width:1.0;stroke-dasharray:7.0,7.0;"/><polygon fill="#F5BDE6" points="377.89,623.54,372.2473,615.4679,373.6079,620.9586,368.1171,622.3193,377.89,623.54" style="stroke:#F5BDE6;stroke-width:1.0;"/><text fill="#CAD3F5" font-family="Helvetica" font-size="12" lengthAdjust="spacing" textLength="83.3672" x="226.9" y="526.2402">widens/narrows</text></g><!--link WriterKindHelper to Monoid--><g id="link_WriterKindHelper_Monoid"><path codeLine="56" d="M179.67,486.35 C175.38,552.23 179.72,656.5 238.9,718 C294.22,775.49 520.1475,804.0862 639.0075,815.5062 " fill="none" id="WriterKindHelper-to-Monoid" style="stroke:#F5BDE6;stroke-width:1.0;stroke-dasharray:7.0,7.0;"/><polygon fill="#F5BDE6" points="644.98,816.08,636.4038,811.2376,640.0029,815.6018,635.6387,819.2009,644.98,816.08" style="stroke:#F5BDE6;stroke-width:1.0;"/><text fill="#CAD3F5" font-family="Helvetica" font-size="12" lengthAdjust="spacing" textLength="91.3711" x="239.9" y="642.2402">uses for factories</text></g><!--link WriterMonad to WriterKind--><g id="link_WriterMonad_WriterKind"><path codeLine="58" d="M606.72,456.4 C566.99,470.3 524.15,489.68 489.9,516 C450.56,546.23 423.8241,593.4239 411.2741,618.5139 " fill="none" id="WriterMonad-to-WriterKind" style="stroke:#F5BDE6;stroke-width:1.0;stroke-dasharray:7.0,7.0;"/><polygon fill="#F5BDE6" points="408.59,623.88,416.1936,617.6202,410.8268,619.4082,409.0388,614.0414,408.59,623.88" style="stroke:#F5BDE6;stroke-width:1.0;"/><text fill="#CAD3F5" font-family="Helvetica" font-size="12" lengthAdjust="spacing" textLength="199.7578" x="490.9" y="526.2402">operates on Kind&lt;WriterKind.Witness</text><text fill="#CAD3F5" font-family="Helvetica" font-size="12" lengthAdjust="spacing" text-decoration="wavy underline" textLength="21.6797" x="690.6578" y="526.2402">, A&gt;</text></g><!--link WriterMonad to Writer--><g id="link_WriterMonad_Writer"><path codeLine="59" d="M724.47,456.37 C723.2,483.28 721.5721,517.7566 719.8821,553.6666 " fill="none" id="WriterMonad-to-Writer" style="stroke:#F5BDE6;stroke-width:1.0;stroke-dasharray:7.0,7.0;"/><polygon fill="#F5BDE6" points="719.6,559.66,724.0187,550.858,719.8351,554.6655,716.0275,550.4819,719.6,559.66" style="stroke:#F5BDE6;stroke-width:1.0;"/><text fill="#CAD3F5" font-family="Helvetica" font-size="12" lengthAdjust="spacing" textLength="88.0488" x="722.5" y="526.2402">uses methods of</text></g><!--link Writer to Monoid--><g id="link_Writer_Monoid"><path codeLine="60" d="M715.9,718.24 C715.9,744.25 715.9,765.69 715.9,785.81 " fill="none" id="Writer-to-Monoid" style="stroke:#F5BDE6;stroke-width:1.0;stroke-dasharray:7.0,7.0;"/><polygon fill="#F5BDE6" points="715.9,791.81,719.9,782.81,715.9,786.81,711.9,782.81,715.9,791.81" style="stroke:#F5BDE6;stroke-width:1.0;"/><text fill="#CAD3F5" font-family="Helvetica" font-size="12" lengthAdjust="spacing" textLength="117.3926" x="716.9" y="758.2402">uses for flatMap/value</text></g><!--SRC=[fLLDZvim4BtpAwRgeQGRu1v5IAcggbALOyLnvPXXiGesiiqcgrN-UuUF45W2ONTlPdZpPkRDUFn5I9wLCK9gRM4sGQ3PqNyIDYqFfK7DbRGehSzL7aYkZ6MUu05djYXApeNqSiPvAfXLNf4nQSiyysoAEGOv4pAeZtv1LiTnKa5XC2_i2-IO7r0Rnm40GH5qmZZ2NaabucqKmclr0-01eiR1NLqDbCf1I7GZEAtfywN-TIR-6i8pPWn4MX3fDbh3BeJjLYDNEWuxteQfnX1Dffu81yyiAt7L0HuVOOysLR6XezDvlP84Ll3pC0JNo2nESKrvrIZtMdLUdwA517-bi25OpB8cRWzz1VqWLbQulqh9hL1okwjDoHGsoPZT4_v6JdsAli-GRGUwb6wV7l24lBMSRpJfZv3nRymAr5rtflIIJ6jrT2kFxTNPZuILQ0nbMwF-aMqrPhhZTQJXbEuWtB7-U3_LqhOkP9pgyvHAr81sj3ycLDF2UTyv_xRZxo8uZ-UYdZUbAm55NcIqHwGrq5bl4VVkzyEif1EtOdslimcxfFissrrHP8BMedZ6AcCyqTQCvqiPkDmfv-jbY3RN9Vds2lVuniEtMYOCrQWITxn-xeX9MiuXXZgJZ9zHcafZyLZZDmtewTmwTA6QQpAObHxpPwIxRCz-lVFABHcwl9F2-GO_iQ2YKNA1nXbL3jyzBsmd13P03xY1q756YzRtmxPcGjMRpmJDSZLpuCguq66OGw8qTRIw0rNQJa_kCRiY2dfB3IXvHva9dalGl7szLT82fn9hkXRKC-_y1m00]--></g></svg>