<svg xmlns="http://www.w3.org/2000/svg" xmlns:xlink="http://www.w3.org/1999/xlink" contentStyleType="text/css" data-diagram-type="CLASS" height="818px" preserveAspectRatio="none" style="width:1494px;height:818px;background:#24273A;" version="1.1" viewBox="0 0 1494 818" width="1494px" zoomAndPan="magnify"><title>Each Typeclass - Canonical Element-Wise Traversal</title><defs/><g><rect fill="#24273A" height="818" style="stroke:none;stroke-width:1;" width="1494" x="0" y="0"/><g class="title" data-source-line="4"><text fill="#CAD3F5" font-family="Helvetica" font-size="14" font-weight="bold" lengthAdjust="spacing" textLength="350.6987" x="564.6507" y="24.9659">Each Typeclass - Canonical Element-Wise Traversal</text></g><!--cluster Each Typeclass--><g class="cluster" data-entity="Each Typeclass" data-source-line="6" data-uid="ent0002" id="cluster_Each Typeclass"><path d="M660.5,307.2839 L752.0486,307.2839 A2.25,2.25 0 0 1 753.5486,308.7839 L760.5486,329.6281 L1228.5,329.6281 A1.5,1.5 0 0 1 1230,331.1281 L1230,486.2939 A1.5,1.5 0 0 1 1228.5,487.7939 L660.5,487.7939 A1.5,1.5 0 0 1 659,486.2939 L659,308.7839 A1.5,1.5 0 0 1 660.5,307.2839" fill="#24273A" style="stroke:#CAD3F5;stroke-width:1.5;"/><line style="stroke:#CAD3F5;stroke-width:1.5;" x1="659" x2="760.5486" y1="329.6281" y2="329.6281"/><text fill="#CAD3F5" font-family="Helvetica" font-size="12" font-weight="bold" lengthAdjust="spacing" textLength="88.5486" x="663" y="322.112">Each Typeclass</text></g><!--cluster Available Instances--><g class="cluster" data-entity="Available Instances" data-source-line="22" data-uid="ent0007" id="cluster_Available Instances"><path d="M7.5,46.0839 L126.7088,46.0839 A2.25,2.25 0 0 1 128.2088,47.5839 L135.2088,68.4281 L633.5,68.4281 A1.5,1.5 0 0 1 635,69.9281 L635,451.0539 A1.5,1.5 0 0 1 633.5,452.5539 L7.5,452.5539 A1.5,1.5 0 0 1 6,451.0539 L6,47.5839 A1.5,1.5 0 0 1 7.5,46.0839" fill="#24273A" style="stroke:#CAD3F5;stroke-width:1.5;"/><line style="stroke:#CAD3F5;stroke-width:1.5;" x1="6" x2="135.2088" y1="68.4281" y2="68.4281"/><text fill="#CAD3F5" font-family="Helvetica" font-size="12" font-weight="bold" lengthAdjust="spacing" textLength="116.2088" x="10" y="60.912">Available Instances</text></g><!--cluster Core Optics--><g class="cluster" data-entity="Core Optics" data-source-line="52" data-uid="ent0016" id="cluster_Core Optics"><path d="M603.5,537.7939 L675.4405,537.7939 A2.25,2.25 0 0 1 676.9405,539.2939 L683.9405,560.1381 L856.5,560.1381 A1.5,1.5 0 0 1 858,561.6381 L858,809.9139 A1.5,1.5 0 0 1 856.5,811.4139 L603.5,811.4139 A1.5,1.5 0 0 1 602,809.9139 L602,539.2939 A1.5,1.5 0 0 1 603.5,537.7939" fill="#24273A" style="stroke:#CAD3F5;stroke-width:1.5;"/><line style="stroke:#CAD3F5;stroke-width:1.5;" x1="602" x2="683.9405" y1="560.1381" y2="560.1381"/><text fill="#CAD3F5" font-family="Helvetica" font-size="12" font-weight="bold" lengthAdjust="spacing" textLength="68.9405" x="606" y="552.622">Core Optics</text></g><!--cluster Focus DSL Integration--><g class="cluster" data-entity="Focus DSL Integration" data-source-line="63" data-uid="ent0019" id="cluster_Focus DSL Integration"><path d="M660.5,86.9439 L795.0209,86.9439 A2.25,2.25 0 0 1 796.5209,88.4439 L803.5209,109.2881 L1485.5,109.2881 A1.5,1.5 0 0 1 1487,110.7881 L1487,216.9239 A1.5,1.5 0 0 1 1485.5,218.4239 L660.5,218.4239 A1.5,1.5 0 0 1 659,216.9239 L659,88.4439 A1.5,1.5 0 0 1 660.5,86.9439" fill="#24273A" style="stroke:#CAD3F5;stroke-width:1.5;"/><line style="stroke:#CAD3F5;stroke-width:1.5;" x1="659" x2="803.5209" y1="109.2881" y2="109.2881"/><text fill="#CAD3F5" font-family="Helvetica" font-size="12" font-weight="bold" lengthAdjust="spacing" textLength="131.5209" x="663" y="101.772">Focus DSL Integration</text></g><!--class Each--><g class="entity" data-entity="Each" data-source-line="7" data-uid="ent0003" id="entity_Each"><rect fill="#24273A" height="129.5126" rx="1.5" ry="1.5" style="stroke:#C6A0F6;stroke-width:2;" width="325.4581" x="675.27" y="342.2839"/><rect fill="#363A4F" height="31.792" rx="1.5" ry="1.5" style="stroke:#363A4F;stroke-width:2;" width="325.4581" x="675.27" y="342.2839"/><rect fill="#363A4F" height="1.5" style="stroke:#363A4F;stroke-width:2;" width="325.4581" x="675.27" y="372.576"/><rect fill="none" height="129.5126" rx="1.5" ry="1.5" style="stroke:#C6A0F6;stroke-width:2;" width="325.4581" x="675.27" y="342.2839"/><ellipse cx="805.5889" cy="358.18" fill="#B4A7E5" rx="10" ry="10" style="stroke:#181818;stroke-width:1;"/><path d="M803.1671,362.68 L803.1671,361.4768 L804.8389,361.2893 L804.8389,355.5081 L803.1671,355.305 L803.1671,354.1175 L808.2139,354.1175 L808.2139,355.305 L806.5108,355.5081 L806.5108,361.2893 L808.2139,361.4768 L808.2139,362.68 L803.1671,362.68 Z " fill="#CAD3F5"/><text fill="#A6DA95" font-family="Helvetica" font-size="16" font-style="italic" lengthAdjust="spacing" textLength="33.8241" x="824.5889" y="364.388">Each</text><rect fill="#24273A" height="18.3441" style="stroke:#C6A0F6;stroke-width:1;stroke-dasharray:2,2;" width="20.9961" x="982.7319" y="339.2839"/><text fill="#CAD3F5" font-family="Helvetica" font-size="12" font-style="italic" lengthAdjust="spacing" textLength="18.9961" x="983.7319" y="353.112">S, A</text><line style="stroke:#C6A0F6;stroke-width:2;" x1="676.27" x2="999.7281" y1="374.076" y2="374.076"/><ellipse cx="686.27" cy="387.748" fill="#84BE84" rx="3" ry="3" style="stroke:#038048;stroke-width:1;"/><text fill="#A6DA95" font-family="Helvetica" font-size="12" lengthAdjust="spacing" textLength="129.4089" x="694.27" y="390.9041">each() : Traversal&lt;S, A&gt;</text><ellipse cx="686.27" cy="404.0922" fill="#84BE84" rx="3" ry="3" style="stroke:#038048;stroke-width:1;"/><text fill="#A6DA95" font-family="Helvetica" font-size="12" lengthAdjust="spacing" textLength="84.6606" x="694.27" y="407.2482">eachWithIndex</text><text fill="#A6DA95" font-family="Helvetica" font-size="12" font-style="italic" lengthAdjust="spacing" textLength="210.6734" x="778.9306" y="407.2482">() : Optional&lt;IndexedTraversal&lt;I, S, A&gt;&gt;</text><ellipse cx="686.27" cy="420.4363" fill="#84BE84" rx="3" ry="3" style="stroke:#038048;stroke-width:1;"/><text fill="#A6DA95" font-family="Helvetica" font-size="12" lengthAdjust="spacing" textLength="158.9171" x="694.27" y="423.5923">supportsIndexed() : boolean</text><line style="stroke:#C6A0F6;stroke-width:1;" x1="676.27" x2="999.7281" y1="431.1083" y2="431.1083"/><ellipse cx="686.27" cy="444.7804" fill="#84BE84" rx="3" ry="3" style="stroke:#038048;stroke-width:1;"/><text fill="#A6DA95" font-family="Helvetica" font-size="12" lengthAdjust="spacing" text-decoration="underline" textLength="202.7654" x="694.27" y="447.9364">fromTraversal(trav: Traversal) : Each</text><ellipse cx="686.27" cy="461.1245" fill="#84BE84" rx="3" ry="3" style="stroke:#038048;stroke-width:1;"/><text fill="#A6DA95" font-family="Helvetica" font-size="12" lengthAdjust="spacing" text-decoration="underline" textLength="300.4581" x="694.27" y="464.2805">fromIndexedTraversal(iTrav: IndexedTraversal) : Each</text></g><g class="entity" data-entity="GMN4" data-source-line="17" data-uid="ent0005" id="entity_GMN4"><path d="M1035.76,387.1939 L1035.76,403.0439 L1001.12,407.0439 L1035.76,411.0439 L1035.76,426.8822 A1.5,1.5 0 0 0 1037.26,428.3822 L1212.7491,428.3822 A1.5,1.5 0 0 0 1214.2491,426.8822 L1214.2491,395.6939 L1204.2491,385.6939 L1037.26,385.6939 A1.5,1.5 0 0 0 1035.76,387.1939" fill="#EED49F" style="stroke:#24273A;stroke-width:0.5;"/><path d="M1204.2491,385.6939 L1204.2491,394.9439 A0.75,0.75 0 0 0 1204.9991,395.6939 L1214.2491,395.6939 L1204.2491,385.6939" fill="#EED49F" style="stroke:#24273A;stroke-width:0.5;"/><text fill="#24273A" font-family="Helvetica" font-size="12" lengthAdjust="spacing" textLength="157.4891" x="1041.76" y="403.522">Provides canonical traversal</text><text fill="#24273A" font-family="Helvetica" font-size="12" lengthAdjust="spacing" textLength="124.3089" x="1041.76" y="419.8661">for any container type</text></g><!--class EachInstances--><g class="entity" data-entity="EachInstances" data-source-line="23" data-uid="ent0008" id="entity_EachInstances"><rect fill="#24273A" height="162.2008" rx="1.5" ry="1.5" style="stroke:#C6A0F6;stroke-width:2;" width="272.5137" x="21.74" y="81.0839"/><rect fill="#363A4F" height="31.792" rx="1.5" ry="1.5" style="stroke:#363A4F;stroke-width:2;" width="272.5137" x="21.74" y="81.0839"/><rect fill="#363A4F" height="1.5" style="stroke:#363A4F;stroke-width:2;" width="272.5137" x="21.74" y="111.376"/><rect fill="none" height="162.2008" rx="1.5" ry="1.5" style="stroke:#C6A0F6;stroke-width:2;" width="272.5137" x="21.74" y="81.0839"/><ellipse cx="100.2847" cy="96.98" fill="#ADD1B2" rx="10" ry="10" style="stroke:#181818;stroke-width:1;"/><path d="M100.0035,101.605 Q98.7535,101.605 97.9566,101.0893 Q97.1597,100.5581 96.7691,99.605 Q96.3785,98.6518 96.3785,97.3706 Q96.3785,95.9487 96.8472,94.9331 Q97.316,93.9018 98.2222,93.355 Q99.1285,92.7925 100.441,92.7925 Q101.066,92.7925 101.5347,92.9175 Q102.0191,93.0425 102.5035,93.2768 L101.9254,94.7143 Q101.4879,94.48 101.0972,94.4018 Q100.7222,94.3237 100.3785,94.3237 Q99.5504,94.3237 99.0504,94.6987 Q98.566,95.0581 98.3472,95.73 Q98.1441,96.4018 98.1441,97.3081 Q98.1441,98.7143 98.6441,99.4018 Q99.1597,100.0737 100.2847,100.0737 Q100.7066,100.0737 101.1441,99.9643 Q101.5816,99.855 102.1754,99.5893 L102.1754,101.1518 Q101.6597,101.3862 101.0972,101.4956 Q100.5347,101.605 100.0035,101.605 Z " fill="#CAD3F5"/><text fill="#A6DA95" font-family="Helvetica" font-size="16" lengthAdjust="spacing" textLength="107.4242" x="119.2847" y="103.188">EachInstances</text><line style="stroke:#C6A0F6;stroke-width:2;" x1="22.74" x2="293.2537" y1="112.876" y2="112.876"/><line style="stroke:#C6A0F6;stroke-width:2;" x1="22.74" x2="293.2537" y1="120.876" y2="120.876"/><ellipse cx="32.74" cy="134.548" fill="#84BE84" rx="3" ry="3" style="stroke:#038048;stroke-width:1;"/><text fill="#A6DA95" font-family="Helvetica" font-size="12" lengthAdjust="spacing" text-decoration="underline" textLength="176.0772" x="40.74" y="137.7041">listEach&lt;A&gt;() : Each&lt;List&lt;A&gt;, A&gt;</text><ellipse cx="32.74" cy="150.8922" fill="#84BE84" rx="3" ry="3" style="stroke:#038048;stroke-width:1;"/><text fill="#A6DA95" font-family="Helvetica" font-size="12" lengthAdjust="spacing" text-decoration="underline" textLength="174.8772" x="40.74" y="154.0482">setEach&lt;A&gt;() : Each&lt;Set&lt;A&gt;, A&gt;</text><ellipse cx="32.74" cy="167.2363" fill="#84BE84" rx="3" ry="3" style="stroke:#038048;stroke-width:1;"/><text fill="#A6DA95" font-family="Helvetica" font-size="12" lengthAdjust="spacing" text-decoration="underline" textLength="247.5137" x="40.74" y="170.3923">mapValuesEach&lt;K,V&gt;() : Each&lt;Map&lt;K,V&gt;, V&gt;</text><ellipse cx="32.74" cy="183.5804" fill="#84BE84" rx="3" ry="3" style="stroke:#038048;stroke-width:1;"/><text fill="#A6DA95" font-family="Helvetica" font-size="12" lengthAdjust="spacing" text-decoration="underline" textLength="235.5976" x="40.74" y="186.7364">optionalEach&lt;A&gt;() : Each&lt;Optional&lt;A&gt;, A&gt;</text><ellipse cx="32.74" cy="199.9245" fill="#84BE84" rx="3" ry="3" style="stroke:#038048;stroke-width:1;"/><text fill="#A6DA95" font-family="Helvetica" font-size="12" lengthAdjust="spacing" text-decoration="underline" textLength="164.0051" x="40.74" y="203.0805">arrayEach&lt;A&gt;() : Each&lt;A[], A&gt;</text><ellipse cx="32.74" cy="216.2686" fill="#84BE84" rx="3" ry="3" style="stroke:#038048;stroke-width:1;"/><text fill="#A6DA95" font-family="Helvetica" font-size="12" lengthAdjust="spacing" text-decoration="underline" textLength="220.6935" x="40.74" y="219.4246">streamEach&lt;A&gt;() : Each&lt;Stream&lt;A&gt;, A&gt;</text><ellipse cx="32.74" cy="232.6127" fill="#84BE84" rx="3" ry="3" style="stroke:#038048;stroke-width:1;"/><text fill="#A6DA95" font-family="Helvetica" font-size="12" lengthAdjust="spacing" text-decoration="underline" textLength="244.2497" x="40.74" y="235.7688">stringCharsEach() : Each&lt;String, Character&gt;</text></g><!--class EachExtensions--><g class="entity" data-entity="EachExtensions" data-source-line="33" data-uid="ent0009" id="entity_EachExtensions"><rect fill="#24273A" height="113.1685" rx="1.5" ry="1.5" style="stroke:#C6A0F6;stroke-width:2;" width="289.4458" x="329.28" y="105.6039"/><rect fill="#363A4F" height="31.792" rx="1.5" ry="1.5" style="stroke:#363A4F;stroke-width:2;" width="289.4458" x="329.28" y="105.6039"/><rect fill="#363A4F" height="1.5" style="stroke:#363A4F;stroke-width:2;" width="289.4458" x="329.28" y="135.896"/><rect fill="none" height="113.1685" rx="1.5" ry="1.5" style="stroke:#C6A0F6;stroke-width:2;" width="289.4458" x="329.28" y="105.6039"/><ellipse cx="411.7468" cy="121.5" fill="#ADD1B2" rx="10" ry="10" style="stroke:#181818;stroke-width:1;"/><path d="M411.4655,126.125 Q410.2155,126.125 409.4186,125.6093 Q408.6218,125.0781 408.2311,124.125 Q407.8405,123.1718 407.8405,121.8906 Q407.8405,120.4687 408.3093,119.4531 Q408.778,118.4218 409.6843,117.875 Q410.5905,117.3125 411.903,117.3125 Q412.528,117.3125 412.9968,117.4375 Q413.4811,117.5625 413.9655,117.7968 L413.3874,119.2343 Q412.9499,119 412.5593,118.9218 Q412.1843,118.8437 411.8405,118.8437 Q411.0124,118.8437 410.5124,119.2187 Q410.028,119.5781 409.8093,120.25 Q409.6061,120.9218 409.6061,121.8281 Q409.6061,123.2343 410.1061,123.9218 Q410.6218,124.5937 411.7468,124.5937 Q412.1686,124.5937 412.6061,124.4843 Q413.0436,124.375 413.6374,124.1093 L413.6374,125.6718 Q413.1218,125.9062 412.5593,126.0156 Q411.9968,126.125 411.4655,126.125 Z " fill="#CAD3F5"/><text fill="#A6DA95" font-family="Helvetica" font-size="16" lengthAdjust="spacing" textLength="116.5122" x="430.7468" y="127.708">EachExtensions</text><line style="stroke:#C6A0F6;stroke-width:2;" x1="330.28" x2="617.7258" y1="137.396" y2="137.396"/><line style="stroke:#C6A0F6;stroke-width:2;" x1="330.28" x2="617.7258" y1="145.396" y2="145.396"/><ellipse cx="340.28" cy="159.068" fill="#84BE84" rx="3" ry="3" style="stroke:#038048;stroke-width:1;"/><text fill="#A6DA95" font-family="Helvetica" font-size="12" lengthAdjust="spacing" text-decoration="underline" textLength="216.4455" x="348.28" y="162.2241">maybeEach&lt;A&gt;() : Each&lt;Maybe&lt;A&gt;, A&gt;</text><ellipse cx="340.28" cy="175.4122" fill="#84BE84" rx="3" ry="3" style="stroke:#038048;stroke-width:1;"/><text fill="#A6DA95" font-family="Helvetica" font-size="12" lengthAdjust="spacing" text-decoration="underline" textLength="255.0017" x="348.28" y="178.5682">eitherRightEach&lt;L,R&gt;() : Each&lt;Either&lt;L,R&gt;, R&gt;</text><ellipse cx="340.28" cy="191.7563" fill="#84BE84" rx="3" ry="3" style="stroke:#038048;stroke-width:1;"/><text fill="#A6DA95" font-family="Helvetica" font-size="12" lengthAdjust="spacing" text-decoration="underline" textLength="217.2855" x="348.28" y="194.9123">trySuccessEach&lt;A&gt;() : Each&lt;Try&lt;A&gt;, A&gt;</text><ellipse cx="340.28" cy="208.1004" fill="#84BE84" rx="3" ry="3" style="stroke:#038048;stroke-width:1;"/><text fill="#A6DA95" font-family="Helvetica" font-size="12" lengthAdjust="spacing" text-decoration="underline" textLength="264.4458" x="348.28" y="211.2564">validatedEach&lt;E,A&gt;() : Each&lt;Validated&lt;E,A&gt;, A&gt;</text></g><g class="entity" data-entity="GMN10" data-source-line="41" data-uid="ent0011" id="entity_GMN10"><path d="M75.9,379.0239 L75.9,435.0563 A1.5,1.5 0 0 0 77.4,436.5563 L238.609,436.5563 A1.5,1.5 0 0 0 240.109,435.0563 L240.109,387.5239 L230.109,377.5239 L162,377.5239 L158,243.7139 L154,377.5239 L77.4,377.5239 A1.5,1.5 0 0 0 75.9,379.0239" fill="#EED49F" style="stroke:#24273A;stroke-width:0.5;"/><path d="M230.109,377.5239 L230.109,386.7739 A0.75,0.75 0 0 0 230.859,387.5239 L240.109,387.5239 L230.109,377.5239" fill="#EED49F" style="stroke:#24273A;stroke-width:0.5;"/><text fill="#24273A" font-family="Helvetica" font-size="12" lengthAdjust="spacing" textLength="110.1008" x="81.9" y="395.352">Java standard types</text><text fill="#24273A" font-family="Helvetica" font-size="12" lengthAdjust="spacing" textLength="143.209" x="81.9" y="411.6961">(with indexed support for</text><text fill="#24273A" font-family="Helvetica" font-size="12" lengthAdjust="spacing" textLength="131.2689" x="81.9" y="428.0403">List, Map, Array, String)</text></g><g class="entity" data-entity="GMN13" data-source-line="47" data-uid="ent0014" id="entity_GMN13"><path d="M404.63,387.1939 L404.63,426.8822 A1.5,1.5 0 0 0 406.13,428.3822 L541.8748,428.3822 A1.5,1.5 0 0 0 543.3748,426.8822 L543.3748,395.6939 L533.3748,385.6939 L478,385.6939 L474,219.2039 L470,385.6939 L406.13,385.6939 A1.5,1.5 0 0 0 404.63,387.1939" fill="#EED49F" style="stroke:#24273A;stroke-width:0.5;"/><path d="M533.3748,385.6939 L533.3748,394.9439 A0.75,0.75 0 0 0 534.1248,395.6939 L543.3748,395.6939 L533.3748,385.6939" fill="#EED49F" style="stroke:#24273A;stroke-width:0.5;"/><text fill="#24273A" font-family="Helvetica" font-size="12" lengthAdjust="spacing" textLength="84.3246" x="410.63" y="403.522">HKT core types</text><text fill="#24273A" font-family="Helvetica" font-size="12" lengthAdjust="spacing" textLength="117.7448" x="410.63" y="419.8661">(no indexed support)</text></g><!--class Traversal--><g class="entity" data-entity="Traversal" data-source-line="53" data-uid="ent0017" id="entity_Traversal"><rect fill="#24273A" height="64.1362" rx="1.5" ry="1.5" style="stroke:#C6A0F6;stroke-width:2;" width="221.4894" x="619.26" y="731.2739"/><rect fill="#363A4F" height="31.792" rx="1.5" ry="1.5" style="stroke:#363A4F;stroke-width:2;" width="221.4894" x="619.26" y="731.2739"/><rect fill="#363A4F" height="1.5" style="stroke:#363A4F;stroke-width:2;" width="221.4894" x="619.26" y="761.566"/><rect fill="none" height="64.1362" rx="1.5" ry="1.5" style="stroke:#C6A0F6;stroke-width:2;" width="221.4894" x="619.26" y="731.2739"/><ellipse cx="681.7946" cy="747.17" fill="#B4A7E5" rx="10" ry="10" style="stroke:#181818;stroke-width:1;"/><path d="M679.3727,751.67 L679.3727,750.4668 L681.0446,750.2793 L681.0446,744.4981 L679.3727,744.295 L679.3727,743.1075 L684.4196,743.1075 L684.4196,744.295 L682.7164,744.4981 L682.7164,750.2793 L684.4196,750.4668 L684.4196,751.67 L679.3727,751.67 Z " fill="#CAD3F5"/><text fill="#A6DA95" font-family="Helvetica" font-size="16" font-style="italic" lengthAdjust="spacing" textLength="65.4241" x="700.7946" y="753.378">Traversal</text><rect fill="#24273A" height="18.3441" style="stroke:#C6A0F6;stroke-width:1;stroke-dasharray:2,2;" width="20.9961" x="822.7532" y="728.2739"/><text fill="#CAD3F5" font-family="Helvetica" font-size="12" font-style="italic" lengthAdjust="spacing" textLength="18.9961" x="823.7532" y="742.102">S, A</text><line style="stroke:#C6A0F6;stroke-width:2;" x1="620.26" x2="839.7494" y1="763.066" y2="763.066"/><line style="stroke:#C6A0F6;stroke-width:2;" x1="620.26" x2="839.7494" y1="771.066" y2="771.066"/><ellipse cx="630.26" cy="784.738" fill="#84BE84" rx="3" ry="3" style="stroke:#038048;stroke-width:1;"/><text fill="#A6DA95" font-family="Helvetica" font-size="12" lengthAdjust="spacing" textLength="196.4894" x="638.26" y="787.8941">modifyF(f, source, app) : Kind&lt;F, S&gt;</text></g><!--class IndexedTraversal--><g class="entity" data-entity="IndexedTraversal" data-source-line="57" data-uid="ent0018" id="entity_IndexedTraversal"><rect fill="#24273A" height="80.4803" rx="1.5" ry="1.5" style="stroke:#C6A0F6;stroke-width:2;" width="224.5854" x="617.71" y="572.7939"/><rect fill="#363A4F" height="31.792" rx="1.5" ry="1.5" style="stroke:#363A4F;stroke-width:2;" width="224.5854" x="617.71" y="572.7939"/><rect fill="#363A4F" height="1.5" style="stroke:#363A4F;stroke-width:2;" width="224.5854" x="617.71" y="603.086"/><rect fill="none" height="80.4803" rx="1.5" ry="1.5" style="stroke:#C6A0F6;stroke-width:2;" width="224.5854" x="617.71" y="572.7939"/><ellipse cx="649.4458" cy="588.69" fill="#B4A7E5" rx="10" ry="10" style="stroke:#181818;stroke-width:1;"/><path d="M647.024,593.19 L647.024,591.9868 L648.6958,591.7993 L648.6958,586.0181 L647.024,585.815 L647.024,584.6275 L652.0708,584.6275 L652.0708,585.815 L650.3677,586.0181 L650.3677,591.7993 L652.0708,591.9868 L652.0708,593.19 L647.024,593.19 Z " fill="#CAD3F5"/><text fill="#A6DA95" font-family="Helvetica" font-size="16" font-style="italic" lengthAdjust="spacing" textLength="122.0962" x="666.3871" y="594.898">IndexedTraversal</text><rect fill="#24273A" height="18.3441" style="stroke:#C6A0F6;stroke-width:1;stroke-dasharray:2,2;" width="31.0762" x="814.2192" y="569.7939"/><text fill="#CAD3F5" font-family="Helvetica" font-size="12" font-style="italic" lengthAdjust="spacing" textLength="29.0762" x="815.2192" y="583.622">I, S, A</text><line style="stroke:#C6A0F6;stroke-width:2;" x1="618.71" x2="841.2954" y1="604.586" y2="604.586"/><line style="stroke:#C6A0F6;stroke-width:2;" x1="618.71" x2="841.2954" y1="612.586" y2="612.586"/><ellipse cx="628.71" cy="626.258" fill="#84BE84" rx="3" ry="3" style="stroke:#038048;stroke-width:1;"/><text fill="#A6DA95" font-family="Helvetica" font-size="12" lengthAdjust="spacing" textLength="199.5854" x="636.71" y="629.4141">imodifyF(f, source, app) : Kind&lt;F, S&gt;</text><ellipse cx="628.71" cy="642.6022" fill="#84BE84" rx="3" ry="3" style="stroke:#038048;stroke-width:1;"/><text fill="#A6DA95" font-family="Helvetica" font-size="12" lengthAdjust="spacing" textLength="166.9692" x="636.71" y="645.7582">asTraversal() : Traversal&lt;S, A&gt;</text></g><!--class FocusPath--><g class="entity" data-entity="FocusPath" data-source-line="64" data-uid="ent0020" id="entity_FocusPath"><rect fill="#24273A" height="80.4803" rx="1.5" ry="1.5" style="stroke:#C6A0F6;stroke-width:2;" width="242.3935" x="674.8" y="121.9439"/><rect fill="#363A4F" height="31.792" rx="1.5" ry="1.5" style="stroke:#363A4F;stroke-width:2;" width="242.3935" x="674.8" y="121.9439"/><rect fill="#363A4F" height="1.5" style="stroke:#363A4F;stroke-width:2;" width="242.3935" x="674.8" y="152.236"/><rect fill="none" height="80.4803" rx="1.5" ry="1.5" style="stroke:#C6A0F6;stroke-width:2;" width="242.3935" x="674.8" y="121.9439"/><ellipse cx="744.0986" cy="137.84" fill="#B4A7E5" rx="10" ry="10" style="stroke:#181818;stroke-width:1;"/><path d="M741.6767,142.34 L741.6767,141.1368 L743.3486,140.9493 L743.3486,135.1681 L741.6767,134.965 L741.6767,133.7775 L746.7236,133.7775 L746.7236,134.965 L745.0205,135.1681 L745.0205,140.9493 L746.7236,141.1368 L746.7236,142.34 L741.6767,142.34 Z " fill="#CAD3F5"/><text fill="#A6DA95" font-family="Helvetica" font-size="16" font-style="italic" lengthAdjust="spacing" textLength="72.8002" x="763.0986" y="144.048">FocusPath</text><rect fill="#24273A" height="18.3441" style="stroke:#C6A0F6;stroke-width:1;stroke-dasharray:2,2;" width="20.9961" x="899.1973" y="118.9439"/><text fill="#CAD3F5" font-family="Helvetica" font-size="12" font-style="italic" lengthAdjust="spacing" textLength="18.9961" x="900.1973" y="132.772">S, A</text><line style="stroke:#C6A0F6;stroke-width:2;" x1="675.8" x2="916.1935" y1="153.736" y2="153.736"/><line style="stroke:#C6A0F6;stroke-width:2;" x1="675.8" x2="916.1935" y1="161.736" y2="161.736"/><ellipse cx="685.8" cy="175.408" fill="#84BE84" rx="3" ry="3" style="stroke:#038048;stroke-width:1;"/><text fill="#A6DA95" font-family="Helvetica" font-size="12" lengthAdjust="spacing" textLength="154.153" x="693.8" y="178.5641">each() : TraversalPath&lt;S, E&gt;</text><ellipse cx="685.8" cy="191.7522" fill="#84BE84" rx="3" ry="3" style="stroke:#038048;stroke-width:1;"/><text fill="#A6DA95" font-family="Helvetica" font-size="12" lengthAdjust="spacing" textLength="217.3935" x="693.8" y="194.9082">each(Each&lt;A, B&gt;) : TraversalPath&lt;S, B&gt;</text></g><!--class AffinePath--><g class="entity" data-entity="AffinePath" data-source-line="69" data-uid="ent0021" id="entity_AffinePath"><rect fill="#24273A" height="80.4803" rx="1.5" ry="1.5" style="stroke:#C6A0F6;stroke-width:2;" width="242.3935" x="951.8" y="121.9439"/><rect fill="#363A4F" height="31.792" rx="1.5" ry="1.5" style="stroke:#363A4F;stroke-width:2;" width="242.3935" x="951.8" y="121.9439"/><rect fill="#363A4F" height="1.5" style="stroke:#363A4F;stroke-width:2;" width="242.3935" x="951.8" y="152.236"/><rect fill="none" height="80.4803" rx="1.5" ry="1.5" style="stroke:#C6A0F6;stroke-width:2;" width="242.3935" x="951.8" y="121.9439"/><ellipse cx="1020.8586" cy="137.84" fill="#B4A7E5" rx="10" ry="10" style="stroke:#181818;stroke-width:1;"/><path d="M1018.4367,142.34 L1018.4367,141.1368 L1020.1086,140.9493 L1020.1086,135.1681 L1018.4367,134.965 L1018.4367,133.7775 L1023.4836,133.7775 L1023.4836,134.965 L1021.7805,135.1681 L1021.7805,140.9493 L1023.4836,141.1368 L1023.4836,142.34 L1018.4367,142.34 Z " fill="#CAD3F5"/><text fill="#A6DA95" font-family="Helvetica" font-size="16" font-style="italic" lengthAdjust="spacing" textLength="73.2802" x="1039.8586" y="144.048">AffinePath</text><rect fill="#24273A" height="18.3441" style="stroke:#C6A0F6;stroke-width:1;stroke-dasharray:2,2;" width="20.9961" x="1176.1973" y="118.9439"/><text fill="#CAD3F5" font-family="Helvetica" font-size="12" font-style="italic" lengthAdjust="spacing" textLength="18.9961" x="1177.1973" y="132.772">S, A</text><line style="stroke:#C6A0F6;stroke-width:2;" x1="952.8" x2="1193.1935" y1="153.736" y2="153.736"/><line style="stroke:#C6A0F6;stroke-width:2;" x1="952.8" x2="1193.1935" y1="161.736" y2="161.736"/><ellipse cx="962.8" cy="175.408" fill="#84BE84" rx="3" ry="3" style="stroke:#038048;stroke-width:1;"/><text fill="#A6DA95" font-family="Helvetica" font-size="12" lengthAdjust="spacing" textLength="154.153" x="970.8" y="178.5641">each() : TraversalPath&lt;S, E&gt;</text><ellipse cx="962.8" cy="191.7522" fill="#84BE84" rx="3" ry="3" style="stroke:#038048;stroke-width:1;"/><text fill="#A6DA95" font-family="Helvetica" font-size="12" lengthAdjust="spacing" textLength="217.3935" x="970.8" y="194.9082">each(Each&lt;A, B&gt;) : TraversalPath&lt;S, B&gt;</text></g><!--class TraversalPath--><g class="entity" data-entity="TraversalPath" data-source-line="74" data-uid="ent0022" id="entity_TraversalPath"><rect fill="#24273A" height="80.4803" rx="1.5" ry="1.5" style="stroke:#C6A0F6;stroke-width:2;" width="242.3935" x="1228.8" y="121.9439"/><rect fill="#363A4F" height="31.792" rx="1.5" ry="1.5" style="stroke:#363A4F;stroke-width:2;" width="242.3935" x="1228.8" y="121.9439"/><rect fill="#363A4F" height="1.5" style="stroke:#363A4F;stroke-width:2;" width="242.3935" x="1228.8" y="152.236"/><rect fill="none" height="80.4803" rx="1.5" ry="1.5" style="stroke:#C6A0F6;stroke-width:2;" width="242.3935" x="1228.8" y="121.9439"/><ellipse cx="1285.4186" cy="137.84" fill="#B4A7E5" rx="10" ry="10" style="stroke:#181818;stroke-width:1;"/><path d="M1282.9967,142.34 L1282.9967,141.1368 L1284.6686,140.9493 L1284.6686,135.1681 L1282.9967,134.965 L1282.9967,133.7775 L1288.0436,133.7775 L1288.0436,134.965 L1286.3404,135.1681 L1286.3404,140.9493 L1288.0436,141.1368 L1288.0436,142.34 L1282.9967,142.34 Z " fill="#CAD3F5"/><text fill="#A6DA95" font-family="Helvetica" font-size="16" font-style="italic" lengthAdjust="spacing" textLength="98.1602" x="1304.4186" y="144.048">TraversalPath</text><rect fill="#24273A" height="18.3441" style="stroke:#C6A0F6;stroke-width:1;stroke-dasharray:2,2;" width="20.9961" x="1453.1973" y="118.9439"/><text fill="#CAD3F5" font-family="Helvetica" font-size="12" font-style="italic" lengthAdjust="spacing" textLength="18.9961" x="1454.1973" y="132.772">S, A</text><line style="stroke:#C6A0F6;stroke-width:2;" x1="1229.8" x2="1470.1935" y1="153.736" y2="153.736"/><line style="stroke:#C6A0F6;stroke-width:2;" x1="1229.8" x2="1470.1935" y1="161.736" y2="161.736"/><ellipse cx="1239.8" cy="175.408" fill="#84BE84" rx="3" ry="3" style="stroke:#038048;stroke-width:1;"/><text fill="#A6DA95" font-family="Helvetica" font-size="12" lengthAdjust="spacing" textLength="154.153" x="1247.8" y="178.5641">each() : TraversalPath&lt;S, E&gt;</text><ellipse cx="1239.8" cy="191.7522" fill="#84BE84" rx="3" ry="3" style="stroke:#038048;stroke-width:1;"/><text fill="#A6DA95" font-family="Helvetica" font-size="12" lengthAdjust="spacing" textLength="217.3935" x="1247.8" y="194.9082">each(Each&lt;A, B&gt;) : TraversalPath&lt;S, B&gt;</text></g><!--link Each to Traversal--><g class="link" data-entity-1="Each" data-entity-2="Traversal" data-source-line="80" data-uid="lnk23" id="link_Each_Traversal"><path codeLine="80" d="M876.69,472.0539 C881.36,482.3539 885.39,493.1439 888,503.7939 C899.66,551.3139 908.07,565.8539 860,653.2739 C842.4,685.2839 816.2846,708.4608 788.9446,727.3708" fill="none" id="Each-to-Traversal" style="stroke:#F5BDE6;stroke-width:1;"/><polygon fill="#F5BDE6" points="784.01,730.7839,793.6874,728.9541,788.1222,727.9397,789.1366,722.3745,784.01,730.7839" style="stroke:#F5BDE6;stroke-width:1;"/><text fill="#CAD3F5" font-family="Helvetica" font-size="12" lengthAdjust="spacing" textLength="33.8762" x="898.04" y="617.862">each()</text></g><!--link Each to IndexedTraversal--><g class="link" data-entity-1="Each" data-entity-2="IndexedTraversal" data-source-line="81" data-uid="lnk24" id="link_Each_IndexedTraversal"><path codeLine="81" d="M804.12,472.0239 C786.74,504.8639 768.9162,538.5206 753.8462,567.0006" fill="none" id="Each-to-IndexedTraversal" style="stroke:#F5BDE6;stroke-width:1;"/><polygon fill="#F5BDE6" points="751.04,572.3039,758.7849,566.2198,753.3785,567.8845,751.7138,562.4782,751.04,572.3039" style="stroke:#F5BDE6;stroke-width:1;"/><text fill="#CAD3F5" font-family="Helvetica" font-size="12" lengthAdjust="spacing" textLength="91.8606" x="788.24" y="517.622">eachWithIndex()</text></g><!--link IndexedTraversal to Traversal--><g class="link" data-entity-1="IndexedTraversal" data-entity-2="Traversal" data-source-line="82" data-uid="lnk25" id="link_IndexedTraversal_Traversal"><path codeLine="82" d="M730,653.3939 C730,677.5939 730,702.1839 730,724.7939" fill="none" id="IndexedTraversal-to-Traversal" style="stroke:#F5BDE6;stroke-width:1;"/><polygon fill="#F5BDE6" points="730,730.7939,734,721.7939,730,725.7939,726,721.7939,730,730.7939" style="stroke:#F5BDE6;stroke-width:1;"/><text fill="#CAD3F5" font-family="Helvetica" font-size="12" lengthAdjust="spacing" textLength="71.4365" x="731" y="697.102">asTraversal()</text></g><!--link EachInstances to Each--><g class="link" data-entity-1="EachInstances" data-entity-2="Each" data-source-line="84" data-uid="lnk26" id="link_EachInstances_Each"><path codeLine="84" d="M294.34,236.8039 C300.24,239.1339 306.15,241.3039 312,243.2839 C329.25,249.1139 617.76,293.4239 635,299.2839 C667.33,310.2839 684.8416,317.5103 715.0316,333.4003" fill="none" id="EachInstances-to-Each" style="stroke:#F5BDE6;stroke-width:1;stroke-dasharray:7,7;"/><polygon fill="none" points="730.96,341.7839,717.8261,328.0908,712.237,338.7098,730.96,341.7839" style="stroke:#F5BDE6;stroke-width:1;"/><text fill="#CAD3F5" font-family="Helvetica" font-size="12" lengthAdjust="spacing" textLength="41.0643" x="591.01" y="287.112">creates</text></g><!--link EachExtensions to Each--><g class="link" data-entity-1="EachExtensions" data-entity-2="Each" data-source-line="85" data-uid="lnk27" id="link_EachExtensions_Each"><path codeLine="85" d="M557.97,219.2039 C612.87,255.8339 669.7679,293.7921 726.9479,331.9521" fill="none" id="EachExtensions-to-Each" style="stroke:#F5BDE6;stroke-width:1;stroke-dasharray:7,7;"/><polygon fill="none" points="741.92,341.9439,730.2785,326.9614,723.6173,336.9428,741.92,341.9439" style="stroke:#F5BDE6;stroke-width:1;"/><text fill="#CAD3F5" font-family="Helvetica" font-size="12" lengthAdjust="spacing" textLength="41.0643" x="657" y="287.112">creates</text></g><!--link FocusPath to Each--><g class="link" data-entity-1="FocusPath" data-entity-2="Each" data-source-line="87" data-uid="lnk28" id="link_FocusPath_Each"><path codeLine="87" d="M802.84,202.7439 C809.35,240.3739 818.2274,291.7417 825.8674,335.9117" fill="none" id="FocusPath-to-Each" style="stroke:#F5BDE6;stroke-width:1;stroke-dasharray:7,7;"/><polygon fill="#F5BDE6" points="826.89,341.8239,829.2975,332.2739,826.0378,336.8971,821.4146,333.6374,826.89,341.8239" style="stroke:#F5BDE6;stroke-width:1;"/><text fill="#CAD3F5" font-family="Helvetica" font-size="12" lengthAdjust="spacing" textLength="25.6802" x="818" y="287.112">uses</text></g><!--link AffinePath to Each--><g class="link" data-entity-1="AffinePath" data-entity-2="Each" data-source-line="88" data-uid="lnk29" id="link_AffinePath_Each"><path codeLine="88" d="M1034.72,202.7439 C998.3,240.3739 947.0523,293.3421 904.3123,337.5121" fill="none" id="AffinePath-to-Each" style="stroke:#F5BDE6;stroke-width:1;stroke-dasharray:7,7;"/><polygon fill="#F5BDE6" points="900.14,341.8239,909.273,338.1377,903.6169,338.2307,903.5238,332.5746,900.14,341.8239" style="stroke:#F5BDE6;stroke-width:1;"/><text fill="#CAD3F5" font-family="Helvetica" font-size="12" lengthAdjust="spacing" textLength="25.6802" x="963.55" y="287.112">uses</text></g><!--link TraversalPath to Each--><g class="link" data-entity-1="TraversalPath" data-entity-2="Each" data-source-line="89" data-uid="lnk30" id="link_TraversalPath_Each"><path codeLine="89" d="M1289.16,202.8139 C1265.71,216.9239 1238.24,232.0839 1212,243.2839 C1129.46,278.5139 1100.37,263.6639 1018,299.2839 C990.49,311.1839 967.1794,323.4581 941.2294,338.7481" fill="none" id="TraversalPath-to-Each" style="stroke:#F5BDE6;stroke-width:1;stroke-dasharray:7,7;"/><polygon fill="#F5BDE6" points="936.06,341.7939,945.8447,340.6714,940.3678,339.2557,941.7835,333.7789,936.06,341.7939" style="stroke:#F5BDE6;stroke-width:1;"/><text fill="#CAD3F5" font-family="Helvetica" font-size="12" lengthAdjust="spacing" textLength="25.6802" x="1102.5" y="287.112">uses</text></g><!--SRC=[lLPBRnen4BxpAwOv4NKNxYX28YbHQH8r2eWSgXu6hm6hk_RAzfAWbl_UMIzuNopjALnOpNlyVJFs9o5Pd4KSjjQcPZGSQdmRR8JTPglCSCsKj5pQ0LF9K39bB8Q23HdQDCqO4p9CaB6jGAl2D4PfioGExPOdV9YWa4FtEKX9skjPOMCEKsHRMEnJpc8q1aAuGwcaO1Z3D2PZQSDNOJWiDEwuDaYEAR9VkE5mLVUzWjyze9-W2lKQsT7WPXx0P7m5Q8fSXL7- -moS1Frh69NH2-k6oIkrFvCHVx-PZPtvzzGA9SdQINbKkiy2S16g8KoMfafRSpHs4LPAnHobjmh3YiDlEbOhs07MMYK-Tj_ILwNKF4pUKPTZixQ-MBW0JNajpg7d_gIo7BJOR2seTJtBirOx4N43p0DbFJOdexNIW78FELq8Twx14anEpMNamlSE5IGdEnGnheWFCqazICOzd0Kl79GLtH5DBwd1weyX5iOw3amAtDpt8mb9qC3P-nZUTfdpInu9fakCCswSxKEmh7W-OUea0IpF-geZarefFSMwywBMk6yvJdxyx6pDQev9kpidldGaLWkvkTkYTYtMF4aHGAv2HcCthfAeWjpqdRQ6eOPAw4hHUUmItAzugzQdN7gXL4wZolLBpjm2xE2buZrrMYSCuELi0AltSzfat9XMxeNUNyYymrX4Q7bKP0ggdikJpibzXEgmhPIrAZbDc-Urp_GDTmYvC48TkMagTVqtwelsdflhqxh9Pz1Rv9mFWCX8kNFMq9Poq5tNHxAhd18h7_7hmuAcM_DcAL8r2xdk7lkxF43ET7PkUpUMicEEbzL8awX8hFVt_NK0HcMQyG0mJVFZVw1YRkwftTg9Lv9qRd2NhgcjPHN_dRQmHrFkugvBvr0xdtl5CWDVvezKYEKRZVbEE7DIpkuPRVMoyx9_t7WdjsdprkiN0n30xVYimstNaKxMQrhvZN9AuOVNqx9iSkb3ggAwtFiZ3CSL5e-EkKfTYtAZ-Xk4R5icpPWrfXLvovjoCFWpBfv28s2q-IsDRsCXdpFfbOGQ3BoMteIcLy6sgQgVSLFx5m00]--></g></svg>